<?xml version="1.0" encoding="utf-8" standalone="no"?>
<!DOCTYPE svg PUBLIC "-//W3C//DTD SVG 1.1//EN"
  "http://www.w3.org/Graphics/SVG/1.1/DTD/svg11.dtd">
<svg xmlns:xlink="http://www.w3.org/1999/xlink" width="388.542964pt" height="240.132758pt" viewBox="0 0 388.542964 240.132758" xmlns="http://www.w3.org/2000/svg" version="1.1">
 <metadata>
  <rdf:RDF xmlns:dc="http://purl.org/dc/elements/1.1/" xmlns:cc="http://creativecommons.org/ns#" xmlns:rdf="http://www.w3.org/1999/02/22-rdf-syntax-ns#">
   <cc:Work>
    <dc:type rdf:resource="http://purl.org/dc/dcmitype/StillImage"/>
    <dc:date>2024-12-09T17:59:07.798270</dc:date>
    <dc:format>image/svg+xml</dc:format>
    <dc:creator>
     <cc:Agent>
      <dc:title>Matplotlib v3.7.5, https://matplotlib.org/</dc:title>
     </cc:Agent>
    </dc:creator>
   </cc:Work>
  </rdf:RDF>
 </metadata>
 <defs>
  <style type="text/css">*{stroke-linejoin: round; stroke-linecap: butt}</style>
 </defs>
 <g id="figure_1">
  <g id="patch_1">
   <path d="M 0 240.132758 
L 388.542964 240.132758 
L 388.542964 0 
L 0 0 
z
" style="fill: #ffffff"/>
  </g>
  <g id="axes_1">
   <g id="patch_2">
    <path d="M 51.648487 193.536948 
L 377.742964 193.536948 
L 377.742964 10.8 
L 51.648487 10.8 
z
" style="fill: #ffffff"/>
   </g>
   <g id="matplotlib.axis_1">
    <g id="xtick_1">
     <g id="line2d_1">
      <defs>
       <path id="m41fd4c16ef" d="M 0 0 
L 0 3.5 
" style="stroke: #000000; stroke-width: 0.8"/>
      </defs>
      <g>
       <use xlink:href="#m41fd4c16ef" x="66.470963" y="193.536948" style="stroke: #000000; stroke-width: 0.8"/>
      </g>
     </g>
     <g id="text_1">
      <!-- $\mathdefault{0.0}$ -->
      <g transform="translate(57.745672 210.222825) scale(0.14 -0.14)">
       <defs>
        <path id="CMR17-30" d="M 2688 2025 
C 2688 2416 2682 3080 2413 3591 
C 2176 4039 1798 4198 1466 4198 
C 1158 4198 768 4058 525 3597 
C 269 3118 243 2524 243 2025 
C 243 1661 250 1106 448 619 
C 723 -39 1216 -128 1466 -128 
C 1760 -128 2208 -7 2470 600 
C 2662 1042 2688 1559 2688 2025 
z
M 1466 -26 
C 1056 -26 813 325 723 812 
C 653 1188 653 1738 653 2096 
C 653 2588 653 2997 736 3387 
C 858 3929 1216 4096 1466 4096 
C 1728 4096 2067 3923 2189 3400 
C 2272 3036 2278 2607 2278 2096 
C 2278 1680 2278 1169 2202 792 
C 2067 95 1690 -26 1466 -26 
z
" transform="scale(0.015625)"/>
        <path id="CMMI12-3a" d="M 1178 307 
C 1178 492 1024 619 870 619 
C 685 619 557 466 557 313 
C 557 128 710 0 864 0 
C 1050 0 1178 153 1178 307 
z
" transform="scale(0.015625)"/>
       </defs>
       <use xlink:href="#CMR17-30" transform="scale(0.996264)"/>
       <use xlink:href="#CMMI12-3a" transform="translate(45.690477 0) scale(0.996264)"/>
       <use xlink:href="#CMR17-30" transform="translate(72.787654 0) scale(0.996264)"/>
      </g>
     </g>
    </g>
    <g id="xtick_2">
     <g id="line2d_2">
      <g>
       <use xlink:href="#m41fd4c16ef" x="125.760868" y="193.536948" style="stroke: #000000; stroke-width: 0.8"/>
      </g>
     </g>
     <g id="text_2">
      <!-- $\mathdefault{0.2}$ -->
      <g transform="translate(117.035577 210.222825) scale(0.14 -0.14)">
       <defs>
        <path id="CMR17-32" d="M 2669 989 
L 2554 989 
C 2490 536 2438 459 2413 420 
C 2381 369 1920 369 1830 369 
L 602 369 
C 832 619 1280 1072 1824 1597 
C 2214 1967 2669 2402 2669 3035 
C 2669 3790 2067 4224 1395 4224 
C 691 4224 262 3604 262 3030 
C 262 2780 448 2748 525 2748 
C 589 2748 781 2787 781 3010 
C 781 3207 614 3264 525 3264 
C 486 3264 448 3258 422 3245 
C 544 3790 915 4058 1306 4058 
C 1862 4058 2227 3617 2227 3035 
C 2227 2479 1901 2000 1536 1584 
L 262 146 
L 262 0 
L 2515 0 
L 2669 989 
z
" transform="scale(0.015625)"/>
       </defs>
       <use xlink:href="#CMR17-30" transform="scale(0.996264)"/>
       <use xlink:href="#CMMI12-3a" transform="translate(45.690477 0) scale(0.996264)"/>
       <use xlink:href="#CMR17-32" transform="translate(72.787654 0) scale(0.996264)"/>
      </g>
     </g>
    </g>
    <g id="xtick_3">
     <g id="line2d_3">
      <g>
       <use xlink:href="#m41fd4c16ef" x="185.050773" y="193.536948" style="stroke: #000000; stroke-width: 0.8"/>
      </g>
     </g>
     <g id="text_3">
      <!-- $\mathdefault{0.4}$ -->
      <g transform="translate(176.325482 210.222825) scale(0.14 -0.14)">
       <defs>
        <path id="CMR17-34" d="M 2150 4122 
C 2150 4256 2144 4256 2029 4256 
L 128 1254 
L 128 1088 
L 1779 1088 
L 1779 457 
C 1779 224 1766 160 1318 160 
L 1197 160 
L 1197 0 
C 1402 0 1747 0 1965 0 
C 2182 0 2528 0 2733 0 
L 2733 160 
L 2611 160 
C 2163 160 2150 224 2150 457 
L 2150 1088 
L 2803 1088 
L 2803 1254 
L 2150 1254 
L 2150 4122 
z
M 1798 3703 
L 1798 1254 
L 256 1254 
L 1798 3703 
z
" transform="scale(0.015625)"/>
       </defs>
       <use xlink:href="#CMR17-30" transform="scale(0.996264)"/>
       <use xlink:href="#CMMI12-3a" transform="translate(45.690477 0) scale(0.996264)"/>
       <use xlink:href="#CMR17-34" transform="translate(72.787654 0) scale(0.996264)"/>
      </g>
     </g>
    </g>
    <g id="xtick_4">
     <g id="line2d_4">
      <g>
       <use xlink:href="#m41fd4c16ef" x="244.340678" y="193.536948" style="stroke: #000000; stroke-width: 0.8"/>
      </g>
     </g>
     <g id="text_4">
      <!-- $\mathdefault{0.6}$ -->
      <g transform="translate(235.615387 210.222825) scale(0.14 -0.14)">
       <defs>
        <path id="CMR17-36" d="M 678 2176 
C 678 3690 1395 4032 1811 4032 
C 1946 4032 2272 4009 2400 3776 
C 2298 3776 2106 3776 2106 3553 
C 2106 3381 2246 3323 2336 3323 
C 2394 3323 2566 3348 2566 3560 
C 2566 3954 2246 4179 1805 4179 
C 1043 4179 243 3390 243 1984 
C 243 253 966 -128 1478 -128 
C 2099 -128 2688 427 2688 1283 
C 2688 2081 2170 2662 1517 2662 
C 1126 2662 838 2407 678 1960 
L 678 2176 
z
M 1478 25 
C 691 25 691 1200 691 1436 
C 691 1896 909 2560 1504 2560 
C 1613 2560 1926 2560 2138 2120 
C 2253 1870 2253 1609 2253 1289 
C 2253 944 2253 690 2118 434 
C 1978 171 1773 25 1478 25 
z
" transform="scale(0.015625)"/>
       </defs>
       <use xlink:href="#CMR17-30" transform="scale(0.996264)"/>
       <use xlink:href="#CMMI12-3a" transform="translate(45.690477 0) scale(0.996264)"/>
       <use xlink:href="#CMR17-36" transform="translate(72.787654 0) scale(0.996264)"/>
      </g>
     </g>
    </g>
    <g id="xtick_5">
     <g id="line2d_5">
      <g>
       <use xlink:href="#m41fd4c16ef" x="303.630583" y="193.536948" style="stroke: #000000; stroke-width: 0.8"/>
      </g>
     </g>
     <g id="text_5">
      <!-- $\mathdefault{0.8}$ -->
      <g transform="translate(294.905292 210.222825) scale(0.14 -0.14)">
       <defs>
        <path id="CMR17-38" d="M 1741 2264 
C 2144 2467 2554 2773 2554 3263 
C 2554 3841 1990 4179 1472 4179 
C 890 4179 378 3759 378 3180 
C 378 3021 416 2747 666 2505 
C 730 2442 998 2251 1171 2130 
C 883 1983 211 1634 211 934 
C 211 279 838 -128 1459 -128 
C 2144 -128 2720 362 2720 1010 
C 2720 1590 2330 1857 2074 2029 
L 1741 2264 
z
M 902 2822 
C 851 2854 595 3051 595 3351 
C 595 3739 998 4032 1459 4032 
C 1965 4032 2336 3676 2336 3262 
C 2336 2669 1670 2331 1638 2331 
C 1632 2331 1626 2331 1574 2370 
L 902 2822 
z
M 2080 1519 
C 2176 1449 2483 1240 2483 851 
C 2483 381 2010 25 1472 25 
C 890 25 448 438 448 940 
C 448 1443 838 1862 1280 2060 
L 2080 1519 
z
" transform="scale(0.015625)"/>
       </defs>
       <use xlink:href="#CMR17-30" transform="scale(0.996264)"/>
       <use xlink:href="#CMMI12-3a" transform="translate(45.690477 0) scale(0.996264)"/>
       <use xlink:href="#CMR17-38" transform="translate(72.787654 0) scale(0.996264)"/>
      </g>
     </g>
    </g>
    <g id="xtick_6">
     <g id="line2d_6">
      <g>
       <use xlink:href="#m41fd4c16ef" x="362.920488" y="193.536948" style="stroke: #000000; stroke-width: 0.8"/>
      </g>
     </g>
     <g id="text_6">
      <!-- $\mathdefault{1.0}$ -->
      <g transform="translate(354.195197 210.222825) scale(0.14 -0.14)">
       <defs>
        <path id="CMR17-31" d="M 1702 4058 
C 1702 4192 1696 4192 1606 4192 
C 1357 3916 979 3827 621 3827 
C 602 3827 570 3827 563 3808 
C 557 3795 557 3782 557 3648 
C 755 3648 1088 3686 1344 3839 
L 1344 461 
C 1344 236 1331 160 781 160 
L 589 160 
L 589 0 
C 896 0 1216 0 1523 0 
C 1830 0 2150 0 2458 0 
L 2458 160 
L 2266 160 
C 1715 160 1702 230 1702 458 
L 1702 4058 
z
" transform="scale(0.015625)"/>
       </defs>
       <use xlink:href="#CMR17-31" transform="scale(0.996264)"/>
       <use xlink:href="#CMMI12-3a" transform="translate(45.690477 0) scale(0.996264)"/>
       <use xlink:href="#CMR17-30" transform="translate(72.787654 0) scale(0.996264)"/>
      </g>
     </g>
    </g>
    <g id="text_7">
     <!-- t -->
     <g transform="translate(212.040202 226.620729) scale(0.14 -0.14)">
      <defs>
       <path id="CMR17-74" d="M 966 2560 
L 1862 2560 
L 1862 2725 
L 966 2725 
L 966 3904 
L 851 3904 
C 838 3245 614 2668 70 2668 
L 70 2560 
L 627 2560 
L 627 771 
C 627 650 627 -64 1370 -64 
C 1747 -64 1965 306 1965 777 
L 1965 1140 
L 1850 1140 
L 1850 783 
C 1850 344 1677 51 1408 51 
C 1222 51 966 178 966 758 
L 966 2560 
z
" transform="scale(0.015625)"/>
      </defs>
      <use xlink:href="#CMR17-74" transform="scale(0.996264)"/>
     </g>
    </g>
   </g>
   <g id="matplotlib.axis_2">
    <g id="ytick_1">
     <g id="line2d_7">
      <defs>
       <path id="m6a8899a63e" d="M 0 0 
L -3.5 0 
" style="stroke: #000000; stroke-width: 0.8"/>
      </defs>
      <g>
       <use xlink:href="#m6a8899a63e" x="51.648487" y="169.138982" style="stroke: #000000; stroke-width: 0.8"/>
      </g>
     </g>
     <g id="text_8">
      <!-- $\mathdefault{0.2}$ -->
      <g transform="translate(27.197905 173.98192) scale(0.14 -0.14)">
       <use xlink:href="#CMR17-30" transform="scale(0.996264)"/>
       <use xlink:href="#CMMI12-3a" transform="translate(45.690477 0) scale(0.996264)"/>
       <use xlink:href="#CMR17-32" transform="translate(72.787654 0) scale(0.996264)"/>
      </g>
     </g>
    </g>
    <g id="ytick_2">
     <g id="line2d_8">
      <g>
       <use xlink:href="#m6a8899a63e" x="51.648487" y="139.554203" style="stroke: #000000; stroke-width: 0.8"/>
      </g>
     </g>
     <g id="text_9">
      <!-- $\mathdefault{0.4}$ -->
      <g transform="translate(27.197905 144.397142) scale(0.14 -0.14)">
       <use xlink:href="#CMR17-30" transform="scale(0.996264)"/>
       <use xlink:href="#CMMI12-3a" transform="translate(45.690477 0) scale(0.996264)"/>
       <use xlink:href="#CMR17-34" transform="translate(72.787654 0) scale(0.996264)"/>
      </g>
     </g>
    </g>
    <g id="ytick_3">
     <g id="line2d_9">
      <g>
       <use xlink:href="#m6a8899a63e" x="51.648487" y="109.969424" style="stroke: #000000; stroke-width: 0.8"/>
      </g>
     </g>
     <g id="text_10">
      <!-- $\mathdefault{0.6}$ -->
      <g transform="translate(27.197905 114.812363) scale(0.14 -0.14)">
       <use xlink:href="#CMR17-30" transform="scale(0.996264)"/>
       <use xlink:href="#CMMI12-3a" transform="translate(45.690477 0) scale(0.996264)"/>
       <use xlink:href="#CMR17-36" transform="translate(72.787654 0) scale(0.996264)"/>
      </g>
     </g>
    </g>
    <g id="ytick_4">
     <g id="line2d_10">
      <g>
       <use xlink:href="#m6a8899a63e" x="51.648487" y="80.384646" style="stroke: #000000; stroke-width: 0.8"/>
      </g>
     </g>
     <g id="text_11">
      <!-- $\mathdefault{0.8}$ -->
      <g transform="translate(27.197905 85.227584) scale(0.14 -0.14)">
       <use xlink:href="#CMR17-30" transform="scale(0.996264)"/>
       <use xlink:href="#CMMI12-3a" transform="translate(45.690477 0) scale(0.996264)"/>
       <use xlink:href="#CMR17-38" transform="translate(72.787654 0) scale(0.996264)"/>
      </g>
     </g>
    </g>
    <g id="ytick_5">
     <g id="line2d_11">
      <g>
       <use xlink:href="#m6a8899a63e" x="51.648487" y="50.799867" style="stroke: #000000; stroke-width: 0.8"/>
      </g>
     </g>
     <g id="text_12">
      <!-- $\mathdefault{1.0}$ -->
      <g transform="translate(27.197905 55.642805) scale(0.14 -0.14)">
       <use xlink:href="#CMR17-31" transform="scale(0.996264)"/>
       <use xlink:href="#CMMI12-3a" transform="translate(45.690477 0) scale(0.996264)"/>
       <use xlink:href="#CMR17-30" transform="translate(72.787654 0) scale(0.996264)"/>
      </g>
     </g>
    </g>
    <g id="ytick_6">
     <g id="line2d_12">
      <g>
       <use xlink:href="#m6a8899a63e" x="51.648487" y="21.215088" style="stroke: #000000; stroke-width: 0.8"/>
      </g>
     </g>
     <g id="text_13">
      <!-- $\mathdefault{1.2}$ -->
      <g transform="translate(27.197905 26.058026) scale(0.14 -0.14)">
       <use xlink:href="#CMR17-31" transform="scale(0.996264)"/>
       <use xlink:href="#CMMI12-3a" transform="translate(45.690477 0) scale(0.996264)"/>
       <use xlink:href="#CMR17-32" transform="translate(72.787654 0) scale(0.996264)"/>
      </g>
     </g>
    </g>
    <g id="text_14">
     <!-- P -->
     <g transform="translate(20.485876 106.814435) rotate(-90) scale(0.14 -0.14)">
      <defs>
       <path id="CMR17-50" d="M 1267 2042 
L 2291 2042 
C 3117 2042 3718 2578 3718 3184 
C 3718 3791 3130 4352 2291 4352 
L 333 4352 
L 333 4186 
C 774 4186 845 4186 845 3899 
L 845 446 
C 845 160 774 160 333 160 
L 333 0 
C 518 0 858 0 1056 0 
C 1254 0 1594 0 1779 0 
L 1779 160 
C 1338 160 1267 160 1267 446 
L 1267 2042 
z
M 1254 2176 
L 1254 3938 
C 1254 4155 1267 4186 1523 4186 
L 2170 4186 
C 2995 4186 3232 3714 3232 3184 
C 3232 2604 2950 2176 2170 2176 
L 1254 2176 
z
" transform="scale(0.015625)"/>
      </defs>
      <use xlink:href="#CMR17-50" transform="scale(0.996264)"/>
     </g>
    </g>
   </g>
   <g id="line2d_13">
    <path d="M 66.470963 185.230723 
L 67.663933 184.239193 
L 68.856903 183.0225 
L 70.049786 181.52474 
L 71.24258 179.679574 
L 72.43555 177.410869 
L 73.628608 174.637594 
L 74.82149 171.281201 
L 76.014373 167.275321 
L 77.207255 162.581218 
L 78.996754 154.270289 
L 80.786166 144.66449 
L 84.365076 123.580431 
L 87.347457 106.645086 
L 89.733397 94.518534 
L 92.119339 83.74027 
L 94.505191 74.169998 
L 96.89157 65.714798 
L 98.680893 60.115346 
L 100.470306 55.181169 
L 102.259805 50.935798 
L 104.049127 47.383192 
L 105.838629 44.499538 
L 107.031599 42.9261 
L 108.224392 41.610311 
L 109.417274 40.530393 
L 110.610244 39.663423 
L 111.803302 38.986316 
L 113.592799 38.276763 
L 115.382036 37.87076 
L 117.17136 37.703785 
L 119.557035 37.759755 
L 121.943152 38.039922 
L 125.521974 38.716782 
L 130.890208 39.999419 
L 150.574176 44.853768 
L 178.60919 51.592008 
L 211.415032 59.639698 
L 223.344476 62.291925 
L 234.677477 64.579421 
L 245.414989 66.521364 
L 256.747813 68.336571 
L 268.080814 69.928851 
L 280.607037 71.460884 
L 294.325721 72.909536 
L 309.833894 74.318167 
L 327.728617 75.715248 
L 348.605378 77.118625 
L 362.920488 77.972882 
L 362.920488 77.972882 
" clip-path="url(#p3505df1ae9)" style="fill: none; stroke: #1f77b4; stroke-width: 3; stroke-linecap: square"/>
   </g>
   <g id="line2d_14">
    <path d="M 66.470963 185.230723 
L 68.042146 183.749666 
L 69.376168 182.18406 
L 70.591611 180.40598 
L 71.77741 178.265225 
L 72.963208 175.643901 
L 74.149006 172.467945 
L 75.453384 168.308224 
L 76.817052 163.200642 
L 78.240009 156.977225 
L 79.781547 149.17891 
L 81.975273 136.775655 
L 87.429944 105.550383 
L 89.623671 94.562381 
L 91.817397 84.687492 
L 93.951834 76.094457 
L 96.145561 68.156758 
L 98.131772 61.768374 
L 99.880825 56.860295 
L 101.540942 52.837006 
L 103.171414 49.449745 
L 104.712952 46.736469 
L 106.135909 44.662352 
L 107.499577 43.058989 
L 108.981825 41.659633 
L 110.345493 40.662383 
L 111.76845 39.898694 
L 113.339633 39.306177 
L 114.970105 38.929482 
L 116.689513 38.765416 
L 118.675724 38.806397 
L 121.195545 39.092578 
L 124.75294 39.740289 
L 130.474415 41.0343 
L 143.814644 44.338188 
L 208.707445 60.475016 
L 217.334126 62.329371 
L 225.516133 63.859209 
L 233.846365 65.188902 
L 242.769495 66.385406 
L 252.730199 67.491122 
L 264.262086 68.538805 
L 278.076634 69.561528 
L 295.83396 70.638756 
L 320.439271 71.888859 
L 359.274159 73.614186 
L 362.890843 73.76746 
L 362.890843 73.76746 
" clip-path="url(#p3505df1ae9)" style="fill: none; stroke-dasharray: 19.2,4.8,3,4.8; stroke-dashoffset: 0; stroke: #2ca02c; stroke-width: 3"/>
   </g>
   <g id="line2d_15">
    <path d="M 66.470963 185.045027 
L 68.012501 182.454258 
L 69.554038 179.421359 
L 71.095576 175.893364 
L 72.666758 171.736795 
L 74.297231 166.778375 
L 75.986993 160.91283 
L 77.795335 153.808391 
L 79.781547 145.065229 
L 82.064208 133.965723 
L 85.117638 117.908133 
L 91.491303 84.140665 
L 93.981479 72.317151 
L 96.145561 63.079499 
L 98.131772 55.537241 
L 100.029049 49.186523 
L 101.837391 43.891733 
L 103.586444 39.438767 
L 105.305851 35.656965 
L 106.995613 32.46768 
L 108.65573 29.795438 
L 110.315848 27.533167 
L 111.975965 25.636006 
L 113.665727 24.036223 
L 115.385135 22.709237 
L 117.163832 21.614066 
L 119.031464 20.726163 
L 120.988031 20.041421 
L 123.092822 19.540936 
L 125.375484 19.227634 
L 127.92495 19.10693 
L 130.80051 19.200778 
L 134.120745 19.54113 
L 138.033878 20.176356 
L 142.777071 21.180042 
L 148.913576 22.716925 
L 157.777417 25.188087 
L 175.356873 30.375241 
L 202.304135 38.274048 
L 224.686074 44.588942 
L 246.593694 50.533595 
L 269.064568 56.393667 
L 291.742957 62.073035 
L 314.658505 67.581637 
L 337.840858 72.928457 
L 362.031139 78.275462 
L 362.890843 78.461244 
L 362.890843 78.461244 
" clip-path="url(#p3505df1ae9)" style="fill: none; stroke-dasharray: 3,4.95; stroke-dashoffset: 0; stroke: #d62728; stroke-width: 3"/>
   </g>
   <g id="line2d_16">
    <path d="M 66.470963 185.045027 
L 67.804986 182.167876 
L 69.168654 178.685291 
L 70.561967 174.495813 
L 71.984924 169.49855 
L 73.496817 163.346075 
L 75.097644 155.870874 
L 76.876341 146.464752 
L 79.010778 133.899662 
L 82.479237 111.885124 
L 85.740182 91.737888 
L 87.844974 80.106205 
L 89.653316 71.318702 
L 91.313433 64.317496 
L 92.884616 58.625458 
L 94.396508 53.959007 
L 95.878756 50.090649 
L 97.331359 46.907024 
L 98.783961 44.252364 
L 100.236564 42.057243 
L 101.689167 40.257068 
L 103.171414 38.767162 
L 104.712952 37.531995 
L 106.313779 36.533211 
L 108.003541 35.739121 
L 109.841529 35.123645 
L 111.82774 34.693272 
L 114.080757 34.438427 
L 116.630223 34.381064 
L 119.594718 34.544759 
L 123.092822 34.966915 
L 127.420985 35.72251 
L 132.994236 36.932831 
L 140.790859 38.869315 
L 154.397892 42.512744 
L 190.090415 52.121739 
L 212.561289 57.915041 
L 235.150743 63.511459 
L 258.392385 69.037889 
L 281.871188 74.391533 
L 305.557505 79.568556 
L 330.340685 84.754713 
L 355.39067 89.767379 
L 362.890843 91.224865 
L 362.890843 91.224865 
" clip-path="url(#p3505df1ae9)" style="fill: none; stroke-dasharray: 11.1,4.8; stroke-dashoffset: 0; stroke: #d62728; stroke-width: 3"/>
   </g>
   <g id="line2d_17">
    <path d="M 66.470963 185.045027 
L 67.804986 182.111586 
L 69.168654 178.55784 
L 70.561967 174.2836 
L 72.014569 169.078374 
L 73.526462 162.811483 
L 75.186579 154.93719 
L 77.054211 144.937908 
L 79.366517 131.255595 
L 86.837045 86.047428 
L 88.852902 75.752747 
L 90.690889 67.495469 
L 92.410297 60.767906 
L 94.070414 55.155864 
L 95.671241 50.513069 
L 97.242424 46.62899 
L 98.783961 43.403855 
L 100.295854 40.745792 
L 101.807746 38.532896 
L 103.289994 36.745911 
L 104.801887 35.266868 
L 106.313779 34.091762 
L 107.884962 33.150447 
L 109.515434 32.433364 
L 111.234841 31.920923 
L 113.102473 31.601696 
L 115.147975 31.484254 
L 117.430636 31.580782 
L 120.069037 31.919706 
L 123.270692 32.563784 
L 127.480275 33.654318 
L 134.120745 35.633441 
L 148.320677 39.88434 
L 156.947358 42.206919 
L 165.959424 44.403363 
L 176.157287 46.655688 
L 188.252428 49.089272 
L 203.104549 51.838909 
L 222.136608 55.122509 
L 246.741919 59.130061 
L 277.809829 63.951919 
L 313.324482 69.226598 
L 349.758129 74.413258 
L 362.890843 76.230581 
L 362.890843 76.230581 
" clip-path="url(#p3505df1ae9)" style="fill: none; stroke-dasharray: 19.2,4.8,3,4.8; stroke-dashoffset: 0; stroke: #d62728; stroke-width: 3"/>
   </g>
   <g id="patch_3">
    <path d="M 51.648487 193.536948 
L 51.648487 10.8 
" style="fill: none; stroke: #000000; stroke-width: 0.8; stroke-linejoin: miter; stroke-linecap: square"/>
   </g>
   <g id="patch_4">
    <path d="M 377.742964 193.536948 
L 377.742964 10.8 
" style="fill: none; stroke: #000000; stroke-width: 0.8; stroke-linejoin: miter; stroke-linecap: square"/>
   </g>
   <g id="patch_5">
    <path d="M 51.648487 193.536948 
L 377.742964 193.536948 
" style="fill: none; stroke: #000000; stroke-width: 0.8; stroke-linejoin: miter; stroke-linecap: square"/>
   </g>
   <g id="patch_6">
    <path d="M 51.648487 10.8 
L 377.742964 10.8 
" style="fill: none; stroke: #000000; stroke-width: 0.8; stroke-linejoin: miter; stroke-linecap: square"/>
   </g>
   <g id="legend_1">
    <g id="line2d_18">
     <path d="M 153.249405 128.52354 
L 167.249405 128.52354 
L 181.249405 128.52354 
" style="fill: none; stroke: #1f77b4; stroke-width: 3; stroke-linecap: square"/>
    </g>
    <g id="text_15">
     <!-- $\hat{P}$ -->
     <g transform="translate(192.449405 133.42354) scale(0.14 -0.14)">
      <defs>
       <path id="CMR17-5e" d="M 1466 4421 
L 678 3555 
L 755 3478 
L 1466 4166 
L 2176 3478 
L 2253 3555 
L 1466 4421 
z
" transform="scale(0.015625)"/>
       <path id="CMMI12-50" d="M 1894 2023 
L 2970 2023 
C 3853 2023 4736 2673 4736 3401 
C 4736 3898 4314 4352 3507 4352 
L 1530 4352 
C 1408 4352 1350 4352 1350 4231 
C 1350 4167 1408 4167 1504 4167 
C 1894 4167 1894 4116 1894 4046 
C 1894 4034 1894 3995 1869 3899 
L 1005 472 
C 947 249 934 185 486 185 
C 365 185 301 185 301 70 
C 301 0 358 0 397 0 
C 518 0 646 0 768 0 
L 1517 0 
C 1638 0 1773 0 1894 0 
C 1946 0 2016 0 2016 121 
C 2016 185 1958 185 1862 185 
C 1478 185 1472 230 1472 293 
C 1472 325 1478 369 1485 401 
L 1894 2023 
z
M 2355 3930 
C 2413 4167 2438 4167 2688 4167 
L 3322 4167 
C 3802 4167 4198 4013 4198 3535 
C 4198 3369 4115 2827 3821 2534 
C 3712 2419 3405 2176 2822 2176 
L 1920 2176 
L 2355 3930 
z
" transform="scale(0.015625)"/>
      </defs>
      <use xlink:href="#CMR17-5e" transform="translate(23.496833 25.189733) scale(0.996264)"/>
      <use xlink:href="#CMMI12-50" transform="scale(0.996264)"/>
     </g>
    </g>
    <g id="line2d_19">
     <path d="M 153.249405 151.602054 
L 167.249405 151.602054 
L 181.249405 151.602054 
" style="fill: none; stroke-dasharray: 19.2,4.8,3,4.8; stroke-dashoffset: 0; stroke: #2ca02c; stroke-width: 3"/>
    </g>
    <g id="text_16">
     <!-- $\sum \hat{\phi} \cdot dt$ -->
     <g transform="translate(192.449405 156.502054) scale(0.14 -0.14)">
      <defs>
       <path id="CMEX10-50" d="M 2694 -3418 
L 422 -6227 
C 371 -6291 365 -6304 365 -6330 
C 365 -6400 422 -6400 538 -6400 
L 5843 -6400 
L 6394 -4806 
L 6234 -4806 
C 6074 -5286 5645 -5677 5101 -5862 
C 4998 -5894 4557 -6048 3616 -6048 
L 896 -6048 
L 3117 -3302 
C 3162 -3245 3174 -3226 3174 -3200 
C 3174 -3174 3168 -3168 3130 -3110 
L 1050 -256 
L 3584 -256 
C 4314 -256 5786 -301 6234 -1498 
L 6394 -1498 
L 5843 0 
L 538 0 
C 365 0 358 -6 358 -205 
L 2694 -3418 
z
" transform="scale(0.015625)"/>
       <path id="CMMI12-1e" d="M 2752 4390 
C 2752 4448 2707 4448 2688 4448 
C 2630 4448 2624 4435 2598 4326 
L 2253 2939 
C 2234 2856 2227 2849 2221 2843 
C 2214 2830 2170 2824 2157 2824 
C 1107 2734 301 1864 301 1057 
C 301 361 832 -64 1498 -64 
C 1446 -261 1402 -463 1350 -659 
C 1261 -995 1210 -1204 1210 -1229 
C 1210 -1241 1210 -1280 1274 -1280 
C 1293 -1280 1318 -1280 1331 -1254 
C 1344 -1241 1382 -1089 1408 -1008 
L 1645 -64 
C 2739 -64 3571 854 3571 1680 
C 3571 2343 3085 2816 2374 2816 
L 2752 4390 
z
M 2336 2701 
C 2758 2701 3181 2463 3181 1828 
C 3181 1097 2675 128 1677 50 
L 2336 2701 
z
M 1530 50 
C 1216 50 691 220 691 938 
C 691 1761 1274 2676 2195 2676 
L 1530 50 
z
" transform="scale(0.015625)"/>
       <path id="CMSY10-1" d="M 1229 1619 
C 1229 1805 1075 1958 890 1958 
C 704 1958 550 1805 550 1619 
C 550 1433 704 1280 890 1280 
C 1075 1280 1229 1433 1229 1619 
z
" transform="scale(0.015625)"/>
       <path id="CMMI12-64" d="M 3219 4257 
C 3226 4282 3238 4320 3238 4352 
C 3238 4416 3174 4416 3162 4416 
C 3155 4416 2842 4388 2810 4380 
C 2701 4373 2605 4358 2490 4358 
C 2330 4345 2285 4339 2285 4224 
C 2285 4160 2336 4160 2426 4160 
C 2739 4160 2746 4103 2746 4040 
C 2746 4002 2733 3952 2726 3933 
L 2336 2395 
C 2266 2561 2093 2816 1760 2816 
C 1037 2816 256 1884 256 939 
C 256 307 627 -64 1062 -64 
C 1414 -64 1715 211 1894 422 
C 1958 45 2259 -64 2451 -64 
C 2643 -64 2797 51 2912 281 
C 3014 498 3104 888 3104 913 
C 3104 945 3078 971 3040 971 
C 2982 971 2976 939 2950 843 
C 2854 466 2733 64 2470 64 
C 2285 64 2272 229 2272 357 
C 2272 382 2272 515 2317 694 
L 3219 4257 
z
M 1926 760 
C 1894 651 1894 639 1805 517 
C 1664 338 1382 64 1082 64 
C 819 64 672 300 672 677 
C 672 1028 870 1743 992 2012 
C 1210 2459 1510 2689 1760 2689 
C 2182 2689 2266 2165 2266 2114 
C 2266 2108 2246 2024 2240 2012 
L 1926 760 
z
" transform="scale(0.015625)"/>
       <path id="CMMI12-74" d="M 1286 2566 
L 1875 2566 
C 1997 2566 2061 2566 2061 2681 
C 2061 2752 2022 2752 1894 2752 
L 1331 2752 
L 1568 3692 
C 1594 3781 1594 3794 1594 3840 
C 1594 3943 1510 4000 1427 4000 
C 1376 4000 1229 3981 1178 3775 
L 928 2752 
L 326 2752 
C 198 2752 141 2752 141 2630 
C 141 2566 186 2566 307 2566 
L 877 2566 
L 454 881 
C 403 658 384 594 384 511 
C 384 211 595 -64 954 -64 
C 1600 -64 1946 868 1946 912 
C 1946 951 1920 970 1882 970 
C 1869 970 1843 970 1830 944 
C 1824 938 1818 931 1773 829 
C 1638 511 1344 64 973 64 
C 781 64 768 224 768 364 
C 768 370 768 492 787 568 
L 1286 2566 
z
" transform="scale(0.015625)"/>
      </defs>
      <use xlink:href="#CMEX10-50" transform="translate(0 74.720454) scale(0.996264)"/>
      <use xlink:href="#CMR17-5e" transform="translate(135.916962 26.296621) scale(0.996264)"/>
      <use xlink:href="#CMMI12-1e" transform="translate(121.765958 0) scale(0.996264)"/>
      <use xlink:href="#CMSY10-1" transform="translate(201.639345 0) scale(0.996264)"/>
      <use xlink:href="#CMMI12-64" transform="translate(251.452637 0) scale(0.996264)"/>
      <use xlink:href="#CMMI12-74" transform="translate(302.141734 0) scale(0.996264)"/>
     </g>
    </g>
    <g id="line2d_20">
     <path d="M 153.249405 172.549933 
L 167.249405 172.549933 
L 181.249405 172.549933 
" style="fill: none; stroke-dasharray: 3,4.95; stroke-dashoffset: 0; stroke: #d62728; stroke-width: 3"/>
    </g>
    <g id="text_17">
     <!-- $\sum \phi^s_1 \cdot dt$ -->
     <g transform="translate(192.449405 177.449933) scale(0.14 -0.14)">
      <defs>
       <path id="CMMI12-73" d="M 1459 1280 
C 1568 1261 1741 1223 1779 1216 
C 1862 1192 2150 1090 2150 783 
C 2150 586 1971 70 1229 70 
C 1094 70 614 70 486 436 
C 742 404 870 603 870 745 
C 870 880 781 950 653 950 
C 512 950 326 841 326 552 
C 326 173 710 -64 1222 -64 
C 2195 -64 2483 651 2483 984 
C 2483 1079 2483 1258 2278 1462 
C 2118 1616 1965 1648 1619 1718 
C 1446 1756 1171 1814 1171 2101 
C 1171 2229 1286 2689 1894 2689 
C 2163 2689 2426 2589 2490 2368 
C 2208 2368 2195 2125 2195 2119 
C 2195 1984 2317 1946 2374 1946 
C 2464 1946 2643 2015 2643 2281 
C 2643 2545 2400 2816 1901 2816 
C 1062 2816 838 2160 838 1899 
C 838 1414 1312 1312 1459 1280 
z
" transform="scale(0.015625)"/>
      </defs>
      <use xlink:href="#CMEX10-50" transform="translate(0 74.720454) scale(0.996264)"/>
      <use xlink:href="#CMMI12-1e" transform="translate(121.765958 0) scale(0.996264)"/>
      <use xlink:href="#CMMI12-73" transform="translate(179.500138 36.153639) scale(0.697382)"/>
      <use xlink:href="#CMR17-31" transform="translate(179.500138 -24.740171) scale(0.697382)"/>
      <use xlink:href="#CMSY10-1" transform="translate(234.302366 0) scale(0.996264)"/>
      <use xlink:href="#CMMI12-64" transform="translate(284.115658 0) scale(0.996264)"/>
      <use xlink:href="#CMMI12-74" transform="translate(334.804754 0) scale(0.996264)"/>
     </g>
    </g>
    <g id="line2d_21">
     <path d="M 273.196184 128.52354 
L 287.196184 128.52354 
L 301.196184 128.52354 
" style="fill: none; stroke-dasharray: 11.1,4.8; stroke-dashoffset: 0; stroke: #d62728; stroke-width: 3"/>
    </g>
    <g id="text_18">
     <!-- $\sum \phi^s_4 \cdot dt$ -->
     <g transform="translate(312.396184 133.42354) scale(0.14 -0.14)">
      <use xlink:href="#CMEX10-50" transform="translate(0 74.720454) scale(0.996264)"/>
      <use xlink:href="#CMMI12-1e" transform="translate(121.765958 0) scale(0.996264)"/>
      <use xlink:href="#CMMI12-73" transform="translate(179.500138 36.153639) scale(0.697382)"/>
      <use xlink:href="#CMR17-34" transform="translate(179.500138 -24.740171) scale(0.697382)"/>
      <use xlink:href="#CMSY10-1" transform="translate(234.302366 0) scale(0.996264)"/>
      <use xlink:href="#CMMI12-64" transform="translate(284.115658 0) scale(0.996264)"/>
      <use xlink:href="#CMMI12-74" transform="translate(334.804754 0) scale(0.996264)"/>
     </g>
    </g>
    <g id="line2d_22">
     <path d="M 273.196184 149.471418 
L 287.196184 149.471418 
L 301.196184 149.471418 
" style="fill: none; stroke-dasharray: 19.2,4.8,3,4.8; stroke-dashoffset: 0; stroke: #d62728; stroke-width: 3"/>
    </g>
    <g id="text_19">
     <!-- $\sum \phi^s_{6} \cdot dt$ -->
     <g transform="translate(312.396184 154.371418) scale(0.14 -0.14)">
      <use xlink:href="#CMEX10-50" transform="translate(0 74.720454) scale(0.996264)"/>
      <use xlink:href="#CMMI12-1e" transform="translate(121.765958 0) scale(0.996264)"/>
      <use xlink:href="#CMMI12-73" transform="translate(179.500138 36.153639) scale(0.697382)"/>
      <use xlink:href="#CMR17-36" transform="translate(179.500138 -24.740171) scale(0.697382)"/>
      <use xlink:href="#CMSY10-1" transform="translate(234.302366 0) scale(0.996264)"/>
      <use xlink:href="#CMMI12-64" transform="translate(284.115658 0) scale(0.996264)"/>
      <use xlink:href="#CMMI12-74" transform="translate(334.804754 0) scale(0.996264)"/>
     </g>
    </g>
   </g>
  </g>
 </g>
 <defs>
  <clipPath id="p3505df1ae9">
   <rect x="51.648487" y="10.8" width="326.094477" height="182.736948"/>
  </clipPath>
 </defs>
</svg>
