<?xml version="1.0" encoding="utf-8" standalone="no"?>
<!DOCTYPE svg PUBLIC "-//W3C//DTD SVG 1.1//EN"
  "http://www.w3.org/Graphics/SVG/1.1/DTD/svg11.dtd">
<svg xmlns:xlink="http://www.w3.org/1999/xlink" width="388.542964pt" height="240.132758pt" viewBox="0 0 388.542964 240.132758" xmlns="http://www.w3.org/2000/svg" version="1.1">
 <metadata>
  <rdf:RDF xmlns:dc="http://purl.org/dc/elements/1.1/" xmlns:cc="http://creativecommons.org/ns#" xmlns:rdf="http://www.w3.org/1999/02/22-rdf-syntax-ns#">
   <cc:Work>
    <dc:type rdf:resource="http://purl.org/dc/dcmitype/StillImage"/>
    <dc:date>2024-12-16T14:13:40.216137</dc:date>
    <dc:format>image/svg+xml</dc:format>
    <dc:creator>
     <cc:Agent>
      <dc:title>Matplotlib v3.7.5, https://matplotlib.org/</dc:title>
     </cc:Agent>
    </dc:creator>
   </cc:Work>
  </rdf:RDF>
 </metadata>
 <defs>
  <style type="text/css">*{stroke-linejoin: round; stroke-linecap: butt}</style>
 </defs>
 <g id="figure_1">
  <g id="patch_1">
   <path d="M 0 240.132758 
L 388.542964 240.132758 
L 388.542964 0 
L 0 0 
z
" style="fill: #ffffff"/>
  </g>
  <g id="axes_1">
   <g id="patch_2">
    <path d="M 48.56787 213.718154 
L 349.688667 213.718154 
L 349.688667 28.815931 
L 48.56787 28.815931 
z
" style="fill: #ffffff"/>
   </g>
   <g id="matplotlib.axis_1">
    <g id="xtick_1">
     <g id="line2d_1">
      <defs>
       <path id="mf1de05121d" d="M 0 0 
L 0 3.5 
" style="stroke: #000000; stroke-width: 0.8"/>
      </defs>
      <g>
       <use xlink:href="#mf1de05121d" x="62.255179" y="213.718154" style="stroke: #000000; stroke-width: 0.8"/>
      </g>
     </g>
     <g id="text_1">
      <!-- $\mathdefault{0.0}$ -->
      <g transform="translate(53.529888 230.404031) scale(0.14 -0.14)">
       <defs>
        <path id="CMR17-30" d="M 2688 2025 
C 2688 2416 2682 3080 2413 3591 
C 2176 4039 1798 4198 1466 4198 
C 1158 4198 768 4058 525 3597 
C 269 3118 243 2524 243 2025 
C 243 1661 250 1106 448 619 
C 723 -39 1216 -128 1466 -128 
C 1760 -128 2208 -7 2470 600 
C 2662 1042 2688 1559 2688 2025 
z
M 1466 -26 
C 1056 -26 813 325 723 812 
C 653 1188 653 1738 653 2096 
C 653 2588 653 2997 736 3387 
C 858 3929 1216 4096 1466 4096 
C 1728 4096 2067 3923 2189 3400 
C 2272 3036 2278 2607 2278 2096 
C 2278 1680 2278 1169 2202 792 
C 2067 95 1690 -26 1466 -26 
z
" transform="scale(0.015625)"/>
        <path id="CMMI12-3a" d="M 1178 307 
C 1178 492 1024 619 870 619 
C 685 619 557 466 557 313 
C 557 128 710 0 864 0 
C 1050 0 1178 153 1178 307 
z
" transform="scale(0.015625)"/>
       </defs>
       <use xlink:href="#CMR17-30" transform="scale(0.996264)"/>
       <use xlink:href="#CMMI12-3a" transform="translate(45.690477 0) scale(0.996264)"/>
       <use xlink:href="#CMR17-30" transform="translate(72.787654 0) scale(0.996264)"/>
      </g>
     </g>
    </g>
    <g id="xtick_2">
     <g id="line2d_2">
      <g>
       <use xlink:href="#mf1de05121d" x="117.059219" y="213.718154" style="stroke: #000000; stroke-width: 0.8"/>
      </g>
     </g>
     <g id="text_2">
      <!-- $\mathdefault{0.2}$ -->
      <g transform="translate(108.333928 230.404031) scale(0.14 -0.14)">
       <defs>
        <path id="CMR17-32" d="M 2669 989 
L 2554 989 
C 2490 536 2438 459 2413 420 
C 2381 369 1920 369 1830 369 
L 602 369 
C 832 619 1280 1072 1824 1597 
C 2214 1967 2669 2402 2669 3035 
C 2669 3790 2067 4224 1395 4224 
C 691 4224 262 3604 262 3030 
C 262 2780 448 2748 525 2748 
C 589 2748 781 2787 781 3010 
C 781 3207 614 3264 525 3264 
C 486 3264 448 3258 422 3245 
C 544 3790 915 4058 1306 4058 
C 1862 4058 2227 3617 2227 3035 
C 2227 2479 1901 2000 1536 1584 
L 262 146 
L 262 0 
L 2515 0 
L 2669 989 
z
" transform="scale(0.015625)"/>
       </defs>
       <use xlink:href="#CMR17-30" transform="scale(0.996264)"/>
       <use xlink:href="#CMMI12-3a" transform="translate(45.690477 0) scale(0.996264)"/>
       <use xlink:href="#CMR17-32" transform="translate(72.787654 0) scale(0.996264)"/>
      </g>
     </g>
    </g>
    <g id="xtick_3">
     <g id="line2d_3">
      <g>
       <use xlink:href="#mf1de05121d" x="171.863259" y="213.718154" style="stroke: #000000; stroke-width: 0.8"/>
      </g>
     </g>
     <g id="text_3">
      <!-- $\mathdefault{0.4}$ -->
      <g transform="translate(163.137968 230.404031) scale(0.14 -0.14)">
       <defs>
        <path id="CMR17-34" d="M 2150 4122 
C 2150 4256 2144 4256 2029 4256 
L 128 1254 
L 128 1088 
L 1779 1088 
L 1779 457 
C 1779 224 1766 160 1318 160 
L 1197 160 
L 1197 0 
C 1402 0 1747 0 1965 0 
C 2182 0 2528 0 2733 0 
L 2733 160 
L 2611 160 
C 2163 160 2150 224 2150 457 
L 2150 1088 
L 2803 1088 
L 2803 1254 
L 2150 1254 
L 2150 4122 
z
M 1798 3703 
L 1798 1254 
L 256 1254 
L 1798 3703 
z
" transform="scale(0.015625)"/>
       </defs>
       <use xlink:href="#CMR17-30" transform="scale(0.996264)"/>
       <use xlink:href="#CMMI12-3a" transform="translate(45.690477 0) scale(0.996264)"/>
       <use xlink:href="#CMR17-34" transform="translate(72.787654 0) scale(0.996264)"/>
      </g>
     </g>
    </g>
    <g id="xtick_4">
     <g id="line2d_4">
      <g>
       <use xlink:href="#mf1de05121d" x="226.667299" y="213.718154" style="stroke: #000000; stroke-width: 0.8"/>
      </g>
     </g>
     <g id="text_4">
      <!-- $\mathdefault{0.6}$ -->
      <g transform="translate(217.942008 230.404031) scale(0.14 -0.14)">
       <defs>
        <path id="CMR17-36" d="M 678 2176 
C 678 3690 1395 4032 1811 4032 
C 1946 4032 2272 4009 2400 3776 
C 2298 3776 2106 3776 2106 3553 
C 2106 3381 2246 3323 2336 3323 
C 2394 3323 2566 3348 2566 3560 
C 2566 3954 2246 4179 1805 4179 
C 1043 4179 243 3390 243 1984 
C 243 253 966 -128 1478 -128 
C 2099 -128 2688 427 2688 1283 
C 2688 2081 2170 2662 1517 2662 
C 1126 2662 838 2407 678 1960 
L 678 2176 
z
M 1478 25 
C 691 25 691 1200 691 1436 
C 691 1896 909 2560 1504 2560 
C 1613 2560 1926 2560 2138 2120 
C 2253 1870 2253 1609 2253 1289 
C 2253 944 2253 690 2118 434 
C 1978 171 1773 25 1478 25 
z
" transform="scale(0.015625)"/>
       </defs>
       <use xlink:href="#CMR17-30" transform="scale(0.996264)"/>
       <use xlink:href="#CMMI12-3a" transform="translate(45.690477 0) scale(0.996264)"/>
       <use xlink:href="#CMR17-36" transform="translate(72.787654 0) scale(0.996264)"/>
      </g>
     </g>
    </g>
    <g id="xtick_5">
     <g id="line2d_5">
      <g>
       <use xlink:href="#mf1de05121d" x="281.471339" y="213.718154" style="stroke: #000000; stroke-width: 0.8"/>
      </g>
     </g>
     <g id="text_5">
      <!-- $\mathdefault{0.8}$ -->
      <g transform="translate(272.746048 230.404031) scale(0.14 -0.14)">
       <defs>
        <path id="CMR17-38" d="M 1741 2264 
C 2144 2467 2554 2773 2554 3263 
C 2554 3841 1990 4179 1472 4179 
C 890 4179 378 3759 378 3180 
C 378 3021 416 2747 666 2505 
C 730 2442 998 2251 1171 2130 
C 883 1983 211 1634 211 934 
C 211 279 838 -128 1459 -128 
C 2144 -128 2720 362 2720 1010 
C 2720 1590 2330 1857 2074 2029 
L 1741 2264 
z
M 902 2822 
C 851 2854 595 3051 595 3351 
C 595 3739 998 4032 1459 4032 
C 1965 4032 2336 3676 2336 3262 
C 2336 2669 1670 2331 1638 2331 
C 1632 2331 1626 2331 1574 2370 
L 902 2822 
z
M 2080 1519 
C 2176 1449 2483 1240 2483 851 
C 2483 381 2010 25 1472 25 
C 890 25 448 438 448 940 
C 448 1443 838 1862 1280 2060 
L 2080 1519 
z
" transform="scale(0.015625)"/>
       </defs>
       <use xlink:href="#CMR17-30" transform="scale(0.996264)"/>
       <use xlink:href="#CMMI12-3a" transform="translate(45.690477 0) scale(0.996264)"/>
       <use xlink:href="#CMR17-38" transform="translate(72.787654 0) scale(0.996264)"/>
      </g>
     </g>
    </g>
    <g id="xtick_6">
     <g id="line2d_6">
      <g>
       <use xlink:href="#mf1de05121d" x="336.275379" y="213.718154" style="stroke: #000000; stroke-width: 0.8"/>
      </g>
     </g>
     <g id="text_6">
      <!-- $\mathdefault{1.0}$ -->
      <g transform="translate(327.550088 230.404031) scale(0.14 -0.14)">
       <defs>
        <path id="CMR17-31" d="M 1702 4058 
C 1702 4192 1696 4192 1606 4192 
C 1357 3916 979 3827 621 3827 
C 602 3827 570 3827 563 3808 
C 557 3795 557 3782 557 3648 
C 755 3648 1088 3686 1344 3839 
L 1344 461 
C 1344 236 1331 160 781 160 
L 589 160 
L 589 0 
C 896 0 1216 0 1523 0 
C 1830 0 2150 0 2458 0 
L 2458 160 
L 2266 160 
C 1715 160 1702 230 1702 458 
L 1702 4058 
z
" transform="scale(0.015625)"/>
       </defs>
       <use xlink:href="#CMR17-31" transform="scale(0.996264)"/>
       <use xlink:href="#CMMI12-3a" transform="translate(45.690477 0) scale(0.996264)"/>
       <use xlink:href="#CMR17-30" transform="translate(72.787654 0) scale(0.996264)"/>
      </g>
     </g>
    </g>
    <g id="text_7">
     <!-- t -->
     <g transform="translate(196.472746 246.801936) scale(0.14 -0.14)">
      <defs>
       <path id="CMR17-74" d="M 966 2560 
L 1862 2560 
L 1862 2725 
L 966 2725 
L 966 3904 
L 851 3904 
C 838 3245 614 2668 70 2668 
L 70 2560 
L 627 2560 
L 627 771 
C 627 650 627 -64 1370 -64 
C 1747 -64 1965 306 1965 777 
L 1965 1140 
L 1850 1140 
L 1850 783 
C 1850 344 1677 51 1408 51 
C 1222 51 966 178 966 758 
L 966 2560 
z
" transform="scale(0.015625)"/>
      </defs>
      <use xlink:href="#CMR17-74" transform="scale(0.996264)"/>
     </g>
    </g>
   </g>
   <g id="matplotlib.axis_2">
    <g id="ytick_1">
     <g id="line2d_7">
      <defs>
       <path id="me0f724171f" d="M 0 0 
L -3.5 0 
" style="stroke: #000000; stroke-width: 0.8"/>
      </defs>
      <g>
       <use xlink:href="#me0f724171f" x="48.56787" y="205.313508" style="stroke: #000000; stroke-width: 0.8"/>
      </g>
     </g>
     <g id="text_8">
      <!-- $\mathdefault{0.0}$ -->
      <g transform="translate(24.117288 210.156446) scale(0.14 -0.14)">
       <use xlink:href="#CMR17-30" transform="scale(0.996264)"/>
       <use xlink:href="#CMMI12-3a" transform="translate(45.690477 0) scale(0.996264)"/>
       <use xlink:href="#CMR17-30" transform="translate(72.787654 0) scale(0.996264)"/>
      </g>
     </g>
    </g>
    <g id="ytick_2">
     <g id="line2d_8">
      <g>
       <use xlink:href="#me0f724171f" x="48.56787" y="171.683045" style="stroke: #000000; stroke-width: 0.8"/>
      </g>
     </g>
     <g id="text_9">
      <!-- $\mathdefault{0.2}$ -->
      <g transform="translate(24.117288 176.525983) scale(0.14 -0.14)">
       <use xlink:href="#CMR17-30" transform="scale(0.996264)"/>
       <use xlink:href="#CMMI12-3a" transform="translate(45.690477 0) scale(0.996264)"/>
       <use xlink:href="#CMR17-32" transform="translate(72.787654 0) scale(0.996264)"/>
      </g>
     </g>
    </g>
    <g id="ytick_3">
     <g id="line2d_9">
      <g>
       <use xlink:href="#me0f724171f" x="48.56787" y="138.052582" style="stroke: #000000; stroke-width: 0.8"/>
      </g>
     </g>
     <g id="text_10">
      <!-- $\mathdefault{0.4}$ -->
      <g transform="translate(24.117288 142.89552) scale(0.14 -0.14)">
       <use xlink:href="#CMR17-30" transform="scale(0.996264)"/>
       <use xlink:href="#CMMI12-3a" transform="translate(45.690477 0) scale(0.996264)"/>
       <use xlink:href="#CMR17-34" transform="translate(72.787654 0) scale(0.996264)"/>
      </g>
     </g>
    </g>
    <g id="ytick_4">
     <g id="line2d_10">
      <g>
       <use xlink:href="#me0f724171f" x="48.56787" y="104.422119" style="stroke: #000000; stroke-width: 0.8"/>
      </g>
     </g>
     <g id="text_11">
      <!-- $\mathdefault{0.6}$ -->
      <g transform="translate(24.117288 109.265057) scale(0.14 -0.14)">
       <use xlink:href="#CMR17-30" transform="scale(0.996264)"/>
       <use xlink:href="#CMMI12-3a" transform="translate(45.690477 0) scale(0.996264)"/>
       <use xlink:href="#CMR17-36" transform="translate(72.787654 0) scale(0.996264)"/>
      </g>
     </g>
    </g>
    <g id="ytick_5">
     <g id="line2d_11">
      <g>
       <use xlink:href="#me0f724171f" x="48.56787" y="70.791656" style="stroke: #000000; stroke-width: 0.8"/>
      </g>
     </g>
     <g id="text_12">
      <!-- $\mathdefault{0.8}$ -->
      <g transform="translate(24.117288 75.634594) scale(0.14 -0.14)">
       <use xlink:href="#CMR17-30" transform="scale(0.996264)"/>
       <use xlink:href="#CMMI12-3a" transform="translate(45.690477 0) scale(0.996264)"/>
       <use xlink:href="#CMR17-38" transform="translate(72.787654 0) scale(0.996264)"/>
      </g>
     </g>
    </g>
    <g id="ytick_6">
     <g id="line2d_12">
      <g>
       <use xlink:href="#me0f724171f" x="48.56787" y="37.161193" style="stroke: #000000; stroke-width: 0.8"/>
      </g>
     </g>
     <g id="text_13">
      <!-- $\mathdefault{1.0}$ -->
      <g transform="translate(24.117288 42.004131) scale(0.14 -0.14)">
       <use xlink:href="#CMR17-31" transform="scale(0.996264)"/>
       <use xlink:href="#CMMI12-3a" transform="translate(45.690477 0) scale(0.996264)"/>
       <use xlink:href="#CMR17-30" transform="translate(72.787654 0) scale(0.996264)"/>
      </g>
     </g>
    </g>
   </g>
   <g id="line2d_13">
    <path d="M 62.255179 189.305408 
L 69.653725 187.39879 
L 71.845886 186.643148 
L 73.490008 185.847373 
L 74.860109 184.930248 
L 75.956189 183.925111 
L 76.77825 182.929858 
L 77.600311 181.632503 
L 78.422371 179.925506 
L 79.244432 177.690348 
L 80.066492 174.790319 
L 80.888553 171.135409 
L 83.354735 159.102505 
L 83.902775 157.688889 
L 84.450816 156.867252 
L 84.998856 156.415801 
L 85.820917 156.103154 
L 86.916997 155.985173 
L 89.109159 156.043454 
L 101.714088 156.864415 
L 152.407825 160.07542 
L 204.745683 163.16748 
L 259.001683 166.149935 
L 315.449844 169.02912 
L 336.001359 170.023951 
L 336.001359 170.023951 
" clip-path="url(#p8bb2608f0c)" style="fill: none; stroke: #60a7d2; stroke-width: 3; stroke-linecap: square"/>
   </g>
   <g id="line2d_14">
    <path d="M 62.255179 37.220577 
L 63.07724 72.328228 
L 63.899301 100.423665 
L 64.721361 122.838741 
L 65.543422 140.666511 
L 66.365482 154.801256 
L 67.187543 165.972339 
L 68.009604 174.77275 
L 68.831664 181.683193 
L 69.653725 187.092306 
L 70.475785 191.313715 
L 71.297846 194.60008 
L 72.119907 197.153065 
L 72.941967 199.13111 
L 73.764028 200.658912 
L 74.860109 202.163128 
L 75.956189 203.218001 
L 77.05227 203.952134 
L 78.422371 204.557087 
L 80.066492 204.98018 
L 81.984634 205.215492 
L 84.998856 205.306404 
L 104.72831 205.313508 
L 336.001359 205.313508 
L 336.001359 205.313508 
" clip-path="url(#p8bb2608f0c)" style="fill: none; stroke-dasharray: 11.1,4.8; stroke-dashoffset: 0; stroke: #fa8331; stroke-width: 3"/>
   </g>
   <g id="line2d_15">
    <path d="M 62.255179 189.305408 
L 69.379705 187.445494 
L 71.571866 186.711211 
L 73.215987 185.943731 
L 74.586088 185.072427 
L 75.682169 184.126278 
L 76.77825 182.832223 
L 77.600311 181.515631 
L 78.422371 179.783039 
L 79.244432 177.514385 
L 80.066492 174.571409 
L 81.162573 169.49028 
L 83.080715 159.815487 
L 83.628755 158.084153 
L 84.176795 157.033001 
L 84.724836 156.443033 
L 85.272876 156.122132 
L 86.094937 155.901609 
L 87.465038 155.820671 
L 90.75328 155.946841 
L 195.703017 161.352627 
L 260.919824 164.410566 
L 328.602813 167.359412 
L 336.001359 167.668581 
L 336.001359 167.668581 
" clip-path="url(#p8bb2608f0c)" style="fill: none; stroke: #60a7d2; stroke-width: 3; stroke-linecap: square"/>
   </g>
   <g id="line2d_16">
    <path d="M 62.255179 37.220577 
L 63.07724 72.330423 
L 63.899301 100.432385 
L 64.721361 122.855343 
L 65.543422 140.69059 
L 66.365482 154.831459 
L 67.187543 166.00692 
L 68.009604 174.809931 
L 68.831664 181.721349 
L 69.653725 187.130074 
L 70.475785 191.350038 
L 71.297846 194.634208 
L 72.119907 197.184495 
L 72.941967 199.159538 
L 73.764028 200.684212 
L 74.860109 202.184299 
L 75.956189 203.235284 
L 77.05227 203.965898 
L 78.422371 204.567047 
L 80.066492 204.986378 
L 81.984634 205.218298 
L 84.998856 205.306716 
L 105.550371 205.313508 
L 336.001359 205.313508 
L 336.001359 205.313508 
" clip-path="url(#p8bb2608f0c)" style="fill: none; stroke-dasharray: 11.1,4.8; stroke-dashoffset: 0; stroke: #fa8331; stroke-width: 3"/>
   </g>
   <g id="line2d_17">
    <path d="M 62.255179 189.305408 
L 69.379705 187.439797 
L 71.571866 186.703302 
L 73.215987 185.93381 
L 74.586088 185.060315 
L 75.682169 184.111821 
L 76.77825 182.814445 
L 77.600311 181.494338 
L 78.422371 179.757071 
L 79.244432 177.482293 
L 80.066492 174.531479 
L 81.162573 169.439405 
L 83.080715 159.766576 
L 83.628755 158.043922 
L 84.176795 156.999506 
L 84.724836 156.413346 
L 85.272876 156.094169 
L 86.094937 155.874091 
L 87.465038 155.791505 
L 90.75328 155.91099 
L 201.457441 161.381959 
L 269.41445 164.436993 
L 336.001359 167.224274 
L 336.001359 167.224274 
" clip-path="url(#p8bb2608f0c)" style="fill: none; stroke: #60a7d2; stroke-width: 3; stroke-linecap: square"/>
   </g>
   <g id="line2d_18">
    <path d="M 62.255179 37.220577 
L 63.07724 72.330824 
L 63.899301 100.433969 
L 64.721361 122.85837 
L 65.543422 140.69497 
L 66.365482 154.836947 
L 67.187543 166.013201 
L 68.009604 174.816684 
L 68.831664 181.728274 
L 69.653725 187.136927 
L 70.475785 191.356627 
L 71.297846 194.640396 
L 72.119907 197.190192 
L 72.941967 199.164689 
L 73.764028 200.688796 
L 74.860109 202.188132 
L 75.956189 203.23841 
L 77.05227 203.968386 
L 78.422371 204.568845 
L 80.066492 204.987494 
L 81.984634 205.2188 
L 84.998856 205.306771 
L 105.824391 205.313508 
L 336.001359 205.313508 
L 336.001359 205.313508 
" clip-path="url(#p8bb2608f0c)" style="fill: none; stroke-dasharray: 11.1,4.8; stroke-dashoffset: 0; stroke: #fa8331; stroke-width: 3"/>
   </g>
   <g id="line2d_19">
    <path d="M 62.255179 189.305408 
L 69.379705 187.434459 
L 71.571866 186.695896 
L 73.215987 185.924517 
L 74.586088 185.048969 
L 75.682169 184.098275 
L 76.77825 182.797782 
L 77.600311 181.474375 
L 78.422371 179.73272 
L 79.244432 177.4522 
L 80.066492 174.494034 
L 81.162573 169.391727 
L 83.080715 159.720893 
L 83.628755 158.006352 
L 84.176795 156.968205 
L 84.724836 156.385578 
L 85.546896 155.969818 
L 86.642977 155.789656 
L 88.561119 155.783672 
L 96.507704 156.164077 
L 163.368633 159.400098 
L 232.421723 162.518713 
L 304.215015 165.536701 
L 336.001359 166.804019 
L 336.001359 166.804019 
" clip-path="url(#p8bb2608f0c)" style="fill: none; stroke: #60a7d2; stroke-width: 3; stroke-linecap: square"/>
   </g>
   <g id="line2d_20">
    <path d="M 62.255179 37.220577 
L 63.07724 72.331185 
L 63.899301 100.435452 
L 64.721361 122.861197 
L 65.543422 140.699069 
L 66.365482 154.842093 
L 67.187543 166.019097 
L 68.009604 174.823018 
L 68.831664 181.734769 
L 69.653725 187.143352 
L 70.475785 191.362802 
L 71.297846 194.646194 
L 72.119907 197.195528 
L 72.941967 199.169513 
L 73.764028 200.693086 
L 74.860109 202.191719 
L 75.956189 203.241336 
L 77.05227 203.970713 
L 78.422371 204.570526 
L 80.066492 204.988537 
L 81.984634 205.219269 
L 84.998856 205.306822 
L 105.824391 205.313508 
L 336.001359 205.313508 
L 336.001359 205.313508 
" clip-path="url(#p8bb2608f0c)" style="fill: none; stroke-dasharray: 11.1,4.8; stroke-dashoffset: 0; stroke: #fa8331; stroke-width: 3"/>
   </g>
   <g id="line2d_21">
    <path d="M 62.255179 189.305408 
L 69.379705 187.436949 
L 71.571866 186.699348 
L 73.215987 185.92885 
L 74.586088 185.054259 
L 75.682169 184.104589 
L 76.77825 182.80555 
L 77.600311 181.483684 
L 78.422371 179.744079 
L 79.244432 177.466239 
L 80.066492 174.511501 
L 81.162573 169.413965 
L 83.080715 159.742186 
L 83.628755 158.023862 
L 84.176795 156.982793 
L 84.724836 156.398522 
L 85.272876 156.080197 
L 86.094937 155.86033 
L 87.465038 155.776927 
L 90.75328 155.893094 
L 204.745683 161.40701 
L 274.346814 164.467812 
L 336.001359 167.000448 
L 336.001359 167.000448 
" clip-path="url(#p8bb2608f0c)" style="fill: none; stroke: #60a7d2; stroke-width: 3; stroke-linecap: square"/>
   </g>
   <g id="line2d_22">
    <path d="M 62.255179 37.220577 
L 63.07724 72.331014 
L 63.899301 100.434751 
L 64.721361 122.859864 
L 65.543422 140.697145 
L 66.365482 154.839683 
L 67.187543 166.016343 
L 68.009604 174.820062 
L 68.831664 181.731737 
L 69.653725 187.140352 
L 70.475785 191.359919 
L 71.297846 194.643488 
L 72.119907 197.193038 
L 72.941967 199.167263 
L 73.764028 200.691085 
L 74.860109 202.190046 
L 75.956189 203.239972 
L 77.05227 203.969628 
L 78.422371 204.569743 
L 80.066492 204.988051 
L 81.984634 205.219051 
L 84.998856 205.306798 
L 105.824391 205.313508 
L 336.001359 205.313508 
L 336.001359 205.313508 
" clip-path="url(#p8bb2608f0c)" style="fill: none; stroke-dasharray: 11.1,4.8; stroke-dashoffset: 0; stroke: #fa8331; stroke-width: 3"/>
   </g>
   <g id="line2d_23">
    <path d="M 62.255179 189.305408 
L 69.379705 187.445846 
L 71.571866 186.7117 
L 73.215987 185.944344 
L 74.586088 185.073175 
L 75.682169 184.127173 
L 76.77825 182.83332 
L 77.600311 181.516944 
L 78.422371 179.784643 
L 79.244432 177.516367 
L 80.066492 174.573875 
L 81.162573 169.493419 
L 83.080715 159.818509 
L 83.628755 158.086644 
L 84.176795 157.035071 
L 84.724836 156.444862 
L 85.272876 156.123856 
L 86.094937 155.903302 
L 87.465038 155.82246 
L 90.75328 155.949041 
L 195.154976 161.340645 
L 260.371784 164.406777 
L 327.780753 167.351469 
L 336.001359 167.69576 
L 336.001359 167.69576 
" clip-path="url(#p8bb2608f0c)" style="fill: none; stroke: #60a7d2; stroke-width: 3; stroke-linecap: square"/>
   </g>
   <g id="line2d_24">
    <path d="M 62.255179 37.220577 
L 63.07724 72.330403 
L 63.899301 100.432295 
L 64.721361 122.855173 
L 65.543422 140.690334 
L 66.365482 154.831134 
L 67.187543 166.006544 
L 68.009604 174.809525 
L 68.831664 181.720928 
L 69.653725 187.129656 
L 70.475785 191.349635 
L 71.297846 194.633829 
L 72.119907 197.184145 
L 72.941967 199.159221 
L 73.764028 200.683931 
L 74.860109 202.184063 
L 75.956189 203.235091 
L 77.05227 203.965744 
L 78.422371 204.566936 
L 80.066492 204.986309 
L 81.984634 205.218267 
L 84.998856 205.306712 
L 105.550371 205.313508 
L 336.001359 205.313508 
L 336.001359 205.313508 
" clip-path="url(#p8bb2608f0c)" style="fill: none; stroke-dasharray: 11.1,4.8; stroke-dashoffset: 0; stroke: #fa8331; stroke-width: 3"/>
   </g>
   <g id="line2d_25">
    <path d="M 62.255179 189.305408 
L 69.653725 187.381564 
L 71.845886 186.619365 
L 73.490008 185.817543 
L 74.860109 184.893718 
L 75.956189 183.881274 
L 76.77825 182.878532 
L 77.600311 181.571077 
L 78.422371 179.850647 
L 79.244432 177.597907 
L 80.066492 174.675324 
L 80.888553 170.995753 
L 83.354735 158.97173 
L 83.902775 157.581882 
L 84.450816 156.77598 
L 84.998856 156.332633 
L 85.820917 156.023685 
L 86.916997 155.903523 
L 89.109159 155.950294 
L 101.988108 156.709831 
L 157.888229 159.920585 
L 215.980511 163.032791 
L 275.990935 166.023793 
L 336.001359 168.803206 
L 336.001359 168.803206 
" clip-path="url(#p8bb2608f0c)" style="fill: none; stroke: #60a7d2; stroke-width: 3; stroke-linecap: square"/>
   </g>
   <g id="line2d_26">
    <path d="M 62.255179 37.220577 
L 63.07724 72.329391 
L 63.899301 100.428256 
L 64.721361 122.847486 
L 65.543422 140.679194 
L 66.365482 154.817162 
L 67.187543 165.990547 
L 68.009604 174.792326 
L 68.831664 181.70328 
L 69.653725 187.11219 
L 70.475785 191.332841 
L 71.297846 194.618052 
L 72.119907 197.169618 
L 72.941967 199.146083 
L 73.764028 200.672241 
L 74.860109 202.174284 
L 75.956189 203.227111 
L 77.05227 203.959391 
L 78.422371 204.562341 
L 80.066492 204.983453 
L 81.984634 205.216977 
L 84.998856 205.30657 
L 105.276351 205.313508 
L 336.001359 205.313508 
L 336.001359 205.313508 
" clip-path="url(#p8bb2608f0c)" style="fill: none; stroke-dasharray: 11.1,4.8; stroke-dashoffset: 0; stroke: #fa8331; stroke-width: 3"/>
   </g>
   <g id="line2d_27">
    <path d="M 62.255179 189.305408 
L 69.653725 187.403064 
L 71.845886 186.649045 
L 73.490008 185.854769 
L 74.860109 184.939304 
L 75.956189 183.935973 
L 76.77825 182.94257 
L 77.600311 181.64771 
L 78.422371 179.944036 
L 79.244432 177.713225 
L 80.066492 174.818774 
L 80.888553 171.16999 
L 83.354735 159.135119 
L 83.902775 157.71557 
L 84.450816 156.889963 
L 84.998856 156.436458 
L 85.820917 156.122854 
L 86.916997 156.005393 
L 89.109159 156.066516 
L 101.714088 156.906736 
L 151.311744 160.120376 
L 202.553521 163.216656 
L 255.71344 166.204832 
L 310.7915 169.077293 
L 336.001359 170.320705 
L 336.001359 170.320705 
" clip-path="url(#p8bb2608f0c)" style="fill: none; stroke: #60a7d2; stroke-width: 3; stroke-linecap: square"/>
   </g>
   <g id="line2d_28">
    <path d="M 62.255179 37.220577 
L 63.07724 72.327947 
L 63.899301 100.422523 
L 64.721361 122.836576 
L 65.543422 140.663368 
L 66.365482 154.797312 
L 67.187543 165.967816 
L 68.009604 174.767886 
L 68.831664 181.678201 
L 69.653725 187.087365 
L 70.475785 191.308964 
L 71.297846 194.595617 
L 72.119907 197.148955 
L 72.941967 199.127391 
L 73.764028 200.655602 
L 74.860109 202.160356 
L 75.956189 203.215737 
L 77.05227 203.950329 
L 78.422371 204.55578 
L 80.066492 204.979365 
L 81.984634 205.215121 
L 84.998856 205.306362 
L 104.72831 205.313508 
L 336.001359 205.313508 
L 336.001359 205.313508 
" clip-path="url(#p8bb2608f0c)" style="fill: none; stroke-dasharray: 11.1,4.8; stroke-dashoffset: 0; stroke: #fa8331; stroke-width: 3"/>
   </g>
   <g id="line2d_29">
    <path d="M 62.255179 189.305408 
L 69.653725 187.431598 
L 71.845886 186.688417 
L 73.490008 185.904121 
L 74.860109 184.999704 
L 75.956189 184.008402 
L 76.77825 183.027309 
L 77.600311 181.749036 
L 78.422371 180.06744 
L 79.244432 177.865517 
L 80.066492 175.008174 
L 80.888553 171.400353 
L 83.354735 159.354735 
L 83.902775 157.895156 
L 84.450816 157.042433 
L 84.998856 156.57473 
L 85.820917 156.254356 
L 86.916997 156.140143 
L 89.109159 156.220059 
L 101.166048 157.145847 
L 144.187219 160.351604 
L 188.578491 163.435957 
L 234.613885 166.411251 
L 282.56742 169.28596 
L 332.439096 172.05055 
L 336.001359 172.239703 
L 336.001359 172.239703 
" clip-path="url(#p8bb2608f0c)" style="fill: none; stroke: #60a7d2; stroke-width: 3; stroke-linecap: square"/>
   </g>
   <g id="line2d_30">
    <path d="M 62.255179 37.220577 
L 63.07724 72.326033 
L 63.899301 100.414916 
L 64.721361 122.822083 
L 65.543422 140.642351 
L 66.365482 154.770942 
L 67.187543 165.937613 
L 68.009604 174.735405 
L 68.831664 181.644858 
L 69.653725 187.054354 
L 70.475785 191.277204 
L 71.297846 194.565765 
L 72.119907 197.121448 
L 72.941967 199.102496 
L 73.764028 200.633431 
L 74.860109 202.141784 
L 75.956189 203.200558 
L 77.05227 203.938223 
L 78.422371 204.547 
L 80.066492 204.973878 
L 81.984634 205.212612 
L 84.724836 205.303896 
L 99.795947 205.313508 
L 336.001359 205.313508 
L 336.001359 205.313508 
" clip-path="url(#p8bb2608f0c)" style="fill: none; stroke-dasharray: 11.1,4.8; stroke-dashoffset: 0; stroke: #fa8331; stroke-width: 3"/>
   </g>
   <g id="line2d_31">
    <path d="M 62.255179 189.305408 
L 69.653725 187.467026 
L 71.845886 186.73727 
L 73.490008 185.96532 
L 74.860109 185.074546 
L 75.956189 184.09807 
L 76.77825 183.132126 
L 77.600311 181.874249 
L 78.422371 180.219802 
L 79.244432 178.053391 
L 80.066492 175.24174 
L 80.888553 171.684904 
L 83.628755 158.786431 
L 84.176795 157.613935 
L 84.724836 156.95276 
L 85.272876 156.598379 
L 86.094937 156.366835 
L 87.465038 156.31131 
L 90.47926 156.524667 
L 150.763704 161.721145 
L 189.400552 164.758745 
L 229.681521 167.700473 
L 271.332592 170.518048 
L 314.627783 173.223342 
L 336.001359 174.480268 
L 336.001359 174.480268 
" clip-path="url(#p8bb2608f0c)" style="fill: none; stroke: #60a7d2; stroke-width: 3; stroke-linecap: square"/>
   </g>
   <g id="line2d_32">
    <path d="M 62.255179 37.220577 
L 63.07724 72.323648 
L 63.899301 100.405444 
L 64.721361 122.804053 
L 65.543422 140.616202 
L 66.365482 154.738138 
L 67.187543 165.900038 
L 68.009604 174.694994 
L 68.831664 181.60337 
L 69.653725 187.013261 
L 70.475785 191.237654 
L 71.297846 194.528573 
L 72.119907 197.087164 
L 72.941967 199.071452 
L 73.764028 200.605766 
L 74.860109 202.118589 
L 75.956189 203.181578 
L 77.05227 203.923066 
L 78.422371 204.535984 
L 80.066492 204.966966 
L 81.984634 205.209422 
L 84.724836 205.303429 
L 99.247906 205.313508 
L 336.001359 205.313508 
L 336.001359 205.313508 
" clip-path="url(#p8bb2608f0c)" style="fill: none; stroke-dasharray: 11.1,4.8; stroke-dashoffset: 0; stroke: #fa8331; stroke-width: 3"/>
   </g>
   <g id="patch_3">
    <path d="M 48.56787 213.718154 
L 48.56787 28.815931 
" style="fill: none; stroke: #000000; stroke-width: 0.8; stroke-linejoin: miter; stroke-linecap: square"/>
   </g>
   <g id="patch_4">
    <path d="M 349.688667 213.718154 
L 349.688667 28.815931 
" style="fill: none; stroke: #000000; stroke-width: 0.8; stroke-linejoin: miter; stroke-linecap: square"/>
   </g>
   <g id="patch_5">
    <path d="M 48.56787 213.718154 
L 349.688667 213.718154 
" style="fill: none; stroke: #000000; stroke-width: 0.8; stroke-linejoin: miter; stroke-linecap: square"/>
   </g>
   <g id="patch_6">
    <path d="M 48.56787 28.815931 
L 349.688667 28.815931 
" style="fill: none; stroke: #000000; stroke-width: 0.8; stroke-linejoin: miter; stroke-linecap: square"/>
   </g>
   <g id="legend_1">
    <g id="line2d_33">
     <path d="M 362.288667 46.976703 
L 376.288667 46.976703 
L 389.542964 46.976703 
" style="fill: none; stroke: #60a7d2; stroke-width: 3; stroke-linecap: square"/>
    </g>
    <g id="text_14">
     <!-- $P_{int}$ (A = 3.75) -->
     <g transform="translate(401.488667 51.876703) scale(0.14 -0.14)">
      <defs>
       <path id="CMMI12-50" d="M 1894 2023 
L 2970 2023 
C 3853 2023 4736 2673 4736 3401 
C 4736 3898 4314 4352 3507 4352 
L 1530 4352 
C 1408 4352 1350 4352 1350 4231 
C 1350 4167 1408 4167 1504 4167 
C 1894 4167 1894 4116 1894 4046 
C 1894 4034 1894 3995 1869 3899 
L 1005 472 
C 947 249 934 185 486 185 
C 365 185 301 185 301 70 
C 301 0 358 0 397 0 
C 518 0 646 0 768 0 
L 1517 0 
C 1638 0 1773 0 1894 0 
C 1946 0 2016 0 2016 121 
C 2016 185 1958 185 1862 185 
C 1478 185 1472 230 1472 293 
C 1472 325 1478 369 1485 401 
L 1894 2023 
z
M 2355 3930 
C 2413 4167 2438 4167 2688 4167 
L 3322 4167 
C 3802 4167 4198 4013 4198 3535 
C 4198 3369 4115 2827 3821 2534 
C 3712 2419 3405 2176 2822 2176 
L 1920 2176 
L 2355 3930 
z
" transform="scale(0.015625)"/>
       <path id="CMMI12-69" d="M 1811 913 
C 1811 945 1786 971 1747 971 
C 1690 971 1683 952 1651 843 
C 1485 262 1222 64 1011 64 
C 934 64 845 83 845 275 
C 845 447 922 639 992 830 
L 1440 2018 
C 1459 2069 1504 2184 1504 2305 
C 1504 2574 1312 2816 998 2816 
C 410 2816 173 1890 173 1839 
C 173 1814 198 1782 243 1782 
C 301 1782 307 1807 333 1896 
C 486 2428 730 2682 979 2682 
C 1037 2682 1146 2682 1146 2478 
C 1146 2312 1062 2101 1011 1961 
L 563 773 
C 525 671 486 568 486 453 
C 486 166 685 -64 992 -64 
C 1581 -64 1811 869 1811 913 
z
M 1760 4013 
C 1760 4109 1683 4224 1542 4224 
C 1395 4224 1229 4083 1229 3917 
C 1229 3758 1363 3707 1440 3707 
C 1613 3707 1760 3873 1760 4013 
z
" transform="scale(0.015625)"/>
       <path id="CMMI12-6e" d="M 1318 1871 
C 1331 1910 1491 2229 1728 2433 
C 1894 2586 2112 2689 2362 2689 
C 2618 2689 2707 2497 2707 2242 
C 2707 1878 2445 1150 2317 805 
C 2259 651 2227 568 2227 453 
C 2227 166 2426 -64 2733 -64 
C 3328 -64 3552 875 3552 913 
C 3552 945 3526 971 3488 971 
C 3430 971 3424 952 3392 843 
C 3245 319 3002 64 2752 64 
C 2688 64 2586 64 2586 269 
C 2586 429 2656 621 2694 710 
C 2822 1063 3091 1780 3091 2145 
C 3091 2528 2867 2816 2381 2816 
C 1811 2816 1510 2415 1395 2255 
C 1376 2618 1114 2816 832 2816 
C 627 2816 486 2695 378 2478 
C 262 2248 173 1865 173 1839 
C 173 1814 198 1782 243 1782 
C 294 1782 301 1788 339 1935 
C 442 2325 557 2689 813 2689 
C 960 2689 1011 2586 1011 2395 
C 1011 2254 947 2005 902 1807 
L 723 1118 
C 698 996 627 709 595 594 
C 550 428 480 128 480 96 
C 480 6 550 -64 646 -64 
C 723 -64 813 -26 864 70 
C 877 102 934 326 966 453 
L 1107 1028 
L 1318 1871 
z
" transform="scale(0.015625)"/>
       <path id="CMMI12-74" d="M 1286 2566 
L 1875 2566 
C 1997 2566 2061 2566 2061 2681 
C 2061 2752 2022 2752 1894 2752 
L 1331 2752 
L 1568 3692 
C 1594 3781 1594 3794 1594 3840 
C 1594 3943 1510 4000 1427 4000 
C 1376 4000 1229 3981 1178 3775 
L 928 2752 
L 326 2752 
C 198 2752 141 2752 141 2630 
C 141 2566 186 2566 307 2566 
L 877 2566 
L 454 881 
C 403 658 384 594 384 511 
C 384 211 595 -64 954 -64 
C 1600 -64 1946 868 1946 912 
C 1946 951 1920 970 1882 970 
C 1869 970 1843 970 1830 944 
C 1824 938 1818 931 1773 829 
C 1638 511 1344 64 973 64 
C 781 64 768 224 768 364 
C 768 370 768 492 787 568 
L 1286 2566 
z
" transform="scale(0.015625)"/>
       <path id="CMR17-28" d="M 1958 -1561 
C 1958 -1555 1958 -1542 1939 -1523 
C 1645 -1224 858 -407 858 1581 
C 858 3569 1632 4379 1946 4697 
C 1946 4704 1958 4717 1958 4736 
C 1958 4755 1939 4768 1914 4768 
C 1843 4768 1299 4296 986 3594 
C 666 2887 576 2199 576 1588 
C 576 1128 621 351 1005 -471 
C 1312 -1135 1837 -1600 1914 -1600 
C 1946 -1600 1958 -1587 1958 -1561 
z
" transform="scale(0.015625)"/>
       <path id="CMR17-41" d="M 2323 4378 
C 2291 4461 2278 4480 2214 4480 
C 2150 4480 2138 4461 2106 4378 
L 749 566 
C 627 223 371 153 147 153 
L 147 -13 
C 262 0 518 0 640 0 
C 800 0 1056 0 1210 -13 
L 1210 153 
C 909 153 864 361 864 439 
C 864 497 877 530 890 569 
L 1229 1536 
L 2906 1536 
L 3290 442 
C 3322 365 3322 352 3322 327 
C 3322 153 3046 153 2925 153 
L 2925 0 
C 3110 0 3443 0 3642 0 
C 3808 0 4128 0 4282 -13 
L 4282 153 
C 3942 153 3827 153 3744 387 
L 2323 4378 
z
M 2067 3893 
L 2848 1702 
L 1286 1702 
L 2067 3893 
z
" transform="scale(0.015625)"/>
       <path id="CMR17-3d" d="M 4115 2017 
C 4211 2017 4307 2017 4307 2125 
C 4307 2240 4198 2240 4090 2240 
L 512 2240 
C 403 2240 294 2240 294 2125 
C 294 2017 390 2017 486 2017 
L 4115 2017 
z
M 4090 896 
C 4198 896 4307 896 4307 1011 
C 4307 1119 4211 1119 4115 1119 
L 486 1119 
C 390 1119 294 1119 294 1011 
C 294 896 403 896 512 896 
L 4090 896 
z
" transform="scale(0.015625)"/>
       <path id="CMR17-33" d="M 1414 2157 
C 1984 2157 2234 1662 2234 1090 
C 2234 320 1824 25 1453 25 
C 1114 25 563 194 390 693 
C 422 680 454 680 486 680 
C 640 680 755 782 755 948 
C 755 1133 614 1216 486 1216 
C 378 1216 211 1165 211 926 
C 211 335 787 -128 1466 -128 
C 2176 -128 2720 430 2720 1085 
C 2720 1707 2208 2157 1600 2227 
C 2086 2328 2554 2756 2554 3329 
C 2554 3820 2048 4179 1472 4179 
C 890 4179 378 3829 378 3329 
C 378 3110 544 3072 627 3072 
C 762 3072 877 3155 877 3321 
C 877 3486 762 3569 627 3569 
C 602 3569 570 3569 544 3557 
C 730 3959 1235 4032 1459 4032 
C 1683 4032 2106 3925 2106 3320 
C 2106 3143 2080 2828 1862 2550 
C 1670 2304 1453 2304 1242 2284 
C 1210 2284 1062 2269 1037 2269 
C 992 2263 966 2257 966 2208 
C 966 2163 973 2157 1101 2157 
L 1414 2157 
z
" transform="scale(0.015625)"/>
       <path id="CMR17-2e" d="M 1062 261 
C 1062 420 934 522 800 522 
C 672 522 538 420 538 261 
C 538 102 666 0 800 0 
C 928 0 1062 102 1062 261 
z
" transform="scale(0.015625)"/>
       <path id="CMR17-37" d="M 2886 3941 
L 2886 4081 
L 1382 4081 
C 634 4081 621 4165 595 4288 
L 480 4288 
L 294 3094 
L 410 3094 
C 429 3215 474 3540 550 3661 
C 589 3712 1062 3712 1171 3712 
L 2579 3712 
L 1869 2661 
C 1395 1954 1069 999 1069 165 
C 1069 89 1069 -128 1299 -128 
C 1530 -128 1530 89 1530 171 
L 1530 465 
C 1530 1508 1709 2196 2003 2636 
L 2886 3941 
z
" transform="scale(0.015625)"/>
       <path id="CMR17-35" d="M 730 3692 
C 794 3666 1056 3584 1325 3584 
C 1920 3584 2246 3911 2432 4100 
C 2432 4157 2432 4192 2394 4192 
C 2387 4192 2374 4192 2323 4163 
C 2099 4058 1837 3973 1517 3973 
C 1325 3973 1037 3999 723 4139 
C 653 4171 640 4171 634 4171 
C 602 4171 595 4164 595 4037 
L 595 2203 
C 595 2089 595 2057 659 2057 
C 691 2057 704 2070 736 2114 
C 941 2401 1222 2522 1542 2522 
C 1766 2522 2246 2382 2246 1289 
C 2246 1085 2246 715 2054 421 
C 1894 159 1645 25 1370 25 
C 947 25 518 320 403 814 
C 429 807 480 795 506 795 
C 589 795 749 840 749 1038 
C 749 1210 627 1280 506 1280 
C 358 1280 262 1190 262 1011 
C 262 454 704 -128 1382 -128 
C 2042 -128 2669 440 2669 1264 
C 2669 2030 2170 2624 1549 2624 
C 1222 2624 947 2503 730 2274 
L 730 3692 
z
" transform="scale(0.015625)"/>
       <path id="CMR17-29" d="M 1683 1581 
C 1683 2040 1638 2817 1254 3639 
C 947 4303 422 4768 346 4768 
C 326 4768 301 4761 301 4729 
C 301 4717 307 4710 314 4697 
C 621 4378 1402 3568 1402 1584 
C 1402 -407 627 -1217 314 -1537 
C 307 -1549 301 -1556 301 -1568 
C 301 -1600 326 -1600 346 -1600 
C 416 -1600 960 -1128 1274 -426 
C 1594 281 1683 969 1683 1581 
z
" transform="scale(0.015625)"/>
      </defs>
      <use xlink:href="#CMMI12-50" transform="scale(0.996264)"/>
      <use xlink:href="#CMMI12-69" transform="translate(62.877232 -14.943915) scale(0.697382)"/>
      <use xlink:href="#CMMI12-6e" transform="translate(86.17214 -14.943915) scale(0.697382)"/>
      <use xlink:href="#CMMI12-74" transform="translate(126.932983 -14.943915) scale(0.697382)"/>
      <use xlink:href="#CMR17-28" transform="translate(182.165391 0) scale(0.996264)"/>
      <use xlink:href="#CMR17-41" transform="translate(217.446158 0) scale(0.996264)"/>
      <use xlink:href="#CMR17-3d" transform="translate(316.594554 0) scale(0.996264)"/>
      <use xlink:href="#CMR17-33" transform="translate(418.385309 0) scale(0.996264)"/>
      <use xlink:href="#CMR17-2e" transform="translate(464.075786 0) scale(0.996264)"/>
      <use xlink:href="#CMR17-37" transform="translate(488.946845 0) scale(0.996264)"/>
      <use xlink:href="#CMR17-35" transform="translate(534.637322 0) scale(0.996264)"/>
      <use xlink:href="#CMR17-29" transform="translate(580.327799 0) scale(0.996264)"/>
     </g>
    </g>
    <g id="line2d_34">
     <path d="M 362.288667 67.924399 
L 376.288667 67.924399 
L 389.542964 67.924399 
" style="fill: none; stroke-dasharray: 11.1,4.8; stroke-dashoffset: 0; stroke: #fa8331; stroke-width: 3"/>
    </g>
    <g id="text_15">
     <!-- $S_{int}$ (A = 3.75) -->
     <g transform="translate(401.488667 72.824399) scale(0.14 -0.14)">
      <defs>
       <path id="CMMI12-53" d="M 4064 4423 
C 4064 4480 4019 4480 4006 4480 
C 3981 4480 3974 4474 3898 4378 
C 3859 4333 3597 4001 3590 3995 
C 3379 4410 2957 4480 2688 4480 
C 1875 4480 1139 3743 1139 3025 
C 1139 2549 1427 2269 1741 2161 
C 1811 2135 2189 2033 2381 1989 
C 2707 1900 2790 1875 2925 1735 
C 2950 1703 3078 1557 3078 1258 
C 3078 667 2528 57 1888 57 
C 1363 57 781 280 781 991 
C 781 1112 806 1265 826 1328 
C 826 1348 832 1378 832 1391 
C 832 1417 819 1449 768 1449 
C 710 1449 704 1436 678 1328 
L 352 24 
C 352 18 326 -64 326 -71 
C 326 -128 378 -128 390 -128 
C 416 -128 422 -122 499 -26 
L 794 356 
C 947 126 1280 -128 1875 -128 
C 2701 -128 3456 666 3456 1460 
C 3456 1728 3392 1963 3149 2197 
C 3014 2331 2899 2363 2310 2516 
C 1882 2630 1824 2649 1709 2751 
C 1600 2858 1517 3011 1517 3227 
C 1517 3761 2061 4308 2669 4308 
C 3296 4308 3590 3926 3590 3323 
C 3590 3158 3558 2986 3558 2961 
C 3558 2903 3610 2903 3629 2903 
C 3686 2903 3693 2922 3718 3024 
L 4064 4423 
z
" transform="scale(0.015625)"/>
      </defs>
      <use xlink:href="#CMMI12-53" transform="scale(0.996264)"/>
      <use xlink:href="#CMMI12-69" transform="translate(59.994488 -14.943915) scale(0.697382)"/>
      <use xlink:href="#CMMI12-6e" transform="translate(83.289395 -14.943915) scale(0.697382)"/>
      <use xlink:href="#CMMI12-74" transform="translate(124.050238 -14.943915) scale(0.697382)"/>
      <use xlink:href="#CMR17-28" transform="translate(179.282646 0) scale(0.996264)"/>
      <use xlink:href="#CMR17-41" transform="translate(214.563414 0) scale(0.996264)"/>
      <use xlink:href="#CMR17-3d" transform="translate(313.71181 0) scale(0.996264)"/>
      <use xlink:href="#CMR17-33" transform="translate(415.502565 0) scale(0.996264)"/>
      <use xlink:href="#CMR17-2e" transform="translate(461.193042 0) scale(0.996264)"/>
      <use xlink:href="#CMR17-37" transform="translate(486.0641 0) scale(0.996264)"/>
      <use xlink:href="#CMR17-35" transform="translate(531.754578 0) scale(0.996264)"/>
      <use xlink:href="#CMR17-29" transform="translate(577.445055 0) scale(0.996264)"/>
     </g>
    </g>
    <g id="line2d_35">
     <path d="M 362.288667 88.872095 
L 376.288667 88.872095 
L 389.542964 88.872095 
" style="fill: none; stroke: #60a7d2; stroke-width: 3; stroke-linecap: square"/>
    </g>
    <g id="text_16">
     <!-- $P_{int}$ (A = 3.75) -->
     <g transform="translate(401.488667 93.772095) scale(0.14 -0.14)">
      <use xlink:href="#CMMI12-50" transform="scale(0.996264)"/>
      <use xlink:href="#CMMI12-69" transform="translate(62.877232 -14.943915) scale(0.697382)"/>
      <use xlink:href="#CMMI12-6e" transform="translate(86.17214 -14.943915) scale(0.697382)"/>
      <use xlink:href="#CMMI12-74" transform="translate(126.932983 -14.943915) scale(0.697382)"/>
      <use xlink:href="#CMR17-28" transform="translate(182.165391 0) scale(0.996264)"/>
      <use xlink:href="#CMR17-41" transform="translate(217.446158 0) scale(0.996264)"/>
      <use xlink:href="#CMR17-3d" transform="translate(316.594554 0) scale(0.996264)"/>
      <use xlink:href="#CMR17-33" transform="translate(418.385309 0) scale(0.996264)"/>
      <use xlink:href="#CMR17-2e" transform="translate(464.075786 0) scale(0.996264)"/>
      <use xlink:href="#CMR17-37" transform="translate(488.946845 0) scale(0.996264)"/>
      <use xlink:href="#CMR17-35" transform="translate(534.637322 0) scale(0.996264)"/>
      <use xlink:href="#CMR17-29" transform="translate(580.327799 0) scale(0.996264)"/>
     </g>
    </g>
    <g id="line2d_36">
     <path d="M 362.288667 109.819791 
L 376.288667 109.819791 
L 389.542964 109.819791 
" style="fill: none; stroke-dasharray: 11.1,4.8; stroke-dashoffset: 0; stroke: #fa8331; stroke-width: 3"/>
    </g>
    <g id="text_17">
     <!-- $S_{int}$ (A = 3.75) -->
     <g transform="translate(401.488667 114.719791) scale(0.14 -0.14)">
      <use xlink:href="#CMMI12-53" transform="scale(0.996264)"/>
      <use xlink:href="#CMMI12-69" transform="translate(59.994488 -14.943915) scale(0.697382)"/>
      <use xlink:href="#CMMI12-6e" transform="translate(83.289395 -14.943915) scale(0.697382)"/>
      <use xlink:href="#CMMI12-74" transform="translate(124.050238 -14.943915) scale(0.697382)"/>
      <use xlink:href="#CMR17-28" transform="translate(179.282646 0) scale(0.996264)"/>
      <use xlink:href="#CMR17-41" transform="translate(214.563414 0) scale(0.996264)"/>
      <use xlink:href="#CMR17-3d" transform="translate(313.71181 0) scale(0.996264)"/>
      <use xlink:href="#CMR17-33" transform="translate(415.502565 0) scale(0.996264)"/>
      <use xlink:href="#CMR17-2e" transform="translate(461.193042 0) scale(0.996264)"/>
      <use xlink:href="#CMR17-37" transform="translate(486.0641 0) scale(0.996264)"/>
      <use xlink:href="#CMR17-35" transform="translate(531.754578 0) scale(0.996264)"/>
      <use xlink:href="#CMR17-29" transform="translate(577.445055 0) scale(0.996264)"/>
     </g>
    </g>
    <g id="line2d_37">
     <path d="M 362.288667 130.767488 
L 376.288667 130.767488 
L 389.542964 130.767488 
" style="fill: none; stroke: #60a7d2; stroke-width: 3; stroke-linecap: square"/>
    </g>
    <g id="text_18">
     <!-- $P_{int}$ (A = 3.75) -->
     <g transform="translate(401.488667 135.667488) scale(0.14 -0.14)">
      <use xlink:href="#CMMI12-50" transform="scale(0.996264)"/>
      <use xlink:href="#CMMI12-69" transform="translate(62.877232 -14.943915) scale(0.697382)"/>
      <use xlink:href="#CMMI12-6e" transform="translate(86.17214 -14.943915) scale(0.697382)"/>
      <use xlink:href="#CMMI12-74" transform="translate(126.932983 -14.943915) scale(0.697382)"/>
      <use xlink:href="#CMR17-28" transform="translate(182.165391 0) scale(0.996264)"/>
      <use xlink:href="#CMR17-41" transform="translate(217.446158 0) scale(0.996264)"/>
      <use xlink:href="#CMR17-3d" transform="translate(316.594554 0) scale(0.996264)"/>
      <use xlink:href="#CMR17-33" transform="translate(418.385309 0) scale(0.996264)"/>
      <use xlink:href="#CMR17-2e" transform="translate(464.075786 0) scale(0.996264)"/>
      <use xlink:href="#CMR17-37" transform="translate(488.946845 0) scale(0.996264)"/>
      <use xlink:href="#CMR17-35" transform="translate(534.637322 0) scale(0.996264)"/>
      <use xlink:href="#CMR17-29" transform="translate(580.327799 0) scale(0.996264)"/>
     </g>
    </g>
    <g id="line2d_38">
     <path d="M 362.288667 151.715184 
L 376.288667 151.715184 
L 389.542964 151.715184 
" style="fill: none; stroke-dasharray: 11.1,4.8; stroke-dashoffset: 0; stroke: #fa8331; stroke-width: 3"/>
    </g>
    <g id="text_19">
     <!-- $S_{int}$ (A = 3.75) -->
     <g transform="translate(401.488667 156.615184) scale(0.14 -0.14)">
      <use xlink:href="#CMMI12-53" transform="scale(0.996264)"/>
      <use xlink:href="#CMMI12-69" transform="translate(59.994488 -14.943915) scale(0.697382)"/>
      <use xlink:href="#CMMI12-6e" transform="translate(83.289395 -14.943915) scale(0.697382)"/>
      <use xlink:href="#CMMI12-74" transform="translate(124.050238 -14.943915) scale(0.697382)"/>
      <use xlink:href="#CMR17-28" transform="translate(179.282646 0) scale(0.996264)"/>
      <use xlink:href="#CMR17-41" transform="translate(214.563414 0) scale(0.996264)"/>
      <use xlink:href="#CMR17-3d" transform="translate(313.71181 0) scale(0.996264)"/>
      <use xlink:href="#CMR17-33" transform="translate(415.502565 0) scale(0.996264)"/>
      <use xlink:href="#CMR17-2e" transform="translate(461.193042 0) scale(0.996264)"/>
      <use xlink:href="#CMR17-37" transform="translate(486.0641 0) scale(0.996264)"/>
      <use xlink:href="#CMR17-35" transform="translate(531.754578 0) scale(0.996264)"/>
      <use xlink:href="#CMR17-29" transform="translate(577.445055 0) scale(0.996264)"/>
     </g>
    </g>
    <g id="line2d_39">
     <path d="M 362.288667 172.66288 
L 376.288667 172.66288 
L 389.542964 172.66288 
" style="fill: none; stroke: #60a7d2; stroke-width: 3; stroke-linecap: square"/>
    </g>
    <g id="text_20">
     <!-- $P_{int}$ (A = 3.75) -->
     <g transform="translate(401.488667 177.56288) scale(0.14 -0.14)">
      <use xlink:href="#CMMI12-50" transform="scale(0.996264)"/>
      <use xlink:href="#CMMI12-69" transform="translate(62.877232 -14.943915) scale(0.697382)"/>
      <use xlink:href="#CMMI12-6e" transform="translate(86.17214 -14.943915) scale(0.697382)"/>
      <use xlink:href="#CMMI12-74" transform="translate(126.932983 -14.943915) scale(0.697382)"/>
      <use xlink:href="#CMR17-28" transform="translate(182.165391 0) scale(0.996264)"/>
      <use xlink:href="#CMR17-41" transform="translate(217.446158 0) scale(0.996264)"/>
      <use xlink:href="#CMR17-3d" transform="translate(316.594554 0) scale(0.996264)"/>
      <use xlink:href="#CMR17-33" transform="translate(418.385309 0) scale(0.996264)"/>
      <use xlink:href="#CMR17-2e" transform="translate(464.075786 0) scale(0.996264)"/>
      <use xlink:href="#CMR17-37" transform="translate(488.946845 0) scale(0.996264)"/>
      <use xlink:href="#CMR17-35" transform="translate(534.637322 0) scale(0.996264)"/>
      <use xlink:href="#CMR17-29" transform="translate(580.327799 0) scale(0.996264)"/>
     </g>
    </g>
    <g id="line2d_40">
     <path d="M 362.288667 193.610576 
L 376.288667 193.610576 
L 389.542964 193.610576 
" style="fill: none; stroke-dasharray: 11.1,4.8; stroke-dashoffset: 0; stroke: #fa8331; stroke-width: 3"/>
    </g>
    <g id="text_21">
     <!-- $S_{int}$ (A = 3.75) -->
     <g transform="translate(401.488667 198.510576) scale(0.14 -0.14)">
      <use xlink:href="#CMMI12-53" transform="scale(0.996264)"/>
      <use xlink:href="#CMMI12-69" transform="translate(59.994488 -14.943915) scale(0.697382)"/>
      <use xlink:href="#CMMI12-6e" transform="translate(83.289395 -14.943915) scale(0.697382)"/>
      <use xlink:href="#CMMI12-74" transform="translate(124.050238 -14.943915) scale(0.697382)"/>
      <use xlink:href="#CMR17-28" transform="translate(179.282646 0) scale(0.996264)"/>
      <use xlink:href="#CMR17-41" transform="translate(214.563414 0) scale(0.996264)"/>
      <use xlink:href="#CMR17-3d" transform="translate(313.71181 0) scale(0.996264)"/>
      <use xlink:href="#CMR17-33" transform="translate(415.502565 0) scale(0.996264)"/>
      <use xlink:href="#CMR17-2e" transform="translate(461.193042 0) scale(0.996264)"/>
      <use xlink:href="#CMR17-37" transform="translate(486.0641 0) scale(0.996264)"/>
      <use xlink:href="#CMR17-35" transform="translate(531.754578 0) scale(0.996264)"/>
      <use xlink:href="#CMR17-29" transform="translate(577.445055 0) scale(0.996264)"/>
     </g>
    </g>
    <g id="line2d_41">
     <path d="M 362.288667 214.558272 
L 376.288667 214.558272 
L 389.542964 214.558272 
" style="fill: none; stroke: #60a7d2; stroke-width: 3; stroke-linecap: square"/>
    </g>
    <g id="text_22">
     <!-- $P_{int}$ (A = 3.75) -->
     <g transform="translate(401.488667 219.458272) scale(0.14 -0.14)">
      <use xlink:href="#CMMI12-50" transform="scale(0.996264)"/>
      <use xlink:href="#CMMI12-69" transform="translate(62.877232 -14.943915) scale(0.697382)"/>
      <use xlink:href="#CMMI12-6e" transform="translate(86.17214 -14.943915) scale(0.697382)"/>
      <use xlink:href="#CMMI12-74" transform="translate(126.932983 -14.943915) scale(0.697382)"/>
      <use xlink:href="#CMR17-28" transform="translate(182.165391 0) scale(0.996264)"/>
      <use xlink:href="#CMR17-41" transform="translate(217.446158 0) scale(0.996264)"/>
      <use xlink:href="#CMR17-3d" transform="translate(316.594554 0) scale(0.996264)"/>
      <use xlink:href="#CMR17-33" transform="translate(418.385309 0) scale(0.996264)"/>
      <use xlink:href="#CMR17-2e" transform="translate(464.075786 0) scale(0.996264)"/>
      <use xlink:href="#CMR17-37" transform="translate(488.946845 0) scale(0.996264)"/>
      <use xlink:href="#CMR17-35" transform="translate(534.637322 0) scale(0.996264)"/>
      <use xlink:href="#CMR17-29" transform="translate(580.327799 0) scale(0.996264)"/>
     </g>
    </g>
    <g id="line2d_42">
     <path d="M 362.288667 235.505968 
L 376.288667 235.505968 
L 389.542964 235.505968 
" style="fill: none; stroke-dasharray: 11.1,4.8; stroke-dashoffset: 0; stroke: #fa8331; stroke-width: 3"/>
    </g>
    <g id="text_23">
     <!-- $S_{int}$ (A = 3.75) -->
     <g transform="translate(401.488667 240.405968) scale(0.14 -0.14)">
      <use xlink:href="#CMMI12-53" transform="scale(0.996264)"/>
      <use xlink:href="#CMMI12-69" transform="translate(59.994488 -14.943915) scale(0.697382)"/>
      <use xlink:href="#CMMI12-6e" transform="translate(83.289395 -14.943915) scale(0.697382)"/>
      <use xlink:href="#CMMI12-74" transform="translate(124.050238 -14.943915) scale(0.697382)"/>
      <use xlink:href="#CMR17-28" transform="translate(179.282646 0) scale(0.996264)"/>
      <use xlink:href="#CMR17-41" transform="translate(214.563414 0) scale(0.996264)"/>
      <use xlink:href="#CMR17-3d" transform="translate(313.71181 0) scale(0.996264)"/>
      <use xlink:href="#CMR17-33" transform="translate(415.502565 0) scale(0.996264)"/>
      <use xlink:href="#CMR17-2e" transform="translate(461.193042 0) scale(0.996264)"/>
      <use xlink:href="#CMR17-37" transform="translate(486.0641 0) scale(0.996264)"/>
      <use xlink:href="#CMR17-35" transform="translate(531.754578 0) scale(0.996264)"/>
      <use xlink:href="#CMR17-29" transform="translate(577.445055 0) scale(0.996264)"/>
     </g>
    </g>
    <g id="line2d_43">
     <path style="fill: none; stroke: #60a7d2; stroke-width: 3; stroke-linecap: square"/>
    </g>
    <g id="text_24">
     <!-- $P_{int}$ (A = 3.75) -->
     <g transform="translate(560.518029 51.876703) scale(0.14 -0.14)">
      <use xlink:href="#CMMI12-50" transform="scale(0.996264)"/>
      <use xlink:href="#CMMI12-69" transform="translate(62.877232 -14.943915) scale(0.697382)"/>
      <use xlink:href="#CMMI12-6e" transform="translate(86.17214 -14.943915) scale(0.697382)"/>
      <use xlink:href="#CMMI12-74" transform="translate(126.932983 -14.943915) scale(0.697382)"/>
      <use xlink:href="#CMR17-28" transform="translate(182.165391 0) scale(0.996264)"/>
      <use xlink:href="#CMR17-41" transform="translate(217.446158 0) scale(0.996264)"/>
      <use xlink:href="#CMR17-3d" transform="translate(316.594554 0) scale(0.996264)"/>
      <use xlink:href="#CMR17-33" transform="translate(418.385309 0) scale(0.996264)"/>
      <use xlink:href="#CMR17-2e" transform="translate(464.075786 0) scale(0.996264)"/>
      <use xlink:href="#CMR17-37" transform="translate(488.946845 0) scale(0.996264)"/>
      <use xlink:href="#CMR17-35" transform="translate(534.637322 0) scale(0.996264)"/>
      <use xlink:href="#CMR17-29" transform="translate(580.327799 0) scale(0.996264)"/>
     </g>
    </g>
    <g id="line2d_44">
     <path style="fill: none; stroke-dasharray: 11.1,4.8; stroke-dashoffset: 0; stroke: #fa8331; stroke-width: 3"/>
    </g>
    <g id="text_25">
     <!-- $S_{int}$ (A = 3.75) -->
     <g transform="translate(560.518029 72.824399) scale(0.14 -0.14)">
      <use xlink:href="#CMMI12-53" transform="scale(0.996264)"/>
      <use xlink:href="#CMMI12-69" transform="translate(59.994488 -14.943915) scale(0.697382)"/>
      <use xlink:href="#CMMI12-6e" transform="translate(83.289395 -14.943915) scale(0.697382)"/>
      <use xlink:href="#CMMI12-74" transform="translate(124.050238 -14.943915) scale(0.697382)"/>
      <use xlink:href="#CMR17-28" transform="translate(179.282646 0) scale(0.996264)"/>
      <use xlink:href="#CMR17-41" transform="translate(214.563414 0) scale(0.996264)"/>
      <use xlink:href="#CMR17-3d" transform="translate(313.71181 0) scale(0.996264)"/>
      <use xlink:href="#CMR17-33" transform="translate(415.502565 0) scale(0.996264)"/>
      <use xlink:href="#CMR17-2e" transform="translate(461.193042 0) scale(0.996264)"/>
      <use xlink:href="#CMR17-37" transform="translate(486.0641 0) scale(0.996264)"/>
      <use xlink:href="#CMR17-35" transform="translate(531.754578 0) scale(0.996264)"/>
      <use xlink:href="#CMR17-29" transform="translate(577.445055 0) scale(0.996264)"/>
     </g>
    </g>
    <g id="line2d_45">
     <path style="fill: none; stroke: #60a7d2; stroke-width: 3; stroke-linecap: square"/>
    </g>
    <g id="text_26">
     <!-- $P_{int}$ (A = 3.75) -->
     <g transform="translate(560.518029 93.772095) scale(0.14 -0.14)">
      <use xlink:href="#CMMI12-50" transform="scale(0.996264)"/>
      <use xlink:href="#CMMI12-69" transform="translate(62.877232 -14.943915) scale(0.697382)"/>
      <use xlink:href="#CMMI12-6e" transform="translate(86.17214 -14.943915) scale(0.697382)"/>
      <use xlink:href="#CMMI12-74" transform="translate(126.932983 -14.943915) scale(0.697382)"/>
      <use xlink:href="#CMR17-28" transform="translate(182.165391 0) scale(0.996264)"/>
      <use xlink:href="#CMR17-41" transform="translate(217.446158 0) scale(0.996264)"/>
      <use xlink:href="#CMR17-3d" transform="translate(316.594554 0) scale(0.996264)"/>
      <use xlink:href="#CMR17-33" transform="translate(418.385309 0) scale(0.996264)"/>
      <use xlink:href="#CMR17-2e" transform="translate(464.075786 0) scale(0.996264)"/>
      <use xlink:href="#CMR17-37" transform="translate(488.946845 0) scale(0.996264)"/>
      <use xlink:href="#CMR17-35" transform="translate(534.637322 0) scale(0.996264)"/>
      <use xlink:href="#CMR17-29" transform="translate(580.327799 0) scale(0.996264)"/>
     </g>
    </g>
    <g id="line2d_46">
     <path style="fill: none; stroke-dasharray: 11.1,4.8; stroke-dashoffset: 0; stroke: #fa8331; stroke-width: 3"/>
    </g>
    <g id="text_27">
     <!-- $S_{int}$ (A = 3.75) -->
     <g transform="translate(560.518029 114.719791) scale(0.14 -0.14)">
      <use xlink:href="#CMMI12-53" transform="scale(0.996264)"/>
      <use xlink:href="#CMMI12-69" transform="translate(59.994488 -14.943915) scale(0.697382)"/>
      <use xlink:href="#CMMI12-6e" transform="translate(83.289395 -14.943915) scale(0.697382)"/>
      <use xlink:href="#CMMI12-74" transform="translate(124.050238 -14.943915) scale(0.697382)"/>
      <use xlink:href="#CMR17-28" transform="translate(179.282646 0) scale(0.996264)"/>
      <use xlink:href="#CMR17-41" transform="translate(214.563414 0) scale(0.996264)"/>
      <use xlink:href="#CMR17-3d" transform="translate(313.71181 0) scale(0.996264)"/>
      <use xlink:href="#CMR17-33" transform="translate(415.502565 0) scale(0.996264)"/>
      <use xlink:href="#CMR17-2e" transform="translate(461.193042 0) scale(0.996264)"/>
      <use xlink:href="#CMR17-37" transform="translate(486.0641 0) scale(0.996264)"/>
      <use xlink:href="#CMR17-35" transform="translate(531.754578 0) scale(0.996264)"/>
      <use xlink:href="#CMR17-29" transform="translate(577.445055 0) scale(0.996264)"/>
     </g>
    </g>
    <g id="line2d_47">
     <path style="fill: none; stroke: #60a7d2; stroke-width: 3; stroke-linecap: square"/>
    </g>
    <g id="text_28">
     <!-- $P_{int}$ (A = 3.75) -->
     <g transform="translate(560.518029 135.667488) scale(0.14 -0.14)">
      <use xlink:href="#CMMI12-50" transform="scale(0.996264)"/>
      <use xlink:href="#CMMI12-69" transform="translate(62.877232 -14.943915) scale(0.697382)"/>
      <use xlink:href="#CMMI12-6e" transform="translate(86.17214 -14.943915) scale(0.697382)"/>
      <use xlink:href="#CMMI12-74" transform="translate(126.932983 -14.943915) scale(0.697382)"/>
      <use xlink:href="#CMR17-28" transform="translate(182.165391 0) scale(0.996264)"/>
      <use xlink:href="#CMR17-41" transform="translate(217.446158 0) scale(0.996264)"/>
      <use xlink:href="#CMR17-3d" transform="translate(316.594554 0) scale(0.996264)"/>
      <use xlink:href="#CMR17-33" transform="translate(418.385309 0) scale(0.996264)"/>
      <use xlink:href="#CMR17-2e" transform="translate(464.075786 0) scale(0.996264)"/>
      <use xlink:href="#CMR17-37" transform="translate(488.946845 0) scale(0.996264)"/>
      <use xlink:href="#CMR17-35" transform="translate(534.637322 0) scale(0.996264)"/>
      <use xlink:href="#CMR17-29" transform="translate(580.327799 0) scale(0.996264)"/>
     </g>
    </g>
    <g id="line2d_48">
     <path style="fill: none; stroke-dasharray: 11.1,4.8; stroke-dashoffset: 0; stroke: #fa8331; stroke-width: 3"/>
    </g>
    <g id="text_29">
     <!-- $S_{int}$ (A = 3.75) -->
     <g transform="translate(560.518029 156.615184) scale(0.14 -0.14)">
      <use xlink:href="#CMMI12-53" transform="scale(0.996264)"/>
      <use xlink:href="#CMMI12-69" transform="translate(59.994488 -14.943915) scale(0.697382)"/>
      <use xlink:href="#CMMI12-6e" transform="translate(83.289395 -14.943915) scale(0.697382)"/>
      <use xlink:href="#CMMI12-74" transform="translate(124.050238 -14.943915) scale(0.697382)"/>
      <use xlink:href="#CMR17-28" transform="translate(179.282646 0) scale(0.996264)"/>
      <use xlink:href="#CMR17-41" transform="translate(214.563414 0) scale(0.996264)"/>
      <use xlink:href="#CMR17-3d" transform="translate(313.71181 0) scale(0.996264)"/>
      <use xlink:href="#CMR17-33" transform="translate(415.502565 0) scale(0.996264)"/>
      <use xlink:href="#CMR17-2e" transform="translate(461.193042 0) scale(0.996264)"/>
      <use xlink:href="#CMR17-37" transform="translate(486.0641 0) scale(0.996264)"/>
      <use xlink:href="#CMR17-35" transform="translate(531.754578 0) scale(0.996264)"/>
      <use xlink:href="#CMR17-29" transform="translate(577.445055 0) scale(0.996264)"/>
     </g>
    </g>
    <g id="line2d_49">
     <path style="fill: none; stroke: #60a7d2; stroke-width: 3; stroke-linecap: square"/>
    </g>
    <g id="text_30">
     <!-- $P_{int}$ (A = 3.75) -->
     <g transform="translate(560.518029 177.56288) scale(0.14 -0.14)">
      <use xlink:href="#CMMI12-50" transform="scale(0.996264)"/>
      <use xlink:href="#CMMI12-69" transform="translate(62.877232 -14.943915) scale(0.697382)"/>
      <use xlink:href="#CMMI12-6e" transform="translate(86.17214 -14.943915) scale(0.697382)"/>
      <use xlink:href="#CMMI12-74" transform="translate(126.932983 -14.943915) scale(0.697382)"/>
      <use xlink:href="#CMR17-28" transform="translate(182.165391 0) scale(0.996264)"/>
      <use xlink:href="#CMR17-41" transform="translate(217.446158 0) scale(0.996264)"/>
      <use xlink:href="#CMR17-3d" transform="translate(316.594554 0) scale(0.996264)"/>
      <use xlink:href="#CMR17-33" transform="translate(418.385309 0) scale(0.996264)"/>
      <use xlink:href="#CMR17-2e" transform="translate(464.075786 0) scale(0.996264)"/>
      <use xlink:href="#CMR17-37" transform="translate(488.946845 0) scale(0.996264)"/>
      <use xlink:href="#CMR17-35" transform="translate(534.637322 0) scale(0.996264)"/>
      <use xlink:href="#CMR17-29" transform="translate(580.327799 0) scale(0.996264)"/>
     </g>
    </g>
    <g id="line2d_50">
     <path style="fill: none; stroke-dasharray: 11.1,4.8; stroke-dashoffset: 0; stroke: #fa8331; stroke-width: 3"/>
    </g>
    <g id="text_31">
     <!-- $S_{int}$ (A = 3.75) -->
     <g transform="translate(560.518029 198.510576) scale(0.14 -0.14)">
      <use xlink:href="#CMMI12-53" transform="scale(0.996264)"/>
      <use xlink:href="#CMMI12-69" transform="translate(59.994488 -14.943915) scale(0.697382)"/>
      <use xlink:href="#CMMI12-6e" transform="translate(83.289395 -14.943915) scale(0.697382)"/>
      <use xlink:href="#CMMI12-74" transform="translate(124.050238 -14.943915) scale(0.697382)"/>
      <use xlink:href="#CMR17-28" transform="translate(179.282646 0) scale(0.996264)"/>
      <use xlink:href="#CMR17-41" transform="translate(214.563414 0) scale(0.996264)"/>
      <use xlink:href="#CMR17-3d" transform="translate(313.71181 0) scale(0.996264)"/>
      <use xlink:href="#CMR17-33" transform="translate(415.502565 0) scale(0.996264)"/>
      <use xlink:href="#CMR17-2e" transform="translate(461.193042 0) scale(0.996264)"/>
      <use xlink:href="#CMR17-37" transform="translate(486.0641 0) scale(0.996264)"/>
      <use xlink:href="#CMR17-35" transform="translate(531.754578 0) scale(0.996264)"/>
      <use xlink:href="#CMR17-29" transform="translate(577.445055 0) scale(0.996264)"/>
     </g>
    </g>
    <g id="line2d_51">
     <path style="fill: none; stroke: #60a7d2; stroke-width: 3; stroke-linecap: square"/>
    </g>
    <g id="text_32">
     <!-- $P_{int}$ (A = 3.75) -->
     <g transform="translate(560.518029 219.458272) scale(0.14 -0.14)">
      <use xlink:href="#CMMI12-50" transform="scale(0.996264)"/>
      <use xlink:href="#CMMI12-69" transform="translate(62.877232 -14.943915) scale(0.697382)"/>
      <use xlink:href="#CMMI12-6e" transform="translate(86.17214 -14.943915) scale(0.697382)"/>
      <use xlink:href="#CMMI12-74" transform="translate(126.932983 -14.943915) scale(0.697382)"/>
      <use xlink:href="#CMR17-28" transform="translate(182.165391 0) scale(0.996264)"/>
      <use xlink:href="#CMR17-41" transform="translate(217.446158 0) scale(0.996264)"/>
      <use xlink:href="#CMR17-3d" transform="translate(316.594554 0) scale(0.996264)"/>
      <use xlink:href="#CMR17-33" transform="translate(418.385309 0) scale(0.996264)"/>
      <use xlink:href="#CMR17-2e" transform="translate(464.075786 0) scale(0.996264)"/>
      <use xlink:href="#CMR17-37" transform="translate(488.946845 0) scale(0.996264)"/>
      <use xlink:href="#CMR17-35" transform="translate(534.637322 0) scale(0.996264)"/>
      <use xlink:href="#CMR17-29" transform="translate(580.327799 0) scale(0.996264)"/>
     </g>
    </g>
    <g id="line2d_52">
     <path style="fill: none; stroke-dasharray: 11.1,4.8; stroke-dashoffset: 0; stroke: #fa8331; stroke-width: 3"/>
    </g>
    <g id="text_33">
     <!-- $S_{int}$ (A = 3.75) -->
     <g transform="translate(560.518029 240.405968) scale(0.14 -0.14)">
      <use xlink:href="#CMMI12-53" transform="scale(0.996264)"/>
      <use xlink:href="#CMMI12-69" transform="translate(59.994488 -14.943915) scale(0.697382)"/>
      <use xlink:href="#CMMI12-6e" transform="translate(83.289395 -14.943915) scale(0.697382)"/>
      <use xlink:href="#CMMI12-74" transform="translate(124.050238 -14.943915) scale(0.697382)"/>
      <use xlink:href="#CMR17-28" transform="translate(179.282646 0) scale(0.996264)"/>
      <use xlink:href="#CMR17-41" transform="translate(214.563414 0) scale(0.996264)"/>
      <use xlink:href="#CMR17-3d" transform="translate(313.71181 0) scale(0.996264)"/>
      <use xlink:href="#CMR17-33" transform="translate(415.502565 0) scale(0.996264)"/>
      <use xlink:href="#CMR17-2e" transform="translate(461.193042 0) scale(0.996264)"/>
      <use xlink:href="#CMR17-37" transform="translate(486.0641 0) scale(0.996264)"/>
      <use xlink:href="#CMR17-35" transform="translate(531.754578 0) scale(0.996264)"/>
      <use xlink:href="#CMR17-29" transform="translate(577.445055 0) scale(0.996264)"/>
     </g>
    </g>
   </g>
  </g>
 </g>
 <defs>
  <clipPath id="p8bb2608f0c">
   <rect x="48.56787" y="28.815931" width="301.120797" height="184.902223"/>
  </clipPath>
 </defs>
</svg>
