<?xml version="1.0" encoding="utf-8" standalone="no"?>
<!DOCTYPE svg PUBLIC "-//W3C//DTD SVG 1.1//EN"
  "http://www.w3.org/Graphics/SVG/1.1/DTD/svg11.dtd">
<svg xmlns:xlink="http://www.w3.org/1999/xlink" width="388.542964pt" height="240.132758pt" viewBox="0 0 388.542964 240.132758" xmlns="http://www.w3.org/2000/svg" version="1.1">
 <metadata>
  <rdf:RDF xmlns:dc="http://purl.org/dc/elements/1.1/" xmlns:cc="http://creativecommons.org/ns#" xmlns:rdf="http://www.w3.org/1999/02/22-rdf-syntax-ns#">
   <cc:Work>
    <dc:type rdf:resource="http://purl.org/dc/dcmitype/StillImage"/>
    <dc:date>2024-12-29T13:18:06.559182</dc:date>
    <dc:format>image/svg+xml</dc:format>
    <dc:creator>
     <cc:Agent>
      <dc:title>Matplotlib v3.7.5, https://matplotlib.org/</dc:title>
     </cc:Agent>
    </dc:creator>
   </cc:Work>
  </rdf:RDF>
 </metadata>
 <defs>
  <style type="text/css">*{stroke-linejoin: round; stroke-linecap: butt}</style>
 </defs>
 <g id="figure_1">
  <g id="patch_1">
   <path d="M 0 240.132758 
L 388.542964 240.132758 
L 388.542964 0 
L 0 0 
z
" style="fill: #ffffff"/>
  </g>
  <g id="axes_1">
   <g id="patch_2">
    <path d="M 49.404673 193.536948 
L 377.742964 193.536948 
L 377.742964 13.340875 
L 49.404673 13.340875 
z
" style="fill: #ffffff"/>
   </g>
   <g id="matplotlib.axis_1">
    <g id="xtick_1">
     <g id="line2d_1">
      <defs>
       <path id="mcfee317da6" d="M 0 0 
L 0 3.5 
" style="stroke: #000000; stroke-width: 0.8"/>
      </defs>
      <g>
       <use xlink:href="#mcfee317da6" x="102.145828" y="193.536948" style="stroke: #000000; stroke-width: 0.8"/>
      </g>
     </g>
     <g id="text_1">
      <!-- $\mathdefault{0.2}$ -->
      <g transform="translate(93.420537 210.222825) scale(0.14 -0.14)">
       <defs>
        <path id="CMR17-30" d="M 2688 2025 
C 2688 2416 2682 3080 2413 3591 
C 2176 4039 1798 4198 1466 4198 
C 1158 4198 768 4058 525 3597 
C 269 3118 243 2524 243 2025 
C 243 1661 250 1106 448 619 
C 723 -39 1216 -128 1466 -128 
C 1760 -128 2208 -7 2470 600 
C 2662 1042 2688 1559 2688 2025 
z
M 1466 -26 
C 1056 -26 813 325 723 812 
C 653 1188 653 1738 653 2096 
C 653 2588 653 2997 736 3387 
C 858 3929 1216 4096 1466 4096 
C 1728 4096 2067 3923 2189 3400 
C 2272 3036 2278 2607 2278 2096 
C 2278 1680 2278 1169 2202 792 
C 2067 95 1690 -26 1466 -26 
z
" transform="scale(0.015625)"/>
        <path id="CMMI12-3a" d="M 1178 307 
C 1178 492 1024 619 870 619 
C 685 619 557 466 557 313 
C 557 128 710 0 864 0 
C 1050 0 1178 153 1178 307 
z
" transform="scale(0.015625)"/>
        <path id="CMR17-32" d="M 2669 989 
L 2554 989 
C 2490 536 2438 459 2413 420 
C 2381 369 1920 369 1830 369 
L 602 369 
C 832 619 1280 1072 1824 1597 
C 2214 1967 2669 2402 2669 3035 
C 2669 3790 2067 4224 1395 4224 
C 691 4224 262 3604 262 3030 
C 262 2780 448 2748 525 2748 
C 589 2748 781 2787 781 3010 
C 781 3207 614 3264 525 3264 
C 486 3264 448 3258 422 3245 
C 544 3790 915 4058 1306 4058 
C 1862 4058 2227 3617 2227 3035 
C 2227 2479 1901 2000 1536 1584 
L 262 146 
L 262 0 
L 2515 0 
L 2669 989 
z
" transform="scale(0.015625)"/>
       </defs>
       <use xlink:href="#CMR17-30" transform="scale(0.996264)"/>
       <use xlink:href="#CMMI12-3a" transform="translate(45.690477 0) scale(0.996264)"/>
       <use xlink:href="#CMR17-32" transform="translate(72.787654 0) scale(0.996264)"/>
      </g>
     </g>
    </g>
    <g id="xtick_2">
     <g id="line2d_2">
      <g>
       <use xlink:href="#mcfee317da6" x="173.60834" y="193.536948" style="stroke: #000000; stroke-width: 0.8"/>
      </g>
     </g>
     <g id="text_2">
      <!-- $\mathdefault{0.4}$ -->
      <g transform="translate(164.883049 210.222825) scale(0.14 -0.14)">
       <defs>
        <path id="CMR17-34" d="M 2150 4122 
C 2150 4256 2144 4256 2029 4256 
L 128 1254 
L 128 1088 
L 1779 1088 
L 1779 457 
C 1779 224 1766 160 1318 160 
L 1197 160 
L 1197 0 
C 1402 0 1747 0 1965 0 
C 2182 0 2528 0 2733 0 
L 2733 160 
L 2611 160 
C 2163 160 2150 224 2150 457 
L 2150 1088 
L 2803 1088 
L 2803 1254 
L 2150 1254 
L 2150 4122 
z
M 1798 3703 
L 1798 1254 
L 256 1254 
L 1798 3703 
z
" transform="scale(0.015625)"/>
       </defs>
       <use xlink:href="#CMR17-30" transform="scale(0.996264)"/>
       <use xlink:href="#CMMI12-3a" transform="translate(45.690477 0) scale(0.996264)"/>
       <use xlink:href="#CMR17-34" transform="translate(72.787654 0) scale(0.996264)"/>
      </g>
     </g>
    </g>
    <g id="xtick_3">
     <g id="line2d_3">
      <g>
       <use xlink:href="#mcfee317da6" x="245.070852" y="193.536948" style="stroke: #000000; stroke-width: 0.8"/>
      </g>
     </g>
     <g id="text_3">
      <!-- $\mathdefault{0.6}$ -->
      <g transform="translate(236.345561 210.222825) scale(0.14 -0.14)">
       <defs>
        <path id="CMR17-36" d="M 678 2176 
C 678 3690 1395 4032 1811 4032 
C 1946 4032 2272 4009 2400 3776 
C 2298 3776 2106 3776 2106 3553 
C 2106 3381 2246 3323 2336 3323 
C 2394 3323 2566 3348 2566 3560 
C 2566 3954 2246 4179 1805 4179 
C 1043 4179 243 3390 243 1984 
C 243 253 966 -128 1478 -128 
C 2099 -128 2688 427 2688 1283 
C 2688 2081 2170 2662 1517 2662 
C 1126 2662 838 2407 678 1960 
L 678 2176 
z
M 1478 25 
C 691 25 691 1200 691 1436 
C 691 1896 909 2560 1504 2560 
C 1613 2560 1926 2560 2138 2120 
C 2253 1870 2253 1609 2253 1289 
C 2253 944 2253 690 2118 434 
C 1978 171 1773 25 1478 25 
z
" transform="scale(0.015625)"/>
       </defs>
       <use xlink:href="#CMR17-30" transform="scale(0.996264)"/>
       <use xlink:href="#CMMI12-3a" transform="translate(45.690477 0) scale(0.996264)"/>
       <use xlink:href="#CMR17-36" transform="translate(72.787654 0) scale(0.996264)"/>
      </g>
     </g>
    </g>
    <g id="xtick_4">
     <g id="line2d_4">
      <g>
       <use xlink:href="#mcfee317da6" x="316.533364" y="193.536948" style="stroke: #000000; stroke-width: 0.8"/>
      </g>
     </g>
     <g id="text_4">
      <!-- $\mathdefault{0.8}$ -->
      <g transform="translate(307.808073 210.222825) scale(0.14 -0.14)">
       <defs>
        <path id="CMR17-38" d="M 1741 2264 
C 2144 2467 2554 2773 2554 3263 
C 2554 3841 1990 4179 1472 4179 
C 890 4179 378 3759 378 3180 
C 378 3021 416 2747 666 2505 
C 730 2442 998 2251 1171 2130 
C 883 1983 211 1634 211 934 
C 211 279 838 -128 1459 -128 
C 2144 -128 2720 362 2720 1010 
C 2720 1590 2330 1857 2074 2029 
L 1741 2264 
z
M 902 2822 
C 851 2854 595 3051 595 3351 
C 595 3739 998 4032 1459 4032 
C 1965 4032 2336 3676 2336 3262 
C 2336 2669 1670 2331 1638 2331 
C 1632 2331 1626 2331 1574 2370 
L 902 2822 
z
M 2080 1519 
C 2176 1449 2483 1240 2483 851 
C 2483 381 2010 25 1472 25 
C 890 25 448 438 448 940 
C 448 1443 838 1862 1280 2060 
L 2080 1519 
z
" transform="scale(0.015625)"/>
       </defs>
       <use xlink:href="#CMR17-30" transform="scale(0.996264)"/>
       <use xlink:href="#CMMI12-3a" transform="translate(45.690477 0) scale(0.996264)"/>
       <use xlink:href="#CMR17-38" transform="translate(72.787654 0) scale(0.996264)"/>
      </g>
     </g>
    </g>
    <g id="text_5">
     <!-- P -->
     <g transform="translate(208.927858 226.620729) scale(0.14 -0.14)">
      <defs>
       <path id="CMR17-50" d="M 1267 2042 
L 2291 2042 
C 3117 2042 3718 2578 3718 3184 
C 3718 3791 3130 4352 2291 4352 
L 333 4352 
L 333 4186 
C 774 4186 845 4186 845 3899 
L 845 446 
C 845 160 774 160 333 160 
L 333 0 
C 518 0 858 0 1056 0 
C 1254 0 1594 0 1779 0 
L 1779 160 
C 1338 160 1267 160 1267 446 
L 1267 2042 
z
M 1254 2176 
L 1254 3938 
C 1254 4155 1267 4186 1523 4186 
L 2170 4186 
C 2995 4186 3232 3714 3232 3184 
C 3232 2604 2950 2176 2170 2176 
L 1254 2176 
z
" transform="scale(0.015625)"/>
      </defs>
      <use xlink:href="#CMR17-50" transform="scale(0.996264)"/>
     </g>
    </g>
   </g>
   <g id="matplotlib.axis_2">
    <g id="ytick_1">
     <g id="line2d_5">
      <defs>
       <path id="m699091a812" d="M 0 0 
L -3.5 0 
" style="stroke: #000000; stroke-width: 0.8"/>
      </defs>
      <g>
       <use xlink:href="#m699091a812" x="49.404673" y="173.612092" style="stroke: #000000; stroke-width: 0.8"/>
      </g>
     </g>
     <g id="text_6">
      <!-- $\mathdefault{0}$ -->
      <g transform="translate(35.576185 178.45503) scale(0.14 -0.14)">
       <use xlink:href="#CMR17-30" transform="scale(0.996264)"/>
      </g>
     </g>
    </g>
    <g id="ytick_2">
     <g id="line2d_6">
      <g>
       <use xlink:href="#m699091a812" x="49.404673" y="134.105156" style="stroke: #000000; stroke-width: 0.8"/>
      </g>
     </g>
     <g id="text_7">
      <!-- $\mathdefault{10}$ -->
      <g transform="translate(28.747696 138.948094) scale(0.14 -0.14)">
       <defs>
        <path id="CMR17-31" d="M 1702 4058 
C 1702 4192 1696 4192 1606 4192 
C 1357 3916 979 3827 621 3827 
C 602 3827 570 3827 563 3808 
C 557 3795 557 3782 557 3648 
C 755 3648 1088 3686 1344 3839 
L 1344 461 
C 1344 236 1331 160 781 160 
L 589 160 
L 589 0 
C 896 0 1216 0 1523 0 
C 1830 0 2150 0 2458 0 
L 2458 160 
L 2266 160 
C 1715 160 1702 230 1702 458 
L 1702 4058 
z
" transform="scale(0.015625)"/>
       </defs>
       <use xlink:href="#CMR17-31" transform="scale(0.996264)"/>
       <use xlink:href="#CMR17-30" transform="translate(45.690477 0) scale(0.996264)"/>
      </g>
     </g>
    </g>
    <g id="ytick_3">
     <g id="line2d_7">
      <g>
       <use xlink:href="#m699091a812" x="49.404673" y="94.598219" style="stroke: #000000; stroke-width: 0.8"/>
      </g>
     </g>
     <g id="text_8">
      <!-- $\mathdefault{20}$ -->
      <g transform="translate(28.747696 99.441157) scale(0.14 -0.14)">
       <use xlink:href="#CMR17-32" transform="scale(0.996264)"/>
       <use xlink:href="#CMR17-30" transform="translate(45.690477 0) scale(0.996264)"/>
      </g>
     </g>
    </g>
    <g id="ytick_4">
     <g id="line2d_8">
      <g>
       <use xlink:href="#m699091a812" x="49.404673" y="55.091282" style="stroke: #000000; stroke-width: 0.8"/>
      </g>
     </g>
     <g id="text_9">
      <!-- $\mathdefault{30}$ -->
      <g transform="translate(28.747696 59.934221) scale(0.14 -0.14)">
       <defs>
        <path id="CMR17-33" d="M 1414 2157 
C 1984 2157 2234 1662 2234 1090 
C 2234 320 1824 25 1453 25 
C 1114 25 563 194 390 693 
C 422 680 454 680 486 680 
C 640 680 755 782 755 948 
C 755 1133 614 1216 486 1216 
C 378 1216 211 1165 211 926 
C 211 335 787 -128 1466 -128 
C 2176 -128 2720 430 2720 1085 
C 2720 1707 2208 2157 1600 2227 
C 2086 2328 2554 2756 2554 3329 
C 2554 3820 2048 4179 1472 4179 
C 890 4179 378 3829 378 3329 
C 378 3110 544 3072 627 3072 
C 762 3072 877 3155 877 3321 
C 877 3486 762 3569 627 3569 
C 602 3569 570 3569 544 3557 
C 730 3959 1235 4032 1459 4032 
C 1683 4032 2106 3925 2106 3320 
C 2106 3143 2080 2828 1862 2550 
C 1670 2304 1453 2304 1242 2284 
C 1210 2284 1062 2269 1037 2269 
C 992 2263 966 2257 966 2208 
C 966 2163 973 2157 1101 2157 
L 1414 2157 
z
" transform="scale(0.015625)"/>
       </defs>
       <use xlink:href="#CMR17-33" transform="scale(0.996264)"/>
       <use xlink:href="#CMR17-30" transform="translate(45.690477 0) scale(0.996264)"/>
      </g>
     </g>
    </g>
    <g id="ytick_5">
     <g id="line2d_9">
      <g>
       <use xlink:href="#m699091a812" x="49.404673" y="15.584346" style="stroke: #000000; stroke-width: 0.8"/>
      </g>
     </g>
     <g id="text_10">
      <!-- $\mathdefault{40}$ -->
      <g transform="translate(28.747696 20.427284) scale(0.14 -0.14)">
       <use xlink:href="#CMR17-34" transform="scale(0.996264)"/>
       <use xlink:href="#CMR17-30" transform="translate(45.690477 0) scale(0.996264)"/>
      </g>
     </g>
    </g>
    <g id="text_11">
     <!-- $\phi(P, t)$ -->
     <g transform="translate(21.260772 122.907371) rotate(-90) scale(0.14 -0.14)">
      <defs>
       <path id="CMMI12-1e" d="M 2752 4390 
C 2752 4448 2707 4448 2688 4448 
C 2630 4448 2624 4435 2598 4326 
L 2253 2939 
C 2234 2856 2227 2849 2221 2843 
C 2214 2830 2170 2824 2157 2824 
C 1107 2734 301 1864 301 1057 
C 301 361 832 -64 1498 -64 
C 1446 -261 1402 -463 1350 -659 
C 1261 -995 1210 -1204 1210 -1229 
C 1210 -1241 1210 -1280 1274 -1280 
C 1293 -1280 1318 -1280 1331 -1254 
C 1344 -1241 1382 -1089 1408 -1008 
L 1645 -64 
C 2739 -64 3571 854 3571 1680 
C 3571 2343 3085 2816 2374 2816 
L 2752 4390 
z
M 2336 2701 
C 2758 2701 3181 2463 3181 1828 
C 3181 1097 2675 128 1677 50 
L 2336 2701 
z
M 1530 50 
C 1216 50 691 220 691 938 
C 691 1761 1274 2676 2195 2676 
L 1530 50 
z
" transform="scale(0.015625)"/>
       <path id="CMR17-28" d="M 1958 -1561 
C 1958 -1555 1958 -1542 1939 -1523 
C 1645 -1224 858 -407 858 1581 
C 858 3569 1632 4379 1946 4697 
C 1946 4704 1958 4717 1958 4736 
C 1958 4755 1939 4768 1914 4768 
C 1843 4768 1299 4296 986 3594 
C 666 2887 576 2199 576 1588 
C 576 1128 621 351 1005 -471 
C 1312 -1135 1837 -1600 1914 -1600 
C 1946 -1600 1958 -1587 1958 -1561 
z
" transform="scale(0.015625)"/>
       <path id="CMMI12-50" d="M 1894 2023 
L 2970 2023 
C 3853 2023 4736 2673 4736 3401 
C 4736 3898 4314 4352 3507 4352 
L 1530 4352 
C 1408 4352 1350 4352 1350 4231 
C 1350 4167 1408 4167 1504 4167 
C 1894 4167 1894 4116 1894 4046 
C 1894 4034 1894 3995 1869 3899 
L 1005 472 
C 947 249 934 185 486 185 
C 365 185 301 185 301 70 
C 301 0 358 0 397 0 
C 518 0 646 0 768 0 
L 1517 0 
C 1638 0 1773 0 1894 0 
C 1946 0 2016 0 2016 121 
C 2016 185 1958 185 1862 185 
C 1478 185 1472 230 1472 293 
C 1472 325 1478 369 1485 401 
L 1894 2023 
z
M 2355 3930 
C 2413 4167 2438 4167 2688 4167 
L 3322 4167 
C 3802 4167 4198 4013 4198 3535 
C 4198 3369 4115 2827 3821 2534 
C 3712 2419 3405 2176 2822 2176 
L 1920 2176 
L 2355 3930 
z
" transform="scale(0.015625)"/>
       <path id="CMMI12-3b" d="M 1248 -31 
C 1248 343 1126 619 864 619 
C 659 619 557 453 557 313 
C 557 172 653 0 870 0 
C 954 0 1024 26 1082 83 
C 1094 96 1101 96 1107 96 
C 1120 96 1120 5 1120 -27 
C 1120 -240 1082 -659 710 -1080 
C 640 -1157 640 -1170 640 -1183 
C 640 -1216 672 -1248 704 -1248 
C 755 -1248 1248 -771 1248 -31 
z
" transform="scale(0.015625)"/>
       <path id="CMMI12-74" d="M 1286 2566 
L 1875 2566 
C 1997 2566 2061 2566 2061 2681 
C 2061 2752 2022 2752 1894 2752 
L 1331 2752 
L 1568 3692 
C 1594 3781 1594 3794 1594 3840 
C 1594 3943 1510 4000 1427 4000 
C 1376 4000 1229 3981 1178 3775 
L 928 2752 
L 326 2752 
C 198 2752 141 2752 141 2630 
C 141 2566 186 2566 307 2566 
L 877 2566 
L 454 881 
C 403 658 384 594 384 511 
C 384 211 595 -64 954 -64 
C 1600 -64 1946 868 1946 912 
C 1946 951 1920 970 1882 970 
C 1869 970 1843 970 1830 944 
C 1824 938 1818 931 1773 829 
C 1638 511 1344 64 973 64 
C 781 64 768 224 768 364 
C 768 370 768 492 787 568 
L 1286 2566 
z
" transform="scale(0.015625)"/>
       <path id="CMR17-29" d="M 1683 1581 
C 1683 2040 1638 2817 1254 3639 
C 947 4303 422 4768 346 4768 
C 326 4768 301 4761 301 4729 
C 301 4717 307 4710 314 4697 
C 621 4378 1402 3568 1402 1584 
C 1402 -407 627 -1217 314 -1537 
C 307 -1549 301 -1556 301 -1568 
C 301 -1600 326 -1600 346 -1600 
C 416 -1600 960 -1128 1274 -426 
C 1594 281 1683 969 1683 1581 
z
" transform="scale(0.015625)"/>
      </defs>
      <use xlink:href="#CMMI12-1e" transform="scale(0.996264)"/>
      <use xlink:href="#CMR17-28" transform="translate(57.73418 0) scale(0.996264)"/>
      <use xlink:href="#CMMI12-50" transform="translate(93.014948 0) scale(0.996264)"/>
      <use xlink:href="#CMMI12-3b" transform="translate(158.601898 0) scale(0.996264)"/>
      <use xlink:href="#CMMI12-74" transform="translate(202.30348 0) scale(0.996264)"/>
      <use xlink:href="#CMR17-29" transform="translate(237.529811 0) scale(0.996264)"/>
     </g>
    </g>
   </g>
   <g id="line2d_10">
    <path d="M 64.333337 174.285243 
L 64.407372 170.678532 
L 64.869818 163.482133 
L 65.57313 155.433049 
L 66.820282 143.227729 
L 68.943873 125.461973 
L 70.488114 113.955712 
L 72.466539 101.052126 
L 74.984647 87.363838 
L 78.164751 72.596767 
L 82.141247 57.890145 
L 87.050159 44.235721 
L 93.011416 32.691731 
L 100.103602 25.112902 
L 108.334826 21.689984 
L 117.618263 22.701876 
L 127.76141 28.203902 
L 138.485483 37.441398 
L 149.454914 49.163373 
L 160.333394 62.259412 
L 189.942014 98.740725 
L 198.404358 108.586655 
L 206.159455 116.746241 
L 213.283337 123.210705 
L 219.874228 128.254932 
L 226.039127 132.201003 
L 231.877684 135.254447 
L 237.478796 137.572155 
L 242.916534 139.32814 
L 248.248041 140.683026 
L 253.51689 141.766651 
L 263.96416 143.491583 
L 279.466133 145.869951 
L 289.558736 147.731702 
L 299.261765 149.916242 
L 308.391572 152.332949 
L 316.79292 154.842918 
L 324.352251 157.338925 
L 331.012487 159.742718 
L 339.303151 163.03282 
L 345.673315 165.830011 
L 350.34756 168.11676 
L 353.593766 169.947035 
L 355.671932 171.393799 
L 356.524449 172.182527 
L 357.020851 172.85476 
L 357.213508 173.427484 
L 357.148104 173.913788 
L 356.864336 174.323807 
L 356.396409 174.666627 
L 355.413317 175.075243 
L 353.702319 175.473267 
L 351.129987 175.817037 
L 347.68482 176.06671 
L 342.875294 176.171201 
L 335.826975 176.051476 
L 309.271478 175.399213 
L 295.716649 175.412698 
L 246.265884 175.643938 
L 246.265884 175.643938 
" clip-path="url(#pbdec25c6f3)" style="fill: none; stroke: #1f77b4; stroke-width: 3; stroke-linecap: square"/>
   </g>
   <g id="line2d_11">
    <path d="M 64.606993 174.302866 
L 64.674014 170.716047 
L 65.148847 163.53904 
L 65.875775 155.516241 
L 67.163533 143.350849 
L 69.350333 125.628324 
L 70.936855 114.129266 
L 72.96593 101.181583 
L 75.544052 87.356891 
L 78.794193 72.398015 
L 82.851173 57.564151 
L 87.85063 43.940984 
L 93.911235 32.511681 
L 101.109158 25.072708 
L 109.449302 21.748006 
L 118.841297 22.943248 
L 129.088797 28.853962 
L 139.910743 38.360153 
L 150.970305 50.097237 
L 161.931345 62.967562 
L 182.484038 88.41343 
L 191.753025 99.572929 
L 200.279112 109.11428 
L 208.095599 116.970707 
L 215.278997 123.431193 
L 221.927455 128.509239 
L 228.147919 132.464506 
L 234.039762 135.507379 
L 239.69169 137.794697 
L 245.177263 139.510149 
L 250.553366 140.824838 
L 255.863426 141.874388 
L 266.382064 143.553535 
L 281.963413 145.898468 
L 292.092775 147.743796 
L 301.822511 149.909671 
L 310.971614 152.306391 
L 319.387082 154.798031 
L 326.956657 157.279262 
L 333.623729 159.672576 
L 341.91844 162.954439 
L 348.284856 165.748791 
L 352.947685 168.034198 
L 356.176172 169.863067 
L 358.233083 171.308218 
L 359.070607 172.096087 
L 359.552271 172.767949 
L 359.731809 173.341071 
L 359.655116 173.82862 
L 359.36234 174.240496 
L 358.888385 174.585309 
L 357.901311 174.995961 
L 356.196213 175.393549 
L 353.647244 175.733645 
L 349.665508 176.006029 
L 344.940831 176.083937 
L 337.55861 175.934779 
L 314.024779 175.315876 
L 302.311566 175.320813 
L 259.690819 175.625236 
L 259.690819 175.625236 
" clip-path="url(#pbdec25c6f3)" style="fill: none; stroke: #1f77b4; stroke-width: 2; stroke-linecap: square"/>
   </g>
   <g id="line2d_12">
    <path d="M 64.560568 174.299886 
L 64.615116 170.707768 
L 65.067674 163.522491 
L 65.772288 155.487819 
L 67.029854 143.302941 
L 69.176697 125.557299 
L 70.738996 114.052794 
L 72.74081 101.123297 
L 75.28856 87.360319 
L 78.50542 72.48966 
L 82.526578 57.713192 
L 87.488509 44.073169 
L 93.510784 32.590682 
L 100.670754 25.089828 
L 108.97416 21.722627 
L 118.331356 22.839878 
L 128.545817 28.584859 
L 139.335732 37.98545 
L 150.363454 49.726151 
L 161.291994 62.684248 
L 191.014545 99.236626 
L 199.510528 108.904149 
L 207.30067 116.883053 
L 214.462643 123.343817 
L 221.095596 128.409343 
L 227.306924 132.363329 
L 233.196382 135.412486 
L 238.852441 137.713337 
L 244.348577 139.445639 
L 249.741165 140.776348 
L 255.073204 141.839024 
L 265.648855 143.535051 
L 281.335691 145.8914 
L 291.5387 147.741266 
L 301.338143 149.911039 
L 310.550073 152.310829 
L 319.020552 154.804438 
L 326.638323 157.286592 
L 333.349268 159.679955 
L 341.708639 162.9607 
L 348.144569 165.753113 
L 352.886562 168.036113 
L 356.204923 169.86214 
L 358.360165 171.304053 
L 359.583322 172.437571 
L 359.978029 173.055692 
L 360.09459 173.582319 
L 359.97477 174.028774 
L 359.655585 174.404165 
L 358.870943 174.852519 
L 357.796825 175.190585 
L 356.036929 175.520689 
L 352.949112 175.845203 
L 349.020492 176.023605 
L 343.898638 176.020393 
L 334.445706 175.740302 
L 319.170977 175.316716 
L 308.647675 175.262663 
L 289.362011 175.454775 
L 262.560784 175.619173 
L 261.240297 175.622732 
L 261.240297 175.622732 
" clip-path="url(#pbdec25c6f3)" style="fill: none; stroke: #1f77b4; stroke-width: 2; stroke-linecap: square"/>
   </g>
   <g id="line2d_13">
    <path d="M 64.678463 174.30744 
L 64.735279 170.724658 
L 65.196375 163.548716 
L 65.911917 155.526161 
L 67.18658 143.359101 
L 69.359182 125.631941 
L 70.938668 114.129967 
L 72.961183 101.180355 
L 75.533723 87.357056 
L 78.780041 72.402521 
L 82.835615 57.571302 
L 87.837112 43.945882 
L 93.903941 32.513098 
L 101.112635 25.072572 
L 109.467746 21.749031 
L 118.877732 22.950799 
L 129.14433 28.881737 
L 139.983772 38.408108 
L 151.05723 50.150059 
L 162.02696 63.009933 
L 182.581325 88.462824 
L 191.84602 99.614976 
L 200.366751 109.137707 
L 208.17917 116.97958 
L 215.361354 123.439787 
L 222.013007 128.519261 
L 228.242096 132.475516 
L 234.148678 135.519285 
L 239.821732 137.806964 
L 245.335098 139.522145 
L 250.745512 140.836081 
L 256.096314 141.884632 
L 266.714198 143.561818 
L 282.480729 145.904252 
L 292.750867 147.74672 
L 302.629729 149.90726 
L 311.932472 152.296099 
L 320.503156 154.778357 
L 328.228159 157.249897 
L 335.05015 159.634227 
L 343.576599 162.905137 
L 350.17439 165.690976 
L 355.068532 167.968412 
L 358.527712 169.788741 
L 360.812912 171.224631 
L 362.156379 172.352369 
L 362.626989 172.967339 
L 362.816132 173.49181 
L 362.766232 173.937198 
L 362.514517 174.312374 
L 361.82746 174.760739 
L 360.847137 175.097513 
L 359.206762 175.422938 
L 356.287749 175.738909 
L 352.540435 175.912869 
L 347.626593 175.910656 
L 338.034439 175.620952 
L 323.916994 175.235622 
L 313.684595 175.188927 
L 296.044481 175.388494 
L 270.653211 175.595068 
L 264.027648 175.61803 
L 264.027648 175.61803 
" clip-path="url(#pbdec25c6f3)" style="fill: none; stroke: #1f77b4; stroke-width: 2; stroke-linecap: square"/>
   </g>
   <g id="line2d_14">
    <path d="M 64.590653 174.301815 
L 64.661763 170.714325 
L 65.131087 163.535407 
L 65.848669 155.508792 
L 67.122956 143.336312 
L 69.293631 125.605145 
L 70.872057 114.104234 
L 72.893913 101.162948 
L 75.466492 87.357968 
L 78.713965 72.423545 
L 82.77217 57.600426 
L 87.777968 43.967342 
L 93.850612 32.523527 
L 101.06603 25.074366 
L 109.42752 21.746831 
L 118.841963 22.943399 
L 129.109306 28.86421 
L 139.944467 38.382292 
L 151.008118 50.120235 
L 161.963025 62.981593 
L 182.47898 88.410853 
L 191.723709 99.559667 
L 200.226305 109.100113 
L 208.023347 116.962991 
L 215.193551 123.422229 
L 221.836749 128.498557 
L 228.060876 132.454288 
L 233.965498 135.499225 
L 239.639298 137.789727 
L 245.15556 139.508499 
L 250.570511 140.825836 
L 255.926786 141.87718 
L 266.556597 143.557891 
L 282.33614 145.902635 
L 292.607046 147.746093 
L 302.478325 149.907727 
L 311.765009 152.297902 
L 320.31282 154.781725 
L 328.010265 157.254938 
L 334.802971 159.640874 
L 343.28855 162.913682 
L 349.855418 165.700685 
L 354.733309 167.97873 
L 358.191894 169.799232 
L 360.492001 171.234879 
L 361.863538 172.361944 
L 362.359173 172.976167 
L 362.577345 173.499664 
L 362.560285 173.943879 
L 362.344265 174.317783 
L 361.714882 174.764179 
L 360.796023 175.099044 
L 359.2412 175.42189 
L 356.453912 175.733747 
L 352.858939 175.903112 
L 348.129406 175.896316 
L 338.852241 175.601113 
L 325.34203 175.22064 
L 315.052085 175.170637 
L 297.901133 175.367139 
L 272.44663 175.588472 
L 264.903912 175.616492 
L 264.903912 175.616492 
" clip-path="url(#pbdec25c6f3)" style="fill: none; stroke: #1f77b4; stroke-width: 2; stroke-linecap: square"/>
   </g>
   <g id="line2d_15">
    <path d="M 64.431334 174.29157 
L 64.52446 170.695018 
L 65.010781 163.510884 
L 65.735606 155.477735 
L 67.012457 143.296697 
L 69.179213 125.558328 
L 70.752493 114.058008 
L 72.766658 101.129989 
L 75.328626 87.359792 
L 78.562338 72.471666 
L 82.603568 57.677844 
L 87.58939 44.036155 
L 93.639889 32.565001 
L 100.832227 25.083453 
L 109.171849 21.733071 
L 118.567768 22.887321 
L 128.822291 28.721325 
L 139.652 38.190879 
L 150.717983 49.943433 
L 161.682696 62.857373 
L 182.233473 88.286346 
L 191.499009 99.457736 
L 200.022222 109.044977 
L 207.83808 116.942981 
L 215.024598 123.404378 
L 221.681 128.480092 
L 227.915116 132.43704 
L 233.826638 135.483865 
L 239.504591 137.776887 
L 245.022451 139.498296 
L 250.437103 140.817996 
L 255.791505 141.871212 
L 266.414266 143.554338 
L 282.180477 145.9009 
L 292.443204 147.74536 
L 302.307668 149.908233 
L 311.588581 152.299801 
L 320.130791 154.784941 
L 327.821952 157.259295 
L 334.606289 159.646166 
L 343.073637 162.920059 
L 349.614394 165.708023 
L 354.457848 167.987219 
L 357.874987 169.809171 
L 360.127857 171.246573 
L 361.448557 172.375565 
L 361.908944 172.991054 
L 362.091634 173.515683 
L 362.038987 173.960841 
L 361.787889 174.335496 
L 361.107371 174.782859 
L 360.140167 175.118804 
L 358.526562 175.443557 
L 355.666118 175.758325 
L 352.01132 175.929173 
L 347.246028 175.921592 
L 338.015889 175.621407 
L 324.729791 175.232408 
L 314.817514 175.178399 
L 297.950458 175.363701 
L 271.808408 175.587965 
L 262.645462 175.620398 
L 262.645462 175.620398 
" clip-path="url(#pbdec25c6f3)" style="fill: none; stroke: #1f77b4; stroke-width: 2; stroke-linecap: square"/>
   </g>
   <g id="line2d_16">
    <path d="M 64.431334 110.509849 
L 64.52446 110.528145 
L 72.766658 112.519361 
L 150.717983 131.541264 
L 287.349974 164.919801 
L 360.127857 182.492336 
L 362.091634 182.872443 
L 361.936141 182.786949 
L 359.766907 182.120065 
L 345.695593 178.156701 
L 286.760992 161.712784 
L 267.494624 156.681579 
L 262.645462 155.460837 
L 262.645462 155.460837 
" clip-path="url(#pbdec25c6f3)" style="fill: none; stroke-dasharray: 3,4.95; stroke-dashoffset: 0; stroke: #d62728; stroke-width: 3"/>
   </g>
   <g id="line2d_17">
    <path d="M 64.431334 108.799054 
L 64.52446 109.257105 
L 64.786481 109.590529 
L 65.319613 109.961901 
L 66.287584 110.394084 
L 67.95678 110.924346 
L 70.752493 111.61206 
L 75.328626 112.548719 
L 82.603568 113.862986 
L 100.832227 116.86033 
L 139.652 122.905444 
L 200.022222 132.306151 
L 233.826638 137.80366 
L 297.43706 148.4791 
L 327.821952 153.765121 
L 343.073637 156.633336 
L 351.404235 158.380484 
L 356.87769 159.722006 
L 360.127857 160.747154 
L 361.448557 161.356782 
L 362.032278 161.861081 
L 362.092316 162.150163 
L 361.936141 162.408226 
L 361.370033 162.747685 
L 360.140167 163.131933 
L 357.618608 163.610624 
L 352.542543 164.281722 
L 341.244034 165.741023 
L 335.410034 166.730841 
L 329.822937 167.905004 
L 323.679697 169.434976 
L 312.436498 172.53426 
L 300.861569 175.61613 
L 287.515476 178.909758 
L 271.080993 182.993841 
L 263.324341 185.145238 
L 262.645462 185.346218 
L 262.645462 185.346218 
" clip-path="url(#pbdec25c6f3)" style="fill: none; stroke-dasharray: 11.1,4.8; stroke-dashoffset: 0; stroke: #d62728; stroke-width: 3"/>
   </g>
   <g id="line2d_18">
    <path d="M 64.431334 105.573607 
L 64.52446 105.633046 
L 65.319613 105.739468 
L 70.752493 106.105399 
L 87.58939 107.234881 
L 100.832227 108.321403 
L 118.567768 110.077825 
L 128.822291 111.254153 
L 139.652 112.62628 
L 150.717983 114.167787 
L 161.682696 115.836185 
L 172.255824 117.580219 
L 191.499009 121.103964 
L 207.83808 124.463509 
L 221.681 127.584972 
L 233.826638 130.535231 
L 245.022451 133.427159 
L 261.114152 137.863057 
L 276.957438 142.546788 
L 292.443204 147.436283 
L 307.03209 152.344062 
L 320.130791 157.027936 
L 331.32901 161.275982 
L 340.474343 164.955548 
L 349.614394 168.908084 
L 355.741916 171.837502 
L 359.491232 173.9087 
L 361.099065 175.010031 
L 361.908944 175.803947 
L 362.091634 176.193249 
L 362.038987 176.489198 
L 361.787889 176.705731 
L 361.107371 176.907692 
L 359.766907 176.999753 
L 357.14542 176.883482 
L 352.01132 176.356941 
L 339.834992 175.040889 
L 333.748767 174.62363 
L 327.593835 174.426407 
L 318.542424 174.39806 
L 308.652062 174.303959 
L 300.861569 174.00181 
L 292.024091 173.422444 
L 279.972055 172.384035 
L 263.324341 170.964061 
L 262.645462 170.917696 
L 262.645462 170.917696 
" clip-path="url(#pbdec25c6f3)" style="fill: none; stroke-dasharray: 19.2,4.8,3,4.8; stroke-dashoffset: 0; stroke: #d62728; stroke-width: 3"/>
   </g>
   <g id="line2d_19">
    <path d="M 64.520816 174.297334 
L 64.552254 171.176406 
L 64.817053 166.145863 
L 65.466864 157.897701 
L 66.782886 144.271488 
L 68.3969 129.952567 
L 70.304255 114.919084 
L 72.229479 101.820302 
L 73.801849 92.650595 
L 75.639806 83.069932 
L 77.782221 72.992871 
L 78.98177 67.926357 
L 80.273809 62.952755 
L 81.662842 58.108851 
L 83.153288 53.3898 
L 84.749987 48.764859 
L 86.458568 44.236023 
L 88.285078 39.910461 
L 90.234469 35.965343 
L 92.309302 32.511877 
L 94.510291 29.535142 
L 96.837984 26.972611 
L 99.293472 24.819716 
L 101.877491 23.147426 
L 104.588965 22.049495 
L 107.424246 21.546631 
L 110.37807 21.531606 
L 113.445888 21.890439 
L 116.624287 22.621112 
L 119.908855 23.833068 
L 123.291578 25.657105 
L 126.759789 28.089606 
L 130.298739 30.937637 
L 133.896226 34.02175 
L 137.543058 37.347718 
L 141.22878 41.035835 
L 144.93843 45.182448 
L 152.352405 54.363224 
L 166.801548 72.348101 
L 189.749996 100.200978 
L 198.346525 110.362473 
L 201.030775 113.331559 
L 203.629973 116.015131 
L 208.601073 120.690639 
L 213.306274 124.605309 
L 217.784817 127.900533 
L 222.069807 130.701223 
L 226.189295 133.07609 
L 230.169753 135.071474 
L 234.036525 136.734921 
L 237.813017 138.117767 
L 241.519738 139.270713 
L 246.985696 140.66915 
L 252.376942 141.785305 
L 259.498162 143.008707 
L 284.015 146.953883 
L 290.790476 148.328415 
L 297.362902 149.849458 
L 305.200037 151.900778 
L 312.524669 154.034974 
L 320.538254 156.604569 
L 327.63479 159.099042 
L 334.718718 161.81523 
L 341.282029 164.560849 
L 346.888273 167.141041 
L 350.879763 169.215094 
L 353.303077 170.691546 
L 354.860541 171.880682 
L 355.639624 172.728239 
L 355.946925 173.33625 
L 355.973782 173.850843 
L 355.763746 174.283537 
L 355.270773 174.698024 
L 354.445197 175.072173 
L 352.965213 175.45648 
L 350.671644 175.80032 
L 347.289134 176.073886 
L 342.84699 176.194588 
L 336.638069 176.114876 
L 303.988189 175.373349 
L 286.504357 175.477025 
L 253.49751 175.634157 
L 252.813945 175.635384 
L 252.813945 175.635384 
" clip-path="url(#pbdec25c6f3)" style="fill: none; stroke-dasharray: 11.1,4.8; stroke-dashoffset: 0; stroke: #ff7f0e; stroke-width: 3"/>
   </g>
   <g id="line2d_20">
    <path d="M 64.520816 97.272209 
L 64.573136 97.631443 
L 64.881561 97.971441 
L 65.60522 98.405416 
L 67.050987 99.002819 
L 69.763925 99.887009 
L 75.639806 101.525641 
L 86.458568 104.282953 
L 107.424246 109.375328 
L 163.256911 122.629043 
L 213.306274 134.612472 
L 252.376942 144.226986 
L 315.294024 159.93324 
L 335.626566 165.229717 
L 346.350405 168.23574 
L 351.901212 169.993797 
L 354.707476 171.092105 
L 355.776141 171.71996 
L 355.992566 172.039136 
L 355.895833 172.248839 
L 355.511456 172.432041 
L 354.561481 172.603034 
L 352.506976 172.717045 
L 348.455853 172.687973 
L 325.338963 172.203836 
L 318.305617 172.426204 
L 310.825535 172.89486 
L 300.473656 173.794347 
L 257.749106 177.904806 
L 252.813945 178.447644 
L 252.813945 178.447644 
" clip-path="url(#pbdec25c6f3)" style="fill: none; stroke-dasharray: 19.2,4.8,3,4.8; stroke-dashoffset: 0; stroke: #8c564b; stroke-width: 3"/>
   </g>
   <g id="patch_3">
    <path d="M 49.404673 193.536948 
L 49.404673 13.340875 
" style="fill: none; stroke: #000000; stroke-width: 0.8; stroke-linejoin: miter; stroke-linecap: square"/>
   </g>
   <g id="patch_4">
    <path d="M 377.742964 193.536948 
L 377.742964 13.340875 
" style="fill: none; stroke: #000000; stroke-width: 0.8; stroke-linejoin: miter; stroke-linecap: square"/>
   </g>
   <g id="patch_5">
    <path d="M 49.404673 193.536948 
L 377.742964 193.536948 
" style="fill: none; stroke: #000000; stroke-width: 0.8; stroke-linejoin: miter; stroke-linecap: square"/>
   </g>
   <g id="patch_6">
    <path d="M 49.404673 13.340875 
L 377.742964 13.340875 
" style="fill: none; stroke: #000000; stroke-width: 0.8; stroke-linejoin: miter; stroke-linecap: square"/>
   </g>
   <g id="legend_1">
    <g id="line2d_21">
     <path d="M 210.286127 34.407362 
L 224.286127 34.407362 
L 238.286127 34.407362 
" style="fill: none; stroke: #1f77b4; stroke-width: 3; stroke-linecap: square"/>
    </g>
    <g id="text_12">
     <!-- $\hat{\phi}$ -->
     <g transform="translate(249.486127 39.307362) scale(0.14 -0.14)">
      <defs>
       <path id="CMR17-5e" d="M 1466 4421 
L 678 3555 
L 755 3478 
L 1466 4166 
L 2176 3478 
L 2253 3555 
L 1466 4421 
z
" transform="scale(0.015625)"/>
      </defs>
      <use xlink:href="#CMR17-5e" transform="translate(14.151005 26.296621) scale(0.996264)"/>
      <use xlink:href="#CMMI12-1e" transform="scale(0.996264)"/>
     </g>
    </g>
    <g id="line2d_22">
     <path d="M 210.286127 53.91939 
L 224.286127 53.91939 
L 238.286127 53.91939 
" style="fill: none; stroke-dasharray: 3,4.95; stroke-dashoffset: 0; stroke: #d62728; stroke-width: 3"/>
    </g>
    <g id="text_13">
     <!-- $\phi^s_1$ -->
     <g transform="translate(249.486127 58.81939) scale(0.14 -0.14)">
      <defs>
       <path id="CMMI12-73" d="M 1459 1280 
C 1568 1261 1741 1223 1779 1216 
C 1862 1192 2150 1090 2150 783 
C 2150 586 1971 70 1229 70 
C 1094 70 614 70 486 436 
C 742 404 870 603 870 745 
C 870 880 781 950 653 950 
C 512 950 326 841 326 552 
C 326 173 710 -64 1222 -64 
C 2195 -64 2483 651 2483 984 
C 2483 1079 2483 1258 2278 1462 
C 2118 1616 1965 1648 1619 1718 
C 1446 1756 1171 1814 1171 2101 
C 1171 2229 1286 2689 1894 2689 
C 2163 2689 2426 2589 2490 2368 
C 2208 2368 2195 2125 2195 2119 
C 2195 1984 2317 1946 2374 1946 
C 2464 1946 2643 2015 2643 2281 
C 2643 2545 2400 2816 1901 2816 
C 1062 2816 838 2160 838 1899 
C 838 1414 1312 1312 1459 1280 
z
" transform="scale(0.015625)"/>
      </defs>
      <use xlink:href="#CMMI12-1e" transform="scale(0.996264)"/>
      <use xlink:href="#CMMI12-73" transform="translate(57.73418 36.153639) scale(0.697382)"/>
      <use xlink:href="#CMR17-31" transform="translate(57.73418 -24.740171) scale(0.697382)"/>
     </g>
    </g>
    <g id="line2d_23">
     <path d="M 210.286127 74.181368 
L 224.286127 74.181368 
L 238.286127 74.181368 
" style="fill: none; stroke-dasharray: 11.1,4.8; stroke-dashoffset: 0; stroke: #d62728; stroke-width: 3"/>
    </g>
    <g id="text_14">
     <!-- $\phi^s_{2}$ -->
     <g transform="translate(249.486127 79.081368) scale(0.14 -0.14)">
      <use xlink:href="#CMMI12-1e" transform="scale(0.996264)"/>
      <use xlink:href="#CMMI12-73" transform="translate(57.73418 36.153639) scale(0.697382)"/>
      <use xlink:href="#CMR17-32" transform="translate(57.73418 -24.740171) scale(0.697382)"/>
     </g>
    </g>
    <g id="line2d_24">
     <path d="M 290.586126 34.407362 
L 304.586126 34.407362 
L 318.586126 34.407362 
" style="fill: none; stroke-dasharray: 19.2,4.8,3,4.8; stroke-dashoffset: 0; stroke: #d62728; stroke-width: 3"/>
    </g>
    <g id="text_15">
     <!-- $\phi^s_{3}$ -->
     <g transform="translate(329.786126 39.307362) scale(0.14 -0.14)">
      <use xlink:href="#CMMI12-1e" transform="scale(0.996264)"/>
      <use xlink:href="#CMMI12-73" transform="translate(57.73418 36.153639) scale(0.697382)"/>
      <use xlink:href="#CMR17-33" transform="translate(57.73418 -24.740171) scale(0.697382)"/>
     </g>
    </g>
    <g id="line2d_25">
     <path d="M 290.586126 54.66934 
L 304.586126 54.66934 
L 318.586126 54.66934 
" style="fill: none; stroke-dasharray: 11.1,4.8; stroke-dashoffset: 0; stroke: #ff7f0e; stroke-width: 3"/>
    </g>
    <g id="text_16">
     <!-- $\phi^*$ -->
     <g transform="translate(329.786126 59.56934) scale(0.14 -0.14)">
      <defs>
       <path id="CMSY10-3" d="M 1760 2719 
C 1766 2808 1766 2962 1600 2962 
C 1498 2962 1414 2879 1434 2795 
L 1434 2712 
L 1523 1720 
L 704 2316 
C 646 2348 634 2360 589 2360 
C 499 2360 416 2271 416 2181 
C 416 2079 480 2053 544 2021 
L 1453 1586 
L 570 1158 
C 467 1107 416 1081 416 985 
C 416 889 499 806 589 806 
C 634 806 646 806 806 928 
L 1523 1446 
L 1427 371 
C 1427 236 1542 204 1594 204 
C 1670 204 1766 248 1766 371 
L 1670 1446 
L 2490 851 
C 2547 819 2560 806 2605 806 
C 2694 806 2778 896 2778 985 
C 2778 1081 2720 1113 2643 1152 
C 2259 1343 2246 1343 1741 1580 
L 2624 2008 
C 2726 2060 2778 2085 2778 2181 
C 2778 2277 2694 2360 2605 2360 
C 2560 2360 2547 2360 2387 2239 
L 1670 1720 
L 1760 2719 
z
" transform="scale(0.015625)"/>
      </defs>
      <use xlink:href="#CMMI12-1e" transform="scale(0.996264)"/>
      <use xlink:href="#CMSY10-3" transform="translate(57.73418 36.153639) scale(0.697382)"/>
     </g>
    </g>
    <g id="line2d_26">
     <path d="M 290.586126 74.181368 
L 304.586126 74.181368 
L 318.586126 74.181368 
" style="fill: none; stroke-dasharray: 19.2,4.8,3,4.8; stroke-dashoffset: 0; stroke: #8c564b; stroke-width: 3"/>
    </g>
    <g id="text_17">
     <!-- $\phi^s_{s} \cdot dt$ -->
     <g transform="translate(329.786126 79.081368) scale(0.14 -0.14)">
      <defs>
       <path id="CMSY10-1" d="M 1229 1619 
C 1229 1805 1075 1958 890 1958 
C 704 1958 550 1805 550 1619 
C 550 1433 704 1280 890 1280 
C 1075 1280 1229 1433 1229 1619 
z
" transform="scale(0.015625)"/>
       <path id="CMMI12-64" d="M 3219 4257 
C 3226 4282 3238 4320 3238 4352 
C 3238 4416 3174 4416 3162 4416 
C 3155 4416 2842 4388 2810 4380 
C 2701 4373 2605 4358 2490 4358 
C 2330 4345 2285 4339 2285 4224 
C 2285 4160 2336 4160 2426 4160 
C 2739 4160 2746 4103 2746 4040 
C 2746 4002 2733 3952 2726 3933 
L 2336 2395 
C 2266 2561 2093 2816 1760 2816 
C 1037 2816 256 1884 256 939 
C 256 307 627 -64 1062 -64 
C 1414 -64 1715 211 1894 422 
C 1958 45 2259 -64 2451 -64 
C 2643 -64 2797 51 2912 281 
C 3014 498 3104 888 3104 913 
C 3104 945 3078 971 3040 971 
C 2982 971 2976 939 2950 843 
C 2854 466 2733 64 2470 64 
C 2285 64 2272 229 2272 357 
C 2272 382 2272 515 2317 694 
L 3219 4257 
z
M 1926 760 
C 1894 651 1894 639 1805 517 
C 1664 338 1382 64 1082 64 
C 819 64 672 300 672 677 
C 672 1028 870 1743 992 2012 
C 1210 2459 1510 2689 1760 2689 
C 2182 2689 2266 2165 2266 2114 
C 2266 2108 2246 2024 2240 2012 
L 1926 760 
z
" transform="scale(0.015625)"/>
      </defs>
      <use xlink:href="#CMMI12-1e" transform="scale(0.996264)"/>
      <use xlink:href="#CMMI12-73" transform="translate(57.73418 36.153639) scale(0.697382)"/>
      <use xlink:href="#CMMI12-73" transform="translate(57.73418 -24.62935) scale(0.697382)"/>
      <use xlink:href="#CMSY10-1" transform="translate(112.536408 0) scale(0.996264)"/>
      <use xlink:href="#CMMI12-64" transform="translate(162.3497 0) scale(0.996264)"/>
      <use xlink:href="#CMMI12-74" transform="translate(213.038797 0) scale(0.996264)"/>
     </g>
    </g>
   </g>
  </g>
 </g>
 <defs>
  <clipPath id="pbdec25c6f3">
   <rect x="49.404673" y="13.340875" width="328.33829" height="180.196073"/>
  </clipPath>
 </defs>
</svg>
