<?xml version="1.0" encoding="utf-8" standalone="no"?>
<!DOCTYPE svg PUBLIC "-//W3C//DTD SVG 1.1//EN"
  "http://www.w3.org/Graphics/SVG/1.1/DTD/svg11.dtd">
<svg xmlns:xlink="http://www.w3.org/1999/xlink" width="388.542964pt" height="240.132758pt" viewBox="0 0 388.542964 240.132758" xmlns="http://www.w3.org/2000/svg" version="1.1">
 <metadata>
  <rdf:RDF xmlns:dc="http://purl.org/dc/elements/1.1/" xmlns:cc="http://creativecommons.org/ns#" xmlns:rdf="http://www.w3.org/1999/02/22-rdf-syntax-ns#">
   <cc:Work>
    <dc:type rdf:resource="http://purl.org/dc/dcmitype/StillImage"/>
    <dc:date>2024-12-29T13:18:12.452249</dc:date>
    <dc:format>image/svg+xml</dc:format>
    <dc:creator>
     <cc:Agent>
      <dc:title>Matplotlib v3.7.5, https://matplotlib.org/</dc:title>
     </cc:Agent>
    </dc:creator>
   </cc:Work>
  </rdf:RDF>
 </metadata>
 <defs>
  <style type="text/css">*{stroke-linejoin: round; stroke-linecap: butt}</style>
 </defs>
 <g id="figure_1">
  <g id="patch_1">
   <path d="M 0 240.132758 
L 388.542964 240.132758 
L 388.542964 0 
L 0 0 
z
" style="fill: #ffffff"/>
  </g>
  <g id="axes_1">
   <g id="patch_2">
    <path d="M 49.404673 193.536948 
L 377.742964 193.536948 
L 377.742964 13.340875 
L 49.404673 13.340875 
z
" style="fill: #ffffff"/>
   </g>
   <g id="matplotlib.axis_1">
    <g id="xtick_1">
     <g id="line2d_1">
      <defs>
       <path id="m73ab86e89a" d="M 0 0 
L 0 3.5 
" style="stroke: #000000; stroke-width: 0.8"/>
      </defs>
      <g>
       <use xlink:href="#m73ab86e89a" x="64.329141" y="193.536948" style="stroke: #000000; stroke-width: 0.8"/>
      </g>
     </g>
     <g id="text_1">
      <!-- $\mathdefault{0.0}$ -->
      <g transform="translate(55.60385 210.222825) scale(0.14 -0.14)">
       <defs>
        <path id="CMR17-30" d="M 2688 2025 
C 2688 2416 2682 3080 2413 3591 
C 2176 4039 1798 4198 1466 4198 
C 1158 4198 768 4058 525 3597 
C 269 3118 243 2524 243 2025 
C 243 1661 250 1106 448 619 
C 723 -39 1216 -128 1466 -128 
C 1760 -128 2208 -7 2470 600 
C 2662 1042 2688 1559 2688 2025 
z
M 1466 -26 
C 1056 -26 813 325 723 812 
C 653 1188 653 1738 653 2096 
C 653 2588 653 2997 736 3387 
C 858 3929 1216 4096 1466 4096 
C 1728 4096 2067 3923 2189 3400 
C 2272 3036 2278 2607 2278 2096 
C 2278 1680 2278 1169 2202 792 
C 2067 95 1690 -26 1466 -26 
z
" transform="scale(0.015625)"/>
        <path id="CMMI12-3a" d="M 1178 307 
C 1178 492 1024 619 870 619 
C 685 619 557 466 557 313 
C 557 128 710 0 864 0 
C 1050 0 1178 153 1178 307 
z
" transform="scale(0.015625)"/>
       </defs>
       <use xlink:href="#CMR17-30" transform="scale(0.996264)"/>
       <use xlink:href="#CMMI12-3a" transform="translate(45.690477 0) scale(0.996264)"/>
       <use xlink:href="#CMR17-30" transform="translate(72.787654 0) scale(0.996264)"/>
      </g>
     </g>
    </g>
    <g id="xtick_2">
     <g id="line2d_2">
      <g>
       <use xlink:href="#m73ab86e89a" x="124.027012" y="193.536948" style="stroke: #000000; stroke-width: 0.8"/>
      </g>
     </g>
     <g id="text_2">
      <!-- $\mathdefault{0.2}$ -->
      <g transform="translate(115.301721 210.222825) scale(0.14 -0.14)">
       <defs>
        <path id="CMR17-32" d="M 2669 989 
L 2554 989 
C 2490 536 2438 459 2413 420 
C 2381 369 1920 369 1830 369 
L 602 369 
C 832 619 1280 1072 1824 1597 
C 2214 1967 2669 2402 2669 3035 
C 2669 3790 2067 4224 1395 4224 
C 691 4224 262 3604 262 3030 
C 262 2780 448 2748 525 2748 
C 589 2748 781 2787 781 3010 
C 781 3207 614 3264 525 3264 
C 486 3264 448 3258 422 3245 
C 544 3790 915 4058 1306 4058 
C 1862 4058 2227 3617 2227 3035 
C 2227 2479 1901 2000 1536 1584 
L 262 146 
L 262 0 
L 2515 0 
L 2669 989 
z
" transform="scale(0.015625)"/>
       </defs>
       <use xlink:href="#CMR17-30" transform="scale(0.996264)"/>
       <use xlink:href="#CMMI12-3a" transform="translate(45.690477 0) scale(0.996264)"/>
       <use xlink:href="#CMR17-32" transform="translate(72.787654 0) scale(0.996264)"/>
      </g>
     </g>
    </g>
    <g id="xtick_3">
     <g id="line2d_3">
      <g>
       <use xlink:href="#m73ab86e89a" x="183.724883" y="193.536948" style="stroke: #000000; stroke-width: 0.8"/>
      </g>
     </g>
     <g id="text_3">
      <!-- $\mathdefault{0.4}$ -->
      <g transform="translate(174.999592 210.222825) scale(0.14 -0.14)">
       <defs>
        <path id="CMR17-34" d="M 2150 4122 
C 2150 4256 2144 4256 2029 4256 
L 128 1254 
L 128 1088 
L 1779 1088 
L 1779 457 
C 1779 224 1766 160 1318 160 
L 1197 160 
L 1197 0 
C 1402 0 1747 0 1965 0 
C 2182 0 2528 0 2733 0 
L 2733 160 
L 2611 160 
C 2163 160 2150 224 2150 457 
L 2150 1088 
L 2803 1088 
L 2803 1254 
L 2150 1254 
L 2150 4122 
z
M 1798 3703 
L 1798 1254 
L 256 1254 
L 1798 3703 
z
" transform="scale(0.015625)"/>
       </defs>
       <use xlink:href="#CMR17-30" transform="scale(0.996264)"/>
       <use xlink:href="#CMMI12-3a" transform="translate(45.690477 0) scale(0.996264)"/>
       <use xlink:href="#CMR17-34" transform="translate(72.787654 0) scale(0.996264)"/>
      </g>
     </g>
    </g>
    <g id="xtick_4">
     <g id="line2d_4">
      <g>
       <use xlink:href="#m73ab86e89a" x="243.422754" y="193.536948" style="stroke: #000000; stroke-width: 0.8"/>
      </g>
     </g>
     <g id="text_4">
      <!-- $\mathdefault{0.6}$ -->
      <g transform="translate(234.697463 210.222825) scale(0.14 -0.14)">
       <defs>
        <path id="CMR17-36" d="M 678 2176 
C 678 3690 1395 4032 1811 4032 
C 1946 4032 2272 4009 2400 3776 
C 2298 3776 2106 3776 2106 3553 
C 2106 3381 2246 3323 2336 3323 
C 2394 3323 2566 3348 2566 3560 
C 2566 3954 2246 4179 1805 4179 
C 1043 4179 243 3390 243 1984 
C 243 253 966 -128 1478 -128 
C 2099 -128 2688 427 2688 1283 
C 2688 2081 2170 2662 1517 2662 
C 1126 2662 838 2407 678 1960 
L 678 2176 
z
M 1478 25 
C 691 25 691 1200 691 1436 
C 691 1896 909 2560 1504 2560 
C 1613 2560 1926 2560 2138 2120 
C 2253 1870 2253 1609 2253 1289 
C 2253 944 2253 690 2118 434 
C 1978 171 1773 25 1478 25 
z
" transform="scale(0.015625)"/>
       </defs>
       <use xlink:href="#CMR17-30" transform="scale(0.996264)"/>
       <use xlink:href="#CMMI12-3a" transform="translate(45.690477 0) scale(0.996264)"/>
       <use xlink:href="#CMR17-36" transform="translate(72.787654 0) scale(0.996264)"/>
      </g>
     </g>
    </g>
    <g id="xtick_5">
     <g id="line2d_5">
      <g>
       <use xlink:href="#m73ab86e89a" x="303.120625" y="193.536948" style="stroke: #000000; stroke-width: 0.8"/>
      </g>
     </g>
     <g id="text_5">
      <!-- $\mathdefault{0.8}$ -->
      <g transform="translate(294.395334 210.222825) scale(0.14 -0.14)">
       <defs>
        <path id="CMR17-38" d="M 1741 2264 
C 2144 2467 2554 2773 2554 3263 
C 2554 3841 1990 4179 1472 4179 
C 890 4179 378 3759 378 3180 
C 378 3021 416 2747 666 2505 
C 730 2442 998 2251 1171 2130 
C 883 1983 211 1634 211 934 
C 211 279 838 -128 1459 -128 
C 2144 -128 2720 362 2720 1010 
C 2720 1590 2330 1857 2074 2029 
L 1741 2264 
z
M 902 2822 
C 851 2854 595 3051 595 3351 
C 595 3739 998 4032 1459 4032 
C 1965 4032 2336 3676 2336 3262 
C 2336 2669 1670 2331 1638 2331 
C 1632 2331 1626 2331 1574 2370 
L 902 2822 
z
M 2080 1519 
C 2176 1449 2483 1240 2483 851 
C 2483 381 2010 25 1472 25 
C 890 25 448 438 448 940 
C 448 1443 838 1862 1280 2060 
L 2080 1519 
z
" transform="scale(0.015625)"/>
       </defs>
       <use xlink:href="#CMR17-30" transform="scale(0.996264)"/>
       <use xlink:href="#CMMI12-3a" transform="translate(45.690477 0) scale(0.996264)"/>
       <use xlink:href="#CMR17-38" transform="translate(72.787654 0) scale(0.996264)"/>
      </g>
     </g>
    </g>
    <g id="xtick_6">
     <g id="line2d_6">
      <g>
       <use xlink:href="#m73ab86e89a" x="362.818496" y="193.536948" style="stroke: #000000; stroke-width: 0.8"/>
      </g>
     </g>
     <g id="text_6">
      <!-- $\mathdefault{1.0}$ -->
      <g transform="translate(354.093205 210.222825) scale(0.14 -0.14)">
       <defs>
        <path id="CMR17-31" d="M 1702 4058 
C 1702 4192 1696 4192 1606 4192 
C 1357 3916 979 3827 621 3827 
C 602 3827 570 3827 563 3808 
C 557 3795 557 3782 557 3648 
C 755 3648 1088 3686 1344 3839 
L 1344 461 
C 1344 236 1331 160 781 160 
L 589 160 
L 589 0 
C 896 0 1216 0 1523 0 
C 1830 0 2150 0 2458 0 
L 2458 160 
L 2266 160 
C 1715 160 1702 230 1702 458 
L 1702 4058 
z
" transform="scale(0.015625)"/>
       </defs>
       <use xlink:href="#CMR17-31" transform="scale(0.996264)"/>
       <use xlink:href="#CMMI12-3a" transform="translate(45.690477 0) scale(0.996264)"/>
       <use xlink:href="#CMR17-30" transform="translate(72.787654 0) scale(0.996264)"/>
      </g>
     </g>
    </g>
    <g id="text_7">
     <!-- t -->
     <g transform="translate(210.918295 226.620729) scale(0.14 -0.14)">
      <defs>
       <path id="CMR17-74" d="M 966 2560 
L 1862 2560 
L 1862 2725 
L 966 2725 
L 966 3904 
L 851 3904 
C 838 3245 614 2668 70 2668 
L 70 2560 
L 627 2560 
L 627 771 
C 627 650 627 -64 1370 -64 
C 1747 -64 1965 306 1965 777 
L 1965 1140 
L 1850 1140 
L 1850 783 
C 1850 344 1677 51 1408 51 
C 1222 51 966 178 966 758 
L 966 2560 
z
" transform="scale(0.015625)"/>
      </defs>
      <use xlink:href="#CMR17-74" transform="scale(0.996264)"/>
     </g>
    </g>
   </g>
   <g id="matplotlib.axis_2">
    <g id="ytick_1">
     <g id="line2d_7">
      <defs>
       <path id="m5ba70eeb3a" d="M 0 0 
L -3.5 0 
" style="stroke: #000000; stroke-width: 0.8"/>
      </defs>
      <g>
       <use xlink:href="#m5ba70eeb3a" x="49.404673" y="173.612092" style="stroke: #000000; stroke-width: 0.8"/>
      </g>
     </g>
     <g id="text_8">
      <!-- $\mathdefault{0}$ -->
      <g transform="translate(35.576185 178.45503) scale(0.14 -0.14)">
       <use xlink:href="#CMR17-30" transform="scale(0.996264)"/>
      </g>
     </g>
    </g>
    <g id="ytick_2">
     <g id="line2d_8">
      <g>
       <use xlink:href="#m5ba70eeb3a" x="49.404673" y="134.105156" style="stroke: #000000; stroke-width: 0.8"/>
      </g>
     </g>
     <g id="text_9">
      <!-- $\mathdefault{10}$ -->
      <g transform="translate(28.747696 138.948094) scale(0.14 -0.14)">
       <use xlink:href="#CMR17-31" transform="scale(0.996264)"/>
       <use xlink:href="#CMR17-30" transform="translate(45.690477 0) scale(0.996264)"/>
      </g>
     </g>
    </g>
    <g id="ytick_3">
     <g id="line2d_9">
      <g>
       <use xlink:href="#m5ba70eeb3a" x="49.404673" y="94.598219" style="stroke: #000000; stroke-width: 0.8"/>
      </g>
     </g>
     <g id="text_10">
      <!-- $\mathdefault{20}$ -->
      <g transform="translate(28.747696 99.441157) scale(0.14 -0.14)">
       <use xlink:href="#CMR17-32" transform="scale(0.996264)"/>
       <use xlink:href="#CMR17-30" transform="translate(45.690477 0) scale(0.996264)"/>
      </g>
     </g>
    </g>
    <g id="ytick_4">
     <g id="line2d_10">
      <g>
       <use xlink:href="#m5ba70eeb3a" x="49.404673" y="55.091282" style="stroke: #000000; stroke-width: 0.8"/>
      </g>
     </g>
     <g id="text_11">
      <!-- $\mathdefault{30}$ -->
      <g transform="translate(28.747696 59.934221) scale(0.14 -0.14)">
       <defs>
        <path id="CMR17-33" d="M 1414 2157 
C 1984 2157 2234 1662 2234 1090 
C 2234 320 1824 25 1453 25 
C 1114 25 563 194 390 693 
C 422 680 454 680 486 680 
C 640 680 755 782 755 948 
C 755 1133 614 1216 486 1216 
C 378 1216 211 1165 211 926 
C 211 335 787 -128 1466 -128 
C 2176 -128 2720 430 2720 1085 
C 2720 1707 2208 2157 1600 2227 
C 2086 2328 2554 2756 2554 3329 
C 2554 3820 2048 4179 1472 4179 
C 890 4179 378 3829 378 3329 
C 378 3110 544 3072 627 3072 
C 762 3072 877 3155 877 3321 
C 877 3486 762 3569 627 3569 
C 602 3569 570 3569 544 3557 
C 730 3959 1235 4032 1459 4032 
C 1683 4032 2106 3925 2106 3320 
C 2106 3143 2080 2828 1862 2550 
C 1670 2304 1453 2304 1242 2284 
C 1210 2284 1062 2269 1037 2269 
C 992 2263 966 2257 966 2208 
C 966 2163 973 2157 1101 2157 
L 1414 2157 
z
" transform="scale(0.015625)"/>
       </defs>
       <use xlink:href="#CMR17-33" transform="scale(0.996264)"/>
       <use xlink:href="#CMR17-30" transform="translate(45.690477 0) scale(0.996264)"/>
      </g>
     </g>
    </g>
    <g id="ytick_5">
     <g id="line2d_11">
      <g>
       <use xlink:href="#m5ba70eeb3a" x="49.404673" y="15.584346" style="stroke: #000000; stroke-width: 0.8"/>
      </g>
     </g>
     <g id="text_12">
      <!-- $\mathdefault{40}$ -->
      <g transform="translate(28.747696 20.427284) scale(0.14 -0.14)">
       <use xlink:href="#CMR17-34" transform="scale(0.996264)"/>
       <use xlink:href="#CMR17-30" transform="translate(45.690477 0) scale(0.996264)"/>
      </g>
     </g>
    </g>
    <g id="text_13">
     <!-- $\phi(P, t)$ -->
     <g transform="translate(21.260772 122.907371) rotate(-90) scale(0.14 -0.14)">
      <defs>
       <path id="CMMI12-1e" d="M 2752 4390 
C 2752 4448 2707 4448 2688 4448 
C 2630 4448 2624 4435 2598 4326 
L 2253 2939 
C 2234 2856 2227 2849 2221 2843 
C 2214 2830 2170 2824 2157 2824 
C 1107 2734 301 1864 301 1057 
C 301 361 832 -64 1498 -64 
C 1446 -261 1402 -463 1350 -659 
C 1261 -995 1210 -1204 1210 -1229 
C 1210 -1241 1210 -1280 1274 -1280 
C 1293 -1280 1318 -1280 1331 -1254 
C 1344 -1241 1382 -1089 1408 -1008 
L 1645 -64 
C 2739 -64 3571 854 3571 1680 
C 3571 2343 3085 2816 2374 2816 
L 2752 4390 
z
M 2336 2701 
C 2758 2701 3181 2463 3181 1828 
C 3181 1097 2675 128 1677 50 
L 2336 2701 
z
M 1530 50 
C 1216 50 691 220 691 938 
C 691 1761 1274 2676 2195 2676 
L 1530 50 
z
" transform="scale(0.015625)"/>
       <path id="CMR17-28" d="M 1958 -1561 
C 1958 -1555 1958 -1542 1939 -1523 
C 1645 -1224 858 -407 858 1581 
C 858 3569 1632 4379 1946 4697 
C 1946 4704 1958 4717 1958 4736 
C 1958 4755 1939 4768 1914 4768 
C 1843 4768 1299 4296 986 3594 
C 666 2887 576 2199 576 1588 
C 576 1128 621 351 1005 -471 
C 1312 -1135 1837 -1600 1914 -1600 
C 1946 -1600 1958 -1587 1958 -1561 
z
" transform="scale(0.015625)"/>
       <path id="CMMI12-50" d="M 1894 2023 
L 2970 2023 
C 3853 2023 4736 2673 4736 3401 
C 4736 3898 4314 4352 3507 4352 
L 1530 4352 
C 1408 4352 1350 4352 1350 4231 
C 1350 4167 1408 4167 1504 4167 
C 1894 4167 1894 4116 1894 4046 
C 1894 4034 1894 3995 1869 3899 
L 1005 472 
C 947 249 934 185 486 185 
C 365 185 301 185 301 70 
C 301 0 358 0 397 0 
C 518 0 646 0 768 0 
L 1517 0 
C 1638 0 1773 0 1894 0 
C 1946 0 2016 0 2016 121 
C 2016 185 1958 185 1862 185 
C 1478 185 1472 230 1472 293 
C 1472 325 1478 369 1485 401 
L 1894 2023 
z
M 2355 3930 
C 2413 4167 2438 4167 2688 4167 
L 3322 4167 
C 3802 4167 4198 4013 4198 3535 
C 4198 3369 4115 2827 3821 2534 
C 3712 2419 3405 2176 2822 2176 
L 1920 2176 
L 2355 3930 
z
" transform="scale(0.015625)"/>
       <path id="CMMI12-3b" d="M 1248 -31 
C 1248 343 1126 619 864 619 
C 659 619 557 453 557 313 
C 557 172 653 0 870 0 
C 954 0 1024 26 1082 83 
C 1094 96 1101 96 1107 96 
C 1120 96 1120 5 1120 -27 
C 1120 -240 1082 -659 710 -1080 
C 640 -1157 640 -1170 640 -1183 
C 640 -1216 672 -1248 704 -1248 
C 755 -1248 1248 -771 1248 -31 
z
" transform="scale(0.015625)"/>
       <path id="CMMI12-74" d="M 1286 2566 
L 1875 2566 
C 1997 2566 2061 2566 2061 2681 
C 2061 2752 2022 2752 1894 2752 
L 1331 2752 
L 1568 3692 
C 1594 3781 1594 3794 1594 3840 
C 1594 3943 1510 4000 1427 4000 
C 1376 4000 1229 3981 1178 3775 
L 928 2752 
L 326 2752 
C 198 2752 141 2752 141 2630 
C 141 2566 186 2566 307 2566 
L 877 2566 
L 454 881 
C 403 658 384 594 384 511 
C 384 211 595 -64 954 -64 
C 1600 -64 1946 868 1946 912 
C 1946 951 1920 970 1882 970 
C 1869 970 1843 970 1830 944 
C 1824 938 1818 931 1773 829 
C 1638 511 1344 64 973 64 
C 781 64 768 224 768 364 
C 768 370 768 492 787 568 
L 1286 2566 
z
" transform="scale(0.015625)"/>
       <path id="CMR17-29" d="M 1683 1581 
C 1683 2040 1638 2817 1254 3639 
C 947 4303 422 4768 346 4768 
C 326 4768 301 4761 301 4729 
C 301 4717 307 4710 314 4697 
C 621 4378 1402 3568 1402 1584 
C 1402 -407 627 -1217 314 -1537 
C 307 -1549 301 -1556 301 -1568 
C 301 -1600 326 -1600 346 -1600 
C 416 -1600 960 -1128 1274 -426 
C 1594 281 1683 969 1683 1581 
z
" transform="scale(0.015625)"/>
      </defs>
      <use xlink:href="#CMMI12-1e" transform="scale(0.996264)"/>
      <use xlink:href="#CMR17-28" transform="translate(57.73418 0) scale(0.996264)"/>
      <use xlink:href="#CMMI12-50" transform="translate(93.014948 0) scale(0.996264)"/>
      <use xlink:href="#CMMI12-3b" transform="translate(158.601898 0) scale(0.996264)"/>
      <use xlink:href="#CMMI12-74" transform="translate(202.30348 0) scale(0.996264)"/>
      <use xlink:href="#CMR17-29" transform="translate(237.529811 0) scale(0.996264)"/>
     </g>
    </g>
   </g>
   <g id="line2d_12">
    <path d="M 64.329141 174.285243 
L 65.207063 173.446495 
L 66.084984 172.246539 
L 66.962906 170.678532 
L 67.840828 168.741827 
L 68.718749 166.382887 
L 69.596671 163.482133 
L 70.474593 159.886878 
L 71.352514 155.433049 
L 72.230307 149.938028 
L 73.108228 143.227729 
L 73.98615 135.15203 
L 74.864072 125.461973 
L 76.619785 101.052126 
L 78.375629 72.596767 
L 80.131472 44.235721 
L 81.009394 32.691731 
L 81.887315 25.112902 
L 82.765237 21.689984 
L 83.643159 22.701876 
L 84.520951 28.203902 
L 85.398872 37.441398 
L 87.154716 62.259412 
L 88.910429 87.533429 
L 90.666273 108.586655 
L 91.544194 116.746241 
L 92.422117 123.210705 
L 93.299909 128.254932 
L 94.17783 132.201003 
L 95.055753 135.254447 
L 95.933674 137.572155 
L 96.811595 139.32814 
L 97.689387 140.683026 
L 99.44562 142.678029 
L 103.835101 146.760217 
L 105.590942 148.786583 
L 108.224579 152.332949 
L 113.492109 159.742718 
L 116.125745 163.03282 
L 117.882102 164.955782 
L 119.637949 166.647037 
L 121.393791 168.11676 
L 123.149504 169.383255 
L 125.783269 170.949512 
L 128.416905 172.182527 
L 131.050541 173.152614 
L 133.684435 173.913788 
L 137.195994 174.666627 
L 140.707549 175.188192 
L 145.097031 175.627564 
L 151.242351 176.001625 
L 157.387671 176.15777 
L 166.166635 176.123346 
L 224.109324 175.391766 
L 256.591529 175.426105 
L 357.5511 175.641284 
L 362.818496 175.643938 
L 362.818496 175.643938 
" clip-path="url(#p64eefea571)" style="fill: none; stroke: #1f77b4; stroke-width: 3; stroke-linecap: square"/>
   </g>
   <g id="line2d_13">
    <path d="M 64.329141 174.302866 
L 65.207063 173.471215 
L 66.084984 172.278257 
L 66.962906 170.716047 
L 67.840828 168.784407 
L 68.718749 166.431437 
L 69.596671 163.53904 
L 70.474593 159.955161 
L 71.352514 155.516241 
L 72.230307 150.039942 
L 73.108228 143.350849 
L 73.98615 135.297135 
L 74.864072 125.628324 
L 76.619785 101.181583 
L 78.375629 72.398015 
L 80.131472 43.940984 
L 81.009394 32.511681 
L 81.887315 25.072708 
L 82.765237 21.748006 
L 83.643159 22.943248 
L 84.520951 28.853962 
L 85.398872 38.360153 
L 87.154716 62.967562 
L 88.910429 88.41343 
L 89.788352 99.572929 
L 90.666273 109.11428 
L 91.544194 116.970707 
L 92.422117 123.431193 
L 93.299909 128.509239 
L 94.17783 132.464506 
L 95.055753 135.507379 
L 95.933674 137.794697 
L 96.811595 139.510149 
L 97.689387 140.824838 
L 99.44562 142.759387 
L 103.835101 146.780649 
L 105.590942 148.789673 
L 108.224579 152.306391 
L 114.370027 160.814589 
L 117.004313 163.943934 
L 118.760026 165.748791 
L 120.515867 167.326417 
L 122.271585 168.691042 
L 124.90535 170.383678 
L 127.538981 171.717893 
L 130.172746 172.767949 
L 132.806511 173.594868 
L 136.318071 174.420762 
L 139.829625 174.995961 
L 144.219108 175.473199 
L 150.364428 175.877025 
L 156.509747 176.060117 
L 164.410913 176.059852 
L 181.969217 175.748633 
L 205.672715 175.411577 
L 230.254528 175.293982 
L 266.248408 175.373579 
L 355.795378 175.618347 
L 362.818496 175.625236 
L 362.818496 175.625236 
" clip-path="url(#p64eefea571)" style="fill: none; stroke: #1f77b4; stroke-width: 2; stroke-linecap: square"/>
   </g>
   <g id="line2d_14">
    <path d="M 64.329141 174.299886 
L 65.207063 173.466667 
L 66.084984 172.271873 
L 66.962906 170.707768 
L 67.840828 168.77408 
L 68.718749 166.418531 
L 69.596671 163.522491 
L 70.474593 159.933572 
L 71.352514 155.487819 
L 72.230307 150.002616 
L 73.108228 143.302941 
L 73.98615 135.237704 
L 74.864072 125.557299 
L 76.619785 101.123297 
L 78.375629 72.48966 
L 80.131472 44.073169 
L 81.009394 32.590682 
L 81.887315 25.089828 
L 82.765237 21.722627 
L 83.643159 22.839878 
L 84.520951 28.584859 
L 85.398872 37.98545 
L 87.154716 62.684248 
L 88.910429 88.055885 
L 89.788352 99.236626 
L 90.666273 108.904149 
L 91.544194 116.883053 
L 92.422117 123.343817 
L 93.299909 128.409343 
L 94.17783 132.363329 
L 95.055753 135.412486 
L 95.933674 137.713337 
L 96.811595 139.445639 
L 97.689387 140.776348 
L 99.44562 142.73387 
L 103.835101 146.77596 
L 105.590942 148.789174 
L 108.224579 152.310829 
L 114.370027 160.821727 
L 117.004313 163.94961 
L 118.760026 165.753113 
L 120.515867 167.329179 
L 122.271585 168.692062 
L 124.90535 170.381717 
L 127.538981 171.712546 
L 130.172746 172.758958 
L 132.806511 173.582319 
L 136.318071 174.404165 
L 139.829625 174.9759 
L 144.219108 175.448382 
L 150.364428 175.845203 
L 156.509747 176.023605 
L 164.410913 176.020393 
L 181.969217 175.707031 
L 205.672715 175.371188 
L 230.254528 175.257951 
L 266.248408 175.348851 
L 352.283703 175.611079 
L 362.818496 175.622732 
L 362.818496 175.622732 
" clip-path="url(#p64eefea571)" style="fill: none; stroke: #1f77b4; stroke-width: 2; stroke-linecap: square"/>
   </g>
   <g id="line2d_15">
    <path d="M 64.329141 174.30744 
L 65.207063 173.477461 
L 66.084984 172.285951 
L 66.962906 170.724658 
L 67.840828 168.793466 
L 68.718749 166.440798 
L 69.596671 163.548716 
L 70.474593 159.965082 
L 71.352514 155.526161 
L 72.230307 150.049393 
L 73.108228 143.359101 
L 73.98615 135.303389 
L 74.864072 125.631941 
L 76.619785 101.180355 
L 78.375629 72.402521 
L 80.131472 43.945882 
L 81.009394 32.513098 
L 81.887315 25.072572 
L 82.765237 21.749031 
L 83.643159 22.950799 
L 84.520951 28.881737 
L 85.398872 38.408108 
L 87.154716 63.009933 
L 88.910429 88.462824 
L 89.788352 99.614976 
L 90.666273 109.137707 
L 91.544194 116.97958 
L 92.422117 123.439787 
L 93.299909 128.519261 
L 94.17783 132.475516 
L 95.055753 135.519285 
L 95.933674 137.806964 
L 96.811595 139.522145 
L 97.689387 140.836081 
L 99.44562 142.768617 
L 103.835101 146.78524 
L 105.590942 148.790276 
L 108.224579 152.296099 
L 114.370027 160.772239 
L 117.004313 163.891616 
L 118.760026 165.690976 
L 120.515867 167.263327 
L 122.271585 168.622506 
L 124.90535 170.30633 
L 127.538981 171.631119 
L 130.172746 172.672068 
L 132.806511 173.49181 
L 136.318071 174.312374 
L 139.829625 174.883908 
L 144.219108 175.352044 
L 150.364428 175.738909 
L 157.387671 175.923086 
L 166.166635 175.88924 
L 223.231409 175.189006 
L 253.079978 175.236027 
L 362.818496 175.61803 
L 362.818496 175.61803 
" clip-path="url(#p64eefea571)" style="fill: none; stroke: #1f77b4; stroke-width: 2; stroke-linecap: square"/>
   </g>
   <g id="line2d_16">
    <path d="M 64.329141 174.301815 
L 65.207063 173.469935 
L 66.084984 172.276763 
L 66.962906 170.714325 
L 67.840828 168.782348 
L 68.718749 166.428798 
L 69.596671 163.535407 
L 70.474593 159.950005 
L 71.352514 155.508792 
L 72.230307 150.029347 
L 73.108228 143.336312 
L 73.98615 135.278229 
L 74.864072 125.605145 
L 76.619785 101.162948 
L 78.375629 72.423545 
L 80.131472 43.967342 
L 81.009394 32.523527 
L 81.887315 25.074366 
L 82.765237 21.746831 
L 83.643159 22.943399 
L 84.520951 28.86421 
L 85.398872 38.382292 
L 87.154716 62.981593 
L 88.910429 88.410853 
L 89.788352 99.559667 
L 90.666273 109.100113 
L 91.544194 116.962991 
L 92.422117 123.422229 
L 93.299909 128.498557 
L 94.17783 132.454288 
L 95.055753 135.499225 
L 95.933674 137.789727 
L 96.811595 139.508499 
L 97.689387 140.825836 
L 99.44562 142.76323 
L 103.835101 146.784123 
L 105.590942 148.790172 
L 108.224579 152.297902 
L 114.370027 160.779597 
L 117.004313 163.900617 
L 118.760026 165.700685 
L 120.515867 167.273482 
L 122.271585 168.63292 
L 124.90535 170.316783 
L 127.538981 171.6412 
L 130.172746 172.681297 
L 132.806511 173.499664 
L 136.318071 174.317783 
L 139.829625 174.886711 
L 144.219108 175.351663 
L 150.364428 175.733747 
L 157.387671 175.912746 
L 166.166635 175.874058 
L 221.475172 175.173894 
L 250.446342 175.211177 
L 362.818496 175.616492 
L 362.818496 175.616492 
" clip-path="url(#p64eefea571)" style="fill: none; stroke: #1f77b4; stroke-width: 2; stroke-linecap: square"/>
   </g>
   <g id="line2d_17">
    <path d="M 64.329141 174.29157 
L 65.207063 173.456052 
L 66.084984 172.259654 
L 66.962906 170.695018 
L 67.840828 168.761562 
L 68.718749 166.406469 
L 69.596671 163.510884 
L 70.474593 159.922565 
L 71.352514 155.477735 
L 72.230307 149.994037 
L 73.108228 143.296697 
L 73.98615 135.234705 
L 74.864072 125.558328 
L 76.619785 101.129989 
L 78.375629 72.471666 
L 80.131472 44.036155 
L 81.009394 32.565001 
L 81.887315 25.083453 
L 82.765237 21.733071 
L 83.643159 22.887321 
L 84.520951 28.721325 
L 85.398872 38.190879 
L 87.154716 62.857373 
L 88.910429 88.286346 
L 89.788352 99.457736 
L 90.666273 109.044977 
L 91.544194 116.942981 
L 92.422117 123.404378 
L 93.299909 128.480092 
L 94.17783 132.43704 
L 95.055753 135.483865 
L 95.933674 137.776887 
L 96.811595 139.498296 
L 97.689387 140.817996 
L 99.44562 142.758648 
L 103.835101 146.782875 
L 105.590942 148.790035 
L 108.224579 152.299801 
L 114.370027 160.785286 
L 117.004313 163.907318 
L 118.760026 165.708023 
L 120.515867 167.281562 
L 122.271585 168.641854 
L 124.90535 170.327281 
L 127.538981 171.653524 
L 130.172746 172.695567 
L 132.806511 173.515683 
L 136.318071 174.335496 
L 139.829625 174.90571 
L 144.219108 175.372805 
L 150.364428 175.758325 
L 156.509747 175.929173 
L 164.410913 175.921592 
L 182.84714 175.588486 
L 205.672715 175.273022 
L 229.376596 175.173116 
L 262.736857 175.27902 
L 344.382652 175.595727 
L 362.818496 175.620398 
L 362.818496 175.620398 
" clip-path="url(#p64eefea571)" style="fill: none; stroke: #1f77b4; stroke-width: 2; stroke-linecap: square"/>
   </g>
   <g id="line2d_18">
    <path d="M 64.329141 110.509849 
L 68.718749 110.589159 
L 71.352514 110.816169 
L 73.108228 111.124312 
L 74.864072 111.648998 
L 76.619785 112.519361 
L 77.497707 113.141521 
L 78.375629 113.927247 
L 79.25355 114.90974 
L 80.131472 116.122611 
L 81.009394 117.595486 
L 81.887315 119.34779 
L 83.643159 123.675225 
L 85.398872 128.830994 
L 88.032508 136.822625 
L 89.788352 141.544615 
L 91.544194 145.551539 
L 93.299909 148.940118 
L 95.933674 153.289767 
L 100.323541 159.833638 
L 105.590942 167.371032 
L 108.224579 170.810541 
L 110.858344 173.847305 
L 112.614185 175.605018 
L 114.370027 177.137771 
L 116.125745 178.448018 
L 117.882102 179.547037 
L 119.637949 180.45023 
L 121.393791 181.176818 
L 124.027427 181.978872 
L 126.661063 182.492336 
L 129.294828 182.774444 
L 132.806511 182.872443 
L 136.318071 182.734363 
L 140.707549 182.332019 
L 146.852868 181.504283 
L 156.509747 179.927043 
L 174.946107 176.903327 
L 187.236747 175.13107 
L 201.283108 173.33844 
L 220.597257 171.124738 
L 303.120593 161.914481 
L 339.993046 157.785295 
L 361.940582 155.545374 
L 362.818496 155.460837 
L 362.818496 155.460837 
" clip-path="url(#p64eefea571)" style="fill: none; stroke-dasharray: 3,4.95; stroke-dashoffset: 0; stroke: #d62728; stroke-width: 3"/>
   </g>
   <g id="line2d_19">
    <path d="M 64.329141 108.799054 
L 69.596671 109.7703 
L 73.108228 110.643881 
L 74.864072 111.243694 
L 76.619785 112.042087 
L 78.375629 113.149324 
L 80.131472 114.708999 
L 81.887315 116.86033 
L 83.643159 119.644943 
L 86.276795 124.611764 
L 88.910429 129.500235 
L 90.666273 132.306151 
L 92.422117 134.716623 
L 95.055753 137.80366 
L 99.44562 142.36453 
L 105.590942 148.4791 
L 109.102631 151.662391 
L 111.736262 153.765121 
L 114.370027 155.582211 
L 117.004313 157.113159 
L 119.637949 158.380484 
L 122.271585 159.419671 
L 125.783269 160.515979 
L 129.294828 161.356782 
L 133.684435 162.150163 
L 138.951702 162.850204 
L 145.974954 163.536714 
L 159.143383 164.53588 
L 179.335589 166.108999 
L 196.015711 167.645442 
L 218.841286 169.991619 
L 362.818496 185.346218 
L 362.818496 185.346218 
" clip-path="url(#p64eefea571)" style="fill: none; stroke-dasharray: 11.1,4.8; stroke-dashoffset: 0; stroke: #d62728; stroke-width: 3"/>
   </g>
   <g id="line2d_20">
    <path d="M 64.329141 105.573607 
L 73.108228 105.869068 
L 75.741864 106.105399 
L 77.497707 106.389851 
L 79.25355 106.873787 
L 81.009394 107.70789 
L 81.887315 108.321403 
L 82.765237 109.103776 
L 83.643159 110.077825 
L 84.520951 111.254153 
L 86.276795 114.167787 
L 88.910429 119.350092 
L 91.544194 124.463509 
L 94.17783 129.074642 
L 101.201462 140.956756 
L 106.468866 150.720996 
L 109.980549 157.027936 
L 112.614185 161.275982 
L 114.370027 163.79682 
L 116.125745 166.045595 
L 117.882102 168.020949 
L 119.637949 169.730866 
L 121.393791 171.192905 
L 123.149504 172.428489 
L 124.90535 173.461152 
L 127.538981 174.680413 
L 130.172746 175.569502 
L 132.806511 176.193249 
L 135.440148 176.606607 
L 138.951702 176.907692 
L 143.341185 176.998104 
L 148.608715 176.844026 
L 156.509747 176.356941 
L 174.946107 175.167343 
L 185.480776 174.741551 
L 197.771424 174.484092 
L 214.451804 174.393395 
L 255.713614 174.266055 
L 275.027888 173.922272 
L 295.21956 173.334714 
L 325.068379 172.212001 
L 355.795378 171.113904 
L 362.818496 170.917696 
L 362.818496 170.917696 
" clip-path="url(#p64eefea571)" style="fill: none; stroke-dasharray: 19.2,4.8,3,4.8; stroke-dashoffset: 0; stroke: #d62728; stroke-width: 3"/>
   </g>
   <g id="line2d_21">
    <path d="M 64.329141 174.297334 
L 65.224609 173.44281 
L 66.120077 172.211326 
L 67.015545 170.595868 
L 67.911013 168.594443 
L 68.806481 166.145863 
L 69.701949 163.118788 
L 70.597418 159.349204 
L 71.492886 154.659826 
L 72.388354 148.853045 
L 73.283822 141.751159 
L 74.17929 133.182633 
L 75.074757 122.859482 
L 76.268715 106.296503 
L 78.059651 78.07233 
L 80.149077 44.236023 
L 81.044546 32.511877 
L 81.641523 26.972611 
L 82.238502 23.147426 
L 82.536992 22.049495 
L 82.835481 21.546631 
L 83.133971 21.531606 
L 83.432461 21.890439 
L 83.730949 22.621112 
L 84.029438 23.833068 
L 84.626418 28.089606 
L 85.521886 37.347718 
L 86.417354 49.710432 
L 88.506779 80.786224 
L 89.999227 100.200978 
L 91.193184 113.331559 
L 92.088652 120.690639 
L 92.984119 126.321082 
L 93.879587 130.701223 
L 94.775055 134.118365 
L 95.670522 136.734921 
L 96.565992 138.71994 
L 97.46146 140.240245 
L 98.655418 141.785305 
L 100.147863 143.286863 
L 104.028226 146.953883 
L 105.819161 149.072354 
L 108.207076 152.323675 
L 114.475352 161.065909 
L 116.863267 163.913992 
L 118.952693 166.060227 
L 121.042118 167.885415 
L 123.131543 169.417292 
L 125.220968 170.691546 
L 127.608884 171.880682 
L 130.295289 172.942125 
L 132.981694 173.771049 
L 135.966585 174.47227 
L 139.54846 175.072173 
L 144.025796 175.568518 
L 149.697101 175.958724 
L 155.965376 176.165244 
L 163.726098 176.176637 
L 178.65056 175.912619 
L 204.022158 175.516404 
L 228.199804 175.379213 
L 263.42154 175.42977 
L 362.221525 175.635182 
L 362.520011 175.635384 
L 362.520011 175.635384 
" clip-path="url(#p64eefea571)" style="fill: none; stroke-dasharray: 11.1,4.8; stroke-dashoffset: 0; stroke: #ff7f0e; stroke-width: 3"/>
   </g>
   <g id="line2d_22">
    <path d="M 64.329141 97.272209 
L 69.104971 97.971441 
L 71.791375 98.555255 
L 73.880801 99.218942 
L 75.373247 99.887009 
L 76.865694 100.80888 
L 78.059651 101.797423 
L 79.253609 103.08178 
L 80.447567 104.73493 
L 81.641523 106.825033 
L 82.835481 109.375328 
L 84.327928 113.159441 
L 86.715844 120.045322 
L 89.103757 126.694465 
L 90.894694 130.995165 
L 92.68563 134.612472 
L 94.775055 138.252369 
L 97.46146 142.442381 
L 103.431246 151.225465 
L 107.013121 156.211147 
L 109.699522 159.583963 
L 112.087437 162.219972 
L 114.176862 164.218343 
L 116.266287 165.927485 
L 118.355713 167.363238 
L 120.445138 168.551888 
L 122.833053 169.646823 
L 125.220968 170.504065 
L 127.907374 171.2361 
L 130.892269 171.820203 
L 134.474139 172.278782 
L 138.65299 172.576071 
L 144.025796 172.720072 
L 151.189546 172.677952 
L 184.62035 172.18602 
L 198.649347 172.368868 
L 216.260224 172.837343 
L 244.318218 173.83955 
L 358.938131 178.294238 
L 362.520011 178.447644 
L 362.520011 178.447644 
" clip-path="url(#p64eefea571)" style="fill: none; stroke-dasharray: 19.2,4.8,3,4.8; stroke-dashoffset: 0; stroke: #8c564b; stroke-width: 3"/>
   </g>
   <g id="patch_3">
    <path d="M 49.404673 193.536948 
L 49.404673 13.340875 
" style="fill: none; stroke: #000000; stroke-width: 0.8; stroke-linejoin: miter; stroke-linecap: square"/>
   </g>
   <g id="patch_4">
    <path d="M 377.742964 193.536948 
L 377.742964 13.340875 
" style="fill: none; stroke: #000000; stroke-width: 0.8; stroke-linejoin: miter; stroke-linecap: square"/>
   </g>
   <g id="patch_5">
    <path d="M 49.404673 193.536948 
L 377.742964 193.536948 
" style="fill: none; stroke: #000000; stroke-width: 0.8; stroke-linejoin: miter; stroke-linecap: square"/>
   </g>
   <g id="patch_6">
    <path d="M 49.404673 13.340875 
L 377.742964 13.340875 
" style="fill: none; stroke: #000000; stroke-width: 0.8; stroke-linejoin: miter; stroke-linecap: square"/>
   </g>
   <g id="legend_1">
    <g id="line2d_23">
     <path d="M 210.286127 34.407362 
L 224.286127 34.407362 
L 238.286127 34.407362 
" style="fill: none; stroke: #1f77b4; stroke-width: 3; stroke-linecap: square"/>
    </g>
    <g id="text_14">
     <!-- $\hat{\phi}$ -->
     <g transform="translate(249.486127 39.307362) scale(0.14 -0.14)">
      <defs>
       <path id="CMR17-5e" d="M 1466 4421 
L 678 3555 
L 755 3478 
L 1466 4166 
L 2176 3478 
L 2253 3555 
L 1466 4421 
z
" transform="scale(0.015625)"/>
      </defs>
      <use xlink:href="#CMR17-5e" transform="translate(14.151005 26.296621) scale(0.996264)"/>
      <use xlink:href="#CMMI12-1e" transform="scale(0.996264)"/>
     </g>
    </g>
    <g id="line2d_24">
     <path d="M 210.286127 53.91939 
L 224.286127 53.91939 
L 238.286127 53.91939 
" style="fill: none; stroke-dasharray: 3,4.95; stroke-dashoffset: 0; stroke: #d62728; stroke-width: 3"/>
    </g>
    <g id="text_15">
     <!-- $\phi^s_1$ -->
     <g transform="translate(249.486127 58.81939) scale(0.14 -0.14)">
      <defs>
       <path id="CMMI12-73" d="M 1459 1280 
C 1568 1261 1741 1223 1779 1216 
C 1862 1192 2150 1090 2150 783 
C 2150 586 1971 70 1229 70 
C 1094 70 614 70 486 436 
C 742 404 870 603 870 745 
C 870 880 781 950 653 950 
C 512 950 326 841 326 552 
C 326 173 710 -64 1222 -64 
C 2195 -64 2483 651 2483 984 
C 2483 1079 2483 1258 2278 1462 
C 2118 1616 1965 1648 1619 1718 
C 1446 1756 1171 1814 1171 2101 
C 1171 2229 1286 2689 1894 2689 
C 2163 2689 2426 2589 2490 2368 
C 2208 2368 2195 2125 2195 2119 
C 2195 1984 2317 1946 2374 1946 
C 2464 1946 2643 2015 2643 2281 
C 2643 2545 2400 2816 1901 2816 
C 1062 2816 838 2160 838 1899 
C 838 1414 1312 1312 1459 1280 
z
" transform="scale(0.015625)"/>
      </defs>
      <use xlink:href="#CMMI12-1e" transform="scale(0.996264)"/>
      <use xlink:href="#CMMI12-73" transform="translate(57.73418 36.153639) scale(0.697382)"/>
      <use xlink:href="#CMR17-31" transform="translate(57.73418 -24.740171) scale(0.697382)"/>
     </g>
    </g>
    <g id="line2d_25">
     <path d="M 210.286127 74.181368 
L 224.286127 74.181368 
L 238.286127 74.181368 
" style="fill: none; stroke-dasharray: 11.1,4.8; stroke-dashoffset: 0; stroke: #d62728; stroke-width: 3"/>
    </g>
    <g id="text_16">
     <!-- $\phi^s_{2}$ -->
     <g transform="translate(249.486127 79.081368) scale(0.14 -0.14)">
      <use xlink:href="#CMMI12-1e" transform="scale(0.996264)"/>
      <use xlink:href="#CMMI12-73" transform="translate(57.73418 36.153639) scale(0.697382)"/>
      <use xlink:href="#CMR17-32" transform="translate(57.73418 -24.740171) scale(0.697382)"/>
     </g>
    </g>
    <g id="line2d_26">
     <path d="M 290.586126 34.407362 
L 304.586126 34.407362 
L 318.586126 34.407362 
" style="fill: none; stroke-dasharray: 19.2,4.8,3,4.8; stroke-dashoffset: 0; stroke: #d62728; stroke-width: 3"/>
    </g>
    <g id="text_17">
     <!-- $\phi^s_{3}$ -->
     <g transform="translate(329.786126 39.307362) scale(0.14 -0.14)">
      <use xlink:href="#CMMI12-1e" transform="scale(0.996264)"/>
      <use xlink:href="#CMMI12-73" transform="translate(57.73418 36.153639) scale(0.697382)"/>
      <use xlink:href="#CMR17-33" transform="translate(57.73418 -24.740171) scale(0.697382)"/>
     </g>
    </g>
    <g id="line2d_27">
     <path d="M 290.586126 54.66934 
L 304.586126 54.66934 
L 318.586126 54.66934 
" style="fill: none; stroke-dasharray: 11.1,4.8; stroke-dashoffset: 0; stroke: #ff7f0e; stroke-width: 3"/>
    </g>
    <g id="text_18">
     <!-- $\phi^*$ -->
     <g transform="translate(329.786126 59.56934) scale(0.14 -0.14)">
      <defs>
       <path id="CMSY10-3" d="M 1760 2719 
C 1766 2808 1766 2962 1600 2962 
C 1498 2962 1414 2879 1434 2795 
L 1434 2712 
L 1523 1720 
L 704 2316 
C 646 2348 634 2360 589 2360 
C 499 2360 416 2271 416 2181 
C 416 2079 480 2053 544 2021 
L 1453 1586 
L 570 1158 
C 467 1107 416 1081 416 985 
C 416 889 499 806 589 806 
C 634 806 646 806 806 928 
L 1523 1446 
L 1427 371 
C 1427 236 1542 204 1594 204 
C 1670 204 1766 248 1766 371 
L 1670 1446 
L 2490 851 
C 2547 819 2560 806 2605 806 
C 2694 806 2778 896 2778 985 
C 2778 1081 2720 1113 2643 1152 
C 2259 1343 2246 1343 1741 1580 
L 2624 2008 
C 2726 2060 2778 2085 2778 2181 
C 2778 2277 2694 2360 2605 2360 
C 2560 2360 2547 2360 2387 2239 
L 1670 1720 
L 1760 2719 
z
" transform="scale(0.015625)"/>
      </defs>
      <use xlink:href="#CMMI12-1e" transform="scale(0.996264)"/>
      <use xlink:href="#CMSY10-3" transform="translate(57.73418 36.153639) scale(0.697382)"/>
     </g>
    </g>
    <g id="line2d_28">
     <path d="M 290.586126 74.181368 
L 304.586126 74.181368 
L 318.586126 74.181368 
" style="fill: none; stroke-dasharray: 19.2,4.8,3,4.8; stroke-dashoffset: 0; stroke: #8c564b; stroke-width: 3"/>
    </g>
    <g id="text_19">
     <!-- $ \phi^s_{s} \cdot dt$ -->
     <g transform="translate(329.786126 79.081368) scale(0.14 -0.14)">
      <defs>
       <path id="CMSY10-1" d="M 1229 1619 
C 1229 1805 1075 1958 890 1958 
C 704 1958 550 1805 550 1619 
C 550 1433 704 1280 890 1280 
C 1075 1280 1229 1433 1229 1619 
z
" transform="scale(0.015625)"/>
       <path id="CMMI12-64" d="M 3219 4257 
C 3226 4282 3238 4320 3238 4352 
C 3238 4416 3174 4416 3162 4416 
C 3155 4416 2842 4388 2810 4380 
C 2701 4373 2605 4358 2490 4358 
C 2330 4345 2285 4339 2285 4224 
C 2285 4160 2336 4160 2426 4160 
C 2739 4160 2746 4103 2746 4040 
C 2746 4002 2733 3952 2726 3933 
L 2336 2395 
C 2266 2561 2093 2816 1760 2816 
C 1037 2816 256 1884 256 939 
C 256 307 627 -64 1062 -64 
C 1414 -64 1715 211 1894 422 
C 1958 45 2259 -64 2451 -64 
C 2643 -64 2797 51 2912 281 
C 3014 498 3104 888 3104 913 
C 3104 945 3078 971 3040 971 
C 2982 971 2976 939 2950 843 
C 2854 466 2733 64 2470 64 
C 2285 64 2272 229 2272 357 
C 2272 382 2272 515 2317 694 
L 3219 4257 
z
M 1926 760 
C 1894 651 1894 639 1805 517 
C 1664 338 1382 64 1082 64 
C 819 64 672 300 672 677 
C 672 1028 870 1743 992 2012 
C 1210 2459 1510 2689 1760 2689 
C 2182 2689 2266 2165 2266 2114 
C 2266 2108 2246 2024 2240 2012 
L 1926 760 
z
" transform="scale(0.015625)"/>
      </defs>
      <use xlink:href="#CMMI12-1e" transform="scale(0.996264)"/>
      <use xlink:href="#CMMI12-73" transform="translate(57.73418 36.153639) scale(0.697382)"/>
      <use xlink:href="#CMMI12-73" transform="translate(57.73418 -24.62935) scale(0.697382)"/>
      <use xlink:href="#CMSY10-1" transform="translate(112.536408 0) scale(0.996264)"/>
      <use xlink:href="#CMMI12-64" transform="translate(162.3497 0) scale(0.996264)"/>
      <use xlink:href="#CMMI12-74" transform="translate(213.038797 0) scale(0.996264)"/>
     </g>
    </g>
   </g>
  </g>
 </g>
 <defs>
  <clipPath id="p64eefea571">
   <rect x="49.404673" y="13.340875" width="328.33829" height="180.196073"/>
  </clipPath>
 </defs>
</svg>
