<?xml version="1.0" encoding="utf-8" standalone="no"?>
<!DOCTYPE svg PUBLIC "-//W3C//DTD SVG 1.1//EN"
  "http://www.w3.org/Graphics/SVG/1.1/DTD/svg11.dtd">
<svg xmlns:xlink="http://www.w3.org/1999/xlink" width="388.542964pt" height="240.132758pt" viewBox="0 0 388.542964 240.132758" xmlns="http://www.w3.org/2000/svg" version="1.1">
 <metadata>
  <rdf:RDF xmlns:dc="http://purl.org/dc/elements/1.1/" xmlns:cc="http://creativecommons.org/ns#" xmlns:rdf="http://www.w3.org/1999/02/22-rdf-syntax-ns#">
   <cc:Work>
    <dc:type rdf:resource="http://purl.org/dc/dcmitype/StillImage"/>
    <dc:date>2024-12-29T12:19:03.810708</dc:date>
    <dc:format>image/svg+xml</dc:format>
    <dc:creator>
     <cc:Agent>
      <dc:title>Matplotlib v3.7.5, https://matplotlib.org/</dc:title>
     </cc:Agent>
    </dc:creator>
   </cc:Work>
  </rdf:RDF>
 </metadata>
 <defs>
  <style type="text/css">*{stroke-linejoin: round; stroke-linecap: butt}</style>
 </defs>
 <g id="figure_1">
  <g id="patch_1">
   <path d="M 0 240.132758 
L 388.542964 240.132758 
L 388.542964 0 
L 0 0 
z
" style="fill: #ffffff"/>
  </g>
  <g id="axes_1">
   <g id="patch_2">
    <path d="M 49.404673 193.536948 
L 377.742964 193.536948 
L 377.742964 13.922585 
L 49.404673 13.922585 
z
" style="fill: #ffffff"/>
   </g>
   <g id="matplotlib.axis_1">
    <g id="xtick_1">
     <g id="line2d_1">
      <defs>
       <path id="mdeadf72593" d="M 0 0 
L 0 3.5 
" style="stroke: #000000; stroke-width: 0.8"/>
      </defs>
      <g>
       <use xlink:href="#mdeadf72593" x="102.056551" y="193.536948" style="stroke: #000000; stroke-width: 0.8"/>
      </g>
     </g>
     <g id="text_1">
      <!-- $\mathdefault{0.2}$ -->
      <g transform="translate(93.33126 210.222825) scale(0.14 -0.14)">
       <defs>
        <path id="CMR17-30" d="M 2688 2025 
C 2688 2416 2682 3080 2413 3591 
C 2176 4039 1798 4198 1466 4198 
C 1158 4198 768 4058 525 3597 
C 269 3118 243 2524 243 2025 
C 243 1661 250 1106 448 619 
C 723 -39 1216 -128 1466 -128 
C 1760 -128 2208 -7 2470 600 
C 2662 1042 2688 1559 2688 2025 
z
M 1466 -26 
C 1056 -26 813 325 723 812 
C 653 1188 653 1738 653 2096 
C 653 2588 653 2997 736 3387 
C 858 3929 1216 4096 1466 4096 
C 1728 4096 2067 3923 2189 3400 
C 2272 3036 2278 2607 2278 2096 
C 2278 1680 2278 1169 2202 792 
C 2067 95 1690 -26 1466 -26 
z
" transform="scale(0.015625)"/>
        <path id="CMMI12-3a" d="M 1178 307 
C 1178 492 1024 619 870 619 
C 685 619 557 466 557 313 
C 557 128 710 0 864 0 
C 1050 0 1178 153 1178 307 
z
" transform="scale(0.015625)"/>
        <path id="CMR17-32" d="M 2669 989 
L 2554 989 
C 2490 536 2438 459 2413 420 
C 2381 369 1920 369 1830 369 
L 602 369 
C 832 619 1280 1072 1824 1597 
C 2214 1967 2669 2402 2669 3035 
C 2669 3790 2067 4224 1395 4224 
C 691 4224 262 3604 262 3030 
C 262 2780 448 2748 525 2748 
C 589 2748 781 2787 781 3010 
C 781 3207 614 3264 525 3264 
C 486 3264 448 3258 422 3245 
C 544 3790 915 4058 1306 4058 
C 1862 4058 2227 3617 2227 3035 
C 2227 2479 1901 2000 1536 1584 
L 262 146 
L 262 0 
L 2515 0 
L 2669 989 
z
" transform="scale(0.015625)"/>
       </defs>
       <use xlink:href="#CMR17-30" transform="scale(0.996264)"/>
       <use xlink:href="#CMMI12-3a" transform="translate(45.690477 0) scale(0.996264)"/>
       <use xlink:href="#CMR17-32" transform="translate(72.787654 0) scale(0.996264)"/>
      </g>
     </g>
    </g>
    <g id="xtick_2">
     <g id="line2d_2">
      <g>
       <use xlink:href="#mdeadf72593" x="173.543538" y="193.536948" style="stroke: #000000; stroke-width: 0.8"/>
      </g>
     </g>
     <g id="text_2">
      <!-- $\mathdefault{0.4}$ -->
      <g transform="translate(164.818247 210.222825) scale(0.14 -0.14)">
       <defs>
        <path id="CMR17-34" d="M 2150 4122 
C 2150 4256 2144 4256 2029 4256 
L 128 1254 
L 128 1088 
L 1779 1088 
L 1779 457 
C 1779 224 1766 160 1318 160 
L 1197 160 
L 1197 0 
C 1402 0 1747 0 1965 0 
C 2182 0 2528 0 2733 0 
L 2733 160 
L 2611 160 
C 2163 160 2150 224 2150 457 
L 2150 1088 
L 2803 1088 
L 2803 1254 
L 2150 1254 
L 2150 4122 
z
M 1798 3703 
L 1798 1254 
L 256 1254 
L 1798 3703 
z
" transform="scale(0.015625)"/>
       </defs>
       <use xlink:href="#CMR17-30" transform="scale(0.996264)"/>
       <use xlink:href="#CMMI12-3a" transform="translate(45.690477 0) scale(0.996264)"/>
       <use xlink:href="#CMR17-34" transform="translate(72.787654 0) scale(0.996264)"/>
      </g>
     </g>
    </g>
    <g id="xtick_3">
     <g id="line2d_3">
      <g>
       <use xlink:href="#mdeadf72593" x="245.030525" y="193.536948" style="stroke: #000000; stroke-width: 0.8"/>
      </g>
     </g>
     <g id="text_3">
      <!-- $\mathdefault{0.6}$ -->
      <g transform="translate(236.305234 210.222825) scale(0.14 -0.14)">
       <defs>
        <path id="CMR17-36" d="M 678 2176 
C 678 3690 1395 4032 1811 4032 
C 1946 4032 2272 4009 2400 3776 
C 2298 3776 2106 3776 2106 3553 
C 2106 3381 2246 3323 2336 3323 
C 2394 3323 2566 3348 2566 3560 
C 2566 3954 2246 4179 1805 4179 
C 1043 4179 243 3390 243 1984 
C 243 253 966 -128 1478 -128 
C 2099 -128 2688 427 2688 1283 
C 2688 2081 2170 2662 1517 2662 
C 1126 2662 838 2407 678 1960 
L 678 2176 
z
M 1478 25 
C 691 25 691 1200 691 1436 
C 691 1896 909 2560 1504 2560 
C 1613 2560 1926 2560 2138 2120 
C 2253 1870 2253 1609 2253 1289 
C 2253 944 2253 690 2118 434 
C 1978 171 1773 25 1478 25 
z
" transform="scale(0.015625)"/>
       </defs>
       <use xlink:href="#CMR17-30" transform="scale(0.996264)"/>
       <use xlink:href="#CMMI12-3a" transform="translate(45.690477 0) scale(0.996264)"/>
       <use xlink:href="#CMR17-36" transform="translate(72.787654 0) scale(0.996264)"/>
      </g>
     </g>
    </g>
    <g id="xtick_4">
     <g id="line2d_4">
      <g>
       <use xlink:href="#mdeadf72593" x="316.517512" y="193.536948" style="stroke: #000000; stroke-width: 0.8"/>
      </g>
     </g>
     <g id="text_4">
      <!-- $\mathdefault{0.8}$ -->
      <g transform="translate(307.792221 210.222825) scale(0.14 -0.14)">
       <defs>
        <path id="CMR17-38" d="M 1741 2264 
C 2144 2467 2554 2773 2554 3263 
C 2554 3841 1990 4179 1472 4179 
C 890 4179 378 3759 378 3180 
C 378 3021 416 2747 666 2505 
C 730 2442 998 2251 1171 2130 
C 883 1983 211 1634 211 934 
C 211 279 838 -128 1459 -128 
C 2144 -128 2720 362 2720 1010 
C 2720 1590 2330 1857 2074 2029 
L 1741 2264 
z
M 902 2822 
C 851 2854 595 3051 595 3351 
C 595 3739 998 4032 1459 4032 
C 1965 4032 2336 3676 2336 3262 
C 2336 2669 1670 2331 1638 2331 
C 1632 2331 1626 2331 1574 2370 
L 902 2822 
z
M 2080 1519 
C 2176 1449 2483 1240 2483 851 
C 2483 381 2010 25 1472 25 
C 890 25 448 438 448 940 
C 448 1443 838 1862 1280 2060 
L 2080 1519 
z
" transform="scale(0.015625)"/>
       </defs>
       <use xlink:href="#CMR17-30" transform="scale(0.996264)"/>
       <use xlink:href="#CMMI12-3a" transform="translate(45.690477 0) scale(0.996264)"/>
       <use xlink:href="#CMR17-38" transform="translate(72.787654 0) scale(0.996264)"/>
      </g>
     </g>
    </g>
    <g id="text_5">
     <!-- P -->
     <g transform="translate(208.927858 226.620729) scale(0.14 -0.14)">
      <defs>
       <path id="CMR17-50" d="M 1267 2042 
L 2291 2042 
C 3117 2042 3718 2578 3718 3184 
C 3718 3791 3130 4352 2291 4352 
L 333 4352 
L 333 4186 
C 774 4186 845 4186 845 3899 
L 845 446 
C 845 160 774 160 333 160 
L 333 0 
C 518 0 858 0 1056 0 
C 1254 0 1594 0 1779 0 
L 1779 160 
C 1338 160 1267 160 1267 446 
L 1267 2042 
z
M 1254 2176 
L 1254 3938 
C 1254 4155 1267 4186 1523 4186 
L 2170 4186 
C 2995 4186 3232 3714 3232 3184 
C 3232 2604 2950 2176 2170 2176 
L 1254 2176 
z
" transform="scale(0.015625)"/>
      </defs>
      <use xlink:href="#CMR17-50" transform="scale(0.996264)"/>
     </g>
    </g>
   </g>
   <g id="matplotlib.axis_2">
    <g id="ytick_1">
     <g id="line2d_5">
      <defs>
       <path id="mc03642d4fa" d="M 0 0 
L -3.5 0 
" style="stroke: #000000; stroke-width: 0.8"/>
      </defs>
      <g>
       <use xlink:href="#mc03642d4fa" x="49.404673" y="182.757066" style="stroke: #000000; stroke-width: 0.8"/>
      </g>
     </g>
     <g id="text_6">
      <!-- $\mathdefault{0}$ -->
      <g transform="translate(35.576185 187.600004) scale(0.14 -0.14)">
       <use xlink:href="#CMR17-30" transform="scale(0.996264)"/>
      </g>
     </g>
    </g>
    <g id="ytick_2">
     <g id="line2d_6">
      <g>
       <use xlink:href="#mc03642d4fa" x="49.404673" y="161.86165" style="stroke: #000000; stroke-width: 0.8"/>
      </g>
     </g>
     <g id="text_7">
      <!-- $\mathdefault{5}$ -->
      <g transform="translate(35.576185 166.704588) scale(0.14 -0.14)">
       <defs>
        <path id="CMR17-35" d="M 730 3692 
C 794 3666 1056 3584 1325 3584 
C 1920 3584 2246 3911 2432 4100 
C 2432 4157 2432 4192 2394 4192 
C 2387 4192 2374 4192 2323 4163 
C 2099 4058 1837 3973 1517 3973 
C 1325 3973 1037 3999 723 4139 
C 653 4171 640 4171 634 4171 
C 602 4171 595 4164 595 4037 
L 595 2203 
C 595 2089 595 2057 659 2057 
C 691 2057 704 2070 736 2114 
C 941 2401 1222 2522 1542 2522 
C 1766 2522 2246 2382 2246 1289 
C 2246 1085 2246 715 2054 421 
C 1894 159 1645 25 1370 25 
C 947 25 518 320 403 814 
C 429 807 480 795 506 795 
C 589 795 749 840 749 1038 
C 749 1210 627 1280 506 1280 
C 358 1280 262 1190 262 1011 
C 262 454 704 -128 1382 -128 
C 2042 -128 2669 440 2669 1264 
C 2669 2030 2170 2624 1549 2624 
C 1222 2624 947 2503 730 2274 
L 730 3692 
z
" transform="scale(0.015625)"/>
       </defs>
       <use xlink:href="#CMR17-35" transform="scale(0.996264)"/>
      </g>
     </g>
    </g>
    <g id="ytick_3">
     <g id="line2d_7">
      <g>
       <use xlink:href="#mc03642d4fa" x="49.404673" y="140.966234" style="stroke: #000000; stroke-width: 0.8"/>
      </g>
     </g>
     <g id="text_8">
      <!-- $\mathdefault{10}$ -->
      <g transform="translate(28.747696 145.809173) scale(0.14 -0.14)">
       <defs>
        <path id="CMR17-31" d="M 1702 4058 
C 1702 4192 1696 4192 1606 4192 
C 1357 3916 979 3827 621 3827 
C 602 3827 570 3827 563 3808 
C 557 3795 557 3782 557 3648 
C 755 3648 1088 3686 1344 3839 
L 1344 461 
C 1344 236 1331 160 781 160 
L 589 160 
L 589 0 
C 896 0 1216 0 1523 0 
C 1830 0 2150 0 2458 0 
L 2458 160 
L 2266 160 
C 1715 160 1702 230 1702 458 
L 1702 4058 
z
" transform="scale(0.015625)"/>
       </defs>
       <use xlink:href="#CMR17-31" transform="scale(0.996264)"/>
       <use xlink:href="#CMR17-30" transform="translate(45.690477 0) scale(0.996264)"/>
      </g>
     </g>
    </g>
    <g id="ytick_4">
     <g id="line2d_8">
      <g>
       <use xlink:href="#mc03642d4fa" x="49.404673" y="120.070818" style="stroke: #000000; stroke-width: 0.8"/>
      </g>
     </g>
     <g id="text_9">
      <!-- $\mathdefault{15}$ -->
      <g transform="translate(28.747696 124.913757) scale(0.14 -0.14)">
       <use xlink:href="#CMR17-31" transform="scale(0.996264)"/>
       <use xlink:href="#CMR17-35" transform="translate(45.690477 0) scale(0.996264)"/>
      </g>
     </g>
    </g>
    <g id="ytick_5">
     <g id="line2d_9">
      <g>
       <use xlink:href="#mc03642d4fa" x="49.404673" y="99.175403" style="stroke: #000000; stroke-width: 0.8"/>
      </g>
     </g>
     <g id="text_10">
      <!-- $\mathdefault{20}$ -->
      <g transform="translate(28.747696 104.018341) scale(0.14 -0.14)">
       <use xlink:href="#CMR17-32" transform="scale(0.996264)"/>
       <use xlink:href="#CMR17-30" transform="translate(45.690477 0) scale(0.996264)"/>
      </g>
     </g>
    </g>
    <g id="ytick_6">
     <g id="line2d_10">
      <g>
       <use xlink:href="#mc03642d4fa" x="49.404673" y="78.279987" style="stroke: #000000; stroke-width: 0.8"/>
      </g>
     </g>
     <g id="text_11">
      <!-- $\mathdefault{25}$ -->
      <g transform="translate(28.747696 83.122925) scale(0.14 -0.14)">
       <use xlink:href="#CMR17-32" transform="scale(0.996264)"/>
       <use xlink:href="#CMR17-35" transform="translate(45.690477 0) scale(0.996264)"/>
      </g>
     </g>
    </g>
    <g id="ytick_7">
     <g id="line2d_11">
      <g>
       <use xlink:href="#mc03642d4fa" x="49.404673" y="57.384571" style="stroke: #000000; stroke-width: 0.8"/>
      </g>
     </g>
     <g id="text_12">
      <!-- $\mathdefault{30}$ -->
      <g transform="translate(28.747696 62.227509) scale(0.14 -0.14)">
       <defs>
        <path id="CMR17-33" d="M 1414 2157 
C 1984 2157 2234 1662 2234 1090 
C 2234 320 1824 25 1453 25 
C 1114 25 563 194 390 693 
C 422 680 454 680 486 680 
C 640 680 755 782 755 948 
C 755 1133 614 1216 486 1216 
C 378 1216 211 1165 211 926 
C 211 335 787 -128 1466 -128 
C 2176 -128 2720 430 2720 1085 
C 2720 1707 2208 2157 1600 2227 
C 2086 2328 2554 2756 2554 3329 
C 2554 3820 2048 4179 1472 4179 
C 890 4179 378 3829 378 3329 
C 378 3110 544 3072 627 3072 
C 762 3072 877 3155 877 3321 
C 877 3486 762 3569 627 3569 
C 602 3569 570 3569 544 3557 
C 730 3959 1235 4032 1459 4032 
C 1683 4032 2106 3925 2106 3320 
C 2106 3143 2080 2828 1862 2550 
C 1670 2304 1453 2304 1242 2284 
C 1210 2284 1062 2269 1037 2269 
C 992 2263 966 2257 966 2208 
C 966 2163 973 2157 1101 2157 
L 1414 2157 
z
" transform="scale(0.015625)"/>
       </defs>
       <use xlink:href="#CMR17-33" transform="scale(0.996264)"/>
       <use xlink:href="#CMR17-30" transform="translate(45.690477 0) scale(0.996264)"/>
      </g>
     </g>
    </g>
    <g id="ytick_8">
     <g id="line2d_12">
      <g>
       <use xlink:href="#mc03642d4fa" x="49.404673" y="36.489155" style="stroke: #000000; stroke-width: 0.8"/>
      </g>
     </g>
     <g id="text_13">
      <!-- $\mathdefault{35}$ -->
      <g transform="translate(28.747696 41.332093) scale(0.14 -0.14)">
       <use xlink:href="#CMR17-33" transform="scale(0.996264)"/>
       <use xlink:href="#CMR17-35" transform="translate(45.690477 0) scale(0.996264)"/>
      </g>
     </g>
    </g>
    <g id="ytick_9">
     <g id="line2d_13">
      <g>
       <use xlink:href="#mc03642d4fa" x="49.404673" y="15.593739" style="stroke: #000000; stroke-width: 0.8"/>
      </g>
     </g>
     <g id="text_14">
      <!-- $\mathdefault{40}$ -->
      <g transform="translate(28.747696 20.436678) scale(0.14 -0.14)">
       <use xlink:href="#CMR17-34" transform="scale(0.996264)"/>
       <use xlink:href="#CMR17-30" transform="translate(45.690477 0) scale(0.996264)"/>
      </g>
     </g>
    </g>
    <g id="text_15">
     <!-- $\phi(P, S)$ -->
     <g transform="translate(21.260772 125.337991) rotate(-90) scale(0.14 -0.14)">
      <defs>
       <path id="CMMI12-1e" d="M 2752 4390 
C 2752 4448 2707 4448 2688 4448 
C 2630 4448 2624 4435 2598 4326 
L 2253 2939 
C 2234 2856 2227 2849 2221 2843 
C 2214 2830 2170 2824 2157 2824 
C 1107 2734 301 1864 301 1057 
C 301 361 832 -64 1498 -64 
C 1446 -261 1402 -463 1350 -659 
C 1261 -995 1210 -1204 1210 -1229 
C 1210 -1241 1210 -1280 1274 -1280 
C 1293 -1280 1318 -1280 1331 -1254 
C 1344 -1241 1382 -1089 1408 -1008 
L 1645 -64 
C 2739 -64 3571 854 3571 1680 
C 3571 2343 3085 2816 2374 2816 
L 2752 4390 
z
M 2336 2701 
C 2758 2701 3181 2463 3181 1828 
C 3181 1097 2675 128 1677 50 
L 2336 2701 
z
M 1530 50 
C 1216 50 691 220 691 938 
C 691 1761 1274 2676 2195 2676 
L 1530 50 
z
" transform="scale(0.015625)"/>
       <path id="CMR17-28" d="M 1958 -1561 
C 1958 -1555 1958 -1542 1939 -1523 
C 1645 -1224 858 -407 858 1581 
C 858 3569 1632 4379 1946 4697 
C 1946 4704 1958 4717 1958 4736 
C 1958 4755 1939 4768 1914 4768 
C 1843 4768 1299 4296 986 3594 
C 666 2887 576 2199 576 1588 
C 576 1128 621 351 1005 -471 
C 1312 -1135 1837 -1600 1914 -1600 
C 1946 -1600 1958 -1587 1958 -1561 
z
" transform="scale(0.015625)"/>
       <path id="CMMI12-50" d="M 1894 2023 
L 2970 2023 
C 3853 2023 4736 2673 4736 3401 
C 4736 3898 4314 4352 3507 4352 
L 1530 4352 
C 1408 4352 1350 4352 1350 4231 
C 1350 4167 1408 4167 1504 4167 
C 1894 4167 1894 4116 1894 4046 
C 1894 4034 1894 3995 1869 3899 
L 1005 472 
C 947 249 934 185 486 185 
C 365 185 301 185 301 70 
C 301 0 358 0 397 0 
C 518 0 646 0 768 0 
L 1517 0 
C 1638 0 1773 0 1894 0 
C 1946 0 2016 0 2016 121 
C 2016 185 1958 185 1862 185 
C 1478 185 1472 230 1472 293 
C 1472 325 1478 369 1485 401 
L 1894 2023 
z
M 2355 3930 
C 2413 4167 2438 4167 2688 4167 
L 3322 4167 
C 3802 4167 4198 4013 4198 3535 
C 4198 3369 4115 2827 3821 2534 
C 3712 2419 3405 2176 2822 2176 
L 1920 2176 
L 2355 3930 
z
" transform="scale(0.015625)"/>
       <path id="CMMI12-3b" d="M 1248 -31 
C 1248 343 1126 619 864 619 
C 659 619 557 453 557 313 
C 557 172 653 0 870 0 
C 954 0 1024 26 1082 83 
C 1094 96 1101 96 1107 96 
C 1120 96 1120 5 1120 -27 
C 1120 -240 1082 -659 710 -1080 
C 640 -1157 640 -1170 640 -1183 
C 640 -1216 672 -1248 704 -1248 
C 755 -1248 1248 -771 1248 -31 
z
" transform="scale(0.015625)"/>
       <path id="CMMI12-53" d="M 4064 4423 
C 4064 4480 4019 4480 4006 4480 
C 3981 4480 3974 4474 3898 4378 
C 3859 4333 3597 4001 3590 3995 
C 3379 4410 2957 4480 2688 4480 
C 1875 4480 1139 3743 1139 3025 
C 1139 2549 1427 2269 1741 2161 
C 1811 2135 2189 2033 2381 1989 
C 2707 1900 2790 1875 2925 1735 
C 2950 1703 3078 1557 3078 1258 
C 3078 667 2528 57 1888 57 
C 1363 57 781 280 781 991 
C 781 1112 806 1265 826 1328 
C 826 1348 832 1378 832 1391 
C 832 1417 819 1449 768 1449 
C 710 1449 704 1436 678 1328 
L 352 24 
C 352 18 326 -64 326 -71 
C 326 -128 378 -128 390 -128 
C 416 -128 422 -122 499 -26 
L 794 356 
C 947 126 1280 -128 1875 -128 
C 2701 -128 3456 666 3456 1460 
C 3456 1728 3392 1963 3149 2197 
C 3014 2331 2899 2363 2310 2516 
C 1882 2630 1824 2649 1709 2751 
C 1600 2858 1517 3011 1517 3227 
C 1517 3761 2061 4308 2669 4308 
C 3296 4308 3590 3926 3590 3323 
C 3590 3158 3558 2986 3558 2961 
C 3558 2903 3610 2903 3629 2903 
C 3686 2903 3693 2922 3718 3024 
L 4064 4423 
z
" transform="scale(0.015625)"/>
       <path id="CMR17-29" d="M 1683 1581 
C 1683 2040 1638 2817 1254 3639 
C 947 4303 422 4768 346 4768 
C 326 4768 301 4761 301 4729 
C 301 4717 307 4710 314 4697 
C 621 4378 1402 3568 1402 1584 
C 1402 -407 627 -1217 314 -1537 
C 307 -1549 301 -1556 301 -1568 
C 301 -1600 326 -1600 346 -1600 
C 416 -1600 960 -1128 1274 -426 
C 1594 281 1683 969 1683 1581 
z
" transform="scale(0.015625)"/>
      </defs>
      <use xlink:href="#CMMI12-1e" transform="scale(0.996264)"/>
      <use xlink:href="#CMR17-28" transform="translate(57.73418 0) scale(0.996264)"/>
      <use xlink:href="#CMMI12-50" transform="translate(93.014948 0) scale(0.996264)"/>
      <use xlink:href="#CMMI12-3b" transform="translate(158.601898 0) scale(0.996264)"/>
      <use xlink:href="#CMMI12-53" transform="translate(202.30348 0) scale(0.996264)"/>
      <use xlink:href="#CMR17-29" transform="translate(268.09792 0) scale(0.996264)"/>
     </g>
    </g>
   </g>
   <g id="line2d_14">
    <path d="M 64.50486 183.487774 
L 64.571904 179.693601 
L 65.046899 172.101691 
L 65.774077 163.615094 
L 67.062276 150.746421 
L 69.249824 131.999357 
L 70.836889 119.835539 
L 72.86666 106.139351 
L 75.445665 91.515453 
L 78.696919 75.691805 
L 82.755288 60.000396 
L 87.756458 45.589674 
L 93.819138 33.499643 
L 101.019526 25.630624 
L 109.362527 22.113721 
L 118.757739 23.37806 
L 129.008748 29.630471 
L 139.8344 39.686215 
L 150.89775 52.10182 
L 161.862544 65.716178 
L 182.422276 92.633071 
L 191.694437 104.437701 
L 200.223444 114.530637 
L 208.042608 122.841244 
L 215.228467 129.67521 
L 221.879202 135.046818 
L 228.101796 139.230739 
L 233.995657 142.44952 
L 239.649521 144.869068 
L 245.136972 146.683691 
L 250.514917 148.074381 
L 255.826796 149.184606 
L 266.349036 150.960825 
L 281.935721 153.441318 
L 292.068553 155.393325 
L 301.801621 157.684408 
L 310.953857 160.219682 
L 319.372208 162.855365 
L 326.944375 165.480035 
L 333.61373 168.011707 
L 339.368621 170.378765 
L 346.35938 173.515086 
L 351.562285 176.108016 
L 355.240066 178.195467 
L 357.660736 179.850605 
L 358.698471 180.753363 
L 359.351228 181.522868 
L 359.6757 182.179297 
L 359.721676 182.738847 
L 359.532297 183.213363 
L 359.144742 183.612485 
L 358.261233 184.089513 
L 357.093752 184.449926 
L 355.218015 184.803342 
L 351.975598 185.152934 
L 347.891343 185.346611 
L 342.599129 185.346331 
L 333.370983 185.070071 
L 317.223471 184.601965 
L 306.56733 184.538475 
L 287.679277 184.719781 
L 260.953557 184.883104 
L 259.655499 184.886589 
L 259.655499 184.886589 
" clip-path="url(#pd2ba4b758c)" style="fill: none; stroke: #1f77b4; stroke-width: 2; stroke-linecap: square"/>
   </g>
   <g id="line2d_15">
    <path d="M 64.458419 183.484621 
L 64.512985 179.684843 
L 64.965699 172.084185 
L 65.670554 163.585029 
L 66.928551 150.695744 
L 69.076129 131.924227 
L 70.638963 119.754646 
L 72.641463 106.077696 
L 75.190085 91.51908 
L 78.408047 75.788748 
L 82.430582 60.158054 
L 87.394212 45.7295 
L 93.41855 33.583211 
L 100.580972 25.648734 
L 108.887222 22.086874 
L 118.247622 23.268714 
L 128.465582 29.345812 
L 139.259192 39.289851 
L 150.290691 51.709281 
L 161.222974 65.416486 
L 190.955704 104.081956 
L 199.454597 114.308358 
L 207.247407 122.748522 
L 214.411833 129.582783 
L 221.047058 134.941147 
L 227.260513 139.123713 
L 233.151988 142.349142 
L 238.809984 144.783005 
L 244.308003 146.615451 
L 249.702438 148.023088 
L 255.036303 149.147198 
L 265.615576 150.941272 
L 281.307784 153.433841 
L 291.514287 155.390649 
L 301.317086 157.685855 
L 310.532172 160.224377 
L 319.005552 162.862142 
L 326.625932 165.487789 
L 333.339175 168.019512 
L 341.701409 171.489918 
L 348.139544 174.443759 
L 352.88316 176.85874 
L 356.202658 178.79033 
L 358.358638 180.315599 
L 359.582214 181.514646 
L 359.977056 182.168501 
L 360.093657 182.725572 
L 359.973796 183.197836 
L 359.654502 183.594929 
L 358.869591 184.069202 
L 357.795105 184.426812 
L 356.034606 184.775999 
L 352.945732 185.119273 
L 349.015767 185.307988 
L 343.892158 185.304591 
L 334.435988 185.008308 
L 319.516036 184.566314 
L 309.286886 184.500532 
L 292.400098 184.671457 
L 266.212898 184.868008 
L 261.205508 184.883941 
L 261.205508 184.883941 
" clip-path="url(#pd2ba4b758c)" style="fill: none; stroke: #1f77b4; stroke-width: 2; stroke-linecap: square"/>
   </g>
   <g id="line2d_16">
    <path d="M 64.576354 183.492612 
L 64.63319 179.70271 
L 65.094444 172.111926 
L 65.810231 163.625588 
L 67.08533 150.75515 
L 69.258676 132.003183 
L 70.838703 119.836281 
L 72.861911 106.138052 
L 75.435332 91.515629 
L 78.682761 75.696572 
L 82.739725 60.00796 
L 87.742934 45.594855 
L 93.811841 33.501142 
L 101.023004 25.63048 
L 109.380977 22.114805 
L 118.794186 23.386047 
L 129.0643 29.659852 
L 139.907454 39.736942 
L 150.984705 52.157696 
L 161.958191 65.760999 
L 182.519597 92.68532 
L 191.787464 104.482179 
L 200.311114 114.555418 
L 208.126208 122.85063 
L 215.310852 129.684301 
L 221.964783 135.057419 
L 228.196006 139.242385 
L 234.10461 142.462114 
L 239.779608 144.882044 
L 245.294862 146.69638 
L 250.707129 148.086274 
L 256.059764 149.195442 
L 266.681284 150.969587 
L 282.453214 153.447436 
L 292.72687 155.396417 
L 302.609115 157.681858 
L 311.915044 160.208796 
L 320.488663 162.834553 
L 328.216313 165.448973 
L 335.040639 167.971141 
L 343.570009 171.431142 
L 350.17006 174.378031 
L 355.065878 176.787125 
L 358.526243 178.712687 
L 360.812225 180.231585 
L 362.156152 181.424519 
L 362.626924 182.075039 
L 362.816131 182.629831 
L 362.766214 183.100967 
L 362.514413 183.497831 
L 361.827121 183.972116 
L 360.846462 184.328359 
L 359.205525 184.672597 
L 356.285512 185.006834 
L 352.536915 185.190851 
L 347.62139 185.18851 
L 338.493612 184.899308 
L 324.261868 184.480356 
L 314.333904 184.42198 
L 298.809386 184.598315 
L 273.110151 184.842966 
L 263.993814 184.878967 
L 263.993814 184.878967 
" clip-path="url(#pd2ba4b758c)" style="fill: none; stroke: #1f77b4; stroke-width: 2; stroke-linecap: square"/>
   </g>
   <g id="line2d_17">
    <path d="M 64.488514 183.486662 
L 64.559648 179.691779 
L 65.029134 172.097847 
L 65.746961 163.607215 
L 67.021685 150.731043 
L 69.193103 131.974838 
L 70.772069 119.80906 
L 72.794618 106.119639 
L 75.368078 91.516593 
L 78.616663 75.718811 
L 82.676258 60.038768 
L 87.683771 45.617556 
L 93.758494 33.512174 
L 100.976384 25.632377 
L 109.340737 22.112477 
L 118.758404 23.378219 
L 129.029264 29.641312 
L 139.868136 39.709634 
L 150.935576 52.126147 
L 161.894234 65.73102 
L 182.417216 92.630345 
L 191.665111 104.423672 
L 200.170619 114.515651 
L 207.970332 122.833082 
L 215.142992 129.665728 
L 221.788465 135.035519 
L 228.014723 139.219931 
L 233.921368 142.440895 
L 239.597111 144.863811 
L 245.115262 146.681945 
L 250.532067 148.075438 
L 255.890177 149.187559 
L 266.523629 150.965432 
L 282.308576 153.445726 
L 292.582999 155.395754 
L 302.457659 157.682352 
L 311.747524 160.210703 
L 320.298263 162.838116 
L 327.998343 165.454305 
L 334.793376 167.978172 
L 343.281862 171.440181 
L 349.850978 174.3883 
L 354.73054 176.79804 
L 358.190309 178.723785 
L 360.491204 180.242426 
L 361.863211 181.434647 
L 362.359016 182.084378 
L 362.577262 182.638138 
L 362.560197 183.108033 
L 362.344103 183.503552 
L 361.714504 183.975755 
L 360.79533 184.329978 
L 359.239974 184.671489 
L 356.451732 185.001374 
L 352.855528 185.18053 
L 348.124375 185.173341 
L 339.298144 184.878503 
L 325.687201 184.464738 
L 315.708765 184.402657 
L 300.342414 184.578968 
L 274.532437 184.836922 
L 264.870378 184.87734 
L 264.870378 184.87734 
" clip-path="url(#pd2ba4b758c)" style="fill: none; stroke: #1f77b4; stroke-width: 2; stroke-linecap: square"/>
   </g>
   <g id="line2d_18">
    <path d="M 64.329141 183.475824 
L 64.422299 179.671356 
L 64.908786 172.071907 
L 65.633859 163.574362 
L 66.911148 150.689138 
L 69.078646 131.925315 
L 70.652464 119.760162 
L 72.667319 106.084774 
L 75.230164 91.518522 
L 78.464984 75.769714 
L 82.507598 60.120662 
L 87.495128 45.690347 
L 93.547699 33.556046 
L 100.7425 25.64199 
L 109.084979 22.097922 
L 118.484116 23.318899 
L 128.74215 29.490166 
L 139.575568 39.507155 
L 150.645341 51.939124 
L 161.61381 65.599619 
L 182.171625 92.49864 
L 191.440335 104.315848 
L 199.966466 114.457328 
L 207.785002 122.811915 
L 214.973981 129.646845 
L 221.632663 135.015986 
L 227.868913 139.201685 
L 233.782461 142.424647 
L 239.462358 144.850228 
L 244.982108 146.671152 
L 250.398614 148.067144 
L 255.754849 149.181246 
L 266.381249 150.961673 
L 282.152859 153.443891 
L 292.419101 155.394979 
L 302.286944 157.682888 
L 311.571035 160.212712 
L 320.116171 162.841517 
L 327.809967 165.458914 
L 334.596626 167.98377 
L 343.066875 171.446926 
L 349.609872 174.396063 
L 354.454984 176.807019 
L 357.873294 178.734298 
L 360.126935 180.254796 
L 361.448087 181.449055 
L 361.908633 182.100126 
L 362.091385 182.655084 
L 362.03872 183.125976 
L 361.787536 183.52229 
L 361.106785 183.995515 
L 360.139249 184.35088 
L 358.525092 184.694408 
L 355.663668 185.027372 
L 352.007619 185.208097 
L 347.240695 185.200078 
L 338.45603 184.900287 
L 325.069426 184.477369 
L 315.479121 184.411287 
L 300.478509 184.574932 
L 273.609429 184.838022 
L 262.611154 184.881472 
L 262.611154 184.881472 
" clip-path="url(#pd2ba4b758c)" style="fill: none; stroke: #1f77b4; stroke-width: 2; stroke-linecap: square"/>
   </g>
   <g id="patch_3">
    <path d="M 49.404673 193.536948 
L 49.404673 13.922585 
" style="fill: none; stroke: #000000; stroke-width: 0.8; stroke-linejoin: miter; stroke-linecap: square"/>
   </g>
   <g id="patch_4">
    <path d="M 377.742964 193.536948 
L 377.742964 13.922585 
" style="fill: none; stroke: #000000; stroke-width: 0.8; stroke-linejoin: miter; stroke-linecap: square"/>
   </g>
   <g id="patch_5">
    <path d="M 49.404673 193.536948 
L 377.742964 193.536948 
" style="fill: none; stroke: #000000; stroke-width: 0.8; stroke-linejoin: miter; stroke-linecap: square"/>
   </g>
   <g id="patch_6">
    <path d="M 49.404673 13.922585 
L 377.742964 13.922585 
" style="fill: none; stroke: #000000; stroke-width: 0.8; stroke-linejoin: miter; stroke-linecap: square"/>
   </g>
   <g id="legend_1"/>
  </g>
 </g>
 <defs>
  <clipPath id="pd2ba4b758c">
   <rect x="49.404673" y="13.922585" width="328.33829" height="179.614363"/>
  </clipPath>
 </defs>
</svg>
