<?xml version="1.0" encoding="utf-8" standalone="no"?>
<!DOCTYPE svg PUBLIC "-//W3C//DTD SVG 1.1//EN"
  "http://www.w3.org/Graphics/SVG/1.1/DTD/svg11.dtd">
<svg xmlns:xlink="http://www.w3.org/1999/xlink" width="388.542964pt" height="240.132758pt" viewBox="0 0 388.542964 240.132758" xmlns="http://www.w3.org/2000/svg" version="1.1">
 <metadata>
  <rdf:RDF xmlns:dc="http://purl.org/dc/elements/1.1/" xmlns:cc="http://creativecommons.org/ns#" xmlns:rdf="http://www.w3.org/1999/02/22-rdf-syntax-ns#">
   <cc:Work>
    <dc:type rdf:resource="http://purl.org/dc/dcmitype/StillImage"/>
    <dc:date>2024-12-29T13:18:21.030299</dc:date>
    <dc:format>image/svg+xml</dc:format>
    <dc:creator>
     <cc:Agent>
      <dc:title>Matplotlib v3.7.5, https://matplotlib.org/</dc:title>
     </cc:Agent>
    </dc:creator>
   </cc:Work>
  </rdf:RDF>
 </metadata>
 <defs>
  <style type="text/css">*{stroke-linejoin: round; stroke-linecap: butt}</style>
 </defs>
 <g id="figure_1">
  <g id="patch_1">
   <path d="M 0 240.132758 
L 388.542964 240.132758 
L 388.542964 0 
L 0 0 
z
" style="fill: #ffffff"/>
  </g>
  <g id="axes_1">
   <g id="patch_2">
    <path d="M 51.648487 193.536948 
L 377.742964 193.536948 
L 377.742964 10.8 
L 51.648487 10.8 
z
" style="fill: #ffffff"/>
   </g>
   <g id="matplotlib.axis_1">
    <g id="xtick_1">
     <g id="line2d_1">
      <defs>
       <path id="m18515c7384" d="M 0 0 
L 0 3.5 
" style="stroke: #000000; stroke-width: 0.8"/>
      </defs>
      <g>
       <use xlink:href="#m18515c7384" x="66.470963" y="193.536948" style="stroke: #000000; stroke-width: 0.8"/>
      </g>
     </g>
     <g id="text_1">
      <!-- $\mathdefault{0.0}$ -->
      <g transform="translate(57.745672 210.222825) scale(0.14 -0.14)">
       <defs>
        <path id="CMR17-30" d="M 2688 2025 
C 2688 2416 2682 3080 2413 3591 
C 2176 4039 1798 4198 1466 4198 
C 1158 4198 768 4058 525 3597 
C 269 3118 243 2524 243 2025 
C 243 1661 250 1106 448 619 
C 723 -39 1216 -128 1466 -128 
C 1760 -128 2208 -7 2470 600 
C 2662 1042 2688 1559 2688 2025 
z
M 1466 -26 
C 1056 -26 813 325 723 812 
C 653 1188 653 1738 653 2096 
C 653 2588 653 2997 736 3387 
C 858 3929 1216 4096 1466 4096 
C 1728 4096 2067 3923 2189 3400 
C 2272 3036 2278 2607 2278 2096 
C 2278 1680 2278 1169 2202 792 
C 2067 95 1690 -26 1466 -26 
z
" transform="scale(0.015625)"/>
        <path id="CMMI12-3a" d="M 1178 307 
C 1178 492 1024 619 870 619 
C 685 619 557 466 557 313 
C 557 128 710 0 864 0 
C 1050 0 1178 153 1178 307 
z
" transform="scale(0.015625)"/>
       </defs>
       <use xlink:href="#CMR17-30" transform="scale(0.996264)"/>
       <use xlink:href="#CMMI12-3a" transform="translate(45.690477 0) scale(0.996264)"/>
       <use xlink:href="#CMR17-30" transform="translate(72.787654 0) scale(0.996264)"/>
      </g>
     </g>
    </g>
    <g id="xtick_2">
     <g id="line2d_2">
      <g>
       <use xlink:href="#m18515c7384" x="125.760868" y="193.536948" style="stroke: #000000; stroke-width: 0.8"/>
      </g>
     </g>
     <g id="text_2">
      <!-- $\mathdefault{0.2}$ -->
      <g transform="translate(117.035577 210.222825) scale(0.14 -0.14)">
       <defs>
        <path id="CMR17-32" d="M 2669 989 
L 2554 989 
C 2490 536 2438 459 2413 420 
C 2381 369 1920 369 1830 369 
L 602 369 
C 832 619 1280 1072 1824 1597 
C 2214 1967 2669 2402 2669 3035 
C 2669 3790 2067 4224 1395 4224 
C 691 4224 262 3604 262 3030 
C 262 2780 448 2748 525 2748 
C 589 2748 781 2787 781 3010 
C 781 3207 614 3264 525 3264 
C 486 3264 448 3258 422 3245 
C 544 3790 915 4058 1306 4058 
C 1862 4058 2227 3617 2227 3035 
C 2227 2479 1901 2000 1536 1584 
L 262 146 
L 262 0 
L 2515 0 
L 2669 989 
z
" transform="scale(0.015625)"/>
       </defs>
       <use xlink:href="#CMR17-30" transform="scale(0.996264)"/>
       <use xlink:href="#CMMI12-3a" transform="translate(45.690477 0) scale(0.996264)"/>
       <use xlink:href="#CMR17-32" transform="translate(72.787654 0) scale(0.996264)"/>
      </g>
     </g>
    </g>
    <g id="xtick_3">
     <g id="line2d_3">
      <g>
       <use xlink:href="#m18515c7384" x="185.050773" y="193.536948" style="stroke: #000000; stroke-width: 0.8"/>
      </g>
     </g>
     <g id="text_3">
      <!-- $\mathdefault{0.4}$ -->
      <g transform="translate(176.325482 210.222825) scale(0.14 -0.14)">
       <defs>
        <path id="CMR17-34" d="M 2150 4122 
C 2150 4256 2144 4256 2029 4256 
L 128 1254 
L 128 1088 
L 1779 1088 
L 1779 457 
C 1779 224 1766 160 1318 160 
L 1197 160 
L 1197 0 
C 1402 0 1747 0 1965 0 
C 2182 0 2528 0 2733 0 
L 2733 160 
L 2611 160 
C 2163 160 2150 224 2150 457 
L 2150 1088 
L 2803 1088 
L 2803 1254 
L 2150 1254 
L 2150 4122 
z
M 1798 3703 
L 1798 1254 
L 256 1254 
L 1798 3703 
z
" transform="scale(0.015625)"/>
       </defs>
       <use xlink:href="#CMR17-30" transform="scale(0.996264)"/>
       <use xlink:href="#CMMI12-3a" transform="translate(45.690477 0) scale(0.996264)"/>
       <use xlink:href="#CMR17-34" transform="translate(72.787654 0) scale(0.996264)"/>
      </g>
     </g>
    </g>
    <g id="xtick_4">
     <g id="line2d_4">
      <g>
       <use xlink:href="#m18515c7384" x="244.340678" y="193.536948" style="stroke: #000000; stroke-width: 0.8"/>
      </g>
     </g>
     <g id="text_4">
      <!-- $\mathdefault{0.6}$ -->
      <g transform="translate(235.615387 210.222825) scale(0.14 -0.14)">
       <defs>
        <path id="CMR17-36" d="M 678 2176 
C 678 3690 1395 4032 1811 4032 
C 1946 4032 2272 4009 2400 3776 
C 2298 3776 2106 3776 2106 3553 
C 2106 3381 2246 3323 2336 3323 
C 2394 3323 2566 3348 2566 3560 
C 2566 3954 2246 4179 1805 4179 
C 1043 4179 243 3390 243 1984 
C 243 253 966 -128 1478 -128 
C 2099 -128 2688 427 2688 1283 
C 2688 2081 2170 2662 1517 2662 
C 1126 2662 838 2407 678 1960 
L 678 2176 
z
M 1478 25 
C 691 25 691 1200 691 1436 
C 691 1896 909 2560 1504 2560 
C 1613 2560 1926 2560 2138 2120 
C 2253 1870 2253 1609 2253 1289 
C 2253 944 2253 690 2118 434 
C 1978 171 1773 25 1478 25 
z
" transform="scale(0.015625)"/>
       </defs>
       <use xlink:href="#CMR17-30" transform="scale(0.996264)"/>
       <use xlink:href="#CMMI12-3a" transform="translate(45.690477 0) scale(0.996264)"/>
       <use xlink:href="#CMR17-36" transform="translate(72.787654 0) scale(0.996264)"/>
      </g>
     </g>
    </g>
    <g id="xtick_5">
     <g id="line2d_5">
      <g>
       <use xlink:href="#m18515c7384" x="303.630583" y="193.536948" style="stroke: #000000; stroke-width: 0.8"/>
      </g>
     </g>
     <g id="text_5">
      <!-- $\mathdefault{0.8}$ -->
      <g transform="translate(294.905292 210.222825) scale(0.14 -0.14)">
       <defs>
        <path id="CMR17-38" d="M 1741 2264 
C 2144 2467 2554 2773 2554 3263 
C 2554 3841 1990 4179 1472 4179 
C 890 4179 378 3759 378 3180 
C 378 3021 416 2747 666 2505 
C 730 2442 998 2251 1171 2130 
C 883 1983 211 1634 211 934 
C 211 279 838 -128 1459 -128 
C 2144 -128 2720 362 2720 1010 
C 2720 1590 2330 1857 2074 2029 
L 1741 2264 
z
M 902 2822 
C 851 2854 595 3051 595 3351 
C 595 3739 998 4032 1459 4032 
C 1965 4032 2336 3676 2336 3262 
C 2336 2669 1670 2331 1638 2331 
C 1632 2331 1626 2331 1574 2370 
L 902 2822 
z
M 2080 1519 
C 2176 1449 2483 1240 2483 851 
C 2483 381 2010 25 1472 25 
C 890 25 448 438 448 940 
C 448 1443 838 1862 1280 2060 
L 2080 1519 
z
" transform="scale(0.015625)"/>
       </defs>
       <use xlink:href="#CMR17-30" transform="scale(0.996264)"/>
       <use xlink:href="#CMMI12-3a" transform="translate(45.690477 0) scale(0.996264)"/>
       <use xlink:href="#CMR17-38" transform="translate(72.787654 0) scale(0.996264)"/>
      </g>
     </g>
    </g>
    <g id="xtick_6">
     <g id="line2d_6">
      <g>
       <use xlink:href="#m18515c7384" x="362.920488" y="193.536948" style="stroke: #000000; stroke-width: 0.8"/>
      </g>
     </g>
     <g id="text_6">
      <!-- $\mathdefault{1.0}$ -->
      <g transform="translate(354.195197 210.222825) scale(0.14 -0.14)">
       <defs>
        <path id="CMR17-31" d="M 1702 4058 
C 1702 4192 1696 4192 1606 4192 
C 1357 3916 979 3827 621 3827 
C 602 3827 570 3827 563 3808 
C 557 3795 557 3782 557 3648 
C 755 3648 1088 3686 1344 3839 
L 1344 461 
C 1344 236 1331 160 781 160 
L 589 160 
L 589 0 
C 896 0 1216 0 1523 0 
C 1830 0 2150 0 2458 0 
L 2458 160 
L 2266 160 
C 1715 160 1702 230 1702 458 
L 1702 4058 
z
" transform="scale(0.015625)"/>
       </defs>
       <use xlink:href="#CMR17-31" transform="scale(0.996264)"/>
       <use xlink:href="#CMMI12-3a" transform="translate(45.690477 0) scale(0.996264)"/>
       <use xlink:href="#CMR17-30" transform="translate(72.787654 0) scale(0.996264)"/>
      </g>
     </g>
    </g>
    <g id="text_7">
     <!-- t -->
     <g transform="translate(212.040202 226.620729) scale(0.14 -0.14)">
      <defs>
       <path id="CMR17-74" d="M 966 2560 
L 1862 2560 
L 1862 2725 
L 966 2725 
L 966 3904 
L 851 3904 
C 838 3245 614 2668 70 2668 
L 70 2560 
L 627 2560 
L 627 771 
C 627 650 627 -64 1370 -64 
C 1747 -64 1965 306 1965 777 
L 1965 1140 
L 1850 1140 
L 1850 783 
C 1850 344 1677 51 1408 51 
C 1222 51 966 178 966 758 
L 966 2560 
z
" transform="scale(0.015625)"/>
      </defs>
      <use xlink:href="#CMR17-74" transform="scale(0.996264)"/>
     </g>
    </g>
   </g>
   <g id="matplotlib.axis_2">
    <g id="ytick_1">
     <g id="line2d_7">
      <defs>
       <path id="m243c8a6812" d="M 0 0 
L -3.5 0 
" style="stroke: #000000; stroke-width: 0.8"/>
      </defs>
      <g>
       <use xlink:href="#m243c8a6812" x="51.648487" y="166.647866" style="stroke: #000000; stroke-width: 0.8"/>
      </g>
     </g>
     <g id="text_8">
      <!-- $\mathdefault{0.2}$ -->
      <g transform="translate(27.197905 171.490805) scale(0.14 -0.14)">
       <use xlink:href="#CMR17-30" transform="scale(0.996264)"/>
       <use xlink:href="#CMMI12-3a" transform="translate(45.690477 0) scale(0.996264)"/>
       <use xlink:href="#CMR17-32" transform="translate(72.787654 0) scale(0.996264)"/>
      </g>
     </g>
    </g>
    <g id="ytick_2">
     <g id="line2d_8">
      <g>
       <use xlink:href="#m243c8a6812" x="51.648487" y="131.531685" style="stroke: #000000; stroke-width: 0.8"/>
      </g>
     </g>
     <g id="text_9">
      <!-- $\mathdefault{0.4}$ -->
      <g transform="translate(27.197905 136.374624) scale(0.14 -0.14)">
       <use xlink:href="#CMR17-30" transform="scale(0.996264)"/>
       <use xlink:href="#CMMI12-3a" transform="translate(45.690477 0) scale(0.996264)"/>
       <use xlink:href="#CMR17-34" transform="translate(72.787654 0) scale(0.996264)"/>
      </g>
     </g>
    </g>
    <g id="ytick_3">
     <g id="line2d_9">
      <g>
       <use xlink:href="#m243c8a6812" x="51.648487" y="96.415504" style="stroke: #000000; stroke-width: 0.8"/>
      </g>
     </g>
     <g id="text_10">
      <!-- $\mathdefault{0.6}$ -->
      <g transform="translate(27.197905 101.258443) scale(0.14 -0.14)">
       <use xlink:href="#CMR17-30" transform="scale(0.996264)"/>
       <use xlink:href="#CMMI12-3a" transform="translate(45.690477 0) scale(0.996264)"/>
       <use xlink:href="#CMR17-36" transform="translate(72.787654 0) scale(0.996264)"/>
      </g>
     </g>
    </g>
    <g id="ytick_4">
     <g id="line2d_10">
      <g>
       <use xlink:href="#m243c8a6812" x="51.648487" y="61.299323" style="stroke: #000000; stroke-width: 0.8"/>
      </g>
     </g>
     <g id="text_11">
      <!-- $\mathdefault{0.8}$ -->
      <g transform="translate(27.197905 66.142261) scale(0.14 -0.14)">
       <use xlink:href="#CMR17-30" transform="scale(0.996264)"/>
       <use xlink:href="#CMMI12-3a" transform="translate(45.690477 0) scale(0.996264)"/>
       <use xlink:href="#CMR17-38" transform="translate(72.787654 0) scale(0.996264)"/>
      </g>
     </g>
    </g>
    <g id="ytick_5">
     <g id="line2d_11">
      <g>
       <use xlink:href="#m243c8a6812" x="51.648487" y="26.183142" style="stroke: #000000; stroke-width: 0.8"/>
      </g>
     </g>
     <g id="text_12">
      <!-- $\mathdefault{1.0}$ -->
      <g transform="translate(27.197905 31.02608) scale(0.14 -0.14)">
       <use xlink:href="#CMR17-31" transform="scale(0.996264)"/>
       <use xlink:href="#CMMI12-3a" transform="translate(45.690477 0) scale(0.996264)"/>
       <use xlink:href="#CMR17-30" transform="translate(72.787654 0) scale(0.996264)"/>
      </g>
     </g>
    </g>
    <g id="text_13">
     <!-- P -->
     <g transform="translate(20.485876 106.814435) rotate(-90) scale(0.14 -0.14)">
      <defs>
       <path id="CMR17-50" d="M 1267 2042 
L 2291 2042 
C 3117 2042 3718 2578 3718 3184 
C 3718 3791 3130 4352 2291 4352 
L 333 4352 
L 333 4186 
C 774 4186 845 4186 845 3899 
L 845 446 
C 845 160 774 160 333 160 
L 333 0 
C 518 0 858 0 1056 0 
C 1254 0 1594 0 1779 0 
L 1779 160 
C 1338 160 1267 160 1267 446 
L 1267 2042 
z
M 1254 2176 
L 1254 3938 
C 1254 4155 1267 4186 1523 4186 
L 2170 4186 
C 2995 4186 3232 3714 3232 3184 
C 3232 2604 2950 2176 2170 2176 
L 1254 2176 
z
" transform="scale(0.015625)"/>
      </defs>
      <use xlink:href="#CMR17-50" transform="scale(0.996264)"/>
     </g>
    </g>
   </g>
   <g id="line2d_12">
    <path d="M 66.470963 185.228662 
L 69.958651 185.144447 
L 72.574418 184.818191 
L 74.318133 184.354862 
L 76.061978 183.552123 
L 76.9339 182.963076 
L 77.805693 182.204247 
L 78.677615 181.232063 
L 79.549537 179.994682 
L 80.42146 178.432001 
L 81.293381 176.477978 
L 82.165303 174.065773 
L 83.037226 171.136453 
L 83.909147 167.651402 
L 85.652992 159.04482 
L 87.396707 148.790813 
L 90.012345 132.896723 
L 91.75619 123.505432 
L 93.500033 115.536294 
L 95.243749 108.79695 
L 96.987594 102.898535 
L 99.60323 94.854256 
L 105.706945 77.015886 
L 109.19463 67.50272 
L 111.810397 61.171779 
L 113.554111 57.457176 
L 115.297958 54.184383 
L 117.041673 51.359196 
L 118.786161 48.966211 
L 120.529875 46.980154 
L 122.273718 45.364395 
L 124.017437 44.080181 
L 125.76128 43.088099 
L 127.505122 42.35082 
L 129.248837 41.833764 
L 130.992684 41.50583 
L 133.60845 41.309383 
L 136.224089 41.398957 
L 138.839855 41.7109 
L 142.327412 42.385743 
L 146.686898 43.517716 
L 151.918298 45.129111 
L 163.253154 48.945877 
L 173.716351 52.370733 
L 182.435313 54.998447 
L 192.026199 57.639401 
L 202.489007 60.272547 
L 215.567711 63.314211 
L 237.365756 68.103268 
L 270.497897 75.410007 
L 303.630551 82.99299 
L 332.403984 89.502053 
L 349.842049 93.221197 
L 362.920488 95.828274 
L 362.920488 95.828274 
" clip-path="url(#pa9eef80866)" style="fill: none; stroke: #1f77b4; stroke-width: 3; stroke-linecap: square"/>
   </g>
   <g id="line2d_13">
    <path d="M 66.470963 185.136536 
L 70.028357 185.06458 
L 72.399953 184.788626 
L 74.178651 184.354973 
L 75.660898 183.749105 
L 76.846697 183.027054 
L 78.032495 182.005349 
L 78.921843 180.977563 
L 79.811192 179.672741 
L 80.70054 178.030523 
L 81.589889 175.980668 
L 82.479238 173.458943 
L 83.665035 169.256104 
L 84.850833 164.054088 
L 86.333082 156.256992 
L 88.704678 141.976704 
L 91.076273 128.210425 
L 92.558521 120.738982 
L 94.04077 114.3365 
L 95.819466 107.718057 
L 97.894612 100.904943 
L 101.155557 91.072162 
L 106.788101 74.773425 
L 109.456143 67.619891 
L 111.82774 61.908326 
L 113.902886 57.529984 
L 115.681582 54.27493 
L 117.460283 51.483484 
L 119.238979 49.138001 
L 121.017676 47.206228 
L 122.796372 45.648217 
L 124.575068 44.421741 
L 126.353769 43.485399 
L 128.132465 42.800321 
L 129.911162 42.331249 
L 131.986308 42.015696 
L 134.357905 41.909032 
L 136.729501 42.021786 
L 139.693994 42.401766 
L 143.251391 43.1133 
L 147.401684 44.183538 
L 152.737777 45.802206 
L 162.224164 48.969947 
L 172.896342 52.45341 
L 181.493382 55.018918 
L 190.386868 57.438747 
L 200.1697 59.869313 
L 211.731233 62.50742 
L 226.850158 65.711968 
L 252.344807 70.847767 
L 351.358964 90.469583 
L 362.624042 92.610602 
L 362.624042 92.610602 
" clip-path="url(#pa9eef80866)" style="fill: none; stroke-dasharray: 11.1,4.8; stroke-dashoffset: 0; stroke: #ff7f0e; stroke-width: 3"/>
   </g>
   <g id="line2d_14">
    <path d="M 66.470963 185.136536 
L 69.109364 182.627094 
L 71.71812 179.838647 
L 74.35652 176.689281 
L 77.024566 173.153721 
L 79.751902 169.167334 
L 82.597817 164.608272 
L 85.621602 159.33471 
L 88.912192 153.136806 
L 92.706746 145.494373 
L 97.716743 134.86074 
L 107.588512 113.820412 
L 111.472001 106.139817 
L 114.821881 99.993905 
L 117.904956 94.794665 
L 120.810161 90.326081 
L 123.596786 86.441938 
L 126.324122 83.018306 
L 129.021813 79.987798 
L 131.689859 77.321048 
L 134.387549 74.936759 
L 137.114885 72.819978 
L 139.931155 70.915562 
L 142.836361 69.21948 
L 145.889791 67.696404 
L 149.121091 66.336671 
L 152.559905 65.13325 
L 156.295169 64.065137 
L 160.386172 63.129894 
L 164.98114 62.31315 
L 170.228297 61.614216 
L 176.364802 61.030474 
L 183.71675 60.562408 
L 193.084555 60.200408 
L 205.920819 59.94435 
L 226.138677 59.791314 
L 269.776047 59.732938 
L 362.890843 59.73119 
L 362.890843 59.73119 
" clip-path="url(#pa9eef80866)" style="fill: none; stroke-dasharray: 3,4.95; stroke-dashoffset: 0; stroke: #d62728; stroke-width: 3"/>
   </g>
   <g id="line2d_15">
    <path d="M 66.470963 185.136536 
L 69.020429 182.643825 
L 71.54025 179.869316 
L 74.060071 176.761016 
L 76.579892 173.29592 
L 79.129358 169.406383 
L 81.708469 165.062127 
L 84.376514 160.123139 
L 87.133495 154.540823 
L 90.0387 148.141537 
L 93.121775 140.800781 
L 96.530945 132.092344 
L 100.503369 121.30871 
L 106.106265 105.381963 
L 114.317916 82.087573 
L 118.29034 71.517094 
L 121.64022 63.214674 
L 124.664005 56.300191 
L 127.45063 50.466463 
L 130.089031 45.444612 
L 132.608852 41.113209 
L 135.039738 37.364478 
L 137.411334 34.106493 
L 139.753286 31.264248 
L 142.035947 28.837742 
L 144.318608 26.733551 
L 146.571625 24.954583 
L 148.854286 23.434479 
L 151.136947 22.178731 
L 153.449254 21.155211 
L 155.82085 20.344161 
L 158.281381 19.735616 
L 160.860492 19.328008 
L 163.558182 19.127742 
L 166.433743 19.140279 
L 169.516818 19.381298 
L 172.807408 19.863588 
L 176.394447 20.615634 
L 180.36687 21.680074 
L 184.783968 23.098622 
L 189.82361 24.959125 
L 195.604376 27.339343 
L 202.39307 30.383906 
L 210.664012 34.348287 
L 221.099035 39.607106 
L 235.713997 47.238776 
L 263.135578 61.856187 
L 301.318276 82.13831 
L 326.279326 95.142715 
L 348.661266 106.55383 
L 362.890843 113.659653 
L 362.890843 113.659653 
" clip-path="url(#pa9eef80866)" style="fill: none; stroke-dasharray: 11.1,4.8; stroke-dashoffset: 0; stroke: #d62728; stroke-width: 3"/>
   </g>
   <g id="line2d_16">
    <path d="M 66.470963 185.136536 
L 68.812914 182.720143 
L 71.095576 180.039234 
L 73.318947 177.082048 
L 75.512674 173.793057 
L 77.7064 170.098629 
L 79.900127 165.962974 
L 82.123498 161.287542 
L 84.376514 156.02433 
L 86.718466 149.973528 
L 89.178997 142.978958 
L 91.817397 134.789298 
L 94.841183 124.648095 
L 99.050766 109.663949 
L 104.653662 89.83005 
L 107.440287 80.807629 
L 109.752594 74.042006 
L 111.82774 68.627702 
L 113.754662 64.195945 
L 115.592649 60.50985 
L 117.371346 57.432855 
L 119.090754 54.892904 
L 120.780516 52.78282 
L 122.470278 51.021654 
L 124.160041 49.573677 
L 125.909093 48.366761 
L 127.717435 47.390974 
L 129.614712 46.622183 
L 131.630569 46.046448 
L 133.824295 45.653011 
L 136.255181 45.445491 
L 139.012162 45.436774 
L 142.243462 45.65548 
L 146.12695 46.148444 
L 151.077657 47.012021 
L 157.925641 48.449313 
L 169.279658 51.088026 
L 210.337917 60.757735 
L 233.253466 65.869986 
L 256.020789 70.723542 
L 279.381012 75.475771 
L 302.652299 79.98784 
L 326.783291 84.441083 
L 351.003217 88.688909 
L 362.890843 90.695395 
L 362.890843 90.695395 
" clip-path="url(#pa9eef80866)" style="fill: none; stroke-dasharray: 19.2,4.8,3,4.8; stroke-dashoffset: 0; stroke: #d62728; stroke-width: 3"/>
   </g>
   <g id="line2d_17">
    <path d="M 66.470963 185.136536 
L 68.753624 182.499296 
L 71.006641 179.553852 
L 73.289302 176.196994 
L 75.601608 172.391799 
L 77.973205 168.048823 
L 80.404091 163.126217 
L 82.983202 157.387285 
L 85.740182 150.693347 
L 88.793612 142.676784 
L 92.439941 132.445292 
L 98.309642 115.191531 
L 103.823603 99.240924 
L 107.292063 89.875978 
L 110.256558 82.493287 
L 112.924604 76.425456 
L 115.444425 71.236572 
L 117.816021 66.847671 
L 120.128327 63.028811 
L 122.381343 59.733514 
L 124.57507 56.911034 
L 126.768796 54.447706 
L 128.932878 52.345528 
L 131.126604 50.520873 
L 133.349976 48.958787 
L 135.632637 47.62691 
L 137.974588 46.516668 
L 140.435119 45.597811 
L 143.01423 44.873202 
L 145.771211 44.331994 
L 148.735706 43.979245 
L 151.967006 43.821193 
L 155.554045 43.872469 
L 159.585759 44.157515 
L 164.210371 44.713581 
L 169.635398 45.597203 
L 176.186932 46.897746 
L 184.487519 48.783177 
L 195.722956 51.578368 
L 212.917028 56.107845 
L 249.647124 66.067005 
L 340.479259 90.689639 
L 362.890843 96.70499 
L 362.890843 96.70499 
" clip-path="url(#pa9eef80866)" style="fill: none; stroke-dasharray: 19.2,4.8,3,4.8; stroke-dashoffset: 0; stroke: #8c564b; stroke-width: 3"/>
   </g>
   <g id="line2d_18">
    <path d="M 66.470963 185.094188 
L 69.958651 185.012644 
L 72.574418 184.676175 
L 74.318133 184.197366 
L 76.061978 183.369516 
L 76.9339 182.763345 
L 77.805693 181.983739 
L 78.677615 180.986665 
L 79.549537 179.719794 
L 80.42146 178.122697 
L 81.293381 176.129126 
L 82.165303 173.672427 
L 83.037226 170.694288 
L 83.909147 167.157279 
L 85.652992 158.443829 
L 87.396707 148.09045 
L 90.012345 132.074244 
L 91.75619 122.615514 
L 93.500033 114.584886 
L 95.243749 107.788008 
L 96.987594 101.836105 
L 99.60323 93.721435 
L 105.706945 75.779049 
L 108.322711 68.528134 
L 110.938477 61.915432 
L 112.682192 57.983044 
L 114.426035 54.483025 
L 116.169878 51.432088 
L 117.913597 48.825273 
L 119.657952 46.640257 
L 121.401799 44.846502 
L 123.145642 43.405579 
L 124.889356 42.277844 
L 126.633203 41.424283 
L 128.376918 40.808371 
L 130.120761 40.396818 
L 131.864603 40.160132 
L 134.48037 40.076366 
L 137.096008 40.253462 
L 139.711774 40.631641 
L 143.199336 41.367267 
L 147.558821 42.540014 
L 153.662145 44.445393 
L 176.33199 51.755261 
L 185.050951 54.226182 
L 193.770046 56.469176 
L 203.361064 58.711857 
L 214.69592 61.131654 
L 229.518718 64.053071 
L 256.547544 69.093885 
L 295.783513 76.463677 
L 362.920488 89.231354 
L 362.920488 89.231354 
" clip-path="url(#pa9eef80866)" style="fill: none; stroke: #1f77b4; stroke-width: 2; stroke-linecap: square"/>
   </g>
   <g id="line2d_19">
    <path d="M 66.470963 185.117002 
L 69.958651 185.044622 
L 72.574418 184.721111 
L 74.318133 184.255093 
L 76.061978 183.444357 
L 76.9339 182.848668 
L 77.805693 182.080965 
L 78.677615 181.097287 
L 79.549537 179.845341 
L 80.42146 178.264598 
L 81.293381 176.28863 
L 82.165303 173.850371 
L 83.037226 170.891067 
L 83.909147 167.372707 
L 85.652992 158.694411 
L 87.396707 148.373006 
L 90.012345 132.404743 
L 91.75619 122.978397 
L 93.500033 114.975509 
L 95.243749 108.196778 
L 96.987594 102.250536 
L 100.475154 91.500418 
L 106.578864 73.581527 
L 109.19463 66.461356 
L 111.810397 60.077136 
L 113.554111 56.333816 
L 115.297958 53.036105 
L 117.041673 50.188072 
L 118.786161 47.773382 
L 120.529875 45.765797 
L 122.273718 44.128029 
L 124.017437 42.820969 
L 125.76128 41.804995 
L 127.505122 41.042787 
L 129.248837 40.499798 
L 130.992684 40.144873 
L 133.60845 39.906491 
L 136.224089 39.952518 
L 138.839855 40.219586 
L 142.327412 40.833363 
L 146.686898 41.887546 
L 151.918298 43.404878 
L 162.381107 46.740077 
L 173.716351 50.261236 
L 182.435313 52.734313 
L 191.154275 54.983199 
L 200.745169 57.229731 
L 212.080025 59.648451 
L 226.902832 62.562301 
L 253.931906 67.589698 
L 288.808266 74.148 
L 329.788223 82.133569 
L 360.304849 87.983832 
L 362.920488 88.469952 
L 362.920488 88.469952 
" clip-path="url(#pa9eef80866)" style="fill: none; stroke: #1f77b4; stroke-width: 2; stroke-linecap: square"/>
   </g>
   <g id="line2d_20">
    <path d="M 66.470963 185.059069 
L 69.958651 184.984585 
L 72.574418 184.655504 
L 74.318133 184.18273 
L 76.061978 183.361638 
L 76.9339 182.758996 
L 77.805693 181.982848 
L 78.677615 180.988998 
L 79.549537 179.72487 
L 80.42146 178.129652 
L 81.293381 176.136771 
L 82.165303 173.67907 
L 83.037226 170.697872 
L 83.909147 167.15557 
L 85.652992 158.425925 
L 87.396707 148.054564 
L 90.012345 132.025695 
L 91.75619 122.569816 
L 93.500033 114.54382 
L 95.243749 107.745969 
L 96.987594 101.782585 
L 100.475154 90.997669 
L 106.578864 72.985876 
L 109.19463 65.805006 
L 111.810397 59.348595 
L 113.554111 55.552582 
L 115.297958 52.200303 
L 117.041673 49.297411 
L 118.786161 46.828541 
L 120.529875 44.768357 
L 122.273718 43.080156 
L 124.017437 41.725081 
L 125.76128 40.663592 
L 127.505122 39.858256 
L 129.248837 39.274326 
L 130.992684 38.880491 
L 133.60845 38.586862 
L 136.224089 38.580813 
L 138.839855 38.798474 
L 142.327412 39.349625 
L 146.686898 40.329912 
L 151.918298 41.764295 
L 161.509183 44.682812 
L 173.716351 48.341582 
L 183.307104 50.961374 
L 192.898122 53.332936 
L 203.361064 55.68093 
L 216.439626 58.366895 
L 235.621926 62.044272 
L 280.089295 70.509806 
L 309.734007 76.435285 
L 362.048573 86.931668 
L 362.920488 87.100267 
L 362.920488 87.100267 
" clip-path="url(#pa9eef80866)" style="fill: none; stroke: #1f77b4; stroke-width: 2; stroke-linecap: square"/>
   </g>
   <g id="line2d_21">
    <path d="M 66.470963 185.102218 
L 69.958651 185.019018 
L 72.574418 184.686916 
L 74.318133 184.213767 
L 76.061978 183.393327 
L 76.9339 182.791207 
L 77.805693 182.01558 
L 78.677615 181.022054 
L 79.549537 179.757906 
L 80.42146 178.162121 
L 81.293381 176.167947 
L 82.165303 173.708133 
L 83.037226 170.724078 
L 83.909147 167.178471 
L 85.652992 158.443502 
L 87.396707 148.073878 
L 90.012345 132.066128 
L 91.75619 122.629919 
L 93.500033 114.62039 
L 95.243749 107.832581 
L 96.987594 101.872598 
L 100.475154 91.080974 
L 106.578864 73.056549 
L 109.19463 65.88289 
L 111.810397 59.442125 
L 113.554111 55.659654 
L 115.297958 52.321765 
L 117.041673 49.432656 
L 118.786161 46.975758 
L 120.529875 44.925098 
L 122.273718 43.24304 
L 124.017437 41.890759 
L 125.76128 40.828611 
L 127.505122 40.019162 
L 129.248837 39.428095 
L 130.992684 39.024391 
L 133.60845 38.711516 
L 136.224089 38.682014 
L 138.839855 38.872987 
L 142.327412 39.384957 
L 146.686898 40.31299 
L 151.918298 41.682643 
L 161.509183 44.485036 
L 174.588142 48.254342 
L 184.179028 50.772347 
L 193.770046 53.065659 
L 205.104902 55.540484 
L 219.927196 58.523238 
L 248.700365 64.012925 
L 279.21738 69.935138 
L 312.349645 76.625986 
L 349.842049 84.162566 
L 362.920488 86.669677 
L 362.920488 86.669677 
" clip-path="url(#pa9eef80866)" style="fill: none; stroke: #1f77b4; stroke-width: 2; stroke-linecap: square"/>
   </g>
   <g id="line2d_22">
    <path d="M 66.470963 185.180506 
L 69.958651 185.083378 
L 72.574418 184.744012 
L 74.318133 184.268358 
L 76.061978 183.448127 
L 76.9339 182.847432 
L 77.805693 182.074333 
L 78.677615 181.084586 
L 79.549537 179.825653 
L 80.42146 178.236629 
L 81.293381 176.250797 
L 82.165303 173.800799 
L 83.037226 170.827626 
L 83.909147 167.293361 
L 85.652992 158.578239 
L 87.396707 148.217595 
L 90.012345 132.196302 
L 91.75619 122.740335 
L 93.500033 114.711429 
L 95.243749 107.909114 
L 96.987594 101.940832 
L 100.475154 91.14745 
L 106.578864 73.13706 
L 109.19463 65.968183 
L 111.810397 59.531573 
L 113.554111 55.752189 
L 115.297958 52.418414 
L 117.041673 49.534893 
L 118.786161 47.085258 
L 120.529875 45.043535 
L 122.273718 43.372372 
L 124.017437 42.032513 
L 125.76128 40.984337 
L 127.505122 40.190126 
L 129.248837 39.615144 
L 130.992684 39.22831 
L 133.60845 38.941473 
L 136.224089 38.938177 
L 138.839855 39.154905 
L 142.327412 39.699495 
L 146.686898 40.664158 
L 151.918298 42.06976 
L 163.253154 45.433205 
L 173.716351 48.445556 
L 183.307104 50.961258 
L 192.898122 53.2377 
L 204.232978 55.684384 
L 219.055405 58.637311 
L 275.729827 69.713198 
L 302.758636 75.373262 
L 345.482564 84.344518 
L 362.920488 87.779463 
L 362.920488 87.779463 
" clip-path="url(#pa9eef80866)" style="fill: none; stroke: #1f77b4; stroke-width: 2; stroke-linecap: square"/>
   </g>
   <g id="patch_3">
    <path d="M 51.648487 193.536948 
L 51.648487 10.8 
" style="fill: none; stroke: #000000; stroke-width: 0.8; stroke-linejoin: miter; stroke-linecap: square"/>
   </g>
   <g id="patch_4">
    <path d="M 377.742964 193.536948 
L 377.742964 10.8 
" style="fill: none; stroke: #000000; stroke-width: 0.8; stroke-linejoin: miter; stroke-linecap: square"/>
   </g>
   <g id="patch_5">
    <path d="M 51.648487 193.536948 
L 377.742964 193.536948 
" style="fill: none; stroke: #000000; stroke-width: 0.8; stroke-linejoin: miter; stroke-linecap: square"/>
   </g>
   <g id="patch_6">
    <path d="M 51.648487 10.8 
L 377.742964 10.8 
" style="fill: none; stroke: #000000; stroke-width: 0.8; stroke-linejoin: miter; stroke-linecap: square"/>
   </g>
   <g id="legend_1">
    <g id="line2d_23">
     <path d="M 153.249405 130.654176 
L 167.249405 130.654176 
L 181.249405 130.654176 
" style="fill: none; stroke: #1f77b4; stroke-width: 3; stroke-linecap: square"/>
    </g>
    <g id="text_14">
     <!-- $\hat{P}$ -->
     <g transform="translate(192.449405 135.554176) scale(0.14 -0.14)">
      <defs>
       <path id="CMR17-5e" d="M 1466 4421 
L 678 3555 
L 755 3478 
L 1466 4166 
L 2176 3478 
L 2253 3555 
L 1466 4421 
z
" transform="scale(0.015625)"/>
       <path id="CMMI12-50" d="M 1894 2023 
L 2970 2023 
C 3853 2023 4736 2673 4736 3401 
C 4736 3898 4314 4352 3507 4352 
L 1530 4352 
C 1408 4352 1350 4352 1350 4231 
C 1350 4167 1408 4167 1504 4167 
C 1894 4167 1894 4116 1894 4046 
C 1894 4034 1894 3995 1869 3899 
L 1005 472 
C 947 249 934 185 486 185 
C 365 185 301 185 301 70 
C 301 0 358 0 397 0 
C 518 0 646 0 768 0 
L 1517 0 
C 1638 0 1773 0 1894 0 
C 1946 0 2016 0 2016 121 
C 2016 185 1958 185 1862 185 
C 1478 185 1472 230 1472 293 
C 1472 325 1478 369 1485 401 
L 1894 2023 
z
M 2355 3930 
C 2413 4167 2438 4167 2688 4167 
L 3322 4167 
C 3802 4167 4198 4013 4198 3535 
C 4198 3369 4115 2827 3821 2534 
C 3712 2419 3405 2176 2822 2176 
L 1920 2176 
L 2355 3930 
z
" transform="scale(0.015625)"/>
      </defs>
      <use xlink:href="#CMR17-5e" transform="translate(23.496833 25.189733) scale(0.996264)"/>
      <use xlink:href="#CMMI12-50" transform="scale(0.996264)"/>
     </g>
    </g>
    <g id="line2d_24">
     <path d="M 153.249405 150.166204 
L 167.249405 150.166204 
L 181.249405 150.166204 
" style="fill: none; stroke-dasharray: 11.1,4.8; stroke-dashoffset: 0; stroke: #ff7f0e; stroke-width: 3"/>
    </g>
    <g id="text_15">
     <!-- $P^*$ -->
     <g transform="translate(192.449405 155.066204) scale(0.14 -0.14)">
      <defs>
       <path id="CMSY10-3" d="M 1760 2719 
C 1766 2808 1766 2962 1600 2962 
C 1498 2962 1414 2879 1434 2795 
L 1434 2712 
L 1523 1720 
L 704 2316 
C 646 2348 634 2360 589 2360 
C 499 2360 416 2271 416 2181 
C 416 2079 480 2053 544 2021 
L 1453 1586 
L 570 1158 
C 467 1107 416 1081 416 985 
C 416 889 499 806 589 806 
C 634 806 646 806 806 928 
L 1523 1446 
L 1427 371 
C 1427 236 1542 204 1594 204 
C 1670 204 1766 248 1766 371 
L 1670 1446 
L 2490 851 
C 2547 819 2560 806 2605 806 
C 2694 806 2778 896 2778 985 
C 2778 1081 2720 1113 2643 1152 
C 2259 1343 2246 1343 1741 1580 
L 2624 2008 
C 2726 2060 2778 2085 2778 2181 
C 2778 2277 2694 2360 2605 2360 
C 2560 2360 2547 2360 2387 2239 
L 1670 1720 
L 1760 2719 
z
" transform="scale(0.015625)"/>
      </defs>
      <use xlink:href="#CMMI12-50" transform="scale(0.996264)"/>
      <use xlink:href="#CMSY10-3" transform="translate(76.425821 36.153639) scale(0.697382)"/>
     </g>
    </g>
    <g id="line2d_25">
     <path d="M 153.249405 170.339096 
L 167.249405 170.339096 
L 181.249405 170.339096 
" style="fill: none; stroke-dasharray: 3,4.95; stroke-dashoffset: 0; stroke: #d62728; stroke-width: 3"/>
    </g>
    <g id="text_16">
     <!-- $\sum \phi^s_1 \cdot dt$ -->
     <g transform="translate(192.449405 175.239096) scale(0.14 -0.14)">
      <defs>
       <path id="CMEX10-50" d="M 2694 -3418 
L 422 -6227 
C 371 -6291 365 -6304 365 -6330 
C 365 -6400 422 -6400 538 -6400 
L 5843 -6400 
L 6394 -4806 
L 6234 -4806 
C 6074 -5286 5645 -5677 5101 -5862 
C 4998 -5894 4557 -6048 3616 -6048 
L 896 -6048 
L 3117 -3302 
C 3162 -3245 3174 -3226 3174 -3200 
C 3174 -3174 3168 -3168 3130 -3110 
L 1050 -256 
L 3584 -256 
C 4314 -256 5786 -301 6234 -1498 
L 6394 -1498 
L 5843 0 
L 538 0 
C 365 0 358 -6 358 -205 
L 2694 -3418 
z
" transform="scale(0.015625)"/>
       <path id="CMMI12-1e" d="M 2752 4390 
C 2752 4448 2707 4448 2688 4448 
C 2630 4448 2624 4435 2598 4326 
L 2253 2939 
C 2234 2856 2227 2849 2221 2843 
C 2214 2830 2170 2824 2157 2824 
C 1107 2734 301 1864 301 1057 
C 301 361 832 -64 1498 -64 
C 1446 -261 1402 -463 1350 -659 
C 1261 -995 1210 -1204 1210 -1229 
C 1210 -1241 1210 -1280 1274 -1280 
C 1293 -1280 1318 -1280 1331 -1254 
C 1344 -1241 1382 -1089 1408 -1008 
L 1645 -64 
C 2739 -64 3571 854 3571 1680 
C 3571 2343 3085 2816 2374 2816 
L 2752 4390 
z
M 2336 2701 
C 2758 2701 3181 2463 3181 1828 
C 3181 1097 2675 128 1677 50 
L 2336 2701 
z
M 1530 50 
C 1216 50 691 220 691 938 
C 691 1761 1274 2676 2195 2676 
L 1530 50 
z
" transform="scale(0.015625)"/>
       <path id="CMMI12-73" d="M 1459 1280 
C 1568 1261 1741 1223 1779 1216 
C 1862 1192 2150 1090 2150 783 
C 2150 586 1971 70 1229 70 
C 1094 70 614 70 486 436 
C 742 404 870 603 870 745 
C 870 880 781 950 653 950 
C 512 950 326 841 326 552 
C 326 173 710 -64 1222 -64 
C 2195 -64 2483 651 2483 984 
C 2483 1079 2483 1258 2278 1462 
C 2118 1616 1965 1648 1619 1718 
C 1446 1756 1171 1814 1171 2101 
C 1171 2229 1286 2689 1894 2689 
C 2163 2689 2426 2589 2490 2368 
C 2208 2368 2195 2125 2195 2119 
C 2195 1984 2317 1946 2374 1946 
C 2464 1946 2643 2015 2643 2281 
C 2643 2545 2400 2816 1901 2816 
C 1062 2816 838 2160 838 1899 
C 838 1414 1312 1312 1459 1280 
z
" transform="scale(0.015625)"/>
       <path id="CMSY10-1" d="M 1229 1619 
C 1229 1805 1075 1958 890 1958 
C 704 1958 550 1805 550 1619 
C 550 1433 704 1280 890 1280 
C 1075 1280 1229 1433 1229 1619 
z
" transform="scale(0.015625)"/>
       <path id="CMMI12-64" d="M 3219 4257 
C 3226 4282 3238 4320 3238 4352 
C 3238 4416 3174 4416 3162 4416 
C 3155 4416 2842 4388 2810 4380 
C 2701 4373 2605 4358 2490 4358 
C 2330 4345 2285 4339 2285 4224 
C 2285 4160 2336 4160 2426 4160 
C 2739 4160 2746 4103 2746 4040 
C 2746 4002 2733 3952 2726 3933 
L 2336 2395 
C 2266 2561 2093 2816 1760 2816 
C 1037 2816 256 1884 256 939 
C 256 307 627 -64 1062 -64 
C 1414 -64 1715 211 1894 422 
C 1958 45 2259 -64 2451 -64 
C 2643 -64 2797 51 2912 281 
C 3014 498 3104 888 3104 913 
C 3104 945 3078 971 3040 971 
C 2982 971 2976 939 2950 843 
C 2854 466 2733 64 2470 64 
C 2285 64 2272 229 2272 357 
C 2272 382 2272 515 2317 694 
L 3219 4257 
z
M 1926 760 
C 1894 651 1894 639 1805 517 
C 1664 338 1382 64 1082 64 
C 819 64 672 300 672 677 
C 672 1028 870 1743 992 2012 
C 1210 2459 1510 2689 1760 2689 
C 2182 2689 2266 2165 2266 2114 
C 2266 2108 2246 2024 2240 2012 
L 1926 760 
z
" transform="scale(0.015625)"/>
       <path id="CMMI12-74" d="M 1286 2566 
L 1875 2566 
C 1997 2566 2061 2566 2061 2681 
C 2061 2752 2022 2752 1894 2752 
L 1331 2752 
L 1568 3692 
C 1594 3781 1594 3794 1594 3840 
C 1594 3943 1510 4000 1427 4000 
C 1376 4000 1229 3981 1178 3775 
L 928 2752 
L 326 2752 
C 198 2752 141 2752 141 2630 
C 141 2566 186 2566 307 2566 
L 877 2566 
L 454 881 
C 403 658 384 594 384 511 
C 384 211 595 -64 954 -64 
C 1600 -64 1946 868 1946 912 
C 1946 951 1920 970 1882 970 
C 1869 970 1843 970 1830 944 
C 1824 938 1818 931 1773 829 
C 1638 511 1344 64 973 64 
C 781 64 768 224 768 364 
C 768 370 768 492 787 568 
L 1286 2566 
z
" transform="scale(0.015625)"/>
      </defs>
      <use xlink:href="#CMEX10-50" transform="translate(0 74.720454) scale(0.996264)"/>
      <use xlink:href="#CMMI12-1e" transform="translate(121.765958 0) scale(0.996264)"/>
      <use xlink:href="#CMMI12-73" transform="translate(179.500138 36.153639) scale(0.697382)"/>
      <use xlink:href="#CMR17-31" transform="translate(179.500138 -24.740171) scale(0.697382)"/>
      <use xlink:href="#CMSY10-1" transform="translate(234.302366 0) scale(0.996264)"/>
      <use xlink:href="#CMMI12-64" transform="translate(284.115658 0) scale(0.996264)"/>
      <use xlink:href="#CMMI12-74" transform="translate(334.804754 0) scale(0.996264)"/>
     </g>
    </g>
    <g id="line2d_26">
     <path d="M 273.196184 130.654176 
L 287.196184 130.654176 
L 301.196184 130.654176 
" style="fill: none; stroke-dasharray: 11.1,4.8; stroke-dashoffset: 0; stroke: #d62728; stroke-width: 3"/>
    </g>
    <g id="text_17">
     <!-- $\sum \phi^s_{2} \cdot dt$ -->
     <g transform="translate(312.396184 135.554176) scale(0.14 -0.14)">
      <use xlink:href="#CMEX10-50" transform="translate(0 74.720454) scale(0.996264)"/>
      <use xlink:href="#CMMI12-1e" transform="translate(121.765958 0) scale(0.996264)"/>
      <use xlink:href="#CMMI12-73" transform="translate(179.500138 36.153639) scale(0.697382)"/>
      <use xlink:href="#CMR17-32" transform="translate(179.500138 -24.740171) scale(0.697382)"/>
      <use xlink:href="#CMSY10-1" transform="translate(234.302366 0) scale(0.996264)"/>
      <use xlink:href="#CMMI12-64" transform="translate(284.115658 0) scale(0.996264)"/>
      <use xlink:href="#CMMI12-74" transform="translate(334.804754 0) scale(0.996264)"/>
     </g>
    </g>
    <g id="line2d_27">
     <path d="M 273.196184 151.602054 
L 287.196184 151.602054 
L 301.196184 151.602054 
" style="fill: none; stroke-dasharray: 19.2,4.8,3,4.8; stroke-dashoffset: 0; stroke: #d62728; stroke-width: 3"/>
    </g>
    <g id="text_18">
     <!-- $\sum \phi^s_{3} \cdot dt$ -->
     <g transform="translate(312.396184 156.502054) scale(0.14 -0.14)">
      <defs>
       <path id="CMR17-33" d="M 1414 2157 
C 1984 2157 2234 1662 2234 1090 
C 2234 320 1824 25 1453 25 
C 1114 25 563 194 390 693 
C 422 680 454 680 486 680 
C 640 680 755 782 755 948 
C 755 1133 614 1216 486 1216 
C 378 1216 211 1165 211 926 
C 211 335 787 -128 1466 -128 
C 2176 -128 2720 430 2720 1085 
C 2720 1707 2208 2157 1600 2227 
C 2086 2328 2554 2756 2554 3329 
C 2554 3820 2048 4179 1472 4179 
C 890 4179 378 3829 378 3329 
C 378 3110 544 3072 627 3072 
C 762 3072 877 3155 877 3321 
C 877 3486 762 3569 627 3569 
C 602 3569 570 3569 544 3557 
C 730 3959 1235 4032 1459 4032 
C 1683 4032 2106 3925 2106 3320 
C 2106 3143 2080 2828 1862 2550 
C 1670 2304 1453 2304 1242 2284 
C 1210 2284 1062 2269 1037 2269 
C 992 2263 966 2257 966 2208 
C 966 2163 973 2157 1101 2157 
L 1414 2157 
z
" transform="scale(0.015625)"/>
      </defs>
      <use xlink:href="#CMEX10-50" transform="translate(0 74.720454) scale(0.996264)"/>
      <use xlink:href="#CMMI12-1e" transform="translate(121.765958 0) scale(0.996264)"/>
      <use xlink:href="#CMMI12-73" transform="translate(179.500138 36.153639) scale(0.697382)"/>
      <use xlink:href="#CMR17-33" transform="translate(179.500138 -24.740171) scale(0.697382)"/>
      <use xlink:href="#CMSY10-1" transform="translate(234.302366 0) scale(0.996264)"/>
      <use xlink:href="#CMMI12-64" transform="translate(284.115658 0) scale(0.996264)"/>
      <use xlink:href="#CMMI12-74" transform="translate(334.804754 0) scale(0.996264)"/>
     </g>
    </g>
    <g id="line2d_28">
     <path d="M 273.196184 172.549933 
L 287.196184 172.549933 
L 301.196184 172.549933 
" style="fill: none; stroke-dasharray: 19.2,4.8,3,4.8; stroke-dashoffset: 0; stroke: #8c564b; stroke-width: 3"/>
    </g>
    <g id="text_19">
     <!-- $\sum \phi^s_{s} \cdot dt$ -->
     <g transform="translate(312.396184 177.449933) scale(0.14 -0.14)">
      <use xlink:href="#CMEX10-50" transform="translate(0 74.720454) scale(0.996264)"/>
      <use xlink:href="#CMMI12-1e" transform="translate(121.765958 0) scale(0.996264)"/>
      <use xlink:href="#CMMI12-73" transform="translate(179.500138 36.153639) scale(0.697382)"/>
      <use xlink:href="#CMMI12-73" transform="translate(179.500138 -24.62935) scale(0.697382)"/>
      <use xlink:href="#CMSY10-1" transform="translate(234.302366 0) scale(0.996264)"/>
      <use xlink:href="#CMMI12-64" transform="translate(284.115658 0) scale(0.996264)"/>
      <use xlink:href="#CMMI12-74" transform="translate(334.804754 0) scale(0.996264)"/>
     </g>
    </g>
   </g>
  </g>
 </g>
 <defs>
  <clipPath id="pa9eef80866">
   <rect x="51.648487" y="10.8" width="326.094477" height="182.736948"/>
  </clipPath>
 </defs>
</svg>
