<?xml version="1.0" encoding="utf-8" standalone="no"?>
<!DOCTYPE svg PUBLIC "-//W3C//DTD SVG 1.1//EN"
  "http://www.w3.org/Graphics/SVG/1.1/DTD/svg11.dtd">
<svg xmlns:xlink="http://www.w3.org/1999/xlink" width="388.542964pt" height="240.132758pt" viewBox="0 0 388.542964 240.132758" xmlns="http://www.w3.org/2000/svg" version="1.1">
 <metadata>
  <rdf:RDF xmlns:dc="http://purl.org/dc/elements/1.1/" xmlns:cc="http://creativecommons.org/ns#" xmlns:rdf="http://www.w3.org/1999/02/22-rdf-syntax-ns#">
   <cc:Work>
    <dc:type rdf:resource="http://purl.org/dc/dcmitype/StillImage"/>
    <dc:date>2024-12-29T13:16:31.500163</dc:date>
    <dc:format>image/svg+xml</dc:format>
    <dc:creator>
     <cc:Agent>
      <dc:title>Matplotlib v3.7.5, https://matplotlib.org/</dc:title>
     </cc:Agent>
    </dc:creator>
   </cc:Work>
  </rdf:RDF>
 </metadata>
 <defs>
  <style type="text/css">*{stroke-linejoin: round; stroke-linecap: butt}</style>
 </defs>
 <g id="figure_1">
  <g id="patch_1">
   <path d="M 0 240.132758 
L 388.542964 240.132758 
L 388.542964 0 
L 0 0 
z
" style="fill: #ffffff"/>
  </g>
  <g id="axes_1">
   <g id="patch_2">
    <path d="M 53.42442 193.536948 
L 377.742964 193.536948 
L 377.742964 10.8 
L 53.42442 10.8 
z
" style="fill: #ffffff"/>
   </g>
   <g id="matplotlib.axis_1">
    <g id="xtick_1">
     <g id="line2d_1">
      <defs>
       <path id="m2a53a33b56" d="M 0 0 
L 0 3.5 
" style="stroke: #000000; stroke-width: 0.8"/>
      </defs>
      <g>
       <use xlink:href="#m2a53a33b56" x="77.925027" y="193.536948" style="stroke: #000000; stroke-width: 0.8"/>
      </g>
     </g>
     <g id="text_1">
      <!-- $\mathdefault{0.100}$ -->
      <g transform="translate(62.371248 210.222825) scale(0.14 -0.14)">
       <defs>
        <path id="CMR17-30" d="M 2688 2025 
C 2688 2416 2682 3080 2413 3591 
C 2176 4039 1798 4198 1466 4198 
C 1158 4198 768 4058 525 3597 
C 269 3118 243 2524 243 2025 
C 243 1661 250 1106 448 619 
C 723 -39 1216 -128 1466 -128 
C 1760 -128 2208 -7 2470 600 
C 2662 1042 2688 1559 2688 2025 
z
M 1466 -26 
C 1056 -26 813 325 723 812 
C 653 1188 653 1738 653 2096 
C 653 2588 653 2997 736 3387 
C 858 3929 1216 4096 1466 4096 
C 1728 4096 2067 3923 2189 3400 
C 2272 3036 2278 2607 2278 2096 
C 2278 1680 2278 1169 2202 792 
C 2067 95 1690 -26 1466 -26 
z
" transform="scale(0.015625)"/>
        <path id="CMMI12-3a" d="M 1178 307 
C 1178 492 1024 619 870 619 
C 685 619 557 466 557 313 
C 557 128 710 0 864 0 
C 1050 0 1178 153 1178 307 
z
" transform="scale(0.015625)"/>
        <path id="CMR17-31" d="M 1702 4058 
C 1702 4192 1696 4192 1606 4192 
C 1357 3916 979 3827 621 3827 
C 602 3827 570 3827 563 3808 
C 557 3795 557 3782 557 3648 
C 755 3648 1088 3686 1344 3839 
L 1344 461 
C 1344 236 1331 160 781 160 
L 589 160 
L 589 0 
C 896 0 1216 0 1523 0 
C 1830 0 2150 0 2458 0 
L 2458 160 
L 2266 160 
C 1715 160 1702 230 1702 458 
L 1702 4058 
z
" transform="scale(0.015625)"/>
       </defs>
       <use xlink:href="#CMR17-30" transform="scale(0.996264)"/>
       <use xlink:href="#CMMI12-3a" transform="translate(45.690477 0) scale(0.996264)"/>
       <use xlink:href="#CMR17-31" transform="translate(72.787654 0) scale(0.996264)"/>
       <use xlink:href="#CMR17-30" transform="translate(118.478131 0) scale(0.996264)"/>
       <use xlink:href="#CMR17-30" transform="translate(164.168608 0) scale(0.996264)"/>
      </g>
     </g>
    </g>
    <g id="xtick_2">
     <g id="line2d_2">
      <g>
       <use xlink:href="#m2a53a33b56" x="116.986013" y="193.536948" style="stroke: #000000; stroke-width: 0.8"/>
      </g>
     </g>
     <g id="text_2">
      <!-- $\mathdefault{0.125}$ -->
      <g transform="translate(101.432233 210.222825) scale(0.14 -0.14)">
       <defs>
        <path id="CMR17-32" d="M 2669 989 
L 2554 989 
C 2490 536 2438 459 2413 420 
C 2381 369 1920 369 1830 369 
L 602 369 
C 832 619 1280 1072 1824 1597 
C 2214 1967 2669 2402 2669 3035 
C 2669 3790 2067 4224 1395 4224 
C 691 4224 262 3604 262 3030 
C 262 2780 448 2748 525 2748 
C 589 2748 781 2787 781 3010 
C 781 3207 614 3264 525 3264 
C 486 3264 448 3258 422 3245 
C 544 3790 915 4058 1306 4058 
C 1862 4058 2227 3617 2227 3035 
C 2227 2479 1901 2000 1536 1584 
L 262 146 
L 262 0 
L 2515 0 
L 2669 989 
z
" transform="scale(0.015625)"/>
        <path id="CMR17-35" d="M 730 3692 
C 794 3666 1056 3584 1325 3584 
C 1920 3584 2246 3911 2432 4100 
C 2432 4157 2432 4192 2394 4192 
C 2387 4192 2374 4192 2323 4163 
C 2099 4058 1837 3973 1517 3973 
C 1325 3973 1037 3999 723 4139 
C 653 4171 640 4171 634 4171 
C 602 4171 595 4164 595 4037 
L 595 2203 
C 595 2089 595 2057 659 2057 
C 691 2057 704 2070 736 2114 
C 941 2401 1222 2522 1542 2522 
C 1766 2522 2246 2382 2246 1289 
C 2246 1085 2246 715 2054 421 
C 1894 159 1645 25 1370 25 
C 947 25 518 320 403 814 
C 429 807 480 795 506 795 
C 589 795 749 840 749 1038 
C 749 1210 627 1280 506 1280 
C 358 1280 262 1190 262 1011 
C 262 454 704 -128 1382 -128 
C 2042 -128 2669 440 2669 1264 
C 2669 2030 2170 2624 1549 2624 
C 1222 2624 947 2503 730 2274 
L 730 3692 
z
" transform="scale(0.015625)"/>
       </defs>
       <use xlink:href="#CMR17-30" transform="scale(0.996264)"/>
       <use xlink:href="#CMMI12-3a" transform="translate(45.690477 0) scale(0.996264)"/>
       <use xlink:href="#CMR17-31" transform="translate(72.787654 0) scale(0.996264)"/>
       <use xlink:href="#CMR17-32" transform="translate(118.478131 0) scale(0.996264)"/>
       <use xlink:href="#CMR17-35" transform="translate(164.168608 0) scale(0.996264)"/>
      </g>
     </g>
    </g>
    <g id="xtick_3">
     <g id="line2d_3">
      <g>
       <use xlink:href="#m2a53a33b56" x="156.046999" y="193.536948" style="stroke: #000000; stroke-width: 0.8"/>
      </g>
     </g>
     <g id="text_3">
      <!-- $\mathdefault{0.150}$ -->
      <g transform="translate(140.493219 210.222825) scale(0.14 -0.14)">
       <use xlink:href="#CMR17-30" transform="scale(0.996264)"/>
       <use xlink:href="#CMMI12-3a" transform="translate(45.690477 0) scale(0.996264)"/>
       <use xlink:href="#CMR17-31" transform="translate(72.787654 0) scale(0.996264)"/>
       <use xlink:href="#CMR17-35" transform="translate(118.478131 0) scale(0.996264)"/>
       <use xlink:href="#CMR17-30" transform="translate(164.168608 0) scale(0.996264)"/>
      </g>
     </g>
    </g>
    <g id="xtick_4">
     <g id="line2d_4">
      <g>
       <use xlink:href="#m2a53a33b56" x="195.107984" y="193.536948" style="stroke: #000000; stroke-width: 0.8"/>
      </g>
     </g>
     <g id="text_4">
      <!-- $\mathdefault{0.175}$ -->
      <g transform="translate(179.554204 210.222825) scale(0.14 -0.14)">
       <defs>
        <path id="CMR17-37" d="M 2886 3941 
L 2886 4081 
L 1382 4081 
C 634 4081 621 4165 595 4288 
L 480 4288 
L 294 3094 
L 410 3094 
C 429 3215 474 3540 550 3661 
C 589 3712 1062 3712 1171 3712 
L 2579 3712 
L 1869 2661 
C 1395 1954 1069 999 1069 165 
C 1069 89 1069 -128 1299 -128 
C 1530 -128 1530 89 1530 171 
L 1530 465 
C 1530 1508 1709 2196 2003 2636 
L 2886 3941 
z
" transform="scale(0.015625)"/>
       </defs>
       <use xlink:href="#CMR17-30" transform="scale(0.996264)"/>
       <use xlink:href="#CMMI12-3a" transform="translate(45.690477 0) scale(0.996264)"/>
       <use xlink:href="#CMR17-31" transform="translate(72.787654 0) scale(0.996264)"/>
       <use xlink:href="#CMR17-37" transform="translate(118.478131 0) scale(0.996264)"/>
       <use xlink:href="#CMR17-35" transform="translate(164.168608 0) scale(0.996264)"/>
      </g>
     </g>
    </g>
    <g id="xtick_5">
     <g id="line2d_5">
      <g>
       <use xlink:href="#m2a53a33b56" x="234.16897" y="193.536948" style="stroke: #000000; stroke-width: 0.8"/>
      </g>
     </g>
     <g id="text_5">
      <!-- $\mathdefault{0.200}$ -->
      <g transform="translate(218.61519 210.222825) scale(0.14 -0.14)">
       <use xlink:href="#CMR17-30" transform="scale(0.996264)"/>
       <use xlink:href="#CMMI12-3a" transform="translate(45.690477 0) scale(0.996264)"/>
       <use xlink:href="#CMR17-32" transform="translate(72.787654 0) scale(0.996264)"/>
       <use xlink:href="#CMR17-30" transform="translate(118.478131 0) scale(0.996264)"/>
       <use xlink:href="#CMR17-30" transform="translate(164.168608 0) scale(0.996264)"/>
      </g>
     </g>
    </g>
    <g id="xtick_6">
     <g id="line2d_6">
      <g>
       <use xlink:href="#m2a53a33b56" x="273.229955" y="193.536948" style="stroke: #000000; stroke-width: 0.8"/>
      </g>
     </g>
     <g id="text_6">
      <!-- $\mathdefault{0.225}$ -->
      <g transform="translate(257.676176 210.222825) scale(0.14 -0.14)">
       <use xlink:href="#CMR17-30" transform="scale(0.996264)"/>
       <use xlink:href="#CMMI12-3a" transform="translate(45.690477 0) scale(0.996264)"/>
       <use xlink:href="#CMR17-32" transform="translate(72.787654 0) scale(0.996264)"/>
       <use xlink:href="#CMR17-32" transform="translate(118.478131 0) scale(0.996264)"/>
       <use xlink:href="#CMR17-35" transform="translate(164.168608 0) scale(0.996264)"/>
      </g>
     </g>
    </g>
    <g id="xtick_7">
     <g id="line2d_7">
      <g>
       <use xlink:href="#m2a53a33b56" x="312.290941" y="193.536948" style="stroke: #000000; stroke-width: 0.8"/>
      </g>
     </g>
     <g id="text_7">
      <!-- $\mathdefault{0.250}$ -->
      <g transform="translate(296.737161 210.222825) scale(0.14 -0.14)">
       <use xlink:href="#CMR17-30" transform="scale(0.996264)"/>
       <use xlink:href="#CMMI12-3a" transform="translate(45.690477 0) scale(0.996264)"/>
       <use xlink:href="#CMR17-32" transform="translate(72.787654 0) scale(0.996264)"/>
       <use xlink:href="#CMR17-35" transform="translate(118.478131 0) scale(0.996264)"/>
       <use xlink:href="#CMR17-30" transform="translate(164.168608 0) scale(0.996264)"/>
      </g>
     </g>
    </g>
    <g id="xtick_8">
     <g id="line2d_8">
      <g>
       <use xlink:href="#m2a53a33b56" x="351.351926" y="193.536948" style="stroke: #000000; stroke-width: 0.8"/>
      </g>
     </g>
     <g id="text_8">
      <!-- $\mathdefault{0.275}$ -->
      <g transform="translate(335.798147 210.222825) scale(0.14 -0.14)">
       <use xlink:href="#CMR17-30" transform="scale(0.996264)"/>
       <use xlink:href="#CMMI12-3a" transform="translate(45.690477 0) scale(0.996264)"/>
       <use xlink:href="#CMR17-32" transform="translate(72.787654 0) scale(0.996264)"/>
       <use xlink:href="#CMR17-37" transform="translate(118.478131 0) scale(0.996264)"/>
       <use xlink:href="#CMR17-35" transform="translate(164.168608 0) scale(0.996264)"/>
      </g>
     </g>
    </g>
    <g id="text_9">
     <!-- P -->
     <g transform="translate(210.937731 226.620729) scale(0.14 -0.14)">
      <defs>
       <path id="CMR17-50" d="M 1267 2042 
L 2291 2042 
C 3117 2042 3718 2578 3718 3184 
C 3718 3791 3130 4352 2291 4352 
L 333 4352 
L 333 4186 
C 774 4186 845 4186 845 3899 
L 845 446 
C 845 160 774 160 333 160 
L 333 0 
C 518 0 858 0 1056 0 
C 1254 0 1594 0 1779 0 
L 1779 160 
C 1338 160 1267 160 1267 446 
L 1267 2042 
z
M 1254 2176 
L 1254 3938 
C 1254 4155 1267 4186 1523 4186 
L 2170 4186 
C 2995 4186 3232 3714 3232 3184 
C 3232 2604 2950 2176 2170 2176 
L 1254 2176 
z
" transform="scale(0.015625)"/>
      </defs>
      <use xlink:href="#CMR17-50" transform="scale(0.996264)"/>
     </g>
    </g>
   </g>
   <g id="matplotlib.axis_2">
    <g id="ytick_1">
     <g id="line2d_9">
      <defs>
       <path id="med660ccaa8" d="M 0 0 
L -3.5 0 
" style="stroke: #000000; stroke-width: 0.8"/>
      </defs>
      <g>
       <use xlink:href="#med660ccaa8" x="53.42442" y="178.132178" style="stroke: #000000; stroke-width: 0.8"/>
      </g>
     </g>
     <g id="text_10">
      <!-- $\mathdefault{−2}$ -->
      <g transform="translate(28.747696 182.975116) scale(0.14 -0.14)">
       <defs>
        <path id="CMSY10-0" d="M 4218 1472 
C 4326 1472 4442 1472 4442 1600 
C 4442 1728 4326 1728 4218 1728 
L 755 1728 
C 646 1728 531 1728 531 1600 
C 531 1472 646 1472 755 1472 
L 4218 1472 
z
" transform="scale(0.015625)"/>
       </defs>
       <use xlink:href="#CMSY10-0" transform="scale(0.996264)"/>
       <use xlink:href="#CMR17-32" transform="translate(77.487468 0) scale(0.996264)"/>
      </g>
     </g>
    </g>
    <g id="ytick_2">
     <g id="line2d_10">
      <g>
       <use xlink:href="#med660ccaa8" x="53.42442" y="155.195148" style="stroke: #000000; stroke-width: 0.8"/>
      </g>
     </g>
     <g id="text_11">
      <!-- $\mathdefault{0}$ -->
      <g transform="translate(39.595931 160.038086) scale(0.14 -0.14)">
       <use xlink:href="#CMR17-30" transform="scale(0.996264)"/>
      </g>
     </g>
    </g>
    <g id="ytick_3">
     <g id="line2d_11">
      <g>
       <use xlink:href="#med660ccaa8" x="53.42442" y="132.258118" style="stroke: #000000; stroke-width: 0.8"/>
      </g>
     </g>
     <g id="text_12">
      <!-- $\mathdefault{2}$ -->
      <g transform="translate(39.595931 137.101056) scale(0.14 -0.14)">
       <use xlink:href="#CMR17-32" transform="scale(0.996264)"/>
      </g>
     </g>
    </g>
    <g id="ytick_4">
     <g id="line2d_12">
      <g>
       <use xlink:href="#med660ccaa8" x="53.42442" y="109.321088" style="stroke: #000000; stroke-width: 0.8"/>
      </g>
     </g>
     <g id="text_13">
      <!-- $\mathdefault{4}$ -->
      <g transform="translate(39.595931 114.164026) scale(0.14 -0.14)">
       <defs>
        <path id="CMR17-34" d="M 2150 4122 
C 2150 4256 2144 4256 2029 4256 
L 128 1254 
L 128 1088 
L 1779 1088 
L 1779 457 
C 1779 224 1766 160 1318 160 
L 1197 160 
L 1197 0 
C 1402 0 1747 0 1965 0 
C 2182 0 2528 0 2733 0 
L 2733 160 
L 2611 160 
C 2163 160 2150 224 2150 457 
L 2150 1088 
L 2803 1088 
L 2803 1254 
L 2150 1254 
L 2150 4122 
z
M 1798 3703 
L 1798 1254 
L 256 1254 
L 1798 3703 
z
" transform="scale(0.015625)"/>
       </defs>
       <use xlink:href="#CMR17-34" transform="scale(0.996264)"/>
      </g>
     </g>
    </g>
    <g id="ytick_5">
     <g id="line2d_13">
      <g>
       <use xlink:href="#med660ccaa8" x="53.42442" y="86.384058" style="stroke: #000000; stroke-width: 0.8"/>
      </g>
     </g>
     <g id="text_14">
      <!-- $\mathdefault{6}$ -->
      <g transform="translate(39.595931 91.226996) scale(0.14 -0.14)">
       <defs>
        <path id="CMR17-36" d="M 678 2176 
C 678 3690 1395 4032 1811 4032 
C 1946 4032 2272 4009 2400 3776 
C 2298 3776 2106 3776 2106 3553 
C 2106 3381 2246 3323 2336 3323 
C 2394 3323 2566 3348 2566 3560 
C 2566 3954 2246 4179 1805 4179 
C 1043 4179 243 3390 243 1984 
C 243 253 966 -128 1478 -128 
C 2099 -128 2688 427 2688 1283 
C 2688 2081 2170 2662 1517 2662 
C 1126 2662 838 2407 678 1960 
L 678 2176 
z
M 1478 25 
C 691 25 691 1200 691 1436 
C 691 1896 909 2560 1504 2560 
C 1613 2560 1926 2560 2138 2120 
C 2253 1870 2253 1609 2253 1289 
C 2253 944 2253 690 2118 434 
C 1978 171 1773 25 1478 25 
z
" transform="scale(0.015625)"/>
       </defs>
       <use xlink:href="#CMR17-36" transform="scale(0.996264)"/>
      </g>
     </g>
    </g>
    <g id="ytick_6">
     <g id="line2d_14">
      <g>
       <use xlink:href="#med660ccaa8" x="53.42442" y="63.447028" style="stroke: #000000; stroke-width: 0.8"/>
      </g>
     </g>
     <g id="text_15">
      <!-- $\mathdefault{8}$ -->
      <g transform="translate(39.595931 68.289966) scale(0.14 -0.14)">
       <defs>
        <path id="CMR17-38" d="M 1741 2264 
C 2144 2467 2554 2773 2554 3263 
C 2554 3841 1990 4179 1472 4179 
C 890 4179 378 3759 378 3180 
C 378 3021 416 2747 666 2505 
C 730 2442 998 2251 1171 2130 
C 883 1983 211 1634 211 934 
C 211 279 838 -128 1459 -128 
C 2144 -128 2720 362 2720 1010 
C 2720 1590 2330 1857 2074 2029 
L 1741 2264 
z
M 902 2822 
C 851 2854 595 3051 595 3351 
C 595 3739 998 4032 1459 4032 
C 1965 4032 2336 3676 2336 3262 
C 2336 2669 1670 2331 1638 2331 
C 1632 2331 1626 2331 1574 2370 
L 902 2822 
z
M 2080 1519 
C 2176 1449 2483 1240 2483 851 
C 2483 381 2010 25 1472 25 
C 890 25 448 438 448 940 
C 448 1443 838 1862 1280 2060 
L 2080 1519 
z
" transform="scale(0.015625)"/>
       </defs>
       <use xlink:href="#CMR17-38" transform="scale(0.996264)"/>
      </g>
     </g>
    </g>
    <g id="ytick_7">
     <g id="line2d_15">
      <g>
       <use xlink:href="#med660ccaa8" x="53.42442" y="40.509998" style="stroke: #000000; stroke-width: 0.8"/>
      </g>
     </g>
     <g id="text_16">
      <!-- $\mathdefault{10}$ -->
      <g transform="translate(32.767443 45.352936) scale(0.14 -0.14)">
       <use xlink:href="#CMR17-31" transform="scale(0.996264)"/>
       <use xlink:href="#CMR17-30" transform="translate(45.690477 0) scale(0.996264)"/>
      </g>
     </g>
    </g>
    <g id="ytick_8">
     <g id="line2d_16">
      <g>
       <use xlink:href="#med660ccaa8" x="53.42442" y="17.572968" style="stroke: #000000; stroke-width: 0.8"/>
      </g>
     </g>
     <g id="text_17">
      <!-- $\mathdefault{12}$ -->
      <g transform="translate(32.767443 22.415906) scale(0.14 -0.14)">
       <use xlink:href="#CMR17-31" transform="scale(0.996264)"/>
       <use xlink:href="#CMR17-32" transform="translate(45.690477 0) scale(0.996264)"/>
      </g>
     </g>
    </g>
    <g id="text_18">
     <!-- $\phi(P, t)$ -->
     <g transform="translate(21.260772 121.636933) rotate(-90) scale(0.14 -0.14)">
      <defs>
       <path id="CMMI12-1e" d="M 2752 4390 
C 2752 4448 2707 4448 2688 4448 
C 2630 4448 2624 4435 2598 4326 
L 2253 2939 
C 2234 2856 2227 2849 2221 2843 
C 2214 2830 2170 2824 2157 2824 
C 1107 2734 301 1864 301 1057 
C 301 361 832 -64 1498 -64 
C 1446 -261 1402 -463 1350 -659 
C 1261 -995 1210 -1204 1210 -1229 
C 1210 -1241 1210 -1280 1274 -1280 
C 1293 -1280 1318 -1280 1331 -1254 
C 1344 -1241 1382 -1089 1408 -1008 
L 1645 -64 
C 2739 -64 3571 854 3571 1680 
C 3571 2343 3085 2816 2374 2816 
L 2752 4390 
z
M 2336 2701 
C 2758 2701 3181 2463 3181 1828 
C 3181 1097 2675 128 1677 50 
L 2336 2701 
z
M 1530 50 
C 1216 50 691 220 691 938 
C 691 1761 1274 2676 2195 2676 
L 1530 50 
z
" transform="scale(0.015625)"/>
       <path id="CMR17-28" d="M 1958 -1561 
C 1958 -1555 1958 -1542 1939 -1523 
C 1645 -1224 858 -407 858 1581 
C 858 3569 1632 4379 1946 4697 
C 1946 4704 1958 4717 1958 4736 
C 1958 4755 1939 4768 1914 4768 
C 1843 4768 1299 4296 986 3594 
C 666 2887 576 2199 576 1588 
C 576 1128 621 351 1005 -471 
C 1312 -1135 1837 -1600 1914 -1600 
C 1946 -1600 1958 -1587 1958 -1561 
z
" transform="scale(0.015625)"/>
       <path id="CMMI12-50" d="M 1894 2023 
L 2970 2023 
C 3853 2023 4736 2673 4736 3401 
C 4736 3898 4314 4352 3507 4352 
L 1530 4352 
C 1408 4352 1350 4352 1350 4231 
C 1350 4167 1408 4167 1504 4167 
C 1894 4167 1894 4116 1894 4046 
C 1894 4034 1894 3995 1869 3899 
L 1005 472 
C 947 249 934 185 486 185 
C 365 185 301 185 301 70 
C 301 0 358 0 397 0 
C 518 0 646 0 768 0 
L 1517 0 
C 1638 0 1773 0 1894 0 
C 1946 0 2016 0 2016 121 
C 2016 185 1958 185 1862 185 
C 1478 185 1472 230 1472 293 
C 1472 325 1478 369 1485 401 
L 1894 2023 
z
M 2355 3930 
C 2413 4167 2438 4167 2688 4167 
L 3322 4167 
C 3802 4167 4198 4013 4198 3535 
C 4198 3369 4115 2827 3821 2534 
C 3712 2419 3405 2176 2822 2176 
L 1920 2176 
L 2355 3930 
z
" transform="scale(0.015625)"/>
       <path id="CMMI12-3b" d="M 1248 -31 
C 1248 343 1126 619 864 619 
C 659 619 557 453 557 313 
C 557 172 653 0 870 0 
C 954 0 1024 26 1082 83 
C 1094 96 1101 96 1107 96 
C 1120 96 1120 5 1120 -27 
C 1120 -240 1082 -659 710 -1080 
C 640 -1157 640 -1170 640 -1183 
C 640 -1216 672 -1248 704 -1248 
C 755 -1248 1248 -771 1248 -31 
z
" transform="scale(0.015625)"/>
       <path id="CMMI12-74" d="M 1286 2566 
L 1875 2566 
C 1997 2566 2061 2566 2061 2681 
C 2061 2752 2022 2752 1894 2752 
L 1331 2752 
L 1568 3692 
C 1594 3781 1594 3794 1594 3840 
C 1594 3943 1510 4000 1427 4000 
C 1376 4000 1229 3981 1178 3775 
L 928 2752 
L 326 2752 
C 198 2752 141 2752 141 2630 
C 141 2566 186 2566 307 2566 
L 877 2566 
L 454 881 
C 403 658 384 594 384 511 
C 384 211 595 -64 954 -64 
C 1600 -64 1946 868 1946 912 
C 1946 951 1920 970 1882 970 
C 1869 970 1843 970 1830 944 
C 1824 938 1818 931 1773 829 
C 1638 511 1344 64 973 64 
C 781 64 768 224 768 364 
C 768 370 768 492 787 568 
L 1286 2566 
z
" transform="scale(0.015625)"/>
       <path id="CMR17-29" d="M 1683 1581 
C 1683 2040 1638 2817 1254 3639 
C 947 4303 422 4768 346 4768 
C 326 4768 301 4761 301 4729 
C 301 4717 307 4710 314 4697 
C 621 4378 1402 3568 1402 1584 
C 1402 -407 627 -1217 314 -1537 
C 307 -1549 301 -1556 301 -1568 
C 301 -1600 326 -1600 346 -1600 
C 416 -1600 960 -1128 1274 -426 
C 1594 281 1683 969 1683 1581 
z
" transform="scale(0.015625)"/>
      </defs>
      <use xlink:href="#CMMI12-1e" transform="scale(0.996264)"/>
      <use xlink:href="#CMR17-28" transform="translate(57.73418 0) scale(0.996264)"/>
      <use xlink:href="#CMMI12-50" transform="translate(93.014948 0) scale(0.996264)"/>
      <use xlink:href="#CMMI12-3b" transform="translate(158.601898 0) scale(0.996264)"/>
      <use xlink:href="#CMMI12-74" transform="translate(202.30348 0) scale(0.996264)"/>
      <use xlink:href="#CMR17-29" transform="translate(237.529811 0) scale(0.996264)"/>
     </g>
    </g>
   </g>
   <g id="line2d_17">
    <path d="M 68.166172 146.851979 
L 70.073575 148.16326 
L 71.468199 149.353914 
L 72.609677 150.604384 
L 73.867531 152.132347 
L 74.216589 152.147189 
L 74.458909 151.946622 
L 74.887429 151.054565 
L 75.261155 149.900551 
L 76.436217 145.192796 
L 80.556473 127.990343 
L 83.109467 118.474295 
L 86.588322 106.828318 
L 88.751444 100.231748 
L 91.240424 93.183765 
L 94.086028 85.792769 
L 97.316067 78.228588 
L 100.953474 70.725813 
L 105.011892 63.573993 
L 109.49585 57.087992 
L 114.397945 51.579162 
L 119.682134 47.339094 
L 125.306871 44.594265 
L 131.206036 43.517987 
L 137.295555 44.219676 
L 143.476643 46.737513 
L 149.640339 51.017579 
L 155.675401 56.892719 
L 161.472427 64.087003 
L 166.931954 72.271949 
L 171.970144 81.128036 
L 176.521481 90.36015 
L 180.543404 99.692504 
L 184.011748 108.860696 
L 186.922134 117.637521 
L 189.286135 125.853282 
L 191.127661 133.402913 
L 192.480797 140.242996 
L 193.384028 146.366276 
L 193.879706 151.797807 
L 194.010901 156.578899 
L 193.819894 160.763406 
L 193.346451 164.407592 
L 192.627707 167.569228 
L 191.697608 170.303924 
L 190.586816 172.662959 
L 189.322083 174.694018 
L 187.927551 176.43865 
L 186.424362 177.933827 
L 184.830954 179.21183 
L 183.162834 180.301178 
L 181.434203 181.226041 
L 179.657099 182.007478 
L 177.842208 182.663518 
L 174.133313 183.658699 
L 170.367819 184.309721 
L 166.592104 184.687332 
L 162.841767 184.842479 
L 159.146027 184.811983 
L 153.75311 184.47568 
L 148.594784 183.847169 
L 143.716053 182.970545 
L 139.151166 181.87195 
L 134.925221 180.560428 
L 131.05398 179.032465 
L 128.676545 177.891322 
L 126.464321 176.652777 
L 124.417609 175.32001 
L 122.537179 173.899413 
L 120.822098 172.398458 
L 119.271483 170.825282 
L 117.883913 169.187912 
L 116.657176 167.494218 
L 115.588932 165.754834 
L 114.277832 163.093049 
L 113.306675 160.427667 
L 112.663575 157.820818 
L 112.335052 155.303418 
L 112.306194 152.881285 
L 112.560598 150.566878 
L 113.07979 148.40391 
L 113.843841 146.455779 
L 114.830935 144.77687 
L 116.017836 143.390327 
L 117.379225 142.28782 
L 118.889143 141.442577 
L 120.520804 140.826847 
L 122.247362 140.420943 
L 124.041369 140.214183 
L 125.878006 140.198623 
L 127.732733 140.363199 
L 130.196987 140.82868 
L 132.61137 141.512556 
L 136.066978 142.772309 
L 149.085083 147.893143 
L 152.522135 148.854252 
L 155.703503 149.522725 
L 159.290702 150.041773 
L 163.727211 150.439789 
L 173.071949 150.98384 
L 178.36913 151.232574 
L 178.36913 151.232574 
" clip-path="url(#pe3102ccd10)" style="fill: none; stroke: #1f77b4; stroke-width: 3; stroke-linecap: square"/>
   </g>
   <g id="line2d_18">
    <path d="M 70.503631 146.769748 
L 72.669314 148.049841 
L 74.48998 149.401442 
L 75.736844 150.615441 
L 76.97996 151.870499 
L 77.378714 151.846257 
L 77.656074 151.59102 
L 77.968055 150.964005 
L 78.572821 149.121159 
L 80.392729 141.977673 
L 83.39529 130.003613 
L 85.806589 121.162283 
L 89.095601 110.225405 
L 91.145049 103.975928 
L 93.506849 97.249549 
L 96.213924 90.121385 
L 99.295586 82.7227 
L 102.777596 75.245809 
L 106.679303 67.942983 
L 111.009109 61.110956 
L 115.765108 55.059421 
L 120.931664 50.085421 
L 126.463017 46.461676 
L 132.307887 44.400173 
L 138.390259 44.063241 
L 144.617329 45.546996 
L 150.883839 48.860298 
L 157.075823 53.891653 
L 163.082807 60.400178 
L 168.796995 68.052262 
L 174.124629 76.502644 
L 178.990065 85.442176 
L 183.336751 94.595647 
L 187.132186 103.716371 
L 190.361538 112.578752 
L 193.028999 120.99715 
L 195.153729 128.838755 
L 196.765017 136.025018 
L 197.901536 142.528693 
L 198.604588 148.350653 
L 198.918385 153.518417 
L 198.886698 158.072637 
L 198.551784 162.064343 
L 197.95299 165.546043 
L 197.126659 168.571308 
L 196.105527 171.19154 
L 194.919138 173.454359 
L 193.592916 175.404072 
L 192.149795 177.079605 
L 190.60954 178.515755 
L 188.989451 179.742977 
L 187.304008 180.788415 
L 185.566065 181.67509 
L 183.786935 182.423142 
L 180.14174 183.570069 
L 176.430238 184.339842 
L 172.699481 184.81267 
L 168.984672 185.046305 
L 165.314053 185.081952 
L 161.709136 184.949374 
L 156.46327 184.481384 
L 151.45232 183.735878 
L 146.712048 182.747387 
L 142.271512 181.533776 
L 138.153339 180.097018 
L 135.59598 179.011145 
L 133.195939 177.820457 
L 130.957661 176.524814 
L 128.885107 175.126457 
L 126.982651 173.630668 
L 125.254207 172.043078 
L 123.703988 170.369119 
L 122.336417 168.611891 
L 121.155452 166.772741 
L 120.165751 164.853895 
L 119.371713 162.860285 
L 118.778437 160.802261 
L 118.390486 158.692018 
L 118.21296 156.540782 
L 118.250677 154.353469 
L 118.508527 152.128145 
L 118.991049 149.859163 
L 119.702715 147.541772 
L 120.647552 145.178425 
L 121.828772 142.781377 
L 123.248751 140.371412 
L 124.909538 137.973986 
L 126.811458 135.617735 
L 128.954278 133.330121 
L 131.336066 131.138023 
L 133.952958 129.06822 
L 136.800506 127.146145 
L 139.871889 125.397342 
L 143.158469 123.844699 
L 146.651166 122.505003 
L 150.338175 121.388028 
L 154.2049 120.494391 
L 158.237696 119.815582 
L 162.421477 119.337248 
L 166.738176 119.04199 
L 171.171053 118.911981 
L 177.997989 118.992482 
L 184.983475 119.36519 
L 192.067259 119.994215 
L 199.191019 120.844628 
L 208.659175 122.255683 
L 217.993762 123.892005 
L 229.338042 126.108973 
L 246.456671 129.726199 
L 310.613717 143.568717 
L 323.847321 146.07262 
L 334.644005 147.900296 
L 344.23267 149.296466 
L 352.322662 150.257827 
L 360.292006 150.981882 
L 363.001212 151.177308 
L 363.001212 151.177308 
" clip-path="url(#pe3102ccd10)" style="fill: none; stroke: #1f77b4; stroke-width: 2; stroke-linecap: square"/>
   </g>
   <g id="line2d_19">
    <path d="M 73.69955 146.658363 
L 75.934905 147.908215 
L 77.539535 149.029248 
L 78.830682 150.192903 
L 80.251046 151.593197 
L 80.524774 151.592989 
L 80.810388 151.413481 
L 81.130273 150.911676 
L 81.745411 149.205922 
L 83.567031 142.622286 
L 87.624297 127.7965 
L 90.390509 118.513946 
L 94.126853 107.130208 
L 96.43656 100.683111 
L 99.083253 93.800871 
L 102.097932 86.584379 
L 105.507698 79.193213 
L 109.333551 71.846945 
L 113.589227 64.815849 
L 118.274494 58.401564 
L 123.378061 52.90401 
L 128.873256 48.602497 
L 134.702201 45.749674 
L 140.802291 44.543713 
L 147.087008 45.133295 
L 153.455773 47.587216 
L 159.798649 51.854135 
L 166.001599 57.729646 
L 171.956477 64.884584 
L 177.563148 72.946081 
L 182.737049 81.577933 
L 187.413109 90.501082 
L 191.546228 99.479649 
L 195.114568 108.310707 
L 198.112263 116.810338 
L 200.551186 124.83002 
L 202.45555 132.266598 
L 203.858557 139.062989 
L 204.800343 145.204628 
L 205.322981 150.698996 
L 205.470288 155.575865 
L 205.284892 159.87521 
L 204.807281 163.645407 
L 204.075314 166.935506 
L 203.123213 169.795077 
L 201.982108 172.271763 
L 200.679936 174.409729 
L 199.240377 176.250369 
L 197.685105 177.830189 
L 196.032817 179.182009 
L 194.299925 180.334719 
L 192.499819 181.314135 
L 190.645138 182.142239 
L 188.746292 182.838232 
L 184.852001 183.897841 
L 180.877131 184.598721 
L 176.868338 185.017278 
L 172.861362 185.208149 
L 168.885816 185.209814 
L 164.964984 185.049687 
L 159.22933 184.548475 
L 153.715905 183.775971 
L 148.467197 182.765229 
L 143.517666 181.534954 
L 138.892874 180.089228 
L 134.611354 178.423212 
L 131.955209 177.189379 
L 129.460339 175.859787 
L 127.128281 174.440441 
L 124.959455 172.939949 
L 122.953324 171.367657 
L 120.246261 168.896069 
L 117.894692 166.321841 
L 115.887351 163.701193 
L 114.210395 161.121722 
L 112.84634 158.679036 
L 111.479735 155.73585 
L 110.580636 153.175045 
L 110.089429 151.019201 
L 109.941739 149.360735 
L 110.070245 148.284898 
L 110.306605 147.857886 
L 110.631042 147.713202 
L 111.016024 147.794934 
L 111.578638 148.163559 
L 112.283331 148.910117 
L 112.904825 149.874983 
L 113.375404 150.993406 
L 113.652019 152.201743 
L 113.715917 153.420657 
L 113.569554 154.564404 
L 113.232765 155.557742 
L 112.737437 156.348146 
L 112.122672 156.910366 
L 111.430645 157.244077 
L 110.702367 157.368417 
L 109.83279 157.286451 
L 108.89169 156.955206 
L 107.98726 156.389231 
L 107.251543 155.654403 
L 106.871881 154.996693 
L 106.752083 154.374687 
L 106.85563 153.87339 
L 107.207214 153.357344 
L 107.806613 152.907195 
L 108.782101 152.483881 
L 110.252917 152.11756 
L 112.35887 151.833116 
L 113.97074 151.708562 
L 113.97074 151.708562 
" clip-path="url(#pe3102ccd10)" style="fill: none; stroke: #1f77b4; stroke-width: 2; stroke-linecap: square"/>
   </g>
   <g id="line2d_20">
    <path d="M 73.69955 152.292514 
L 75.638361 151.698368 
L 77.038806 151.046419 
L 78.005027 150.379046 
L 78.830682 149.530749 
L 79.523967 148.429239 
L 80.113343 146.962513 
L 80.664886 144.95053 
L 83.080876 134.941671 
L 84.811521 129.059432 
L 87.624297 120.465861 
L 92.121782 107.657399 
L 96.43656 95.839133 
L 102.097932 80.976594 
L 105.507698 72.548125 
L 109.333551 63.775462 
L 113.589227 55.133312 
L 118.274494 47.309333 
L 123.378061 41.140146 
L 128.873256 37.45862 
L 134.702201 36.864543 
L 140.802291 39.502067 
L 147.087008 45.011553 
L 153.455773 52.651076 
L 159.798649 61.531941 
L 171.956477 79.951414 
L 182.737049 96.222444 
L 198.112263 118.996821 
L 200.551186 122.960659 
L 202.45555 126.397185 
L 203.858557 129.380626 
L 204.800343 131.977862 
L 205.322981 134.244307 
L 205.470288 136.22866 
L 205.284892 137.971605 
L 204.807281 139.508209 
L 204.075314 140.867343 
L 203.123213 142.073572 
L 201.982108 143.147684 
L 200.679936 144.10709 
L 199.240377 144.966994 
L 197.685105 145.739908 
L 194.299925 147.066386 
L 190.645138 148.155991 
L 186.812568 149.059945 
L 180.877131 150.149468 
L 174.862603 150.999406 
L 166.917216 151.866938 
L 157.364755 152.657063 
L 145.1324 153.413298 
L 129.460339 154.134472 
L 109.950179 155.024229 
L 109.950726 155.046549 
L 110.015997 155.067442 
L 111.016024 155.154051 
L 113.720317 155.296123 
L 112.622726 155.342839 
L 106.752083 155.414685 
L 113.7275 155.433407 
L 113.97074 155.433549 
L 113.97074 155.433549 
" clip-path="url(#pe3102ccd10)" style="fill: none; stroke-dasharray: 3,4.95; stroke-dashoffset: 0; stroke: #d62728; stroke-width: 3"/>
   </g>
   <g id="line2d_21">
    <path d="M 73.69955 140.488305 
L 75.638361 139.640856 
L 77.038806 138.806532 
L 78.22459 137.819726 
L 79.015776 136.887157 
L 79.679317 135.786785 
L 80.387584 134.085816 
L 82.312588 128.696661 
L 83.567031 126.081334 
L 85.603044 122.56197 
L 88.901044 117.57823 
L 99.083253 102.84819 
L 102.097932 98.23578 
L 105.507698 92.790714 
L 109.333551 86.368888 
L 113.589227 78.839361 
L 118.274494 70.129751 
L 128.873256 49.655085 
L 134.702201 38.91862 
L 140.802291 29.248065 
L 147.087008 22.161758 
L 153.455773 19.106225 
L 159.798649 20.876951 
L 166.001599 27.250588 
L 171.956477 37.129158 
L 177.563148 49.065951 
L 182.737049 61.766348 
L 187.413109 74.331856 
L 191.546228 86.257853 
L 195.114568 97.330949 
L 198.112263 107.499875 
L 200.551186 116.793413 
L 202.45555 125.265045 
L 203.858557 132.965472 
L 204.800343 139.937895 
L 205.322981 146.2073 
L 205.470288 151.795258 
L 205.284892 156.719311 
L 204.807281 161.001744 
L 204.075314 164.668453 
L 203.123213 167.753594 
L 201.982108 170.298102 
L 200.679936 172.348128 
L 199.240377 173.954565 
L 197.685105 175.16835 
L 196.032817 176.040287 
L 194.299925 176.618871 
L 192.499819 176.949208 
L 190.645138 177.072043 
L 188.746292 177.023796 
L 184.852001 176.536988 
L 180.877131 175.693468 
L 174.862603 174.067384 
L 159.22933 169.344891 
L 148.467197 166.266681 
L 138.892874 163.754687 
L 127.128281 160.909453 
L 114.73379 157.904326 
L 111.77536 156.993026 
L 110.422085 156.380322 
L 109.976895 155.962419 
L 109.975812 155.677192 
L 110.216596 155.427993 
L 110.882629 155.108746 
L 112.790789 154.535636 
L 113.681995 154.149918 
L 113.681774 153.975748 
L 113.38857 153.809899 
L 112.380336 153.54924 
L 109.148818 153.023651 
L 106.942275 152.563973 
L 106.755005 152.391045 
L 106.762059 152.376069 
L 106.958444 152.260334 
L 107.806613 152.086913 
L 110.252917 151.863485 
L 113.97074 151.681492 
L 113.97074 151.681492 
" clip-path="url(#pe3102ccd10)" style="fill: none; stroke-dasharray: 11.1,4.8; stroke-dashoffset: 0; stroke: #d62728; stroke-width: 3"/>
   </g>
   <g id="line2d_22">
    <path d="M 73.69955 157.73443 
L 75.333853 156.009506 
L 76.77545 154.139216 
L 77.776606 152.51037 
L 78.637324 150.730432 
L 79.36197 148.754966 
L 79.972998 146.518185 
L 80.810388 142.434725 
L 81.745411 137.939652 
L 82.666768 134.44628 
L 84.138806 130.00518 
L 85.603044 126.28014 
L 87.624297 121.688807 
L 90.390509 115.910817 
L 96.43656 104.002456 
L 118.274494 61.613609 
L 123.378061 52.36953 
L 128.873256 43.416107 
L 134.702201 35.616507 
L 140.802291 29.958471 
L 147.087008 27.353157 
L 153.455773 28.323727 
L 159.798649 32.812114 
L 166.001599 40.213522 
L 171.956477 49.618664 
L 177.563148 60.103101 
L 182.737049 70.923968 
L 187.413109 81.584408 
L 191.546228 91.804625 
L 195.114568 101.462192 
L 198.112263 110.520125 
L 200.551186 118.984955 
L 202.45555 126.875793 
L 203.858557 134.207755 
L 204.800343 140.991642 
L 205.322981 147.224205 
L 205.470288 152.901644 
L 205.284892 158.01832 
L 204.807281 162.574764 
L 204.075314 166.576129 
L 203.123213 170.037148 
L 201.982108 172.981032 
L 200.679936 175.438226 
L 199.240377 177.446573 
L 197.685105 179.046566 
L 196.032817 180.281291 
L 194.299925 181.193902 
L 192.499819 181.826546 
L 190.645138 182.218654 
L 188.746292 182.406799 
L 186.812568 182.423875 
L 184.852001 182.299439 
L 180.877131 181.725552 
L 176.868338 180.852045 
L 170.86792 179.235148 
L 159.22933 175.721498 
L 145.1324 171.521952 
L 118.639582 163.837283 
L 115.292585 162.585762 
L 112.84634 161.430792 
L 111.479735 160.559213 
L 110.580636 159.72374 
L 110.089429 158.917281 
L 109.941739 158.13519 
L 110.070245 157.374585 
L 110.514852 156.452437 
L 111.435441 155.217066 
L 113.295755 152.838489 
L 113.652019 152.013527 
L 113.715917 151.38879 
L 113.569554 150.823018 
L 113.232765 150.316504 
L 112.622726 149.785647 
L 111.573201 149.203496 
L 110.118986 148.666604 
L 108.412788 148.268125 
L 107.251543 148.200599 
L 106.842743 148.349594 
L 106.752083 148.5781 
L 106.886141 148.961581 
L 107.402831 149.627021 
L 108.537219 150.703767 
L 110.775892 152.490617 
L 113.97074 154.793084 
L 113.97074 154.793084 
" clip-path="url(#pe3102ccd10)" style="fill: none; stroke-dasharray: 19.2,4.8,3,4.8; stroke-dashoffset: 0; stroke: #d62728; stroke-width: 3"/>
   </g>
   <g id="line2d_23">
    <path d="M 70.42531 146.772493 
L 72.471218 148.022235 
L 74.203318 149.341506 
L 75.470112 150.585134 
L 76.768384 151.904864 
L 77.079119 151.88912 
L 77.353825 151.670938 
L 77.657832 151.091019 
L 78.167118 149.594724 
L 79.403773 144.762542 
L 84.160121 125.724163 
L 86.487941 117.409895 
L 88.834992 109.659893 
L 91.693809 100.965281 
L 94.221414 93.893925 
L 97.115026 86.463659 
L 99.263026 81.390978 
L 101.595701 76.298943 
L 104.119557 71.267283 
L 106.839042 66.385921 
L 109.756087 61.751604 
L 112.869657 57.463172 
L 114.498919 55.479082 
L 116.175421 53.617325 
L 117.898068 51.889068 
L 119.665557 50.304876 
L 121.476304 48.87479 
L 123.328539 47.608062 
L 125.220215 46.51342 
L 127.149049 45.598806 
L 129.11255 44.871327 
L 131.107971 44.337481 
L 133.132355 44.0029 
L 135.182466 43.872408 
L 137.254881 43.949953 
L 139.345968 44.238488 
L 141.451863 44.739905 
L 143.568514 45.45485 
L 145.691708 46.382589 
L 147.817113 47.520772 
L 149.940236 48.86534 
L 152.056538 50.410377 
L 154.161409 52.148018 
L 156.250284 54.068694 
L 158.318648 56.161171 
L 160.362077 58.412961 
L 164.35718 63.340324 
L 168.203602 68.740389 
L 171.872824 74.506129 
L 175.340097 80.538443 
L 178.584606 86.74567 
L 181.589588 93.040996 
L 184.342517 99.341463 
L 186.835199 105.568842 
L 189.063767 111.65206 
L 191.028549 117.530197 
L 192.733548 123.154828 
L 194.186052 128.491 
L 195.395794 133.516302 
L 196.374366 138.219007 
L 197.437336 144.663369 
L 198.056013 150.392272 
L 198.278055 155.442951 
L 198.150259 159.865837 
L 197.716932 163.717852 
L 197.019142 167.058006 
L 196.094212 169.943911 
L 194.97555 172.429765 
L 193.69282 174.565256 
L 192.272142 176.395118 
L 190.736265 177.958961 
L 189.105047 179.291721 
L 187.39567 180.423762 
L 185.623036 181.381472 
L 183.183042 182.426019 
L 180.678953 183.245728 
L 177.490484 184.009155 
L 174.268 184.533803 
L 170.392731 184.907028 
L 166.541745 185.050456 
L 162.116155 184.977693 
L 157.795009 184.686703 
L 153.017789 184.125987 
L 148.441215 183.353159 
L 144.088498 182.3898 
L 139.978405 181.246239 
L 136.127419 179.92296 
L 132.982627 178.614288 
L 130.058435 177.163365 
L 127.364642 175.573785 
L 124.91012 173.854766 
L 122.702366 172.01883 
L 120.747409 170.078341 
L 119.050349 168.043838 
L 117.615563 165.925979 
L 116.597282 164.056499 
L 115.658045 161.832855 
L 114.986925 159.589624 
L 114.582211 157.348517 
L 114.445429 155.435541 
L 114.501399 153.526771 
L 114.750111 151.616185 
L 115.285332 149.381461 
L 116.086914 147.148753 
L 116.987596 145.252717 
L 118.085629 143.39229 
L 119.379815 141.585823 
L 120.867592 139.848707 
L 122.545304 138.192788 
L 124.408529 136.626953 
L 126.809898 134.924866 
L 129.447138 133.37195 
L 132.308446 131.987626 
L 134.928131 130.951879 
L 137.690094 130.06861 
L 141.074506 129.241843 
L 144.611229 128.637091 
L 148.275655 128.24544 
L 152.588582 128.034811 
L 157.001926 128.042593 
L 162.048311 128.267435 
L 167.710649 128.735144 
L 173.951246 129.463519 
L 181.266804 130.554226 
L 188.980999 131.934879 
L 197.997622 133.776879 
L 211.292574 136.746968 
L 237.617924 142.654069 
L 251.6136 145.54959 
L 262.425975 147.57184 
L 271.134645 148.984323 
L 278.827187 150.009218 
L 285.92834 150.733279 
L 291.499109 151.146454 
L 291.499109 151.146454 
" clip-path="url(#pe3102ccd10)" style="fill: none; stroke-dasharray: 11.1,4.8; stroke-dashoffset: 0; stroke: #ff7f0e; stroke-width: 3"/>
   </g>
   <g id="line2d_24">
    <path d="M 70.42531 182.19186 
L 73.378349 153.926504 
L 76.448289 126.717248 
L 77.260336 120.736647 
L 77.771367 118.345174 
L 78.323748 116.828491 
L 78.90217 115.877388 
L 79.698921 115.048355 
L 80.600162 114.42089 
L 82.082665 113.700699 
L 84.160121 112.965848 
L 87.602318 112.02249 
L 92.49773 110.930184 
L 98.166413 109.869285 
L 104.119557 108.941171 
L 111.288495 108.067811 
L 117.898068 107.50954 
L 123.328539 107.239909 
L 129.11255 107.153304 
L 135.182466 107.301235 
L 141.451863 107.73236 
L 145.691708 108.197883 
L 149.940236 108.817131 
L 154.161409 109.596313 
L 158.318648 110.538047 
L 162.376287 111.641256 
L 166.300844 112.901013 
L 170.062008 114.308903 
L 173.633096 115.853457 
L 176.991338 117.520628 
L 180.117923 119.294315 
L 182.998182 121.157023 
L 185.621732 123.090599 
L 187.982567 125.076823 
L 190.078963 127.097942 
L 191.913131 129.137371 
L 193.4908 131.17995 
L 194.820584 133.212292 
L 195.913193 135.222614 
L 196.780989 137.201127 
L 197.437336 139.139593 
L 197.896205 141.031542 
L 198.171749 142.871727 
L 198.278055 144.656411 
L 198.150259 147.223625 
L 197.716932 149.654787 
L 197.019142 151.948246 
L 196.094212 154.105122 
L 194.97555 156.128294 
L 193.69282 158.021956 
L 192.272142 159.791162 
L 190.202218 161.965685 
L 187.973184 163.941522 
L 185.623036 165.731613 
L 183.183042 167.348257 
L 180.045469 169.142773 
L 176.84778 170.705218 
L 173.621827 172.054487 
L 169.748374 173.416316 
L 165.904303 174.522602 
L 162.116155 175.397588 
L 157.795009 176.155044 
L 153.6045 176.658636 
L 149.565184 176.936041 
L 145.154611 177.007438 
L 140.982262 176.847048 
L 137.065015 176.482392 
L 133.418609 175.93723 
L 130.058435 175.231819 
L 126.999158 174.381917 
L 124.253866 173.398882 
L 121.833266 172.288601 
L 119.988248 171.213851 
L 118.403105 170.041477 
L 117.081889 168.768518 
L 116.161894 167.594147 
L 115.438983 166.339267 
L 114.912853 164.999747 
L 114.582211 163.571255 
L 114.445429 162.049671 
L 114.501399 160.432142 
L 114.810365 158.42278 
L 115.383478 156.283983 
L 116.223313 154.022148 
L 117.331706 151.647369 
L 118.708334 149.173581 
L 120.606343 146.247735 
L 122.843083 143.248638 
L 125.408149 140.217669 
L 127.911889 137.578529 
L 130.646775 134.991289 
L 133.599744 132.496912 
L 136.754407 130.13638 
L 140.090928 127.948402 
L 143.078401 126.236986 
L 146.167502 124.696636 
L 149.34263 123.34335 
L 152.588582 122.190262 
L 155.890924 121.247337 
L 159.236385 120.523699 
L 162.612694 120.024798 
L 166.008607 119.755062 
L 169.413739 119.715417 
L 172.818197 119.903499 
L 176.212736 120.314208 
L 179.588556 120.938705 
L 182.937299 121.765106 
L 186.7996 122.96205 
L 190.603347 124.382043 
L 194.866311 126.234837 
L 199.027997 128.282159 
L 204.073707 131.032945 
L 209.883328 134.480727 
L 218.9474 140.185703 
L 227.634789 145.569717 
L 232.230781 148.175753 
L 236.219155 150.189033 
L 239.665939 151.675038 
L 242.628175 152.715464 
L 245.463221 153.463273 
L 247.880771 153.881607 
L 250.205797 154.069457 
L 252.442072 154.031763 
L 254.59346 153.778847 
L 256.916973 153.24972 
L 259.14333 152.487544 
L 261.277862 151.520631 
L 263.548269 150.247305 
L 266.141762 148.518668 
L 269.592946 145.898121 
L 273.897329 142.625443 
L 275.826489 141.434896 
L 277.349724 140.762134 
L 278.502611 140.472396 
L 279.62956 140.428858 
L 280.57598 140.6128 
L 281.505404 141.02555 
L 282.41874 141.692373 
L 283.316896 142.637416 
L 284.20071 143.884781 
L 285.214695 145.756248 
L 286.211427 148.115806 
L 287.192072 151.004695 
L 288.294482 155.012445 
L 289.378849 159.833115 
L 290.578998 166.315487 
L 291.499109 172.191437 
L 291.499109 172.191437 
" clip-path="url(#pe3102ccd10)" style="fill: none; stroke-dasharray: 19.2,4.8,3,4.8; stroke-dashoffset: 0; stroke: #8c564b; stroke-width: 3"/>
   </g>
   <g id="patch_3">
    <path d="M 53.42442 193.536948 
L 53.42442 10.8 
" style="fill: none; stroke: #000000; stroke-width: 0.8; stroke-linejoin: miter; stroke-linecap: square"/>
   </g>
   <g id="patch_4">
    <path d="M 377.742964 193.536948 
L 377.742964 10.8 
" style="fill: none; stroke: #000000; stroke-width: 0.8; stroke-linejoin: miter; stroke-linecap: square"/>
   </g>
   <g id="patch_5">
    <path d="M 53.42442 193.536948 
L 377.742964 193.536948 
" style="fill: none; stroke: #000000; stroke-width: 0.8; stroke-linejoin: miter; stroke-linecap: square"/>
   </g>
   <g id="patch_6">
    <path d="M 53.42442 10.8 
L 377.742964 10.8 
" style="fill: none; stroke: #000000; stroke-width: 0.8; stroke-linejoin: miter; stroke-linecap: square"/>
   </g>
   <g id="legend_1">
    <g id="line2d_25">
     <path d="M 205.268901 31.866486 
L 219.268901 31.866486 
L 233.268901 31.866486 
" style="fill: none; stroke: #1f77b4; stroke-width: 3; stroke-linecap: square"/>
    </g>
    <g id="text_19">
     <!-- $\hat{\phi}$ -->
     <g transform="translate(244.468901 36.766486) scale(0.14 -0.14)">
      <defs>
       <path id="CMR17-5e" d="M 1466 4421 
L 678 3555 
L 755 3478 
L 1466 4166 
L 2176 3478 
L 2253 3555 
L 1466 4421 
z
" transform="scale(0.015625)"/>
      </defs>
      <use xlink:href="#CMR17-5e" transform="translate(14.151005 26.296621) scale(0.996264)"/>
      <use xlink:href="#CMMI12-1e" transform="scale(0.996264)"/>
     </g>
    </g>
    <g id="line2d_26">
     <path d="M 205.268901 51.378515 
L 219.268901 51.378515 
L 233.268901 51.378515 
" style="fill: none; stroke-dasharray: 3,4.95; stroke-dashoffset: 0; stroke: #d62728; stroke-width: 3"/>
    </g>
    <g id="text_20">
     <!-- $\phi^s_9$ -->
     <g transform="translate(244.468901 56.278515) scale(0.14 -0.14)">
      <defs>
       <path id="CMMI12-73" d="M 1459 1280 
C 1568 1261 1741 1223 1779 1216 
C 1862 1192 2150 1090 2150 783 
C 2150 586 1971 70 1229 70 
C 1094 70 614 70 486 436 
C 742 404 870 603 870 745 
C 870 880 781 950 653 950 
C 512 950 326 841 326 552 
C 326 173 710 -64 1222 -64 
C 2195 -64 2483 651 2483 984 
C 2483 1079 2483 1258 2278 1462 
C 2118 1616 1965 1648 1619 1718 
C 1446 1756 1171 1814 1171 2101 
C 1171 2229 1286 2689 1894 2689 
C 2163 2689 2426 2589 2490 2368 
C 2208 2368 2195 2125 2195 2119 
C 2195 1984 2317 1946 2374 1946 
C 2464 1946 2643 2015 2643 2281 
C 2643 2545 2400 2816 1901 2816 
C 1062 2816 838 2160 838 1899 
C 838 1414 1312 1312 1459 1280 
z
" transform="scale(0.015625)"/>
       <path id="CMR17-39" d="M 2253 1864 
C 2253 464 1670 31 1190 31 
C 1043 31 685 31 538 294 
C 704 268 826 357 826 518 
C 826 692 685 749 595 749 
C 538 749 365 723 365 506 
C 365 71 742 -128 1203 -128 
C 1939 -128 2688 674 2688 2073 
C 2688 3817 1971 4179 1485 4179 
C 851 4179 243 3628 243 2778 
C 243 1991 762 1408 1414 1408 
C 1952 1408 2189 1903 2253 2112 
L 2253 1864 
z
M 1427 1510 
C 1254 1510 1011 1542 813 1922 
C 678 2169 678 2461 678 2771 
C 678 3146 678 3405 858 3684 
C 947 3817 1114 4032 1485 4032 
C 2240 4032 2240 2885 2240 2632 
C 2240 2182 2035 1510 1427 1510 
z
" transform="scale(0.015625)"/>
      </defs>
      <use xlink:href="#CMMI12-1e" transform="scale(0.996264)"/>
      <use xlink:href="#CMMI12-73" transform="translate(57.73418 36.153639) scale(0.697382)"/>
      <use xlink:href="#CMR17-39" transform="translate(57.73418 -24.740171) scale(0.697382)"/>
     </g>
    </g>
    <g id="line2d_27">
     <path d="M 205.268901 71.640493 
L 219.268901 71.640493 
L 233.268901 71.640493 
" style="fill: none; stroke-dasharray: 11.1,4.8; stroke-dashoffset: 0; stroke: #d62728; stroke-width: 3"/>
    </g>
    <g id="text_21">
     <!-- $\phi^s_{10}$ -->
     <g transform="translate(244.468901 76.540493) scale(0.14 -0.14)">
      <use xlink:href="#CMMI12-1e" transform="scale(0.996264)"/>
      <use xlink:href="#CMMI12-73" transform="translate(57.73418 36.153639) scale(0.697382)"/>
      <use xlink:href="#CMR17-31" transform="translate(57.73418 -24.740171) scale(0.697382)"/>
      <use xlink:href="#CMR17-30" transform="translate(89.717362 -24.740171) scale(0.697382)"/>
     </g>
    </g>
    <g id="line2d_28">
     <path d="M 290.586126 31.866486 
L 304.586126 31.866486 
L 318.586126 31.866486 
" style="fill: none; stroke-dasharray: 19.2,4.8,3,4.8; stroke-dashoffset: 0; stroke: #d62728; stroke-width: 3"/>
    </g>
    <g id="text_22">
     <!-- $\phi^s_{16}$ -->
     <g transform="translate(329.786126 36.766486) scale(0.14 -0.14)">
      <use xlink:href="#CMMI12-1e" transform="scale(0.996264)"/>
      <use xlink:href="#CMMI12-73" transform="translate(57.73418 36.153639) scale(0.697382)"/>
      <use xlink:href="#CMR17-31" transform="translate(57.73418 -24.740171) scale(0.697382)"/>
      <use xlink:href="#CMR17-36" transform="translate(89.717362 -24.740171) scale(0.697382)"/>
     </g>
    </g>
    <g id="line2d_29">
     <path d="M 290.586126 52.128464 
L 304.586126 52.128464 
L 318.586126 52.128464 
" style="fill: none; stroke-dasharray: 11.1,4.8; stroke-dashoffset: 0; stroke: #ff7f0e; stroke-width: 3"/>
    </g>
    <g id="text_23">
     <!-- $\phi^*$ -->
     <g transform="translate(329.786126 57.028464) scale(0.14 -0.14)">
      <defs>
       <path id="CMSY10-3" d="M 1760 2719 
C 1766 2808 1766 2962 1600 2962 
C 1498 2962 1414 2879 1434 2795 
L 1434 2712 
L 1523 1720 
L 704 2316 
C 646 2348 634 2360 589 2360 
C 499 2360 416 2271 416 2181 
C 416 2079 480 2053 544 2021 
L 1453 1586 
L 570 1158 
C 467 1107 416 1081 416 985 
C 416 889 499 806 589 806 
C 634 806 646 806 806 928 
L 1523 1446 
L 1427 371 
C 1427 236 1542 204 1594 204 
C 1670 204 1766 248 1766 371 
L 1670 1446 
L 2490 851 
C 2547 819 2560 806 2605 806 
C 2694 806 2778 896 2778 985 
C 2778 1081 2720 1113 2643 1152 
C 2259 1343 2246 1343 1741 1580 
L 2624 2008 
C 2726 2060 2778 2085 2778 2181 
C 2778 2277 2694 2360 2605 2360 
C 2560 2360 2547 2360 2387 2239 
L 1670 1720 
L 1760 2719 
z
" transform="scale(0.015625)"/>
      </defs>
      <use xlink:href="#CMMI12-1e" transform="scale(0.996264)"/>
      <use xlink:href="#CMSY10-3" transform="translate(57.73418 36.153639) scale(0.697382)"/>
     </g>
    </g>
    <g id="line2d_30">
     <path d="M 290.586126 71.640493 
L 304.586126 71.640493 
L 318.586126 71.640493 
" style="fill: none; stroke-dasharray: 19.2,4.8,3,4.8; stroke-dashoffset: 0; stroke: #8c564b; stroke-width: 3"/>
    </g>
    <g id="text_24">
     <!-- $ \phi^s_{s} \cdot dt$ -->
     <g transform="translate(329.786126 76.540493) scale(0.14 -0.14)">
      <defs>
       <path id="CMSY10-1" d="M 1229 1619 
C 1229 1805 1075 1958 890 1958 
C 704 1958 550 1805 550 1619 
C 550 1433 704 1280 890 1280 
C 1075 1280 1229 1433 1229 1619 
z
" transform="scale(0.015625)"/>
       <path id="CMMI12-64" d="M 3219 4257 
C 3226 4282 3238 4320 3238 4352 
C 3238 4416 3174 4416 3162 4416 
C 3155 4416 2842 4388 2810 4380 
C 2701 4373 2605 4358 2490 4358 
C 2330 4345 2285 4339 2285 4224 
C 2285 4160 2336 4160 2426 4160 
C 2739 4160 2746 4103 2746 4040 
C 2746 4002 2733 3952 2726 3933 
L 2336 2395 
C 2266 2561 2093 2816 1760 2816 
C 1037 2816 256 1884 256 939 
C 256 307 627 -64 1062 -64 
C 1414 -64 1715 211 1894 422 
C 1958 45 2259 -64 2451 -64 
C 2643 -64 2797 51 2912 281 
C 3014 498 3104 888 3104 913 
C 3104 945 3078 971 3040 971 
C 2982 971 2976 939 2950 843 
C 2854 466 2733 64 2470 64 
C 2285 64 2272 229 2272 357 
C 2272 382 2272 515 2317 694 
L 3219 4257 
z
M 1926 760 
C 1894 651 1894 639 1805 517 
C 1664 338 1382 64 1082 64 
C 819 64 672 300 672 677 
C 672 1028 870 1743 992 2012 
C 1210 2459 1510 2689 1760 2689 
C 2182 2689 2266 2165 2266 2114 
C 2266 2108 2246 2024 2240 2012 
L 1926 760 
z
" transform="scale(0.015625)"/>
      </defs>
      <use xlink:href="#CMMI12-1e" transform="scale(0.996264)"/>
      <use xlink:href="#CMMI12-73" transform="translate(57.73418 36.153639) scale(0.697382)"/>
      <use xlink:href="#CMMI12-73" transform="translate(57.73418 -24.62935) scale(0.697382)"/>
      <use xlink:href="#CMSY10-1" transform="translate(112.536408 0) scale(0.996264)"/>
      <use xlink:href="#CMMI12-64" transform="translate(162.3497 0) scale(0.996264)"/>
      <use xlink:href="#CMMI12-74" transform="translate(213.038797 0) scale(0.996264)"/>
     </g>
    </g>
   </g>
  </g>
 </g>
 <defs>
  <clipPath id="pe3102ccd10">
   <rect x="53.42442" y="10.8" width="324.318544" height="182.736948"/>
  </clipPath>
 </defs>
</svg>
