<?xml version="1.0" encoding="utf-8" standalone="no"?>
<!DOCTYPE svg PUBLIC "-//W3C//DTD SVG 1.1//EN"
  "http://www.w3.org/Graphics/SVG/1.1/DTD/svg11.dtd">
<svg xmlns:xlink="http://www.w3.org/1999/xlink" width="388.542964pt" height="240.132758pt" viewBox="0 0 388.542964 240.132758" xmlns="http://www.w3.org/2000/svg" version="1.1">
 <metadata>
  <rdf:RDF xmlns:dc="http://purl.org/dc/elements/1.1/" xmlns:cc="http://creativecommons.org/ns#" xmlns:rdf="http://www.w3.org/1999/02/22-rdf-syntax-ns#">
   <cc:Work>
    <dc:type rdf:resource="http://purl.org/dc/dcmitype/StillImage"/>
    <dc:date>2024-12-29T13:16:49.282472</dc:date>
    <dc:format>image/svg+xml</dc:format>
    <dc:creator>
     <cc:Agent>
      <dc:title>Matplotlib v3.7.5, https://matplotlib.org/</dc:title>
     </cc:Agent>
    </dc:creator>
   </cc:Work>
  </rdf:RDF>
 </metadata>
 <defs>
  <style type="text/css">*{stroke-linejoin: round; stroke-linecap: butt}</style>
 </defs>
 <g id="figure_1">
  <g id="patch_1">
   <path d="M 0 240.132758 
L 388.542964 240.132758 
L 388.542964 0 
L 0 0 
z
" style="fill: #ffffff"/>
  </g>
  <g id="axes_1">
   <g id="patch_2">
    <path d="M 53.42442 193.536948 
L 377.742964 193.536948 
L 377.742964 10.8 
L 53.42442 10.8 
z
" style="fill: #ffffff"/>
   </g>
   <g id="matplotlib.axis_1">
    <g id="xtick_1">
     <g id="line2d_1">
      <defs>
       <path id="m11291acaef" d="M 0 0 
L 0 3.5 
" style="stroke: #000000; stroke-width: 0.8"/>
      </defs>
      <g>
       <use xlink:href="#m11291acaef" x="68.166172" y="193.536948" style="stroke: #000000; stroke-width: 0.8"/>
      </g>
     </g>
     <g id="text_1">
      <!-- $\mathdefault{0.0}$ -->
      <g transform="translate(59.440881 210.222825) scale(0.14 -0.14)">
       <defs>
        <path id="CMR17-30" d="M 2688 2025 
C 2688 2416 2682 3080 2413 3591 
C 2176 4039 1798 4198 1466 4198 
C 1158 4198 768 4058 525 3597 
C 269 3118 243 2524 243 2025 
C 243 1661 250 1106 448 619 
C 723 -39 1216 -128 1466 -128 
C 1760 -128 2208 -7 2470 600 
C 2662 1042 2688 1559 2688 2025 
z
M 1466 -26 
C 1056 -26 813 325 723 812 
C 653 1188 653 1738 653 2096 
C 653 2588 653 2997 736 3387 
C 858 3929 1216 4096 1466 4096 
C 1728 4096 2067 3923 2189 3400 
C 2272 3036 2278 2607 2278 2096 
C 2278 1680 2278 1169 2202 792 
C 2067 95 1690 -26 1466 -26 
z
" transform="scale(0.015625)"/>
        <path id="CMMI12-3a" d="M 1178 307 
C 1178 492 1024 619 870 619 
C 685 619 557 466 557 313 
C 557 128 710 0 864 0 
C 1050 0 1178 153 1178 307 
z
" transform="scale(0.015625)"/>
       </defs>
       <use xlink:href="#CMR17-30" transform="scale(0.996264)"/>
       <use xlink:href="#CMMI12-3a" transform="translate(45.690477 0) scale(0.996264)"/>
       <use xlink:href="#CMR17-30" transform="translate(72.787654 0) scale(0.996264)"/>
      </g>
     </g>
    </g>
    <g id="xtick_2">
     <g id="line2d_2">
      <g>
       <use xlink:href="#m11291acaef" x="127.13318" y="193.536948" style="stroke: #000000; stroke-width: 0.8"/>
      </g>
     </g>
     <g id="text_2">
      <!-- $\mathdefault{0.2}$ -->
      <g transform="translate(118.407889 210.222825) scale(0.14 -0.14)">
       <defs>
        <path id="CMR17-32" d="M 2669 989 
L 2554 989 
C 2490 536 2438 459 2413 420 
C 2381 369 1920 369 1830 369 
L 602 369 
C 832 619 1280 1072 1824 1597 
C 2214 1967 2669 2402 2669 3035 
C 2669 3790 2067 4224 1395 4224 
C 691 4224 262 3604 262 3030 
C 262 2780 448 2748 525 2748 
C 589 2748 781 2787 781 3010 
C 781 3207 614 3264 525 3264 
C 486 3264 448 3258 422 3245 
C 544 3790 915 4058 1306 4058 
C 1862 4058 2227 3617 2227 3035 
C 2227 2479 1901 2000 1536 1584 
L 262 146 
L 262 0 
L 2515 0 
L 2669 989 
z
" transform="scale(0.015625)"/>
       </defs>
       <use xlink:href="#CMR17-30" transform="scale(0.996264)"/>
       <use xlink:href="#CMMI12-3a" transform="translate(45.690477 0) scale(0.996264)"/>
       <use xlink:href="#CMR17-32" transform="translate(72.787654 0) scale(0.996264)"/>
      </g>
     </g>
    </g>
    <g id="xtick_3">
     <g id="line2d_3">
      <g>
       <use xlink:href="#m11291acaef" x="186.100188" y="193.536948" style="stroke: #000000; stroke-width: 0.8"/>
      </g>
     </g>
     <g id="text_3">
      <!-- $\mathdefault{0.4}$ -->
      <g transform="translate(177.374897 210.222825) scale(0.14 -0.14)">
       <defs>
        <path id="CMR17-34" d="M 2150 4122 
C 2150 4256 2144 4256 2029 4256 
L 128 1254 
L 128 1088 
L 1779 1088 
L 1779 457 
C 1779 224 1766 160 1318 160 
L 1197 160 
L 1197 0 
C 1402 0 1747 0 1965 0 
C 2182 0 2528 0 2733 0 
L 2733 160 
L 2611 160 
C 2163 160 2150 224 2150 457 
L 2150 1088 
L 2803 1088 
L 2803 1254 
L 2150 1254 
L 2150 4122 
z
M 1798 3703 
L 1798 1254 
L 256 1254 
L 1798 3703 
z
" transform="scale(0.015625)"/>
       </defs>
       <use xlink:href="#CMR17-30" transform="scale(0.996264)"/>
       <use xlink:href="#CMMI12-3a" transform="translate(45.690477 0) scale(0.996264)"/>
       <use xlink:href="#CMR17-34" transform="translate(72.787654 0) scale(0.996264)"/>
      </g>
     </g>
    </g>
    <g id="xtick_4">
     <g id="line2d_4">
      <g>
       <use xlink:href="#m11291acaef" x="245.067196" y="193.536948" style="stroke: #000000; stroke-width: 0.8"/>
      </g>
     </g>
     <g id="text_4">
      <!-- $\mathdefault{0.6}$ -->
      <g transform="translate(236.341905 210.222825) scale(0.14 -0.14)">
       <defs>
        <path id="CMR17-36" d="M 678 2176 
C 678 3690 1395 4032 1811 4032 
C 1946 4032 2272 4009 2400 3776 
C 2298 3776 2106 3776 2106 3553 
C 2106 3381 2246 3323 2336 3323 
C 2394 3323 2566 3348 2566 3560 
C 2566 3954 2246 4179 1805 4179 
C 1043 4179 243 3390 243 1984 
C 243 253 966 -128 1478 -128 
C 2099 -128 2688 427 2688 1283 
C 2688 2081 2170 2662 1517 2662 
C 1126 2662 838 2407 678 1960 
L 678 2176 
z
M 1478 25 
C 691 25 691 1200 691 1436 
C 691 1896 909 2560 1504 2560 
C 1613 2560 1926 2560 2138 2120 
C 2253 1870 2253 1609 2253 1289 
C 2253 944 2253 690 2118 434 
C 1978 171 1773 25 1478 25 
z
" transform="scale(0.015625)"/>
       </defs>
       <use xlink:href="#CMR17-30" transform="scale(0.996264)"/>
       <use xlink:href="#CMMI12-3a" transform="translate(45.690477 0) scale(0.996264)"/>
       <use xlink:href="#CMR17-36" transform="translate(72.787654 0) scale(0.996264)"/>
      </g>
     </g>
    </g>
    <g id="xtick_5">
     <g id="line2d_5">
      <g>
       <use xlink:href="#m11291acaef" x="304.034204" y="193.536948" style="stroke: #000000; stroke-width: 0.8"/>
      </g>
     </g>
     <g id="text_5">
      <!-- $\mathdefault{0.8}$ -->
      <g transform="translate(295.308913 210.222825) scale(0.14 -0.14)">
       <defs>
        <path id="CMR17-38" d="M 1741 2264 
C 2144 2467 2554 2773 2554 3263 
C 2554 3841 1990 4179 1472 4179 
C 890 4179 378 3759 378 3180 
C 378 3021 416 2747 666 2505 
C 730 2442 998 2251 1171 2130 
C 883 1983 211 1634 211 934 
C 211 279 838 -128 1459 -128 
C 2144 -128 2720 362 2720 1010 
C 2720 1590 2330 1857 2074 2029 
L 1741 2264 
z
M 902 2822 
C 851 2854 595 3051 595 3351 
C 595 3739 998 4032 1459 4032 
C 1965 4032 2336 3676 2336 3262 
C 2336 2669 1670 2331 1638 2331 
C 1632 2331 1626 2331 1574 2370 
L 902 2822 
z
M 2080 1519 
C 2176 1449 2483 1240 2483 851 
C 2483 381 2010 25 1472 25 
C 890 25 448 438 448 940 
C 448 1443 838 1862 1280 2060 
L 2080 1519 
z
" transform="scale(0.015625)"/>
       </defs>
       <use xlink:href="#CMR17-30" transform="scale(0.996264)"/>
       <use xlink:href="#CMMI12-3a" transform="translate(45.690477 0) scale(0.996264)"/>
       <use xlink:href="#CMR17-38" transform="translate(72.787654 0) scale(0.996264)"/>
      </g>
     </g>
    </g>
    <g id="xtick_6">
     <g id="line2d_6">
      <g>
       <use xlink:href="#m11291acaef" x="363.001212" y="193.536948" style="stroke: #000000; stroke-width: 0.8"/>
      </g>
     </g>
     <g id="text_6">
      <!-- $\mathdefault{1.0}$ -->
      <g transform="translate(354.275921 210.222825) scale(0.14 -0.14)">
       <defs>
        <path id="CMR17-31" d="M 1702 4058 
C 1702 4192 1696 4192 1606 4192 
C 1357 3916 979 3827 621 3827 
C 602 3827 570 3827 563 3808 
C 557 3795 557 3782 557 3648 
C 755 3648 1088 3686 1344 3839 
L 1344 461 
C 1344 236 1331 160 781 160 
L 589 160 
L 589 0 
C 896 0 1216 0 1523 0 
C 1830 0 2150 0 2458 0 
L 2458 160 
L 2266 160 
C 1715 160 1702 230 1702 458 
L 1702 4058 
z
" transform="scale(0.015625)"/>
       </defs>
       <use xlink:href="#CMR17-31" transform="scale(0.996264)"/>
       <use xlink:href="#CMMI12-3a" transform="translate(45.690477 0) scale(0.996264)"/>
       <use xlink:href="#CMR17-30" transform="translate(72.787654 0) scale(0.996264)"/>
      </g>
     </g>
    </g>
    <g id="text_7">
     <!-- t -->
     <g transform="translate(212.928169 226.620729) scale(0.14 -0.14)">
      <defs>
       <path id="CMR17-74" d="M 966 2560 
L 1862 2560 
L 1862 2725 
L 966 2725 
L 966 3904 
L 851 3904 
C 838 3245 614 2668 70 2668 
L 70 2560 
L 627 2560 
L 627 771 
C 627 650 627 -64 1370 -64 
C 1747 -64 1965 306 1965 777 
L 1965 1140 
L 1850 1140 
L 1850 783 
C 1850 344 1677 51 1408 51 
C 1222 51 966 178 966 758 
L 966 2560 
z
" transform="scale(0.015625)"/>
      </defs>
      <use xlink:href="#CMR17-74" transform="scale(0.996264)"/>
     </g>
    </g>
   </g>
   <g id="matplotlib.axis_2">
    <g id="ytick_1">
     <g id="line2d_7">
      <defs>
       <path id="m82e627c816" d="M 0 0 
L -3.5 0 
" style="stroke: #000000; stroke-width: 0.8"/>
      </defs>
      <g>
       <use xlink:href="#m82e627c816" x="53.42442" y="178.132178" style="stroke: #000000; stroke-width: 0.8"/>
      </g>
     </g>
     <g id="text_8">
      <!-- $\mathdefault{−2}$ -->
      <g transform="translate(28.747696 182.975116) scale(0.14 -0.14)">
       <defs>
        <path id="CMSY10-0" d="M 4218 1472 
C 4326 1472 4442 1472 4442 1600 
C 4442 1728 4326 1728 4218 1728 
L 755 1728 
C 646 1728 531 1728 531 1600 
C 531 1472 646 1472 755 1472 
L 4218 1472 
z
" transform="scale(0.015625)"/>
       </defs>
       <use xlink:href="#CMSY10-0" transform="scale(0.996264)"/>
       <use xlink:href="#CMR17-32" transform="translate(77.487468 0) scale(0.996264)"/>
      </g>
     </g>
    </g>
    <g id="ytick_2">
     <g id="line2d_8">
      <g>
       <use xlink:href="#m82e627c816" x="53.42442" y="155.195148" style="stroke: #000000; stroke-width: 0.8"/>
      </g>
     </g>
     <g id="text_9">
      <!-- $\mathdefault{0}$ -->
      <g transform="translate(39.595931 160.038086) scale(0.14 -0.14)">
       <use xlink:href="#CMR17-30" transform="scale(0.996264)"/>
      </g>
     </g>
    </g>
    <g id="ytick_3">
     <g id="line2d_9">
      <g>
       <use xlink:href="#m82e627c816" x="53.42442" y="132.258118" style="stroke: #000000; stroke-width: 0.8"/>
      </g>
     </g>
     <g id="text_10">
      <!-- $\mathdefault{2}$ -->
      <g transform="translate(39.595931 137.101056) scale(0.14 -0.14)">
       <use xlink:href="#CMR17-32" transform="scale(0.996264)"/>
      </g>
     </g>
    </g>
    <g id="ytick_4">
     <g id="line2d_10">
      <g>
       <use xlink:href="#m82e627c816" x="53.42442" y="109.321088" style="stroke: #000000; stroke-width: 0.8"/>
      </g>
     </g>
     <g id="text_11">
      <!-- $\mathdefault{4}$ -->
      <g transform="translate(39.595931 114.164026) scale(0.14 -0.14)">
       <use xlink:href="#CMR17-34" transform="scale(0.996264)"/>
      </g>
     </g>
    </g>
    <g id="ytick_5">
     <g id="line2d_11">
      <g>
       <use xlink:href="#m82e627c816" x="53.42442" y="86.384058" style="stroke: #000000; stroke-width: 0.8"/>
      </g>
     </g>
     <g id="text_12">
      <!-- $\mathdefault{6}$ -->
      <g transform="translate(39.595931 91.226996) scale(0.14 -0.14)">
       <use xlink:href="#CMR17-36" transform="scale(0.996264)"/>
      </g>
     </g>
    </g>
    <g id="ytick_6">
     <g id="line2d_12">
      <g>
       <use xlink:href="#m82e627c816" x="53.42442" y="63.447028" style="stroke: #000000; stroke-width: 0.8"/>
      </g>
     </g>
     <g id="text_13">
      <!-- $\mathdefault{8}$ -->
      <g transform="translate(39.595931 68.289966) scale(0.14 -0.14)">
       <use xlink:href="#CMR17-38" transform="scale(0.996264)"/>
      </g>
     </g>
    </g>
    <g id="ytick_7">
     <g id="line2d_13">
      <g>
       <use xlink:href="#m82e627c816" x="53.42442" y="40.509998" style="stroke: #000000; stroke-width: 0.8"/>
      </g>
     </g>
     <g id="text_14">
      <!-- $\mathdefault{10}$ -->
      <g transform="translate(32.767443 45.352936) scale(0.14 -0.14)">
       <use xlink:href="#CMR17-31" transform="scale(0.996264)"/>
       <use xlink:href="#CMR17-30" transform="translate(45.690477 0) scale(0.996264)"/>
      </g>
     </g>
    </g>
    <g id="ytick_8">
     <g id="line2d_14">
      <g>
       <use xlink:href="#m82e627c816" x="53.42442" y="17.572968" style="stroke: #000000; stroke-width: 0.8"/>
      </g>
     </g>
     <g id="text_15">
      <!-- $\mathdefault{12}$ -->
      <g transform="translate(32.767443 22.415906) scale(0.14 -0.14)">
       <use xlink:href="#CMR17-31" transform="scale(0.996264)"/>
       <use xlink:href="#CMR17-32" transform="translate(45.690477 0) scale(0.996264)"/>
      </g>
     </g>
    </g>
    <g id="text_16">
     <!-- $\phi(P, t)$ -->
     <g transform="translate(21.260772 121.636933) rotate(-90) scale(0.14 -0.14)">
      <defs>
       <path id="CMMI12-1e" d="M 2752 4390 
C 2752 4448 2707 4448 2688 4448 
C 2630 4448 2624 4435 2598 4326 
L 2253 2939 
C 2234 2856 2227 2849 2221 2843 
C 2214 2830 2170 2824 2157 2824 
C 1107 2734 301 1864 301 1057 
C 301 361 832 -64 1498 -64 
C 1446 -261 1402 -463 1350 -659 
C 1261 -995 1210 -1204 1210 -1229 
C 1210 -1241 1210 -1280 1274 -1280 
C 1293 -1280 1318 -1280 1331 -1254 
C 1344 -1241 1382 -1089 1408 -1008 
L 1645 -64 
C 2739 -64 3571 854 3571 1680 
C 3571 2343 3085 2816 2374 2816 
L 2752 4390 
z
M 2336 2701 
C 2758 2701 3181 2463 3181 1828 
C 3181 1097 2675 128 1677 50 
L 2336 2701 
z
M 1530 50 
C 1216 50 691 220 691 938 
C 691 1761 1274 2676 2195 2676 
L 1530 50 
z
" transform="scale(0.015625)"/>
       <path id="CMR17-28" d="M 1958 -1561 
C 1958 -1555 1958 -1542 1939 -1523 
C 1645 -1224 858 -407 858 1581 
C 858 3569 1632 4379 1946 4697 
C 1946 4704 1958 4717 1958 4736 
C 1958 4755 1939 4768 1914 4768 
C 1843 4768 1299 4296 986 3594 
C 666 2887 576 2199 576 1588 
C 576 1128 621 351 1005 -471 
C 1312 -1135 1837 -1600 1914 -1600 
C 1946 -1600 1958 -1587 1958 -1561 
z
" transform="scale(0.015625)"/>
       <path id="CMMI12-50" d="M 1894 2023 
L 2970 2023 
C 3853 2023 4736 2673 4736 3401 
C 4736 3898 4314 4352 3507 4352 
L 1530 4352 
C 1408 4352 1350 4352 1350 4231 
C 1350 4167 1408 4167 1504 4167 
C 1894 4167 1894 4116 1894 4046 
C 1894 4034 1894 3995 1869 3899 
L 1005 472 
C 947 249 934 185 486 185 
C 365 185 301 185 301 70 
C 301 0 358 0 397 0 
C 518 0 646 0 768 0 
L 1517 0 
C 1638 0 1773 0 1894 0 
C 1946 0 2016 0 2016 121 
C 2016 185 1958 185 1862 185 
C 1478 185 1472 230 1472 293 
C 1472 325 1478 369 1485 401 
L 1894 2023 
z
M 2355 3930 
C 2413 4167 2438 4167 2688 4167 
L 3322 4167 
C 3802 4167 4198 4013 4198 3535 
C 4198 3369 4115 2827 3821 2534 
C 3712 2419 3405 2176 2822 2176 
L 1920 2176 
L 2355 3930 
z
" transform="scale(0.015625)"/>
       <path id="CMMI12-3b" d="M 1248 -31 
C 1248 343 1126 619 864 619 
C 659 619 557 453 557 313 
C 557 172 653 0 870 0 
C 954 0 1024 26 1082 83 
C 1094 96 1101 96 1107 96 
C 1120 96 1120 5 1120 -27 
C 1120 -240 1082 -659 710 -1080 
C 640 -1157 640 -1170 640 -1183 
C 640 -1216 672 -1248 704 -1248 
C 755 -1248 1248 -771 1248 -31 
z
" transform="scale(0.015625)"/>
       <path id="CMMI12-74" d="M 1286 2566 
L 1875 2566 
C 1997 2566 2061 2566 2061 2681 
C 2061 2752 2022 2752 1894 2752 
L 1331 2752 
L 1568 3692 
C 1594 3781 1594 3794 1594 3840 
C 1594 3943 1510 4000 1427 4000 
C 1376 4000 1229 3981 1178 3775 
L 928 2752 
L 326 2752 
C 198 2752 141 2752 141 2630 
C 141 2566 186 2566 307 2566 
L 877 2566 
L 454 881 
C 403 658 384 594 384 511 
C 384 211 595 -64 954 -64 
C 1600 -64 1946 868 1946 912 
C 1946 951 1920 970 1882 970 
C 1869 970 1843 970 1830 944 
C 1824 938 1818 931 1773 829 
C 1638 511 1344 64 973 64 
C 781 64 768 224 768 364 
C 768 370 768 492 787 568 
L 1286 2566 
z
" transform="scale(0.015625)"/>
       <path id="CMR17-29" d="M 1683 1581 
C 1683 2040 1638 2817 1254 3639 
C 947 4303 422 4768 346 4768 
C 326 4768 301 4761 301 4729 
C 301 4717 307 4710 314 4697 
C 621 4378 1402 3568 1402 1584 
C 1402 -407 627 -1217 314 -1537 
C 307 -1549 301 -1556 301 -1568 
C 301 -1600 326 -1600 346 -1600 
C 416 -1600 960 -1128 1274 -426 
C 1594 281 1683 969 1683 1581 
z
" transform="scale(0.015625)"/>
      </defs>
      <use xlink:href="#CMMI12-1e" transform="scale(0.996264)"/>
      <use xlink:href="#CMR17-28" transform="translate(57.73418 0) scale(0.996264)"/>
      <use xlink:href="#CMMI12-50" transform="translate(93.014948 0) scale(0.996264)"/>
      <use xlink:href="#CMMI12-3b" transform="translate(158.601898 0) scale(0.996264)"/>
      <use xlink:href="#CMMI12-74" transform="translate(202.30348 0) scale(0.996264)"/>
      <use xlink:href="#CMR17-29" transform="translate(237.529811 0) scale(0.996264)"/>
     </g>
    </g>
   </g>
   <g id="line2d_15">
    <path d="M 68.166172 146.851979 
L 77.676979 148.951068 
L 91.510684 152.056968 
L 94.104575 152.176293 
L 95.833838 152.076945 
L 97.562971 151.732624 
L 99.292231 151.054565 
L 100.156862 150.569384 
L 101.021366 149.900551 
L 101.885995 149.037615 
L 102.751009 147.988959 
L 103.61564 146.724817 
L 104.480269 145.192796 
L 105.344898 143.342415 
L 106.209402 141.130924 
L 107.074033 138.520732 
L 107.938664 135.479466 
L 108.803295 131.977928 
L 110.532554 123.494628 
L 112.261816 112.917235 
L 113.990951 100.231748 
L 116.58484 78.228588 
L 118.313976 63.573993 
L 119.178607 57.087992 
L 120.043871 51.579162 
L 120.908374 47.339094 
L 121.773006 44.594265 
L 122.637637 43.517987 
L 123.502268 44.219676 
L 124.366899 46.737513 
L 125.231399 51.017579 
L 126.09603 56.892719 
L 126.960661 64.087003 
L 128.689924 81.128036 
L 132.148317 117.637521 
L 133.877452 133.402913 
L 135.606838 146.366276 
L 137.335973 156.578899 
L 139.065235 164.407592 
L 139.929862 167.569228 
L 140.794493 170.303924 
L 141.658997 172.662959 
L 142.523624 174.694018 
L 144.252886 177.933827 
L 145.982026 180.301178 
L 147.71128 182.007478 
L 149.440542 183.209534 
L 151.169805 184.022283 
L 152.898935 184.529105 
L 154.628198 184.790142 
L 156.357337 184.848557 
L 158.086591 184.73589 
L 160.680489 184.296066 
L 163.274246 183.580848 
L 165.868145 182.628237 
L 168.461902 181.458449 
L 171.055668 180.075493 
L 173.649944 178.474253 
L 176.243834 176.652777 
L 179.702227 173.899413 
L 183.160752 170.825282 
L 187.483649 166.629501 
L 199.588223 154.485425 
L 203.911497 150.566878 
L 207.369891 147.727569 
L 209.963789 145.864279 
L 212.557546 144.282059 
L 215.151567 142.992377 
L 217.745325 141.978988 
L 220.339091 141.213023 
L 222.933121 140.668834 
L 225.52738 140.330286 
L 228.121023 140.18818 
L 230.714912 140.234249 
L 234.173437 140.563943 
L 237.631839 141.148225 
L 241.954859 142.120527 
L 257.517826 145.877685 
L 263.570117 146.997368 
L 269.622268 147.893143 
L 276.539687 148.688066 
L 284.321109 149.348319 
L 292.96729 149.856283 
L 304.207096 150.269863 
L 321.499457 150.636348 
L 363.001212 151.232574 
L 363.001212 151.232574 
" clip-path="url(#p2a76ee7b09)" style="fill: none; stroke: #1f77b4; stroke-width: 3; stroke-linecap: square"/>
   </g>
   <g id="line2d_16">
    <path d="M 68.166172 146.769748 
L 78.541611 149.009069 
L 90.646182 151.698845 
L 93.239946 151.899887 
L 94.969207 151.846257 
L 96.698339 151.59102 
L 98.427602 150.964005 
L 99.292231 150.49873 
L 100.156862 149.905057 
L 101.021366 149.121159 
L 101.885995 148.144617 
L 102.751009 146.98397 
L 103.61564 145.606152 
L 104.480269 143.955123 
L 105.344898 141.977673 
L 106.209402 139.629527 
L 107.074033 136.872095 
L 107.938664 133.67297 
L 108.803295 130.003613 
L 110.532554 121.162283 
L 112.261816 110.225405 
L 113.990951 97.249549 
L 119.178607 55.059421 
L 120.043871 50.085421 
L 120.908374 46.461676 
L 121.773006 44.400173 
L 122.637637 44.063241 
L 123.502268 45.546996 
L 124.366899 48.860298 
L 125.231399 53.891653 
L 126.09603 60.400178 
L 127.825293 76.502644 
L 132.148317 120.99715 
L 133.877452 136.025018 
L 135.606838 148.350653 
L 137.335973 158.072637 
L 139.065235 165.546043 
L 139.929862 168.571308 
L 140.794493 171.19154 
L 141.658997 173.454359 
L 142.523624 175.404072 
L 144.252886 178.515755 
L 145.982026 180.788415 
L 147.71128 182.423142 
L 149.440542 183.570069 
L 151.169805 184.339842 
L 152.898935 184.81267 
L 154.628198 185.046305 
L 156.357337 185.081952 
L 158.086591 184.949374 
L 160.680489 184.481384 
L 163.274246 183.735878 
L 165.868145 182.747387 
L 168.461902 181.533776 
L 171.055668 180.097018 
L 173.649944 178.429039 
L 176.243834 176.524814 
L 178.837723 174.390324 
L 182.296116 171.216687 
L 185.754518 167.70247 
L 189.213034 163.865806 
L 193.536063 158.692018 
L 198.723719 152.128145 
L 203.911497 145.178425 
L 212.557546 133.330121 
L 216.016071 129.06822 
L 218.609961 126.248625 
L 221.203727 123.844699 
L 222.933121 122.505003 
L 224.662761 121.388028 
L 226.391892 120.494391 
L 228.121023 119.815582 
L 229.850417 119.337248 
L 231.579548 119.04199 
L 233.308801 118.911981 
L 235.902568 118.992482 
L 238.496334 119.36519 
L 241.090223 119.994215 
L 243.684113 120.844628 
L 247.142392 122.255683 
L 251.465658 124.324739 
L 260.97621 129.279982 
L 267.893014 132.741208 
L 273.945288 135.515187 
L 279.133453 137.672058 
L 284.321109 139.615653 
L 289.508765 141.34753 
L 295.561056 143.112279 
L 301.613347 144.622928 
L 307.665621 145.906221 
L 314.582548 147.129911 
L 321.499457 148.132127 
L 329.281389 149.038818 
L 337.927446 149.822869 
L 348.302881 150.520528 
L 359.54281 151.050951 
L 363.001212 151.177308 
L 363.001212 151.177308 
" clip-path="url(#p2a76ee7b09)" style="fill: none; stroke: #1f77b4; stroke-width: 2; stroke-linecap: square"/>
   </g>
   <g id="line2d_17">
    <path d="M 68.166172 146.658363 
L 78.541611 148.839957 
L 90.646182 151.435438 
L 92.375315 151.593197 
L 94.104575 151.592989 
L 95.833838 151.413481 
L 97.562971 150.911676 
L 99.292231 149.915267 
L 100.156862 149.205922 
L 101.021366 148.298121 
L 101.885995 147.197913 
L 102.751009 145.91368 
L 103.61564 144.408586 
L 104.480269 142.622286 
L 105.344898 140.498462 
L 106.209402 137.990498 
L 107.074033 135.058596 
L 107.938664 131.66987 
L 109.667927 123.416331 
L 111.397057 113.083814 
L 113.126447 100.683111 
L 115.720209 79.193213 
L 117.449472 64.815849 
L 118.313976 58.401564 
L 119.178607 52.90401 
L 120.043871 48.602497 
L 120.908374 45.749674 
L 121.773006 44.543713 
L 122.637637 45.133295 
L 123.502268 47.587216 
L 124.366899 51.854135 
L 125.231399 57.729646 
L 126.960661 72.946081 
L 133.012948 132.266598 
L 134.742206 145.204628 
L 136.471469 155.575865 
L 138.200604 163.645407 
L 139.929862 169.795077 
L 140.794493 172.271763 
L 141.658997 174.409729 
L 143.38826 177.830189 
L 145.11739 180.334719 
L 146.846653 182.142239 
L 148.575915 183.418709 
L 150.305178 184.287765 
L 152.034431 184.839468 
L 153.763571 185.138465 
L 155.492833 185.230723 
L 157.221964 185.148579 
L 159.815853 184.747719 
L 162.40962 184.061271 
L 165.003509 183.127141 
L 167.597398 181.968881 
L 170.191042 180.595318 
L 172.785309 179.003191 
L 175.379207 177.189379 
L 178.837723 174.440441 
L 182.296116 171.367657 
L 186.619145 167.188416 
L 194.40069 159.473035 
L 197.859083 156.435695 
L 201.317476 153.779357 
L 203.911497 152.041933 
L 206.505387 150.55356 
L 209.099153 149.360735 
L 211.692919 148.497873 
L 214.286941 147.966329 
L 216.880707 147.733367 
L 219.474596 147.746067 
L 222.933121 148.048604 
L 226.391892 148.580768 
L 230.714912 149.467416 
L 235.902568 150.760292 
L 254.059424 155.557742 
L 258.382462 156.348146 
L 262.705605 156.910366 
L 267.028502 157.244077 
L 271.351399 157.368417 
L 276.539687 157.286451 
L 282.591855 156.955206 
L 291.238036 156.230584 
L 319.770063 153.672468 
L 332.739914 152.805424 
L 344.844479 152.216181 
L 357.813556 151.812832 
L 363.001212 151.708562 
L 363.001212 151.708562 
" clip-path="url(#p2a76ee7b09)" style="fill: none; stroke: #1f77b4; stroke-width: 2; stroke-linecap: square"/>
   </g>
   <g id="line2d_18">
    <path d="M 68.166172 152.292514 
L 74.218585 151.581233 
L 79.406113 150.7319 
L 83.729265 149.763214 
L 87.187787 148.733567 
L 89.781551 147.750691 
L 92.375315 146.519766 
L 94.104575 145.518326 
L 95.833838 144.330843 
L 97.562971 142.909381 
L 99.292231 141.189781 
L 101.021366 139.086224 
L 102.751009 136.480517 
L 104.480269 133.212664 
L 106.209402 129.059432 
L 107.074033 126.558351 
L 107.938664 123.712402 
L 108.803295 120.465861 
L 109.667927 116.755346 
L 110.532554 112.510542 
L 111.397057 107.657399 
L 112.261816 102.120142 
L 113.990951 88.782898 
L 115.720209 72.548125 
L 118.313976 47.309333 
L 119.178607 41.140146 
L 120.043871 37.45862 
L 120.908374 36.864543 
L 121.773006 39.502067 
L 122.637637 45.011553 
L 123.502268 52.651076 
L 127.825293 96.222444 
L 129.554428 109.154032 
L 130.419055 114.423305 
L 131.283686 118.996821 
L 132.148317 122.960659 
L 133.877452 129.380626 
L 135.606838 134.244307 
L 137.335973 137.971605 
L 139.065235 140.867343 
L 140.794493 143.147684 
L 142.523624 144.966994 
L 144.252886 146.436645 
L 145.982026 147.637255 
L 147.71128 148.628515 
L 150.305178 149.816782 
L 152.898935 150.73829 
L 156.357337 151.673347 
L 159.815853 152.372569 
L 164.139005 153.020914 
L 169.326406 153.577914 
L 176.243834 154.084505 
L 185.754518 154.523873 
L 198.723719 154.869738 
L 217.745325 155.130845 
L 249.736281 155.314921 
L 313.717912 155.416348 
L 363.001212 155.433549 
L 363.001212 155.433549 
" clip-path="url(#p2a76ee7b09)" style="fill: none; stroke-dasharray: 3,4.95; stroke-dashoffset: 0; stroke: #d62728; stroke-width: 3"/>
   </g>
   <g id="line2d_19">
    <path d="M 68.166172 140.488305 
L 74.218585 139.484369 
L 79.406113 138.432506 
L 83.729265 137.371704 
L 88.052291 136.080318 
L 91.510684 134.818146 
L 94.104575 133.688822 
L 96.698339 132.348793 
L 99.292231 130.723253 
L 101.021366 129.426398 
L 102.751009 127.902203 
L 104.480269 126.081334 
L 106.209402 123.863363 
L 107.938664 121.101532 
L 109.667927 117.57823 
L 110.532554 115.43414 
L 111.397057 112.965268 
L 112.261816 110.102443 
L 113.126447 106.763592 
L 113.990951 102.84819 
L 114.855578 98.23578 
L 115.720209 92.790714 
L 116.58484 86.368888 
L 117.449472 78.839361 
L 119.178607 60.299031 
L 121.773006 29.248065 
L 122.637637 22.161758 
L 123.502268 19.106225 
L 124.366899 20.876951 
L 125.231399 27.250588 
L 126.09603 37.129158 
L 131.283686 107.499875 
L 133.012948 125.265045 
L 134.742206 139.937895 
L 136.471469 151.795258 
L 138.200604 161.001744 
L 139.065235 164.668453 
L 139.929862 167.753594 
L 140.794493 170.298102 
L 141.658997 172.348128 
L 142.523624 173.954565 
L 143.38826 175.16835 
L 144.252886 176.040287 
L 145.11739 176.618871 
L 145.982026 176.949208 
L 146.846653 177.072043 
L 147.71128 177.023796 
L 149.440542 176.536988 
L 151.169805 175.693468 
L 153.763571 174.067384 
L 162.40962 168.256593 
L 165.868145 166.266681 
L 169.326406 164.531415 
L 172.785309 163.034395 
L 176.243834 161.750056 
L 180.566863 160.401197 
L 184.889883 159.290612 
L 190.07767 158.212152 
L 195.265194 157.354446 
L 201.317476 156.569752 
L 208.234526 155.887365 
L 216.880707 155.261091 
L 228.121023 154.681336 
L 246.277756 154.004146 
L 274.809924 153.172493 
L 305.071855 152.515273 
L 343.979843 151.907712 
L 363.001212 151.681492 
L 363.001212 151.681492 
" clip-path="url(#p2a76ee7b09)" style="fill: none; stroke-dasharray: 11.1,4.8; stroke-dashoffset: 0; stroke: #d62728; stroke-width: 3"/>
   </g>
   <g id="line2d_20">
    <path d="M 68.166172 157.73443 
L 74.218585 155.280855 
L 79.406113 152.930357 
L 83.729265 150.730432 
L 87.187787 148.754966 
L 90.646182 146.518185 
L 93.239946 144.609967 
L 95.833838 142.434725 
L 98.427602 139.898647 
L 100.156862 137.939652 
L 101.885995 135.698275 
L 103.61564 133.091081 
L 105.344898 130.00518 
L 107.074033 126.28014 
L 108.803295 121.688807 
L 110.532554 115.910817 
L 111.397057 112.44348 
L 112.261816 108.499642 
L 113.126447 104.002456 
L 113.990951 98.867263 
L 114.855578 93.007217 
L 116.58484 78.855439 
L 118.313976 61.613609 
L 120.043871 43.416107 
L 120.908374 35.616507 
L 121.773006 29.958471 
L 122.637637 27.353157 
L 123.502268 28.323727 
L 124.366899 32.812114 
L 125.231399 40.213522 
L 126.960661 60.103101 
L 129.554428 91.804625 
L 131.283686 110.520125 
L 133.012948 126.875793 
L 134.742206 140.991642 
L 136.471469 152.901644 
L 138.200604 162.574764 
L 139.065235 166.576129 
L 139.929862 170.037148 
L 140.794493 172.981032 
L 141.658997 175.438226 
L 142.523624 177.446573 
L 143.38826 179.046566 
L 144.252886 180.281291 
L 145.11739 181.193902 
L 145.982026 181.826546 
L 146.846653 182.218654 
L 147.71128 182.406799 
L 148.575915 182.423875 
L 149.440542 182.299439 
L 151.169805 181.725552 
L 152.898935 180.852045 
L 155.492833 179.235148 
L 164.139005 173.515861 
L 167.597398 171.521952 
L 171.055668 169.747685 
L 175.379207 167.808364 
L 179.702227 166.127084 
L 184.889883 164.372099 
L 190.942174 162.585762 
L 198.723719 160.559213 
L 208.234526 158.328625 
L 219.474596 155.914686 
L 229.850417 153.897033 
L 239.36097 152.279592 
L 248.00701 151.042211 
L 256.65319 150.040733 
L 265.299371 149.268655 
L 273.945288 148.711108 
L 283.456491 148.330653 
L 292.96729 148.187321 
L 302.477842 148.281942 
L 311.988658 148.618863 
L 320.634821 149.139377 
L 329.281389 149.867514 
L 337.927446 150.807433 
L 346.573609 151.964993 
L 355.21979 153.347943 
L 363.001212 154.793084 
L 363.001212 154.793084 
" clip-path="url(#p2a76ee7b09)" style="fill: none; stroke-dasharray: 19.2,4.8,3,4.8; stroke-dashoffset: 0; stroke: #d62728; stroke-width: 3"/>
   </g>
   <g id="line2d_21">
    <path d="M 68.166172 146.772493 
L 77.895728 148.87319 
L 91.458141 151.81811 
L 93.521986 151.923905 
L 95.585831 151.811848 
L 97.060005 151.526966 
L 98.239345 151.091019 
L 99.713521 150.282971 
L 100.598026 149.594724 
L 101.777366 148.357264 
L 102.956707 146.773986 
L 104.136047 144.762542 
L 105.315388 142.185699 
L 106.494726 138.925519 
L 107.674068 134.887464 
L 108.853406 129.993882 
L 110.032749 124.182522 
L 111.506923 115.563833 
L 112.981097 105.425712 
L 114.75011 91.450122 
L 118.8778 57.463172 
L 119.762303 51.889068 
L 120.64681 47.608062 
L 121.236481 45.598806 
L 121.826148 44.337481 
L 122.120984 44.0029 
L 122.415819 43.872408 
L 122.710655 43.949953 
L 123.005491 44.238488 
L 123.595158 45.45485 
L 124.184829 47.520772 
L 124.7745 50.410377 
L 125.659003 56.161171 
L 126.838345 65.988107 
L 128.312519 80.538443 
L 132.735045 125.860673 
L 134.209223 138.219007 
L 135.683397 148.560175 
L 136.862735 155.442951 
L 138.042077 161.21037 
L 139.221416 165.997879 
L 140.400758 169.943911 
L 141.580096 173.178249 
L 142.759434 175.816566 
L 143.938777 177.958961 
L 145.11812 179.689989 
L 146.297453 181.080119 
L 147.476796 182.187557 
L 148.95097 183.245728 
L 150.425152 184.009155 
L 151.899326 184.533803 
L 153.668331 184.907028 
L 155.437345 185.050456 
L 157.50119 184.977693 
L 159.565035 184.686703 
L 161.923711 184.125987 
L 164.577228 183.242866 
L 167.230744 182.120673 
L 169.88426 180.771276 
L 172.537777 179.192558 
L 175.486124 177.163365 
L 178.434481 174.852233 
L 181.677659 172.01883 
L 185.215687 168.634127 
L 189.343377 164.370905 
L 199.957434 152.890381 
L 210.571499 141.585823 
L 214.109518 138.192788 
L 217.352697 135.396661 
L 220.301045 133.16332 
L 222.954561 131.451432 
L 225.313246 130.204806 
L 227.3771 129.346308 
L 229.440936 128.710097 
L 231.50479 128.288973 
L 233.863457 128.04845 
L 236.222143 128.030939 
L 238.875659 128.232496 
L 241.824007 128.679355 
L 245.067203 129.389217 
L 248.900044 130.462846 
L 253.617414 132.039474 
L 261.283115 134.889102 
L 269.833344 137.997145 
L 276.319701 140.106762 
L 282.511245 141.885341 
L 288.997621 143.513478 
L 295.778827 144.980691 
L 302.854865 146.280624 
L 310.225734 147.410456 
L 318.186283 148.405623 
L 327.031343 149.278884 
L 336.760897 150.009218 
L 347.964625 150.618263 
L 360.937358 151.095957 
L 362.706381 151.146454 
L 362.706381 151.146454 
" clip-path="url(#p2a76ee7b09)" style="fill: none; stroke-dasharray: 11.1,4.8; stroke-dashoffset: 0; stroke: #ff7f0e; stroke-width: 3"/>
   </g>
   <g id="line2d_22">
    <path d="M 68.166172 182.19186 
L 70.819687 172.784942 
L 73.473202 164.179761 
L 76.126718 156.36098 
L 78.485398 150.056997 
L 80.844079 144.346726 
L 83.202759 139.215072 
L 85.561439 134.645668 
L 87.625284 131.094702 
L 89.68913 127.94691 
L 91.752975 125.185466 
L 93.81682 122.789674 
L 95.880665 120.736647 
L 97.944512 119.000528 
L 100.008357 117.547181 
L 102.367036 116.17911 
L 105.020552 114.919273 
L 113.275932 111.259286 
L 115.929449 109.684513 
L 119.172632 107.766084 
L 120.351974 107.311995 
L 121.236481 107.158638 
L 122.120984 107.222747 
L 123.005491 107.554427 
L 123.889993 108.197883 
L 124.7745 109.186477 
L 125.659003 110.538047 
L 126.54351 112.252 
L 127.722852 115.064933 
L 129.197026 119.294315 
L 131.260871 126.084085 
L 135.978232 141.958355 
L 138.042077 148.049323 
L 140.105922 153.40119 
L 141.874932 157.404832 
L 143.643946 160.904075 
L 145.412951 163.941522 
L 147.181965 166.560871 
L 148.95097 168.803054 
L 150.719983 170.705218 
L 152.488997 172.300349 
L 154.258002 173.617751 
L 156.027016 174.683924 
L 157.796021 175.522502 
L 159.859866 176.241829 
L 161.923711 176.711484 
L 163.987556 176.958669 
L 166.346241 176.99946 
L 168.704918 176.812092 
L 171.358434 176.362165 
L 174.01195 175.69057 
L 176.960298 174.716707 
L 180.203486 173.398882 
L 183.446673 171.839839 
L 186.689861 170.041477 
L 189.93304 167.994326 
L 193.176227 165.680448 
L 196.419415 163.074584 
L 199.662603 160.153163 
L 202.905781 156.907937 
L 206.148969 153.35462 
L 209.981828 148.813012 
L 214.994021 142.492027 
L 222.364898 133.197723 
L 225.608077 129.492074 
L 228.261594 126.789314 
L 230.620279 124.696636 
L 232.684133 123.136991 
L 234.747969 121.852096 
L 236.516974 120.981483 
L 238.285996 120.332067 
L 240.055001 119.90945 
L 241.824007 119.716256 
L 243.593029 119.7525 
L 245.362034 120.015833 
L 247.131039 120.499332 
L 248.900044 121.192925 
L 250.963898 122.248892 
L 253.027734 123.545135 
L 255.386419 125.280754 
L 258.334767 127.755237 
L 262.167626 131.316003 
L 274.550696 143.117691 
L 277.793893 145.801805 
L 280.74224 147.974082 
L 283.395757 149.678281 
L 286.049273 151.121305 
L 288.407941 152.172698 
L 290.766626 152.996927 
L 293.125311 153.589217 
L 295.483996 153.950171 
L 297.842663 154.080392 
L 300.201349 153.988705 
L 302.854865 153.629445 
L 305.508381 153.020833 
L 308.456729 152.081172 
L 311.405076 150.906367 
L 314.943104 149.259661 
L 320.839799 146.207374 
L 326.146832 143.537511 
L 329.390011 142.153621 
L 331.748696 141.345622 
L 334.107381 140.762134 
L 336.171217 140.472396 
L 338.235071 140.428858 
L 340.004076 140.6128 
L 341.773081 141.02555 
L 343.542104 141.692373 
L 345.311109 142.637416 
L 347.080114 143.884781 
L 348.849136 145.460041 
L 350.618141 147.389181 
L 352.387147 149.699735 
L 354.156169 152.416064 
L 355.925174 155.568934 
L 357.694179 159.184453 
L 359.463184 163.290717 
L 361.232207 167.917317 
L 362.706381 172.191437 
L 362.706381 172.191437 
" clip-path="url(#p2a76ee7b09)" style="fill: none; stroke-dasharray: 19.2,4.8,3,4.8; stroke-dashoffset: 0; stroke: #8c564b; stroke-width: 3"/>
   </g>
   <g id="patch_3">
    <path d="M 53.42442 193.536948 
L 53.42442 10.8 
" style="fill: none; stroke: #000000; stroke-width: 0.8; stroke-linejoin: miter; stroke-linecap: square"/>
   </g>
   <g id="patch_4">
    <path d="M 377.742964 193.536948 
L 377.742964 10.8 
" style="fill: none; stroke: #000000; stroke-width: 0.8; stroke-linejoin: miter; stroke-linecap: square"/>
   </g>
   <g id="patch_5">
    <path d="M 53.42442 193.536948 
L 377.742964 193.536948 
" style="fill: none; stroke: #000000; stroke-width: 0.8; stroke-linejoin: miter; stroke-linecap: square"/>
   </g>
   <g id="patch_6">
    <path d="M 53.42442 10.8 
L 377.742964 10.8 
" style="fill: none; stroke: #000000; stroke-width: 0.8; stroke-linejoin: miter; stroke-linecap: square"/>
   </g>
   <g id="legend_1">
    <g id="line2d_23">
     <path d="M 205.268901 31.866486 
L 219.268901 31.866486 
L 233.268901 31.866486 
" style="fill: none; stroke: #1f77b4; stroke-width: 3; stroke-linecap: square"/>
    </g>
    <g id="text_17">
     <!-- $\hat{\phi}$ -->
     <g transform="translate(244.468901 36.766486) scale(0.14 -0.14)">
      <defs>
       <path id="CMR17-5e" d="M 1466 4421 
L 678 3555 
L 755 3478 
L 1466 4166 
L 2176 3478 
L 2253 3555 
L 1466 4421 
z
" transform="scale(0.015625)"/>
      </defs>
      <use xlink:href="#CMR17-5e" transform="translate(14.151005 26.296621) scale(0.996264)"/>
      <use xlink:href="#CMMI12-1e" transform="scale(0.996264)"/>
     </g>
    </g>
    <g id="line2d_24">
     <path d="M 205.268901 51.378515 
L 219.268901 51.378515 
L 233.268901 51.378515 
" style="fill: none; stroke-dasharray: 3,4.95; stroke-dashoffset: 0; stroke: #d62728; stroke-width: 3"/>
    </g>
    <g id="text_18">
     <!-- $\phi^s_9$ -->
     <g transform="translate(244.468901 56.278515) scale(0.14 -0.14)">
      <defs>
       <path id="CMMI12-73" d="M 1459 1280 
C 1568 1261 1741 1223 1779 1216 
C 1862 1192 2150 1090 2150 783 
C 2150 586 1971 70 1229 70 
C 1094 70 614 70 486 436 
C 742 404 870 603 870 745 
C 870 880 781 950 653 950 
C 512 950 326 841 326 552 
C 326 173 710 -64 1222 -64 
C 2195 -64 2483 651 2483 984 
C 2483 1079 2483 1258 2278 1462 
C 2118 1616 1965 1648 1619 1718 
C 1446 1756 1171 1814 1171 2101 
C 1171 2229 1286 2689 1894 2689 
C 2163 2689 2426 2589 2490 2368 
C 2208 2368 2195 2125 2195 2119 
C 2195 1984 2317 1946 2374 1946 
C 2464 1946 2643 2015 2643 2281 
C 2643 2545 2400 2816 1901 2816 
C 1062 2816 838 2160 838 1899 
C 838 1414 1312 1312 1459 1280 
z
" transform="scale(0.015625)"/>
       <path id="CMR17-39" d="M 2253 1864 
C 2253 464 1670 31 1190 31 
C 1043 31 685 31 538 294 
C 704 268 826 357 826 518 
C 826 692 685 749 595 749 
C 538 749 365 723 365 506 
C 365 71 742 -128 1203 -128 
C 1939 -128 2688 674 2688 2073 
C 2688 3817 1971 4179 1485 4179 
C 851 4179 243 3628 243 2778 
C 243 1991 762 1408 1414 1408 
C 1952 1408 2189 1903 2253 2112 
L 2253 1864 
z
M 1427 1510 
C 1254 1510 1011 1542 813 1922 
C 678 2169 678 2461 678 2771 
C 678 3146 678 3405 858 3684 
C 947 3817 1114 4032 1485 4032 
C 2240 4032 2240 2885 2240 2632 
C 2240 2182 2035 1510 1427 1510 
z
" transform="scale(0.015625)"/>
      </defs>
      <use xlink:href="#CMMI12-1e" transform="scale(0.996264)"/>
      <use xlink:href="#CMMI12-73" transform="translate(57.73418 36.153639) scale(0.697382)"/>
      <use xlink:href="#CMR17-39" transform="translate(57.73418 -24.740171) scale(0.697382)"/>
     </g>
    </g>
    <g id="line2d_25">
     <path d="M 205.268901 71.640493 
L 219.268901 71.640493 
L 233.268901 71.640493 
" style="fill: none; stroke-dasharray: 11.1,4.8; stroke-dashoffset: 0; stroke: #d62728; stroke-width: 3"/>
    </g>
    <g id="text_19">
     <!-- $\phi^s_{10}$ -->
     <g transform="translate(244.468901 76.540493) scale(0.14 -0.14)">
      <use xlink:href="#CMMI12-1e" transform="scale(0.996264)"/>
      <use xlink:href="#CMMI12-73" transform="translate(57.73418 36.153639) scale(0.697382)"/>
      <use xlink:href="#CMR17-31" transform="translate(57.73418 -24.740171) scale(0.697382)"/>
      <use xlink:href="#CMR17-30" transform="translate(89.717362 -24.740171) scale(0.697382)"/>
     </g>
    </g>
    <g id="line2d_26">
     <path d="M 290.586126 31.866486 
L 304.586126 31.866486 
L 318.586126 31.866486 
" style="fill: none; stroke-dasharray: 19.2,4.8,3,4.8; stroke-dashoffset: 0; stroke: #d62728; stroke-width: 3"/>
    </g>
    <g id="text_20">
     <!-- $\phi^s_{16}$ -->
     <g transform="translate(329.786126 36.766486) scale(0.14 -0.14)">
      <use xlink:href="#CMMI12-1e" transform="scale(0.996264)"/>
      <use xlink:href="#CMMI12-73" transform="translate(57.73418 36.153639) scale(0.697382)"/>
      <use xlink:href="#CMR17-31" transform="translate(57.73418 -24.740171) scale(0.697382)"/>
      <use xlink:href="#CMR17-36" transform="translate(89.717362 -24.740171) scale(0.697382)"/>
     </g>
    </g>
    <g id="line2d_27">
     <path d="M 290.586126 52.128464 
L 304.586126 52.128464 
L 318.586126 52.128464 
" style="fill: none; stroke-dasharray: 11.1,4.8; stroke-dashoffset: 0; stroke: #ff7f0e; stroke-width: 3"/>
    </g>
    <g id="text_21">
     <!-- $\phi^*$ -->
     <g transform="translate(329.786126 57.028464) scale(0.14 -0.14)">
      <defs>
       <path id="CMSY10-3" d="M 1760 2719 
C 1766 2808 1766 2962 1600 2962 
C 1498 2962 1414 2879 1434 2795 
L 1434 2712 
L 1523 1720 
L 704 2316 
C 646 2348 634 2360 589 2360 
C 499 2360 416 2271 416 2181 
C 416 2079 480 2053 544 2021 
L 1453 1586 
L 570 1158 
C 467 1107 416 1081 416 985 
C 416 889 499 806 589 806 
C 634 806 646 806 806 928 
L 1523 1446 
L 1427 371 
C 1427 236 1542 204 1594 204 
C 1670 204 1766 248 1766 371 
L 1670 1446 
L 2490 851 
C 2547 819 2560 806 2605 806 
C 2694 806 2778 896 2778 985 
C 2778 1081 2720 1113 2643 1152 
C 2259 1343 2246 1343 1741 1580 
L 2624 2008 
C 2726 2060 2778 2085 2778 2181 
C 2778 2277 2694 2360 2605 2360 
C 2560 2360 2547 2360 2387 2239 
L 1670 1720 
L 1760 2719 
z
" transform="scale(0.015625)"/>
      </defs>
      <use xlink:href="#CMMI12-1e" transform="scale(0.996264)"/>
      <use xlink:href="#CMSY10-3" transform="translate(57.73418 36.153639) scale(0.697382)"/>
     </g>
    </g>
    <g id="line2d_28">
     <path d="M 290.586126 71.640493 
L 304.586126 71.640493 
L 318.586126 71.640493 
" style="fill: none; stroke-dasharray: 19.2,4.8,3,4.8; stroke-dashoffset: 0; stroke: #8c564b; stroke-width: 3"/>
    </g>
    <g id="text_22">
     <!-- $\phi^s_{s} \cdot dt$ -->
     <g transform="translate(329.786126 76.540493) scale(0.14 -0.14)">
      <defs>
       <path id="CMSY10-1" d="M 1229 1619 
C 1229 1805 1075 1958 890 1958 
C 704 1958 550 1805 550 1619 
C 550 1433 704 1280 890 1280 
C 1075 1280 1229 1433 1229 1619 
z
" transform="scale(0.015625)"/>
       <path id="CMMI12-64" d="M 3219 4257 
C 3226 4282 3238 4320 3238 4352 
C 3238 4416 3174 4416 3162 4416 
C 3155 4416 2842 4388 2810 4380 
C 2701 4373 2605 4358 2490 4358 
C 2330 4345 2285 4339 2285 4224 
C 2285 4160 2336 4160 2426 4160 
C 2739 4160 2746 4103 2746 4040 
C 2746 4002 2733 3952 2726 3933 
L 2336 2395 
C 2266 2561 2093 2816 1760 2816 
C 1037 2816 256 1884 256 939 
C 256 307 627 -64 1062 -64 
C 1414 -64 1715 211 1894 422 
C 1958 45 2259 -64 2451 -64 
C 2643 -64 2797 51 2912 281 
C 3014 498 3104 888 3104 913 
C 3104 945 3078 971 3040 971 
C 2982 971 2976 939 2950 843 
C 2854 466 2733 64 2470 64 
C 2285 64 2272 229 2272 357 
C 2272 382 2272 515 2317 694 
L 3219 4257 
z
M 1926 760 
C 1894 651 1894 639 1805 517 
C 1664 338 1382 64 1082 64 
C 819 64 672 300 672 677 
C 672 1028 870 1743 992 2012 
C 1210 2459 1510 2689 1760 2689 
C 2182 2689 2266 2165 2266 2114 
C 2266 2108 2246 2024 2240 2012 
L 1926 760 
z
" transform="scale(0.015625)"/>
      </defs>
      <use xlink:href="#CMMI12-1e" transform="scale(0.996264)"/>
      <use xlink:href="#CMMI12-73" transform="translate(57.73418 36.153639) scale(0.697382)"/>
      <use xlink:href="#CMMI12-73" transform="translate(57.73418 -24.62935) scale(0.697382)"/>
      <use xlink:href="#CMSY10-1" transform="translate(112.536408 0) scale(0.996264)"/>
      <use xlink:href="#CMMI12-64" transform="translate(162.3497 0) scale(0.996264)"/>
      <use xlink:href="#CMMI12-74" transform="translate(213.038797 0) scale(0.996264)"/>
     </g>
    </g>
   </g>
  </g>
 </g>
 <defs>
  <clipPath id="p2a76ee7b09">
   <rect x="53.42442" y="10.8" width="324.318544" height="182.736948"/>
  </clipPath>
 </defs>
</svg>
