<?xml version="1.0" encoding="utf-8" standalone="no"?>
<!DOCTYPE svg PUBLIC "-//W3C//DTD SVG 1.1//EN"
  "http://www.w3.org/Graphics/SVG/1.1/DTD/svg11.dtd">
<svg xmlns:xlink="http://www.w3.org/1999/xlink" width="388.542964pt" height="240.132758pt" viewBox="0 0 388.542964 240.132758" xmlns="http://www.w3.org/2000/svg" version="1.1">
 <metadata>
  <rdf:RDF xmlns:dc="http://purl.org/dc/elements/1.1/" xmlns:cc="http://creativecommons.org/ns#" xmlns:rdf="http://www.w3.org/1999/02/22-rdf-syntax-ns#">
   <cc:Work>
    <dc:type rdf:resource="http://purl.org/dc/dcmitype/StillImage"/>
    <dc:date>2024-12-29T13:17:12.752626</dc:date>
    <dc:format>image/svg+xml</dc:format>
    <dc:creator>
     <cc:Agent>
      <dc:title>Matplotlib v3.7.5, https://matplotlib.org/</dc:title>
     </cc:Agent>
    </dc:creator>
   </cc:Work>
  </rdf:RDF>
 </metadata>
 <defs>
  <style type="text/css">*{stroke-linejoin: round; stroke-linecap: butt}</style>
 </defs>
 <g id="figure_1">
  <g id="patch_1">
   <path d="M 0 240.132758 
L 388.542964 240.132758 
L 388.542964 0 
L 0 0 
z
" style="fill: #ffffff"/>
  </g>
  <g id="axes_1">
   <g id="patch_2">
    <path d="M 65.305464 193.536948 
L 377.742964 193.536948 
L 377.742964 10.8 
L 65.305464 10.8 
z
" style="fill: #ffffff"/>
   </g>
   <g id="matplotlib.axis_1">
    <g id="xtick_1">
     <g id="line2d_1">
      <defs>
       <path id="m71eee09ede" d="M 0 0 
L 0 3.5 
" style="stroke: #000000; stroke-width: 0.8"/>
      </defs>
      <g>
       <use xlink:href="#m71eee09ede" x="79.507169" y="193.536948" style="stroke: #000000; stroke-width: 0.8"/>
      </g>
     </g>
     <g id="text_1">
      <!-- $\mathdefault{0.0}$ -->
      <g transform="translate(70.781878 210.222825) scale(0.14 -0.14)">
       <defs>
        <path id="CMR17-30" d="M 2688 2025 
C 2688 2416 2682 3080 2413 3591 
C 2176 4039 1798 4198 1466 4198 
C 1158 4198 768 4058 525 3597 
C 269 3118 243 2524 243 2025 
C 243 1661 250 1106 448 619 
C 723 -39 1216 -128 1466 -128 
C 1760 -128 2208 -7 2470 600 
C 2662 1042 2688 1559 2688 2025 
z
M 1466 -26 
C 1056 -26 813 325 723 812 
C 653 1188 653 1738 653 2096 
C 653 2588 653 2997 736 3387 
C 858 3929 1216 4096 1466 4096 
C 1728 4096 2067 3923 2189 3400 
C 2272 3036 2278 2607 2278 2096 
C 2278 1680 2278 1169 2202 792 
C 2067 95 1690 -26 1466 -26 
z
" transform="scale(0.015625)"/>
        <path id="CMMI12-3a" d="M 1178 307 
C 1178 492 1024 619 870 619 
C 685 619 557 466 557 313 
C 557 128 710 0 864 0 
C 1050 0 1178 153 1178 307 
z
" transform="scale(0.015625)"/>
       </defs>
       <use xlink:href="#CMR17-30" transform="scale(0.996264)"/>
       <use xlink:href="#CMMI12-3a" transform="translate(45.690477 0) scale(0.996264)"/>
       <use xlink:href="#CMR17-30" transform="translate(72.787654 0) scale(0.996264)"/>
      </g>
     </g>
    </g>
    <g id="xtick_2">
     <g id="line2d_2">
      <g>
       <use xlink:href="#m71eee09ede" x="136.313987" y="193.536948" style="stroke: #000000; stroke-width: 0.8"/>
      </g>
     </g>
     <g id="text_2">
      <!-- $\mathdefault{0.2}$ -->
      <g transform="translate(127.588696 210.222825) scale(0.14 -0.14)">
       <defs>
        <path id="CMR17-32" d="M 2669 989 
L 2554 989 
C 2490 536 2438 459 2413 420 
C 2381 369 1920 369 1830 369 
L 602 369 
C 832 619 1280 1072 1824 1597 
C 2214 1967 2669 2402 2669 3035 
C 2669 3790 2067 4224 1395 4224 
C 691 4224 262 3604 262 3030 
C 262 2780 448 2748 525 2748 
C 589 2748 781 2787 781 3010 
C 781 3207 614 3264 525 3264 
C 486 3264 448 3258 422 3245 
C 544 3790 915 4058 1306 4058 
C 1862 4058 2227 3617 2227 3035 
C 2227 2479 1901 2000 1536 1584 
L 262 146 
L 262 0 
L 2515 0 
L 2669 989 
z
" transform="scale(0.015625)"/>
       </defs>
       <use xlink:href="#CMR17-30" transform="scale(0.996264)"/>
       <use xlink:href="#CMMI12-3a" transform="translate(45.690477 0) scale(0.996264)"/>
       <use xlink:href="#CMR17-32" transform="translate(72.787654 0) scale(0.996264)"/>
      </g>
     </g>
    </g>
    <g id="xtick_3">
     <g id="line2d_3">
      <g>
       <use xlink:href="#m71eee09ede" x="193.120805" y="193.536948" style="stroke: #000000; stroke-width: 0.8"/>
      </g>
     </g>
     <g id="text_3">
      <!-- $\mathdefault{0.4}$ -->
      <g transform="translate(184.395514 210.222825) scale(0.14 -0.14)">
       <defs>
        <path id="CMR17-34" d="M 2150 4122 
C 2150 4256 2144 4256 2029 4256 
L 128 1254 
L 128 1088 
L 1779 1088 
L 1779 457 
C 1779 224 1766 160 1318 160 
L 1197 160 
L 1197 0 
C 1402 0 1747 0 1965 0 
C 2182 0 2528 0 2733 0 
L 2733 160 
L 2611 160 
C 2163 160 2150 224 2150 457 
L 2150 1088 
L 2803 1088 
L 2803 1254 
L 2150 1254 
L 2150 4122 
z
M 1798 3703 
L 1798 1254 
L 256 1254 
L 1798 3703 
z
" transform="scale(0.015625)"/>
       </defs>
       <use xlink:href="#CMR17-30" transform="scale(0.996264)"/>
       <use xlink:href="#CMMI12-3a" transform="translate(45.690477 0) scale(0.996264)"/>
       <use xlink:href="#CMR17-34" transform="translate(72.787654 0) scale(0.996264)"/>
      </g>
     </g>
    </g>
    <g id="xtick_4">
     <g id="line2d_4">
      <g>
       <use xlink:href="#m71eee09ede" x="249.927623" y="193.536948" style="stroke: #000000; stroke-width: 0.8"/>
      </g>
     </g>
     <g id="text_4">
      <!-- $\mathdefault{0.6}$ -->
      <g transform="translate(241.202332 210.222825) scale(0.14 -0.14)">
       <defs>
        <path id="CMR17-36" d="M 678 2176 
C 678 3690 1395 4032 1811 4032 
C 1946 4032 2272 4009 2400 3776 
C 2298 3776 2106 3776 2106 3553 
C 2106 3381 2246 3323 2336 3323 
C 2394 3323 2566 3348 2566 3560 
C 2566 3954 2246 4179 1805 4179 
C 1043 4179 243 3390 243 1984 
C 243 253 966 -128 1478 -128 
C 2099 -128 2688 427 2688 1283 
C 2688 2081 2170 2662 1517 2662 
C 1126 2662 838 2407 678 1960 
L 678 2176 
z
M 1478 25 
C 691 25 691 1200 691 1436 
C 691 1896 909 2560 1504 2560 
C 1613 2560 1926 2560 2138 2120 
C 2253 1870 2253 1609 2253 1289 
C 2253 944 2253 690 2118 434 
C 1978 171 1773 25 1478 25 
z
" transform="scale(0.015625)"/>
       </defs>
       <use xlink:href="#CMR17-30" transform="scale(0.996264)"/>
       <use xlink:href="#CMMI12-3a" transform="translate(45.690477 0) scale(0.996264)"/>
       <use xlink:href="#CMR17-36" transform="translate(72.787654 0) scale(0.996264)"/>
      </g>
     </g>
    </g>
    <g id="xtick_5">
     <g id="line2d_5">
      <g>
       <use xlink:href="#m71eee09ede" x="306.734441" y="193.536948" style="stroke: #000000; stroke-width: 0.8"/>
      </g>
     </g>
     <g id="text_5">
      <!-- $\mathdefault{0.8}$ -->
      <g transform="translate(298.00915 210.222825) scale(0.14 -0.14)">
       <defs>
        <path id="CMR17-38" d="M 1741 2264 
C 2144 2467 2554 2773 2554 3263 
C 2554 3841 1990 4179 1472 4179 
C 890 4179 378 3759 378 3180 
C 378 3021 416 2747 666 2505 
C 730 2442 998 2251 1171 2130 
C 883 1983 211 1634 211 934 
C 211 279 838 -128 1459 -128 
C 2144 -128 2720 362 2720 1010 
C 2720 1590 2330 1857 2074 2029 
L 1741 2264 
z
M 902 2822 
C 851 2854 595 3051 595 3351 
C 595 3739 998 4032 1459 4032 
C 1965 4032 2336 3676 2336 3262 
C 2336 2669 1670 2331 1638 2331 
C 1632 2331 1626 2331 1574 2370 
L 902 2822 
z
M 2080 1519 
C 2176 1449 2483 1240 2483 851 
C 2483 381 2010 25 1472 25 
C 890 25 448 438 448 940 
C 448 1443 838 1862 1280 2060 
L 2080 1519 
z
" transform="scale(0.015625)"/>
       </defs>
       <use xlink:href="#CMR17-30" transform="scale(0.996264)"/>
       <use xlink:href="#CMMI12-3a" transform="translate(45.690477 0) scale(0.996264)"/>
       <use xlink:href="#CMR17-38" transform="translate(72.787654 0) scale(0.996264)"/>
      </g>
     </g>
    </g>
    <g id="xtick_6">
     <g id="line2d_6">
      <g>
       <use xlink:href="#m71eee09ede" x="363.541259" y="193.536948" style="stroke: #000000; stroke-width: 0.8"/>
      </g>
     </g>
     <g id="text_6">
      <!-- $\mathdefault{1.0}$ -->
      <g transform="translate(354.815968 210.222825) scale(0.14 -0.14)">
       <defs>
        <path id="CMR17-31" d="M 1702 4058 
C 1702 4192 1696 4192 1606 4192 
C 1357 3916 979 3827 621 3827 
C 602 3827 570 3827 563 3808 
C 557 3795 557 3782 557 3648 
C 755 3648 1088 3686 1344 3839 
L 1344 461 
C 1344 236 1331 160 781 160 
L 589 160 
L 589 0 
C 896 0 1216 0 1523 0 
C 1830 0 2150 0 2458 0 
L 2458 160 
L 2266 160 
C 1715 160 1702 230 1702 458 
L 1702 4058 
z
" transform="scale(0.015625)"/>
       </defs>
       <use xlink:href="#CMR17-31" transform="scale(0.996264)"/>
       <use xlink:href="#CMMI12-3a" transform="translate(45.690477 0) scale(0.996264)"/>
       <use xlink:href="#CMR17-30" transform="translate(72.787654 0) scale(0.996264)"/>
      </g>
     </g>
    </g>
    <g id="text_7">
     <!-- t -->
     <g transform="translate(218.868691 226.620729) scale(0.14 -0.14)">
      <defs>
       <path id="CMR17-74" d="M 966 2560 
L 1862 2560 
L 1862 2725 
L 966 2725 
L 966 3904 
L 851 3904 
C 838 3245 614 2668 70 2668 
L 70 2560 
L 627 2560 
L 627 771 
C 627 650 627 -64 1370 -64 
C 1747 -64 1965 306 1965 777 
L 1965 1140 
L 1850 1140 
L 1850 783 
C 1850 344 1677 51 1408 51 
C 1222 51 966 178 966 758 
L 966 2560 
z
" transform="scale(0.015625)"/>
      </defs>
      <use xlink:href="#CMR17-74" transform="scale(0.996264)"/>
     </g>
    </g>
   </g>
   <g id="matplotlib.axis_2">
    <g id="ytick_1">
     <g id="line2d_7">
      <defs>
       <path id="m7d9ac15303" d="M 0 0 
L -3.5 0 
" style="stroke: #000000; stroke-width: 0.8"/>
      </defs>
      <g>
       <use xlink:href="#m7d9ac15303" x="65.305464" y="178.290278" style="stroke: #000000; stroke-width: 0.8"/>
      </g>
     </g>
     <g id="text_8">
      <!-- $\mathdefault{0.100}$ -->
      <g transform="translate(27.197905 183.133216) scale(0.14 -0.14)">
       <use xlink:href="#CMR17-30" transform="scale(0.996264)"/>
       <use xlink:href="#CMMI12-3a" transform="translate(45.690477 0) scale(0.996264)"/>
       <use xlink:href="#CMR17-31" transform="translate(72.787654 0) scale(0.996264)"/>
       <use xlink:href="#CMR17-30" transform="translate(118.478131 0) scale(0.996264)"/>
       <use xlink:href="#CMR17-30" transform="translate(164.168608 0) scale(0.996264)"/>
      </g>
     </g>
    </g>
    <g id="ytick_2">
     <g id="line2d_8">
      <g>
       <use xlink:href="#m7d9ac15303" x="65.305464" y="156.478965" style="stroke: #000000; stroke-width: 0.8"/>
      </g>
     </g>
     <g id="text_9">
      <!-- $\mathdefault{0.125}$ -->
      <g transform="translate(27.197905 161.321903) scale(0.14 -0.14)">
       <defs>
        <path id="CMR17-35" d="M 730 3692 
C 794 3666 1056 3584 1325 3584 
C 1920 3584 2246 3911 2432 4100 
C 2432 4157 2432 4192 2394 4192 
C 2387 4192 2374 4192 2323 4163 
C 2099 4058 1837 3973 1517 3973 
C 1325 3973 1037 3999 723 4139 
C 653 4171 640 4171 634 4171 
C 602 4171 595 4164 595 4037 
L 595 2203 
C 595 2089 595 2057 659 2057 
C 691 2057 704 2070 736 2114 
C 941 2401 1222 2522 1542 2522 
C 1766 2522 2246 2382 2246 1289 
C 2246 1085 2246 715 2054 421 
C 1894 159 1645 25 1370 25 
C 947 25 518 320 403 814 
C 429 807 480 795 506 795 
C 589 795 749 840 749 1038 
C 749 1210 627 1280 506 1280 
C 358 1280 262 1190 262 1011 
C 262 454 704 -128 1382 -128 
C 2042 -128 2669 440 2669 1264 
C 2669 2030 2170 2624 1549 2624 
C 1222 2624 947 2503 730 2274 
L 730 3692 
z
" transform="scale(0.015625)"/>
       </defs>
       <use xlink:href="#CMR17-30" transform="scale(0.996264)"/>
       <use xlink:href="#CMMI12-3a" transform="translate(45.690477 0) scale(0.996264)"/>
       <use xlink:href="#CMR17-31" transform="translate(72.787654 0) scale(0.996264)"/>
       <use xlink:href="#CMR17-32" transform="translate(118.478131 0) scale(0.996264)"/>
       <use xlink:href="#CMR17-35" transform="translate(164.168608 0) scale(0.996264)"/>
      </g>
     </g>
    </g>
    <g id="ytick_3">
     <g id="line2d_9">
      <g>
       <use xlink:href="#m7d9ac15303" x="65.305464" y="134.667651" style="stroke: #000000; stroke-width: 0.8"/>
      </g>
     </g>
     <g id="text_10">
      <!-- $\mathdefault{0.150}$ -->
      <g transform="translate(27.197905 139.510589) scale(0.14 -0.14)">
       <use xlink:href="#CMR17-30" transform="scale(0.996264)"/>
       <use xlink:href="#CMMI12-3a" transform="translate(45.690477 0) scale(0.996264)"/>
       <use xlink:href="#CMR17-31" transform="translate(72.787654 0) scale(0.996264)"/>
       <use xlink:href="#CMR17-35" transform="translate(118.478131 0) scale(0.996264)"/>
       <use xlink:href="#CMR17-30" transform="translate(164.168608 0) scale(0.996264)"/>
      </g>
     </g>
    </g>
    <g id="ytick_4">
     <g id="line2d_10">
      <g>
       <use xlink:href="#m7d9ac15303" x="65.305464" y="112.856338" style="stroke: #000000; stroke-width: 0.8"/>
      </g>
     </g>
     <g id="text_11">
      <!-- $\mathdefault{0.175}$ -->
      <g transform="translate(27.197905 117.699276) scale(0.14 -0.14)">
       <defs>
        <path id="CMR17-37" d="M 2886 3941 
L 2886 4081 
L 1382 4081 
C 634 4081 621 4165 595 4288 
L 480 4288 
L 294 3094 
L 410 3094 
C 429 3215 474 3540 550 3661 
C 589 3712 1062 3712 1171 3712 
L 2579 3712 
L 1869 2661 
C 1395 1954 1069 999 1069 165 
C 1069 89 1069 -128 1299 -128 
C 1530 -128 1530 89 1530 171 
L 1530 465 
C 1530 1508 1709 2196 2003 2636 
L 2886 3941 
z
" transform="scale(0.015625)"/>
       </defs>
       <use xlink:href="#CMR17-30" transform="scale(0.996264)"/>
       <use xlink:href="#CMMI12-3a" transform="translate(45.690477 0) scale(0.996264)"/>
       <use xlink:href="#CMR17-31" transform="translate(72.787654 0) scale(0.996264)"/>
       <use xlink:href="#CMR17-37" transform="translate(118.478131 0) scale(0.996264)"/>
       <use xlink:href="#CMR17-35" transform="translate(164.168608 0) scale(0.996264)"/>
      </g>
     </g>
    </g>
    <g id="ytick_5">
     <g id="line2d_11">
      <g>
       <use xlink:href="#m7d9ac15303" x="65.305464" y="91.045024" style="stroke: #000000; stroke-width: 0.8"/>
      </g>
     </g>
     <g id="text_12">
      <!-- $\mathdefault{0.200}$ -->
      <g transform="translate(27.197905 95.887963) scale(0.14 -0.14)">
       <use xlink:href="#CMR17-30" transform="scale(0.996264)"/>
       <use xlink:href="#CMMI12-3a" transform="translate(45.690477 0) scale(0.996264)"/>
       <use xlink:href="#CMR17-32" transform="translate(72.787654 0) scale(0.996264)"/>
       <use xlink:href="#CMR17-30" transform="translate(118.478131 0) scale(0.996264)"/>
       <use xlink:href="#CMR17-30" transform="translate(164.168608 0) scale(0.996264)"/>
      </g>
     </g>
    </g>
    <g id="ytick_6">
     <g id="line2d_12">
      <g>
       <use xlink:href="#m7d9ac15303" x="65.305464" y="69.233711" style="stroke: #000000; stroke-width: 0.8"/>
      </g>
     </g>
     <g id="text_13">
      <!-- $\mathdefault{0.225}$ -->
      <g transform="translate(27.197905 74.076649) scale(0.14 -0.14)">
       <use xlink:href="#CMR17-30" transform="scale(0.996264)"/>
       <use xlink:href="#CMMI12-3a" transform="translate(45.690477 0) scale(0.996264)"/>
       <use xlink:href="#CMR17-32" transform="translate(72.787654 0) scale(0.996264)"/>
       <use xlink:href="#CMR17-32" transform="translate(118.478131 0) scale(0.996264)"/>
       <use xlink:href="#CMR17-35" transform="translate(164.168608 0) scale(0.996264)"/>
      </g>
     </g>
    </g>
    <g id="ytick_7">
     <g id="line2d_13">
      <g>
       <use xlink:href="#m7d9ac15303" x="65.305464" y="47.422398" style="stroke: #000000; stroke-width: 0.8"/>
      </g>
     </g>
     <g id="text_14">
      <!-- $\mathdefault{0.250}$ -->
      <g transform="translate(27.197905 52.265336) scale(0.14 -0.14)">
       <use xlink:href="#CMR17-30" transform="scale(0.996264)"/>
       <use xlink:href="#CMMI12-3a" transform="translate(45.690477 0) scale(0.996264)"/>
       <use xlink:href="#CMR17-32" transform="translate(72.787654 0) scale(0.996264)"/>
       <use xlink:href="#CMR17-35" transform="translate(118.478131 0) scale(0.996264)"/>
       <use xlink:href="#CMR17-30" transform="translate(164.168608 0) scale(0.996264)"/>
      </g>
     </g>
    </g>
    <g id="ytick_8">
     <g id="line2d_14">
      <g>
       <use xlink:href="#m7d9ac15303" x="65.305464" y="25.611084" style="stroke: #000000; stroke-width: 0.8"/>
      </g>
     </g>
     <g id="text_15">
      <!-- $\mathdefault{0.275}$ -->
      <g transform="translate(27.197905 30.454022) scale(0.14 -0.14)">
       <use xlink:href="#CMR17-30" transform="scale(0.996264)"/>
       <use xlink:href="#CMMI12-3a" transform="translate(45.690477 0) scale(0.996264)"/>
       <use xlink:href="#CMR17-32" transform="translate(72.787654 0) scale(0.996264)"/>
       <use xlink:href="#CMR17-37" transform="translate(118.478131 0) scale(0.996264)"/>
       <use xlink:href="#CMR17-35" transform="translate(164.168608 0) scale(0.996264)"/>
      </g>
     </g>
    </g>
    <g id="text_16">
     <!-- P -->
     <g transform="translate(20.485876 106.814435) rotate(-90) scale(0.14 -0.14)">
      <defs>
       <path id="CMR17-50" d="M 1267 2042 
L 2291 2042 
C 3117 2042 3718 2578 3718 3184 
C 3718 3791 3130 4352 2291 4352 
L 333 4352 
L 333 4186 
C 774 4186 845 4186 845 3899 
L 845 446 
C 845 160 774 160 333 160 
L 333 0 
C 518 0 858 0 1056 0 
C 1254 0 1594 0 1779 0 
L 1779 160 
C 1338 160 1267 160 1267 446 
L 1267 2042 
z
M 1254 2176 
L 1254 3938 
C 1254 4155 1267 4186 1523 4186 
L 2170 4186 
C 2995 4186 3232 3714 3232 3184 
C 3232 2604 2950 2176 2170 2176 
L 1254 2176 
z
" transform="scale(0.015625)"/>
      </defs>
      <use xlink:href="#CMR17-50" transform="scale(0.996264)"/>
     </g>
    </g>
   </g>
   <g id="line2d_15">
    <path d="M 79.507169 183.739538 
L 87.003647 182.399999 
L 93.66717 181.454547 
L 100.330693 180.762215 
L 111.15875 179.777761 
L 113.657985 179.32674 
L 115.323894 178.879384 
L 116.989684 178.253914 
L 118.655597 177.379243 
L 120.321506 176.16451 
L 121.987419 174.497027 
L 123.653209 172.244901 
L 125.319117 169.266116 
L 126.98503 165.431394 
L 128.65082 160.661406 
L 130.31722 154.973474 
L 132.816089 145.138294 
L 136.147788 131.638139 
L 137.813701 125.776306 
L 139.479487 120.989072 
L 140.312444 119.052379 
L 141.1454 117.427245 
L 141.978356 116.107207 
L 142.81119 115.078915 
L 143.644265 114.323336 
L 144.477222 113.81898 
L 145.310178 113.542198 
L 146.143012 113.46894 
L 146.975968 113.575596 
L 147.808925 113.839962 
L 149.474833 114.760662 
L 151.140619 116.087135 
L 152.806532 117.705197 
L 155.305279 120.491658 
L 159.470057 125.61753 
L 166.966415 134.957805 
L 171.131066 139.75544 
L 174.462892 143.272909 
L 177.794472 146.461867 
L 181.126662 149.298693 
L 184.458479 151.769357 
L 186.957226 153.379242 
L 189.456091 154.781274 
L 191.954838 155.977585 
L 194.453584 156.97179 
L 196.952576 157.768555 
L 199.451315 158.373425 
L 201.950061 158.792765 
L 204.448926 159.033905 
L 207.780625 159.092135 
L 211.112578 158.86939 
L 214.444277 158.390235 
L 217.775976 157.682342 
L 221.940754 156.52277 
L 226.105405 155.119418 
L 231.936468 152.876537 
L 251.093836 145.212306 
L 256.924527 143.207061 
L 262.755099 141.414895 
L 269.418615 139.594571 
L 277.747799 137.573179 
L 288.576474 135.206012 
L 301.903405 132.534723 
L 315.230437 130.084495 
L 330.223899 127.559007 
L 363.541259 122.203168 
L 363.541259 122.203168 
" clip-path="url(#p392de44591)" style="fill: none; stroke: #1f77b4; stroke-width: 3; stroke-linecap: square"/>
   </g>
   <g id="line2d_16">
    <path d="M 79.507169 182.478055 
L 86.323987 181.127642 
L 92.572737 180.114866 
L 98.537453 179.368764 
L 106.774442 178.609232 
L 111.034953 178.112429 
L 113.591259 177.612174 
L 115.579499 177.015111 
L 117.283703 176.276608 
L 118.703872 175.436687 
L 120.124046 174.32954 
L 121.544215 172.886563 
L 122.680349 171.438529 
L 123.816488 169.682778 
L 124.952622 167.574751 
L 126.088761 165.072781 
L 127.50893 161.344312 
L 128.929099 156.931592 
L 130.633307 150.804014 
L 132.905576 141.635528 
L 136.313988 127.87951 
L 137.734157 122.972515 
L 139.154326 118.86768 
L 140.290465 116.231376 
L 141.426599 114.182202 
L 142.278703 113.016819 
L 143.130807 112.149201 
L 143.982907 111.555648 
L 144.835011 111.210184 
L 145.68711 111.086198 
L 146.539214 111.157558 
L 147.675349 111.514072 
L 148.811488 112.120587 
L 150.231657 113.159617 
L 151.93586 114.719151 
L 154.208138 117.162827 
L 157.332506 120.913383 
L 170.398076 137.009072 
L 174.090522 141.048566 
L 177.49893 144.46402 
L 180.623307 147.303146 
L 183.747684 149.840153 
L 186.588022 151.866757 
L 189.42836 153.613434 
L 191.984668 154.937931 
L 194.540976 156.022021 
L 197.097283 156.861161 
L 199.653591 157.452921 
L 202.209899 157.797994 
L 204.766207 157.899132 
L 207.322506 157.758109 
L 209.878814 157.373806 
L 212.435122 156.743337 
L 214.991429 155.864948 
L 217.547737 154.740296 
L 220.104045 153.374705 
L 222.944383 151.584528 
L 225.784721 149.520781 
L 228.909107 146.957006 
L 232.317506 143.849289 
L 236.293983 139.89188 
L 241.122568 134.754802 
L 249.92763 124.986327 
L 258.164614 115.974875 
L 263.84529 110.095945 
L 268.957906 105.135921 
L 273.786491 100.769165 
L 278.615059 96.715487 
L 283.443644 92.966595 
L 288.272229 89.507797 
L 293.100798 86.321478 
L 298.213413 83.223406 
L 303.326029 80.385541 
L 308.722675 77.64557 
L 314.403368 75.014192 
L 320.368075 72.495621 
L 326.900859 69.983523 
L 334.001722 67.497362 
L 341.954676 64.957729 
L 351.043751 62.301872 
L 361.553012 59.472379 
L 363.257229 59.032375 
L 363.257229 59.032375 
" clip-path="url(#p392de44591)" style="fill: none; stroke-dasharray: 11.1,4.8; stroke-dashoffset: 0; stroke: #ff7f0e; stroke-width: 3"/>
   </g>
   <g id="line2d_17">
    <path d="M 79.507169 182.478053 
L 87.829368 181.752299 
L 94.362152 180.968606 
L 99.559975 180.129114 
L 103.76368 179.232674 
L 107.228896 178.273239 
L 110.126044 177.246807 
L 112.59714 176.140063 
L 114.727396 174.946358 
L 116.602021 173.643254 
L 118.277822 172.207343 
L 119.783203 170.626911 
L 121.17497 168.844885 
L 122.481527 166.809928 
L 123.731277 164.447746 
L 124.952623 161.653745 
L 126.17397 158.28805 
L 127.452123 154.080713 
L 128.872294 148.590981 
L 130.860532 139.890099 
L 133.615663 127.959554 
L 135.17785 122.204195 
L 136.598021 117.794121 
L 137.989788 114.184958 
L 139.381555 111.183962 
L 140.801725 108.640156 
L 142.278703 106.443595 
L 143.84089 104.517056 
L 145.488288 102.834186 
L 147.277703 101.323508 
L 149.237538 99.963156 
L 151.396197 98.738465 
L 153.810487 97.62745 
L 156.537214 96.619868 
L 159.689992 95.697362 
L 163.354032 94.863519 
L 167.699754 94.111489 
L 172.840771 93.453323 
L 179.117924 92.880479 
L 186.843652 92.404191 
L 196.728038 92.026382 
L 209.537975 91.767801 
L 226.864055 91.648872 
L 252.029475 91.713744 
L 292.106686 92.063316 
L 363.512856 92.915776 
L 363.512856 92.915776 
" clip-path="url(#p392de44591)" style="fill: none; stroke-dasharray: 3,4.95; stroke-dashoffset: 0; stroke: #d62728; stroke-width: 3"/>
   </g>
   <g id="line2d_18">
    <path d="M 79.507169 182.478053 
L 85.443481 180.115522 
L 90.726515 177.778243 
L 95.441481 175.452431 
L 99.616782 173.150026 
L 103.366032 170.832501 
L 106.717635 168.502964 
L 109.728396 166.143259 
L 112.455123 163.725396 
L 114.92622 161.237643 
L 117.170089 158.66508 
L 119.243538 155.94823 
L 121.146566 153.089486 
L 122.935981 149.999644 
L 124.640186 146.608423 
L 126.287583 142.829005 
L 127.934981 138.484297 
L 129.695992 133.185934 
L 131.826248 126.014281 
L 136.796845 108.999075 
L 138.501049 104.123529 
L 139.978027 100.542721 
L 141.312987 97.858041 
L 142.562737 95.823584 
L 143.727277 94.334578 
L 144.83501 93.265881 
L 145.885936 92.5463 
L 146.936862 92.091931 
L 147.987788 91.879293 
L 149.067117 91.886041 
L 150.231657 92.11697 
L 151.538214 92.6096 
L 153.043595 93.422966 
L 154.889816 94.684826 
L 157.41772 96.704281 
L 168.495049 105.869881 
L 171.960265 108.289076 
L 175.425481 110.43903 
L 178.975907 112.380897 
L 182.696754 114.160764 
L 186.616424 115.786965 
L 190.791725 117.27532 
L 195.251061 118.626078 
L 200.051237 119.844607 
L 205.249061 120.930505 
L 210.901339 121.878453 
L 217.036475 122.676258 
L 223.65447 123.31036 
L 230.868936 123.777041 
L 238.73668 124.06217 
L 247.39972 124.149793 
L 256.886458 124.017604 
L 267.168492 123.648154 
L 278.387839 123.018771 
L 290.487691 122.115609 
L 303.610066 120.911251 
L 317.669754 119.397076 
L 332.950788 117.522773 
L 349.254345 115.291774 
L 363.512856 113.164948 
L 363.512856 113.164948 
" clip-path="url(#p392de44591)" style="fill: none; stroke-dasharray: 11.1,4.8; stroke-dashoffset: 0; stroke: #d62728; stroke-width: 3"/>
   </g>
   <g id="line2d_19">
    <path d="M 79.507169 182.478053 
L 84.591379 182.641738 
L 89.277941 182.574551 
L 93.59526 182.292556 
L 97.51493 181.816183 
L 101.065356 181.164102 
L 104.274941 180.352639 
L 107.200493 179.385398 
L 109.84201 178.279616 
L 112.227896 177.043315 
L 114.414958 175.661265 
L 116.403197 174.144672 
L 118.249419 172.456089 
L 119.953623 170.594351 
L 121.544214 168.524467 
L 123.049595 166.192375 
L 124.469765 163.575221 
L 125.833129 160.592204 
L 127.196492 157.055481 
L 128.58826 152.794178 
L 130.09364 147.426223 
L 132.025072 139.628151 
L 135.973146 123.506045 
L 137.620544 117.82956 
L 139.040714 113.6916 
L 140.347271 110.540304 
L 141.540214 108.212763 
L 142.647947 106.508923 
L 143.698873 105.281814 
L 144.692992 104.45022 
L 145.658708 103.927897 
L 146.596021 103.668731 
L 147.561737 103.633434 
L 148.58426 103.824451 
L 149.691992 104.261296 
L 150.970146 105.012702 
L 152.50393 106.186938 
L 154.463765 107.985734 
L 157.58814 111.199147 
L 163.240419 117.004623 
L 166.506811 120.015162 
L 169.602782 122.566196 
L 172.67035 124.806035 
L 175.794725 126.812294 
L 179.004311 128.610583 
L 182.355913 130.233988 
L 185.877936 131.691091 
L 189.570379 132.976105 
L 193.461646 134.092566 
L 197.551737 135.032936 
L 201.840652 135.790582 
L 206.385197 136.365298 
L 211.15697 136.741625 
L 216.15597 136.910138 
L 221.382197 136.861464 
L 226.835652 136.585748 
L 232.48793 136.076503 
L 238.395839 135.318974 
L 244.530975 134.305828 
L 250.893339 133.028627 
L 257.511333 131.473617 
L 264.555379 129.585859 
L 271.940265 127.375075 
L 279.97843 124.735143 
L 289.209538 121.461954 
L 301.3946 116.887865 
L 320.226061 109.817928 
L 328.207418 107.074889 
L 334.768606 105.047375 
L 340.534498 103.492118 
L 345.789129 102.300604 
L 350.674515 101.417632 
L 355.275867 100.80905 
L 359.649992 100.450911 
L 363.512856 100.326704 
L 363.512856 100.326704 
" clip-path="url(#p392de44591)" style="fill: none; stroke-dasharray: 19.2,4.8,3,4.8; stroke-dashoffset: 0; stroke: #d62728; stroke-width: 3"/>
   </g>
   <g id="line2d_20">
    <path d="M 79.507169 182.478053 
L 81.154566 183.480335 
L 82.830368 184.244833 
L 84.562975 184.792107 
L 86.35239 185.121531 
L 88.170208 185.230723 
L 90.044833 185.122036 
L 92.004669 184.782385 
L 94.021311 184.203294 
L 96.09476 183.373962 
L 98.225015 182.281054 
L 100.412078 180.908542 
L 102.655947 179.237599 
L 104.956623 177.246588 
L 107.314106 174.911246 
L 109.728396 172.205202 
L 112.227896 169.063395 
L 114.784203 165.488977 
L 117.454123 161.368081 
L 120.294464 156.564769 
L 123.418839 150.82834 
L 127.224896 143.345266 
L 135.490288 126.931568 
L 137.904578 122.72877 
L 139.892816 119.691117 
L 141.625424 117.42982 
L 143.187612 115.740714 
L 144.636186 114.494083 
L 145.971146 113.62864 
L 147.249299 113.0582 
L 148.499049 112.742763 
L 149.720396 112.660099 
L 150.970146 112.796677 
L 152.276703 113.164571 
L 153.66847 113.789764 
L 155.202254 114.729053 
L 156.906458 116.039732 
L 158.894697 117.861906 
L 161.280583 120.366027 
L 164.433362 124.021548 
L 178.066998 140.217826 
L 181.589021 143.852677 
L 184.855413 146.909882 
L 187.951384 149.50937 
L 190.933742 151.727308 
L 193.802487 153.58714 
L 196.557617 155.112977 
L 199.227538 156.340196 
L 201.783845 157.27462 
L 204.254941 157.944741 
L 206.640828 158.364127 
L 208.941504 158.546145 
L 211.185373 158.502399 
L 213.372436 158.238474 
L 215.531095 157.752837 
L 217.66135 157.043911 
L 219.791606 156.097358 
L 221.921862 154.905504 
L 224.108924 153.421787 
L 226.352794 151.625657 
L 228.710277 149.448073 
L 231.266583 146.774091 
L 234.135328 143.440133 
L 237.770964 138.848923 
L 249.075521 124.32465 
L 252.853174 119.987067 
L 256.687634 115.924873 
L 260.834532 111.859934 
L 265.435884 107.664482 
L 270.520095 103.332073 
L 275.945146 99.001126 
L 281.597424 94.77299 
L 287.363316 90.736694 
L 293.214418 86.911953 
L 299.093924 83.333309 
L 305.001833 79.996353 
L 310.938146 76.897714 
L 316.902862 74.034535 
L 322.895981 71.40399 
L 328.917504 69.003068 
L 334.995833 66.818704 
L 341.13097 64.850226 
L 347.351316 63.088649 
L 353.656873 61.534733 
L 360.076043 60.182593 
L 363.512856 59.550272 
L 363.512856 59.550272 
" clip-path="url(#p392de44591)" style="fill: none; stroke-dasharray: 19.2,4.8,3,4.8; stroke-dashoffset: 0; stroke: #8c564b; stroke-width: 3"/>
   </g>
   <g id="line2d_21">
    <path d="M 79.507169 182.434321 
L 86.170814 181.067085 
L 92.001258 180.080811 
L 97.831948 179.31632 
L 105.328304 178.595335 
L 110.325916 178.055142 
L 112.825029 177.614033 
L 115.323894 176.912335 
L 116.989684 176.210929 
L 118.655597 175.235731 
L 120.321506 173.889283 
L 121.987419 172.052727 
L 123.653209 169.589525 
L 125.319117 166.357144 
L 126.98503 162.234142 
L 128.65082 157.160707 
L 130.31722 151.187088 
L 132.816089 141.049879 
L 135.314832 130.738917 
L 136.980745 124.57326 
L 138.646535 119.429291 
L 139.479487 117.309954 
L 140.312444 115.506712 
L 141.1454 114.017225 
L 141.978356 112.830794 
L 142.81119 111.931065 
L 143.644265 111.296443 
L 144.477222 110.903865 
L 145.310178 110.728643 
L 146.143012 110.746337 
L 146.975968 110.93335 
L 147.808925 111.267711 
L 149.474833 112.299319 
L 151.140619 113.702339 
L 153.639366 116.272873 
L 156.971192 120.189083 
L 169.465153 135.383457 
L 172.796979 139.01576 
L 176.128678 142.359763 
L 179.460749 145.384238 
L 182.792575 148.06377 
L 185.29144 149.834615 
L 187.790187 151.391795 
L 190.289052 152.727706 
L 192.787798 153.834301 
L 195.286537 154.703427 
L 197.78541 155.326582 
L 200.284275 155.694719 
L 202.783013 155.798503 
L 205.281887 155.628806 
L 207.780625 155.17679 
L 210.279617 154.434393 
L 212.778482 153.395103 
L 215.277229 152.054537 
L 217.775976 150.410994 
L 220.274968 148.46602 
L 222.773714 146.225621 
L 225.272579 143.699691 
L 227.771445 140.903233 
L 231.103626 136.787868 
L 234.435333 132.286126 
L 238.599984 126.222511 
L 243.597477 118.509775 
L 259.423392 93.742572 
L 264.420885 86.498883 
L 268.585655 80.811088 
L 272.750187 75.46357 
L 276.914855 70.46119 
L 281.080116 65.798566 
L 285.244648 61.466482 
L 289.409435 57.44918 
L 293.574086 53.730787 
L 297.738737 50.293661 
L 301.903405 47.119745 
L 306.068056 44.189965 
L 311.065786 40.969416 
L 316.063398 38.038648 
L 321.061009 35.363732 
L 326.8917 32.522929 
L 332.722628 29.93743 
L 339.386043 27.241427 
L 346.88252 24.476105 
L 354.378861 21.941516 
L 362.708299 19.352949 
L 363.541259 19.106225 
L 363.541259 19.106225 
" clip-path="url(#p392de44591)" style="fill: none; stroke: #1f77b4; stroke-width: 2; stroke-linecap: square"/>
   </g>
   <g id="line2d_22">
    <path d="M 79.507169 180.649748 
L 85.337859 179.401545 
L 91.168303 178.373155 
L 96.998993 177.582377 
L 104.495348 176.838602 
L 109.49296 176.28537 
L 111.991704 175.840302 
L 114.49094 175.139832 
L 116.156728 174.44492 
L 117.822641 173.483568 
L 119.488553 172.161366 
L 121.154339 170.362934 
L 122.820375 167.9536 
L 124.486161 164.792339 
L 126.152074 160.752033 
L 127.817864 155.759488 
L 129.484386 149.841232 
L 131.983133 139.670832 
L 135.314832 125.783937 
L 136.980745 119.76416 
L 138.646535 114.845191 
L 139.479487 112.852661 
L 140.312444 111.178775 
L 141.1454 109.816901 
L 141.978356 108.753521 
L 142.81119 107.970094 
L 143.644265 107.444209 
L 144.477222 107.152373 
L 145.310178 107.070118 
L 146.143012 107.173641 
L 146.975968 107.440335 
L 148.641877 108.380704 
L 150.307667 109.745008 
L 151.97358 111.417296 
L 154.472327 114.312715 
L 157.804144 118.583189 
L 169.465153 133.931828 
L 173.62994 138.900146 
L 176.961512 142.545437 
L 180.293701 145.862204 
L 183.625527 148.828202 
L 186.957226 151.432474 
L 190.289052 153.673133 
L 192.787798 155.118014 
L 195.286537 156.366198 
L 197.78541 157.42456 
L 201.117227 158.555387 
L 204.448926 159.388548 
L 207.780625 159.952837 
L 211.112578 160.280782 
L 214.444277 160.407713 
L 218.608928 160.340669 
L 223.606658 160.027525 
L 244.430438 158.388473 
L 250.260994 158.304958 
L 256.091684 158.449992 
L 262.755099 158.851332 
L 271.917243 159.661488 
L 289.409435 161.266179 
L 297.738737 161.797538 
L 306.068056 162.108088 
L 314.397493 162.19187 
L 322.726914 162.054767 
L 331.056724 161.701431 
L 339.386043 161.129484 
L 347.715463 160.331289 
L 356.044901 159.298109 
L 363.541259 158.162667 
L 363.541259 158.162667 
" clip-path="url(#p392de44591)" style="fill: none; stroke: #1f77b4; stroke-width: 2; stroke-linecap: square"/>
   </g>
   <g id="patch_3">
    <path d="M 65.305464 193.536948 
L 65.305464 10.8 
" style="fill: none; stroke: #000000; stroke-width: 0.8; stroke-linejoin: miter; stroke-linecap: square"/>
   </g>
   <g id="patch_4">
    <path d="M 377.742964 193.536948 
L 377.742964 10.8 
" style="fill: none; stroke: #000000; stroke-width: 0.8; stroke-linejoin: miter; stroke-linecap: square"/>
   </g>
   <g id="patch_5">
    <path d="M 65.305464 193.536948 
L 377.742964 193.536948 
" style="fill: none; stroke: #000000; stroke-width: 0.8; stroke-linejoin: miter; stroke-linecap: square"/>
   </g>
   <g id="patch_6">
    <path d="M 65.305464 10.8 
L 377.742964 10.8 
" style="fill: none; stroke: #000000; stroke-width: 0.8; stroke-linejoin: miter; stroke-linecap: square"/>
   </g>
   <g id="legend_1">
    <g id="line2d_23">
     <path d="M 77.905464 28.999506 
L 91.905464 28.999506 
L 105.905464 28.999506 
" style="fill: none; stroke: #1f77b4; stroke-width: 3; stroke-linecap: square"/>
    </g>
    <g id="text_17">
     <!-- $\hat{P}$ -->
     <g transform="translate(117.105464 33.899506) scale(0.14 -0.14)">
      <defs>
       <path id="CMR17-5e" d="M 1466 4421 
L 678 3555 
L 755 3478 
L 1466 4166 
L 2176 3478 
L 2253 3555 
L 1466 4421 
z
" transform="scale(0.015625)"/>
       <path id="CMMI12-50" d="M 1894 2023 
L 2970 2023 
C 3853 2023 4736 2673 4736 3401 
C 4736 3898 4314 4352 3507 4352 
L 1530 4352 
C 1408 4352 1350 4352 1350 4231 
C 1350 4167 1408 4167 1504 4167 
C 1894 4167 1894 4116 1894 4046 
C 1894 4034 1894 3995 1869 3899 
L 1005 472 
C 947 249 934 185 486 185 
C 365 185 301 185 301 70 
C 301 0 358 0 397 0 
C 518 0 646 0 768 0 
L 1517 0 
C 1638 0 1773 0 1894 0 
C 1946 0 2016 0 2016 121 
C 2016 185 1958 185 1862 185 
C 1478 185 1472 230 1472 293 
C 1472 325 1478 369 1485 401 
L 1894 2023 
z
M 2355 3930 
C 2413 4167 2438 4167 2688 4167 
L 3322 4167 
C 3802 4167 4198 4013 4198 3535 
C 4198 3369 4115 2827 3821 2534 
C 3712 2419 3405 2176 2822 2176 
L 1920 2176 
L 2355 3930 
z
" transform="scale(0.015625)"/>
      </defs>
      <use xlink:href="#CMR17-5e" transform="translate(23.496833 25.189733) scale(0.996264)"/>
      <use xlink:href="#CMMI12-50" transform="scale(0.996264)"/>
     </g>
    </g>
    <g id="line2d_24">
     <path d="M 77.905464 48.511535 
L 91.905464 48.511535 
L 105.905464 48.511535 
" style="fill: none; stroke-dasharray: 11.1,4.8; stroke-dashoffset: 0; stroke: #ff7f0e; stroke-width: 3"/>
    </g>
    <g id="text_18">
     <!-- $P^*$ -->
     <g transform="translate(117.105464 53.411535) scale(0.14 -0.14)">
      <defs>
       <path id="CMSY10-3" d="M 1760 2719 
C 1766 2808 1766 2962 1600 2962 
C 1498 2962 1414 2879 1434 2795 
L 1434 2712 
L 1523 1720 
L 704 2316 
C 646 2348 634 2360 589 2360 
C 499 2360 416 2271 416 2181 
C 416 2079 480 2053 544 2021 
L 1453 1586 
L 570 1158 
C 467 1107 416 1081 416 985 
C 416 889 499 806 589 806 
C 634 806 646 806 806 928 
L 1523 1446 
L 1427 371 
C 1427 236 1542 204 1594 204 
C 1670 204 1766 248 1766 371 
L 1670 1446 
L 2490 851 
C 2547 819 2560 806 2605 806 
C 2694 806 2778 896 2778 985 
C 2778 1081 2720 1113 2643 1152 
C 2259 1343 2246 1343 1741 1580 
L 2624 2008 
C 2726 2060 2778 2085 2778 2181 
C 2778 2277 2694 2360 2605 2360 
C 2560 2360 2547 2360 2387 2239 
L 1670 1720 
L 1760 2719 
z
" transform="scale(0.015625)"/>
      </defs>
      <use xlink:href="#CMMI12-50" transform="scale(0.996264)"/>
      <use xlink:href="#CMSY10-3" transform="translate(76.425821 36.153639) scale(0.697382)"/>
     </g>
    </g>
    <g id="line2d_25">
     <path d="M 77.905464 68.684426 
L 91.905464 68.684426 
L 105.905464 68.684426 
" style="fill: none; stroke-dasharray: 3,4.95; stroke-dashoffset: 0; stroke: #d62728; stroke-width: 3"/>
    </g>
    <g id="text_19">
     <!-- $\sum \phi^s_9 \cdot dt$ -->
     <g transform="translate(117.105464 73.584426) scale(0.14 -0.14)">
      <defs>
       <path id="CMEX10-50" d="M 2694 -3418 
L 422 -6227 
C 371 -6291 365 -6304 365 -6330 
C 365 -6400 422 -6400 538 -6400 
L 5843 -6400 
L 6394 -4806 
L 6234 -4806 
C 6074 -5286 5645 -5677 5101 -5862 
C 4998 -5894 4557 -6048 3616 -6048 
L 896 -6048 
L 3117 -3302 
C 3162 -3245 3174 -3226 3174 -3200 
C 3174 -3174 3168 -3168 3130 -3110 
L 1050 -256 
L 3584 -256 
C 4314 -256 5786 -301 6234 -1498 
L 6394 -1498 
L 5843 0 
L 538 0 
C 365 0 358 -6 358 -205 
L 2694 -3418 
z
" transform="scale(0.015625)"/>
       <path id="CMMI12-1e" d="M 2752 4390 
C 2752 4448 2707 4448 2688 4448 
C 2630 4448 2624 4435 2598 4326 
L 2253 2939 
C 2234 2856 2227 2849 2221 2843 
C 2214 2830 2170 2824 2157 2824 
C 1107 2734 301 1864 301 1057 
C 301 361 832 -64 1498 -64 
C 1446 -261 1402 -463 1350 -659 
C 1261 -995 1210 -1204 1210 -1229 
C 1210 -1241 1210 -1280 1274 -1280 
C 1293 -1280 1318 -1280 1331 -1254 
C 1344 -1241 1382 -1089 1408 -1008 
L 1645 -64 
C 2739 -64 3571 854 3571 1680 
C 3571 2343 3085 2816 2374 2816 
L 2752 4390 
z
M 2336 2701 
C 2758 2701 3181 2463 3181 1828 
C 3181 1097 2675 128 1677 50 
L 2336 2701 
z
M 1530 50 
C 1216 50 691 220 691 938 
C 691 1761 1274 2676 2195 2676 
L 1530 50 
z
" transform="scale(0.015625)"/>
       <path id="CMMI12-73" d="M 1459 1280 
C 1568 1261 1741 1223 1779 1216 
C 1862 1192 2150 1090 2150 783 
C 2150 586 1971 70 1229 70 
C 1094 70 614 70 486 436 
C 742 404 870 603 870 745 
C 870 880 781 950 653 950 
C 512 950 326 841 326 552 
C 326 173 710 -64 1222 -64 
C 2195 -64 2483 651 2483 984 
C 2483 1079 2483 1258 2278 1462 
C 2118 1616 1965 1648 1619 1718 
C 1446 1756 1171 1814 1171 2101 
C 1171 2229 1286 2689 1894 2689 
C 2163 2689 2426 2589 2490 2368 
C 2208 2368 2195 2125 2195 2119 
C 2195 1984 2317 1946 2374 1946 
C 2464 1946 2643 2015 2643 2281 
C 2643 2545 2400 2816 1901 2816 
C 1062 2816 838 2160 838 1899 
C 838 1414 1312 1312 1459 1280 
z
" transform="scale(0.015625)"/>
       <path id="CMR17-39" d="M 2253 1864 
C 2253 464 1670 31 1190 31 
C 1043 31 685 31 538 294 
C 704 268 826 357 826 518 
C 826 692 685 749 595 749 
C 538 749 365 723 365 506 
C 365 71 742 -128 1203 -128 
C 1939 -128 2688 674 2688 2073 
C 2688 3817 1971 4179 1485 4179 
C 851 4179 243 3628 243 2778 
C 243 1991 762 1408 1414 1408 
C 1952 1408 2189 1903 2253 2112 
L 2253 1864 
z
M 1427 1510 
C 1254 1510 1011 1542 813 1922 
C 678 2169 678 2461 678 2771 
C 678 3146 678 3405 858 3684 
C 947 3817 1114 4032 1485 4032 
C 2240 4032 2240 2885 2240 2632 
C 2240 2182 2035 1510 1427 1510 
z
" transform="scale(0.015625)"/>
       <path id="CMSY10-1" d="M 1229 1619 
C 1229 1805 1075 1958 890 1958 
C 704 1958 550 1805 550 1619 
C 550 1433 704 1280 890 1280 
C 1075 1280 1229 1433 1229 1619 
z
" transform="scale(0.015625)"/>
       <path id="CMMI12-64" d="M 3219 4257 
C 3226 4282 3238 4320 3238 4352 
C 3238 4416 3174 4416 3162 4416 
C 3155 4416 2842 4388 2810 4380 
C 2701 4373 2605 4358 2490 4358 
C 2330 4345 2285 4339 2285 4224 
C 2285 4160 2336 4160 2426 4160 
C 2739 4160 2746 4103 2746 4040 
C 2746 4002 2733 3952 2726 3933 
L 2336 2395 
C 2266 2561 2093 2816 1760 2816 
C 1037 2816 256 1884 256 939 
C 256 307 627 -64 1062 -64 
C 1414 -64 1715 211 1894 422 
C 1958 45 2259 -64 2451 -64 
C 2643 -64 2797 51 2912 281 
C 3014 498 3104 888 3104 913 
C 3104 945 3078 971 3040 971 
C 2982 971 2976 939 2950 843 
C 2854 466 2733 64 2470 64 
C 2285 64 2272 229 2272 357 
C 2272 382 2272 515 2317 694 
L 3219 4257 
z
M 1926 760 
C 1894 651 1894 639 1805 517 
C 1664 338 1382 64 1082 64 
C 819 64 672 300 672 677 
C 672 1028 870 1743 992 2012 
C 1210 2459 1510 2689 1760 2689 
C 2182 2689 2266 2165 2266 2114 
C 2266 2108 2246 2024 2240 2012 
L 1926 760 
z
" transform="scale(0.015625)"/>
       <path id="CMMI12-74" d="M 1286 2566 
L 1875 2566 
C 1997 2566 2061 2566 2061 2681 
C 2061 2752 2022 2752 1894 2752 
L 1331 2752 
L 1568 3692 
C 1594 3781 1594 3794 1594 3840 
C 1594 3943 1510 4000 1427 4000 
C 1376 4000 1229 3981 1178 3775 
L 928 2752 
L 326 2752 
C 198 2752 141 2752 141 2630 
C 141 2566 186 2566 307 2566 
L 877 2566 
L 454 881 
C 403 658 384 594 384 511 
C 384 211 595 -64 954 -64 
C 1600 -64 1946 868 1946 912 
C 1946 951 1920 970 1882 970 
C 1869 970 1843 970 1830 944 
C 1824 938 1818 931 1773 829 
C 1638 511 1344 64 973 64 
C 781 64 768 224 768 364 
C 768 370 768 492 787 568 
L 1286 2566 
z
" transform="scale(0.015625)"/>
      </defs>
      <use xlink:href="#CMEX10-50" transform="translate(0 74.720454) scale(0.996264)"/>
      <use xlink:href="#CMMI12-1e" transform="translate(121.765958 0) scale(0.996264)"/>
      <use xlink:href="#CMMI12-73" transform="translate(179.500138 36.153639) scale(0.697382)"/>
      <use xlink:href="#CMR17-39" transform="translate(179.500138 -24.740171) scale(0.697382)"/>
      <use xlink:href="#CMSY10-1" transform="translate(234.302366 0) scale(0.996264)"/>
      <use xlink:href="#CMMI12-64" transform="translate(284.115658 0) scale(0.996264)"/>
      <use xlink:href="#CMMI12-74" transform="translate(334.804754 0) scale(0.996264)"/>
     </g>
    </g>
    <g id="line2d_26">
     <path d="M 197.852244 28.999506 
L 211.852244 28.999506 
L 225.852244 28.999506 
" style="fill: none; stroke-dasharray: 11.1,4.8; stroke-dashoffset: 0; stroke: #d62728; stroke-width: 3"/>
    </g>
    <g id="text_20">
     <!-- $\sum \phi^s_{10} \cdot dt$ -->
     <g transform="translate(237.052244 33.899506) scale(0.14 -0.14)">
      <use xlink:href="#CMEX10-50" transform="translate(0 74.720454) scale(0.996264)"/>
      <use xlink:href="#CMMI12-1e" transform="translate(121.765958 0) scale(0.996264)"/>
      <use xlink:href="#CMMI12-73" transform="translate(179.500138 36.153639) scale(0.697382)"/>
      <use xlink:href="#CMR17-31" transform="translate(179.500138 -24.740171) scale(0.697382)"/>
      <use xlink:href="#CMR17-30" transform="translate(211.48332 -24.740171) scale(0.697382)"/>
      <use xlink:href="#CMSY10-1" transform="translate(266.103841 0) scale(0.996264)"/>
      <use xlink:href="#CMMI12-64" transform="translate(315.917133 0) scale(0.996264)"/>
      <use xlink:href="#CMMI12-74" transform="translate(366.606229 0) scale(0.996264)"/>
     </g>
    </g>
    <g id="line2d_27">
     <path d="M 197.852244 49.947385 
L 211.852244 49.947385 
L 225.852244 49.947385 
" style="fill: none; stroke-dasharray: 19.2,4.8,3,4.8; stroke-dashoffset: 0; stroke: #d62728; stroke-width: 3"/>
    </g>
    <g id="text_21">
     <!-- $\sum \phi^s_{16} \cdot dt$ -->
     <g transform="translate(237.052244 54.847385) scale(0.14 -0.14)">
      <use xlink:href="#CMEX10-50" transform="translate(0 74.720454) scale(0.996264)"/>
      <use xlink:href="#CMMI12-1e" transform="translate(121.765958 0) scale(0.996264)"/>
      <use xlink:href="#CMMI12-73" transform="translate(179.500138 36.153639) scale(0.697382)"/>
      <use xlink:href="#CMR17-31" transform="translate(179.500138 -24.740171) scale(0.697382)"/>
      <use xlink:href="#CMR17-36" transform="translate(211.48332 -24.740171) scale(0.697382)"/>
      <use xlink:href="#CMSY10-1" transform="translate(266.103841 0) scale(0.996264)"/>
      <use xlink:href="#CMMI12-64" transform="translate(315.917133 0) scale(0.996264)"/>
      <use xlink:href="#CMMI12-74" transform="translate(366.606229 0) scale(0.996264)"/>
     </g>
    </g>
    <g id="line2d_28">
     <path d="M 197.852244 70.895263 
L 211.852244 70.895263 
L 225.852244 70.895263 
" style="fill: none; stroke-dasharray: 19.2,4.8,3,4.8; stroke-dashoffset: 0; stroke: #8c564b; stroke-width: 3"/>
    </g>
    <g id="text_22">
     <!-- $\sum \phi^s_{s} \cdot dt$ -->
     <g transform="translate(237.052244 75.795263) scale(0.14 -0.14)">
      <use xlink:href="#CMEX10-50" transform="translate(0 74.720454) scale(0.996264)"/>
      <use xlink:href="#CMMI12-1e" transform="translate(121.765958 0) scale(0.996264)"/>
      <use xlink:href="#CMMI12-73" transform="translate(179.500138 36.153639) scale(0.697382)"/>
      <use xlink:href="#CMMI12-73" transform="translate(179.500138 -24.62935) scale(0.697382)"/>
      <use xlink:href="#CMSY10-1" transform="translate(234.302366 0) scale(0.996264)"/>
      <use xlink:href="#CMMI12-64" transform="translate(284.115658 0) scale(0.996264)"/>
      <use xlink:href="#CMMI12-74" transform="translate(334.804754 0) scale(0.996264)"/>
     </g>
    </g>
   </g>
  </g>
 </g>
 <defs>
  <clipPath id="p392de44591">
   <rect x="65.305464" y="10.8" width="312.4375" height="182.736948"/>
  </clipPath>
 </defs>
</svg>
