<svg width="2441" height="957" xmlns="http://www.w3.org/2000/svg" xmlns:xlink="http://www.w3.org/1999/xlink" xml:space="preserve" overflow="hidden"><g transform="translate(-99 -689)"><rect x="394.5" y="692.5" width="677" height="545" stroke="#042433" stroke-width="6.875" stroke-miterlimit="8" fill="#156082"/><path d="M657.529 936.629 670.457 936.629 681.156 968.2C682.696 972.739 683.885 976.575 684.723 979.709L685.168 979.709C685.384 978.061 685.878 975.319 686.648 971.482 687.418 967.646 688.127 964.295 688.775 961.432L691.612 948.665C692.207 945.991 692.504 943.816 692.504 942.141 692.504 940.871 692.186 939.986 691.551 939.486 690.916 938.986 689.91 938.696 688.532 938.615L688.978 936.629 703.162 936.629 702.717 938.615C701.69 938.831 700.954 939.074 700.508 939.344 700.062 939.614 699.664 940.02 699.312 940.56 698.961 941.1 698.596 941.945 698.218 943.093 697.84 944.241 697.367 946.112 696.8 948.706L687.276 991.949 681.764 991.949 669.93 957.176C668.498 953.015 667.242 948.868 666.161 944.734L665.634 944.734C665.472 946.112 665.026 948.74 664.297 952.617 663.567 956.494 662.797 960.283 661.987 963.985L658.42 980.155C657.853 982.722 657.569 984.829 657.569 986.477 657.569 987.693 657.873 988.551 658.481 989.051 659.089 989.551 660.109 989.855 661.541 989.963L661.095 991.949 646.911 991.949 647.356 989.963C648.383 989.801 649.153 989.537 649.666 989.172 650.18 988.808 650.612 988.301 650.963 987.653 651.315 987.004 651.639 986.214 651.936 985.282 652.233 984.35 652.679 982.546 653.273 979.871L660.163 948.665C660.433 947.504 660.649 946.396 660.811 945.342 660.974 944.288 661.055 943.221 661.055 942.141 661.055 940.871 660.737 939.986 660.102 939.486 659.467 938.986 658.461 938.696 657.083 938.615Z" fill="#FFFFFF" fill-rule="evenodd"/><text fill="#000000" fill-opacity="0" font-family="Arial,Arial_MSFontService,sans-serif" font-size="55.3198" x="646.911" y="985.034">๐</text><path d="M719.702 936.629 732.63 936.629 743.329 968.2C744.869 972.739 746.058 976.575 746.895 979.709L747.341 979.709C747.557 978.061 748.05 975.319 748.82 971.482 749.591 967.646 750.3 964.295 750.948 961.432L753.785 948.665C754.38 945.991 754.677 943.816 754.677 942.141 754.677 940.871 754.359 939.986 753.724 939.486 753.089 938.986 752.083 938.696 750.705 938.615L751.151 936.629 765.335 936.629 764.89 938.615C763.863 938.831 763.127 939.074 762.681 939.344 762.235 939.614 761.837 940.02 761.485 940.56 761.134 941.1 760.769 941.945 760.391 943.093 760.013 944.241 759.54 946.112 758.973 948.706L749.449 991.949 743.937 991.949 732.103 957.176C730.671 953.015 729.415 948.868 728.334 944.734L727.807 944.734C727.645 946.112 727.199 948.74 726.47 952.617 725.74 956.494 724.97 960.283 724.16 963.985L720.593 980.155C720.026 982.722 719.742 984.829 719.742 986.477 719.742 987.693 720.046 988.551 720.654 989.051 721.262 989.551 722.282 989.855 723.714 989.963L723.268 991.949 709.083 991.949 709.529 989.963C710.556 989.801 711.326 989.537 711.839 989.172 712.353 988.808 712.785 988.301 713.136 987.653 713.487 987.004 713.812 986.214 714.109 985.282 714.406 984.35 714.852 982.546 715.446 979.871L722.336 948.665C722.606 947.504 722.822 946.396 722.984 945.342 723.146 944.288 723.227 943.221 723.227 942.141 723.227 940.871 722.91 939.986 722.275 939.486 721.64 938.986 720.634 938.696 719.256 938.615Z" fill="#FFFFFF" fill-rule="evenodd"/><text fill="#000000" fill-opacity="0" font-family="Arial,Arial_MSFontService,sans-serif" font-size="55.3198" x="709.083" y="985.034">๐</text><path d="M771.149 978.382C772.579 978.382 773.721 978.863 774.575 979.826 775.428 980.789 775.855 982.075 775.855 983.683 775.855 984.557 775.776 985.53 775.617 986.602 775.458 987.675 775.19 988.876 774.813 990.206 774.058 992.927 773.463 995.31 773.026 997.355 772.589 999.4 772.371 1000.9 772.371 1001.85 772.371 1003.04 772.604 1003.93 773.07 1004.52 773.537 1005.1 774.287 1005.4 775.319 1005.4 776.253 1005.4 777.25 1005.05 778.313 1004.35 779.375 1003.66 780.393 1002.76 781.366 1001.66 782.339 1000.56 783.207 999.326 783.972 997.965 784.736 996.605 785.297 995.26 785.655 993.93L788.931 979.007 794.799 979.007 790.212 998.457C789.974 999.47 789.805 1000.37 789.706 1001.17 789.606 1001.96 789.557 1002.64 789.557 1003.19 789.557 1003.95 789.696 1004.49 789.974 1004.83 790.252 1005.17 790.698 1005.34 791.314 1005.34 791.691 1005.34 792.059 1005.27 792.416 1005.13 792.773 1004.99 793.156 1004.77 793.563 1004.47 793.97 1004.18 794.412 1003.79 794.888 1003.33 795.365 1002.86 795.901 1002.3 796.497 1001.64L798.552 1003.61C797.559 1004.62 796.645 1005.49 795.811 1006.22 794.977 1006.94 794.183 1007.54 793.429 1008 792.674 1008.47 791.924 1008.81 791.18 1009.02 790.435 1009.22 789.666 1009.33 788.872 1009.33 787.442 1009.33 786.325 1008.87 785.521 1007.94 784.716 1007.02 784.314 1005.75 784.314 1004.15 784.314 1003.73 784.344 1003.31 784.404 1002.88 784.463 1002.45 784.573 1002.04 784.731 1001.64L784.374 1001.52C782.408 1004.13 780.497 1006.08 778.64 1007.38 776.784 1008.68 774.853 1009.33 772.847 1009.33 770.742 1009.33 769.159 1008.77 768.096 1007.66 767.034 1006.55 766.503 1004.95 766.503 1002.87 766.503 1002.33 766.597 1001.58 766.786 1000.63 766.974 999.678 767.208 998.616 767.486 997.444 767.764 996.273 768.062 995.047 768.379 993.766 768.697 992.485 768.995 991.254 769.273 990.072 769.551 988.891 769.784 987.819 769.973 986.856 770.161 985.893 770.256 985.143 770.256 984.607 770.256 983.157 769.66 982.432 768.469 982.432 768.091 982.432 767.724 982.507 767.367 982.656 767.009 982.805 766.627 983.028 766.22 983.326 765.813 983.624 765.371 984.001 764.894 984.458 764.418 984.915 763.882 985.451 763.286 986.066L761.261 984.13C762.333 983.058 763.291 982.154 764.135 981.42 764.979 980.685 765.778 980.094 766.533 979.648 767.287 979.201 768.032 978.878 768.767 978.68 769.501 978.481 770.296 978.382 771.149 978.382Z" fill="#FFFFFF" fill-rule="evenodd"/><text fill="#000000" fill-opacity="0" font-family="Arial,Arial_MSFontService,sans-serif" font-size="30.9468" x="761.261" y="1005.46">๐ข</text><rect x="102.5" y="885.5" width="199" height="159" stroke="#024059" stroke-width="6.875" stroke-miterlimit="8" fill="#0F9ED5"/><text fill="#FFFFFF" font-family="Aptos,Aptos_MSFontService,sans-serif" font-weight="400" font-size="83" transform="matrix(1 0 0 1 188.087 991)">t</text><rect x="1185.5" y="889.5" width="199" height="155" stroke="#024059" stroke-width="6.875" stroke-miterlimit="8" fill="#0F9ED5"/><path d="M1279.62 943.76C1277.95 943.76 1276.19 943.801 1274.35 943.882L1268.84 968.441 1273.05 968.441C1276.32 968.441 1278.97 968.104 1280.98 967.428 1282.99 966.753 1284.64 965.706 1285.92 964.287 1287.21 962.869 1288.2 961.187 1288.9 959.242 1289.6 957.296 1289.95 955.162 1289.95 952.838 1289.95 949.704 1289.16 947.408 1287.56 945.949 1285.97 944.49 1283.32 943.76 1279.62 943.76ZM1262.64 940.194 1280.51 940.194C1283.73 940.194 1286.37 940.444 1288.43 940.943 1290.5 941.443 1292.2 942.213 1293.54 943.253 1294.88 944.294 1295.88 945.611 1296.54 947.205 1297.2 948.799 1297.53 950.65 1297.53 952.757 1297.53 956.81 1296.57 960.322 1294.66 963.294 1292.74 966.266 1290.14 968.455 1286.85 969.86 1283.57 971.265 1279.63 971.967 1275.04 971.967 1272.28 971.967 1269.99 971.913 1268.15 971.805L1265.56 983.72C1265.31 984.828 1265.15 985.679 1265.05 986.273 1264.96 986.868 1264.88 987.509 1264.81 988.198 1264.74 988.887 1264.71 989.502 1264.71 990.042 1264.71 990.88 1264.84 991.535 1265.11 992.008 1265.38 992.481 1265.79 992.825 1266.33 993.041 1266.87 993.257 1267.8 993.42 1269.12 993.528L1268.68 995.513 1252.02 995.513 1252.47 993.528C1253.49 993.366 1254.26 993.102 1254.78 992.737 1255.29 992.373 1255.72 991.866 1256.07 991.218 1256.43 990.569 1256.75 989.779 1257.05 988.847 1257.34 987.915 1257.79 986.111 1258.38 983.436L1265.27 952.23C1265.87 949.528 1266.17 947.394 1266.17 945.827 1266.17 944.503 1265.85 943.584 1265.23 943.071 1264.61 942.558 1263.6 942.261 1262.19 942.18Z" fill="#FFFFFF" fill-rule="evenodd"/><text fill="#000000" fill-opacity="0" font-family="Arial,Arial_MSFontService,sans-serif" font-size="55.3198" x="1252.02" y="988.599">๐</text><path d="M1278.78 923.934 1284.22 923.934 1298.4 934.187 1296.82 936.497 1281.95 929.162 1281.5 929.162 1266.3 936.497 1264.72 934.187Z" fill="#FFFFFF" fill-rule="evenodd"/><text fill="#000000" fill-opacity="0" font-family="Arial,Arial_MSFontService,sans-serif" font-size="12.5635" x="1264.72" y="934.927">เท</text><path d="M301.5 961.063 351.591 961.063 351.591 964.5 348.154 961.063 371.89 961.063 371.89 967.938 344.716 967.938 344.716 964.5 348.154 967.938 301.5 967.938ZM367.307 950.75 394.807 964.5 367.307 978.25Z"/><path d="M1071.56 961.063 1163.16 962.576 1163.05 969.45 1071.44 967.937ZM1158.75 952.19 1186.02 966.392 1158.3 979.686Z"/><rect x="603" y="1363" width="1502" height="283" fill="#E97132" fill-opacity="0.501961"/><path d="M662.472 1452.08C664.285 1452.08 665.868 1452.59 667.222 1453.61 668.576 1454.63 669.774 1456.14 670.816 1458.14L666.003 1460.23C665.003 1458.19 664.139 1456.78 663.41 1456 662.68 1455.22 661.774 1454.83 660.691 1454.83 660.108 1454.83 659.566 1454.93 659.066 1455.14 658.566 1455.35 658.108 1455.76 657.691 1456.37 657.274 1456.99 656.92 1457.81 656.628 1458.83 656.337 1459.85 655.941 1461.55 655.441 1463.92L653.253 1474.26C652.92 1475.83 652.545 1477.2 652.128 1478.39 651.712 1479.58 651.227 1480.7 650.675 1481.76 650.123 1482.83 649.54 1483.77 648.925 1484.59 648.311 1485.42 647.608 1486.24 646.816 1487.08L646.816 1487.39C648.128 1487.39 649.425 1487.54 650.706 1487.83 651.988 1488.12 653.253 1488.49 654.503 1488.95 655.774 1489.43 656.988 1489.81 658.144 1490.09 659.3 1490.37 660.441 1490.51 661.566 1490.51 662.795 1490.51 663.837 1490.35 664.691 1490.01 665.545 1489.68 666.384 1489.11 667.206 1488.3 668.029 1487.48 669.128 1486.02 670.503 1483.92L672.878 1485.48C670.358 1489.38 668.196 1492.06 666.394 1493.53 664.592 1495 662.774 1495.73 660.941 1495.73 659.378 1495.73 657.904 1495.57 656.519 1495.23 655.134 1494.9 653.774 1494.45 652.441 1493.89 650.941 1493.29 649.644 1492.83 648.55 1492.53 647.456 1492.23 646.337 1492.08 645.191 1492.08 643.941 1492.08 642.748 1492.31 641.613 1492.78 640.477 1493.25 638.858 1494.23 636.753 1495.73L635.097 1493.67C637.701 1491.32 639.899 1489.71 641.691 1488.86 644.003 1486.65 645.68 1483.15 646.722 1478.36L649.722 1464.55C650.264 1462.05 650.92 1460.04 651.691 1458.51 652.462 1456.99 653.378 1455.81 654.441 1454.97 655.503 1454.12 656.68 1453.43 657.972 1452.89 659.264 1452.35 660.764 1452.08 662.472 1452.08Z" fill-rule="evenodd"/><text fill="#000000" fill-opacity="0" font-family="Arial,Arial_MSFontService,sans-serif" font-size="43.6562" x="635.097" y="1490.28">โ</text><path d="M697.435 1481.36 735.935 1481.36 735.935 1485.51 697.435 1485.51ZM697.435 1468.39 735.935 1468.39 735.935 1472.55 697.435 1472.55Z" fill-rule="evenodd"/><text fill="#000000" fill-opacity="0" font-family="Arial,Arial_MSFontService,sans-serif" font-size="17.125" x="697.435" y="1483.37">=</text><path d="M798.903 1403.52 800.622 1403.52C800.497 1405.52 800.435 1408.29 800.435 1411.83L800.435 1438.52C800.435 1439.72 800.502 1440.64 800.638 1441.25 800.773 1441.87 801.013 1442.37 801.357 1442.75 801.7 1443.14 802.195 1443.44 802.841 1443.66 803.487 1443.88 804.299 1444.04 805.278 1444.16 806.258 1444.27 807.549 1444.35 809.153 1444.39L809.153 1446.67 786.06 1446.67 786.06 1444.39C788.372 1444.29 790.023 1444.15 791.013 1443.97 792.002 1443.79 792.758 1443.53 793.278 1443.17 793.799 1442.82 794.179 1442.32 794.419 1441.67 794.659 1441.03 794.778 1439.97 794.778 1438.52L794.778 1413.17C794.778 1412.34 794.633 1411.73 794.341 1411.34 794.049 1410.96 793.622 1410.77 793.06 1410.77 792.393 1410.77 791.445 1411.11 790.216 1411.8 788.987 1412.49 787.466 1413.43 785.653 1414.64L784.278 1412.24Z" fill-rule="evenodd"/><text fill="#000000" fill-opacity="0" font-family="Arial,Arial_MSFontService,sans-serif" font-size="43.1562" x="784.278" y="1441.28">1</text><path d="M768.639 1495.5 778.608 1495.5 786.858 1519.84C788.045 1523.34 788.962 1526.3 789.608 1528.72L789.951 1528.72C790.118 1527.45 790.498 1525.33 791.092 1522.37 791.686 1519.42 792.233 1516.83 792.733 1514.62L794.92 1504.78C795.378 1502.72 795.608 1501.04 795.608 1499.75 795.608 1498.77 795.363 1498.09 794.873 1497.7 794.384 1497.32 793.608 1497.09 792.545 1497.03L792.889 1495.5 803.826 1495.5 803.483 1497.03C802.691 1497.2 802.123 1497.39 801.779 1497.59 801.436 1497.8 801.128 1498.11 800.858 1498.53 800.587 1498.95 800.305 1499.6 800.014 1500.48 799.722 1501.37 799.358 1502.81 798.92 1504.81L791.576 1538.16 787.326 1538.16 778.201 1511.34C777.097 1508.14 776.128 1504.94 775.295 1501.75L774.889 1501.75C774.764 1502.81 774.42 1504.84 773.858 1507.83 773.295 1510.82 772.701 1513.74 772.076 1516.59L769.326 1529.06C768.889 1531.04 768.67 1532.67 768.67 1533.94 768.67 1534.87 768.904 1535.54 769.373 1535.92 769.842 1536.31 770.628 1536.54 771.733 1536.62L771.389 1538.16 760.451 1538.16 760.795 1536.62C761.587 1536.5 762.18 1536.3 762.576 1536.02 762.972 1535.73 763.305 1535.34 763.576 1534.84 763.847 1534.34 764.097 1533.73 764.326 1533.02 764.555 1532.3 764.899 1530.91 765.358 1528.84L770.67 1504.78C770.878 1503.89 771.045 1503.03 771.17 1502.22 771.295 1501.41 771.358 1500.58 771.358 1499.75 771.358 1498.77 771.113 1498.09 770.623 1497.7 770.134 1497.32 769.358 1497.09 768.295 1497.03Z" fill-rule="evenodd"/><text fill="#000000" fill-opacity="0" font-family="Arial,Arial_MSFontService,sans-serif" font-size="42.6562" x="760.451" y="1532.82">๐</text><path d="M808.863 1527.81C809.965 1527.81 810.845 1528.18 811.502 1528.92 812.16 1529.67 812.489 1530.66 812.489 1531.9 812.489 1532.57 812.428 1533.32 812.306 1534.14 812.183 1534.97 811.977 1535.9 811.686 1536.92 811.105 1539.02 810.646 1540.85 810.309 1542.43 809.972 1544 809.804 1545.16 809.804 1545.89 809.804 1546.81 809.984 1547.5 810.344 1547.95 810.703 1548.4 811.281 1548.63 812.076 1548.63 812.795 1548.63 813.564 1548.36 814.383 1547.82 815.201 1547.29 815.985 1546.59 816.735 1545.74 817.485 1544.9 818.154 1543.95 818.743 1542.9 819.332 1541.85 819.764 1540.81 820.04 1539.79L822.564 1528.29 827.085 1528.29 823.551 1543.28C823.367 1544.06 823.237 1544.75 823.161 1545.37 823.084 1545.98 823.046 1546.5 823.046 1546.93 823.046 1547.51 823.153 1547.93 823.367 1548.19 823.581 1548.45 823.926 1548.58 824.4 1548.58 824.691 1548.58 824.974 1548.53 825.249 1548.42 825.524 1548.31 825.819 1548.14 826.133 1547.91 826.446 1547.68 826.787 1547.39 827.154 1547.03 827.521 1546.67 827.934 1546.24 828.393 1545.73L829.977 1547.25C829.212 1548.03 828.508 1548.7 827.865 1549.26 827.223 1549.81 826.611 1550.27 826.029 1550.63 825.448 1550.99 824.87 1551.25 824.297 1551.41 823.723 1551.57 823.13 1551.65 822.518 1551.65 821.417 1551.65 820.556 1551.3 819.936 1550.59 819.317 1549.88 819.007 1548.9 819.007 1547.66 819.007 1547.34 819.03 1547.01 819.076 1546.69 819.122 1546.36 819.206 1546.04 819.328 1545.73L819.053 1545.64C817.538 1547.65 816.065 1549.15 814.635 1550.15 813.205 1551.15 811.717 1551.65 810.171 1551.65 808.55 1551.65 807.33 1551.23 806.511 1550.37 805.692 1549.51 805.283 1548.28 805.283 1546.67 805.283 1546.26 805.356 1545.69 805.501 1544.95 805.647 1544.22 805.826 1543.4 806.041 1542.5 806.255 1541.59 806.484 1540.65 806.729 1539.66 806.974 1538.68 807.203 1537.73 807.417 1536.82 807.632 1535.91 807.811 1535.08 807.957 1534.34 808.102 1533.6 808.175 1533.02 808.175 1532.61 808.175 1531.49 807.716 1530.93 806.798 1530.93 806.507 1530.93 806.224 1530.99 805.949 1531.1 805.673 1531.22 805.379 1531.39 805.065 1531.62 804.752 1531.85 804.411 1532.14 804.044 1532.49 803.677 1532.84 803.264 1533.26 802.805 1533.73L801.244 1532.24C802.07 1531.41 802.809 1530.72 803.459 1530.15 804.109 1529.58 804.725 1529.13 805.306 1528.79 805.888 1528.44 806.461 1528.19 807.027 1528.04 807.593 1527.89 808.205 1527.81 808.863 1527.81Z" fill-rule="evenodd"/><text fill="#000000" fill-opacity="0" font-family="Arial,Arial_MSFontService,sans-serif" font-size="23.8442" x="801.244" y="1548.67">๐ข</text><path d="M758.253 1475.24 833.253 1475.24 833.253 1479.24 758.253 1479.24Z" fill-rule="evenodd"/><path d="M847.016 1415.86 922.485 1415.86 922.485 1434.36 918.36 1434.36C917.88 1429.92 916.912 1426.41 915.453 1423.83 913.995 1421.24 911.787 1419.95 908.828 1419.95L859.516 1419.95 896.797 1470.58 896.797 1474.36 856.547 1528.98 910.766 1528.98C913.162 1528.98 914.995 1528.14 916.266 1526.45 917.537 1524.76 918.63 1520.99 919.547 1515.14L924.172 1515.14 922.578 1538.05 845.735 1538.05 845.735 1534.95 889.516 1475.61 847.016 1418.83Z" fill-rule="evenodd"/><text fill="#000000" fill-opacity="0" font-family="Arial,Arial_MSFontService,sans-serif" font-size="122.188" x="845.735" y="1522.77">เท</text><path d="M982.514 1450.51C984.472 1450.51 985.993 1451.07 987.076 1452.19 988.16 1453.3 989.066 1455.08 989.795 1457.51 990.524 1459.95 991.555 1464.66 992.889 1471.64 994.618 1480.74 995.967 1486.49 996.936 1488.87 997.904 1491.26 999.055 1492.45 1000.39 1492.45 1001.35 1492.45 1002.23 1492.12 1003.05 1491.45L1004.23 1493.33C1002.17 1494.93 1000.32 1495.73 998.67 1495.73 996.337 1495.73 994.67 1494.54 993.67 1492.14 992.67 1489.74 991.274 1483.3 989.483 1472.8L989.295 1472.8C985.753 1479.98 982.285 1487.46 978.889 1495.23L972.545 1495.23 972.545 1493.7C974.358 1491.41 976.108 1488.6 977.795 1485.26L987.826 1465.61C986.764 1461.44 985.769 1458.51 984.842 1456.83 983.915 1455.14 982.493 1454.3 980.576 1454.3 978.805 1454.3 977.118 1455.17 975.514 1456.92L973.983 1455.23C976.858 1452.09 979.701 1450.51 982.514 1450.51Z" fill-rule="evenodd"/><text fill="#000000" fill-opacity="0" font-family="Arial,Arial_MSFontService,sans-serif" font-size="45.2188" x="972.545" y="1490.08">ฮป</text><path d="M1011.84 1484.89C1012.94 1484.89 1013.82 1485.26 1014.48 1486 1015.13 1486.74 1015.46 1487.73 1015.46 1488.97 1015.46 1489.65 1015.4 1490.4 1015.28 1491.22 1015.16 1492.05 1014.95 1492.97 1014.66 1494 1014.08 1496.09 1013.62 1497.93 1013.28 1499.51 1012.95 1501.08 1012.78 1502.24 1012.78 1502.97 1012.78 1503.89 1012.96 1504.57 1013.32 1505.03 1013.68 1505.48 1014.25 1505.7 1015.05 1505.7 1015.77 1505.7 1016.54 1505.43 1017.36 1504.9 1018.17 1504.36 1018.96 1503.67 1019.71 1502.82 1020.46 1501.97 1021.13 1501.02 1021.72 1499.98 1022.3 1498.93 1022.74 1497.89 1023.01 1496.87L1025.54 1485.37 1030.06 1485.37 1026.52 1500.36C1026.34 1501.14 1026.21 1501.83 1026.13 1502.44 1026.06 1503.06 1026.02 1503.58 1026.02 1504 1026.02 1504.59 1026.13 1505.01 1026.34 1505.27 1026.55 1505.53 1026.9 1505.66 1027.37 1505.66 1027.66 1505.66 1027.95 1505.6 1028.22 1505.5 1028.5 1505.39 1028.79 1505.22 1029.11 1504.99 1029.42 1504.76 1029.76 1504.47 1030.13 1504.11 1030.49 1503.75 1030.91 1503.32 1031.37 1502.81L1032.95 1504.33C1032.18 1505.11 1031.48 1505.77 1030.84 1506.33 1030.2 1506.89 1029.58 1507.35 1029 1507.71 1028.42 1508.07 1027.84 1508.33 1027.27 1508.49 1026.7 1508.65 1026.1 1508.73 1025.49 1508.73 1024.39 1508.73 1023.53 1508.38 1022.91 1507.66 1022.29 1506.95 1021.98 1505.98 1021.98 1504.74 1021.98 1504.42 1022 1504.09 1022.05 1503.76 1022.09 1503.43 1022.18 1503.12 1022.3 1502.81L1022.03 1502.72C1020.51 1504.72 1019.04 1506.23 1017.61 1507.23 1016.18 1508.23 1014.69 1508.73 1013.14 1508.73 1011.52 1508.73 1010.3 1508.3 1009.48 1507.45 1008.67 1506.59 1008.26 1505.36 1008.26 1503.75 1008.26 1503.34 1008.33 1502.76 1008.47 1502.03 1008.62 1501.3 1008.8 1500.48 1009.01 1499.57 1009.23 1498.67 1009.46 1497.73 1009.7 1496.74 1009.95 1495.75 1010.18 1494.81 1010.39 1493.89 1010.6 1492.98 1010.78 1492.16 1010.93 1491.42 1011.08 1490.67 1011.15 1490.1 1011.15 1489.68 1011.15 1488.57 1010.69 1488.01 1009.77 1488.01 1009.48 1488.01 1009.2 1488.07 1008.92 1488.18 1008.65 1488.3 1008.35 1488.47 1008.04 1488.7 1007.72 1488.93 1007.38 1489.22 1007.02 1489.57 1006.65 1489.92 1006.24 1490.33 1005.78 1490.81L1004.22 1489.32C1005.04 1488.49 1005.78 1487.79 1006.43 1487.23 1007.08 1486.66 1007.7 1486.21 1008.28 1485.86 1008.86 1485.52 1009.43 1485.27 1010 1485.12 1010.57 1484.96 1011.18 1484.89 1011.84 1484.89Z" fill-rule="evenodd"/><text fill="#000000" fill-opacity="0" font-family="Arial,Arial_MSFontService,sans-serif" font-size="23.8442" x="1004.22" y="1505.75">๐ข</text><path d="M1252.65 1438.3C1259.15 1440 1264.16 1444.43 1267.68 1451.58 1271.2 1458.72 1272.96 1467.18 1272.96 1476.95 1272.96 1486.72 1271.2 1495.18 1267.68 1502.33 1264.16 1509.47 1259.15 1513.9 1252.65 1515.61L1251.87 1513.05C1256.91 1511.15 1260.73 1507.02 1263.32 1500.65 1265.91 1494.29 1267.21 1486.4 1267.21 1476.98 1267.21 1467.55 1265.91 1459.64 1263.32 1453.26 1260.73 1446.89 1256.91 1442.75 1251.87 1440.86ZM1063.13 1438.3 1063.91 1440.86C1058.87 1442.75 1055.05 1446.89 1052.46 1453.26 1049.86 1459.64 1048.57 1467.55 1048.57 1476.98 1048.57 1486.4 1049.86 1494.29 1052.46 1500.65 1055.05 1507.02 1058.87 1511.15 1063.91 1513.05L1063.13 1515.61C1056.63 1513.9 1051.62 1509.47 1048.1 1502.33 1044.58 1495.18 1042.82 1486.72 1042.82 1476.95 1042.82 1467.18 1044.58 1458.72 1048.1 1451.58 1051.62 1444.43 1056.63 1440 1063.13 1438.3Z" fill-rule="evenodd"/><path d="M1089.08 1455.33C1087.79 1455.33 1086.44 1455.36 1085.02 1455.42L1080.77 1474.36 1084.02 1474.36C1086.54 1474.36 1088.58 1474.1 1090.13 1473.58 1091.68 1473.06 1092.95 1472.25 1093.94 1471.15 1094.93 1470.06 1095.7 1468.76 1096.24 1467.26 1096.78 1465.76 1097.05 1464.12 1097.05 1462.33 1097.05 1459.91 1096.44 1458.14 1095.21 1457.01 1093.98 1455.89 1091.94 1455.33 1089.08 1455.33ZM1075.99 1452.58 1089.77 1452.58C1092.25 1452.58 1094.29 1452.77 1095.88 1453.15 1097.48 1453.54 1098.79 1454.13 1099.82 1454.94 1100.85 1455.74 1101.62 1456.75 1102.13 1457.98 1102.64 1459.21 1102.9 1460.64 1102.9 1462.26 1102.9 1465.39 1102.16 1468.1 1100.68 1470.39 1099.2 1472.68 1097.19 1474.37 1094.66 1475.45 1092.13 1476.54 1089.09 1477.08 1085.55 1477.08 1083.43 1477.08 1081.66 1477.04 1080.24 1476.95L1078.24 1486.14C1078.05 1486.99 1077.92 1487.65 1077.85 1488.11 1077.78 1488.57 1077.71 1489.06 1077.66 1489.59 1077.61 1490.12 1077.58 1490.6 1077.58 1491.01 1077.58 1491.66 1077.69 1492.17 1077.9 1492.53 1078.11 1492.89 1078.42 1493.16 1078.83 1493.33 1079.25 1493.49 1079.97 1493.62 1080.99 1493.7L1080.65 1495.23 1067.8 1495.23 1068.15 1493.7C1068.94 1493.58 1069.53 1493.37 1069.93 1493.09 1070.32 1492.81 1070.66 1492.42 1070.93 1491.92 1071.2 1491.42 1071.45 1490.81 1071.68 1490.09 1071.91 1489.37 1072.25 1487.98 1072.71 1485.92L1078.02 1461.86C1078.48 1459.77 1078.71 1458.13 1078.71 1456.92 1078.71 1455.9 1078.47 1455.19 1077.99 1454.8 1077.51 1454.4 1076.73 1454.17 1075.65 1454.11Z" fill-rule="evenodd"/><text fill="#000000" fill-opacity="0" font-family="Arial,Arial_MSFontService,sans-serif" font-size="42.6562" x="1067.8" y="1489.9">๐</text><path d="M1116.96 1449.64 1119.99 1449.64 1119.32 1456.83 1125.22 1452.67 1126.71 1455.24 1120.17 1458.3 1126.71 1461.37 1125.22 1463.92 1119.32 1459.76 1119.99 1466.95 1116.96 1466.95 1117.65 1459.76 1111.72 1463.92 1110.21 1461.37 1116.77 1458.3 1110.21 1455.24 1111.72 1452.67 1117.65 1456.83Z" fill-rule="evenodd"/><text fill="#000000" fill-opacity="0" font-family="Arial,Arial_MSFontService,sans-serif" font-size="17.3037" x="1110.21" y="1464.78">โ</text><path d="M1151.02 1474.86 1189.52 1474.86 1189.52 1479.01 1151.02 1479.01Z" fill-rule="evenodd"/><text fill="#000000" fill-opacity="0" font-family="Arial,Arial_MSFontService,sans-serif" font-size="4.15625" x="1151.02" y="1478.49">โ</text><path d="M1231.81 1455.33C1230.52 1455.33 1229.16 1455.36 1227.75 1455.42L1223.5 1474.36 1226.75 1474.36C1229.27 1474.36 1231.3 1474.1 1232.86 1473.58 1234.41 1473.06 1235.68 1472.25 1236.67 1471.15 1237.66 1470.06 1238.42 1468.76 1238.97 1467.26 1239.51 1465.76 1239.78 1464.12 1239.78 1462.33 1239.78 1459.91 1239.16 1458.14 1237.93 1457.01 1236.71 1455.89 1234.66 1455.33 1231.81 1455.33ZM1218.72 1452.58 1232.5 1452.58C1234.98 1452.58 1237.01 1452.77 1238.61 1453.15 1240.2 1453.54 1241.51 1454.13 1242.54 1454.94 1243.58 1455.74 1244.35 1456.75 1244.86 1457.98 1245.37 1459.21 1245.62 1460.64 1245.62 1462.26 1245.62 1465.39 1244.88 1468.1 1243.4 1470.39 1241.92 1472.68 1239.92 1474.37 1237.39 1475.45 1234.86 1476.54 1231.82 1477.08 1228.28 1477.08 1226.15 1477.08 1224.38 1477.04 1222.97 1476.95L1220.97 1486.14C1220.78 1486.99 1220.65 1487.65 1220.58 1488.11 1220.5 1488.57 1220.44 1489.06 1220.39 1489.59 1220.34 1490.12 1220.31 1490.6 1220.31 1491.01 1220.31 1491.66 1220.41 1492.17 1220.62 1492.53 1220.83 1492.89 1221.14 1493.16 1221.56 1493.33 1221.98 1493.49 1222.69 1493.62 1223.72 1493.7L1223.37 1495.23 1210.53 1495.23 1210.87 1493.7C1211.66 1493.58 1212.26 1493.37 1212.65 1493.09 1213.05 1492.81 1213.38 1492.42 1213.65 1491.92 1213.92 1491.42 1214.17 1490.81 1214.4 1490.09 1214.63 1489.37 1214.98 1487.98 1215.43 1485.92L1220.75 1461.86C1221.21 1459.77 1221.43 1458.13 1221.43 1456.92 1221.43 1455.9 1221.19 1455.19 1220.72 1454.8 1220.24 1454.4 1219.46 1454.17 1218.37 1454.11Z" fill-rule="evenodd"/><text fill="#000000" fill-opacity="0" font-family="Arial,Arial_MSFontService,sans-serif" font-size="42.6562" x="1210.53" y="1489.9">๐</text><path d="M1231.26 1439.92 1235.44 1439.92 1246.38 1447.82 1245.16 1449.6 1233.69 1443.95 1233.35 1443.95 1221.63 1449.6 1220.41 1447.82Z" fill-rule="evenodd"/><text fill="#000000" fill-opacity="0" font-family="Arial,Arial_MSFontService,sans-serif" font-size="9.6875" x="1220.41" y="1448.39">เท</text><path d="M1292.37 1422.84C1293.96 1422.84 1295.32 1423.02 1296.44 1423.38 1297.56 1423.74 1298.48 1424.23 1299.18 1424.84 1299.89 1425.45 1300.4 1426.19 1300.71 1427.04 1301.02 1427.9 1301.18 1428.82 1301.18 1429.82 1301.18 1430.42 1301.14 1430.97 1301.05 1431.48 1300.97 1432 1300.82 1432.5 1300.62 1433 1300.41 1433.5 1300.14 1434 1299.8 1434.5 1299.47 1435.01 1299.04 1435.54 1298.54 1436.11 1298.16 1436.6 1297.66 1437.16 1297.05 1437.81 1296.44 1438.45 1295.77 1439.14 1295.04 1439.87 1294.31 1440.61 1293.55 1441.37 1292.76 1442.17 1291.96 1442.96 1291.19 1443.75 1290.44 1444.53 1289.69 1445.31 1289 1446.07 1288.37 1446.8 1287.75 1447.54 1287.23 1448.21 1286.84 1448.82L1295.33 1448.82C1296.05 1448.82 1296.62 1448.79 1297.05 1448.74 1297.48 1448.69 1297.83 1448.57 1298.12 1448.39 1298.4 1448.2 1298.64 1447.92 1298.84 1447.55 1299.04 1447.17 1299.27 1446.66 1299.53 1446L1301.66 1446C1301.58 1447.08 1301.51 1448.18 1301.44 1449.28 1301.37 1450.38 1301.3 1451.48 1301.22 1452.56L1281.79 1452.56 1281.79 1451.37C1282.15 1450.54 1282.58 1449.73 1283.07 1448.92 1283.56 1448.12 1284.11 1447.31 1284.72 1446.48 1285.34 1445.65 1286.03 1444.8 1286.81 1443.92 1287.59 1443.04 1288.46 1442.13 1289.41 1441.18 1290.84 1439.74 1292.01 1438.51 1292.92 1437.5 1293.82 1436.48 1294.53 1435.57 1295.05 1434.78 1295.57 1433.98 1295.93 1433.25 1296.12 1432.57 1296.31 1431.9 1296.41 1431.18 1296.41 1430.42 1296.41 1429.64 1296.29 1428.92 1296.07 1428.26 1295.85 1427.6 1295.53 1427.04 1295.12 1426.58 1294.71 1426.12 1294.18 1425.77 1293.55 1425.51 1292.91 1425.24 1292.18 1425.11 1291.36 1425.11 1289.93 1425.11 1288.74 1425.5 1287.78 1426.27 1286.81 1427.05 1286.06 1428.17 1285.53 1429.64L1282.52 1429.64 1282.52 1425.16C1284.48 1424.35 1286.28 1423.76 1287.93 1423.39 1289.57 1423.03 1291.05 1422.84 1292.37 1422.84Z" fill-rule="evenodd"/><text fill="#000000" fill-opacity="0" font-family="Arial,Arial_MSFontService,sans-serif" font-size="29.7192" x="1281.79" y="1448.85">2</text><path d="M938.457 1524.76C939.559 1524.76 940.438 1525.13 941.096 1525.88 941.754 1526.62 942.083 1527.61 942.083 1528.85 942.083 1529.52 942.022 1530.27 941.899 1531.1 941.777 1531.92 941.57 1532.85 941.28 1533.87 940.698 1535.97 940.239 1537.81 939.903 1539.38 939.566 1540.96 939.398 1542.11 939.398 1542.85 939.398 1543.76 939.578 1544.45 939.937 1544.9 940.297 1545.35 940.874 1545.58 941.67 1545.58 942.389 1545.58 943.158 1545.31 943.976 1544.77 944.795 1544.24 945.579 1543.55 946.329 1542.7 947.078 1541.85 947.748 1540.9 948.337 1539.85 948.926 1538.8 949.358 1537.77 949.633 1536.74L952.158 1525.24 956.679 1525.24 953.145 1540.23C952.961 1541.01 952.831 1541.71 952.754 1542.32 952.678 1542.93 952.64 1543.45 952.64 1543.88 952.64 1544.46 952.747 1544.88 952.961 1545.14 953.175 1545.4 953.519 1545.53 953.994 1545.53 954.284 1545.53 954.567 1545.48 954.843 1545.37 955.118 1545.26 955.413 1545.1 955.726 1544.87 956.04 1544.64 956.38 1544.34 956.748 1543.98 957.115 1543.62 957.528 1543.19 957.987 1542.69L959.57 1544.2C958.805 1544.98 958.102 1545.65 957.459 1546.21 956.816 1546.77 956.204 1547.23 955.623 1547.59 955.042 1547.94 954.464 1548.2 953.89 1548.37 953.317 1548.53 952.724 1548.61 952.112 1548.61 951.01 1548.61 950.15 1548.25 949.53 1547.54 948.91 1546.83 948.601 1545.85 948.601 1544.61 948.601 1544.29 948.624 1543.97 948.669 1543.64 948.715 1543.31 948.799 1542.99 948.922 1542.69L948.646 1542.59C947.132 1544.6 945.659 1546.1 944.229 1547.1 942.798 1548.11 941.31 1548.61 939.765 1548.61 938.143 1548.61 936.923 1548.18 936.105 1547.32 935.286 1546.46 934.877 1545.23 934.877 1543.63 934.877 1543.21 934.95 1542.64 935.095 1541.91 935.24 1541.17 935.42 1540.35 935.634 1539.45 935.848 1538.55 936.078 1537.6 936.323 1536.62 936.568 1535.63 936.797 1534.68 937.011 1533.77 937.225 1532.86 937.405 1532.03 937.551 1531.29 937.696 1530.55 937.769 1529.97 937.769 1529.56 937.769 1528.44 937.31 1527.88 936.392 1527.88 936.101 1527.88 935.818 1527.94 935.542 1528.06 935.267 1528.17 934.973 1528.34 934.659 1528.57 934.345 1528.8 934.005 1529.09 933.638 1529.44 933.271 1529.8 932.857 1530.21 932.398 1530.68L930.838 1529.19C931.664 1528.37 932.402 1527.67 933.052 1527.1 933.703 1526.54 934.319 1526.08 934.9 1525.74 935.481 1525.39 936.055 1525.14 936.621 1524.99 937.187 1524.84 937.799 1524.76 938.457 1524.76Z" fill-rule="evenodd"/><text fill="#000000" fill-opacity="0" font-family="Arial,Arial_MSFontService,sans-serif" font-size="23.8442" x="930.838" y="1545.63">๐ข</text><path d="M1344.19 1456.86 1348.63 1456.86 1348.63 1474.86 1365.66 1474.86 1365.66 1479.01 1348.63 1479.01 1348.63 1497.01 1344.19 1497.01 1344.19 1479.01 1327.16 1479.01 1327.16 1474.86 1344.19 1474.86Z" fill-rule="evenodd"/><text fill="#000000" fill-opacity="0" font-family="Arial,Arial_MSFontService,sans-serif" font-size="40.1562" x="1327.16" y="1491.99">+</text><path d="M1422.19 1403.52 1423.91 1403.52C1423.78 1405.52 1423.72 1408.29 1423.72 1411.83L1423.72 1438.52C1423.72 1439.72 1423.79 1440.64 1423.93 1441.25 1424.06 1441.87 1424.3 1442.37 1424.64 1442.75 1424.99 1443.14 1425.48 1443.44 1426.13 1443.66 1426.77 1443.88 1427.59 1444.04 1428.57 1444.16 1429.54 1444.27 1430.84 1444.35 1432.44 1444.39L1432.44 1446.67 1409.35 1446.67 1409.35 1444.39C1411.66 1444.29 1413.31 1444.15 1414.3 1443.97 1415.29 1443.79 1416.04 1443.53 1416.57 1443.17 1417.09 1442.82 1417.47 1442.32 1417.71 1441.67 1417.95 1441.03 1418.07 1439.97 1418.07 1438.52L1418.07 1413.17C1418.07 1412.34 1417.92 1411.73 1417.63 1411.34 1417.34 1410.96 1416.91 1410.77 1416.35 1410.77 1415.68 1410.77 1414.73 1411.11 1413.5 1411.8 1412.27 1412.49 1410.75 1413.43 1408.94 1414.64L1407.57 1412.24Z" fill-rule="evenodd"/><text fill="#000000" fill-opacity="0" font-family="Arial,Arial_MSFontService,sans-serif" font-size="43.1562" x="1407.57" y="1441.28">1</text><path d="M1394.79 1495.5 1404.76 1495.5 1413.01 1519.84C1414.2 1523.34 1415.11 1526.3 1415.76 1528.72L1416.1 1528.72C1416.27 1527.45 1416.65 1525.33 1417.24 1522.37 1417.84 1519.42 1418.38 1516.83 1418.88 1514.62L1421.07 1504.78C1421.53 1502.72 1421.76 1501.04 1421.76 1499.75 1421.76 1498.77 1421.51 1498.09 1421.03 1497.7 1420.54 1497.32 1419.76 1497.09 1418.7 1497.03L1419.04 1495.5 1429.98 1495.5 1429.63 1497.03C1428.84 1497.2 1428.28 1497.39 1427.93 1497.59 1427.59 1497.8 1427.28 1498.11 1427.01 1498.53 1426.74 1498.95 1426.46 1499.6 1426.17 1500.48 1425.87 1501.37 1425.51 1502.81 1425.07 1504.81L1417.73 1538.16 1413.48 1538.16 1404.35 1511.34C1403.25 1508.14 1402.28 1504.94 1401.45 1501.75L1401.04 1501.75C1400.92 1502.81 1400.57 1504.84 1400.01 1507.83 1399.45 1510.82 1398.85 1513.74 1398.23 1516.59L1395.48 1529.06C1395.04 1531.04 1394.82 1532.67 1394.82 1533.94 1394.82 1534.87 1395.06 1535.54 1395.53 1535.92 1395.99 1536.31 1396.78 1536.54 1397.88 1536.62L1397.54 1538.16 1386.6 1538.16 1386.95 1536.62C1387.74 1536.5 1388.33 1536.3 1388.73 1536.02 1389.12 1535.73 1389.46 1535.34 1389.73 1534.84 1390 1534.34 1390.25 1533.73 1390.48 1533.02 1390.71 1532.3 1391.05 1530.91 1391.51 1528.84L1396.82 1504.78C1397.03 1503.89 1397.2 1503.03 1397.32 1502.22 1397.45 1501.41 1397.51 1500.58 1397.51 1499.75 1397.51 1498.77 1397.26 1498.09 1396.78 1497.7 1396.29 1497.32 1395.51 1497.09 1394.45 1497.03Z" fill-rule="evenodd"/><text fill="#000000" fill-opacity="0" font-family="Arial,Arial_MSFontService,sans-serif" font-size="42.6562" x="1386.6" y="1532.82">๐</text><path d="M1445.78 1519.16C1446.63 1519.16 1447.37 1519.2 1448.01 1519.28 1448.65 1519.37 1449.27 1519.47 1449.87 1519.59L1448.93 1523.86 1446.66 1523.86C1446.55 1522.99 1446.29 1522.35 1445.88 1521.95 1445.46 1521.54 1444.91 1521.34 1444.22 1521.34 1443.43 1521.34 1442.76 1521.51 1442.22 1521.85 1441.67 1522.2 1441.2 1522.72 1440.79 1523.42 1440.39 1524.11 1440.04 1524.93 1439.75 1525.86 1439.46 1526.79 1439.26 1527.6 1439.15 1528.29L1445.51 1528.29 1445 1530.84 1438.62 1530.84 1434.47 1550.51C1433.75 1553.86 1432.58 1556.34 1430.97 1557.95 1429.36 1559.57 1427.2 1560.38 1424.51 1560.38 1423.81 1560.38 1423.29 1560.33 1422.97 1560.24 1423.06 1559.85 1423.15 1559.46 1423.22 1559.06 1423.3 1558.65 1423.39 1558.26 1423.5 1557.87 1423.59 1557.9 1423.72 1557.92 1423.89 1557.92 1424.06 1557.92 1424.3 1557.92 1424.6 1557.92 1425.2 1557.92 1425.75 1557.82 1426.24 1557.63 1426.74 1557.44 1427.2 1557.1 1427.61 1556.6 1428.02 1556.1 1428.4 1555.42 1428.74 1554.56 1429.09 1553.69 1429.41 1552.58 1429.72 1551.22L1434.31 1530.84 1430.36 1530.84 1430.78 1529.07C1431.62 1529.03 1432.29 1528.97 1432.78 1528.91 1433.28 1528.85 1433.7 1528.72 1434.05 1528.51 1434.39 1528.3 1434.65 1527.96 1434.81 1527.47 1435.7 1524.67 1437.04 1522.58 1438.82 1521.21 1440.6 1519.84 1442.92 1519.16 1445.78 1519.16Z" fill-rule="evenodd"/><text fill="#000000" fill-opacity="0" font-family="Arial,Arial_MSFontService,sans-serif" font-size="41.2168" x="1422.97" y="1555.22">๐</text><path d="M1385.25 1475.24 1455.25 1475.24 1455.25 1479.24 1385.25 1479.24Z" fill-rule="evenodd"/><path d="M1467.46 1415.86 1542.93 1415.86 1542.93 1434.36 1538.81 1434.36C1538.33 1429.92 1537.36 1426.41 1535.9 1423.83 1534.44 1421.24 1532.23 1419.95 1529.27 1419.95L1479.96 1419.95 1517.24 1470.58 1517.24 1474.36 1476.99 1528.98 1531.21 1528.98C1533.61 1528.98 1535.44 1528.14 1536.71 1526.45 1537.98 1524.76 1539.08 1520.99 1539.99 1515.14L1544.62 1515.14 1543.02 1538.05 1466.18 1538.05 1466.18 1534.95 1509.96 1475.61 1467.46 1418.83Z" fill-rule="evenodd"/><text fill="#000000" fill-opacity="0" font-family="Arial,Arial_MSFontService,sans-serif" font-size="122.188" x="1466.18" y="1522.77">เท</text><path d="M1601.13 1450.51C1603.08 1450.51 1604.61 1451.07 1605.69 1452.19 1606.77 1453.3 1607.68 1455.08 1608.41 1457.51 1609.14 1459.95 1610.17 1464.66 1611.5 1471.64 1613.23 1480.74 1614.58 1486.49 1615.55 1488.87 1616.52 1491.26 1617.67 1492.45 1619 1492.45 1619.96 1492.45 1620.84 1492.12 1621.66 1491.45L1622.84 1493.33C1620.78 1494.93 1618.93 1495.73 1617.28 1495.73 1614.95 1495.73 1613.28 1494.54 1612.28 1492.14 1611.28 1489.74 1609.89 1483.3 1608.09 1472.8L1607.91 1472.8C1604.37 1479.98 1600.9 1487.46 1597.5 1495.23L1591.16 1495.23 1591.16 1493.7C1592.97 1491.41 1594.72 1488.6 1596.41 1485.26L1606.44 1465.61C1605.38 1461.44 1604.38 1458.51 1603.45 1456.83 1602.53 1455.14 1601.11 1454.3 1599.19 1454.3 1597.42 1454.3 1595.73 1455.17 1594.13 1456.92L1592.59 1455.23C1595.47 1452.09 1598.31 1450.51 1601.13 1450.51Z" fill-rule="evenodd"/><text fill="#000000" fill-opacity="0" font-family="Arial,Arial_MSFontService,sans-serif" font-size="45.2188" x="1591.16" y="1490.08">ฮป</text><path d="M1641.22 1476.24C1642.06 1476.24 1642.8 1476.28 1643.44 1476.36 1644.09 1476.45 1644.71 1476.55 1645.3 1476.67L1644.36 1480.94 1642.09 1480.94C1641.98 1480.07 1641.72 1479.43 1641.31 1479.02 1640.9 1478.62 1640.35 1478.42 1639.66 1478.42 1638.86 1478.42 1638.19 1478.59 1637.65 1478.93 1637.11 1479.28 1636.63 1479.8 1636.23 1480.49 1635.82 1481.19 1635.47 1482 1635.18 1482.94 1634.89 1483.87 1634.69 1484.68 1634.59 1485.37L1640.94 1485.37 1640.44 1487.92 1634.06 1487.92 1629.9 1507.58C1629.18 1510.93 1628.02 1513.42 1626.4 1515.03 1624.79 1516.65 1622.64 1517.45 1619.94 1517.45 1619.24 1517.45 1618.73 1517.41 1618.41 1517.31 1618.5 1516.93 1618.58 1516.54 1618.66 1516.13 1618.73 1515.73 1618.83 1515.33 1618.93 1514.95 1619.03 1514.98 1619.16 1515 1619.32 1515 1619.49 1515 1619.73 1515 1620.04 1515 1620.63 1515 1621.18 1514.9 1621.68 1514.71 1622.17 1514.52 1622.63 1514.17 1623.04 1513.68 1623.45 1513.18 1623.83 1512.5 1624.18 1511.63 1624.52 1510.77 1624.85 1509.66 1625.15 1508.3L1629.74 1487.92 1625.8 1487.92 1626.21 1486.15C1627.05 1486.1 1627.72 1486.05 1628.22 1485.99 1628.71 1485.93 1629.13 1485.79 1629.48 1485.59 1629.82 1485.38 1630.08 1485.03 1630.25 1484.54 1631.14 1481.74 1632.47 1479.66 1634.25 1478.29 1636.03 1476.92 1638.36 1476.24 1641.22 1476.24Z" fill-rule="evenodd"/><text fill="#000000" fill-opacity="0" font-family="Arial,Arial_MSFontService,sans-serif" font-size="41.2168" x="1618.41" y="1512.3">๐</text><path d="M1996.85 1395.37C2005.42 1402.71 2012.21 1413.64 2017.24 1428.19 2022.28 1442.73 2024.79 1458.96 2024.79 1476.87 2024.79 1494.52 2022.28 1510.72 2017.24 1525.48 2012.21 1540.24 2005.42 1551.27 1996.85 1558.56L1995.38 1556.25C2002.78 1548.73 2008.48 1537.84 2012.48 1523.59 2016.48 1509.34 2018.48 1493.78 2018.48 1476.9 2018.48 1459.63 2016.47 1444 2012.45 1430 2008.43 1416 2002.74 1405.24 1995.38 1397.72ZM1693.99 1395.37 1695.46 1397.72C1688.08 1405.24 1682.39 1416 1678.38 1430 1674.37 1444 1672.36 1459.63 1672.36 1476.9 1672.36 1493.78 1674.36 1509.34 1678.36 1523.59 1682.36 1537.84 1688.06 1548.73 1695.46 1556.25L1693.99 1558.56C1685.43 1551.27 1678.63 1540.24 1673.6 1525.48 1668.57 1510.72 1666.05 1494.52 1666.05 1476.87 1666.05 1458.96 1668.57 1442.73 1673.6 1428.19 1678.63 1413.64 1685.43 1402.71 1693.99 1395.37Z" fill-rule="evenodd"/><path d="M1717.57 1418.74C1715.45 1418.74 1713.54 1419.59 1711.86 1421.31 1710.17 1423.03 1708.84 1425.35 1707.87 1428.27 1706.9 1431.18 1706.42 1434.09 1706.42 1436.99 1706.42 1439.15 1706.71 1440.77 1707.31 1441.84 1707.9 1442.92 1708.9 1443.45 1710.29 1443.45 1710.94 1443.45 1711.6 1443.31 1712.26 1443.03 1712.93 1442.75 1713.62 1442.3 1714.34 1441.67 1715.06 1441.05 1715.77 1440.29 1716.46 1439.39 1717.16 1438.5 1717.8 1437.59 1718.39 1436.69 1718.97 1435.78 1719.51 1434.71 1720.01 1433.47 1720.51 1432.23 1720.94 1430.74 1721.29 1428.99L1721.57 1427.64C1721.89 1426.14 1722.04 1424.72 1722.04 1423.39 1722.04 1421.77 1721.7 1420.58 1721.01 1419.84 1720.32 1419.1 1719.18 1418.74 1717.57 1418.74ZM1730.67 1401.99 1732.51 1401.99 1724.73 1436.58C1724.27 1438.62 1724.04 1440.16 1724.04 1441.2 1724.04 1442.04 1724.18 1442.64 1724.45 1443.02 1724.72 1443.39 1725.15 1443.58 1725.73 1443.58 1726.36 1443.58 1727.02 1443.32 1727.73 1442.81 1728.44 1442.3 1729.44 1441.33 1730.73 1439.89L1732.51 1441.64C1730.6 1443.66 1728.98 1445.09 1727.67 1445.92 1726.36 1446.76 1724.94 1447.17 1723.42 1447.17 1722.13 1447.17 1721.1 1446.75 1720.32 1445.89 1719.55 1445.04 1719.17 1443.9 1719.17 1442.49 1719.17 1441.34 1719.41 1440.12 1719.89 1438.83L1719.48 1438.7C1717.48 1441.62 1715.58 1443.76 1713.79 1445.11 1712 1446.46 1710.11 1447.14 1708.11 1447.14 1705.81 1447.14 1704.04 1446.28 1702.78 1444.55 1701.52 1442.82 1700.89 1440.39 1700.89 1437.27 1700.89 1433.68 1701.59 1430.24 1703 1426.94 1704.4 1423.64 1706.33 1421.03 1708.79 1419.13 1711.25 1417.22 1713.99 1416.27 1717.01 1416.27 1718.28 1416.27 1719.45 1416.4 1720.53 1416.66 1721.6 1416.92 1722.7 1417.37 1723.82 1418.02L1725.45 1410.8C1725.62 1410.11 1725.76 1409.35 1725.89 1408.52 1726.01 1407.68 1726.07 1406.95 1726.07 1406.33 1726.07 1405.7 1725.96 1405.23 1725.73 1404.91 1725.5 1404.58 1725.17 1404.35 1724.75 1404.2 1724.32 1404.06 1723.55 1403.95 1722.45 1403.89L1722.82 1402.27Z" fill-rule="evenodd"/><text fill="#000000" fill-opacity="0" font-family="Arial,Arial_MSFontService,sans-serif" font-size="45.1875" x="1700.89" y="1441.52">๐</text><path d="M1759.95 1406.77C1758.66 1406.77 1757.3 1406.8 1755.88 1406.86L1751.63 1425.8 1754.88 1425.8C1757.41 1425.8 1759.44 1425.54 1760.99 1425.02 1762.55 1424.5 1763.82 1423.69 1764.81 1422.59 1765.8 1421.5 1766.56 1420.2 1767.1 1418.7 1767.65 1417.2 1767.92 1415.56 1767.92 1413.77 1767.92 1411.35 1767.3 1409.58 1766.07 1408.45 1764.84 1407.33 1762.8 1406.77 1759.95 1406.77ZM1746.85 1404.02 1760.63 1404.02C1763.11 1404.02 1765.15 1404.21 1766.74 1404.59 1768.34 1404.98 1769.65 1405.57 1770.68 1406.38 1771.71 1407.18 1772.48 1408.19 1772.99 1409.42 1773.5 1410.65 1773.76 1412.08 1773.76 1413.7 1773.76 1416.83 1773.02 1419.54 1771.54 1421.83 1770.06 1424.12 1768.06 1425.81 1765.53 1426.89 1762.99 1427.97 1759.96 1428.52 1756.42 1428.52 1754.29 1428.52 1752.52 1428.47 1751.1 1428.39L1749.1 1437.58C1748.92 1438.43 1748.79 1439.09 1748.71 1439.55 1748.64 1440.01 1748.58 1440.5 1748.53 1441.03 1748.47 1441.56 1748.45 1442.04 1748.45 1442.45 1748.45 1443.1 1748.55 1443.6 1748.76 1443.97 1748.97 1444.33 1749.28 1444.6 1749.7 1444.77 1750.11 1444.93 1750.83 1445.06 1751.85 1445.14L1751.51 1446.67 1738.67 1446.67 1739.01 1445.14C1739.8 1445.02 1740.4 1444.81 1740.79 1444.53 1741.19 1444.25 1741.52 1443.86 1741.79 1443.36 1742.06 1442.86 1742.31 1442.25 1742.54 1441.53 1742.77 1440.81 1743.11 1439.42 1743.57 1437.36L1748.88 1413.3C1749.34 1411.21 1749.57 1409.57 1749.57 1408.36 1749.57 1407.34 1749.33 1406.63 1748.85 1406.24 1748.37 1405.84 1747.59 1405.61 1746.51 1405.55Z" fill-rule="evenodd"/><text fill="#000000" fill-opacity="0" font-family="Arial,Arial_MSFontService,sans-serif" font-size="42.6562" x="1738.67" y="1441.34">๐</text><path d="M1759.39 1391.36 1763.58 1391.36 1774.52 1399.26 1773.3 1401.04 1761.83 1395.39 1761.49 1395.39 1749.77 1401.04 1748.55 1399.26Z" fill-rule="evenodd"/><text fill="#000000" fill-opacity="0" font-family="Arial,Arial_MSFontService,sans-serif" font-size="9.6875" x="1748.55" y="1399.83">เท</text><path d="M1725.76 1510.22C1723.63 1510.22 1721.72 1511.08 1720.04 1512.8 1718.35 1514.52 1717.02 1516.83 1716.05 1519.75 1715.08 1522.67 1714.6 1525.57 1714.6 1528.47 1714.6 1530.64 1714.9 1532.25 1715.49 1533.33 1716.08 1534.4 1717.08 1534.94 1718.47 1534.94 1719.12 1534.94 1719.78 1534.8 1720.44 1534.52 1721.11 1534.23 1721.8 1533.78 1722.52 1533.16 1723.24 1532.53 1723.95 1531.77 1724.65 1530.87 1725.34 1529.98 1725.98 1529.08 1726.57 1528.17 1727.15 1527.27 1727.69 1526.19 1728.19 1524.95 1728.69 1523.71 1729.12 1522.22 1729.47 1520.47L1729.76 1519.12C1730.07 1517.62 1730.22 1516.21 1730.22 1514.87 1730.22 1513.25 1729.88 1512.07 1729.19 1511.33 1728.51 1510.59 1727.36 1510.22 1725.76 1510.22ZM1755.01 1500.56 1759.32 1500.56 1757.6 1508.28 1767.1 1508.28 1766.41 1511.44 1756.91 1511.44 1754.13 1523.56C1753.59 1525.92 1753.24 1527.61 1753.1 1528.64 1752.95 1529.67 1752.88 1530.5 1752.88 1531.12 1752.88 1533.71 1753.95 1535 1756.1 1535 1757.02 1535 1757.99 1534.65 1759.02 1533.95 1760.05 1533.25 1761.28 1532.06 1762.69 1530.37L1764.51 1532.25C1762.69 1534.44 1760.95 1536.05 1759.27 1537.09 1757.59 1538.14 1755.84 1538.66 1754.01 1538.66 1749.65 1538.66 1747.47 1536.46 1747.47 1532.06 1747.47 1530.67 1747.65 1529.2 1748.01 1527.66L1751.69 1511.44 1746.44 1511.44 1746.91 1509.28C1748.14 1509.26 1749.07 1509.17 1749.71 1509 1750.34 1508.83 1750.88 1508.6 1751.3 1508.31 1751.73 1508.02 1752.12 1507.6 1752.47 1507.06 1752.83 1506.52 1753.17 1505.83 1753.51 1504.98 1753.84 1504.14 1754.34 1502.67 1755.01 1500.56ZM1738.85 1493.47 1740.69 1493.47 1732.91 1528.06C1732.45 1530.1 1732.22 1531.65 1732.22 1532.69 1732.22 1533.52 1732.36 1534.12 1732.63 1534.5 1732.9 1534.87 1733.33 1535.06 1733.91 1535.06 1734.54 1535.06 1735.2 1534.81 1735.91 1534.3 1736.62 1533.79 1737.62 1532.81 1738.91 1531.37L1740.69 1533.12C1738.78 1535.15 1737.16 1536.57 1735.85 1537.41 1734.54 1538.24 1733.12 1538.66 1731.6 1538.66 1730.31 1538.66 1729.28 1538.23 1728.51 1537.37 1727.73 1536.52 1727.35 1535.39 1727.35 1533.97 1727.35 1532.82 1727.59 1531.6 1728.07 1530.31L1727.66 1530.19C1725.66 1533.1 1723.77 1535.24 1721.97 1536.59 1720.18 1537.95 1718.29 1538.62 1716.29 1538.62 1713.99 1538.62 1712.22 1537.76 1710.96 1536.03 1709.7 1534.3 1709.07 1531.87 1709.07 1528.75 1709.07 1525.17 1709.77 1521.72 1711.18 1518.42 1712.58 1515.12 1714.52 1512.52 1716.97 1510.61 1719.43 1508.7 1722.17 1507.75 1725.19 1507.75 1726.46 1507.75 1727.64 1507.88 1728.71 1508.14 1729.78 1508.4 1730.88 1508.85 1732.01 1509.5L1733.63 1502.28C1733.8 1501.59 1733.94 1500.83 1734.07 1500 1734.19 1499.17 1734.26 1498.44 1734.26 1497.81 1734.26 1497.19 1734.14 1496.71 1733.91 1496.39 1733.68 1496.07 1733.35 1495.83 1732.93 1495.69 1732.5 1495.54 1731.73 1495.44 1730.63 1495.37L1731.01 1493.75Z" fill-rule="evenodd"/><text fill="#000000" fill-opacity="0" font-family="Arial,Arial_MSFontService,sans-serif" font-size="45.1875" x="1709.07" y="1533.01">๐๐ก</text><path d="M1697.25 1475.24 1777.25 1475.24 1777.25 1479.24 1697.25 1479.24Z" fill-rule="evenodd"/><path d="M1796.88 1474.86 1835.38 1474.86 1835.38 1479.01 1796.88 1479.01Z" fill-rule="evenodd"/><text fill="#000000" fill-opacity="0" font-family="Arial,Arial_MSFontService,sans-serif" font-size="4.15625" x="1796.88" y="1478.49">โ</text><path d="M1885.76 1467.33C1884.08 1467.33 1882.63 1468.27 1881.44 1470.17 1880.24 1472.07 1879.18 1475.06 1878.26 1479.14L1875.08 1493.3C1878.03 1493.19 1880.59 1492.22 1882.73 1490.37 1884.88 1488.53 1886.53 1486.04 1887.7 1482.89 1888.87 1479.74 1889.45 1476.49 1889.45 1473.14 1889.45 1471.33 1889.13 1469.9 1888.5 1468.87 1887.86 1467.84 1886.95 1467.33 1885.76 1467.33ZM1871.33 1464.76 1872.95 1466.92C1869.89 1469.11 1867.45 1471.7 1865.64 1474.7 1863.83 1477.7 1862.92 1480.66 1862.92 1483.58 1862.92 1486.29 1863.52 1488.42 1864.73 1489.98 1865.94 1491.55 1867.76 1492.58 1870.2 1493.08L1873.39 1478.73C1874.45 1473.98 1876.13 1470.48 1878.44 1468.22 1880.74 1465.96 1883.34 1464.83 1886.23 1464.83 1889.09 1464.83 1891.23 1465.62 1892.67 1467.22 1894.11 1468.81 1894.83 1471.2 1894.83 1474.39 1894.83 1478.37 1894 1481.98 1892.34 1485.23 1890.69 1488.48 1888.33 1491.02 1885.26 1492.86 1882.2 1494.69 1878.64 1495.64 1874.58 1495.7L1871.64 1508.73 1866.73 1508.73 1869.67 1495.64C1865.8 1495.2 1862.81 1493.92 1860.72 1491.78 1858.62 1489.64 1857.58 1486.84 1857.58 1483.36 1857.58 1476.44 1862.16 1470.24 1871.33 1464.76Z" fill-rule="evenodd"/><text fill="#000000" fill-opacity="0" font-family="Arial,Arial_MSFontService,sans-serif" font-size="43.9688" x="1857.58" y="1503.24">๐</text><path d="M1879.06 1450.17 1883.24 1450.17 1893.87 1460.01 1892.18 1461.8 1881.15 1454.2 1880.81 1454.2 1869.59 1461.8 1867.9 1460.01Z" fill-rule="evenodd"/><text fill="#000000" fill-opacity="0" font-family="Arial,Arial_MSFontService,sans-serif" font-size="11.625" x="1867.9" y="1460.34">เท</text><path d="M1924.06 1450.08 1924.9 1452.48C1920.02 1454.09 1916.41 1457.22 1914.07 1461.87 1911.73 1466.53 1910.56 1472.38 1910.56 1479.42 1910.56 1486.71 1911.73 1492.72 1914.07 1497.45 1916.41 1502.18 1919.99 1505.35 1924.81 1506.95L1924.06 1509.36C1917.95 1507.75 1913.27 1504.3 1910.02 1499 1906.77 1493.7 1905.15 1487.27 1905.15 1479.73 1905.15 1472.21 1906.78 1465.79 1910.04 1460.47 1913.3 1455.14 1917.97 1451.68 1924.06 1450.08Z" fill-rule="evenodd"/><text fill="#000000" fill-opacity="0" font-family="Arial,Arial_MSFontService,sans-serif" font-size="59.2812" x="1905.15" y="1501.95">(</text><path d="M1948.94 1455.33C1947.65 1455.33 1946.29 1455.36 1944.88 1455.42L1940.63 1474.36 1943.88 1474.36C1946.4 1474.36 1948.44 1474.1 1949.99 1473.58 1951.54 1473.06 1952.81 1472.25 1953.8 1471.15 1954.79 1470.06 1955.56 1468.76 1956.1 1467.26 1956.64 1465.76 1956.91 1464.12 1956.91 1462.33 1956.91 1459.91 1956.29 1458.14 1955.07 1457.01 1953.84 1455.89 1951.79 1455.33 1948.94 1455.33ZM1935.85 1452.58 1949.63 1452.58C1952.11 1452.58 1954.14 1452.77 1955.74 1453.15 1957.33 1453.54 1958.64 1454.13 1959.68 1454.94 1960.71 1455.74 1961.48 1456.75 1961.99 1457.98 1962.5 1459.21 1962.75 1460.64 1962.75 1462.26 1962.75 1465.39 1962.01 1468.1 1960.53 1470.39 1959.06 1472.68 1957.05 1474.37 1954.52 1475.45 1951.99 1476.54 1948.95 1477.08 1945.41 1477.08 1943.28 1477.08 1941.51 1477.04 1940.1 1476.95L1938.1 1486.14C1937.91 1486.99 1937.78 1487.65 1937.71 1488.11 1937.63 1488.57 1937.57 1489.06 1937.52 1489.59 1937.47 1490.12 1937.44 1490.6 1937.44 1491.01 1937.44 1491.66 1937.54 1492.17 1937.75 1492.53 1937.96 1492.89 1938.27 1493.16 1938.69 1493.33 1939.11 1493.49 1939.83 1493.62 1940.85 1493.7L1940.5 1495.23 1927.66 1495.23 1928 1493.7C1928.79 1493.58 1929.39 1493.37 1929.78 1493.09 1930.18 1492.81 1930.51 1492.42 1930.78 1491.92 1931.06 1491.42 1931.31 1490.81 1931.53 1490.09 1931.76 1489.37 1932.11 1487.98 1932.57 1485.92L1937.88 1461.86C1938.34 1459.77 1938.57 1458.13 1938.57 1456.92 1938.57 1455.9 1938.33 1455.19 1937.85 1454.8 1937.37 1454.4 1936.59 1454.17 1935.5 1454.11Z" fill-rule="evenodd"/><text fill="#000000" fill-opacity="0" font-family="Arial,Arial_MSFontService,sans-serif" font-size="42.6562" x="1927.66" y="1489.9">๐</text><path d="M1948.39 1439.92 1952.57 1439.92 1963.51 1447.82 1962.29 1449.6 1950.82 1443.95 1950.48 1443.95 1938.76 1449.6 1937.54 1447.82Z" fill-rule="evenodd"/><text fill="#000000" fill-opacity="0" font-family="Arial,Arial_MSFontService,sans-serif" font-size="9.6875" x="1937.54" y="1448.39">เท</text><path d="M1969 1450.08C1975.08 1451.68 1979.75 1455.14 1983.01 1460.47 1986.28 1465.79 1987.91 1472.21 1987.91 1479.73 1987.91 1487.27 1986.28 1493.7 1983.03 1499 1979.78 1504.3 1975.1 1507.75 1969 1509.36L1968.25 1506.95C1973.06 1505.35 1976.64 1502.18 1978.98 1497.45 1981.33 1492.72 1982.5 1486.71 1982.5 1479.42 1982.5 1472.38 1981.33 1466.53 1979 1461.87 1976.67 1457.22 1973.05 1454.09 1968.16 1452.48Z" fill-rule="evenodd"/><text fill="#000000" fill-opacity="0" font-family="Arial,Arial_MSFontService,sans-serif" font-size="59.2812" x="1968.16" y="1501.95">)</text><path d="M2043.83 1375.93C2045.42 1375.93 2046.78 1376.11 2047.9 1376.47 2049.02 1376.83 2049.94 1377.32 2050.64 1377.93 2051.35 1378.54 2051.86 1379.28 2052.17 1380.13 2052.48 1380.99 2052.64 1381.91 2052.64 1382.91 2052.64 1383.51 2052.6 1384.06 2052.51 1384.57 2052.43 1385.09 2052.28 1385.59 2052.08 1386.09 2051.87 1386.58 2051.6 1387.09 2051.26 1387.59 2050.93 1388.1 2050.51 1388.63 2050 1389.2 2049.62 1389.69 2049.12 1390.25 2048.51 1390.9 2047.9 1391.54 2047.23 1392.23 2046.5 1392.96 2045.77 1393.7 2045.01 1394.46 2044.22 1395.26 2043.42 1396.05 2042.65 1396.84 2041.9 1397.62 2041.15 1398.4 2040.46 1399.16 2039.83 1399.89 2039.21 1400.63 2038.69 1401.3 2038.3 1401.91L2046.79 1401.91C2047.51 1401.91 2048.08 1401.88 2048.51 1401.83 2048.94 1401.78 2049.29 1401.66 2049.58 1401.47 2049.86 1401.29 2050.1 1401.01 2050.3 1400.64 2050.5 1400.26 2050.73 1399.75 2050.99 1399.09L2053.12 1399.09C2053.04 1400.17 2052.97 1401.27 2052.9 1402.37 2052.83 1403.47 2052.76 1404.57 2052.69 1405.65L2033.25 1405.65 2033.25 1404.46C2033.61 1403.63 2034.04 1402.82 2034.53 1402.01 2035.02 1401.21 2035.57 1400.4 2036.18 1399.57 2036.8 1398.74 2037.49 1397.89 2038.27 1397.01 2039.05 1396.13 2039.92 1395.22 2040.87 1394.27 2042.3 1392.83 2043.47 1391.6 2044.38 1390.59 2045.28 1389.57 2045.99 1388.66 2046.51 1387.87 2047.03 1387.07 2047.39 1386.34 2047.58 1385.66 2047.77 1384.99 2047.87 1384.27 2047.87 1383.51 2047.87 1382.73 2047.76 1382.01 2047.53 1381.35 2047.31 1380.69 2046.99 1380.13 2046.58 1379.67 2046.17 1379.21 2045.64 1378.85 2045.01 1378.59 2044.37 1378.33 2043.64 1378.2 2042.82 1378.2 2041.39 1378.2 2040.2 1378.59 2039.24 1379.36 2038.27 1380.14 2037.52 1381.26 2036.99 1382.73L2033.98 1382.73 2033.98 1378.25C2035.94 1377.44 2037.74 1376.85 2039.39 1376.48 2041.03 1376.12 2042.51 1375.93 2043.83 1375.93Z" fill-rule="evenodd"/><text fill="#000000" fill-opacity="0" font-family="Arial,Arial_MSFontService,sans-serif" font-size="29.7192" x="2033.25" y="1401.94">2</text><path d="M1573.54 1516.11C1574.39 1516.11 1575.13 1516.15 1575.77 1516.24 1576.41 1516.32 1577.03 1516.42 1577.63 1516.55L1576.69 1520.82 1574.42 1520.82C1574.31 1519.94 1574.05 1519.3 1573.64 1518.9 1573.22 1518.49 1572.67 1518.29 1571.98 1518.29 1571.19 1518.29 1570.52 1518.46 1569.98 1518.81 1569.43 1519.15 1568.96 1519.67 1568.55 1520.37 1568.15 1521.06 1567.8 1521.88 1567.51 1522.81 1567.22 1523.74 1567.02 1524.56 1566.91 1525.24L1573.27 1525.24 1572.76 1527.79 1566.38 1527.79 1562.23 1547.46C1561.51 1550.81 1560.34 1553.29 1558.73 1554.91 1557.12 1556.52 1554.96 1557.33 1552.27 1557.33 1551.57 1557.33 1551.05 1557.28 1550.73 1557.19 1550.82 1556.81 1550.91 1556.41 1550.99 1556.01 1551.06 1555.6 1551.15 1555.21 1551.26 1554.83 1551.35 1554.86 1551.48 1554.87 1551.65 1554.87 1551.82 1554.87 1552.06 1554.87 1552.36 1554.87 1552.96 1554.87 1553.51 1554.78 1554 1554.58 1554.5 1554.39 1554.96 1554.05 1555.37 1553.55 1555.78 1553.05 1556.16 1552.37 1556.5 1551.51 1556.85 1550.65 1557.17 1549.53 1557.48 1548.17L1562.07 1527.79 1558.12 1527.79 1558.54 1526.02C1559.38 1525.98 1560.05 1525.93 1560.54 1525.86 1561.04 1525.8 1561.46 1525.67 1561.81 1525.46 1562.15 1525.26 1562.41 1524.91 1562.57 1524.42 1563.46 1521.62 1564.8 1519.53 1566.58 1518.16 1568.36 1516.8 1570.68 1516.11 1573.54 1516.11Z" fill-rule="evenodd"/><text fill="#000000" fill-opacity="0" font-family="Arial,Arial_MSFontService,sans-serif" font-size="41.2168" x="1550.73" y="1552.18">๐</text><path d="M1204.34 1578.08C1206.15 1578.08 1207.73 1578.59 1209.09 1579.61 1210.44 1580.64 1211.64 1582.15 1212.68 1584.15L1207.87 1586.24C1206.87 1584.2 1206 1582.79 1205.27 1582 1204.55 1581.22 1203.64 1580.83 1202.56 1580.83 1201.97 1580.83 1201.43 1580.94 1200.93 1581.15 1200.43 1581.35 1199.97 1581.77 1199.56 1582.38 1199.14 1582.99 1198.78 1583.81 1198.49 1584.83 1198.2 1585.85 1197.81 1587.55 1197.31 1589.93L1195.12 1600.27C1194.78 1601.83 1194.41 1603.21 1193.99 1604.4 1193.58 1605.58 1193.09 1606.71 1192.54 1607.77 1191.99 1608.83 1191.4 1609.78 1190.79 1610.6 1190.18 1611.42 1189.47 1612.25 1188.68 1613.08L1188.68 1613.4C1189.99 1613.4 1191.29 1613.54 1192.57 1613.83 1193.85 1614.12 1195.12 1614.5 1196.37 1614.96 1197.64 1615.44 1198.85 1615.82 1200.01 1616.1 1201.16 1616.38 1202.31 1616.52 1203.43 1616.52 1204.66 1616.52 1205.7 1616.35 1206.56 1616.02 1207.41 1615.69 1208.25 1615.11 1209.07 1614.3 1209.89 1613.49 1210.99 1612.03 1212.37 1609.93L1214.74 1611.49C1212.22 1615.39 1210.06 1618.07 1208.26 1619.54 1206.46 1621 1204.64 1621.74 1202.81 1621.74 1201.24 1621.74 1199.77 1621.57 1198.38 1621.24 1197 1620.91 1195.64 1620.46 1194.31 1619.9 1192.81 1619.29 1191.51 1618.84 1190.41 1618.54 1189.32 1618.23 1188.2 1618.08 1187.06 1618.08 1185.81 1618.08 1184.61 1618.32 1183.48 1618.79 1182.34 1619.25 1180.72 1620.24 1178.62 1621.74L1176.96 1619.68C1179.57 1617.32 1181.76 1615.72 1183.56 1614.86 1185.87 1612.66 1187.55 1609.16 1188.59 1604.36L1191.59 1590.55C1192.13 1588.05 1192.78 1586.04 1193.56 1584.52 1194.33 1583 1195.24 1581.82 1196.31 1580.97 1197.37 1580.13 1198.55 1579.44 1199.84 1578.9 1201.13 1578.35 1202.63 1578.08 1204.34 1578.08Z" fill-rule="evenodd"/><text fill="#000000" fill-opacity="0" font-family="Arial,Arial_MSFontService,sans-serif" font-size="43.6562" x="1176.96" y="1616.28">โ</text><path d="M1239.3 1607.36 1277.8 1607.36 1277.8 1611.52 1239.3 1611.52ZM1239.3 1594.4 1277.8 1594.4 1277.8 1598.55 1239.3 1598.55Z" fill-rule="evenodd"/><text fill="#000000" fill-opacity="0" font-family="Arial,Arial_MSFontService,sans-serif" font-size="17.125" x="1239.3" y="1609.38">=</text><path d="M1327.97 1578.08C1329.78 1578.08 1331.37 1578.59 1332.72 1579.61 1334.08 1580.64 1335.27 1582.15 1336.32 1584.15L1331.5 1586.24C1330.5 1584.2 1329.64 1582.79 1328.91 1582 1328.18 1581.22 1327.27 1580.83 1326.19 1580.83 1325.61 1580.83 1325.07 1580.94 1324.57 1581.15 1324.07 1581.35 1323.61 1581.77 1323.19 1582.38 1322.77 1582.99 1322.42 1583.81 1322.13 1584.83 1321.84 1585.85 1321.44 1587.55 1320.94 1589.93L1318.75 1600.27C1318.42 1601.83 1318.04 1603.21 1317.63 1604.4 1317.21 1605.58 1316.73 1606.71 1316.18 1607.77 1315.62 1608.83 1315.04 1609.78 1314.43 1610.6 1313.81 1611.42 1313.11 1612.25 1312.32 1613.08L1312.32 1613.4C1313.63 1613.4 1314.93 1613.54 1316.21 1613.83 1317.49 1614.12 1318.75 1614.5 1320 1614.96 1321.27 1615.44 1322.49 1615.82 1323.64 1616.1 1324.8 1616.38 1325.94 1616.52 1327.07 1616.52 1328.29 1616.52 1329.34 1616.35 1330.19 1616.02 1331.04 1615.69 1331.88 1615.11 1332.71 1614.3 1333.53 1613.49 1334.63 1612.03 1336 1609.93L1338.38 1611.49C1335.86 1615.39 1333.7 1618.07 1331.89 1619.54 1330.09 1621 1328.27 1621.74 1326.44 1621.74 1324.88 1621.74 1323.4 1621.57 1322.02 1621.24 1320.63 1620.91 1319.27 1620.46 1317.94 1619.9 1316.44 1619.29 1315.14 1618.84 1314.05 1618.54 1312.96 1618.23 1311.84 1618.08 1310.69 1618.08 1309.44 1618.08 1308.25 1618.32 1307.11 1618.79 1305.98 1619.25 1304.36 1620.24 1302.25 1621.74L1300.6 1619.68C1303.2 1617.32 1305.4 1615.72 1307.19 1614.86 1309.5 1612.66 1311.18 1609.16 1312.22 1604.36L1315.22 1590.55C1315.76 1588.05 1316.42 1586.04 1317.19 1584.52 1317.96 1583 1318.88 1581.82 1319.94 1580.97 1321 1580.13 1322.18 1579.44 1323.47 1578.9 1324.76 1578.35 1326.26 1578.08 1327.97 1578.08Z" fill-rule="evenodd"/><text fill="#000000" fill-opacity="0" font-family="Arial,Arial_MSFontService,sans-serif" font-size="43.6562" x="1300.6" y="1616.28">โ</text><path d="M1348.39 1610.89C1349.49 1610.89 1350.37 1611.26 1351.03 1612.01 1351.69 1612.75 1352.02 1613.74 1352.02 1614.98 1352.02 1615.65 1351.96 1616.4 1351.83 1617.23 1351.71 1618.05 1351.5 1618.98 1351.21 1620 1350.63 1622.1 1350.17 1623.94 1349.84 1625.51 1349.5 1627.09 1349.33 1628.24 1349.33 1628.98 1349.33 1629.9 1349.51 1630.58 1349.87 1631.03 1350.23 1631.48 1350.81 1631.71 1351.6 1631.71 1352.32 1631.71 1353.09 1631.44 1353.91 1630.91 1354.73 1630.37 1355.51 1629.68 1356.26 1628.83 1357.01 1627.98 1357.68 1627.03 1358.27 1625.98 1358.86 1624.93 1359.29 1623.9 1359.57 1622.87L1362.09 1611.38 1366.61 1611.38 1363.08 1626.36C1362.89 1627.14 1362.76 1627.84 1362.69 1628.45 1362.61 1629.06 1362.57 1629.58 1362.57 1630.01 1362.57 1630.59 1362.68 1631.01 1362.89 1631.27 1363.11 1631.53 1363.45 1631.66 1363.93 1631.66 1364.22 1631.66 1364.5 1631.61 1364.78 1631.5 1365.05 1631.39 1365.35 1631.23 1365.66 1631 1365.97 1630.77 1366.31 1630.47 1366.68 1630.11 1367.05 1629.75 1367.46 1629.32 1367.92 1628.82L1369.5 1630.33C1368.74 1631.11 1368.03 1631.78 1367.39 1632.34 1366.75 1632.9 1366.14 1633.36 1365.56 1633.72 1364.97 1634.08 1364.4 1634.34 1363.82 1634.5 1363.25 1634.66 1362.66 1634.74 1362.05 1634.74 1360.94 1634.74 1360.08 1634.38 1359.46 1633.67 1358.84 1632.96 1358.53 1631.98 1358.53 1630.74 1358.53 1630.42 1358.56 1630.1 1358.6 1629.77 1358.65 1629.44 1358.73 1629.12 1358.86 1628.82L1358.58 1628.73C1357.07 1630.73 1355.59 1632.23 1354.16 1633.23 1352.73 1634.24 1351.24 1634.74 1349.7 1634.74 1348.08 1634.74 1346.86 1634.31 1346.04 1633.45 1345.22 1632.6 1344.81 1631.36 1344.81 1629.76 1344.81 1629.34 1344.88 1628.77 1345.03 1628.04 1345.17 1627.3 1345.35 1626.48 1345.57 1625.58 1345.78 1624.68 1346.01 1623.73 1346.26 1622.75 1346.5 1621.76 1346.73 1620.81 1346.94 1619.9 1347.16 1618.99 1347.34 1618.16 1347.48 1617.42 1347.63 1616.68 1347.7 1616.1 1347.7 1615.69 1347.7 1614.57 1347.24 1614.01 1346.32 1614.01 1346.03 1614.01 1345.75 1614.07 1345.48 1614.19 1345.2 1614.3 1344.91 1614.47 1344.59 1614.7 1344.28 1614.93 1343.94 1615.22 1343.57 1615.58 1343.2 1615.93 1342.79 1616.34 1342.33 1616.81L1340.77 1615.32C1341.6 1614.5 1342.34 1613.8 1342.99 1613.23 1343.64 1612.67 1344.25 1612.21 1344.83 1611.87 1345.41 1611.52 1345.99 1611.28 1346.55 1611.12 1347.12 1610.97 1347.73 1610.89 1348.39 1610.89Z" fill-rule="evenodd"/><text fill="#000000" fill-opacity="0" font-family="Arial,Arial_MSFontService,sans-serif" font-size="23.8442" x="1340.77" y="1631.76">๐ข</text><path d="M1409.69 1582.86 1414.13 1582.86 1414.13 1600.86 1431.16 1600.86 1431.16 1605.02 1414.13 1605.02 1414.13 1623.02 1409.69 1623.02 1409.69 1605.02 1392.66 1605.02 1392.66 1600.86 1409.69 1600.86Z" fill-rule="evenodd"/><text fill="#000000" fill-opacity="0" font-family="Arial,Arial_MSFontService,sans-serif" font-size="40.1562" x="1392.66" y="1618">+</text><path d="M1477.76 1578.08C1479.57 1578.08 1481.15 1578.59 1482.51 1579.61 1483.86 1580.64 1485.06 1582.15 1486.1 1584.15L1481.29 1586.24C1480.29 1584.2 1479.42 1582.79 1478.69 1582 1477.96 1581.22 1477.06 1580.83 1475.97 1580.83 1475.39 1580.83 1474.85 1580.94 1474.35 1581.15 1473.85 1581.35 1473.39 1581.77 1472.97 1582.38 1472.56 1582.99 1472.2 1583.81 1471.91 1584.83 1471.62 1585.85 1471.22 1587.55 1470.72 1589.93L1468.54 1600.27C1468.2 1601.83 1467.83 1603.21 1467.41 1604.4 1466.99 1605.58 1466.51 1606.71 1465.96 1607.77 1465.41 1608.83 1464.82 1609.78 1464.21 1610.6 1463.59 1611.42 1462.89 1612.25 1462.1 1613.08L1462.1 1613.4C1463.41 1613.4 1464.71 1613.54 1465.99 1613.83 1467.27 1614.12 1468.54 1614.5 1469.79 1614.96 1471.06 1615.44 1472.27 1615.82 1473.43 1616.1 1474.58 1616.38 1475.72 1616.52 1476.85 1616.52 1478.08 1616.52 1479.12 1616.35 1479.97 1616.02 1480.83 1615.69 1481.67 1615.11 1482.49 1614.3 1483.31 1613.49 1484.41 1612.03 1485.79 1609.93L1488.16 1611.49C1485.64 1615.39 1483.48 1618.07 1481.68 1619.54 1479.88 1621 1478.06 1621.74 1476.22 1621.74 1474.66 1621.74 1473.19 1621.57 1471.8 1621.24 1470.42 1620.91 1469.06 1620.46 1467.72 1619.9 1466.22 1619.29 1464.93 1618.84 1463.83 1618.54 1462.74 1618.23 1461.62 1618.08 1460.47 1618.08 1459.22 1618.08 1458.03 1618.32 1456.9 1618.79 1455.76 1619.25 1454.14 1620.24 1452.04 1621.74L1450.38 1619.68C1452.98 1617.32 1455.18 1615.72 1456.97 1614.86 1459.29 1612.66 1460.96 1609.16 1462.01 1604.36L1465.01 1590.55C1465.55 1588.05 1466.2 1586.04 1466.97 1584.52 1467.74 1583 1468.66 1581.82 1469.72 1580.97 1470.79 1580.13 1471.96 1579.44 1473.26 1578.9 1474.55 1578.35 1476.05 1578.08 1477.76 1578.08Z" fill-rule="evenodd"/><text fill="#000000" fill-opacity="0" font-family="Arial,Arial_MSFontService,sans-serif" font-size="43.6562" x="1450.38" y="1616.28">โ</text><path d="M1508.94 1602.24C1509.78 1602.24 1510.53 1602.28 1511.17 1602.37 1511.81 1602.45 1512.43 1602.56 1513.03 1602.68L1512.09 1606.95 1509.81 1606.95C1509.71 1606.07 1509.45 1605.44 1509.03 1605.03 1508.62 1604.62 1508.07 1604.42 1507.38 1604.42 1506.59 1604.42 1505.92 1604.59 1505.37 1604.94 1504.83 1605.28 1504.36 1605.8 1503.95 1606.5 1503.55 1607.19 1503.2 1608.01 1502.91 1608.94 1502.62 1609.88 1502.42 1610.69 1502.31 1611.38L1508.67 1611.38 1508.16 1613.92 1501.78 1613.92 1497.63 1633.59C1496.91 1636.94 1495.74 1639.42 1494.13 1641.04 1492.51 1642.65 1490.36 1643.46 1487.67 1643.46 1486.96 1643.46 1486.45 1643.41 1486.13 1643.32 1486.22 1642.94 1486.31 1642.54 1486.38 1642.14 1486.46 1641.73 1486.55 1641.34 1486.66 1640.96 1486.75 1640.99 1486.88 1641 1487.05 1641 1487.22 1641 1487.45 1641 1487.76 1641 1488.36 1641 1488.9 1640.91 1489.4 1640.72 1489.9 1640.52 1490.35 1640.18 1490.77 1639.68 1491.18 1639.19 1491.56 1638.51 1491.9 1637.64 1492.25 1636.78 1492.57 1635.66 1492.88 1634.3L1497.47 1613.92 1493.52 1613.92 1493.93 1612.16C1494.78 1612.11 1495.44 1612.06 1495.94 1612 1496.44 1611.93 1496.86 1611.8 1497.2 1611.59 1497.55 1611.39 1497.8 1611.04 1497.97 1610.55 1498.86 1607.75 1500.19 1605.66 1501.98 1604.3 1503.76 1602.93 1506.08 1602.24 1508.94 1602.24Z" fill-rule="evenodd"/><text fill="#000000" fill-opacity="0" font-family="Arial,Arial_MSFontService,sans-serif" font-size="41.2168" x="1486.13" y="1638.31">๐</text><path d="M0-3.4375 285.463-3.4375 285.463 903.258 282.025 899.821 460.743 899.821 457.305 903.258 457.305 843.673 464.18 843.673 464.18 906.696 278.588 906.696 278.588 0 282.025 3.4375 0 3.4375ZM446.993 848.256 460.743 820.756 474.493 848.256Z" transform="matrix(1.83697e-16 1 1 -1.83697e-16 1285.5 1044.5)"/><path d="M0 3.4375-82.5003 3.4375-79.0628 0-79.0628 204.634-82.5003 201.196 133.159 201.196 133.159 244.655 126.284 244.655 126.284 204.634 129.721 208.071-85.9378 208.071-85.9378-3.4375 0-3.4375ZM143.471 240.072 129.721 267.572 115.971 240.072Z" transform="matrix(1 -1.22465e-16 -1.22465e-16 -1 603.5 1505.07)"/><rect x="1515.5" y="696.5" width="676" height="545" stroke="#052909" stroke-width="6.875" stroke-miterlimit="8" fill="#196B24"/><path d="M1774.85 937.384 1787.78 937.384 1798.48 968.955C1800.02 973.494 1801.21 977.33 1802.05 980.464L1802.49 980.464C1802.71 978.816 1803.2 976.074 1803.97 972.237 1804.74 968.401 1805.45 965.05 1806.1 962.186L1808.94 949.42C1809.53 946.746 1809.83 944.571 1809.83 942.895 1809.83 941.626 1809.51 940.741 1808.88 940.241 1808.24 939.741 1807.23 939.451 1805.86 939.37L1806.3 937.384 1820.49 937.384 1820.04 939.37C1819.01 939.586 1818.28 939.829 1817.83 940.099 1817.39 940.369 1816.99 940.775 1816.64 941.315 1816.29 941.855 1815.92 942.7 1815.54 943.848 1815.16 944.996 1814.69 946.867 1814.12 949.461L1804.6 992.704 1799.09 992.704 1787.26 957.931C1785.82 953.77 1784.57 949.623 1783.49 945.489L1782.96 945.489C1782.8 946.867 1782.35 949.495 1781.62 953.372 1780.89 957.249 1780.12 961.038 1779.31 964.74L1775.75 980.91C1775.18 983.477 1774.89 985.584 1774.89 987.232 1774.89 988.448 1775.2 989.306 1775.81 989.806 1776.41 990.306 1777.43 990.61 1778.87 990.718L1778.42 992.704 1764.24 992.704 1764.68 990.718C1765.71 990.556 1766.48 990.292 1766.99 989.927 1767.5 989.563 1767.94 989.056 1768.29 988.408 1768.64 987.759 1768.96 986.969 1769.26 986.037 1769.56 985.105 1770 983.301 1770.6 980.626L1777.49 949.42C1777.76 948.259 1777.97 947.151 1778.14 946.097 1778.3 945.043 1778.38 943.976 1778.38 942.895 1778.38 941.626 1778.06 940.741 1777.43 940.241 1776.79 939.741 1775.79 939.451 1774.41 939.37Z" fill="#FFFFFF" fill-rule="evenodd"/><text fill="#000000" fill-opacity="0" font-family="Arial,Arial_MSFontService,sans-serif" font-size="55.3198" x="1764.24" y="985.789">๐</text><path d="M1837.03 937.384 1849.95 937.384 1860.65 968.955C1862.19 973.494 1863.38 977.33 1864.22 980.464L1864.67 980.464C1864.88 978.816 1865.38 976.074 1866.15 972.237 1866.92 968.401 1867.62 965.05 1868.27 962.186L1871.11 949.42C1871.7 946.746 1872 944.571 1872 942.895 1872 941.626 1871.68 940.741 1871.05 940.241 1870.41 939.741 1869.41 939.451 1868.03 939.37L1868.48 937.384 1882.66 937.384 1882.21 939.37C1881.19 939.586 1880.45 939.829 1880.01 940.099 1879.56 940.369 1879.16 940.775 1878.81 941.315 1878.46 941.855 1878.09 942.7 1877.72 943.848 1877.34 944.996 1876.86 946.867 1876.3 949.461L1866.77 992.704 1861.26 992.704 1849.43 957.931C1848 953.77 1846.74 949.623 1845.66 945.489L1845.13 945.489C1844.97 946.867 1844.52 949.495 1843.79 953.372 1843.07 957.249 1842.3 961.038 1841.48 964.74L1837.92 980.91C1837.35 983.477 1837.07 985.584 1837.07 987.232 1837.07 988.448 1837.37 989.306 1837.98 989.806 1838.59 990.306 1839.61 990.61 1841.04 990.718L1840.59 992.704 1826.41 992.704 1826.85 990.718C1827.88 990.556 1828.65 990.292 1829.16 989.927 1829.68 989.563 1830.11 989.056 1830.46 988.408 1830.81 987.759 1831.14 986.969 1831.43 986.037 1831.73 985.105 1832.18 983.301 1832.77 980.626L1839.66 949.42C1839.93 948.259 1840.15 947.151 1840.31 946.097 1840.47 945.043 1840.55 943.976 1840.55 942.895 1840.55 941.626 1840.23 940.741 1839.6 940.241 1838.97 939.741 1837.96 939.451 1836.58 939.37Z" fill="#FFFFFF" fill-rule="evenodd"/><text fill="#000000" fill-opacity="0" font-family="Arial,Arial_MSFontService,sans-serif" font-size="55.3198" x="1826.41" y="985.789">๐</text><path d="M1910.19 982.264C1908.96 982.264 1907.92 982.626 1907.09 983.351 1906.26 984.076 1905.57 984.984 1905.02 986.077 1904.47 987.169 1904.03 988.355 1903.68 989.636 1903.33 990.917 1903.04 992.123 1902.8 993.255L1899.64 1007.08C1902.07 1006.96 1904.18 1006.37 1905.99 1005.3 1907.79 1004.24 1909.3 1002.87 1910.5 1001.19 1911.7 999.515 1912.6 997.613 1913.2 995.489 1913.79 993.364 1914.09 991.18 1914.09 988.936 1914.09 988.281 1914.05 987.566 1913.99 986.791 1913.92 986.017 1913.75 985.297 1913.49 984.632 1913.24 983.967 1912.85 983.406 1912.33 982.949 1911.82 982.492 1911.1 982.264 1910.19 982.264ZM1895.18 979.137 1897.08 981.609C1893.79 984.111 1891.26 986.757 1889.52 989.547 1887.77 992.336 1886.9 995.121 1886.9 997.901 1886.9 1000.48 1887.5 1002.51 1888.71 1003.98 1889.92 1005.45 1891.79 1006.4 1894.31 1006.84L1897.32 993.374C1897.86 990.912 1898.58 988.782 1899.49 986.985 1900.41 985.188 1901.46 983.709 1902.64 982.547 1903.82 981.385 1905.1 980.527 1906.49 979.971 1907.88 979.415 1909.32 979.137 1910.81 979.137 1913.81 979.137 1916.07 980.03 1917.59 981.817 1919.11 983.604 1919.87 986.116 1919.87 989.353 1919.87 992.252 1919.39 994.958 1918.42 997.469 1917.46 999.981 1916.08 1002.17 1914.27 1004.02 1912.46 1005.88 1910.28 1007.34 1907.72 1008.4 1905.15 1009.46 1902.28 1010 1899.11 1010.02L1896.34 1022.3 1890.77 1022.3 1893.63 1009.85C1891.62 1009.59 1889.83 1009.13 1888.27 1008.46 1886.7 1007.79 1885.38 1006.95 1884.3 1005.91 1883.23 1004.88 1882.41 1003.67 1881.85 1002.28 1881.28 1000.89 1881 999.331 1881 997.603 1881 994.287 1882.19 991.095 1884.59 988.028 1886.98 984.96 1890.51 981.996 1895.18 979.137Z" fill="#FFFFFF" fill-rule="evenodd"/><text fill="#000000" fill-opacity="0" font-family="Arial,Arial_MSFontService,sans-serif" font-size="43.1587" x="1881" y="1016.9">๐</text><rect x="2338.5" y="887.5" width="198" height="155" stroke="#1C440D" stroke-width="6.875" stroke-miterlimit="8" fill="#8ED973"/><path d="M2439.98 955.758C2437.79 955.758 2435.92 956.987 2434.36 959.445 2432.81 961.904 2431.44 965.781 2430.25 971.077L2426.12 989.436C2429.95 989.301 2433.26 988.038 2436.05 985.646 2438.83 983.255 2440.98 980.02 2442.49 975.94 2444 971.86 2444.76 967.646 2444.76 963.296 2444.76 960.945 2444.35 959.101 2443.52 957.764 2442.7 956.426 2441.52 955.758 2439.98 955.758ZM2421.25 952.434 2423.36 955.231C2419.39 958.068 2416.23 961.431 2413.88 965.322 2411.53 969.213 2410.35 973.049 2410.35 976.832 2410.35 980.344 2411.14 983.113 2412.7 985.14 2414.27 987.166 2416.63 988.504 2419.79 989.152L2423.93 970.55C2425.31 964.39 2427.49 959.844 2430.47 956.913 2433.46 953.981 2436.83 952.515 2440.59 952.515 2444.29 952.515 2447.07 953.549 2448.93 955.616 2450.8 957.683 2451.73 960.783 2451.73 964.917 2451.73 970.077 2450.66 974.765 2448.51 978.98 2446.36 983.195 2443.3 986.491 2439.33 988.868 2435.36 991.246 2430.74 992.475 2425.47 992.556L2421.66 1009.46 2415.3 1009.46 2419.11 992.475C2414.08 991.908 2410.21 990.24 2407.49 987.47 2404.78 984.701 2403.42 981.06 2403.42 976.548 2403.42 967.578 2409.37 959.54 2421.25 952.434Z" fill="#FFFFFF" fill-rule="evenodd"/><text fill="#000000" fill-opacity="0" font-family="Arial,Arial_MSFontService,sans-serif" font-size="57.022" x="2403.42" y="1002.33">๐</text><path d="M2431.16 933.508 2436.59 933.508 2450.37 946.274 2448.18 948.584 2433.87 938.736 2433.43 938.736 2418.88 948.584 2416.69 946.274Z" fill="#FFFFFF" fill-rule="evenodd"/><text fill="#000000" fill-opacity="0" font-family="Arial,Arial_MSFontService,sans-serif" font-size="15.0762" x="2416.69" y="946.7">เท</text><path d="M1384.56 963.063 1492.58 964.933 1492.47 971.807 1384.44 969.937ZM1488.18 954.543 1515.44 968.767 1487.7 982.039Z"/><path d="M0.0977174-3.43611 123.421 0.0710031 123.226 6.94322-0.0977174 3.43611ZM119.133-10.3676 146.231 4.15856 118.351 17.1213Z" transform="matrix(1 0 0 -1 2191.5 968.659)"/><path d="M2440.49 1042.5 2440.49 1508.57 2128.42 1508.57 2128.42 1501.7 2437.06 1501.7 2433.62 1505.13 2433.62 1042.5ZM2133 1518.88 2105.5 1505.13 2133 1491.38Z"/><path d="M0 3.4375-82.4962 3.4375-79.0587 0-79.0587 202.555-82.4962 199.117 1253.76 199.117 1253.76 240.497 1246.89 240.497 1246.89 202.555 1250.32 205.992-85.9337 205.992-85.9337-3.4375 0-3.4375ZM1264.07 235.914 1250.32 263.414 1236.57 235.914Z" transform="matrix(1 -1.22465e-16 -1.22465e-16 -1 603.5 1504.91)"/></g></svg>