<?xml version="1.0" encoding="utf-8" standalone="no"?>
<!DOCTYPE svg PUBLIC "-//W3C//DTD SVG 1.1//EN"
  "http://www.w3.org/Graphics/SVG/1.1/DTD/svg11.dtd">
<svg xmlns:xlink="http://www.w3.org/1999/xlink" width="388.542964pt" height="240.132758pt" viewBox="0 0 388.542964 240.132758" xmlns="http://www.w3.org/2000/svg" version="1.1">
 <metadata>
  <rdf:RDF xmlns:dc="http://purl.org/dc/elements/1.1/" xmlns:cc="http://creativecommons.org/ns#" xmlns:rdf="http://www.w3.org/1999/02/22-rdf-syntax-ns#">
   <cc:Work>
    <dc:type rdf:resource="http://purl.org/dc/dcmitype/StillImage"/>
    <dc:date>2024-12-16T16:05:47.488368</dc:date>
    <dc:format>image/svg+xml</dc:format>
    <dc:creator>
     <cc:Agent>
      <dc:title>Matplotlib v3.7.5, https://matplotlib.org/</dc:title>
     </cc:Agent>
    </dc:creator>
   </cc:Work>
  </rdf:RDF>
 </metadata>
 <defs>
  <style type="text/css">*{stroke-linejoin: round; stroke-linecap: butt}</style>
 </defs>
 <g id="figure_1">
  <g id="patch_1">
   <path d="M 0 240.132758 
L 388.542964 240.132758 
L 388.542964 0 
L 0 0 
z
" style="fill: #ffffff"/>
  </g>
  <g id="axes_1">
   <g id="patch_2">
    <path d="M 48.56787 213.718154 
L 349.688667 213.718154 
L 349.688667 28.815931 
L 48.56787 28.815931 
z
" style="fill: #ffffff"/>
   </g>
   <g id="matplotlib.axis_1">
    <g id="xtick_1">
     <g id="line2d_1">
      <defs>
       <path id="ma242a0e592" d="M 0 0 
L 0 3.5 
" style="stroke: #000000; stroke-width: 0.8"/>
      </defs>
      <g>
       <use xlink:href="#ma242a0e592" x="62.255179" y="213.718154" style="stroke: #000000; stroke-width: 0.8"/>
      </g>
     </g>
     <g id="text_1">
      <!-- $\mathdefault{0.0}$ -->
      <g transform="translate(53.529888 230.404031) scale(0.14 -0.14)">
       <defs>
        <path id="CMR17-30" d="M 2688 2025 
C 2688 2416 2682 3080 2413 3591 
C 2176 4039 1798 4198 1466 4198 
C 1158 4198 768 4058 525 3597 
C 269 3118 243 2524 243 2025 
C 243 1661 250 1106 448 619 
C 723 -39 1216 -128 1466 -128 
C 1760 -128 2208 -7 2470 600 
C 2662 1042 2688 1559 2688 2025 
z
M 1466 -26 
C 1056 -26 813 325 723 812 
C 653 1188 653 1738 653 2096 
C 653 2588 653 2997 736 3387 
C 858 3929 1216 4096 1466 4096 
C 1728 4096 2067 3923 2189 3400 
C 2272 3036 2278 2607 2278 2096 
C 2278 1680 2278 1169 2202 792 
C 2067 95 1690 -26 1466 -26 
z
" transform="scale(0.015625)"/>
        <path id="CMMI12-3a" d="M 1178 307 
C 1178 492 1024 619 870 619 
C 685 619 557 466 557 313 
C 557 128 710 0 864 0 
C 1050 0 1178 153 1178 307 
z
" transform="scale(0.015625)"/>
       </defs>
       <use xlink:href="#CMR17-30" transform="scale(0.996264)"/>
       <use xlink:href="#CMMI12-3a" transform="translate(45.690477 0) scale(0.996264)"/>
       <use xlink:href="#CMR17-30" transform="translate(72.787654 0) scale(0.996264)"/>
      </g>
     </g>
    </g>
    <g id="xtick_2">
     <g id="line2d_2">
      <g>
       <use xlink:href="#ma242a0e592" x="117.059219" y="213.718154" style="stroke: #000000; stroke-width: 0.8"/>
      </g>
     </g>
     <g id="text_2">
      <!-- $\mathdefault{0.2}$ -->
      <g transform="translate(108.333928 230.404031) scale(0.14 -0.14)">
       <defs>
        <path id="CMR17-32" d="M 2669 989 
L 2554 989 
C 2490 536 2438 459 2413 420 
C 2381 369 1920 369 1830 369 
L 602 369 
C 832 619 1280 1072 1824 1597 
C 2214 1967 2669 2402 2669 3035 
C 2669 3790 2067 4224 1395 4224 
C 691 4224 262 3604 262 3030 
C 262 2780 448 2748 525 2748 
C 589 2748 781 2787 781 3010 
C 781 3207 614 3264 525 3264 
C 486 3264 448 3258 422 3245 
C 544 3790 915 4058 1306 4058 
C 1862 4058 2227 3617 2227 3035 
C 2227 2479 1901 2000 1536 1584 
L 262 146 
L 262 0 
L 2515 0 
L 2669 989 
z
" transform="scale(0.015625)"/>
       </defs>
       <use xlink:href="#CMR17-30" transform="scale(0.996264)"/>
       <use xlink:href="#CMMI12-3a" transform="translate(45.690477 0) scale(0.996264)"/>
       <use xlink:href="#CMR17-32" transform="translate(72.787654 0) scale(0.996264)"/>
      </g>
     </g>
    </g>
    <g id="xtick_3">
     <g id="line2d_3">
      <g>
       <use xlink:href="#ma242a0e592" x="171.863259" y="213.718154" style="stroke: #000000; stroke-width: 0.8"/>
      </g>
     </g>
     <g id="text_3">
      <!-- $\mathdefault{0.4}$ -->
      <g transform="translate(163.137968 230.404031) scale(0.14 -0.14)">
       <defs>
        <path id="CMR17-34" d="M 2150 4122 
C 2150 4256 2144 4256 2029 4256 
L 128 1254 
L 128 1088 
L 1779 1088 
L 1779 457 
C 1779 224 1766 160 1318 160 
L 1197 160 
L 1197 0 
C 1402 0 1747 0 1965 0 
C 2182 0 2528 0 2733 0 
L 2733 160 
L 2611 160 
C 2163 160 2150 224 2150 457 
L 2150 1088 
L 2803 1088 
L 2803 1254 
L 2150 1254 
L 2150 4122 
z
M 1798 3703 
L 1798 1254 
L 256 1254 
L 1798 3703 
z
" transform="scale(0.015625)"/>
       </defs>
       <use xlink:href="#CMR17-30" transform="scale(0.996264)"/>
       <use xlink:href="#CMMI12-3a" transform="translate(45.690477 0) scale(0.996264)"/>
       <use xlink:href="#CMR17-34" transform="translate(72.787654 0) scale(0.996264)"/>
      </g>
     </g>
    </g>
    <g id="xtick_4">
     <g id="line2d_4">
      <g>
       <use xlink:href="#ma242a0e592" x="226.667299" y="213.718154" style="stroke: #000000; stroke-width: 0.8"/>
      </g>
     </g>
     <g id="text_4">
      <!-- $\mathdefault{0.6}$ -->
      <g transform="translate(217.942008 230.404031) scale(0.14 -0.14)">
       <defs>
        <path id="CMR17-36" d="M 678 2176 
C 678 3690 1395 4032 1811 4032 
C 1946 4032 2272 4009 2400 3776 
C 2298 3776 2106 3776 2106 3553 
C 2106 3381 2246 3323 2336 3323 
C 2394 3323 2566 3348 2566 3560 
C 2566 3954 2246 4179 1805 4179 
C 1043 4179 243 3390 243 1984 
C 243 253 966 -128 1478 -128 
C 2099 -128 2688 427 2688 1283 
C 2688 2081 2170 2662 1517 2662 
C 1126 2662 838 2407 678 1960 
L 678 2176 
z
M 1478 25 
C 691 25 691 1200 691 1436 
C 691 1896 909 2560 1504 2560 
C 1613 2560 1926 2560 2138 2120 
C 2253 1870 2253 1609 2253 1289 
C 2253 944 2253 690 2118 434 
C 1978 171 1773 25 1478 25 
z
" transform="scale(0.015625)"/>
       </defs>
       <use xlink:href="#CMR17-30" transform="scale(0.996264)"/>
       <use xlink:href="#CMMI12-3a" transform="translate(45.690477 0) scale(0.996264)"/>
       <use xlink:href="#CMR17-36" transform="translate(72.787654 0) scale(0.996264)"/>
      </g>
     </g>
    </g>
    <g id="xtick_5">
     <g id="line2d_5">
      <g>
       <use xlink:href="#ma242a0e592" x="281.471339" y="213.718154" style="stroke: #000000; stroke-width: 0.8"/>
      </g>
     </g>
     <g id="text_5">
      <!-- $\mathdefault{0.8}$ -->
      <g transform="translate(272.746048 230.404031) scale(0.14 -0.14)">
       <defs>
        <path id="CMR17-38" d="M 1741 2264 
C 2144 2467 2554 2773 2554 3263 
C 2554 3841 1990 4179 1472 4179 
C 890 4179 378 3759 378 3180 
C 378 3021 416 2747 666 2505 
C 730 2442 998 2251 1171 2130 
C 883 1983 211 1634 211 934 
C 211 279 838 -128 1459 -128 
C 2144 -128 2720 362 2720 1010 
C 2720 1590 2330 1857 2074 2029 
L 1741 2264 
z
M 902 2822 
C 851 2854 595 3051 595 3351 
C 595 3739 998 4032 1459 4032 
C 1965 4032 2336 3676 2336 3262 
C 2336 2669 1670 2331 1638 2331 
C 1632 2331 1626 2331 1574 2370 
L 902 2822 
z
M 2080 1519 
C 2176 1449 2483 1240 2483 851 
C 2483 381 2010 25 1472 25 
C 890 25 448 438 448 940 
C 448 1443 838 1862 1280 2060 
L 2080 1519 
z
" transform="scale(0.015625)"/>
       </defs>
       <use xlink:href="#CMR17-30" transform="scale(0.996264)"/>
       <use xlink:href="#CMMI12-3a" transform="translate(45.690477 0) scale(0.996264)"/>
       <use xlink:href="#CMR17-38" transform="translate(72.787654 0) scale(0.996264)"/>
      </g>
     </g>
    </g>
    <g id="xtick_6">
     <g id="line2d_6">
      <g>
       <use xlink:href="#ma242a0e592" x="336.275379" y="213.718154" style="stroke: #000000; stroke-width: 0.8"/>
      </g>
     </g>
     <g id="text_6">
      <!-- $\mathdefault{1.0}$ -->
      <g transform="translate(327.550088 230.404031) scale(0.14 -0.14)">
       <defs>
        <path id="CMR17-31" d="M 1702 4058 
C 1702 4192 1696 4192 1606 4192 
C 1357 3916 979 3827 621 3827 
C 602 3827 570 3827 563 3808 
C 557 3795 557 3782 557 3648 
C 755 3648 1088 3686 1344 3839 
L 1344 461 
C 1344 236 1331 160 781 160 
L 589 160 
L 589 0 
C 896 0 1216 0 1523 0 
C 1830 0 2150 0 2458 0 
L 2458 160 
L 2266 160 
C 1715 160 1702 230 1702 458 
L 1702 4058 
z
" transform="scale(0.015625)"/>
       </defs>
       <use xlink:href="#CMR17-31" transform="scale(0.996264)"/>
       <use xlink:href="#CMMI12-3a" transform="translate(45.690477 0) scale(0.996264)"/>
       <use xlink:href="#CMR17-30" transform="translate(72.787654 0) scale(0.996264)"/>
      </g>
     </g>
    </g>
    <g id="text_7">
     <!-- t -->
     <g transform="translate(196.472746 246.801936) scale(0.14 -0.14)">
      <defs>
       <path id="CMR17-74" d="M 966 2560 
L 1862 2560 
L 1862 2725 
L 966 2725 
L 966 3904 
L 851 3904 
C 838 3245 614 2668 70 2668 
L 70 2560 
L 627 2560 
L 627 771 
C 627 650 627 -64 1370 -64 
C 1747 -64 1965 306 1965 777 
L 1965 1140 
L 1850 1140 
L 1850 783 
C 1850 344 1677 51 1408 51 
C 1222 51 966 178 966 758 
L 966 2560 
z
" transform="scale(0.015625)"/>
      </defs>
      <use xlink:href="#CMR17-74" transform="scale(0.996264)"/>
     </g>
    </g>
   </g>
   <g id="matplotlib.axis_2">
    <g id="ytick_1">
     <g id="line2d_7">
      <defs>
       <path id="m8cff277943" d="M 0 0 
L -3.5 0 
" style="stroke: #000000; stroke-width: 0.8"/>
      </defs>
      <g>
       <use xlink:href="#m8cff277943" x="48.56787" y="205.465863" style="stroke: #000000; stroke-width: 0.8"/>
      </g>
     </g>
     <g id="text_8">
      <!-- $\mathdefault{0.0}$ -->
      <g transform="translate(24.117288 210.308801) scale(0.14 -0.14)">
       <use xlink:href="#CMR17-30" transform="scale(0.996264)"/>
       <use xlink:href="#CMMI12-3a" transform="translate(45.690477 0) scale(0.996264)"/>
       <use xlink:href="#CMR17-30" transform="translate(72.787654 0) scale(0.996264)"/>
      </g>
     </g>
    </g>
    <g id="ytick_2">
     <g id="line2d_8">
      <g>
       <use xlink:href="#m8cff277943" x="48.56787" y="173.957489" style="stroke: #000000; stroke-width: 0.8"/>
      </g>
     </g>
     <g id="text_9">
      <!-- $\mathdefault{0.2}$ -->
      <g transform="translate(24.117288 178.800427) scale(0.14 -0.14)">
       <use xlink:href="#CMR17-30" transform="scale(0.996264)"/>
       <use xlink:href="#CMMI12-3a" transform="translate(45.690477 0) scale(0.996264)"/>
       <use xlink:href="#CMR17-32" transform="translate(72.787654 0) scale(0.996264)"/>
      </g>
     </g>
    </g>
    <g id="ytick_3">
     <g id="line2d_9">
      <g>
       <use xlink:href="#m8cff277943" x="48.56787" y="142.449114" style="stroke: #000000; stroke-width: 0.8"/>
      </g>
     </g>
     <g id="text_10">
      <!-- $\mathdefault{0.4}$ -->
      <g transform="translate(24.117288 147.292052) scale(0.14 -0.14)">
       <use xlink:href="#CMR17-30" transform="scale(0.996264)"/>
       <use xlink:href="#CMMI12-3a" transform="translate(45.690477 0) scale(0.996264)"/>
       <use xlink:href="#CMR17-34" transform="translate(72.787654 0) scale(0.996264)"/>
      </g>
     </g>
    </g>
    <g id="ytick_4">
     <g id="line2d_10">
      <g>
       <use xlink:href="#m8cff277943" x="48.56787" y="110.94074" style="stroke: #000000; stroke-width: 0.8"/>
      </g>
     </g>
     <g id="text_11">
      <!-- $\mathdefault{0.6}$ -->
      <g transform="translate(24.117288 115.783678) scale(0.14 -0.14)">
       <use xlink:href="#CMR17-30" transform="scale(0.996264)"/>
       <use xlink:href="#CMMI12-3a" transform="translate(45.690477 0) scale(0.996264)"/>
       <use xlink:href="#CMR17-36" transform="translate(72.787654 0) scale(0.996264)"/>
      </g>
     </g>
    </g>
    <g id="ytick_5">
     <g id="line2d_11">
      <g>
       <use xlink:href="#m8cff277943" x="48.56787" y="79.432365" style="stroke: #000000; stroke-width: 0.8"/>
      </g>
     </g>
     <g id="text_12">
      <!-- $\mathdefault{0.8}$ -->
      <g transform="translate(24.117288 84.275303) scale(0.14 -0.14)">
       <use xlink:href="#CMR17-30" transform="scale(0.996264)"/>
       <use xlink:href="#CMMI12-3a" transform="translate(45.690477 0) scale(0.996264)"/>
       <use xlink:href="#CMR17-38" transform="translate(72.787654 0) scale(0.996264)"/>
      </g>
     </g>
    </g>
    <g id="ytick_6">
     <g id="line2d_12">
      <g>
       <use xlink:href="#m8cff277943" x="48.56787" y="47.923991" style="stroke: #000000; stroke-width: 0.8"/>
      </g>
     </g>
     <g id="text_13">
      <!-- $\mathdefault{1.0}$ -->
      <g transform="translate(24.117288 52.766929) scale(0.14 -0.14)">
       <use xlink:href="#CMR17-31" transform="scale(0.996264)"/>
       <use xlink:href="#CMMI12-3a" transform="translate(45.690477 0) scale(0.996264)"/>
       <use xlink:href="#CMR17-30" transform="translate(72.787654 0) scale(0.996264)"/>
      </g>
     </g>
    </g>
   </g>
   <g id="line2d_13">
    <path d="M 62.255179 190.649465 
L 64.995381 190.629805 
L 66.913523 190.409189 
L 68.283624 190.058943 
L 69.653725 189.455503 
L 70.749806 188.712155 
L 71.845886 187.651733 
L 72.667947 186.587633 
L 73.490008 185.234407 
L 74.312068 183.529473 
L 75.134129 181.404333 
L 76.23021 177.802272 
L 77.32629 173.215273 
L 78.422371 167.62558 
L 79.792472 159.459947 
L 83.354735 137.488683 
L 84.998856 129.014656 
L 86.642977 121.869458 
L 88.287098 115.706267 
L 90.75328 107.398291 
L 97.329765 86.265763 
L 100.618007 76.356435 
L 103.358209 68.785216 
L 105.550371 63.309493 
L 107.742533 58.417523 
L 109.660674 54.636379 
L 111.578815 51.318492 
L 113.496957 48.446453 
L 115.415098 45.993548 
L 117.33324 43.927735 
L 119.251381 42.214507 
L 121.169522 40.818762 
L 123.087664 39.705739 
L 125.005805 38.841875 
L 127.197967 38.118922 
L 129.390128 37.635532 
L 131.85631 37.32802 
L 134.596512 37.220577 
L 137.884754 37.337054 
L 141.721037 37.708005 
L 146.927421 38.451655 
L 157.888229 40.316592 
L 168.575017 42.026721 
L 177.617683 43.245347 
L 186.93437 44.275906 
L 197.347138 45.19904 
L 209.952067 46.080464 
L 228.58544 47.131699 
L 255.43942 48.670908 
L 270.236511 49.754747 
L 283.38948 50.941474 
L 295.720389 52.274117 
L 308.051298 53.831307 
L 320.382207 55.612173 
L 333.261157 57.699621 
L 336.001359 58.171968 
L 336.001359 58.171968 
" clip-path="url(#p649b1c85e9)" style="fill: none; stroke: #fcab8f; stroke-width: 3; stroke-linecap: square"/>
   </g>
   <g id="line2d_14">
    <path d="M 62.255179 47.918187 
L 69.105684 112.310854 
L 72.393927 141.267602 
L 74.860109 161.079526 
L 76.50423 172.741529 
L 77.874331 180.971619 
L 78.970412 186.243861 
L 79.792472 189.355589 
L 80.614533 191.800202 
L 81.436593 193.693313 
L 82.532674 195.577872 
L 83.628755 196.954733 
L 84.724836 197.99274 
L 86.094937 198.973901 
L 87.739058 199.848144 
L 89.657199 200.602209 
L 92.123381 201.310349 
L 95.137603 201.932577 
L 98.973886 202.495112 
L 104.18027 203.022725 
L 111.304795 203.50366 
L 121.169522 203.93117 
L 135.418573 204.310303 
L 156.792148 204.639598 
L 190.770653 204.919817 
L 248.314895 205.147357 
L 336.001359 205.298786 
L 336.001359 205.298786 
" clip-path="url(#p649b1c85e9)" style="fill: none; stroke-dasharray: 11.1,4.8; stroke-dashoffset: 0; stroke: #fbb6bc; stroke-width: 3"/>
   </g>
   <g id="line2d_15">
    <path d="M 62.255179 190.649465 
L 65.269402 190.835749 
L 67.187543 190.761947 
L 68.831664 190.463767 
L 69.927745 190.075257 
L 71.023826 189.465647 
L 72.119907 188.551845 
L 72.941967 187.602767 
L 73.764028 186.364916 
L 74.586088 184.769163 
L 75.408149 182.737729 
L 76.23021 180.201593 
L 77.32629 175.982498 
L 78.422371 170.832155 
L 79.792472 163.270078 
L 84.450816 136.220162 
L 86.094937 128.343358 
L 87.739058 121.638853 
L 89.657199 114.908069 
L 92.123381 107.187828 
L 94.863583 99.313878 
L 97.603785 92.078774 
L 100.069967 86.147812 
L 102.262129 81.399841 
L 104.45429 77.198832 
L 106.372432 73.992773 
L 108.290573 71.222422 
L 110.208714 68.868235 
L 112.126856 66.900241 
L 114.044997 65.283516 
L 115.963139 63.981833 
L 117.88128 62.959904 
L 119.799421 62.184337 
L 121.991583 61.559812 
L 124.183744 61.173939 
L 126.649926 60.977383 
L 129.390128 60.997638 
L 132.40435 61.244958 
L 135.966613 61.759758 
L 140.624956 62.674085 
L 147.201441 64.217951 
L 185.016229 73.473672 
L 201.731461 77.150153 
L 224.475137 81.90712 
L 259.275703 88.937527 
L 295.446369 96.032041 
L 323.396429 101.295348 
L 336.001359 103.583004 
L 336.001359 103.583004 
" clip-path="url(#p649b1c85e9)" style="fill: none; stroke: #fc9272; stroke-width: 3; stroke-linecap: square"/>
   </g>
   <g id="line2d_16">
    <path d="M 62.255179 47.918187 
L 68.831664 111.927686 
L 72.119907 141.79769 
L 74.312068 159.868027 
L 75.956189 171.817805 
L 77.32629 180.223601 
L 78.422371 185.633759 
L 79.518452 189.780056 
L 80.340513 192.136623 
L 81.162573 193.97159 
L 82.258654 195.811161 
L 83.354735 197.164018 
L 84.450816 198.188241 
L 85.820917 199.158705 
L 87.465038 200.024141 
L 89.383179 200.770081 
L 91.849361 201.469136 
L 94.863583 202.081363 
L 98.973886 202.665092 
L 104.18027 203.168741 
L 111.304795 203.626867 
L 121.443542 204.041586 
L 136.240633 204.406711 
L 158.71029 204.720681 
L 195.154976 204.985267 
L 258.453642 205.196511 
L 336.001359 205.312785 
L 336.001359 205.312785 
" clip-path="url(#p649b1c85e9)" style="fill: none; stroke-dasharray: 11.1,4.8; stroke-dashoffset: 0; stroke: #fa9eb5; stroke-width: 3"/>
   </g>
   <g id="line2d_17">
    <path d="M 62.255179 190.649465 
L 65.269402 191.023436 
L 67.187543 191.053129 
L 68.557644 190.892912 
L 69.927745 190.504349 
L 71.023826 189.957594 
L 72.119907 189.117279 
L 72.941967 188.23579 
L 73.764028 187.082865 
L 74.586088 185.596351 
L 75.408149 183.710648 
L 76.50423 180.492042 
L 77.600311 176.424277 
L 78.696391 171.52667 
L 80.340513 162.952937 
L 84.176795 142.242331 
L 86.094937 133.427757 
L 87.739058 126.881666 
L 89.383179 121.161538 
L 91.575341 114.418782 
L 94.041523 107.632653 
L 96.233684 102.208059 
L 98.425846 97.336118 
L 100.618007 93.015787 
L 102.536149 89.697957 
L 104.45429 86.819786 
L 106.372432 84.377736 
L 108.016553 82.618242 
L 109.660674 81.147169 
L 111.304795 79.941342 
L 112.948916 78.975698 
L 114.867058 78.118952 
L 116.785199 77.51625 
L 118.70334 77.13188 
L 120.895502 76.918346 
L 123.361684 76.914515 
L 126.101886 77.14157 
L 129.390128 77.653018 
L 133.500431 78.541287 
L 138.980835 79.973672 
L 149.667623 83.052963 
L 164.738734 87.329347 
L 177.617683 90.737418 
L 191.866734 94.268678 
L 208.581966 98.173604 
L 229.133481 102.736194 
L 254.89138 108.216762 
L 286.677723 114.746088 
L 321.752308 121.724567 
L 336.001359 124.492627 
L 336.001359 124.492627 
" clip-path="url(#p649b1c85e9)" style="fill: none; stroke: #fb7858; stroke-width: 3; stroke-linecap: square"/>
   </g>
   <g id="line2d_18">
    <path d="M 62.255179 47.918187 
L 68.831664 112.460178 
L 71.845886 140.108402 
L 74.038048 158.411448 
L 75.682169 170.506204 
L 77.05227 179.029387 
L 78.148351 184.556498 
L 79.244432 188.848702 
L 80.066492 191.322691 
L 80.888553 193.269404 
L 81.984634 195.237652 
L 83.080715 196.693005 
L 84.176795 197.79695 
L 85.546896 198.842656 
L 87.191018 199.773301 
L 89.109159 200.572773 
L 91.301321 201.247388 
L 94.315543 201.918181 
L 98.151826 202.515433 
L 103.084189 203.042694 
L 109.934694 203.529635 
L 119.251381 203.953434 
L 132.678371 204.328043 
L 152.955865 204.654197 
L 185.290249 204.930346 
L 240.368309 205.153573 
L 336.001359 205.313508 
L 336.001359 205.313508 
" clip-path="url(#p649b1c85e9)" style="fill: none; stroke-dasharray: 11.1,4.8; stroke-dashoffset: 0; stroke: #f87ca8; stroke-width: 3"/>
   </g>
   <g id="line2d_19">
    <path d="M 62.255179 190.649465 
L 64.995381 191.01873 
L 66.639503 191.041727 
L 68.009604 190.877526 
L 69.379705 190.484437 
L 70.475785 189.952409 
L 71.571866 189.169106 
L 72.667947 188.066583 
L 73.764028 186.560502 
L 74.860109 184.547721 
L 75.956189 181.921058 
L 77.05227 178.603829 
L 78.148351 174.574604 
L 79.518452 168.630407 
L 81.710614 157.826878 
L 84.724836 143.049477 
L 86.642977 134.712378 
L 88.561119 127.35852 
L 90.75328 119.924019 
L 93.219462 112.431171 
L 95.959664 104.869005 
L 98.425846 98.703035 
L 100.892028 93.162218 
L 103.084189 88.771339 
L 105.276351 84.891898 
L 107.194492 81.92237 
L 109.112634 79.347861 
L 111.030775 77.156717 
L 112.948916 75.327331 
L 114.867058 73.830801 
L 116.785199 72.634778 
L 118.70334 71.706732 
L 120.621482 71.015987 
L 122.813643 70.481298 
L 125.005805 70.182332 
L 127.471987 70.085782 
L 130.212189 70.22563 
L 133.226411 70.619015 
L 136.788674 71.326916 
L 141.172997 72.445029 
L 147.201441 74.235483 
L 160.902451 78.621526 
L 175.151502 83.061864 
L 189.126532 87.174793 
L 206.115784 91.931366 
L 230.777602 98.580774 
L 284.211541 112.701864 
L 314.627783 120.556911 
L 335.453318 125.712859 
L 336.001359 125.845064 
L 336.001359 125.845064 
" clip-path="url(#p649b1c85e9)" style="fill: none; stroke: #f85d42; stroke-width: 3; stroke-linecap: square"/>
   </g>
   <g id="line2d_20">
    <path d="M 62.255179 47.918187 
L 69.105684 112.815852 
L 72.393927 141.915227 
L 74.586088 159.502559 
L 76.23021 171.065441 
L 77.600311 179.13953 
L 78.696391 184.335973 
L 79.792472 188.374115 
L 80.888553 191.396908 
L 81.984634 193.634715 
L 83.080715 195.308023 
L 84.176795 196.585318 
L 85.546896 197.799476 
L 86.916997 198.723218 
L 88.561119 199.574292 
L 90.47926 200.329129 
L 92.945442 201.05435 
L 95.959664 201.703235 
L 99.795947 202.297739 
L 105.002331 202.860572 
L 111.852836 203.360306 
L 121.169522 203.805132 
L 134.596512 204.205927 
L 154.325966 204.55336 
L 185.016229 204.849971 
L 235.709966 205.093161 
L 326.958692 205.280302 
L 336.001359 205.291307 
L 336.001359 205.291307 
" clip-path="url(#p649b1c85e9)" style="fill: none; stroke-dasharray: 11.1,4.8; stroke-dashoffset: 0; stroke: #f05a9e; stroke-width: 3"/>
   </g>
   <g id="line2d_21">
    <path d="M 62.255179 190.649465 
L 64.721361 190.685776 
L 66.639503 190.479068 
L 68.283624 190.048028 
L 69.653725 189.443642 
L 71.023826 188.553423 
L 72.119907 187.587091 
L 73.215987 186.339503 
L 74.312068 184.739889 
L 75.408149 182.706649 
L 76.50423 180.168283 
L 77.600311 177.084143 
L 78.970412 172.46228 
L 80.614533 165.943194 
L 86.916997 139.631754 
L 89.109159 131.98979 
L 91.301321 125.215844 
L 93.493482 119.227527 
L 96.507704 111.762343 
L 100.892028 101.524479 
L 104.45429 93.758667 
L 107.468512 87.694899 
L 110.482735 82.144843 
L 113.222937 77.581963 
L 115.689118 73.897021 
L 118.1553 70.629485 
L 120.347462 68.07863 
L 122.539623 65.852639 
L 124.731785 63.935342 
L 126.923946 62.305518 
L 129.116108 60.940348 
L 131.30827 59.817878 
L 133.774451 58.820805 
L 136.240633 58.081728 
L 138.706815 57.579379 
L 141.172997 57.294311 
L 143.913199 57.209583 
L 146.653401 57.344182 
L 149.667623 57.714617 
L 152.955865 58.345509 
L 156.792148 59.325839 
L 161.176471 60.694465 
L 166.382855 62.563533 
L 173.23336 65.272633 
L 184.468188 69.990245 
L 211.322168 81.307648 
L 228.31142 88.189107 
L 245.300673 94.829885 
L 261.467864 100.916621 
L 276.812995 106.45847 
L 291.062046 111.370489 
L 304.489036 115.769416 
L 317.642005 119.845855 
L 330.520955 123.604124 
L 336.001359 125.132158 
L 336.001359 125.132158 
" clip-path="url(#p649b1c85e9)" style="fill: none; stroke: #f0402f; stroke-width: 3; stroke-linecap: square"/>
   </g>
   <g id="line2d_22">
    <path d="M 62.255179 47.918187 
L 69.653725 112.085085 
L 73.215987 141.189311 
L 75.682169 159.573113 
L 77.32629 170.33178 
L 78.696391 177.891275 
L 79.792472 182.805115 
L 80.888553 186.68945 
L 81.984634 189.669641 
L 83.080715 191.938023 
L 84.176795 193.679668 
L 85.272876 195.040092 
L 86.642977 196.360943 
L 88.013078 197.385244 
L 89.657199 198.344559 
L 91.575341 199.208378 
L 94.041523 200.050181 
L 97.055745 200.813563 
L 100.618007 201.478304 
L 105.276351 202.108669 
L 111.304795 202.684146 
L 119.251381 203.205313 
L 129.938169 203.672283 
L 145.00928 204.093354 
L 166.930896 204.464263 
L 199.813319 204.779977 
L 252.425198 205.042331 
L 336.001359 205.23682 
L 336.001359 205.23682 
" clip-path="url(#p649b1c85e9)" style="fill: none; stroke-dasharray: 11.1,4.8; stroke-dashoffset: 0; stroke: #e03a98; stroke-width: 3"/>
   </g>
   <g id="line2d_23">
    <path d="M 62.255179 190.649465 
L 64.721361 190.390641 
L 66.639503 189.993379 
L 68.283624 189.447336 
L 69.653725 188.795761 
L 71.023826 187.92166 
L 72.393927 186.783051 
L 73.764028 185.326978 
L 75.134129 183.476169 
L 76.23021 181.648019 
L 77.600311 178.864614 
L 78.970412 175.50858 
L 80.614533 170.799296 
L 82.806694 163.739796 
L 86.094937 153.190115 
L 87.739058 148.663411 
L 89.109159 145.43159 
L 90.47926 142.684789 
L 91.849361 140.370028 
L 93.493482 138.062558 
L 95.137603 136.157647 
L 97.055745 134.320956 
L 98.973886 132.796321 
L 101.440068 131.150223 
L 105.550371 128.756453 
L 110.208714 125.985983 
L 113.496957 123.764556 
L 116.237159 121.654196 
L 118.977361 119.265463 
L 121.717563 116.587831 
L 124.731785 113.33052 
L 128.294047 109.13122 
L 132.952391 103.249811 
L 146.10536 86.393996 
L 149.941643 81.949029 
L 153.229886 78.458381 
L 156.244108 75.561899 
L 159.25833 72.985305 
L 161.998532 70.937813 
L 164.738734 69.180892 
L 167.204916 67.851283 
L 169.671098 66.759228 
L 172.137279 65.900689 
L 174.603461 65.268933 
L 177.069643 64.854993 
L 179.535825 64.648164 
L 182.276027 64.64668 
L 185.016229 64.868571 
L 188.030451 65.349126 
L 191.044673 66.054134 
L 194.332916 67.051649 
L 197.895178 68.36845 
L 201.731461 70.022285 
L 206.115784 72.161181 
L 211.048148 74.818362 
L 217.076592 78.3255 
L 226.119259 83.878044 
L 240.094289 92.451763 
L 247.492834 96.716269 
L 254.069319 100.256826 
L 260.371784 103.402881 
L 266.674248 106.30217 
L 272.976713 108.963088 
L 279.553197 111.504056 
L 286.677723 114.013434 
L 294.350288 116.470293 
L 302.570894 118.86452 
L 311.613561 121.26454 
L 321.752308 123.721859 
L 333.261157 126.275503 
L 336.001359 126.852673 
L 336.001359 126.852673 
" clip-path="url(#p649b1c85e9)" style="fill: none; stroke: #dc2924; stroke-width: 3; stroke-linecap: square"/>
   </g>
   <g id="line2d_24">
    <path d="M 62.255179 47.918187 
L 70.201765 107.987922 
L 74.586088 139.607931 
L 77.32629 157.874923 
L 79.244432 169.17093 
L 80.614533 176.003593 
L 81.710614 180.541531 
L 82.806694 184.233021 
L 83.902775 187.164418 
L 84.998856 189.474726 
L 86.094937 191.305176 
L 87.465038 193.095267 
L 88.835139 194.487137 
L 90.47926 195.790506 
L 92.123381 196.812981 
L 94.041523 197.758261 
L 96.507704 198.703097 
L 99.247906 199.510909 
L 102.810169 200.310185 
L 107.194492 201.042414 
L 112.674896 201.71351 
L 119.525401 202.318999 
L 128.568068 202.88276 
L 140.624956 203.396426 
L 157.066168 203.858434 
L 180.083865 204.267173 
L 213.514329 204.622331 
L 264.482087 204.922757 
L 336.001359 205.141453 
L 336.001359 205.141453 
" clip-path="url(#p649b1c85e9)" style="fill: none; stroke-dasharray: 11.1,4.8; stroke-dashoffset: 0; stroke: #c4198a; stroke-width: 3"/>
   </g>
   <g id="line2d_25">
    <path d="M 62.255179 190.649465 
L 64.721361 190.459137 
L 66.913523 190.084117 
L 68.831664 189.543195 
L 70.475785 188.87624 
L 72.119907 187.982529 
L 73.764028 186.827426 
L 75.408149 185.372687 
L 77.05227 183.565566 
L 78.422371 181.742489 
L 79.792472 179.59146 
L 81.436593 176.549881 
L 83.354735 172.435154 
L 89.109159 159.566422 
L 90.75328 156.620168 
L 92.123381 154.58209 
L 93.493482 152.951416 
L 94.589563 151.945013 
L 95.685644 151.197918 
L 96.781725 150.697057 
L 97.877805 150.423576 
L 98.973886 150.354816 
L 100.343987 150.519314 
L 101.714088 150.917009 
L 103.358209 151.637418 
L 105.276351 152.722313 
L 108.290573 154.731775 
L 114.044997 158.626944 
L 116.785199 160.165735 
L 118.977361 161.160958 
L 121.169522 161.920426 
L 123.361684 162.431864 
L 125.553845 162.691218 
L 127.746007 162.701608 
L 129.938169 162.473078 
L 132.13033 162.022183 
L 134.596512 161.276472 
L 137.336714 160.194103 
L 140.350936 158.753384 
L 143.913199 156.793474 
L 148.297522 154.10663 
L 153.503906 150.634922 
L 158.98431 146.711807 
L 164.464714 142.515582 
L 169.671098 138.258358 
L 175.151502 133.489442 
L 181.453966 127.69947 
L 197.895178 112.410851 
L 202.827542 108.227448 
L 207.211865 104.802241 
L 211.048148 102.072417 
L 214.61041 99.78739 
L 218.172673 97.76296 
L 221.460915 96.138657 
L 224.749158 94.756876 
L 228.0374 93.620537 
L 231.325642 92.727573 
L 234.613885 92.071252 
L 237.902127 91.640532 
L 241.46439 91.411598 
L 245.026652 91.408424 
L 248.862935 91.629574 
L 252.973238 92.089526 
L 257.631582 92.841026 
L 263.111986 93.966576 
L 269.962491 95.62319 
L 280.649278 98.475725 
L 297.912551 103.065913 
L 308.873359 105.735629 
L 320.108187 108.239712 
L 332.439096 110.751748 
L 336.001359 111.438596 
L 336.001359 111.438596 
" clip-path="url(#p649b1c85e9)" style="fill: none; stroke: #c5171c; stroke-width: 3; stroke-linecap: square"/>
   </g>
   <g id="line2d_26">
    <path d="M 62.255179 47.918187 
L 71.023826 103.56922 
L 76.50423 137.118394 
L 79.792472 155.983248 
L 81.710614 165.895187 
L 83.354735 173.253284 
L 84.724836 178.343701 
L 85.820917 181.697953 
L 86.916997 184.464859 
L 88.013078 186.730848 
L 89.383179 189.001483 
L 90.75328 190.796861 
L 92.123381 192.240695 
L 93.767502 193.633495 
L 95.685644 194.921031 
L 97.877805 196.079678 
L 100.343987 197.105841 
L 103.084189 198.006919 
L 106.372432 198.858636 
L 110.482735 199.683673 
L 115.415098 200.439811 
L 121.717563 201.165587 
L 129.664148 201.838215 
L 139.802896 202.456441 
L 152.955865 203.020934 
L 170.493158 203.535315 
L 194.332916 203.995984 
L 227.48936 204.39978 
L 275.716915 204.748198 
L 336.001359 204.997338 
L 336.001359 204.997338 
" clip-path="url(#p649b1c85e9)" style="fill: none; stroke-dasharray: 11.1,4.8; stroke-dashoffset: 0; stroke: #a6017d; stroke-width: 3"/>
   </g>
   <g id="line2d_27">
    <path d="M 62.255179 190.649465 
L 65.269402 190.498585 
L 68.009604 190.145017 
L 70.475785 189.601408 
L 72.667947 188.891675 
L 74.586088 188.061161 
L 76.50423 187.006418 
L 78.422371 185.697582 
L 80.340513 184.096661 
L 81.984634 182.456491 
L 83.628755 180.53854 
L 85.546896 177.938233 
L 88.013078 174.135785 
L 92.945442 166.372642 
L 95.137603 163.415561 
L 97.055745 161.228817 
L 98.699866 159.690693 
L 100.343987 158.487875 
L 101.714088 157.752756 
L 103.084189 157.263197 
L 104.45429 157.01453 
L 105.824391 156.995571 
L 107.194492 157.189718 
L 108.838613 157.674925 
L 110.482735 158.397654 
L 112.400876 159.485925 
L 114.867058 161.175006 
L 118.1553 163.737857 
L 127.471987 171.169208 
L 130.760229 173.4443 
L 133.774451 175.278118 
L 136.788674 176.852897 
L 139.802896 178.163812 
L 142.817118 179.215093 
L 145.83134 180.018269 
L 148.845562 180.591296 
L 152.133805 180.981568 
L 155.696067 181.168467 
L 159.80637 181.141888 
L 164.738734 180.865428 
L 171.315219 180.249903 
L 181.179946 179.079683 
L 190.496633 177.773327 
L 197.347138 176.60222 
L 203.101562 175.399752 
L 208.307946 174.085787 
L 213.240309 172.609601 
L 218.172673 170.892091 
L 223.105036 168.931594 
L 228.0374 166.732774 
L 232.969764 164.295637 
L 237.902127 161.609412 
L 242.560471 158.826754 
L 247.218814 155.790025 
L 251.877157 152.494224 
L 256.809521 148.737692 
L 262.563945 144.070261 
L 272.976713 135.260448 
L 280.101238 129.383701 
L 285.307622 125.361327 
L 289.965965 122.030632 
L 294.350288 119.159814 
L 298.734611 116.56059 
L 302.844914 114.375287 
L 306.955217 112.431951 
L 311.06552 110.725136 
L 315.175823 109.24626 
L 319.560147 107.907589 
L 323.94447 106.799918 
L 328.602813 105.856397 
L 333.535177 105.094803 
L 336.001359 104.79717 
L 336.001359 104.79717 
" clip-path="url(#p649b1c85e9)" style="fill: none; stroke: #ad1117; stroke-width: 3; stroke-linecap: square"/>
   </g>
   <g id="line2d_28">
    <path d="M 62.255179 47.918187 
L 71.297846 95.170835 
L 78.696391 132.742369 
L 82.806694 152.58792 
L 85.272876 163.446638 
L 86.916997 169.842782 
L 88.561119 175.316458 
L 89.93122 179.106075 
L 91.301321 182.229814 
L 92.671422 184.778838 
L 94.041523 186.86055 
L 95.411624 188.573777 
L 97.055745 190.255917 
L 98.699866 191.628952 
L 100.618007 192.940272 
L 102.810169 194.156325 
L 105.276351 195.262676 
L 108.290573 196.346094 
L 111.578815 197.289064 
L 115.689118 198.223621 
L 120.621482 199.09892 
L 126.649926 199.923914 
L 134.048472 200.694017 
L 143.091138 201.400858 
L 154.599987 202.064927 
L 169.123057 202.670793 
L 188.030451 203.227666 
L 213.240309 203.735019 
L 247.492834 204.187233 
L 295.172349 204.579427 
L 336.001359 204.79687 
L 336.001359 204.79687 
" clip-path="url(#p649b1c85e9)" style="fill: none; stroke-dasharray: 11.1,4.8; stroke-dashoffset: 0; stroke: #860179; stroke-width: 3"/>
   </g>
   <g id="line2d_29">
    <path d="M 62.255179 190.649465 
L 66.365482 190.516763 
L 70.201765 190.174701 
L 73.490008 189.666931 
L 76.50423 188.983593 
L 79.244432 188.148605 
L 81.984634 187.079094 
L 84.450816 185.883096 
L 86.916997 184.422103 
L 89.109159 182.859839 
L 91.301321 181.030381 
L 94.315543 178.173698 
L 99.795947 172.923164 
L 102.536149 170.628183 
L 105.002331 168.839241 
L 107.194492 167.507836 
L 109.112634 166.569769 
L 111.030775 165.861917 
L 112.948916 165.393706 
L 114.867058 165.165139 
L 116.785199 165.167209 
L 118.70334 165.383476 
L 120.895502 165.864795 
L 123.361684 166.659723 
L 126.101886 167.791496 
L 129.664148 169.534205 
L 135.418573 172.655864 
L 142.543098 176.462179 
L 147.201441 178.693355 
L 151.585764 180.541007 
L 155.696067 182.036797 
L 159.80637 183.303192 
L 163.916673 184.344843 
L 168.300997 185.216941 
L 172.68532 185.855694 
L 177.343663 186.299955 
L 182.276027 186.538899 
L 187.756431 186.572492 
L 194.058895 186.379251 
L 202.005481 185.898754 
L 217.076592 184.702906 
L 229.955541 183.788695 
L 240.368309 183.272211 
L 251.055097 182.964787 
L 263.386006 182.838399 
L 280.649278 182.907858 
L 314.353763 183.079188 
L 329.150854 182.905276 
L 336.001359 182.737524 
L 336.001359 182.737524 
" clip-path="url(#p649b1c85e9)" style="fill: none; stroke: #8c0912; stroke-width: 3; stroke-linecap: square"/>
   </g>
   <g id="line2d_30">
    <path d="M 62.255179 47.918187 
L 71.023826 85.460795 
L 80.066492 123.201772 
L 85.820917 146.394962 
L 88.835139 157.773739 
L 91.0273 165.296452 
L 92.945442 171.081893 
L 94.589563 175.324693 
L 96.233684 178.887919 
L 97.603785 181.378082 
L 99.247906 183.873141 
L 100.892028 185.926939 
L 102.536149 187.63151 
L 104.45429 189.277784 
L 106.372432 190.640639 
L 108.564593 191.935061 
L 111.030775 193.138229 
L 114.044997 194.339889 
L 117.33324 195.404543 
L 121.169522 196.412613 
L 125.827866 197.395041 
L 131.30827 198.312691 
L 137.884754 199.17938 
L 145.83134 199.99452 
L 155.696067 200.770706 
L 167.752956 201.487416 
L 182.824067 202.153665 
L 202.005481 202.77096 
L 226.941319 203.339336 
L 259.549723 203.848881 
L 303.392955 204.299626 
L 336.001359 204.532107 
L 336.001359 204.532107 
" clip-path="url(#p649b1c85e9)" style="fill: none; stroke-dasharray: 11.1,4.8; stroke-dashoffset: 0; stroke: #660172; stroke-width: 3"/>
   </g>
   <g id="line2d_31">
    <path d="M 62.255179 190.649465 
L 76.77825 190.887284 
L 82.532674 190.804636 
L 86.642977 190.544147 
L 90.20524 190.105593 
L 93.493482 189.466889 
L 96.507704 188.650714 
L 99.521927 187.610481 
L 103.084189 186.135722 
L 117.60726 179.835742 
L 120.895502 178.795584 
L 123.909724 178.07507 
L 126.923946 177.592534 
L 129.938169 177.346088 
L 132.952391 177.321631 
L 136.240633 177.521798 
L 139.802896 177.965333 
L 143.913199 178.706074 
L 149.393603 179.944845 
L 168.026976 184.370067 
L 174.329441 185.536307 
L 180.631906 186.477342 
L 186.93437 187.192066 
L 192.962815 187.658731 
L 198.991259 187.90634 
L 205.019703 187.934519 
L 211.322168 187.742695 
L 218.172673 187.311316 
L 226.119259 186.585053 
L 236.532026 185.397581 
L 278.183096 180.415758 
L 289.965965 179.362381 
L 301.474813 178.558042 
L 313.531702 177.942672 
L 326.684672 177.499686 
L 336.001359 177.301242 
L 336.001359 177.301242 
" clip-path="url(#p649b1c85e9)" style="fill: none; stroke: #67000d; stroke-width: 3; stroke-linecap: square"/>
   </g>
   <g id="line2d_32">
    <path d="M 62.255179 47.918187 
L 70.749806 77.884854 
L 80.066492 109.908524 
L 88.287098 137.412951 
L 92.945442 152.282076 
L 95.959664 161.16563 
L 98.151826 166.980235 
L 100.069967 171.475524 
L 101.714088 174.839256 
L 103.358209 177.752675 
L 105.002331 180.249401 
L 106.646452 182.380503 
L 108.564593 184.478947 
L 110.482735 186.237608 
L 112.674896 187.91913 
L 114.867058 189.326854 
L 117.33324 190.657815 
L 120.073441 191.89545 
L 123.361684 193.127465 
L 127.197967 194.305776 
L 131.58229 195.403205 
L 136.514653 196.407844 
L 142.543098 197.39907 
L 149.667623 198.333357 
L 158.162249 199.214059 
L 168.300997 200.037377 
L 180.905926 200.827837 
L 196.251057 201.559158 
L 215.432471 202.242285 
L 239.546248 202.870292 
L 270.510531 203.444402 
L 310.7915 203.958013 
L 336.001359 204.194323 
L 336.001359 204.194323 
" clip-path="url(#p649b1c85e9)" style="fill: none; stroke-dasharray: 11.1,4.8; stroke-dashoffset: 0; stroke: #49006a; stroke-width: 3"/>
   </g>
   <g id="patch_3">
    <path d="M 48.56787 213.718154 
L 48.56787 28.815931 
" style="fill: none; stroke: #000000; stroke-width: 0.8; stroke-linejoin: miter; stroke-linecap: square"/>
   </g>
   <g id="patch_4">
    <path d="M 349.688667 213.718154 
L 349.688667 28.815931 
" style="fill: none; stroke: #000000; stroke-width: 0.8; stroke-linejoin: miter; stroke-linecap: square"/>
   </g>
   <g id="patch_5">
    <path d="M 48.56787 213.718154 
L 349.688667 213.718154 
" style="fill: none; stroke: #000000; stroke-width: 0.8; stroke-linejoin: miter; stroke-linecap: square"/>
   </g>
   <g id="patch_6">
    <path d="M 48.56787 28.815931 
L 349.688667 28.815931 
" style="fill: none; stroke: #000000; stroke-width: 0.8; stroke-linejoin: miter; stroke-linecap: square"/>
   </g>
   <g id="legend_1">
    <g id="line2d_33">
     <path d="M 362.288667 49.882417 
L 376.288667 49.882417 
L 389.542964 49.882417 
" style="fill: none; stroke: #fcab8f; stroke-width: 3; stroke-linecap: square"/>
    </g>
    <g id="text_14">
     <!-- $\sum \hat{\phi} \cdot dt$ (A = 0.0) -->
     <g transform="translate(401.488667 54.782417) scale(0.14 -0.14)">
      <defs>
       <path id="CMEX10-50" d="M 2694 -3418 
L 422 -6227 
C 371 -6291 365 -6304 365 -6330 
C 365 -6400 422 -6400 538 -6400 
L 5843 -6400 
L 6394 -4806 
L 6234 -4806 
C 6074 -5286 5645 -5677 5101 -5862 
C 4998 -5894 4557 -6048 3616 -6048 
L 896 -6048 
L 3117 -3302 
C 3162 -3245 3174 -3226 3174 -3200 
C 3174 -3174 3168 -3168 3130 -3110 
L 1050 -256 
L 3584 -256 
C 4314 -256 5786 -301 6234 -1498 
L 6394 -1498 
L 5843 0 
L 538 0 
C 365 0 358 -6 358 -205 
L 2694 -3418 
z
" transform="scale(0.015625)"/>
       <path id="CMR17-5e" d="M 1466 4421 
L 678 3555 
L 755 3478 
L 1466 4166 
L 2176 3478 
L 2253 3555 
L 1466 4421 
z
" transform="scale(0.015625)"/>
       <path id="CMMI12-1e" d="M 2752 4390 
C 2752 4448 2707 4448 2688 4448 
C 2630 4448 2624 4435 2598 4326 
L 2253 2939 
C 2234 2856 2227 2849 2221 2843 
C 2214 2830 2170 2824 2157 2824 
C 1107 2734 301 1864 301 1057 
C 301 361 832 -64 1498 -64 
C 1446 -261 1402 -463 1350 -659 
C 1261 -995 1210 -1204 1210 -1229 
C 1210 -1241 1210 -1280 1274 -1280 
C 1293 -1280 1318 -1280 1331 -1254 
C 1344 -1241 1382 -1089 1408 -1008 
L 1645 -64 
C 2739 -64 3571 854 3571 1680 
C 3571 2343 3085 2816 2374 2816 
L 2752 4390 
z
M 2336 2701 
C 2758 2701 3181 2463 3181 1828 
C 3181 1097 2675 128 1677 50 
L 2336 2701 
z
M 1530 50 
C 1216 50 691 220 691 938 
C 691 1761 1274 2676 2195 2676 
L 1530 50 
z
" transform="scale(0.015625)"/>
       <path id="CMSY10-1" d="M 1229 1619 
C 1229 1805 1075 1958 890 1958 
C 704 1958 550 1805 550 1619 
C 550 1433 704 1280 890 1280 
C 1075 1280 1229 1433 1229 1619 
z
" transform="scale(0.015625)"/>
       <path id="CMMI12-64" d="M 3219 4257 
C 3226 4282 3238 4320 3238 4352 
C 3238 4416 3174 4416 3162 4416 
C 3155 4416 2842 4388 2810 4380 
C 2701 4373 2605 4358 2490 4358 
C 2330 4345 2285 4339 2285 4224 
C 2285 4160 2336 4160 2426 4160 
C 2739 4160 2746 4103 2746 4040 
C 2746 4002 2733 3952 2726 3933 
L 2336 2395 
C 2266 2561 2093 2816 1760 2816 
C 1037 2816 256 1884 256 939 
C 256 307 627 -64 1062 -64 
C 1414 -64 1715 211 1894 422 
C 1958 45 2259 -64 2451 -64 
C 2643 -64 2797 51 2912 281 
C 3014 498 3104 888 3104 913 
C 3104 945 3078 971 3040 971 
C 2982 971 2976 939 2950 843 
C 2854 466 2733 64 2470 64 
C 2285 64 2272 229 2272 357 
C 2272 382 2272 515 2317 694 
L 3219 4257 
z
M 1926 760 
C 1894 651 1894 639 1805 517 
C 1664 338 1382 64 1082 64 
C 819 64 672 300 672 677 
C 672 1028 870 1743 992 2012 
C 1210 2459 1510 2689 1760 2689 
C 2182 2689 2266 2165 2266 2114 
C 2266 2108 2246 2024 2240 2012 
L 1926 760 
z
" transform="scale(0.015625)"/>
       <path id="CMMI12-74" d="M 1286 2566 
L 1875 2566 
C 1997 2566 2061 2566 2061 2681 
C 2061 2752 2022 2752 1894 2752 
L 1331 2752 
L 1568 3692 
C 1594 3781 1594 3794 1594 3840 
C 1594 3943 1510 4000 1427 4000 
C 1376 4000 1229 3981 1178 3775 
L 928 2752 
L 326 2752 
C 198 2752 141 2752 141 2630 
C 141 2566 186 2566 307 2566 
L 877 2566 
L 454 881 
C 403 658 384 594 384 511 
C 384 211 595 -64 954 -64 
C 1600 -64 1946 868 1946 912 
C 1946 951 1920 970 1882 970 
C 1869 970 1843 970 1830 944 
C 1824 938 1818 931 1773 829 
C 1638 511 1344 64 973 64 
C 781 64 768 224 768 364 
C 768 370 768 492 787 568 
L 1286 2566 
z
" transform="scale(0.015625)"/>
       <path id="CMR17-28" d="M 1958 -1561 
C 1958 -1555 1958 -1542 1939 -1523 
C 1645 -1224 858 -407 858 1581 
C 858 3569 1632 4379 1946 4697 
C 1946 4704 1958 4717 1958 4736 
C 1958 4755 1939 4768 1914 4768 
C 1843 4768 1299 4296 986 3594 
C 666 2887 576 2199 576 1588 
C 576 1128 621 351 1005 -471 
C 1312 -1135 1837 -1600 1914 -1600 
C 1946 -1600 1958 -1587 1958 -1561 
z
" transform="scale(0.015625)"/>
       <path id="CMR17-41" d="M 2323 4378 
C 2291 4461 2278 4480 2214 4480 
C 2150 4480 2138 4461 2106 4378 
L 749 566 
C 627 223 371 153 147 153 
L 147 -13 
C 262 0 518 0 640 0 
C 800 0 1056 0 1210 -13 
L 1210 153 
C 909 153 864 361 864 439 
C 864 497 877 530 890 569 
L 1229 1536 
L 2906 1536 
L 3290 442 
C 3322 365 3322 352 3322 327 
C 3322 153 3046 153 2925 153 
L 2925 0 
C 3110 0 3443 0 3642 0 
C 3808 0 4128 0 4282 -13 
L 4282 153 
C 3942 153 3827 153 3744 387 
L 2323 4378 
z
M 2067 3893 
L 2848 1702 
L 1286 1702 
L 2067 3893 
z
" transform="scale(0.015625)"/>
       <path id="CMR17-3d" d="M 4115 2017 
C 4211 2017 4307 2017 4307 2125 
C 4307 2240 4198 2240 4090 2240 
L 512 2240 
C 403 2240 294 2240 294 2125 
C 294 2017 390 2017 486 2017 
L 4115 2017 
z
M 4090 896 
C 4198 896 4307 896 4307 1011 
C 4307 1119 4211 1119 4115 1119 
L 486 1119 
C 390 1119 294 1119 294 1011 
C 294 896 403 896 512 896 
L 4090 896 
z
" transform="scale(0.015625)"/>
       <path id="CMR17-2e" d="M 1062 261 
C 1062 420 934 522 800 522 
C 672 522 538 420 538 261 
C 538 102 666 0 800 0 
C 928 0 1062 102 1062 261 
z
" transform="scale(0.015625)"/>
       <path id="CMR17-29" d="M 1683 1581 
C 1683 2040 1638 2817 1254 3639 
C 947 4303 422 4768 346 4768 
C 326 4768 301 4761 301 4729 
C 301 4717 307 4710 314 4697 
C 621 4378 1402 3568 1402 1584 
C 1402 -407 627 -1217 314 -1537 
C 307 -1549 301 -1556 301 -1568 
C 301 -1600 326 -1600 346 -1600 
C 416 -1600 960 -1128 1274 -426 
C 1594 281 1683 969 1683 1581 
z
" transform="scale(0.015625)"/>
      </defs>
      <use xlink:href="#CMEX10-50" transform="translate(0 74.720454) scale(0.996264)"/>
      <use xlink:href="#CMR17-5e" transform="translate(135.916962 26.296621) scale(0.996264)"/>
      <use xlink:href="#CMMI12-1e" transform="translate(121.765958 0) scale(0.996264)"/>
      <use xlink:href="#CMSY10-1" transform="translate(201.639345 0) scale(0.996264)"/>
      <use xlink:href="#CMMI12-64" transform="translate(251.452637 0) scale(0.996264)"/>
      <use xlink:href="#CMMI12-74" transform="translate(302.141734 0) scale(0.996264)"/>
      <use xlink:href="#CMR17-28" transform="translate(367.44403 0) scale(0.996264)"/>
      <use xlink:href="#CMR17-41" transform="translate(402.724798 0) scale(0.996264)"/>
      <use xlink:href="#CMR17-3d" transform="translate(501.873194 0) scale(0.996264)"/>
      <use xlink:href="#CMR17-30" transform="translate(603.663949 0) scale(0.996264)"/>
      <use xlink:href="#CMR17-2e" transform="translate(649.354426 0) scale(0.996264)"/>
      <use xlink:href="#CMR17-30" transform="translate(674.225484 0) scale(0.996264)"/>
      <use xlink:href="#CMR17-29" transform="translate(719.915962 0) scale(0.996264)"/>
     </g>
    </g>
    <g id="line2d_34">
     <path d="M 362.288667 73.735919 
L 376.288667 73.735919 
L 389.542964 73.735919 
" style="fill: none; stroke-dasharray: 11.1,4.8; stroke-dashoffset: 0; stroke: #fbb6bc; stroke-width: 3"/>
    </g>
    <g id="text_15">
     <!-- $\sum \hat{\phi} \cdot dt$ (A = 0.0) -->
     <g transform="translate(401.488667 78.635919) scale(0.14 -0.14)">
      <use xlink:href="#CMEX10-50" transform="translate(0 74.720454) scale(0.996264)"/>
      <use xlink:href="#CMR17-5e" transform="translate(135.916962 26.296621) scale(0.996264)"/>
      <use xlink:href="#CMMI12-1e" transform="translate(121.765958 0) scale(0.996264)"/>
      <use xlink:href="#CMSY10-1" transform="translate(201.639345 0) scale(0.996264)"/>
      <use xlink:href="#CMMI12-64" transform="translate(251.452637 0) scale(0.996264)"/>
      <use xlink:href="#CMMI12-74" transform="translate(302.141734 0) scale(0.996264)"/>
      <use xlink:href="#CMR17-28" transform="translate(367.44403 0) scale(0.996264)"/>
      <use xlink:href="#CMR17-41" transform="translate(402.724798 0) scale(0.996264)"/>
      <use xlink:href="#CMR17-3d" transform="translate(501.873194 0) scale(0.996264)"/>
      <use xlink:href="#CMR17-30" transform="translate(603.663949 0) scale(0.996264)"/>
      <use xlink:href="#CMR17-2e" transform="translate(649.354426 0) scale(0.996264)"/>
      <use xlink:href="#CMR17-30" transform="translate(674.225484 0) scale(0.996264)"/>
      <use xlink:href="#CMR17-29" transform="translate(719.915962 0) scale(0.996264)"/>
     </g>
    </g>
    <g id="line2d_35">
     <path d="M 362.288667 97.589421 
L 376.288667 97.589421 
L 389.542964 97.589421 
" style="fill: none; stroke: #fc9272; stroke-width: 3; stroke-linecap: square"/>
    </g>
    <g id="text_16">
     <!-- $\sum \hat{\phi} \cdot dt$ (A = 0.11) -->
     <g transform="translate(401.488667 102.489421) scale(0.14 -0.14)">
      <use xlink:href="#CMEX10-50" transform="translate(0 74.720454) scale(0.996264)"/>
      <use xlink:href="#CMR17-5e" transform="translate(135.916962 26.296621) scale(0.996264)"/>
      <use xlink:href="#CMMI12-1e" transform="translate(121.765958 0) scale(0.996264)"/>
      <use xlink:href="#CMSY10-1" transform="translate(201.639345 0) scale(0.996264)"/>
      <use xlink:href="#CMMI12-64" transform="translate(251.452637 0) scale(0.996264)"/>
      <use xlink:href="#CMMI12-74" transform="translate(302.141734 0) scale(0.996264)"/>
      <use xlink:href="#CMR17-28" transform="translate(367.44403 0) scale(0.996264)"/>
      <use xlink:href="#CMR17-41" transform="translate(402.724798 0) scale(0.996264)"/>
      <use xlink:href="#CMR17-3d" transform="translate(501.873194 0) scale(0.996264)"/>
      <use xlink:href="#CMR17-30" transform="translate(603.663949 0) scale(0.996264)"/>
      <use xlink:href="#CMR17-2e" transform="translate(649.354426 0) scale(0.996264)"/>
      <use xlink:href="#CMR17-31" transform="translate(674.225484 0) scale(0.996264)"/>
      <use xlink:href="#CMR17-31" transform="translate(719.915962 0) scale(0.996264)"/>
      <use xlink:href="#CMR17-29" transform="translate(765.606439 0) scale(0.996264)"/>
     </g>
    </g>
    <g id="line2d_36">
     <path d="M 362.288667 121.442922 
L 376.288667 121.442922 
L 389.542964 121.442922 
" style="fill: none; stroke-dasharray: 11.1,4.8; stroke-dashoffset: 0; stroke: #fa9eb5; stroke-width: 3"/>
    </g>
    <g id="text_17">
     <!-- $\sum \hat{\phi} \cdot dt$ (A = 0.11) -->
     <g transform="translate(401.488667 126.342922) scale(0.14 -0.14)">
      <use xlink:href="#CMEX10-50" transform="translate(0 74.720454) scale(0.996264)"/>
      <use xlink:href="#CMR17-5e" transform="translate(135.916962 26.296621) scale(0.996264)"/>
      <use xlink:href="#CMMI12-1e" transform="translate(121.765958 0) scale(0.996264)"/>
      <use xlink:href="#CMSY10-1" transform="translate(201.639345 0) scale(0.996264)"/>
      <use xlink:href="#CMMI12-64" transform="translate(251.452637 0) scale(0.996264)"/>
      <use xlink:href="#CMMI12-74" transform="translate(302.141734 0) scale(0.996264)"/>
      <use xlink:href="#CMR17-28" transform="translate(367.44403 0) scale(0.996264)"/>
      <use xlink:href="#CMR17-41" transform="translate(402.724798 0) scale(0.996264)"/>
      <use xlink:href="#CMR17-3d" transform="translate(501.873194 0) scale(0.996264)"/>
      <use xlink:href="#CMR17-30" transform="translate(603.663949 0) scale(0.996264)"/>
      <use xlink:href="#CMR17-2e" transform="translate(649.354426 0) scale(0.996264)"/>
      <use xlink:href="#CMR17-31" transform="translate(674.225484 0) scale(0.996264)"/>
      <use xlink:href="#CMR17-31" transform="translate(719.915962 0) scale(0.996264)"/>
      <use xlink:href="#CMR17-29" transform="translate(765.606439 0) scale(0.996264)"/>
     </g>
    </g>
    <g id="line2d_37">
     <path d="M 362.288667 145.296424 
L 376.288667 145.296424 
L 389.542964 145.296424 
" style="fill: none; stroke: #fb7858; stroke-width: 3; stroke-linecap: square"/>
    </g>
    <g id="text_18">
     <!-- $\sum \hat{\phi} \cdot dt$ (A = 0.22) -->
     <g transform="translate(401.488667 150.196424) scale(0.14 -0.14)">
      <use xlink:href="#CMEX10-50" transform="translate(0 74.720454) scale(0.996264)"/>
      <use xlink:href="#CMR17-5e" transform="translate(135.916962 26.296621) scale(0.996264)"/>
      <use xlink:href="#CMMI12-1e" transform="translate(121.765958 0) scale(0.996264)"/>
      <use xlink:href="#CMSY10-1" transform="translate(201.639345 0) scale(0.996264)"/>
      <use xlink:href="#CMMI12-64" transform="translate(251.452637 0) scale(0.996264)"/>
      <use xlink:href="#CMMI12-74" transform="translate(302.141734 0) scale(0.996264)"/>
      <use xlink:href="#CMR17-28" transform="translate(367.44403 0) scale(0.996264)"/>
      <use xlink:href="#CMR17-41" transform="translate(402.724798 0) scale(0.996264)"/>
      <use xlink:href="#CMR17-3d" transform="translate(501.873194 0) scale(0.996264)"/>
      <use xlink:href="#CMR17-30" transform="translate(603.663949 0) scale(0.996264)"/>
      <use xlink:href="#CMR17-2e" transform="translate(649.354426 0) scale(0.996264)"/>
      <use xlink:href="#CMR17-32" transform="translate(674.225484 0) scale(0.996264)"/>
      <use xlink:href="#CMR17-32" transform="translate(719.915962 0) scale(0.996264)"/>
      <use xlink:href="#CMR17-29" transform="translate(765.606439 0) scale(0.996264)"/>
     </g>
    </g>
    <g id="line2d_38">
     <path d="M 362.288667 169.149926 
L 376.288667 169.149926 
L 389.542964 169.149926 
" style="fill: none; stroke-dasharray: 11.1,4.8; stroke-dashoffset: 0; stroke: #f87ca8; stroke-width: 3"/>
    </g>
    <g id="text_19">
     <!-- $\sum \hat{\phi} \cdot dt$ (A = 0.22) -->
     <g transform="translate(401.488667 174.049926) scale(0.14 -0.14)">
      <use xlink:href="#CMEX10-50" transform="translate(0 74.720454) scale(0.996264)"/>
      <use xlink:href="#CMR17-5e" transform="translate(135.916962 26.296621) scale(0.996264)"/>
      <use xlink:href="#CMMI12-1e" transform="translate(121.765958 0) scale(0.996264)"/>
      <use xlink:href="#CMSY10-1" transform="translate(201.639345 0) scale(0.996264)"/>
      <use xlink:href="#CMMI12-64" transform="translate(251.452637 0) scale(0.996264)"/>
      <use xlink:href="#CMMI12-74" transform="translate(302.141734 0) scale(0.996264)"/>
      <use xlink:href="#CMR17-28" transform="translate(367.44403 0) scale(0.996264)"/>
      <use xlink:href="#CMR17-41" transform="translate(402.724798 0) scale(0.996264)"/>
      <use xlink:href="#CMR17-3d" transform="translate(501.873194 0) scale(0.996264)"/>
      <use xlink:href="#CMR17-30" transform="translate(603.663949 0) scale(0.996264)"/>
      <use xlink:href="#CMR17-2e" transform="translate(649.354426 0) scale(0.996264)"/>
      <use xlink:href="#CMR17-32" transform="translate(674.225484 0) scale(0.996264)"/>
      <use xlink:href="#CMR17-32" transform="translate(719.915962 0) scale(0.996264)"/>
      <use xlink:href="#CMR17-29" transform="translate(765.606439 0) scale(0.996264)"/>
     </g>
    </g>
    <g id="line2d_39">
     <path d="M 362.288667 193.003427 
L 376.288667 193.003427 
L 389.542964 193.003427 
" style="fill: none; stroke: #f85d42; stroke-width: 3; stroke-linecap: square"/>
    </g>
    <g id="text_20">
     <!-- $\sum \hat{\phi} \cdot dt$ (A = 0.33) -->
     <g transform="translate(401.488667 197.903427) scale(0.14 -0.14)">
      <defs>
       <path id="CMR17-33" d="M 1414 2157 
C 1984 2157 2234 1662 2234 1090 
C 2234 320 1824 25 1453 25 
C 1114 25 563 194 390 693 
C 422 680 454 680 486 680 
C 640 680 755 782 755 948 
C 755 1133 614 1216 486 1216 
C 378 1216 211 1165 211 926 
C 211 335 787 -128 1466 -128 
C 2176 -128 2720 430 2720 1085 
C 2720 1707 2208 2157 1600 2227 
C 2086 2328 2554 2756 2554 3329 
C 2554 3820 2048 4179 1472 4179 
C 890 4179 378 3829 378 3329 
C 378 3110 544 3072 627 3072 
C 762 3072 877 3155 877 3321 
C 877 3486 762 3569 627 3569 
C 602 3569 570 3569 544 3557 
C 730 3959 1235 4032 1459 4032 
C 1683 4032 2106 3925 2106 3320 
C 2106 3143 2080 2828 1862 2550 
C 1670 2304 1453 2304 1242 2284 
C 1210 2284 1062 2269 1037 2269 
C 992 2263 966 2257 966 2208 
C 966 2163 973 2157 1101 2157 
L 1414 2157 
z
" transform="scale(0.015625)"/>
      </defs>
      <use xlink:href="#CMEX10-50" transform="translate(0 74.720454) scale(0.996264)"/>
      <use xlink:href="#CMR17-5e" transform="translate(135.916962 26.296621) scale(0.996264)"/>
      <use xlink:href="#CMMI12-1e" transform="translate(121.765958 0) scale(0.996264)"/>
      <use xlink:href="#CMSY10-1" transform="translate(201.639345 0) scale(0.996264)"/>
      <use xlink:href="#CMMI12-64" transform="translate(251.452637 0) scale(0.996264)"/>
      <use xlink:href="#CMMI12-74" transform="translate(302.141734 0) scale(0.996264)"/>
      <use xlink:href="#CMR17-28" transform="translate(367.44403 0) scale(0.996264)"/>
      <use xlink:href="#CMR17-41" transform="translate(402.724798 0) scale(0.996264)"/>
      <use xlink:href="#CMR17-3d" transform="translate(501.873194 0) scale(0.996264)"/>
      <use xlink:href="#CMR17-30" transform="translate(603.663949 0) scale(0.996264)"/>
      <use xlink:href="#CMR17-2e" transform="translate(649.354426 0) scale(0.996264)"/>
      <use xlink:href="#CMR17-33" transform="translate(674.225484 0) scale(0.996264)"/>
      <use xlink:href="#CMR17-33" transform="translate(719.915962 0) scale(0.996264)"/>
      <use xlink:href="#CMR17-29" transform="translate(765.606439 0) scale(0.996264)"/>
     </g>
    </g>
    <g id="line2d_40">
     <path d="M 362.288667 216.856929 
L 376.288667 216.856929 
L 389.542964 216.856929 
" style="fill: none; stroke-dasharray: 11.1,4.8; stroke-dashoffset: 0; stroke: #f05a9e; stroke-width: 3"/>
    </g>
    <g id="text_21">
     <!-- $\sum \hat{\phi} \cdot dt$ (A = 0.33) -->
     <g transform="translate(401.488667 221.756929) scale(0.14 -0.14)">
      <use xlink:href="#CMEX10-50" transform="translate(0 74.720454) scale(0.996264)"/>
      <use xlink:href="#CMR17-5e" transform="translate(135.916962 26.296621) scale(0.996264)"/>
      <use xlink:href="#CMMI12-1e" transform="translate(121.765958 0) scale(0.996264)"/>
      <use xlink:href="#CMSY10-1" transform="translate(201.639345 0) scale(0.996264)"/>
      <use xlink:href="#CMMI12-64" transform="translate(251.452637 0) scale(0.996264)"/>
      <use xlink:href="#CMMI12-74" transform="translate(302.141734 0) scale(0.996264)"/>
      <use xlink:href="#CMR17-28" transform="translate(367.44403 0) scale(0.996264)"/>
      <use xlink:href="#CMR17-41" transform="translate(402.724798 0) scale(0.996264)"/>
      <use xlink:href="#CMR17-3d" transform="translate(501.873194 0) scale(0.996264)"/>
      <use xlink:href="#CMR17-30" transform="translate(603.663949 0) scale(0.996264)"/>
      <use xlink:href="#CMR17-2e" transform="translate(649.354426 0) scale(0.996264)"/>
      <use xlink:href="#CMR17-33" transform="translate(674.225484 0) scale(0.996264)"/>
      <use xlink:href="#CMR17-33" transform="translate(719.915962 0) scale(0.996264)"/>
      <use xlink:href="#CMR17-29" transform="translate(765.606439 0) scale(0.996264)"/>
     </g>
    </g>
    <g id="line2d_41">
     <path d="M 362.288667 240.71043 
L 376.288667 240.71043 
L 389.542964 240.71043 
" style="fill: none; stroke: #f0402f; stroke-width: 3; stroke-linecap: square"/>
    </g>
    <g id="text_22">
     <!-- $\sum \hat{\phi} \cdot dt$ (A = 0.44) -->
     <g transform="translate(401.488667 245.61043) scale(0.14 -0.14)">
      <use xlink:href="#CMEX10-50" transform="translate(0 74.720454) scale(0.996264)"/>
      <use xlink:href="#CMR17-5e" transform="translate(135.916962 26.296621) scale(0.996264)"/>
      <use xlink:href="#CMMI12-1e" transform="translate(121.765958 0) scale(0.996264)"/>
      <use xlink:href="#CMSY10-1" transform="translate(201.639345 0) scale(0.996264)"/>
      <use xlink:href="#CMMI12-64" transform="translate(251.452637 0) scale(0.996264)"/>
      <use xlink:href="#CMMI12-74" transform="translate(302.141734 0) scale(0.996264)"/>
      <use xlink:href="#CMR17-28" transform="translate(367.44403 0) scale(0.996264)"/>
      <use xlink:href="#CMR17-41" transform="translate(402.724798 0) scale(0.996264)"/>
      <use xlink:href="#CMR17-3d" transform="translate(501.873194 0) scale(0.996264)"/>
      <use xlink:href="#CMR17-30" transform="translate(603.663949 0) scale(0.996264)"/>
      <use xlink:href="#CMR17-2e" transform="translate(649.354426 0) scale(0.996264)"/>
      <use xlink:href="#CMR17-34" transform="translate(674.225484 0) scale(0.996264)"/>
      <use xlink:href="#CMR17-34" transform="translate(719.915962 0) scale(0.996264)"/>
      <use xlink:href="#CMR17-29" transform="translate(765.606439 0) scale(0.996264)"/>
     </g>
    </g>
    <g id="line2d_42">
     <path style="fill: none; stroke-dasharray: 11.1,4.8; stroke-dashoffset: 0; stroke: #e03a98; stroke-width: 3"/>
    </g>
    <g id="text_23">
     <!-- $\sum \hat{\phi} \cdot dt$ (A = 0.44) -->
     <g transform="translate(401.488667 269.463932) scale(0.14 -0.14)">
      <use xlink:href="#CMEX10-50" transform="translate(0 74.720454) scale(0.996264)"/>
      <use xlink:href="#CMR17-5e" transform="translate(135.916962 26.296621) scale(0.996264)"/>
      <use xlink:href="#CMMI12-1e" transform="translate(121.765958 0) scale(0.996264)"/>
      <use xlink:href="#CMSY10-1" transform="translate(201.639345 0) scale(0.996264)"/>
      <use xlink:href="#CMMI12-64" transform="translate(251.452637 0) scale(0.996264)"/>
      <use xlink:href="#CMMI12-74" transform="translate(302.141734 0) scale(0.996264)"/>
      <use xlink:href="#CMR17-28" transform="translate(367.44403 0) scale(0.996264)"/>
      <use xlink:href="#CMR17-41" transform="translate(402.724798 0) scale(0.996264)"/>
      <use xlink:href="#CMR17-3d" transform="translate(501.873194 0) scale(0.996264)"/>
      <use xlink:href="#CMR17-30" transform="translate(603.663949 0) scale(0.996264)"/>
      <use xlink:href="#CMR17-2e" transform="translate(649.354426 0) scale(0.996264)"/>
      <use xlink:href="#CMR17-34" transform="translate(674.225484 0) scale(0.996264)"/>
      <use xlink:href="#CMR17-34" transform="translate(719.915962 0) scale(0.996264)"/>
      <use xlink:href="#CMR17-29" transform="translate(765.606439 0) scale(0.996264)"/>
     </g>
    </g>
    <g id="line2d_43">
     <path style="fill: none; stroke: #dc2924; stroke-width: 3; stroke-linecap: square"/>
    </g>
    <g id="text_24">
     <!-- $\sum \hat{\phi} \cdot dt$ (A = 0.56) -->
     <g transform="translate(585.338222 54.782417) scale(0.14 -0.14)">
      <defs>
       <path id="CMR17-35" d="M 730 3692 
C 794 3666 1056 3584 1325 3584 
C 1920 3584 2246 3911 2432 4100 
C 2432 4157 2432 4192 2394 4192 
C 2387 4192 2374 4192 2323 4163 
C 2099 4058 1837 3973 1517 3973 
C 1325 3973 1037 3999 723 4139 
C 653 4171 640 4171 634 4171 
C 602 4171 595 4164 595 4037 
L 595 2203 
C 595 2089 595 2057 659 2057 
C 691 2057 704 2070 736 2114 
C 941 2401 1222 2522 1542 2522 
C 1766 2522 2246 2382 2246 1289 
C 2246 1085 2246 715 2054 421 
C 1894 159 1645 25 1370 25 
C 947 25 518 320 403 814 
C 429 807 480 795 506 795 
C 589 795 749 840 749 1038 
C 749 1210 627 1280 506 1280 
C 358 1280 262 1190 262 1011 
C 262 454 704 -128 1382 -128 
C 2042 -128 2669 440 2669 1264 
C 2669 2030 2170 2624 1549 2624 
C 1222 2624 947 2503 730 2274 
L 730 3692 
z
" transform="scale(0.015625)"/>
      </defs>
      <use xlink:href="#CMEX10-50" transform="translate(0 74.720454) scale(0.996264)"/>
      <use xlink:href="#CMR17-5e" transform="translate(135.916962 26.296621) scale(0.996264)"/>
      <use xlink:href="#CMMI12-1e" transform="translate(121.765958 0) scale(0.996264)"/>
      <use xlink:href="#CMSY10-1" transform="translate(201.639345 0) scale(0.996264)"/>
      <use xlink:href="#CMMI12-64" transform="translate(251.452637 0) scale(0.996264)"/>
      <use xlink:href="#CMMI12-74" transform="translate(302.141734 0) scale(0.996264)"/>
      <use xlink:href="#CMR17-28" transform="translate(367.44403 0) scale(0.996264)"/>
      <use xlink:href="#CMR17-41" transform="translate(402.724798 0) scale(0.996264)"/>
      <use xlink:href="#CMR17-3d" transform="translate(501.873194 0) scale(0.996264)"/>
      <use xlink:href="#CMR17-30" transform="translate(603.663949 0) scale(0.996264)"/>
      <use xlink:href="#CMR17-2e" transform="translate(649.354426 0) scale(0.996264)"/>
      <use xlink:href="#CMR17-35" transform="translate(674.225484 0) scale(0.996264)"/>
      <use xlink:href="#CMR17-36" transform="translate(719.915962 0) scale(0.996264)"/>
      <use xlink:href="#CMR17-29" transform="translate(765.606439 0) scale(0.996264)"/>
     </g>
    </g>
    <g id="line2d_44">
     <path style="fill: none; stroke-dasharray: 11.1,4.8; stroke-dashoffset: 0; stroke: #c4198a; stroke-width: 3"/>
    </g>
    <g id="text_25">
     <!-- $\sum \hat{\phi} \cdot dt$ (A = 0.56) -->
     <g transform="translate(585.338222 78.635919) scale(0.14 -0.14)">
      <use xlink:href="#CMEX10-50" transform="translate(0 74.720454) scale(0.996264)"/>
      <use xlink:href="#CMR17-5e" transform="translate(135.916962 26.296621) scale(0.996264)"/>
      <use xlink:href="#CMMI12-1e" transform="translate(121.765958 0) scale(0.996264)"/>
      <use xlink:href="#CMSY10-1" transform="translate(201.639345 0) scale(0.996264)"/>
      <use xlink:href="#CMMI12-64" transform="translate(251.452637 0) scale(0.996264)"/>
      <use xlink:href="#CMMI12-74" transform="translate(302.141734 0) scale(0.996264)"/>
      <use xlink:href="#CMR17-28" transform="translate(367.44403 0) scale(0.996264)"/>
      <use xlink:href="#CMR17-41" transform="translate(402.724798 0) scale(0.996264)"/>
      <use xlink:href="#CMR17-3d" transform="translate(501.873194 0) scale(0.996264)"/>
      <use xlink:href="#CMR17-30" transform="translate(603.663949 0) scale(0.996264)"/>
      <use xlink:href="#CMR17-2e" transform="translate(649.354426 0) scale(0.996264)"/>
      <use xlink:href="#CMR17-35" transform="translate(674.225484 0) scale(0.996264)"/>
      <use xlink:href="#CMR17-36" transform="translate(719.915962 0) scale(0.996264)"/>
      <use xlink:href="#CMR17-29" transform="translate(765.606439 0) scale(0.996264)"/>
     </g>
    </g>
    <g id="line2d_45">
     <path style="fill: none; stroke: #c5171c; stroke-width: 3; stroke-linecap: square"/>
    </g>
    <g id="text_26">
     <!-- $\sum \hat{\phi} \cdot dt$ (A = 0.67) -->
     <g transform="translate(585.338222 102.489421) scale(0.14 -0.14)">
      <defs>
       <path id="CMR17-37" d="M 2886 3941 
L 2886 4081 
L 1382 4081 
C 634 4081 621 4165 595 4288 
L 480 4288 
L 294 3094 
L 410 3094 
C 429 3215 474 3540 550 3661 
C 589 3712 1062 3712 1171 3712 
L 2579 3712 
L 1869 2661 
C 1395 1954 1069 999 1069 165 
C 1069 89 1069 -128 1299 -128 
C 1530 -128 1530 89 1530 171 
L 1530 465 
C 1530 1508 1709 2196 2003 2636 
L 2886 3941 
z
" transform="scale(0.015625)"/>
      </defs>
      <use xlink:href="#CMEX10-50" transform="translate(0 74.720454) scale(0.996264)"/>
      <use xlink:href="#CMR17-5e" transform="translate(135.916962 26.296621) scale(0.996264)"/>
      <use xlink:href="#CMMI12-1e" transform="translate(121.765958 0) scale(0.996264)"/>
      <use xlink:href="#CMSY10-1" transform="translate(201.639345 0) scale(0.996264)"/>
      <use xlink:href="#CMMI12-64" transform="translate(251.452637 0) scale(0.996264)"/>
      <use xlink:href="#CMMI12-74" transform="translate(302.141734 0) scale(0.996264)"/>
      <use xlink:href="#CMR17-28" transform="translate(367.44403 0) scale(0.996264)"/>
      <use xlink:href="#CMR17-41" transform="translate(402.724798 0) scale(0.996264)"/>
      <use xlink:href="#CMR17-3d" transform="translate(501.873194 0) scale(0.996264)"/>
      <use xlink:href="#CMR17-30" transform="translate(603.663949 0) scale(0.996264)"/>
      <use xlink:href="#CMR17-2e" transform="translate(649.354426 0) scale(0.996264)"/>
      <use xlink:href="#CMR17-36" transform="translate(674.225484 0) scale(0.996264)"/>
      <use xlink:href="#CMR17-37" transform="translate(719.915962 0) scale(0.996264)"/>
      <use xlink:href="#CMR17-29" transform="translate(765.606439 0) scale(0.996264)"/>
     </g>
    </g>
    <g id="line2d_46">
     <path style="fill: none; stroke-dasharray: 11.1,4.8; stroke-dashoffset: 0; stroke: #a6017d; stroke-width: 3"/>
    </g>
    <g id="text_27">
     <!-- $\sum \hat{\phi} \cdot dt$ (A = 0.67) -->
     <g transform="translate(585.338222 126.342922) scale(0.14 -0.14)">
      <use xlink:href="#CMEX10-50" transform="translate(0 74.720454) scale(0.996264)"/>
      <use xlink:href="#CMR17-5e" transform="translate(135.916962 26.296621) scale(0.996264)"/>
      <use xlink:href="#CMMI12-1e" transform="translate(121.765958 0) scale(0.996264)"/>
      <use xlink:href="#CMSY10-1" transform="translate(201.639345 0) scale(0.996264)"/>
      <use xlink:href="#CMMI12-64" transform="translate(251.452637 0) scale(0.996264)"/>
      <use xlink:href="#CMMI12-74" transform="translate(302.141734 0) scale(0.996264)"/>
      <use xlink:href="#CMR17-28" transform="translate(367.44403 0) scale(0.996264)"/>
      <use xlink:href="#CMR17-41" transform="translate(402.724798 0) scale(0.996264)"/>
      <use xlink:href="#CMR17-3d" transform="translate(501.873194 0) scale(0.996264)"/>
      <use xlink:href="#CMR17-30" transform="translate(603.663949 0) scale(0.996264)"/>
      <use xlink:href="#CMR17-2e" transform="translate(649.354426 0) scale(0.996264)"/>
      <use xlink:href="#CMR17-36" transform="translate(674.225484 0) scale(0.996264)"/>
      <use xlink:href="#CMR17-37" transform="translate(719.915962 0) scale(0.996264)"/>
      <use xlink:href="#CMR17-29" transform="translate(765.606439 0) scale(0.996264)"/>
     </g>
    </g>
    <g id="line2d_47">
     <path style="fill: none; stroke: #ad1117; stroke-width: 3; stroke-linecap: square"/>
    </g>
    <g id="text_28">
     <!-- $\sum \hat{\phi} \cdot dt$ (A = 0.78) -->
     <g transform="translate(585.338222 150.196424) scale(0.14 -0.14)">
      <use xlink:href="#CMEX10-50" transform="translate(0 74.720454) scale(0.996264)"/>
      <use xlink:href="#CMR17-5e" transform="translate(135.916962 26.296621) scale(0.996264)"/>
      <use xlink:href="#CMMI12-1e" transform="translate(121.765958 0) scale(0.996264)"/>
      <use xlink:href="#CMSY10-1" transform="translate(201.639345 0) scale(0.996264)"/>
      <use xlink:href="#CMMI12-64" transform="translate(251.452637 0) scale(0.996264)"/>
      <use xlink:href="#CMMI12-74" transform="translate(302.141734 0) scale(0.996264)"/>
      <use xlink:href="#CMR17-28" transform="translate(367.44403 0) scale(0.996264)"/>
      <use xlink:href="#CMR17-41" transform="translate(402.724798 0) scale(0.996264)"/>
      <use xlink:href="#CMR17-3d" transform="translate(501.873194 0) scale(0.996264)"/>
      <use xlink:href="#CMR17-30" transform="translate(603.663949 0) scale(0.996264)"/>
      <use xlink:href="#CMR17-2e" transform="translate(649.354426 0) scale(0.996264)"/>
      <use xlink:href="#CMR17-37" transform="translate(674.225484 0) scale(0.996264)"/>
      <use xlink:href="#CMR17-38" transform="translate(719.915962 0) scale(0.996264)"/>
      <use xlink:href="#CMR17-29" transform="translate(765.606439 0) scale(0.996264)"/>
     </g>
    </g>
    <g id="line2d_48">
     <path style="fill: none; stroke-dasharray: 11.1,4.8; stroke-dashoffset: 0; stroke: #860179; stroke-width: 3"/>
    </g>
    <g id="text_29">
     <!-- $\sum \hat{\phi} \cdot dt$ (A = 0.78) -->
     <g transform="translate(585.338222 174.049926) scale(0.14 -0.14)">
      <use xlink:href="#CMEX10-50" transform="translate(0 74.720454) scale(0.996264)"/>
      <use xlink:href="#CMR17-5e" transform="translate(135.916962 26.296621) scale(0.996264)"/>
      <use xlink:href="#CMMI12-1e" transform="translate(121.765958 0) scale(0.996264)"/>
      <use xlink:href="#CMSY10-1" transform="translate(201.639345 0) scale(0.996264)"/>
      <use xlink:href="#CMMI12-64" transform="translate(251.452637 0) scale(0.996264)"/>
      <use xlink:href="#CMMI12-74" transform="translate(302.141734 0) scale(0.996264)"/>
      <use xlink:href="#CMR17-28" transform="translate(367.44403 0) scale(0.996264)"/>
      <use xlink:href="#CMR17-41" transform="translate(402.724798 0) scale(0.996264)"/>
      <use xlink:href="#CMR17-3d" transform="translate(501.873194 0) scale(0.996264)"/>
      <use xlink:href="#CMR17-30" transform="translate(603.663949 0) scale(0.996264)"/>
      <use xlink:href="#CMR17-2e" transform="translate(649.354426 0) scale(0.996264)"/>
      <use xlink:href="#CMR17-37" transform="translate(674.225484 0) scale(0.996264)"/>
      <use xlink:href="#CMR17-38" transform="translate(719.915962 0) scale(0.996264)"/>
      <use xlink:href="#CMR17-29" transform="translate(765.606439 0) scale(0.996264)"/>
     </g>
    </g>
    <g id="line2d_49">
     <path style="fill: none; stroke: #8c0912; stroke-width: 3; stroke-linecap: square"/>
    </g>
    <g id="text_30">
     <!-- $\sum \hat{\phi} \cdot dt$ (A = 0.89) -->
     <g transform="translate(585.338222 197.903427) scale(0.14 -0.14)">
      <defs>
       <path id="CMR17-39" d="M 2253 1864 
C 2253 464 1670 31 1190 31 
C 1043 31 685 31 538 294 
C 704 268 826 357 826 518 
C 826 692 685 749 595 749 
C 538 749 365 723 365 506 
C 365 71 742 -128 1203 -128 
C 1939 -128 2688 674 2688 2073 
C 2688 3817 1971 4179 1485 4179 
C 851 4179 243 3628 243 2778 
C 243 1991 762 1408 1414 1408 
C 1952 1408 2189 1903 2253 2112 
L 2253 1864 
z
M 1427 1510 
C 1254 1510 1011 1542 813 1922 
C 678 2169 678 2461 678 2771 
C 678 3146 678 3405 858 3684 
C 947 3817 1114 4032 1485 4032 
C 2240 4032 2240 2885 2240 2632 
C 2240 2182 2035 1510 1427 1510 
z
" transform="scale(0.015625)"/>
      </defs>
      <use xlink:href="#CMEX10-50" transform="translate(0 74.720454) scale(0.996264)"/>
      <use xlink:href="#CMR17-5e" transform="translate(135.916962 26.296621) scale(0.996264)"/>
      <use xlink:href="#CMMI12-1e" transform="translate(121.765958 0) scale(0.996264)"/>
      <use xlink:href="#CMSY10-1" transform="translate(201.639345 0) scale(0.996264)"/>
      <use xlink:href="#CMMI12-64" transform="translate(251.452637 0) scale(0.996264)"/>
      <use xlink:href="#CMMI12-74" transform="translate(302.141734 0) scale(0.996264)"/>
      <use xlink:href="#CMR17-28" transform="translate(367.44403 0) scale(0.996264)"/>
      <use xlink:href="#CMR17-41" transform="translate(402.724798 0) scale(0.996264)"/>
      <use xlink:href="#CMR17-3d" transform="translate(501.873194 0) scale(0.996264)"/>
      <use xlink:href="#CMR17-30" transform="translate(603.663949 0) scale(0.996264)"/>
      <use xlink:href="#CMR17-2e" transform="translate(649.354426 0) scale(0.996264)"/>
      <use xlink:href="#CMR17-38" transform="translate(674.225484 0) scale(0.996264)"/>
      <use xlink:href="#CMR17-39" transform="translate(719.915962 0) scale(0.996264)"/>
      <use xlink:href="#CMR17-29" transform="translate(765.606439 0) scale(0.996264)"/>
     </g>
    </g>
    <g id="line2d_50">
     <path style="fill: none; stroke-dasharray: 11.1,4.8; stroke-dashoffset: 0; stroke: #660172; stroke-width: 3"/>
    </g>
    <g id="text_31">
     <!-- $\sum \hat{\phi} \cdot dt$ (A = 0.89) -->
     <g transform="translate(585.338222 221.756929) scale(0.14 -0.14)">
      <use xlink:href="#CMEX10-50" transform="translate(0 74.720454) scale(0.996264)"/>
      <use xlink:href="#CMR17-5e" transform="translate(135.916962 26.296621) scale(0.996264)"/>
      <use xlink:href="#CMMI12-1e" transform="translate(121.765958 0) scale(0.996264)"/>
      <use xlink:href="#CMSY10-1" transform="translate(201.639345 0) scale(0.996264)"/>
      <use xlink:href="#CMMI12-64" transform="translate(251.452637 0) scale(0.996264)"/>
      <use xlink:href="#CMMI12-74" transform="translate(302.141734 0) scale(0.996264)"/>
      <use xlink:href="#CMR17-28" transform="translate(367.44403 0) scale(0.996264)"/>
      <use xlink:href="#CMR17-41" transform="translate(402.724798 0) scale(0.996264)"/>
      <use xlink:href="#CMR17-3d" transform="translate(501.873194 0) scale(0.996264)"/>
      <use xlink:href="#CMR17-30" transform="translate(603.663949 0) scale(0.996264)"/>
      <use xlink:href="#CMR17-2e" transform="translate(649.354426 0) scale(0.996264)"/>
      <use xlink:href="#CMR17-38" transform="translate(674.225484 0) scale(0.996264)"/>
      <use xlink:href="#CMR17-39" transform="translate(719.915962 0) scale(0.996264)"/>
      <use xlink:href="#CMR17-29" transform="translate(765.606439 0) scale(0.996264)"/>
     </g>
    </g>
    <g id="line2d_51">
     <path style="fill: none; stroke: #67000d; stroke-width: 3; stroke-linecap: square"/>
    </g>
    <g id="text_32">
     <!-- $\sum \hat{\phi} \cdot dt$ (A = 1.0) -->
     <g transform="translate(585.338222 245.61043) scale(0.14 -0.14)">
      <use xlink:href="#CMEX10-50" transform="translate(0 74.720454) scale(0.996264)"/>
      <use xlink:href="#CMR17-5e" transform="translate(135.916962 26.296621) scale(0.996264)"/>
      <use xlink:href="#CMMI12-1e" transform="translate(121.765958 0) scale(0.996264)"/>
      <use xlink:href="#CMSY10-1" transform="translate(201.639345 0) scale(0.996264)"/>
      <use xlink:href="#CMMI12-64" transform="translate(251.452637 0) scale(0.996264)"/>
      <use xlink:href="#CMMI12-74" transform="translate(302.141734 0) scale(0.996264)"/>
      <use xlink:href="#CMR17-28" transform="translate(367.44403 0) scale(0.996264)"/>
      <use xlink:href="#CMR17-41" transform="translate(402.724798 0) scale(0.996264)"/>
      <use xlink:href="#CMR17-3d" transform="translate(501.873194 0) scale(0.996264)"/>
      <use xlink:href="#CMR17-31" transform="translate(603.663949 0) scale(0.996264)"/>
      <use xlink:href="#CMR17-2e" transform="translate(649.354426 0) scale(0.996264)"/>
      <use xlink:href="#CMR17-30" transform="translate(674.225484 0) scale(0.996264)"/>
      <use xlink:href="#CMR17-29" transform="translate(719.915962 0) scale(0.996264)"/>
     </g>
    </g>
    <g id="line2d_52">
     <path style="fill: none; stroke-dasharray: 11.1,4.8; stroke-dashoffset: 0; stroke: #49006a; stroke-width: 3"/>
    </g>
    <g id="text_33">
     <!-- $\sum \hat{\phi} \cdot dt$ (A = 1.0) -->
     <g transform="translate(585.338222 269.463932) scale(0.14 -0.14)">
      <use xlink:href="#CMEX10-50" transform="translate(0 74.720454) scale(0.996264)"/>
      <use xlink:href="#CMR17-5e" transform="translate(135.916962 26.296621) scale(0.996264)"/>
      <use xlink:href="#CMMI12-1e" transform="translate(121.765958 0) scale(0.996264)"/>
      <use xlink:href="#CMSY10-1" transform="translate(201.639345 0) scale(0.996264)"/>
      <use xlink:href="#CMMI12-64" transform="translate(251.452637 0) scale(0.996264)"/>
      <use xlink:href="#CMMI12-74" transform="translate(302.141734 0) scale(0.996264)"/>
      <use xlink:href="#CMR17-28" transform="translate(367.44403 0) scale(0.996264)"/>
      <use xlink:href="#CMR17-41" transform="translate(402.724798 0) scale(0.996264)"/>
      <use xlink:href="#CMR17-3d" transform="translate(501.873194 0) scale(0.996264)"/>
      <use xlink:href="#CMR17-31" transform="translate(603.663949 0) scale(0.996264)"/>
      <use xlink:href="#CMR17-2e" transform="translate(649.354426 0) scale(0.996264)"/>
      <use xlink:href="#CMR17-30" transform="translate(674.225484 0) scale(0.996264)"/>
      <use xlink:href="#CMR17-29" transform="translate(719.915962 0) scale(0.996264)"/>
     </g>
    </g>
   </g>
  </g>
 </g>
 <defs>
  <clipPath id="p649b1c85e9">
   <rect x="48.56787" y="28.815931" width="301.120797" height="184.902223"/>
  </clipPath>
 </defs>
</svg>
