<?xml version="1.0" encoding="utf-8" standalone="no"?>
<!DOCTYPE svg PUBLIC "-//W3C//DTD SVG 1.1//EN"
  "http://www.w3.org/Graphics/SVG/1.1/DTD/svg11.dtd">
<svg xmlns:xlink="http://www.w3.org/1999/xlink" width="388.542964pt" height="240.132758pt" viewBox="0 0 388.542964 240.132758" xmlns="http://www.w3.org/2000/svg" version="1.1">
 <metadata>
  <rdf:RDF xmlns:dc="http://purl.org/dc/elements/1.1/" xmlns:cc="http://creativecommons.org/ns#" xmlns:rdf="http://www.w3.org/1999/02/22-rdf-syntax-ns#">
   <cc:Work>
    <dc:type rdf:resource="http://purl.org/dc/dcmitype/StillImage"/>
    <dc:date>2024-12-16T15:08:13.716726</dc:date>
    <dc:format>image/svg+xml</dc:format>
    <dc:creator>
     <cc:Agent>
      <dc:title>Matplotlib v3.7.5, https://matplotlib.org/</dc:title>
     </cc:Agent>
    </dc:creator>
   </cc:Work>
  </rdf:RDF>
 </metadata>
 <defs>
  <style type="text/css">*{stroke-linejoin: round; stroke-linecap: butt}</style>
 </defs>
 <g id="figure_1">
  <g id="patch_1">
   <path d="M 0 240.132758 
L 388.542964 240.132758 
L 388.542964 0 
L 0 0 
z
" style="fill: #ffffff"/>
  </g>
  <g id="axes_1">
   <g id="patch_2">
    <path d="M 48.56787 213.718154 
L 349.688667 213.718154 
L 349.688667 28.815931 
L 48.56787 28.815931 
z
" style="fill: #ffffff"/>
   </g>
   <g id="matplotlib.axis_1">
    <g id="xtick_1">
     <g id="line2d_1">
      <defs>
       <path id="m0ea3a07ece" d="M 0 0 
L 0 3.5 
" style="stroke: #000000; stroke-width: 0.8"/>
      </defs>
      <g>
       <use xlink:href="#m0ea3a07ece" x="62.255179" y="213.718154" style="stroke: #000000; stroke-width: 0.8"/>
      </g>
     </g>
     <g id="text_1">
      <!-- $\mathdefault{0.0}$ -->
      <g transform="translate(53.529888 230.404031) scale(0.14 -0.14)">
       <defs>
        <path id="CMR17-30" d="M 2688 2025 
C 2688 2416 2682 3080 2413 3591 
C 2176 4039 1798 4198 1466 4198 
C 1158 4198 768 4058 525 3597 
C 269 3118 243 2524 243 2025 
C 243 1661 250 1106 448 619 
C 723 -39 1216 -128 1466 -128 
C 1760 -128 2208 -7 2470 600 
C 2662 1042 2688 1559 2688 2025 
z
M 1466 -26 
C 1056 -26 813 325 723 812 
C 653 1188 653 1738 653 2096 
C 653 2588 653 2997 736 3387 
C 858 3929 1216 4096 1466 4096 
C 1728 4096 2067 3923 2189 3400 
C 2272 3036 2278 2607 2278 2096 
C 2278 1680 2278 1169 2202 792 
C 2067 95 1690 -26 1466 -26 
z
" transform="scale(0.015625)"/>
        <path id="CMMI12-3a" d="M 1178 307 
C 1178 492 1024 619 870 619 
C 685 619 557 466 557 313 
C 557 128 710 0 864 0 
C 1050 0 1178 153 1178 307 
z
" transform="scale(0.015625)"/>
       </defs>
       <use xlink:href="#CMR17-30" transform="scale(0.996264)"/>
       <use xlink:href="#CMMI12-3a" transform="translate(45.690477 0) scale(0.996264)"/>
       <use xlink:href="#CMR17-30" transform="translate(72.787654 0) scale(0.996264)"/>
      </g>
     </g>
    </g>
    <g id="xtick_2">
     <g id="line2d_2">
      <g>
       <use xlink:href="#m0ea3a07ece" x="117.059219" y="213.718154" style="stroke: #000000; stroke-width: 0.8"/>
      </g>
     </g>
     <g id="text_2">
      <!-- $\mathdefault{0.2}$ -->
      <g transform="translate(108.333928 230.404031) scale(0.14 -0.14)">
       <defs>
        <path id="CMR17-32" d="M 2669 989 
L 2554 989 
C 2490 536 2438 459 2413 420 
C 2381 369 1920 369 1830 369 
L 602 369 
C 832 619 1280 1072 1824 1597 
C 2214 1967 2669 2402 2669 3035 
C 2669 3790 2067 4224 1395 4224 
C 691 4224 262 3604 262 3030 
C 262 2780 448 2748 525 2748 
C 589 2748 781 2787 781 3010 
C 781 3207 614 3264 525 3264 
C 486 3264 448 3258 422 3245 
C 544 3790 915 4058 1306 4058 
C 1862 4058 2227 3617 2227 3035 
C 2227 2479 1901 2000 1536 1584 
L 262 146 
L 262 0 
L 2515 0 
L 2669 989 
z
" transform="scale(0.015625)"/>
       </defs>
       <use xlink:href="#CMR17-30" transform="scale(0.996264)"/>
       <use xlink:href="#CMMI12-3a" transform="translate(45.690477 0) scale(0.996264)"/>
       <use xlink:href="#CMR17-32" transform="translate(72.787654 0) scale(0.996264)"/>
      </g>
     </g>
    </g>
    <g id="xtick_3">
     <g id="line2d_3">
      <g>
       <use xlink:href="#m0ea3a07ece" x="171.863259" y="213.718154" style="stroke: #000000; stroke-width: 0.8"/>
      </g>
     </g>
     <g id="text_3">
      <!-- $\mathdefault{0.4}$ -->
      <g transform="translate(163.137968 230.404031) scale(0.14 -0.14)">
       <defs>
        <path id="CMR17-34" d="M 2150 4122 
C 2150 4256 2144 4256 2029 4256 
L 128 1254 
L 128 1088 
L 1779 1088 
L 1779 457 
C 1779 224 1766 160 1318 160 
L 1197 160 
L 1197 0 
C 1402 0 1747 0 1965 0 
C 2182 0 2528 0 2733 0 
L 2733 160 
L 2611 160 
C 2163 160 2150 224 2150 457 
L 2150 1088 
L 2803 1088 
L 2803 1254 
L 2150 1254 
L 2150 4122 
z
M 1798 3703 
L 1798 1254 
L 256 1254 
L 1798 3703 
z
" transform="scale(0.015625)"/>
       </defs>
       <use xlink:href="#CMR17-30" transform="scale(0.996264)"/>
       <use xlink:href="#CMMI12-3a" transform="translate(45.690477 0) scale(0.996264)"/>
       <use xlink:href="#CMR17-34" transform="translate(72.787654 0) scale(0.996264)"/>
      </g>
     </g>
    </g>
    <g id="xtick_4">
     <g id="line2d_4">
      <g>
       <use xlink:href="#m0ea3a07ece" x="226.667299" y="213.718154" style="stroke: #000000; stroke-width: 0.8"/>
      </g>
     </g>
     <g id="text_4">
      <!-- $\mathdefault{0.6}$ -->
      <g transform="translate(217.942008 230.404031) scale(0.14 -0.14)">
       <defs>
        <path id="CMR17-36" d="M 678 2176 
C 678 3690 1395 4032 1811 4032 
C 1946 4032 2272 4009 2400 3776 
C 2298 3776 2106 3776 2106 3553 
C 2106 3381 2246 3323 2336 3323 
C 2394 3323 2566 3348 2566 3560 
C 2566 3954 2246 4179 1805 4179 
C 1043 4179 243 3390 243 1984 
C 243 253 966 -128 1478 -128 
C 2099 -128 2688 427 2688 1283 
C 2688 2081 2170 2662 1517 2662 
C 1126 2662 838 2407 678 1960 
L 678 2176 
z
M 1478 25 
C 691 25 691 1200 691 1436 
C 691 1896 909 2560 1504 2560 
C 1613 2560 1926 2560 2138 2120 
C 2253 1870 2253 1609 2253 1289 
C 2253 944 2253 690 2118 434 
C 1978 171 1773 25 1478 25 
z
" transform="scale(0.015625)"/>
       </defs>
       <use xlink:href="#CMR17-30" transform="scale(0.996264)"/>
       <use xlink:href="#CMMI12-3a" transform="translate(45.690477 0) scale(0.996264)"/>
       <use xlink:href="#CMR17-36" transform="translate(72.787654 0) scale(0.996264)"/>
      </g>
     </g>
    </g>
    <g id="xtick_5">
     <g id="line2d_5">
      <g>
       <use xlink:href="#m0ea3a07ece" x="281.471339" y="213.718154" style="stroke: #000000; stroke-width: 0.8"/>
      </g>
     </g>
     <g id="text_5">
      <!-- $\mathdefault{0.8}$ -->
      <g transform="translate(272.746048 230.404031) scale(0.14 -0.14)">
       <defs>
        <path id="CMR17-38" d="M 1741 2264 
C 2144 2467 2554 2773 2554 3263 
C 2554 3841 1990 4179 1472 4179 
C 890 4179 378 3759 378 3180 
C 378 3021 416 2747 666 2505 
C 730 2442 998 2251 1171 2130 
C 883 1983 211 1634 211 934 
C 211 279 838 -128 1459 -128 
C 2144 -128 2720 362 2720 1010 
C 2720 1590 2330 1857 2074 2029 
L 1741 2264 
z
M 902 2822 
C 851 2854 595 3051 595 3351 
C 595 3739 998 4032 1459 4032 
C 1965 4032 2336 3676 2336 3262 
C 2336 2669 1670 2331 1638 2331 
C 1632 2331 1626 2331 1574 2370 
L 902 2822 
z
M 2080 1519 
C 2176 1449 2483 1240 2483 851 
C 2483 381 2010 25 1472 25 
C 890 25 448 438 448 940 
C 448 1443 838 1862 1280 2060 
L 2080 1519 
z
" transform="scale(0.015625)"/>
       </defs>
       <use xlink:href="#CMR17-30" transform="scale(0.996264)"/>
       <use xlink:href="#CMMI12-3a" transform="translate(45.690477 0) scale(0.996264)"/>
       <use xlink:href="#CMR17-38" transform="translate(72.787654 0) scale(0.996264)"/>
      </g>
     </g>
    </g>
    <g id="xtick_6">
     <g id="line2d_6">
      <g>
       <use xlink:href="#m0ea3a07ece" x="336.275379" y="213.718154" style="stroke: #000000; stroke-width: 0.8"/>
      </g>
     </g>
     <g id="text_6">
      <!-- $\mathdefault{1.0}$ -->
      <g transform="translate(327.550088 230.404031) scale(0.14 -0.14)">
       <defs>
        <path id="CMR17-31" d="M 1702 4058 
C 1702 4192 1696 4192 1606 4192 
C 1357 3916 979 3827 621 3827 
C 602 3827 570 3827 563 3808 
C 557 3795 557 3782 557 3648 
C 755 3648 1088 3686 1344 3839 
L 1344 461 
C 1344 236 1331 160 781 160 
L 589 160 
L 589 0 
C 896 0 1216 0 1523 0 
C 1830 0 2150 0 2458 0 
L 2458 160 
L 2266 160 
C 1715 160 1702 230 1702 458 
L 1702 4058 
z
" transform="scale(0.015625)"/>
       </defs>
       <use xlink:href="#CMR17-31" transform="scale(0.996264)"/>
       <use xlink:href="#CMMI12-3a" transform="translate(45.690477 0) scale(0.996264)"/>
       <use xlink:href="#CMR17-30" transform="translate(72.787654 0) scale(0.996264)"/>
      </g>
     </g>
    </g>
    <g id="text_7">
     <!-- t -->
     <g transform="translate(196.472746 246.801936) scale(0.14 -0.14)">
      <defs>
       <path id="CMR17-74" d="M 966 2560 
L 1862 2560 
L 1862 2725 
L 966 2725 
L 966 3904 
L 851 3904 
C 838 3245 614 2668 70 2668 
L 70 2560 
L 627 2560 
L 627 771 
C 627 650 627 -64 1370 -64 
C 1747 -64 1965 306 1965 777 
L 1965 1140 
L 1850 1140 
L 1850 783 
C 1850 344 1677 51 1408 51 
C 1222 51 966 178 966 758 
L 966 2560 
z
" transform="scale(0.015625)"/>
      </defs>
      <use xlink:href="#CMR17-74" transform="scale(0.996264)"/>
     </g>
    </g>
   </g>
   <g id="matplotlib.axis_2">
    <g id="ytick_1">
     <g id="line2d_7">
      <defs>
       <path id="macb1b6214b" d="M 0 0 
L -3.5 0 
" style="stroke: #000000; stroke-width: 0.8"/>
      </defs>
      <g>
       <use xlink:href="#macb1b6214b" x="48.56787" y="205.480903" style="stroke: #000000; stroke-width: 0.8"/>
      </g>
     </g>
     <g id="text_8">
      <!-- $\mathdefault{0.0}$ -->
      <g transform="translate(24.117288 210.323842) scale(0.14 -0.14)">
       <use xlink:href="#CMR17-30" transform="scale(0.996264)"/>
       <use xlink:href="#CMMI12-3a" transform="translate(45.690477 0) scale(0.996264)"/>
       <use xlink:href="#CMR17-30" transform="translate(72.787654 0) scale(0.996264)"/>
      </g>
     </g>
    </g>
    <g id="ytick_2">
     <g id="line2d_8">
      <g>
       <use xlink:href="#macb1b6214b" x="48.56787" y="174.507582" style="stroke: #000000; stroke-width: 0.8"/>
      </g>
     </g>
     <g id="text_9">
      <!-- $\mathdefault{0.2}$ -->
      <g transform="translate(24.117288 179.35052) scale(0.14 -0.14)">
       <use xlink:href="#CMR17-30" transform="scale(0.996264)"/>
       <use xlink:href="#CMMI12-3a" transform="translate(45.690477 0) scale(0.996264)"/>
       <use xlink:href="#CMR17-32" transform="translate(72.787654 0) scale(0.996264)"/>
      </g>
     </g>
    </g>
    <g id="ytick_3">
     <g id="line2d_9">
      <g>
       <use xlink:href="#macb1b6214b" x="48.56787" y="143.53426" style="stroke: #000000; stroke-width: 0.8"/>
      </g>
     </g>
     <g id="text_10">
      <!-- $\mathdefault{0.4}$ -->
      <g transform="translate(24.117288 148.377198) scale(0.14 -0.14)">
       <use xlink:href="#CMR17-30" transform="scale(0.996264)"/>
       <use xlink:href="#CMMI12-3a" transform="translate(45.690477 0) scale(0.996264)"/>
       <use xlink:href="#CMR17-34" transform="translate(72.787654 0) scale(0.996264)"/>
      </g>
     </g>
    </g>
    <g id="ytick_4">
     <g id="line2d_10">
      <g>
       <use xlink:href="#macb1b6214b" x="48.56787" y="112.560938" style="stroke: #000000; stroke-width: 0.8"/>
      </g>
     </g>
     <g id="text_11">
      <!-- $\mathdefault{0.6}$ -->
      <g transform="translate(24.117288 117.403876) scale(0.14 -0.14)">
       <use xlink:href="#CMR17-30" transform="scale(0.996264)"/>
       <use xlink:href="#CMMI12-3a" transform="translate(45.690477 0) scale(0.996264)"/>
       <use xlink:href="#CMR17-36" transform="translate(72.787654 0) scale(0.996264)"/>
      </g>
     </g>
    </g>
    <g id="ytick_5">
     <g id="line2d_11">
      <g>
       <use xlink:href="#macb1b6214b" x="48.56787" y="81.587616" style="stroke: #000000; stroke-width: 0.8"/>
      </g>
     </g>
     <g id="text_12">
      <!-- $\mathdefault{0.8}$ -->
      <g transform="translate(24.117288 86.430554) scale(0.14 -0.14)">
       <use xlink:href="#CMR17-30" transform="scale(0.996264)"/>
       <use xlink:href="#CMMI12-3a" transform="translate(45.690477 0) scale(0.996264)"/>
       <use xlink:href="#CMR17-38" transform="translate(72.787654 0) scale(0.996264)"/>
      </g>
     </g>
    </g>
    <g id="ytick_6">
     <g id="line2d_12">
      <g>
       <use xlink:href="#macb1b6214b" x="48.56787" y="50.614294" style="stroke: #000000; stroke-width: 0.8"/>
      </g>
     </g>
     <g id="text_13">
      <!-- $\mathdefault{1.0}$ -->
      <g transform="translate(24.117288 55.457233) scale(0.14 -0.14)">
       <use xlink:href="#CMR17-31" transform="scale(0.996264)"/>
       <use xlink:href="#CMMI12-3a" transform="translate(45.690477 0) scale(0.996264)"/>
       <use xlink:href="#CMR17-30" transform="translate(72.787654 0) scale(0.996264)"/>
      </g>
     </g>
    </g>
   </g>
   <g id="line2d_13">
    <path d="M 62.255179 190.916106 
L 64.995381 190.896802 
L 66.913523 190.694344 
L 68.557644 190.303219 
L 69.927745 189.737741 
L 71.023826 189.055846 
L 72.119907 188.088086 
L 72.941967 187.112663 
L 73.764028 185.860719 
L 74.586088 184.26407 
L 75.408149 182.248627 
L 76.23021 179.745318 
L 77.32629 175.565762 
L 78.422371 170.404322 
L 79.792472 162.728 
L 84.724836 133.337356 
L 86.368957 125.463057 
L 88.013078 118.649005 
L 89.93122 111.612159 
L 93.219462 100.577817 
L 100.069967 78.395568 
L 103.084189 69.359827 
L 105.550371 62.641959 
L 107.742533 57.328073 
L 109.660674 53.251904 
L 111.578815 49.732221 
L 113.222937 47.151168 
L 114.867058 44.951974 
L 116.511179 43.107002 
L 118.1553 41.584368 
L 119.799421 40.350547 
L 121.443542 39.37227 
L 123.361684 38.511187 
L 125.279825 37.906534 
L 127.471987 37.474128 
L 129.664148 37.263131 
L 132.40435 37.237359 
L 135.692593 37.455814 
L 139.802896 37.970485 
L 146.10536 39.011365 
L 162.546572 41.798762 
L 171.315219 43.011907 
L 180.357885 44.030245 
L 189.948592 44.884424 
L 200.9094 45.634516 
L 214.33639 46.322854 
L 236.532026 47.200091 
L 259.275703 48.173347 
L 274.072793 49.032344 
L 286.951743 49.997457 
L 299.282652 51.142128 
L 311.339541 52.483304 
L 323.396429 54.044864 
L 336.001359 55.903987 
L 336.001359 55.903987 
" clip-path="url(#p9694d511cb)" style="fill: none; stroke: #b7d4ea; stroke-width: 3; stroke-linecap: square"/>
   </g>
   <g id="line2d_14">
    <path d="M 62.255179 50.60859 
L 64.447341 70.995076 
L 67.187543 94.388079 
L 73.764028 149.646487 
L 75.956189 167.450651 
L 77.32629 176.774552 
L 78.422371 182.794294 
L 79.518452 187.490837 
L 80.614533 191.005683 
L 81.436593 193.007711 
L 82.532674 195.026179 
L 83.628755 196.492431 
L 84.724836 197.575946 
L 86.094937 198.576607 
L 87.739058 199.452832 
L 89.657199 200.206528 
L 92.123381 200.92628 
L 95.411624 201.636757 
L 99.795947 202.335802 
L 105.276351 202.97284 
L 111.852836 203.509174 
L 120.073441 203.94633 
L 131.30827 204.30333 
L 148.571542 204.606944 
L 177.891704 204.874325 
L 231.051622 205.10978 
L 329.698894 205.298867 
L 336.001359 205.306025 
L 336.001359 205.306025 
" clip-path="url(#p9694d511cb)" style="fill: none; stroke-dasharray: 11.1,4.8; stroke-dashoffset: 0; stroke: #fdc38d; stroke-width: 3"/>
   </g>
   <g id="line2d_15">
    <path d="M 62.255179 190.916106 
L 65.269402 191.097751 
L 67.461563 191.017584 
L 69.105684 190.750392 
L 70.475785 190.319187 
L 71.571866 189.776494 
L 72.667947 188.986223 
L 73.764028 187.853752 
L 74.586088 186.703248 
L 75.408149 185.217932 
L 76.23021 183.316516 
L 77.05227 180.921745 
L 78.148351 176.891783 
L 79.244432 171.918757 
L 80.614533 164.520948 
L 86.094937 133.07361 
L 87.739058 125.58567 
L 89.383179 119.097187 
L 91.575341 111.472848 
L 94.589563 101.941488 
L 98.151826 91.445642 
L 101.166048 83.213771 
L 103.63223 77.05911 
L 105.824391 72.151913 
L 107.742533 68.366153 
L 109.660674 65.088648 
L 111.304795 62.685565 
L 112.948916 60.642777 
L 114.593038 58.936359 
L 116.237159 57.537048 
L 117.88128 56.413451 
L 119.525401 55.534128 
L 121.443542 54.776633 
L 123.361684 54.265359 
L 125.553845 53.93007 
L 128.020027 53.805934 
L 130.760229 53.905968 
L 134.048472 54.258833 
L 138.432795 54.974467 
L 145.2833 56.350322 
L 162.820593 59.933245 
L 173.50738 61.852054 
L 185.564269 63.786417 
L 200.63538 65.968479 
L 224.749158 69.201122 
L 261.741885 74.18679 
L 284.211541 77.453328 
L 305.859137 80.827405 
L 328.328793 84.557079 
L 336.001359 85.876922 
L 336.001359 85.876922 
" clip-path="url(#p9694d511cb)" style="fill: none; stroke: #9dcae1; stroke-width: 3; stroke-linecap: square"/>
   </g>
   <g id="line2d_16">
    <path d="M 62.255179 50.60859 
L 64.173321 69.479605 
L 66.365482 88.671787 
L 69.653725 115.08602 
L 77.05227 172.750562 
L 78.422371 180.944132 
L 79.518452 186.120461 
L 80.614533 190.102283 
L 81.436593 192.399879 
L 82.532674 194.724736 
L 83.628755 196.408516 
L 84.724836 197.634249 
L 85.820917 198.542856 
L 87.191018 199.384144 
L 88.835139 200.122516 
L 91.0273 200.837444 
L 93.767502 201.487952 
L 97.603785 202.154054 
L 102.536149 202.778754 
L 108.838613 203.349904 
L 116.785199 203.836274 
L 127.197967 204.234167 
L 141.995057 204.55992 
L 165.560795 204.835154 
L 206.663824 205.067642 
L 283.6635 205.253081 
L 336.001359 205.313508 
L 336.001359 205.313508 
" clip-path="url(#p9694d511cb)" style="fill: none; stroke-dasharray: 11.1,4.8; stroke-dashoffset: 0; stroke: #fdae6a; stroke-width: 3"/>
   </g>
   <g id="line2d_17">
    <path d="M 62.255179 190.916106 
L 65.269402 191.279753 
L 67.461563 191.311202 
L 69.105684 191.12421 
L 70.475785 190.771018 
L 71.845886 190.161169 
L 72.941967 189.411731 
L 74.038048 188.339705 
L 74.860109 187.257307 
L 75.682169 185.869211 
L 76.50423 184.105622 
L 77.32629 181.905168 
L 78.422371 178.231063 
L 79.518452 173.689167 
L 80.888553 166.877266 
L 83.080715 154.435894 
L 85.272876 142.428625 
L 86.916997 134.52639 
L 88.561119 127.575242 
L 90.47926 120.499793 
L 92.671422 113.34062 
L 95.411624 105.192704 
L 98.151826 97.706642 
L 100.892028 90.87387 
L 103.358209 85.334725 
L 105.550371 80.961814 
L 107.468512 77.607445 
L 109.386654 74.718159 
L 111.030775 72.613257 
L 112.674896 70.839334 
L 114.319017 69.375777 
L 115.963139 68.196648 
L 117.60726 67.273617 
L 119.251381 66.577977 
L 121.169522 66.016691 
L 123.087664 65.685381 
L 125.279825 65.539673 
L 127.746007 65.612808 
L 130.486209 65.917239 
L 134.048472 66.557984 
L 138.706815 67.648968 
L 146.653401 69.787174 
L 163.094613 74.225587 
L 174.877481 77.148593 
L 188.304471 80.239451 
L 204.745683 83.784122 
L 227.215339 88.383814 
L 266.400228 96.139036 
L 336.001359 109.807913 
L 336.001359 109.807913 
" clip-path="url(#p9694d511cb)" style="fill: none; stroke: #7db8da; stroke-width: 3; stroke-linecap: square"/>
   </g>
   <g id="line2d_18">
    <path d="M 62.255179 50.60859 
L 64.173321 70.003137 
L 66.091462 87.05306 
L 68.557644 106.816184 
L 76.23021 165.221342 
L 77.874331 176.01431 
L 78.970412 181.952792 
L 80.066492 186.754173 
L 81.162573 190.477374 
L 82.258654 193.272671 
L 83.354735 195.335284 
L 84.450816 196.852229 
L 85.546896 197.974033 
L 86.916997 198.994226 
L 88.287098 199.735873 
L 90.20524 200.489725 
L 92.671422 201.178507 
L 95.959664 201.834791 
L 100.343987 202.46498 
L 106.098411 203.057632 
L 113.496957 203.585098 
L 123.087664 204.029281 
L 136.240633 204.395626 
L 155.696067 204.695754 
L 187.756431 204.944803 
L 245.848713 205.145081 
L 336.001359 205.273261 
L 336.001359 205.273261 
" clip-path="url(#p9694d511cb)" style="fill: none; stroke-dasharray: 11.1,4.8; stroke-dashoffset: 0; stroke: #fd994d; stroke-width: 3"/>
   </g>
   <g id="line2d_19">
    <path d="M 62.255179 190.916106 
L 64.721361 191.251861 
L 66.639503 191.288283 
L 68.283624 191.075679 
L 69.653725 190.660441 
L 70.749806 190.119521 
L 71.845886 189.335199 
L 72.941967 188.236809 
L 74.038048 186.735013 
L 75.134129 184.722205 
L 76.23021 182.092643 
L 77.32629 178.777846 
L 78.422371 174.762944 
L 79.792472 168.848746 
L 81.984634 158.099739 
L 84.724836 144.805202 
L 86.642977 136.599842 
L 88.561119 129.371693 
L 90.75328 121.996516 
L 93.219462 114.466414 
L 96.233684 106.011722 
L 98.973886 98.96343 
L 101.440068 93.169848 
L 103.90625 87.934091 
L 106.098411 83.78115 
L 108.290573 80.13063 
L 110.208714 77.364971 
L 112.126856 75.001257 
L 114.044997 73.026934 
L 115.689118 71.626221 
L 117.60726 70.304107 
L 119.525401 69.28467 
L 121.443542 68.532962 
L 123.361684 68.015965 
L 125.553845 67.673596 
L 127.746007 67.556771 
L 130.212189 67.648553 
L 132.952391 67.972184 
L 136.240633 68.591901 
L 140.350936 69.607571 
L 146.10536 71.279854 
L 179.261805 81.293716 
L 193.510855 85.174304 
L 212.966289 90.220534 
L 288.047824 109.486045 
L 336.001359 122.059248 
L 336.001359 122.059248 
" clip-path="url(#p9694d511cb)" style="fill: none; stroke: #60a7d2; stroke-width: 3; stroke-linecap: square"/>
   </g>
   <g id="line2d_20">
    <path d="M 62.255179 50.60859 
L 64.447341 72.117537 
L 67.187543 96.673516 
L 72.941967 145.502827 
L 75.134129 162.769705 
L 76.50423 172.135537 
L 77.874331 179.899043 
L 78.970412 184.848466 
L 80.066492 188.73404 
L 81.162573 191.70092 
L 82.258654 193.933865 
L 83.354735 195.614006 
L 84.450816 196.888861 
L 85.546896 197.869103 
L 86.916997 198.801764 
L 88.561119 199.631718 
L 90.47926 200.346183 
L 92.945442 201.021338 
L 96.233684 201.67549 
L 100.618007 202.30473 
L 106.372432 202.894813 
L 113.770977 203.423808 
L 123.361684 203.88018 
L 136.514653 204.269438 
L 155.696067 204.594681 
L 186.11231 204.864153 
L 238.724188 205.081212 
L 336.001359 205.244147 
L 336.001359 205.244147 
" clip-path="url(#p9694d511cb)" style="fill: none; stroke-dasharray: 11.1,4.8; stroke-dashoffset: 0; stroke: #fa8331; stroke-width: 3"/>
   </g>
   <g id="line2d_21">
    <path d="M 62.255179 190.916106 
L 64.447341 190.952847 
L 66.091462 190.799853 
L 67.461563 190.494826 
L 68.831664 189.968117 
L 69.927745 189.341065 
L 71.023826 188.486805 
L 72.119907 187.352062 
L 73.215987 185.864554 
L 74.312068 183.943869 
L 75.408149 181.530521 
L 76.50423 178.604912 
L 77.874331 174.254377 
L 79.518452 168.172934 
L 85.272876 145.869122 
L 87.465038 138.821513 
L 89.657199 132.579602 
L 91.849361 127.047242 
L 94.589563 120.79982 
L 101.166048 106.555202 
L 105.002331 98.692082 
L 108.290573 92.453347 
L 111.304795 87.211267 
L 114.044997 82.885987 
L 116.511179 79.383694 
L 118.977361 76.271753 
L 121.169522 73.838522 
L 123.361684 71.712685 
L 125.553845 69.880377 
L 127.746007 68.323267 
L 129.938169 67.021996 
L 132.13033 65.958408 
L 134.322492 65.116461 
L 136.788674 64.416556 
L 139.254855 63.960362 
L 141.721037 63.729076 
L 144.461239 63.711842 
L 147.201441 63.91935 
L 150.215663 64.37211 
L 153.503906 65.090457 
L 157.340189 66.164531 
L 161.724512 67.625817 
L 167.204916 69.693537 
L 174.603461 72.738861 
L 186.66035 77.976159 
L 223.653077 94.146842 
L 240.094289 101.05238 
L 254.069319 106.685587 
L 266.400228 111.422928 
L 277.909076 115.611344 
L 288.869884 119.368054 
L 299.556672 122.79963 
L 310.24346 125.997694 
L 320.930248 128.963684 
L 331.891056 131.771854 
L 336.001359 132.766128 
L 336.001359 132.766128 
" clip-path="url(#p9694d511cb)" style="fill: none; stroke: #4695c8; stroke-width: 3; stroke-linecap: square"/>
   </g>
   <g id="line2d_22">
    <path d="M 62.255179 50.60859 
L 66.091462 86.159236 
L 72.941967 147.796345 
L 74.586088 160.635311 
L 75.956189 169.815284 
L 77.32629 177.376876 
L 78.422371 182.244833 
L 79.518452 186.140936 
L 80.614533 189.196711 
L 81.710614 191.568583 
L 82.806694 193.409102 
L 83.902775 194.847455 
L 85.272876 196.231042 
L 86.642977 197.286378 
L 88.287098 198.256965 
L 90.20524 199.117027 
L 92.671422 199.946311 
L 95.685644 200.69673 
L 99.521927 201.400277 
L 104.45429 202.060769 
L 110.756755 202.669764 
L 118.977361 203.23021 
L 129.664148 203.723505 
L 143.913199 204.142601 
L 163.916673 204.490519 
L 194.606936 204.780946 
L 245.574693 205.017913 
L 336.001359 205.203317 
L 336.001359 205.203317 
" clip-path="url(#p9694d511cb)" style="fill: none; stroke-dasharray: 11.1,4.8; stroke-dashoffset: 0; stroke: #f26d17; stroke-width: 3"/>
   </g>
   <g id="line2d_23">
    <path d="M 62.255179 190.916106 
L 64.721361 190.653155 
L 66.639503 190.230908 
L 68.283624 189.627887 
L 69.653725 188.887105 
L 71.023826 187.873707 
L 72.393927 186.531234 
L 73.490008 185.168914 
L 74.586088 183.501664 
L 75.956189 180.947056 
L 77.32629 177.878127 
L 78.970412 173.609584 
L 81.162573 167.236313 
L 84.998856 156.014393 
L 86.642977 151.907213 
L 88.287098 148.429894 
L 89.657199 145.997605 
L 91.301321 143.55729 
L 92.945442 141.53445 
L 94.863583 139.57389 
L 96.781725 137.936744 
L 98.973886 136.362256 
L 101.440068 134.864042 
L 105.002331 132.988331 
L 111.852836 129.43298 
L 115.141078 127.464565 
L 118.1553 125.39294 
L 120.895502 123.234953 
L 123.635704 120.78938 
L 126.375906 118.057313 
L 129.664148 114.438897 
L 133.500431 109.853051 
L 139.528876 102.229987 
L 146.10536 94.003322 
L 149.941643 89.543928 
L 153.229886 86.043482 
L 156.244108 83.155082 
L 158.98431 80.829602 
L 161.450492 78.999787 
L 163.916673 77.429624 
L 166.382855 76.123461 
L 168.849037 75.080365 
L 171.315219 74.294614 
L 173.781401 73.756497 
L 176.247582 73.453128 
L 178.713764 73.369433 
L 181.453966 73.514042 
L 184.194168 73.886088 
L 187.20839 74.529971 
L 190.496633 75.478137 
L 194.058895 76.752657 
L 197.895178 78.363851 
L 202.279501 80.44587 
L 207.759905 83.31243 
L 215.158451 87.461476 
L 233.517804 97.861885 
L 240.642329 101.58531 
L 247.218814 104.775454 
L 253.795299 107.713036 
L 260.371784 110.402042 
L 267.222289 112.95638 
L 274.346814 115.373402 
L 282.019379 117.739931 
L 290.514005 120.120297 
L 299.830692 122.495633 
L 310.51748 124.981211 
L 322.574369 127.549267 
L 336.001359 130.1843 
L 336.001359 130.1843 
" clip-path="url(#p9694d511cb)" style="fill: none; stroke: #3181bd; stroke-width: 3; stroke-linecap: square"/>
   </g>
   <g id="line2d_24">
    <path d="M 62.255179 50.60859 
L 68.831664 104.773211 
L 73.215987 141.06038 
L 75.134129 155.079413 
L 76.77825 165.369588 
L 78.148351 172.525015 
L 79.518452 178.375003 
L 80.614533 182.176391 
L 81.710614 185.28939 
L 82.806694 187.819033 
L 83.902775 189.870844 
L 85.272876 191.906034 
L 86.642977 193.491116 
L 88.013078 194.74045 
L 89.657199 195.915536 
L 91.575341 196.970904 
L 93.767502 197.896217 
L 96.507704 198.7799 
L 99.795947 199.58771 
L 103.90625 200.357852 
L 109.112634 201.098666 
L 115.689118 201.804909 
L 124.183744 202.484588 
L 134.870532 203.108533 
L 148.023502 203.6472 
L 164.464714 204.085411 
L 186.93437 204.442837 
L 222.008956 204.756287 
L 280.101238 205.032676 
L 336.001359 205.179247 
L 336.001359 205.179247 
" clip-path="url(#p9694d511cb)" style="fill: none; stroke-dasharray: 11.1,4.8; stroke-dashoffset: 0; stroke: #e4580a; stroke-width: 3"/>
   </g>
   <g id="line2d_25">
    <path d="M 62.255179 190.916106 
L 64.995381 190.696882 
L 67.187543 190.299853 
L 69.105684 189.721651 
L 70.749806 188.996857 
L 72.393927 188.012351 
L 74.038048 186.727465 
L 75.408149 185.394037 
L 76.77825 183.787087 
L 78.148351 181.877201 
L 79.792472 179.165974 
L 81.436593 176.026313 
L 83.902775 170.758089 
L 88.013078 161.857484 
L 89.93122 158.26586 
L 91.575341 155.68125 
L 92.945442 153.923942 
L 94.315543 152.540614 
L 95.685644 151.523448 
L 96.781725 150.957764 
L 97.877805 150.594136 
L 99.247906 150.393874 
L 100.618007 150.439424 
L 101.988108 150.693076 
L 103.63223 151.223873 
L 105.550371 152.089691 
L 108.016553 153.485476 
L 111.304795 155.645356 
L 120.621482 161.934339 
L 123.909724 163.80627 
L 126.923946 165.258837 
L 129.664148 166.336359 
L 132.40435 167.16953 
L 135.144552 167.751884 
L 137.610734 168.060217 
L 140.350936 168.16583 
L 143.091138 168.029437 
L 145.83134 167.663407 
L 148.845562 167.01576 
L 151.859785 166.138327 
L 155.148027 164.955634 
L 158.98431 163.331984 
L 163.368633 161.2265 
L 168.575017 158.464899 
L 174.055421 155.308271 
L 179.535825 151.901979 
L 184.742209 148.407851 
L 189.674572 144.836125 
L 194.606936 140.997325 
L 200.08734 136.445513 
L 208.307946 129.279311 
L 215.706491 122.933707 
L 220.364834 119.235519 
L 224.201117 116.464507 
L 227.76338 114.162464 
L 231.051622 112.295374 
L 234.339865 110.689682 
L 237.628107 109.349245 
L 240.916349 108.268977 
L 244.204592 107.4365 
L 247.492834 106.833768 
L 251.055097 106.414913 
L 254.89138 106.202854 
L 259.001683 106.20939 
L 263.660026 106.456036 
L 268.86641 106.96731 
L 274.894854 107.789162 
L 282.293399 109.028864 
L 292.158127 110.921679 
L 307.503258 114.121147 
L 336.001359 120.175664 
L 336.001359 120.175664 
" clip-path="url(#p9694d511cb)" style="fill: none; stroke: #1d6cb1; stroke-width: 3; stroke-linecap: square"/>
   </g>
   <g id="line2d_26">
    <path d="M 62.255179 50.60859 
L 66.091462 74.744661 
L 69.653725 98.591282 
L 76.23021 143.25344 
L 78.148351 154.608907 
L 79.792472 163.112199 
L 81.162573 169.22618 
L 82.532674 174.449499 
L 83.902775 178.825384 
L 85.272876 182.433189 
L 86.642977 185.37726 
L 88.013078 187.769893 
L 89.383179 189.715813 
L 90.75328 191.304349 
L 92.397401 192.840353 
L 94.041523 194.0647 
L 95.959664 195.198522 
L 98.151826 196.211761 
L 100.618007 197.09924 
L 103.63223 197.93884 
L 107.468512 198.754345 
L 112.126856 199.505618 
L 118.1553 200.24069 
L 125.827866 200.944127 
L 135.966613 201.640861 
L 149.941643 202.363726 
L 168.575017 203.097595 
L 191.044673 203.755092 
L 217.350612 204.299344 
L 246.396753 204.672388 
L 288.869884 204.968484 
L 336.001359 205.15471 
L 336.001359 205.15471 
" clip-path="url(#p9694d511cb)" style="fill: none; stroke-dasharray: 11.1,4.8; stroke-dashoffset: 0; stroke: #d14501; stroke-width: 3"/>
   </g>
   <g id="line2d_27">
    <path d="M 62.255179 190.916106 
L 65.543422 190.758949 
L 68.283624 190.428628 
L 70.749806 189.923918 
L 72.941967 189.257548 
L 74.860109 188.465086 
L 76.77825 187.443439 
L 78.696391 186.161267 
L 80.614533 184.582915 
L 82.532674 182.668573 
L 84.450816 180.386771 
L 86.368957 177.742855 
L 88.835139 173.931856 
L 94.315543 165.288944 
L 96.233684 162.715253 
L 97.877805 160.83405 
L 99.521927 159.297062 
L 100.892028 158.300647 
L 102.262129 157.572076 
L 103.63223 157.109942 
L 105.002331 156.903136 
L 106.372432 156.932688 
L 107.742533 157.174502 
L 109.386654 157.70744 
L 111.304795 158.605585 
L 113.496957 159.91274 
L 116.237159 161.837799 
L 120.347462 165.048556 
L 128.568068 171.525205 
L 132.678371 174.452843 
L 136.514653 176.909443 
L 140.076916 178.93643 
L 143.639179 180.718657 
L 147.201441 182.263638 
L 151.037724 183.675549 
L 154.874007 184.843345 
L 158.71029 185.786478 
L 162.820593 186.571362 
L 167.204916 187.181133 
L 171.863259 187.609171 
L 177.343663 187.878264 
L 183.646128 187.957051 
L 192.414774 187.824473 
L 225.023178 187.143204 
L 249.684996 186.764884 
L 259.549723 186.369439 
L 267.496309 185.833013 
L 274.346814 185.146961 
L 280.101238 184.357629 
L 285.307622 183.429547 
L 289.965965 182.387072 
L 294.350288 181.187312 
L 298.460591 179.839813 
L 302.570894 178.250492 
L 306.407177 176.529856 
L 310.24346 174.566146 
L 314.079743 172.348518 
L 317.916025 169.867135 
L 321.752308 167.112706 
L 325.588591 164.078937 
L 329.424874 160.76816 
L 333.535177 156.93488 
L 336.001359 154.512713 
L 336.001359 154.512713 
" clip-path="url(#p9694d511cb)" style="fill: none; stroke: #0e58a2; stroke-width: 3; stroke-linecap: square"/>
   </g>
   <g id="line2d_28">
    <path d="M 62.255179 50.60859 
L 66.091462 68.187501 
L 69.653725 85.587288 
L 73.490008 105.49839 
L 80.888553 144.315648 
L 83.080715 154.495299 
L 84.998856 162.41811 
L 86.642977 168.377806 
L 88.287098 173.548717 
L 89.93122 177.95265 
L 91.575341 181.641463 
L 92.945442 184.223538 
L 94.589563 186.809986 
L 96.233684 188.926163 
L 97.877805 190.658568 
L 99.521927 192.081208 
L 101.440068 193.429864 
L 103.358209 194.515959 
L 105.550371 195.511704 
L 108.016553 196.398747 
L 111.030775 197.244271 
L 114.593038 198.013668 
L 119.251381 198.779006 
L 125.005805 199.492031 
L 132.40435 200.180782 
L 142.269078 200.863809 
L 155.696067 201.553534 
L 173.781401 202.24814 
L 197.895178 202.94133 
L 227.76338 203.570605 
L 264.756107 204.11775 
L 315.723864 204.630434 
L 336.001359 204.788813 
L 336.001359 204.788813 
" clip-path="url(#p9694d511cb)" style="fill: none; stroke-dasharray: 11.1,4.8; stroke-dashoffset: 0; stroke: #b13a03; stroke-width: 3"/>
   </g>
   <g id="line2d_29">
    <path d="M 62.255179 190.916106 
L 66.913523 190.778793 
L 71.023826 190.454182 
L 74.586088 189.969178 
L 77.874331 189.300279 
L 80.888553 188.453748 
L 83.628755 187.453287 
L 86.094937 186.332809 
L 88.561119 184.965223 
L 90.75328 183.503146 
L 92.945442 181.775718 
L 95.411624 179.51364 
L 98.699866 176.141229 
L 102.810169 171.980524 
L 105.276351 169.811577 
L 107.468512 168.193774 
L 109.386654 167.068352 
L 111.030775 166.349674 
L 112.674896 165.873616 
L 114.319017 165.641125 
L 115.963139 165.639819 
L 117.60726 165.847225 
L 119.525401 166.315216 
L 121.717563 167.089546 
L 124.457765 168.317594 
L 128.294047 170.322962 
L 140.624956 176.965447 
L 145.2833 179.128417 
L 149.667623 180.921976 
L 154.051946 182.479207 
L 158.436269 183.806683 
L 162.820593 184.913561 
L 167.478936 185.859267 
L 172.137279 186.581028 
L 177.069643 187.119195 
L 182.276027 187.460191 
L 188.030451 187.603179 
L 194.332916 187.530949 
L 202.005481 187.20599 
L 212.692269 186.504555 
L 232.969764 185.149278 
L 243.382531 184.70721 
L 254.069319 184.479083 
L 266.674248 184.442702 
L 288.321844 184.651151 
L 307.777278 184.744393 
L 320.930248 184.5884 
L 332.439096 184.23588 
L 336.001359 184.078373 
L 336.001359 184.078373 
" clip-path="url(#p9694d511cb)" style="fill: none; stroke: #084488; stroke-width: 3; stroke-linecap: square"/>
   </g>
   <g id="line2d_30">
    <path d="M 62.255179 50.60859 
L 68.557644 72.067054 
L 73.215987 88.69778 
L 77.600311 105.16023 
L 84.998856 134.070717 
L 88.835139 148.519996 
L 91.575341 158.017428 
L 93.767502 164.886565 
L 95.685644 170.267326 
L 97.603785 175.019684 
L 99.521927 179.13794 
L 101.166048 182.178424 
L 102.810169 184.794987 
L 104.45429 187.0253 
L 106.098411 188.914294 
L 108.016553 190.749925 
L 109.934694 192.25694 
L 111.852836 193.497577 
L 114.044997 194.654854 
L 116.511179 195.697045 
L 119.251381 196.611094 
L 122.539623 197.462483 
L 126.375906 198.222222 
L 131.30827 198.959291 
L 137.610734 199.661174 
L 145.83134 200.343515 
L 157.066168 201.040605 
L 172.4113 201.754326 
L 192.688794 202.46337 
L 218.994733 203.1502 
L 251.329117 203.763667 
L 290.788026 204.281221 
L 336.001359 204.674659 
L 336.001359 204.674659 
" clip-path="url(#p9694d511cb)" style="fill: none; stroke-dasharray: 11.1,4.8; stroke-dashoffset: 0; stroke: #963003; stroke-width: 3"/>
   </g>
   <g id="line2d_31">
    <path d="M 62.255179 190.916106 
L 80.066492 191.226099 
L 87.465038 191.18592 
L 92.397401 190.945301 
L 96.233684 190.551797 
L 99.521927 190.012984 
L 102.810169 189.241885 
L 105.824391 188.312563 
L 109.112634 187.06087 
L 114.044997 184.897151 
L 118.977361 182.7956 
L 121.717563 181.85573 
L 124.183744 181.24625 
L 126.375906 180.91719 
L 128.842088 180.778991 
L 131.30827 180.856703 
L 134.322492 181.18595 
L 137.884754 181.809736 
L 143.365158 183.024607 
L 153.503906 185.286583 
L 159.80637 186.439399 
L 165.834815 187.32041 
L 171.863259 187.985617 
L 177.891704 188.431307 
L 183.920148 188.650795 
L 189.948592 188.644757 
L 196.251057 188.414607 
L 203.375582 187.924525 
L 212.144228 187.087036 
L 231.051622 184.977297 
L 244.204592 183.653824 
L 255.1654 182.778708 
L 265.852188 182.149777 
L 277.361036 181.699527 
L 290.788026 181.405954 
L 309.96944 181.235083 
L 336.001359 181.047484 
L 336.001359 181.047484 
" clip-path="url(#p9694d511cb)" style="fill: none; stroke: #08306b; stroke-width: 3; stroke-linecap: square"/>
   </g>
   <g id="line2d_32">
    <path d="M 62.255179 50.60859 
L 68.557644 66.93867 
L 83.628755 105.675085 
L 88.561119 119.187297 
L 94.315543 135.641005 
L 101.440068 155.984587 
L 104.45429 163.946448 
L 106.920472 169.88982 
L 109.112634 174.638831 
L 111.304795 178.837601 
L 113.222937 182.050149 
L 115.141078 184.841411 
L 117.059219 187.234167 
L 118.977361 189.262114 
L 120.895502 190.966714 
L 122.813643 192.392971 
L 125.005805 193.73861 
L 127.471987 194.960033 
L 130.212189 196.035327 
L 133.226411 196.9614 
L 136.788674 197.806546 
L 141.172997 198.594101 
L 146.653401 199.328577 
L 153.777926 200.036294 
L 163.094613 200.724033 
L 175.699542 201.419474 
L 192.688794 202.121924 
L 215.158451 202.817407 
L 243.382531 203.46192 
L 278.183096 204.025755 
L 321.752308 204.49817 
L 336.001359 204.613825 
L 336.001359 204.613825 
" clip-path="url(#p9694d511cb)" style="fill: none; stroke-dasharray: 11.1,4.8; stroke-dashoffset: 0; stroke: #7f2704; stroke-width: 3"/>
   </g>
   <g id="patch_3">
    <path d="M 48.56787 213.718154 
L 48.56787 28.815931 
" style="fill: none; stroke: #000000; stroke-width: 0.8; stroke-linejoin: miter; stroke-linecap: square"/>
   </g>
   <g id="patch_4">
    <path d="M 349.688667 213.718154 
L 349.688667 28.815931 
" style="fill: none; stroke: #000000; stroke-width: 0.8; stroke-linejoin: miter; stroke-linecap: square"/>
   </g>
   <g id="patch_5">
    <path d="M 48.56787 213.718154 
L 349.688667 213.718154 
" style="fill: none; stroke: #000000; stroke-width: 0.8; stroke-linejoin: miter; stroke-linecap: square"/>
   </g>
   <g id="patch_6">
    <path d="M 48.56787 28.815931 
L 349.688667 28.815931 
" style="fill: none; stroke: #000000; stroke-width: 0.8; stroke-linejoin: miter; stroke-linecap: square"/>
   </g>
   <g id="legend_1">
    <g id="line2d_33">
     <path d="M 362.288667 46.976703 
L 376.288667 46.976703 
L 389.542964 46.976703 
" style="fill: none; stroke: #b7d4ea; stroke-width: 3; stroke-linecap: square"/>
    </g>
    <g id="text_14">
     <!-- $P_{int}$ (A = 0.0) -->
     <g transform="translate(401.488667 51.876703) scale(0.14 -0.14)">
      <defs>
       <path id="CMMI12-50" d="M 1894 2023 
L 2970 2023 
C 3853 2023 4736 2673 4736 3401 
C 4736 3898 4314 4352 3507 4352 
L 1530 4352 
C 1408 4352 1350 4352 1350 4231 
C 1350 4167 1408 4167 1504 4167 
C 1894 4167 1894 4116 1894 4046 
C 1894 4034 1894 3995 1869 3899 
L 1005 472 
C 947 249 934 185 486 185 
C 365 185 301 185 301 70 
C 301 0 358 0 397 0 
C 518 0 646 0 768 0 
L 1517 0 
C 1638 0 1773 0 1894 0 
C 1946 0 2016 0 2016 121 
C 2016 185 1958 185 1862 185 
C 1478 185 1472 230 1472 293 
C 1472 325 1478 369 1485 401 
L 1894 2023 
z
M 2355 3930 
C 2413 4167 2438 4167 2688 4167 
L 3322 4167 
C 3802 4167 4198 4013 4198 3535 
C 4198 3369 4115 2827 3821 2534 
C 3712 2419 3405 2176 2822 2176 
L 1920 2176 
L 2355 3930 
z
" transform="scale(0.015625)"/>
       <path id="CMMI12-69" d="M 1811 913 
C 1811 945 1786 971 1747 971 
C 1690 971 1683 952 1651 843 
C 1485 262 1222 64 1011 64 
C 934 64 845 83 845 275 
C 845 447 922 639 992 830 
L 1440 2018 
C 1459 2069 1504 2184 1504 2305 
C 1504 2574 1312 2816 998 2816 
C 410 2816 173 1890 173 1839 
C 173 1814 198 1782 243 1782 
C 301 1782 307 1807 333 1896 
C 486 2428 730 2682 979 2682 
C 1037 2682 1146 2682 1146 2478 
C 1146 2312 1062 2101 1011 1961 
L 563 773 
C 525 671 486 568 486 453 
C 486 166 685 -64 992 -64 
C 1581 -64 1811 869 1811 913 
z
M 1760 4013 
C 1760 4109 1683 4224 1542 4224 
C 1395 4224 1229 4083 1229 3917 
C 1229 3758 1363 3707 1440 3707 
C 1613 3707 1760 3873 1760 4013 
z
" transform="scale(0.015625)"/>
       <path id="CMMI12-6e" d="M 1318 1871 
C 1331 1910 1491 2229 1728 2433 
C 1894 2586 2112 2689 2362 2689 
C 2618 2689 2707 2497 2707 2242 
C 2707 1878 2445 1150 2317 805 
C 2259 651 2227 568 2227 453 
C 2227 166 2426 -64 2733 -64 
C 3328 -64 3552 875 3552 913 
C 3552 945 3526 971 3488 971 
C 3430 971 3424 952 3392 843 
C 3245 319 3002 64 2752 64 
C 2688 64 2586 64 2586 269 
C 2586 429 2656 621 2694 710 
C 2822 1063 3091 1780 3091 2145 
C 3091 2528 2867 2816 2381 2816 
C 1811 2816 1510 2415 1395 2255 
C 1376 2618 1114 2816 832 2816 
C 627 2816 486 2695 378 2478 
C 262 2248 173 1865 173 1839 
C 173 1814 198 1782 243 1782 
C 294 1782 301 1788 339 1935 
C 442 2325 557 2689 813 2689 
C 960 2689 1011 2586 1011 2395 
C 1011 2254 947 2005 902 1807 
L 723 1118 
C 698 996 627 709 595 594 
C 550 428 480 128 480 96 
C 480 6 550 -64 646 -64 
C 723 -64 813 -26 864 70 
C 877 102 934 326 966 453 
L 1107 1028 
L 1318 1871 
z
" transform="scale(0.015625)"/>
       <path id="CMMI12-74" d="M 1286 2566 
L 1875 2566 
C 1997 2566 2061 2566 2061 2681 
C 2061 2752 2022 2752 1894 2752 
L 1331 2752 
L 1568 3692 
C 1594 3781 1594 3794 1594 3840 
C 1594 3943 1510 4000 1427 4000 
C 1376 4000 1229 3981 1178 3775 
L 928 2752 
L 326 2752 
C 198 2752 141 2752 141 2630 
C 141 2566 186 2566 307 2566 
L 877 2566 
L 454 881 
C 403 658 384 594 384 511 
C 384 211 595 -64 954 -64 
C 1600 -64 1946 868 1946 912 
C 1946 951 1920 970 1882 970 
C 1869 970 1843 970 1830 944 
C 1824 938 1818 931 1773 829 
C 1638 511 1344 64 973 64 
C 781 64 768 224 768 364 
C 768 370 768 492 787 568 
L 1286 2566 
z
" transform="scale(0.015625)"/>
       <path id="CMR17-28" d="M 1958 -1561 
C 1958 -1555 1958 -1542 1939 -1523 
C 1645 -1224 858 -407 858 1581 
C 858 3569 1632 4379 1946 4697 
C 1946 4704 1958 4717 1958 4736 
C 1958 4755 1939 4768 1914 4768 
C 1843 4768 1299 4296 986 3594 
C 666 2887 576 2199 576 1588 
C 576 1128 621 351 1005 -471 
C 1312 -1135 1837 -1600 1914 -1600 
C 1946 -1600 1958 -1587 1958 -1561 
z
" transform="scale(0.015625)"/>
       <path id="CMR17-41" d="M 2323 4378 
C 2291 4461 2278 4480 2214 4480 
C 2150 4480 2138 4461 2106 4378 
L 749 566 
C 627 223 371 153 147 153 
L 147 -13 
C 262 0 518 0 640 0 
C 800 0 1056 0 1210 -13 
L 1210 153 
C 909 153 864 361 864 439 
C 864 497 877 530 890 569 
L 1229 1536 
L 2906 1536 
L 3290 442 
C 3322 365 3322 352 3322 327 
C 3322 153 3046 153 2925 153 
L 2925 0 
C 3110 0 3443 0 3642 0 
C 3808 0 4128 0 4282 -13 
L 4282 153 
C 3942 153 3827 153 3744 387 
L 2323 4378 
z
M 2067 3893 
L 2848 1702 
L 1286 1702 
L 2067 3893 
z
" transform="scale(0.015625)"/>
       <path id="CMR17-3d" d="M 4115 2017 
C 4211 2017 4307 2017 4307 2125 
C 4307 2240 4198 2240 4090 2240 
L 512 2240 
C 403 2240 294 2240 294 2125 
C 294 2017 390 2017 486 2017 
L 4115 2017 
z
M 4090 896 
C 4198 896 4307 896 4307 1011 
C 4307 1119 4211 1119 4115 1119 
L 486 1119 
C 390 1119 294 1119 294 1011 
C 294 896 403 896 512 896 
L 4090 896 
z
" transform="scale(0.015625)"/>
       <path id="CMR17-2e" d="M 1062 261 
C 1062 420 934 522 800 522 
C 672 522 538 420 538 261 
C 538 102 666 0 800 0 
C 928 0 1062 102 1062 261 
z
" transform="scale(0.015625)"/>
       <path id="CMR17-29" d="M 1683 1581 
C 1683 2040 1638 2817 1254 3639 
C 947 4303 422 4768 346 4768 
C 326 4768 301 4761 301 4729 
C 301 4717 307 4710 314 4697 
C 621 4378 1402 3568 1402 1584 
C 1402 -407 627 -1217 314 -1537 
C 307 -1549 301 -1556 301 -1568 
C 301 -1600 326 -1600 346 -1600 
C 416 -1600 960 -1128 1274 -426 
C 1594 281 1683 969 1683 1581 
z
" transform="scale(0.015625)"/>
      </defs>
      <use xlink:href="#CMMI12-50" transform="scale(0.996264)"/>
      <use xlink:href="#CMMI12-69" transform="translate(62.877232 -14.943915) scale(0.697382)"/>
      <use xlink:href="#CMMI12-6e" transform="translate(86.17214 -14.943915) scale(0.697382)"/>
      <use xlink:href="#CMMI12-74" transform="translate(126.932983 -14.943915) scale(0.697382)"/>
      <use xlink:href="#CMR17-28" transform="translate(182.165391 0) scale(0.996264)"/>
      <use xlink:href="#CMR17-41" transform="translate(217.446158 0) scale(0.996264)"/>
      <use xlink:href="#CMR17-3d" transform="translate(316.594554 0) scale(0.996264)"/>
      <use xlink:href="#CMR17-30" transform="translate(418.385309 0) scale(0.996264)"/>
      <use xlink:href="#CMR17-2e" transform="translate(464.075786 0) scale(0.996264)"/>
      <use xlink:href="#CMR17-30" transform="translate(488.946845 0) scale(0.996264)"/>
      <use xlink:href="#CMR17-29" transform="translate(534.637322 0) scale(0.996264)"/>
     </g>
    </g>
    <g id="line2d_34">
     <path d="M 362.288667 67.924399 
L 376.288667 67.924399 
L 389.542964 67.924399 
" style="fill: none; stroke-dasharray: 11.1,4.8; stroke-dashoffset: 0; stroke: #fdc38d; stroke-width: 3"/>
    </g>
    <g id="text_15">
     <!-- $S_{int}$ (A = 0.0) -->
     <g transform="translate(401.488667 72.824399) scale(0.14 -0.14)">
      <defs>
       <path id="CMMI12-53" d="M 4064 4423 
C 4064 4480 4019 4480 4006 4480 
C 3981 4480 3974 4474 3898 4378 
C 3859 4333 3597 4001 3590 3995 
C 3379 4410 2957 4480 2688 4480 
C 1875 4480 1139 3743 1139 3025 
C 1139 2549 1427 2269 1741 2161 
C 1811 2135 2189 2033 2381 1989 
C 2707 1900 2790 1875 2925 1735 
C 2950 1703 3078 1557 3078 1258 
C 3078 667 2528 57 1888 57 
C 1363 57 781 280 781 991 
C 781 1112 806 1265 826 1328 
C 826 1348 832 1378 832 1391 
C 832 1417 819 1449 768 1449 
C 710 1449 704 1436 678 1328 
L 352 24 
C 352 18 326 -64 326 -71 
C 326 -128 378 -128 390 -128 
C 416 -128 422 -122 499 -26 
L 794 356 
C 947 126 1280 -128 1875 -128 
C 2701 -128 3456 666 3456 1460 
C 3456 1728 3392 1963 3149 2197 
C 3014 2331 2899 2363 2310 2516 
C 1882 2630 1824 2649 1709 2751 
C 1600 2858 1517 3011 1517 3227 
C 1517 3761 2061 4308 2669 4308 
C 3296 4308 3590 3926 3590 3323 
C 3590 3158 3558 2986 3558 2961 
C 3558 2903 3610 2903 3629 2903 
C 3686 2903 3693 2922 3718 3024 
L 4064 4423 
z
" transform="scale(0.015625)"/>
      </defs>
      <use xlink:href="#CMMI12-53" transform="scale(0.996264)"/>
      <use xlink:href="#CMMI12-69" transform="translate(59.994488 -14.943915) scale(0.697382)"/>
      <use xlink:href="#CMMI12-6e" transform="translate(83.289395 -14.943915) scale(0.697382)"/>
      <use xlink:href="#CMMI12-74" transform="translate(124.050238 -14.943915) scale(0.697382)"/>
      <use xlink:href="#CMR17-28" transform="translate(179.282646 0) scale(0.996264)"/>
      <use xlink:href="#CMR17-41" transform="translate(214.563414 0) scale(0.996264)"/>
      <use xlink:href="#CMR17-3d" transform="translate(313.71181 0) scale(0.996264)"/>
      <use xlink:href="#CMR17-30" transform="translate(415.502565 0) scale(0.996264)"/>
      <use xlink:href="#CMR17-2e" transform="translate(461.193042 0) scale(0.996264)"/>
      <use xlink:href="#CMR17-30" transform="translate(486.0641 0) scale(0.996264)"/>
      <use xlink:href="#CMR17-29" transform="translate(531.754578 0) scale(0.996264)"/>
     </g>
    </g>
    <g id="line2d_35">
     <path d="M 362.288667 88.872095 
L 376.288667 88.872095 
L 389.542964 88.872095 
" style="fill: none; stroke: #9dcae1; stroke-width: 3; stroke-linecap: square"/>
    </g>
    <g id="text_16">
     <!-- $P_{int}$ (A = 0.11) -->
     <g transform="translate(401.488667 93.772095) scale(0.14 -0.14)">
      <use xlink:href="#CMMI12-50" transform="scale(0.996264)"/>
      <use xlink:href="#CMMI12-69" transform="translate(62.877232 -14.943915) scale(0.697382)"/>
      <use xlink:href="#CMMI12-6e" transform="translate(86.17214 -14.943915) scale(0.697382)"/>
      <use xlink:href="#CMMI12-74" transform="translate(126.932983 -14.943915) scale(0.697382)"/>
      <use xlink:href="#CMR17-28" transform="translate(182.165391 0) scale(0.996264)"/>
      <use xlink:href="#CMR17-41" transform="translate(217.446158 0) scale(0.996264)"/>
      <use xlink:href="#CMR17-3d" transform="translate(316.594554 0) scale(0.996264)"/>
      <use xlink:href="#CMR17-30" transform="translate(418.385309 0) scale(0.996264)"/>
      <use xlink:href="#CMR17-2e" transform="translate(464.075786 0) scale(0.996264)"/>
      <use xlink:href="#CMR17-31" transform="translate(488.946845 0) scale(0.996264)"/>
      <use xlink:href="#CMR17-31" transform="translate(534.637322 0) scale(0.996264)"/>
      <use xlink:href="#CMR17-29" transform="translate(580.327799 0) scale(0.996264)"/>
     </g>
    </g>
    <g id="line2d_36">
     <path d="M 362.288667 109.819791 
L 376.288667 109.819791 
L 389.542964 109.819791 
" style="fill: none; stroke-dasharray: 11.1,4.8; stroke-dashoffset: 0; stroke: #fdae6a; stroke-width: 3"/>
    </g>
    <g id="text_17">
     <!-- $S_{int}$ (A = 0.11) -->
     <g transform="translate(401.488667 114.719791) scale(0.14 -0.14)">
      <use xlink:href="#CMMI12-53" transform="scale(0.996264)"/>
      <use xlink:href="#CMMI12-69" transform="translate(59.994488 -14.943915) scale(0.697382)"/>
      <use xlink:href="#CMMI12-6e" transform="translate(83.289395 -14.943915) scale(0.697382)"/>
      <use xlink:href="#CMMI12-74" transform="translate(124.050238 -14.943915) scale(0.697382)"/>
      <use xlink:href="#CMR17-28" transform="translate(179.282646 0) scale(0.996264)"/>
      <use xlink:href="#CMR17-41" transform="translate(214.563414 0) scale(0.996264)"/>
      <use xlink:href="#CMR17-3d" transform="translate(313.71181 0) scale(0.996264)"/>
      <use xlink:href="#CMR17-30" transform="translate(415.502565 0) scale(0.996264)"/>
      <use xlink:href="#CMR17-2e" transform="translate(461.193042 0) scale(0.996264)"/>
      <use xlink:href="#CMR17-31" transform="translate(486.0641 0) scale(0.996264)"/>
      <use xlink:href="#CMR17-31" transform="translate(531.754578 0) scale(0.996264)"/>
      <use xlink:href="#CMR17-29" transform="translate(577.445055 0) scale(0.996264)"/>
     </g>
    </g>
    <g id="line2d_37">
     <path d="M 362.288667 130.767488 
L 376.288667 130.767488 
L 389.542964 130.767488 
" style="fill: none; stroke: #7db8da; stroke-width: 3; stroke-linecap: square"/>
    </g>
    <g id="text_18">
     <!-- $P_{int}$ (A = 0.22) -->
     <g transform="translate(401.488667 135.667488) scale(0.14 -0.14)">
      <use xlink:href="#CMMI12-50" transform="scale(0.996264)"/>
      <use xlink:href="#CMMI12-69" transform="translate(62.877232 -14.943915) scale(0.697382)"/>
      <use xlink:href="#CMMI12-6e" transform="translate(86.17214 -14.943915) scale(0.697382)"/>
      <use xlink:href="#CMMI12-74" transform="translate(126.932983 -14.943915) scale(0.697382)"/>
      <use xlink:href="#CMR17-28" transform="translate(182.165391 0) scale(0.996264)"/>
      <use xlink:href="#CMR17-41" transform="translate(217.446158 0) scale(0.996264)"/>
      <use xlink:href="#CMR17-3d" transform="translate(316.594554 0) scale(0.996264)"/>
      <use xlink:href="#CMR17-30" transform="translate(418.385309 0) scale(0.996264)"/>
      <use xlink:href="#CMR17-2e" transform="translate(464.075786 0) scale(0.996264)"/>
      <use xlink:href="#CMR17-32" transform="translate(488.946845 0) scale(0.996264)"/>
      <use xlink:href="#CMR17-32" transform="translate(534.637322 0) scale(0.996264)"/>
      <use xlink:href="#CMR17-29" transform="translate(580.327799 0) scale(0.996264)"/>
     </g>
    </g>
    <g id="line2d_38">
     <path d="M 362.288667 151.715184 
L 376.288667 151.715184 
L 389.542964 151.715184 
" style="fill: none; stroke-dasharray: 11.1,4.8; stroke-dashoffset: 0; stroke: #fd994d; stroke-width: 3"/>
    </g>
    <g id="text_19">
     <!-- $S_{int}$ (A = 0.22) -->
     <g transform="translate(401.488667 156.615184) scale(0.14 -0.14)">
      <use xlink:href="#CMMI12-53" transform="scale(0.996264)"/>
      <use xlink:href="#CMMI12-69" transform="translate(59.994488 -14.943915) scale(0.697382)"/>
      <use xlink:href="#CMMI12-6e" transform="translate(83.289395 -14.943915) scale(0.697382)"/>
      <use xlink:href="#CMMI12-74" transform="translate(124.050238 -14.943915) scale(0.697382)"/>
      <use xlink:href="#CMR17-28" transform="translate(179.282646 0) scale(0.996264)"/>
      <use xlink:href="#CMR17-41" transform="translate(214.563414 0) scale(0.996264)"/>
      <use xlink:href="#CMR17-3d" transform="translate(313.71181 0) scale(0.996264)"/>
      <use xlink:href="#CMR17-30" transform="translate(415.502565 0) scale(0.996264)"/>
      <use xlink:href="#CMR17-2e" transform="translate(461.193042 0) scale(0.996264)"/>
      <use xlink:href="#CMR17-32" transform="translate(486.0641 0) scale(0.996264)"/>
      <use xlink:href="#CMR17-32" transform="translate(531.754578 0) scale(0.996264)"/>
      <use xlink:href="#CMR17-29" transform="translate(577.445055 0) scale(0.996264)"/>
     </g>
    </g>
    <g id="line2d_39">
     <path d="M 362.288667 172.66288 
L 376.288667 172.66288 
L 389.542964 172.66288 
" style="fill: none; stroke: #60a7d2; stroke-width: 3; stroke-linecap: square"/>
    </g>
    <g id="text_20">
     <!-- $P_{int}$ (A = 0.33) -->
     <g transform="translate(401.488667 177.56288) scale(0.14 -0.14)">
      <defs>
       <path id="CMR17-33" d="M 1414 2157 
C 1984 2157 2234 1662 2234 1090 
C 2234 320 1824 25 1453 25 
C 1114 25 563 194 390 693 
C 422 680 454 680 486 680 
C 640 680 755 782 755 948 
C 755 1133 614 1216 486 1216 
C 378 1216 211 1165 211 926 
C 211 335 787 -128 1466 -128 
C 2176 -128 2720 430 2720 1085 
C 2720 1707 2208 2157 1600 2227 
C 2086 2328 2554 2756 2554 3329 
C 2554 3820 2048 4179 1472 4179 
C 890 4179 378 3829 378 3329 
C 378 3110 544 3072 627 3072 
C 762 3072 877 3155 877 3321 
C 877 3486 762 3569 627 3569 
C 602 3569 570 3569 544 3557 
C 730 3959 1235 4032 1459 4032 
C 1683 4032 2106 3925 2106 3320 
C 2106 3143 2080 2828 1862 2550 
C 1670 2304 1453 2304 1242 2284 
C 1210 2284 1062 2269 1037 2269 
C 992 2263 966 2257 966 2208 
C 966 2163 973 2157 1101 2157 
L 1414 2157 
z
" transform="scale(0.015625)"/>
      </defs>
      <use xlink:href="#CMMI12-50" transform="scale(0.996264)"/>
      <use xlink:href="#CMMI12-69" transform="translate(62.877232 -14.943915) scale(0.697382)"/>
      <use xlink:href="#CMMI12-6e" transform="translate(86.17214 -14.943915) scale(0.697382)"/>
      <use xlink:href="#CMMI12-74" transform="translate(126.932983 -14.943915) scale(0.697382)"/>
      <use xlink:href="#CMR17-28" transform="translate(182.165391 0) scale(0.996264)"/>
      <use xlink:href="#CMR17-41" transform="translate(217.446158 0) scale(0.996264)"/>
      <use xlink:href="#CMR17-3d" transform="translate(316.594554 0) scale(0.996264)"/>
      <use xlink:href="#CMR17-30" transform="translate(418.385309 0) scale(0.996264)"/>
      <use xlink:href="#CMR17-2e" transform="translate(464.075786 0) scale(0.996264)"/>
      <use xlink:href="#CMR17-33" transform="translate(488.946845 0) scale(0.996264)"/>
      <use xlink:href="#CMR17-33" transform="translate(534.637322 0) scale(0.996264)"/>
      <use xlink:href="#CMR17-29" transform="translate(580.327799 0) scale(0.996264)"/>
     </g>
    </g>
    <g id="line2d_40">
     <path d="M 362.288667 193.610576 
L 376.288667 193.610576 
L 389.542964 193.610576 
" style="fill: none; stroke-dasharray: 11.1,4.8; stroke-dashoffset: 0; stroke: #fa8331; stroke-width: 3"/>
    </g>
    <g id="text_21">
     <!-- $S_{int}$ (A = 0.33) -->
     <g transform="translate(401.488667 198.510576) scale(0.14 -0.14)">
      <use xlink:href="#CMMI12-53" transform="scale(0.996264)"/>
      <use xlink:href="#CMMI12-69" transform="translate(59.994488 -14.943915) scale(0.697382)"/>
      <use xlink:href="#CMMI12-6e" transform="translate(83.289395 -14.943915) scale(0.697382)"/>
      <use xlink:href="#CMMI12-74" transform="translate(124.050238 -14.943915) scale(0.697382)"/>
      <use xlink:href="#CMR17-28" transform="translate(179.282646 0) scale(0.996264)"/>
      <use xlink:href="#CMR17-41" transform="translate(214.563414 0) scale(0.996264)"/>
      <use xlink:href="#CMR17-3d" transform="translate(313.71181 0) scale(0.996264)"/>
      <use xlink:href="#CMR17-30" transform="translate(415.502565 0) scale(0.996264)"/>
      <use xlink:href="#CMR17-2e" transform="translate(461.193042 0) scale(0.996264)"/>
      <use xlink:href="#CMR17-33" transform="translate(486.0641 0) scale(0.996264)"/>
      <use xlink:href="#CMR17-33" transform="translate(531.754578 0) scale(0.996264)"/>
      <use xlink:href="#CMR17-29" transform="translate(577.445055 0) scale(0.996264)"/>
     </g>
    </g>
    <g id="line2d_41">
     <path d="M 362.288667 214.558272 
L 376.288667 214.558272 
L 389.542964 214.558272 
" style="fill: none; stroke: #4695c8; stroke-width: 3; stroke-linecap: square"/>
    </g>
    <g id="text_22">
     <!-- $P_{int}$ (A = 0.44) -->
     <g transform="translate(401.488667 219.458272) scale(0.14 -0.14)">
      <use xlink:href="#CMMI12-50" transform="scale(0.996264)"/>
      <use xlink:href="#CMMI12-69" transform="translate(62.877232 -14.943915) scale(0.697382)"/>
      <use xlink:href="#CMMI12-6e" transform="translate(86.17214 -14.943915) scale(0.697382)"/>
      <use xlink:href="#CMMI12-74" transform="translate(126.932983 -14.943915) scale(0.697382)"/>
      <use xlink:href="#CMR17-28" transform="translate(182.165391 0) scale(0.996264)"/>
      <use xlink:href="#CMR17-41" transform="translate(217.446158 0) scale(0.996264)"/>
      <use xlink:href="#CMR17-3d" transform="translate(316.594554 0) scale(0.996264)"/>
      <use xlink:href="#CMR17-30" transform="translate(418.385309 0) scale(0.996264)"/>
      <use xlink:href="#CMR17-2e" transform="translate(464.075786 0) scale(0.996264)"/>
      <use xlink:href="#CMR17-34" transform="translate(488.946845 0) scale(0.996264)"/>
      <use xlink:href="#CMR17-34" transform="translate(534.637322 0) scale(0.996264)"/>
      <use xlink:href="#CMR17-29" transform="translate(580.327799 0) scale(0.996264)"/>
     </g>
    </g>
    <g id="line2d_42">
     <path d="M 362.288667 235.505968 
L 376.288667 235.505968 
L 389.542964 235.505968 
" style="fill: none; stroke-dasharray: 11.1,4.8; stroke-dashoffset: 0; stroke: #f26d17; stroke-width: 3"/>
    </g>
    <g id="text_23">
     <!-- $S_{int}$ (A = 0.44) -->
     <g transform="translate(401.488667 240.405968) scale(0.14 -0.14)">
      <use xlink:href="#CMMI12-53" transform="scale(0.996264)"/>
      <use xlink:href="#CMMI12-69" transform="translate(59.994488 -14.943915) scale(0.697382)"/>
      <use xlink:href="#CMMI12-6e" transform="translate(83.289395 -14.943915) scale(0.697382)"/>
      <use xlink:href="#CMMI12-74" transform="translate(124.050238 -14.943915) scale(0.697382)"/>
      <use xlink:href="#CMR17-28" transform="translate(179.282646 0) scale(0.996264)"/>
      <use xlink:href="#CMR17-41" transform="translate(214.563414 0) scale(0.996264)"/>
      <use xlink:href="#CMR17-3d" transform="translate(313.71181 0) scale(0.996264)"/>
      <use xlink:href="#CMR17-30" transform="translate(415.502565 0) scale(0.996264)"/>
      <use xlink:href="#CMR17-2e" transform="translate(461.193042 0) scale(0.996264)"/>
      <use xlink:href="#CMR17-34" transform="translate(486.0641 0) scale(0.996264)"/>
      <use xlink:href="#CMR17-34" transform="translate(531.754578 0) scale(0.996264)"/>
      <use xlink:href="#CMR17-29" transform="translate(577.445055 0) scale(0.996264)"/>
     </g>
    </g>
    <g id="line2d_43">
     <path style="fill: none; stroke: #3181bd; stroke-width: 3; stroke-linecap: square"/>
    </g>
    <g id="text_24">
     <!-- $P_{int}$ (A = 0.56) -->
     <g transform="translate(560.518029 51.876703) scale(0.14 -0.14)">
      <defs>
       <path id="CMR17-35" d="M 730 3692 
C 794 3666 1056 3584 1325 3584 
C 1920 3584 2246 3911 2432 4100 
C 2432 4157 2432 4192 2394 4192 
C 2387 4192 2374 4192 2323 4163 
C 2099 4058 1837 3973 1517 3973 
C 1325 3973 1037 3999 723 4139 
C 653 4171 640 4171 634 4171 
C 602 4171 595 4164 595 4037 
L 595 2203 
C 595 2089 595 2057 659 2057 
C 691 2057 704 2070 736 2114 
C 941 2401 1222 2522 1542 2522 
C 1766 2522 2246 2382 2246 1289 
C 2246 1085 2246 715 2054 421 
C 1894 159 1645 25 1370 25 
C 947 25 518 320 403 814 
C 429 807 480 795 506 795 
C 589 795 749 840 749 1038 
C 749 1210 627 1280 506 1280 
C 358 1280 262 1190 262 1011 
C 262 454 704 -128 1382 -128 
C 2042 -128 2669 440 2669 1264 
C 2669 2030 2170 2624 1549 2624 
C 1222 2624 947 2503 730 2274 
L 730 3692 
z
" transform="scale(0.015625)"/>
      </defs>
      <use xlink:href="#CMMI12-50" transform="scale(0.996264)"/>
      <use xlink:href="#CMMI12-69" transform="translate(62.877232 -14.943915) scale(0.697382)"/>
      <use xlink:href="#CMMI12-6e" transform="translate(86.17214 -14.943915) scale(0.697382)"/>
      <use xlink:href="#CMMI12-74" transform="translate(126.932983 -14.943915) scale(0.697382)"/>
      <use xlink:href="#CMR17-28" transform="translate(182.165391 0) scale(0.996264)"/>
      <use xlink:href="#CMR17-41" transform="translate(217.446158 0) scale(0.996264)"/>
      <use xlink:href="#CMR17-3d" transform="translate(316.594554 0) scale(0.996264)"/>
      <use xlink:href="#CMR17-30" transform="translate(418.385309 0) scale(0.996264)"/>
      <use xlink:href="#CMR17-2e" transform="translate(464.075786 0) scale(0.996264)"/>
      <use xlink:href="#CMR17-35" transform="translate(488.946845 0) scale(0.996264)"/>
      <use xlink:href="#CMR17-36" transform="translate(534.637322 0) scale(0.996264)"/>
      <use xlink:href="#CMR17-29" transform="translate(580.327799 0) scale(0.996264)"/>
     </g>
    </g>
    <g id="line2d_44">
     <path style="fill: none; stroke-dasharray: 11.1,4.8; stroke-dashoffset: 0; stroke: #e4580a; stroke-width: 3"/>
    </g>
    <g id="text_25">
     <!-- $S_{int}$ (A = 0.56) -->
     <g transform="translate(560.518029 72.824399) scale(0.14 -0.14)">
      <use xlink:href="#CMMI12-53" transform="scale(0.996264)"/>
      <use xlink:href="#CMMI12-69" transform="translate(59.994488 -14.943915) scale(0.697382)"/>
      <use xlink:href="#CMMI12-6e" transform="translate(83.289395 -14.943915) scale(0.697382)"/>
      <use xlink:href="#CMMI12-74" transform="translate(124.050238 -14.943915) scale(0.697382)"/>
      <use xlink:href="#CMR17-28" transform="translate(179.282646 0) scale(0.996264)"/>
      <use xlink:href="#CMR17-41" transform="translate(214.563414 0) scale(0.996264)"/>
      <use xlink:href="#CMR17-3d" transform="translate(313.71181 0) scale(0.996264)"/>
      <use xlink:href="#CMR17-30" transform="translate(415.502565 0) scale(0.996264)"/>
      <use xlink:href="#CMR17-2e" transform="translate(461.193042 0) scale(0.996264)"/>
      <use xlink:href="#CMR17-35" transform="translate(486.0641 0) scale(0.996264)"/>
      <use xlink:href="#CMR17-36" transform="translate(531.754578 0) scale(0.996264)"/>
      <use xlink:href="#CMR17-29" transform="translate(577.445055 0) scale(0.996264)"/>
     </g>
    </g>
    <g id="line2d_45">
     <path style="fill: none; stroke: #1d6cb1; stroke-width: 3; stroke-linecap: square"/>
    </g>
    <g id="text_26">
     <!-- $P_{int}$ (A = 0.67) -->
     <g transform="translate(560.518029 93.772095) scale(0.14 -0.14)">
      <defs>
       <path id="CMR17-37" d="M 2886 3941 
L 2886 4081 
L 1382 4081 
C 634 4081 621 4165 595 4288 
L 480 4288 
L 294 3094 
L 410 3094 
C 429 3215 474 3540 550 3661 
C 589 3712 1062 3712 1171 3712 
L 2579 3712 
L 1869 2661 
C 1395 1954 1069 999 1069 165 
C 1069 89 1069 -128 1299 -128 
C 1530 -128 1530 89 1530 171 
L 1530 465 
C 1530 1508 1709 2196 2003 2636 
L 2886 3941 
z
" transform="scale(0.015625)"/>
      </defs>
      <use xlink:href="#CMMI12-50" transform="scale(0.996264)"/>
      <use xlink:href="#CMMI12-69" transform="translate(62.877232 -14.943915) scale(0.697382)"/>
      <use xlink:href="#CMMI12-6e" transform="translate(86.17214 -14.943915) scale(0.697382)"/>
      <use xlink:href="#CMMI12-74" transform="translate(126.932983 -14.943915) scale(0.697382)"/>
      <use xlink:href="#CMR17-28" transform="translate(182.165391 0) scale(0.996264)"/>
      <use xlink:href="#CMR17-41" transform="translate(217.446158 0) scale(0.996264)"/>
      <use xlink:href="#CMR17-3d" transform="translate(316.594554 0) scale(0.996264)"/>
      <use xlink:href="#CMR17-30" transform="translate(418.385309 0) scale(0.996264)"/>
      <use xlink:href="#CMR17-2e" transform="translate(464.075786 0) scale(0.996264)"/>
      <use xlink:href="#CMR17-36" transform="translate(488.946845 0) scale(0.996264)"/>
      <use xlink:href="#CMR17-37" transform="translate(534.637322 0) scale(0.996264)"/>
      <use xlink:href="#CMR17-29" transform="translate(580.327799 0) scale(0.996264)"/>
     </g>
    </g>
    <g id="line2d_46">
     <path style="fill: none; stroke-dasharray: 11.1,4.8; stroke-dashoffset: 0; stroke: #d14501; stroke-width: 3"/>
    </g>
    <g id="text_27">
     <!-- $S_{int}$ (A = 0.67) -->
     <g transform="translate(560.518029 114.719791) scale(0.14 -0.14)">
      <use xlink:href="#CMMI12-53" transform="scale(0.996264)"/>
      <use xlink:href="#CMMI12-69" transform="translate(59.994488 -14.943915) scale(0.697382)"/>
      <use xlink:href="#CMMI12-6e" transform="translate(83.289395 -14.943915) scale(0.697382)"/>
      <use xlink:href="#CMMI12-74" transform="translate(124.050238 -14.943915) scale(0.697382)"/>
      <use xlink:href="#CMR17-28" transform="translate(179.282646 0) scale(0.996264)"/>
      <use xlink:href="#CMR17-41" transform="translate(214.563414 0) scale(0.996264)"/>
      <use xlink:href="#CMR17-3d" transform="translate(313.71181 0) scale(0.996264)"/>
      <use xlink:href="#CMR17-30" transform="translate(415.502565 0) scale(0.996264)"/>
      <use xlink:href="#CMR17-2e" transform="translate(461.193042 0) scale(0.996264)"/>
      <use xlink:href="#CMR17-36" transform="translate(486.0641 0) scale(0.996264)"/>
      <use xlink:href="#CMR17-37" transform="translate(531.754578 0) scale(0.996264)"/>
      <use xlink:href="#CMR17-29" transform="translate(577.445055 0) scale(0.996264)"/>
     </g>
    </g>
    <g id="line2d_47">
     <path style="fill: none; stroke: #0e58a2; stroke-width: 3; stroke-linecap: square"/>
    </g>
    <g id="text_28">
     <!-- $P_{int}$ (A = 0.78) -->
     <g transform="translate(560.518029 135.667488) scale(0.14 -0.14)">
      <use xlink:href="#CMMI12-50" transform="scale(0.996264)"/>
      <use xlink:href="#CMMI12-69" transform="translate(62.877232 -14.943915) scale(0.697382)"/>
      <use xlink:href="#CMMI12-6e" transform="translate(86.17214 -14.943915) scale(0.697382)"/>
      <use xlink:href="#CMMI12-74" transform="translate(126.932983 -14.943915) scale(0.697382)"/>
      <use xlink:href="#CMR17-28" transform="translate(182.165391 0) scale(0.996264)"/>
      <use xlink:href="#CMR17-41" transform="translate(217.446158 0) scale(0.996264)"/>
      <use xlink:href="#CMR17-3d" transform="translate(316.594554 0) scale(0.996264)"/>
      <use xlink:href="#CMR17-30" transform="translate(418.385309 0) scale(0.996264)"/>
      <use xlink:href="#CMR17-2e" transform="translate(464.075786 0) scale(0.996264)"/>
      <use xlink:href="#CMR17-37" transform="translate(488.946845 0) scale(0.996264)"/>
      <use xlink:href="#CMR17-38" transform="translate(534.637322 0) scale(0.996264)"/>
      <use xlink:href="#CMR17-29" transform="translate(580.327799 0) scale(0.996264)"/>
     </g>
    </g>
    <g id="line2d_48">
     <path style="fill: none; stroke-dasharray: 11.1,4.8; stroke-dashoffset: 0; stroke: #b13a03; stroke-width: 3"/>
    </g>
    <g id="text_29">
     <!-- $S_{int}$ (A = 0.78) -->
     <g transform="translate(560.518029 156.615184) scale(0.14 -0.14)">
      <use xlink:href="#CMMI12-53" transform="scale(0.996264)"/>
      <use xlink:href="#CMMI12-69" transform="translate(59.994488 -14.943915) scale(0.697382)"/>
      <use xlink:href="#CMMI12-6e" transform="translate(83.289395 -14.943915) scale(0.697382)"/>
      <use xlink:href="#CMMI12-74" transform="translate(124.050238 -14.943915) scale(0.697382)"/>
      <use xlink:href="#CMR17-28" transform="translate(179.282646 0) scale(0.996264)"/>
      <use xlink:href="#CMR17-41" transform="translate(214.563414 0) scale(0.996264)"/>
      <use xlink:href="#CMR17-3d" transform="translate(313.71181 0) scale(0.996264)"/>
      <use xlink:href="#CMR17-30" transform="translate(415.502565 0) scale(0.996264)"/>
      <use xlink:href="#CMR17-2e" transform="translate(461.193042 0) scale(0.996264)"/>
      <use xlink:href="#CMR17-37" transform="translate(486.0641 0) scale(0.996264)"/>
      <use xlink:href="#CMR17-38" transform="translate(531.754578 0) scale(0.996264)"/>
      <use xlink:href="#CMR17-29" transform="translate(577.445055 0) scale(0.996264)"/>
     </g>
    </g>
    <g id="line2d_49">
     <path style="fill: none; stroke: #084488; stroke-width: 3; stroke-linecap: square"/>
    </g>
    <g id="text_30">
     <!-- $P_{int}$ (A = 0.89) -->
     <g transform="translate(560.518029 177.56288) scale(0.14 -0.14)">
      <defs>
       <path id="CMR17-39" d="M 2253 1864 
C 2253 464 1670 31 1190 31 
C 1043 31 685 31 538 294 
C 704 268 826 357 826 518 
C 826 692 685 749 595 749 
C 538 749 365 723 365 506 
C 365 71 742 -128 1203 -128 
C 1939 -128 2688 674 2688 2073 
C 2688 3817 1971 4179 1485 4179 
C 851 4179 243 3628 243 2778 
C 243 1991 762 1408 1414 1408 
C 1952 1408 2189 1903 2253 2112 
L 2253 1864 
z
M 1427 1510 
C 1254 1510 1011 1542 813 1922 
C 678 2169 678 2461 678 2771 
C 678 3146 678 3405 858 3684 
C 947 3817 1114 4032 1485 4032 
C 2240 4032 2240 2885 2240 2632 
C 2240 2182 2035 1510 1427 1510 
z
" transform="scale(0.015625)"/>
      </defs>
      <use xlink:href="#CMMI12-50" transform="scale(0.996264)"/>
      <use xlink:href="#CMMI12-69" transform="translate(62.877232 -14.943915) scale(0.697382)"/>
      <use xlink:href="#CMMI12-6e" transform="translate(86.17214 -14.943915) scale(0.697382)"/>
      <use xlink:href="#CMMI12-74" transform="translate(126.932983 -14.943915) scale(0.697382)"/>
      <use xlink:href="#CMR17-28" transform="translate(182.165391 0) scale(0.996264)"/>
      <use xlink:href="#CMR17-41" transform="translate(217.446158 0) scale(0.996264)"/>
      <use xlink:href="#CMR17-3d" transform="translate(316.594554 0) scale(0.996264)"/>
      <use xlink:href="#CMR17-30" transform="translate(418.385309 0) scale(0.996264)"/>
      <use xlink:href="#CMR17-2e" transform="translate(464.075786 0) scale(0.996264)"/>
      <use xlink:href="#CMR17-38" transform="translate(488.946845 0) scale(0.996264)"/>
      <use xlink:href="#CMR17-39" transform="translate(534.637322 0) scale(0.996264)"/>
      <use xlink:href="#CMR17-29" transform="translate(580.327799 0) scale(0.996264)"/>
     </g>
    </g>
    <g id="line2d_50">
     <path style="fill: none; stroke-dasharray: 11.1,4.8; stroke-dashoffset: 0; stroke: #963003; stroke-width: 3"/>
    </g>
    <g id="text_31">
     <!-- $S_{int}$ (A = 0.89) -->
     <g transform="translate(560.518029 198.510576) scale(0.14 -0.14)">
      <use xlink:href="#CMMI12-53" transform="scale(0.996264)"/>
      <use xlink:href="#CMMI12-69" transform="translate(59.994488 -14.943915) scale(0.697382)"/>
      <use xlink:href="#CMMI12-6e" transform="translate(83.289395 -14.943915) scale(0.697382)"/>
      <use xlink:href="#CMMI12-74" transform="translate(124.050238 -14.943915) scale(0.697382)"/>
      <use xlink:href="#CMR17-28" transform="translate(179.282646 0) scale(0.996264)"/>
      <use xlink:href="#CMR17-41" transform="translate(214.563414 0) scale(0.996264)"/>
      <use xlink:href="#CMR17-3d" transform="translate(313.71181 0) scale(0.996264)"/>
      <use xlink:href="#CMR17-30" transform="translate(415.502565 0) scale(0.996264)"/>
      <use xlink:href="#CMR17-2e" transform="translate(461.193042 0) scale(0.996264)"/>
      <use xlink:href="#CMR17-38" transform="translate(486.0641 0) scale(0.996264)"/>
      <use xlink:href="#CMR17-39" transform="translate(531.754578 0) scale(0.996264)"/>
      <use xlink:href="#CMR17-29" transform="translate(577.445055 0) scale(0.996264)"/>
     </g>
    </g>
    <g id="line2d_51">
     <path style="fill: none; stroke: #08306b; stroke-width: 3; stroke-linecap: square"/>
    </g>
    <g id="text_32">
     <!-- $P_{int}$ (A = 1.0) -->
     <g transform="translate(560.518029 219.458272) scale(0.14 -0.14)">
      <use xlink:href="#CMMI12-50" transform="scale(0.996264)"/>
      <use xlink:href="#CMMI12-69" transform="translate(62.877232 -14.943915) scale(0.697382)"/>
      <use xlink:href="#CMMI12-6e" transform="translate(86.17214 -14.943915) scale(0.697382)"/>
      <use xlink:href="#CMMI12-74" transform="translate(126.932983 -14.943915) scale(0.697382)"/>
      <use xlink:href="#CMR17-28" transform="translate(182.165391 0) scale(0.996264)"/>
      <use xlink:href="#CMR17-41" transform="translate(217.446158 0) scale(0.996264)"/>
      <use xlink:href="#CMR17-3d" transform="translate(316.594554 0) scale(0.996264)"/>
      <use xlink:href="#CMR17-31" transform="translate(418.385309 0) scale(0.996264)"/>
      <use xlink:href="#CMR17-2e" transform="translate(464.075786 0) scale(0.996264)"/>
      <use xlink:href="#CMR17-30" transform="translate(488.946845 0) scale(0.996264)"/>
      <use xlink:href="#CMR17-29" transform="translate(534.637322 0) scale(0.996264)"/>
     </g>
    </g>
    <g id="line2d_52">
     <path style="fill: none; stroke-dasharray: 11.1,4.8; stroke-dashoffset: 0; stroke: #7f2704; stroke-width: 3"/>
    </g>
    <g id="text_33">
     <!-- $S_{int}$ (A = 1.0) -->
     <g transform="translate(560.518029 240.405968) scale(0.14 -0.14)">
      <use xlink:href="#CMMI12-53" transform="scale(0.996264)"/>
      <use xlink:href="#CMMI12-69" transform="translate(59.994488 -14.943915) scale(0.697382)"/>
      <use xlink:href="#CMMI12-6e" transform="translate(83.289395 -14.943915) scale(0.697382)"/>
      <use xlink:href="#CMMI12-74" transform="translate(124.050238 -14.943915) scale(0.697382)"/>
      <use xlink:href="#CMR17-28" transform="translate(179.282646 0) scale(0.996264)"/>
      <use xlink:href="#CMR17-41" transform="translate(214.563414 0) scale(0.996264)"/>
      <use xlink:href="#CMR17-3d" transform="translate(313.71181 0) scale(0.996264)"/>
      <use xlink:href="#CMR17-31" transform="translate(415.502565 0) scale(0.996264)"/>
      <use xlink:href="#CMR17-2e" transform="translate(461.193042 0) scale(0.996264)"/>
      <use xlink:href="#CMR17-30" transform="translate(486.0641 0) scale(0.996264)"/>
      <use xlink:href="#CMR17-29" transform="translate(531.754578 0) scale(0.996264)"/>
     </g>
    </g>
   </g>
  </g>
 </g>
 <defs>
  <clipPath id="p9694d511cb">
   <rect x="48.56787" y="28.815931" width="301.120797" height="184.902223"/>
  </clipPath>
 </defs>
</svg>
