<?xml version="1.0" encoding="utf-8" standalone="no"?>
<!DOCTYPE svg PUBLIC "-//W3C//DTD SVG 1.1//EN"
  "http://www.w3.org/Graphics/SVG/1.1/DTD/svg11.dtd">
<svg xmlns:xlink="http://www.w3.org/1999/xlink" width="388.542964pt" height="240.132758pt" viewBox="0 0 388.542964 240.132758" xmlns="http://www.w3.org/2000/svg" version="1.1">
 <metadata>
  <rdf:RDF xmlns:dc="http://purl.org/dc/elements/1.1/" xmlns:cc="http://creativecommons.org/ns#" xmlns:rdf="http://www.w3.org/1999/02/22-rdf-syntax-ns#">
   <cc:Work>
    <dc:type rdf:resource="http://purl.org/dc/dcmitype/StillImage"/>
    <dc:date>2024-12-16T14:56:41.117132</dc:date>
    <dc:format>image/svg+xml</dc:format>
    <dc:creator>
     <cc:Agent>
      <dc:title>Matplotlib v3.7.5, https://matplotlib.org/</dc:title>
     </cc:Agent>
    </dc:creator>
   </cc:Work>
  </rdf:RDF>
 </metadata>
 <defs>
  <style type="text/css">*{stroke-linejoin: round; stroke-linecap: butt}</style>
 </defs>
 <g id="figure_1">
  <g id="patch_1">
   <path d="M 0 240.132758 
L 388.542964 240.132758 
L 388.542964 0 
L 0 0 
z
" style="fill: #ffffff"/>
  </g>
  <g id="axes_1">
   <g id="patch_2">
    <path d="M 48.56787 213.718154 
L 349.688667 213.718154 
L 349.688667 28.815931 
L 48.56787 28.815931 
z
" style="fill: #ffffff"/>
   </g>
   <g id="matplotlib.axis_1">
    <g id="xtick_1">
     <g id="line2d_1">
      <defs>
       <path id="mb8f0a0dc14" d="M 0 0 
L 0 3.5 
" style="stroke: #000000; stroke-width: 0.8"/>
      </defs>
      <g>
       <use xlink:href="#mb8f0a0dc14" x="62.255179" y="213.718154" style="stroke: #000000; stroke-width: 0.8"/>
      </g>
     </g>
     <g id="text_1">
      <!-- $\mathdefault{0.0}$ -->
      <g transform="translate(53.529888 230.404031) scale(0.14 -0.14)">
       <defs>
        <path id="CMR17-30" d="M 2688 2025 
C 2688 2416 2682 3080 2413 3591 
C 2176 4039 1798 4198 1466 4198 
C 1158 4198 768 4058 525 3597 
C 269 3118 243 2524 243 2025 
C 243 1661 250 1106 448 619 
C 723 -39 1216 -128 1466 -128 
C 1760 -128 2208 -7 2470 600 
C 2662 1042 2688 1559 2688 2025 
z
M 1466 -26 
C 1056 -26 813 325 723 812 
C 653 1188 653 1738 653 2096 
C 653 2588 653 2997 736 3387 
C 858 3929 1216 4096 1466 4096 
C 1728 4096 2067 3923 2189 3400 
C 2272 3036 2278 2607 2278 2096 
C 2278 1680 2278 1169 2202 792 
C 2067 95 1690 -26 1466 -26 
z
" transform="scale(0.015625)"/>
        <path id="CMMI12-3a" d="M 1178 307 
C 1178 492 1024 619 870 619 
C 685 619 557 466 557 313 
C 557 128 710 0 864 0 
C 1050 0 1178 153 1178 307 
z
" transform="scale(0.015625)"/>
       </defs>
       <use xlink:href="#CMR17-30" transform="scale(0.996264)"/>
       <use xlink:href="#CMMI12-3a" transform="translate(45.690477 0) scale(0.996264)"/>
       <use xlink:href="#CMR17-30" transform="translate(72.787654 0) scale(0.996264)"/>
      </g>
     </g>
    </g>
    <g id="xtick_2">
     <g id="line2d_2">
      <g>
       <use xlink:href="#mb8f0a0dc14" x="117.004415" y="213.718154" style="stroke: #000000; stroke-width: 0.8"/>
      </g>
     </g>
     <g id="text_2">
      <!-- $\mathdefault{0.2}$ -->
      <g transform="translate(108.279124 230.404031) scale(0.14 -0.14)">
       <defs>
        <path id="CMR17-32" d="M 2669 989 
L 2554 989 
C 2490 536 2438 459 2413 420 
C 2381 369 1920 369 1830 369 
L 602 369 
C 832 619 1280 1072 1824 1597 
C 2214 1967 2669 2402 2669 3035 
C 2669 3790 2067 4224 1395 4224 
C 691 4224 262 3604 262 3030 
C 262 2780 448 2748 525 2748 
C 589 2748 781 2787 781 3010 
C 781 3207 614 3264 525 3264 
C 486 3264 448 3258 422 3245 
C 544 3790 915 4058 1306 4058 
C 1862 4058 2227 3617 2227 3035 
C 2227 2479 1901 2000 1536 1584 
L 262 146 
L 262 0 
L 2515 0 
L 2669 989 
z
" transform="scale(0.015625)"/>
       </defs>
       <use xlink:href="#CMR17-30" transform="scale(0.996264)"/>
       <use xlink:href="#CMMI12-3a" transform="translate(45.690477 0) scale(0.996264)"/>
       <use xlink:href="#CMR17-32" transform="translate(72.787654 0) scale(0.996264)"/>
      </g>
     </g>
    </g>
    <g id="xtick_3">
     <g id="line2d_3">
      <g>
       <use xlink:href="#mb8f0a0dc14" x="171.753651" y="213.718154" style="stroke: #000000; stroke-width: 0.8"/>
      </g>
     </g>
     <g id="text_3">
      <!-- $\mathdefault{0.4}$ -->
      <g transform="translate(163.02836 230.404031) scale(0.14 -0.14)">
       <defs>
        <path id="CMR17-34" d="M 2150 4122 
C 2150 4256 2144 4256 2029 4256 
L 128 1254 
L 128 1088 
L 1779 1088 
L 1779 457 
C 1779 224 1766 160 1318 160 
L 1197 160 
L 1197 0 
C 1402 0 1747 0 1965 0 
C 2182 0 2528 0 2733 0 
L 2733 160 
L 2611 160 
C 2163 160 2150 224 2150 457 
L 2150 1088 
L 2803 1088 
L 2803 1254 
L 2150 1254 
L 2150 4122 
z
M 1798 3703 
L 1798 1254 
L 256 1254 
L 1798 3703 
z
" transform="scale(0.015625)"/>
       </defs>
       <use xlink:href="#CMR17-30" transform="scale(0.996264)"/>
       <use xlink:href="#CMMI12-3a" transform="translate(45.690477 0) scale(0.996264)"/>
       <use xlink:href="#CMR17-34" transform="translate(72.787654 0) scale(0.996264)"/>
      </g>
     </g>
    </g>
    <g id="xtick_4">
     <g id="line2d_4">
      <g>
       <use xlink:href="#mb8f0a0dc14" x="226.502887" y="213.718154" style="stroke: #000000; stroke-width: 0.8"/>
      </g>
     </g>
     <g id="text_4">
      <!-- $\mathdefault{0.6}$ -->
      <g transform="translate(217.777596 230.404031) scale(0.14 -0.14)">
       <defs>
        <path id="CMR17-36" d="M 678 2176 
C 678 3690 1395 4032 1811 4032 
C 1946 4032 2272 4009 2400 3776 
C 2298 3776 2106 3776 2106 3553 
C 2106 3381 2246 3323 2336 3323 
C 2394 3323 2566 3348 2566 3560 
C 2566 3954 2246 4179 1805 4179 
C 1043 4179 243 3390 243 1984 
C 243 253 966 -128 1478 -128 
C 2099 -128 2688 427 2688 1283 
C 2688 2081 2170 2662 1517 2662 
C 1126 2662 838 2407 678 1960 
L 678 2176 
z
M 1478 25 
C 691 25 691 1200 691 1436 
C 691 1896 909 2560 1504 2560 
C 1613 2560 1926 2560 2138 2120 
C 2253 1870 2253 1609 2253 1289 
C 2253 944 2253 690 2118 434 
C 1978 171 1773 25 1478 25 
z
" transform="scale(0.015625)"/>
       </defs>
       <use xlink:href="#CMR17-30" transform="scale(0.996264)"/>
       <use xlink:href="#CMMI12-3a" transform="translate(45.690477 0) scale(0.996264)"/>
       <use xlink:href="#CMR17-36" transform="translate(72.787654 0) scale(0.996264)"/>
      </g>
     </g>
    </g>
    <g id="xtick_5">
     <g id="line2d_5">
      <g>
       <use xlink:href="#mb8f0a0dc14" x="281.252123" y="213.718154" style="stroke: #000000; stroke-width: 0.8"/>
      </g>
     </g>
     <g id="text_5">
      <!-- $\mathdefault{0.8}$ -->
      <g transform="translate(272.526832 230.404031) scale(0.14 -0.14)">
       <defs>
        <path id="CMR17-38" d="M 1741 2264 
C 2144 2467 2554 2773 2554 3263 
C 2554 3841 1990 4179 1472 4179 
C 890 4179 378 3759 378 3180 
C 378 3021 416 2747 666 2505 
C 730 2442 998 2251 1171 2130 
C 883 1983 211 1634 211 934 
C 211 279 838 -128 1459 -128 
C 2144 -128 2720 362 2720 1010 
C 2720 1590 2330 1857 2074 2029 
L 1741 2264 
z
M 902 2822 
C 851 2854 595 3051 595 3351 
C 595 3739 998 4032 1459 4032 
C 1965 4032 2336 3676 2336 3262 
C 2336 2669 1670 2331 1638 2331 
C 1632 2331 1626 2331 1574 2370 
L 902 2822 
z
M 2080 1519 
C 2176 1449 2483 1240 2483 851 
C 2483 381 2010 25 1472 25 
C 890 25 448 438 448 940 
C 448 1443 838 1862 1280 2060 
L 2080 1519 
z
" transform="scale(0.015625)"/>
       </defs>
       <use xlink:href="#CMR17-30" transform="scale(0.996264)"/>
       <use xlink:href="#CMMI12-3a" transform="translate(45.690477 0) scale(0.996264)"/>
       <use xlink:href="#CMR17-38" transform="translate(72.787654 0) scale(0.996264)"/>
      </g>
     </g>
    </g>
    <g id="xtick_6">
     <g id="line2d_6">
      <g>
       <use xlink:href="#mb8f0a0dc14" x="336.001359" y="213.718154" style="stroke: #000000; stroke-width: 0.8"/>
      </g>
     </g>
     <g id="text_6">
      <!-- $\mathdefault{1.0}$ -->
      <g transform="translate(327.276068 230.404031) scale(0.14 -0.14)">
       <defs>
        <path id="CMR17-31" d="M 1702 4058 
C 1702 4192 1696 4192 1606 4192 
C 1357 3916 979 3827 621 3827 
C 602 3827 570 3827 563 3808 
C 557 3795 557 3782 557 3648 
C 755 3648 1088 3686 1344 3839 
L 1344 461 
C 1344 236 1331 160 781 160 
L 589 160 
L 589 0 
C 896 0 1216 0 1523 0 
C 1830 0 2150 0 2458 0 
L 2458 160 
L 2266 160 
C 1715 160 1702 230 1702 458 
L 1702 4058 
z
" transform="scale(0.015625)"/>
       </defs>
       <use xlink:href="#CMR17-31" transform="scale(0.996264)"/>
       <use xlink:href="#CMMI12-3a" transform="translate(45.690477 0) scale(0.996264)"/>
       <use xlink:href="#CMR17-30" transform="translate(72.787654 0) scale(0.996264)"/>
      </g>
     </g>
    </g>
    <g id="text_7">
     <!-- t -->
     <g transform="translate(196.472746 246.801936) scale(0.14 -0.14)">
      <defs>
       <path id="CMR17-74" d="M 966 2560 
L 1862 2560 
L 1862 2725 
L 966 2725 
L 966 3904 
L 851 3904 
C 838 3245 614 2668 70 2668 
L 70 2560 
L 627 2560 
L 627 771 
C 627 650 627 -64 1370 -64 
C 1747 -64 1965 306 1965 777 
L 1965 1140 
L 1850 1140 
L 1850 783 
C 1850 344 1677 51 1408 51 
C 1222 51 966 178 966 758 
L 966 2560 
z
" transform="scale(0.015625)"/>
      </defs>
      <use xlink:href="#CMR17-74" transform="scale(0.996264)"/>
     </g>
    </g>
   </g>
   <g id="matplotlib.axis_2">
    <g id="ytick_1">
     <g id="line2d_7">
      <defs>
       <path id="m635a81125c" d="M 0 0 
L -3.5 0 
" style="stroke: #000000; stroke-width: 0.8"/>
      </defs>
      <g>
       <use xlink:href="#m635a81125c" x="48.56787" y="205.486662" style="stroke: #000000; stroke-width: 0.8"/>
      </g>
     </g>
     <g id="text_8">
      <!-- $\mathdefault{0.0}$ -->
      <g transform="translate(24.117288 210.3296) scale(0.14 -0.14)">
       <use xlink:href="#CMR17-30" transform="scale(0.996264)"/>
       <use xlink:href="#CMMI12-3a" transform="translate(45.690477 0) scale(0.996264)"/>
       <use xlink:href="#CMR17-30" transform="translate(72.787654 0) scale(0.996264)"/>
      </g>
     </g>
    </g>
    <g id="ytick_2">
     <g id="line2d_8">
      <g>
       <use xlink:href="#m635a81125c" x="48.56787" y="174.722322" style="stroke: #000000; stroke-width: 0.8"/>
      </g>
     </g>
     <g id="text_9">
      <!-- $\mathdefault{0.2}$ -->
      <g transform="translate(24.117288 179.56526) scale(0.14 -0.14)">
       <use xlink:href="#CMR17-30" transform="scale(0.996264)"/>
       <use xlink:href="#CMMI12-3a" transform="translate(45.690477 0) scale(0.996264)"/>
       <use xlink:href="#CMR17-32" transform="translate(72.787654 0) scale(0.996264)"/>
      </g>
     </g>
    </g>
    <g id="ytick_3">
     <g id="line2d_9">
      <g>
       <use xlink:href="#m635a81125c" x="48.56787" y="143.957982" style="stroke: #000000; stroke-width: 0.8"/>
      </g>
     </g>
     <g id="text_10">
      <!-- $\mathdefault{0.4}$ -->
      <g transform="translate(24.117288 148.80092) scale(0.14 -0.14)">
       <use xlink:href="#CMR17-30" transform="scale(0.996264)"/>
       <use xlink:href="#CMMI12-3a" transform="translate(45.690477 0) scale(0.996264)"/>
       <use xlink:href="#CMR17-34" transform="translate(72.787654 0) scale(0.996264)"/>
      </g>
     </g>
    </g>
    <g id="ytick_4">
     <g id="line2d_10">
      <g>
       <use xlink:href="#m635a81125c" x="48.56787" y="113.193642" style="stroke: #000000; stroke-width: 0.8"/>
      </g>
     </g>
     <g id="text_11">
      <!-- $\mathdefault{0.6}$ -->
      <g transform="translate(24.117288 118.03658) scale(0.14 -0.14)">
       <use xlink:href="#CMR17-30" transform="scale(0.996264)"/>
       <use xlink:href="#CMMI12-3a" transform="translate(45.690477 0) scale(0.996264)"/>
       <use xlink:href="#CMR17-36" transform="translate(72.787654 0) scale(0.996264)"/>
      </g>
     </g>
    </g>
    <g id="ytick_5">
     <g id="line2d_11">
      <g>
       <use xlink:href="#m635a81125c" x="48.56787" y="82.429302" style="stroke: #000000; stroke-width: 0.8"/>
      </g>
     </g>
     <g id="text_12">
      <!-- $\mathdefault{0.8}$ -->
      <g transform="translate(24.117288 87.27224) scale(0.14 -0.14)">
       <use xlink:href="#CMR17-30" transform="scale(0.996264)"/>
       <use xlink:href="#CMMI12-3a" transform="translate(45.690477 0) scale(0.996264)"/>
       <use xlink:href="#CMR17-38" transform="translate(72.787654 0) scale(0.996264)"/>
      </g>
     </g>
    </g>
    <g id="ytick_6">
     <g id="line2d_12">
      <g>
       <use xlink:href="#m635a81125c" x="48.56787" y="51.664962" style="stroke: #000000; stroke-width: 0.8"/>
      </g>
     </g>
     <g id="text_13">
      <!-- $\mathdefault{1.0}$ -->
      <g transform="translate(24.117288 56.5079) scale(0.14 -0.14)">
       <use xlink:href="#CMR17-31" transform="scale(0.996264)"/>
       <use xlink:href="#CMMI12-3a" transform="translate(45.690477 0) scale(0.996264)"/>
       <use xlink:href="#CMR17-30" transform="translate(72.787654 0) scale(0.996264)"/>
      </g>
     </g>
    </g>
   </g>
   <g id="line2d_13">
    <path d="M 62.255179 190.842836 
L 64.992641 190.823434 
L 66.908864 190.619633 
L 68.551342 190.226193 
L 69.920072 189.657881 
L 71.015057 188.973169 
L 72.110042 188.002268 
L 72.93128 187.024449 
L 73.752519 185.770232 
L 74.573758 184.171459 
L 75.394996 182.153718 
L 76.216235 179.647071 
L 77.311219 175.459266 
L 78.406204 170.283121 
L 79.774935 162.580229 
L 84.702366 133.160097 
L 86.344843 125.328636 
L 87.98732 118.562347 
L 89.903544 111.576711 
L 93.188498 100.611621 
L 100.032152 78.581781 
L 103.04336 69.637627 
L 105.507076 63.005171 
L 107.697045 57.772495 
L 109.613268 53.768488 
L 111.529492 50.319193 
L 113.171969 47.795365 
L 114.814446 45.649462 
L 116.456923 43.853282 
L 118.0994 42.374661 
L 119.741877 41.180099 
L 121.384354 40.236386 
L 123.300577 39.409976 
L 125.216801 38.834396 
L 127.40677 38.429002 
L 129.870486 38.228194 
L 132.607947 38.243891 
L 135.892902 38.495602 
L 140.27284 39.075106 
L 147.390241 40.279148 
L 161.07755 42.597547 
L 169.837428 43.831644 
L 178.597306 44.840691 
L 188.178422 45.715842 
L 198.854523 46.464375 
L 211.994339 47.150967 
L 231.704064 47.927079 
L 257.983697 48.994493 
L 272.765991 49.824314 
L 285.905808 50.784383 
L 298.224386 51.907129 
L 310.269218 53.226978 
L 322.31405 54.767761 
L 334.906374 56.605841 
L 335.727612 56.733412 
L 335.727612 56.733412 
" clip-path="url(#p985677265f)" style="fill: none; stroke: #b7d4ea; stroke-width: 3; stroke-linecap: square"/>
   </g>
   <g id="line2d_14">
    <path d="M 62.255179 51.659295 
L 64.445149 71.932463 
L 67.182611 95.163211 
L 76.763727 173.378998 
L 77.858712 180.055184 
L 78.953696 185.403715 
L 80.048681 189.480931 
L 80.86992 191.822888 
L 81.691158 193.667884 
L 82.786143 195.524612 
L 83.881128 196.874844 
L 84.976112 197.877833 
L 86.344843 198.811875 
L 87.98732 199.638067 
L 89.903544 200.355639 
L 92.367259 201.046842 
L 95.652213 201.734315 
L 100.032152 202.414117 
L 105.507076 203.03437 
L 112.35073 203.573424 
L 120.836862 204.002191 
L 132.607947 204.352803 
L 150.948941 204.65149 
L 182.429752 204.914469 
L 239.91645 205.144864 
L 335.727612 205.313508 
L 335.727612 205.313508 
" clip-path="url(#p985677265f)" style="fill: none; stroke-dasharray: 11.1,4.8; stroke-dashoffset: 0; stroke: #fdc38d; stroke-width: 3"/>
   </g>
   <g id="line2d_15">
    <path d="M 62.255179 191.018365 
L 64.663536 191.012422 
L 67.071893 190.755833 
L 68.677463 190.344082 
L 70.282916 189.607028 
L 71.085701 189.058848 
L 71.888487 188.347375 
L 72.691154 187.42996 
L 73.493939 186.254473 
L 74.296724 184.760378 
L 75.099511 182.880501 
L 75.902296 180.546619 
L 76.705081 177.698834 
L 77.507867 174.299088 
L 79.113438 165.887298 
L 81.521677 150.661383 
L 83.929913 135.783728 
L 85.535485 127.328925 
L 87.141056 120.097326 
L 88.746508 113.782557 
L 91.154864 105.295407 
L 95.971814 89.449446 
L 99.985625 76.703322 
L 103.196765 67.278805 
L 105.605001 60.970619 
L 108.01336 55.469123 
L 109.618814 52.28344 
L 111.224856 49.485704 
L 112.830428 47.067185 
L 114.436 45.008163 
L 116.04145 43.28302 
L 117.647023 41.862216 
L 119.252477 40.714725 
L 120.858045 39.808823 
L 122.463618 39.113944 
L 124.069186 38.601278 
L 126.477426 38.116394 
L 128.885781 37.903391 
L 131.294017 37.896313 
L 134.505047 38.11665 
L 138.518974 38.629682 
L 144.941019 39.712572 
L 159.391154 42.214176 
L 168.221676 43.47554 
L 177.052083 44.501585 
L 186.685273 45.390103 
L 197.924271 46.190512 
L 211.571738 46.92467 
L 231.640777 47.746955 
L 273.385039 49.410944 
L 292.651418 50.430883 
L 311.115594 51.625885 
L 330.381974 53.096933 
L 336.001359 53.564911 
L 336.001359 53.564911 
" clip-path="url(#p985677265f)" style="fill: none; stroke-dasharray: 3,4.95; stroke-dashoffset: 0; stroke: #b8e3b2; stroke-width: 3"/>
   </g>
   <g id="line2d_16">
    <path d="M 62.255179 190.996624 
L 64.663536 190.993128 
L 67.071893 190.7386 
L 68.677463 190.327918 
L 70.282916 189.591603 
L 71.085701 189.043649 
L 71.888487 188.33224 
L 72.691154 187.414765 
L 73.493939 186.239038 
L 74.296724 184.744494 
L 75.099511 182.863998 
L 75.902296 180.529268 
L 76.705081 177.680467 
L 77.507867 174.27957 
L 79.113438 165.865528 
L 81.521677 150.637999 
L 83.929913 135.76215 
L 85.535485 127.310065 
L 87.141056 120.081923 
L 88.746508 113.770959 
L 91.154864 105.289961 
L 95.971814 89.458009 
L 99.985625 76.725409 
L 103.196765 67.312306 
L 105.605001 61.012556 
L 108.01336 55.518853 
L 109.618814 52.337883 
L 111.224856 49.544364 
L 112.830428 47.129696 
L 114.436 45.073901 
L 116.04145 43.3516 
L 117.647023 41.93318 
L 119.252477 40.787706 
L 120.858045 39.883363 
L 122.463618 39.189694 
L 124.069186 38.677964 
L 126.477426 38.194087 
L 128.885781 37.981635 
L 131.294017 37.974796 
L 134.505047 38.195133 
L 138.518974 38.707559 
L 144.941019 39.789111 
L 159.391154 42.287175 
L 168.221676 43.546376 
L 177.052083 44.570239 
L 186.685273 45.456777 
L 197.924271 46.254802 
L 211.571738 46.986191 
L 230.838003 47.775121 
L 273.385039 49.462434 
L 292.651418 50.479568 
L 311.115594 51.672012 
L 330.381974 53.141061 
L 336.001359 53.608452 
L 336.001359 53.608452 
" clip-path="url(#p985677265f)" style="fill: none; stroke-dasharray: 3,4.95; stroke-dashoffset: 0; stroke: #b8e3b2; stroke-width: 3"/>
   </g>
   <g id="line2d_17">
    <path d="M 62.255179 191.213961 
L 64.663536 191.186704 
L 67.071893 190.912306 
L 68.677463 190.49134 
L 70.282916 189.748054 
L 71.085701 189.198216 
L 71.888487 188.486291 
L 72.691154 187.569825 
L 73.493939 186.396906 
L 74.296724 184.907147 
L 75.099511 183.033555 
L 75.902296 180.70784 
L 76.705081 177.86993 
L 77.507867 174.481268 
L 79.113438 166.091829 
L 81.521677 150.884301 
L 83.929913 135.993632 
L 85.535485 127.516008 
L 87.141056 120.255006 
L 88.746508 113.907157 
L 91.154864 105.365739 
L 95.971814 89.395242 
L 100.788411 74.059736 
L 103.196765 67.003108 
L 105.605001 60.621355 
L 108.01336 55.051333 
L 109.618814 51.824502 
L 111.224856 48.989303 
L 112.830428 46.538017 
L 114.436 44.450462 
L 116.04145 42.701224 
L 117.647023 41.260342 
L 119.252477 40.096512 
L 120.858045 39.17772 
L 122.463618 38.47281 
L 124.069186 37.95281 
L 126.477426 37.460994 
L 128.885781 37.244911 
L 131.294017 37.237833 
L 134.505047 37.461305 
L 138.518974 37.981397 
L 144.941019 39.078792 
L 159.391154 41.614264 
L 168.221676 42.893818 
L 177.052083 43.93611 
L 186.685273 44.840746 
L 197.924271 45.657768 
L 211.571738 46.409823 
L 230.838003 47.224828 
L 273.385039 48.966272 
L 293.454208 50.056699 
L 311.918385 51.28137 
L 331.987554 52.84678 
L 336.001359 53.185931 
L 336.001359 53.185931 
" clip-path="url(#p985677265f)" style="fill: none; stroke-dasharray: 3,4.95; stroke-dashoffset: 0; stroke: #b8e3b2; stroke-width: 3"/>
   </g>
   <g id="line2d_18">
    <path d="M 62.255179 191.148811 
L 64.663536 191.128508 
L 67.071893 190.85991 
L 68.677463 190.441925 
L 70.282916 189.700624 
L 71.085701 189.151299 
L 71.888487 188.439461 
L 72.691154 187.522626 
L 73.493939 186.348774 
L 74.296724 184.857511 
L 75.099511 182.981717 
L 75.902296 180.653168 
L 76.705081 177.811843 
L 77.507867 174.419314 
L 79.113438 166.022038 
L 81.521677 150.807657 
L 83.929913 135.920701 
L 85.535485 127.45038 
L 87.141056 120.198959 
L 88.746508 113.861966 
L 91.154864 105.338444 
L 95.971814 89.409315 
L 100.788411 74.121925 
L 103.196765 67.090566 
L 105.605001 60.733109 
L 108.01336 55.185808 
L 109.618814 51.972528 
L 111.224856 49.149715 
L 112.830428 46.709137 
L 114.436 44.630769 
L 116.04145 42.889398 
L 117.647023 41.45508 
L 119.252477 40.296348 
L 120.858045 39.381663 
L 122.463618 38.679852 
L 124.069186 38.162126 
L 126.477426 37.67218 
L 128.885781 37.456776 
L 131.294017 37.44946 
L 134.505047 37.671484 
L 138.518974 38.188825 
L 144.941019 39.280865 
L 159.391154 41.80451 
L 168.221676 43.078288 
L 177.052083 44.115555 
L 186.685273 45.015497 
L 197.924271 45.827899 
L 211.571738 46.575057 
L 230.838003 47.384011 
L 274.187829 49.150981 
L 293.454208 50.195436 
L 311.918385 51.413525 
L 331.184764 52.906109 
L 336.001359 53.310843 
L 336.001359 53.310843 
" clip-path="url(#p985677265f)" style="fill: none; stroke-dasharray: 3,4.95; stroke-dashoffset: 0; stroke: #b8e3b2; stroke-width: 3"/>
   </g>
   <g id="line2d_19">
    <path d="M 62.255179 191.213961 
L 64.663536 191.186704 
L 67.071893 190.912306 
L 68.677463 190.49134 
L 70.282916 189.748054 
L 71.085701 189.198216 
L 71.888487 188.486291 
L 72.691154 187.569825 
L 73.493939 186.396906 
L 74.296724 184.907147 
L 75.099511 183.033555 
L 75.902296 180.70784 
L 76.705081 177.86993 
L 77.507867 174.481268 
L 79.113438 166.091829 
L 81.521677 150.884301 
L 83.929913 135.993632 
L 85.535485 127.516008 
L 87.141056 120.255006 
L 88.746508 113.907157 
L 91.154864 105.365739 
L 95.971814 89.395242 
L 100.788411 74.059736 
L 103.196765 67.003108 
L 105.605001 60.621355 
L 108.01336 55.051333 
L 109.618814 51.824502 
L 111.224856 48.989303 
L 112.830428 46.538017 
L 114.436 44.450462 
L 116.04145 42.701224 
L 117.647023 41.260342 
L 119.252477 40.096512 
L 120.858045 39.17772 
L 122.463618 38.47281 
L 124.069186 37.95281 
L 126.477426 37.460994 
L 128.885781 37.244911 
L 131.294017 37.237833 
L 134.505047 37.461305 
L 138.518974 37.981397 
L 144.941019 39.078792 
L 159.391154 41.614264 
L 168.221676 42.893818 
L 177.052083 43.93611 
L 186.685273 44.840746 
L 197.924271 45.657768 
L 211.571738 46.409823 
L 230.838003 47.224828 
L 273.385039 48.966272 
L 293.454208 50.056699 
L 311.918385 51.28137 
L 331.987554 52.84678 
L 336.001359 53.185931 
L 336.001359 53.185931 
" clip-path="url(#p985677265f)" style="fill: none; stroke-dasharray: 3,4.95; stroke-dashoffset: 0; stroke: #b8e3b2; stroke-width: 3"/>
   </g>
   <g id="line2d_20">
    <path d="M 62.255179 190.842836 
L 64.718895 191.182189 
L 66.635118 191.220325 
L 68.277595 191.008101 
L 69.646326 190.592122 
L 70.741311 190.049591 
L 71.836296 189.262298 
L 72.93128 188.158985 
L 74.026265 186.649536 
L 75.12125 184.62532 
L 76.216235 181.979521 
L 77.311219 178.643053 
L 78.406204 174.601249 
L 79.774935 168.647989 
L 81.964904 157.836344 
L 84.702366 144.486342 
L 86.618589 136.261636 
L 88.534813 129.023995 
L 90.724782 121.65143 
L 93.188498 114.138891 
L 95.925959 106.452131 
L 98.663421 99.378762 
L 101.127137 93.564006 
L 103.590852 88.308428 
L 105.780822 84.13947 
L 107.970791 80.475257 
L 109.887015 77.700249 
L 111.803238 75.330057 
L 113.719461 73.352231 
L 115.361938 71.950718 
L 117.004415 70.799055 
L 118.920639 69.741405 
L 120.836862 68.957784 
L 122.753085 68.414313 
L 124.943054 68.047326 
L 127.133024 67.910889 
L 129.596739 67.98542 
L 132.334201 68.294545 
L 135.619155 68.901526 
L 139.725348 69.905677 
L 145.474018 71.56521 
L 177.228575 81.093882 
L 190.915884 84.786435 
L 208.709385 89.338901 
L 299.319371 112.186223 
L 335.727612 121.618827 
L 335.727612 121.618827 
" clip-path="url(#p985677265f)" style="fill: none; stroke: #60a7d2; stroke-width: 3; stroke-linecap: square"/>
   </g>
   <g id="line2d_21">
    <path d="M 62.255179 51.659295 
L 64.445149 73.050258 
L 67.182611 97.460128 
L 72.93128 145.976084 
L 75.12125 163.131246 
L 76.489981 172.436828 
L 77.858712 180.149637 
L 78.953696 185.064818 
L 80.048681 188.920566 
L 81.143666 191.861786 
L 82.238651 194.073837 
L 83.333635 195.737333 
L 84.42862 196.998546 
L 85.797351 198.174008 
L 87.166082 199.043518 
L 88.808559 199.822692 
L 90.998528 200.581001 
L 93.73599 201.263367 
L 97.29469 201.903955 
L 101.948375 202.508909 
L 108.244538 203.089797 
L 116.456923 203.606564 
L 127.133024 204.040527 
L 141.915318 204.403414 
L 164.088758 204.706199 
L 200.497 204.956799 
L 265.648591 205.15518 
L 335.727612 205.254342 
L 335.727612 205.254342 
" clip-path="url(#p985677265f)" style="fill: none; stroke-dasharray: 11.1,4.8; stroke-dashoffset: 0; stroke: #fa8331; stroke-width: 3"/>
   </g>
   <g id="line2d_22">
    <path d="M 62.255179 191.110528 
L 64.663536 191.410694 
L 66.269107 191.44251 
L 67.874678 191.28158 
L 69.48013 190.845207 
L 71.085701 190.00497 
L 71.888487 189.376304 
L 72.691154 188.568873 
L 73.493939 187.546349 
L 74.296724 186.268569 
L 75.099511 184.692965 
L 75.902296 182.778158 
L 76.705081 180.489027 
L 77.507867 177.803259 
L 79.113438 171.256468 
L 80.718891 163.424578 
L 85.535485 138.645502 
L 87.141056 131.545269 
L 88.746508 125.18029 
L 91.154864 116.711587 
L 93.563103 109.133098 
L 95.971814 102.159482 
L 98.380052 95.69435 
L 100.788411 89.750585 
L 103.196765 84.388459 
L 105.605001 79.667843 
L 107.210574 76.895751 
L 108.816028 74.427979 
L 110.422188 72.259714 
L 112.027642 70.383557 
L 113.633214 68.784958 
L 115.238664 67.446771 
L 116.844237 66.349597 
L 118.449809 65.47286 
L 120.055259 64.795483 
L 121.660831 64.296616 
L 124.069186 63.839347 
L 126.477426 63.675635 
L 128.885781 63.749203 
L 132.096807 64.13328 
L 135.307829 64.757846 
L 139.321756 65.76473 
L 144.941019 67.412775 
L 168.221676 74.501097 
L 177.854865 77.076141 
L 187.488055 79.420514 
L 198.727053 81.922924 
L 212.374529 84.724209 
L 233.246358 88.744389 
L 266.16009 95.088763 
L 284.623793 98.89892 
L 301.482062 102.601036 
L 319.143334 106.704742 
L 336.001359 110.805595 
L 336.001359 110.805595 
" clip-path="url(#p985677265f)" style="fill: none; stroke-dasharray: 3,4.95; stroke-dashoffset: 0; stroke: #66bd6f; stroke-width: 3"/>
   </g>
   <g id="line2d_23">
    <path d="M 62.255179 190.599767 
L 64.663536 190.893451 
L 66.269107 190.919455 
L 67.874678 190.750958 
L 69.48013 190.303828 
L 70.282916 189.93711 
L 71.085701 189.446807 
L 71.888487 188.805975 
L 72.691154 187.982632 
L 73.493939 186.939186 
L 74.296724 185.633837 
L 75.099511 184.022047 
L 75.902296 182.060084 
L 76.705081 179.710313 
L 77.507867 176.948089 
L 79.113438 170.195131 
L 80.718891 162.09115 
L 85.535485 136.458034 
L 87.141056 129.174344 
L 88.746508 122.69 
L 91.154864 114.139716 
L 93.563103 106.563162 
L 95.971814 99.649141 
L 98.380052 93.287668 
L 100.788411 87.485216 
L 103.196765 82.298135 
L 105.605001 77.782197 
L 107.210574 75.16033 
L 108.816028 72.851384 
L 110.422188 70.848473 
L 112.027642 69.141594 
L 113.633214 67.713501 
L 115.238664 66.545078 
L 116.844237 65.614385 
L 118.449809 64.899142 
L 120.055259 64.376291 
L 121.660831 64.023735 
L 124.069186 63.768209 
L 126.477426 63.782677 
L 128.885781 64.009569 
L 132.096807 64.559303 
L 136.110612 65.515842 
L 141.729997 67.128881 
L 161.799517 73.11639 
L 170.629916 75.413344 
L 179.460438 77.482415 
L 189.896532 79.692029 
L 202.740866 82.160095 
L 219.599364 85.143328 
L 291.848628 97.624931 
L 318.340544 102.604658 
L 336.001359 106.002885 
L 336.001359 106.002885 
" clip-path="url(#p985677265f)" style="fill: none; stroke-dasharray: 3,4.95; stroke-dashoffset: 0; stroke: #66bd6f; stroke-width: 3"/>
   </g>
   <g id="line2d_24">
    <path d="M 62.255179 190.745349 
L 64.663536 191.045876 
L 66.269107 191.075078 
L 67.874678 190.90853 
L 69.48013 190.462107 
L 70.282916 190.095357 
L 71.085701 189.60485 
L 71.888487 188.96381 
L 72.691154 188.140433 
L 73.493939 187.097461 
L 74.296724 185.793561 
L 75.099511 184.184813 
L 75.902296 182.228324 
L 76.705081 179.887398 
L 77.507867 177.138436 
L 79.113438 170.428411 
L 80.718891 162.389163 
L 85.535485 136.952183 
L 87.141056 129.68981 
L 88.746508 123.199795 
L 91.154864 114.600808 
L 93.563103 106.942416 
L 95.971814 99.92536 
L 98.380052 93.44643 
L 100.788411 87.515793 
L 103.196765 82.192359 
L 105.605001 77.534052 
L 107.210574 74.815109 
L 108.816028 72.408528 
L 110.422188 70.30811 
L 112.027642 68.504943 
L 113.633214 66.982818 
L 115.238664 65.723233 
L 116.844237 64.705238 
L 118.449809 63.907001 
L 120.055259 63.306273 
L 121.660831 62.881286 
L 124.069186 62.527584 
L 126.477426 62.457143 
L 128.885781 62.612402 
L 132.096807 63.086477 
L 136.110612 63.977736 
L 140.927206 65.307506 
L 150.560396 68.270752 
L 160.996849 71.403038 
L 169.827134 73.817321 
L 178.657656 76.004619 
L 188.290959 78.170033 
L 199.529721 80.473185 
L 213.979979 83.196161 
L 236.457503 87.172599 
L 267.765654 92.741437 
L 287.834823 96.551595 
L 307.10179 100.436081 
L 328.776523 105.039451 
L 336.001359 106.617137 
L 336.001359 106.617137 
" clip-path="url(#p985677265f)" style="fill: none; stroke-dasharray: 3,4.95; stroke-dashoffset: 0; stroke: #66bd6f; stroke-width: 3"/>
   </g>
   <g id="line2d_25">
    <path d="M 62.255179 190.64142 
L 64.663536 190.937342 
L 66.269107 190.963917 
L 67.874678 190.795085 
L 69.48013 190.346554 
L 70.282916 189.978692 
L 71.085701 189.486911 
L 71.888487 188.8443 
L 72.691154 188.018881 
L 73.493939 186.973107 
L 74.296724 185.665299 
L 75.099511 184.051081 
L 75.902296 182.086964 
L 76.705081 179.735634 
L 77.507867 176.972853 
L 79.113438 170.223074 
L 80.718891 162.128498 
L 85.535485 136.520086 
L 87.141056 129.228076 
L 88.746508 122.72573 
L 91.154864 114.13416 
L 93.563103 106.505318 
L 95.971814 99.532527 
L 98.380052 93.108663 
L 100.788411 87.241665 
L 103.196765 81.989111 
L 105.605001 77.407508 
L 107.210574 74.742247 
L 108.816028 72.390557 
L 110.422188 70.345719 
L 112.027642 68.598223 
L 113.633214 67.131064 
L 115.238664 65.925334 
L 116.844237 64.95937 
L 118.449809 64.210955 
L 120.055259 63.657417 
L 121.660831 63.276668 
L 124.069186 62.983377 
L 126.477426 62.965618 
L 128.885781 63.165913 
L 132.096807 63.688113 
L 136.110612 64.621786 
L 141.729997 66.220596 
L 163.405081 72.694685 
L 172.235488 74.984368 
L 181.868678 77.229804 
L 192.304772 79.426042 
L 205.14922 81.889111 
L 222.007588 84.8789 
L 283.018343 95.486262 
L 305.496226 99.74905 
L 331.987554 105.016034 
L 336.001359 105.828793 
L 336.001359 105.828793 
" clip-path="url(#p985677265f)" style="fill: none; stroke-dasharray: 3,4.95; stroke-dashoffset: 0; stroke: #66bd6f; stroke-width: 3"/>
   </g>
   <g id="line2d_26">
    <path d="M 62.255179 190.874049 
L 64.663536 191.17665 
L 66.269107 191.207858 
L 67.874678 191.044014 
L 69.48013 190.601479 
L 70.282916 190.237335 
L 71.085701 189.750123 
L 71.888487 189.113224 
L 72.691154 188.295145 
L 73.493939 187.258977 
L 74.296724 185.963797 
L 75.099511 184.36623 
L 75.902296 182.423959 
L 76.705081 180.10096 
L 77.507867 177.374141 
L 79.113438 170.722472 
L 80.718891 162.758685 
L 85.535485 137.56059 
L 87.141056 130.353838 
L 88.746508 123.903926 
L 91.154864 115.341301 
L 93.563103 107.69834 
L 95.971814 100.681724 
L 98.380052 94.191589 
L 100.788411 88.239132 
L 103.196765 82.884332 
L 105.605001 78.186069 
L 107.210574 75.436329 
L 108.816028 72.996164 
L 110.422188 70.860089 
L 112.027642 69.019763 
L 113.633214 67.45958 
L 115.238664 66.161624 
L 116.844237 65.105671 
L 118.449809 64.270294 
L 120.055259 63.633771 
L 121.660831 63.17454 
L 124.069186 62.773336 
L 126.477426 62.6605 
L 128.885781 62.779057 
L 132.096807 63.212864 
L 135.307829 63.875489 
L 140.124538 65.140823 
L 147.349373 67.328021 
L 161.799517 71.740539 
L 170.629916 74.188159 
L 179.460438 76.416385 
L 189.896532 78.80683 
L 201.938076 81.316254 
L 217.191009 84.244578 
L 246.090692 89.496425 
L 269.371235 93.83224 
L 287.834823 97.493208 
L 305.496226 101.214477 
L 324.762605 105.502019 
L 336.001359 108.09495 
L 336.001359 108.09495 
" clip-path="url(#p985677265f)" style="fill: none; stroke-dasharray: 3,4.95; stroke-dashoffset: 0; stroke: #66bd6f; stroke-width: 3"/>
   </g>
   <g id="line2d_27">
    <path d="M 62.255179 190.97702 
L 64.663536 191.279306 
L 66.269107 191.311155 
L 67.874678 191.148875 
L 69.48013 190.709211 
L 70.282916 190.347226 
L 71.085701 189.862783 
L 71.888487 189.229468 
L 72.691154 188.416022 
L 73.493939 187.385762 
L 74.296724 186.098125 
L 75.099511 184.510113 
L 75.902296 182.579814 
L 76.705081 180.271642 
L 77.507867 177.562859 
L 79.113438 170.957607 
L 80.718891 163.052539 
L 85.535485 138.041015 
L 87.141056 130.880857 
L 88.746508 124.467421 
L 91.154864 115.943781 
L 93.563103 108.326014 
L 95.971814 101.324499 
L 98.380052 94.841067 
L 100.788411 88.887931 
L 103.196765 83.525108 
L 105.605001 78.812111 
L 107.210574 76.049288 
L 108.816028 73.593656 
L 110.422188 71.440143 
L 112.027642 69.580966 
L 113.633214 68.000777 
L 115.238664 66.682248 
L 116.844237 65.605354 
L 118.449809 64.74909 
L 120.055259 64.092187 
L 121.660831 63.613206 
L 124.069186 63.184323 
L 126.477426 63.046456 
L 128.885781 63.142982 
L 132.096807 63.552612 
L 135.307829 64.196689 
L 139.321756 65.219947 
L 145.743801 67.12537 
L 165.010653 73.000161 
L 173.840938 75.404349 
L 183.47425 77.79021 
L 193.910344 80.143403 
L 206.755144 82.796938 
L 223.613168 86.031434 
L 273.385039 95.431407 
L 291.045968 99.068711 
L 308.70724 102.934018 
L 327.973619 107.388619 
L 336.001359 109.306438 
L 336.001359 109.306438 
" clip-path="url(#p985677265f)" style="fill: none; stroke-dasharray: 3,4.95; stroke-dashoffset: 0; stroke: #66bd6f; stroke-width: 3"/>
   </g>
   <g id="line2d_28">
    <path d="M 62.255179 190.842836 
L 64.718895 190.657108 
L 66.908864 190.287057 
L 68.825088 189.740864 
L 70.467565 189.050693 
L 72.110042 188.10655 
L 73.752519 186.867186 
L 75.12125 185.57658 
L 76.489981 184.016967 
L 77.858712 182.156544 
L 79.501189 179.500676 
L 81.143666 176.399006 
L 83.333635 171.73694 
L 88.534813 160.372723 
L 90.17729 157.335533 
L 91.819767 154.772982 
L 93.188498 153.039762 
L 94.557229 151.681318 
L 95.925959 150.685693 
L 97.020944 150.132517 
L 98.389675 149.715117 
L 99.758406 149.565286 
L 101.127137 149.643635 
L 102.769614 149.98733 
L 104.685837 150.661841 
L 106.875807 151.700457 
L 109.613268 153.262529 
L 115.361938 156.893965 
L 119.468131 159.345573 
L 122.479339 160.909006 
L 125.216801 162.102982 
L 127.954262 163.05099 
L 130.417978 163.677816 
L 132.881694 164.080368 
L 135.345409 164.253258 
L 137.809125 164.195304 
L 140.27284 163.910036 
L 142.736556 163.40609 
L 145.474018 162.606492 
L 148.21148 161.579049 
L 151.222688 160.221054 
L 154.781388 158.363188 
L 158.887581 155.956194 
L 163.815012 152.79346 
L 169.289935 149.00995 
L 175.038605 144.76136 
L 180.513529 140.441371 
L 186.262199 135.616665 
L 193.653345 129.090219 
L 203.234462 120.656961 
L 207.888147 116.859621 
L 211.994339 113.796989 
L 215.55304 111.413512 
L 218.837994 109.466923 
L 222.122948 107.782782 
L 225.134156 106.478262 
L 228.145364 105.403898 
L 231.156572 104.55475 
L 234.16778 103.920464 
L 237.452734 103.456346 
L 241.011434 103.195879 
L 244.570135 103.156216 
L 248.676327 103.342327 
L 253.056266 103.763381 
L 258.257444 104.491835 
L 264.553606 105.607989 
L 273.039737 107.359656 
L 286.727046 110.447107 
L 321.766557 118.403567 
L 335.727612 121.394676 
L 335.727612 121.394676 
" clip-path="url(#p985677265f)" style="fill: none; stroke: #1d6cb1; stroke-width: 3; stroke-linecap: square"/>
   </g>
   <g id="line2d_29">
    <path d="M 62.255179 51.659295 
L 66.087626 75.693093 
L 69.920072 101.264665 
L 76.216235 143.724006 
L 78.132458 155.001686 
L 79.774935 163.449966 
L 81.143666 169.525398 
L 82.512397 174.715543 
L 83.881128 179.062775 
L 85.249858 182.64612 
L 86.618589 185.569834 
L 87.98732 187.946025 
L 89.356051 189.878921 
L 90.724782 191.457151 
L 92.367259 192.983376 
L 94.009736 194.199889 
L 95.925959 195.326256 
L 98.115929 196.332598 
L 100.579645 197.213916 
L 103.590852 198.047766 
L 107.423299 198.858023 
L 112.076984 199.605024 
L 118.0994 200.336826 
L 126.038039 201.061101 
L 136.440394 201.773009 
L 150.675195 202.510381 
L 169.289935 203.242473 
L 191.463376 203.886695 
L 215.826786 204.370836 
L 244.843881 204.712262 
L 291.106985 205.008548 
L 335.727612 205.17372 
L 335.727612 205.17372 
" clip-path="url(#p985677265f)" style="fill: none; stroke-dasharray: 11.1,4.8; stroke-dashoffset: 0; stroke: #d14501; stroke-width: 3"/>
   </g>
   <g id="line2d_30">
    <path d="M 62.255179 191.650915 
L 64.663536 191.464927 
L 67.071893 191.047415 
L 68.677463 190.595802 
L 70.282916 189.964961 
L 71.888487 189.112319 
L 73.493939 187.989886 
L 75.099511 186.546849 
L 76.705081 184.736783 
L 78.310652 182.527441 
L 79.916223 179.914035 
L 81.521677 176.932507 
L 83.929913 171.96419 
L 87.943842 163.551956 
L 89.549294 160.588921 
L 91.154864 158.031527 
L 92.760318 155.940658 
L 94.366244 154.335375 
L 95.971814 153.204217 
L 97.577266 152.512542 
L 99.182838 152.213796 
L 100.788411 152.256356 
L 102.393861 152.588237 
L 103.999551 153.160112 
L 105.605001 153.926282 
L 108.01336 155.35178 
L 111.224856 157.588607 
L 123.266285 166.394783 
L 126.477426 168.358522 
L 129.688567 170.0572 
L 132.899589 171.473397 
L 136.110612 172.602736 
L 139.321756 173.450271 
L 142.532779 174.02751 
L 145.743801 174.35083 
L 148.954823 174.439606 
L 152.165968 174.315156 
L 155.376991 173.999622 
L 159.391154 173.369878 
L 163.405081 172.516106 
L 168.221676 171.244368 
L 173.038156 169.744575 
L 178.657656 167.737405 
L 183.47425 165.796356 
L 188.290959 163.62854 
L 193.107554 161.195563 
L 197.121481 158.931726 
L 201.135285 156.425226 
L 205.14922 153.655894 
L 209.163384 150.615573 
L 213.177188 147.314564 
L 217.993783 143.055783 
L 225.218732 136.290425 
L 232.443682 129.558096 
L 236.457503 126.061427 
L 240.471193 122.86256 
L 243.682338 120.567669 
L 246.893352 118.535538 
L 250.104382 116.778709 
L 253.315397 115.298668 
L 256.527015 114.08729 
L 259.738045 113.129183 
L 262.949059 112.403342 
L 266.16009 111.885689 
L 270.174009 111.492957 
L 274.187829 111.337753 
L 279.004424 111.401914 
L 284.623793 111.738012 
L 291.045968 112.3629 
L 299.073708 113.371213 
L 311.115594 115.129647 
L 334.395794 118.804872 
L 336.001359 119.062231 
L 336.001359 119.062231 
" clip-path="url(#p985677265f)" style="fill: none; stroke-dasharray: 3,4.95; stroke-dashoffset: 0; stroke: #1e8741; stroke-width: 3"/>
   </g>
   <g id="line2d_31">
    <path d="M 62.255179 191.761084 
L 64.663536 191.574107 
L 67.071893 191.157829 
L 68.677463 190.708725 
L 70.282916 190.082156 
L 71.888487 189.235955 
L 73.493939 188.12258 
L 75.099511 186.691701 
L 76.705081 184.897239 
L 78.310652 182.707125 
L 79.916223 180.116402 
L 81.521677 177.160344 
L 83.929913 172.23312 
L 87.943842 163.885492 
L 89.549294 160.943576 
L 91.154864 158.403754 
L 92.760318 156.32677 
L 94.366244 154.731889 
L 95.971814 153.607732 
L 97.577266 152.920008 
L 99.182838 152.622436 
L 100.788411 152.663602 
L 102.393861 152.991884 
L 103.999551 153.558231 
L 105.605001 154.317373 
L 108.01336 155.730562 
L 111.224856 157.950606 
L 124.069186 167.311245 
L 127.280212 169.27759 
L 130.491235 171.00446 
L 133.702257 172.479638 
L 136.913402 173.701234 
L 140.124538 174.674182 
L 143.335569 175.40844 
L 146.546591 175.917324 
L 149.757614 176.216734 
L 152.968759 176.324267 
L 156.982449 176.217071 
L 160.996849 175.875217 
L 165.813321 175.20281 
L 170.629916 174.290002 
L 175.446633 173.169938 
L 181.065888 171.618488 
L 185.882482 170.068761 
L 190.699314 168.285025 
L 194.713004 166.587409 
L 198.727053 164.663493 
L 202.740866 162.480219 
L 206.755144 160.006516 
L 210.768834 157.220487 
L 214.782769 154.113314 
L 218.796573 150.697443 
L 223.613168 146.245908 
L 230.035213 139.918693 
L 238.062953 131.987479 
L 242.076871 128.285226 
L 246.090692 124.900165 
L 249.301592 122.472716 
L 252.512623 120.321853 
L 255.724224 118.458825 
L 258.935255 116.883798 
L 262.146285 115.586201 
L 265.3573 114.548108 
L 268.568444 113.746883 
L 271.779589 113.157331 
L 275.793394 112.678241 
L 279.807084 112.439649 
L 284.623793 112.40766 
L 290.243178 112.637422 
L 296.665337 113.15017 
L 304.693435 114.034847 
L 315.932075 115.529209 
L 333.593004 118.138121 
L 336.001359 118.504292 
L 336.001359 118.504292 
" clip-path="url(#p985677265f)" style="fill: none; stroke-dasharray: 3,4.95; stroke-dashoffset: 0; stroke: #1e8741; stroke-width: 3"/>
   </g>
   <g id="line2d_32">
    <path d="M 62.255179 191.41709 
L 64.663536 191.228012 
L 67.071893 190.803436 
L 68.677463 190.343923 
L 70.282916 189.701776 
L 71.888487 188.833552 
L 73.493939 187.690261 
L 75.099511 186.220247 
L 76.705081 184.376349 
L 78.310652 182.126173 
L 79.916223 179.465613 
L 81.521677 176.432143 
L 83.929913 171.382979 
L 87.943842 162.85499 
L 89.549294 159.859536 
L 91.154864 157.279239 
L 92.760318 155.174498 
L 94.366244 153.563494 
L 95.971814 152.433212 
L 97.577266 151.7475 
L 99.182838 151.457932 
L 100.788411 151.511274 
L 102.393861 151.853873 
L 103.999551 152.434628 
L 106.407788 153.650127 
L 108.816028 155.156239 
L 112.830428 158.004154 
L 119.252477 162.589251 
L 122.463618 164.616064 
L 125.674758 166.361703 
L 128.082998 167.461622 
L 130.491235 168.372341 
L 132.899589 169.090862 
L 135.307829 169.618382 
L 137.716184 169.959315 
L 140.124538 170.120238 
L 142.532779 170.109414 
L 145.743801 169.84423 
L 148.954823 169.314777 
L 152.165968 168.546643 
L 155.376991 167.565601 
L 159.391154 166.078003 
L 163.405081 164.342967 
L 168.221676 161.990159 
L 173.038156 159.391998 
L 178.657656 156.094482 
L 184.276918 152.529073 
L 189.896532 148.689434 
L 195.515794 144.56162 
L 201.135285 140.147763 
L 207.557934 134.813601 
L 221.204814 123.334856 
L 226.021523 119.656312 
L 230.035213 116.90109 
L 233.246358 114.944416 
L 236.457503 113.231779 
L 239.668517 111.774952 
L 242.879662 110.576466 
L 246.090692 109.630012 
L 249.301592 108.922461 
L 252.512623 108.435211 
L 255.724224 108.14611 
L 259.738045 108.02703 
L 263.75185 108.133155 
L 268.568444 108.495127 
L 274.187829 109.155735 
L 281.412648 110.249572 
L 292.651418 112.219963 
L 332.790328 119.423433 
L 336.001359 119.976173 
L 336.001359 119.976173 
" clip-path="url(#p985677265f)" style="fill: none; stroke-dasharray: 3,4.95; stroke-dashoffset: 0; stroke: #1e8741; stroke-width: 3"/>
   </g>
   <g id="line2d_33">
    <path d="M 62.255179 191.603568 
L 64.663536 191.417421 
L 67.071893 190.998891 
L 68.677463 190.545883 
L 70.282916 189.912927 
L 71.888487 189.057274 
L 73.493939 187.930709 
L 75.099511 186.482235 
L 76.705081 184.66528 
L 78.310652 182.447568 
L 79.916223 179.824413 
L 81.521677 176.831993 
L 83.929913 171.846444 
L 87.943842 163.408483 
L 89.549294 160.437746 
L 91.154864 157.87442 
L 92.760318 155.779439 
L 94.366244 154.171892 
L 95.971814 153.039895 
L 97.577266 152.348719 
L 99.182838 152.051564 
L 100.788411 152.096568 
L 102.393861 152.431511 
L 103.999551 153.006783 
L 105.605001 153.776368 
L 108.01336 155.206592 
L 111.224856 157.446995 
L 122.463618 165.67679 
L 125.674758 167.662139 
L 128.885781 169.375479 
L 132.096807 170.795428 
L 135.307829 171.915352 
L 138.518974 172.739409 
L 141.729997 173.279137 
L 144.941019 173.551402 
L 148.152164 173.576554 
L 151.3633 173.376795 
L 154.574323 172.975445 
L 158.588372 172.225281 
L 162.602299 171.238743 
L 167.418894 169.794876 
L 172.235488 168.113091 
L 177.854865 165.887248 
L 182.67146 163.758261 
L 187.488055 161.406745 
L 192.304772 158.798806 
L 196.318576 156.400155 
L 200.332512 153.772774 
L 204.346316 150.902005 
L 208.360708 147.785462 
L 213.177188 143.746656 
L 218.796573 138.715861 
L 231.640777 127.053953 
L 235.654712 123.749226 
L 239.668517 120.765314 
L 242.879662 118.65151 
L 246.090692 116.802318 
L 249.301592 115.225632 
L 252.512623 113.918865 
L 255.724224 112.870669 
L 258.935255 112.063952 
L 262.146285 111.476371 
L 265.3573 111.083776 
L 269.371235 110.829094 
L 273.385039 110.792814 
L 278.201634 110.977248 
L 283.821019 111.426962 
L 291.045968 112.255564 
L 300.679272 113.61294 
L 316.734865 116.138877 
L 336.001359 119.27395 
L 336.001359 119.27395 
" clip-path="url(#p985677265f)" style="fill: none; stroke-dasharray: 3,4.95; stroke-dashoffset: 0; stroke: #1e8741; stroke-width: 3"/>
   </g>
   <g id="line2d_34">
    <path d="M 62.255179 191.47403 
L 64.663536 191.28613 
L 67.071893 190.863658 
L 68.677463 190.406254 
L 70.282916 189.766999 
L 71.888487 188.90267 
L 73.493939 187.764502 
L 75.099511 186.301042 
L 76.705081 184.465256 
L 78.310652 182.224833 
L 79.916223 179.575456 
L 81.521677 176.554199 
L 83.929913 171.523754 
L 87.943842 163.021619 
L 89.549294 160.033008 
L 91.154864 157.457236 
L 92.760318 155.355016 
L 94.366244 153.744709 
L 95.971814 152.613826 
L 97.577266 151.92668 
L 99.182838 151.635526 
L 100.788411 151.687561 
L 102.393861 152.029514 
L 103.999551 152.610952 
L 105.605001 153.384896 
L 108.01336 154.815982 
L 111.224856 157.042435 
L 120.858045 163.98354 
L 124.069186 165.953912 
L 127.280212 167.634049 
L 129.688567 168.685402 
L 132.096807 169.551452 
L 134.505047 170.231564 
L 136.913402 170.728604 
L 139.321756 171.047972 
L 142.532779 171.2103 
L 145.743801 171.091038 
L 148.954823 170.713792 
L 152.165968 170.103459 
L 155.376991 169.285387 
L 159.391154 168.007926 
L 163.405081 166.489072 
L 168.221676 164.401581 
L 173.038156 162.07235 
L 178.657656 159.088296 
L 184.276918 155.827647 
L 189.09375 152.798988 
L 193.910344 149.533879 
L 198.727053 146.016027 
L 203.543526 142.24655 
L 209.163384 137.57206 
L 226.824182 122.582417 
L 230.838003 119.601879 
L 234.049148 117.449723 
L 237.260162 115.534188 
L 240.471193 113.872757 
L 243.682338 112.472701 
L 246.893352 111.331921 
L 250.104382 110.440378 
L 253.315397 109.78142 
L 256.527015 109.333952 
L 260.540705 109.036701 
L 264.55464 108.986063 
L 269.371235 109.186404 
L 274.990603 109.690955 
L 281.412648 110.511241 
L 290.243178 111.885313 
L 307.10179 114.795364 
L 336.001359 119.781251 
L 336.001359 119.781251 
" clip-path="url(#p985677265f)" style="fill: none; stroke-dasharray: 3,4.95; stroke-dashoffset: 0; stroke: #1e8741; stroke-width: 3"/>
   </g>
   <g id="line2d_35">
    <path d="M 62.255179 190.842836 
L 79.227443 191.119226 
L 87.166082 191.075794 
L 92.093513 190.834924 
L 96.199706 190.408269 
L 99.48466 189.857525 
L 102.495868 189.147347 
L 105.507076 188.222296 
L 108.79203 186.971478 
L 113.445715 184.910047 
L 118.920639 182.521722 
L 121.6581 181.561387 
L 124.121816 180.936227 
L 126.311785 180.597202 
L 128.775501 180.453114 
L 131.239217 180.530297 
L 134.250425 180.864591 
L 137.809125 181.499143 
L 143.284048 182.732219 
L 153.138911 184.956781 
L 159.161327 186.075568 
L 165.183743 186.9731 
L 171.206159 187.650487 
L 177.228575 188.103749 
L 182.977244 188.320468 
L 188.99966 188.320987 
L 195.295822 188.089943 
L 202.139477 187.612092 
L 210.625609 186.783826 
L 224.86041 185.126134 
L 240.737688 183.348465 
L 251.687535 182.351986 
L 262.08989 181.630146 
L 273.039737 181.100797 
L 285.084569 180.746391 
L 300.414355 180.531303 
L 335.727612 180.293216 
L 335.727612 180.293216 
" clip-path="url(#p985677265f)" style="fill: none; stroke: #08306b; stroke-width: 3; stroke-linecap: square"/>
   </g>
   <g id="line2d_36">
    <path d="M 62.255179 51.659295 
L 68.551342 67.888977 
L 83.881128 107.05495 
L 88.808559 120.472345 
L 94.830975 137.573834 
L 101.400883 156.155806 
L 104.412091 164.058877 
L 106.875807 169.968185 
L 109.065776 174.697296 
L 111.255745 178.88454 
L 113.171969 182.09247 
L 115.088192 184.882913 
L 117.004415 187.27746 
L 118.920639 189.308732 
L 120.836862 191.017315 
L 122.753085 192.447606 
L 124.943054 193.797468 
L 127.40677 195.022839 
L 129.870486 196.004753 
L 132.881694 196.954374 
L 136.440394 197.818276 
L 140.546587 198.576112 
L 145.747764 199.298401 
L 152.591419 200.003985 
L 161.625042 200.69378 
L 173.669874 201.379456 
L 190.094645 202.079229 
L 211.994339 202.776552 
L 239.642703 203.426564 
L 273.58723 203.994882 
L 316.017887 204.472627 
L 335.727612 204.634836 
L 335.727612 204.634836 
" clip-path="url(#p985677265f)" style="fill: none; stroke-dasharray: 11.1,4.8; stroke-dashoffset: 0; stroke: #7f2704; stroke-width: 3"/>
   </g>
   <g id="line2d_37">
    <path d="M 62.255179 190.105203 
L 78.310652 190.166758 
L 86.33827 190.042554 
L 91.154864 189.784561 
L 95.16903 189.363874 
L 98.380052 188.831095 
L 101.591193 188.075129 
L 104.802219 187.061791 
L 108.01336 185.783923 
L 112.027642 183.880937 
L 119.252477 180.338238 
L 121.660831 179.397539 
L 124.069186 178.682507 
L 126.477426 178.223666 
L 128.885781 178.024015 
L 131.294017 178.06294 
L 133.702257 178.303785 
L 136.913402 178.862116 
L 141.729997 179.999036 
L 153.771541 182.98653 
L 159.391154 184.086286 
L 165.010653 184.93876 
L 170.629916 185.554869 
L 176.249301 185.954072 
L 182.67146 186.167432 
L 189.09375 186.140504 
L 195.515794 185.887676 
L 201.938076 185.422655 
L 209.163384 184.668629 
L 217.191009 183.589571 
L 227.626859 181.925766 
L 251.709832 177.965644 
L 261.343495 176.671221 
L 270.174009 175.715181 
L 279.004424 174.985438 
L 288.637614 174.429294 
L 299.073708 174.069695 
L 310.31282 173.907444 
L 323.959815 173.938718 
L 336.001359 174.108551 
L 336.001359 174.108551 
" clip-path="url(#p985677265f)" style="fill: none; stroke-dasharray: 3,4.95; stroke-dashoffset: 0; stroke: #00441b; stroke-width: 3"/>
   </g>
   <g id="line2d_38">
    <path d="M 62.255179 190.5781 
L 77.507867 190.742591 
L 86.33827 190.651627 
L 91.154864 190.405212 
L 95.16903 189.992266 
L 98.380052 189.466701 
L 101.591193 188.721501 
L 104.802219 187.725622 
L 108.01336 186.475409 
L 112.027642 184.625544 
L 118.449809 181.55979 
L 120.858045 180.603608 
L 123.266285 179.851171 
L 125.674758 179.337738 
L 128.082998 179.072418 
L 130.491235 179.040502 
L 132.899589 179.210246 
L 136.110612 179.679081 
L 140.124538 180.514319 
L 155.376991 183.954979 
L 160.996849 184.876011 
L 166.616112 185.549698 
L 172.235488 185.988103 
L 177.854865 186.208724 
L 183.47425 186.227875 
L 189.896532 186.020811 
L 196.318576 185.588073 
L 203.543526 184.859325 
L 211.571738 183.799585 
L 221.204814 182.288696 
L 246.090692 178.262515 
L 255.724224 177.003361 
L 264.55464 176.074384 
L 273.385039 175.359036 
L 283.018343 174.797193 
L 294.256982 174.378262 
L 307.10179 174.128377 
L 324.762605 174.024251 
L 336.001359 174.028881 
L 336.001359 174.028881 
" clip-path="url(#p985677265f)" style="fill: none; stroke-dasharray: 3,4.95; stroke-dashoffset: 0; stroke: #00441b; stroke-width: 3"/>
   </g>
   <g id="line2d_39">
    <path d="M 62.255179 190.507948 
L 75.902296 190.836579 
L 84.732699 190.857238 
L 90.35208 190.636522 
L 94.366244 190.259747 
L 97.577266 189.765916 
L 100.788411 189.055163 
L 103.999551 188.094662 
L 107.210574 186.876304 
L 111.224856 185.049314 
L 118.449809 181.59168 
L 120.858045 180.650014 
L 123.266285 179.917102 
L 125.674758 179.425522 
L 128.082998 179.182302 
L 130.491235 179.171633 
L 132.899589 179.361716 
L 136.110612 179.857667 
L 140.124538 180.731153 
L 157.785231 184.922401 
L 163.405081 185.895194 
L 169.024466 186.638417 
L 174.643843 187.158919 
L 180.263106 187.467358 
L 186.685273 187.575903 
L 193.107554 187.445357 
L 200.332512 187.048686 
L 208.360708 186.361268 
L 218.796573 185.225072 
L 240.471193 182.808701 
L 250.907042 181.904291 
L 261.343495 181.231684 
L 272.582249 180.742706 
L 285.426583 180.413206 
L 303.890776 180.19074 
L 336.001359 179.870546 
L 336.001359 179.870546 
" clip-path="url(#p985677265f)" style="fill: none; stroke-dasharray: 3,4.95; stroke-dashoffset: 0; stroke: #00441b; stroke-width: 3"/>
   </g>
   <g id="patch_3">
    <path d="M 48.56787 213.718154 
L 48.56787 28.815931 
" style="fill: none; stroke: #000000; stroke-width: 0.8; stroke-linejoin: miter; stroke-linecap: square"/>
   </g>
   <g id="patch_4">
    <path d="M 349.688667 213.718154 
L 349.688667 28.815931 
" style="fill: none; stroke: #000000; stroke-width: 0.8; stroke-linejoin: miter; stroke-linecap: square"/>
   </g>
   <g id="patch_5">
    <path d="M 48.56787 213.718154 
L 349.688667 213.718154 
" style="fill: none; stroke: #000000; stroke-width: 0.8; stroke-linejoin: miter; stroke-linecap: square"/>
   </g>
   <g id="patch_6">
    <path d="M 48.56787 28.815931 
L 349.688667 28.815931 
" style="fill: none; stroke: #000000; stroke-width: 0.8; stroke-linejoin: miter; stroke-linecap: square"/>
   </g>
   <g id="legend_1">
    <g id="line2d_40">
     <path d="M 362.288667 46.976703 
L 376.288667 46.976703 
L 389.542964 46.976703 
" style="fill: none; stroke: #b7d4ea; stroke-width: 3; stroke-linecap: square"/>
    </g>
    <g id="text_14">
     <!-- $P_{int}$ (A = 0.0) -->
     <g transform="translate(401.488667 51.876703) scale(0.14 -0.14)">
      <defs>
       <path id="CMMI12-50" d="M 1894 2023 
L 2970 2023 
C 3853 2023 4736 2673 4736 3401 
C 4736 3898 4314 4352 3507 4352 
L 1530 4352 
C 1408 4352 1350 4352 1350 4231 
C 1350 4167 1408 4167 1504 4167 
C 1894 4167 1894 4116 1894 4046 
C 1894 4034 1894 3995 1869 3899 
L 1005 472 
C 947 249 934 185 486 185 
C 365 185 301 185 301 70 
C 301 0 358 0 397 0 
C 518 0 646 0 768 0 
L 1517 0 
C 1638 0 1773 0 1894 0 
C 1946 0 2016 0 2016 121 
C 2016 185 1958 185 1862 185 
C 1478 185 1472 230 1472 293 
C 1472 325 1478 369 1485 401 
L 1894 2023 
z
M 2355 3930 
C 2413 4167 2438 4167 2688 4167 
L 3322 4167 
C 3802 4167 4198 4013 4198 3535 
C 4198 3369 4115 2827 3821 2534 
C 3712 2419 3405 2176 2822 2176 
L 1920 2176 
L 2355 3930 
z
" transform="scale(0.015625)"/>
       <path id="CMMI12-69" d="M 1811 913 
C 1811 945 1786 971 1747 971 
C 1690 971 1683 952 1651 843 
C 1485 262 1222 64 1011 64 
C 934 64 845 83 845 275 
C 845 447 922 639 992 830 
L 1440 2018 
C 1459 2069 1504 2184 1504 2305 
C 1504 2574 1312 2816 998 2816 
C 410 2816 173 1890 173 1839 
C 173 1814 198 1782 243 1782 
C 301 1782 307 1807 333 1896 
C 486 2428 730 2682 979 2682 
C 1037 2682 1146 2682 1146 2478 
C 1146 2312 1062 2101 1011 1961 
L 563 773 
C 525 671 486 568 486 453 
C 486 166 685 -64 992 -64 
C 1581 -64 1811 869 1811 913 
z
M 1760 4013 
C 1760 4109 1683 4224 1542 4224 
C 1395 4224 1229 4083 1229 3917 
C 1229 3758 1363 3707 1440 3707 
C 1613 3707 1760 3873 1760 4013 
z
" transform="scale(0.015625)"/>
       <path id="CMMI12-6e" d="M 1318 1871 
C 1331 1910 1491 2229 1728 2433 
C 1894 2586 2112 2689 2362 2689 
C 2618 2689 2707 2497 2707 2242 
C 2707 1878 2445 1150 2317 805 
C 2259 651 2227 568 2227 453 
C 2227 166 2426 -64 2733 -64 
C 3328 -64 3552 875 3552 913 
C 3552 945 3526 971 3488 971 
C 3430 971 3424 952 3392 843 
C 3245 319 3002 64 2752 64 
C 2688 64 2586 64 2586 269 
C 2586 429 2656 621 2694 710 
C 2822 1063 3091 1780 3091 2145 
C 3091 2528 2867 2816 2381 2816 
C 1811 2816 1510 2415 1395 2255 
C 1376 2618 1114 2816 832 2816 
C 627 2816 486 2695 378 2478 
C 262 2248 173 1865 173 1839 
C 173 1814 198 1782 243 1782 
C 294 1782 301 1788 339 1935 
C 442 2325 557 2689 813 2689 
C 960 2689 1011 2586 1011 2395 
C 1011 2254 947 2005 902 1807 
L 723 1118 
C 698 996 627 709 595 594 
C 550 428 480 128 480 96 
C 480 6 550 -64 646 -64 
C 723 -64 813 -26 864 70 
C 877 102 934 326 966 453 
L 1107 1028 
L 1318 1871 
z
" transform="scale(0.015625)"/>
       <path id="CMMI12-74" d="M 1286 2566 
L 1875 2566 
C 1997 2566 2061 2566 2061 2681 
C 2061 2752 2022 2752 1894 2752 
L 1331 2752 
L 1568 3692 
C 1594 3781 1594 3794 1594 3840 
C 1594 3943 1510 4000 1427 4000 
C 1376 4000 1229 3981 1178 3775 
L 928 2752 
L 326 2752 
C 198 2752 141 2752 141 2630 
C 141 2566 186 2566 307 2566 
L 877 2566 
L 454 881 
C 403 658 384 594 384 511 
C 384 211 595 -64 954 -64 
C 1600 -64 1946 868 1946 912 
C 1946 951 1920 970 1882 970 
C 1869 970 1843 970 1830 944 
C 1824 938 1818 931 1773 829 
C 1638 511 1344 64 973 64 
C 781 64 768 224 768 364 
C 768 370 768 492 787 568 
L 1286 2566 
z
" transform="scale(0.015625)"/>
       <path id="CMR17-28" d="M 1958 -1561 
C 1958 -1555 1958 -1542 1939 -1523 
C 1645 -1224 858 -407 858 1581 
C 858 3569 1632 4379 1946 4697 
C 1946 4704 1958 4717 1958 4736 
C 1958 4755 1939 4768 1914 4768 
C 1843 4768 1299 4296 986 3594 
C 666 2887 576 2199 576 1588 
C 576 1128 621 351 1005 -471 
C 1312 -1135 1837 -1600 1914 -1600 
C 1946 -1600 1958 -1587 1958 -1561 
z
" transform="scale(0.015625)"/>
       <path id="CMR17-41" d="M 2323 4378 
C 2291 4461 2278 4480 2214 4480 
C 2150 4480 2138 4461 2106 4378 
L 749 566 
C 627 223 371 153 147 153 
L 147 -13 
C 262 0 518 0 640 0 
C 800 0 1056 0 1210 -13 
L 1210 153 
C 909 153 864 361 864 439 
C 864 497 877 530 890 569 
L 1229 1536 
L 2906 1536 
L 3290 442 
C 3322 365 3322 352 3322 327 
C 3322 153 3046 153 2925 153 
L 2925 0 
C 3110 0 3443 0 3642 0 
C 3808 0 4128 0 4282 -13 
L 4282 153 
C 3942 153 3827 153 3744 387 
L 2323 4378 
z
M 2067 3893 
L 2848 1702 
L 1286 1702 
L 2067 3893 
z
" transform="scale(0.015625)"/>
       <path id="CMR17-3d" d="M 4115 2017 
C 4211 2017 4307 2017 4307 2125 
C 4307 2240 4198 2240 4090 2240 
L 512 2240 
C 403 2240 294 2240 294 2125 
C 294 2017 390 2017 486 2017 
L 4115 2017 
z
M 4090 896 
C 4198 896 4307 896 4307 1011 
C 4307 1119 4211 1119 4115 1119 
L 486 1119 
C 390 1119 294 1119 294 1011 
C 294 896 403 896 512 896 
L 4090 896 
z
" transform="scale(0.015625)"/>
       <path id="CMR17-2e" d="M 1062 261 
C 1062 420 934 522 800 522 
C 672 522 538 420 538 261 
C 538 102 666 0 800 0 
C 928 0 1062 102 1062 261 
z
" transform="scale(0.015625)"/>
       <path id="CMR17-29" d="M 1683 1581 
C 1683 2040 1638 2817 1254 3639 
C 947 4303 422 4768 346 4768 
C 326 4768 301 4761 301 4729 
C 301 4717 307 4710 314 4697 
C 621 4378 1402 3568 1402 1584 
C 1402 -407 627 -1217 314 -1537 
C 307 -1549 301 -1556 301 -1568 
C 301 -1600 326 -1600 346 -1600 
C 416 -1600 960 -1128 1274 -426 
C 1594 281 1683 969 1683 1581 
z
" transform="scale(0.015625)"/>
      </defs>
      <use xlink:href="#CMMI12-50" transform="scale(0.996264)"/>
      <use xlink:href="#CMMI12-69" transform="translate(62.877232 -14.943915) scale(0.697382)"/>
      <use xlink:href="#CMMI12-6e" transform="translate(86.17214 -14.943915) scale(0.697382)"/>
      <use xlink:href="#CMMI12-74" transform="translate(126.932983 -14.943915) scale(0.697382)"/>
      <use xlink:href="#CMR17-28" transform="translate(182.165391 0) scale(0.996264)"/>
      <use xlink:href="#CMR17-41" transform="translate(217.446158 0) scale(0.996264)"/>
      <use xlink:href="#CMR17-3d" transform="translate(316.594554 0) scale(0.996264)"/>
      <use xlink:href="#CMR17-30" transform="translate(418.385309 0) scale(0.996264)"/>
      <use xlink:href="#CMR17-2e" transform="translate(464.075786 0) scale(0.996264)"/>
      <use xlink:href="#CMR17-30" transform="translate(488.946845 0) scale(0.996264)"/>
      <use xlink:href="#CMR17-29" transform="translate(534.637322 0) scale(0.996264)"/>
     </g>
    </g>
    <g id="line2d_41">
     <path d="M 362.288667 67.924399 
L 376.288667 67.924399 
L 389.542964 67.924399 
" style="fill: none; stroke-dasharray: 11.1,4.8; stroke-dashoffset: 0; stroke: #fdc38d; stroke-width: 3"/>
    </g>
    <g id="text_15">
     <!-- $S_{int}$ (A = 0.0) -->
     <g transform="translate(401.488667 72.824399) scale(0.14 -0.14)">
      <defs>
       <path id="CMMI12-53" d="M 4064 4423 
C 4064 4480 4019 4480 4006 4480 
C 3981 4480 3974 4474 3898 4378 
C 3859 4333 3597 4001 3590 3995 
C 3379 4410 2957 4480 2688 4480 
C 1875 4480 1139 3743 1139 3025 
C 1139 2549 1427 2269 1741 2161 
C 1811 2135 2189 2033 2381 1989 
C 2707 1900 2790 1875 2925 1735 
C 2950 1703 3078 1557 3078 1258 
C 3078 667 2528 57 1888 57 
C 1363 57 781 280 781 991 
C 781 1112 806 1265 826 1328 
C 826 1348 832 1378 832 1391 
C 832 1417 819 1449 768 1449 
C 710 1449 704 1436 678 1328 
L 352 24 
C 352 18 326 -64 326 -71 
C 326 -128 378 -128 390 -128 
C 416 -128 422 -122 499 -26 
L 794 356 
C 947 126 1280 -128 1875 -128 
C 2701 -128 3456 666 3456 1460 
C 3456 1728 3392 1963 3149 2197 
C 3014 2331 2899 2363 2310 2516 
C 1882 2630 1824 2649 1709 2751 
C 1600 2858 1517 3011 1517 3227 
C 1517 3761 2061 4308 2669 4308 
C 3296 4308 3590 3926 3590 3323 
C 3590 3158 3558 2986 3558 2961 
C 3558 2903 3610 2903 3629 2903 
C 3686 2903 3693 2922 3718 3024 
L 4064 4423 
z
" transform="scale(0.015625)"/>
      </defs>
      <use xlink:href="#CMMI12-53" transform="scale(0.996264)"/>
      <use xlink:href="#CMMI12-69" transform="translate(59.994488 -14.943915) scale(0.697382)"/>
      <use xlink:href="#CMMI12-6e" transform="translate(83.289395 -14.943915) scale(0.697382)"/>
      <use xlink:href="#CMMI12-74" transform="translate(124.050238 -14.943915) scale(0.697382)"/>
      <use xlink:href="#CMR17-28" transform="translate(179.282646 0) scale(0.996264)"/>
      <use xlink:href="#CMR17-41" transform="translate(214.563414 0) scale(0.996264)"/>
      <use xlink:href="#CMR17-3d" transform="translate(313.71181 0) scale(0.996264)"/>
      <use xlink:href="#CMR17-30" transform="translate(415.502565 0) scale(0.996264)"/>
      <use xlink:href="#CMR17-2e" transform="translate(461.193042 0) scale(0.996264)"/>
      <use xlink:href="#CMR17-30" transform="translate(486.0641 0) scale(0.996264)"/>
      <use xlink:href="#CMR17-29" transform="translate(531.754578 0) scale(0.996264)"/>
     </g>
    </g>
    <g id="line2d_42">
     <path d="M 362.288667 91.622858 
L 376.288667 91.622858 
L 389.542964 91.622858 
" style="fill: none; stroke-dasharray: 3,4.95; stroke-dashoffset: 0; stroke: #b8e3b2; stroke-width: 3"/>
    </g>
    <g id="text_16">
     <!-- $\hat{P}$ (A = 0.0) -->
     <g transform="translate(401.488667 96.522858) scale(0.14 -0.14)">
      <defs>
       <path id="CMR17-5e" d="M 1466 4421 
L 678 3555 
L 755 3478 
L 1466 4166 
L 2176 3478 
L 2253 3555 
L 1466 4421 
z
" transform="scale(0.015625)"/>
      </defs>
      <use xlink:href="#CMR17-5e" transform="translate(23.496833 25.189733) scale(0.996264)"/>
      <use xlink:href="#CMMI12-50" transform="scale(0.996264)"/>
      <use xlink:href="#CMR17-28" transform="translate(106.501787 0) scale(0.996264)"/>
      <use xlink:href="#CMR17-41" transform="translate(141.782555 0) scale(0.996264)"/>
      <use xlink:href="#CMR17-3d" transform="translate(240.930951 0) scale(0.996264)"/>
      <use xlink:href="#CMR17-30" transform="translate(342.721706 0) scale(0.996264)"/>
      <use xlink:href="#CMR17-2e" transform="translate(388.412183 0) scale(0.996264)"/>
      <use xlink:href="#CMR17-30" transform="translate(413.283241 0) scale(0.996264)"/>
      <use xlink:href="#CMR17-29" transform="translate(458.973719 0) scale(0.996264)"/>
     </g>
    </g>
    <g id="line2d_43">
     <path d="M 362.288667 112.570554 
L 376.288667 112.570554 
L 389.542964 112.570554 
" style="fill: none; stroke: #60a7d2; stroke-width: 3; stroke-linecap: square"/>
    </g>
    <g id="text_17">
     <!-- $P_{int}$ (A = 0.33) -->
     <g transform="translate(401.488667 117.470554) scale(0.14 -0.14)">
      <defs>
       <path id="CMR17-33" d="M 1414 2157 
C 1984 2157 2234 1662 2234 1090 
C 2234 320 1824 25 1453 25 
C 1114 25 563 194 390 693 
C 422 680 454 680 486 680 
C 640 680 755 782 755 948 
C 755 1133 614 1216 486 1216 
C 378 1216 211 1165 211 926 
C 211 335 787 -128 1466 -128 
C 2176 -128 2720 430 2720 1085 
C 2720 1707 2208 2157 1600 2227 
C 2086 2328 2554 2756 2554 3329 
C 2554 3820 2048 4179 1472 4179 
C 890 4179 378 3829 378 3329 
C 378 3110 544 3072 627 3072 
C 762 3072 877 3155 877 3321 
C 877 3486 762 3569 627 3569 
C 602 3569 570 3569 544 3557 
C 730 3959 1235 4032 1459 4032 
C 1683 4032 2106 3925 2106 3320 
C 2106 3143 2080 2828 1862 2550 
C 1670 2304 1453 2304 1242 2284 
C 1210 2284 1062 2269 1037 2269 
C 992 2263 966 2257 966 2208 
C 966 2163 973 2157 1101 2157 
L 1414 2157 
z
" transform="scale(0.015625)"/>
      </defs>
      <use xlink:href="#CMMI12-50" transform="scale(0.996264)"/>
      <use xlink:href="#CMMI12-69" transform="translate(62.877232 -14.943915) scale(0.697382)"/>
      <use xlink:href="#CMMI12-6e" transform="translate(86.17214 -14.943915) scale(0.697382)"/>
      <use xlink:href="#CMMI12-74" transform="translate(126.932983 -14.943915) scale(0.697382)"/>
      <use xlink:href="#CMR17-28" transform="translate(182.165391 0) scale(0.996264)"/>
      <use xlink:href="#CMR17-41" transform="translate(217.446158 0) scale(0.996264)"/>
      <use xlink:href="#CMR17-3d" transform="translate(316.594554 0) scale(0.996264)"/>
      <use xlink:href="#CMR17-30" transform="translate(418.385309 0) scale(0.996264)"/>
      <use xlink:href="#CMR17-2e" transform="translate(464.075786 0) scale(0.996264)"/>
      <use xlink:href="#CMR17-33" transform="translate(488.946845 0) scale(0.996264)"/>
      <use xlink:href="#CMR17-33" transform="translate(534.637322 0) scale(0.996264)"/>
      <use xlink:href="#CMR17-29" transform="translate(580.327799 0) scale(0.996264)"/>
     </g>
    </g>
    <g id="line2d_44">
     <path d="M 362.288667 133.51825 
L 376.288667 133.51825 
L 389.542964 133.51825 
" style="fill: none; stroke-dasharray: 11.1,4.8; stroke-dashoffset: 0; stroke: #fa8331; stroke-width: 3"/>
    </g>
    <g id="text_18">
     <!-- $S_{int}$ (A = 0.33) -->
     <g transform="translate(401.488667 138.41825) scale(0.14 -0.14)">
      <use xlink:href="#CMMI12-53" transform="scale(0.996264)"/>
      <use xlink:href="#CMMI12-69" transform="translate(59.994488 -14.943915) scale(0.697382)"/>
      <use xlink:href="#CMMI12-6e" transform="translate(83.289395 -14.943915) scale(0.697382)"/>
      <use xlink:href="#CMMI12-74" transform="translate(124.050238 -14.943915) scale(0.697382)"/>
      <use xlink:href="#CMR17-28" transform="translate(179.282646 0) scale(0.996264)"/>
      <use xlink:href="#CMR17-41" transform="translate(214.563414 0) scale(0.996264)"/>
      <use xlink:href="#CMR17-3d" transform="translate(313.71181 0) scale(0.996264)"/>
      <use xlink:href="#CMR17-30" transform="translate(415.502565 0) scale(0.996264)"/>
      <use xlink:href="#CMR17-2e" transform="translate(461.193042 0) scale(0.996264)"/>
      <use xlink:href="#CMR17-33" transform="translate(486.0641 0) scale(0.996264)"/>
      <use xlink:href="#CMR17-33" transform="translate(531.754578 0) scale(0.996264)"/>
      <use xlink:href="#CMR17-29" transform="translate(577.445055 0) scale(0.996264)"/>
     </g>
    </g>
    <g id="line2d_45">
     <path d="M 362.288667 157.216709 
L 376.288667 157.216709 
L 389.542964 157.216709 
" style="fill: none; stroke-dasharray: 3,4.95; stroke-dashoffset: 0; stroke: #66bd6f; stroke-width: 3"/>
    </g>
    <g id="text_19">
     <!-- $\hat{P}$ (A = 0.33) -->
     <g transform="translate(401.488667 162.116709) scale(0.14 -0.14)">
      <use xlink:href="#CMR17-5e" transform="translate(23.496833 25.189733) scale(0.996264)"/>
      <use xlink:href="#CMMI12-50" transform="scale(0.996264)"/>
      <use xlink:href="#CMR17-28" transform="translate(106.501787 0) scale(0.996264)"/>
      <use xlink:href="#CMR17-41" transform="translate(141.782555 0) scale(0.996264)"/>
      <use xlink:href="#CMR17-3d" transform="translate(240.930951 0) scale(0.996264)"/>
      <use xlink:href="#CMR17-30" transform="translate(342.721706 0) scale(0.996264)"/>
      <use xlink:href="#CMR17-2e" transform="translate(388.412183 0) scale(0.996264)"/>
      <use xlink:href="#CMR17-33" transform="translate(413.283241 0) scale(0.996264)"/>
      <use xlink:href="#CMR17-33" transform="translate(458.973719 0) scale(0.996264)"/>
      <use xlink:href="#CMR17-29" transform="translate(504.664196 0) scale(0.996264)"/>
     </g>
    </g>
    <g id="line2d_46">
     <path style="fill: none; stroke: #1d6cb1; stroke-width: 3; stroke-linecap: square"/>
    </g>
    <g id="text_20">
     <!-- $P_{int}$ (A = 0.67) -->
     <g transform="translate(560.518029 51.876703) scale(0.14 -0.14)">
      <defs>
       <path id="CMR17-37" d="M 2886 3941 
L 2886 4081 
L 1382 4081 
C 634 4081 621 4165 595 4288 
L 480 4288 
L 294 3094 
L 410 3094 
C 429 3215 474 3540 550 3661 
C 589 3712 1062 3712 1171 3712 
L 2579 3712 
L 1869 2661 
C 1395 1954 1069 999 1069 165 
C 1069 89 1069 -128 1299 -128 
C 1530 -128 1530 89 1530 171 
L 1530 465 
C 1530 1508 1709 2196 2003 2636 
L 2886 3941 
z
" transform="scale(0.015625)"/>
      </defs>
      <use xlink:href="#CMMI12-50" transform="scale(0.996264)"/>
      <use xlink:href="#CMMI12-69" transform="translate(62.877232 -14.943915) scale(0.697382)"/>
      <use xlink:href="#CMMI12-6e" transform="translate(86.17214 -14.943915) scale(0.697382)"/>
      <use xlink:href="#CMMI12-74" transform="translate(126.932983 -14.943915) scale(0.697382)"/>
      <use xlink:href="#CMR17-28" transform="translate(182.165391 0) scale(0.996264)"/>
      <use xlink:href="#CMR17-41" transform="translate(217.446158 0) scale(0.996264)"/>
      <use xlink:href="#CMR17-3d" transform="translate(316.594554 0) scale(0.996264)"/>
      <use xlink:href="#CMR17-30" transform="translate(418.385309 0) scale(0.996264)"/>
      <use xlink:href="#CMR17-2e" transform="translate(464.075786 0) scale(0.996264)"/>
      <use xlink:href="#CMR17-36" transform="translate(488.946845 0) scale(0.996264)"/>
      <use xlink:href="#CMR17-37" transform="translate(534.637322 0) scale(0.996264)"/>
      <use xlink:href="#CMR17-29" transform="translate(580.327799 0) scale(0.996264)"/>
     </g>
    </g>
    <g id="line2d_47">
     <path style="fill: none; stroke-dasharray: 11.1,4.8; stroke-dashoffset: 0; stroke: #d14501; stroke-width: 3"/>
    </g>
    <g id="text_21">
     <!-- $S_{int}$ (A = 0.67) -->
     <g transform="translate(560.518029 72.824399) scale(0.14 -0.14)">
      <use xlink:href="#CMMI12-53" transform="scale(0.996264)"/>
      <use xlink:href="#CMMI12-69" transform="translate(59.994488 -14.943915) scale(0.697382)"/>
      <use xlink:href="#CMMI12-6e" transform="translate(83.289395 -14.943915) scale(0.697382)"/>
      <use xlink:href="#CMMI12-74" transform="translate(124.050238 -14.943915) scale(0.697382)"/>
      <use xlink:href="#CMR17-28" transform="translate(179.282646 0) scale(0.996264)"/>
      <use xlink:href="#CMR17-41" transform="translate(214.563414 0) scale(0.996264)"/>
      <use xlink:href="#CMR17-3d" transform="translate(313.71181 0) scale(0.996264)"/>
      <use xlink:href="#CMR17-30" transform="translate(415.502565 0) scale(0.996264)"/>
      <use xlink:href="#CMR17-2e" transform="translate(461.193042 0) scale(0.996264)"/>
      <use xlink:href="#CMR17-36" transform="translate(486.0641 0) scale(0.996264)"/>
      <use xlink:href="#CMR17-37" transform="translate(531.754578 0) scale(0.996264)"/>
      <use xlink:href="#CMR17-29" transform="translate(577.445055 0) scale(0.996264)"/>
     </g>
    </g>
    <g id="line2d_48">
     <path style="fill: none; stroke-dasharray: 3,4.95; stroke-dashoffset: 0; stroke: #1e8741; stroke-width: 3"/>
    </g>
    <g id="text_22">
     <!-- $\hat{P}$ (A = 0.67) -->
     <g transform="translate(560.518029 96.522858) scale(0.14 -0.14)">
      <use xlink:href="#CMR17-5e" transform="translate(23.496833 25.189733) scale(0.996264)"/>
      <use xlink:href="#CMMI12-50" transform="scale(0.996264)"/>
      <use xlink:href="#CMR17-28" transform="translate(106.501787 0) scale(0.996264)"/>
      <use xlink:href="#CMR17-41" transform="translate(141.782555 0) scale(0.996264)"/>
      <use xlink:href="#CMR17-3d" transform="translate(240.930951 0) scale(0.996264)"/>
      <use xlink:href="#CMR17-30" transform="translate(342.721706 0) scale(0.996264)"/>
      <use xlink:href="#CMR17-2e" transform="translate(388.412183 0) scale(0.996264)"/>
      <use xlink:href="#CMR17-36" transform="translate(413.283241 0) scale(0.996264)"/>
      <use xlink:href="#CMR17-37" transform="translate(458.973719 0) scale(0.996264)"/>
      <use xlink:href="#CMR17-29" transform="translate(504.664196 0) scale(0.996264)"/>
     </g>
    </g>
    <g id="line2d_49">
     <path style="fill: none; stroke: #08306b; stroke-width: 3; stroke-linecap: square"/>
    </g>
    <g id="text_23">
     <!-- $P_{int}$ (A = 1.0) -->
     <g transform="translate(560.518029 117.470554) scale(0.14 -0.14)">
      <use xlink:href="#CMMI12-50" transform="scale(0.996264)"/>
      <use xlink:href="#CMMI12-69" transform="translate(62.877232 -14.943915) scale(0.697382)"/>
      <use xlink:href="#CMMI12-6e" transform="translate(86.17214 -14.943915) scale(0.697382)"/>
      <use xlink:href="#CMMI12-74" transform="translate(126.932983 -14.943915) scale(0.697382)"/>
      <use xlink:href="#CMR17-28" transform="translate(182.165391 0) scale(0.996264)"/>
      <use xlink:href="#CMR17-41" transform="translate(217.446158 0) scale(0.996264)"/>
      <use xlink:href="#CMR17-3d" transform="translate(316.594554 0) scale(0.996264)"/>
      <use xlink:href="#CMR17-31" transform="translate(418.385309 0) scale(0.996264)"/>
      <use xlink:href="#CMR17-2e" transform="translate(464.075786 0) scale(0.996264)"/>
      <use xlink:href="#CMR17-30" transform="translate(488.946845 0) scale(0.996264)"/>
      <use xlink:href="#CMR17-29" transform="translate(534.637322 0) scale(0.996264)"/>
     </g>
    </g>
    <g id="line2d_50">
     <path style="fill: none; stroke-dasharray: 11.1,4.8; stroke-dashoffset: 0; stroke: #7f2704; stroke-width: 3"/>
    </g>
    <g id="text_24">
     <!-- $S_{int}$ (A = 1.0) -->
     <g transform="translate(560.518029 138.41825) scale(0.14 -0.14)">
      <use xlink:href="#CMMI12-53" transform="scale(0.996264)"/>
      <use xlink:href="#CMMI12-69" transform="translate(59.994488 -14.943915) scale(0.697382)"/>
      <use xlink:href="#CMMI12-6e" transform="translate(83.289395 -14.943915) scale(0.697382)"/>
      <use xlink:href="#CMMI12-74" transform="translate(124.050238 -14.943915) scale(0.697382)"/>
      <use xlink:href="#CMR17-28" transform="translate(179.282646 0) scale(0.996264)"/>
      <use xlink:href="#CMR17-41" transform="translate(214.563414 0) scale(0.996264)"/>
      <use xlink:href="#CMR17-3d" transform="translate(313.71181 0) scale(0.996264)"/>
      <use xlink:href="#CMR17-31" transform="translate(415.502565 0) scale(0.996264)"/>
      <use xlink:href="#CMR17-2e" transform="translate(461.193042 0) scale(0.996264)"/>
      <use xlink:href="#CMR17-30" transform="translate(486.0641 0) scale(0.996264)"/>
      <use xlink:href="#CMR17-29" transform="translate(531.754578 0) scale(0.996264)"/>
     </g>
    </g>
    <g id="line2d_51">
     <path style="fill: none; stroke-dasharray: 3,4.95; stroke-dashoffset: 0; stroke: #00441b; stroke-width: 3"/>
    </g>
    <g id="text_25">
     <!-- $\hat{P}$ (A = 1.0) -->
     <g transform="translate(560.518029 162.116709) scale(0.14 -0.14)">
      <use xlink:href="#CMR17-5e" transform="translate(23.496833 25.189733) scale(0.996264)"/>
      <use xlink:href="#CMMI12-50" transform="scale(0.996264)"/>
      <use xlink:href="#CMR17-28" transform="translate(106.501787 0) scale(0.996264)"/>
      <use xlink:href="#CMR17-41" transform="translate(141.782555 0) scale(0.996264)"/>
      <use xlink:href="#CMR17-3d" transform="translate(240.930951 0) scale(0.996264)"/>
      <use xlink:href="#CMR17-31" transform="translate(342.721706 0) scale(0.996264)"/>
      <use xlink:href="#CMR17-2e" transform="translate(388.412183 0) scale(0.996264)"/>
      <use xlink:href="#CMR17-30" transform="translate(413.283241 0) scale(0.996264)"/>
      <use xlink:href="#CMR17-29" transform="translate(458.973719 0) scale(0.996264)"/>
     </g>
    </g>
   </g>
  </g>
 </g>
 <defs>
  <clipPath id="p985677265f">
   <rect x="48.56787" y="28.815931" width="301.120797" height="184.902223"/>
  </clipPath>
 </defs>
</svg>
