<?xml version="1.0" encoding="utf-8" standalone="no"?>
<!DOCTYPE svg PUBLIC "-//W3C//DTD SVG 1.1//EN"
  "http://www.w3.org/Graphics/SVG/1.1/DTD/svg11.dtd">
<svg xmlns:xlink="http://www.w3.org/1999/xlink" width="388.542964pt" height="240.132758pt" viewBox="0 0 388.542964 240.132758" xmlns="http://www.w3.org/2000/svg" version="1.1">
 <metadata>
  <rdf:RDF xmlns:dc="http://purl.org/dc/elements/1.1/" xmlns:cc="http://creativecommons.org/ns#" xmlns:rdf="http://www.w3.org/1999/02/22-rdf-syntax-ns#">
   <cc:Work>
    <dc:type rdf:resource="http://purl.org/dc/dcmitype/StillImage"/>
    <dc:date>2024-10-22T14:51:34.863554</dc:date>
    <dc:format>image/svg+xml</dc:format>
    <dc:creator>
     <cc:Agent>
      <dc:title>Matplotlib v3.7.5, https://matplotlib.org/</dc:title>
     </cc:Agent>
    </dc:creator>
   </cc:Work>
  </rdf:RDF>
 </metadata>
 <defs>
  <style type="text/css">*{stroke-linejoin: round; stroke-linecap: butt}</style>
 </defs>
 <g id="figure_1">
  <g id="patch_1">
   <path d="M 0 240.132758 
L 388.542964 240.132758 
L 388.542964 0 
L 0 0 
z
" style="fill: #ffffff"/>
  </g>
  <g id="axes_1">
   <g id="patch_2">
    <path d="M 60.676704 193.536948 
L 374.353576 193.536948 
L 374.353576 10.8 
L 60.676704 10.8 
z
" style="fill: #ffffff"/>
   </g>
   <g id="matplotlib.axis_1">
    <g id="xtick_1">
     <g id="line2d_1">
      <defs>
       <path id="mcf6b16ccf0" d="M 0 0 
L 0 3.5 
" style="stroke: #000000; stroke-width: 0.8"/>
      </defs>
      <g>
       <use xlink:href="#mcf6b16ccf0" x="74.934743" y="193.536948" style="stroke: #000000; stroke-width: 0.8"/>
      </g>
     </g>
     <g id="text_1">
      <!-- $\mathdefault{0}$ -->
      <g transform="translate(71.520499 210.222825) scale(0.14 -0.14)">
       <defs>
        <path id="CMR17-30" d="M 2688 2025 
C 2688 2416 2682 3080 2413 3591 
C 2176 4039 1798 4198 1466 4198 
C 1158 4198 768 4058 525 3597 
C 269 3118 243 2524 243 2025 
C 243 1661 250 1106 448 619 
C 723 -39 1216 -128 1466 -128 
C 1760 -128 2208 -7 2470 600 
C 2662 1042 2688 1559 2688 2025 
z
M 1466 -26 
C 1056 -26 813 325 723 812 
C 653 1188 653 1738 653 2096 
C 653 2588 653 2997 736 3387 
C 858 3929 1216 4096 1466 4096 
C 1728 4096 2067 3923 2189 3400 
C 2272 3036 2278 2607 2278 2096 
C 2278 1680 2278 1169 2202 792 
C 2067 95 1690 -26 1466 -26 
z
" transform="scale(0.015625)"/>
       </defs>
       <use xlink:href="#CMR17-30" transform="scale(0.996264)"/>
      </g>
     </g>
    </g>
    <g id="xtick_2">
     <g id="line2d_2">
      <g>
       <use xlink:href="#mcf6b16ccf0" x="131.968043" y="193.536948" style="stroke: #000000; stroke-width: 0.8"/>
      </g>
     </g>
     <g id="text_2">
      <!-- $\mathdefault{10000}$ -->
      <g transform="translate(114.896821 210.222825) scale(0.14 -0.14)">
       <defs>
        <path id="CMR17-31" d="M 1702 4058 
C 1702 4192 1696 4192 1606 4192 
C 1357 3916 979 3827 621 3827 
C 602 3827 570 3827 563 3808 
C 557 3795 557 3782 557 3648 
C 755 3648 1088 3686 1344 3839 
L 1344 461 
C 1344 236 1331 160 781 160 
L 589 160 
L 589 0 
C 896 0 1216 0 1523 0 
C 1830 0 2150 0 2458 0 
L 2458 160 
L 2266 160 
C 1715 160 1702 230 1702 458 
L 1702 4058 
z
" transform="scale(0.015625)"/>
       </defs>
       <use xlink:href="#CMR17-31" transform="scale(0.996264)"/>
       <use xlink:href="#CMR17-30" transform="translate(45.690477 0) scale(0.996264)"/>
       <use xlink:href="#CMR17-30" transform="translate(91.380954 0) scale(0.996264)"/>
       <use xlink:href="#CMR17-30" transform="translate(137.071431 0) scale(0.996264)"/>
       <use xlink:href="#CMR17-30" transform="translate(182.761908 0) scale(0.996264)"/>
      </g>
     </g>
    </g>
    <g id="xtick_3">
     <g id="line2d_3">
      <g>
       <use xlink:href="#mcf6b16ccf0" x="189.001342" y="193.536948" style="stroke: #000000; stroke-width: 0.8"/>
      </g>
     </g>
     <g id="text_3">
      <!-- $\mathdefault{20000}$ -->
      <g transform="translate(171.93012 210.222825) scale(0.14 -0.14)">
       <defs>
        <path id="CMR17-32" d="M 2669 989 
L 2554 989 
C 2490 536 2438 459 2413 420 
C 2381 369 1920 369 1830 369 
L 602 369 
C 832 619 1280 1072 1824 1597 
C 2214 1967 2669 2402 2669 3035 
C 2669 3790 2067 4224 1395 4224 
C 691 4224 262 3604 262 3030 
C 262 2780 448 2748 525 2748 
C 589 2748 781 2787 781 3010 
C 781 3207 614 3264 525 3264 
C 486 3264 448 3258 422 3245 
C 544 3790 915 4058 1306 4058 
C 1862 4058 2227 3617 2227 3035 
C 2227 2479 1901 2000 1536 1584 
L 262 146 
L 262 0 
L 2515 0 
L 2669 989 
z
" transform="scale(0.015625)"/>
       </defs>
       <use xlink:href="#CMR17-32" transform="scale(0.996264)"/>
       <use xlink:href="#CMR17-30" transform="translate(45.690477 0) scale(0.996264)"/>
       <use xlink:href="#CMR17-30" transform="translate(91.380954 0) scale(0.996264)"/>
       <use xlink:href="#CMR17-30" transform="translate(137.071431 0) scale(0.996264)"/>
       <use xlink:href="#CMR17-30" transform="translate(182.761908 0) scale(0.996264)"/>
      </g>
     </g>
    </g>
    <g id="xtick_4">
     <g id="line2d_4">
      <g>
       <use xlink:href="#mcf6b16ccf0" x="246.034641" y="193.536948" style="stroke: #000000; stroke-width: 0.8"/>
      </g>
     </g>
     <g id="text_4">
      <!-- $\mathdefault{30000}$ -->
      <g transform="translate(228.96342 210.222825) scale(0.14 -0.14)">
       <defs>
        <path id="CMR17-33" d="M 1414 2157 
C 1984 2157 2234 1662 2234 1090 
C 2234 320 1824 25 1453 25 
C 1114 25 563 194 390 693 
C 422 680 454 680 486 680 
C 640 680 755 782 755 948 
C 755 1133 614 1216 486 1216 
C 378 1216 211 1165 211 926 
C 211 335 787 -128 1466 -128 
C 2176 -128 2720 430 2720 1085 
C 2720 1707 2208 2157 1600 2227 
C 2086 2328 2554 2756 2554 3329 
C 2554 3820 2048 4179 1472 4179 
C 890 4179 378 3829 378 3329 
C 378 3110 544 3072 627 3072 
C 762 3072 877 3155 877 3321 
C 877 3486 762 3569 627 3569 
C 602 3569 570 3569 544 3557 
C 730 3959 1235 4032 1459 4032 
C 1683 4032 2106 3925 2106 3320 
C 2106 3143 2080 2828 1862 2550 
C 1670 2304 1453 2304 1242 2284 
C 1210 2284 1062 2269 1037 2269 
C 992 2263 966 2257 966 2208 
C 966 2163 973 2157 1101 2157 
L 1414 2157 
z
" transform="scale(0.015625)"/>
       </defs>
       <use xlink:href="#CMR17-33" transform="scale(0.996264)"/>
       <use xlink:href="#CMR17-30" transform="translate(45.690477 0) scale(0.996264)"/>
       <use xlink:href="#CMR17-30" transform="translate(91.380954 0) scale(0.996264)"/>
       <use xlink:href="#CMR17-30" transform="translate(137.071431 0) scale(0.996264)"/>
       <use xlink:href="#CMR17-30" transform="translate(182.761908 0) scale(0.996264)"/>
      </g>
     </g>
    </g>
    <g id="xtick_5">
     <g id="line2d_5">
      <g>
       <use xlink:href="#mcf6b16ccf0" x="303.067941" y="193.536948" style="stroke: #000000; stroke-width: 0.8"/>
      </g>
     </g>
     <g id="text_5">
      <!-- $\mathdefault{40000}$ -->
      <g transform="translate(285.996719 210.222825) scale(0.14 -0.14)">
       <defs>
        <path id="CMR17-34" d="M 2150 4122 
C 2150 4256 2144 4256 2029 4256 
L 128 1254 
L 128 1088 
L 1779 1088 
L 1779 457 
C 1779 224 1766 160 1318 160 
L 1197 160 
L 1197 0 
C 1402 0 1747 0 1965 0 
C 2182 0 2528 0 2733 0 
L 2733 160 
L 2611 160 
C 2163 160 2150 224 2150 457 
L 2150 1088 
L 2803 1088 
L 2803 1254 
L 2150 1254 
L 2150 4122 
z
M 1798 3703 
L 1798 1254 
L 256 1254 
L 1798 3703 
z
" transform="scale(0.015625)"/>
       </defs>
       <use xlink:href="#CMR17-34" transform="scale(0.996264)"/>
       <use xlink:href="#CMR17-30" transform="translate(45.690477 0) scale(0.996264)"/>
       <use xlink:href="#CMR17-30" transform="translate(91.380954 0) scale(0.996264)"/>
       <use xlink:href="#CMR17-30" transform="translate(137.071431 0) scale(0.996264)"/>
       <use xlink:href="#CMR17-30" transform="translate(182.761908 0) scale(0.996264)"/>
      </g>
     </g>
    </g>
    <g id="xtick_6">
     <g id="line2d_6">
      <g>
       <use xlink:href="#mcf6b16ccf0" x="360.10124" y="193.536948" style="stroke: #000000; stroke-width: 0.8"/>
      </g>
     </g>
     <g id="text_6">
      <!-- $\mathdefault{50000}$ -->
      <g transform="translate(343.030018 210.222825) scale(0.14 -0.14)">
       <defs>
        <path id="CMR17-35" d="M 730 3692 
C 794 3666 1056 3584 1325 3584 
C 1920 3584 2246 3911 2432 4100 
C 2432 4157 2432 4192 2394 4192 
C 2387 4192 2374 4192 2323 4163 
C 2099 4058 1837 3973 1517 3973 
C 1325 3973 1037 3999 723 4139 
C 653 4171 640 4171 634 4171 
C 602 4171 595 4164 595 4037 
L 595 2203 
C 595 2089 595 2057 659 2057 
C 691 2057 704 2070 736 2114 
C 941 2401 1222 2522 1542 2522 
C 1766 2522 2246 2382 2246 1289 
C 2246 1085 2246 715 2054 421 
C 1894 159 1645 25 1370 25 
C 947 25 518 320 403 814 
C 429 807 480 795 506 795 
C 589 795 749 840 749 1038 
C 749 1210 627 1280 506 1280 
C 358 1280 262 1190 262 1011 
C 262 454 704 -128 1382 -128 
C 2042 -128 2669 440 2669 1264 
C 2669 2030 2170 2624 1549 2624 
C 1222 2624 947 2503 730 2274 
L 730 3692 
z
" transform="scale(0.015625)"/>
       </defs>
       <use xlink:href="#CMR17-35" transform="scale(0.996264)"/>
       <use xlink:href="#CMR17-30" transform="translate(45.690477 0) scale(0.996264)"/>
       <use xlink:href="#CMR17-30" transform="translate(91.380954 0) scale(0.996264)"/>
       <use xlink:href="#CMR17-30" transform="translate(137.071431 0) scale(0.996264)"/>
       <use xlink:href="#CMR17-30" transform="translate(182.761908 0) scale(0.996264)"/>
      </g>
     </g>
    </g>
    <g id="text_7">
     <!-- Iteration -->
     <g transform="translate(191.531364 226.620729) scale(0.14 -0.14)">
      <defs>
       <path id="CMR17-49" d="M 1261 3905 
C 1261 4192 1338 4192 1798 4192 
L 1798 4352 
C 1594 4352 1267 4352 1050 4352 
C 832 4352 506 4352 301 4352 
L 301 4192 
C 762 4192 838 4192 838 3905 
L 838 447 
C 838 160 762 160 301 160 
L 301 0 
C 506 0 832 0 1050 0 
C 1267 0 1594 0 1798 0 
L 1798 160 
C 1338 160 1261 160 1261 447 
L 1261 3905 
z
" transform="scale(0.015625)"/>
       <path id="CMR17-74" d="M 966 2560 
L 1862 2560 
L 1862 2725 
L 966 2725 
L 966 3904 
L 851 3904 
C 838 3245 614 2668 70 2668 
L 70 2560 
L 627 2560 
L 627 771 
C 627 650 627 -64 1370 -64 
C 1747 -64 1965 306 1965 777 
L 1965 1140 
L 1850 1140 
L 1850 783 
C 1850 344 1677 51 1408 51 
C 1222 51 966 178 966 758 
L 966 2560 
z
" transform="scale(0.015625)"/>
       <path id="CMR17-65" d="M 2438 1472 
C 2464 1498 2464 1511 2464 1576 
C 2464 2238 2118 2816 1389 2816 
C 710 2816 173 2169 173 1383 
C 173 551 781 -64 1459 -64 
C 2176 -64 2458 607 2458 740 
C 2458 784 2419 784 2406 784 
C 2362 784 2355 771 2330 696 
C 2189 265 1837 51 1504 51 
C 1229 51 954 203 781 480 
C 582 803 582 1176 582 1472 
L 2438 1472 
z
M 589 1568 
C 634 2505 1126 2714 1382 2714 
C 1818 2714 2112 2297 2118 1568 
L 589 1568 
z
" transform="scale(0.015625)"/>
       <path id="CMR17-72" d="M 960 1497 
C 960 2112 1222 2688 1702 2688 
C 1747 2688 1792 2682 1837 2662 
C 1837 2662 1696 2617 1696 2452 
C 1696 2298 1818 2234 1914 2234 
C 1990 2234 2131 2279 2131 2458 
C 2131 2663 1926 2790 1709 2790 
C 1222 2790 1011 2317 947 2093 
L 941 2093 
L 941 2790 
L 198 2720 
L 198 2554 
C 576 2554 634 2515 634 2208 
L 634 428 
C 634 184 608 153 198 153 
L 198 -13 
C 352 0 646 0 813 0 
C 998 0 1325 0 1498 -13 
L 1498 153 
C 1037 153 960 153 960 440 
L 960 1497 
z
" transform="scale(0.015625)"/>
       <path id="CMR17-61" d="M 2304 1653 
C 2304 2072 2304 2294 2035 2543 
C 1798 2752 1523 2816 1306 2816 
C 800 2816 435 2407 435 1971 
C 435 1728 627 1728 666 1728 
C 749 1728 896 1778 896 1954 
C 896 2112 774 2181 666 2181 
C 640 2181 608 2174 589 2168 
C 723 2592 1069 2714 1293 2714 
C 1613 2714 1965 2429 1965 1885 
L 1965 1600 
C 1587 1600 1133 1549 774 1357 
C 371 1133 256 813 256 570 
C 256 77 832 -64 1171 -64 
C 1523 -64 1850 139 1990 511 
C 2003 233 2182 -18 2464 -18 
C 2598 -18 2938 70 2938 567 
L 2938 920 
L 2822 920 
L 2822 562 
C 2822 178 2650 128 2566 128 
C 2304 128 2304 458 2304 738 
L 2304 1653 
z
M 1965 870 
C 1965 317 1568 38 1216 38 
C 896 38 646 275 646 570 
C 646 761 730 1100 1101 1305 
C 1408 1478 1760 1504 1965 1504 
L 1965 870 
z
" transform="scale(0.015625)"/>
       <path id="CMR17-69" d="M 992 3909 
C 992 4049 877 4170 730 4170 
C 589 4170 467 4056 467 3909 
C 467 3769 582 3648 730 3648 
C 870 3648 992 3763 992 3909 
z
M 243 2706 
L 243 2541 
C 602 2541 653 2502 653 2197 
L 653 427 
C 653 184 627 153 218 153 
L 218 -13 
C 371 0 646 0 806 0 
C 960 0 1222 0 1370 -13 
L 1370 153 
C 992 153 979 191 979 420 
L 979 2776 
L 243 2706 
z
" transform="scale(0.015625)"/>
       <path id="CMR17-6f" d="M 2758 1356 
C 2758 2176 2163 2816 1466 2816 
C 768 2816 173 2176 173 1356 
C 173 551 768 -64 1466 -64 
C 2163 -64 2758 551 2758 1356 
z
M 1466 51 
C 1165 51 909 230 762 480 
C 602 767 582 1126 582 1408 
C 582 1677 595 2010 762 2298 
C 890 2509 1139 2714 1466 2714 
C 1754 2714 1997 2554 2150 2330 
C 2349 2029 2349 1607 2349 1408 
C 2349 1158 2336 775 2163 467 
C 1984 173 1709 51 1466 51 
z
" transform="scale(0.015625)"/>
       <path id="CMR17-6e" d="M 2656 1933 
C 2656 2259 2592 2790 1837 2790 
C 1331 2790 1069 2400 973 2144 
L 966 2144 
L 966 2790 
L 211 2720 
L 211 2554 
C 589 2554 646 2515 646 2208 
L 646 428 
C 646 184 621 153 211 153 
L 211 -13 
C 365 0 646 0 813 0 
C 979 0 1267 0 1421 -13 
L 1421 153 
C 1011 153 986 178 986 428 
L 986 1658 
C 986 2247 1344 2688 1792 2688 
C 2266 2688 2317 2266 2317 1958 
L 2317 428 
C 2317 184 2291 153 1882 153 
L 1882 -13 
C 2035 0 2317 0 2483 0 
C 2650 0 2938 0 3091 -13 
L 3091 153 
C 2682 153 2656 178 2656 428 
L 2656 1933 
z
" transform="scale(0.015625)"/>
      </defs>
      <use xlink:href="#CMR17-49" transform="scale(0.996264)"/>
      <use xlink:href="#CMR17-74" transform="translate(32.638409 0) scale(0.996264)"/>
      <use xlink:href="#CMR17-65" transform="translate(67.919177 0) scale(0.996264)"/>
      <use xlink:href="#CMR17-72" transform="translate(108.404837 0) scale(0.996264)"/>
      <use xlink:href="#CMR17-61" transform="translate(143.685605 0) scale(0.996264)"/>
      <use xlink:href="#CMR17-74" transform="translate(189.376082 0) scale(0.996264)"/>
      <use xlink:href="#CMR17-69" transform="translate(224.65685 0) scale(0.996264)"/>
      <use xlink:href="#CMR17-6f" transform="translate(249.527909 0) scale(0.996264)"/>
      <use xlink:href="#CMR17-6e" transform="translate(295.218386 0) scale(0.996264)"/>
     </g>
    </g>
   </g>
   <g id="matplotlib.axis_2">
    <g id="ytick_1">
     <g id="line2d_7">
      <defs>
       <path id="m0adfe461c3" d="M 0 0 
L -3.5 0 
" style="stroke: #000000; stroke-width: 0.8"/>
      </defs>
      <g>
       <use xlink:href="#m0adfe461c3" x="60.676704" y="168.571844" style="stroke: #000000; stroke-width: 0.8"/>
      </g>
     </g>
     <g id="text_8">
      <!-- $\mathdefault{10^{-5}}$ -->
      <g transform="translate(27.197905 173.414782) scale(0.14 -0.14)">
       <defs>
        <path id="CMSY10-0" d="M 4218 1472 
C 4326 1472 4442 1472 4442 1600 
C 4442 1728 4326 1728 4218 1728 
L 755 1728 
C 646 1728 531 1728 531 1600 
C 531 1472 646 1472 755 1472 
L 4218 1472 
z
" transform="scale(0.015625)"/>
       </defs>
       <use xlink:href="#CMR17-31" transform="scale(0.996264)"/>
       <use xlink:href="#CMR17-30" transform="translate(45.690477 0) scale(0.996264)"/>
       <use xlink:href="#CMSY10-0" transform="translate(91.380954 36.153639) scale(0.697382)"/>
       <use xlink:href="#CMR17-35" transform="translate(145.621947 36.153639) scale(0.697382)"/>
      </g>
     </g>
    </g>
    <g id="ytick_2">
     <g id="line2d_8">
      <g>
       <use xlink:href="#m0adfe461c3" x="60.676704" y="141.093604" style="stroke: #000000; stroke-width: 0.8"/>
      </g>
     </g>
     <g id="text_9">
      <!-- $\mathdefault{10^{-4}}$ -->
      <g transform="translate(27.197905 145.936543) scale(0.14 -0.14)">
       <use xlink:href="#CMR17-31" transform="scale(0.996264)"/>
       <use xlink:href="#CMR17-30" transform="translate(45.690477 0) scale(0.996264)"/>
       <use xlink:href="#CMSY10-0" transform="translate(91.380954 36.153639) scale(0.697382)"/>
       <use xlink:href="#CMR17-34" transform="translate(145.621947 36.153639) scale(0.697382)"/>
      </g>
     </g>
    </g>
    <g id="ytick_3">
     <g id="line2d_9">
      <g>
       <use xlink:href="#m0adfe461c3" x="60.676704" y="113.615365" style="stroke: #000000; stroke-width: 0.8"/>
      </g>
     </g>
     <g id="text_10">
      <!-- $\mathdefault{10^{-3}}$ -->
      <g transform="translate(27.197905 118.458303) scale(0.14 -0.14)">
       <use xlink:href="#CMR17-31" transform="scale(0.996264)"/>
       <use xlink:href="#CMR17-30" transform="translate(45.690477 0) scale(0.996264)"/>
       <use xlink:href="#CMSY10-0" transform="translate(91.380954 36.153639) scale(0.697382)"/>
       <use xlink:href="#CMR17-33" transform="translate(145.621947 36.153639) scale(0.697382)"/>
      </g>
     </g>
    </g>
    <g id="ytick_4">
     <g id="line2d_10">
      <g>
       <use xlink:href="#m0adfe461c3" x="60.676704" y="86.137125" style="stroke: #000000; stroke-width: 0.8"/>
      </g>
     </g>
     <g id="text_11">
      <!-- $\mathdefault{10^{-2}}$ -->
      <g transform="translate(27.197905 90.980063) scale(0.14 -0.14)">
       <use xlink:href="#CMR17-31" transform="scale(0.996264)"/>
       <use xlink:href="#CMR17-30" transform="translate(45.690477 0) scale(0.996264)"/>
       <use xlink:href="#CMSY10-0" transform="translate(91.380954 36.153639) scale(0.697382)"/>
       <use xlink:href="#CMR17-32" transform="translate(145.621947 36.153639) scale(0.697382)"/>
      </g>
     </g>
    </g>
    <g id="ytick_5">
     <g id="line2d_11">
      <g>
       <use xlink:href="#m0adfe461c3" x="60.676704" y="58.658885" style="stroke: #000000; stroke-width: 0.8"/>
      </g>
     </g>
     <g id="text_12">
      <!-- $\mathdefault{10^{-1}}$ -->
      <g transform="translate(27.197905 63.501824) scale(0.14 -0.14)">
       <use xlink:href="#CMR17-31" transform="scale(0.996264)"/>
       <use xlink:href="#CMR17-30" transform="translate(45.690477 0) scale(0.996264)"/>
       <use xlink:href="#CMSY10-0" transform="translate(91.380954 36.153639) scale(0.697382)"/>
       <use xlink:href="#CMR17-31" transform="translate(145.621947 36.153639) scale(0.697382)"/>
      </g>
     </g>
    </g>
    <g id="ytick_6">
     <g id="line2d_12">
      <g>
       <use xlink:href="#m0adfe461c3" x="60.676704" y="31.180646" style="stroke: #000000; stroke-width: 0.8"/>
      </g>
     </g>
     <g id="text_13">
      <!-- $\mathdefault{10^{0}}$ -->
      <g transform="translate(35.0025 36.023584) scale(0.14 -0.14)">
       <use xlink:href="#CMR17-31" transform="scale(0.996264)"/>
       <use xlink:href="#CMR17-30" transform="translate(45.690477 0) scale(0.996264)"/>
       <use xlink:href="#CMR17-30" transform="translate(91.380954 36.153639) scale(0.697382)"/>
      </g>
     </g>
    </g>
    <g id="ytick_7">
     <g id="line2d_13">
      <defs>
       <path id="m31164d4d64" d="M 0 0 
L -2 0 
" style="stroke: #000000; stroke-width: 0.6"/>
      </defs>
      <g>
       <use xlink:href="#m31164d4d64" x="60.676704" y="187.778309" style="stroke: #000000; stroke-width: 0.6"/>
      </g>
     </g>
    </g>
    <g id="ytick_8">
     <g id="line2d_14">
      <g>
       <use xlink:href="#m31164d4d64" x="60.676704" y="182.939632" style="stroke: #000000; stroke-width: 0.6"/>
      </g>
     </g>
    </g>
    <g id="ytick_9">
     <g id="line2d_15">
      <g>
       <use xlink:href="#m31164d4d64" x="60.676704" y="179.506535" style="stroke: #000000; stroke-width: 0.6"/>
      </g>
     </g>
    </g>
    <g id="ytick_10">
     <g id="line2d_16">
      <g>
       <use xlink:href="#m31164d4d64" x="60.676704" y="176.843618" style="stroke: #000000; stroke-width: 0.6"/>
      </g>
     </g>
    </g>
    <g id="ytick_11">
     <g id="line2d_17">
      <g>
       <use xlink:href="#m31164d4d64" x="60.676704" y="174.667857" style="stroke: #000000; stroke-width: 0.6"/>
      </g>
     </g>
    </g>
    <g id="ytick_12">
     <g id="line2d_18">
      <g>
       <use xlink:href="#m31164d4d64" x="60.676704" y="172.828277" style="stroke: #000000; stroke-width: 0.6"/>
      </g>
     </g>
    </g>
    <g id="ytick_13">
     <g id="line2d_19">
      <g>
       <use xlink:href="#m31164d4d64" x="60.676704" y="171.234761" style="stroke: #000000; stroke-width: 0.6"/>
      </g>
     </g>
    </g>
    <g id="ytick_14">
     <g id="line2d_20">
      <g>
       <use xlink:href="#m31164d4d64" x="60.676704" y="169.829179" style="stroke: #000000; stroke-width: 0.6"/>
      </g>
     </g>
    </g>
    <g id="ytick_15">
     <g id="line2d_21">
      <g>
       <use xlink:href="#m31164d4d64" x="60.676704" y="160.30007" style="stroke: #000000; stroke-width: 0.6"/>
      </g>
     </g>
    </g>
    <g id="ytick_16">
     <g id="line2d_22">
      <g>
       <use xlink:href="#m31164d4d64" x="60.676704" y="155.461392" style="stroke: #000000; stroke-width: 0.6"/>
      </g>
     </g>
    </g>
    <g id="ytick_17">
     <g id="line2d_23">
      <g>
       <use xlink:href="#m31164d4d64" x="60.676704" y="152.028295" style="stroke: #000000; stroke-width: 0.6"/>
      </g>
     </g>
    </g>
    <g id="ytick_18">
     <g id="line2d_24">
      <g>
       <use xlink:href="#m31164d4d64" x="60.676704" y="149.365379" style="stroke: #000000; stroke-width: 0.6"/>
      </g>
     </g>
    </g>
    <g id="ytick_19">
     <g id="line2d_25">
      <g>
       <use xlink:href="#m31164d4d64" x="60.676704" y="147.189618" style="stroke: #000000; stroke-width: 0.6"/>
      </g>
     </g>
    </g>
    <g id="ytick_20">
     <g id="line2d_26">
      <g>
       <use xlink:href="#m31164d4d64" x="60.676704" y="145.350038" style="stroke: #000000; stroke-width: 0.6"/>
      </g>
     </g>
    </g>
    <g id="ytick_21">
     <g id="line2d_27">
      <g>
       <use xlink:href="#m31164d4d64" x="60.676704" y="143.756521" style="stroke: #000000; stroke-width: 0.6"/>
      </g>
     </g>
    </g>
    <g id="ytick_22">
     <g id="line2d_28">
      <g>
       <use xlink:href="#m31164d4d64" x="60.676704" y="142.35094" style="stroke: #000000; stroke-width: 0.6"/>
      </g>
     </g>
    </g>
    <g id="ytick_23">
     <g id="line2d_29">
      <g>
       <use xlink:href="#m31164d4d64" x="60.676704" y="132.82183" style="stroke: #000000; stroke-width: 0.6"/>
      </g>
     </g>
    </g>
    <g id="ytick_24">
     <g id="line2d_30">
      <g>
       <use xlink:href="#m31164d4d64" x="60.676704" y="127.983152" style="stroke: #000000; stroke-width: 0.6"/>
      </g>
     </g>
    </g>
    <g id="ytick_25">
     <g id="line2d_31">
      <g>
       <use xlink:href="#m31164d4d64" x="60.676704" y="124.550056" style="stroke: #000000; stroke-width: 0.6"/>
      </g>
     </g>
    </g>
    <g id="ytick_26">
     <g id="line2d_32">
      <g>
       <use xlink:href="#m31164d4d64" x="60.676704" y="121.887139" style="stroke: #000000; stroke-width: 0.6"/>
      </g>
     </g>
    </g>
    <g id="ytick_27">
     <g id="line2d_33">
      <g>
       <use xlink:href="#m31164d4d64" x="60.676704" y="119.711378" style="stroke: #000000; stroke-width: 0.6"/>
      </g>
     </g>
    </g>
    <g id="ytick_28">
     <g id="line2d_34">
      <g>
       <use xlink:href="#m31164d4d64" x="60.676704" y="117.871798" style="stroke: #000000; stroke-width: 0.6"/>
      </g>
     </g>
    </g>
    <g id="ytick_29">
     <g id="line2d_35">
      <g>
       <use xlink:href="#m31164d4d64" x="60.676704" y="116.278281" style="stroke: #000000; stroke-width: 0.6"/>
      </g>
     </g>
    </g>
    <g id="ytick_30">
     <g id="line2d_36">
      <g>
       <use xlink:href="#m31164d4d64" x="60.676704" y="114.8727" style="stroke: #000000; stroke-width: 0.6"/>
      </g>
     </g>
    </g>
    <g id="ytick_31">
     <g id="line2d_37">
      <g>
       <use xlink:href="#m31164d4d64" x="60.676704" y="105.34359" style="stroke: #000000; stroke-width: 0.6"/>
      </g>
     </g>
    </g>
    <g id="ytick_32">
     <g id="line2d_38">
      <g>
       <use xlink:href="#m31164d4d64" x="60.676704" y="100.504913" style="stroke: #000000; stroke-width: 0.6"/>
      </g>
     </g>
    </g>
    <g id="ytick_33">
     <g id="line2d_39">
      <g>
       <use xlink:href="#m31164d4d64" x="60.676704" y="97.071816" style="stroke: #000000; stroke-width: 0.6"/>
      </g>
     </g>
    </g>
    <g id="ytick_34">
     <g id="line2d_40">
      <g>
       <use xlink:href="#m31164d4d64" x="60.676704" y="94.408899" style="stroke: #000000; stroke-width: 0.6"/>
      </g>
     </g>
    </g>
    <g id="ytick_35">
     <g id="line2d_41">
      <g>
       <use xlink:href="#m31164d4d64" x="60.676704" y="92.233138" style="stroke: #000000; stroke-width: 0.6"/>
      </g>
     </g>
    </g>
    <g id="ytick_36">
     <g id="line2d_42">
      <g>
       <use xlink:href="#m31164d4d64" x="60.676704" y="90.393558" style="stroke: #000000; stroke-width: 0.6"/>
      </g>
     </g>
    </g>
    <g id="ytick_37">
     <g id="line2d_43">
      <g>
       <use xlink:href="#m31164d4d64" x="60.676704" y="88.800042" style="stroke: #000000; stroke-width: 0.6"/>
      </g>
     </g>
    </g>
    <g id="ytick_38">
     <g id="line2d_44">
      <g>
       <use xlink:href="#m31164d4d64" x="60.676704" y="87.39446" style="stroke: #000000; stroke-width: 0.6"/>
      </g>
     </g>
    </g>
    <g id="ytick_39">
     <g id="line2d_45">
      <g>
       <use xlink:href="#m31164d4d64" x="60.676704" y="77.865351" style="stroke: #000000; stroke-width: 0.6"/>
      </g>
     </g>
    </g>
    <g id="ytick_40">
     <g id="line2d_46">
      <g>
       <use xlink:href="#m31164d4d64" x="60.676704" y="73.026673" style="stroke: #000000; stroke-width: 0.6"/>
      </g>
     </g>
    </g>
    <g id="ytick_41">
     <g id="line2d_47">
      <g>
       <use xlink:href="#m31164d4d64" x="60.676704" y="69.593576" style="stroke: #000000; stroke-width: 0.6"/>
      </g>
     </g>
    </g>
    <g id="ytick_42">
     <g id="line2d_48">
      <g>
       <use xlink:href="#m31164d4d64" x="60.676704" y="66.93066" style="stroke: #000000; stroke-width: 0.6"/>
      </g>
     </g>
    </g>
    <g id="ytick_43">
     <g id="line2d_49">
      <g>
       <use xlink:href="#m31164d4d64" x="60.676704" y="64.754899" style="stroke: #000000; stroke-width: 0.6"/>
      </g>
     </g>
    </g>
    <g id="ytick_44">
     <g id="line2d_50">
      <g>
       <use xlink:href="#m31164d4d64" x="60.676704" y="62.915319" style="stroke: #000000; stroke-width: 0.6"/>
      </g>
     </g>
    </g>
    <g id="ytick_45">
     <g id="line2d_51">
      <g>
       <use xlink:href="#m31164d4d64" x="60.676704" y="61.321802" style="stroke: #000000; stroke-width: 0.6"/>
      </g>
     </g>
    </g>
    <g id="ytick_46">
     <g id="line2d_52">
      <g>
       <use xlink:href="#m31164d4d64" x="60.676704" y="59.916221" style="stroke: #000000; stroke-width: 0.6"/>
      </g>
     </g>
    </g>
    <g id="ytick_47">
     <g id="line2d_53">
      <g>
       <use xlink:href="#m31164d4d64" x="60.676704" y="50.387111" style="stroke: #000000; stroke-width: 0.6"/>
      </g>
     </g>
    </g>
    <g id="ytick_48">
     <g id="line2d_54">
      <g>
       <use xlink:href="#m31164d4d64" x="60.676704" y="45.548433" style="stroke: #000000; stroke-width: 0.6"/>
      </g>
     </g>
    </g>
    <g id="ytick_49">
     <g id="line2d_55">
      <g>
       <use xlink:href="#m31164d4d64" x="60.676704" y="42.115337" style="stroke: #000000; stroke-width: 0.6"/>
      </g>
     </g>
    </g>
    <g id="ytick_50">
     <g id="line2d_56">
      <g>
       <use xlink:href="#m31164d4d64" x="60.676704" y="39.45242" style="stroke: #000000; stroke-width: 0.6"/>
      </g>
     </g>
    </g>
    <g id="ytick_51">
     <g id="line2d_57">
      <g>
       <use xlink:href="#m31164d4d64" x="60.676704" y="37.276659" style="stroke: #000000; stroke-width: 0.6"/>
      </g>
     </g>
    </g>
    <g id="ytick_52">
     <g id="line2d_58">
      <g>
       <use xlink:href="#m31164d4d64" x="60.676704" y="35.437079" style="stroke: #000000; stroke-width: 0.6"/>
      </g>
     </g>
    </g>
    <g id="ytick_53">
     <g id="line2d_59">
      <g>
       <use xlink:href="#m31164d4d64" x="60.676704" y="33.843562" style="stroke: #000000; stroke-width: 0.6"/>
      </g>
     </g>
    </g>
    <g id="ytick_54">
     <g id="line2d_60">
      <g>
       <use xlink:href="#m31164d4d64" x="60.676704" y="32.437981" style="stroke: #000000; stroke-width: 0.6"/>
      </g>
     </g>
    </g>
    <g id="ytick_55">
     <g id="line2d_61">
      <g>
       <use xlink:href="#m31164d4d64" x="60.676704" y="22.908871" style="stroke: #000000; stroke-width: 0.6"/>
      </g>
     </g>
    </g>
    <g id="ytick_56">
     <g id="line2d_62">
      <g>
       <use xlink:href="#m31164d4d64" x="60.676704" y="18.070194" style="stroke: #000000; stroke-width: 0.6"/>
      </g>
     </g>
    </g>
    <g id="ytick_57">
     <g id="line2d_63">
      <g>
       <use xlink:href="#m31164d4d64" x="60.676704" y="14.637097" style="stroke: #000000; stroke-width: 0.6"/>
      </g>
     </g>
    </g>
    <g id="ytick_58">
     <g id="line2d_64">
      <g>
       <use xlink:href="#m31164d4d64" x="60.676704" y="11.97418" style="stroke: #000000; stroke-width: 0.6"/>
      </g>
     </g>
    </g>
    <g id="text_14">
     <!-- $\mathcal{L}$ -->
     <g transform="translate(20.485876 106.978508) rotate(-90) scale(0.14 -0.14)">
      <defs>
       <path id="CMSY10-4c" d="M 1152 610 
C 1498 1151 1606 1562 1690 1903 
C 1914 2790 2157 3562 2554 4005 
C 2630 4090 2682 4147 2886 4147 
C 3328 4147 3341 3704 3341 3613 
C 3341 3498 3309 3407 3309 3375 
C 3309 3330 3347 3330 3354 3330 
C 3456 3330 3629 3401 3789 3517 
C 3904 3607 3962 3671 3962 3934 
C 3962 4281 3782 4544 3424 4544 
C 3219 4544 2656 4493 2029 3856 
C 1517 3329 1216 2172 1094 1690 
C 979 1248 928 1048 736 662 
C 691 586 525 303 435 219 
C 262 59 198 -57 198 -89 
C 198 -102 211 -128 256 -128 
C 282 -128 416 -102 582 5 
C 691 68 704 80 851 231 
C 1171 231 1395 173 1798 58 
C 2125 -32 2451 -128 2778 -128 
C 3296 -128 3821 264 4026 546 
C 4154 719 4192 880 4192 899 
C 4192 944 4154 944 4147 944 
C 4045 944 3891 874 3782 796 
C 3610 687 3597 649 3558 539 
C 3526 436 3488 385 3462 346 
C 3411 269 3405 269 3309 269 
C 3002 269 2682 366 2259 481 
C 2080 532 1728 636 1408 636 
C 1325 636 1235 629 1152 610 
z
" transform="scale(0.015625)"/>
      </defs>
      <use xlink:href="#CMSY10-4c" transform="scale(0.996264)"/>
     </g>
    </g>
   </g>
   <g id="line2d_65">
    <path d="M 74.934743 19.106225 
L 75.025997 19.331357 
L 75.054513 19.317658 
L 75.30546 19.333206 
L 89.255805 19.576459 
L 89.312838 19.773847 
L 89.523861 21.283833 
L 90.048568 21.500869 
L 93.396422 21.804598 
L 95.877371 22.127081 
L 96.624507 22.425168 
L 97.000927 22.807397 
L 97.24617 23.394838 
L 97.43438 24.485851 
L 97.959086 28.233408 
L 100.137758 31.974591 
L 100.850675 32.493607 
L 102.59019 33.407859 
L 105.858198 34.865075 
L 115.901762 39.195226 
L 127.890162 45.200954 
L 128.620188 45.596769 
L 133.593492 48.431424 
L 137.928023 51.150289 
L 139.787308 52.401242 
L 143.711199 55.233809 
L 147.32711 58.111741 
L 147.78908 58.503005 
L 151.125528 61.476586 
L 154.211029 64.515795 
L 157.176761 67.751592 
L 159.954283 71.116502 
L 162.509375 74.555805 
L 165.024543 78.326633 
L 167.357205 82.232464 
L 169.62713 86.484277 
L 169.96933 87.135592 
L 169.997847 87.017569 
L 170.009253 86.978838 
L 170.03777 87.304209 
L 170.060583 87.267975 
L 170.20887 87.649748 
L 171.058666 89.42753 
L 171.081479 89.443582 
L 171.104293 89.342635 
L 171.121403 89.231203 
L 171.178436 89.639186 
L 171.326723 90.007384 
L 171.885649 91.243885 
L 172.222145 91.972793 
L 172.250662 91.800132 
L 172.267772 91.625898 
L 172.330509 92.253019 
L 172.347619 92.191551 
L 172.398949 92.410513 
L 172.530125 92.710327 
L 173.454065 94.878762 
L 173.459768 94.874281 
L 173.499691 94.496662 
L 173.516801 94.846934 
L 173.642275 95.376194 
L 173.773451 95.696862 
L 174.600434 97.767935 
L 174.623247 97.630069 
L 174.646061 97.205479 
L 174.674577 98.003793 
L 174.703094 97.95458 
L 174.834271 98.402746 
L 175.803837 101.033738 
L 175.820947 100.986011 
L 175.855167 100.250515 
L 175.883683 101.292015 
L 175.906497 101.008128 
L 176.03197 101.704245 
L 176.037673 101.704017 
L 176.13463 102.002129 
L 177.052866 104.669311 
L 177.081382 104.428767 
L 177.109899 103.349213 
L 177.166932 105.028803 
L 177.178339 104.857159 
L 177.184042 104.751836 
L 177.263889 105.328858 
L 177.520539 106.13054 
L 178.387445 108.842977 
L 178.415962 108.525093 
L 178.444478 107.383407 
L 178.472995 109.143178 
L 178.501512 109.038377 
L 178.621282 109.668536 
L 178.524325 109.011985 
L 178.626985 109.667785 
L 178.632688 109.662673 
L 178.655502 109.782353 
L 179.134581 111.398128 
L 179.562331 112.831607 
L 179.585144 112.606934 
L 179.619364 110.447078 
L 179.647881 113.156009 
L 179.676398 112.976751 
L 179.784761 113.673946 
L 179.699211 112.746695 
L 179.796168 113.638117 
L 179.801871 113.632371 
L 179.813278 113.747741 
L 180.012894 114.486752 
L 180.86269 117.588188 
L 180.891207 117.161589 
L 180.925427 113.82073 
L 180.98246 117.923723 
L 180.99957 117.201879 
L 181.113637 118.572807 
L 181.318957 119.387924 
L 182.202973 122.876397 
L 182.220083 122.784247 
L 182.254303 120.391328 
L 182.271413 117.952691 
L 182.334149 123.421837 
L 182.351259 122.226825 
L 182.516656 124.209701 
L 182.522359 124.201587 
L 182.607909 124.592963 
L 183.126912 126.81248 
L 183.434892 128.092186 
L 183.457705 127.894125 
L 183.497629 123.482128 
L 183.509035 121.746563 
L 183.577475 128.786027 
L 183.583179 128.256104 
L 183.594585 127.152807 
L 183.685839 129.261589 
L 183.702949 129.086697 
L 183.720059 129.388309 
L 183.737169 129.383438 
L 183.936785 130.37982 
L 184.575558 133.222677 
L 184.604075 132.779663 
L 184.655405 124.435663 
L 184.683921 133.617851 
L 184.712438 131.98062 
L 184.740955 131.628878 
L 184.826505 134.317762 
L 184.849318 134.198018 
L 184.957681 135.059714 
L 184.991901 135.242169 
L 185.282771 136.61695 
L 185.721927 138.668819 
L 185.744741 138.429074 
L 185.778961 133.850947 
L 185.807477 125.485864 
L 185.870214 139.397088 
L 185.881621 135.539924 
L 185.887324 135.108869 
L 185.904434 139.628358 
L 185.932951 139.154966 
L 186.047017 140.289678 
L 185.955764 138.387939 
L 186.05272 140.199246 
L 186.058424 140.128467 
L 186.12116 140.661277 
L 186.126864 140.655809 
L 186.143974 140.7407 
L 186.372107 141.893137 
L 186.913923 144.498176 
L 186.94244 144.234888 
L 186.982363 139.340913 
L 187.016583 130.533385 
L 187.0451 145.010322 
L 187.07932 143.243366 
L 187.170573 145.857862 
L 187.107837 141.38021 
L 187.193386 144.960132 
L 187.30175 146.51676 
L 187.324563 146.509949 
L 187.57551 147.882807 
L 187.894896 149.414686 
L 187.923413 149.128262 
L 187.957633 144.733389 
L 187.997556 129.493129 
L 188.026073 149.407534 
L 188.054589 143.842089 
L 188.140139 150.621435 
L 188.083106 142.828752 
L 188.168656 150.155311 
L 188.191469 149.572052 
L 188.288426 151.402926 
L 188.311239 151.347915 
L 188.516559 152.54727 
L 189.041265 155.053323 
L 189.069782 154.745743 
L 189.104002 149.405587 
L 189.143925 128.513097 
L 189.172442 155.183554 
L 189.200959 146.883265 
L 189.309322 156.267119 
L 189.223772 143.278984 
L 189.315025 155.824137 
L 189.326432 153.251071 
L 189.417685 156.863876 
L 189.434795 156.414851 
L 189.514642 157.220209 
L 189.674335 158.047253 
L 190.273185 160.655606 
L 190.290295 160.608514 
L 190.324515 159.319723 
L 190.370141 142.995435 
L 190.398658 131.982942 
L 190.421471 159.80584 
L 190.455691 150.711185 
L 190.541241 161.804842 
L 190.484208 148.451114 
L 190.569758 159.026735 
L 190.661011 162.33812 
L 190.683824 161.739318 
L 190.826408 162.951033 
L 191.060244 163.909943 
L 191.379631 165.042513 
L 191.402444 164.8675 
L 191.436664 161.320645 
L 191.493697 128.410344 
L 191.550731 155.403645 
L 191.590654 165.487874 
L 191.573544 145.177806 
L 191.664797 161.224293 
L 191.6705 159.184345 
L 191.75605 166.345361 
L 191.761754 166.118803 
L 191.77316 164.982891 
L 191.864414 166.716612 
L 191.881524 166.558782 
L 191.932854 166.891903 
L 192.103954 167.449218 
L 192.668583 168.979337 
L 192.6971 168.851208 
L 192.73132 166.863289 
L 192.788353 137.377393 
L 192.805463 130.898058 
L 192.83398 163.746449 
L 192.862496 153.184997 
L 192.942343 169.457429 
L 192.88531 149.008303 
L 192.976563 168.782656 
L 192.999376 163.806859 
L 193.096333 169.986151 
L 193.113443 169.043558 
L 193.17618 170.19636 
L 193.204696 170.092771 
L 193.335873 170.501352 
L 193.752216 171.280261 
L 193.780733 171.276816 
L 193.797843 171.218268 
L 193.832062 170.491021 
L 193.871986 163.233923 
L 193.929019 133.90965 
L 193.957536 170.693312 
L 193.991756 154.150335 
L 194.043086 171.777063 
L 194.020272 152.79943 
L 194.105822 164.31387 
L 194.214186 172.030368 
L 194.236999 170.996606 
L 194.368176 172.242234 
L 194.385286 172.204121 
L 194.390989 172.199581 
L 194.419505 172.302094 
L 194.630529 172.573588 
L 194.813035 172.765859 
L 194.841552 172.654053 
L 194.875772 170.923831 
L 194.921399 147.64961 
L 194.949915 128.679517 
L 194.978432 166.392442 
L 195.006948 156.021536 
L 195.012652 172.981331 
L 195.029762 145.931906 
L 195.121015 165.577565 
L 195.126718 162.552856 
L 195.212268 173.135132 
L 195.217972 172.6713 
L 195.229378 170.726076 
L 195.320632 173.277298 
L 195.326335 173.178047 
L 195.337742 172.891454 
L 195.428995 173.336786 
L 195.560171 173.469123 
L 195.833931 173.675419 
L 196.107691 173.807496 
L 196.130504 173.70952 
L 196.170428 172.320923 
L 196.216054 155.910807 
L 196.255978 131.887338 
L 196.284494 173.960867 
L 196.318714 159.995505 
L 196.324418 173.900946 
L 196.341528 150.356739 
L 196.432781 171.716684 
L 196.438484 174.019723 
L 196.455594 166.886306 
L 196.546848 173.163483 
L 196.643804 174.143335 
L 196.575364 173.003905 
L 196.660914 173.940358 
L 196.666617 173.935827 
L 196.672321 173.989631 
L 196.792091 174.212507 
L 196.797794 174.211732 
L 196.923267 174.266211 
L 197.21984 174.320561 
L 197.231247 174.267369 
L 197.265467 173.425962 
L 197.30539 164.222038 
L 197.362424 131.580039 
L 197.385237 170.645485 
L 197.419457 156.091778 
L 197.465084 174.29727 
L 197.44227 150.331394 
L 197.533524 171.884779 
L 197.539227 174.47846 
L 197.556337 166.795768 
L 197.64759 173.829453 
L 197.738843 174.55674 
L 197.676107 173.300525 
L 197.761657 174.274103 
L 197.88713 174.606477 
L 197.90424 174.593204 
L 198.360506 174.680756 
L 198.36621 174.65426 
L 198.40043 173.949693 
L 198.440353 164.75897 
L 198.497386 130.388744 
L 198.5202 174.614843 
L 198.548716 148.591963 
L 198.594343 174.782211 
L 198.577233 148.412235 
L 198.668486 173.036189 
L 198.679893 165.454837 
L 198.736926 174.818114 
L 198.77685 174.675248 
L 198.79396 173.016798 
L 198.850993 174.84037 
L 198.885213 174.747034 
L 198.982169 174.865349 
L 198.913729 174.583432 
L 198.999279 174.811585 
L 199.233116 174.917358 
L 199.592426 174.838705 
L 199.626646 173.763073 
L 199.666569 161.124552 
L 199.712196 130.15827 
L 199.740712 173.948314 
L 199.769229 150.859104 
L 199.792042 148.275167 
L 199.883296 174.942848 
L 199.900406 165.03751 
L 199.917516 175.031353 
L 199.991659 174.986794 
L 200.008769 173.008997 
L 200.065802 175.053515 
L 200.100022 174.980785 
L 200.191275 175.074644 
L 200.122835 174.776716 
L 200.214089 175.025984 
L 200.345265 175.097498 
L 200.350969 175.09566 
L 200.807235 174.968939 
L 200.847158 173.03806 
L 200.898488 149.952961 
L 200.932708 132.105341 
L 200.961225 168.048975 
L 200.989742 153.293751 
L 201.075292 175.173116 
L 201.018258 150.814878 
L 201.103808 168.981754 
L 201.189358 175.061566 
L 201.132325 167.801168 
L 201.217875 173.444801 
L 201.320535 175.233169 
L 201.337645 174.987606 
L 201.343348 174.968653 
L 201.366161 175.234442 
L 201.400381 175.159027 
L 201.525855 175.253802 
L 201.702658 175.279792 
L 202.022044 175.148941 
L 202.050561 173.208767 
L 202.101891 136.546126 
L 202.119001 124.602652 
L 202.141814 172.979225 
L 202.193144 143.114732 
L 202.233067 174.681415 
L 202.312914 172.188127 
L 202.404167 175.231503 
L 202.330024 165.302059 
L 202.426981 174.686289 
L 202.461201 175.363765 
L 202.444091 173.570347 
L 202.541047 175.076557 
L 202.649411 175.386941 
L 202.655114 175.372601 
L 202.666521 175.348804 
L 202.683631 175.390985 
L 202.763477 175.395296 
L 203.208337 175.451453 
L 203.567647 175.474157 
L 203.630383 175.346712 
L 203.664603 174.46045 
L 203.704527 165.468275 
L 203.76156 132.4613 
L 203.790077 174.787922 
L 203.818593 149.745259 
L 203.869923 175.384967 
L 203.938363 170.628763 
L 204.029616 175.463212 
L 203.96688 168.497529 
L 204.05243 173.743434 
L 204.160793 175.556374 
L 204.1722 175.432109 
L 204.183606 175.338092 
L 204.263453 175.565263 
L 204.269156 175.563274 
L 204.366113 175.567411 
L 204.383223 175.577973 
L 204.674093 175.522525 
L 204.714016 174.957511 
L 204.753939 169.045948 
L 204.822379 132.518636 
L 204.845193 171.226859 
L 204.879413 154.906946 
L 204.964963 175.63339 
L 204.907929 151.426506 
L 204.993479 168.720041 
L 205.084732 175.645573 
L 205.021996 168.311125 
L 205.107546 173.611994 
L 205.215909 175.664827 
L 205.233019 175.482322 
L 205.238722 175.44578 
L 205.267239 175.671733 
L 205.312866 175.668095 
L 205.341382 175.632459 
L 205.455449 175.6882 
L 205.666472 175.710254 
L 205.888902 175.718113 
L 205.917419 175.519373 
L 205.945935 172.931518 
L 206.014375 123.380589 
L 206.088519 162.461841 
L 206.145552 175.536624 
L 206.105629 144.723049 
L 206.202585 173.548339 
L 206.213992 163.92198 
L 206.253915 175.759272 
L 206.310948 175.675377 
L 206.322355 173.208746 
L 206.396498 175.750876 
L 206.419312 175.678686 
L 206.482048 175.790093 
L 206.436422 175.423557 
L 206.533378 175.742789 
L 206.641742 175.809055 
L 206.653148 175.802208 
L 207.120821 175.855612 
L 207.702561 175.716123 
L 207.736781 173.495673 
L 207.788111 142.809536 
L 207.810924 128.387474 
L 207.839441 165.919982 
L 207.867957 158.595334 
L 207.970617 175.713569 
L 207.890771 146.050153 
L 207.976321 171.298496 
L 207.987727 163.072226 
L 208.004837 175.894846 
L 208.084684 172.764782 
L 208.096091 174.217935 
L 208.175937 175.955013 
L 208.124607 174.162519 
L 208.210157 175.935757 
L 208.215861 175.940687 
L 208.221564 175.81809 
L 208.232971 175.683051 
L 208.290004 175.972175 
L 208.324224 175.961279 
L 208.347037 175.935192 
L 208.449697 175.981125 
L 208.655017 176.008366 
L 209.116987 175.857494 
L 209.145503 173.95833 
L 209.196833 139.913229 
L 209.219647 125.790942 
L 209.24246 172.31626 
L 209.270977 159.609622 
L 209.305197 175.941025 
L 209.288087 142.528931 
L 209.37934 159.394779 
L 209.51622 176.090208 
L 209.53333 174.073456 
L 209.613176 176.093131 
L 209.624583 175.731803 
L 209.630286 175.726062 
L 209.750056 176.109506 
L 209.767166 176.075319 
L 209.864123 176.121136 
L 210.320389 176.165611 
L 210.616962 176.197394 
L 210.702512 176.112089 
L 210.731029 175.229656 
L 210.765249 163.992142 
L 210.816579 125.964926 
L 210.867909 166.757647 
L 210.890722 146.321566 
L 210.930646 175.890534 
L 211.004789 164.074232 
L 211.113152 176.238931 
L 211.141669 176.106578 
L 211.147372 176.114633 
L 211.158779 175.001971 
L 211.244329 176.249178 
L 211.255735 176.062202 
L 211.261439 176.057663 
L 211.267142 176.139356 
L 211.381209 176.264363 
L 212.310851 176.21377 
L 212.339368 174.752069 
L 212.379291 153.465087 
L 212.413511 125.182949 
L 212.436325 173.416417 
L 212.464841 153.383133 
L 212.499061 175.743351 
L 212.481951 141.747883 
L 212.578908 164.756505 
L 212.675865 176.031513 
L 212.601721 163.013384 
L 212.692975 173.082963 
L 212.795635 176.393682 
L 212.807041 175.886469 
L 212.812745 175.888619 
L 212.926811 176.405522 
L 212.932514 176.383253 
L 212.938218 176.358978 
L 212.955328 176.407481 
L 213.035174 176.415954 
L 213.423001 176.453893 
L 213.719574 176.484921 
L 213.95341 176.373351 
L 213.98763 174.63937 
L 214.033257 149.256078 
L 214.067477 127.139702 
L 214.09029 168.671726 
L 214.118807 159.40369 
L 214.187247 176.034631 
L 214.135917 144.636633 
L 214.22717 163.75029 
L 214.232874 161.50964 
L 214.2785 176.19267 
L 214.307017 174.897901 
L 214.409677 176.532282 
L 214.32983 172.216079 
L 214.421084 175.859074 
L 214.426787 175.63838 
L 214.443897 176.541327 
L 214.512337 176.538626 
L 214.51804 176.541874 
L 214.523743 176.474955 
L 214.529447 176.415085 
L 214.55226 176.556918 
L 214.626403 176.561163 
L 215.4762 176.502166 
L 215.504716 174.953325 
L 215.550343 146.847665 
L 215.57886 124.710524 
L 215.601673 175.990098 
L 215.653003 144.432852 
L 215.749959 176.169502 
L 215.772773 172.179271 
L 215.864026 176.662692 
L 215.789883 166.410797 
L 215.886839 175.276326 
L 215.955279 176.67927 
L 215.909653 174.850209 
L 216.000906 176.311548 
L 216.114973 176.694776 
L 216.126379 176.667148 
L 216.149193 176.696916 
L 216.234742 176.699336 
L 216.645382 176.744782 
L 216.805075 176.757391 
L 217.204309 176.630224 
L 217.232825 174.689768 
L 217.278452 143.203095 
L 217.306968 124.310745 
L 217.358298 172.859191 
L 217.375408 142.500656 
L 217.386815 176.164463 
L 217.495178 174.543179 
L 217.500882 174.692476 
L 217.512288 165.540738 
L 217.609245 176.586372 
L 217.626355 174.642253 
L 217.700498 176.831304 
L 217.717608 176.374493 
L 217.825972 176.842708 
L 217.837378 176.796929 
L 218.122545 176.869379 
L 218.989451 176.782517 
L 219.017967 174.91217 
L 219.063594 143.272691 
L 219.092111 124.040034 
L 219.143441 170.809464 
L 219.160551 142.745366 
L 219.280321 176.435528 
L 219.297431 165.827761 
L 219.337354 176.972081 
L 219.388684 175.858233 
L 219.422904 176.97941 
L 219.405794 174.709644 
L 219.502751 176.659069 
L 219.60541 176.994997 
L 219.616817 176.942041 
L 219.816434 177.0102 
L 220.728966 177.035947 
L 220.757483 176.496035 
L 220.791703 169.299478 
L 220.848736 126.881186 
L 220.87155 170.978577 
L 220.900066 148.468401 
L 220.93999 176.533917 
L 220.92288 143.850786 
L 221.014133 161.554991 
L 221.190936 177.087847 
L 221.196639 176.966984 
L 221.208046 176.16537 
L 221.259376 177.128155 
L 221.305003 177.036148 
L 221.310706 176.971027 
L 221.333519 177.137408 
L 221.401959 177.135548 
L 221.424773 177.119708 
L 221.538839 177.154697 
L 222.411449 177.058898 
L 222.439965 173.468495 
L 222.496999 118.810877 
L 222.588252 154.964077 
L 222.605362 144.023541 
L 222.708022 177.226581 
L 222.719429 164.387273 
L 222.730835 177.24579 
L 222.816385 174.443881 
L 222.896232 177.260066 
L 222.930452 176.84383 
L 223.095848 177.279736 
L 223.101552 177.275628 
L 223.215618 177.287597 
L 223.426641 177.30637 
L 224.350581 177.383983 
L 224.555901 177.398113 
L 224.715594 177.344339 
L 224.744111 176.715103 
L 224.778331 168.032755 
L 224.835364 125.89448 
L 224.880991 146.364665 
L 224.949431 177.322819 
L 224.903804 142.369767 
L 224.995057 160.181718 
L 225.097717 177.367552 
L 225.114827 173.549202 
L 225.160454 177.438732 
L 225.234597 177.124264 
L 225.2403 176.975143 
L 225.29163 177.455821 
L 225.331554 177.444194 
L 225.34296 177.392339 
L 225.36007 177.45991 
L 225.439917 177.466517 
L 225.611017 177.480926 
L 226.312526 177.515719 
L 226.346746 177.124113 
L 226.380966 171.007687 
L 226.443703 125.669469 
L 226.48933 148.991203 
L 226.495033 176.540127 
L 226.512143 142.29409 
L 226.597693 159.135796 
L 226.64332 177.56263 
L 226.74598 175.022897 
L 226.860046 177.576294 
L 226.905673 177.418877 
L 227.105289 177.599524 
L 227.116696 177.592718 
L 227.846722 177.654626 
L 227.960789 177.567778 
L 227.989305 176.624697 
L 228.023525 164.939164 
L 228.074855 125.746588 
L 228.126185 166.267289 
L 228.148999 146.15136 
L 228.188922 177.472625 
L 228.268769 167.536403 
L 228.308692 177.692092 
L 228.382835 175.306169 
L 228.531122 177.710206 
L 228.536825 177.678531 
L 228.548232 177.564418 
L 228.639485 177.718957 
L 228.645188 177.710448 
L 228.759255 177.726148 
L 229.124268 177.758153 
L 229.489281 177.785416 
L 229.580534 177.6998 
L 229.609051 176.676438 
L 229.648974 158.572149 
L 229.688898 124.989196 
L 229.711711 177.465579 
L 229.763041 143.575641 
L 229.802964 177.721309 
L 229.888514 177.650922 
L 229.905624 167.637826 
L 229.996878 175.532194 
L 230.099538 177.829969 
L 230.110944 177.498632 
L 230.116648 177.450649 
L 230.162274 177.828418 
L 230.185087 177.74561 
L 230.299154 177.84669 
L 230.304857 177.845131 
L 230.436034 177.857302 
L 231.28583 177.852806 
L 231.314347 177.02995 
L 231.348567 164.901907 
L 231.394193 124.434786 
L 231.417007 172.260223 
L 231.468337 142.952797 
L 231.479743 176.510016 
L 231.588107 175.609997 
L 231.59381 175.552886 
L 231.605217 166.059595 
L 231.702173 177.670565 
L 231.707877 177.623529 
L 231.719283 175.591792 
L 231.793427 177.956671 
L 231.81624 177.702214 
L 231.9189 177.967654 
L 231.839053 177.667546 
L 231.930306 177.923479 
L 232.255396 177.993145 
L 232.814323 178.038283 
L 233.053862 177.930259 
L 233.082379 176.618377 
L 233.122302 156.084928 
L 233.162226 124.771931 
L 233.213556 173.121858 
L 233.236369 148.082688 
L 233.333326 175.803198 
L 233.259182 147.282628 
L 233.350436 166.533847 
L 233.447392 178.080804 
L 233.464502 175.128433 
L 233.538645 178.089172 
L 233.584272 177.683206 
L 233.698339 178.097431 
L 233.715449 178.061834 
L 233.926472 178.11243 
L 234.240155 178.142477 
L 234.707828 178.097357 
L 234.742048 177.083941 
L 234.781971 161.823781 
L 234.827598 126.751934 
L 234.850411 176.873578 
L 234.878928 151.163213 
L 234.947368 177.667086 
L 234.901741 143.978309 
L 234.987291 165.295299 
L 234.992995 161.516666 
L 235.072841 178.184346 
L 235.084248 173.26779 
L 235.089951 173.120693 
L 235.095655 175.276676 
L 235.204018 178.210582 
L 235.118468 174.897401 
L 235.209721 177.996726 
L 235.221128 177.596405 
L 235.238238 178.216188 
L 235.312381 178.211676 
L 235.323788 178.130213 
L 235.346601 178.222008 
L 235.420744 178.224945 
L 235.620361 178.242231 
L 236.202101 178.213192 
L 236.236321 177.304136 
L 236.276244 163.395769 
L 236.32187 127.462704 
L 236.350387 165.151782 
L 236.378904 162.797238 
L 236.47586 177.327942 
L 236.396014 144.638479 
L 236.487267 164.254409 
L 236.49297 162.192609 
L 236.538597 177.932431 
L 236.56141 172.514167 
L 236.669774 178.288213 
L 236.675477 178.142114 
L 236.686884 177.322166 
L 236.778137 178.323183 
L 236.78384 178.261079 
L 236.795247 178.179952 
L 236.85228 178.333025 
L 236.8865 178.332137 
L 237.080413 178.349843 
L 237.337063 178.368457 
L 237.702076 178.375472 
L 237.730593 178.150837 
L 237.75911 175.505669 
L 237.82755 125.05955 
L 237.850363 175.510629 
L 237.87888 154.336368 
L 237.9131 178.283119 
L 237.89599 141.532604 
L 237.992946 166.756504 
L 238.027166 178.088069 
L 238.015759 163.804079 
L 238.107013 175.068209 
L 238.175453 178.406723 
L 238.221079 177.732128 
L 238.335146 178.438843 
L 238.357959 178.384119 
L 238.477729 178.447343 
L 238.648829 178.460004 
L 238.916886 178.482863 
L 239.196349 178.501855 
L 239.464405 178.488619 
L 239.470109 178.459752 
L 239.498625 177.574207 
L 239.532845 162.740009 
L 239.578472 121.954436 
L 239.595582 168.077683 
L 239.646912 145.325095 
L 239.732462 178.537056 
L 239.664022 144.400246 
L 239.760978 175.098532 
L 239.772385 163.241234 
L 239.863638 178.51924 
L 239.869342 176.302237 
L 239.875045 174.533676 
L 239.972002 178.553277 
L 239.983408 177.897768 
L 240.057552 178.555682 
L 240.080365 178.5319 
L 240.097475 178.470887 
L 240.200135 178.564612 
L 240.416861 178.584549 
L 240.833204 178.614194 
L 241.112668 178.633409 
L 241.529011 178.56324 
L 241.557527 176.715146 
L 241.603154 139.429736 
L 241.625967 120.381052 
L 241.671594 164.449735 
L 241.694407 148.906447 
L 241.774254 178.425958 
L 241.711517 140.87405 
L 241.802771 168.856549 
L 241.808474 160.475349 
L 241.87121 178.541165 
L 241.90543 173.725974 
L 241.911134 173.297207 
L 241.92254 178.652056 
L 241.962464 176.433035 
L 242.07653 178.700402 
L 242.087937 178.425189 
L 242.184894 178.703803 
L 242.1963 178.668206 
L 242.29896 178.711328 
L 243.34267 178.786307 
L 243.639243 178.767451 
L 243.667759 178.362615 
L 243.701979 171.805094 
L 243.764716 125.484459 
L 243.810343 150.110708 
L 243.816046 178.720137 
L 243.833156 142.332539 
L 243.918706 158.938896 
L 244.021366 178.811961 
L 244.055586 178.241197 
L 244.066993 175.73859 
L 244.112619 178.833915 
L 244.163949 178.312784 
L 244.278016 178.846041 
L 244.283719 178.814675 
L 244.289422 178.787153 
L 244.312236 178.850352 
L 244.386379 178.853786 
L 244.546072 178.867075 
L 245.281802 178.870231 
L 245.316022 178.185952 
L 245.350242 169.487409 
L 245.407275 126.248174 
L 245.430088 174.919523 
L 245.458605 158.615053 
L 245.555562 178.250109 
L 245.475715 143.450447 
L 245.566968 160.941919 
L 245.709552 178.896904 
L 245.749475 177.991112 
L 245.755178 177.553161 
L 245.840728 178.955457 
L 245.846431 178.872816 
L 245.857838 178.712052 
L 245.909168 178.960689 
L 245.954795 178.935039 
L 245.960498 178.915029 
L 245.983311 178.965884 
L 246.057455 178.971926 
L 246.776074 179.022798 
L 246.861624 178.953882 
L 246.895844 177.80105 
L 246.935767 159.750077 
L 246.981394 125.710062 
L 246.998504 167.397623 
L 247.027021 149.002927 
L 247.032724 177.718754 
L 247.049834 142.353313 
L 247.135384 159.465993 
L 247.181011 179.033367 
L 247.283671 176.211757 
L 247.397737 179.060073 
L 247.460474 179.04837 
L 247.568837 179.07304 
L 247.477584 178.967068 
L 247.580244 179.065011 
L 247.700014 179.076793 
L 248.521293 179.027618 
L 248.54981 177.805197 
L 248.589733 157.731246 
L 248.629656 124.445871 
L 248.65247 171.898567 
L 248.7038 146.283272 
L 248.82357 176.522759 
L 248.914823 178.993508 
L 248.84068 167.150713 
L 248.920526 176.918914 
L 248.92623 175.478802 
L 248.971856 179.151933 
L 249.023186 178.562863 
L 249.09733 179.17628 
L 249.137253 179.126024 
L 249.142956 179.082743 
L 249.228506 179.18337 
L 249.239913 179.174975 
L 249.399606 179.19316 
L 250.215182 179.152127 
L 250.249402 177.887797 
L 250.289325 159.897274 
L 250.334952 126.348487 
L 250.386282 168.103896 
L 250.409095 146.61703 
L 250.511755 178.654477 
L 250.528865 167.041185 
L 250.603009 179.252757 
L 250.648635 176.847561 
L 250.665745 179.276236 
L 250.779812 179.043813 
L 250.950912 179.296617 
L 251.076385 179.302109 
L 251.367255 179.325742 
L 251.806411 179.302853 
L 251.834928 178.744272 
L 251.869148 169.562958 
L 251.926181 124.535921 
L 251.971808 152.275746 
L 252.034544 179.363538 
L 251.988918 140.963858 
L 252.085874 169.964127 
L 252.177128 179.230179 
L 252.102984 162.748001 
L 252.199941 177.763181 
L 252.234161 179.381907 
L 252.217051 175.598429 
L 252.314008 178.751769 
L 252.388151 179.389286 
L 252.428074 179.332586 
L 252.433778 179.304334 
L 252.450888 179.395645 
L 252.525031 179.395993 
L 252.673317 179.405869 
L 252.981297 179.428546 
L 253.51741 179.377789 
L 253.55163 178.172991 
L 253.591553 161.177308 
L 253.63718 126.640543 
L 253.659993 177.473253 
L 253.68851 156.066602 
L 253.75695 178.784428 
L 253.711323 144.552769 
L 253.796873 163.513292 
L 253.802577 161.758269 
L 253.848203 179.477889 
L 253.871017 173.935232 
L 253.91094 179.471049 
L 253.89383 173.556041 
L 253.985083 178.711678 
L 253.990787 178.223569 
L 254.08204 179.48384 
L 254.087743 179.393174 
L 254.093447 179.312221 
L 254.15048 179.50376 
L 254.190403 179.506519 
L 254.310173 179.515184 
L 254.635263 179.536436 
L 254.886209 179.555122 
L 255.051606 179.518839 
L 255.085826 178.722437 
L 255.120046 168.083914 
L 255.171376 125.31726 
L 255.194189 178.411704 
L 255.222706 155.019441 
L 255.256926 178.777155 
L 255.239816 142.14893 
L 255.331069 159.432344 
L 255.433729 179.536447 
L 255.456542 177.597544 
L 255.524982 179.590236 
L 255.479356 176.417555 
L 255.570609 178.894863 
L 255.684676 179.60006 
L 255.701786 179.528008 
L 255.884292 179.614641 
L 256.243602 179.640674 
L 256.665648 179.507372 
L 256.699868 177.931084 
L 256.745495 156.191125 
L 256.785418 128.493401 
L 256.808232 176.049626 
L 256.842452 167.634349 
L 256.945111 179.684265 
L 256.859562 146.665027 
L 256.950815 172.59862 
L 256.962221 164.844908 
L 257.047771 179.494248 
L 257.053475 177.526585 
L 257.064881 175.795819 
L 257.116211 179.694036 
L 257.156135 179.625255 
L 257.167541 179.027219 
L 257.190355 179.70078 
L 257.264498 179.692294 
L 257.287311 179.601476 
L 257.395675 179.712459 
L 257.794908 179.739147 
L 258.068667 179.643309 
L 258.097184 178.482689 
L 258.137107 160.19607 
L 258.182734 125.629654 
L 258.199844 165.374266 
L 258.228361 148.173547 
L 258.325317 178.80427 
L 258.251174 142.260012 
L 258.336724 159.642242 
L 258.473604 179.7556 
L 258.502121 179.718722 
L 258.519231 177.890012 
L 258.599077 179.789347 
L 258.616187 179.44062 
L 258.735957 179.798502 
L 258.74166 179.79103 
L 258.850024 179.801468 
L 258.855727 179.804542 
L 259.123784 179.821963 
L 259.722633 179.733986 
L 259.75115 178.48848 
L 259.791073 158.195703 
L 259.830996 124.516426 
L 259.85381 175.838213 
L 259.90514 145.515128 
L 260.002096 177.797657 
L 260.02491 176.0884 
L 260.04202 167.37691 
L 260.14468 179.884204 
L 260.16179 177.631364 
L 260.235933 179.891578 
L 260.253043 179.410338 
L 260.367109 179.898066 
L 260.372813 179.88146 
L 260.418439 179.877327 
L 260.401329 179.89964 
L 260.481176 179.901205 
L 261.148466 179.94914 
L 261.473555 179.812757 
L 261.502072 177.981745 
L 261.547699 146.081551 
L 261.576215 123.408255 
L 261.627545 179.230946 
L 261.650359 151.278766 
L 261.684579 179.526714 
L 261.667469 145.996183 
L 261.764425 179.198077 
L 261.781535 166.39907 
L 261.792942 179.983503 
L 261.872789 179.184935 
L 261.964042 179.981917 
L 261.889899 176.703038 
L 261.986855 179.806722 
L 262.083812 180.005203 
L 262.003965 179.588062 
L 262.100922 179.932071 
L 262.214988 180.009412 
L 262.220692 180.005764 
L 262.551485 180.031583 
L 262.945015 180.058394 
L 263.287214 179.951977 
L 263.315731 178.7278 
L 263.355654 159.374012 
L 263.395578 125.413032 
L 263.418391 174.665157 
L 263.446908 152.319331 
L 263.452611 179.559569 
L 263.464018 142.618232 
L 263.555271 159.369208 
L 263.657931 180.080778 
L 263.686447 179.861971 
L 263.703557 176.783329 
L 263.749184 180.088462 
L 263.800514 179.48512 
L 263.914581 180.11176 
L 263.920284 180.079788 
L 263.931691 180.041243 
L 263.948801 180.11831 
L 264.022944 180.122815 
L 264.148417 180.126864 
L 264.621794 180.162218 
L 264.867037 180.170893 
L 264.918367 180.134313 
L 264.92407 180.113219 
L 264.95829 179.152697 
L 264.998213 163.275069 
L 265.04384 125.811333 
L 265.066653 179.379957 
L 265.09517 154.103075 
L 265.100873 178.857775 
L 265.11228 143.220377 
L 265.203533 160.164103 
L 265.340413 180.197168 
L 265.35182 177.527347 
L 265.357523 177.260915 
L 265.40315 180.201042 
L 265.42026 179.168721 
L 265.54003 180.208419 
L 265.545733 180.164966 
L 265.551436 180.125846 
L 265.57425 180.214036 
L 265.648393 180.221527 
L 265.785273 180.231243 
L 266.498189 180.277412 
L 266.612256 180.154518 
L 266.640772 178.332853 
L 266.686399 144.59732 
L 266.714916 122.197579 
L 266.732026 167.997721 
L 266.783356 144.698099 
L 266.817576 180.25711 
L 266.806169 144.488752 
L 266.897422 179.102377 
L 266.908829 163.728158 
L 266.948752 180.276369 
L 267.005785 179.065311 
L 267.017192 176.280754 
L 267.028599 180.305962 
L 267.114149 180.217038 
L 267.125555 179.616371 
L 267.222512 180.302552 
L 267.239622 180.223646 
L 267.439239 180.32676 
L 268.494355 180.245249 
L 268.528575 178.674853 
L 268.574201 155.650166 
L 268.614125 127.791626 
L 268.636938 179.707364 
L 268.665454 153.064224 
L 268.768114 180.16752 
L 268.688268 145.345193 
L 268.773818 173.199524 
L 268.785224 163.774145 
L 268.865071 180.297601 
L 268.882181 175.305304 
L 268.933511 180.411557 
L 269.013358 180.144882 
L 269.019061 179.939129 
L 269.116018 180.426696 
L 269.258601 180.426604 
L 269.612207 180.460235 
L 269.99433 180.383976 
L 270.022847 179.143473 
L 270.06277 156.861223 
L 270.102694 123.191908 
L 270.154024 171.619208 
L 270.171134 142.669255 
L 270.262387 180.342684 
L 270.290904 178.565562 
L 270.30231 165.232763 
L 270.37075 180.493691 
L 270.399267 180.4297 
L 270.410673 176.859769 
L 270.484817 180.477222 
L 270.50763 180.340468 
L 270.54185 180.511948 
L 270.52474 180.001838 
L 270.621697 180.442652 
L 270.724357 180.522177 
L 270.735763 180.510864 
L 271.077963 180.543131 
L 271.688219 180.580633 
L 271.847913 180.535548 
L 271.853616 180.504606 
L 271.882133 179.605991 
L 271.916353 166.861472 
L 271.967683 124.46277 
L 272.013309 147.404497 
L 272.104562 179.171996 
L 272.036122 141.378291 
L 272.127376 166.864676 
L 272.190112 180.570418 
L 272.144486 163.747611 
L 272.241442 177.737194 
L 272.338399 180.598691 
L 272.264256 176.533952 
L 272.355509 179.75747 
L 272.463872 180.619103 
L 272.475279 180.526918 
L 272.731929 180.639762 
L 273.587428 180.691169 
L 273.695791 180.551122 
L 273.724308 178.037453 
L 273.792748 120.389018 
L 273.809858 180.270632 
L 273.832671 143.292658 
L 273.838375 179.423925 
L 273.849781 135.160656 
L 273.941035 170.286773 
L 273.946738 156.950537 
L 273.986661 180.64058 
L 274.049398 171.832262 
L 274.134948 180.717807 
L 274.163465 180.460957 
L 274.174871 179.417224 
L 274.237608 180.724587 
L 274.271828 180.562866 
L 274.277531 180.497793 
L 274.317454 180.729566 
L 274.368784 180.725085 
L 274.859271 180.759759 
L 275.857354 180.781125 
L 275.88587 180.35523 
L 275.914387 175.336038 
L 275.977123 123.521359 
L 276.02275 145.469009 
L 276.085487 180.831226 
L 276.045563 140.452515 
L 276.136817 174.17198 
L 276.222367 180.834608 
L 276.153927 161.536147 
L 276.250883 180.816458 
L 276.26229 175.696328 
L 276.336433 180.841107 
L 276.359247 180.43149 
L 276.456203 180.84858 
L 276.376357 180.100172 
L 276.473313 180.698835 
L 276.581676 180.857161 
L 276.593083 180.845871 
L 276.7927 180.867972 
L 277.682419 180.861451 
L 277.710936 180.244717 
L 277.745156 170.59096 
L 277.802189 124.655425 
L 277.847816 148.286955 
L 277.853519 180.059238 
L 277.870629 141.657596 
L 277.961882 165.898656 
L 278.053136 180.413366 
L 277.984696 163.853122 
L 278.075949 177.027786 
L 278.144389 180.945834 
L 278.098762 176.839098 
L 278.190015 180.050946 
L 278.269862 180.952286 
L 278.315489 180.859913 
L 278.469479 180.965188 
L 278.731832 180.97949 
L 279.433341 181.023057 
L 279.496078 180.917556 
L 279.524595 179.088287 
L 279.570221 142.184381 
L 279.593035 121.041632 
L 279.644365 171.477805 
L 279.661475 141.427996 
L 279.769838 180.239411 
L 279.775541 165.550917 
L 279.781245 161.096796 
L 279.843981 180.940296 
L 279.866794 180.577458 
L 279.878201 175.077856 
L 279.969454 180.999874 
L 279.975158 180.686505 
L 279.980861 179.909226 
L 280.049301 181.050509 
L 280.083521 180.949387 
L 280.089224 180.85106 
L 280.186181 181.059041 
L 280.345874 181.065074 
L 280.625337 181.085608 
L 281.16145 181.116341 
L 281.663343 181.124804 
L 281.69186 180.732304 
L 281.720377 174.88182 
L 281.77741 121.123159 
L 281.84585 142.417774 
L 281.954213 181.132471 
L 281.959917 167.624271 
L 281.96562 161.649652 
L 282.028357 180.952302 
L 282.062576 176.411731 
L 282.06828 175.266205 
L 282.079686 181.134411 
L 282.148126 179.717066 
L 282.23938 181.172107 
L 282.262193 181.133737 
L 282.279303 181.016261 
L 282.381963 181.178297 
L 282.49603 181.185091 
L 283.499816 181.244606 
L 283.653806 181.251899 
L 283.750762 181.236332 
L 283.762169 181.194236 
L 283.790685 180.538896 
L 283.824905 169.716829 
L 283.876235 123.816857 
L 283.899049 180.326199 
L 283.950379 145.925018 
L 284.041632 181.247146 
L 283.973192 145.922697 
L 284.070149 180.967382 
L 284.081555 166.576547 
L 284.178512 180.696765 
L 284.195622 177.920974 
L 284.298282 181.280463 
L 284.315392 180.854694 
L 284.361018 181.289144 
L 284.412348 181.218785 
L 284.526415 181.295875 
L 284.532118 181.29137 
L 284.800175 181.314316 
L 285.547311 181.332396 
L 285.581531 180.976461 
L 285.610048 177.127181 
L 285.678488 124.724086 
L 285.752631 146.759066 
L 285.849588 178.814914 
L 285.872401 177.309668 
L 285.963654 181.360125 
L 285.889511 168.102177 
L 285.992171 181.352048 
L 286.009281 178.871546 
L 286.054907 181.368835 
L 286.100534 180.839847 
L 286.214601 181.391612 
L 286.226007 181.345687 
L 286.231711 181.33131 
L 286.248821 181.393222 
L 286.322964 181.394217 
L 286.95033 181.431618 
L 287.25831 181.443847 
L 287.298233 181.31874 
L 287.32675 179.753518 
L 287.372377 149.993121 
L 287.406597 124.076809 
L 287.457927 176.242346 
L 287.475037 142.541534 
L 287.486443 180.045343 
L 287.594807 179.752985 
L 287.611917 167.139332 
L 287.680356 181.428646 
L 287.70317 179.390444 
L 287.708873 181.443258 
L 287.725983 178.404302 
L 287.817236 180.929479 
L 287.919896 181.486186 
L 287.931303 181.415487 
L 287.937006 181.402123 
L 287.954116 181.486074 
L 288.016853 181.486916 
L 289.043452 181.539533 
L 289.083376 181.448646 
L 289.111892 180.449137 
L 289.151816 162.190516 
L 289.197442 124.51016 
L 289.243069 146.899347 
L 289.248772 178.427824 
L 289.265882 141.366957 
L 289.357135 165.628413 
L 289.448389 181.085901 
L 289.379949 163.82502 
L 289.471202 177.559836 
L 289.568159 181.557126 
L 289.494015 177.205776 
L 289.585269 180.59832 
L 289.693632 181.576998 
L 289.705039 181.503748 
L 289.710742 181.475792 
L 289.727852 181.582263 
L 289.801995 181.581251 
L 289.944578 181.596051 
L 290.315295 181.615267 
L 290.788671 181.587321 
L 290.817188 181.134774 
L 290.851408 174.18338 
L 290.914145 125.326428 
L 290.988288 146.56879 
L 291.056728 181.648664 
L 291.108058 171.668482 
L 291.205014 181.660806 
L 291.130871 169.52644 
L 291.222124 178.260151 
L 291.330488 181.667532 
L 291.341894 181.303767 
L 291.347598 181.241245 
L 291.364708 181.667369 
L 291.421741 181.603491 
L 291.450258 181.596436 
L 291.535808 181.676871 
L 291.786754 181.694554 
L 292.26013 181.719767 
L 292.43123 181.69346 
L 292.436934 181.670774 
L 292.471154 180.735682 
L 292.505374 169.360626 
L 292.556704 125.505181 
L 292.579517 173.502104 
L 292.608034 151.49752 
L 292.613737 181.677043 
L 292.630847 142.782719 
L 292.716397 159.652194 
L 292.79054 181.720417 
L 292.853277 181.209382 
L 292.864683 177.990749 
L 292.94453 181.739605 
L 292.96164 181.066828 
L 293.041487 181.761764 
L 293.08141 181.736347 
L 293.092817 181.698026 
L 293.109927 181.766373 
L 293.189773 181.760303 
L 293.349466 181.776271 
L 293.771513 181.803096 
L 294.068086 181.756742 
L 294.102306 180.853105 
L 294.142229 166.717603 
L 294.193559 126.542454 
L 294.216373 180.48815 
L 294.244889 156.089135 
L 294.341846 181.591519 
L 294.267703 144.401172 
L 294.353252 163.052057 
L 294.358956 162.214882 
L 294.364659 168.129792 
L 294.467319 181.727567 
L 294.387472 166.785203 
L 294.478726 177.448072 
L 294.701156 181.84963 
L 294.838036 181.844173 
L 294.997729 181.864976 
L 295.488215 181.892931 
L 295.653612 181.802611 
L 295.682128 180.692294 
L 295.722052 160.914586 
L 295.761975 124.457462 
L 295.784788 175.125798 
L 295.836118 143.204276 
L 295.847525 179.657091 
L 295.955888 179.010029 
L 295.972998 167.342392 
L 296.041438 181.501065 
L 296.064251 179.013156 
L 296.161208 181.922621 
L 296.087065 178.790695 
L 296.178318 181.23232 
L 296.286681 181.934421 
L 296.298088 181.866871 
L 296.303791 181.85485 
L 296.320901 181.933249 
L 296.383638 181.935238 
L 296.628881 181.951881 
L 297.393127 181.832351 
L 297.421644 180.427994 
L 297.461567 161.374081 
L 297.507194 126.385692 
L 297.530007 173.522864 
L 297.558524 160.884394 
L 297.655481 181.408609 
L 297.575634 143.687746 
L 297.666887 161.940202 
L 297.80947 182.013477 
L 297.883614 181.389341 
L 297.889317 181.078387 
L 297.940647 182.013498 
L 297.98057 182.009303 
L 297.991977 181.886462 
L 298.04901 182.027581 
L 298.088934 182.028892 
L 298.231517 182.034623 
L 298.995763 182.03809 
L 299.02428 181.591246 
L 299.052796 175.992333 
L 299.115533 122.633803 
L 299.183973 143.430086 
L 299.29804 181.777402 
L 299.309446 165.048846 
L 299.406403 182.065958 
L 299.417809 177.513255 
L 299.514766 182.033861 
L 299.531876 181.395157 
L 299.606019 182.098363 
L 299.623129 181.991276 
L 299.725789 182.113771 
L 299.737196 182.100977 
L 300.969115 182.121032 
L 300.997632 181.31957 
L 301.031852 167.425266 
L 301.077478 122.161616 
L 301.128808 179.567502 
L 301.151622 152.472355 
L 301.259985 182.186438 
L 301.168732 143.123929 
L 301.265688 170.158013 
L 301.271392 163.519718 
L 301.311315 182.132498 
L 301.362645 181.9162 
L 301.374052 177.169092 
L 301.471008 182.195769 
L 301.482415 181.335364 
L 301.556558 182.209535 
L 301.579372 182.156096 
L 301.676328 182.213422 
L 301.596482 182.098713 
L 301.693438 182.193048 
L 301.813208 182.218658 
L 302.041341 182.233621 
L 302.543234 182.257726 
L 302.708631 182.270527 
L 302.959577 182.097057 
L 302.988094 180.339492 
L 303.033721 151.444925 
L 303.067941 124.754178 
L 303.119271 171.404237 
L 303.142084 147.28969 
L 303.239041 180.052761 
L 303.261854 177.343259 
L 303.353107 182.294989 
L 303.278964 168.614409 
L 303.37592 180.252712 
L 303.44436 182.304618 
L 303.398734 179.627974 
L 303.489987 181.767254 
L 303.604054 182.312997 
L 303.621164 182.264376 
L 303.809374 182.328052 
L 304.048913 182.33474 
L 304.619246 182.338809 
L 304.653466 181.959321 
L 304.687686 176.367088 
L 304.756126 126.053632 
L 304.801753 147.298203 
L 304.89871 182.26805 
L 304.824566 142.645033 
L 304.910116 161.465542 
L 304.91582 161.312461 
L 305.018479 182.376621 
L 305.035589 177.059154 
L 305.081216 182.388081 
L 305.155359 181.837451 
L 305.161063 181.693522 
L 305.178173 182.397103 
L 305.240909 182.373644 
L 305.354976 182.403293 
L 305.263723 182.288275 
L 305.360679 182.397998 
L 305.486153 182.412277 
L 305.742802 182.425095 
L 306.090705 182.444459 
L 306.238992 182.393385 
L 306.273212 181.561815 
L 306.307432 171.009166 
L 306.364465 125.691634 
L 306.438609 146.152287 
L 306.478532 182.394013 
L 306.558379 170.075429 
L 306.626819 182.434661 
L 306.581192 169.895571 
L 306.672445 178.85741 
L 306.752292 182.474724 
L 306.803622 182.069546 
L 306.923392 182.487892 
L 307.043162 182.484721 
L 307.259888 182.501957 
L 307.562165 182.51721 
L 307.921474 182.470512 
L 307.949991 181.606004 
L 307.984211 167.864952 
L 308.035541 122.813698 
L 308.052651 174.417369 
L 308.103981 144.947377 
L 308.126794 144.921006 
L 308.218048 182.357598 
L 308.229454 165.456296 
L 308.326411 182.554498 
L 308.337817 178.112856 
L 308.434774 182.428296 
L 308.451884 181.821832 
L 308.554544 182.568728 
L 308.571654 182.473963 
L 308.668611 182.560914 
L 308.805491 182.579523 
L 309.569737 182.618452 
L 309.74654 182.602204 
L 309.78076 182.336821 
L 309.81498 178.996164 
L 309.889123 127.725421 
L 309.974673 156.534675 
L 310.077333 182.569386 
L 309.997486 151.705255 
L 310.08874 169.511835 
L 310.094443 169.230663 
L 310.100146 173.838693 
L 310.17429 182.65112 
L 310.12296 173.042731 
L 310.214213 181.779409 
L 310.22562 180.410259 
L 310.27695 182.653692 
L 310.316873 182.603847 
L 310.32828 182.302077 
L 310.425236 182.663038 
L 310.556413 182.670747 
L 310.704699 182.678128 
L 310.881503 182.691178 
L 311.098229 182.700312 
L 311.217999 182.682381 
L 311.229406 182.644088 
L 311.257922 182.095382 
L 311.292142 174.377185 
L 311.354879 126.111527 
L 311.406209 162.979279 
L 311.440429 182.623464 
L 311.423319 143.043472 
L 311.514572 161.040624 
L 311.560199 182.673632 
L 311.657155 181.987546 
L 311.668562 179.367285 
L 311.748409 182.715216 
L 311.765519 182.043218 
L 311.890992 182.737057 
L 311.896695 182.712968 
L 311.902399 182.688865 
L 311.925212 182.744362 
L 311.999355 182.743145 
L 312.273115 182.760433 
L 312.632425 182.781206 
L 312.843448 182.716798 
L 312.871965 181.888069 
L 312.906185 170.067046 
L 312.957515 124.651211 
L 312.980328 181.497441 
L 313.031658 143.90564 
L 313.157131 181.183359 
L 313.168538 167.995205 
L 313.242681 182.625924 
L 313.265495 181.514341 
L 313.299715 182.796781 
L 313.282605 179.753003 
L 313.379561 182.218107 
L 313.487924 182.821728 
L 313.499331 182.759561 
L 313.505034 182.747935 
L 313.522144 182.821457 
L 313.590584 182.824009 
L 313.716058 182.831398 
L 314.360534 182.864837 
L 314.600074 182.810696 
L 314.62859 181.994434 
L 314.66281 169.920462 
L 314.71414 123.940993 
L 314.736954 179.118865 
L 314.788284 146.588283 
L 314.879537 182.87237 
L 314.811097 146.249527 
L 314.908054 182.56768 
L 314.91946 167.097785 
L 315.016417 182.134391 
L 315.10767 182.900336 
L 315.033527 179.243482 
L 315.136187 182.885902 
L 315.153297 182.423736 
L 315.198923 182.905462 
L 315.250253 182.834792 
L 315.358617 182.913145 
L 315.370023 182.911576 
L 315.53542 182.918412 
L 315.729333 182.932168 
L 316.339589 182.960755 
L 316.390919 182.933302 
L 316.402326 182.875759 
L 316.430843 181.861494 
L 316.465063 168.409396 
L 316.516393 124.36742 
L 316.567723 174.634596 
L 316.590536 148.223715 
L 316.681789 181.491904 
L 316.613349 147.053277 
L 316.704602 171.148657 
L 316.767339 182.834658 
L 316.727416 168.68538 
L 316.818669 180.255256 
L 316.915626 182.980129 
L 316.841482 179.728567 
L 316.932736 182.264382 
L 317.041099 182.996208 
L 317.052506 182.944847 
L 317.058209 182.924068 
L 317.075319 182.999774 
L 317.149462 182.997713 
L 317.320562 183.013024 
L 318.187468 182.844583 
L 318.215985 180.422528 
L 318.273018 133.153871 
L 318.290128 123.083973 
L 318.307238 160.115527 
L 318.335755 150.816785 
L 318.352865 139.255492 
L 318.449821 182.94002 
L 318.461228 161.658409 
L 318.558185 182.989606 
L 318.569591 176.98524 
L 318.586701 183.075937 
L 318.666548 182.597319 
L 318.700768 183.084341 
L 318.683658 182.046458 
L 318.780615 182.931339 
L 318.888978 183.088082 
L 318.894681 183.073113 
L 319.031561 183.095513 
L 319.989721 183.030189 
L 320.023941 181.635424 
L 320.063864 163.942873 
L 320.10949 127.127733 
L 320.166524 171.259043 
L 320.189337 147.365734 
L 320.200744 183.146982 
L 320.309107 167.984464 
L 320.388954 183.164846 
L 320.440284 180.640763 
L 320.560054 183.173874 
L 320.577164 182.923347 
L 320.668417 183.177769 
L 321.3243 183.216676 
L 321.637983 183.129253 
L 321.6665 181.350762 
L 321.712126 142.616455 
L 321.734939 119.846133 
L 321.757753 162.297006 
L 321.803379 145.422387 
L 321.809083 183.207811 
L 321.820489 139.587944 
L 321.911743 162.872505 
L 321.917446 159.579691 
L 321.951666 183.08823 
L 321.991589 173.340757 
L 322.048623 183.232308 
L 322.105656 181.510489 
L 322.111359 181.357063 
L 322.122766 183.231812 
L 322.162689 182.526331 
L 322.276756 183.256462 
L 322.288162 183.162746 
L 322.385119 183.264837 
L 322.499186 183.266661 
L 322.795759 183.28582 
L 323.240619 183.30698 
L 323.645555 183.328189 
L 323.890798 183.161346 
L 323.919315 181.257003 
L 323.964941 150.401191 
L 323.999161 124.508758 
L 324.016271 163.389689 
L 324.044788 149.169958 
L 324.050491 183.230628 
L 324.067601 141.796141 
L 324.158855 168.402461 
L 324.221591 183.331232 
L 324.175965 164.356517 
L 324.272921 179.920087 
L 324.369878 183.346844 
L 324.295735 178.513167 
L 324.386988 182.274744 
L 324.495351 183.369823 
L 324.506758 183.252981 
L 324.512461 183.237345 
L 324.529571 183.367196 
L 324.586604 183.351476 
L 324.712078 183.376263 
L 325.550467 183.405517 
L 325.590391 183.135637 
L 325.62461 179.743797 
L 325.698754 126.925362 
L 325.750084 149.15511 
L 325.790007 181.961474 
L 325.772897 144.083899 
L 325.858447 168.156402 
L 325.86415 162.722164 
L 325.943997 183.415011 
L 325.961107 176.015057 
L 326.075174 183.44425 
L 326.08658 182.668534 
L 326.092284 182.495656 
L 326.109394 183.45002 
L 326.17213 183.334853 
L 326.25768 183.456519 
L 326.200647 183.312451 
L 326.286197 183.435463 
L 326.41167 183.467158 
L 326.662617 183.479156 
L 327.084663 183.359146 
L 327.118883 181.57494 
L 327.16451 156.00168 
L 327.204433 126.922835 
L 327.227246 175.195135 
L 327.255763 159.514995 
L 327.352719 182.962904 
L 327.272873 144.659374 
L 327.364126 164.151078 
L 327.369829 162.808112 
L 327.386939 181.034794 
L 327.409753 177.424873 
L 327.415456 183.515712 
L 327.432566 172.629816 
L 327.523819 180.7687 
L 327.529523 180.819207 
L 327.649293 183.506237 
L 327.666403 183.253635 
L 327.757656 183.532902 
L 327.774766 183.48948 
L 327.871722 183.536667 
L 328.681595 183.573316 
L 328.715815 183.439897 
L 328.744332 181.149824 
L 328.795662 135.353471 
L 328.812772 120.996303 
L 328.864102 172.22574 
L 328.881212 141.593465 
L 328.989575 183.192944 
L 328.995278 167.088672 
L 329.000982 161.705554 
L 329.063718 183.597623 
L 329.086532 182.563541 
L 329.103642 176.783772 
L 329.166378 183.577461 
L 329.189192 183.428687 
L 329.206302 182.212723 
L 329.217708 183.6036 
L 329.291852 183.468647 
L 329.383105 183.614134 
L 329.308962 183.408733 
L 329.405918 183.609103 
L 329.582721 183.622069 
L 329.759525 183.627554 
L 329.993361 183.644302 
L 330.204384 183.654193 
L 330.803234 183.604369 
L 330.831751 182.81126 
L 330.865971 171.571291 
L 330.923004 124.801673 
L 330.968631 149.154348 
L 330.974334 183.369043 
L 330.991444 141.953273 
L 331.082697 167.152356 
L 331.173951 183.222673 
L 331.105511 164.618535 
L 331.196764 179.139356 
L 331.265204 183.699047 
L 331.219577 178.767618 
L 331.31083 182.551529 
L 331.390677 183.70966 
L 331.4306 183.635228 
L 331.436304 183.58753 
L 331.527557 183.720661 
L 331.53326 183.706942 
L 331.681547 183.726231 
L 331.955307 183.741295 
L 332.599783 183.606153 
L 332.6283 181.052509 
L 332.685333 129.985485 
L 332.69674 121.954491 
L 332.719553 178.70094 
L 332.742366 143.594482 
L 332.74807 183.133657 
L 332.759476 137.542112 
L 332.856433 171.599049 
L 332.862136 159.685045 
L 332.930576 183.164453 
L 332.964796 175.499636 
L 332.970499 175.606988 
L 333.033236 183.769895 
L 333.090269 183.671171 
L 333.101676 182.650911 
L 333.198633 183.802414 
L 333.210039 183.644503 
L 333.227149 183.805622 
L 333.306996 183.787718 
L 333.432469 183.815881 
L 333.632086 183.82421 
L 334.721422 183.814284 
L 334.749938 182.5423 
L 334.789862 153.681662 
L 334.824082 118.987371 
L 334.869708 181.457759 
L 334.886818 139.248796 
L 334.989478 182.431997 
L 335.000885 158.737143 
L 335.035105 183.88719 
L 335.126358 182.467408 
L 335.177688 183.899514 
L 335.143468 178.932242 
L 335.246128 183.557063 
L 335.325975 183.903697 
L 335.263238 183.203903 
L 335.360195 183.833024 
L 335.365898 183.810112 
L 335.377305 183.910635 
L 335.451448 183.909102 
L 335.599735 183.921855 
L 335.862088 183.935854 
L 336.135848 183.949041 
L 336.683367 183.975124 
L 336.974237 183.991002 
L 337.059787 183.920635 
L 337.088304 182.999794 
L 337.122524 168.855385 
L 337.173854 122.785415 
L 337.242294 143.914594 
L 337.35636 183.324533 
L 337.367767 165.844593 
L 337.464723 184.014412 
L 337.47613 178.974107 
L 337.573087 183.862919 
L 337.66434 184.027036 
L 337.590197 183.176797 
L 337.692857 184.022721 
L 337.709967 183.918083 
L 337.80122 184.013166 
L 337.960913 184.03805 
L 338.166233 184.049729 
L 338.970403 184.082021 
L 338.998919 183.959747 
L 339.027436 182.353927 
L 339.067359 157.730508 
L 339.107282 123.088156 
L 339.158612 174.045745 
L 339.175722 142.606283 
L 339.266976 183.514924 
L 339.295492 180.549928 
L 339.306899 165.996859 
L 339.346822 184.092691 
L 339.403856 183.798031 
L 339.415262 179.254867 
L 339.512219 183.98289 
L 339.574956 184.12173 
L 339.529329 183.347428 
L 339.631989 184.115911 
L 339.649099 184.03771 
L 339.905749 184.136304 
L 340.881018 184.162666 
L 340.909535 183.80326 
L 340.938051 179.193041 
L 341.006491 123.365349 
L 341.080635 163.579938 
L 341.137668 183.52639 
L 341.097745 145.125096 
L 341.194701 180.229087 
L 341.206108 166.385122 
L 341.246031 184.188985 
L 341.303064 183.991362 
L 341.314471 179.532513 
L 341.388614 184.142452 
L 341.411428 184.021495 
L 341.474164 184.215704 
L 341.428538 183.505261 
L 341.525494 184.118143 
L 341.633858 184.225781 
L 341.639561 184.216056 
L 342.706084 184.113732 
L 342.740304 182.149479 
L 342.791634 150.633825 
L 342.825854 127.39522 
L 342.848667 179.55553 
L 342.877184 156.556437 
L 342.945623 183.841902 
L 342.899997 145.169381 
L 342.985547 168.322429 
L 342.99125 163.611661 
L 343.00836 184.18842 
L 343.082503 178.521773 
L 343.088207 177.011018 
L 343.105317 184.302171 
L 343.168053 183.956397 
L 343.242197 184.310321 
L 343.190867 182.813815 
L 343.28212 184.281164 
L 343.293527 184.070952 
L 343.356263 184.317368 
L 343.390483 184.313206 
L 343.5901 184.324887 
L 343.94941 184.348868 
L 344.194653 184.194543 
L 344.228873 181.676617 
L 344.285906 139.706448 
L 344.308719 126.026916 
L 344.331533 173.388599 
L 344.360049 163.55388 
L 344.394269 184.366279 
L 344.377159 142.981108 
L 344.468413 161.163787 
L 344.514039 184.371694 
L 344.605292 184.358675 
L 344.622402 180.609791 
L 344.702249 184.383071 
L 344.719359 183.604489 
L 344.804909 184.393171 
L 344.844832 184.379625 
L 344.856239 184.312798 
L 344.879052 184.394862 
L 344.953196 184.401071 
L 345.101482 184.407709 
L 345.757365 184.433362 
L 345.797288 184.339783 
L 345.825805 183.252643 
L 345.865728 164.734465 
L 345.911355 124.929726 
L 345.934168 184.307633 
L 345.985498 144.419791 
L 346.053938 184.449106 
L 346.110972 184.3695 
L 346.122378 170.141108 
L 346.219335 180.853115 
L 346.321995 184.473548 
L 346.333401 183.907624 
L 346.339105 183.844574 
L 346.384731 184.463699 
L 346.407545 184.31846 
L 346.521611 184.481863 
L 346.527315 184.480255 
L 346.652788 184.487879 
L 347.456957 184.373053 
L 347.491177 182.330929 
L 347.542507 149.934631 
L 347.576727 127.151095 
L 347.599541 171.078321 
L 347.628057 162.098018 
L 347.725014 184.051908 
L 347.645167 144.634005 
L 347.736421 164.562535 
L 347.742124 163.227172 
L 347.759234 182.082555 
L 347.782047 177.820182 
L 347.884707 184.539708 
L 347.804861 173.166414 
L 347.896114 181.817229 
L 347.901817 181.628979 
L 347.918927 184.495649 
L 347.941741 183.675619 
L 347.964554 183.611189 
L 348.055807 184.561794 
L 348.072917 184.423372 
L 348.16417 184.553736 
L 348.289644 184.576174 
L 348.974043 184.591788 
L 349.008263 184.28782 
L 349.03678 180.908814 
L 349.110923 124.639411 
L 349.15655 149.415101 
L 349.162253 184.554859 
L 349.17366 141.834315 
L 349.270616 168.800911 
L 349.333353 184.611917 
L 349.287726 164.574782 
L 349.384683 180.803508 
L 349.48164 184.630528 
L 349.407496 179.256578 
L 349.49875 183.416964 
L 349.607113 184.648112 
L 349.61852 184.5153 
L 349.624223 184.507178 
L 349.641333 184.645445 
L 349.664146 184.615178 
L 349.778213 184.657888 
L 349.686959 184.604229 
L 349.783916 184.652939 
L 350.696449 184.587858 
L 350.730669 183.020673 
L 350.776295 158.524042 
L 350.816219 126.612872 
L 350.839032 180.907315 
L 350.867549 151.678586 
L 350.935989 184.700526 
L 350.890362 143.856414 
L 350.975912 164.686658 
L 350.981615 162.301333 
L 351.027242 184.716908 
L 351.050055 177.169311 
L 351.089979 184.721698 
L 351.072869 176.123815 
L 351.164122 183.178465 
L 351.169825 182.700073 
L 351.255375 184.736473 
L 351.272485 184.399695 
L 351.363738 184.74481 
L 351.380848 184.694354 
L 351.483508 184.745379 
L 351.631795 184.75601 
L 351.951181 184.77705 
L 352.150798 184.787431 
L 352.333305 184.688825 
L 352.361821 183.097381 
L 352.401745 155.95852 
L 352.435964 121.903382 
L 352.487294 184.682918 
L 352.510108 156.515713 
L 352.589954 182.793361 
L 352.527218 142.663612 
L 352.624174 166.26377 
L 352.629878 163.494179 
L 352.692614 184.75362 
L 352.709724 176.777109 
L 352.823791 184.784188 
L 352.835198 183.623039 
L 352.852308 184.824354 
L 352.932154 184.798233 
L 352.949264 184.652342 
L 353.074737 184.831279 
L 353.228727 184.845955 
L 354.146963 184.895907 
L 354.318063 184.87906 
L 354.34658 184.643378 
L 354.3808 180.751163 
L 354.454943 125.515102 
L 354.53479 164.482545 
L 354.597527 184.885162 
L 354.5519 148.628878 
L 354.65456 184.17634 
L 354.67167 170.645808 
L 354.745813 184.928596 
L 354.762923 180.667206 
L 354.871286 184.933831 
L 354.882693 184.432136 
L 354.888396 184.328986 
L 354.905506 184.935694 
L 354.96254 184.836666 
L 355.076606 184.943783 
L 355.954919 184.897202 
L 355.989139 183.586651 
L 356.029062 165.847341 
L 356.080392 126.891877 
L 356.103206 167.626753 
L 356.131722 165.695506 
L 356.228679 184.203143 
L 356.148832 143.9406 
L 356.234382 169.630159 
L 356.240086 162.829324 
L 356.319932 184.997734 
L 356.337042 176.587348 
L 356.416889 185.018436 
L 356.456812 184.489963 
L 356.468219 183.913318 
L 356.553769 185.027543 
L 356.559472 184.980214 
L 356.570879 184.839082 
L 356.587989 185.032578 
L 356.662132 185.031117 
L 356.890265 185.049606 
L 357.494818 185.03051 
L 357.529038 184.275921 
L 357.563258 174.585927 
L 357.620291 125.600751 
L 357.671621 151.373927 
L 357.677325 185.082689 
L 357.694435 142.920678 
L 357.779985 160.212885 
L 357.854128 185.10508 
L 357.916865 184.59361 
L 357.928271 180.346196 
L 358.008118 185.112159 
L 358.025228 184.161091 
L 358.139294 185.118704 
L 358.144998 185.097229 
L 358.156404 185.024968 
L 358.247658 185.128282 
L 358.253361 185.121086 
L 358.373131 185.129457 
L 359.21152 185.054455 
L 359.240037 183.40402 
L 359.285664 151.398292 
L 359.319884 122.692919 
L 359.336994 167.614353 
L 359.388324 143.908469 
L 359.50239 184.931164 
L 359.513797 165.792238 
L 359.610754 185.14456 
L 359.62216 179.504116 
L 359.719117 185.125812 
L 359.736227 184.290033 
L 359.81037 185.209471 
L 359.82748 185.062065 
L 359.93014 185.221269 
L 359.941547 185.202055 
L 359.958657 185.222249 
L 360.06702 185.224404 
L 360.095537 185.22413 
L 360.095537 185.22413 
" clip-path="url(#padfa564e55)" style="fill: none; stroke: #0000ff; stroke-width: 2; stroke-linecap: square"/>
   </g>
   <g id="patch_3">
    <path d="M 60.676704 193.536948 
L 60.676704 10.8 
" style="fill: none; stroke: #000000; stroke-width: 0.8; stroke-linejoin: miter; stroke-linecap: square"/>
   </g>
   <g id="patch_4">
    <path d="M 374.353576 193.536948 
L 374.353576 10.8 
" style="fill: none; stroke: #000000; stroke-width: 0.8; stroke-linejoin: miter; stroke-linecap: square"/>
   </g>
   <g id="patch_5">
    <path d="M 60.676704 193.536948 
L 374.353576 193.536948 
" style="fill: none; stroke: #000000; stroke-width: 0.8; stroke-linejoin: miter; stroke-linecap: square"/>
   </g>
   <g id="patch_6">
    <path d="M 60.676704 10.8 
L 374.353576 10.8 
" style="fill: none; stroke: #000000; stroke-width: 0.8; stroke-linejoin: miter; stroke-linecap: square"/>
   </g>
  </g>
 </g>
 <defs>
  <clipPath id="padfa564e55">
   <rect x="60.676704" y="10.8" width="313.676872" height="182.736948"/>
  </clipPath>
 </defs>
</svg>
