<?xml version="1.0" encoding="utf-8" standalone="no"?>
<!DOCTYPE svg PUBLIC "-//W3C//DTD SVG 1.1//EN"
  "http://www.w3.org/Graphics/SVG/1.1/DTD/svg11.dtd">
<svg xmlns:xlink="http://www.w3.org/1999/xlink" width="388.542964pt" height="240.132758pt" viewBox="0 0 388.542964 240.132758" xmlns="http://www.w3.org/2000/svg" version="1.1">
 <metadata>
  <rdf:RDF xmlns:dc="http://purl.org/dc/elements/1.1/" xmlns:cc="http://creativecommons.org/ns#" xmlns:rdf="http://www.w3.org/1999/02/22-rdf-syntax-ns#">
   <cc:Work>
    <dc:type rdf:resource="http://purl.org/dc/dcmitype/StillImage"/>
    <dc:date>2024-10-22T15:18:08.219780</dc:date>
    <dc:format>image/svg+xml</dc:format>
    <dc:creator>
     <cc:Agent>
      <dc:title>Matplotlib v3.7.5, https://matplotlib.org/</dc:title>
     </cc:Agent>
    </dc:creator>
   </cc:Work>
  </rdf:RDF>
 </metadata>
 <defs>
  <style type="text/css">*{stroke-linejoin: round; stroke-linecap: butt}</style>
 </defs>
 <g id="figure_1">
  <g id="patch_1">
   <path d="M 0 240.132758 
L 388.542964 240.132758 
L 388.542964 0 
L 0 0 
z
" style="fill: #ffffff"/>
  </g>
  <g id="axes_1">
   <g id="patch_2">
    <path d="M 58.476976 193.536948 
L 377.742964 193.536948 
L 377.742964 10.8 
L 58.476976 10.8 
z
" style="fill: #ffffff"/>
   </g>
   <g id="PathCollection_1">
    <defs>
     <path id="mc3f27ab291" d="M -3 3 
L 3 -3 
M -3 -3 
L 3 3 
" style="stroke: #000000; stroke-width: 1.5"/>
    </defs>
    <g clip-path="url(#p79a735d50e)">
     <use xlink:href="#mc3f27ab291" x="72.989066" y="168.619463" style="stroke: #000000; stroke-width: 1.5"/>
     <use xlink:href="#mc3f27ab291" x="270.841589" y="19.53035" style="stroke: #000000; stroke-width: 1.5"/>
     <use xlink:href="#mc3f27ab291" x="360.616082" y="19.128037" style="stroke: #000000; stroke-width: 1.5"/>
     <use xlink:href="#mc3f27ab291" x="118.021579" y="116.287776" style="stroke: #000000; stroke-width: 1.5"/>
     <use xlink:href="#mc3f27ab291" x="296.117903" y="19.262569" style="stroke: #000000; stroke-width: 1.5"/>
     <use xlink:href="#mc3f27ab291" x="200.242231" y="26.534816" style="stroke: #000000; stroke-width: 1.5"/>
    </g>
   </g>
   <g id="PathCollection_2">
    <defs>
     <path id="m9c5733307f" d="M -1.118034 1.118034 
L 1.118034 -1.118034 
M -1.118034 -1.118034 
L 1.118034 1.118034 
" style="stroke: #008000; stroke-width: 1.5"/>
    </defs>
    <g clip-path="url(#p79a735d50e)">
     <use xlink:href="#m9c5733307f" x="176.963376" y="185.230723" style="fill: #008000; stroke: #008000; stroke-width: 1.5"/>
     <use xlink:href="#m9c5733307f" x="129.24104" y="185.230723" style="fill: #008000; stroke: #008000; stroke-width: 1.5"/>
     <use xlink:href="#m9c5733307f" x="148.023293" y="185.230723" style="fill: #008000; stroke: #008000; stroke-width: 1.5"/>
     <use xlink:href="#m9c5733307f" x="346.761541" y="185.230723" style="fill: #008000; stroke: #008000; stroke-width: 1.5"/>
     <use xlink:href="#m9c5733307f" x="132.509158" y="185.230723" style="fill: #008000; stroke: #008000; stroke-width: 1.5"/>
     <use xlink:href="#m9c5733307f" x="165.508138" y="185.230723" style="fill: #008000; stroke: #008000; stroke-width: 1.5"/>
     <use xlink:href="#m9c5733307f" x="244.230453" y="185.230723" style="fill: #008000; stroke: #008000; stroke-width: 1.5"/>
     <use xlink:href="#m9c5733307f" x="104.926245" y="185.230723" style="fill: #008000; stroke: #008000; stroke-width: 1.5"/>
     <use xlink:href="#m9c5733307f" x="287.960609" y="185.230723" style="fill: #008000; stroke: #008000; stroke-width: 1.5"/>
     <use xlink:href="#m9c5733307f" x="80.138562" y="185.230723" style="fill: #008000; stroke: #008000; stroke-width: 1.5"/>
     <use xlink:href="#m9c5733307f" x="169.822688" y="185.230723" style="fill: #008000; stroke: #008000; stroke-width: 1.5"/>
     <use xlink:href="#m9c5733307f" x="185.861479" y="185.230723" style="fill: #008000; stroke: #008000; stroke-width: 1.5"/>
     <use xlink:href="#m9c5733307f" x="118.688438" y="185.230723" style="fill: #008000; stroke: #008000; stroke-width: 1.5"/>
     <use xlink:href="#m9c5733307f" x="210.300152" y="185.230723" style="fill: #008000; stroke: #008000; stroke-width: 1.5"/>
     <use xlink:href="#m9c5733307f" x="339.612705" y="185.230723" style="fill: #008000; stroke: #008000; stroke-width: 1.5"/>
     <use xlink:href="#m9c5733307f" x="208.200716" y="185.230723" style="fill: #008000; stroke: #008000; stroke-width: 1.5"/>
     <use xlink:href="#m9c5733307f" x="244.27236" y="185.230723" style="fill: #008000; stroke: #008000; stroke-width: 1.5"/>
     <use xlink:href="#m9c5733307f" x="109.313431" y="185.230723" style="fill: #008000; stroke: #008000; stroke-width: 1.5"/>
     <use xlink:href="#m9c5733307f" x="192.14653" y="185.230723" style="fill: #008000; stroke: #008000; stroke-width: 1.5"/>
     <use xlink:href="#m9c5733307f" x="235.594046" y="185.230723" style="fill: #008000; stroke: #008000; stroke-width: 1.5"/>
     <use xlink:href="#m9c5733307f" x="268.335945" y="185.230723" style="fill: #008000; stroke: #008000; stroke-width: 1.5"/>
     <use xlink:href="#m9c5733307f" x="325.754818" y="185.230723" style="fill: #008000; stroke: #008000; stroke-width: 1.5"/>
     <use xlink:href="#m9c5733307f" x="161.920759" y="185.230723" style="fill: #008000; stroke: #008000; stroke-width: 1.5"/>
     <use xlink:href="#m9c5733307f" x="262.690803" y="185.230723" style="fill: #008000; stroke: #008000; stroke-width: 1.5"/>
     <use xlink:href="#m9c5733307f" x="142.188551" y="185.230723" style="fill: #008000; stroke: #008000; stroke-width: 1.5"/>
     <use xlink:href="#m9c5733307f" x="240.27473" y="185.230723" style="fill: #008000; stroke: #008000; stroke-width: 1.5"/>
     <use xlink:href="#m9c5733307f" x="191.897173" y="185.230723" style="fill: #008000; stroke: #008000; stroke-width: 1.5"/>
     <use xlink:href="#m9c5733307f" x="152.238833" y="185.230723" style="fill: #008000; stroke: #008000; stroke-width: 1.5"/>
     <use xlink:href="#m9c5733307f" x="334.844794" y="185.230723" style="fill: #008000; stroke: #008000; stroke-width: 1.5"/>
     <use xlink:href="#m9c5733307f" x="196.939118" y="185.230723" style="fill: #008000; stroke: #008000; stroke-width: 1.5"/>
     <use xlink:href="#m9c5733307f" x="212.598275" y="185.230723" style="fill: #008000; stroke: #008000; stroke-width: 1.5"/>
     <use xlink:href="#m9c5733307f" x="221.580998" y="185.230723" style="fill: #008000; stroke: #008000; stroke-width: 1.5"/>
     <use xlink:href="#m9c5733307f" x="266.046576" y="185.230723" style="fill: #008000; stroke: #008000; stroke-width: 1.5"/>
     <use xlink:href="#m9c5733307f" x="126.314614" y="185.230723" style="fill: #008000; stroke: #008000; stroke-width: 1.5"/>
     <use xlink:href="#m9c5733307f" x="167.033799" y="185.230723" style="fill: #008000; stroke: #008000; stroke-width: 1.5"/>
     <use xlink:href="#m9c5733307f" x="120.518074" y="185.230723" style="fill: #008000; stroke: #008000; stroke-width: 1.5"/>
     <use xlink:href="#m9c5733307f" x="360.038076" y="185.230723" style="fill: #008000; stroke: #008000; stroke-width: 1.5"/>
     <use xlink:href="#m9c5733307f" x="101.349137" y="185.230723" style="fill: #008000; stroke: #008000; stroke-width: 1.5"/>
     <use xlink:href="#m9c5733307f" x="314.647108" y="185.230723" style="fill: #008000; stroke: #008000; stroke-width: 1.5"/>
     <use xlink:href="#m9c5733307f" x="247.480851" y="185.230723" style="fill: #008000; stroke: #008000; stroke-width: 1.5"/>
     <use xlink:href="#m9c5733307f" x="305.702405" y="185.230723" style="fill: #008000; stroke: #008000; stroke-width: 1.5"/>
     <use xlink:href="#m9c5733307f" x="229.672973" y="185.230723" style="fill: #008000; stroke: #008000; stroke-width: 1.5"/>
     <use xlink:href="#m9c5733307f" x="156.316849" y="185.230723" style="fill: #008000; stroke: #008000; stroke-width: 1.5"/>
     <use xlink:href="#m9c5733307f" x="320.604373" y="185.230723" style="fill: #008000; stroke: #008000; stroke-width: 1.5"/>
     <use xlink:href="#m9c5733307f" x="271.79465" y="185.230723" style="fill: #008000; stroke: #008000; stroke-width: 1.5"/>
     <use xlink:href="#m9c5733307f" x="216.971339" y="185.230723" style="fill: #008000; stroke: #008000; stroke-width: 1.5"/>
     <use xlink:href="#m9c5733307f" x="75.965246" y="185.230723" style="fill: #008000; stroke: #008000; stroke-width: 1.5"/>
     <use xlink:href="#m9c5733307f" x="218.19318" y="185.230723" style="fill: #008000; stroke: #008000; stroke-width: 1.5"/>
     <use xlink:href="#m9c5733307f" x="122.47825" y="185.230723" style="fill: #008000; stroke: #008000; stroke-width: 1.5"/>
     <use xlink:href="#m9c5733307f" x="287.19329" y="185.230723" style="fill: #008000; stroke: #008000; stroke-width: 1.5"/>
     <use xlink:href="#m9c5733307f" x="98.826801" y="185.230723" style="fill: #008000; stroke: #008000; stroke-width: 1.5"/>
     <use xlink:href="#m9c5733307f" x="279.152572" y="185.230723" style="fill: #008000; stroke: #008000; stroke-width: 1.5"/>
     <use xlink:href="#m9c5733307f" x="82.238104" y="185.230723" style="fill: #008000; stroke: #008000; stroke-width: 1.5"/>
     <use xlink:href="#m9c5733307f" x="250.308574" y="185.230723" style="fill: #008000; stroke: #008000; stroke-width: 1.5"/>
     <use xlink:href="#m9c5733307f" x="309.061277" y="185.230723" style="fill: #008000; stroke: #008000; stroke-width: 1.5"/>
     <use xlink:href="#m9c5733307f" x="341.136642" y="185.230723" style="fill: #008000; stroke: #008000; stroke-width: 1.5"/>
     <use xlink:href="#m9c5733307f" x="115.328431" y="185.230723" style="fill: #008000; stroke: #008000; stroke-width: 1.5"/>
     <use xlink:href="#m9c5733307f" x="274.843131" y="185.230723" style="fill: #008000; stroke: #008000; stroke-width: 1.5"/>
     <use xlink:href="#m9c5733307f" x="89.596297" y="185.230723" style="fill: #008000; stroke: #008000; stroke-width: 1.5"/>
     <use xlink:href="#m9c5733307f" x="277.30342" y="185.230723" style="fill: #008000; stroke: #008000; stroke-width: 1.5"/>
     <use xlink:href="#m9c5733307f" x="201.538992" y="185.230723" style="fill: #008000; stroke: #008000; stroke-width: 1.5"/>
     <use xlink:href="#m9c5733307f" x="172.108845" y="185.230723" style="fill: #008000; stroke: #008000; stroke-width: 1.5"/>
     <use xlink:href="#m9c5733307f" x="328.865623" y="185.230723" style="fill: #008000; stroke: #008000; stroke-width: 1.5"/>
     <use xlink:href="#m9c5733307f" x="74.73515" y="185.230723" style="fill: #008000; stroke: #008000; stroke-width: 1.5"/>
     <use xlink:href="#m9c5733307f" x="313.551578" y="185.230723" style="fill: #008000; stroke: #008000; stroke-width: 1.5"/>
     <use xlink:href="#m9c5733307f" x="231.518454" y="185.230723" style="fill: #008000; stroke: #008000; stroke-width: 1.5"/>
     <use xlink:href="#m9c5733307f" x="291.935536" y="185.230723" style="fill: #008000; stroke: #008000; stroke-width: 1.5"/>
     <use xlink:href="#m9c5733307f" x="351.8711" y="185.230723" style="fill: #008000; stroke: #008000; stroke-width: 1.5"/>
     <use xlink:href="#m9c5733307f" x="362.914183" y="185.230723" style="fill: #008000; stroke: #008000; stroke-width: 1.5"/>
     <use xlink:href="#m9c5733307f" x="357.270686" y="185.230723" style="fill: #008000; stroke: #008000; stroke-width: 1.5"/>
     <use xlink:href="#m9c5733307f" x="139.218079" y="185.230723" style="fill: #008000; stroke: #008000; stroke-width: 1.5"/>
     <use xlink:href="#m9c5733307f" x="177.538303" y="185.230723" style="fill: #008000; stroke: #008000; stroke-width: 1.5"/>
     <use xlink:href="#m9c5733307f" x="199.967563" y="185.230723" style="fill: #008000; stroke: #008000; stroke-width: 1.5"/>
     <use xlink:href="#m9c5733307f" x="282.897494" y="185.230723" style="fill: #008000; stroke: #008000; stroke-width: 1.5"/>
     <use xlink:href="#m9c5733307f" x="203.901812" y="185.230723" style="fill: #008000; stroke: #008000; stroke-width: 1.5"/>
     <use xlink:href="#m9c5733307f" x="233.559203" y="185.230723" style="fill: #008000; stroke: #008000; stroke-width: 1.5"/>
     <use xlink:href="#m9c5733307f" x="332.500529" y="185.230723" style="fill: #008000; stroke: #008000; stroke-width: 1.5"/>
     <use xlink:href="#m9c5733307f" x="304.815182" y="185.230723" style="fill: #008000; stroke: #008000; stroke-width: 1.5"/>
     <use xlink:href="#m9c5733307f" x="158.231485" y="185.230723" style="fill: #008000; stroke: #008000; stroke-width: 1.5"/>
     <use xlink:href="#m9c5733307f" x="319.140387" y="185.230723" style="fill: #008000; stroke: #008000; stroke-width: 1.5"/>
     <use xlink:href="#m9c5733307f" x="145.013291" y="185.230723" style="fill: #008000; stroke: #008000; stroke-width: 1.5"/>
     <use xlink:href="#m9c5733307f" x="257.503265" y="185.230723" style="fill: #008000; stroke: #008000; stroke-width: 1.5"/>
     <use xlink:href="#m9c5733307f" x="104.664439" y="185.230723" style="fill: #008000; stroke: #008000; stroke-width: 1.5"/>
     <use xlink:href="#m9c5733307f" x="294.053173" y="185.230723" style="fill: #008000; stroke: #008000; stroke-width: 1.5"/>
     <use xlink:href="#m9c5733307f" x="253.938666" y="185.230723" style="fill: #008000; stroke: #008000; stroke-width: 1.5"/>
     <use xlink:href="#m9c5733307f" x="322.708173" y="185.230723" style="fill: #008000; stroke: #008000; stroke-width: 1.5"/>
     <use xlink:href="#m9c5733307f" x="351.259236" y="185.230723" style="fill: #008000; stroke: #008000; stroke-width: 1.5"/>
     <use xlink:href="#m9c5733307f" x="181.865745" y="185.230723" style="fill: #008000; stroke: #008000; stroke-width: 1.5"/>
     <use xlink:href="#m9c5733307f" x="301.27616" y="185.230723" style="fill: #008000; stroke: #008000; stroke-width: 1.5"/>
     <use xlink:href="#m9c5733307f" x="134.845721" y="185.230723" style="fill: #008000; stroke: #008000; stroke-width: 1.5"/>
     <use xlink:href="#m9c5733307f" x="92.563649" y="185.230723" style="fill: #008000; stroke: #008000; stroke-width: 1.5"/>
     <use xlink:href="#m9c5733307f" x="86.828863" y="185.230723" style="fill: #008000; stroke: #008000; stroke-width: 1.5"/>
     <use xlink:href="#m9c5733307f" x="151.060614" y="185.230723" style="fill: #008000; stroke: #008000; stroke-width: 1.5"/>
     <use xlink:href="#m9c5733307f" x="344.142973" y="185.230723" style="fill: #008000; stroke: #008000; stroke-width: 1.5"/>
     <use xlink:href="#m9c5733307f" x="261.503112" y="185.230723" style="fill: #008000; stroke: #008000; stroke-width: 1.5"/>
     <use xlink:href="#m9c5733307f" x="297.54904" y="185.230723" style="fill: #008000; stroke: #008000; stroke-width: 1.5"/>
     <use xlink:href="#m9c5733307f" x="95.213997" y="185.230723" style="fill: #008000; stroke: #008000; stroke-width: 1.5"/>
     <use xlink:href="#m9c5733307f" x="188.046851" y="185.230723" style="fill: #008000; stroke: #008000; stroke-width: 1.5"/>
     <use xlink:href="#m9c5733307f" x="224.694089" y="185.230723" style="fill: #008000; stroke: #008000; stroke-width: 1.5"/>
     <use xlink:href="#m9c5733307f" x="113.281241" y="185.230723" style="fill: #008000; stroke: #008000; stroke-width: 1.5"/>
     <use xlink:href="#m9c5733307f" x="72.989066" y="185.230723" style="fill: #008000; stroke: #008000; stroke-width: 1.5"/>
     <use xlink:href="#m9c5733307f" x="270.841588" y="185.230723" style="fill: #008000; stroke: #008000; stroke-width: 1.5"/>
     <use xlink:href="#m9c5733307f" x="360.616085" y="185.230723" style="fill: #008000; stroke: #008000; stroke-width: 1.5"/>
     <use xlink:href="#m9c5733307f" x="118.021579" y="185.230723" style="fill: #008000; stroke: #008000; stroke-width: 1.5"/>
     <use xlink:href="#m9c5733307f" x="296.117905" y="185.230723" style="fill: #008000; stroke: #008000; stroke-width: 1.5"/>
     <use xlink:href="#m9c5733307f" x="200.242229" y="185.230723" style="fill: #008000; stroke: #008000; stroke-width: 1.5"/>
    </g>
   </g>
   <g id="matplotlib.axis_1">
    <g id="xtick_1">
     <g id="line2d_1">
      <defs>
       <path id="m6d0be3b688" d="M 0 0 
L 0 3.5 
" style="stroke: #000000; stroke-width: 0.8"/>
      </defs>
      <g>
       <use xlink:href="#m6d0be3b688" x="72.989066" y="193.536948" style="stroke: #000000; stroke-width: 0.8"/>
      </g>
     </g>
     <g id="text_1">
      <!-- $\mathdefault{0.0}$ -->
      <g transform="translate(64.263775 210.222825) scale(0.14 -0.14)">
       <defs>
        <path id="CMR17-30" d="M 2688 2025 
C 2688 2416 2682 3080 2413 3591 
C 2176 4039 1798 4198 1466 4198 
C 1158 4198 768 4058 525 3597 
C 269 3118 243 2524 243 2025 
C 243 1661 250 1106 448 619 
C 723 -39 1216 -128 1466 -128 
C 1760 -128 2208 -7 2470 600 
C 2662 1042 2688 1559 2688 2025 
z
M 1466 -26 
C 1056 -26 813 325 723 812 
C 653 1188 653 1738 653 2096 
C 653 2588 653 2997 736 3387 
C 858 3929 1216 4096 1466 4096 
C 1728 4096 2067 3923 2189 3400 
C 2272 3036 2278 2607 2278 2096 
C 2278 1680 2278 1169 2202 792 
C 2067 95 1690 -26 1466 -26 
z
" transform="scale(0.015625)"/>
        <path id="CMMI12-3a" d="M 1178 307 
C 1178 492 1024 619 870 619 
C 685 619 557 466 557 313 
C 557 128 710 0 864 0 
C 1050 0 1178 153 1178 307 
z
" transform="scale(0.015625)"/>
       </defs>
       <use xlink:href="#CMR17-30" transform="scale(0.996264)"/>
       <use xlink:href="#CMMI12-3a" transform="translate(45.690477 0) scale(0.996264)"/>
       <use xlink:href="#CMR17-30" transform="translate(72.787654 0) scale(0.996264)"/>
      </g>
     </g>
    </g>
    <g id="xtick_2">
     <g id="line2d_2">
      <g>
       <use xlink:href="#m6d0be3b688" x="131.095534" y="193.536948" style="stroke: #000000; stroke-width: 0.8"/>
      </g>
     </g>
     <g id="text_2">
      <!-- $\mathdefault{0.2}$ -->
      <g transform="translate(122.370243 210.222825) scale(0.14 -0.14)">
       <defs>
        <path id="CMR17-32" d="M 2669 989 
L 2554 989 
C 2490 536 2438 459 2413 420 
C 2381 369 1920 369 1830 369 
L 602 369 
C 832 619 1280 1072 1824 1597 
C 2214 1967 2669 2402 2669 3035 
C 2669 3790 2067 4224 1395 4224 
C 691 4224 262 3604 262 3030 
C 262 2780 448 2748 525 2748 
C 589 2748 781 2787 781 3010 
C 781 3207 614 3264 525 3264 
C 486 3264 448 3258 422 3245 
C 544 3790 915 4058 1306 4058 
C 1862 4058 2227 3617 2227 3035 
C 2227 2479 1901 2000 1536 1584 
L 262 146 
L 262 0 
L 2515 0 
L 2669 989 
z
" transform="scale(0.015625)"/>
       </defs>
       <use xlink:href="#CMR17-30" transform="scale(0.996264)"/>
       <use xlink:href="#CMMI12-3a" transform="translate(45.690477 0) scale(0.996264)"/>
       <use xlink:href="#CMR17-32" transform="translate(72.787654 0) scale(0.996264)"/>
      </g>
     </g>
    </g>
    <g id="xtick_3">
     <g id="line2d_3">
      <g>
       <use xlink:href="#m6d0be3b688" x="189.202002" y="193.536948" style="stroke: #000000; stroke-width: 0.8"/>
      </g>
     </g>
     <g id="text_3">
      <!-- $\mathdefault{0.4}$ -->
      <g transform="translate(180.476711 210.222825) scale(0.14 -0.14)">
       <defs>
        <path id="CMR17-34" d="M 2150 4122 
C 2150 4256 2144 4256 2029 4256 
L 128 1254 
L 128 1088 
L 1779 1088 
L 1779 457 
C 1779 224 1766 160 1318 160 
L 1197 160 
L 1197 0 
C 1402 0 1747 0 1965 0 
C 2182 0 2528 0 2733 0 
L 2733 160 
L 2611 160 
C 2163 160 2150 224 2150 457 
L 2150 1088 
L 2803 1088 
L 2803 1254 
L 2150 1254 
L 2150 4122 
z
M 1798 3703 
L 1798 1254 
L 256 1254 
L 1798 3703 
z
" transform="scale(0.015625)"/>
       </defs>
       <use xlink:href="#CMR17-30" transform="scale(0.996264)"/>
       <use xlink:href="#CMMI12-3a" transform="translate(45.690477 0) scale(0.996264)"/>
       <use xlink:href="#CMR17-34" transform="translate(72.787654 0) scale(0.996264)"/>
      </g>
     </g>
    </g>
    <g id="xtick_4">
     <g id="line2d_4">
      <g>
       <use xlink:href="#m6d0be3b688" x="247.30847" y="193.536948" style="stroke: #000000; stroke-width: 0.8"/>
      </g>
     </g>
     <g id="text_4">
      <!-- $\mathdefault{0.6}$ -->
      <g transform="translate(238.583179 210.222825) scale(0.14 -0.14)">
       <defs>
        <path id="CMR17-36" d="M 678 2176 
C 678 3690 1395 4032 1811 4032 
C 1946 4032 2272 4009 2400 3776 
C 2298 3776 2106 3776 2106 3553 
C 2106 3381 2246 3323 2336 3323 
C 2394 3323 2566 3348 2566 3560 
C 2566 3954 2246 4179 1805 4179 
C 1043 4179 243 3390 243 1984 
C 243 253 966 -128 1478 -128 
C 2099 -128 2688 427 2688 1283 
C 2688 2081 2170 2662 1517 2662 
C 1126 2662 838 2407 678 1960 
L 678 2176 
z
M 1478 25 
C 691 25 691 1200 691 1436 
C 691 1896 909 2560 1504 2560 
C 1613 2560 1926 2560 2138 2120 
C 2253 1870 2253 1609 2253 1289 
C 2253 944 2253 690 2118 434 
C 1978 171 1773 25 1478 25 
z
" transform="scale(0.015625)"/>
       </defs>
       <use xlink:href="#CMR17-30" transform="scale(0.996264)"/>
       <use xlink:href="#CMMI12-3a" transform="translate(45.690477 0) scale(0.996264)"/>
       <use xlink:href="#CMR17-36" transform="translate(72.787654 0) scale(0.996264)"/>
      </g>
     </g>
    </g>
    <g id="xtick_5">
     <g id="line2d_5">
      <g>
       <use xlink:href="#m6d0be3b688" x="305.414938" y="193.536948" style="stroke: #000000; stroke-width: 0.8"/>
      </g>
     </g>
     <g id="text_5">
      <!-- $\mathdefault{0.8}$ -->
      <g transform="translate(296.689647 210.222825) scale(0.14 -0.14)">
       <defs>
        <path id="CMR17-38" d="M 1741 2264 
C 2144 2467 2554 2773 2554 3263 
C 2554 3841 1990 4179 1472 4179 
C 890 4179 378 3759 378 3180 
C 378 3021 416 2747 666 2505 
C 730 2442 998 2251 1171 2130 
C 883 1983 211 1634 211 934 
C 211 279 838 -128 1459 -128 
C 2144 -128 2720 362 2720 1010 
C 2720 1590 2330 1857 2074 2029 
L 1741 2264 
z
M 902 2822 
C 851 2854 595 3051 595 3351 
C 595 3739 998 4032 1459 4032 
C 1965 4032 2336 3676 2336 3262 
C 2336 2669 1670 2331 1638 2331 
C 1632 2331 1626 2331 1574 2370 
L 902 2822 
z
M 2080 1519 
C 2176 1449 2483 1240 2483 851 
C 2483 381 2010 25 1472 25 
C 890 25 448 438 448 940 
C 448 1443 838 1862 1280 2060 
L 2080 1519 
z
" transform="scale(0.015625)"/>
       </defs>
       <use xlink:href="#CMR17-30" transform="scale(0.996264)"/>
       <use xlink:href="#CMMI12-3a" transform="translate(45.690477 0) scale(0.996264)"/>
       <use xlink:href="#CMR17-38" transform="translate(72.787654 0) scale(0.996264)"/>
      </g>
     </g>
    </g>
    <g id="xtick_6">
     <g id="line2d_6">
      <g>
       <use xlink:href="#m6d0be3b688" x="363.521406" y="193.536948" style="stroke: #000000; stroke-width: 0.8"/>
      </g>
     </g>
     <g id="text_6">
      <!-- $\mathdefault{1.0}$ -->
      <g transform="translate(354.796115 210.222825) scale(0.14 -0.14)">
       <defs>
        <path id="CMR17-31" d="M 1702 4058 
C 1702 4192 1696 4192 1606 4192 
C 1357 3916 979 3827 621 3827 
C 602 3827 570 3827 563 3808 
C 557 3795 557 3782 557 3648 
C 755 3648 1088 3686 1344 3839 
L 1344 461 
C 1344 236 1331 160 781 160 
L 589 160 
L 589 0 
C 896 0 1216 0 1523 0 
C 1830 0 2150 0 2458 0 
L 2458 160 
L 2266 160 
C 1715 160 1702 230 1702 458 
L 1702 4058 
z
" transform="scale(0.015625)"/>
       </defs>
       <use xlink:href="#CMR17-31" transform="scale(0.996264)"/>
       <use xlink:href="#CMMI12-3a" transform="translate(45.690477 0) scale(0.996264)"/>
       <use xlink:href="#CMR17-30" transform="translate(72.787654 0) scale(0.996264)"/>
      </g>
     </g>
    </g>
    <g id="text_7">
     <!-- t -->
     <g transform="translate(215.454446 226.620729) scale(0.14 -0.14)">
      <defs>
       <path id="CMR17-74" d="M 966 2560 
L 1862 2560 
L 1862 2725 
L 966 2725 
L 966 3904 
L 851 3904 
C 838 3245 614 2668 70 2668 
L 70 2560 
L 627 2560 
L 627 771 
C 627 650 627 -64 1370 -64 
C 1747 -64 1965 306 1965 777 
L 1965 1140 
L 1850 1140 
L 1850 783 
C 1850 344 1677 51 1408 51 
C 1222 51 966 178 966 758 
L 966 2560 
z
" transform="scale(0.015625)"/>
      </defs>
      <use xlink:href="#CMR17-74" transform="scale(0.996264)"/>
     </g>
    </g>
   </g>
   <g id="matplotlib.axis_2">
    <g id="ytick_1">
     <g id="line2d_7">
      <defs>
       <path id="m1f98921ce6" d="M 0 0 
L -3.5 0 
" style="stroke: #000000; stroke-width: 0.8"/>
      </defs>
      <g>
       <use xlink:href="#m1f98921ce6" x="58.476976" y="185.230723" style="stroke: #000000; stroke-width: 0.8"/>
      </g>
     </g>
     <g id="text_8">
      <!-- $\mathdefault{0.00}$ -->
      <g transform="translate(27.197905 190.073661) scale(0.14 -0.14)">
       <use xlink:href="#CMR17-30" transform="scale(0.996264)"/>
       <use xlink:href="#CMMI12-3a" transform="translate(45.690477 0) scale(0.996264)"/>
       <use xlink:href="#CMR17-30" transform="translate(72.787654 0) scale(0.996264)"/>
       <use xlink:href="#CMR17-30" transform="translate(118.478131 0) scale(0.996264)"/>
      </g>
     </g>
    </g>
    <g id="ytick_2">
     <g id="line2d_8">
      <g>
       <use xlink:href="#m1f98921ce6" x="58.476976" y="164.466649" style="stroke: #000000; stroke-width: 0.8"/>
      </g>
     </g>
     <g id="text_9">
      <!-- $\mathdefault{0.25}$ -->
      <g transform="translate(27.197905 169.309587) scale(0.14 -0.14)">
       <defs>
        <path id="CMR17-35" d="M 730 3692 
C 794 3666 1056 3584 1325 3584 
C 1920 3584 2246 3911 2432 4100 
C 2432 4157 2432 4192 2394 4192 
C 2387 4192 2374 4192 2323 4163 
C 2099 4058 1837 3973 1517 3973 
C 1325 3973 1037 3999 723 4139 
C 653 4171 640 4171 634 4171 
C 602 4171 595 4164 595 4037 
L 595 2203 
C 595 2089 595 2057 659 2057 
C 691 2057 704 2070 736 2114 
C 941 2401 1222 2522 1542 2522 
C 1766 2522 2246 2382 2246 1289 
C 2246 1085 2246 715 2054 421 
C 1894 159 1645 25 1370 25 
C 947 25 518 320 403 814 
C 429 807 480 795 506 795 
C 589 795 749 840 749 1038 
C 749 1210 627 1280 506 1280 
C 358 1280 262 1190 262 1011 
C 262 454 704 -128 1382 -128 
C 2042 -128 2669 440 2669 1264 
C 2669 2030 2170 2624 1549 2624 
C 1222 2624 947 2503 730 2274 
L 730 3692 
z
" transform="scale(0.015625)"/>
       </defs>
       <use xlink:href="#CMR17-30" transform="scale(0.996264)"/>
       <use xlink:href="#CMMI12-3a" transform="translate(45.690477 0) scale(0.996264)"/>
       <use xlink:href="#CMR17-32" transform="translate(72.787654 0) scale(0.996264)"/>
       <use xlink:href="#CMR17-35" transform="translate(118.478131 0) scale(0.996264)"/>
      </g>
     </g>
    </g>
    <g id="ytick_3">
     <g id="line2d_9">
      <g>
       <use xlink:href="#m1f98921ce6" x="58.476976" y="143.702574" style="stroke: #000000; stroke-width: 0.8"/>
      </g>
     </g>
     <g id="text_10">
      <!-- $\mathdefault{0.50}$ -->
      <g transform="translate(27.197905 148.545512) scale(0.14 -0.14)">
       <use xlink:href="#CMR17-30" transform="scale(0.996264)"/>
       <use xlink:href="#CMMI12-3a" transform="translate(45.690477 0) scale(0.996264)"/>
       <use xlink:href="#CMR17-35" transform="translate(72.787654 0) scale(0.996264)"/>
       <use xlink:href="#CMR17-30" transform="translate(118.478131 0) scale(0.996264)"/>
      </g>
     </g>
    </g>
    <g id="ytick_4">
     <g id="line2d_10">
      <g>
       <use xlink:href="#m1f98921ce6" x="58.476976" y="122.938499" style="stroke: #000000; stroke-width: 0.8"/>
      </g>
     </g>
     <g id="text_11">
      <!-- $\mathdefault{0.75}$ -->
      <g transform="translate(27.197905 127.781437) scale(0.14 -0.14)">
       <defs>
        <path id="CMR17-37" d="M 2886 3941 
L 2886 4081 
L 1382 4081 
C 634 4081 621 4165 595 4288 
L 480 4288 
L 294 3094 
L 410 3094 
C 429 3215 474 3540 550 3661 
C 589 3712 1062 3712 1171 3712 
L 2579 3712 
L 1869 2661 
C 1395 1954 1069 999 1069 165 
C 1069 89 1069 -128 1299 -128 
C 1530 -128 1530 89 1530 171 
L 1530 465 
C 1530 1508 1709 2196 2003 2636 
L 2886 3941 
z
" transform="scale(0.015625)"/>
       </defs>
       <use xlink:href="#CMR17-30" transform="scale(0.996264)"/>
       <use xlink:href="#CMMI12-3a" transform="translate(45.690477 0) scale(0.996264)"/>
       <use xlink:href="#CMR17-37" transform="translate(72.787654 0) scale(0.996264)"/>
       <use xlink:href="#CMR17-35" transform="translate(118.478131 0) scale(0.996264)"/>
      </g>
     </g>
    </g>
    <g id="ytick_5">
     <g id="line2d_11">
      <g>
       <use xlink:href="#m1f98921ce6" x="58.476976" y="102.174425" style="stroke: #000000; stroke-width: 0.8"/>
      </g>
     </g>
     <g id="text_12">
      <!-- $\mathdefault{1.00}$ -->
      <g transform="translate(27.197905 107.017363) scale(0.14 -0.14)">
       <use xlink:href="#CMR17-31" transform="scale(0.996264)"/>
       <use xlink:href="#CMMI12-3a" transform="translate(45.690477 0) scale(0.996264)"/>
       <use xlink:href="#CMR17-30" transform="translate(72.787654 0) scale(0.996264)"/>
       <use xlink:href="#CMR17-30" transform="translate(118.478131 0) scale(0.996264)"/>
      </g>
     </g>
    </g>
    <g id="ytick_6">
     <g id="line2d_12">
      <g>
       <use xlink:href="#m1f98921ce6" x="58.476976" y="81.41035" style="stroke: #000000; stroke-width: 0.8"/>
      </g>
     </g>
     <g id="text_13">
      <!-- $\mathdefault{1.25}$ -->
      <g transform="translate(27.197905 86.253288) scale(0.14 -0.14)">
       <use xlink:href="#CMR17-31" transform="scale(0.996264)"/>
       <use xlink:href="#CMMI12-3a" transform="translate(45.690477 0) scale(0.996264)"/>
       <use xlink:href="#CMR17-32" transform="translate(72.787654 0) scale(0.996264)"/>
       <use xlink:href="#CMR17-35" transform="translate(118.478131 0) scale(0.996264)"/>
      </g>
     </g>
    </g>
    <g id="ytick_7">
     <g id="line2d_13">
      <g>
       <use xlink:href="#m1f98921ce6" x="58.476976" y="60.646275" style="stroke: #000000; stroke-width: 0.8"/>
      </g>
     </g>
     <g id="text_14">
      <!-- $\mathdefault{1.50}$ -->
      <g transform="translate(27.197905 65.489214) scale(0.14 -0.14)">
       <use xlink:href="#CMR17-31" transform="scale(0.996264)"/>
       <use xlink:href="#CMMI12-3a" transform="translate(45.690477 0) scale(0.996264)"/>
       <use xlink:href="#CMR17-35" transform="translate(72.787654 0) scale(0.996264)"/>
       <use xlink:href="#CMR17-30" transform="translate(118.478131 0) scale(0.996264)"/>
      </g>
     </g>
    </g>
    <g id="ytick_8">
     <g id="line2d_14">
      <g>
       <use xlink:href="#m1f98921ce6" x="58.476976" y="39.882201" style="stroke: #000000; stroke-width: 0.8"/>
      </g>
     </g>
     <g id="text_15">
      <!-- $\mathdefault{1.75}$ -->
      <g transform="translate(27.197905 44.725139) scale(0.14 -0.14)">
       <use xlink:href="#CMR17-31" transform="scale(0.996264)"/>
       <use xlink:href="#CMMI12-3a" transform="translate(45.690477 0) scale(0.996264)"/>
       <use xlink:href="#CMR17-37" transform="translate(72.787654 0) scale(0.996264)"/>
       <use xlink:href="#CMR17-35" transform="translate(118.478131 0) scale(0.996264)"/>
      </g>
     </g>
    </g>
    <g id="ytick_9">
     <g id="line2d_15">
      <g>
       <use xlink:href="#m1f98921ce6" x="58.476976" y="19.118126" style="stroke: #000000; stroke-width: 0.8"/>
      </g>
     </g>
     <g id="text_16">
      <!-- $\mathdefault{2.00}$ -->
      <g transform="translate(27.197905 23.961064) scale(0.14 -0.14)">
       <use xlink:href="#CMR17-32" transform="scale(0.996264)"/>
       <use xlink:href="#CMMI12-3a" transform="translate(45.690477 0) scale(0.996264)"/>
       <use xlink:href="#CMR17-30" transform="translate(72.787654 0) scale(0.996264)"/>
       <use xlink:href="#CMR17-30" transform="translate(118.478131 0) scale(0.996264)"/>
      </g>
     </g>
    </g>
    <g id="text_17">
     <!-- P -->
     <g transform="translate(20.485876 106.814435) rotate(-90) scale(0.14 -0.14)">
      <defs>
       <path id="CMR17-50" d="M 1267 2042 
L 2291 2042 
C 3117 2042 3718 2578 3718 3184 
C 3718 3791 3130 4352 2291 4352 
L 333 4352 
L 333 4186 
C 774 4186 845 4186 845 3899 
L 845 446 
C 845 160 774 160 333 160 
L 333 0 
C 518 0 858 0 1056 0 
C 1254 0 1594 0 1779 0 
L 1779 160 
C 1338 160 1267 160 1267 446 
L 1267 2042 
z
M 1254 2176 
L 1254 3938 
C 1254 4155 1267 4186 1523 4186 
L 2170 4186 
C 2995 4186 3232 3714 3232 3184 
C 3232 2604 2950 2176 2170 2176 
L 1254 2176 
z
" transform="scale(0.015625)"/>
      </defs>
      <use xlink:href="#CMR17-50" transform="scale(0.996264)"/>
     </g>
    </g>
   </g>
   <g id="line2d_16">
    <path d="M 72.989066 168.692754 
L 76.475454 166.420713 
L 79.961842 163.884433 
L 83.44823 161.062453 
L 86.934618 157.936296 
L 90.421006 154.491439 
L 93.907394 150.718322 
L 97.393782 146.613346 
L 100.880171 142.179822 
L 104.657091 137.019121 
L 108.724544 131.073976 
L 113.082529 124.310977 
L 118.312111 115.767264 
L 125.865952 102.9356 
L 136.034584 85.709806 
L 141.264166 77.299797 
L 145.622151 70.686795 
L 149.689604 64.90681 
L 153.466524 59.914962 
L 157.243444 55.304334 
L 160.729833 51.393447 
L 164.216221 47.812284 
L 167.702609 44.553214 
L 171.188997 41.603712 
L 174.675385 38.947786 
L 178.161773 36.567001 
L 181.648161 34.441467 
L 185.425081 32.403081 
L 189.202002 30.614184 
L 193.269455 28.937693 
L 197.62744 27.396015 
L 202.275957 26.004368 
L 207.215007 24.770674 
L 212.444589 23.696416 
L 218.255236 22.73418 
L 224.646947 21.902885 
L 231.910256 21.184343 
L 240.335694 20.577536 
L 250.504326 20.075957 
L 263.287749 19.680577 
L 280.429157 19.389158 
L 306.286535 19.195087 
L 351.028515 19.106878 
L 363.230874 19.10773 
L 363.230874 19.10773 
" clip-path="url(#p79a735d50e)" style="fill: none; stroke: #1f77b4; stroke-width: 1.5; stroke-linecap: square"/>
   </g>
   <g id="line2d_17">
    <path d="M 72.989066 168.619463 
L 76.475454 166.350553 
L 79.961842 163.815666 
L 83.44823 160.995891 
L 86.934618 157.874326 
L 90.421006 154.437108 
L 93.907394 150.674556 
L 97.393782 146.582373 
L 100.880171 142.162829 
L 104.657091 137.017259 
L 108.724544 131.08697 
L 113.082529 124.336926 
L 118.312111 115.803827 
L 125.575419 103.476443 
L 136.034584 85.746033 
L 141.264166 77.326972 
L 145.622151 70.703694 
L 149.689604 64.912231 
L 153.466524 59.908674 
L 157.243444 55.285922 
L 160.729833 51.364095 
L 164.216221 47.772813 
L 167.702609 44.504869 
L 171.188997 41.548166 
L 174.675385 38.886929 
L 178.161773 36.50282 
L 181.648161 34.375925 
L 185.425081 32.338092 
L 189.202002 30.551571 
L 193.269455 28.87928 
L 197.62744 27.343433 
L 202.275957 25.958837 
L 207.215007 24.732993 
L 212.444589 23.666699 
L 218.255236 22.712332 
L 224.646947 21.888124 
L 231.910256 21.175516 
L 240.335694 20.573179 
L 250.504326 20.074661 
L 263.287749 19.681829 
L 280.429157 19.39512 
L 305.996003 19.213969 
L 355.095968 19.130591 
L 363.230874 19.127016 
L 363.230874 19.127016 
" clip-path="url(#p79a735d50e)" style="fill: none; stroke-dasharray: 5.55,2.4; stroke-dashoffset: 0; stroke: #ff7f0e; stroke-width: 1.5"/>
   </g>
   <g id="patch_3">
    <path d="M 58.476976 193.536948 
L 58.476976 10.8 
" style="fill: none; stroke: #000000; stroke-width: 0.8; stroke-linejoin: miter; stroke-linecap: square"/>
   </g>
   <g id="patch_4">
    <path d="M 377.742964 193.536948 
L 377.742964 10.8 
" style="fill: none; stroke: #000000; stroke-width: 0.8; stroke-linejoin: miter; stroke-linecap: square"/>
   </g>
   <g id="patch_5">
    <path d="M 58.476976 193.536948 
L 377.742964 193.536948 
" style="fill: none; stroke: #000000; stroke-width: 0.8; stroke-linejoin: miter; stroke-linecap: square"/>
   </g>
   <g id="patch_6">
    <path d="M 58.476976 10.8 
L 377.742964 10.8 
" style="fill: none; stroke: #000000; stroke-width: 0.8; stroke-linejoin: miter; stroke-linecap: square"/>
   </g>
   <g id="legend_1">
    <g id="line2d_18">
     <path d="M 316.040827 83.820591 
L 330.040827 83.820591 
L 344.040827 83.820591 
" style="fill: none; stroke: #1f77b4; stroke-width: 1.5; stroke-linecap: square"/>
    </g>
    <g id="text_18">
     <!-- $\hat{P}$ -->
     <g transform="translate(355.240827 88.720591) scale(0.14 -0.14)">
      <defs>
       <path id="CMR17-5e" d="M 1466 4421 
L 678 3555 
L 755 3478 
L 1466 4166 
L 2176 3478 
L 2253 3555 
L 1466 4421 
z
" transform="scale(0.015625)"/>
       <path id="CMMI12-50" d="M 1894 2023 
L 2970 2023 
C 3853 2023 4736 2673 4736 3401 
C 4736 3898 4314 4352 3507 4352 
L 1530 4352 
C 1408 4352 1350 4352 1350 4231 
C 1350 4167 1408 4167 1504 4167 
C 1894 4167 1894 4116 1894 4046 
C 1894 4034 1894 3995 1869 3899 
L 1005 472 
C 947 249 934 185 486 185 
C 365 185 301 185 301 70 
C 301 0 358 0 397 0 
C 518 0 646 0 768 0 
L 1517 0 
C 1638 0 1773 0 1894 0 
C 1946 0 2016 0 2016 121 
C 2016 185 1958 185 1862 185 
C 1478 185 1472 230 1472 293 
C 1472 325 1478 369 1485 401 
L 1894 2023 
z
M 2355 3930 
C 2413 4167 2438 4167 2688 4167 
L 3322 4167 
C 3802 4167 4198 4013 4198 3535 
C 4198 3369 4115 2827 3821 2534 
C 3712 2419 3405 2176 2822 2176 
L 1920 2176 
L 2355 3930 
z
" transform="scale(0.015625)"/>
      </defs>
      <use xlink:href="#CMR17-5e" transform="translate(23.496833 25.189733) scale(0.996264)"/>
      <use xlink:href="#CMMI12-50" transform="scale(0.996264)"/>
     </g>
    </g>
    <g id="line2d_19">
     <path d="M 316.040827 103.332619 
L 330.040827 103.332619 
L 344.040827 103.332619 
" style="fill: none; stroke-dasharray: 5.55,2.4; stroke-dashoffset: 0; stroke: #ff7f0e; stroke-width: 1.5"/>
    </g>
    <g id="text_19">
     <!-- $P$ -->
     <g transform="translate(355.240827 108.232619) scale(0.14 -0.14)">
      <use xlink:href="#CMMI12-50" transform="scale(0.996264)"/>
     </g>
    </g>
    <g id="PathCollection_3">
     <g>
      <use xlink:href="#mc3f27ab291" x="330.040827" y="124.069647" style="stroke: #000000; stroke-width: 1.5"/>
     </g>
    </g>
    <g id="text_20">
     <!-- $u$ -->
     <g transform="translate(355.240827 127.744647) scale(0.14 -0.14)">
      <defs>
       <path id="CMMI12-75" d="M 2182 370 
C 2266 13 2573 -64 2726 -64 
C 2931 -64 3085 70 3187 287 
C 3296 517 3379 894 3379 913 
C 3379 945 3354 971 3315 971 
C 3258 971 3251 939 3226 843 
C 3110 402 2995 64 2739 64 
C 2547 64 2547 275 2547 358 
C 2547 505 2566 568 2630 837 
C 2675 1009 2720 1181 2758 1360 
L 3021 2401 
C 3066 2561 3066 2574 3066 2593 
C 3066 2689 2989 2753 2893 2753 
C 2707 2753 2662 2593 2624 2433 
C 2560 2184 2214 811 2170 588 
C 2163 588 1914 64 1446 64 
C 1114 64 1050 351 1050 588 
C 1050 952 1229 1462 1395 1890 
C 1472 2095 1504 2178 1504 2305 
C 1504 2580 1306 2816 998 2816 
C 410 2816 173 1890 173 1839 
C 173 1814 198 1782 243 1782 
C 301 1782 307 1807 333 1896 
C 486 2441 736 2682 979 2682 
C 1043 2682 1146 2682 1146 2478 
C 1146 2312 1075 2127 979 1884 
C 698 1124 666 881 666 690 
C 666 38 1158 -64 1421 -64 
C 1830 -64 2054 217 2182 370 
z
" transform="scale(0.015625)"/>
      </defs>
      <use xlink:href="#CMMI12-75" transform="scale(0.996264)"/>
     </g>
    </g>
    <g id="PathCollection_4">
     <g>
      <use xlink:href="#m9c5733307f" x="330.040827" y="143.581676" style="fill: #008000; stroke: #008000; stroke-width: 1.5"/>
     </g>
    </g>
    <g id="text_21">
     <!-- $f$ -->
     <g transform="translate(355.240827 147.256676) scale(0.14 -0.14)">
      <defs>
       <path id="CMMI12-66" d="M 2854 2566 
C 2982 2566 3034 2566 3034 2688 
C 3034 2752 2982 2752 2867 2752 
L 2349 2752 
C 2470 3429 2560 3897 2611 4107 
C 2650 4265 2784 4416 2950 4416 
C 3085 4416 3219 4358 3283 4298 
C 3034 4272 2957 4082 2957 3969 
C 2957 3837 3053 3759 3174 3759 
C 3302 3759 3494 3870 3494 4119 
C 3494 4393 3226 4544 2944 4544 
C 2669 4544 2400 4334 2272 4078 
C 2157 3848 2093 3611 1946 2752 
L 1517 2752 
C 1395 2752 1331 2752 1331 2637 
C 1331 2566 1370 2566 1498 2566 
L 1907 2566 
C 1792 1976 1530 542 1382 -137 
C 1274 -689 1178 -1152 858 -1152 
C 838 -1152 653 -1152 538 -1031 
C 864 -1005 864 -726 864 -720 
C 864 -593 768 -517 646 -517 
C 518 -517 326 -625 326 -867 
C 326 -1140 608 -1280 858 -1280 
C 1510 -1280 1779 -118 1850 199 
C 1965 688 2278 2376 2310 2566 
L 2854 2566 
z
" transform="scale(0.015625)"/>
      </defs>
      <use xlink:href="#CMMI12-66" transform="scale(0.996264)"/>
     </g>
    </g>
   </g>
  </g>
 </g>
 <defs>
  <clipPath id="p79a735d50e">
   <rect x="58.476976" y="10.8" width="319.265988" height="182.736948"/>
  </clipPath>
 </defs>
</svg>
