<?xml version="1.0" encoding="utf-8" standalone="no"?>
<!DOCTYPE svg PUBLIC "-//W3C//DTD SVG 1.1//EN"
  "http://www.w3.org/Graphics/SVG/1.1/DTD/svg11.dtd">
<svg xmlns:xlink="http://www.w3.org/1999/xlink" width="388.542964pt" height="240.132758pt" viewBox="0 0 388.542964 240.132758" xmlns="http://www.w3.org/2000/svg" version="1.1">
 <metadata>
  <rdf:RDF xmlns:dc="http://purl.org/dc/elements/1.1/" xmlns:cc="http://creativecommons.org/ns#" xmlns:rdf="http://www.w3.org/1999/02/22-rdf-syntax-ns#">
   <cc:Work>
    <dc:type rdf:resource="http://purl.org/dc/dcmitype/StillImage"/>
    <dc:date>2024-12-04T09:33:16.695099</dc:date>
    <dc:format>image/svg+xml</dc:format>
    <dc:creator>
     <cc:Agent>
      <dc:title>Matplotlib v3.7.5, https://matplotlib.org/</dc:title>
     </cc:Agent>
    </dc:creator>
   </cc:Work>
  </rdf:RDF>
 </metadata>
 <defs>
  <style type="text/css">*{stroke-linejoin: round; stroke-linecap: butt}</style>
 </defs>
 <g id="figure_1">
  <g id="patch_1">
   <path d="M 0 240.132758 
L 388.542964 240.132758 
L 388.542964 0 
L 0 0 
z
" style="fill: #ffffff"/>
  </g>
  <g id="axes_1">
   <g id="patch_2">
    <path d="M 60.676704 193.536948 
L 374.359051 193.536948 
L 374.359051 10.8 
L 60.676704 10.8 
z
" style="fill: #ffffff"/>
   </g>
   <g id="matplotlib.axis_1">
    <g id="xtick_1">
     <g id="line2d_1">
      <defs>
       <path id="m2bc575f948" d="M 0 0 
L 0 3.5 
" style="stroke: #000000; stroke-width: 0.8"/>
      </defs>
      <g>
       <use xlink:href="#m2bc575f948" x="74.934992" y="193.536948" style="stroke: #000000; stroke-width: 0.8"/>
      </g>
     </g>
     <g id="text_1">
      <!-- $\mathdefault{0}$ -->
      <g transform="translate(71.520748 210.222825) scale(0.14 -0.14)">
       <defs>
        <path id="CMR17-30" d="M 2688 2025 
C 2688 2416 2682 3080 2413 3591 
C 2176 4039 1798 4198 1466 4198 
C 1158 4198 768 4058 525 3597 
C 269 3118 243 2524 243 2025 
C 243 1661 250 1106 448 619 
C 723 -39 1216 -128 1466 -128 
C 1760 -128 2208 -7 2470 600 
C 2662 1042 2688 1559 2688 2025 
z
M 1466 -26 
C 1056 -26 813 325 723 812 
C 653 1188 653 1738 653 2096 
C 653 2588 653 2997 736 3387 
C 858 3929 1216 4096 1466 4096 
C 1728 4096 2067 3923 2189 3400 
C 2272 3036 2278 2607 2278 2096 
C 2278 1680 2278 1169 2202 792 
C 2067 95 1690 -26 1466 -26 
z
" transform="scale(0.015625)"/>
       </defs>
       <use xlink:href="#CMR17-30" transform="scale(0.996264)"/>
      </g>
     </g>
    </g>
    <g id="xtick_2">
     <g id="line2d_2">
      <g>
       <use xlink:href="#m2bc575f948" x="131.968146" y="193.536948" style="stroke: #000000; stroke-width: 0.8"/>
      </g>
     </g>
     <g id="text_2">
      <!-- $\mathdefault{2000}$ -->
      <g transform="translate(118.311169 210.222825) scale(0.14 -0.14)">
       <defs>
        <path id="CMR17-32" d="M 2669 989 
L 2554 989 
C 2490 536 2438 459 2413 420 
C 2381 369 1920 369 1830 369 
L 602 369 
C 832 619 1280 1072 1824 1597 
C 2214 1967 2669 2402 2669 3035 
C 2669 3790 2067 4224 1395 4224 
C 691 4224 262 3604 262 3030 
C 262 2780 448 2748 525 2748 
C 589 2748 781 2787 781 3010 
C 781 3207 614 3264 525 3264 
C 486 3264 448 3258 422 3245 
C 544 3790 915 4058 1306 4058 
C 1862 4058 2227 3617 2227 3035 
C 2227 2479 1901 2000 1536 1584 
L 262 146 
L 262 0 
L 2515 0 
L 2669 989 
z
" transform="scale(0.015625)"/>
       </defs>
       <use xlink:href="#CMR17-32" transform="scale(0.996264)"/>
       <use xlink:href="#CMR17-30" transform="translate(45.690477 0) scale(0.996264)"/>
       <use xlink:href="#CMR17-30" transform="translate(91.380954 0) scale(0.996264)"/>
       <use xlink:href="#CMR17-30" transform="translate(137.071431 0) scale(0.996264)"/>
      </g>
     </g>
    </g>
    <g id="xtick_3">
     <g id="line2d_3">
      <g>
       <use xlink:href="#m2bc575f948" x="189.001301" y="193.536948" style="stroke: #000000; stroke-width: 0.8"/>
      </g>
     </g>
     <g id="text_3">
      <!-- $\mathdefault{4000}$ -->
      <g transform="translate(175.344323 210.222825) scale(0.14 -0.14)">
       <defs>
        <path id="CMR17-34" d="M 2150 4122 
C 2150 4256 2144 4256 2029 4256 
L 128 1254 
L 128 1088 
L 1779 1088 
L 1779 457 
C 1779 224 1766 160 1318 160 
L 1197 160 
L 1197 0 
C 1402 0 1747 0 1965 0 
C 2182 0 2528 0 2733 0 
L 2733 160 
L 2611 160 
C 2163 160 2150 224 2150 457 
L 2150 1088 
L 2803 1088 
L 2803 1254 
L 2150 1254 
L 2150 4122 
z
M 1798 3703 
L 1798 1254 
L 256 1254 
L 1798 3703 
z
" transform="scale(0.015625)"/>
       </defs>
       <use xlink:href="#CMR17-34" transform="scale(0.996264)"/>
       <use xlink:href="#CMR17-30" transform="translate(45.690477 0) scale(0.996264)"/>
       <use xlink:href="#CMR17-30" transform="translate(91.380954 0) scale(0.996264)"/>
       <use xlink:href="#CMR17-30" transform="translate(137.071431 0) scale(0.996264)"/>
      </g>
     </g>
    </g>
    <g id="xtick_4">
     <g id="line2d_4">
      <g>
       <use xlink:href="#m2bc575f948" x="246.034455" y="193.536948" style="stroke: #000000; stroke-width: 0.8"/>
      </g>
     </g>
     <g id="text_4">
      <!-- $\mathdefault{6000}$ -->
      <g transform="translate(232.377477 210.222825) scale(0.14 -0.14)">
       <defs>
        <path id="CMR17-36" d="M 678 2176 
C 678 3690 1395 4032 1811 4032 
C 1946 4032 2272 4009 2400 3776 
C 2298 3776 2106 3776 2106 3553 
C 2106 3381 2246 3323 2336 3323 
C 2394 3323 2566 3348 2566 3560 
C 2566 3954 2246 4179 1805 4179 
C 1043 4179 243 3390 243 1984 
C 243 253 966 -128 1478 -128 
C 2099 -128 2688 427 2688 1283 
C 2688 2081 2170 2662 1517 2662 
C 1126 2662 838 2407 678 1960 
L 678 2176 
z
M 1478 25 
C 691 25 691 1200 691 1436 
C 691 1896 909 2560 1504 2560 
C 1613 2560 1926 2560 2138 2120 
C 2253 1870 2253 1609 2253 1289 
C 2253 944 2253 690 2118 434 
C 1978 171 1773 25 1478 25 
z
" transform="scale(0.015625)"/>
       </defs>
       <use xlink:href="#CMR17-36" transform="scale(0.996264)"/>
       <use xlink:href="#CMR17-30" transform="translate(45.690477 0) scale(0.996264)"/>
       <use xlink:href="#CMR17-30" transform="translate(91.380954 0) scale(0.996264)"/>
       <use xlink:href="#CMR17-30" transform="translate(137.071431 0) scale(0.996264)"/>
      </g>
     </g>
    </g>
    <g id="xtick_5">
     <g id="line2d_5">
      <g>
       <use xlink:href="#m2bc575f948" x="303.067609" y="193.536948" style="stroke: #000000; stroke-width: 0.8"/>
      </g>
     </g>
     <g id="text_5">
      <!-- $\mathdefault{8000}$ -->
      <g transform="translate(289.410631 210.222825) scale(0.14 -0.14)">
       <defs>
        <path id="CMR17-38" d="M 1741 2264 
C 2144 2467 2554 2773 2554 3263 
C 2554 3841 1990 4179 1472 4179 
C 890 4179 378 3759 378 3180 
C 378 3021 416 2747 666 2505 
C 730 2442 998 2251 1171 2130 
C 883 1983 211 1634 211 934 
C 211 279 838 -128 1459 -128 
C 2144 -128 2720 362 2720 1010 
C 2720 1590 2330 1857 2074 2029 
L 1741 2264 
z
M 902 2822 
C 851 2854 595 3051 595 3351 
C 595 3739 998 4032 1459 4032 
C 1965 4032 2336 3676 2336 3262 
C 2336 2669 1670 2331 1638 2331 
C 1632 2331 1626 2331 1574 2370 
L 902 2822 
z
M 2080 1519 
C 2176 1449 2483 1240 2483 851 
C 2483 381 2010 25 1472 25 
C 890 25 448 438 448 940 
C 448 1443 838 1862 1280 2060 
L 2080 1519 
z
" transform="scale(0.015625)"/>
       </defs>
       <use xlink:href="#CMR17-38" transform="scale(0.996264)"/>
       <use xlink:href="#CMR17-30" transform="translate(45.690477 0) scale(0.996264)"/>
       <use xlink:href="#CMR17-30" transform="translate(91.380954 0) scale(0.996264)"/>
       <use xlink:href="#CMR17-30" transform="translate(137.071431 0) scale(0.996264)"/>
      </g>
     </g>
    </g>
    <g id="xtick_6">
     <g id="line2d_6">
      <g>
       <use xlink:href="#m2bc575f948" x="360.100763" y="193.536948" style="stroke: #000000; stroke-width: 0.8"/>
      </g>
     </g>
     <g id="text_6">
      <!-- $\mathdefault{10000}$ -->
      <g transform="translate(343.029541 210.222825) scale(0.14 -0.14)">
       <defs>
        <path id="CMR17-31" d="M 1702 4058 
C 1702 4192 1696 4192 1606 4192 
C 1357 3916 979 3827 621 3827 
C 602 3827 570 3827 563 3808 
C 557 3795 557 3782 557 3648 
C 755 3648 1088 3686 1344 3839 
L 1344 461 
C 1344 236 1331 160 781 160 
L 589 160 
L 589 0 
C 896 0 1216 0 1523 0 
C 1830 0 2150 0 2458 0 
L 2458 160 
L 2266 160 
C 1715 160 1702 230 1702 458 
L 1702 4058 
z
" transform="scale(0.015625)"/>
       </defs>
       <use xlink:href="#CMR17-31" transform="scale(0.996264)"/>
       <use xlink:href="#CMR17-30" transform="translate(45.690477 0) scale(0.996264)"/>
       <use xlink:href="#CMR17-30" transform="translate(91.380954 0) scale(0.996264)"/>
       <use xlink:href="#CMR17-30" transform="translate(137.071431 0) scale(0.996264)"/>
       <use xlink:href="#CMR17-30" transform="translate(182.761908 0) scale(0.996264)"/>
      </g>
     </g>
    </g>
    <g id="text_7">
     <!-- Iteration -->
     <g transform="translate(191.534102 226.620729) scale(0.14 -0.14)">
      <defs>
       <path id="CMR17-49" d="M 1261 3905 
C 1261 4192 1338 4192 1798 4192 
L 1798 4352 
C 1594 4352 1267 4352 1050 4352 
C 832 4352 506 4352 301 4352 
L 301 4192 
C 762 4192 838 4192 838 3905 
L 838 447 
C 838 160 762 160 301 160 
L 301 0 
C 506 0 832 0 1050 0 
C 1267 0 1594 0 1798 0 
L 1798 160 
C 1338 160 1261 160 1261 447 
L 1261 3905 
z
" transform="scale(0.015625)"/>
       <path id="CMR17-74" d="M 966 2560 
L 1862 2560 
L 1862 2725 
L 966 2725 
L 966 3904 
L 851 3904 
C 838 3245 614 2668 70 2668 
L 70 2560 
L 627 2560 
L 627 771 
C 627 650 627 -64 1370 -64 
C 1747 -64 1965 306 1965 777 
L 1965 1140 
L 1850 1140 
L 1850 783 
C 1850 344 1677 51 1408 51 
C 1222 51 966 178 966 758 
L 966 2560 
z
" transform="scale(0.015625)"/>
       <path id="CMR17-65" d="M 2438 1472 
C 2464 1498 2464 1511 2464 1576 
C 2464 2238 2118 2816 1389 2816 
C 710 2816 173 2169 173 1383 
C 173 551 781 -64 1459 -64 
C 2176 -64 2458 607 2458 740 
C 2458 784 2419 784 2406 784 
C 2362 784 2355 771 2330 696 
C 2189 265 1837 51 1504 51 
C 1229 51 954 203 781 480 
C 582 803 582 1176 582 1472 
L 2438 1472 
z
M 589 1568 
C 634 2505 1126 2714 1382 2714 
C 1818 2714 2112 2297 2118 1568 
L 589 1568 
z
" transform="scale(0.015625)"/>
       <path id="CMR17-72" d="M 960 1497 
C 960 2112 1222 2688 1702 2688 
C 1747 2688 1792 2682 1837 2662 
C 1837 2662 1696 2617 1696 2452 
C 1696 2298 1818 2234 1914 2234 
C 1990 2234 2131 2279 2131 2458 
C 2131 2663 1926 2790 1709 2790 
C 1222 2790 1011 2317 947 2093 
L 941 2093 
L 941 2790 
L 198 2720 
L 198 2554 
C 576 2554 634 2515 634 2208 
L 634 428 
C 634 184 608 153 198 153 
L 198 -13 
C 352 0 646 0 813 0 
C 998 0 1325 0 1498 -13 
L 1498 153 
C 1037 153 960 153 960 440 
L 960 1497 
z
" transform="scale(0.015625)"/>
       <path id="CMR17-61" d="M 2304 1653 
C 2304 2072 2304 2294 2035 2543 
C 1798 2752 1523 2816 1306 2816 
C 800 2816 435 2407 435 1971 
C 435 1728 627 1728 666 1728 
C 749 1728 896 1778 896 1954 
C 896 2112 774 2181 666 2181 
C 640 2181 608 2174 589 2168 
C 723 2592 1069 2714 1293 2714 
C 1613 2714 1965 2429 1965 1885 
L 1965 1600 
C 1587 1600 1133 1549 774 1357 
C 371 1133 256 813 256 570 
C 256 77 832 -64 1171 -64 
C 1523 -64 1850 139 1990 511 
C 2003 233 2182 -18 2464 -18 
C 2598 -18 2938 70 2938 567 
L 2938 920 
L 2822 920 
L 2822 562 
C 2822 178 2650 128 2566 128 
C 2304 128 2304 458 2304 738 
L 2304 1653 
z
M 1965 870 
C 1965 317 1568 38 1216 38 
C 896 38 646 275 646 570 
C 646 761 730 1100 1101 1305 
C 1408 1478 1760 1504 1965 1504 
L 1965 870 
z
" transform="scale(0.015625)"/>
       <path id="CMR17-69" d="M 992 3909 
C 992 4049 877 4170 730 4170 
C 589 4170 467 4056 467 3909 
C 467 3769 582 3648 730 3648 
C 870 3648 992 3763 992 3909 
z
M 243 2706 
L 243 2541 
C 602 2541 653 2502 653 2197 
L 653 427 
C 653 184 627 153 218 153 
L 218 -13 
C 371 0 646 0 806 0 
C 960 0 1222 0 1370 -13 
L 1370 153 
C 992 153 979 191 979 420 
L 979 2776 
L 243 2706 
z
" transform="scale(0.015625)"/>
       <path id="CMR17-6f" d="M 2758 1356 
C 2758 2176 2163 2816 1466 2816 
C 768 2816 173 2176 173 1356 
C 173 551 768 -64 1466 -64 
C 2163 -64 2758 551 2758 1356 
z
M 1466 51 
C 1165 51 909 230 762 480 
C 602 767 582 1126 582 1408 
C 582 1677 595 2010 762 2298 
C 890 2509 1139 2714 1466 2714 
C 1754 2714 1997 2554 2150 2330 
C 2349 2029 2349 1607 2349 1408 
C 2349 1158 2336 775 2163 467 
C 1984 173 1709 51 1466 51 
z
" transform="scale(0.015625)"/>
       <path id="CMR17-6e" d="M 2656 1933 
C 2656 2259 2592 2790 1837 2790 
C 1331 2790 1069 2400 973 2144 
L 966 2144 
L 966 2790 
L 211 2720 
L 211 2554 
C 589 2554 646 2515 646 2208 
L 646 428 
C 646 184 621 153 211 153 
L 211 -13 
C 365 0 646 0 813 0 
C 979 0 1267 0 1421 -13 
L 1421 153 
C 1011 153 986 178 986 428 
L 986 1658 
C 986 2247 1344 2688 1792 2688 
C 2266 2688 2317 2266 2317 1958 
L 2317 428 
C 2317 184 2291 153 1882 153 
L 1882 -13 
C 2035 0 2317 0 2483 0 
C 2650 0 2938 0 3091 -13 
L 3091 153 
C 2682 153 2656 178 2656 428 
L 2656 1933 
z
" transform="scale(0.015625)"/>
      </defs>
      <use xlink:href="#CMR17-49" transform="scale(0.996264)"/>
      <use xlink:href="#CMR17-74" transform="translate(32.638409 0) scale(0.996264)"/>
      <use xlink:href="#CMR17-65" transform="translate(67.919177 0) scale(0.996264)"/>
      <use xlink:href="#CMR17-72" transform="translate(108.404837 0) scale(0.996264)"/>
      <use xlink:href="#CMR17-61" transform="translate(143.685605 0) scale(0.996264)"/>
      <use xlink:href="#CMR17-74" transform="translate(189.376082 0) scale(0.996264)"/>
      <use xlink:href="#CMR17-69" transform="translate(224.65685 0) scale(0.996264)"/>
      <use xlink:href="#CMR17-6f" transform="translate(249.527909 0) scale(0.996264)"/>
      <use xlink:href="#CMR17-6e" transform="translate(295.218386 0) scale(0.996264)"/>
     </g>
    </g>
   </g>
   <g id="matplotlib.axis_2">
    <g id="ytick_1">
     <g id="line2d_7">
      <defs>
       <path id="me8d7c6ded9" d="M 0 0 
L -3.5 0 
" style="stroke: #000000; stroke-width: 0.8"/>
      </defs>
      <g>
       <use xlink:href="#me8d7c6ded9" x="60.676704" y="189.23788" style="stroke: #000000; stroke-width: 0.8"/>
      </g>
     </g>
     <g id="text_8">
      <!-- $\mathdefault{10^{-5}}$ -->
      <g transform="translate(27.197905 194.080818) scale(0.14 -0.14)">
       <defs>
        <path id="CMSY10-0" d="M 4218 1472 
C 4326 1472 4442 1472 4442 1600 
C 4442 1728 4326 1728 4218 1728 
L 755 1728 
C 646 1728 531 1728 531 1600 
C 531 1472 646 1472 755 1472 
L 4218 1472 
z
" transform="scale(0.015625)"/>
        <path id="CMR17-35" d="M 730 3692 
C 794 3666 1056 3584 1325 3584 
C 1920 3584 2246 3911 2432 4100 
C 2432 4157 2432 4192 2394 4192 
C 2387 4192 2374 4192 2323 4163 
C 2099 4058 1837 3973 1517 3973 
C 1325 3973 1037 3999 723 4139 
C 653 4171 640 4171 634 4171 
C 602 4171 595 4164 595 4037 
L 595 2203 
C 595 2089 595 2057 659 2057 
C 691 2057 704 2070 736 2114 
C 941 2401 1222 2522 1542 2522 
C 1766 2522 2246 2382 2246 1289 
C 2246 1085 2246 715 2054 421 
C 1894 159 1645 25 1370 25 
C 947 25 518 320 403 814 
C 429 807 480 795 506 795 
C 589 795 749 840 749 1038 
C 749 1210 627 1280 506 1280 
C 358 1280 262 1190 262 1011 
C 262 454 704 -128 1382 -128 
C 2042 -128 2669 440 2669 1264 
C 2669 2030 2170 2624 1549 2624 
C 1222 2624 947 2503 730 2274 
L 730 3692 
z
" transform="scale(0.015625)"/>
       </defs>
       <use xlink:href="#CMR17-31" transform="scale(0.996264)"/>
       <use xlink:href="#CMR17-30" transform="translate(45.690477 0) scale(0.996264)"/>
       <use xlink:href="#CMSY10-0" transform="translate(91.380954 36.153639) scale(0.697382)"/>
       <use xlink:href="#CMR17-35" transform="translate(145.621947 36.153639) scale(0.697382)"/>
      </g>
     </g>
    </g>
    <g id="ytick_2">
     <g id="line2d_8">
      <g>
       <use xlink:href="#me8d7c6ded9" x="60.676704" y="159.199721" style="stroke: #000000; stroke-width: 0.8"/>
      </g>
     </g>
     <g id="text_9">
      <!-- $\mathdefault{10^{-4}}$ -->
      <g transform="translate(27.197905 164.04266) scale(0.14 -0.14)">
       <use xlink:href="#CMR17-31" transform="scale(0.996264)"/>
       <use xlink:href="#CMR17-30" transform="translate(45.690477 0) scale(0.996264)"/>
       <use xlink:href="#CMSY10-0" transform="translate(91.380954 36.153639) scale(0.697382)"/>
       <use xlink:href="#CMR17-34" transform="translate(145.621947 36.153639) scale(0.697382)"/>
      </g>
     </g>
    </g>
    <g id="ytick_3">
     <g id="line2d_9">
      <g>
       <use xlink:href="#me8d7c6ded9" x="60.676704" y="129.161563" style="stroke: #000000; stroke-width: 0.8"/>
      </g>
     </g>
     <g id="text_10">
      <!-- $\mathdefault{10^{-3}}$ -->
      <g transform="translate(27.197905 134.004501) scale(0.14 -0.14)">
       <defs>
        <path id="CMR17-33" d="M 1414 2157 
C 1984 2157 2234 1662 2234 1090 
C 2234 320 1824 25 1453 25 
C 1114 25 563 194 390 693 
C 422 680 454 680 486 680 
C 640 680 755 782 755 948 
C 755 1133 614 1216 486 1216 
C 378 1216 211 1165 211 926 
C 211 335 787 -128 1466 -128 
C 2176 -128 2720 430 2720 1085 
C 2720 1707 2208 2157 1600 2227 
C 2086 2328 2554 2756 2554 3329 
C 2554 3820 2048 4179 1472 4179 
C 890 4179 378 3829 378 3329 
C 378 3110 544 3072 627 3072 
C 762 3072 877 3155 877 3321 
C 877 3486 762 3569 627 3569 
C 602 3569 570 3569 544 3557 
C 730 3959 1235 4032 1459 4032 
C 1683 4032 2106 3925 2106 3320 
C 2106 3143 2080 2828 1862 2550 
C 1670 2304 1453 2304 1242 2284 
C 1210 2284 1062 2269 1037 2269 
C 992 2263 966 2257 966 2208 
C 966 2163 973 2157 1101 2157 
L 1414 2157 
z
" transform="scale(0.015625)"/>
       </defs>
       <use xlink:href="#CMR17-31" transform="scale(0.996264)"/>
       <use xlink:href="#CMR17-30" transform="translate(45.690477 0) scale(0.996264)"/>
       <use xlink:href="#CMSY10-0" transform="translate(91.380954 36.153639) scale(0.697382)"/>
       <use xlink:href="#CMR17-33" transform="translate(145.621947 36.153639) scale(0.697382)"/>
      </g>
     </g>
    </g>
    <g id="ytick_4">
     <g id="line2d_10">
      <g>
       <use xlink:href="#me8d7c6ded9" x="60.676704" y="99.123404" style="stroke: #000000; stroke-width: 0.8"/>
      </g>
     </g>
     <g id="text_11">
      <!-- $\mathdefault{10^{-2}}$ -->
      <g transform="translate(27.197905 103.966343) scale(0.14 -0.14)">
       <use xlink:href="#CMR17-31" transform="scale(0.996264)"/>
       <use xlink:href="#CMR17-30" transform="translate(45.690477 0) scale(0.996264)"/>
       <use xlink:href="#CMSY10-0" transform="translate(91.380954 36.153639) scale(0.697382)"/>
       <use xlink:href="#CMR17-32" transform="translate(145.621947 36.153639) scale(0.697382)"/>
      </g>
     </g>
    </g>
    <g id="ytick_5">
     <g id="line2d_11">
      <g>
       <use xlink:href="#me8d7c6ded9" x="60.676704" y="69.085246" style="stroke: #000000; stroke-width: 0.8"/>
      </g>
     </g>
     <g id="text_12">
      <!-- $\mathdefault{10^{-1}}$ -->
      <g transform="translate(27.197905 73.928184) scale(0.14 -0.14)">
       <use xlink:href="#CMR17-31" transform="scale(0.996264)"/>
       <use xlink:href="#CMR17-30" transform="translate(45.690477 0) scale(0.996264)"/>
       <use xlink:href="#CMSY10-0" transform="translate(91.380954 36.153639) scale(0.697382)"/>
       <use xlink:href="#CMR17-31" transform="translate(145.621947 36.153639) scale(0.697382)"/>
      </g>
     </g>
    </g>
    <g id="ytick_6">
     <g id="line2d_12">
      <g>
       <use xlink:href="#me8d7c6ded9" x="60.676704" y="39.047088" style="stroke: #000000; stroke-width: 0.8"/>
      </g>
     </g>
     <g id="text_13">
      <!-- $\mathdefault{10^{0}}$ -->
      <g transform="translate(35.0025 43.890026) scale(0.14 -0.14)">
       <use xlink:href="#CMR17-31" transform="scale(0.996264)"/>
       <use xlink:href="#CMR17-30" transform="translate(45.690477 0) scale(0.996264)"/>
       <use xlink:href="#CMR17-30" transform="translate(91.380954 36.153639) scale(0.697382)"/>
      </g>
     </g>
    </g>
    <g id="ytick_7">
     <g id="line2d_13">
      <defs>
       <path id="m31a9adeddd" d="M 0 0 
L -2 0 
" style="stroke: #000000; stroke-width: 0.6"/>
      </defs>
      <g>
       <use xlink:href="#m31a9adeddd" x="60.676704" y="192.148878" style="stroke: #000000; stroke-width: 0.6"/>
      </g>
     </g>
    </g>
    <g id="ytick_8">
     <g id="line2d_14">
      <g>
       <use xlink:href="#m31a9adeddd" x="60.676704" y="190.612351" style="stroke: #000000; stroke-width: 0.6"/>
      </g>
     </g>
    </g>
    <g id="ytick_9">
     <g id="line2d_15">
      <g>
       <use xlink:href="#m31a9adeddd" x="60.676704" y="180.195493" style="stroke: #000000; stroke-width: 0.6"/>
      </g>
     </g>
    </g>
    <g id="ytick_10">
     <g id="line2d_16">
      <g>
       <use xlink:href="#m31a9adeddd" x="60.676704" y="174.906036" style="stroke: #000000; stroke-width: 0.6"/>
      </g>
     </g>
    </g>
    <g id="ytick_11">
     <g id="line2d_17">
      <g>
       <use xlink:href="#m31a9adeddd" x="60.676704" y="171.153106" style="stroke: #000000; stroke-width: 0.6"/>
      </g>
     </g>
    </g>
    <g id="ytick_12">
     <g id="line2d_18">
      <g>
       <use xlink:href="#m31a9adeddd" x="60.676704" y="168.242108" style="stroke: #000000; stroke-width: 0.6"/>
      </g>
     </g>
    </g>
    <g id="ytick_13">
     <g id="line2d_19">
      <g>
       <use xlink:href="#m31a9adeddd" x="60.676704" y="165.863649" style="stroke: #000000; stroke-width: 0.6"/>
      </g>
     </g>
    </g>
    <g id="ytick_14">
     <g id="line2d_20">
      <g>
       <use xlink:href="#m31a9adeddd" x="60.676704" y="163.852691" style="stroke: #000000; stroke-width: 0.6"/>
      </g>
     </g>
    </g>
    <g id="ytick_15">
     <g id="line2d_21">
      <g>
       <use xlink:href="#m31a9adeddd" x="60.676704" y="162.11072" style="stroke: #000000; stroke-width: 0.6"/>
      </g>
     </g>
    </g>
    <g id="ytick_16">
     <g id="line2d_22">
      <g>
       <use xlink:href="#m31a9adeddd" x="60.676704" y="160.574192" style="stroke: #000000; stroke-width: 0.6"/>
      </g>
     </g>
    </g>
    <g id="ytick_17">
     <g id="line2d_23">
      <g>
       <use xlink:href="#m31a9adeddd" x="60.676704" y="150.157335" style="stroke: #000000; stroke-width: 0.6"/>
      </g>
     </g>
    </g>
    <g id="ytick_18">
     <g id="line2d_24">
      <g>
       <use xlink:href="#m31a9adeddd" x="60.676704" y="144.867877" style="stroke: #000000; stroke-width: 0.6"/>
      </g>
     </g>
    </g>
    <g id="ytick_19">
     <g id="line2d_25">
      <g>
       <use xlink:href="#m31a9adeddd" x="60.676704" y="141.114948" style="stroke: #000000; stroke-width: 0.6"/>
      </g>
     </g>
    </g>
    <g id="ytick_20">
     <g id="line2d_26">
      <g>
       <use xlink:href="#m31a9adeddd" x="60.676704" y="138.20395" style="stroke: #000000; stroke-width: 0.6"/>
      </g>
     </g>
    </g>
    <g id="ytick_21">
     <g id="line2d_27">
      <g>
       <use xlink:href="#m31a9adeddd" x="60.676704" y="135.825491" style="stroke: #000000; stroke-width: 0.6"/>
      </g>
     </g>
    </g>
    <g id="ytick_22">
     <g id="line2d_28">
      <g>
       <use xlink:href="#m31a9adeddd" x="60.676704" y="133.814533" style="stroke: #000000; stroke-width: 0.6"/>
      </g>
     </g>
    </g>
    <g id="ytick_23">
     <g id="line2d_29">
      <g>
       <use xlink:href="#m31a9adeddd" x="60.676704" y="132.072561" style="stroke: #000000; stroke-width: 0.6"/>
      </g>
     </g>
    </g>
    <g id="ytick_24">
     <g id="line2d_30">
      <g>
       <use xlink:href="#m31a9adeddd" x="60.676704" y="130.536034" style="stroke: #000000; stroke-width: 0.6"/>
      </g>
     </g>
    </g>
    <g id="ytick_25">
     <g id="line2d_31">
      <g>
       <use xlink:href="#m31a9adeddd" x="60.676704" y="120.119176" style="stroke: #000000; stroke-width: 0.6"/>
      </g>
     </g>
    </g>
    <g id="ytick_26">
     <g id="line2d_32">
      <g>
       <use xlink:href="#m31a9adeddd" x="60.676704" y="114.829719" style="stroke: #000000; stroke-width: 0.6"/>
      </g>
     </g>
    </g>
    <g id="ytick_27">
     <g id="line2d_33">
      <g>
       <use xlink:href="#m31a9adeddd" x="60.676704" y="111.07679" style="stroke: #000000; stroke-width: 0.6"/>
      </g>
     </g>
    </g>
    <g id="ytick_28">
     <g id="line2d_34">
      <g>
       <use xlink:href="#m31a9adeddd" x="60.676704" y="108.165791" style="stroke: #000000; stroke-width: 0.6"/>
      </g>
     </g>
    </g>
    <g id="ytick_29">
     <g id="line2d_35">
      <g>
       <use xlink:href="#m31a9adeddd" x="60.676704" y="105.787332" style="stroke: #000000; stroke-width: 0.6"/>
      </g>
     </g>
    </g>
    <g id="ytick_30">
     <g id="line2d_36">
      <g>
       <use xlink:href="#m31a9adeddd" x="60.676704" y="103.776374" style="stroke: #000000; stroke-width: 0.6"/>
      </g>
     </g>
    </g>
    <g id="ytick_31">
     <g id="line2d_37">
      <g>
       <use xlink:href="#m31a9adeddd" x="60.676704" y="102.034403" style="stroke: #000000; stroke-width: 0.6"/>
      </g>
     </g>
    </g>
    <g id="ytick_32">
     <g id="line2d_38">
      <g>
       <use xlink:href="#m31a9adeddd" x="60.676704" y="100.497875" style="stroke: #000000; stroke-width: 0.6"/>
      </g>
     </g>
    </g>
    <g id="ytick_33">
     <g id="line2d_39">
      <g>
       <use xlink:href="#m31a9adeddd" x="60.676704" y="90.081018" style="stroke: #000000; stroke-width: 0.6"/>
      </g>
     </g>
    </g>
    <g id="ytick_34">
     <g id="line2d_40">
      <g>
       <use xlink:href="#m31a9adeddd" x="60.676704" y="84.791561" style="stroke: #000000; stroke-width: 0.6"/>
      </g>
     </g>
    </g>
    <g id="ytick_35">
     <g id="line2d_41">
      <g>
       <use xlink:href="#m31a9adeddd" x="60.676704" y="81.038631" style="stroke: #000000; stroke-width: 0.6"/>
      </g>
     </g>
    </g>
    <g id="ytick_36">
     <g id="line2d_42">
      <g>
       <use xlink:href="#m31a9adeddd" x="60.676704" y="78.127633" style="stroke: #000000; stroke-width: 0.6"/>
      </g>
     </g>
    </g>
    <g id="ytick_37">
     <g id="line2d_43">
      <g>
       <use xlink:href="#m31a9adeddd" x="60.676704" y="75.749174" style="stroke: #000000; stroke-width: 0.6"/>
      </g>
     </g>
    </g>
    <g id="ytick_38">
     <g id="line2d_44">
      <g>
       <use xlink:href="#m31a9adeddd" x="60.676704" y="73.738216" style="stroke: #000000; stroke-width: 0.6"/>
      </g>
     </g>
    </g>
    <g id="ytick_39">
     <g id="line2d_45">
      <g>
       <use xlink:href="#m31a9adeddd" x="60.676704" y="71.996244" style="stroke: #000000; stroke-width: 0.6"/>
      </g>
     </g>
    </g>
    <g id="ytick_40">
     <g id="line2d_46">
      <g>
       <use xlink:href="#m31a9adeddd" x="60.676704" y="70.459717" style="stroke: #000000; stroke-width: 0.6"/>
      </g>
     </g>
    </g>
    <g id="ytick_41">
     <g id="line2d_47">
      <g>
       <use xlink:href="#m31a9adeddd" x="60.676704" y="60.042859" style="stroke: #000000; stroke-width: 0.6"/>
      </g>
     </g>
    </g>
    <g id="ytick_42">
     <g id="line2d_48">
      <g>
       <use xlink:href="#m31a9adeddd" x="60.676704" y="54.753402" style="stroke: #000000; stroke-width: 0.6"/>
      </g>
     </g>
    </g>
    <g id="ytick_43">
     <g id="line2d_49">
      <g>
       <use xlink:href="#m31a9adeddd" x="60.676704" y="51.000473" style="stroke: #000000; stroke-width: 0.6"/>
      </g>
     </g>
    </g>
    <g id="ytick_44">
     <g id="line2d_50">
      <g>
       <use xlink:href="#m31a9adeddd" x="60.676704" y="48.089474" style="stroke: #000000; stroke-width: 0.6"/>
      </g>
     </g>
    </g>
    <g id="ytick_45">
     <g id="line2d_51">
      <g>
       <use xlink:href="#m31a9adeddd" x="60.676704" y="45.711016" style="stroke: #000000; stroke-width: 0.6"/>
      </g>
     </g>
    </g>
    <g id="ytick_46">
     <g id="line2d_52">
      <g>
       <use xlink:href="#m31a9adeddd" x="60.676704" y="43.700057" style="stroke: #000000; stroke-width: 0.6"/>
      </g>
     </g>
    </g>
    <g id="ytick_47">
     <g id="line2d_53">
      <g>
       <use xlink:href="#m31a9adeddd" x="60.676704" y="41.958086" style="stroke: #000000; stroke-width: 0.6"/>
      </g>
     </g>
    </g>
    <g id="ytick_48">
     <g id="line2d_54">
      <g>
       <use xlink:href="#m31a9adeddd" x="60.676704" y="40.421558" style="stroke: #000000; stroke-width: 0.6"/>
      </g>
     </g>
    </g>
    <g id="ytick_49">
     <g id="line2d_55">
      <g>
       <use xlink:href="#m31a9adeddd" x="60.676704" y="30.004701" style="stroke: #000000; stroke-width: 0.6"/>
      </g>
     </g>
    </g>
    <g id="ytick_50">
     <g id="line2d_56">
      <g>
       <use xlink:href="#m31a9adeddd" x="60.676704" y="24.715244" style="stroke: #000000; stroke-width: 0.6"/>
      </g>
     </g>
    </g>
    <g id="ytick_51">
     <g id="line2d_57">
      <g>
       <use xlink:href="#m31a9adeddd" x="60.676704" y="20.962314" style="stroke: #000000; stroke-width: 0.6"/>
      </g>
     </g>
    </g>
    <g id="ytick_52">
     <g id="line2d_58">
      <g>
       <use xlink:href="#m31a9adeddd" x="60.676704" y="18.051316" style="stroke: #000000; stroke-width: 0.6"/>
      </g>
     </g>
    </g>
    <g id="ytick_53">
     <g id="line2d_59">
      <g>
       <use xlink:href="#m31a9adeddd" x="60.676704" y="15.672857" style="stroke: #000000; stroke-width: 0.6"/>
      </g>
     </g>
    </g>
    <g id="ytick_54">
     <g id="line2d_60">
      <g>
       <use xlink:href="#m31a9adeddd" x="60.676704" y="13.661899" style="stroke: #000000; stroke-width: 0.6"/>
      </g>
     </g>
    </g>
    <g id="ytick_55">
     <g id="line2d_61">
      <g>
       <use xlink:href="#m31a9adeddd" x="60.676704" y="11.919928" style="stroke: #000000; stroke-width: 0.6"/>
      </g>
     </g>
    </g>
    <g id="text_14">
     <!-- $\mathcal{L}$ -->
     <g transform="translate(20.485876 106.978508) rotate(-90) scale(0.14 -0.14)">
      <defs>
       <path id="CMSY10-4c" d="M 1152 610 
C 1498 1151 1606 1562 1690 1903 
C 1914 2790 2157 3562 2554 4005 
C 2630 4090 2682 4147 2886 4147 
C 3328 4147 3341 3704 3341 3613 
C 3341 3498 3309 3407 3309 3375 
C 3309 3330 3347 3330 3354 3330 
C 3456 3330 3629 3401 3789 3517 
C 3904 3607 3962 3671 3962 3934 
C 3962 4281 3782 4544 3424 4544 
C 3219 4544 2656 4493 2029 3856 
C 1517 3329 1216 2172 1094 1690 
C 979 1248 928 1048 736 662 
C 691 586 525 303 435 219 
C 262 59 198 -57 198 -89 
C 198 -102 211 -128 256 -128 
C 282 -128 416 -102 582 5 
C 691 68 704 80 851 231 
C 1171 231 1395 173 1798 58 
C 2125 -32 2451 -128 2778 -128 
C 3296 -128 3821 264 4026 546 
C 4154 719 4192 880 4192 899 
C 4192 944 4154 944 4147 944 
C 4045 944 3891 874 3782 796 
C 3610 687 3597 649 3558 539 
C 3526 436 3488 385 3462 346 
C 3411 269 3405 269 3309 269 
C 3002 269 2682 366 2259 481 
C 2080 532 1728 636 1408 636 
C 1325 636 1235 629 1152 610 
z
" transform="scale(0.015625)"/>
      </defs>
      <use xlink:href="#CMSY10-4c" transform="scale(0.996264)"/>
     </g>
    </g>
   </g>
   <g id="line2d_62">
    <path d="M 74.934992 125.040447 
L 75.106092 88.073934 
L 75.334224 74.995869 
L 75.362741 74.654831 
L 75.419774 74.983294 
L 75.53384 79.511244 
L 75.70494 98.921956 
L 75.847523 124.514668 
L 75.876039 120.70155 
L 76.075655 103.37685 
L 76.161205 106.32153 
L 76.417854 125.721137 
L 76.503404 123.753336 
L 76.588954 122.684252 
L 76.61747 122.928329 
L 76.731537 126.659054 
L 77.016702 135.872766 
L 77.301868 140.411825 
L 77.615551 147.768307 
L 77.929233 155.864362 
L 77.986266 154.918877 
L 78.128849 134.172165 
L 78.157366 142.600195 
L 78.242915 140.196555 
L 78.299948 164.305787 
L 78.356982 146.337016 
L 78.414015 159.563517 
L 78.442531 149.35364 
L 78.499564 168.61772 
L 78.528081 155.050869 
L 78.556598 155.168209 
L 78.585114 168.919079 
L 78.670664 165.36347 
L 78.727697 160.499392 
L 78.78473 172.815867 
L 78.841763 163.09687 
L 78.898797 172.018344 
L 78.927313 165.763715 
L 78.984346 173.76896 
L 79.012863 170.513702 
L 79.041379 167.569237 
L 79.069896 171.42978 
L 79.098413 174.329914 
L 79.155446 169.960015 
L 79.183962 173.631693 
L 79.212479 174.31837 
L 79.240995 171.500854 
L 79.298029 174.470999 
L 79.326545 174.454559 
L 79.355062 172.492749 
L 79.412095 174.648278 
L 79.440612 174.71872 
L 79.497645 173.277444 
L 79.526161 174.525559 
L 79.554678 174.918257 
L 79.583194 174.034 
L 79.611711 173.635675 
L 79.640228 174.283145 
L 79.668744 174.908604 
L 79.725777 174.061514 
L 79.754294 174.152201 
L 79.811327 174.888556 
L 79.86836 174.324725 
L 80.125009 175.018405 
L 80.182043 174.895648 
L 80.210559 174.980052 
L 80.438692 175.607777 
L 81.151606 178.014971 
L 81.208639 177.647793 
L 81.294189 174.29863 
L 81.408255 155.550974 
L 81.522322 136.334642 
L 81.550838 140.2816 
L 81.607871 180.77052 
L 81.664905 145.326211 
L 81.693421 147.051213 
L 81.750454 178.977839 
L 81.807487 150.853777 
L 82.007103 179.745234 
L 82.064137 161.432812 
L 82.092653 169.38686 
L 82.12117 183.081869 
L 82.178203 165.915362 
L 82.377819 184.086305 
L 82.406336 178.619578 
L 82.434852 173.808269 
L 82.491885 181.916018 
L 82.520402 183.96311 
L 82.548918 179.075243 
L 82.577435 176.820718 
L 82.605952 179.355602 
L 82.662985 184.044438 
L 82.691501 180.687038 
L 82.720018 179.475834 
L 82.748534 181.52641 
L 82.805568 184.640499 
L 82.834084 182.489152 
L 82.862601 181.462347 
L 82.891117 182.591476 
L 82.94815 185.186494 
L 83.005184 182.992732 
L 83.0337 183.198945 
L 83.090733 185.230723 
L 83.147767 184.24924 
L 83.176283 183.818202 
L 83.2048 184.086816 
L 83.261833 185.152623 
L 83.318866 184.547552 
L 83.347383 184.229938 
L 83.404416 184.552211 
L 83.461449 184.808216 
L 83.489965 184.587224 
L 83.575515 184.132149 
L 83.632548 184.266697 
L 83.689581 184.088812 
L 84.03178 182.533653 
L 84.659145 178.735363 
L 84.773211 176.9118 
L 84.887278 169.440443 
L 85.086894 134.999967 
L 85.143927 143.112437 
L 85.20096 170.02361 
L 85.229477 150.306097 
L 85.257993 143.790831 
L 85.28651 146.603944 
L 85.343543 173.471616 
L 85.400576 149.850686 
L 85.600192 171.248275 
L 85.628709 168.071581 
L 85.685742 159.585773 
L 85.714258 165.907075 
L 85.742775 171.783719 
L 85.799808 162.29668 
L 85.885358 170.569143 
L 86.027941 169.522582 
L 86.084974 165.849405 
L 86.142007 169.165682 
L 86.19904 167.178946 
L 86.227557 166.565986 
L 86.256073 167.419451 
L 86.28459 168.457945 
L 86.341623 167.255658 
L 86.37014 166.737979 
L 86.427173 167.675287 
L 86.455689 167.664456 
L 86.541239 166.601897 
L 86.598272 166.970979 
L 86.854922 165.480438 
L 86.940471 165.303827 
L 87.28267 163.747596 
L 88.993665 156.470865 
L 89.079215 153.113813 
L 89.278831 131.741789 
L 89.307347 136.25109 
L 89.36438 156.119098 
L 89.421413 139.977052 
L 89.44993 139.673373 
L 89.506963 155.011834 
L 89.563996 144.827465 
L 89.592513 144.131569 
L 89.649546 155.046858 
L 89.706579 147.412982 
L 89.735096 147.753555 
L 89.792129 154.696616 
L 89.849162 149.266626 
L 89.934712 154.02844 
L 90.048778 153.724227 
L 90.077295 153.465575 
L 90.134328 151.621108 
L 90.162844 152.605869 
L 90.191361 153.492743 
L 90.248394 152.206018 
L 90.276911 152.069643 
L 90.333944 153.128126 
L 90.390977 152.264985 
L 90.419494 152.173678 
L 90.476527 152.746324 
L 90.505043 152.545302 
L 90.562077 152.080672 
L 90.61911 152.365768 
L 91.018342 151.31329 
L 91.332024 150.661279 
L 92.073455 149.144714 
L 93.214118 147.204133 
L 93.78445 146.251069 
L 93.869999 145.018615 
L 93.955549 137.696345 
L 94.069616 121.126286 
L 94.098132 125.982426 
L 94.155165 142.834677 
L 94.212198 128.225648 
L 94.269232 145.580594 
L 94.383298 145.314774 
L 94.440331 135.710874 
L 94.497364 144.467708 
L 94.525881 138.693393 
L 94.61143 143.389054 
L 94.639947 139.795863 
L 94.69698 144.969469 
L 94.725497 142.687894 
L 94.754013 141.098831 
L 94.78253 143.525986 
L 94.811047 144.674051 
L 94.839563 142.521511 
L 94.86808 142.442604 
L 94.896596 144.39794 
L 94.982146 143.419049 
L 95.010663 144.564753 
L 95.067696 143.196763 
L 95.096212 143.978757 
L 95.124729 144.427699 
L 95.153245 143.733686 
L 95.181762 143.566328 
L 95.238795 144.236878 
L 95.295828 143.784287 
L 95.324345 144.190664 
L 95.381378 143.767706 
L 95.409895 143.888605 
L 95.438411 144.116618 
L 95.495444 143.791066 
L 95.552478 144.018372 
L 95.580994 143.894449 
L 95.666544 143.916378 
L 95.723577 143.742907 
L 95.78061 143.818312 
L 95.809127 143.746174 
L 95.980226 143.628381 
L 96.122809 143.545811 
L 96.607591 143.220762 
L 97.634188 142.767997 
L 98.518202 142.624124 
L 99.487765 142.69732 
L 100.257713 142.744775 
L 100.314746 142.284391 
L 100.400296 137.839964 
L 100.542879 117.58179 
L 100.571395 124.608341 
L 100.599912 140.47057 
L 100.656945 124.929077 
L 100.685461 126.021162 
L 100.828044 141.021991 
L 100.885077 131.858838 
L 100.913594 135.500569 
L 100.942111 142.753346 
L 100.999144 134.543498 
L 101.02766 140.108802 
L 101.056177 141.856424 
L 101.084693 136.907504 
L 101.141727 142.520844 
L 101.255793 142.512957 
L 101.28431 139.856486 
L 101.341343 142.51924 
L 101.369859 141.781271 
L 101.398376 140.307443 
L 101.455409 142.726953 
L 101.483926 141.425565 
L 101.512442 141.267612 
L 101.655025 142.813433 
L 101.712058 141.99625 
L 101.740575 142.607879 
L 101.769091 142.804812 
L 101.797608 142.344309 
L 101.826124 142.401209 
L 101.968707 142.923108 
L 102.025741 142.658446 
L 102.054257 142.851855 
L 102.139807 142.804918 
L 102.19684 142.985375 
L 102.253873 142.905008 
L 102.28239 143.010256 
L 103.936351 143.372952 
L 105.105531 143.368587 
L 106.331744 143.120366 
L 107.329824 142.767529 
L 107.415374 142.495747 
L 107.500923 140.872726 
L 107.586473 132.982212 
L 107.700539 119.181286 
L 107.729056 123.806868 
L 107.786089 141.746707 
L 107.843122 126.129103 
L 108.042738 142.1675 
L 108.099771 134.005571 
L 108.128288 138.335368 
L 108.156805 142.434768 
L 108.213838 136.25179 
L 108.242354 139.235592 
L 108.270871 142.409003 
L 108.327904 138.101906 
L 108.356421 140.055113 
L 108.384937 142.372808 
L 108.44197 139.375392 
L 108.470487 140.730071 
L 108.499004 142.347982 
L 108.556037 140.343469 
L 108.584553 141.167851 
L 108.61307 142.323347 
L 108.670103 140.972823 
L 108.69862 141.491602 
L 108.727136 142.294485 
L 108.784169 141.440174 
L 108.812686 141.689811 
L 108.841202 142.267382 
L 108.926752 141.84374 
L 108.955269 142.23028 
L 109.040818 141.937666 
L 109.097852 142.257138 
L 109.154885 142.019827 
L 109.211918 142.250033 
L 109.268951 142.068554 
L 109.325984 142.224175 
L 109.383017 142.112684 
L 109.639667 142.114606 
L 109.867799 142.103378 
L 110.295548 142.034532 
L 112.890556 141.919618 
L 115.000783 142.118038 
L 115.799247 142.139213 
L 115.884797 141.70941 
L 115.970347 139.426807 
L 116.141446 121.458575 
L 116.198479 127.087303 
L 116.255512 141.879883 
L 116.312546 128.874768 
L 116.341062 129.909079 
L 116.398095 142.328382 
L 116.455129 133.208442 
L 116.483645 134.133913 
L 116.540678 142.239294 
L 116.597711 135.902469 
L 116.797327 142.431686 
L 116.854361 139.646231 
L 116.911394 142.103159 
L 116.93991 142.253464 
L 116.996943 140.703926 
L 117.02546 141.690743 
L 117.053977 142.493386 
L 117.11101 141.349046 
L 117.310626 142.541116 
L 117.339142 142.425685 
L 117.367659 142.136824 
L 117.424692 142.453829 
L 117.453209 142.58548 
L 117.481725 142.432039 
L 117.510242 142.303929 
L 117.538758 142.394691 
L 117.595792 142.596223 
L 117.652825 142.442852 
L 117.709858 142.628279 
L 117.795408 142.54451 
L 117.852441 142.658313 
L 117.937991 142.613505 
L 118.10909 142.691439 
L 118.451289 142.7625 
L 118.964587 142.867943 
L 124.411254 144.149981 
L 124.496803 143.080233 
L 124.582353 137.626797 
L 124.724936 119.124371 
L 124.753452 121.783343 
L 124.810486 143.44964 
L 124.867519 128.748274 
L 124.896035 127.44679 
L 124.953068 143.86493 
L 125.010102 132.554692 
L 125.038618 133.125532 
L 125.095651 144.247278 
L 125.152685 135.469619 
L 125.209718 144.504729 
L 125.323784 143.966704 
L 125.352301 143.792663 
L 125.380817 140.727606 
L 125.43785 143.639426 
L 125.466367 144.580331 
L 125.494883 142.516612 
L 125.5234 141.827946 
L 125.551917 143.57645 
L 125.580433 144.810811 
L 125.637466 142.79321 
L 125.694499 144.816529 
L 125.808566 144.759157 
L 125.837082 144.767303 
L 125.894116 144.1382 
L 125.922632 144.715685 
L 125.951149 144.937074 
L 125.979665 144.578305 
L 126.008182 144.404771 
L 126.036698 144.7108 
L 126.065215 144.990225 
L 126.122248 144.645173 
L 126.150765 144.757253 
L 126.207798 145.001739 
L 126.264831 144.83843 
L 126.321864 145.075852 
L 126.407414 145.01402 
L 126.549997 145.125398 
L 126.721096 145.198066 
L 126.863679 145.242638 
L 127.091812 145.332448 
L 128.489124 145.846035 
L 132.652544 147.559434 
L 133.707658 147.923345 
L 133.793207 147.604843 
L 133.878757 145.954829 
L 133.992823 136.051365 
L 134.10689 122.715165 
L 134.135406 123.975531 
L 134.220956 147.809644 
L 134.277989 131.851417 
L 134.306506 131.841007 
L 134.363539 146.939616 
L 134.420572 138.433807 
L 134.449089 136.447541 
L 134.477605 140.138093 
L 134.534638 147.132147 
L 134.563155 141.958726 
L 134.591672 140.239918 
L 134.620188 143.123431 
L 134.648705 147.730269 
L 134.705738 144.032492 
L 134.734254 143.087804 
L 134.762771 145.412461 
L 134.791288 148.288611 
L 134.848321 145.472936 
L 134.876837 145.12042 
L 134.93387 148.540709 
L 134.990904 146.535439 
L 135.01942 146.53096 
L 135.076453 148.653956 
L 135.133486 147.342713 
L 135.162003 147.428996 
L 135.219036 148.723268 
L 135.276069 147.900188 
L 135.304586 147.996136 
L 135.361619 148.784237 
L 135.418652 148.295423 
L 135.447169 148.350448 
L 135.504202 148.842354 
L 135.561235 148.563952 
L 135.589752 148.584825 
L 135.646785 148.899426 
L 135.703818 148.754238 
L 135.760851 148.859236 
L 135.817884 148.948889 
L 135.874917 148.878737 
L 136.074534 149.059474 
L 136.331183 149.160357 
L 137.243713 149.568556 
L 141.293067 151.211987 
L 141.378617 151.04177 
L 141.464167 150.078141 
L 141.549716 145.932 
L 141.749332 122.436772 
L 141.777849 125.356892 
L 141.834882 148.390062 
L 141.891915 135.594059 
L 141.920432 131.140937 
L 141.948948 133.73367 
L 142.005982 151.569958 
L 142.063015 137.53741 
L 142.091531 138.042581 
L 142.148564 151.550401 
L 142.205598 141.876701 
L 142.234114 142.171075 
L 142.291147 151.683317 
L 142.34818 144.83269 
L 142.376697 145.571225 
L 142.43373 151.715941 
L 142.490763 147.10917 
L 142.718896 151.727836 
L 142.775929 149.934019 
L 142.804446 150.622138 
L 142.861479 151.794617 
L 142.918512 150.735815 
L 143.004062 151.887256 
L 143.061095 151.247522 
L 143.146645 151.979577 
L 143.203678 151.5942 
L 143.289228 152.054306 
L 143.346261 151.824265 
L 143.574393 152.167228 
L 143.659943 152.107005 
L 143.68846 152.161657 
L 143.859559 152.254955 
L 144.201758 152.388676 
L 146.311985 153.112058 
L 148.76441 153.826927 
L 148.84996 153.69308 
L 148.93551 153.028105 
L 149.021059 150.018776 
L 149.163642 131.364991 
L 149.249192 122.173544 
L 149.277709 123.989669 
L 149.363258 152.505316 
L 149.420292 132.026308 
L 149.448808 132.436057 
L 149.505841 152.11917 
L 149.562874 139.963059 
L 149.591391 137.685183 
L 149.619908 142.070774 
L 149.676941 152.283896 
L 149.705457 144.910977 
L 149.733974 142.28717 
L 149.76249 145.719693 
L 149.819524 153.034486 
L 149.84804 147.82238 
L 149.876557 145.984478 
L 149.905073 148.756033 
L 149.93359 153.348953 
L 149.990623 149.899418 
L 150.01914 148.744916 
L 150.047656 150.87924 
L 150.076173 153.839396 
L 150.133206 151.401332 
L 150.161723 150.702492 
L 150.190239 152.273772 
L 150.218756 154.070921 
L 150.275789 152.458916 
L 150.304305 152.058689 
L 150.332822 153.073618 
L 150.361339 154.179942 
L 150.418372 153.229714 
L 150.446888 152.931429 
L 150.475405 153.540202 
L 150.503921 154.240534 
L 150.560955 153.739757 
L 150.589471 153.49896 
L 150.617988 153.842398 
L 150.675021 154.343742 
L 150.703538 154.066832 
L 150.732054 153.878923 
L 150.760571 154.035501 
L 150.817604 154.411055 
L 150.874637 154.131547 
L 151.131286 154.478532 
L 151.159803 154.427175 
L 151.216836 154.42453 
L 151.245353 154.488257 
L 151.444969 154.558358 
L 151.701618 154.604121 
L 152.072333 154.704248 
L 153.897394 155.092077 
L 156.17872 155.445925 
L 156.26427 155.237304 
L 156.34982 154.066103 
L 156.43537 148.957511 
L 156.634986 119.394446 
L 156.692019 129.319988 
L 156.749052 150.248004 
L 156.777568 134.421362 
L 156.806085 128.589487 
L 156.834602 131.529782 
L 156.891635 155.361361 
L 156.948668 135.070255 
L 157.005701 148.190589 
L 157.034218 154.819824 
L 157.062734 144.374091 
L 157.091251 140.045141 
L 157.119767 143.857998 
L 157.148284 153.430014 
L 157.205317 145.896523 
L 157.233834 144.504671 
L 157.290867 155.579789 
L 157.3479 147.760255 
L 157.404933 153.73143 
L 157.43345 155.33212 
L 157.461966 151.760058 
L 157.490483 150.060829 
L 157.518999 152.312417 
L 157.547516 155.396449 
L 157.604549 152.352045 
L 157.633066 152.263716 
L 157.690099 155.704251 
L 157.747132 153.323845 
L 157.946748 155.667731 
L 157.975265 155.563236 
L 158.032298 154.826875 
L 158.060814 155.339553 
L 158.089331 155.758771 
L 158.146364 155.204518 
L 158.174881 155.246631 
L 158.231914 155.783922 
L 158.288947 155.427012 
L 158.51708 155.82046 
L 158.545596 155.76369 
L 158.574113 155.691632 
L 158.631146 155.799913 
L 158.802245 155.861814 
L 159.058895 155.880765 
L 159.315544 155.92821 
L 160.456207 156.083736 
L 164.191878 156.465559 
L 164.277428 156.311456 
L 164.362978 155.478822 
L 164.448528 151.791837 
L 164.591111 129.905573 
L 164.67666 118.826144 
L 164.705177 120.733775 
L 164.790727 153.347486 
L 164.84776 129.036727 
L 164.876276 130.131249 
L 164.933309 156.241213 
L 164.990343 136.146776 
L 165.018859 135.851965 
L 165.075892 156.427012 
L 165.132926 140.826496 
L 165.161442 141.742988 
L 165.218475 156.407307 
L 165.275508 144.665813 
L 165.475124 156.105112 
L 165.503641 155.013207 
L 165.560674 151.125275 
L 165.589191 154.168235 
L 165.617707 156.579721 
L 165.67474 152.891064 
L 165.703257 153.348708 
L 165.76029 156.55837 
L 165.817323 154.114799 
L 166.016939 156.515164 
L 166.045456 156.50976 
L 166.102489 155.697566 
L 166.131006 156.105914 
L 166.159522 156.605975 
L 166.216555 156.178438 
L 166.245072 156.078922 
L 166.273589 156.345159 
L 166.302105 156.642485 
L 166.359138 156.381301 
L 166.387655 156.322026 
L 166.416171 156.478657 
L 166.444688 156.660402 
L 166.501721 156.521017 
L 166.530238 156.479369 
L 166.558754 156.557063 
L 166.615788 156.689281 
L 166.672821 156.580998 
L 166.92947 156.723879 
L 167.100569 156.744411 
L 167.328702 156.774813 
L 167.756451 156.830365 
L 171.919871 157.193398 
L 172.005421 156.825679 
L 172.09097 155.122325 
L 172.205037 145.207438 
L 172.376136 119.601361 
L 172.404653 120.516245 
L 172.490202 157.309081 
L 172.547236 131.108958 
L 172.575752 129.673048 
L 172.661302 154.594733 
L 172.718335 136.270567 
L 172.775368 149.239244 
L 172.803885 156.967123 
L 172.832401 147.358859 
L 172.860918 141.803729 
L 172.917951 151.588121 
L 172.946468 157.222489 
L 172.974984 150.788577 
L 173.003501 146.115744 
L 173.060534 153.682854 
L 173.089051 157.263905 
L 173.117567 152.918495 
L 173.146084 149.605891 
L 173.203117 155.106384 
L 173.231633 157.308682 
L 173.26015 154.514153 
L 173.288667 152.246632 
L 173.3457 155.98286 
L 173.374216 157.359791 
L 173.402733 155.699801 
L 173.431249 154.081404 
L 173.488283 156.470178 
L 173.516799 157.407072 
L 173.545316 156.482308 
L 173.573832 155.373126 
L 173.630865 156.738483 
L 173.659382 157.433301 
L 173.716415 156.258576 
L 173.744932 156.278677 
L 173.801965 157.432549 
L 173.858998 156.823289 
L 173.887515 156.711157 
L 173.916031 157.030208 
L 173.973064 157.434809 
L 174.001581 157.173358 
L 174.030098 157.028525 
L 174.058614 157.147201 
L 174.115647 157.49212 
L 174.17268 157.26013 
L 174.201197 157.256765 
L 174.25823 157.501743 
L 174.315263 157.416822 
L 174.34378 157.367442 
L 174.372296 157.422673 
L 174.42933 157.537878 
L 174.486363 157.468201 
L 175.25631 157.658263 
L 178.279068 158.110377 
L 179.134565 158.170812 
L 179.220115 157.94553 
L 179.305664 156.806944 
L 179.391214 152.170233 
L 179.619347 117.458104 
L 179.67638 125.218053 
L 179.733413 157.453336 
L 179.790446 128.840587 
L 179.818963 128.117155 
L 179.875996 153.824225 
L 179.933029 137.548462 
L 179.961546 134.21628 
L 179.990062 140.119071 
L 180.018579 154.137647 
L 180.075612 142.834419 
L 180.104128 139.933719 
L 180.132645 145.58458 
L 180.161162 156.350172 
L 180.218195 146.407415 
L 180.246711 145.035959 
L 180.303745 157.800922 
L 180.360778 149.450046 
L 180.389294 149.214542 
L 180.446327 158.285831 
L 180.503361 152.009106 
L 180.531877 152.396555 
L 180.58891 158.325391 
L 180.645943 153.991226 
L 180.874076 158.349487 
L 180.931109 156.613425 
L 180.988142 158.041201 
L 181.016659 158.39027 
L 181.045176 157.828124 
L 181.073692 157.335314 
L 181.130725 158.177638 
L 181.159242 158.433368 
L 181.187758 158.136939 
L 181.216275 157.799974 
L 181.273308 158.262346 
L 181.301825 158.464676 
L 181.358858 158.103814 
L 181.387374 158.122815 
L 181.444408 158.482698 
L 181.501441 158.310394 
L 181.529957 158.284223 
L 181.558474 158.373322 
L 181.615507 158.516656 
L 181.67254 158.404763 
L 181.986223 158.553205 
L 182.442488 158.681102 
L 183.012819 158.785421 
L 186.805524 159.420044 
L 186.891074 159.154174 
L 186.976624 157.773974 
L 187.062173 152.194118 
L 187.290306 115.611067 
L 187.347339 125.508651 
L 187.404372 153.893155 
L 187.432889 133.117277 
L 187.461405 126.325135 
L 187.518438 138.583995 
L 187.546955 159.084554 
L 187.603988 134.038749 
L 187.632505 133.686615 
L 187.689538 159.283871 
L 187.746571 139.313374 
L 187.775088 140.035786 
L 187.832121 159.264662 
L 187.889154 143.5961 
L 188.08877 158.606702 
L 188.117287 157.501243 
L 188.17432 151.635967 
L 188.202836 155.589205 
L 188.231353 159.519052 
L 188.288386 154.216206 
L 188.316903 154.6123 
L 188.373936 159.612707 
L 188.430969 155.962959 
L 188.659102 159.582811 
L 188.716135 158.18448 
L 188.744651 158.744514 
L 188.801684 159.644146 
L 188.830201 159.066223 
L 188.858718 158.808959 
L 188.887234 159.174662 
L 188.944267 159.714383 
L 188.972784 159.369249 
L 189.001301 159.2194 
L 189.029817 159.415963 
L 189.08685 159.780122 
L 189.143883 159.48267 
L 189.372016 159.877671 
L 189.457566 159.784858 
L 189.486082 159.855135 
L 189.628665 159.895955 
L 189.828281 159.985529 
L 192.024058 160.458119 
L 194.733132 160.975552 
L 194.818682 160.618119 
L 194.904232 159.007974 
L 195.018298 149.011047 
L 195.217914 115.751474 
L 195.274947 122.919088 
L 195.331981 160.754402 
L 195.389014 127.22242 
L 195.41753 126.395077 
L 195.50308 153.059867 
L 195.531597 136.823 
L 195.560113 133.168322 
L 195.58863 137.90924 
L 195.645663 156.948596 
L 195.67418 142.917579 
L 195.702696 139.212539 
L 195.731213 143.651592 
L 195.788246 157.527248 
L 195.816762 147.115177 
L 195.845279 144.35422 
L 195.873796 149.294095 
L 195.902312 159.462279 
L 195.959345 150.384969 
L 195.987862 148.944535 
L 196.044895 160.714659 
L 196.101928 153.183504 
L 196.130445 152.805036 
L 196.187478 161.105193 
L 196.244511 155.62337 
L 196.273028 155.769258 
L 196.330061 161.246166 
L 196.387094 157.584793 
L 196.415611 157.797076 
L 196.472644 161.302418 
L 196.529677 159.0089 
L 196.558193 159.084916 
L 196.615227 161.341201 
L 196.67226 159.957997 
L 196.700776 159.940801 
L 196.757809 161.375834 
L 196.814843 160.590939 
L 196.843359 160.51024 
L 196.900392 161.395486 
L 196.957425 161.022103 
L 196.985942 160.900879 
L 197.014459 161.130925 
L 197.071492 161.470211 
L 197.128525 161.178594 
L 197.385174 161.578604 
L 197.442207 161.499285 
L 197.49924 161.595005 
L 197.698857 161.672858 
L 197.955506 161.717264 
L 198.326221 161.82156 
L 201.662661 162.666217 
L 202.461125 162.796418 
L 202.546675 162.50047 
L 202.632224 161.11453 
L 202.746291 151.822981 
L 202.974423 113.76454 
L 203.00294 117.186371 
L 203.059973 150.063755 
L 203.117006 129.478341 
L 203.145523 124.440488 
L 203.174039 127.458144 
L 203.231072 162.129318 
L 203.288106 132.138697 
L 203.316622 133.492881 
L 203.373655 162.193597 
L 203.430688 138.010429 
L 203.459205 140.315178 
L 203.516238 160.892876 
L 203.573271 143.040381 
L 203.772887 162.34524 
L 203.829921 152.640128 
L 203.886954 158.323899 
L 203.91547 162.977858 
L 203.972503 155.372855 
L 204.058053 162.953905 
L 204.200636 162.878486 
L 204.257669 159.717155 
L 204.286186 160.833839 
L 204.343219 162.92458 
L 204.371736 161.579121 
L 204.400252 161.011217 
L 204.428769 161.839252 
L 204.485802 163.047716 
L 204.514318 162.222526 
L 204.542835 161.871833 
L 204.571352 162.418744 
L 204.628385 163.180167 
L 204.656901 162.677599 
L 204.685418 162.451489 
L 204.713934 162.771848 
L 204.770968 163.29261 
L 204.828001 162.845415 
L 204.91355 163.373613 
L 205.027617 163.334532 
L 205.056133 163.428488 
L 205.113167 163.295172 
L 205.141683 163.284198 
L 205.1702 163.385103 
L 205.227233 163.465166 
L 205.284266 163.388594 
L 205.512399 163.549966 
L 207.822241 164.103838 
L 210.616866 164.735322 
L 210.702416 164.426141 
L 210.787965 162.906986 
L 210.902032 152.436735 
L 211.130164 111.680979 
L 211.158681 115.610392 
L 211.215714 155.053499 
L 211.272747 125.323442 
L 211.301264 122.301982 
L 211.32978 128.052195 
L 211.386813 153.588534 
L 211.41533 133.186632 
L 211.443847 129.546563 
L 211.472363 135.907407 
L 211.50088 157.280451 
L 211.557913 137.03297 
L 211.58643 136.526399 
L 211.643463 164.278086 
L 211.700496 140.997012 
L 211.900112 164.493165 
L 211.928628 157.184398 
L 211.957145 150.772096 
L 212.014178 160.975938 
L 212.042695 163.690771 
L 212.071211 156.652868 
L 212.099728 154.298174 
L 212.128244 158.419177 
L 212.156761 164.547981 
L 212.213794 157.847801 
L 212.242311 158.158738 
L 212.299344 164.843945 
L 212.356377 159.76491 
L 212.555993 164.994678 
L 212.613026 162.927024 
L 212.670059 164.421598 
L 212.698576 165.055407 
L 212.727093 164.348548 
L 212.755609 163.642828 
L 212.812642 164.869709 
L 212.841159 165.071313 
L 212.869675 164.555385 
L 212.898192 164.233703 
L 212.926709 164.582219 
L 212.983742 165.115135 
L 213.040775 164.638582 
L 213.126325 165.176413 
L 213.154841 164.986226 
L 213.183358 164.904437 
L 213.211874 165.062182 
L 213.268908 165.236583 
L 213.297424 165.128684 
L 213.325941 165.070228 
L 213.354457 165.166185 
L 213.41149 165.282455 
L 213.468524 165.178003 
L 213.639623 165.277907 
L 213.839239 165.355091 
L 214.58067 165.468441 
L 216.177598 165.746629 
L 219.086289 166.154568 
L 219.171839 166.054917 
L 219.257389 165.551607 
L 219.342938 163.565634 
L 219.457005 152.755763 
L 219.685137 113.926293 
L 219.742171 122.103616 
L 219.799204 164.941301 
L 219.856237 126.762542 
L 219.884753 125.134162 
L 219.970303 156.995833 
L 219.99882 137.981579 
L 220.027336 132.149335 
L 220.055853 136.531392 
L 220.112886 163.314471 
L 220.169919 138.702048 
L 220.226952 155.02582 
L 220.255469 164.653482 
L 220.283986 150.559384 
L 220.312502 144.597286 
L 220.341019 147.845937 
L 220.398052 165.113511 
L 220.455085 149.85967 
L 220.683218 165.837661 
L 220.740251 157.976486 
L 220.797284 164.212268 
L 220.8258 166.077408 
L 220.854317 163.059377 
L 220.882834 160.758722 
L 220.939867 164.728797 
L 220.968383 166.193848 
L 220.9969 164.517917 
L 221.025417 162.808529 
L 221.08245 165.01966 
L 221.110966 166.219001 
L 221.167999 164.27075 
L 221.196516 164.194155 
L 221.253549 166.181707 
L 221.310582 165.249225 
L 221.339099 164.953336 
L 221.367615 165.461012 
L 221.424649 166.261469 
L 221.481682 165.531771 
L 221.709814 166.328649 
L 221.738331 166.361458 
L 221.766848 166.227322 
L 221.795364 166.130888 
L 221.852397 166.291811 
L 221.880914 166.376843 
L 221.937947 166.281715 
L 221.966464 166.230116 
L 222.023497 166.344463 
L 222.052013 166.383464 
L 222.109046 166.312251 
L 222.337179 166.351729 
L 222.593828 166.387205 
L 223.335259 166.424193 
L 226.871315 166.497458 
L 226.985381 166.023302 
L 227.070931 163.981659 
L 227.184997 152.161266 
L 227.41313 111.971265 
L 227.441646 114.642818 
L 227.49868 152.006814 
L 227.555713 126.818029 
L 227.584229 121.770113 
L 227.612746 126.758932 
L 227.669779 159.864563 
L 227.726812 128.985621 
L 227.926428 162.587827 
L 227.954945 154.516677 
L 228.011978 142.424067 
L 228.040494 153.283324 
L 228.069011 165.9283 
L 228.126044 146.57449 
L 228.32566 165.988241 
L 228.354177 161.474193 
L 228.382693 155.567055 
L 228.439727 162.705783 
L 228.468243 166.188062 
L 228.49676 161.184822 
L 228.525276 158.398307 
L 228.553793 160.605567 
L 228.610826 165.506996 
L 228.639343 161.908122 
L 228.667859 161.04894 
L 228.696376 163.455646 
L 228.724892 166.203431 
L 228.781925 163.063437 
L 228.810442 163.083251 
L 228.867475 166.338809 
L 228.924508 164.10301 
L 229.152641 166.373406 
L 229.209674 165.510933 
L 229.266707 166.314668 
L 229.295224 166.416358 
L 229.32374 166.111237 
L 229.352257 165.89164 
L 229.380774 166.080227 
L 229.437807 166.440278 
L 229.49484 166.113851 
L 229.58039 166.440063 
L 229.637423 166.240663 
L 229.865555 166.410863 
L 230.150721 166.387841 
L 230.49292 166.388338 
L 235.597387 166.086378 
L 235.682937 165.643859 
L 235.768487 163.443598 
L 235.882553 150.757462 
L 236.082169 111.110293 
L 236.139202 116.005599 
L 236.196236 164.524059 
L 236.253269 123.148559 
L 236.281785 121.585689 
L 236.338818 157.749445 
L 236.395852 130.626667 
L 236.424368 128.864127 
L 236.481401 164.58451 
L 236.538434 135.232984 
L 236.566951 137.130615 
L 236.623984 161.557388 
L 236.681017 140.378653 
L 236.73805 164.288537 
L 236.795084 145.933568 
L 236.8236 147.287815 
L 236.880633 164.740941 
L 236.937667 149.925663 
L 236.9947 165.112998 
L 237.051733 154.723898 
L 237.080249 155.098441 
L 237.137283 165.658465 
L 237.194316 157.244719 
L 237.251349 165.182116 
L 237.308382 160.637745 
L 237.336899 160.259099 
L 237.393932 165.851594 
L 237.450965 161.889218 
L 237.650581 165.805513 
L 237.736131 164.372983 
L 237.764647 165.310361 
L 237.793164 165.940083 
L 237.850197 164.936173 
L 238.07833 165.947462 
L 238.106846 165.725881 
L 238.135363 165.550614 
L 238.192396 165.885321 
L 238.220912 165.930034 
L 238.249429 165.798219 
L 238.277946 165.68918 
L 238.334979 165.894138 
L 238.363495 165.921929 
L 238.392012 165.844937 
L 238.420529 165.773373 
L 238.477562 165.890142 
L 238.648661 165.905968 
L 238.876794 165.868191 
L 239.304542 165.858061 
L 240.045973 165.811224 
L 244.551593 165.388216 
L 244.637142 164.92459 
L 244.722692 162.765645 
L 244.836758 150.812504 
L 245.064891 112.355864 
L 245.093408 115.535854 
L 245.150441 155.154337 
L 245.207474 126.516278 
L 245.23599 122.111855 
L 245.264507 127.461734 
L 245.32154 158.573884 
L 245.378573 129.324018 
L 245.578189 160.722886 
L 245.606706 155.908252 
L 245.663739 142.222761 
L 245.692256 151.635234 
L 245.720772 165.100895 
L 245.777805 147.066408 
L 245.806322 149.053073 
L 245.863355 164.16565 
L 245.920388 151.223381 
L 245.977421 163.818087 
L 246.034455 156.259336 
L 246.062971 155.490058 
L 246.120004 165.10924 
L 246.177037 158.386633 
L 246.205554 159.011645 
L 246.262587 165.081506 
L 246.31962 160.418712 
L 246.519236 164.993299 
L 246.547753 164.90366 
L 246.604786 163.270621 
L 246.633303 164.194347 
L 246.661819 165.162315 
L 246.718852 164.213442 
L 246.747369 164.043518 
L 246.804402 165.217639 
L 246.861435 164.604817 
L 246.889952 164.52092 
L 246.946985 165.224848 
L 247.004018 164.861714 
L 247.032535 164.798399 
L 247.061051 164.995281 
L 247.089568 165.211872 
L 247.146601 165.019488 
L 247.175118 164.964479 
L 247.203634 165.056509 
L 247.260667 165.216132 
L 247.317701 165.068397 
L 247.57435 165.196012 
L 247.716933 165.19738 
L 247.973582 165.161311 
L 248.287264 165.146519 
L 252.935466 164.789109 
L 253.078049 164.708793 
L 253.192115 164.199877 
L 253.277665 162.173172 
L 253.391731 150.917823 
L 253.619864 112.714837 
L 253.648381 115.209933 
L 253.705414 149.137623 
L 253.762447 128.71822 
L 253.790964 122.70374 
L 253.81948 126.271611 
L 253.876513 163.328617 
L 253.933546 130.326364 
L 253.962063 132.794347 
L 254.019096 163.400575 
L 254.076129 136.409058 
L 254.133162 153.927071 
L 254.161679 161.820765 
L 254.190196 146.74009 
L 254.218712 141.967362 
L 254.247229 147.448073 
L 254.275745 160.868968 
L 254.332779 149.284851 
L 254.361295 147.54205 
L 254.418328 164.076896 
L 254.475361 152.24793 
L 254.503878 152.717009 
L 254.560911 164.417453 
L 254.617944 155.349669 
L 254.703494 163.990191 
L 254.846077 163.823621 
L 254.90311 160.301311 
L 254.931627 162.072109 
L 254.960143 164.265452 
L 255.017176 162.214962 
L 255.045693 161.846833 
L 255.102726 164.413302 
L 255.159759 162.985191 
L 255.188276 162.867397 
L 255.245309 164.442722 
L 255.302342 163.559225 
L 255.330859 163.480549 
L 255.387892 164.450553 
L 255.444925 163.944047 
L 255.473442 163.865623 
L 255.530475 164.445008 
L 255.587508 164.190738 
L 255.616024 164.093073 
L 255.644541 164.249361 
L 255.701574 164.456802 
L 255.730091 164.339622 
L 255.758607 164.248616 
L 255.815641 164.427302 
L 255.844157 164.473946 
L 255.872674 164.420717 
L 255.90119 164.345422 
L 255.958223 164.414274 
L 256.015257 164.448086 
L 256.043773 164.398822 
L 256.243389 164.401512 
L 256.443005 164.416302 
L 256.89927 164.38042 
L 261.518956 163.862581 
L 261.604506 163.466006 
L 261.690055 161.829113 
L 261.804122 151.927106 
L 262.032254 112.338826 
L 262.089287 121.165105 
L 262.146321 159.330509 
L 262.203354 124.140337 
L 262.23187 124.175358 
L 262.288904 158.933576 
L 262.345937 132.821426 
L 262.374453 130.712412 
L 262.431486 160.583319 
L 262.48852 138.385004 
L 262.517036 137.453858 
L 262.574069 163.40049 
L 262.631102 142.97002 
L 262.659619 144.042299 
L 262.716652 163.22875 
L 262.773685 147.262628 
L 262.973301 162.726917 
L 263.001818 161.431688 
L 263.058851 155.346882 
L 263.087368 159.406252 
L 263.115884 163.477595 
L 263.172917 158.126437 
L 263.201434 158.352642 
L 263.258467 163.62413 
L 263.3155 159.874637 
L 263.40105 163.614813 
L 263.543633 163.58477 
L 263.600666 162.080815 
L 263.657699 163.322101 
L 263.686216 163.595447 
L 263.714732 163.104446 
L 263.743249 162.687178 
L 263.800282 163.428954 
L 263.828799 163.626527 
L 263.857315 163.358345 
L 263.885832 163.079631 
L 263.942865 163.48453 
L 263.971382 163.642294 
L 264.028415 163.334716 
L 264.056931 163.335124 
L 264.113964 163.640549 
L 264.170998 163.486794 
L 264.199514 163.447806 
L 264.228031 163.534026 
L 264.285064 163.62963 
L 264.31358 163.567568 
L 264.342097 163.514623 
L 264.39913 163.596933 
L 264.57023 163.605589 
L 266.309741 163.421385 
L 270.130962 162.950509 
L 270.216512 162.576497 
L 270.302062 160.783859 
L 270.416128 148.935802 
L 270.615744 110.590617 
L 270.672777 118.397781 
L 270.72981 155.210748 
L 270.758327 128.462848 
L 270.786843 120.210728 
L 270.81536 123.191508 
L 270.872393 160.24326 
L 270.929426 126.876153 
L 271.129042 162.482506 
L 271.186076 138.767928 
L 271.243109 159.238103 
L 271.300142 144.445507 
L 271.357175 155.364421 
L 271.385692 161.60133 
L 271.414208 151.091918 
L 271.442725 147.823515 
L 271.471241 153.700035 
L 271.499758 162.456456 
L 271.556791 151.724918 
L 271.756407 162.580057 
L 271.81344 156.978585 
L 271.841957 159.065799 
L 271.870473 162.368433 
L 271.927507 159.157797 
L 271.956023 159.295727 
L 272.013056 162.544607 
L 272.070089 160.104999 
L 272.127123 162.539998 
L 272.184156 161.072622 
L 272.212672 161.196562 
L 272.269705 162.588893 
L 272.326739 161.564213 
L 272.383772 162.583307 
L 272.440805 162.095432 
L 272.469322 162.034371 
L 272.526355 162.670174 
L 272.583388 162.260967 
L 272.81152 162.646866 
L 272.868554 162.50329 
L 272.925587 162.650145 
L 273.153719 162.580165 
L 273.324819 162.604165 
L 273.581468 162.569541 
L 274.06625 162.519421 
L 277.516756 162.099726 
L 279.655499 161.788754 
L 279.741049 161.520741 
L 279.826598 160.298871 
L 279.912148 155.531879 
L 280.083248 125.264289 
L 280.197314 113.05562 
L 280.22583 118.960738 
L 280.282864 160.850474 
L 280.339897 124.866724 
L 280.368413 123.560237 
L 280.453963 151.083143 
L 280.48248 133.655807 
L 280.510996 130.621118 
L 280.539513 136.479326 
L 280.568029 154.992972 
L 280.625063 138.809729 
L 280.653579 136.892375 
L 280.710612 160.171436 
L 280.767645 142.646171 
L 280.796162 143.166706 
L 280.853195 161.488946 
L 280.910228 146.60363 
L 281.109844 160.646848 
L 281.138361 159.672012 
L 281.195394 154.095683 
L 281.223911 157.77075 
L 281.252427 161.468721 
L 281.30946 156.575206 
L 281.337977 156.878599 
L 281.39501 161.498813 
L 281.452043 158.112049 
L 281.537593 161.394335 
L 281.680176 161.358171 
L 281.737209 160.107745 
L 281.765726 160.6256 
L 281.822759 161.406313 
L 281.851275 160.892334 
L 281.879792 160.672787 
L 281.908309 161.001503 
L 281.965342 161.475062 
L 281.993858 161.167784 
L 282.022375 161.018835 
L 282.050891 161.205314 
L 282.107925 161.506352 
L 282.136441 161.333728 
L 282.164958 161.217161 
L 282.193474 161.304804 
L 282.250507 161.515522 
L 282.307541 161.337004 
L 282.56419 161.481716 
L 282.64974 161.440119 
L 282.678256 161.468934 
L 283.020455 161.425716 
L 284.018535 161.283649 
L 288.666737 160.634381 
L 288.752287 160.117939 
L 288.837837 157.293595 
L 288.951903 140.319726 
L 289.123002 107.836366 
L 289.151519 112.893539 
L 289.208552 159.686175 
L 289.265585 118.087893 
L 289.294102 120.256367 
L 289.351135 156.458152 
L 289.408168 124.020299 
L 289.465201 157.750424 
L 289.579268 154.602043 
L 289.636301 135.785557 
L 289.664817 138.392717 
L 289.693334 154.290816 
L 289.778884 141.881749 
L 289.835917 155.965885 
L 289.89295 145.710995 
L 289.949983 157.924203 
L 290.007016 148.871327 
L 290.06405 159.066036 
L 290.121083 151.681577 
L 290.178116 159.762215 
L 290.235149 153.862395 
L 290.292182 160.094923 
L 290.349215 155.665041 
L 290.406248 160.237688 
L 290.491798 158.870885 
L 290.520315 160.282586 
L 290.577348 158.031423 
L 290.605865 159.090266 
L 290.634381 160.292214 
L 290.691414 158.768511 
L 290.719931 159.374871 
L 290.748447 160.289197 
L 290.833997 159.595523 
L 290.862514 160.277369 
L 290.948063 159.808401 
L 291.005097 160.372471 
L 291.06213 159.965105 
L 291.119163 160.388919 
L 291.176196 160.106248 
L 291.347296 160.347015 
L 291.375812 160.376667 
L 291.404329 160.298608 
L 291.432845 160.260641 
L 291.489878 160.366438 
L 291.689494 160.288997 
L 291.88911 160.297868 
L 292.202793 160.246563 
L 294.027854 159.981601 
L 299.303421 159.260444 
L 299.38897 158.761102 
L 299.47452 156.673715 
L 299.588586 145.661737 
L 299.788202 113.805957 
L 299.816719 116.090897 
L 299.902269 157.353805 
L 299.959302 125.929834 
L 299.987818 125.167989 
L 300.044852 152.361355 
L 300.101885 135.668709 
L 300.130401 131.576008 
L 300.158918 137.372668 
L 300.215951 154.91865 
L 300.244468 141.693741 
L 300.272984 137.656345 
L 300.301501 142.821077 
L 300.358534 155.939411 
L 300.38705 145.927987 
L 300.415567 142.864857 
L 300.444084 147.98543 
L 300.4726 157.456237 
L 300.529633 149.07814 
L 300.55815 147.495269 
L 300.586666 152.067947 
L 300.615183 158.558638 
L 300.672216 151.931188 
L 300.700733 151.199042 
L 300.757766 159.006361 
L 300.814799 154.147666 
L 300.843316 153.956684 
L 300.900349 159.094625 
L 300.957382 155.897809 
L 300.985899 155.79685 
L 301.042932 159.103285 
L 301.099965 157.086445 
L 301.128481 157.007443 
L 301.185515 159.094496 
L 301.242548 157.919227 
L 301.271064 157.793869 
L 301.328097 159.111278 
L 301.385131 158.470688 
L 301.413647 158.327384 
L 301.442164 158.719347 
L 301.47068 159.115212 
L 301.527714 158.820447 
L 301.55623 158.66684 
L 301.584747 158.833118 
L 301.64178 159.161071 
L 301.698813 158.875881 
L 301.955462 159.142292 
L 301.983979 159.087031 
L 302.041012 159.054599 
L 302.069528 159.099964 
L 302.183595 159.056597 
L 302.440244 159.069221 
L 302.896509 159.002704 
L 304.750087 158.776758 
L 307.630261 158.406677 
L 307.715811 157.973191 
L 307.80136 155.79229 
L 307.915427 142.274465 
L 308.086526 110.154831 
L 308.115043 112.159715 
L 308.200593 148.790987 
L 308.257626 120.543282 
L 308.314659 141.043181 
L 308.343175 152.624507 
L 308.371692 131.60907 
L 308.400209 127.516259 
L 308.428725 133.755531 
L 308.457242 154.444619 
L 308.514275 133.571048 
L 308.542791 134.987088 
L 308.599825 155.874878 
L 308.656858 137.915064 
L 308.713891 158.138951 
L 308.770924 142.438092 
L 308.97054 157.459802 
L 309.027573 149.62156 
L 309.05609 154.162576 
L 309.084606 158.26336 
L 309.14164 151.962589 
L 309.198673 157.919664 
L 309.312739 157.336686 
L 309.341256 157.98707 
L 309.398289 155.35278 
L 309.426805 156.977489 
L 309.455322 158.211124 
L 309.512355 156.341854 
L 309.711971 158.276471 
L 309.769004 157.467756 
L 309.797521 157.784123 
L 309.826037 158.240248 
L 309.883071 157.864205 
L 309.911587 157.818674 
L 309.96862 158.292316 
L 310.025653 157.972791 
L 310.22527 158.276881 
L 310.453402 158.180185 
L 310.510435 158.226792 
L 310.567468 158.169799 
L 310.824118 158.165433 
L 311.479999 158.084225 
L 315.586386 157.697741 
L 317.268864 157.493279 
L 317.354414 157.228181 
L 317.439963 156.103613 
L 317.525513 151.729662 
L 317.696613 123.985201 
L 317.782162 113.755371 
L 317.810679 116.401972 
L 317.896229 153.512825 
L 317.953262 125.21997 
L 317.981778 125.56054 
L 318.038812 154.550566 
L 318.095845 133.922248 
L 318.124361 131.618493 
L 318.181395 154.81632 
L 318.238428 139.392188 
L 318.266944 137.582141 
L 318.323977 156.542547 
L 318.381011 143.515828 
L 318.409527 142.886682 
L 318.46656 157.313453 
L 318.523593 146.836213 
L 318.55211 147.546831 
L 318.609143 157.362283 
L 318.666176 149.849247 
L 318.751726 157.197782 
L 318.894309 157.113723 
L 318.951342 154.068369 
L 318.979859 155.228801 
L 319.036892 157.118599 
L 319.065408 155.792561 
L 319.093925 155.308434 
L 319.122442 156.093453 
L 319.150958 157.220353 
L 319.207991 156.391544 
L 319.236508 156.1146 
L 319.265024 156.617836 
L 319.322058 157.318082 
L 319.350574 156.839521 
L 319.379091 156.639507 
L 319.407607 156.91238 
L 319.46464 157.391955 
L 319.493157 157.118235 
L 319.521674 156.948591 
L 319.55019 157.082641 
L 319.607223 157.413227 
L 319.664257 157.141493 
L 319.920906 157.3763 
L 319.977939 157.282967 
L 320.034972 157.350351 
L 320.234588 157.331908 
L 320.462721 157.28811 
L 321.004536 157.238332 
L 325.538671 156.841585 
L 325.624221 156.617688 
L 325.709771 155.572792 
L 325.795321 151.166322 
L 325.96642 121.886454 
L 326.05197 112.514609 
L 326.080486 116.733633 
L 326.137519 151.36296 
L 326.194553 126.146786 
L 326.223069 122.969704 
L 326.251586 128.028123 
L 326.308619 151.645198 
L 326.365652 129.983398 
L 326.565268 156.27758 
L 326.622301 140.621805 
L 326.679334 151.164368 
L 326.707851 156.053423 
L 326.736368 147.773085 
L 326.764884 144.461365 
L 326.793401 148.427391 
L 326.821917 155.848505 
L 326.87895 148.824635 
L 326.907467 148.564472 
L 326.9645 156.741803 
L 327.021533 150.665377 
L 327.221149 156.689955 
L 327.278183 154.168878 
L 327.335216 156.037265 
L 327.363732 156.693009 
L 327.392249 155.741719 
L 327.420765 154.980908 
L 327.449282 155.602178 
L 327.506315 156.624891 
L 327.534832 155.949015 
L 327.563348 155.69337 
L 327.591865 156.230715 
L 327.620382 156.753318 
L 327.677415 156.216728 
L 327.705931 156.151256 
L 327.762964 156.791772 
L 327.819998 156.407794 
L 327.848514 156.414512 
L 327.905547 156.78308 
L 327.96258 156.542196 
L 327.991097 156.557459 
L 328.04813 156.773264 
L 328.105163 156.620776 
L 328.789561 156.661421 
L 329.673575 156.566191 
L 333.694412 156.342084 
L 334.46436 156.227975 
L 334.54991 155.929 
L 334.635459 154.513744 
L 334.721009 148.718967 
L 334.949142 112.181077 
L 335.006175 123.767786 
L 335.063208 145.64206 
L 335.091725 127.509454 
L 335.120241 122.688241 
L 335.148758 126.269413 
L 335.205791 153.764163 
L 335.262824 129.686511 
L 335.46244 155.476555 
L 335.490957 148.436086 
L 335.519473 140.210507 
L 335.576506 150.727515 
L 335.605023 155.389757 
L 335.63354 147.040182 
L 335.662056 143.966708 
L 335.690573 148.295337 
L 335.719089 155.595352 
L 335.776123 148.002825 
L 335.804639 148.323085 
L 335.861672 156.010542 
L 335.918705 150.058758 
L 335.975739 155.846037 
L 336.032772 152.388832 
L 336.061288 152.477262 
L 336.118321 156.159649 
L 336.175355 153.424924 
L 336.260904 155.911544 
L 336.346454 155.435446 
L 336.374971 156.192292 
L 336.432004 155.165479 
L 336.46052 155.273019 
L 336.517554 156.227401 
L 336.574587 155.550124 
L 336.774203 156.206647 
L 336.831236 156.002241 
L 336.859752 155.966589 
L 336.888269 156.08928 
L 336.916786 156.209474 
L 336.973819 156.066579 
L 337.002335 156.051131 
L 337.030852 156.124415 
L 337.059369 156.189049 
L 337.116402 156.093063 
L 337.316018 156.116957 
L 337.487117 156.122278 
L 341.165756 155.921177 
L 343.418565 155.741888 
L 343.504115 155.353581 
L 343.589665 153.655803 
L 343.703731 143.515435 
L 343.903347 113.827222 
L 343.931864 117.995415 
L 343.988897 150.05327 
L 344.04593 128.174263 
L 344.074446 124.234994 
L 344.102963 128.003144 
L 344.159996 154.362576 
L 344.217029 131.407864 
L 344.245546 133.775163 
L 344.302579 154.549452 
L 344.359612 136.800964 
L 344.559228 154.834755 
L 344.587745 152.444541 
L 344.644778 145.999271 
L 344.673295 151.02801 
L 344.701811 155.774325 
L 344.758844 148.65454 
L 344.844394 155.594112 
L 344.986977 155.30119 
L 345.04401 152.586159 
L 345.072527 154.092095 
L 345.101043 155.676484 
L 345.158076 154.008845 
L 345.186593 153.81767 
L 345.243626 155.776429 
L 345.300659 154.609223 
L 345.329176 154.65941 
L 345.386209 155.818157 
L 345.443242 155.073259 
L 345.471759 155.142521 
L 345.528792 155.827377 
L 345.585825 155.356624 
L 345.642858 155.68963 
L 345.671375 155.813093 
L 345.699891 155.681967 
L 345.728408 155.534785 
L 345.785441 155.712028 
L 345.813958 155.797824 
L 345.870991 155.635128 
L 345.899507 155.623735 
L 345.928024 155.711838 
L 345.956541 155.770719 
L 346.013574 155.684151 
L 346.04209 155.658059 
L 346.099123 155.742603 
L 348.608582 155.620766 
L 351.945022 155.441082 
L 352.030571 154.940792 
L 352.116121 152.610062 
L 352.230187 139.415773 
L 352.401287 113.035234 
L 352.429804 115.990635 
L 352.486837 150.959004 
L 352.54387 125.818878 
L 352.572386 122.508648 
L 352.600903 128.892395 
L 352.657936 147.8853 
L 352.686453 133.000567 
L 352.714969 129.187336 
L 352.743486 136.676261 
L 352.772002 153.357587 
L 352.829036 136.153482 
L 352.857552 136.007444 
L 352.914585 155.170882 
L 352.971618 139.810802 
L 353.171235 155.402315 
L 353.228268 146.91886 
L 353.256784 149.650168 
L 353.285301 154.876815 
L 353.342334 150.229151 
L 353.370851 150.029129 
L 353.427884 155.477695 
L 353.484917 151.556999 
L 353.684533 155.518315 
L 353.741566 153.7879 
L 353.798599 155.338276 
L 353.827116 155.42096 
L 353.884149 154.472369 
L 353.912666 155.06386 
L 353.941182 155.554083 
L 353.998215 154.948675 
L 354.026732 154.960536 
L 354.083765 155.563853 
L 354.140798 155.140973 
L 354.368931 155.505253 
L 354.425964 155.359194 
L 354.482997 155.497602 
L 354.853713 155.430727 
L 355.195912 155.446339 
L 357.505754 155.400041 
L 360.100763 155.382098 
L 360.100763 155.382098 
" clip-path="url(#p50edd4d4ff)" style="fill: none; stroke: #008000; stroke-opacity: 0.8; stroke-width: 2; stroke-linecap: square"/>
   </g>
   <g id="line2d_63">
    <path d="M 74.934992 19.106225 
L 75.191642 52.187535 
L 75.277191 66.251564 
L 75.334224 61.77066 
L 75.505324 50.019511 
L 75.53384 50.248869 
L 75.647907 55.636929 
L 75.847523 67.465061 
L 75.876039 66.964845 
L 76.047139 63.315027 
L 76.075655 63.503985 
L 76.246755 67.747644 
L 76.360821 68.979229 
L 76.389338 68.886381 
L 76.503404 68.363738 
L 76.560437 68.477175 
L 76.87412 70.183086 
L 76.931153 70.168814 
L 77.016702 70.269646 
L 77.387418 70.967536 
L 78.242915 71.531767 
L 79.668744 71.930505 
L 82.263753 72.428425 
L 86.911955 73.048189 
L 97.291989 74.448821 
L 103.223437 75.155106 
L 107.814606 75.462521 
L 115.285949 75.643296 
L 132.053696 75.738224 
L 179.59083 75.788168 
L 179.818963 75.799092 
L 180.161162 75.817673 
L 186.577391 75.820177 
L 211.073131 75.725547 
L 211.130164 75.672599 
L 211.158681 75.717351 
L 211.244231 75.811638 
L 211.301264 75.75877 
L 211.529396 75.820631 
L 211.757529 75.823719 
L 216.006499 75.826011 
L 219.628104 75.73649 
L 219.713654 75.706163 
L 219.742171 75.749372 
L 219.799204 75.826758 
L 219.856237 75.773537 
L 220.055853 75.802733 
L 220.283986 75.82087 
L 220.854317 75.826086 
L 225.33142 75.828096 
L 227.32758 75.743607 
L 227.41313 75.649751 
L 227.441646 75.674946 
L 227.527196 75.818081 
L 227.555713 75.768954 
L 227.584229 75.73961 
L 227.641262 75.814539 
L 227.926428 75.827903 
L 228.724892 75.828599 
L 236.053653 75.676979 
L 236.082169 75.616473 
L 236.139202 75.68237 
L 236.196236 75.83081 
L 236.253269 75.745715 
L 236.338818 75.827671 
L 236.709534 75.820294 
L 237.051733 75.825831 
L 244.922308 75.794663 
L 245.064891 75.632846 
L 245.121924 75.767504 
L 245.178957 75.817985 
L 245.207474 75.764566 
L 245.23599 75.734735 
L 245.293024 75.818904 
L 245.606706 75.828643 
L 245.891872 75.827911 
L 247.146601 75.832924 
L 253.534314 75.734443 
L 253.619864 75.633344 
L 253.648381 75.66434 
L 253.73393 75.826303 
L 253.762447 75.776042 
L 253.790964 75.738812 
L 253.847997 75.812618 
L 254.019096 75.834629 
L 254.247229 75.823046 
L 254.589428 75.83274 
L 256.043773 75.835229 
L 261.946705 75.752366 
L 262.032254 75.619297 
L 262.060771 75.656477 
L 262.146321 75.835441 
L 262.203354 75.75201 
L 262.545553 75.82588 
L 262.859235 75.836505 
L 263.600666 75.836849 
L 270.501678 75.790182 
L 270.644261 75.592708 
L 270.672777 75.702318 
L 270.72981 75.837354 
L 270.786843 75.71955 
L 271.014976 75.834192 
L 271.186076 75.81442 
L 271.613824 75.839193 
L 280.054731 75.797129 
L 280.197314 75.633021 
L 280.22583 75.71153 
L 280.282864 75.843526 
L 280.339897 75.760852 
L 280.539513 75.813362 
L 280.710612 75.842813 
L 281.366494 75.84302 
L 285.81508 75.845839 
L 289.008936 75.774591 
L 289.123002 75.528612 
L 289.151519 75.634418 
L 289.208552 75.847587 
L 289.265585 75.704354 
L 289.493718 75.826841 
L 289.522235 75.794921 
L 289.835917 75.845262 
L 290.121083 75.841848 
L 290.948063 75.847519 
L 299.645619 75.819751 
L 299.816719 75.687209 
L 299.845235 75.754598 
L 299.902269 75.851221 
L 299.959302 75.778073 
L 300.158918 75.823976 
L 300.358534 75.85042 
L 300.700733 75.846745 
L 301.784363 75.852756 
L 308.000976 75.7674 
L 308.086526 75.589309 
L 308.115043 75.631065 
L 308.200593 75.847867 
L 308.257626 75.741162 
L 308.514275 75.817058 
L 309.711971 75.856137 
L 317.753646 75.690242 
L 317.782162 75.659802 
L 317.810679 75.698603 
L 317.896229 75.857201 
L 317.953262 75.782203 
L 318.723209 75.858848 
L 322.088166 75.861639 
L 325.96642 75.760956 
L 326.05197 75.643037 
L 326.080486 75.705678 
L 326.137519 75.859034 
L 326.194553 75.789822 
L 326.251586 75.799504 
L 326.280102 75.851434 
L 326.736368 75.856022 
L 327.306699 75.861947 
L 330.101324 75.86487 
L 334.863592 75.774364 
L 334.949142 75.641244 
L 334.977658 75.69122 
L 335.063208 75.856276 
L 335.091725 75.802171 
L 335.148758 75.793141 
L 335.177274 75.849196 
L 335.37689 75.842127 
L 335.690573 75.860111 
L 336.232388 75.866882 
L 343.817797 75.773738 
L 343.903347 75.673904 
L 343.931864 75.728827 
L 344.017413 75.857204 
L 344.04593 75.809543 
L 344.102963 75.808146 
L 344.13148 75.854534 
L 344.331096 75.854489 
L 344.559228 75.869955 
L 346.441322 75.871509 
L 352.315737 75.772373 
L 352.401287 75.666552 
L 352.429804 75.711494 
L 352.486837 75.871726 
L 352.54387 75.801614 
L 352.572386 75.774619 
L 352.62942 75.866726 
L 354.368931 75.874957 
L 360.100763 75.878284 
L 360.100763 75.878284 
" clip-path="url(#p50edd4d4ff)" style="fill: none; stroke: #bfbf00; stroke-opacity: 0.8; stroke-width: 2; stroke-linecap: square"/>
   </g>
   <g id="patch_3">
    <path d="M 60.676704 193.536948 
L 60.676704 10.8 
" style="fill: none; stroke: #000000; stroke-width: 0.8; stroke-linejoin: miter; stroke-linecap: square"/>
   </g>
   <g id="patch_4">
    <path d="M 374.359051 193.536948 
L 374.359051 10.8 
" style="fill: none; stroke: #000000; stroke-width: 0.8; stroke-linejoin: miter; stroke-linecap: square"/>
   </g>
   <g id="patch_5">
    <path d="M 60.676704 193.536948 
L 374.359051 193.536948 
" style="fill: none; stroke: #000000; stroke-width: 0.8; stroke-linejoin: miter; stroke-linecap: square"/>
   </g>
   <g id="patch_6">
    <path d="M 60.676704 10.8 
L 374.359051 10.8 
" style="fill: none; stroke: #000000; stroke-width: 0.8; stroke-linejoin: miter; stroke-linecap: square"/>
   </g>
   <g id="legend_1">
    <g id="line2d_64">
     <path d="M 307.164632 28.3 
L 321.164632 28.3 
L 335.164632 28.3 
" style="fill: none; stroke: #008000; stroke-opacity: 0.8; stroke-width: 2; stroke-linecap: square"/>
    </g>
    <g id="text_15">
     <!-- $\mathcal{L}_f$ -->
     <g transform="translate(346.364632 33.2) scale(0.14 -0.14)">
      <defs>
       <path id="CMMI12-66" d="M 2854 2566 
C 2982 2566 3034 2566 3034 2688 
C 3034 2752 2982 2752 2867 2752 
L 2349 2752 
C 2470 3429 2560 3897 2611 4107 
C 2650 4265 2784 4416 2950 4416 
C 3085 4416 3219 4358 3283 4298 
C 3034 4272 2957 4082 2957 3969 
C 2957 3837 3053 3759 3174 3759 
C 3302 3759 3494 3870 3494 4119 
C 3494 4393 3226 4544 2944 4544 
C 2669 4544 2400 4334 2272 4078 
C 2157 3848 2093 3611 1946 2752 
L 1517 2752 
C 1395 2752 1331 2752 1331 2637 
C 1331 2566 1370 2566 1498 2566 
L 1907 2566 
C 1792 1976 1530 542 1382 -137 
C 1274 -689 1178 -1152 858 -1152 
C 838 -1152 653 -1152 538 -1031 
C 864 -1005 864 -726 864 -720 
C 864 -593 768 -517 646 -517 
C 518 -517 326 -625 326 -867 
C 326 -1140 608 -1280 858 -1280 
C 1510 -1280 1779 -118 1850 199 
C 1965 688 2278 2376 2310 2566 
L 2854 2566 
z
" transform="scale(0.015625)"/>
      </defs>
      <use xlink:href="#CMSY10-4c" transform="scale(0.996264)"/>
      <use xlink:href="#CMMI12-66" transform="translate(68.714808 -14.943915) scale(0.697382)"/>
     </g>
    </g>
    <g id="line2d_65">
     <path d="M 307.164632 49.090574 
L 321.164632 49.090574 
L 335.164632 49.090574 
" style="fill: none; stroke: #bfbf00; stroke-opacity: 0.8; stroke-width: 2; stroke-linecap: square"/>
    </g>
    <g id="text_16">
     <!-- $\mathcal{L}_u$ -->
     <g transform="translate(346.364632 53.990574) scale(0.14 -0.14)">
      <defs>
       <path id="CMMI12-75" d="M 2182 370 
C 2266 13 2573 -64 2726 -64 
C 2931 -64 3085 70 3187 287 
C 3296 517 3379 894 3379 913 
C 3379 945 3354 971 3315 971 
C 3258 971 3251 939 3226 843 
C 3110 402 2995 64 2739 64 
C 2547 64 2547 275 2547 358 
C 2547 505 2566 568 2630 837 
C 2675 1009 2720 1181 2758 1360 
L 3021 2401 
C 3066 2561 3066 2574 3066 2593 
C 3066 2689 2989 2753 2893 2753 
C 2707 2753 2662 2593 2624 2433 
C 2560 2184 2214 811 2170 588 
C 2163 588 1914 64 1446 64 
C 1114 64 1050 351 1050 588 
C 1050 952 1229 1462 1395 1890 
C 1472 2095 1504 2178 1504 2305 
C 1504 2580 1306 2816 998 2816 
C 410 2816 173 1890 173 1839 
C 173 1814 198 1782 243 1782 
C 301 1782 307 1807 333 1896 
C 486 2441 736 2682 979 2682 
C 1043 2682 1146 2682 1146 2478 
C 1146 2312 1075 2127 979 1884 
C 698 1124 666 881 666 690 
C 666 38 1158 -64 1421 -64 
C 1830 -64 2054 217 2182 370 
z
" transform="scale(0.015625)"/>
      </defs>
      <use xlink:href="#CMSY10-4c" transform="scale(0.996264)"/>
      <use xlink:href="#CMMI12-75" transform="translate(68.714808 -14.943915) scale(0.697382)"/>
     </g>
    </g>
   </g>
  </g>
 </g>
 <defs>
  <clipPath id="p50edd4d4ff">
   <rect x="60.676704" y="10.8" width="313.682347" height="182.736948"/>
  </clipPath>
 </defs>
</svg>
