<?xml version="1.0" encoding="utf-8" standalone="no"?>
<!DOCTYPE svg PUBLIC "-//W3C//DTD SVG 1.1//EN"
  "http://www.w3.org/Graphics/SVG/1.1/DTD/svg11.dtd">
<svg xmlns:xlink="http://www.w3.org/1999/xlink" width="388.542964pt" height="240.132758pt" viewBox="0 0 388.542964 240.132758" xmlns="http://www.w3.org/2000/svg" version="1.1">
 <metadata>
  <rdf:RDF xmlns:dc="http://purl.org/dc/elements/1.1/" xmlns:cc="http://creativecommons.org/ns#" xmlns:rdf="http://www.w3.org/1999/02/22-rdf-syntax-ns#">
   <cc:Work>
    <dc:type rdf:resource="http://purl.org/dc/dcmitype/StillImage"/>
    <dc:date>2024-12-04T09:39:36.721541</dc:date>
    <dc:format>image/svg+xml</dc:format>
    <dc:creator>
     <cc:Agent>
      <dc:title>Matplotlib v3.7.5, https://matplotlib.org/</dc:title>
     </cc:Agent>
    </dc:creator>
   </cc:Work>
  </rdf:RDF>
 </metadata>
 <defs>
  <style type="text/css">*{stroke-linejoin: round; stroke-linecap: butt}</style>
 </defs>
 <g id="figure_1">
  <g id="patch_1">
   <path d="M 0 240.132758 
L 388.542964 240.132758 
L 388.542964 0 
L 0 0 
z
" style="fill: #ffffff"/>
  </g>
  <g id="axes_1">
   <g id="patch_2">
    <path d="M 52.872109 193.536948 
L 374.331674 193.536948 
L 374.331674 10.8 
L 52.872109 10.8 
z
" style="fill: #ffffff"/>
   </g>
   <g id="matplotlib.axis_1">
    <g id="xtick_1">
     <g id="line2d_1">
      <defs>
       <path id="m319bcb3fdb" d="M 0 0 
L 0 3.5 
" style="stroke: #000000; stroke-width: 0.8"/>
      </defs>
      <g>
       <use xlink:href="#m319bcb3fdb" x="67.483907" y="193.536948" style="stroke: #000000; stroke-width: 0.8"/>
      </g>
     </g>
     <g id="text_1">
      <!-- $\mathdefault{0}$ -->
      <g transform="translate(64.069663 210.222825) scale(0.14 -0.14)">
       <defs>
        <path id="CMR17-30" d="M 2688 2025 
C 2688 2416 2682 3080 2413 3591 
C 2176 4039 1798 4198 1466 4198 
C 1158 4198 768 4058 525 3597 
C 269 3118 243 2524 243 2025 
C 243 1661 250 1106 448 619 
C 723 -39 1216 -128 1466 -128 
C 1760 -128 2208 -7 2470 600 
C 2662 1042 2688 1559 2688 2025 
z
M 1466 -26 
C 1056 -26 813 325 723 812 
C 653 1188 653 1738 653 2096 
C 653 2588 653 2997 736 3387 
C 858 3929 1216 4096 1466 4096 
C 1728 4096 2067 3923 2189 3400 
C 2272 3036 2278 2607 2278 2096 
C 2278 1680 2278 1169 2202 792 
C 2067 95 1690 -26 1466 -26 
z
" transform="scale(0.015625)"/>
       </defs>
       <use xlink:href="#CMR17-30" transform="scale(0.996264)"/>
      </g>
     </g>
    </g>
    <g id="xtick_2">
     <g id="line2d_2">
      <g>
       <use xlink:href="#m319bcb3fdb" x="125.936946" y="193.536948" style="stroke: #000000; stroke-width: 0.8"/>
      </g>
     </g>
     <g id="text_2">
      <!-- $\mathdefault{2000}$ -->
      <g transform="translate(112.279969 210.222825) scale(0.14 -0.14)">
       <defs>
        <path id="CMR17-32" d="M 2669 989 
L 2554 989 
C 2490 536 2438 459 2413 420 
C 2381 369 1920 369 1830 369 
L 602 369 
C 832 619 1280 1072 1824 1597 
C 2214 1967 2669 2402 2669 3035 
C 2669 3790 2067 4224 1395 4224 
C 691 4224 262 3604 262 3030 
C 262 2780 448 2748 525 2748 
C 589 2748 781 2787 781 3010 
C 781 3207 614 3264 525 3264 
C 486 3264 448 3258 422 3245 
C 544 3790 915 4058 1306 4058 
C 1862 4058 2227 3617 2227 3035 
C 2227 2479 1901 2000 1536 1584 
L 262 146 
L 262 0 
L 2515 0 
L 2669 989 
z
" transform="scale(0.015625)"/>
       </defs>
       <use xlink:href="#CMR17-32" transform="scale(0.996264)"/>
       <use xlink:href="#CMR17-30" transform="translate(45.690477 0) scale(0.996264)"/>
       <use xlink:href="#CMR17-30" transform="translate(91.380954 0) scale(0.996264)"/>
       <use xlink:href="#CMR17-30" transform="translate(137.071431 0) scale(0.996264)"/>
      </g>
     </g>
    </g>
    <g id="xtick_3">
     <g id="line2d_3">
      <g>
       <use xlink:href="#m319bcb3fdb" x="184.389985" y="193.536948" style="stroke: #000000; stroke-width: 0.8"/>
      </g>
     </g>
     <g id="text_3">
      <!-- $\mathdefault{4000}$ -->
      <g transform="translate(170.733008 210.222825) scale(0.14 -0.14)">
       <defs>
        <path id="CMR17-34" d="M 2150 4122 
C 2150 4256 2144 4256 2029 4256 
L 128 1254 
L 128 1088 
L 1779 1088 
L 1779 457 
C 1779 224 1766 160 1318 160 
L 1197 160 
L 1197 0 
C 1402 0 1747 0 1965 0 
C 2182 0 2528 0 2733 0 
L 2733 160 
L 2611 160 
C 2163 160 2150 224 2150 457 
L 2150 1088 
L 2803 1088 
L 2803 1254 
L 2150 1254 
L 2150 4122 
z
M 1798 3703 
L 1798 1254 
L 256 1254 
L 1798 3703 
z
" transform="scale(0.015625)"/>
       </defs>
       <use xlink:href="#CMR17-34" transform="scale(0.996264)"/>
       <use xlink:href="#CMR17-30" transform="translate(45.690477 0) scale(0.996264)"/>
       <use xlink:href="#CMR17-30" transform="translate(91.380954 0) scale(0.996264)"/>
       <use xlink:href="#CMR17-30" transform="translate(137.071431 0) scale(0.996264)"/>
      </g>
     </g>
    </g>
    <g id="xtick_4">
     <g id="line2d_4">
      <g>
       <use xlink:href="#m319bcb3fdb" x="242.843024" y="193.536948" style="stroke: #000000; stroke-width: 0.8"/>
      </g>
     </g>
     <g id="text_4">
      <!-- $\mathdefault{6000}$ -->
      <g transform="translate(229.186047 210.222825) scale(0.14 -0.14)">
       <defs>
        <path id="CMR17-36" d="M 678 2176 
C 678 3690 1395 4032 1811 4032 
C 1946 4032 2272 4009 2400 3776 
C 2298 3776 2106 3776 2106 3553 
C 2106 3381 2246 3323 2336 3323 
C 2394 3323 2566 3348 2566 3560 
C 2566 3954 2246 4179 1805 4179 
C 1043 4179 243 3390 243 1984 
C 243 253 966 -128 1478 -128 
C 2099 -128 2688 427 2688 1283 
C 2688 2081 2170 2662 1517 2662 
C 1126 2662 838 2407 678 1960 
L 678 2176 
z
M 1478 25 
C 691 25 691 1200 691 1436 
C 691 1896 909 2560 1504 2560 
C 1613 2560 1926 2560 2138 2120 
C 2253 1870 2253 1609 2253 1289 
C 2253 944 2253 690 2118 434 
C 1978 171 1773 25 1478 25 
z
" transform="scale(0.015625)"/>
       </defs>
       <use xlink:href="#CMR17-36" transform="scale(0.996264)"/>
       <use xlink:href="#CMR17-30" transform="translate(45.690477 0) scale(0.996264)"/>
       <use xlink:href="#CMR17-30" transform="translate(91.380954 0) scale(0.996264)"/>
       <use xlink:href="#CMR17-30" transform="translate(137.071431 0) scale(0.996264)"/>
      </g>
     </g>
    </g>
    <g id="xtick_5">
     <g id="line2d_5">
      <g>
       <use xlink:href="#m319bcb3fdb" x="301.296063" y="193.536948" style="stroke: #000000; stroke-width: 0.8"/>
      </g>
     </g>
     <g id="text_5">
      <!-- $\mathdefault{8000}$ -->
      <g transform="translate(287.639086 210.222825) scale(0.14 -0.14)">
       <defs>
        <path id="CMR17-38" d="M 1741 2264 
C 2144 2467 2554 2773 2554 3263 
C 2554 3841 1990 4179 1472 4179 
C 890 4179 378 3759 378 3180 
C 378 3021 416 2747 666 2505 
C 730 2442 998 2251 1171 2130 
C 883 1983 211 1634 211 934 
C 211 279 838 -128 1459 -128 
C 2144 -128 2720 362 2720 1010 
C 2720 1590 2330 1857 2074 2029 
L 1741 2264 
z
M 902 2822 
C 851 2854 595 3051 595 3351 
C 595 3739 998 4032 1459 4032 
C 1965 4032 2336 3676 2336 3262 
C 2336 2669 1670 2331 1638 2331 
C 1632 2331 1626 2331 1574 2370 
L 902 2822 
z
M 2080 1519 
C 2176 1449 2483 1240 2483 851 
C 2483 381 2010 25 1472 25 
C 890 25 448 438 448 940 
C 448 1443 838 1862 1280 2060 
L 2080 1519 
z
" transform="scale(0.015625)"/>
       </defs>
       <use xlink:href="#CMR17-38" transform="scale(0.996264)"/>
       <use xlink:href="#CMR17-30" transform="translate(45.690477 0) scale(0.996264)"/>
       <use xlink:href="#CMR17-30" transform="translate(91.380954 0) scale(0.996264)"/>
       <use xlink:href="#CMR17-30" transform="translate(137.071431 0) scale(0.996264)"/>
      </g>
     </g>
    </g>
    <g id="xtick_6">
     <g id="line2d_6">
      <g>
       <use xlink:href="#m319bcb3fdb" x="359.749102" y="193.536948" style="stroke: #000000; stroke-width: 0.8"/>
      </g>
     </g>
     <g id="text_6">
      <!-- $\mathdefault{10000}$ -->
      <g transform="translate(342.67788 210.222825) scale(0.14 -0.14)">
       <defs>
        <path id="CMR17-31" d="M 1702 4058 
C 1702 4192 1696 4192 1606 4192 
C 1357 3916 979 3827 621 3827 
C 602 3827 570 3827 563 3808 
C 557 3795 557 3782 557 3648 
C 755 3648 1088 3686 1344 3839 
L 1344 461 
C 1344 236 1331 160 781 160 
L 589 160 
L 589 0 
C 896 0 1216 0 1523 0 
C 1830 0 2150 0 2458 0 
L 2458 160 
L 2266 160 
C 1715 160 1702 230 1702 458 
L 1702 4058 
z
" transform="scale(0.015625)"/>
       </defs>
       <use xlink:href="#CMR17-31" transform="scale(0.996264)"/>
       <use xlink:href="#CMR17-30" transform="translate(45.690477 0) scale(0.996264)"/>
       <use xlink:href="#CMR17-30" transform="translate(91.380954 0) scale(0.996264)"/>
       <use xlink:href="#CMR17-30" transform="translate(137.071431 0) scale(0.996264)"/>
       <use xlink:href="#CMR17-30" transform="translate(182.761908 0) scale(0.996264)"/>
      </g>
     </g>
    </g>
    <g id="text_7">
     <!-- Iteration -->
     <g transform="translate(187.618116 226.620729) scale(0.14 -0.14)">
      <defs>
       <path id="CMR17-49" d="M 1261 3905 
C 1261 4192 1338 4192 1798 4192 
L 1798 4352 
C 1594 4352 1267 4352 1050 4352 
C 832 4352 506 4352 301 4352 
L 301 4192 
C 762 4192 838 4192 838 3905 
L 838 447 
C 838 160 762 160 301 160 
L 301 0 
C 506 0 832 0 1050 0 
C 1267 0 1594 0 1798 0 
L 1798 160 
C 1338 160 1261 160 1261 447 
L 1261 3905 
z
" transform="scale(0.015625)"/>
       <path id="CMR17-74" d="M 966 2560 
L 1862 2560 
L 1862 2725 
L 966 2725 
L 966 3904 
L 851 3904 
C 838 3245 614 2668 70 2668 
L 70 2560 
L 627 2560 
L 627 771 
C 627 650 627 -64 1370 -64 
C 1747 -64 1965 306 1965 777 
L 1965 1140 
L 1850 1140 
L 1850 783 
C 1850 344 1677 51 1408 51 
C 1222 51 966 178 966 758 
L 966 2560 
z
" transform="scale(0.015625)"/>
       <path id="CMR17-65" d="M 2438 1472 
C 2464 1498 2464 1511 2464 1576 
C 2464 2238 2118 2816 1389 2816 
C 710 2816 173 2169 173 1383 
C 173 551 781 -64 1459 -64 
C 2176 -64 2458 607 2458 740 
C 2458 784 2419 784 2406 784 
C 2362 784 2355 771 2330 696 
C 2189 265 1837 51 1504 51 
C 1229 51 954 203 781 480 
C 582 803 582 1176 582 1472 
L 2438 1472 
z
M 589 1568 
C 634 2505 1126 2714 1382 2714 
C 1818 2714 2112 2297 2118 1568 
L 589 1568 
z
" transform="scale(0.015625)"/>
       <path id="CMR17-72" d="M 960 1497 
C 960 2112 1222 2688 1702 2688 
C 1747 2688 1792 2682 1837 2662 
C 1837 2662 1696 2617 1696 2452 
C 1696 2298 1818 2234 1914 2234 
C 1990 2234 2131 2279 2131 2458 
C 2131 2663 1926 2790 1709 2790 
C 1222 2790 1011 2317 947 2093 
L 941 2093 
L 941 2790 
L 198 2720 
L 198 2554 
C 576 2554 634 2515 634 2208 
L 634 428 
C 634 184 608 153 198 153 
L 198 -13 
C 352 0 646 0 813 0 
C 998 0 1325 0 1498 -13 
L 1498 153 
C 1037 153 960 153 960 440 
L 960 1497 
z
" transform="scale(0.015625)"/>
       <path id="CMR17-61" d="M 2304 1653 
C 2304 2072 2304 2294 2035 2543 
C 1798 2752 1523 2816 1306 2816 
C 800 2816 435 2407 435 1971 
C 435 1728 627 1728 666 1728 
C 749 1728 896 1778 896 1954 
C 896 2112 774 2181 666 2181 
C 640 2181 608 2174 589 2168 
C 723 2592 1069 2714 1293 2714 
C 1613 2714 1965 2429 1965 1885 
L 1965 1600 
C 1587 1600 1133 1549 774 1357 
C 371 1133 256 813 256 570 
C 256 77 832 -64 1171 -64 
C 1523 -64 1850 139 1990 511 
C 2003 233 2182 -18 2464 -18 
C 2598 -18 2938 70 2938 567 
L 2938 920 
L 2822 920 
L 2822 562 
C 2822 178 2650 128 2566 128 
C 2304 128 2304 458 2304 738 
L 2304 1653 
z
M 1965 870 
C 1965 317 1568 38 1216 38 
C 896 38 646 275 646 570 
C 646 761 730 1100 1101 1305 
C 1408 1478 1760 1504 1965 1504 
L 1965 870 
z
" transform="scale(0.015625)"/>
       <path id="CMR17-69" d="M 992 3909 
C 992 4049 877 4170 730 4170 
C 589 4170 467 4056 467 3909 
C 467 3769 582 3648 730 3648 
C 870 3648 992 3763 992 3909 
z
M 243 2706 
L 243 2541 
C 602 2541 653 2502 653 2197 
L 653 427 
C 653 184 627 153 218 153 
L 218 -13 
C 371 0 646 0 806 0 
C 960 0 1222 0 1370 -13 
L 1370 153 
C 992 153 979 191 979 420 
L 979 2776 
L 243 2706 
z
" transform="scale(0.015625)"/>
       <path id="CMR17-6f" d="M 2758 1356 
C 2758 2176 2163 2816 1466 2816 
C 768 2816 173 2176 173 1356 
C 173 551 768 -64 1466 -64 
C 2163 -64 2758 551 2758 1356 
z
M 1466 51 
C 1165 51 909 230 762 480 
C 602 767 582 1126 582 1408 
C 582 1677 595 2010 762 2298 
C 890 2509 1139 2714 1466 2714 
C 1754 2714 1997 2554 2150 2330 
C 2349 2029 2349 1607 2349 1408 
C 2349 1158 2336 775 2163 467 
C 1984 173 1709 51 1466 51 
z
" transform="scale(0.015625)"/>
       <path id="CMR17-6e" d="M 2656 1933 
C 2656 2259 2592 2790 1837 2790 
C 1331 2790 1069 2400 973 2144 
L 966 2144 
L 966 2790 
L 211 2720 
L 211 2554 
C 589 2554 646 2515 646 2208 
L 646 428 
C 646 184 621 153 211 153 
L 211 -13 
C 365 0 646 0 813 0 
C 979 0 1267 0 1421 -13 
L 1421 153 
C 1011 153 986 178 986 428 
L 986 1658 
C 986 2247 1344 2688 1792 2688 
C 2266 2688 2317 2266 2317 1958 
L 2317 428 
C 2317 184 2291 153 1882 153 
L 1882 -13 
C 2035 0 2317 0 2483 0 
C 2650 0 2938 0 3091 -13 
L 3091 153 
C 2682 153 2656 178 2656 428 
L 2656 1933 
z
" transform="scale(0.015625)"/>
      </defs>
      <use xlink:href="#CMR17-49" transform="scale(0.996264)"/>
      <use xlink:href="#CMR17-74" transform="translate(32.638409 0) scale(0.996264)"/>
      <use xlink:href="#CMR17-65" transform="translate(67.919177 0) scale(0.996264)"/>
      <use xlink:href="#CMR17-72" transform="translate(108.404837 0) scale(0.996264)"/>
      <use xlink:href="#CMR17-61" transform="translate(143.685605 0) scale(0.996264)"/>
      <use xlink:href="#CMR17-74" transform="translate(189.376082 0) scale(0.996264)"/>
      <use xlink:href="#CMR17-69" transform="translate(224.65685 0) scale(0.996264)"/>
      <use xlink:href="#CMR17-6f" transform="translate(249.527909 0) scale(0.996264)"/>
      <use xlink:href="#CMR17-6e" transform="translate(295.218386 0) scale(0.996264)"/>
     </g>
    </g>
   </g>
   <g id="matplotlib.axis_2">
    <g id="ytick_1">
     <g id="line2d_7">
      <defs>
       <path id="m7b0c6a3446" d="M 0 0 
L -3.5 0 
" style="stroke: #000000; stroke-width: 0.8"/>
      </defs>
      <g>
       <use xlink:href="#m7b0c6a3446" x="52.872109" y="87.3163" style="stroke: #000000; stroke-width: 0.8"/>
      </g>
     </g>
     <g id="text_8">
      <!-- $\mathdefault{10^{2}}$ -->
      <g transform="translate(27.197905 92.159239) scale(0.14 -0.14)">
       <use xlink:href="#CMR17-31" transform="scale(0.996264)"/>
       <use xlink:href="#CMR17-30" transform="translate(45.690477 0) scale(0.996264)"/>
       <use xlink:href="#CMR17-32" transform="translate(91.380954 36.153639) scale(0.697382)"/>
      </g>
     </g>
    </g>
    <g id="ytick_2">
     <g id="line2d_8">
      <defs>
       <path id="m2238c11d93" d="M 0 0 
L -2 0 
" style="stroke: #000000; stroke-width: 0.6"/>
      </defs>
      <g>
       <use xlink:href="#m2238c11d93" x="52.872109" y="175.926463" style="stroke: #000000; stroke-width: 0.6"/>
      </g>
     </g>
    </g>
    <g id="ytick_3">
     <g id="line2d_9">
      <g>
       <use xlink:href="#m2238c11d93" x="52.872109" y="154.753597" style="stroke: #000000; stroke-width: 0.6"/>
      </g>
     </g>
    </g>
    <g id="ytick_4">
     <g id="line2d_10">
      <g>
       <use xlink:href="#m2238c11d93" x="52.872109" y="138.330646" style="stroke: #000000; stroke-width: 0.6"/>
      </g>
     </g>
    </g>
    <g id="ytick_5">
     <g id="line2d_11">
      <g>
       <use xlink:href="#m2238c11d93" x="52.872109" y="124.912118" style="stroke: #000000; stroke-width: 0.6"/>
      </g>
     </g>
    </g>
    <g id="ytick_6">
     <g id="line2d_12">
      <g>
       <use xlink:href="#m2238c11d93" x="52.872109" y="113.566914" style="stroke: #000000; stroke-width: 0.6"/>
      </g>
     </g>
    </g>
    <g id="ytick_7">
     <g id="line2d_13">
      <g>
       <use xlink:href="#m2238c11d93" x="52.872109" y="103.739251" style="stroke: #000000; stroke-width: 0.6"/>
      </g>
     </g>
    </g>
    <g id="ytick_8">
     <g id="line2d_14">
      <g>
       <use xlink:href="#m2238c11d93" x="52.872109" y="95.070639" style="stroke: #000000; stroke-width: 0.6"/>
      </g>
     </g>
    </g>
    <g id="ytick_9">
     <g id="line2d_15">
      <g>
       <use xlink:href="#m2238c11d93" x="52.872109" y="36.301955" style="stroke: #000000; stroke-width: 0.6"/>
      </g>
     </g>
    </g>
    <g id="text_9">
     <!-- $\mathcal{L}$ -->
     <g transform="translate(20.485876 106.978508) rotate(-90) scale(0.14 -0.14)">
      <defs>
       <path id="CMSY10-4c" d="M 1152 610 
C 1498 1151 1606 1562 1690 1903 
C 1914 2790 2157 3562 2554 4005 
C 2630 4090 2682 4147 2886 4147 
C 3328 4147 3341 3704 3341 3613 
C 3341 3498 3309 3407 3309 3375 
C 3309 3330 3347 3330 3354 3330 
C 3456 3330 3629 3401 3789 3517 
C 3904 3607 3962 3671 3962 3934 
C 3962 4281 3782 4544 3424 4544 
C 3219 4544 2656 4493 2029 3856 
C 1517 3329 1216 2172 1094 1690 
C 979 1248 928 1048 736 662 
C 691 586 525 303 435 219 
C 262 59 198 -57 198 -89 
C 198 -102 211 -128 256 -128 
C 282 -128 416 -102 582 5 
C 691 68 704 80 851 231 
C 1171 231 1395 173 1798 58 
C 2125 -32 2451 -128 2778 -128 
C 3296 -128 3821 264 4026 546 
C 4154 719 4192 880 4192 899 
C 4192 944 4154 944 4147 944 
C 4045 944 3891 874 3782 796 
C 3610 687 3597 649 3558 539 
C 3526 436 3488 385 3462 346 
C 3411 269 3405 269 3309 269 
C 3002 269 2682 366 2259 481 
C 2080 532 1728 636 1408 636 
C 1325 636 1235 629 1152 610 
z
" transform="scale(0.015625)"/>
      </defs>
      <use xlink:href="#CMSY10-4c" transform="scale(0.996264)"/>
     </g>
    </g>
   </g>
   <g id="line2d_16">
    <path d="M 67.483907 185.230723 
L 68.097664 154.493894 
L 68.156117 154.288023 
L 68.185344 154.353802 
L 68.30225 155.404922 
L 68.711421 159.706399 
L 68.769874 159.668263 
L 68.88678 159.052373 
L 69.588217 154.12259 
L 69.792802 153.253799 
L 70.757277 146.520014 
L 71.838659 137.847802 
L 72.978493 126.454642 
L 74.352139 113.319136 
L 75.375067 105.685543 
L 76.514902 97.148429 
L 77.800869 86.981723 
L 78.473078 83.489541 
L 79.057609 81.552858 
L 79.612913 80.421643 
L 80.22667 79.666405 
L 80.928106 79.152467 
L 81.834128 78.769379 
L 83.090869 78.495728 
L 84.961366 78.336919 
L 89.46225 78.257479 
L 111.119101 78.119523 
L 111.323686 78.157809 
L 111.411366 78.071762 
L 111.499046 78.190401 
L 111.528272 78.070569 
L 111.615952 78.124017 
L 111.762084 78.155032 
L 111.87899 78.09898 
L 111.96667 78.141955 
L 111.995896 78.118675 
L 117.461255 78.11094 
L 117.548935 78.01844 
L 117.607388 78.00463 
L 117.636615 78.147209 
L 117.665841 78.014283 
L 117.753521 78.070133 
L 117.8412 78.119181 
L 117.870427 78.030387 
L 117.958106 78.063661 
L 118.104239 78.082405 
L 118.367278 78.051807 
L 118.51341 78.060402 
L 118.747222 78.06987 
L 118.981034 78.052748 
L 119.302526 78.057189 
L 119.94551 78.046827 
L 121.78678 78.025557 
L 139.205786 77.81681 
L 139.293466 77.90037 
L 139.381145 77.786203 
L 139.410372 77.907613 
L 139.498051 77.823472 
L 139.614957 77.876727 
L 139.702637 77.814604 
L 139.731863 77.863872 
L 139.907222 77.818236 
L 140.024129 77.842255 
L 140.316394 77.825812 
L 140.520979 77.827495 
L 140.842471 77.821631 
L 141.251642 77.8168 
L 142.508383 77.789864 
L 144.437333 77.654784 
L 144.495786 77.632914 
L 144.525013 77.850643 
L 144.641919 77.673785 
L 144.671145 77.820042 
L 144.758825 77.755881 
L 144.846504 77.691292 
L 144.817278 77.800446 
L 144.875731 77.758834 
L 145.372582 77.707996 
L 145.489488 77.735986 
L 145.664847 77.715092 
L 145.840206 77.733398 
L 146.044792 77.730002 
L 146.30783 77.722638 
L 147.096946 77.68104 
L 147.243079 77.739255 
L 147.301532 77.776722 
L 147.330758 77.571768 
L 147.359985 77.807621 
L 147.447664 77.675518 
L 147.506118 77.751719 
L 147.535344 77.580858 
L 147.65225 77.730115 
L 147.769156 77.61229 
L 147.798383 77.70157 
L 147.886062 77.656513 
L 147.973742 77.612088 
L 148.002968 77.63855 
L 148.178327 77.632825 
L 148.295234 77.610744 
L 148.587499 77.593197 
L 148.821311 77.552887 
L 149.172029 77.531263 
L 149.435068 77.484398 
L 149.522747 77.52211 
L 149.5812 77.544267 
L 149.610427 77.403836 
L 149.66888 77.370448 
L 149.698106 77.583766 
L 149.815013 77.389537 
L 149.844239 77.532266 
L 149.931919 77.490584 
L 149.961145 77.392349 
L 150.048825 77.434971 
L 150.136504 77.462122 
L 150.107278 77.391245 
L 150.165731 77.425118 
L 150.34109 77.39965 
L 150.457996 77.425457 
L 150.604129 77.41321 
L 150.779488 77.384851 
L 150.954847 77.401829 
L 151.159432 77.399562 
L 151.422471 77.409549 
L 153.585234 77.03448 
L 153.965178 76.956609 
L 154.754294 76.839663 
L 155.368051 76.748503 
L 156.566339 76.558322 
L 160.073521 75.5682 
L 160.395013 75.417446 
L 160.482692 75.430101 
L 160.628825 75.331231 
L 161.242582 75.086514 
L 161.534847 74.954507 
L 161.827112 74.856918 
L 162.236283 74.713034 
L 162.499322 74.649392 
L 162.645455 74.557461 
L 162.733134 74.584709 
L 162.908493 74.487651 
L 163.025399 74.467447 
L 170.711974 71.740034 
L 170.858107 71.595919 
L 170.887333 71.70082 
L 170.975013 71.605244 
L 171.208825 71.499162 
L 171.296504 71.508402 
L 171.325731 71.476184 
L 171.851808 71.323417 
L 173.137775 70.810203 
L 174.160703 70.323576 
L 174.219156 70.283456 
L 174.248383 70.400922 
L 174.336062 70.226183 
L 174.365289 70.348769 
L 174.482195 70.223 
L 174.599101 70.314167 
L 174.716007 70.19344 
L 174.745234 70.255471 
L 174.832913 70.202918 
L 175.008272 70.087608 
L 175.125178 70.083049 
L 175.300538 69.980978 
L 177.229488 69.300131 
L 178.749267 68.870285 
L 181.350427 68.196484 
L 181.788825 67.994866 
L 184.09772 67.252951 
L 185.500593 66.925322 
L 186.11435 66.786366 
L 188.0433 66.45067 
L 188.773963 66.406321 
L 189.153908 66.125044 
L 189.212361 66.046506 
L 189.241587 66.298864 
L 189.358493 66.016323 
L 189.475399 66.209348 
L 189.592306 66.00731 
L 189.621532 66.113256 
L 189.679985 65.973437 
L 189.709212 66.057046 
L 189.826118 65.897637 
L 189.943024 65.943595 
L 190.089156 65.83322 
L 190.206062 65.79076 
L 190.381422 65.700194 
L 190.527554 65.636209 
L 190.995179 65.4023 
L 191.98888 65.243353 
L 192.222692 65.315958 
L 192.398051 65.220808 
L 192.573411 65.214479 
L 192.777996 65.171318 
L 193.011808 65.081103 
L 193.42098 65.049181 
L 193.479433 65.10368 
L 193.508659 64.77787 
L 193.567112 64.586314 
L 193.596339 65.312077 
L 193.625565 64.492935 
L 193.713245 64.609969 
L 193.742471 65.134105 
L 193.830151 65.028422 
L 193.859377 64.632789 
L 193.888604 65.082191 
L 193.947057 64.745707 
L 193.976283 65.076355 
L 194.00551 64.710997 
L 194.063963 64.95784 
L 194.180869 64.649046 
L 194.210096 64.89501 
L 194.297775 64.848916 
L 194.414681 64.628333 
L 194.443908 64.805299 
L 194.531587 64.784327 
L 194.648493 64.586817 
L 194.7654 64.683784 
L 194.882306 64.564968 
L 194.999212 64.619002 
L 195.116118 64.523834 
L 195.233024 64.536787 
L 195.408383 64.462205 
L 195.525289 64.469516 
L 195.700648 64.400315 
L 195.876007 64.38454 
L 196.139046 64.314441 
L 196.69435 64.199681 
L 197.27888 64.06899 
L 197.483466 64.058796 
L 197.571145 63.951488 
L 197.629598 63.883091 
L 197.658825 64.158865 
L 197.717278 64.284788 
L 197.746505 63.558245 
L 197.775731 64.437553 
L 197.804958 63.387105 
L 197.834184 64.346712 
L 197.95109 63.518637 
L 197.980317 64.253316 
L 198.067996 64.17328 
L 198.097223 63.635946 
L 198.184902 63.796432 
L 198.214129 64.115426 
L 198.243355 63.648809 
L 198.301808 63.885934 
L 198.360261 64.03531 
L 198.389488 63.702745 
L 198.477167 63.67912 
L 198.506394 63.965404 
L 198.6233 63.676464 
L 198.652527 63.883622 
L 198.740206 63.869183 
L 198.769433 63.674314 
L 198.857112 63.701905 
L 198.886339 63.832019 
L 198.915565 63.676904 
L 198.974018 63.745852 
L 199.061698 63.659565 
L 199.032471 63.785289 
L 199.090924 63.736705 
L 199.29551 63.655461 
L 199.38319 63.686907 
L 199.412416 63.636231 
L 199.821587 63.576723 
L 200.0554 63.521303 
L 200.289212 63.480285 
L 201.049101 63.425992 
L 201.107554 63.482308 
L 201.136781 63.105634 
L 201.195234 62.925125 
L 201.22446 63.757242 
L 201.253687 62.699694 
L 201.282913 63.837112 
L 201.341366 63.545438 
L 201.429046 63.608225 
L 201.458272 62.816968 
L 201.487499 63.569175 
L 201.575179 63.539414 
L 201.604405 62.927019 
L 201.692085 63.135399 
L 201.721311 63.425205 
L 201.750538 62.941485 
L 201.779764 63.379219 
L 201.89667 62.966705 
L 201.925897 63.30764 
L 202.013576 63.296003 
L 202.042803 62.994695 
L 202.130482 63.087476 
L 202.159709 63.226625 
L 202.188935 62.990523 
L 202.218162 63.207652 
L 202.335068 62.994485 
L 202.364295 63.174534 
L 202.451974 63.103388 
L 202.539654 62.989127 
L 202.510427 63.132625 
L 202.56888 63.084729 
L 202.685786 62.971312 
L 202.715013 63.07299 
L 202.802692 63.0171 
L 202.948825 62.9538 
L 203.065731 62.981582 
L 203.211864 62.919901 
L 203.650261 62.852326 
L 203.854847 62.783132 
L 203.942527 62.828489 
L 204.030206 62.70467 
L 204.088659 62.652312 
L 204.117886 62.898854 
L 204.176339 62.981017 
L 204.205565 62.426217 
L 204.264018 62.220624 
L 204.293245 63.268733 
L 204.322471 62.055932 
L 204.410151 62.853848 
L 204.468604 62.385028 
L 204.497831 63.078621 
L 204.527057 62.253124 
L 204.58551 62.559171 
L 204.614737 62.61416 
L 204.67319 62.348694 
L 204.702416 62.960099 
L 204.819322 62.40841 
L 204.848549 62.857248 
L 204.877775 62.403206 
L 204.936228 62.61322 
L 204.994681 62.768151 
L 205.023908 62.404063 
L 205.053134 62.719261 
L 205.140814 62.673352 
L 205.17004 62.424167 
L 205.199267 62.693787 
L 205.25772 62.586853 
L 205.374626 62.415728 
L 205.403853 62.606052 
L 205.491532 62.535268 
L 205.549985 62.57285 
L 205.579212 62.411844 
L 205.608438 62.550611 
L 205.696118 62.484088 
L 205.783797 62.394481 
L 205.813024 62.50294 
L 205.900703 62.414447 
L 206.076063 62.443548 
L 206.163742 62.35519 
L 206.192969 62.407273 
L 206.339101 62.361574 
L 206.543687 62.290322 
L 206.631366 62.363511 
L 206.689819 62.379618 
L 206.719046 62.195019 
L 206.777499 62.126703 
L 206.806726 62.478743 
L 206.865179 62.591291 
L 206.894405 61.840374 
L 206.952858 61.626261 
L 206.982085 62.864715 
L 207.011311 61.568759 
L 207.098991 62.23678 
L 207.128217 62.421012 
L 207.18667 62.66396 
L 207.215897 61.808199 
L 207.245123 62.488729 
L 207.332803 62.482862 
L 207.362029 61.86584 
L 207.391256 62.498275 
L 207.449709 62.22984 
L 207.478935 62.273211 
L 207.537389 62.4003 
L 207.566615 61.918762 
L 207.683521 62.283552 
L 207.712748 61.93805 
L 207.741974 62.299299 
L 207.800427 62.16426 
L 207.85888 62.010467 
L 207.888107 62.234672 
L 207.917333 61.955744 
L 208.005013 62.09606 
L 208.034239 62.109215 
L 208.092692 62.160845 
L 208.121919 61.953405 
L 208.151145 62.140055 
L 208.238825 62.044978 
L 208.297278 62.088448 
L 208.326505 61.951694 
L 208.355731 62.091811 
L 208.414184 62.058642 
L 208.53109 61.961091 
L 208.589543 61.926803 
L 208.61877 62.016623 
L 208.764902 61.900513 
L 208.852582 61.93988 
L 208.881808 61.903542 
L 209.057168 61.893938 
L 209.2033 61.814154 
L 209.261753 61.78103 
L 209.29098 61.911566 
L 209.349433 61.949546 
L 209.378659 61.652334 
L 209.437112 61.517108 
L 209.466339 62.167675 
L 209.524792 62.380579 
L 209.554018 61.00587 
L 209.583245 62.528155 
L 209.612471 60.955868 
L 209.670924 61.486924 
L 209.729377 62.111839 
L 209.758604 61.17646 
L 209.787831 62.265444 
L 209.846284 61.860396 
L 209.87551 61.893167 
L 209.933963 62.140573 
L 209.96319 61.355836 
L 210.080096 61.996231 
L 210.109322 61.365007 
L 210.197002 61.518611 
L 210.226228 61.861707 
L 210.255455 61.384459 
L 210.284681 61.820826 
L 210.401587 61.429317 
L 210.430814 61.792192 
L 210.518494 61.657303 
L 210.576947 61.729111 
L 210.606173 61.447276 
L 210.723079 61.641384 
L 210.752306 61.435116 
L 210.839985 61.56276 
L 211.161477 61.411544 
L 211.190703 61.522629 
L 211.278383 61.437265 
L 211.658328 61.390759 
L 211.80446 61.319178 
L 211.89214 61.368473 
L 212.038273 61.261569 
L 212.096726 61.237777 
L 212.125952 61.35657 
L 212.184405 61.37418 
L 212.213632 61.156112 
L 212.272085 61.079765 
L 212.301311 61.484378 
L 212.359764 61.608789 
L 212.388991 60.76283 
L 212.447444 60.516984 
L 212.47667 61.942736 
L 212.505897 60.408474 
L 212.593576 61.344007 
L 212.622803 61.321332 
L 212.681256 61.680724 
L 212.710482 60.653604 
L 212.739709 61.594163 
L 212.827389 61.378009 
L 212.856615 60.814158 
L 212.885842 61.53868 
L 212.915068 60.820151 
L 213.031974 61.359064 
L 213.061201 60.82229 
L 213.14888 61.143181 
L 213.178107 61.158433 
L 213.23656 61.290195 
L 213.265786 60.872884 
L 213.295013 61.236201 
L 213.382692 61.137263 
L 213.441145 61.204005 
L 213.470372 60.895766 
L 213.499599 61.151885 
L 213.587278 61.064207 
L 213.645731 61.115761 
L 213.674958 60.891986 
L 213.704184 61.099991 
L 213.791864 60.982569 
L 213.879543 60.904731 
L 213.90877 61.046301 
L 213.937996 60.883281 
L 213.967223 61.027646 
L 213.996449 60.891664 
L 214.084129 60.941105 
L 214.464074 60.922327 
L 214.610206 60.7765 
L 214.668659 60.747667 
L 214.697886 60.931248 
L 214.756339 60.966041 
L 214.785565 60.634931 
L 214.844018 60.525396 
L 214.873245 61.139876 
L 214.931698 61.304176 
L 214.960924 60.127148 
L 215.019378 59.956902 
L 215.048604 61.475271 
L 215.077831 60.123586 
L 215.16551 60.589156 
L 215.223963 60.235237 
L 215.25319 61.252095 
L 215.282416 60.298287 
L 215.370096 60.578464 
L 215.428549 60.339133 
L 215.457775 61.068735 
L 215.487002 60.430799 
L 215.574681 60.534215 
L 215.603908 60.916388 
L 215.633134 60.393383 
L 215.662361 60.910489 
L 215.691587 60.486505 
L 215.779267 60.532732 
L 215.83772 60.444587 
L 215.866947 60.825228 
L 215.896173 60.498385 
L 215.983853 60.563527 
L 216.042306 60.47646 
L 216.071532 60.750023 
L 216.100759 60.475025 
L 216.188438 60.603786 
L 216.276118 60.662251 
L 216.363797 60.473583 
L 216.393024 60.642348 
L 216.480703 60.528791 
L 216.656063 60.582603 
L 216.743742 60.427923 
L 216.831422 60.56159 
L 216.919101 60.396523 
L 216.977554 60.376365 
L 217.006781 60.552378 
L 217.065234 60.566986 
L 217.09446 60.302573 
L 217.152913 60.236317 
L 217.18214 60.660398 
L 217.240593 60.760082 
L 217.26982 59.982166 
L 217.328273 59.782198 
L 217.357499 61.059828 
L 217.386726 59.618905 
L 217.415952 61.093353 
L 217.445179 59.701004 
L 217.474405 60.848088 
L 217.562085 60.573381 
L 217.620538 60.826372 
L 217.649764 59.851796 
L 217.678991 60.764145 
L 217.76667 60.394723 
L 217.825123 60.63061 
L 217.85435 59.971252 
L 217.883576 60.635939 
L 217.971256 60.280676 
L 218.000483 60.189833 
L 218.058936 60.039805 
L 218.088162 60.513091 
L 218.117389 60.049729 
L 218.205068 60.26705 
L 218.234295 60.315015 
L 218.292748 60.398385 
L 218.321974 60.067316 
L 218.351201 60.397341 
L 218.43888 60.158643 
L 218.555786 60.288298 
L 218.614239 60.306082 
L 218.643466 60.068378 
L 218.672692 60.291806 
L 218.731146 60.25604 
L 218.760372 60.103052 
L 218.848052 60.164591 
L 219.081864 60.030472 
L 219.140317 59.998326 
L 219.169543 60.217983 
L 219.227996 60.248615 
L 219.257223 59.898136 
L 219.315676 59.810902 
L 219.344902 60.382183 
L 219.403355 60.503939 
L 219.432582 59.503344 
L 219.491035 59.316245 
L 219.520262 60.745311 
L 219.549488 59.266258 
L 219.637168 60.265355 
L 219.724847 60.327092 
L 219.754074 59.520454 
L 219.7833 60.451392 
L 219.812527 59.513726 
L 219.87098 59.765235 
L 219.958659 59.715196 
L 219.987886 60.260806 
L 220.017112 59.610018 
L 220.104792 60.069022 
L 220.221698 59.710087 
L 220.250925 60.147269 
L 220.280151 59.690487 
L 220.309378 60.10583 
L 220.338604 59.77163 
L 220.426284 59.858578 
L 220.484737 59.76437 
L 220.513963 60.038875 
L 220.54319 59.727045 
L 220.630869 59.974978 
L 220.660096 59.784616 
L 220.747775 59.836193 
L 220.806228 59.781579 
L 220.835455 59.913891 
L 220.893908 59.928721 
L 220.923134 59.715351 
L 220.981588 59.697292 
L 221.010814 59.929874 
L 221.098494 59.667336 
L 221.156947 59.645673 
L 221.186173 59.938707 
L 221.244626 59.961657 
L 221.273853 59.565715 
L 221.332306 59.495379 
L 221.361532 60.068331 
L 221.419985 60.161237 
L 221.449212 59.262913 
L 221.507665 59.123343 
L 221.536891 60.358206 
L 221.566118 59.054399 
L 221.624571 59.163588 
L 221.653797 60.128902 
L 221.741477 59.782615 
L 221.79993 60.015134 
L 221.829157 59.300656 
L 221.858383 60.094409 
L 221.88761 59.279438 
L 221.916836 60.015126 
L 221.946063 59.416338 
L 222.033742 59.607591 
L 222.092195 59.443316 
L 222.121422 59.900628 
L 222.150648 59.370761 
L 222.209101 59.393119 
L 222.238328 59.817039 
L 222.326007 59.592679 
L 222.413687 59.492662 
L 222.47214 59.433397 
L 222.501367 59.768123 
L 222.589046 59.404339 
L 222.618273 59.740501 
L 222.676726 59.70771 
L 222.705952 59.435119 
L 222.793632 59.641594 
L 222.881311 59.463766 
L 222.910538 59.60225 
L 222.998217 59.443877 
L 223.05667 59.416761 
L 223.085897 59.616123 
L 223.14435 59.652551 
L 223.173576 59.302928 
L 223.23203 59.191524 
L 223.261256 59.836851 
L 223.319709 60.01897 
L 223.348936 58.762412 
L 223.407389 58.510224 
L 223.436615 60.354445 
L 223.465842 58.546124 
L 223.553521 59.491447 
L 223.582748 59.708814 
L 223.641201 60.035565 
L 223.670427 58.798611 
L 223.699654 59.892581 
L 223.787333 59.616647 
L 223.845786 59.83665 
L 223.875013 58.969847 
L 223.904239 59.691112 
L 223.991919 59.573264 
L 224.050372 59.680905 
L 224.079599 59.069936 
L 224.108825 59.538038 
L 224.196505 59.494601 
L 224.254958 59.566232 
L 224.284184 59.11881 
L 224.313411 59.474458 
L 224.40109 59.401849 
L 224.459543 59.470243 
L 224.48877 59.138198 
L 224.517996 59.434158 
L 224.605676 59.289413 
L 224.664129 59.359446 
L 224.693355 59.157567 
L 224.722582 59.378382 
L 224.751809 59.148246 
L 224.781035 59.348217 
L 224.810262 59.181355 
L 224.897941 59.223948 
L 224.956394 59.172644 
L 224.985621 59.294371 
L 225.0733 59.133044 
L 225.102527 59.276968 
L 225.16098 59.250633 
L 225.248659 59.160356 
L 225.277886 59.192903 
L 225.453245 59.1227 
L 225.540925 59.185439 
L 225.628604 59.045978 
L 225.687057 59.003251 
L 225.716284 59.2436 
L 225.774737 59.302774 
L 225.803963 58.840334 
L 225.862416 58.682616 
L 225.891643 59.570976 
L 225.950096 59.803352 
L 225.979322 58.147444 
L 226.008549 60.004804 
L 226.037775 58.015205 
L 226.067002 59.910115 
L 226.096228 58.391484 
L 226.183908 58.690555 
L 226.242361 58.344711 
L 226.271588 59.632349 
L 226.300814 58.560225 
L 226.388494 58.694315 
L 226.41772 59.429607 
L 226.446947 58.503998 
L 226.476173 59.389392 
L 226.593079 58.697466 
L 226.622306 59.301362 
L 226.651532 58.621178 
L 226.709985 58.815909 
L 226.797665 58.715213 
L 226.826891 59.179256 
L 226.856118 58.685729 
L 226.943797 58.915941 
L 227.002251 58.759273 
L 227.031477 59.075965 
L 227.060704 58.718083 
L 227.148383 58.923026 
L 227.265289 58.733945 
L 227.294516 58.977847 
L 227.382195 58.786972 
L 227.499101 58.889453 
L 227.586781 58.723672 
L 227.616007 58.87902 
L 227.703687 58.757186 
L 227.820593 58.796842 
L 227.908273 58.703221 
L 227.966726 58.686019 
L 227.995952 58.802628 
L 228.083632 58.659126 
L 228.142085 58.643843 
L 228.171311 58.78858 
L 228.258991 58.596643 
L 228.317444 58.557596 
L 228.34667 58.8335 
L 228.405123 58.884118 
L 228.43435 58.412144 
L 228.492803 58.278748 
L 228.52203 59.104273 
L 228.580483 59.292114 
L 228.609709 57.83992 
L 228.668162 57.66942 
L 228.697389 59.499265 
L 228.726615 57.824987 
L 228.814295 58.60642 
L 228.872748 58.118354 
L 228.901974 59.172414 
L 228.931201 57.974309 
L 229.01888 58.695502 
L 229.048107 58.641652 
L 229.10656 58.924851 
L 229.135786 58.129781 
L 229.165013 58.934542 
L 229.252693 58.520946 
L 229.281919 58.414297 
L 229.340372 58.236653 
L 229.369599 58.801157 
L 229.398825 58.248728 
L 229.486505 58.501288 
L 229.515731 58.569951 
L 229.574184 58.668477 
L 229.603411 58.274555 
L 229.632637 58.662162 
L 229.720317 58.404812 
L 229.837223 58.557436 
L 229.924902 58.293706 
L 229.954129 58.528229 
L 230.041809 58.370632 
L 230.158715 58.442701 
L 230.217168 58.457207 
L 230.246394 58.28684 
L 230.304847 58.269567 
L 230.334074 58.453747 
L 230.421753 58.248069 
L 230.480206 58.236366 
L 230.509433 58.432029 
L 230.597112 58.193706 
L 230.655565 58.155544 
L 230.684792 58.474326 
L 230.743245 58.523778 
L 230.772472 58.013433 
L 230.830925 57.887051 
L 230.860151 58.73013 
L 230.918604 58.899238 
L 230.947831 57.494634 
L 231.006284 57.343605 
L 231.03551 59.09505 
L 231.064737 57.45336 
L 231.152416 58.349552 
L 231.181643 58.387368 
L 231.240096 58.705551 
L 231.269322 57.630554 
L 231.298549 58.734547 
L 231.386228 58.047281 
L 231.444681 58.379416 
L 231.503135 58.545121 
L 231.532361 57.79303 
L 231.561588 58.494303 
L 231.649267 58.142216 
L 231.70772 58.320298 
L 231.736947 57.894121 
L 231.766173 58.384904 
L 231.7954 57.868404 
L 231.824626 58.332773 
L 231.853853 57.950938 
L 231.941532 58.065656 
L 231.999985 57.959099 
L 232.029212 58.247063 
L 232.058438 57.910462 
L 232.116891 57.91663 
L 232.146118 58.19633 
L 232.233798 58.009262 
L 232.350704 58.093918 
L 232.409157 58.116609 
L 232.438383 57.909852 
L 232.496836 57.889799 
L 232.526063 58.1267 
L 232.613742 57.860893 
L 232.672195 57.842554 
L 232.701422 58.123663 
L 232.759875 58.134692 
L 232.789101 57.776347 
L 232.847554 57.719221 
L 232.876781 58.20597 
L 232.935234 58.279527 
L 232.96446 57.521629 
L 233.022914 57.368638 
L 233.05214 58.521781 
L 233.110593 58.645995 
L 233.13982 57.083116 
L 233.169046 58.665441 
L 233.256726 57.463031 
L 233.373632 58.176871 
L 233.432085 58.315255 
L 233.461311 57.328054 
L 233.490538 58.262643 
L 233.578217 57.715653 
L 233.63667 57.955942 
L 233.695123 58.092543 
L 233.72435 57.47837 
L 233.753577 58.101196 
L 233.841256 57.602777 
L 233.958162 57.855564 
L 234.016615 57.923627 
L 234.045842 57.533039 
L 234.075068 57.939832 
L 234.104295 57.521771 
L 234.133521 57.912661 
L 234.162748 57.546317 
L 234.250427 57.788993 
L 234.279654 57.636946 
L 234.367333 57.660976 
L 234.425786 57.6109 
L 234.455013 57.732142 
L 234.513466 57.753588 
L 234.542693 57.532028 
L 234.601146 57.490388 
L 234.630372 57.801701 
L 234.688825 57.838777 
L 234.718052 57.366679 
L 234.776505 57.270178 
L 234.805731 57.982526 
L 234.864184 58.104655 
L 234.893411 56.972737 
L 234.951864 56.80188 
L 234.98109 58.362395 
L 235.010317 56.725211 
L 235.06877 56.873928 
L 235.097996 58.073377 
L 235.185676 57.645928 
L 235.244129 57.92005 
L 235.273356 57.011733 
L 235.302582 58.001375 
L 235.331809 57.002933 
L 235.361035 57.889897 
L 235.390262 57.198539 
L 235.477941 57.383023 
L 235.536394 57.195056 
L 235.565621 57.79276 
L 235.594847 57.133691 
L 235.682527 57.623809 
L 235.799433 57.315129 
L 235.857886 57.223239 
L 235.887112 57.617395 
L 235.916339 57.189171 
L 235.974792 57.203514 
L 236.004019 57.558219 
L 236.091698 57.303147 
L 236.208604 57.393664 
L 236.267057 57.422777 
L 236.296284 57.233753 
L 236.354737 57.196271 
L 236.383963 57.464632 
L 236.442416 57.484675 
L 236.471643 57.119288 
L 236.530096 57.066168 
L 236.559322 57.544571 
L 236.617775 57.598502 
L 236.647002 56.905071 
L 236.705455 56.787541 
L 236.734682 57.782331 
L 236.793135 57.894828 
L 236.822361 56.52283 
L 236.851588 57.966659 
L 236.880814 56.483183 
L 236.910041 57.920321 
L 236.939267 56.610579 
L 237.026947 57.375434 
L 237.114626 57.460613 
L 237.143853 56.802199 
L 237.202306 56.707405 
L 237.231532 57.591221 
L 237.260759 56.76295 
L 237.348438 57.295574 
L 237.465344 56.938302 
L 237.523798 56.844408 
L 237.553024 57.382066 
L 237.582251 56.821861 
L 237.640704 56.857014 
L 237.66993 57.288165 
L 237.75761 56.999808 
L 237.874516 57.112001 
L 237.932969 57.145459 
L 237.962195 56.915458 
L 238.020648 56.868804 
L 238.049875 57.195585 
L 238.108328 57.223798 
L 238.137554 56.775244 
L 238.196007 56.712947 
L 238.225234 57.311304 
L 238.283687 57.379352 
L 238.312914 56.52813 
L 238.371367 56.406772 
L 238.400593 57.559223 
L 238.459046 57.628416 
L 238.488273 56.233939 
L 238.517499 57.616758 
L 238.575952 57.475196 
L 238.605179 56.505258 
L 238.692858 56.91609 
L 238.722085 57.026354 
L 238.780538 57.195429 
L 238.809764 56.500012 
L 238.838991 57.273672 
L 238.868217 56.450852 
L 238.897444 57.261503 
L 238.92667 56.505664 
L 239.01435 57.021614 
L 239.131256 56.716971 
L 239.189709 56.613236 
L 239.218936 57.031712 
L 239.277389 57.054957 
L 239.306615 56.528603 
L 239.335842 57.056267 
L 239.394295 57.039013 
L 239.423521 56.541627 
L 239.481974 56.556746 
L 239.511201 56.967799 
L 239.569654 56.928566 
L 239.657333 56.577445 
L 239.715786 56.57002 
L 239.745013 56.873534 
L 239.803466 56.884384 
L 239.832693 56.514901 
L 239.891146 56.456427 
L 239.920372 56.962937 
L 239.978825 57.043464 
L 240.008052 56.23896 
L 240.066505 56.065903 
L 240.095731 57.321352 
L 240.154184 57.478205 
L 240.183411 55.719939 
L 240.212637 57.525884 
L 240.300317 56.13089 
L 240.417223 56.970945 
L 240.475676 57.122492 
L 240.504903 56.001745 
L 240.534129 57.037963 
L 240.621809 56.514169 
L 240.651035 56.467459 
L 240.709488 56.242972 
L 240.738715 56.905762 
L 240.767941 56.174812 
L 240.855621 56.690521 
L 240.972527 56.328869 
L 241.03098 56.248789 
L 241.060206 56.721632 
L 241.089433 56.250195 
L 241.177112 56.580588 
L 241.294019 56.37769 
L 241.352472 56.308882 
L 241.381698 56.555844 
L 241.440151 56.5638 
L 241.469378 56.251587 
L 241.498604 56.55543 
L 241.557057 56.536844 
L 241.644737 56.257147 
L 241.673963 56.488435 
L 241.732416 56.467141 
L 241.820096 56.233645 
L 241.878549 56.21174 
L 241.907775 56.459181 
L 241.966228 56.48305 
L 241.995455 56.124524 
L 242.053908 56.043549 
L 242.083135 56.601087 
L 242.141588 56.718927 
L 242.170814 55.747943 
L 242.229267 55.514264 
L 242.258494 57.104723 
L 242.316947 57.262406 
L 242.346173 55.198012 
L 242.3754 57.173236 
L 242.463079 56.088896 
L 242.492306 56.102923 
L 242.550759 55.627623 
L 242.579985 56.831086 
L 242.609212 55.521481 
L 242.696891 56.33745 
L 242.755345 55.94158 
L 242.813798 55.732901 
L 242.843024 56.599141 
L 242.872251 55.788528 
L 242.95993 56.115358 
L 243.018383 55.877075 
L 243.04761 56.398847 
L 243.076836 55.799263 
L 243.164516 56.236906 
L 243.281422 55.923984 
L 243.310648 56.26577 
L 243.339875 55.86564 
L 243.369101 56.253759 
L 243.398328 55.886849 
L 243.486008 56.07427 
L 243.602914 55.911743 
L 243.661367 55.878745 
L 243.690593 56.133514 
L 243.71982 55.874753 
L 243.807499 56.063509 
L 243.836726 55.910848 
L 243.924405 55.971876 
L 244.099764 55.873163 
L 244.158217 55.845155 
L 244.187444 55.992697 
L 244.245897 56.002288 
L 244.275124 55.778372 
L 244.333577 55.731534 
L 244.362803 56.051979 
L 244.421256 56.1067 
L 244.450483 55.574504 
L 244.508936 55.438858 
L 244.538162 56.33212 
L 244.596615 56.525033 
L 244.625842 54.993282 
L 244.684295 54.764039 
L 244.713521 56.864913 
L 244.742748 54.767633 
L 244.830427 56.1498 
L 244.918107 56.267111 
L 244.947333 55.104528 
L 244.97656 56.411103 
L 245.06424 55.461525 
L 245.151919 55.417837 
L 245.181146 56.157889 
L 245.210372 55.272052 
L 245.298052 55.902002 
L 245.414958 55.391108 
L 245.444184 55.976263 
L 245.473411 55.363661 
L 245.502637 55.913267 
L 245.531864 55.483587 
L 245.619543 55.571804 
L 245.677996 55.451961 
L 245.707223 55.836515 
L 245.73645 55.420341 
L 245.824129 55.70491 
L 245.941035 55.507441 
L 245.999488 55.452267 
L 246.028715 55.705882 
L 246.057941 55.432559 
L 246.145621 55.647938 
L 246.174847 55.463055 
L 246.262527 55.547156 
L 246.437886 55.434868 
L 246.496339 55.407798 
L 246.525566 55.56402 
L 246.613245 55.349367 
L 246.671698 55.312281 
L 246.700925 55.598825 
L 246.759378 55.633698 
L 246.788604 55.19717 
L 246.847057 55.102266 
L 246.876284 55.780611 
L 246.934737 55.913766 
L 246.963963 54.779692 
L 247.022416 54.550883 
L 247.051643 56.286314 
L 247.080869 54.358476 
L 247.110096 56.377129 
L 247.139322 54.380583 
L 247.168549 56.199995 
L 247.256229 55.294195 
L 247.285455 55.144223 
L 247.343908 54.738766 
L 247.373135 55.924402 
L 247.402361 54.661981 
L 247.490041 55.499394 
L 247.57772 55.59522 
L 247.606947 54.898236 
L 247.636173 55.695811 
L 247.6654 54.871362 
L 247.694626 55.587149 
L 247.723853 55.025001 
L 247.811532 55.114323 
L 247.869985 54.969029 
L 247.899212 55.497987 
L 247.928438 54.946311 
L 248.016118 55.336108 
L 248.133024 55.068717 
L 248.191477 54.997495 
L 248.220704 55.34117 
L 248.24993 54.980644 
L 248.33761 55.265862 
L 248.366836 55.051908 
L 248.454516 55.13375 
L 248.542195 55.167452 
L 248.600648 55.185071 
L 248.629875 54.99415 
L 248.688328 54.968928 
L 248.717554 55.203718 
L 248.805234 54.923058 
L 248.863687 54.892561 
L 248.892914 55.235026 
L 248.951367 55.263094 
L 248.980593 54.795732 
L 249.039046 54.718311 
L 249.068273 55.385286 
L 249.126726 55.49478 
L 249.155952 54.467006 
L 249.214405 54.290196 
L 249.243632 55.800156 
L 249.302085 55.910328 
L 249.331311 54.071857 
L 249.360538 55.858015 
L 249.448217 54.646763 
L 249.565124 55.374123 
L 249.623577 55.490415 
L 249.652803 54.386893 
L 249.68203 55.413519 
L 249.769709 54.841949 
L 249.828162 55.086197 
L 249.886615 55.220351 
L 249.915842 54.546343 
L 249.945068 55.229761 
L 250.003521 55.138993 
L 250.032748 54.664561 
L 250.120427 54.841284 
L 250.17888 54.715491 
L 250.208107 55.020634 
L 250.26656 55.046903 
L 250.295787 54.600165 
L 250.325013 55.029845 
L 250.383466 54.985218 
L 250.412693 54.645315 
L 250.500372 54.863796 
L 250.617278 54.749002 
L 250.675731 54.702144 
L 250.704958 54.818302 
L 250.763411 54.835505 
L 250.792637 54.622985 
L 250.85109 54.581929 
L 250.880317 54.880288 
L 250.93877 54.917229 
L 250.967996 54.463046 
L 251.02645 54.368524 
L 251.055676 55.058233 
L 251.114129 55.184127 
L 251.143356 54.05897 
L 251.201809 53.842833 
L 251.231035 55.539973 
L 251.289488 55.646944 
L 251.318715 53.632793 
L 251.347941 55.52369 
L 251.435621 54.430189 
L 251.494074 54.895496 
L 251.552527 55.152935 
L 251.581753 53.929325 
L 251.61098 55.151687 
L 251.698659 54.395214 
L 251.786339 54.275578 
L 251.815566 54.916824 
L 251.844792 54.135056 
L 251.874019 54.919015 
L 251.903245 54.179435 
L 251.932472 54.769242 
L 252.020151 54.553056 
L 252.078604 54.699318 
L 252.107831 54.246667 
L 252.137057 54.750517 
L 252.166284 54.225575 
L 252.19551 54.709088 
L 252.224737 54.277098 
L 252.312416 54.48417 
L 252.429322 54.300442 
L 252.487776 54.259939 
L 252.517002 54.579827 
L 252.546229 54.248078 
L 252.604682 54.255044 
L 252.633908 54.52592 
L 252.692361 54.482582 
L 252.721588 54.289995 
L 252.809267 54.401224 
L 252.896947 54.332079 
L 252.926173 54.34312 
L 253.218438 54.207668 
L 253.247665 54.368933 
L 253.306118 54.401899 
L 253.335345 54.096988 
L 253.393798 53.996193 
L 253.423024 54.563547 
L 253.481477 54.73684 
L 253.510704 53.583153 
L 253.569157 53.212617 
L 253.598383 55.373279 
L 253.656836 55.631996 
L 253.686063 52.763443 
L 253.715289 55.370005 
L 253.802969 54.49233 
L 253.861422 55.060124 
L 253.890648 53.157413 
L 253.919875 54.888325 
L 254.007555 54.445003 
L 254.066008 54.806453 
L 254.095234 53.489747 
L 254.124461 54.563835 
L 254.21214 54.471771 
L 254.241367 53.604041 
L 254.270593 54.562389 
L 254.329046 54.249368 
L 254.416726 54.381731 
L 254.445952 53.686918 
L 254.475179 54.372213 
L 254.562858 54.117608 
L 254.621311 54.277091 
L 254.650538 53.754733 
L 254.679764 54.227602 
L 254.767444 54.052895 
L 254.825897 54.165376 
L 254.855124 53.794846 
L 254.88435 54.142475 
L 254.97203 53.981127 
L 255.030483 54.062772 
L 255.059709 53.812438 
L 255.088936 54.064738 
L 255.176615 53.886544 
L 255.293521 53.989103 
L 255.322748 53.808428 
L 255.410427 53.926136 
L 255.527334 53.816242 
L 255.585787 53.787867 
L 255.615013 53.900058 
L 255.702693 53.789106 
L 255.731919 53.846717 
L 255.907278 53.756221 
L 255.994958 53.809603 
L 256.14109 53.716869 
L 256.22877 53.749957 
L 256.257997 53.704755 
L 256.404129 53.708639 
L 256.608715 53.639054 
L 256.696394 53.678349 
L 256.784074 53.561455 
L 256.842527 53.512821 
L 256.871753 53.742214 
L 256.930206 53.81585 
L 256.959433 53.313738 
L 257.017886 53.106012 
L 257.047113 54.189609 
L 257.105566 54.576905 
L 257.134792 52.244582 
L 257.193245 51.785853 
L 257.222472 55.216147 
L 257.251698 52.132058 
L 257.339378 53.091514 
L 257.397831 52.298477 
L 257.427057 54.51762 
L 257.543963 52.701298 
L 257.57319 54.31807 
L 257.660869 53.527785 
L 257.719322 54.082559 
L 257.748549 52.829737 
L 257.777776 53.893575 
L 257.865455 53.802402 
L 257.894682 52.912387 
L 257.923908 53.827299 
L 257.982361 53.423939 
L 258.011588 53.606363 
L 258.040814 53.066026 
L 258.070041 53.765126 
L 258.099267 53.102696 
L 258.216173 53.622227 
L 258.2454 53.081209 
L 258.333079 53.312358 
L 258.391532 53.140965 
L 258.420759 53.534881 
L 258.449985 53.172722 
L 258.537665 53.224325 
L 258.566892 53.441514 
L 258.596118 53.145144 
L 258.625345 53.418363 
L 258.742251 53.183845 
L 258.771477 53.371169 
L 258.800704 53.154462 
L 258.82993 53.341124 
L 258.946836 53.172715 
L 258.976063 53.306196 
L 259.005289 53.14592 
L 259.034516 53.278731 
L 259.151422 53.157999 
L 259.209875 53.13078 
L 259.239102 53.231548 
L 259.356008 53.148222 
L 259.443687 53.180116 
L 259.531367 53.105814 
L 259.560593 53.13414 
L 259.882085 53.067796 
L 260.905013 52.834088 
L 260.963466 52.800109 
L 260.992693 52.950536 
L 261.051146 52.989557 
L 261.080372 52.675762 
L 261.138825 52.555049 
L 261.168052 53.193684 
L 261.226505 53.422175 
L 261.255731 52.026609 
L 261.314184 51.537138 
L 261.343411 54.262999 
L 261.372637 51.060266 
L 261.401864 54.492122 
L 261.43109 51.252973 
L 261.460317 53.886394 
L 261.547997 53.581584 
L 261.577223 51.608765 
L 261.60645 53.840417 
L 261.664903 53.112806 
L 261.723356 52.134627 
L 261.752582 53.521569 
L 261.781809 51.876198 
L 261.840262 52.494732 
L 261.869488 52.567186 
L 261.927941 52.07624 
L 261.957168 53.276991 
L 262.074074 52.253892 
L 262.1033 53.122721 
L 262.132527 52.236201 
L 262.19098 52.630275 
L 262.220206 52.464483 
L 262.249433 52.958823 
L 262.27866 52.278327 
L 262.307886 52.926588 
L 262.424792 52.371178 
L 262.454019 52.865924 
L 262.541698 52.566184 
L 262.570925 52.505039 
L 262.629378 52.380092 
L 262.658604 52.74638 
L 262.687831 52.433107 
L 262.77551 52.45644 
L 262.804737 52.67241 
L 262.833963 52.396462 
L 262.86319 52.652261 
L 262.980096 52.440092 
L 263.009323 52.598275 
L 263.038549 52.398705 
L 263.067776 52.580046 
L 263.184682 52.434156 
L 263.243135 52.394806 
L 263.272361 52.526484 
L 263.301588 52.399669 
L 263.389267 52.426396 
L 263.476947 52.467868 
L 263.564626 52.376159 
L 263.593853 52.419077 
L 263.769212 52.337559 
L 263.856892 52.37289 
L 263.886118 52.337196 
L 264.061477 52.336973 
L 264.20761 52.277894 
L 264.353742 52.266914 
L 264.967499 52.223213 
L 265.025952 52.242253 
L 265.055179 52.026484 
L 265.113632 51.95538 
L 265.142858 52.346071 
L 265.201311 52.463 
L 265.230538 51.667565 
L 265.288991 51.385641 
L 265.318218 52.974456 
L 265.376671 53.392081 
L 265.405897 50.511785 
L 265.435124 53.695509 
L 265.46435 50.462599 
L 265.522803 51.288468 
L 265.610483 51.232261 
L 265.639709 53.061612 
L 265.668936 50.927197 
L 265.756615 51.960034 
L 265.815068 51.280195 
L 265.844295 52.771196 
L 265.873521 51.335923 
L 265.961201 51.738683 
L 265.990428 52.475129 
L 266.019654 51.403784 
L 266.048881 52.469407 
L 266.165787 51.595873 
L 266.195013 52.340143 
L 266.22424 51.532296 
L 266.282693 51.813224 
L 266.341146 52.125298 
L 266.370372 51.628754 
L 266.399599 52.211586 
L 266.428825 51.64823 
L 266.545731 52.045537 
L 266.574958 51.656427 
L 266.604184 52.082154 
L 266.662637 51.963875 
L 266.779544 51.690331 
L 266.80877 51.990909 
L 266.89645 51.783247 
L 267.013356 51.905123 
L 267.042582 51.686753 
L 267.130262 51.802175 
L 267.451753 51.6962 
L 267.510207 51.665891 
L 267.539433 51.75489 
L 267.627113 51.657042 
L 267.656339 51.709567 
L 267.831698 51.627053 
L 267.919378 51.670035 
L 268.06551 51.598396 
L 268.211643 51.585326 
L 268.591588 51.549032 
L 268.73772 51.432572 
L 268.796173 51.392685 
L 268.8254 51.59362 
L 268.883853 51.643741 
L 268.913079 51.246169 
L 268.971532 51.105891 
L 269.000759 51.88703 
L 269.059212 52.143088 
L 269.088439 50.525558 
L 269.146892 50.045496 
L 269.176118 52.958295 
L 269.205345 49.683417 
L 269.234571 53.049549 
L 269.263798 50.046179 
L 269.293024 52.329356 
L 269.380704 52.216242 
L 269.40993 50.250945 
L 269.439157 52.416044 
L 269.49761 51.755742 
L 269.556063 50.85393 
L 269.585289 52.071676 
L 269.614516 50.518071 
L 269.643742 52.006463 
L 269.760649 50.804214 
L 269.789875 51.906976 
L 269.819102 50.79871 
L 269.877555 51.24575 
L 269.906781 51.071822 
L 269.965234 50.825251 
L 269.994461 51.653466 
L 270.111367 51.016322 
L 270.140593 51.570338 
L 270.16982 50.941445 
L 270.199046 51.472984 
L 270.315952 51.008497 
L 270.345179 51.442421 
L 270.374405 50.999769 
L 270.432858 51.144461 
L 270.491312 51.298815 
L 270.549765 51.348418 
L 270.578991 51.027768 
L 270.608218 51.276148 
L 270.695897 51.211472 
L 270.75435 51.254652 
L 270.783577 51.023612 
L 270.812803 51.223423 
L 270.900483 51.136362 
L 270.958936 51.179567 
L 270.988162 51.025518 
L 271.017389 51.176612 
L 271.105068 51.056382 
L 271.221974 51.108438 
L 271.309654 51.001455 
L 271.338881 51.077512 
L 271.455787 51.005988 
L 271.543466 51.038263 
L 271.689599 50.961349 
L 271.835731 50.945193 
L 271.981864 50.949434 
L 272.127997 50.881785 
L 272.274129 50.900304 
L 272.420262 50.821099 
L 272.507941 50.881107 
L 272.595621 50.751443 
L 272.654074 50.710899 
L 272.6833 50.927758 
L 272.741754 50.979422 
L 272.77098 50.561767 
L 272.829433 50.421248 
L 272.85866 51.223513 
L 272.917113 51.474985 
L 272.946339 49.852653 
L 273.004792 49.391461 
L 273.034019 52.263175 
L 273.063245 49.041229 
L 273.092472 52.364522 
L 273.121698 49.358465 
L 273.150925 51.702243 
L 273.238604 51.462082 
L 273.267831 49.636854 
L 273.297057 51.744514 
L 273.326284 49.741466 
L 273.44319 51.311304 
L 273.472416 49.868241 
L 273.501643 51.388618 
L 273.560096 50.860164 
L 273.589323 50.821824 
L 273.647776 51.198388 
L 273.677002 50.079228 
L 273.706229 51.040678 
L 273.793908 50.848066 
L 273.823135 50.208051 
L 273.852361 51.004061 
L 273.881588 50.23837 
L 273.998494 50.819191 
L 274.02772 50.279082 
L 274.056947 50.859596 
L 274.1154 50.678235 
L 274.203079 50.716459 
L 274.232306 50.319817 
L 274.261533 50.737259 
L 274.349212 50.508727 
L 274.407665 50.62595 
L 274.436892 50.357481 
L 274.466118 50.646103 
L 274.553798 50.437215 
L 274.670704 50.560704 
L 274.69993 50.352289 
L 274.78761 50.477227 
L 274.904516 50.356781 
L 274.933742 50.484743 
L 274.962969 50.340906 
L 274.992196 50.461081 
L 275.109102 50.373605 
L 275.196781 50.411739 
L 275.342914 50.318247 
L 275.45982 50.33123 
L 275.605952 50.271044 
L 275.693632 50.307549 
L 275.722858 50.253864 
L 275.810538 50.2786 
L 275.839765 50.241478 
L 275.985897 50.238649 
L 276.278162 50.184953 
L 276.541201 50.109047 
L 276.628881 50.170606 
L 276.687334 50.193449 
L 276.71656 49.994666 
L 276.775013 49.907897 
L 276.80424 50.331957 
L 276.862693 50.502645 
L 276.891919 49.503463 
L 276.950372 49.062944 
L 276.979599 51.317287 
L 277.038052 51.930018 
L 277.067278 47.895727 
L 277.096505 52.016299 
L 277.184184 50.309702 
L 277.242638 51.376674 
L 277.271864 48.589756 
L 277.301091 50.921841 
L 277.38877 50.846711 
L 277.417997 48.85057 
L 277.505676 49.829301 
L 277.564129 49.162523 
L 277.593356 50.692742 
L 277.710262 49.319539 
L 277.739488 50.488883 
L 277.827168 50.168599 
L 277.856394 49.428606 
L 277.885621 50.345384 
L 277.944074 49.96872 
L 277.9733 50.055831 
L 278.002527 49.562641 
L 278.031754 50.249819 
L 278.06098 49.59133 
L 278.177886 50.124791 
L 278.207113 49.586339 
L 278.294792 49.723506 
L 278.324019 50.021034 
L 278.353245 49.614048 
L 278.382472 49.98908 
L 278.499378 49.642118 
L 278.528604 49.944554 
L 278.616284 49.801639 
L 278.674737 49.879854 
L 278.703963 49.644561 
L 278.73319 49.836468 
L 278.82087 49.807379 
L 278.908549 49.663384 
L 278.879323 49.820428 
L 278.937776 49.75461 
L 279.113135 49.652767 
L 279.142361 49.692799 
L 279.434626 49.666818 
L 279.522306 49.601144 
L 279.551533 49.620394 
L 281.655842 49.188754 
L 281.714295 49.143553 
L 281.743522 49.360315 
L 281.801975 49.425861 
L 281.831201 48.965493 
L 281.889654 48.784969 
L 281.918881 49.752264 
L 281.977334 50.100343 
L 282.00656 48.013716 
L 282.065013 47.432208 
L 282.09424 51.05398 
L 282.123466 47.253082 
L 282.211146 49.5269 
L 282.240372 49.67104 
L 282.298825 50.396946 
L 282.328052 47.887254 
L 282.357278 49.908113 
L 282.444958 49.841246 
L 282.474184 48.122513 
L 282.503411 49.940857 
L 282.561864 49.205768 
L 282.591091 49.452905 
L 282.620317 48.48643 
L 282.649544 49.803318 
L 282.67877 48.523963 
L 282.795676 49.550708 
L 282.824903 48.521974 
L 282.912582 48.904348 
L 282.971035 48.622834 
L 283.000262 49.385538 
L 283.117168 48.76609 
L 283.146394 49.297253 
L 283.175621 48.725475 
L 283.234074 48.934074 
L 283.263301 48.895572 
L 283.321754 48.747748 
L 283.35098 49.166341 
L 283.380207 48.815093 
L 283.467886 48.834204 
L 283.497113 49.093229 
L 283.526339 48.775742 
L 283.555566 49.053949 
L 283.672472 48.80907 
L 283.701698 49.01483 
L 283.730925 48.788209 
L 283.789378 48.848093 
L 283.906284 48.952416 
L 283.93551 48.788163 
L 284.02319 48.852888 
L 284.11087 48.886804 
L 284.198549 48.782567 
L 284.227776 48.829132 
L 284.549267 48.742934 
L 284.6954 48.752357 
L 284.870759 48.68966 
L 285.016892 48.689939 
L 285.250704 48.629918 
L 285.426063 48.600905 
L 285.630649 48.580719 
L 286.010593 48.506576 
L 286.273632 48.491287 
L 286.361312 48.402115 
L 286.419765 48.359253 
L 286.448991 48.544789 
L 286.507444 48.610979 
L 286.536671 48.179647 
L 286.595124 47.985531 
L 286.62435 48.968761 
L 286.682803 49.376805 
L 286.71203 47.082529 
L 286.770483 46.374432 
L 286.799709 50.511778 
L 286.828936 46.270212 
L 286.916615 48.338016 
L 286.975069 46.934886 
L 287.004295 49.755028 
L 287.033522 47.295069 
L 287.121201 47.311749 
L 287.150428 49.37753 
L 287.238107 48.485529 
L 287.29656 49.155648 
L 287.325787 47.577148 
L 287.442693 48.922582 
L 287.471919 47.685196 
L 287.559599 47.901281 
L 287.588825 48.705615 
L 287.618052 47.747915 
L 287.676505 48.192225 
L 287.705731 48.002979 
L 287.734958 48.581768 
L 287.764185 47.845295 
L 287.822638 48.144663 
L 287.851864 48.096513 
L 287.881091 48.460699 
L 287.910317 47.902202 
L 287.939544 48.430785 
L 288.05645 47.944469 
L 288.085676 48.373284 
L 288.173356 48.223989 
L 288.231809 48.311835 
L 288.261035 47.991961 
L 288.377941 48.232441 
L 288.407168 47.982892 
L 288.494848 48.087767 
L 288.553301 47.998944 
L 288.582527 48.177898 
L 288.611754 48.005092 
L 288.699433 48.025035 
L 288.757886 47.98378 
L 288.787113 48.107929 
L 288.904019 47.984938 
L 288.933245 48.074067 
L 289.020925 47.994218 
L 289.283964 47.981668 
L 289.430096 47.932486 
L 289.751588 47.900013 
L 289.956173 47.857442 
L 290.686836 47.73534 
L 291.505179 47.617927 
L 291.651312 47.544609 
L 291.709765 47.514424 
L 291.738991 47.638747 
L 291.797444 47.674271 
L 291.826671 47.401991 
L 291.885124 47.290225 
L 291.91435 47.866127 
L 291.972803 48.089158 
L 292.00203 46.780022 
L 292.060483 46.262002 
L 292.089709 49.033258 
L 292.148162 49.527774 
L 292.177389 45.464456 
L 292.206615 49.182714 
L 292.294295 48.247253 
L 292.323522 46.25666 
L 292.352748 48.855838 
L 292.381975 46.266573 
L 292.498881 48.381561 
L 292.528107 46.377149 
L 292.615787 47.169015 
L 292.67424 46.659461 
L 292.703466 48.095518 
L 292.820372 46.826554 
L 292.849599 47.937853 
L 292.937278 47.568687 
L 292.966505 46.934879 
L 292.995732 47.785677 
L 293.024958 46.987365 
L 293.141864 47.685871 
L 293.171091 47.027805 
L 293.25877 47.225127 
L 293.287997 47.545969 
L 293.317223 47.060585 
L 293.34645 47.530617 
L 293.463356 47.115229 
L 293.492582 47.475462 
L 293.580262 47.269204 
L 293.638715 47.390827 
L 293.667941 47.115821 
L 293.697168 47.376584 
L 293.784848 47.287735 
L 293.843301 47.337433 
L 293.872527 47.130866 
L 293.901754 47.291079 
L 293.989433 47.26111 
L 294.077113 47.133435 
L 294.047886 47.276341 
L 294.106339 47.230885 
L 294.223245 47.118936 
L 294.252472 47.219773 
L 294.340151 47.14471 
L 295.772251 46.927899 
L 296.649046 46.802698 
L 296.853632 46.720761 
L 296.912085 46.685895 
L 296.941312 46.834056 
L 296.999765 46.885147 
L 297.028991 46.541762 
L 297.087444 46.388514 
L 297.116671 47.163874 
L 297.175124 47.490574 
L 297.20435 45.657274 
L 297.262803 44.965125 
L 297.29203 48.68881 
L 297.321256 44.441171 
L 297.350483 48.774904 
L 297.408936 47.478213 
L 297.467389 45.683051 
L 297.496616 48.150593 
L 297.525842 45.229662 
L 297.584295 46.435489 
L 297.613522 46.076444 
L 297.642748 47.580827 
L 297.671975 45.438653 
L 297.701201 47.438936 
L 297.818107 45.75794 
L 297.847334 47.345047 
L 297.935013 47.136779 
L 297.96424 45.955768 
L 297.993466 47.160333 
L 298.051919 46.486652 
L 298.110372 46.0313 
L 298.139599 46.972142 
L 298.256505 46.147973 
L 298.285732 46.896935 
L 298.373411 46.69489 
L 298.402638 46.260074 
L 298.431864 46.825958 
L 298.490317 46.596209 
L 298.519544 46.581247 
L 298.577997 46.720367 
L 298.607223 46.28868 
L 298.724129 46.624688 
L 298.753356 46.293298 
L 298.841035 46.427589 
L 298.899488 46.318803 
L 298.928715 46.566127 
L 299.045621 46.350143 
L 299.074848 46.515379 
L 299.104074 46.324305 
L 299.162527 46.383028 
L 300.828439 46.155323 
L 301.120704 46.101701 
L 301.734461 46.013121 
L 302.231312 45.922536 
L 302.377444 45.943829 
L 302.465124 45.834247 
L 302.523577 45.785106 
L 302.552803 46.018567 
L 302.611256 46.100694 
L 302.640483 45.575869 
L 302.698936 45.351521 
L 302.728163 46.521301 
L 302.786616 46.974752 
L 302.815842 44.370347 
L 302.874295 43.752253 
L 302.903522 47.943871 
L 302.932748 43.98511 
L 303.020428 45.446028 
L 303.078881 44.387742 
L 303.108107 47.085682 
L 303.225013 44.752434 
L 303.25424 46.778882 
L 303.341919 45.936116 
L 303.400372 46.566553 
L 303.429599 45.060737 
L 303.546505 46.343108 
L 303.575732 45.164948 
L 303.663411 45.466802 
L 303.692638 46.102099 
L 303.721864 45.201775 
L 303.751091 46.016709 
L 303.867997 45.317469 
L 303.897223 45.994421 
L 303.984903 45.830355 
L 304.014129 45.425959 
L 304.043356 45.934823 
L 304.101809 45.741009 
L 304.160262 45.488225 
L 304.189488 45.828387 
L 304.218715 45.428209 
L 304.277168 45.568227 
L 304.306395 45.556363 
L 304.364848 45.449525 
L 304.394074 45.737243 
L 304.51098 45.499187 
L 304.540207 45.694329 
L 304.569433 45.473321 
L 304.627886 45.540224 
L 304.890925 45.575086 
L 304.978605 45.471744 
L 305.007831 45.525513 
L 305.27087 45.45058 
L 305.358549 45.481628 
L 305.387776 45.426556 
L 305.504682 45.445825 
L 305.650814 45.400519 
L 305.972306 45.362621 
L 306.381477 45.289009 
L 306.61529 45.260737 
L 307.78435 45.166981 
L 307.842803 45.206597 
L 307.87203 44.901615 
L 307.930483 44.787001 
L 307.959709 45.405946 
L 308.018163 45.626267 
L 308.047389 44.288775 
L 308.105842 43.810513 
L 308.135069 46.503201 
L 308.193522 46.945637 
L 308.222748 43.103079 
L 308.251975 46.666713 
L 308.339654 45.565196 
L 308.398107 46.29023 
L 308.427334 43.755298 
L 308.45656 45.78952 
L 308.54424 45.658281 
L 308.573466 43.954849 
L 308.602693 45.79863 
L 308.661146 45.099708 
L 308.690372 45.23313 
L 308.748826 45.663746 
L 308.778052 44.357547 
L 308.894958 45.410331 
L 308.924185 44.389692 
L 309.011864 44.802863 
L 309.070317 44.468865 
L 309.099544 45.234391 
L 309.12877 44.580867 
L 309.21645 44.653422 
L 309.245676 45.15629 
L 309.274903 44.59045 
L 309.333356 44.783346 
L 309.362582 44.809235 
L 309.421035 44.629971 
L 309.450262 45.041506 
L 309.479489 44.660876 
L 309.567168 44.707994 
L 309.596395 44.942276 
L 309.625621 44.635404 
L 309.654848 44.927066 
L 309.771754 44.697678 
L 309.80098 44.890199 
L 309.830207 44.665129 
L 309.859433 44.860478 
L 309.976339 44.68725 
L 310.005566 44.824749 
L 310.034792 44.661191 
L 310.064019 44.79922 
L 310.180925 44.677466 
L 310.239378 44.652561 
L 310.268605 44.755079 
L 310.385511 44.671854 
L 310.47319 44.712765 
L 310.56087 44.64546 
L 310.590096 44.658297 
L 311.116174 44.583418 
L 311.408439 44.522057 
L 311.613024 44.499414 
L 312.40214 44.406202 
L 312.548273 44.294002 
L 312.606726 44.252922 
L 312.635953 44.463564 
L 312.694406 44.520601 
L 312.723632 44.098412 
L 312.782085 43.949983 
L 312.811312 44.787738 
L 312.869765 45.064811 
L 312.898991 43.338855 
L 312.957444 42.83395 
L 312.986671 45.962318 
L 313.015897 42.437997 
L 313.045124 46.111959 
L 313.07435 42.777629 
L 313.103577 45.381403 
L 313.191256 45.182057 
L 313.220483 43.091668 
L 313.24971 45.435608 
L 313.308163 44.701574 
L 313.395842 44.977652 
L 313.425069 43.294655 
L 313.454295 44.93062 
L 313.541975 44.546108 
L 313.571201 43.660714 
L 313.600428 44.865108 
L 313.629654 43.685739 
L 313.74656 44.597357 
L 313.775787 43.689936 
L 313.863466 44.157272 
L 313.892693 44.28907 
L 313.951146 44.471482 
L 313.980373 43.81287 
L 314.097279 44.33198 
L 314.126505 43.884404 
L 314.155732 44.374733 
L 314.214185 44.208776 
L 314.301864 44.253697 
L 314.331091 43.896343 
L 314.360317 44.239961 
L 314.447997 44.083457 
L 314.50645 44.175954 
L 314.535676 43.922314 
L 314.564903 44.170212 
L 314.652582 44.05192 
L 314.711035 44.112921 
L 314.740262 43.937493 
L 314.769489 44.111985 
L 314.857168 43.993151 
L 315.412472 43.907457 
L 315.558605 43.924606 
L 315.704737 43.883122 
L 315.967776 43.828269 
L 316.201588 43.812367 
L 316.406174 43.759101 
L 316.552306 43.759076 
L 316.756892 43.703315 
L 316.903024 43.720815 
L 317.049157 43.612104 
L 317.10761 43.575016 
L 317.136837 43.767465 
L 317.19529 43.814698 
L 317.224516 43.441303 
L 317.282969 43.317073 
L 317.312196 44.032626 
L 317.370649 44.257557 
L 317.399875 42.814838 
L 317.458328 42.377245 
L 317.487555 45.056936 
L 317.546008 45.384719 
L 317.575234 41.88645 
L 317.604461 45.07533 
L 317.69214 43.998493 
L 317.750594 44.704966 
L 317.77982 42.396622 
L 317.809047 44.460465 
L 317.896726 43.904238 
L 317.955179 44.326062 
L 317.984406 42.741259 
L 318.013632 44.022953 
L 318.101312 43.994989 
L 318.130538 42.947521 
L 318.159765 44.100678 
L 318.218218 43.684343 
L 318.276671 43.184419 
L 318.305897 43.892222 
L 318.335124 43.027286 
L 318.36435 43.783519 
L 318.481257 43.151139 
L 318.510483 43.758417 
L 318.598163 43.383514 
L 318.627389 43.389733 
L 318.685842 43.222797 
L 318.715069 43.663122 
L 318.744295 43.239344 
L 318.831975 43.343198 
L 318.890428 43.224734 
L 318.919654 43.54133 
L 318.948881 43.236592 
L 319.03656 43.342012 
L 319.095013 43.259955 
L 319.12424 43.477129 
L 319.153466 43.253043 
L 319.241146 43.352912 
L 319.328826 43.401735 
L 319.416505 43.253141 
L 319.445732 43.343087 
L 319.562638 43.246366 
L 319.650317 43.325041 
L 319.767223 43.25822 
L 319.913356 43.270219 
L 320.059489 43.211664 
L 321.462361 42.908782 
L 321.491588 43.112718 
L 321.550041 43.16137 
L 321.579268 42.772748 
L 321.637721 42.648177 
L 321.666947 43.380516 
L 321.7254 43.602585 
L 321.754627 42.154222 
L 321.81308 41.733427 
L 321.842306 44.373849 
L 321.900759 44.685268 
L 321.929986 41.267746 
L 321.959212 44.3994 
L 322.046892 43.26575 
L 322.105345 43.98946 
L 322.134571 41.759481 
L 322.163798 43.834725 
L 322.251478 43.122198 
L 322.309931 43.619906 
L 322.339157 42.063215 
L 322.368384 43.442386 
L 322.456063 43.220114 
L 322.48529 42.354045 
L 322.514516 43.44319 
L 322.543743 42.389839 
L 322.660649 43.159509 
L 322.689875 42.38435 
L 322.719102 43.176065 
L 322.777555 42.897076 
L 322.836008 42.586732 
L 322.865234 43.058781 
L 322.894461 42.484207 
L 322.923687 43.047241 
L 322.952914 42.624157 
L 323.040594 42.634419 
L 323.06982 42.982191 
L 323.099047 42.557456 
L 323.128273 42.940736 
L 323.245179 42.626929 
L 323.274406 42.860144 
L 323.303632 42.56489 
L 323.332859 42.851637 
L 323.362085 42.610208 
L 323.449765 42.663119 
L 323.508218 42.602335 
L 323.537444 42.801404 
L 323.566671 42.602836 
L 323.65435 42.679608 
L 323.74203 42.723728 
L 323.82971 42.589833 
L 323.858936 42.678757 
L 323.975842 42.594982 
L 324.063522 42.658761 
L 324.151201 42.578262 
L 324.180428 42.607357 
L 324.472693 42.536246 
L 324.648052 42.535965 
L 324.852638 42.480958 
L 324.99877 42.479242 
L 325.349489 42.414832 
L 325.612527 42.400258 
L 325.75866 42.310304 
L 325.817113 42.277058 
L 325.846339 42.436422 
L 325.904792 42.477679 
L 325.934019 42.156508 
L 325.992472 42.042772 
L 326.021699 42.676252 
L 326.080152 42.888337 
L 326.109378 41.567114 
L 326.167831 41.125151 
L 326.197058 43.710823 
L 326.255511 44.14717 
L 326.284737 40.414986 
L 326.313964 43.985558 
L 326.401643 42.594083 
L 326.460096 43.468909 
L 326.489323 41.015679 
L 326.518549 43.246396 
L 326.606229 42.656643 
L 326.635455 41.366051 
L 326.664682 43.073733 
L 326.693908 41.399671 
L 326.810815 42.806035 
L 326.840041 41.571438 
L 326.927721 42.21409 
L 326.986174 41.741093 
L 327.0154 42.653974 
L 327.044627 41.771564 
L 327.132306 41.910273 
L 327.161533 42.454667 
L 327.190759 41.760587 
L 327.219986 42.417578 
L 327.336892 41.906983 
L 327.366118 42.409988 
L 327.453798 42.10227 
L 327.483025 42.040915 
L 327.541478 41.906201 
L 327.570704 42.269428 
L 327.599931 41.94735 
L 327.68761 41.979829 
L 327.746063 41.921381 
L 327.77529 42.184743 
L 327.892196 41.988994 
L 327.921422 42.140811 
L 327.950649 41.945191 
L 327.979875 42.125604 
L 328.096781 41.97488 
L 328.155234 41.932582 
L 328.184461 42.065723 
L 328.213687 41.939208 
L 328.301367 41.971883 
L 328.389047 42.021668 
L 328.476726 41.935698 
L 328.505953 41.967553 
L 328.885897 41.880508 
L 329.03203 41.888952 
L 329.265842 41.829753 
L 329.411975 41.827223 
L 329.879599 41.751511 
L 330.639489 41.644412 
L 331.136339 41.512278 
L 331.194792 41.458572 
L 331.224019 41.696724 
L 331.282472 41.802042 
L 331.311699 41.201218 
L 331.370152 40.899083 
L 331.399378 42.388241 
L 331.457831 43.039586 
L 331.487058 39.543207 
L 331.516284 43.831198 
L 331.545511 39.004712 
L 331.574737 43.812304 
L 331.691643 40.102472 
L 331.72087 43.284683 
L 331.808549 41.970179 
L 331.837776 40.277476 
L 331.867002 42.696192 
L 331.896229 40.402827 
L 332.013135 42.387942 
L 332.130041 40.697217 
L 332.159268 42.182608 
L 332.246947 41.9642 
L 332.276174 40.813112 
L 332.363853 41.127238 
L 332.39308 41.813714 
L 332.422306 40.876445 
L 332.480759 41.349595 
L 332.539212 41.737224 
L 332.568439 41.029276 
L 332.685345 41.693607 
L 332.802251 41.142672 
L 332.831478 41.575401 
L 332.919157 41.395657 
L 332.948384 41.126764 
L 332.97761 41.474293 
L 333.036063 41.316834 
L 333.06529 41.365997 
L 333.094516 41.161205 
L 333.123743 41.43587 
L 333.182196 41.316365 
L 333.211422 41.342542 
L 333.299102 41.193051 
L 333.269875 41.389826 
L 333.328328 41.291141 
L 333.357555 41.291189 
L 333.445234 41.170527 
L 333.416008 41.330222 
L 333.474461 41.263115 
L 333.679047 41.183156 
L 333.766726 41.237321 
L 333.7375 41.155626 
L 333.795953 41.182142 
L 334.760428 41.064731 
L 334.99424 41.018175 
L 335.374185 40.972104 
L 336.134074 40.86256 
L 337.887665 40.629685 
L 338.033798 40.570222 
L 338.121478 40.642174 
L 338.179931 40.666717 
L 338.209157 40.463003 
L 338.26761 40.384098 
L 338.296837 40.796804 
L 338.35529 40.94524 
L 338.384516 40.041945 
L 338.442969 39.688981 
L 338.472196 41.623313 
L 338.530649 42.200401 
L 338.559875 38.580516 
L 338.589102 42.609902 
L 338.676781 39.904935 
L 338.735235 41.43622 
L 338.764461 39.29788 
L 338.793688 41.902469 
L 338.822914 39.415667 
L 338.93982 41.374316 
L 338.969047 39.407308 
L 339.056726 40.213507 
L 339.115179 39.709027 
L 339.144406 41.131927 
L 339.261312 39.927594 
L 339.290538 40.999667 
L 339.378218 40.583362 
L 339.436671 40.807984 
L 339.465897 40.016499 
L 339.582804 40.697951 
L 339.61203 40.080664 
L 339.69971 40.326258 
L 339.758163 40.151877 
L 339.787389 40.606999 
L 339.904295 40.183023 
L 339.933522 40.517295 
L 339.962748 40.174873 
L 340.021201 40.317214 
L 340.079654 40.441367 
L 340.108881 40.184556 
L 340.138107 40.435439 
L 340.225787 40.362277 
L 340.28424 40.404905 
L 340.313467 40.208876 
L 340.342693 40.350245 
L 340.430373 40.32847 
L 340.518052 40.204477 
L 340.547279 40.282556 
L 340.722638 40.202588 
L 340.839544 40.254312 
L 340.927223 40.180478 
L 340.95645 40.216065 
L 341.219489 40.16512 
L 341.453301 40.13659 
L 341.920925 40.068045 
L 342.330096 40.019966 
L 343.382251 39.877933 
L 344.083688 39.889086 
L 344.142141 39.9517 
L 344.171367 39.545783 
L 344.22982 39.374118 
L 344.259047 40.275402 
L 344.3175 40.637522 
L 344.346726 38.595616 
L 344.405179 37.933906 
L 344.434406 41.831291 
L 344.463632 37.558863 
L 344.551312 40.419915 
L 344.580538 40.258934 
L 344.638991 41.257235 
L 344.668218 38.392568 
L 344.697444 40.617864 
L 344.785124 40.606844 
L 344.814351 38.510939 
L 344.90203 39.444381 
L 344.960483 38.834919 
L 344.98971 40.395839 
L 345.106616 39.077877 
L 345.135842 40.260771 
L 345.223522 39.987265 
L 345.252748 39.149936 
L 345.281975 40.059027 
L 345.340428 39.600823 
L 345.398881 39.237561 
L 345.428107 39.956763 
L 345.545014 39.374557 
L 345.57424 39.913846 
L 345.66192 39.684736 
L 345.720373 39.812778 
L 345.749599 39.395981 
L 345.866505 39.710109 
L 345.895732 39.387163 
L 345.983411 39.502049 
L 346.041864 39.420552 
L 346.071091 39.655816 
L 346.187997 39.441697 
L 346.217223 39.613755 
L 346.304903 39.506442 
L 346.363356 39.556352 
L 346.392583 39.418074 
L 346.421809 39.53789 
L 346.509489 39.506096 
L 346.597168 39.425462 
L 346.626395 39.487893 
L 346.83098 39.440326 
L 349.841312 39.052488 
L 350.571975 38.868228 
L 350.630428 38.799192 
L 350.659654 39.150449 
L 350.718107 39.283956 
L 350.747334 38.492055 
L 350.805787 38.165967 
L 350.835014 39.919926 
L 350.893467 40.513448 
L 350.922693 37.008979 
L 350.95192 41.060927 
L 350.981146 36.845318 
L 351.039599 38.000078 
L 351.127279 37.745338 
L 351.156505 40.412499 
L 351.185732 37.727389 
L 351.273411 38.157392 
L 351.302638 39.831409 
L 351.331864 37.762651 
L 351.390317 38.612354 
L 351.419544 38.497372 
L 351.44877 39.528133 
L 351.477997 38.06111 
L 351.507224 39.489652 
L 351.62413 38.286592 
L 351.653356 39.382197 
L 351.741036 39.185904 
L 351.770262 38.351552 
L 351.799489 39.210288 
L 351.857942 38.767087 
L 351.916395 38.441671 
L 351.945621 39.134313 
L 352.062527 38.570781 
L 352.091754 39.094112 
L 352.179433 38.873449 
L 352.237887 38.99407 
L 352.267113 38.591816 
L 352.384019 38.897317 
L 352.413246 38.587246 
L 352.500925 38.701249 
L 352.559378 38.620107 
L 352.588605 38.844242 
L 352.705511 38.640942 
L 352.734737 38.801649 
L 352.822417 38.696069 
L 352.88087 38.74617 
L 352.910096 38.61809 
L 352.939323 38.733325 
L 353.027003 38.696829 
L 353.114682 38.622564 
L 353.143909 38.687786 
L 353.319268 38.61229 
L 353.436174 38.643678 
L 353.55308 38.611264 
L 354.692914 38.471927 
L 355.686616 38.351564 
L 356.82645 38.290544 
L 356.884903 38.317132 
L 356.91413 38.083577 
L 356.972583 38.01141 
L 357.001809 38.438416 
L 357.060262 38.563149 
L 357.089489 37.728745 
L 357.147942 37.464176 
L 357.177168 39.075166 
L 357.235621 39.498043 
L 357.264848 36.644638 
L 357.294074 39.891026 
L 357.323301 36.457641 
L 357.352527 39.831462 
L 357.381754 37.012222 
L 357.469434 37.757731 
L 357.527887 37.059515 
L 357.557113 39.227505 
L 357.58634 37.30253 
L 357.674019 37.6389 
L 357.703246 38.782777 
L 357.732472 37.282491 
L 357.761699 38.779641 
L 357.790925 37.665042 
L 357.878605 37.6834 
L 357.907831 38.704295 
L 357.937058 37.61833 
L 357.995511 38.005928 
L 358.024737 38.008382 
L 358.08319 37.690804 
L 358.112417 38.47929 
L 358.141643 37.770235 
L 358.229323 37.879358 
L 358.25855 38.3372 
L 358.287776 37.766998 
L 358.317003 38.32389 
L 358.433909 37.904874 
L 358.463135 38.286165 
L 358.492362 37.861026 
L 358.521588 38.214809 
L 358.638494 37.890247 
L 358.667721 38.17733 
L 358.696947 37.87415 
L 358.7554 37.964679 
L 358.872306 38.11634 
L 358.901533 37.902498 
L 358.989213 37.993367 
L 359.047666 37.922219 
L 359.076892 38.055595 
L 359.106119 37.900295 
L 359.193798 37.976528 
L 359.719876 37.895991 
L 359.719876 37.895991 
" clip-path="url(#p84348d8a60)" style="fill: none; stroke: #ff0000; stroke-opacity: 0.8; stroke-width: 2; stroke-linecap: square"/>
   </g>
   <g id="line2d_17">
    <path d="M 67.483907 19.106225 
L 67.746946 19.92682 
L 67.951531 20.00732 
L 68.331476 20.090696 
L 69.851255 20.570582 
L 71.400261 21.219228 
L 72.306283 21.87151 
L 73.095399 22.713509 
L 73.884515 23.897542 
L 74.790537 25.69283 
L 77.187112 30.74228 
L 77.800869 31.329142 
L 78.473078 31.662376 
L 79.408327 31.852463 
L 81.249598 31.951599 
L 88.11783 31.991443 
L 143.385178 32.222724 
L 147.096946 32.435174 
L 149.931919 32.834088 
L 152.182361 33.317363 
L 154.257444 33.957857 
L 155.894129 34.708418 
L 157.676946 35.777313 
L 160.278107 37.60867 
L 163.52225 39.800883 
L 167.263245 42.092192 
L 173.283908 45.390258 
L 176.411145 46.812555 
L 186.728107 51.050433 
L 193.654792 53.844351 
L 194.034737 54.022449 
L 195.320703 54.558891 
L 199.733908 56.22356 
L 206.60214 58.567352 
L 217.299046 61.967585 
L 217.708217 62.102964 
L 218.672692 62.404599 
L 234.893411 67.378829 
L 235.624074 67.611399 
L 238.196007 68.377155 
L 243.135289 69.816794 
L 244.655068 70.213453 
L 244.830427 70.298703 
L 245.502637 70.491165 
L 247.051643 70.892244 
L 247.256229 70.988845 
L 249.418991 71.579953 
L 249.857389 71.713419 
L 251.932472 72.284832 
L 253.481477 72.698379 
L 253.919875 72.800498 
L 254.182914 72.898281 
L 254.767444 73.055277 
L 260.408162 74.545182 
L 261.343411 74.685929 
L 261.401864 74.666989 
L 261.43109 74.695767 
L 261.51877 74.83256 
L 261.577223 74.78833 
L 264.616781 75.634818 
L 265.376671 75.746835 
L 265.46435 75.725236 
L 265.493577 75.77959 
L 265.581256 75.877642 
L 265.639709 75.844997 
L 266.253466 76.051663 
L 267.364074 76.339215 
L 269.146892 76.702202 
L 269.263798 76.728116 
L 269.351477 76.841889 
L 269.40993 76.801273 
L 271.42656 77.372876 
L 273.004792 77.6787 
L 273.121698 77.699964 
L 273.209378 77.820896 
L 273.267831 77.781783 
L 273.706229 77.939353 
L 274.232306 78.077433 
L 276.979599 78.680507 
L 277.067278 78.545195 
L 277.096505 78.591443 
L 277.184184 78.814883 
L 277.242638 78.732272 
L 277.447223 78.841111 
L 277.651809 78.93182 
L 278.002527 79.011906 
L 280.07761 79.525265 
L 282.00656 79.921454 
L 282.123466 79.818973 
L 282.152693 79.89163 
L 282.240372 80.042595 
L 282.269599 80.002935 
L 282.328052 79.992946 
L 282.357278 80.045632 
L 282.532638 80.108798 
L 282.795676 80.173511 
L 286.741256 80.981901 
L 286.799709 80.88063 
L 286.828936 80.895573 
L 286.916615 81.176183 
L 286.975069 81.07157 
L 292.00203 82.341457 
L 292.177389 82.160044 
L 292.206615 82.259187 
L 292.265069 82.436015 
L 292.323522 82.355135 
L 292.381975 82.379536 
L 292.440428 82.477744 
L 292.498881 82.430408 
L 292.995732 82.593944 
L 293.784848 82.789102 
L 297.233577 83.474169 
L 297.321256 83.290356 
L 297.350483 83.343622 
L 297.438162 83.63623 
L 297.496616 83.515132 
L 298.63645 83.916097 
L 302.669709 84.843078 
L 302.815842 84.737783 
L 302.903522 84.598218 
L 302.932748 84.670258 
L 303.020428 84.91874 
L 303.049654 84.852575 
L 303.078881 84.80437 
L 303.137334 84.915951 
L 303.195787 84.954805 
L 303.25424 84.908479 
L 303.488052 85.041387 
L 303.780317 85.106774 
L 307.959709 86.052293 
L 308.105842 85.984992 
L 308.222748 85.849495 
L 308.251975 85.938889 
L 308.339654 86.129457 
L 308.368881 86.074364 
L 308.427334 86.056891 
L 308.45656 86.121612 
L 308.515013 86.179119 
L 308.573466 86.131585 
L 309.157997 86.3277 
L 312.869765 87.106237 
L 313.045124 86.936601 
L 313.07435 87.011874 
L 313.16203 87.20599 
L 313.191256 87.162764 
L 313.24971 87.123596 
L 313.278936 87.171792 
L 313.366616 87.239924 
L 313.395842 87.215876 
L 313.600428 87.278374 
L 314.097279 87.414782 
L 315.821643 87.79199 
L 317.429102 88.061897 
L 317.575234 87.934698 
L 317.604461 88.014906 
L 317.69214 88.187855 
L 317.721367 88.146996 
L 317.77982 88.110127 
L 317.809047 88.153629 
L 317.955179 88.19756 
L 318.45203 88.357476 
L 319.241146 88.528401 
L 321.81308 88.957179 
L 321.900759 88.844711 
L 321.929986 88.867176 
L 322.046892 89.120896 
L 322.105345 89.045149 
L 322.193024 89.127612 
L 322.368384 89.165939 
L 322.602196 89.24388 
L 323.858936 89.508072 
L 326.138605 89.913762 
L 326.284737 89.716111 
L 326.313964 89.788975 
L 326.401643 90.037892 
L 326.460096 89.935549 
L 326.518549 89.978834 
L 326.577002 90.079366 
L 326.635455 90.035521 
L 326.723135 90.091324 
L 326.956947 90.150975 
L 327.249212 90.215866 
L 328.768991 90.53226 
L 331.399378 91.011075 
L 331.516284 90.612754 
L 331.545511 90.552623 
L 331.574737 90.66147 
L 331.63319 91.110988 
L 331.691643 90.929913 
L 331.72087 90.878639 
L 331.750096 91.000365 
L 331.808549 91.138609 
L 331.837776 91.048109 
L 331.867002 91.015261 
L 331.896229 91.093011 
L 331.954682 91.171897 
L 332.013135 91.112531 
L 332.188494 91.226123 
L 332.626892 91.324491 
L 333.240649 91.447528 
L 338.472196 92.393624 
L 338.589102 92.123239 
L 338.618328 92.183942 
L 338.706008 92.550355 
L 338.764461 92.410285 
L 338.793688 92.390869 
L 338.822914 92.462903 
L 338.881367 92.586598 
L 338.93982 92.508146 
L 339.319765 92.661124 
L 339.641257 92.733375 
L 340.488826 92.905805 
L 344.3175 93.591752 
L 344.463632 93.226154 
L 344.492859 93.309456 
L 344.580538 93.705521 
L 344.609765 93.605921 
L 344.638991 93.518996 
L 344.697444 93.665834 
L 344.726671 93.74678 
L 344.785124 93.664444 
L 344.814351 93.645809 
L 344.843577 93.69726 
L 344.90203 93.780172 
L 344.960483 93.727272 
L 345.252748 93.829282 
L 346.567942 94.108723 
L 350.835014 94.844387 
L 350.95192 94.498513 
L 351.010373 94.658977 
L 351.068826 94.987626 
L 351.127279 94.839585 
L 351.156505 94.789138 
L 351.185732 94.86196 
L 351.244185 95.025956 
L 351.302638 94.925544 
L 351.53645 95.075736 
L 352.617831 95.29001 
L 357.118715 96.127913 
L 357.264848 95.942137 
L 357.323301 95.881371 
L 357.352527 95.933873 
L 357.440207 96.224086 
L 357.49866 96.147878 
L 357.557113 96.122413 
L 357.58634 96.181066 
L 357.644793 96.264702 
L 357.703246 96.221557 
L 357.820152 96.297219 
L 358.696947 96.464334 
L 359.719876 96.663203 
L 359.719876 96.663203 
" clip-path="url(#p84348d8a60)" style="fill: none; stroke: #bfbf00; stroke-opacity: 0.8; stroke-width: 2; stroke-linecap: square"/>
   </g>
   <g id="LineCollection_1">
    <path d="M 96.710427 185.230723 
L 96.710427 19.106225 
" clip-path="url(#p84348d8a60)" style="fill: none; stroke-dasharray: 1.5,2.475; stroke-dashoffset: 0; stroke: #000000; stroke-width: 1.5"/>
   </g>
   <g id="patch_3">
    <path d="M 52.872109 193.536948 
L 52.872109 10.8 
" style="fill: none; stroke: #000000; stroke-width: 0.8; stroke-linejoin: miter; stroke-linecap: square"/>
   </g>
   <g id="patch_4">
    <path d="M 374.331674 193.536948 
L 374.331674 10.8 
" style="fill: none; stroke: #000000; stroke-width: 0.8; stroke-linejoin: miter; stroke-linecap: square"/>
   </g>
   <g id="patch_5">
    <path d="M 52.872109 193.536948 
L 374.331674 193.536948 
" style="fill: none; stroke: #000000; stroke-width: 0.8; stroke-linejoin: miter; stroke-linecap: square"/>
   </g>
   <g id="patch_6">
    <path d="M 52.872109 10.8 
L 374.331674 10.8 
" style="fill: none; stroke: #000000; stroke-width: 0.8; stroke-linejoin: miter; stroke-linecap: square"/>
   </g>
   <g id="legend_1">
    <g id="line2d_18">
     <path d="M 306.93913 152.534345 
L 320.93913 152.534345 
L 334.93913 152.534345 
" style="fill: none; stroke: #ff0000; stroke-opacity: 0.8; stroke-width: 2; stroke-linecap: square"/>
    </g>
    <g id="text_10">
     <!-- $\mathcal{L}_\phi$ -->
     <g transform="translate(346.13913 157.434345) scale(0.14 -0.14)">
      <defs>
       <path id="CMMI12-1e" d="M 2752 4390 
C 2752 4448 2707 4448 2688 4448 
C 2630 4448 2624 4435 2598 4326 
L 2253 2939 
C 2234 2856 2227 2849 2221 2843 
C 2214 2830 2170 2824 2157 2824 
C 1107 2734 301 1864 301 1057 
C 301 361 832 -64 1498 -64 
C 1446 -261 1402 -463 1350 -659 
C 1261 -995 1210 -1204 1210 -1229 
C 1210 -1241 1210 -1280 1274 -1280 
C 1293 -1280 1318 -1280 1331 -1254 
C 1344 -1241 1382 -1089 1408 -1008 
L 1645 -64 
C 2739 -64 3571 854 3571 1680 
C 3571 2343 3085 2816 2374 2816 
L 2752 4390 
z
M 2336 2701 
C 2758 2701 3181 2463 3181 1828 
C 3181 1097 2675 128 1677 50 
L 2336 2701 
z
M 1530 50 
C 1216 50 691 220 691 938 
C 691 1761 1274 2676 2195 2676 
L 1530 50 
z
" transform="scale(0.015625)"/>
      </defs>
      <use xlink:href="#CMSY10-4c" transform="scale(0.996264)"/>
      <use xlink:href="#CMMI12-1e" transform="translate(68.714808 -14.943915) scale(0.697382)"/>
     </g>
    </g>
    <g id="line2d_19">
     <path d="M 306.93913 173.32492 
L 320.93913 173.32492 
L 334.93913 173.32492 
" style="fill: none; stroke: #bfbf00; stroke-opacity: 0.8; stroke-width: 2; stroke-linecap: square"/>
    </g>
    <g id="text_11">
     <!-- $\mathcal{L}_u$ -->
     <g transform="translate(346.13913 178.22492) scale(0.14 -0.14)">
      <defs>
       <path id="CMMI12-75" d="M 2182 370 
C 2266 13 2573 -64 2726 -64 
C 2931 -64 3085 70 3187 287 
C 3296 517 3379 894 3379 913 
C 3379 945 3354 971 3315 971 
C 3258 971 3251 939 3226 843 
C 3110 402 2995 64 2739 64 
C 2547 64 2547 275 2547 358 
C 2547 505 2566 568 2630 837 
C 2675 1009 2720 1181 2758 1360 
L 3021 2401 
C 3066 2561 3066 2574 3066 2593 
C 3066 2689 2989 2753 2893 2753 
C 2707 2753 2662 2593 2624 2433 
C 2560 2184 2214 811 2170 588 
C 2163 588 1914 64 1446 64 
C 1114 64 1050 351 1050 588 
C 1050 952 1229 1462 1395 1890 
C 1472 2095 1504 2178 1504 2305 
C 1504 2580 1306 2816 998 2816 
C 410 2816 173 1890 173 1839 
C 173 1814 198 1782 243 1782 
C 301 1782 307 1807 333 1896 
C 486 2441 736 2682 979 2682 
C 1043 2682 1146 2682 1146 2478 
C 1146 2312 1075 2127 979 1884 
C 698 1124 666 881 666 690 
C 666 38 1158 -64 1421 -64 
C 1830 -64 2054 217 2182 370 
z
" transform="scale(0.015625)"/>
      </defs>
      <use xlink:href="#CMSY10-4c" transform="scale(0.996264)"/>
      <use xlink:href="#CMMI12-75" transform="translate(68.714808 -14.943915) scale(0.697382)"/>
     </g>
    </g>
   </g>
  </g>
 </g>
 <defs>
  <clipPath id="p84348d8a60">
   <rect x="52.872109" y="10.8" width="321.459565" height="182.736948"/>
  </clipPath>
 </defs>
</svg>
