<?xml version="1.0" encoding="utf-8" standalone="no"?>
<!DOCTYPE svg PUBLIC "-//W3C//DTD SVG 1.1//EN"
  "http://www.w3.org/Graphics/SVG/1.1/DTD/svg11.dtd">
<svg xmlns:xlink="http://www.w3.org/1999/xlink" width="388.542964pt" height="240.132758pt" viewBox="0 0 388.542964 240.132758" xmlns="http://www.w3.org/2000/svg" version="1.1">
 <metadata>
  <rdf:RDF xmlns:dc="http://purl.org/dc/elements/1.1/" xmlns:cc="http://creativecommons.org/ns#" xmlns:rdf="http://www.w3.org/1999/02/22-rdf-syntax-ns#">
   <cc:Work>
    <dc:type rdf:resource="http://purl.org/dc/dcmitype/StillImage"/>
    <dc:date>2024-12-03T17:37:24.183385</dc:date>
    <dc:format>image/svg+xml</dc:format>
    <dc:creator>
     <cc:Agent>
      <dc:title>Matplotlib v3.7.5, https://matplotlib.org/</dc:title>
     </cc:Agent>
    </dc:creator>
   </cc:Work>
  </rdf:RDF>
 </metadata>
 <defs>
  <style type="text/css">*{stroke-linejoin: round; stroke-linecap: butt}</style>
 </defs>
 <g id="figure_1">
  <g id="patch_1">
   <path d="M 0 240.132758 
L 388.542964 240.132758 
L 388.542964 0 
L 0 0 
z
" style="fill: #ffffff"/>
  </g>
  <g id="axes_1">
   <g id="patch_2">
    <path d="M 60.676704 193.536948 
L 374.359051 193.536948 
L 374.359051 10.8 
L 60.676704 10.8 
z
" style="fill: #ffffff"/>
   </g>
   <g id="matplotlib.axis_1">
    <g id="xtick_1">
     <g id="line2d_1">
      <defs>
       <path id="mdc76d2dacb" d="M 0 0 
L 0 3.5 
" style="stroke: #000000; stroke-width: 0.8"/>
      </defs>
      <g>
       <use xlink:href="#mdc76d2dacb" x="74.934992" y="193.536948" style="stroke: #000000; stroke-width: 0.8"/>
      </g>
     </g>
     <g id="text_1">
      <!-- $\mathdefault{0}$ -->
      <g transform="translate(71.520748 210.222825) scale(0.14 -0.14)">
       <defs>
        <path id="CMR17-30" d="M 2688 2025 
C 2688 2416 2682 3080 2413 3591 
C 2176 4039 1798 4198 1466 4198 
C 1158 4198 768 4058 525 3597 
C 269 3118 243 2524 243 2025 
C 243 1661 250 1106 448 619 
C 723 -39 1216 -128 1466 -128 
C 1760 -128 2208 -7 2470 600 
C 2662 1042 2688 1559 2688 2025 
z
M 1466 -26 
C 1056 -26 813 325 723 812 
C 653 1188 653 1738 653 2096 
C 653 2588 653 2997 736 3387 
C 858 3929 1216 4096 1466 4096 
C 1728 4096 2067 3923 2189 3400 
C 2272 3036 2278 2607 2278 2096 
C 2278 1680 2278 1169 2202 792 
C 2067 95 1690 -26 1466 -26 
z
" transform="scale(0.015625)"/>
       </defs>
       <use xlink:href="#CMR17-30" transform="scale(0.996264)"/>
      </g>
     </g>
    </g>
    <g id="xtick_2">
     <g id="line2d_2">
      <g>
       <use xlink:href="#mdc76d2dacb" x="131.968146" y="193.536948" style="stroke: #000000; stroke-width: 0.8"/>
      </g>
     </g>
     <g id="text_2">
      <!-- $\mathdefault{2000}$ -->
      <g transform="translate(118.311169 210.222825) scale(0.14 -0.14)">
       <defs>
        <path id="CMR17-32" d="M 2669 989 
L 2554 989 
C 2490 536 2438 459 2413 420 
C 2381 369 1920 369 1830 369 
L 602 369 
C 832 619 1280 1072 1824 1597 
C 2214 1967 2669 2402 2669 3035 
C 2669 3790 2067 4224 1395 4224 
C 691 4224 262 3604 262 3030 
C 262 2780 448 2748 525 2748 
C 589 2748 781 2787 781 3010 
C 781 3207 614 3264 525 3264 
C 486 3264 448 3258 422 3245 
C 544 3790 915 4058 1306 4058 
C 1862 4058 2227 3617 2227 3035 
C 2227 2479 1901 2000 1536 1584 
L 262 146 
L 262 0 
L 2515 0 
L 2669 989 
z
" transform="scale(0.015625)"/>
       </defs>
       <use xlink:href="#CMR17-32" transform="scale(0.996264)"/>
       <use xlink:href="#CMR17-30" transform="translate(45.690477 0) scale(0.996264)"/>
       <use xlink:href="#CMR17-30" transform="translate(91.380954 0) scale(0.996264)"/>
       <use xlink:href="#CMR17-30" transform="translate(137.071431 0) scale(0.996264)"/>
      </g>
     </g>
    </g>
    <g id="xtick_3">
     <g id="line2d_3">
      <g>
       <use xlink:href="#mdc76d2dacb" x="189.001301" y="193.536948" style="stroke: #000000; stroke-width: 0.8"/>
      </g>
     </g>
     <g id="text_3">
      <!-- $\mathdefault{4000}$ -->
      <g transform="translate(175.344323 210.222825) scale(0.14 -0.14)">
       <defs>
        <path id="CMR17-34" d="M 2150 4122 
C 2150 4256 2144 4256 2029 4256 
L 128 1254 
L 128 1088 
L 1779 1088 
L 1779 457 
C 1779 224 1766 160 1318 160 
L 1197 160 
L 1197 0 
C 1402 0 1747 0 1965 0 
C 2182 0 2528 0 2733 0 
L 2733 160 
L 2611 160 
C 2163 160 2150 224 2150 457 
L 2150 1088 
L 2803 1088 
L 2803 1254 
L 2150 1254 
L 2150 4122 
z
M 1798 3703 
L 1798 1254 
L 256 1254 
L 1798 3703 
z
" transform="scale(0.015625)"/>
       </defs>
       <use xlink:href="#CMR17-34" transform="scale(0.996264)"/>
       <use xlink:href="#CMR17-30" transform="translate(45.690477 0) scale(0.996264)"/>
       <use xlink:href="#CMR17-30" transform="translate(91.380954 0) scale(0.996264)"/>
       <use xlink:href="#CMR17-30" transform="translate(137.071431 0) scale(0.996264)"/>
      </g>
     </g>
    </g>
    <g id="xtick_4">
     <g id="line2d_4">
      <g>
       <use xlink:href="#mdc76d2dacb" x="246.034455" y="193.536948" style="stroke: #000000; stroke-width: 0.8"/>
      </g>
     </g>
     <g id="text_4">
      <!-- $\mathdefault{6000}$ -->
      <g transform="translate(232.377477 210.222825) scale(0.14 -0.14)">
       <defs>
        <path id="CMR17-36" d="M 678 2176 
C 678 3690 1395 4032 1811 4032 
C 1946 4032 2272 4009 2400 3776 
C 2298 3776 2106 3776 2106 3553 
C 2106 3381 2246 3323 2336 3323 
C 2394 3323 2566 3348 2566 3560 
C 2566 3954 2246 4179 1805 4179 
C 1043 4179 243 3390 243 1984 
C 243 253 966 -128 1478 -128 
C 2099 -128 2688 427 2688 1283 
C 2688 2081 2170 2662 1517 2662 
C 1126 2662 838 2407 678 1960 
L 678 2176 
z
M 1478 25 
C 691 25 691 1200 691 1436 
C 691 1896 909 2560 1504 2560 
C 1613 2560 1926 2560 2138 2120 
C 2253 1870 2253 1609 2253 1289 
C 2253 944 2253 690 2118 434 
C 1978 171 1773 25 1478 25 
z
" transform="scale(0.015625)"/>
       </defs>
       <use xlink:href="#CMR17-36" transform="scale(0.996264)"/>
       <use xlink:href="#CMR17-30" transform="translate(45.690477 0) scale(0.996264)"/>
       <use xlink:href="#CMR17-30" transform="translate(91.380954 0) scale(0.996264)"/>
       <use xlink:href="#CMR17-30" transform="translate(137.071431 0) scale(0.996264)"/>
      </g>
     </g>
    </g>
    <g id="xtick_5">
     <g id="line2d_5">
      <g>
       <use xlink:href="#mdc76d2dacb" x="303.067609" y="193.536948" style="stroke: #000000; stroke-width: 0.8"/>
      </g>
     </g>
     <g id="text_5">
      <!-- $\mathdefault{8000}$ -->
      <g transform="translate(289.410631 210.222825) scale(0.14 -0.14)">
       <defs>
        <path id="CMR17-38" d="M 1741 2264 
C 2144 2467 2554 2773 2554 3263 
C 2554 3841 1990 4179 1472 4179 
C 890 4179 378 3759 378 3180 
C 378 3021 416 2747 666 2505 
C 730 2442 998 2251 1171 2130 
C 883 1983 211 1634 211 934 
C 211 279 838 -128 1459 -128 
C 2144 -128 2720 362 2720 1010 
C 2720 1590 2330 1857 2074 2029 
L 1741 2264 
z
M 902 2822 
C 851 2854 595 3051 595 3351 
C 595 3739 998 4032 1459 4032 
C 1965 4032 2336 3676 2336 3262 
C 2336 2669 1670 2331 1638 2331 
C 1632 2331 1626 2331 1574 2370 
L 902 2822 
z
M 2080 1519 
C 2176 1449 2483 1240 2483 851 
C 2483 381 2010 25 1472 25 
C 890 25 448 438 448 940 
C 448 1443 838 1862 1280 2060 
L 2080 1519 
z
" transform="scale(0.015625)"/>
       </defs>
       <use xlink:href="#CMR17-38" transform="scale(0.996264)"/>
       <use xlink:href="#CMR17-30" transform="translate(45.690477 0) scale(0.996264)"/>
       <use xlink:href="#CMR17-30" transform="translate(91.380954 0) scale(0.996264)"/>
       <use xlink:href="#CMR17-30" transform="translate(137.071431 0) scale(0.996264)"/>
      </g>
     </g>
    </g>
    <g id="xtick_6">
     <g id="line2d_6">
      <g>
       <use xlink:href="#mdc76d2dacb" x="360.100763" y="193.536948" style="stroke: #000000; stroke-width: 0.8"/>
      </g>
     </g>
     <g id="text_6">
      <!-- $\mathdefault{10000}$ -->
      <g transform="translate(343.029541 210.222825) scale(0.14 -0.14)">
       <defs>
        <path id="CMR17-31" d="M 1702 4058 
C 1702 4192 1696 4192 1606 4192 
C 1357 3916 979 3827 621 3827 
C 602 3827 570 3827 563 3808 
C 557 3795 557 3782 557 3648 
C 755 3648 1088 3686 1344 3839 
L 1344 461 
C 1344 236 1331 160 781 160 
L 589 160 
L 589 0 
C 896 0 1216 0 1523 0 
C 1830 0 2150 0 2458 0 
L 2458 160 
L 2266 160 
C 1715 160 1702 230 1702 458 
L 1702 4058 
z
" transform="scale(0.015625)"/>
       </defs>
       <use xlink:href="#CMR17-31" transform="scale(0.996264)"/>
       <use xlink:href="#CMR17-30" transform="translate(45.690477 0) scale(0.996264)"/>
       <use xlink:href="#CMR17-30" transform="translate(91.380954 0) scale(0.996264)"/>
       <use xlink:href="#CMR17-30" transform="translate(137.071431 0) scale(0.996264)"/>
       <use xlink:href="#CMR17-30" transform="translate(182.761908 0) scale(0.996264)"/>
      </g>
     </g>
    </g>
    <g id="text_7">
     <!-- Iteration -->
     <g transform="translate(191.534102 226.620729) scale(0.14 -0.14)">
      <defs>
       <path id="CMR17-49" d="M 1261 3905 
C 1261 4192 1338 4192 1798 4192 
L 1798 4352 
C 1594 4352 1267 4352 1050 4352 
C 832 4352 506 4352 301 4352 
L 301 4192 
C 762 4192 838 4192 838 3905 
L 838 447 
C 838 160 762 160 301 160 
L 301 0 
C 506 0 832 0 1050 0 
C 1267 0 1594 0 1798 0 
L 1798 160 
C 1338 160 1261 160 1261 447 
L 1261 3905 
z
" transform="scale(0.015625)"/>
       <path id="CMR17-74" d="M 966 2560 
L 1862 2560 
L 1862 2725 
L 966 2725 
L 966 3904 
L 851 3904 
C 838 3245 614 2668 70 2668 
L 70 2560 
L 627 2560 
L 627 771 
C 627 650 627 -64 1370 -64 
C 1747 -64 1965 306 1965 777 
L 1965 1140 
L 1850 1140 
L 1850 783 
C 1850 344 1677 51 1408 51 
C 1222 51 966 178 966 758 
L 966 2560 
z
" transform="scale(0.015625)"/>
       <path id="CMR17-65" d="M 2438 1472 
C 2464 1498 2464 1511 2464 1576 
C 2464 2238 2118 2816 1389 2816 
C 710 2816 173 2169 173 1383 
C 173 551 781 -64 1459 -64 
C 2176 -64 2458 607 2458 740 
C 2458 784 2419 784 2406 784 
C 2362 784 2355 771 2330 696 
C 2189 265 1837 51 1504 51 
C 1229 51 954 203 781 480 
C 582 803 582 1176 582 1472 
L 2438 1472 
z
M 589 1568 
C 634 2505 1126 2714 1382 2714 
C 1818 2714 2112 2297 2118 1568 
L 589 1568 
z
" transform="scale(0.015625)"/>
       <path id="CMR17-72" d="M 960 1497 
C 960 2112 1222 2688 1702 2688 
C 1747 2688 1792 2682 1837 2662 
C 1837 2662 1696 2617 1696 2452 
C 1696 2298 1818 2234 1914 2234 
C 1990 2234 2131 2279 2131 2458 
C 2131 2663 1926 2790 1709 2790 
C 1222 2790 1011 2317 947 2093 
L 941 2093 
L 941 2790 
L 198 2720 
L 198 2554 
C 576 2554 634 2515 634 2208 
L 634 428 
C 634 184 608 153 198 153 
L 198 -13 
C 352 0 646 0 813 0 
C 998 0 1325 0 1498 -13 
L 1498 153 
C 1037 153 960 153 960 440 
L 960 1497 
z
" transform="scale(0.015625)"/>
       <path id="CMR17-61" d="M 2304 1653 
C 2304 2072 2304 2294 2035 2543 
C 1798 2752 1523 2816 1306 2816 
C 800 2816 435 2407 435 1971 
C 435 1728 627 1728 666 1728 
C 749 1728 896 1778 896 1954 
C 896 2112 774 2181 666 2181 
C 640 2181 608 2174 589 2168 
C 723 2592 1069 2714 1293 2714 
C 1613 2714 1965 2429 1965 1885 
L 1965 1600 
C 1587 1600 1133 1549 774 1357 
C 371 1133 256 813 256 570 
C 256 77 832 -64 1171 -64 
C 1523 -64 1850 139 1990 511 
C 2003 233 2182 -18 2464 -18 
C 2598 -18 2938 70 2938 567 
L 2938 920 
L 2822 920 
L 2822 562 
C 2822 178 2650 128 2566 128 
C 2304 128 2304 458 2304 738 
L 2304 1653 
z
M 1965 870 
C 1965 317 1568 38 1216 38 
C 896 38 646 275 646 570 
C 646 761 730 1100 1101 1305 
C 1408 1478 1760 1504 1965 1504 
L 1965 870 
z
" transform="scale(0.015625)"/>
       <path id="CMR17-69" d="M 992 3909 
C 992 4049 877 4170 730 4170 
C 589 4170 467 4056 467 3909 
C 467 3769 582 3648 730 3648 
C 870 3648 992 3763 992 3909 
z
M 243 2706 
L 243 2541 
C 602 2541 653 2502 653 2197 
L 653 427 
C 653 184 627 153 218 153 
L 218 -13 
C 371 0 646 0 806 0 
C 960 0 1222 0 1370 -13 
L 1370 153 
C 992 153 979 191 979 420 
L 979 2776 
L 243 2706 
z
" transform="scale(0.015625)"/>
       <path id="CMR17-6f" d="M 2758 1356 
C 2758 2176 2163 2816 1466 2816 
C 768 2816 173 2176 173 1356 
C 173 551 768 -64 1466 -64 
C 2163 -64 2758 551 2758 1356 
z
M 1466 51 
C 1165 51 909 230 762 480 
C 602 767 582 1126 582 1408 
C 582 1677 595 2010 762 2298 
C 890 2509 1139 2714 1466 2714 
C 1754 2714 1997 2554 2150 2330 
C 2349 2029 2349 1607 2349 1408 
C 2349 1158 2336 775 2163 467 
C 1984 173 1709 51 1466 51 
z
" transform="scale(0.015625)"/>
       <path id="CMR17-6e" d="M 2656 1933 
C 2656 2259 2592 2790 1837 2790 
C 1331 2790 1069 2400 973 2144 
L 966 2144 
L 966 2790 
L 211 2720 
L 211 2554 
C 589 2554 646 2515 646 2208 
L 646 428 
C 646 184 621 153 211 153 
L 211 -13 
C 365 0 646 0 813 0 
C 979 0 1267 0 1421 -13 
L 1421 153 
C 1011 153 986 178 986 428 
L 986 1658 
C 986 2247 1344 2688 1792 2688 
C 2266 2688 2317 2266 2317 1958 
L 2317 428 
C 2317 184 2291 153 1882 153 
L 1882 -13 
C 2035 0 2317 0 2483 0 
C 2650 0 2938 0 3091 -13 
L 3091 153 
C 2682 153 2656 178 2656 428 
L 2656 1933 
z
" transform="scale(0.015625)"/>
      </defs>
      <use xlink:href="#CMR17-49" transform="scale(0.996264)"/>
      <use xlink:href="#CMR17-74" transform="translate(32.638409 0) scale(0.996264)"/>
      <use xlink:href="#CMR17-65" transform="translate(67.919177 0) scale(0.996264)"/>
      <use xlink:href="#CMR17-72" transform="translate(108.404837 0) scale(0.996264)"/>
      <use xlink:href="#CMR17-61" transform="translate(143.685605 0) scale(0.996264)"/>
      <use xlink:href="#CMR17-74" transform="translate(189.376082 0) scale(0.996264)"/>
      <use xlink:href="#CMR17-69" transform="translate(224.65685 0) scale(0.996264)"/>
      <use xlink:href="#CMR17-6f" transform="translate(249.527909 0) scale(0.996264)"/>
      <use xlink:href="#CMR17-6e" transform="translate(295.218386 0) scale(0.996264)"/>
     </g>
    </g>
   </g>
   <g id="matplotlib.axis_2">
    <g id="ytick_1">
     <g id="line2d_7">
      <defs>
       <path id="m440e93a241" d="M 0 0 
L -3.5 0 
" style="stroke: #000000; stroke-width: 0.8"/>
      </defs>
      <g>
       <use xlink:href="#m440e93a241" x="60.676704" y="165.437161" style="stroke: #000000; stroke-width: 0.8"/>
      </g>
     </g>
     <g id="text_8">
      <!-- $\mathdefault{10^{-1}}$ -->
      <g transform="translate(27.197905 170.280099) scale(0.14 -0.14)">
       <defs>
        <path id="CMSY10-0" d="M 4218 1472 
C 4326 1472 4442 1472 4442 1600 
C 4442 1728 4326 1728 4218 1728 
L 755 1728 
C 646 1728 531 1728 531 1600 
C 531 1472 646 1472 755 1472 
L 4218 1472 
z
" transform="scale(0.015625)"/>
       </defs>
       <use xlink:href="#CMR17-31" transform="scale(0.996264)"/>
       <use xlink:href="#CMR17-30" transform="translate(45.690477 0) scale(0.996264)"/>
       <use xlink:href="#CMSY10-0" transform="translate(91.380954 36.153639) scale(0.697382)"/>
       <use xlink:href="#CMR17-31" transform="translate(145.621947 36.153639) scale(0.697382)"/>
      </g>
     </g>
    </g>
    <g id="ytick_2">
     <g id="line2d_8">
      <g>
       <use xlink:href="#m440e93a241" x="60.676704" y="77.496965" style="stroke: #000000; stroke-width: 0.8"/>
      </g>
     </g>
     <g id="text_9">
      <!-- $\mathdefault{10^{0}}$ -->
      <g transform="translate(35.0025 82.339903) scale(0.14 -0.14)">
       <use xlink:href="#CMR17-31" transform="scale(0.996264)"/>
       <use xlink:href="#CMR17-30" transform="translate(45.690477 0) scale(0.996264)"/>
       <use xlink:href="#CMR17-30" transform="translate(91.380954 36.153639) scale(0.697382)"/>
      </g>
     </g>
    </g>
    <g id="ytick_3">
     <g id="line2d_9">
      <defs>
       <path id="m3ada6fbcf6" d="M 0 0 
L -2 0 
" style="stroke: #000000; stroke-width: 0.6"/>
      </defs>
      <g>
       <use xlink:href="#m3ada6fbcf6" x="60.676704" y="191.909798" style="stroke: #000000; stroke-width: 0.6"/>
      </g>
     </g>
    </g>
    <g id="ytick_4">
     <g id="line2d_10">
      <g>
       <use xlink:href="#m3ada6fbcf6" x="60.676704" y="184.946584" style="stroke: #000000; stroke-width: 0.6"/>
      </g>
     </g>
    </g>
    <g id="ytick_5">
     <g id="line2d_11">
      <g>
       <use xlink:href="#m3ada6fbcf6" x="60.676704" y="179.05927" style="stroke: #000000; stroke-width: 0.6"/>
      </g>
     </g>
    </g>
    <g id="ytick_6">
     <g id="line2d_12">
      <g>
       <use xlink:href="#m3ada6fbcf6" x="60.676704" y="173.959447" style="stroke: #000000; stroke-width: 0.6"/>
      </g>
     </g>
    </g>
    <g id="ytick_7">
     <g id="line2d_13">
      <g>
       <use xlink:href="#m3ada6fbcf6" x="60.676704" y="169.461084" style="stroke: #000000; stroke-width: 0.6"/>
      </g>
     </g>
    </g>
    <g id="ytick_8">
     <g id="line2d_14">
      <g>
       <use xlink:href="#m3ada6fbcf6" x="60.676704" y="138.964524" style="stroke: #000000; stroke-width: 0.6"/>
      </g>
     </g>
    </g>
    <g id="ytick_9">
     <g id="line2d_15">
      <g>
       <use xlink:href="#m3ada6fbcf6" x="60.676704" y="123.479024" style="stroke: #000000; stroke-width: 0.6"/>
      </g>
     </g>
    </g>
    <g id="ytick_10">
     <g id="line2d_16">
      <g>
       <use xlink:href="#m3ada6fbcf6" x="60.676704" y="112.491887" style="stroke: #000000; stroke-width: 0.6"/>
      </g>
     </g>
    </g>
    <g id="ytick_11">
     <g id="line2d_17">
      <g>
       <use xlink:href="#m3ada6fbcf6" x="60.676704" y="103.969602" style="stroke: #000000; stroke-width: 0.6"/>
      </g>
     </g>
    </g>
    <g id="ytick_12">
     <g id="line2d_18">
      <g>
       <use xlink:href="#m3ada6fbcf6" x="60.676704" y="97.006387" style="stroke: #000000; stroke-width: 0.6"/>
      </g>
     </g>
    </g>
    <g id="ytick_13">
     <g id="line2d_19">
      <g>
       <use xlink:href="#m3ada6fbcf6" x="60.676704" y="91.119074" style="stroke: #000000; stroke-width: 0.6"/>
      </g>
     </g>
    </g>
    <g id="ytick_14">
     <g id="line2d_20">
      <g>
       <use xlink:href="#m3ada6fbcf6" x="60.676704" y="86.01925" style="stroke: #000000; stroke-width: 0.6"/>
      </g>
     </g>
    </g>
    <g id="ytick_15">
     <g id="line2d_21">
      <g>
       <use xlink:href="#m3ada6fbcf6" x="60.676704" y="81.520887" style="stroke: #000000; stroke-width: 0.6"/>
      </g>
     </g>
    </g>
    <g id="ytick_16">
     <g id="line2d_22">
      <g>
       <use xlink:href="#m3ada6fbcf6" x="60.676704" y="51.024328" style="stroke: #000000; stroke-width: 0.6"/>
      </g>
     </g>
    </g>
    <g id="ytick_17">
     <g id="line2d_23">
      <g>
       <use xlink:href="#m3ada6fbcf6" x="60.676704" y="35.538828" style="stroke: #000000; stroke-width: 0.6"/>
      </g>
     </g>
    </g>
    <g id="ytick_18">
     <g id="line2d_24">
      <g>
       <use xlink:href="#m3ada6fbcf6" x="60.676704" y="24.551691" style="stroke: #000000; stroke-width: 0.6"/>
      </g>
     </g>
    </g>
    <g id="ytick_19">
     <g id="line2d_25">
      <g>
       <use xlink:href="#m3ada6fbcf6" x="60.676704" y="16.029405" style="stroke: #000000; stroke-width: 0.6"/>
      </g>
     </g>
    </g>
    <g id="text_10">
     <!-- $\mathcal{L}$ -->
     <g transform="translate(20.485876 106.978508) rotate(-90) scale(0.14 -0.14)">
      <defs>
       <path id="CMSY10-4c" d="M 1152 610 
C 1498 1151 1606 1562 1690 1903 
C 1914 2790 2157 3562 2554 4005 
C 2630 4090 2682 4147 2886 4147 
C 3328 4147 3341 3704 3341 3613 
C 3341 3498 3309 3407 3309 3375 
C 3309 3330 3347 3330 3354 3330 
C 3456 3330 3629 3401 3789 3517 
C 3904 3607 3962 3671 3962 3934 
C 3962 4281 3782 4544 3424 4544 
C 3219 4544 2656 4493 2029 3856 
C 1517 3329 1216 2172 1094 1690 
C 979 1248 928 1048 736 662 
C 691 586 525 303 435 219 
C 262 59 198 -57 198 -89 
C 198 -102 211 -128 256 -128 
C 282 -128 416 -102 582 5 
C 691 68 704 80 851 231 
C 1171 231 1395 173 1798 58 
C 2125 -32 2451 -128 2778 -128 
C 3296 -128 3821 264 4026 546 
C 4154 719 4192 880 4192 899 
C 4192 944 4154 944 4147 944 
C 4045 944 3891 874 3782 796 
C 3610 687 3597 649 3558 539 
C 3526 436 3488 385 3462 346 
C 3411 269 3405 269 3309 269 
C 3002 269 2682 366 2259 481 
C 2080 532 1728 636 1408 636 
C 1325 636 1235 629 1152 610 
z
" transform="scale(0.015625)"/>
      </defs>
      <use xlink:href="#CMSY10-4c" transform="scale(0.996264)"/>
     </g>
    </g>
   </g>
   <g id="line2d_26">
    <path d="M 74.934992 19.106225 
L 75.220158 126.349414 
L 75.277191 142.377698 
L 75.334224 131.895956 
L 75.505324 105.370504 
L 75.53384 106.490743 
L 75.647907 123.640557 
L 75.847523 160.11719 
L 75.876039 158.434704 
L 76.047139 146.706659 
L 76.075655 147.265156 
L 76.218238 158.088165 
L 76.360821 164.551534 
L 76.389338 164.306394 
L 76.503404 162.715771 
L 76.560437 163.024182 
L 76.959669 168.369626 
L 77.073736 169.14713 
L 77.330385 170.66752 
L 77.530001 171.287629 
L 77.78665 171.89147 
L 79.069896 173.317632 
L 80.581275 174.271059 
L 80.666824 174.067752 
L 80.695341 174.107702 
L 80.752374 174.435387 
L 80.837924 174.35395 
L 80.980507 174.554985 
L 82.206719 175.190478 
L 84.20288 176.030649 
L 84.659145 176.114672 
L 84.773211 175.921539 
L 84.801728 176.054926 
L 84.858761 176.273414 
L 84.915794 176.1341 
L 85.143927 176.368156 
L 85.20096 176.349093 
L 85.229477 176.397676 
L 85.514642 176.51588 
L 85.828325 176.6227 
L 87.567836 177.244675 
L 89.193281 177.722912 
L 89.307347 177.391975 
L 89.335864 177.538057 
L 89.392897 177.899055 
L 89.44993 177.693225 
L 89.792129 178.0384 
L 89.849162 178.01281 
L 89.877679 178.058935 
L 90.162844 178.176723 
L 90.44801 178.27935 
L 92.472687 179.052307 
L 94.525881 179.744654 
L 94.639947 179.28868 
L 94.668464 179.424136 
L 94.725497 179.934833 
L 94.78253 179.699222 
L 94.811047 179.693332 
L 94.86808 179.996407 
L 94.953629 179.898702 
L 95.096212 180.053311 
L 95.267312 180.135413 
L 95.409895 180.183996 
L 97.092373 180.880618 
L 99.630348 181.777964 
L 99.715898 181.399631 
L 99.772931 181.099634 
L 99.801448 181.321648 
L 99.858481 181.945789 
L 99.915514 181.572826 
L 100.11513 182.036056 
L 100.143646 181.979294 
L 100.172163 181.901849 
L 100.20068 181.968027 
L 100.343262 182.106504 
L 105.019981 183.387827 
L 105.105531 183.122232 
L 105.191081 182.465977 
L 105.219597 182.694366 
L 105.27663 183.485574 
L 105.333663 183.042198 
L 105.36218 183.071762 
L 105.419213 183.512782 
L 105.476246 183.226727 
L 105.647346 183.537666 
L 106.702459 183.726236 
L 107.928672 183.892292 
L 111.436211 184.200169 
L 112.177642 184.175084 
L 112.263192 183.882273 
L 112.348741 183.399757 
L 112.377258 183.582703 
L 112.434291 184.242551 
L 112.491324 183.958071 
L 112.519841 183.859873 
L 112.548357 184.020663 
L 112.605391 184.244963 
L 112.662424 184.041758 
L 112.719457 184.263819 
L 112.805007 184.150624 
L 112.86204 184.281068 
L 112.94759 184.224472 
L 113.090172 184.270045 
L 113.261272 184.299494 
L 113.517921 184.31282 
L 114.287869 184.346368 
L 119.249753 184.507226 
L 120.1908 184.426453 
L 120.304866 183.821781 
L 120.333383 183.65116 
L 120.3619 183.713781 
L 120.447449 184.53242 
L 120.504482 184.155898 
L 120.532999 184.165318 
L 120.590032 184.535242 
L 120.647065 184.33538 
L 120.675582 184.328585 
L 120.732615 184.542076 
L 120.789648 184.412034 
L 121.160364 184.538228 
L 121.35998 184.545518 
L 121.702179 184.560684 
L 123.413173 184.598381 
L 128.432091 184.592416 
L 128.546157 184.010715 
L 128.60319 183.798964 
L 128.631707 184.049461 
L 128.68874 184.688111 
L 128.745773 184.358349 
L 128.77429 184.274814 
L 128.802806 184.446201 
L 128.85984 184.67522 
L 128.888356 184.536682 
L 128.916873 184.459288 
L 128.945389 184.551085 
L 129.002422 184.681514 
L 129.059456 184.560994 
L 129.116489 184.695908 
L 129.202038 184.624466 
L 129.344621 184.664483 
L 129.515721 184.704799 
L 130.741934 184.725326 
L 136.559315 184.7491 
L 136.644865 184.491671 
L 136.730415 183.830407 
L 136.787448 184.143767 
L 136.844481 184.813353 
L 136.901514 184.421686 
L 136.930031 184.362079 
L 136.987064 184.791204 
L 137.044097 184.617095 
L 137.072614 184.558792 
L 137.10113 184.682503 
L 137.129647 184.808027 
L 137.18668 184.686945 
L 137.215197 184.673631 
L 137.243713 184.761374 
L 137.386296 184.803288 
L 137.585912 184.792786 
L 138.612509 184.836196 
L 144.629507 184.852131 
L 144.715056 184.638706 
L 144.829123 183.906218 
L 144.857639 184.051041 
L 144.943189 184.885488 
L 144.971706 184.665919 
L 145.000222 184.463139 
L 145.057255 184.755975 
L 145.085772 184.90709 
L 145.142805 184.685666 
L 145.171322 184.676277 
L 145.228355 184.90791 
L 145.285388 184.77913 
L 145.342421 184.859119 
L 145.485004 184.890363 
L 145.656103 184.913408 
L 145.855719 184.897216 
L 146.254952 184.916903 
L 152.214916 184.845144 
L 152.328982 184.170211 
L 152.357499 183.944586 
L 152.414532 184.221152 
L 152.471565 184.958865 
L 152.528598 184.629241 
L 152.557115 184.492149 
L 152.585632 184.638484 
L 152.642665 184.970219 
L 152.699698 184.717264 
L 152.927831 184.974666 
L 152.956347 184.93162 
L 152.984864 184.885933 
L 153.041897 184.957928 
L 153.241513 184.956142 
L 153.469646 184.977103 
L 159.60071 184.971042 
L 159.686259 184.769929 
L 159.800326 183.713597 
L 159.857359 184.13608 
L 159.914392 185.015753 
L 159.971425 184.483213 
L 159.999942 184.421358 
L 160.056975 184.994526 
L 160.114008 184.733163 
L 160.142525 184.678794 
L 160.171041 184.861179 
L 160.199558 185.011871 
L 160.256591 184.828588 
L 160.285107 184.835099 
L 160.342141 185.016599 
L 160.399174 184.891753 
L 160.59879 185.018347 
L 160.826922 185.003017 
L 161.055055 185.009361 
L 162.452367 185.026856 
L 167.699417 184.9802 
L 167.784967 184.67789 
L 167.899033 183.535324 
L 167.92755 183.831047 
L 167.984583 184.976878 
L 168.041616 184.596502 
L 168.070133 184.366189 
L 168.09865 184.540068 
L 168.155683 185.038399 
L 168.212716 184.662871 
L 168.412332 185.039483 
L 168.640464 184.989175 
L 168.783047 185.026699 
L 168.954147 185.049082 
L 169.210796 185.05069 
L 170.294426 185.053919 
L 175.883675 184.99865 
L 175.969225 184.66498 
L 176.083291 183.304145 
L 176.111808 183.626783 
L 176.197357 184.988368 
L 176.225874 184.53916 
L 176.254391 184.271212 
L 176.282907 184.484364 
L 176.33994 185.052506 
L 176.396973 184.613432 
L 176.596589 185.06787 
L 176.653623 184.906223 
L 176.710656 185.040904 
L 176.739172 185.063931 
L 176.767689 184.997081 
L 176.796206 184.965298 
L 176.824722 185.019103 
L 176.967305 185.058031 
L 177.280987 185.062221 
L 177.708736 185.068722 
L 180.417811 185.078767 
L 184.210516 185.008275 
L 184.296065 184.686154 
L 184.410132 183.400877 
L 184.467165 184.153327 
L 184.524198 185.083407 
L 184.581231 184.421847 
L 184.609748 184.366184 
L 184.666781 185.050478 
L 184.723814 184.779784 
L 184.752331 184.669163 
L 184.780847 184.845472 
L 184.83788 185.056827 
L 184.866397 184.90844 
L 184.894913 184.844477 
L 184.92343 184.954816 
L 184.951947 185.074931 
L 185.00898 184.970411 
L 185.037496 184.946454 
L 185.066013 185.021448 
L 185.094529 185.084785 
L 185.180079 185.007226 
L 185.322662 185.042699 
L 185.493762 185.081442 
L 186.00706 185.085097 
L 190.512679 185.097981 
L 191.938508 185.012698 
L 192.024058 184.632261 
L 192.138124 183.099257 
L 192.166641 183.251997 
L 192.25219 185.071051 
L 192.309223 184.18402 
L 192.366257 184.799881 
L 192.394773 185.098124 
L 192.451806 184.606548 
L 192.480323 184.644601 
L 192.537356 185.099726 
L 192.594389 184.792351 
L 192.794005 185.091019 
L 192.822522 185.077596 
L 192.879555 184.992064 
L 192.908072 185.059429 
L 193.050654 185.089041 
L 193.364337 185.09562 
L 193.678019 185.096077 
L 195.217914 185.10525 
L 200.122766 185.016679 
L 200.208315 184.615802 
L 200.322382 183.000576 
L 200.350898 183.092823 
L 200.436448 185.107112 
L 200.493481 184.202906 
L 200.521998 184.217334 
L 200.579031 185.084569 
L 200.636064 184.663534 
L 200.664581 184.590447 
L 200.721614 185.096258 
L 200.778647 184.835718 
L 200.807163 184.814922 
L 200.864197 185.111956 
L 200.92123 184.929712 
L 201.291945 185.106184 
L 201.463045 185.090314 
L 208.078891 185.091902 
L 208.16444 184.94561 
L 208.24999 184.257004 
L 208.33554 182.731542 
L 208.364056 182.959423 
L 208.449606 185.123718 
L 208.506639 184.19048 
L 208.535156 184.086277 
L 208.592189 185.076747 
L 208.649222 184.668129 
L 208.677739 184.528308 
L 208.706255 184.809421 
L 208.734772 185.097117 
L 208.791805 184.838773 
L 208.820322 184.784197 
L 208.877355 185.121026 
L 208.934388 184.931547 
L 208.962904 184.937734 
L 209.019938 185.125124 
L 209.076971 184.998287 
L 209.305103 185.117999 
L 209.447686 185.117746 
L 209.647302 185.111306 
L 209.989501 185.126951 
L 211.700496 185.129558 
L 216.149082 185.070846 
L 216.234632 184.809823 
L 216.348698 183.172465 
L 216.405731 182.809169 
L 216.491281 185.126079 
L 216.548314 184.271615 
L 216.576831 184.095992 
L 216.605347 184.457949 
L 216.66238 185.104807 
L 216.719413 184.557095 
L 216.947546 185.123351 
L 217.004579 184.930845 
L 217.061612 185.114071 
L 217.118645 185.045545 
L 217.147162 185.012653 
L 217.175679 185.065066 
L 217.232712 185.122348 
L 217.289745 185.062438 
L 217.460844 185.115302 
L 217.66046 185.130668 
L 218.002659 185.130053 
L 219.314422 185.137109 
L 224.190757 185.077527 
L 224.276306 184.772027 
L 224.390373 182.616352 
L 224.418889 181.96529 
L 224.447406 182.405369 
L 224.532955 185.069105 
L 224.589989 183.734997 
L 224.675538 185.121774 
L 224.818121 185.06925 
L 224.875154 184.668002 
L 224.903671 184.94847 
L 224.932188 185.138944 
L 224.989221 184.825033 
L 225.188837 185.139023 
L 225.24587 185.016482 
L 225.302903 185.135114 
L 225.531036 185.11505 
L 225.702135 185.139678 
L 225.987301 185.136506 
L 226.928348 185.141906 
L 233.230511 185.040155 
L 233.316061 184.656949 
L 233.458644 182.691138 
L 233.487161 183.272449 
L 233.57271 185.07906 
L 233.601227 184.567901 
L 233.629744 184.141398 
L 233.686777 184.744328 
L 233.715293 185.1247 
L 233.772326 184.68735 
L 233.800843 184.574128 
L 233.82936 184.833217 
L 233.857876 185.106862 
L 233.914909 184.904712 
L 233.943426 184.810959 
L 233.971942 184.948944 
L 234.028976 185.123463 
L 234.057492 185.00657 
L 234.086009 184.948133 
L 234.114525 185.028013 
L 234.171559 185.132405 
L 234.228592 185.028015 
L 234.399691 185.102272 
L 234.570791 185.140148 
L 235.483321 185.145849 
L 240.901471 185.085999 
L 240.98702 184.824574 
L 241.07257 183.746071 
L 241.15812 182.395169 
L 241.186636 183.204722 
L 241.24367 185.099755 
L 241.300703 184.241169 
L 241.329219 183.943868 
L 241.357736 184.292213 
L 241.414769 185.126117 
L 241.471802 184.482016 
L 241.699935 185.124021 
L 241.756968 184.910146 
L 241.785485 185.017575 
L 241.814001 185.1379 
L 241.871034 185.021462 
L 241.899551 185.010929 
L 241.928067 185.09099 
L 241.956584 185.147112 
L 242.042134 185.072469 
L 242.184717 185.107929 
L 242.355816 185.145055 
L 247.773966 185.150991 
L 249.199795 185.079973 
L 249.285344 184.794042 
L 249.399411 183.019555 
L 249.427927 182.430425 
L 249.48496 183.33625 
L 249.541994 185.14117 
L 249.599027 184.188411 
L 249.627543 183.927561 
L 249.65606 184.424719 
L 249.713093 185.103638 
L 249.74161 184.725835 
L 249.770126 184.467483 
L 249.798643 184.700834 
L 249.855676 185.122127 
L 249.912709 184.750378 
L 249.998259 185.117813 
L 250.026775 184.969083 
L 250.055292 184.916408 
L 250.083809 185.035561 
L 250.112325 185.144631 
L 250.169358 185.024653 
L 250.226391 185.099505 
L 250.368974 185.129438 
L 250.540074 185.148969 
L 250.73969 185.131511 
L 251.195955 185.148748 
L 252.707334 185.152207 
L 257.412569 185.062614 
L 257.498119 184.722697 
L 257.640701 182.562125 
L 257.697735 183.811668 
L 257.754768 185.145551 
L 257.811801 184.179957 
L 257.840317 184.07362 
L 257.925867 185.086365 
L 257.954384 184.740004 
L 257.9829 184.537295 
L 258.011417 184.757192 
L 258.06845 185.131376 
L 258.125483 184.796397 
L 258.211033 185.139628 
L 258.268066 184.942271 
L 258.353616 185.142407 
L 258.410649 185.027459 
L 258.581748 185.109951 
L 258.724331 185.127987 
L 258.923947 185.15199 
L 259.266146 185.148605 
L 262.887752 185.155895 
L 265.39721 185.082165 
L 265.48276 184.76788 
L 265.596826 182.806209 
L 265.625343 182.2185 
L 265.65386 182.553376 
L 265.739409 185.147682 
L 265.796442 183.979104 
L 265.824959 183.929268 
L 265.881992 185.129762 
L 265.939025 184.536345 
L 265.967542 184.458876 
L 266.024575 185.149341 
L 266.081608 184.754559 
L 266.110125 184.78079 
L 266.167158 185.152321 
L 266.224191 184.894125 
L 266.423807 185.153971 
L 266.623423 185.093523 
L 266.851556 185.149179 
L 267.079688 185.153902 
L 268.534034 185.157454 
L 274.009217 185.089176 
L 274.094766 184.821003 
L 274.208833 183.204001 
L 274.237349 182.643574 
L 274.294382 183.320644 
L 274.351416 185.113447 
L 274.408449 184.388796 
L 274.436965 184.019351 
L 274.465482 184.343028 
L 274.522515 185.155215 
L 274.579548 184.567741 
L 274.636581 184.970222 
L 274.665098 185.157755 
L 274.722131 184.819757 
L 274.779164 185.053255 
L 274.807681 185.158866 
L 274.864714 184.953623 
L 275.092847 185.157497 
L 275.121363 185.117125 
L 275.178396 185.103874 
L 275.206913 185.146991 
L 275.520595 185.158673 
L 275.862794 185.154317 
L 279.455883 185.162016 
L 282.050891 185.058566 
L 282.136441 184.647892 
L 282.279024 182.638739 
L 282.307541 183.095244 
L 282.364574 185.054007 
L 282.421607 184.457799 
L 282.450123 183.999508 
L 282.507157 184.849186 
L 282.535673 185.160156 
L 282.56419 184.922784 
L 282.592706 184.565206 
L 282.64974 184.947414 
L 282.678256 185.160011 
L 282.735289 184.811243 
L 282.763806 184.845212 
L 282.820839 185.16193 
L 282.877872 184.944652 
L 283.106005 185.15693 
L 283.163038 185.080756 
L 283.220071 185.156181 
L 290.263666 185.009971 
L 290.349215 184.411036 
L 290.463282 182.505373 
L 290.491798 183.014464 
L 290.577348 185.123142 
L 290.634381 184.086968 
L 290.662898 184.133261 
L 290.719931 185.150099 
L 290.776964 184.632014 
L 290.805481 184.5561 
L 290.862514 185.152095 
L 290.919547 184.847762 
L 290.948063 184.816361 
L 291.005097 185.16358 
L 291.06213 184.962153 
L 291.090646 184.970789 
L 291.147679 185.165867 
L 291.204713 185.035532 
L 291.461362 185.132028 
L 291.660978 185.15131 
L 291.917627 185.156513 
L 292.544992 185.166993 
L 298.362373 185.147773 
L 298.47644 184.982004 
L 298.561989 184.297027 
L 298.676056 182.669158 
L 298.704572 183.375609 
L 298.761606 185.1013 
L 298.818639 184.435605 
L 298.847155 184.097648 
L 298.875672 184.31508 
L 298.932705 185.167859 
L 298.989738 184.614951 
L 299.018255 184.637779 
L 299.075288 185.168341 
L 299.132321 184.848351 
L 299.160838 184.861851 
L 299.217871 185.169975 
L 299.274904 184.97273 
L 299.645619 185.167785 
L 299.816719 185.152073 
L 300.158918 185.164735 
L 300.814799 185.171678 
L 306.632181 185.07876 
L 306.717731 184.653055 
L 306.831797 182.393785 
L 306.88883 183.006449 
L 306.945863 185.138615 
L 307.002896 184.168513 
L 307.031413 183.848886 
L 307.059929 184.406621 
L 307.116963 185.09333 
L 307.145479 184.645462 
L 307.173996 184.430888 
L 307.202512 184.779152 
L 307.231029 185.14394 
L 307.288062 184.796317 
L 307.316579 184.76476 
L 307.373612 185.173982 
L 307.430645 184.908945 
L 307.630261 185.173877 
L 307.687294 185.072436 
L 307.744327 185.158284 
L 308.029493 185.174499 
L 308.257626 185.169495 
L 308.827957 185.176043 
L 315.557869 185.023175 
L 315.643419 184.451982 
L 315.757485 182.758327 
L 315.786002 183.066886 
L 315.871552 185.134788 
L 315.900068 184.626786 
L 315.928585 184.11519 
L 315.985618 184.774718 
L 316.014135 185.165181 
L 316.071168 184.662365 
L 316.099684 184.61863 
L 316.156718 185.165336 
L 316.213751 184.877551 
L 316.242267 184.854856 
L 316.2993 185.176759 
L 316.356334 184.988453 
L 316.413367 185.11268 
L 316.441883 185.18039 
L 316.498916 185.058045 
L 316.841115 185.176274 
L 318.580627 185.182697 
L 323.656577 185.088322 
L 323.742127 184.719178 
L 323.88471 182.721912 
L 323.913226 183.299707 
L 323.998776 185.106896 
L 324.027293 184.568885 
L 324.055809 184.16138 
L 324.112843 184.850016 
L 324.141359 185.180993 
L 324.198392 184.673061 
L 324.226909 184.639343 
L 324.283942 185.178803 
L 324.340975 184.887349 
L 324.369492 184.87098 
L 324.426525 185.184837 
L 324.483558 184.999196 
L 324.540591 185.12617 
L 324.569108 185.186235 
L 324.626141 185.068401 
L 324.96834 185.182239 
L 326.536752 185.188622 
L 331.812318 185.089509 
L 331.897868 184.665166 
L 332.040451 182.553643 
L 332.068968 183.401367 
L 332.126001 185.175308 
L 332.183034 184.220693 
L 332.21155 184.040427 
L 332.240067 184.490235 
L 332.2971 185.121777 
L 332.325617 184.715784 
L 332.354133 184.540675 
L 332.38265 184.805126 
L 332.411166 185.151077 
L 332.4682 184.869042 
L 332.496716 184.819481 
L 332.553749 185.18992 
L 332.610782 184.963149 
L 332.838915 185.176809 
L 332.867432 185.117522 
L 333.038531 185.14973 
L 333.209631 185.192125 
L 334.321777 185.195242 
L 340.623941 185.138112 
L 340.70949 184.823685 
L 340.79504 183.434875 
L 340.852073 182.236564 
L 340.88059 182.440417 
L 340.96614 185.100698 
L 340.994656 184.336075 
L 341.023173 183.760617 
L 341.051689 184.209069 
L 341.108722 185.154784 
L 341.165756 184.380389 
L 341.222789 185.173331 
L 341.279822 184.757397 
L 341.308338 184.777962 
L 341.365372 185.187784 
L 341.422405 184.901706 
L 341.479438 185.20014 
L 341.564988 185.067528 
L 341.622021 185.179201 
L 341.679054 185.091968 
L 341.736087 185.19919 
L 341.821637 185.16582 
L 341.96422 185.198261 
L 344.074446 185.20591 
L 350.091444 185.118494 
L 350.176994 184.749744 
L 350.319577 182.97867 
L 350.348093 183.38637 
L 350.433643 185.12499 
L 350.46216 184.614015 
L 350.490676 184.201176 
L 350.547709 184.915543 
L 350.576226 185.211287 
L 350.633259 184.706736 
L 350.661776 184.71695 
L 350.718809 185.209474 
L 350.775842 184.921043 
L 350.804359 184.926498 
L 350.861392 185.213892 
L 350.918425 185.03239 
L 351.317657 185.18793 
L 351.517273 185.201448 
L 351.802439 185.211363 
L 352.54387 185.21746 
L 358.218669 185.200975 
L 358.304218 185.07147 
L 358.389768 184.400807 
L 358.475318 182.507033 
L 358.532351 183.198796 
L 358.589384 185.217419 
L 358.646417 184.147768 
L 358.674934 183.966284 
L 358.731967 185.190158 
L 358.789 184.601406 
L 358.817517 184.543953 
L 358.87455 185.22698 
L 358.931583 184.795573 
L 359.131199 185.228619 
L 359.188232 185.054991 
L 359.245265 185.217402 
L 359.587464 185.19476 
L 359.758564 185.229921 
L 360.100763 185.22548 
L 360.100763 185.22548 
" clip-path="url(#p3eb71c0ec9)" style="fill: none; stroke: #0000ff; stroke-width: 2; stroke-linecap: square"/>
   </g>
   <g id="patch_3">
    <path d="M 60.676704 193.536948 
L 60.676704 10.8 
" style="fill: none; stroke: #000000; stroke-width: 0.8; stroke-linejoin: miter; stroke-linecap: square"/>
   </g>
   <g id="patch_4">
    <path d="M 374.359051 193.536948 
L 374.359051 10.8 
" style="fill: none; stroke: #000000; stroke-width: 0.8; stroke-linejoin: miter; stroke-linecap: square"/>
   </g>
   <g id="patch_5">
    <path d="M 60.676704 193.536948 
L 374.359051 193.536948 
" style="fill: none; stroke: #000000; stroke-width: 0.8; stroke-linejoin: miter; stroke-linecap: square"/>
   </g>
   <g id="patch_6">
    <path d="M 60.676704 10.8 
L 374.359051 10.8 
" style="fill: none; stroke: #000000; stroke-width: 0.8; stroke-linejoin: miter; stroke-linecap: square"/>
   </g>
  </g>
 </g>
 <defs>
  <clipPath id="p3eb71c0ec9">
   <rect x="60.676704" y="10.8" width="313.682347" height="182.736948"/>
  </clipPath>
 </defs>
</svg>
