<?xml version="1.0" encoding="utf-8" standalone="no"?>
<!DOCTYPE svg PUBLIC "-//W3C//DTD SVG 1.1//EN"
  "http://www.w3.org/Graphics/SVG/1.1/DTD/svg11.dtd">
<svg xmlns:xlink="http://www.w3.org/1999/xlink" width="388.542964pt" height="240.132758pt" viewBox="0 0 388.542964 240.132758" xmlns="http://www.w3.org/2000/svg" version="1.1">
 <metadata>
  <rdf:RDF xmlns:dc="http://purl.org/dc/elements/1.1/" xmlns:cc="http://creativecommons.org/ns#" xmlns:rdf="http://www.w3.org/1999/02/22-rdf-syntax-ns#">
   <cc:Work>
    <dc:type rdf:resource="http://purl.org/dc/dcmitype/StillImage"/>
    <dc:date>2024-12-03T17:48:52.660277</dc:date>
    <dc:format>image/svg+xml</dc:format>
    <dc:creator>
     <cc:Agent>
      <dc:title>Matplotlib v3.7.5, https://matplotlib.org/</dc:title>
     </cc:Agent>
    </dc:creator>
   </cc:Work>
  </rdf:RDF>
 </metadata>
 <defs>
  <style type="text/css">*{stroke-linejoin: round; stroke-linecap: butt}</style>
 </defs>
 <g id="figure_1">
  <g id="patch_1">
   <path d="M 0 240.132758 
L 388.542964 240.132758 
L 388.542964 0 
L 0 0 
z
" style="fill: #ffffff"/>
  </g>
  <g id="axes_1">
   <g id="patch_2">
    <path d="M 52.872109 193.536948 
L 377.499275 193.536948 
L 377.499275 10.8 
L 52.872109 10.8 
z
" style="fill: #ffffff"/>
   </g>
   <g id="matplotlib.axis_1">
    <g id="xtick_1">
     <g id="line2d_1">
      <defs>
       <path id="maa4c10f990" d="M 0 0 
L 0 3.5 
" style="stroke: #000000; stroke-width: 0.8"/>
      </defs>
      <g>
       <use xlink:href="#maa4c10f990" x="67.627889" y="193.536948" style="stroke: #000000; stroke-width: 0.8"/>
      </g>
     </g>
     <g id="text_1">
      <!-- $\mathdefault{0}$ -->
      <g transform="translate(64.213645 210.222825) scale(0.14 -0.14)">
       <defs>
        <path id="CMR17-30" d="M 2688 2025 
C 2688 2416 2682 3080 2413 3591 
C 2176 4039 1798 4198 1466 4198 
C 1158 4198 768 4058 525 3597 
C 269 3118 243 2524 243 2025 
C 243 1661 250 1106 448 619 
C 723 -39 1216 -128 1466 -128 
C 1760 -128 2208 -7 2470 600 
C 2662 1042 2688 1559 2688 2025 
z
M 1466 -26 
C 1056 -26 813 325 723 812 
C 653 1188 653 1738 653 2096 
C 653 2588 653 2997 736 3387 
C 858 3929 1216 4096 1466 4096 
C 1728 4096 2067 3923 2189 3400 
C 2272 3036 2278 2607 2278 2096 
C 2278 1680 2278 1169 2202 792 
C 2067 95 1690 -26 1466 -26 
z
" transform="scale(0.015625)"/>
       </defs>
       <use xlink:href="#CMR17-30" transform="scale(0.996264)"/>
      </g>
     </g>
    </g>
    <g id="xtick_2">
     <g id="line2d_2">
      <g>
       <use xlink:href="#maa4c10f990" x="126.710092" y="193.536948" style="stroke: #000000; stroke-width: 0.8"/>
      </g>
     </g>
     <g id="text_2">
      <!-- $\mathdefault{200}$ -->
      <g transform="translate(116.46736 210.222825) scale(0.14 -0.14)">
       <defs>
        <path id="CMR17-32" d="M 2669 989 
L 2554 989 
C 2490 536 2438 459 2413 420 
C 2381 369 1920 369 1830 369 
L 602 369 
C 832 619 1280 1072 1824 1597 
C 2214 1967 2669 2402 2669 3035 
C 2669 3790 2067 4224 1395 4224 
C 691 4224 262 3604 262 3030 
C 262 2780 448 2748 525 2748 
C 589 2748 781 2787 781 3010 
C 781 3207 614 3264 525 3264 
C 486 3264 448 3258 422 3245 
C 544 3790 915 4058 1306 4058 
C 1862 4058 2227 3617 2227 3035 
C 2227 2479 1901 2000 1536 1584 
L 262 146 
L 262 0 
L 2515 0 
L 2669 989 
z
" transform="scale(0.015625)"/>
       </defs>
       <use xlink:href="#CMR17-32" transform="scale(0.996264)"/>
       <use xlink:href="#CMR17-30" transform="translate(45.690477 0) scale(0.996264)"/>
       <use xlink:href="#CMR17-30" transform="translate(91.380954 0) scale(0.996264)"/>
      </g>
     </g>
    </g>
    <g id="xtick_3">
     <g id="line2d_3">
      <g>
       <use xlink:href="#maa4c10f990" x="185.792296" y="193.536948" style="stroke: #000000; stroke-width: 0.8"/>
      </g>
     </g>
     <g id="text_3">
      <!-- $\mathdefault{400}$ -->
      <g transform="translate(175.549563 210.222825) scale(0.14 -0.14)">
       <defs>
        <path id="CMR17-34" d="M 2150 4122 
C 2150 4256 2144 4256 2029 4256 
L 128 1254 
L 128 1088 
L 1779 1088 
L 1779 457 
C 1779 224 1766 160 1318 160 
L 1197 160 
L 1197 0 
C 1402 0 1747 0 1965 0 
C 2182 0 2528 0 2733 0 
L 2733 160 
L 2611 160 
C 2163 160 2150 224 2150 457 
L 2150 1088 
L 2803 1088 
L 2803 1254 
L 2150 1254 
L 2150 4122 
z
M 1798 3703 
L 1798 1254 
L 256 1254 
L 1798 3703 
z
" transform="scale(0.015625)"/>
       </defs>
       <use xlink:href="#CMR17-34" transform="scale(0.996264)"/>
       <use xlink:href="#CMR17-30" transform="translate(45.690477 0) scale(0.996264)"/>
       <use xlink:href="#CMR17-30" transform="translate(91.380954 0) scale(0.996264)"/>
      </g>
     </g>
    </g>
    <g id="xtick_4">
     <g id="line2d_4">
      <g>
       <use xlink:href="#maa4c10f990" x="244.874499" y="193.536948" style="stroke: #000000; stroke-width: 0.8"/>
      </g>
     </g>
     <g id="text_4">
      <!-- $\mathdefault{600}$ -->
      <g transform="translate(234.631766 210.222825) scale(0.14 -0.14)">
       <defs>
        <path id="CMR17-36" d="M 678 2176 
C 678 3690 1395 4032 1811 4032 
C 1946 4032 2272 4009 2400 3776 
C 2298 3776 2106 3776 2106 3553 
C 2106 3381 2246 3323 2336 3323 
C 2394 3323 2566 3348 2566 3560 
C 2566 3954 2246 4179 1805 4179 
C 1043 4179 243 3390 243 1984 
C 243 253 966 -128 1478 -128 
C 2099 -128 2688 427 2688 1283 
C 2688 2081 2170 2662 1517 2662 
C 1126 2662 838 2407 678 1960 
L 678 2176 
z
M 1478 25 
C 691 25 691 1200 691 1436 
C 691 1896 909 2560 1504 2560 
C 1613 2560 1926 2560 2138 2120 
C 2253 1870 2253 1609 2253 1289 
C 2253 944 2253 690 2118 434 
C 1978 171 1773 25 1478 25 
z
" transform="scale(0.015625)"/>
       </defs>
       <use xlink:href="#CMR17-36" transform="scale(0.996264)"/>
       <use xlink:href="#CMR17-30" transform="translate(45.690477 0) scale(0.996264)"/>
       <use xlink:href="#CMR17-30" transform="translate(91.380954 0) scale(0.996264)"/>
      </g>
     </g>
    </g>
    <g id="xtick_5">
     <g id="line2d_5">
      <g>
       <use xlink:href="#maa4c10f990" x="303.956703" y="193.536948" style="stroke: #000000; stroke-width: 0.8"/>
      </g>
     </g>
     <g id="text_5">
      <!-- $\mathdefault{800}$ -->
      <g transform="translate(293.71397 210.222825) scale(0.14 -0.14)">
       <defs>
        <path id="CMR17-38" d="M 1741 2264 
C 2144 2467 2554 2773 2554 3263 
C 2554 3841 1990 4179 1472 4179 
C 890 4179 378 3759 378 3180 
C 378 3021 416 2747 666 2505 
C 730 2442 998 2251 1171 2130 
C 883 1983 211 1634 211 934 
C 211 279 838 -128 1459 -128 
C 2144 -128 2720 362 2720 1010 
C 2720 1590 2330 1857 2074 2029 
L 1741 2264 
z
M 902 2822 
C 851 2854 595 3051 595 3351 
C 595 3739 998 4032 1459 4032 
C 1965 4032 2336 3676 2336 3262 
C 2336 2669 1670 2331 1638 2331 
C 1632 2331 1626 2331 1574 2370 
L 902 2822 
z
M 2080 1519 
C 2176 1449 2483 1240 2483 851 
C 2483 381 2010 25 1472 25 
C 890 25 448 438 448 940 
C 448 1443 838 1862 1280 2060 
L 2080 1519 
z
" transform="scale(0.015625)"/>
       </defs>
       <use xlink:href="#CMR17-38" transform="scale(0.996264)"/>
       <use xlink:href="#CMR17-30" transform="translate(45.690477 0) scale(0.996264)"/>
       <use xlink:href="#CMR17-30" transform="translate(91.380954 0) scale(0.996264)"/>
      </g>
     </g>
    </g>
    <g id="xtick_6">
     <g id="line2d_6">
      <g>
       <use xlink:href="#maa4c10f990" x="363.038906" y="193.536948" style="stroke: #000000; stroke-width: 0.8"/>
      </g>
     </g>
     <g id="text_6">
      <!-- $\mathdefault{1000}$ -->
      <g transform="translate(349.381929 210.222825) scale(0.14 -0.14)">
       <defs>
        <path id="CMR17-31" d="M 1702 4058 
C 1702 4192 1696 4192 1606 4192 
C 1357 3916 979 3827 621 3827 
C 602 3827 570 3827 563 3808 
C 557 3795 557 3782 557 3648 
C 755 3648 1088 3686 1344 3839 
L 1344 461 
C 1344 236 1331 160 781 160 
L 589 160 
L 589 0 
C 896 0 1216 0 1523 0 
C 1830 0 2150 0 2458 0 
L 2458 160 
L 2266 160 
C 1715 160 1702 230 1702 458 
L 1702 4058 
z
" transform="scale(0.015625)"/>
       </defs>
       <use xlink:href="#CMR17-31" transform="scale(0.996264)"/>
       <use xlink:href="#CMR17-30" transform="translate(45.690477 0) scale(0.996264)"/>
       <use xlink:href="#CMR17-30" transform="translate(91.380954 0) scale(0.996264)"/>
       <use xlink:href="#CMR17-30" transform="translate(137.071431 0) scale(0.996264)"/>
      </g>
     </g>
    </g>
    <g id="text_7">
     <!-- Iteration -->
     <g transform="translate(189.201916 226.620729) scale(0.14 -0.14)">
      <defs>
       <path id="CMR17-49" d="M 1261 3905 
C 1261 4192 1338 4192 1798 4192 
L 1798 4352 
C 1594 4352 1267 4352 1050 4352 
C 832 4352 506 4352 301 4352 
L 301 4192 
C 762 4192 838 4192 838 3905 
L 838 447 
C 838 160 762 160 301 160 
L 301 0 
C 506 0 832 0 1050 0 
C 1267 0 1594 0 1798 0 
L 1798 160 
C 1338 160 1261 160 1261 447 
L 1261 3905 
z
" transform="scale(0.015625)"/>
       <path id="CMR17-74" d="M 966 2560 
L 1862 2560 
L 1862 2725 
L 966 2725 
L 966 3904 
L 851 3904 
C 838 3245 614 2668 70 2668 
L 70 2560 
L 627 2560 
L 627 771 
C 627 650 627 -64 1370 -64 
C 1747 -64 1965 306 1965 777 
L 1965 1140 
L 1850 1140 
L 1850 783 
C 1850 344 1677 51 1408 51 
C 1222 51 966 178 966 758 
L 966 2560 
z
" transform="scale(0.015625)"/>
       <path id="CMR17-65" d="M 2438 1472 
C 2464 1498 2464 1511 2464 1576 
C 2464 2238 2118 2816 1389 2816 
C 710 2816 173 2169 173 1383 
C 173 551 781 -64 1459 -64 
C 2176 -64 2458 607 2458 740 
C 2458 784 2419 784 2406 784 
C 2362 784 2355 771 2330 696 
C 2189 265 1837 51 1504 51 
C 1229 51 954 203 781 480 
C 582 803 582 1176 582 1472 
L 2438 1472 
z
M 589 1568 
C 634 2505 1126 2714 1382 2714 
C 1818 2714 2112 2297 2118 1568 
L 589 1568 
z
" transform="scale(0.015625)"/>
       <path id="CMR17-72" d="M 960 1497 
C 960 2112 1222 2688 1702 2688 
C 1747 2688 1792 2682 1837 2662 
C 1837 2662 1696 2617 1696 2452 
C 1696 2298 1818 2234 1914 2234 
C 1990 2234 2131 2279 2131 2458 
C 2131 2663 1926 2790 1709 2790 
C 1222 2790 1011 2317 947 2093 
L 941 2093 
L 941 2790 
L 198 2720 
L 198 2554 
C 576 2554 634 2515 634 2208 
L 634 428 
C 634 184 608 153 198 153 
L 198 -13 
C 352 0 646 0 813 0 
C 998 0 1325 0 1498 -13 
L 1498 153 
C 1037 153 960 153 960 440 
L 960 1497 
z
" transform="scale(0.015625)"/>
       <path id="CMR17-61" d="M 2304 1653 
C 2304 2072 2304 2294 2035 2543 
C 1798 2752 1523 2816 1306 2816 
C 800 2816 435 2407 435 1971 
C 435 1728 627 1728 666 1728 
C 749 1728 896 1778 896 1954 
C 896 2112 774 2181 666 2181 
C 640 2181 608 2174 589 2168 
C 723 2592 1069 2714 1293 2714 
C 1613 2714 1965 2429 1965 1885 
L 1965 1600 
C 1587 1600 1133 1549 774 1357 
C 371 1133 256 813 256 570 
C 256 77 832 -64 1171 -64 
C 1523 -64 1850 139 1990 511 
C 2003 233 2182 -18 2464 -18 
C 2598 -18 2938 70 2938 567 
L 2938 920 
L 2822 920 
L 2822 562 
C 2822 178 2650 128 2566 128 
C 2304 128 2304 458 2304 738 
L 2304 1653 
z
M 1965 870 
C 1965 317 1568 38 1216 38 
C 896 38 646 275 646 570 
C 646 761 730 1100 1101 1305 
C 1408 1478 1760 1504 1965 1504 
L 1965 870 
z
" transform="scale(0.015625)"/>
       <path id="CMR17-69" d="M 992 3909 
C 992 4049 877 4170 730 4170 
C 589 4170 467 4056 467 3909 
C 467 3769 582 3648 730 3648 
C 870 3648 992 3763 992 3909 
z
M 243 2706 
L 243 2541 
C 602 2541 653 2502 653 2197 
L 653 427 
C 653 184 627 153 218 153 
L 218 -13 
C 371 0 646 0 806 0 
C 960 0 1222 0 1370 -13 
L 1370 153 
C 992 153 979 191 979 420 
L 979 2776 
L 243 2706 
z
" transform="scale(0.015625)"/>
       <path id="CMR17-6f" d="M 2758 1356 
C 2758 2176 2163 2816 1466 2816 
C 768 2816 173 2176 173 1356 
C 173 551 768 -64 1466 -64 
C 2163 -64 2758 551 2758 1356 
z
M 1466 51 
C 1165 51 909 230 762 480 
C 602 767 582 1126 582 1408 
C 582 1677 595 2010 762 2298 
C 890 2509 1139 2714 1466 2714 
C 1754 2714 1997 2554 2150 2330 
C 2349 2029 2349 1607 2349 1408 
C 2349 1158 2336 775 2163 467 
C 1984 173 1709 51 1466 51 
z
" transform="scale(0.015625)"/>
       <path id="CMR17-6e" d="M 2656 1933 
C 2656 2259 2592 2790 1837 2790 
C 1331 2790 1069 2400 973 2144 
L 966 2144 
L 966 2790 
L 211 2720 
L 211 2554 
C 589 2554 646 2515 646 2208 
L 646 428 
C 646 184 621 153 211 153 
L 211 -13 
C 365 0 646 0 813 0 
C 979 0 1267 0 1421 -13 
L 1421 153 
C 1011 153 986 178 986 428 
L 986 1658 
C 986 2247 1344 2688 1792 2688 
C 2266 2688 2317 2266 2317 1958 
L 2317 428 
C 2317 184 2291 153 1882 153 
L 1882 -13 
C 2035 0 2317 0 2483 0 
C 2650 0 2938 0 3091 -13 
L 3091 153 
C 2682 153 2656 178 2656 428 
L 2656 1933 
z
" transform="scale(0.015625)"/>
      </defs>
      <use xlink:href="#CMR17-49" transform="scale(0.996264)"/>
      <use xlink:href="#CMR17-74" transform="translate(32.638409 0) scale(0.996264)"/>
      <use xlink:href="#CMR17-65" transform="translate(67.919177 0) scale(0.996264)"/>
      <use xlink:href="#CMR17-72" transform="translate(108.404837 0) scale(0.996264)"/>
      <use xlink:href="#CMR17-61" transform="translate(143.685605 0) scale(0.996264)"/>
      <use xlink:href="#CMR17-74" transform="translate(189.376082 0) scale(0.996264)"/>
      <use xlink:href="#CMR17-69" transform="translate(224.65685 0) scale(0.996264)"/>
      <use xlink:href="#CMR17-6f" transform="translate(249.527909 0) scale(0.996264)"/>
      <use xlink:href="#CMR17-6e" transform="translate(295.218386 0) scale(0.996264)"/>
     </g>
    </g>
   </g>
   <g id="matplotlib.axis_2">
    <g id="ytick_1">
     <g id="line2d_7">
      <defs>
       <path id="m70aec15a29" d="M 0 0 
L -3.5 0 
" style="stroke: #000000; stroke-width: 0.8"/>
      </defs>
      <g>
       <use xlink:href="#m70aec15a29" x="52.872109" y="88.060836" style="stroke: #000000; stroke-width: 0.8"/>
      </g>
     </g>
     <g id="text_8">
      <!-- $\mathdefault{10^{2}}$ -->
      <g transform="translate(27.197905 92.903774) scale(0.14 -0.14)">
       <use xlink:href="#CMR17-31" transform="scale(0.996264)"/>
       <use xlink:href="#CMR17-30" transform="translate(45.690477 0) scale(0.996264)"/>
       <use xlink:href="#CMR17-32" transform="translate(91.380954 36.153639) scale(0.697382)"/>
      </g>
     </g>
    </g>
    <g id="ytick_2">
     <g id="line2d_8">
      <defs>
       <path id="m83f2427a31" d="M 0 0 
L -2 0 
" style="stroke: #000000; stroke-width: 0.6"/>
      </defs>
      <g>
       <use xlink:href="#m83f2427a31" x="52.872109" y="177.876031" style="stroke: #000000; stroke-width: 0.6"/>
      </g>
     </g>
    </g>
    <g id="ytick_3">
     <g id="line2d_9">
      <g>
       <use xlink:href="#m83f2427a31" x="52.872109" y="156.41523" style="stroke: #000000; stroke-width: 0.6"/>
      </g>
     </g>
    </g>
    <g id="ytick_4">
     <g id="line2d_10">
      <g>
       <use xlink:href="#m83f2427a31" x="52.872109" y="139.768939" style="stroke: #000000; stroke-width: 0.6"/>
      </g>
     </g>
    </g>
    <g id="ytick_5">
     <g id="line2d_11">
      <g>
       <use xlink:href="#m83f2427a31" x="52.872109" y="126.167929" style="stroke: #000000; stroke-width: 0.6"/>
      </g>
     </g>
    </g>
    <g id="ytick_6">
     <g id="line2d_12">
      <g>
       <use xlink:href="#m83f2427a31" x="52.872109" y="114.668438" style="stroke: #000000; stroke-width: 0.6"/>
      </g>
     </g>
    </g>
    <g id="ytick_7">
     <g id="line2d_13">
      <g>
       <use xlink:href="#m83f2427a31" x="52.872109" y="104.707127" style="stroke: #000000; stroke-width: 0.6"/>
      </g>
     </g>
    </g>
    <g id="ytick_8">
     <g id="line2d_14">
      <g>
       <use xlink:href="#m83f2427a31" x="52.872109" y="95.920627" style="stroke: #000000; stroke-width: 0.6"/>
      </g>
     </g>
    </g>
    <g id="ytick_9">
     <g id="line2d_15">
      <g>
       <use xlink:href="#m83f2427a31" x="52.872109" y="36.352733" style="stroke: #000000; stroke-width: 0.6"/>
      </g>
     </g>
    </g>
    <g id="text_9">
     <!-- $\mathcal{L}$ -->
     <g transform="translate(20.485876 106.978508) rotate(-90) scale(0.14 -0.14)">
      <defs>
       <path id="CMSY10-4c" d="M 1152 610 
C 1498 1151 1606 1562 1690 1903 
C 1914 2790 2157 3562 2554 4005 
C 2630 4090 2682 4147 2886 4147 
C 3328 4147 3341 3704 3341 3613 
C 3341 3498 3309 3407 3309 3375 
C 3309 3330 3347 3330 3354 3330 
C 3456 3330 3629 3401 3789 3517 
C 3904 3607 3962 3671 3962 3934 
C 3962 4281 3782 4544 3424 4544 
C 3219 4544 2656 4493 2029 3856 
C 1517 3329 1216 2172 1094 1690 
C 979 1248 928 1048 736 662 
C 691 586 525 303 435 219 
C 262 59 198 -57 198 -89 
C 198 -102 211 -128 256 -128 
C 282 -128 416 -102 582 5 
C 691 68 704 80 851 231 
C 1171 231 1395 173 1798 58 
C 2125 -32 2451 -128 2778 -128 
C 3296 -128 3821 264 4026 546 
C 4154 719 4192 880 4192 899 
C 4192 944 4154 944 4147 944 
C 4045 944 3891 874 3782 796 
C 3610 687 3597 649 3558 539 
C 3526 436 3488 385 3462 346 
C 3411 269 3405 269 3309 269 
C 3002 269 2682 366 2259 481 
C 2080 532 1728 636 1408 636 
C 1325 636 1235 629 1152 610 
z
" transform="scale(0.015625)"/>
      </defs>
      <use xlink:href="#CMSY10-4c" transform="scale(0.996264)"/>
     </g>
    </g>
   </g>
   <g id="line2d_16">
    <path d="M 67.627889 185.230723 
L 69.104944 174.407498 
L 70.581999 163.929828 
L 71.468232 159.355253 
L 72.059054 157.39439 
L 72.649876 156.316925 
L 72.945287 156.077999 
L 73.240698 156.013925 
L 73.536109 156.103358 
L 74.126931 156.654126 
L 75.013164 158.083113 
L 76.785631 161.22068 
L 77.376453 161.920839 
L 77.967275 162.331845 
L 78.558097 162.433405 
L 79.148919 162.237076 
L 79.739741 161.781578 
L 80.625974 160.745923 
L 82.989262 157.649242 
L 83.875495 156.905061 
L 84.761728 156.472173 
L 85.943372 156.202651 
L 87.420427 155.833454 
L 88.30666 155.369153 
L 89.488304 154.41619 
L 93.033237 151.188365 
L 95.691936 149.157087 
L 97.759813 147.125586 
L 100.123101 144.907743 
L 103.077211 142.119632 
L 106.031321 139.432185 
L 112.530364 133.76603 
L 125.823859 122.635482 
L 129.959614 119.587893 
L 137.935711 113.797964 
L 144.434753 108.686731 
L 150.047563 104.021204 
L 154.478728 100.036531 
L 165.408936 89.982748 
L 168.363046 87.669331 
L 171.021745 85.855419 
L 173.680444 84.322242 
L 176.339143 83.070434 
L 178.997842 82.078705 
L 181.951953 81.237958 
L 185.201474 80.563803 
L 189.041817 80.009713 
L 193.768393 79.562709 
L 199.972025 79.211913 
L 208.243533 78.977424 
L 221.241618 78.858061 
L 291.254029 78.705393 
L 362.743495 78.722947 
L 362.743495 78.722947 
" clip-path="url(#pecf9a59946)" style="fill: none; stroke: #ff0000; stroke-opacity: 0.8; stroke-width: 2; stroke-linecap: square"/>
   </g>
   <g id="line2d_17">
    <path d="M 67.627889 19.106225 
L 68.809533 19.592464 
L 69.991177 19.814968 
L 71.763643 19.846301 
L 74.717753 19.925986 
L 82.103029 20.178154 
L 99.532279 20.904135 
L 110.167076 21.517781 
L 118.143173 22.197631 
L 125.233037 23.025048 
L 131.73208 24.005566 
L 138.231122 25.209249 
L 145.320987 26.7528 
L 158.909893 29.79348 
L 163.63647 30.561494 
L 168.363046 31.096609 
L 173.680444 31.463561 
L 180.770309 31.710832 
L 192.88216 31.87244 
L 220.650796 31.965338 
L 340.88308 32.016084 
L 362.743495 32.022061 
L 362.743495 32.022061 
" clip-path="url(#pecf9a59946)" style="fill: none; stroke: #bfbf00; stroke-opacity: 0.8; stroke-width: 2; stroke-linecap: square"/>
   </g>
   <g id="patch_3">
    <path d="M 52.872109 193.536948 
L 52.872109 10.8 
" style="fill: none; stroke: #000000; stroke-width: 0.8; stroke-linejoin: miter; stroke-linecap: square"/>
   </g>
   <g id="patch_4">
    <path d="M 377.499275 193.536948 
L 377.499275 10.8 
" style="fill: none; stroke: #000000; stroke-width: 0.8; stroke-linejoin: miter; stroke-linecap: square"/>
   </g>
   <g id="patch_5">
    <path d="M 52.872109 193.536948 
L 377.499275 193.536948 
" style="fill: none; stroke: #000000; stroke-width: 0.8; stroke-linejoin: miter; stroke-linecap: square"/>
   </g>
   <g id="patch_6">
    <path d="M 52.872109 10.8 
L 377.499275 10.8 
" style="fill: none; stroke: #000000; stroke-width: 0.8; stroke-linejoin: miter; stroke-linecap: square"/>
   </g>
   <g id="legend_1">
    <g id="line2d_18">
     <path d="M 310.106731 152.534345 
L 324.106731 152.534345 
L 338.106731 152.534345 
" style="fill: none; stroke: #ff0000; stroke-opacity: 0.8; stroke-width: 2; stroke-linecap: square"/>
    </g>
    <g id="text_10">
     <!-- $\mathcal{L}_\phi$ -->
     <g transform="translate(349.306731 157.434345) scale(0.14 -0.14)">
      <defs>
       <path id="CMMI12-1e" d="M 2752 4390 
C 2752 4448 2707 4448 2688 4448 
C 2630 4448 2624 4435 2598 4326 
L 2253 2939 
C 2234 2856 2227 2849 2221 2843 
C 2214 2830 2170 2824 2157 2824 
C 1107 2734 301 1864 301 1057 
C 301 361 832 -64 1498 -64 
C 1446 -261 1402 -463 1350 -659 
C 1261 -995 1210 -1204 1210 -1229 
C 1210 -1241 1210 -1280 1274 -1280 
C 1293 -1280 1318 -1280 1331 -1254 
C 1344 -1241 1382 -1089 1408 -1008 
L 1645 -64 
C 2739 -64 3571 854 3571 1680 
C 3571 2343 3085 2816 2374 2816 
L 2752 4390 
z
M 2336 2701 
C 2758 2701 3181 2463 3181 1828 
C 3181 1097 2675 128 1677 50 
L 2336 2701 
z
M 1530 50 
C 1216 50 691 220 691 938 
C 691 1761 1274 2676 2195 2676 
L 1530 50 
z
" transform="scale(0.015625)"/>
      </defs>
      <use xlink:href="#CMSY10-4c" transform="scale(0.996264)"/>
      <use xlink:href="#CMMI12-1e" transform="translate(68.714808 -14.943915) scale(0.697382)"/>
     </g>
    </g>
    <g id="line2d_19">
     <path d="M 310.106731 173.32492 
L 324.106731 173.32492 
L 338.106731 173.32492 
" style="fill: none; stroke: #bfbf00; stroke-opacity: 0.8; stroke-width: 2; stroke-linecap: square"/>
    </g>
    <g id="text_11">
     <!-- $\mathcal{L}_u$ -->
     <g transform="translate(349.306731 178.22492) scale(0.14 -0.14)">
      <defs>
       <path id="CMMI12-75" d="M 2182 370 
C 2266 13 2573 -64 2726 -64 
C 2931 -64 3085 70 3187 287 
C 3296 517 3379 894 3379 913 
C 3379 945 3354 971 3315 971 
C 3258 971 3251 939 3226 843 
C 3110 402 2995 64 2739 64 
C 2547 64 2547 275 2547 358 
C 2547 505 2566 568 2630 837 
C 2675 1009 2720 1181 2758 1360 
L 3021 2401 
C 3066 2561 3066 2574 3066 2593 
C 3066 2689 2989 2753 2893 2753 
C 2707 2753 2662 2593 2624 2433 
C 2560 2184 2214 811 2170 588 
C 2163 588 1914 64 1446 64 
C 1114 64 1050 351 1050 588 
C 1050 952 1229 1462 1395 1890 
C 1472 2095 1504 2178 1504 2305 
C 1504 2580 1306 2816 998 2816 
C 410 2816 173 1890 173 1839 
C 173 1814 198 1782 243 1782 
C 301 1782 307 1807 333 1896 
C 486 2441 736 2682 979 2682 
C 1043 2682 1146 2682 1146 2478 
C 1146 2312 1075 2127 979 1884 
C 698 1124 666 881 666 690 
C 666 38 1158 -64 1421 -64 
C 1830 -64 2054 217 2182 370 
z
" transform="scale(0.015625)"/>
      </defs>
      <use xlink:href="#CMSY10-4c" transform="scale(0.996264)"/>
      <use xlink:href="#CMMI12-75" transform="translate(68.714808 -14.943915) scale(0.697382)"/>
     </g>
    </g>
   </g>
  </g>
 </g>
 <defs>
  <clipPath id="pecf9a59946">
   <rect x="52.872109" y="10.8" width="324.627167" height="182.736948"/>
  </clipPath>
 </defs>
</svg>
