<?xml version="1.0" encoding="utf-8" standalone="no"?>
<!DOCTYPE svg PUBLIC "-//W3C//DTD SVG 1.1//EN"
  "http://www.w3.org/Graphics/SVG/1.1/DTD/svg11.dtd">
<svg xmlns:xlink="http://www.w3.org/1999/xlink" width="388.542964pt" height="240.132758pt" viewBox="0 0 388.542964 240.132758" xmlns="http://www.w3.org/2000/svg" version="1.1">
 <metadata>
  <rdf:RDF xmlns:dc="http://purl.org/dc/elements/1.1/" xmlns:cc="http://creativecommons.org/ns#" xmlns:rdf="http://www.w3.org/1999/02/22-rdf-syntax-ns#">
   <cc:Work>
    <dc:type rdf:resource="http://purl.org/dc/dcmitype/StillImage"/>
    <dc:date>2024-12-30T15:15:07.020337</dc:date>
    <dc:format>image/svg+xml</dc:format>
    <dc:creator>
     <cc:Agent>
      <dc:title>Matplotlib v3.7.5, https://matplotlib.org/</dc:title>
     </cc:Agent>
    </dc:creator>
   </cc:Work>
  </rdf:RDF>
 </metadata>
 <defs>
  <style type="text/css">*{stroke-linejoin: round; stroke-linecap: butt}</style>
 </defs>
 <g id="figure_1">
  <g id="patch_1">
   <path d="M 0 240.132758 
L 388.542964 240.132758 
L 388.542964 0 
L 0 0 
z
" style="fill: #ffffff"/>
  </g>
  <g id="axes_1">
   <g id="patch_2">
    <path d="M 42.576185 193.536948 
L 377.742964 193.536948 
L 377.742964 10.8 
L 42.576185 10.8 
z
" style="fill: #ffffff"/>
   </g>
   <g id="PathCollection_1">
    <defs>
     <path id="m0037a5e043" d="M 0 1.322876 
C 0.350831 1.322876 0.68734 1.183489 0.935414 0.935414 
C 1.183489 0.68734 1.322876 0.350831 1.322876 0 
C 1.322876 -0.350831 1.183489 -0.68734 0.935414 -0.935414 
C 0.68734 -1.183489 0.350831 -1.322876 0 -1.322876 
C -0.350831 -1.322876 -0.68734 -1.183489 -0.935414 -0.935414 
C -1.183489 -0.68734 -1.322876 -0.350831 -1.322876 0 
C -1.322876 0.350831 -1.183489 0.68734 -0.935414 0.935414 
C -0.68734 1.183489 -0.350831 1.322876 0 1.322876 
z
" style="stroke: #1f77b4"/>
    </defs>
    <g clip-path="url(#p2ceb32c8f1)">
     <use xlink:href="#m0037a5e043" x="57.811038" y="123.147657" style="fill: #1f77b4; stroke: #1f77b4"/>
     <use xlink:href="#m0037a5e043" x="61.230175" y="119.143343" style="fill: #1f77b4; stroke: #1f77b4"/>
     <use xlink:href="#m0037a5e043" x="61.628242" y="118.565736" style="fill: #1f77b4; stroke: #1f77b4"/>
     <use xlink:href="#m0037a5e043" x="64.09557" y="114.866904" style="fill: #1f77b4; stroke: #1f77b4"/>
     <use xlink:href="#m0037a5e043" x="65.817304" y="112.343659" style="fill: #1f77b4; stroke: #1f77b4"/>
     <use xlink:href="#m0037a5e043" x="66.701767" y="111.055993" style="fill: #1f77b4; stroke: #1f77b4"/>
     <use xlink:href="#m0037a5e043" x="69.451639" y="106.62435" style="fill: #1f77b4; stroke: #1f77b4"/>
     <use xlink:href="#m0037a5e043" x="70.881894" y="103.771731" style="fill: #1f77b4; stroke: #1f77b4"/>
     <use xlink:href="#m0037a5e043" x="74.366328" y="95.265464" style="fill: #1f77b4; stroke: #1f77b4"/>
     <use xlink:href="#m0037a5e043" x="83.718935" y="81.603339" style="fill: #1f77b4; stroke: #1f77b4"/>
     <use xlink:href="#m0037a5e043" x="95.729976" y="69.626419" style="fill: #1f77b4; stroke: #1f77b4"/>
     <use xlink:href="#m0037a5e043" x="104.917247" y="62.389316" style="fill: #1f77b4; stroke: #1f77b4"/>
     <use xlink:href="#m0037a5e043" x="107.90178" y="61.645719" style="fill: #1f77b4; stroke: #1f77b4"/>
     <use xlink:href="#m0037a5e043" x="109.421543" y="59.049441" style="fill: #1f77b4; stroke: #1f77b4"/>
     <use xlink:href="#m0037a5e043" x="110.188255" y="55.598095" style="fill: #1f77b4; stroke: #1f77b4"/>
     <use xlink:href="#m0037a5e043" x="118.917608" y="50.188852" style="fill: #1f77b4; stroke: #1f77b4"/>
     <use xlink:href="#m0037a5e043" x="121.390282" y="39.015469" style="fill: #1f77b4; stroke: #1f77b4"/>
     <use xlink:href="#m0037a5e043" x="149.958018" y="29.203207" style="fill: #1f77b4; stroke: #1f77b4"/>
     <use xlink:href="#m0037a5e043" x="150.907339" y="28.747671" style="fill: #1f77b4; stroke: #1f77b4"/>
     <use xlink:href="#m0037a5e043" x="153.772365" y="27.262687" style="fill: #1f77b4; stroke: #1f77b4"/>
     <use xlink:href="#m0037a5e043" x="162.507519" y="22.491428" style="fill: #1f77b4; stroke: #1f77b4"/>
     <use xlink:href="#m0037a5e043" x="164.474109" y="21.541606" style="fill: #1f77b4; stroke: #1f77b4"/>
     <use xlink:href="#m0037a5e043" x="199.724957" y="19.720861" style="fill: #1f77b4; stroke: #1f77b4"/>
     <use xlink:href="#m0037a5e043" x="212.850078" y="21.938994" style="fill: #1f77b4; stroke: #1f77b4"/>
     <use xlink:href="#m0037a5e043" x="217.845547" y="22.933779" style="fill: #1f77b4; stroke: #1f77b4"/>
     <use xlink:href="#m0037a5e043" x="223.783241" y="24.783155" style="fill: #1f77b4; stroke: #1f77b4"/>
     <use xlink:href="#m0037a5e043" x="228.674262" y="27.489318" style="fill: #1f77b4; stroke: #1f77b4"/>
     <use xlink:href="#m0037a5e043" x="234.463272" y="32.384704" style="fill: #1f77b4; stroke: #1f77b4"/>
     <use xlink:href="#m0037a5e043" x="249.382152" y="42.881474" style="fill: #1f77b4; stroke: #1f77b4"/>
     <use xlink:href="#m0037a5e043" x="265.899817" y="58.498859" style="fill: #1f77b4; stroke: #1f77b4"/>
     <use xlink:href="#m0037a5e043" x="285.993807" y="71.201502" style="fill: #1f77b4; stroke: #1f77b4"/>
     <use xlink:href="#m0037a5e043" x="288.11211" y="74.139572" style="fill: #1f77b4; stroke: #1f77b4"/>
     <use xlink:href="#m0037a5e043" x="296.802331" y="87.947149" style="fill: #1f77b4; stroke: #1f77b4"/>
     <use xlink:href="#m0037a5e043" x="308.086276" y="99.970283" style="fill: #1f77b4; stroke: #1f77b4"/>
     <use xlink:href="#m0037a5e043" x="313.369276" y="103.105453" style="fill: #1f77b4; stroke: #1f77b4"/>
     <use xlink:href="#m0037a5e043" x="316.809275" y="108.30986" style="fill: #1f77b4; stroke: #1f77b4"/>
     <use xlink:href="#m0037a5e043" x="317.754167" y="111.56226" style="fill: #1f77b4; stroke: #1f77b4"/>
     <use xlink:href="#m0037a5e043" x="321.369697" y="128.736049" style="fill: #1f77b4; stroke: #1f77b4"/>
     <use xlink:href="#m0037a5e043" x="339.483064" y="147.150363" style="fill: #1f77b4; stroke: #1f77b4"/>
     <use xlink:href="#m0037a5e043" x="343.944148" y="152.881895" style="fill: #1f77b4; stroke: #1f77b4"/>
     <use xlink:href="#m0037a5e043" x="344.154897" y="153.183929" style="fill: #1f77b4; stroke: #1f77b4"/>
     <use xlink:href="#m0037a5e043" x="344.773711" y="154.086245" style="fill: #1f77b4; stroke: #1f77b4"/>
     <use xlink:href="#m0037a5e043" x="350.110426" y="162.721865" style="fill: #1f77b4; stroke: #1f77b4"/>
     <use xlink:href="#m0037a5e043" x="352.462553" y="166.901033" style="fill: #1f77b4; stroke: #1f77b4"/>
     <use xlink:href="#m0037a5e043" x="355.025675" y="171.593375" style="fill: #1f77b4; stroke: #1f77b4"/>
     <use xlink:href="#m0037a5e043" x="356.391877" y="174.117863" style="fill: #1f77b4; stroke: #1f77b4"/>
     <use xlink:href="#m0037a5e043" x="356.464158" y="174.251445" style="fill: #1f77b4; stroke: #1f77b4"/>
     <use xlink:href="#m0037a5e043" x="356.535603" y="174.38345" style="fill: #1f77b4; stroke: #1f77b4"/>
     <use xlink:href="#m0037a5e043" x="356.676021" y="174.64288" style="fill: #1f77b4; stroke: #1f77b4"/>
     <use xlink:href="#m0037a5e043" x="356.947228" y="175.143641" style="fill: #1f77b4; stroke: #1f77b4"/>
     <use xlink:href="#m0037a5e043" x="358.075604" y="177.221138" style="fill: #1f77b4; stroke: #1f77b4"/>
     <use xlink:href="#m0037a5e043" x="358.480408" y="177.962928" style="fill: #1f77b4; stroke: #1f77b4"/>
     <use xlink:href="#m0037a5e043" x="358.622646" y="178.223068" style="fill: #1f77b4; stroke: #1f77b4"/>
     <use xlink:href="#m0037a5e043" x="359.340071" y="179.529705" style="fill: #1f77b4; stroke: #1f77b4"/>
     <use xlink:href="#m0037a5e043" x="359.76626" y="180.301269" style="fill: #1f77b4; stroke: #1f77b4"/>
     <use xlink:href="#m0037a5e043" x="360.135856" y="180.967138" style="fill: #1f77b4; stroke: #1f77b4"/>
     <use xlink:href="#m0037a5e043" x="360.164341" y="181.018363" style="fill: #1f77b4; stroke: #1f77b4"/>
     <use xlink:href="#m0037a5e043" x="360.66823" y="181.920535" style="fill: #1f77b4; stroke: #1f77b4"/>
     <use xlink:href="#m0037a5e043" x="360.712319" y="181.999176" style="fill: #1f77b4; stroke: #1f77b4"/>
     <use xlink:href="#m0037a5e043" x="360.755368" y="182.075881" style="fill: #1f77b4; stroke: #1f77b4"/>
     <use xlink:href="#m0037a5e043" x="361.029547" y="182.563318" style="fill: #1f77b4; stroke: #1f77b4"/>
     <use xlink:href="#m0037a5e043" x="361.065102" y="182.626384" style="fill: #1f77b4; stroke: #1f77b4"/>
     <use xlink:href="#m0037a5e043" x="361.082562" y="182.657335" style="fill: #1f77b4; stroke: #1f77b4"/>
     <use xlink:href="#m0037a5e043" x="361.444588" y="183.297168" style="fill: #1f77b4; stroke: #1f77b4"/>
     <use xlink:href="#m0037a5e043" x="361.482949" y="183.364736" style="fill: #1f77b4; stroke: #1f77b4"/>
     <use xlink:href="#m0037a5e043" x="361.578745" y="183.53327" style="fill: #1f77b4; stroke: #1f77b4"/>
     <use xlink:href="#m0037a5e043" x="361.634111" y="183.630539" style="fill: #1f77b4; stroke: #1f77b4"/>
     <use xlink:href="#m0037a5e043" x="361.644791" y="183.649285" style="fill: #1f77b4; stroke: #1f77b4"/>
     <use xlink:href="#m0037a5e043" x="361.961877" y="184.204459" style="fill: #1f77b4; stroke: #1f77b4"/>
     <use xlink:href="#m0037a5e043" x="362.043762" y="184.347292" style="fill: #1f77b4; stroke: #1f77b4"/>
     <use xlink:href="#m0037a5e043" x="362.060907" y="184.37718" style="fill: #1f77b4; stroke: #1f77b4"/>
     <use xlink:href="#m0037a5e043" x="362.165048" y="184.558453" style="fill: #1f77b4; stroke: #1f77b4"/>
     <use xlink:href="#m0037a5e043" x="362.16938" y="184.565997" style="fill: #1f77b4; stroke: #1f77b4"/>
     <use xlink:href="#m0037a5e043" x="362.209949" y="184.636504" style="fill: #1f77b4; stroke: #1f77b4"/>
     <use xlink:href="#m0037a5e043" x="362.221196" y="184.656069" style="fill: #1f77b4; stroke: #1f77b4"/>
     <use xlink:href="#m0037a5e043" x="362.239062" y="184.687077" style="fill: #1f77b4; stroke: #1f77b4"/>
     <use xlink:href="#m0037a5e043" x="362.242508" y="184.693088" style="fill: #1f77b4; stroke: #1f77b4"/>
     <use xlink:href="#m0037a5e043" x="362.245912" y="184.698999" style="fill: #1f77b4; stroke: #1f77b4"/>
     <use xlink:href="#m0037a5e043" x="362.252599" y="184.710592" style="fill: #1f77b4; stroke: #1f77b4"/>
     <use xlink:href="#m0037a5e043" x="362.268628" y="184.738413" style="fill: #1f77b4; stroke: #1f77b4"/>
     <use xlink:href="#m0037a5e043" x="362.316435" y="184.821355" style="fill: #1f77b4; stroke: #1f77b4"/>
     <use xlink:href="#m0037a5e043" x="362.344744" y="184.870442" style="fill: #1f77b4; stroke: #1f77b4"/>
     <use xlink:href="#m0037a5e043" x="362.351204" y="184.881629" style="fill: #1f77b4; stroke: #1f77b4"/>
     <use xlink:href="#m0037a5e043" x="362.369238" y="184.912881" style="fill: #1f77b4; stroke: #1f77b4"/>
     <use xlink:href="#m0037a5e043" x="362.371124" y="184.916131" style="fill: #1f77b4; stroke: #1f77b4"/>
     <use xlink:href="#m0037a5e043" x="362.378443" y="184.928831" style="fill: #1f77b4; stroke: #1f77b4"/>
     <use xlink:href="#m0037a5e043" x="362.4455" y="185.044878" style="fill: #1f77b4; stroke: #1f77b4"/>
     <use xlink:href="#m0037a5e043" x="362.456416" y="185.063757" style="fill: #1f77b4; stroke: #1f77b4"/>
     <use xlink:href="#m0037a5e043" x="362.458086" y="185.066611" style="fill: #1f77b4; stroke: #1f77b4"/>
     <use xlink:href="#m0037a5e043" x="362.459717" y="185.069458" style="fill: #1f77b4; stroke: #1f77b4"/>
     <use xlink:href="#m0037a5e043" x="362.464379" y="185.07752" style="fill: #1f77b4; stroke: #1f77b4"/>
     <use xlink:href="#m0037a5e043" x="362.472749" y="185.091986" style="fill: #1f77b4; stroke: #1f77b4"/>
     <use xlink:href="#m0037a5e043" x="362.47999" y="185.104517" style="fill: #1f77b4; stroke: #1f77b4"/>
     <use xlink:href="#m0037a5e043" x="362.491253" y="185.123959" style="fill: #1f77b4; stroke: #1f77b4"/>
     <use xlink:href="#m0037a5e043" x="362.492093" y="185.125415" style="fill: #1f77b4; stroke: #1f77b4"/>
     <use xlink:href="#m0037a5e043" x="362.494105" y="185.128893" style="fill: #1f77b4; stroke: #1f77b4"/>
     <use xlink:href="#m0037a5e043" x="362.501649" y="185.141932" style="fill: #1f77b4; stroke: #1f77b4"/>
     <use xlink:href="#m0037a5e043" x="362.501947" y="185.142454" style="fill: #1f77b4; stroke: #1f77b4"/>
     <use xlink:href="#m0037a5e043" x="362.502241" y="185.142941" style="fill: #1f77b4; stroke: #1f77b4"/>
     <use xlink:href="#m0037a5e043" x="362.506733" y="185.15072" style="fill: #1f77b4; stroke: #1f77b4"/>
     <use xlink:href="#m0037a5e043" x="362.50811" y="185.153094" style="fill: #1f77b4; stroke: #1f77b4"/>
    </g>
   </g>
   <g id="matplotlib.axis_1">
    <g id="xtick_1">
     <g id="line2d_1">
      <defs>
       <path id="ma0d277c1da" d="M 0 0 
L 0 3.5 
" style="stroke: #000000; stroke-width: 0.8"/>
      </defs>
      <g>
       <use xlink:href="#ma0d277c1da" x="66.275355" y="193.536948" style="stroke: #000000; stroke-width: 0.8"/>
      </g>
     </g>
     <g id="text_1">
      <!-- $\mathdefault{0.25}$ -->
      <g transform="translate(54.13582 210.222825) scale(0.14 -0.14)">
       <defs>
        <path id="CMR17-30" d="M 2688 2025 
C 2688 2416 2682 3080 2413 3591 
C 2176 4039 1798 4198 1466 4198 
C 1158 4198 768 4058 525 3597 
C 269 3118 243 2524 243 2025 
C 243 1661 250 1106 448 619 
C 723 -39 1216 -128 1466 -128 
C 1760 -128 2208 -7 2470 600 
C 2662 1042 2688 1559 2688 2025 
z
M 1466 -26 
C 1056 -26 813 325 723 812 
C 653 1188 653 1738 653 2096 
C 653 2588 653 2997 736 3387 
C 858 3929 1216 4096 1466 4096 
C 1728 4096 2067 3923 2189 3400 
C 2272 3036 2278 2607 2278 2096 
C 2278 1680 2278 1169 2202 792 
C 2067 95 1690 -26 1466 -26 
z
" transform="scale(0.015625)"/>
        <path id="CMMI12-3a" d="M 1178 307 
C 1178 492 1024 619 870 619 
C 685 619 557 466 557 313 
C 557 128 710 0 864 0 
C 1050 0 1178 153 1178 307 
z
" transform="scale(0.015625)"/>
        <path id="CMR17-32" d="M 2669 989 
L 2554 989 
C 2490 536 2438 459 2413 420 
C 2381 369 1920 369 1830 369 
L 602 369 
C 832 619 1280 1072 1824 1597 
C 2214 1967 2669 2402 2669 3035 
C 2669 3790 2067 4224 1395 4224 
C 691 4224 262 3604 262 3030 
C 262 2780 448 2748 525 2748 
C 589 2748 781 2787 781 3010 
C 781 3207 614 3264 525 3264 
C 486 3264 448 3258 422 3245 
C 544 3790 915 4058 1306 4058 
C 1862 4058 2227 3617 2227 3035 
C 2227 2479 1901 2000 1536 1584 
L 262 146 
L 262 0 
L 2515 0 
L 2669 989 
z
" transform="scale(0.015625)"/>
        <path id="CMR17-35" d="M 730 3692 
C 794 3666 1056 3584 1325 3584 
C 1920 3584 2246 3911 2432 4100 
C 2432 4157 2432 4192 2394 4192 
C 2387 4192 2374 4192 2323 4163 
C 2099 4058 1837 3973 1517 3973 
C 1325 3973 1037 3999 723 4139 
C 653 4171 640 4171 634 4171 
C 602 4171 595 4164 595 4037 
L 595 2203 
C 595 2089 595 2057 659 2057 
C 691 2057 704 2070 736 2114 
C 941 2401 1222 2522 1542 2522 
C 1766 2522 2246 2382 2246 1289 
C 2246 1085 2246 715 2054 421 
C 1894 159 1645 25 1370 25 
C 947 25 518 320 403 814 
C 429 807 480 795 506 795 
C 589 795 749 840 749 1038 
C 749 1210 627 1280 506 1280 
C 358 1280 262 1190 262 1011 
C 262 454 704 -128 1382 -128 
C 2042 -128 2669 440 2669 1264 
C 2669 2030 2170 2624 1549 2624 
C 1222 2624 947 2503 730 2274 
L 730 3692 
z
" transform="scale(0.015625)"/>
       </defs>
       <use xlink:href="#CMR17-30" transform="scale(0.996264)"/>
       <use xlink:href="#CMMI12-3a" transform="translate(45.690477 0) scale(0.996264)"/>
       <use xlink:href="#CMR17-32" transform="translate(72.787654 0) scale(0.996264)"/>
       <use xlink:href="#CMR17-35" transform="translate(118.478131 0) scale(0.996264)"/>
      </g>
     </g>
    </g>
    <g id="xtick_2">
     <g id="line2d_2">
      <g>
       <use xlink:href="#ma0d277c1da" x="108.59694" y="193.536948" style="stroke: #000000; stroke-width: 0.8"/>
      </g>
     </g>
     <g id="text_2">
      <!-- $\mathdefault{0.50}$ -->
      <g transform="translate(96.457405 210.222825) scale(0.14 -0.14)">
       <use xlink:href="#CMR17-30" transform="scale(0.996264)"/>
       <use xlink:href="#CMMI12-3a" transform="translate(45.690477 0) scale(0.996264)"/>
       <use xlink:href="#CMR17-35" transform="translate(72.787654 0) scale(0.996264)"/>
       <use xlink:href="#CMR17-30" transform="translate(118.478131 0) scale(0.996264)"/>
      </g>
     </g>
    </g>
    <g id="xtick_3">
     <g id="line2d_3">
      <g>
       <use xlink:href="#ma0d277c1da" x="150.918525" y="193.536948" style="stroke: #000000; stroke-width: 0.8"/>
      </g>
     </g>
     <g id="text_3">
      <!-- $\mathdefault{0.75}$ -->
      <g transform="translate(138.77899 210.222825) scale(0.14 -0.14)">
       <defs>
        <path id="CMR17-37" d="M 2886 3941 
L 2886 4081 
L 1382 4081 
C 634 4081 621 4165 595 4288 
L 480 4288 
L 294 3094 
L 410 3094 
C 429 3215 474 3540 550 3661 
C 589 3712 1062 3712 1171 3712 
L 2579 3712 
L 1869 2661 
C 1395 1954 1069 999 1069 165 
C 1069 89 1069 -128 1299 -128 
C 1530 -128 1530 89 1530 171 
L 1530 465 
C 1530 1508 1709 2196 2003 2636 
L 2886 3941 
z
" transform="scale(0.015625)"/>
       </defs>
       <use xlink:href="#CMR17-30" transform="scale(0.996264)"/>
       <use xlink:href="#CMMI12-3a" transform="translate(45.690477 0) scale(0.996264)"/>
       <use xlink:href="#CMR17-37" transform="translate(72.787654 0) scale(0.996264)"/>
       <use xlink:href="#CMR17-35" transform="translate(118.478131 0) scale(0.996264)"/>
      </g>
     </g>
    </g>
    <g id="xtick_4">
     <g id="line2d_4">
      <g>
       <use xlink:href="#ma0d277c1da" x="193.24011" y="193.536948" style="stroke: #000000; stroke-width: 0.8"/>
      </g>
     </g>
     <g id="text_4">
      <!-- $\mathdefault{1.00}$ -->
      <g transform="translate(181.100575 210.222825) scale(0.14 -0.14)">
       <defs>
        <path id="CMR17-31" d="M 1702 4058 
C 1702 4192 1696 4192 1606 4192 
C 1357 3916 979 3827 621 3827 
C 602 3827 570 3827 563 3808 
C 557 3795 557 3782 557 3648 
C 755 3648 1088 3686 1344 3839 
L 1344 461 
C 1344 236 1331 160 781 160 
L 589 160 
L 589 0 
C 896 0 1216 0 1523 0 
C 1830 0 2150 0 2458 0 
L 2458 160 
L 2266 160 
C 1715 160 1702 230 1702 458 
L 1702 4058 
z
" transform="scale(0.015625)"/>
       </defs>
       <use xlink:href="#CMR17-31" transform="scale(0.996264)"/>
       <use xlink:href="#CMMI12-3a" transform="translate(45.690477 0) scale(0.996264)"/>
       <use xlink:href="#CMR17-30" transform="translate(72.787654 0) scale(0.996264)"/>
       <use xlink:href="#CMR17-30" transform="translate(118.478131 0) scale(0.996264)"/>
      </g>
     </g>
    </g>
    <g id="xtick_5">
     <g id="line2d_5">
      <g>
       <use xlink:href="#ma0d277c1da" x="235.561695" y="193.536948" style="stroke: #000000; stroke-width: 0.8"/>
      </g>
     </g>
     <g id="text_5">
      <!-- $\mathdefault{1.25}$ -->
      <g transform="translate(223.42216 210.222825) scale(0.14 -0.14)">
       <use xlink:href="#CMR17-31" transform="scale(0.996264)"/>
       <use xlink:href="#CMMI12-3a" transform="translate(45.690477 0) scale(0.996264)"/>
       <use xlink:href="#CMR17-32" transform="translate(72.787654 0) scale(0.996264)"/>
       <use xlink:href="#CMR17-35" transform="translate(118.478131 0) scale(0.996264)"/>
      </g>
     </g>
    </g>
    <g id="xtick_6">
     <g id="line2d_6">
      <g>
       <use xlink:href="#ma0d277c1da" x="277.88328" y="193.536948" style="stroke: #000000; stroke-width: 0.8"/>
      </g>
     </g>
     <g id="text_6">
      <!-- $\mathdefault{1.50}$ -->
      <g transform="translate(265.743745 210.222825) scale(0.14 -0.14)">
       <use xlink:href="#CMR17-31" transform="scale(0.996264)"/>
       <use xlink:href="#CMMI12-3a" transform="translate(45.690477 0) scale(0.996264)"/>
       <use xlink:href="#CMR17-35" transform="translate(72.787654 0) scale(0.996264)"/>
       <use xlink:href="#CMR17-30" transform="translate(118.478131 0) scale(0.996264)"/>
      </g>
     </g>
    </g>
    <g id="xtick_7">
     <g id="line2d_7">
      <g>
       <use xlink:href="#ma0d277c1da" x="320.204865" y="193.536948" style="stroke: #000000; stroke-width: 0.8"/>
      </g>
     </g>
     <g id="text_7">
      <!-- $\mathdefault{1.75}$ -->
      <g transform="translate(308.06533 210.222825) scale(0.14 -0.14)">
       <use xlink:href="#CMR17-31" transform="scale(0.996264)"/>
       <use xlink:href="#CMMI12-3a" transform="translate(45.690477 0) scale(0.996264)"/>
       <use xlink:href="#CMR17-37" transform="translate(72.787654 0) scale(0.996264)"/>
       <use xlink:href="#CMR17-35" transform="translate(118.478131 0) scale(0.996264)"/>
      </g>
     </g>
    </g>
    <g id="xtick_8">
     <g id="line2d_8">
      <g>
       <use xlink:href="#ma0d277c1da" x="362.52645" y="193.536948" style="stroke: #000000; stroke-width: 0.8"/>
      </g>
     </g>
     <g id="text_8">
      <!-- $\mathdefault{2.00}$ -->
      <g transform="translate(350.386915 210.222825) scale(0.14 -0.14)">
       <use xlink:href="#CMR17-32" transform="scale(0.996264)"/>
       <use xlink:href="#CMMI12-3a" transform="translate(45.690477 0) scale(0.996264)"/>
       <use xlink:href="#CMR17-30" transform="translate(72.787654 0) scale(0.996264)"/>
       <use xlink:href="#CMR17-30" transform="translate(118.478131 0) scale(0.996264)"/>
      </g>
     </g>
    </g>
    <g id="text_9">
     <!-- P -->
     <g transform="translate(205.513613 226.620729) scale(0.14 -0.14)">
      <defs>
       <path id="CMR17-50" d="M 1267 2042 
L 2291 2042 
C 3117 2042 3718 2578 3718 3184 
C 3718 3791 3130 4352 2291 4352 
L 333 4352 
L 333 4186 
C 774 4186 845 4186 845 3899 
L 845 446 
C 845 160 774 160 333 160 
L 333 0 
C 518 0 858 0 1056 0 
C 1254 0 1594 0 1779 0 
L 1779 160 
C 1338 160 1267 160 1267 446 
L 1267 2042 
z
M 1254 2176 
L 1254 3938 
C 1254 4155 1267 4186 1523 4186 
L 2170 4186 
C 2995 4186 3232 3714 3232 3184 
C 3232 2604 2950 2176 2170 2176 
L 1254 2176 
z
" transform="scale(0.015625)"/>
      </defs>
      <use xlink:href="#CMR17-50" transform="scale(0.996264)"/>
     </g>
    </g>
   </g>
   <g id="matplotlib.axis_2">
    <g id="ytick_1">
     <g id="line2d_9">
      <defs>
       <path id="m09ce9c71b3" d="M 0 0 
L -3.5 0 
" style="stroke: #000000; stroke-width: 0.8"/>
      </defs>
      <g>
       <use xlink:href="#m09ce9c71b3" x="42.576185" y="185.266777" style="stroke: #000000; stroke-width: 0.8"/>
      </g>
     </g>
     <g id="text_10">
      <!-- $\mathdefault{0}$ -->
      <g transform="translate(28.747696 190.109715) scale(0.14 -0.14)">
       <use xlink:href="#CMR17-30" transform="scale(0.996264)"/>
      </g>
     </g>
    </g>
    <g id="ytick_2">
     <g id="line2d_10">
      <g>
       <use xlink:href="#m09ce9c71b3" x="42.576185" y="157.532654" style="stroke: #000000; stroke-width: 0.8"/>
      </g>
     </g>
     <g id="text_11">
      <!-- $\mathdefault{1}$ -->
      <g transform="translate(28.747696 162.375592) scale(0.14 -0.14)">
       <use xlink:href="#CMR17-31" transform="scale(0.996264)"/>
      </g>
     </g>
    </g>
    <g id="ytick_3">
     <g id="line2d_11">
      <g>
       <use xlink:href="#m09ce9c71b3" x="42.576185" y="129.798531" style="stroke: #000000; stroke-width: 0.8"/>
      </g>
     </g>
     <g id="text_12">
      <!-- $\mathdefault{2}$ -->
      <g transform="translate(28.747696 134.641469) scale(0.14 -0.14)">
       <use xlink:href="#CMR17-32" transform="scale(0.996264)"/>
      </g>
     </g>
    </g>
    <g id="ytick_4">
     <g id="line2d_12">
      <g>
       <use xlink:href="#m09ce9c71b3" x="42.576185" y="102.064408" style="stroke: #000000; stroke-width: 0.8"/>
      </g>
     </g>
     <g id="text_13">
      <!-- $\mathdefault{3}$ -->
      <g transform="translate(28.747696 106.907346) scale(0.14 -0.14)">
       <defs>
        <path id="CMR17-33" d="M 1414 2157 
C 1984 2157 2234 1662 2234 1090 
C 2234 320 1824 25 1453 25 
C 1114 25 563 194 390 693 
C 422 680 454 680 486 680 
C 640 680 755 782 755 948 
C 755 1133 614 1216 486 1216 
C 378 1216 211 1165 211 926 
C 211 335 787 -128 1466 -128 
C 2176 -128 2720 430 2720 1085 
C 2720 1707 2208 2157 1600 2227 
C 2086 2328 2554 2756 2554 3329 
C 2554 3820 2048 4179 1472 4179 
C 890 4179 378 3829 378 3329 
C 378 3110 544 3072 627 3072 
C 762 3072 877 3155 877 3321 
C 877 3486 762 3569 627 3569 
C 602 3569 570 3569 544 3557 
C 730 3959 1235 4032 1459 4032 
C 1683 4032 2106 3925 2106 3320 
C 2106 3143 2080 2828 1862 2550 
C 1670 2304 1453 2304 1242 2284 
C 1210 2284 1062 2269 1037 2269 
C 992 2263 966 2257 966 2208 
C 966 2163 973 2157 1101 2157 
L 1414 2157 
z
" transform="scale(0.015625)"/>
       </defs>
       <use xlink:href="#CMR17-33" transform="scale(0.996264)"/>
      </g>
     </g>
    </g>
    <g id="ytick_5">
     <g id="line2d_13">
      <g>
       <use xlink:href="#m09ce9c71b3" x="42.576185" y="74.330285" style="stroke: #000000; stroke-width: 0.8"/>
      </g>
     </g>
     <g id="text_14">
      <!-- $\mathdefault{4}$ -->
      <g transform="translate(28.747696 79.173223) scale(0.14 -0.14)">
       <defs>
        <path id="CMR17-34" d="M 2150 4122 
C 2150 4256 2144 4256 2029 4256 
L 128 1254 
L 128 1088 
L 1779 1088 
L 1779 457 
C 1779 224 1766 160 1318 160 
L 1197 160 
L 1197 0 
C 1402 0 1747 0 1965 0 
C 2182 0 2528 0 2733 0 
L 2733 160 
L 2611 160 
C 2163 160 2150 224 2150 457 
L 2150 1088 
L 2803 1088 
L 2803 1254 
L 2150 1254 
L 2150 4122 
z
M 1798 3703 
L 1798 1254 
L 256 1254 
L 1798 3703 
z
" transform="scale(0.015625)"/>
       </defs>
       <use xlink:href="#CMR17-34" transform="scale(0.996264)"/>
      </g>
     </g>
    </g>
    <g id="ytick_6">
     <g id="line2d_14">
      <g>
       <use xlink:href="#m09ce9c71b3" x="42.576185" y="46.596162" style="stroke: #000000; stroke-width: 0.8"/>
      </g>
     </g>
     <g id="text_15">
      <!-- $\mathdefault{5}$ -->
      <g transform="translate(28.747696 51.4391) scale(0.14 -0.14)">
       <use xlink:href="#CMR17-35" transform="scale(0.996264)"/>
      </g>
     </g>
    </g>
    <g id="ytick_7">
     <g id="line2d_15">
      <g>
       <use xlink:href="#m09ce9c71b3" x="42.576185" y="18.862039" style="stroke: #000000; stroke-width: 0.8"/>
      </g>
     </g>
     <g id="text_16">
      <!-- $\mathdefault{6}$ -->
      <g transform="translate(28.747696 23.704977) scale(0.14 -0.14)">
       <defs>
        <path id="CMR17-36" d="M 678 2176 
C 678 3690 1395 4032 1811 4032 
C 1946 4032 2272 4009 2400 3776 
C 2298 3776 2106 3776 2106 3553 
C 2106 3381 2246 3323 2336 3323 
C 2394 3323 2566 3348 2566 3560 
C 2566 3954 2246 4179 1805 4179 
C 1043 4179 243 3390 243 1984 
C 243 253 966 -128 1478 -128 
C 2099 -128 2688 427 2688 1283 
C 2688 2081 2170 2662 1517 2662 
C 1126 2662 838 2407 678 1960 
L 678 2176 
z
M 1478 25 
C 691 25 691 1200 691 1436 
C 691 1896 909 2560 1504 2560 
C 1613 2560 1926 2560 2138 2120 
C 2253 1870 2253 1609 2253 1289 
C 2253 944 2253 690 2118 434 
C 1978 171 1773 25 1478 25 
z
" transform="scale(0.015625)"/>
       </defs>
       <use xlink:href="#CMR17-36" transform="scale(0.996264)"/>
      </g>
     </g>
    </g>
    <g id="text_17">
     <!-- $\phi(P)$ -->
     <g transform="translate(21.260772 116.870711) rotate(-90) scale(0.14 -0.14)">
      <defs>
       <path id="CMMI12-1e" d="M 2752 4390 
C 2752 4448 2707 4448 2688 4448 
C 2630 4448 2624 4435 2598 4326 
L 2253 2939 
C 2234 2856 2227 2849 2221 2843 
C 2214 2830 2170 2824 2157 2824 
C 1107 2734 301 1864 301 1057 
C 301 361 832 -64 1498 -64 
C 1446 -261 1402 -463 1350 -659 
C 1261 -995 1210 -1204 1210 -1229 
C 1210 -1241 1210 -1280 1274 -1280 
C 1293 -1280 1318 -1280 1331 -1254 
C 1344 -1241 1382 -1089 1408 -1008 
L 1645 -64 
C 2739 -64 3571 854 3571 1680 
C 3571 2343 3085 2816 2374 2816 
L 2752 4390 
z
M 2336 2701 
C 2758 2701 3181 2463 3181 1828 
C 3181 1097 2675 128 1677 50 
L 2336 2701 
z
M 1530 50 
C 1216 50 691 220 691 938 
C 691 1761 1274 2676 2195 2676 
L 1530 50 
z
" transform="scale(0.015625)"/>
       <path id="CMR17-28" d="M 1958 -1561 
C 1958 -1555 1958 -1542 1939 -1523 
C 1645 -1224 858 -407 858 1581 
C 858 3569 1632 4379 1946 4697 
C 1946 4704 1958 4717 1958 4736 
C 1958 4755 1939 4768 1914 4768 
C 1843 4768 1299 4296 986 3594 
C 666 2887 576 2199 576 1588 
C 576 1128 621 351 1005 -471 
C 1312 -1135 1837 -1600 1914 -1600 
C 1946 -1600 1958 -1587 1958 -1561 
z
" transform="scale(0.015625)"/>
       <path id="CMMI12-50" d="M 1894 2023 
L 2970 2023 
C 3853 2023 4736 2673 4736 3401 
C 4736 3898 4314 4352 3507 4352 
L 1530 4352 
C 1408 4352 1350 4352 1350 4231 
C 1350 4167 1408 4167 1504 4167 
C 1894 4167 1894 4116 1894 4046 
C 1894 4034 1894 3995 1869 3899 
L 1005 472 
C 947 249 934 185 486 185 
C 365 185 301 185 301 70 
C 301 0 358 0 397 0 
C 518 0 646 0 768 0 
L 1517 0 
C 1638 0 1773 0 1894 0 
C 1946 0 2016 0 2016 121 
C 2016 185 1958 185 1862 185 
C 1478 185 1472 230 1472 293 
C 1472 325 1478 369 1485 401 
L 1894 2023 
z
M 2355 3930 
C 2413 4167 2438 4167 2688 4167 
L 3322 4167 
C 3802 4167 4198 4013 4198 3535 
C 4198 3369 4115 2827 3821 2534 
C 3712 2419 3405 2176 2822 2176 
L 1920 2176 
L 2355 3930 
z
" transform="scale(0.015625)"/>
       <path id="CMR17-29" d="M 1683 1581 
C 1683 2040 1638 2817 1254 3639 
C 947 4303 422 4768 346 4768 
C 326 4768 301 4761 301 4729 
C 301 4717 307 4710 314 4697 
C 621 4378 1402 3568 1402 1584 
C 1402 -407 627 -1217 314 -1537 
C 307 -1549 301 -1556 301 -1568 
C 301 -1600 326 -1600 346 -1600 
C 416 -1600 960 -1128 1274 -426 
C 1594 281 1683 969 1683 1581 
z
" transform="scale(0.015625)"/>
      </defs>
      <use xlink:href="#CMMI12-1e" transform="scale(0.996264)"/>
      <use xlink:href="#CMR17-28" transform="translate(57.73418 0) scale(0.996264)"/>
      <use xlink:href="#CMMI12-50" transform="translate(93.014948 0) scale(0.996264)"/>
      <use xlink:href="#CMR17-29" transform="translate(169.440769 0) scale(0.996264)"/>
     </g>
    </g>
   </g>
   <g id="line2d_16">
    <path d="M 57.811038 125.361071 
L 61.230175 120.051456 
L 61.628242 119.442116 
L 64.09557 115.706315 
L 65.817304 113.141304 
L 66.701767 111.83703 
L 69.451639 107.83996 
L 70.881894 105.795732 
L 74.366328 100.914955 
L 83.718935 88.511546 
L 95.729976 74.072499 
L 104.917247 64.158903 
L 107.90178 61.149357 
L 109.421543 59.656605 
L 110.188255 58.9137 
L 118.917608 50.936731 
L 121.390282 48.838014 
L 149.958018 29.739771 
L 150.907339 29.267833 
L 153.772365 27.906995 
L 162.507519 24.346326 
L 164.474109 23.6669 
L 199.724957 19.106225 
L 212.850078 21.094971 
L 217.845547 22.377513 
L 223.783241 24.278915 
L 228.674262 26.152683 
L 234.463272 28.729478 
L 249.382152 37.164026 
L 265.899817 49.51759 
L 285.993807 68.817654 
L 288.11211 71.125476 
L 296.802331 81.138591 
L 308.086276 95.449004 
L 313.369276 102.657169 
L 316.809275 107.524968 
L 317.754167 108.886104 
L 321.369697 114.190088 
L 339.483064 143.047786 
L 343.944148 150.739821 
L 344.154897 151.108923 
L 344.773711 152.195681 
L 350.110426 161.752553 
L 352.462553 166.069703 
L 355.025675 170.847273 
L 356.391877 173.424996 
L 356.464158 173.561978 
L 356.535603 173.697435 
L 356.676021 173.963837 
L 356.947228 174.479019 
L 358.075604 176.631639 
L 358.480408 177.407494 
L 358.622646 177.68056 
L 359.340071 179.061451 
L 359.76626 179.884604 
L 360.135856 180.600159 
L 360.164341 180.655372 
L 360.66823 181.633648 
L 360.712319 181.719385 
L 360.755368 181.803121 
L 361.029547 182.336943 
L 361.065102 182.40623 
L 361.082562 182.440262 
L 361.444588 183.146679 
L 361.482949 183.221623 
L 361.578745 183.408846 
L 361.634111 183.517101 
L 361.644791 183.537987 
L 361.961877 184.158702 
L 362.043762 184.319185 
L 362.060907 184.352798 
L 362.165048 184.557034 
L 362.16938 184.565533 
L 362.209949 184.64513 
L 362.221196 184.667202 
L 362.239062 184.702263 
L 362.242508 184.709026 
L 362.245912 184.715708 
L 362.252599 184.728833 
L 362.268628 184.760296 
L 362.316435 184.854153 
L 362.344744 184.909742 
L 362.351204 184.922428 
L 362.369238 184.957849 
L 362.371124 184.961552 
L 362.378443 184.975929 
L 362.4455 185.107671 
L 362.456416 185.12912 
L 362.458086 185.132403 
L 362.459717 185.135607 
L 362.464379 185.144769 
L 362.472749 185.161219 
L 362.47999 185.175451 
L 362.491253 185.197589 
L 362.492093 185.199239 
L 362.494105 185.203194 
L 362.501649 185.218023 
L 362.501947 185.218608 
L 362.502241 185.219186 
L 362.506733 185.228015 
L 362.50811 185.230723 
" clip-path="url(#p2ceb32c8f1)" style="fill: none; stroke-dasharray: 11.1,4.8; stroke-dashoffset: 0; stroke: #ff7f0e; stroke-width: 3"/>
   </g>
   <g id="patch_3">
    <path d="M 42.576185 193.536948 
L 42.576185 10.8 
" style="fill: none; stroke: #000000; stroke-width: 0.8; stroke-linejoin: miter; stroke-linecap: square"/>
   </g>
   <g id="patch_4">
    <path d="M 377.742964 193.536948 
L 377.742964 10.8 
" style="fill: none; stroke: #000000; stroke-width: 0.8; stroke-linejoin: miter; stroke-linecap: square"/>
   </g>
   <g id="patch_5">
    <path d="M 42.576185 193.536948 
L 377.742964 193.536948 
" style="fill: none; stroke: #000000; stroke-width: 0.8; stroke-linejoin: miter; stroke-linecap: square"/>
   </g>
   <g id="patch_6">
    <path d="M 42.576185 10.8 
L 377.742964 10.8 
" style="fill: none; stroke: #000000; stroke-width: 0.8; stroke-linejoin: miter; stroke-linecap: square"/>
   </g>
   <g id="legend_1">
    <g id="PathCollection_2">
     <g>
      <use xlink:href="#m0037a5e043" x="326.842965" y="33.091486" style="fill: #1f77b4; stroke: #1f77b4"/>
     </g>
    </g>
    <g id="text_18">
     <!-- $\hat{\phi}$ -->
     <g transform="translate(352.042965 36.766486) scale(0.14 -0.14)">
      <defs>
       <path id="CMR17-5e" d="M 1466 4421 
L 678 3555 
L 755 3478 
L 1466 4166 
L 2176 3478 
L 2253 3555 
L 1466 4421 
z
" transform="scale(0.015625)"/>
      </defs>
      <use xlink:href="#CMR17-5e" transform="translate(14.151005 26.296621) scale(0.996264)"/>
      <use xlink:href="#CMMI12-1e" transform="scale(0.996264)"/>
     </g>
    </g>
    <g id="line2d_17">
     <path d="M 312.842965 51.378515 
L 326.842965 51.378515 
L 340.842965 51.378515 
" style="fill: none; stroke-dasharray: 11.1,4.8; stroke-dashoffset: 0; stroke: #ff7f0e; stroke-width: 3"/>
    </g>
    <g id="text_19">
     <!-- $\phi^*$ -->
     <g transform="translate(352.042965 56.278515) scale(0.14 -0.14)">
      <defs>
       <path id="CMSY10-3" d="M 1760 2719 
C 1766 2808 1766 2962 1600 2962 
C 1498 2962 1414 2879 1434 2795 
L 1434 2712 
L 1523 1720 
L 704 2316 
C 646 2348 634 2360 589 2360 
C 499 2360 416 2271 416 2181 
C 416 2079 480 2053 544 2021 
L 1453 1586 
L 570 1158 
C 467 1107 416 1081 416 985 
C 416 889 499 806 589 806 
C 634 806 646 806 806 928 
L 1523 1446 
L 1427 371 
C 1427 236 1542 204 1594 204 
C 1670 204 1766 248 1766 371 
L 1670 1446 
L 2490 851 
C 2547 819 2560 806 2605 806 
C 2694 806 2778 896 2778 985 
C 2778 1081 2720 1113 2643 1152 
C 2259 1343 2246 1343 1741 1580 
L 2624 2008 
C 2726 2060 2778 2085 2778 2181 
C 2778 2277 2694 2360 2605 2360 
C 2560 2360 2547 2360 2387 2239 
L 1670 1720 
L 1760 2719 
z
" transform="scale(0.015625)"/>
      </defs>
      <use xlink:href="#CMMI12-1e" transform="scale(0.996264)"/>
      <use xlink:href="#CMSY10-3" transform="translate(57.73418 36.153639) scale(0.697382)"/>
     </g>
    </g>
   </g>
  </g>
 </g>
 <defs>
  <clipPath id="p2ceb32c8f1">
   <rect x="42.576185" y="10.8" width="335.166779" height="182.736948"/>
  </clipPath>
 </defs>
</svg>
