<?xml version="1.0" encoding="utf-8" standalone="no"?>
<!DOCTYPE svg PUBLIC "-//W3C//DTD SVG 1.1//EN"
  "http://www.w3.org/Graphics/SVG/1.1/DTD/svg11.dtd">
<svg xmlns:xlink="http://www.w3.org/1999/xlink" width="388.542964pt" height="240.132758pt" viewBox="0 0 388.542964 240.132758" xmlns="http://www.w3.org/2000/svg" version="1.1">
 <metadata>
  <rdf:RDF xmlns:dc="http://purl.org/dc/elements/1.1/" xmlns:cc="http://creativecommons.org/ns#" xmlns:rdf="http://www.w3.org/1999/02/22-rdf-syntax-ns#">
   <cc:Work>
    <dc:type rdf:resource="http://purl.org/dc/dcmitype/StillImage"/>
    <dc:date>2024-12-04T09:33:17.513421</dc:date>
    <dc:format>image/svg+xml</dc:format>
    <dc:creator>
     <cc:Agent>
      <dc:title>Matplotlib v3.7.5, https://matplotlib.org/</dc:title>
     </cc:Agent>
    </dc:creator>
   </cc:Work>
  </rdf:RDF>
 </metadata>
 <defs>
  <style type="text/css">*{stroke-linejoin: round; stroke-linecap: butt}</style>
 </defs>
 <g id="figure_1">
  <g id="patch_1">
   <path d="M 0 240.132758 
L 388.542964 240.132758 
L 388.542964 0 
L 0 0 
z
" style="fill: #ffffff"/>
  </g>
  <g id="axes_1">
   <g id="patch_2">
    <path d="M 51.648487 193.536948 
L 377.742964 193.536948 
L 377.742964 11.028781 
L 51.648487 11.028781 
z
" style="fill: #ffffff"/>
   </g>
   <g id="PathCollection_1">
    <defs>
     <path id="m63d4e2bc98" d="M -3 3 
L 3 -3 
M -3 -3 
L 3 3 
" style="stroke: #000000; stroke-width: 1.5"/>
    </defs>
    <g clip-path="url(#p0e948d582d)">
     <use xlink:href="#m63d4e2bc98" x="66.470963" y="176.358312" style="stroke: #000000; stroke-width: 1.5"/>
     <use xlink:href="#m63d4e2bc98" x="314.550846" y="73.512758" style="stroke: #000000; stroke-width: 1.5"/>
     <use xlink:href="#m63d4e2bc98" x="361.436756" y="62.371711" style="stroke: #000000; stroke-width: 1.5"/>
     <use xlink:href="#m63d4e2bc98" x="112.466635" y="153.10349" style="stroke: #000000; stroke-width: 1.5"/>
     <use xlink:href="#m63d4e2bc98" x="294.668845" y="75.842799" style="stroke: #000000; stroke-width: 1.5"/>
     <use xlink:href="#m63d4e2bc98" x="196.44583" y="78.748324" style="stroke: #000000; stroke-width: 1.5"/>
     <use xlink:href="#m63d4e2bc98" x="174.189859" y="85.489462" style="stroke: #000000; stroke-width: 1.5"/>
     <use xlink:href="#m63d4e2bc98" x="234.429352" y="52.652738" style="stroke: #000000; stroke-width: 1.5"/>
     <use xlink:href="#m63d4e2bc98" x="231.46189" y="54.85794" style="stroke: #000000; stroke-width: 1.5"/>
     <use xlink:href="#m63d4e2bc98" x="250.750397" y="46.133154" style="stroke: #000000; stroke-width: 1.5"/>
     <use xlink:href="#m63d4e2bc98" x="95.848844" y="164.392661" style="stroke: #000000; stroke-width: 1.5"/>
     <use xlink:href="#m63d4e2bc98" x="270.632397" y="56.163781" style="stroke: #000000; stroke-width: 1.5"/>
     <use xlink:href="#m63d4e2bc98" x="193.478367" y="67.708765" style="stroke: #000000; stroke-width: 1.5"/>
     <use xlink:href="#m63d4e2bc98" x="330.87189" y="57.711178" style="stroke: #000000; stroke-width: 1.5"/>
     <use xlink:href="#m63d4e2bc98" x="92.881381" y="163.585415" style="stroke: #000000; stroke-width: 1.5"/>
     <use xlink:href="#m63d4e2bc98" x="302.680995" y="51.728277" style="stroke: #000000; stroke-width: 1.5"/>
     <use xlink:href="#m63d4e2bc98" x="213.360367" y="75.42343" style="stroke: #000000; stroke-width: 1.5"/>
     <use xlink:href="#m63d4e2bc98" x="75.076605" y="174.322572" style="stroke: #000000; stroke-width: 1.5"/>
     <use xlink:href="#m63d4e2bc98" x="118.40156" y="153.509225" style="stroke: #000000; stroke-width: 1.5"/>
     <use xlink:href="#m63d4e2bc98" x="204.754725" y="89.773765" style="stroke: #000000; stroke-width: 1.5"/>
     <use xlink:href="#m63d4e2bc98" x="78.340814" y="175.424591" style="stroke: #000000; stroke-width: 1.5"/>
     <use xlink:href="#m63d4e2bc98" x="234.726099" y="62.944279" style="stroke: #000000; stroke-width: 1.5"/>
     <use xlink:href="#m63d4e2bc98" x="219.592039" y="62.993394" style="stroke: #000000; stroke-width: 1.5"/>
     <use xlink:href="#m63d4e2bc98" x="245.112218" y="57.813102" style="stroke: #000000; stroke-width: 1.5"/>
     <use xlink:href="#m63d4e2bc98" x="362.326995" y="53.593737" style="stroke: #000000; stroke-width: 1.5"/>
     <use xlink:href="#m63d4e2bc98" x="256.685323" y="56.921504" style="stroke: #000000; stroke-width: 1.5"/>
     <use xlink:href="#m63d4e2bc98" x="198.226307" y="79.392614" style="stroke: #000000; stroke-width: 1.5"/>
     <use xlink:href="#m63d4e2bc98" x="278.941293" y="51.564014" style="stroke: #000000; stroke-width: 1.5"/>
     <use xlink:href="#m63d4e2bc98" x="267.071442" y="71.126009" style="stroke: #000000; stroke-width: 1.5"/>
     <use xlink:href="#m63d4e2bc98" x="251.34389" y="43.742138" style="stroke: #000000; stroke-width: 1.5"/>
     <use xlink:href="#m63d4e2bc98" x="189.917412" y="71.760597" style="stroke: #000000; stroke-width: 1.5"/>
     <use xlink:href="#m63d4e2bc98" x="102.674008" y="159.7376" style="stroke: #000000; stroke-width: 1.5"/>
     <use xlink:href="#m63d4e2bc98" x="108.90568" y="161.056978" style="stroke: #000000; stroke-width: 1.5"/>
     <use xlink:href="#m63d4e2bc98" x="230.274905" y="79.36612" style="stroke: #000000; stroke-width: 1.5"/>
     <use xlink:href="#m63d4e2bc98" x="310.099651" y="54.648296" style="stroke: #000000; stroke-width: 1.5"/>
     <use xlink:href="#m63d4e2bc98" x="99.706545" y="163.210737" style="stroke: #000000; stroke-width: 1.5"/>
     <use xlink:href="#m63d4e2bc98" x="167.067949" y="98.874969" style="stroke: #000000; stroke-width: 1.5"/>
     <use xlink:href="#m63d4e2bc98" x="258.169054" y="65.901472" style="stroke: #000000; stroke-width: 1.5"/>
     <use xlink:href="#m63d4e2bc98" x="343.928726" y="54.367635" style="stroke: #000000; stroke-width: 1.5"/>
     <use xlink:href="#m63d4e2bc98" x="317.815054" y="48.022809" style="stroke: #000000; stroke-width: 1.5"/>
     <use xlink:href="#m63d4e2bc98" x="334.136099" y="45.268057" style="stroke: #000000; stroke-width: 1.5"/>
     <use xlink:href="#m63d4e2bc98" x="122.259262" y="141.443058" style="stroke: #000000; stroke-width: 1.5"/>
     <use xlink:href="#m63d4e2bc98" x="320.782517" y="65.814644" style="stroke: #000000; stroke-width: 1.5"/>
     <use xlink:href="#m63d4e2bc98" x="104.454486" y="160.141652" style="stroke: #000000; stroke-width: 1.5"/>
     <use xlink:href="#m63d4e2bc98" x="357.875801" y="79.736901" style="stroke: #000000; stroke-width: 1.5"/>
     <use xlink:href="#m63d4e2bc98" x="249.860158" y="52.093322" style="stroke: #000000; stroke-width: 1.5"/>
     <use xlink:href="#m63d4e2bc98" x="337.103562" y="55.298765" style="stroke: #000000; stroke-width: 1.5"/>
     <use xlink:href="#m63d4e2bc98" x="175.970337" y="99.031229" style="stroke: #000000; stroke-width: 1.5"/>
     <use xlink:href="#m63d4e2bc98" x="208.018934" y="88.891822" style="stroke: #000000; stroke-width: 1.5"/>
     <use xlink:href="#m63d4e2bc98" x="276.567323" y="46.480167" style="stroke: #000000; stroke-width: 1.5"/>
     <use xlink:href="#m63d4e2bc98" x="181.015024" y="86.568231" style="stroke: #000000; stroke-width: 1.5"/>
     <use xlink:href="#m63d4e2bc98" x="235.616337" y="65.961888" style="stroke: #000000; stroke-width: 1.5"/>
     <use xlink:href="#m63d4e2bc98" x="301.49401" y="47.564943" style="stroke: #000000; stroke-width: 1.5"/>
     <use xlink:href="#m63d4e2bc98" x="292.591621" y="82.540734" style="stroke: #000000; stroke-width: 1.5"/>
     <use xlink:href="#m63d4e2bc98" x="211.57989" y="71.779555" style="stroke: #000000; stroke-width: 1.5"/>
     <use xlink:href="#m63d4e2bc98" x="98.51956" y="162.193458" style="stroke: #000000; stroke-width: 1.5"/>
     <use xlink:href="#m63d4e2bc98" x="302.384248" y="83.054014" style="stroke: #000000; stroke-width: 1.5"/>
     <use xlink:href="#m63d4e2bc98" x="179.828039" y="86.45914" style="stroke: #000000; stroke-width: 1.5"/>
     <use xlink:href="#m63d4e2bc98" x="326.717443" y="19.324607" style="stroke: #000000; stroke-width: 1.5"/>
     <use xlink:href="#m63d4e2bc98" x="197.929561" y="78.71251" style="stroke: #000000; stroke-width: 1.5"/>
     <use xlink:href="#m63d4e2bc98" x="84.275739" y="171.194286" style="stroke: #000000; stroke-width: 1.5"/>
     <use xlink:href="#m63d4e2bc98" x="350.160398" y="59.246436" style="stroke: #000000; stroke-width: 1.5"/>
     <use xlink:href="#m63d4e2bc98" x="169.441919" y="87.693546" style="stroke: #000000; stroke-width: 1.5"/>
     <use xlink:href="#m63d4e2bc98" x="293.48186" y="66.482286" style="stroke: #000000; stroke-width: 1.5"/>
     <use xlink:href="#m63d4e2bc98" x="206.831949" y="73.221732" style="stroke: #000000; stroke-width: 1.5"/>
     <use xlink:href="#m63d4e2bc98" x="186.949949" y="90.189881" style="stroke: #000000; stroke-width: 1.5"/>
     <use xlink:href="#m63d4e2bc98" x="103.267501" y="161.192624" style="stroke: #000000; stroke-width: 1.5"/>
     <use xlink:href="#m63d4e2bc98" x="225.823711" y="78.601598" style="stroke: #000000; stroke-width: 1.5"/>
     <use xlink:href="#m63d4e2bc98" x="352.534368" y="47.258121" style="stroke: #000000; stroke-width: 1.5"/>
     <use xlink:href="#m63d4e2bc98" x="115.730844" y="149.42057" style="stroke: #000000; stroke-width: 1.5"/>
     <use xlink:href="#m63d4e2bc98" x="89.617172" y="169.023562" style="stroke: #000000; stroke-width: 1.5"/>
     <use xlink:href="#m63d4e2bc98" x="291.701383" y="71.77635" style="stroke: #000000; stroke-width: 1.5"/>
     <use xlink:href="#m63d4e2bc98" x="330.575144" y="62.509751" style="stroke: #000000; stroke-width: 1.5"/>
     <use xlink:href="#m63d4e2bc98" x="245.705711" y="55.442062" style="stroke: #000000; stroke-width: 1.5"/>
     <use xlink:href="#m63d4e2bc98" x="145.405471" y="124.953646" style="stroke: #000000; stroke-width: 1.5"/>
     <use xlink:href="#m63d4e2bc98" x="167.661441" y="89.928199" style="stroke: #000000; stroke-width: 1.5"/>
     <use xlink:href="#m63d4e2bc98" x="237.396815" y="66.982159" style="stroke: #000000; stroke-width: 1.5"/>
     <use xlink:href="#m63d4e2bc98" x="214.250606" y="82.529988" style="stroke: #000000; stroke-width: 1.5"/>
     <use xlink:href="#m63d4e2bc98" x="131.458396" y="133.563037" style="stroke: #000000; stroke-width: 1.5"/>
     <use xlink:href="#m63d4e2bc98" x="146.592456" y="122.26267" style="stroke: #000000; stroke-width: 1.5"/>
     <use xlink:href="#m63d4e2bc98" x="126.41371" y="146.592691" style="stroke: #000000; stroke-width: 1.5"/>
     <use xlink:href="#m63d4e2bc98" x="257.278815" y="84.265188" style="stroke: #000000; stroke-width: 1.5"/>
     <use xlink:href="#m63d4e2bc98" x="205.051472" y="63.917858" style="stroke: #000000; stroke-width: 1.5"/>
     <use xlink:href="#m63d4e2bc98" x="304.758219" y="63.210404" style="stroke: #000000; stroke-width: 1.5"/>
     <use xlink:href="#m63d4e2bc98" x="127.600695" y="134.570669" style="stroke: #000000; stroke-width: 1.5"/>
     <use xlink:href="#m63d4e2bc98" x="362.030249" y="56.554801" style="stroke: #000000; stroke-width: 1.5"/>
     <use xlink:href="#m63d4e2bc98" x="137.986814" y="123.360173" style="stroke: #000000; stroke-width: 1.5"/>
     <use xlink:href="#m63d4e2bc98" x="337.697055" y="43.6447" style="stroke: #000000; stroke-width: 1.5"/>
     <use xlink:href="#m63d4e2bc98" x="314.254099" y="56.074634" style="stroke: #000000; stroke-width: 1.5"/>
     <use xlink:href="#m63d4e2bc98" x="259.356039" y="59.979354" style="stroke: #000000; stroke-width: 1.5"/>
     <use xlink:href="#m63d4e2bc98" x="215.140845" y="39.543872" style="stroke: #000000; stroke-width: 1.5"/>
     <use xlink:href="#m63d4e2bc98" x="173.596367" y="85.943709" style="stroke: #000000; stroke-width: 1.5"/>
     <use xlink:href="#m63d4e2bc98" x="215.437591" y="47.903134" style="stroke: #000000; stroke-width: 1.5"/>
     <use xlink:href="#m63d4e2bc98" x="161.133023" y="108.307884" style="stroke: #000000; stroke-width: 1.5"/>
     <use xlink:href="#m63d4e2bc98" x="72.702635" y="174.793237" style="stroke: #000000; stroke-width: 1.5"/>
     <use xlink:href="#m63d4e2bc98" x="151.637143" y="119.402991" style="stroke: #000000; stroke-width: 1.5"/>
     <use xlink:href="#m63d4e2bc98" x="332.949114" y="52.356528" style="stroke: #000000; stroke-width: 1.5"/>
     <use xlink:href="#m63d4e2bc98" x="123.446247" y="132.012767" style="stroke: #000000; stroke-width: 1.5"/>
     <use xlink:href="#m63d4e2bc98" x="314.847592" y="34.974282" style="stroke: #000000; stroke-width: 1.5"/>
     <use xlink:href="#m63d4e2bc98" x="249.266666" y="69.673777" style="stroke: #000000; stroke-width: 1.5"/>
     <use xlink:href="#m63d4e2bc98" x="101.487023" y="161.96634" style="stroke: #000000; stroke-width: 1.5"/>
    </g>
   </g>
   <g id="PathCollection_2">
    <defs>
     <path id="mbefdd7f264" d="M -1.118034 1.118034 
L 1.118034 -1.118034 
M -1.118034 -1.118034 
L 1.118034 1.118034 
" style="stroke: #008000; stroke-width: 1.5"/>
    </defs>
    <g clip-path="url(#p0e948d582d)">
     <use xlink:href="#mbefdd7f264" x="66.470963" y="185.241122" style="fill: #008000; stroke: #008000; stroke-width: 1.5"/>
     <use xlink:href="#mbefdd7f264" x="314.550835" y="185.241122" style="fill: #008000; stroke: #008000; stroke-width: 1.5"/>
     <use xlink:href="#mbefdd7f264" x="361.436744" y="185.241122" style="fill: #008000; stroke: #008000; stroke-width: 1.5"/>
     <use xlink:href="#mbefdd7f264" x="112.466634" y="185.241122" style="fill: #008000; stroke: #008000; stroke-width: 1.5"/>
     <use xlink:href="#mbefdd7f264" x="294.668847" y="185.241122" style="fill: #008000; stroke: #008000; stroke-width: 1.5"/>
     <use xlink:href="#mbefdd7f264" x="196.445833" y="185.241122" style="fill: #008000; stroke: #008000; stroke-width: 1.5"/>
     <use xlink:href="#mbefdd7f264" x="174.189863" y="185.241122" style="fill: #008000; stroke: #008000; stroke-width: 1.5"/>
     <use xlink:href="#mbefdd7f264" x="234.429348" y="185.241122" style="fill: #008000; stroke: #008000; stroke-width: 1.5"/>
     <use xlink:href="#mbefdd7f264" x="231.461888" y="185.241122" style="fill: #008000; stroke: #008000; stroke-width: 1.5"/>
     <use xlink:href="#mbefdd7f264" x="250.750398" y="185.241122" style="fill: #008000; stroke: #008000; stroke-width: 1.5"/>
     <use xlink:href="#mbefdd7f264" x="95.848844" y="185.241122" style="fill: #008000; stroke: #008000; stroke-width: 1.5"/>
     <use xlink:href="#mbefdd7f264" x="270.632401" y="185.241122" style="fill: #008000; stroke: #008000; stroke-width: 1.5"/>
     <use xlink:href="#mbefdd7f264" x="193.478373" y="185.241122" style="fill: #008000; stroke: #008000; stroke-width: 1.5"/>
     <use xlink:href="#mbefdd7f264" x="330.871886" y="185.241122" style="fill: #008000; stroke: #008000; stroke-width: 1.5"/>
     <use xlink:href="#mbefdd7f264" x="92.881381" y="185.241122" style="fill: #008000; stroke: #008000; stroke-width: 1.5"/>
     <use xlink:href="#mbefdd7f264" x="302.680996" y="185.241122" style="fill: #008000; stroke: #008000; stroke-width: 1.5"/>
     <use xlink:href="#mbefdd7f264" x="213.360362" y="185.241122" style="fill: #008000; stroke: #008000; stroke-width: 1.5"/>
     <use xlink:href="#mbefdd7f264" x="75.076605" y="185.241122" style="fill: #008000; stroke: #008000; stroke-width: 1.5"/>
     <use xlink:href="#mbefdd7f264" x="118.40156" y="185.241122" style="fill: #008000; stroke: #008000; stroke-width: 1.5"/>
     <use xlink:href="#mbefdd7f264" x="204.754721" y="185.241122" style="fill: #008000; stroke: #008000; stroke-width: 1.5"/>
     <use xlink:href="#mbefdd7f264" x="78.340814" y="185.241122" style="fill: #008000; stroke: #008000; stroke-width: 1.5"/>
     <use xlink:href="#mbefdd7f264" x="234.726101" y="185.241122" style="fill: #008000; stroke: #008000; stroke-width: 1.5"/>
     <use xlink:href="#mbefdd7f264" x="219.592034" y="185.241122" style="fill: #008000; stroke: #008000; stroke-width: 1.5"/>
     <use xlink:href="#mbefdd7f264" x="245.112218" y="185.241122" style="fill: #008000; stroke: #008000; stroke-width: 1.5"/>
     <use xlink:href="#mbefdd7f264" x="362.327003" y="185.241122" style="fill: #008000; stroke: #008000; stroke-width: 1.5"/>
     <use xlink:href="#mbefdd7f264" x="256.685318" y="185.241122" style="fill: #008000; stroke: #008000; stroke-width: 1.5"/>
     <use xlink:href="#mbefdd7f264" x="198.226309" y="185.241122" style="fill: #008000; stroke: #008000; stroke-width: 1.5"/>
     <use xlink:href="#mbefdd7f264" x="278.941288" y="185.241122" style="fill: #008000; stroke: #008000; stroke-width: 1.5"/>
     <use xlink:href="#mbefdd7f264" x="267.071449" y="185.241122" style="fill: #008000; stroke: #008000; stroke-width: 1.5"/>
     <use xlink:href="#mbefdd7f264" x="251.34389" y="185.241122" style="fill: #008000; stroke: #008000; stroke-width: 1.5"/>
     <use xlink:href="#mbefdd7f264" x="189.917407" y="185.241122" style="fill: #008000; stroke: #008000; stroke-width: 1.5"/>
     <use xlink:href="#mbefdd7f264" x="102.674009" y="185.241122" style="fill: #008000; stroke: #008000; stroke-width: 1.5"/>
     <use xlink:href="#mbefdd7f264" x="108.905678" y="185.241122" style="fill: #008000; stroke: #008000; stroke-width: 1.5"/>
     <use xlink:href="#mbefdd7f264" x="230.274904" y="185.241122" style="fill: #008000; stroke: #008000; stroke-width: 1.5"/>
     <use xlink:href="#mbefdd7f264" x="310.099653" y="185.241122" style="fill: #008000; stroke: #008000; stroke-width: 1.5"/>
     <use xlink:href="#mbefdd7f264" x="99.706546" y="185.241122" style="fill: #008000; stroke: #008000; stroke-width: 1.5"/>
     <use xlink:href="#mbefdd7f264" x="167.067952" y="185.241122" style="fill: #008000; stroke: #008000; stroke-width: 1.5"/>
     <use xlink:href="#mbefdd7f264" x="258.169055" y="185.241122" style="fill: #008000; stroke: #008000; stroke-width: 1.5"/>
     <use xlink:href="#mbefdd7f264" x="343.928738" y="185.241122" style="fill: #008000; stroke: #008000; stroke-width: 1.5"/>
     <use xlink:href="#mbefdd7f264" x="317.815062" y="185.241122" style="fill: #008000; stroke: #008000; stroke-width: 1.5"/>
     <use xlink:href="#mbefdd7f264" x="334.136113" y="185.241122" style="fill: #008000; stroke: #008000; stroke-width: 1.5"/>
     <use xlink:href="#mbefdd7f264" x="122.259262" y="185.241122" style="fill: #008000; stroke: #008000; stroke-width: 1.5"/>
     <use xlink:href="#mbefdd7f264" x="320.782508" y="185.241122" style="fill: #008000; stroke: #008000; stroke-width: 1.5"/>
     <use xlink:href="#mbefdd7f264" x="104.454485" y="185.241122" style="fill: #008000; stroke: #008000; stroke-width: 1.5"/>
     <use xlink:href="#mbefdd7f264" x="357.875792" y="185.241122" style="fill: #008000; stroke: #008000; stroke-width: 1.5"/>
     <use xlink:href="#mbefdd7f264" x="249.860153" y="185.241122" style="fill: #008000; stroke: #008000; stroke-width: 1.5"/>
     <use xlink:href="#mbefdd7f264" x="337.103559" y="185.241122" style="fill: #008000; stroke: #008000; stroke-width: 1.5"/>
     <use xlink:href="#mbefdd7f264" x="175.970339" y="185.241122" style="fill: #008000; stroke: #008000; stroke-width: 1.5"/>
     <use xlink:href="#mbefdd7f264" x="208.018934" y="185.241122" style="fill: #008000; stroke: #008000; stroke-width: 1.5"/>
     <use xlink:href="#mbefdd7f264" x="276.567321" y="185.241122" style="fill: #008000; stroke: #008000; stroke-width: 1.5"/>
     <use xlink:href="#mbefdd7f264" x="181.015021" y="185.241122" style="fill: #008000; stroke: #008000; stroke-width: 1.5"/>
     <use xlink:href="#mbefdd7f264" x="235.616332" y="185.241122" style="fill: #008000; stroke: #008000; stroke-width: 1.5"/>
     <use xlink:href="#mbefdd7f264" x="301.494012" y="185.241122" style="fill: #008000; stroke: #008000; stroke-width: 1.5"/>
     <use xlink:href="#mbefdd7f264" x="292.591618" y="185.241122" style="fill: #008000; stroke: #008000; stroke-width: 1.5"/>
     <use xlink:href="#mbefdd7f264" x="211.579886" y="185.241122" style="fill: #008000; stroke: #008000; stroke-width: 1.5"/>
     <use xlink:href="#mbefdd7f264" x="98.519562" y="185.241122" style="fill: #008000; stroke: #008000; stroke-width: 1.5"/>
     <use xlink:href="#mbefdd7f264" x="302.384243" y="185.241122" style="fill: #008000; stroke: #008000; stroke-width: 1.5"/>
     <use xlink:href="#mbefdd7f264" x="179.828037" y="185.241122" style="fill: #008000; stroke: #008000; stroke-width: 1.5"/>
     <use xlink:href="#mbefdd7f264" x="326.717456" y="185.241122" style="fill: #008000; stroke: #008000; stroke-width: 1.5"/>
     <use xlink:href="#mbefdd7f264" x="197.929556" y="185.241122" style="fill: #008000; stroke: #008000; stroke-width: 1.5"/>
     <use xlink:href="#mbefdd7f264" x="84.27574" y="185.241122" style="fill: #008000; stroke: #008000; stroke-width: 1.5"/>
     <use xlink:href="#mbefdd7f264" x="350.16041" y="185.241122" style="fill: #008000; stroke: #008000; stroke-width: 1.5"/>
     <use xlink:href="#mbefdd7f264" x="169.44192" y="185.241122" style="fill: #008000; stroke: #008000; stroke-width: 1.5"/>
     <use xlink:href="#mbefdd7f264" x="293.481863" y="185.241122" style="fill: #008000; stroke: #008000; stroke-width: 1.5"/>
     <use xlink:href="#mbefdd7f264" x="206.83195" y="185.241122" style="fill: #008000; stroke: #008000; stroke-width: 1.5"/>
     <use xlink:href="#mbefdd7f264" x="186.949947" y="185.241122" style="fill: #008000; stroke: #008000; stroke-width: 1.5"/>
     <use xlink:href="#mbefdd7f264" x="103.267501" y="185.241122" style="fill: #008000; stroke: #008000; stroke-width: 1.5"/>
     <use xlink:href="#mbefdd7f264" x="225.823707" y="185.241122" style="fill: #008000; stroke: #008000; stroke-width: 1.5"/>
     <use xlink:href="#mbefdd7f264" x="352.534378" y="185.241122" style="fill: #008000; stroke: #008000; stroke-width: 1.5"/>
     <use xlink:href="#mbefdd7f264" x="115.730843" y="185.241122" style="fill: #008000; stroke: #008000; stroke-width: 1.5"/>
     <use xlink:href="#mbefdd7f264" x="89.617171" y="185.241122" style="fill: #008000; stroke: #008000; stroke-width: 1.5"/>
     <use xlink:href="#mbefdd7f264" x="291.701387" y="185.241122" style="fill: #008000; stroke: #008000; stroke-width: 1.5"/>
     <use xlink:href="#mbefdd7f264" x="330.575133" y="185.241122" style="fill: #008000; stroke: #008000; stroke-width: 1.5"/>
     <use xlink:href="#mbefdd7f264" x="245.70571" y="185.241122" style="fill: #008000; stroke: #008000; stroke-width: 1.5"/>
     <use xlink:href="#mbefdd7f264" x="145.405474" y="185.241122" style="fill: #008000; stroke: #008000; stroke-width: 1.5"/>
     <use xlink:href="#mbefdd7f264" x="167.661444" y="185.241122" style="fill: #008000; stroke: #008000; stroke-width: 1.5"/>
     <use xlink:href="#mbefdd7f264" x="237.396822" y="185.241122" style="fill: #008000; stroke: #008000; stroke-width: 1.5"/>
     <use xlink:href="#mbefdd7f264" x="214.250607" y="185.241122" style="fill: #008000; stroke: #008000; stroke-width: 1.5"/>
     <use xlink:href="#mbefdd7f264" x="131.458398" y="185.241122" style="fill: #008000; stroke: #008000; stroke-width: 1.5"/>
     <use xlink:href="#mbefdd7f264" x="146.592458" y="185.241122" style="fill: #008000; stroke: #008000; stroke-width: 1.5"/>
     <use xlink:href="#mbefdd7f264" x="126.413709" y="185.241122" style="fill: #008000; stroke: #008000; stroke-width: 1.5"/>
     <use xlink:href="#mbefdd7f264" x="257.27881" y="185.241122" style="fill: #008000; stroke: #008000; stroke-width: 1.5"/>
     <use xlink:href="#mbefdd7f264" x="205.051474" y="185.241122" style="fill: #008000; stroke: #008000; stroke-width: 1.5"/>
     <use xlink:href="#mbefdd7f264" x="304.758211" y="185.241122" style="fill: #008000; stroke: #008000; stroke-width: 1.5"/>
     <use xlink:href="#mbefdd7f264" x="127.600693" y="185.241122" style="fill: #008000; stroke: #008000; stroke-width: 1.5"/>
     <use xlink:href="#mbefdd7f264" x="362.03025" y="185.241122" style="fill: #008000; stroke: #008000; stroke-width: 1.5"/>
     <use xlink:href="#mbefdd7f264" x="137.986817" y="185.241122" style="fill: #008000; stroke: #008000; stroke-width: 1.5"/>
     <use xlink:href="#mbefdd7f264" x="337.697065" y="185.241122" style="fill: #008000; stroke: #008000; stroke-width: 1.5"/>
     <use xlink:href="#mbefdd7f264" x="314.254111" y="185.241122" style="fill: #008000; stroke: #008000; stroke-width: 1.5"/>
     <use xlink:href="#mbefdd7f264" x="259.356039" y="185.241122" style="fill: #008000; stroke: #008000; stroke-width: 1.5"/>
     <use xlink:href="#mbefdd7f264" x="215.140852" y="185.241122" style="fill: #008000; stroke: #008000; stroke-width: 1.5"/>
     <use xlink:href="#mbefdd7f264" x="173.596364" y="185.241122" style="fill: #008000; stroke: #008000; stroke-width: 1.5"/>
     <use xlink:href="#mbefdd7f264" x="215.43759" y="185.241122" style="fill: #008000; stroke: #008000; stroke-width: 1.5"/>
     <use xlink:href="#mbefdd7f264" x="161.133025" y="185.241122" style="fill: #008000; stroke: #008000; stroke-width: 1.5"/>
     <use xlink:href="#mbefdd7f264" x="72.702635" y="185.241122" style="fill: #008000; stroke: #008000; stroke-width: 1.5"/>
     <use xlink:href="#mbefdd7f264" x="151.637139" y="185.241122" style="fill: #008000; stroke: #008000; stroke-width: 1.5"/>
     <use xlink:href="#mbefdd7f264" x="332.949101" y="185.241122" style="fill: #008000; stroke: #008000; stroke-width: 1.5"/>
     <use xlink:href="#mbefdd7f264" x="123.446246" y="185.241122" style="fill: #008000; stroke: #008000; stroke-width: 1.5"/>
     <use xlink:href="#mbefdd7f264" x="314.847588" y="185.241122" style="fill: #008000; stroke: #008000; stroke-width: 1.5"/>
     <use xlink:href="#mbefdd7f264" x="249.266661" y="185.241122" style="fill: #008000; stroke: #008000; stroke-width: 1.5"/>
     <use xlink:href="#mbefdd7f264" x="101.487022" y="185.241122" style="fill: #008000; stroke: #008000; stroke-width: 1.5"/>
    </g>
   </g>
   <g id="matplotlib.axis_1">
    <g id="xtick_1">
     <g id="line2d_1">
      <defs>
       <path id="m8fe05b7792" d="M 0 0 
L 0 3.5 
" style="stroke: #000000; stroke-width: 0.8"/>
      </defs>
      <g>
       <use xlink:href="#m8fe05b7792" x="66.470963" y="193.536948" style="stroke: #000000; stroke-width: 0.8"/>
      </g>
     </g>
     <g id="text_1">
      <!-- $\mathdefault{0}$ -->
      <g transform="translate(63.056719 210.222825) scale(0.14 -0.14)">
       <defs>
        <path id="CMR17-30" d="M 2688 2025 
C 2688 2416 2682 3080 2413 3591 
C 2176 4039 1798 4198 1466 4198 
C 1158 4198 768 4058 525 3597 
C 269 3118 243 2524 243 2025 
C 243 1661 250 1106 448 619 
C 723 -39 1216 -128 1466 -128 
C 1760 -128 2208 -7 2470 600 
C 2662 1042 2688 1559 2688 2025 
z
M 1466 -26 
C 1056 -26 813 325 723 812 
C 653 1188 653 1738 653 2096 
C 653 2588 653 2997 736 3387 
C 858 3929 1216 4096 1466 4096 
C 1728 4096 2067 3923 2189 3400 
C 2272 3036 2278 2607 2278 2096 
C 2278 1680 2278 1169 2202 792 
C 2067 95 1690 -26 1466 -26 
z
" transform="scale(0.015625)"/>
       </defs>
       <use xlink:href="#CMR17-30" transform="scale(0.996264)"/>
      </g>
     </g>
    </g>
    <g id="xtick_2">
     <g id="line2d_2">
      <g>
       <use xlink:href="#m8fe05b7792" x="125.820217" y="193.536948" style="stroke: #000000; stroke-width: 0.8"/>
      </g>
     </g>
     <g id="text_2">
      <!-- $\mathdefault{2}$ -->
      <g transform="translate(122.405973 210.222825) scale(0.14 -0.14)">
       <defs>
        <path id="CMR17-32" d="M 2669 989 
L 2554 989 
C 2490 536 2438 459 2413 420 
C 2381 369 1920 369 1830 369 
L 602 369 
C 832 619 1280 1072 1824 1597 
C 2214 1967 2669 2402 2669 3035 
C 2669 3790 2067 4224 1395 4224 
C 691 4224 262 3604 262 3030 
C 262 2780 448 2748 525 2748 
C 589 2748 781 2787 781 3010 
C 781 3207 614 3264 525 3264 
C 486 3264 448 3258 422 3245 
C 544 3790 915 4058 1306 4058 
C 1862 4058 2227 3617 2227 3035 
C 2227 2479 1901 2000 1536 1584 
L 262 146 
L 262 0 
L 2515 0 
L 2669 989 
z
" transform="scale(0.015625)"/>
       </defs>
       <use xlink:href="#CMR17-32" transform="scale(0.996264)"/>
      </g>
     </g>
    </g>
    <g id="xtick_3">
     <g id="line2d_3">
      <g>
       <use xlink:href="#m8fe05b7792" x="185.169471" y="193.536948" style="stroke: #000000; stroke-width: 0.8"/>
      </g>
     </g>
     <g id="text_3">
      <!-- $\mathdefault{4}$ -->
      <g transform="translate(181.755227 210.222825) scale(0.14 -0.14)">
       <defs>
        <path id="CMR17-34" d="M 2150 4122 
C 2150 4256 2144 4256 2029 4256 
L 128 1254 
L 128 1088 
L 1779 1088 
L 1779 457 
C 1779 224 1766 160 1318 160 
L 1197 160 
L 1197 0 
C 1402 0 1747 0 1965 0 
C 2182 0 2528 0 2733 0 
L 2733 160 
L 2611 160 
C 2163 160 2150 224 2150 457 
L 2150 1088 
L 2803 1088 
L 2803 1254 
L 2150 1254 
L 2150 4122 
z
M 1798 3703 
L 1798 1254 
L 256 1254 
L 1798 3703 
z
" transform="scale(0.015625)"/>
       </defs>
       <use xlink:href="#CMR17-34" transform="scale(0.996264)"/>
      </g>
     </g>
    </g>
    <g id="xtick_4">
     <g id="line2d_4">
      <g>
       <use xlink:href="#m8fe05b7792" x="244.518726" y="193.536948" style="stroke: #000000; stroke-width: 0.8"/>
      </g>
     </g>
     <g id="text_4">
      <!-- $\mathdefault{6}$ -->
      <g transform="translate(241.104481 210.222825) scale(0.14 -0.14)">
       <defs>
        <path id="CMR17-36" d="M 678 2176 
C 678 3690 1395 4032 1811 4032 
C 1946 4032 2272 4009 2400 3776 
C 2298 3776 2106 3776 2106 3553 
C 2106 3381 2246 3323 2336 3323 
C 2394 3323 2566 3348 2566 3560 
C 2566 3954 2246 4179 1805 4179 
C 1043 4179 243 3390 243 1984 
C 243 253 966 -128 1478 -128 
C 2099 -128 2688 427 2688 1283 
C 2688 2081 2170 2662 1517 2662 
C 1126 2662 838 2407 678 1960 
L 678 2176 
z
M 1478 25 
C 691 25 691 1200 691 1436 
C 691 1896 909 2560 1504 2560 
C 1613 2560 1926 2560 2138 2120 
C 2253 1870 2253 1609 2253 1289 
C 2253 944 2253 690 2118 434 
C 1978 171 1773 25 1478 25 
z
" transform="scale(0.015625)"/>
       </defs>
       <use xlink:href="#CMR17-36" transform="scale(0.996264)"/>
      </g>
     </g>
    </g>
    <g id="xtick_5">
     <g id="line2d_5">
      <g>
       <use xlink:href="#m8fe05b7792" x="303.86798" y="193.536948" style="stroke: #000000; stroke-width: 0.8"/>
      </g>
     </g>
     <g id="text_5">
      <!-- $\mathdefault{8}$ -->
      <g transform="translate(300.453735 210.222825) scale(0.14 -0.14)">
       <defs>
        <path id="CMR17-38" d="M 1741 2264 
C 2144 2467 2554 2773 2554 3263 
C 2554 3841 1990 4179 1472 4179 
C 890 4179 378 3759 378 3180 
C 378 3021 416 2747 666 2505 
C 730 2442 998 2251 1171 2130 
C 883 1983 211 1634 211 934 
C 211 279 838 -128 1459 -128 
C 2144 -128 2720 362 2720 1010 
C 2720 1590 2330 1857 2074 2029 
L 1741 2264 
z
M 902 2822 
C 851 2854 595 3051 595 3351 
C 595 3739 998 4032 1459 4032 
C 1965 4032 2336 3676 2336 3262 
C 2336 2669 1670 2331 1638 2331 
C 1632 2331 1626 2331 1574 2370 
L 902 2822 
z
M 2080 1519 
C 2176 1449 2483 1240 2483 851 
C 2483 381 2010 25 1472 25 
C 890 25 448 438 448 940 
C 448 1443 838 1862 1280 2060 
L 2080 1519 
z
" transform="scale(0.015625)"/>
       </defs>
       <use xlink:href="#CMR17-38" transform="scale(0.996264)"/>
      </g>
     </g>
    </g>
    <g id="xtick_6">
     <g id="line2d_6">
      <g>
       <use xlink:href="#m8fe05b7792" x="363.217234" y="193.536948" style="stroke: #000000; stroke-width: 0.8"/>
      </g>
     </g>
     <g id="text_6">
      <!-- $\mathdefault{10}$ -->
      <g transform="translate(356.388745 210.222825) scale(0.14 -0.14)">
       <defs>
        <path id="CMR17-31" d="M 1702 4058 
C 1702 4192 1696 4192 1606 4192 
C 1357 3916 979 3827 621 3827 
C 602 3827 570 3827 563 3808 
C 557 3795 557 3782 557 3648 
C 755 3648 1088 3686 1344 3839 
L 1344 461 
C 1344 236 1331 160 781 160 
L 589 160 
L 589 0 
C 896 0 1216 0 1523 0 
C 1830 0 2150 0 2458 0 
L 2458 160 
L 2266 160 
C 1715 160 1702 230 1702 458 
L 1702 4058 
z
" transform="scale(0.015625)"/>
       </defs>
       <use xlink:href="#CMR17-31" transform="scale(0.996264)"/>
       <use xlink:href="#CMR17-30" transform="translate(45.690477 0) scale(0.996264)"/>
      </g>
     </g>
    </g>
    <g id="text_7">
     <!-- t -->
     <g transform="translate(212.040202 226.620729) scale(0.14 -0.14)">
      <defs>
       <path id="CMR17-74" d="M 966 2560 
L 1862 2560 
L 1862 2725 
L 966 2725 
L 966 3904 
L 851 3904 
C 838 3245 614 2668 70 2668 
L 70 2560 
L 627 2560 
L 627 771 
C 627 650 627 -64 1370 -64 
C 1747 -64 1965 306 1965 777 
L 1965 1140 
L 1850 1140 
L 1850 783 
C 1850 344 1677 51 1408 51 
C 1222 51 966 178 966 758 
L 966 2560 
z
" transform="scale(0.015625)"/>
      </defs>
      <use xlink:href="#CMR17-74" transform="scale(0.996264)"/>
     </g>
    </g>
   </g>
   <g id="matplotlib.axis_2">
    <g id="ytick_1">
     <g id="line2d_7">
      <defs>
       <path id="m81f687a722" d="M 0 0 
L -3.5 0 
" style="stroke: #000000; stroke-width: 0.8"/>
      </defs>
      <g>
       <use xlink:href="#m81f687a722" x="51.648487" y="185.241122" style="stroke: #000000; stroke-width: 0.8"/>
      </g>
     </g>
     <g id="text_8">
      <!-- $\mathdefault{0.0}$ -->
      <g transform="translate(27.197905 190.084061) scale(0.14 -0.14)">
       <defs>
        <path id="CMMI12-3a" d="M 1178 307 
C 1178 492 1024 619 870 619 
C 685 619 557 466 557 313 
C 557 128 710 0 864 0 
C 1050 0 1178 153 1178 307 
z
" transform="scale(0.015625)"/>
       </defs>
       <use xlink:href="#CMR17-30" transform="scale(0.996264)"/>
       <use xlink:href="#CMMI12-3a" transform="translate(45.690477 0) scale(0.996264)"/>
       <use xlink:href="#CMR17-30" transform="translate(72.787654 0) scale(0.996264)"/>
      </g>
     </g>
    </g>
    <g id="ytick_2">
     <g id="line2d_8">
      <g>
       <use xlink:href="#m81f687a722" x="51.648487" y="164.033881" style="stroke: #000000; stroke-width: 0.8"/>
      </g>
     </g>
     <g id="text_9">
      <!-- $\mathdefault{0.5}$ -->
      <g transform="translate(27.197905 168.87682) scale(0.14 -0.14)">
       <defs>
        <path id="CMR17-35" d="M 730 3692 
C 794 3666 1056 3584 1325 3584 
C 1920 3584 2246 3911 2432 4100 
C 2432 4157 2432 4192 2394 4192 
C 2387 4192 2374 4192 2323 4163 
C 2099 4058 1837 3973 1517 3973 
C 1325 3973 1037 3999 723 4139 
C 653 4171 640 4171 634 4171 
C 602 4171 595 4164 595 4037 
L 595 2203 
C 595 2089 595 2057 659 2057 
C 691 2057 704 2070 736 2114 
C 941 2401 1222 2522 1542 2522 
C 1766 2522 2246 2382 2246 1289 
C 2246 1085 2246 715 2054 421 
C 1894 159 1645 25 1370 25 
C 947 25 518 320 403 814 
C 429 807 480 795 506 795 
C 589 795 749 840 749 1038 
C 749 1210 627 1280 506 1280 
C 358 1280 262 1190 262 1011 
C 262 454 704 -128 1382 -128 
C 2042 -128 2669 440 2669 1264 
C 2669 2030 2170 2624 1549 2624 
C 1222 2624 947 2503 730 2274 
L 730 3692 
z
" transform="scale(0.015625)"/>
       </defs>
       <use xlink:href="#CMR17-30" transform="scale(0.996264)"/>
       <use xlink:href="#CMMI12-3a" transform="translate(45.690477 0) scale(0.996264)"/>
       <use xlink:href="#CMR17-35" transform="translate(72.787654 0) scale(0.996264)"/>
      </g>
     </g>
    </g>
    <g id="ytick_3">
     <g id="line2d_9">
      <g>
       <use xlink:href="#m81f687a722" x="51.648487" y="142.826641" style="stroke: #000000; stroke-width: 0.8"/>
      </g>
     </g>
     <g id="text_10">
      <!-- $\mathdefault{1.0}$ -->
      <g transform="translate(27.197905 147.669579) scale(0.14 -0.14)">
       <use xlink:href="#CMR17-31" transform="scale(0.996264)"/>
       <use xlink:href="#CMMI12-3a" transform="translate(45.690477 0) scale(0.996264)"/>
       <use xlink:href="#CMR17-30" transform="translate(72.787654 0) scale(0.996264)"/>
      </g>
     </g>
    </g>
    <g id="ytick_4">
     <g id="line2d_10">
      <g>
       <use xlink:href="#m81f687a722" x="51.648487" y="121.6194" style="stroke: #000000; stroke-width: 0.8"/>
      </g>
     </g>
     <g id="text_11">
      <!-- $\mathdefault{1.5}$ -->
      <g transform="translate(27.197905 126.462338) scale(0.14 -0.14)">
       <use xlink:href="#CMR17-31" transform="scale(0.996264)"/>
       <use xlink:href="#CMMI12-3a" transform="translate(45.690477 0) scale(0.996264)"/>
       <use xlink:href="#CMR17-35" transform="translate(72.787654 0) scale(0.996264)"/>
      </g>
     </g>
    </g>
    <g id="ytick_5">
     <g id="line2d_11">
      <g>
       <use xlink:href="#m81f687a722" x="51.648487" y="100.412159" style="stroke: #000000; stroke-width: 0.8"/>
      </g>
     </g>
     <g id="text_12">
      <!-- $\mathdefault{2.0}$ -->
      <g transform="translate(27.197905 105.255097) scale(0.14 -0.14)">
       <use xlink:href="#CMR17-32" transform="scale(0.996264)"/>
       <use xlink:href="#CMMI12-3a" transform="translate(45.690477 0) scale(0.996264)"/>
       <use xlink:href="#CMR17-30" transform="translate(72.787654 0) scale(0.996264)"/>
      </g>
     </g>
    </g>
    <g id="ytick_6">
     <g id="line2d_12">
      <g>
       <use xlink:href="#m81f687a722" x="51.648487" y="79.204918" style="stroke: #000000; stroke-width: 0.8"/>
      </g>
     </g>
     <g id="text_13">
      <!-- $\mathdefault{2.5}$ -->
      <g transform="translate(27.197905 84.047856) scale(0.14 -0.14)">
       <use xlink:href="#CMR17-32" transform="scale(0.996264)"/>
       <use xlink:href="#CMMI12-3a" transform="translate(45.690477 0) scale(0.996264)"/>
       <use xlink:href="#CMR17-35" transform="translate(72.787654 0) scale(0.996264)"/>
      </g>
     </g>
    </g>
    <g id="ytick_7">
     <g id="line2d_13">
      <g>
       <use xlink:href="#m81f687a722" x="51.648487" y="57.997677" style="stroke: #000000; stroke-width: 0.8"/>
      </g>
     </g>
     <g id="text_14">
      <!-- $\mathdefault{3.0}$ -->
      <g transform="translate(27.197905 62.840615) scale(0.14 -0.14)">
       <defs>
        <path id="CMR17-33" d="M 1414 2157 
C 1984 2157 2234 1662 2234 1090 
C 2234 320 1824 25 1453 25 
C 1114 25 563 194 390 693 
C 422 680 454 680 486 680 
C 640 680 755 782 755 948 
C 755 1133 614 1216 486 1216 
C 378 1216 211 1165 211 926 
C 211 335 787 -128 1466 -128 
C 2176 -128 2720 430 2720 1085 
C 2720 1707 2208 2157 1600 2227 
C 2086 2328 2554 2756 2554 3329 
C 2554 3820 2048 4179 1472 4179 
C 890 4179 378 3829 378 3329 
C 378 3110 544 3072 627 3072 
C 762 3072 877 3155 877 3321 
C 877 3486 762 3569 627 3569 
C 602 3569 570 3569 544 3557 
C 730 3959 1235 4032 1459 4032 
C 1683 4032 2106 3925 2106 3320 
C 2106 3143 2080 2828 1862 2550 
C 1670 2304 1453 2304 1242 2284 
C 1210 2284 1062 2269 1037 2269 
C 992 2263 966 2257 966 2208 
C 966 2163 973 2157 1101 2157 
L 1414 2157 
z
" transform="scale(0.015625)"/>
       </defs>
       <use xlink:href="#CMR17-33" transform="scale(0.996264)"/>
       <use xlink:href="#CMMI12-3a" transform="translate(45.690477 0) scale(0.996264)"/>
       <use xlink:href="#CMR17-30" transform="translate(72.787654 0) scale(0.996264)"/>
      </g>
     </g>
    </g>
    <g id="ytick_8">
     <g id="line2d_14">
      <g>
       <use xlink:href="#m81f687a722" x="51.648487" y="36.790436" style="stroke: #000000; stroke-width: 0.8"/>
      </g>
     </g>
     <g id="text_15">
      <!-- $\mathdefault{3.5}$ -->
      <g transform="translate(27.197905 41.633375) scale(0.14 -0.14)">
       <use xlink:href="#CMR17-33" transform="scale(0.996264)"/>
       <use xlink:href="#CMMI12-3a" transform="translate(45.690477 0) scale(0.996264)"/>
       <use xlink:href="#CMR17-35" transform="translate(72.787654 0) scale(0.996264)"/>
      </g>
     </g>
    </g>
    <g id="ytick_9">
     <g id="line2d_15">
      <g>
       <use xlink:href="#m81f687a722" x="51.648487" y="15.583196" style="stroke: #000000; stroke-width: 0.8"/>
      </g>
     </g>
     <g id="text_16">
      <!-- $\mathdefault{4.0}$ -->
      <g transform="translate(27.197905 20.426134) scale(0.14 -0.14)">
       <use xlink:href="#CMR17-34" transform="scale(0.996264)"/>
       <use xlink:href="#CMMI12-3a" transform="translate(45.690477 0) scale(0.996264)"/>
       <use xlink:href="#CMR17-30" transform="translate(72.787654 0) scale(0.996264)"/>
      </g>
     </g>
    </g>
    <g id="text_17">
     <!-- P -->
     <g transform="translate(20.485876 106.928826) rotate(-90) scale(0.14 -0.14)">
      <defs>
       <path id="CMR17-50" d="M 1267 2042 
L 2291 2042 
C 3117 2042 3718 2578 3718 3184 
C 3718 3791 3130 4352 2291 4352 
L 333 4352 
L 333 4186 
C 774 4186 845 4186 845 3899 
L 845 446 
C 845 160 774 160 333 160 
L 333 0 
C 518 0 858 0 1056 0 
C 1254 0 1594 0 1779 0 
L 1779 160 
C 1338 160 1267 160 1267 446 
L 1267 2042 
z
M 1254 2176 
L 1254 3938 
C 1254 4155 1267 4186 1523 4186 
L 2170 4186 
C 2995 4186 3232 3714 3232 3184 
C 3232 2604 2950 2176 2170 2176 
L 1254 2176 
z
" transform="scale(0.015625)"/>
      </defs>
      <use xlink:href="#CMR17-50" transform="scale(0.996264)"/>
     </g>
    </g>
   </g>
   <g id="line2d_16">
    <path d="M 66.470963 177.502968 
L 74.483112 174.748817 
L 80.418038 172.46786 
L 85.462724 170.29163 
L 89.913918 168.143589 
L 94.365113 165.745139 
L 98.51956 163.255027 
L 102.674008 160.505627 
L 106.828456 157.490392 
L 111.27965 153.969381 
L 115.730844 150.165733 
L 120.775531 145.552087 
L 126.41371 140.085857 
L 133.53562 132.857548 
L 144.218486 121.663277 
L 151.933889 113.305323 
L 163.210247 100.959285 
L 166.771203 97.48293 
L 170.628904 94.030354 
L 174.783352 90.617369 
L 179.234546 87.248665 
L 183.982486 83.941122 
L 188.730427 80.906623 
L 193.478367 78.133843 
L 198.226307 75.614399 
L 202.974248 73.339969 
L 207.722188 71.300874 
L 212.766875 69.379639 
L 217.811561 67.695823 
L 223.152994 66.152175 
L 228.791173 64.764744 
L 234.726099 63.541437 
L 241.254517 62.435818 
L 248.376427 61.464309 
L 256.388576 60.597515 
L 266.181203 59.770371 
L 278.644547 58.954381 
L 295.262338 58.103038 
L 316.034577 57.268078 
L 337.697055 56.618144 
L 359.359532 56.189712 
L 362.920488 56.140201 
L 362.920488 56.140201 
" clip-path="url(#p0e948d582d)" style="fill: none; stroke: #1f77b4; stroke-width: 2; stroke-linecap: square"/>
   </g>
   <g id="line2d_17">
    <path d="M 66.470963 176.758226 
L 71.812396 175.224111 
L 76.857083 173.546076 
L 81.605023 171.740001 
L 86.352963 169.692216 
L 90.804157 167.534611 
L 95.255351 165.131063 
L 99.706545 162.468526 
L 104.157739 159.537378 
L 108.608934 156.332546 
L 113.060128 152.854627 
L 117.808068 148.852215 
L 122.852755 144.289104 
L 128.194187 139.147247 
L 134.425859 132.821393 
L 142.734755 124.035964 
L 157.275322 108.628523 
L 163.506994 102.375899 
L 168.848427 97.31654 
L 173.893113 92.844452 
L 178.641053 88.936189 
L 183.092248 85.551413 
L 187.543442 82.442185 
L 191.994636 79.607119 
L 196.44583 77.039435 
L 200.897024 74.728104 
L 205.348218 72.658973 
L 210.096158 70.700523 
L 214.844099 68.977931 
L 219.888785 67.38177 
L 225.230218 65.926509 
L 230.868397 64.62065 
L 237.100069 63.414647 
L 243.628487 62.377431 
L 251.047144 61.430855 
L 259.356039 60.606196 
L 268.85192 59.899632 
L 279.831532 59.315155 
L 293.185114 58.839038 
L 310.099651 58.473511 
L 332.949114 58.21759 
L 362.920488 58.077456 
L 362.920488 58.077456 
" clip-path="url(#p0e948d582d)" style="fill: none; stroke-dasharray: 7.4,3.2; stroke-dashoffset: 0; stroke: #ff7f0e; stroke-width: 2"/>
   </g>
   <g id="patch_3">
    <path d="M 51.648487 193.536948 
L 51.648487 11.028781 
" style="fill: none; stroke: #000000; stroke-width: 0.8; stroke-linejoin: miter; stroke-linecap: square"/>
   </g>
   <g id="patch_4">
    <path d="M 377.742964 193.536948 
L 377.742964 11.028781 
" style="fill: none; stroke: #000000; stroke-width: 0.8; stroke-linejoin: miter; stroke-linecap: square"/>
   </g>
   <g id="patch_5">
    <path d="M 51.648487 193.536948 
L 377.742964 193.536948 
" style="fill: none; stroke: #000000; stroke-width: 0.8; stroke-linejoin: miter; stroke-linecap: square"/>
   </g>
   <g id="patch_6">
    <path d="M 51.648487 11.028781 
L 377.742964 11.028781 
" style="fill: none; stroke: #000000; stroke-width: 0.8; stroke-linejoin: miter; stroke-linecap: square"/>
   </g>
   <g id="legend_1">
    <g id="line2d_18">
     <path d="M 310.22613 102.231554 
L 324.22613 102.231554 
L 338.22613 102.231554 
" style="fill: none; stroke: #1f77b4; stroke-width: 2; stroke-linecap: square"/>
    </g>
    <g id="text_18">
     <!-- $\hat{P}$ -->
     <g transform="translate(349.42613 107.131554) scale(0.14 -0.14)">
      <defs>
       <path id="CMR17-5e" d="M 1466 4421 
L 678 3555 
L 755 3478 
L 1466 4166 
L 2176 3478 
L 2253 3555 
L 1466 4421 
z
" transform="scale(0.015625)"/>
       <path id="CMMI12-50" d="M 1894 2023 
L 2970 2023 
C 3853 2023 4736 2673 4736 3401 
C 4736 3898 4314 4352 3507 4352 
L 1530 4352 
C 1408 4352 1350 4352 1350 4231 
C 1350 4167 1408 4167 1504 4167 
C 1894 4167 1894 4116 1894 4046 
C 1894 4034 1894 3995 1869 3899 
L 1005 472 
C 947 249 934 185 486 185 
C 365 185 301 185 301 70 
C 301 0 358 0 397 0 
C 518 0 646 0 768 0 
L 1517 0 
C 1638 0 1773 0 1894 0 
C 1946 0 2016 0 2016 121 
C 2016 185 1958 185 1862 185 
C 1478 185 1472 230 1472 293 
C 1472 325 1478 369 1485 401 
L 1894 2023 
z
M 2355 3930 
C 2413 4167 2438 4167 2688 4167 
L 3322 4167 
C 3802 4167 4198 4013 4198 3535 
C 4198 3369 4115 2827 3821 2534 
C 3712 2419 3405 2176 2822 2176 
L 1920 2176 
L 2355 3930 
z
" transform="scale(0.015625)"/>
      </defs>
      <use xlink:href="#CMR17-5e" transform="translate(23.496833 25.189733) scale(0.996264)"/>
      <use xlink:href="#CMMI12-50" transform="scale(0.996264)"/>
     </g>
    </g>
    <g id="line2d_19">
     <path d="M 310.22613 121.743582 
L 324.22613 121.743582 
L 338.22613 121.743582 
" style="fill: none; stroke-dasharray: 7.4,3.2; stroke-dashoffset: 0; stroke: #ff7f0e; stroke-width: 2"/>
    </g>
    <g id="text_19">
     <!-- $P^*$ -->
     <g transform="translate(349.42613 126.643582) scale(0.14 -0.14)">
      <defs>
       <path id="CMSY10-3" d="M 1760 2719 
C 1766 2808 1766 2962 1600 2962 
C 1498 2962 1414 2879 1434 2795 
L 1434 2712 
L 1523 1720 
L 704 2316 
C 646 2348 634 2360 589 2360 
C 499 2360 416 2271 416 2181 
C 416 2079 480 2053 544 2021 
L 1453 1586 
L 570 1158 
C 467 1107 416 1081 416 985 
C 416 889 499 806 589 806 
C 634 806 646 806 806 928 
L 1523 1446 
L 1427 371 
C 1427 236 1542 204 1594 204 
C 1670 204 1766 248 1766 371 
L 1670 1446 
L 2490 851 
C 2547 819 2560 806 2605 806 
C 2694 806 2778 896 2778 985 
C 2778 1081 2720 1113 2643 1152 
C 2259 1343 2246 1343 1741 1580 
L 2624 2008 
C 2726 2060 2778 2085 2778 2181 
C 2778 2277 2694 2360 2605 2360 
C 2560 2360 2547 2360 2387 2239 
L 1670 1720 
L 1760 2719 
z
" transform="scale(0.015625)"/>
      </defs>
      <use xlink:href="#CMMI12-50" transform="scale(0.996264)"/>
      <use xlink:href="#CMSY10-3" transform="translate(76.425821 36.153639) scale(0.697382)"/>
     </g>
    </g>
    <g id="PathCollection_3">
     <g>
      <use xlink:href="#m63d4e2bc98" x="324.22613" y="142.480611" style="stroke: #000000; stroke-width: 1.5"/>
     </g>
    </g>
    <g id="text_20">
     <!-- $u$ -->
     <g transform="translate(349.42613 146.155611) scale(0.14 -0.14)">
      <defs>
       <path id="CMMI12-75" d="M 2182 370 
C 2266 13 2573 -64 2726 -64 
C 2931 -64 3085 70 3187 287 
C 3296 517 3379 894 3379 913 
C 3379 945 3354 971 3315 971 
C 3258 971 3251 939 3226 843 
C 3110 402 2995 64 2739 64 
C 2547 64 2547 275 2547 358 
C 2547 505 2566 568 2630 837 
C 2675 1009 2720 1181 2758 1360 
L 3021 2401 
C 3066 2561 3066 2574 3066 2593 
C 3066 2689 2989 2753 2893 2753 
C 2707 2753 2662 2593 2624 2433 
C 2560 2184 2214 811 2170 588 
C 2163 588 1914 64 1446 64 
C 1114 64 1050 351 1050 588 
C 1050 952 1229 1462 1395 1890 
C 1472 2095 1504 2178 1504 2305 
C 1504 2580 1306 2816 998 2816 
C 410 2816 173 1890 173 1839 
C 173 1814 198 1782 243 1782 
C 301 1782 307 1807 333 1896 
C 486 2441 736 2682 979 2682 
C 1043 2682 1146 2682 1146 2478 
C 1146 2312 1075 2127 979 1884 
C 698 1124 666 881 666 690 
C 666 38 1158 -64 1421 -64 
C 1830 -64 2054 217 2182 370 
z
" transform="scale(0.015625)"/>
      </defs>
      <use xlink:href="#CMMI12-75" transform="scale(0.996264)"/>
     </g>
    </g>
    <g id="PathCollection_4">
     <g>
      <use xlink:href="#mbefdd7f264" x="324.22613" y="161.992639" style="fill: #008000; stroke: #008000; stroke-width: 1.5"/>
     </g>
    </g>
    <g id="text_21">
     <!-- $f$ -->
     <g transform="translate(349.42613 165.667639) scale(0.14 -0.14)">
      <defs>
       <path id="CMMI12-66" d="M 2854 2566 
C 2982 2566 3034 2566 3034 2688 
C 3034 2752 2982 2752 2867 2752 
L 2349 2752 
C 2470 3429 2560 3897 2611 4107 
C 2650 4265 2784 4416 2950 4416 
C 3085 4416 3219 4358 3283 4298 
C 3034 4272 2957 4082 2957 3969 
C 2957 3837 3053 3759 3174 3759 
C 3302 3759 3494 3870 3494 4119 
C 3494 4393 3226 4544 2944 4544 
C 2669 4544 2400 4334 2272 4078 
C 2157 3848 2093 3611 1946 2752 
L 1517 2752 
C 1395 2752 1331 2752 1331 2637 
C 1331 2566 1370 2566 1498 2566 
L 1907 2566 
C 1792 1976 1530 542 1382 -137 
C 1274 -689 1178 -1152 858 -1152 
C 838 -1152 653 -1152 538 -1031 
C 864 -1005 864 -726 864 -720 
C 864 -593 768 -517 646 -517 
C 518 -517 326 -625 326 -867 
C 326 -1140 608 -1280 858 -1280 
C 1510 -1280 1779 -118 1850 199 
C 1965 688 2278 2376 2310 2566 
L 2854 2566 
z
" transform="scale(0.015625)"/>
      </defs>
      <use xlink:href="#CMMI12-66" transform="scale(0.996264)"/>
     </g>
    </g>
   </g>
  </g>
 </g>
 <defs>
  <clipPath id="p0e948d582d">
   <rect x="51.648487" y="11.028781" width="326.094477" height="182.508167"/>
  </clipPath>
 </defs>
</svg>
