<?xml version="1.0" encoding="utf-8" standalone="no"?>
<!DOCTYPE svg PUBLIC "-//W3C//DTD SVG 1.1//EN"
  "http://www.w3.org/Graphics/SVG/1.1/DTD/svg11.dtd">
<svg xmlns:xlink="http://www.w3.org/1999/xlink" width="388.542964pt" height="240.132758pt" viewBox="0 0 388.542964 240.132758" xmlns="http://www.w3.org/2000/svg" version="1.1">
 <metadata>
  <rdf:RDF xmlns:dc="http://purl.org/dc/elements/1.1/" xmlns:cc="http://creativecommons.org/ns#" xmlns:rdf="http://www.w3.org/1999/02/22-rdf-syntax-ns#">
   <cc:Work>
    <dc:type rdf:resource="http://purl.org/dc/dcmitype/StillImage"/>
    <dc:date>2024-12-30T15:19:02.679795</dc:date>
    <dc:format>image/svg+xml</dc:format>
    <dc:creator>
     <cc:Agent>
      <dc:title>Matplotlib v3.7.5, https://matplotlib.org/</dc:title>
     </cc:Agent>
    </dc:creator>
   </cc:Work>
  </rdf:RDF>
 </metadata>
 <defs>
  <style type="text/css">*{stroke-linejoin: round; stroke-linecap: butt}</style>
 </defs>
 <g id="figure_1">
  <g id="patch_1">
   <path d="M 0 240.132758 
L 388.542964 240.132758 
L 388.542964 0 
L 0 0 
z
" style="fill: #ffffff"/>
  </g>
  <g id="axes_1">
   <g id="patch_2">
    <path d="M 60.252909 193.536948 
L 371.722431 193.536948 
L 371.722431 15.642938 
L 60.252909 15.642938 
z
" style="fill: #ffffff"/>
   </g>
   <g id="PathCollection_1">
    <defs>
     <path id="m0de2c597bb" d="M -3.535534 3.535534 
L 3.535534 -3.535534 
M -3.535534 -3.535534 
L 3.535534 3.535534 
" style="stroke: #000000; stroke-width: 1.5"/>
    </defs>
    <g clip-path="url(#pc629d5069a)">
     <use xlink:href="#m0de2c597bb" x="74.410614" y="113.132652" style="stroke: #000000; stroke-width: 1.5"/>
     <use xlink:href="#m0de2c597bb" x="75.109773" y="101.738166" style="stroke: #000000; stroke-width: 1.5"/>
     <use xlink:href="#m0de2c597bb" x="91.654682" y="106.176484" style="stroke: #000000; stroke-width: 1.5"/>
     <use xlink:href="#m0de2c597bb" x="92.89944" y="159.49166" style="stroke: #000000; stroke-width: 1.5"/>
     <use xlink:href="#m0de2c597bb" x="90.537851" y="110.322052" style="stroke: #000000; stroke-width: 1.5"/>
     <use xlink:href="#m0de2c597bb" x="91.318567" y="88.706197" style="stroke: #000000; stroke-width: 1.5"/>
     <use xlink:href="#m0de2c597bb" x="113.720859" y="142.157129" style="stroke: #000000; stroke-width: 1.5"/>
     <use xlink:href="#m0de2c597bb" x="110.242354" y="56.611065" style="stroke: #000000; stroke-width: 1.5"/>
     <use xlink:href="#m0de2c597bb" x="113.638833" y="73.077233" style="stroke: #000000; stroke-width: 1.5"/>
     <use xlink:href="#m0de2c597bb" x="124.77585" y="115.72532" style="stroke: #000000; stroke-width: 1.5"/>
     <use xlink:href="#m0de2c597bb" x="125.43544" y="120.801021" style="stroke: #000000; stroke-width: 1.5"/>
     <use xlink:href="#m0de2c597bb" x="125.266277" y="-1" style="stroke: #000000; stroke-width: 1.5"/>
     <use xlink:href="#m0de2c597bb" x="128.942171" y="-1" style="stroke: #000000; stroke-width: 1.5"/>
     <use xlink:href="#m0de2c597bb" x="134.726889" y="333.674076" style="stroke: #000000; stroke-width: 1.5"/>
     <use xlink:href="#m0de2c597bb" x="128.682837" y="-1" style="stroke: #000000; stroke-width: 1.5"/>
     <use xlink:href="#m0de2c597bb" x="128.755642" y="-1" style="stroke: #000000; stroke-width: 1.5"/>
     <use xlink:href="#m0de2c597bb" x="141.982305" y="95.900696" style="stroke: #000000; stroke-width: 1.5"/>
     <use xlink:href="#m0de2c597bb" x="149.766048" y="112.981047" style="stroke: #000000; stroke-width: 1.5"/>
     <use xlink:href="#m0de2c597bb" x="150.490662" y="85.591693" style="stroke: #000000; stroke-width: 1.5"/>
     <use xlink:href="#m0de2c597bb" x="153.152378" y="48.676446" style="stroke: #000000; stroke-width: 1.5"/>
     <use xlink:href="#m0de2c597bb" x="166.594362" y="91.981505" style="stroke: #000000; stroke-width: 1.5"/>
     <use xlink:href="#m0de2c597bb" x="175.095462" y="38.441561" style="stroke: #000000; stroke-width: 1.5"/>
     <use xlink:href="#m0de2c597bb" x="188.335654" y="113.393871" style="stroke: #000000; stroke-width: 1.5"/>
     <use xlink:href="#m0de2c597bb" x="189.427819" y="124.508787" style="stroke: #000000; stroke-width: 1.5"/>
     <use xlink:href="#m0de2c597bb" x="187.207735" y="143.752861" style="stroke: #000000; stroke-width: 1.5"/>
     <use xlink:href="#m0de2c597bb" x="184.986666" y="86.854222" style="stroke: #000000; stroke-width: 1.5"/>
     <use xlink:href="#m0de2c597bb" x="196.061469" y="47.770314" style="stroke: #000000; stroke-width: 1.5"/>
     <use xlink:href="#m0de2c597bb" x="219.409159" y="128.542186" style="stroke: #000000; stroke-width: 1.5"/>
     <use xlink:href="#m0de2c597bb" x="218.465067" y="138.578972" style="stroke: #000000; stroke-width: 1.5"/>
     <use xlink:href="#m0de2c597bb" x="212.509376" y="71.426136" style="stroke: #000000; stroke-width: 1.5"/>
     <use xlink:href="#m0de2c597bb" x="258.720812" y="34.340716" style="stroke: #000000; stroke-width: 1.5"/>
     <use xlink:href="#m0de2c597bb" x="270.3281" y="56.448589" style="stroke: #000000; stroke-width: 1.5"/>
     <use xlink:href="#m0de2c597bb" x="287.35596" y="105.7198" style="stroke: #000000; stroke-width: 1.5"/>
     <use xlink:href="#m0de2c597bb" x="289.947716" y="414.052867" style="stroke: #000000; stroke-width: 1.5"/>
     <use xlink:href="#m0de2c597bb" x="256.729746" y="42.629668" style="stroke: #000000; stroke-width: 1.5"/>
     <use xlink:href="#m0de2c597bb" x="275.535227" y="185.641693" style="stroke: #000000; stroke-width: 1.5"/>
     <use xlink:href="#m0de2c597bb" x="271.94441" y="-1" style="stroke: #000000; stroke-width: 1.5"/>
     <use xlink:href="#m0de2c597bb" x="273.610892" y="-1" style="stroke: #000000; stroke-width: 1.5"/>
     <use xlink:href="#m0de2c597bb" x="286.315313" y="80.4124" style="stroke: #000000; stroke-width: 1.5"/>
     <use xlink:href="#m0de2c597bb" x="299.733619" y="249.977252" style="stroke: #000000; stroke-width: 1.5"/>
     <use xlink:href="#m0de2c597bb" x="284.881765" y="332.441687" style="stroke: #000000; stroke-width: 1.5"/>
     <use xlink:href="#m0de2c597bb" x="268.806148" y="-1" style="stroke: #000000; stroke-width: 1.5"/>
     <use xlink:href="#m0de2c597bb" x="286.546209" y="-1" style="stroke: #000000; stroke-width: 1.5"/>
     <use xlink:href="#m0de2c597bb" x="300.589798" y="89.588779" style="stroke: #000000; stroke-width: 1.5"/>
     <use xlink:href="#m0de2c597bb" x="309.8944" y="457.967281" style="stroke: #000000; stroke-width: 1.5"/>
     <use xlink:href="#m0de2c597bb" x="281.294191" y="66.162016" style="stroke: #000000; stroke-width: 1.5"/>
     <use xlink:href="#m0de2c597bb" x="287.018044" y="62.260439" style="stroke: #000000; stroke-width: 1.5"/>
     <use xlink:href="#m0de2c597bb" x="300.879357" y="116.565818" style="stroke: #000000; stroke-width: 1.5"/>
     <use xlink:href="#m0de2c597bb" x="301.595177" y="65.171531" style="stroke: #000000; stroke-width: 1.5"/>
     <use xlink:href="#m0de2c597bb" x="320.558033" y="109.87427" style="stroke: #000000; stroke-width: 1.5"/>
     <use xlink:href="#m0de2c597bb" x="324.089099" y="126.095056" style="stroke: #000000; stroke-width: 1.5"/>
     <use xlink:href="#m0de2c597bb" x="322.119368" y="106.40473" style="stroke: #000000; stroke-width: 1.5"/>
     <use xlink:href="#m0de2c597bb" x="329.129818" y="195.741587" style="stroke: #000000; stroke-width: 1.5"/>
     <use xlink:href="#m0de2c597bb" x="326.934597" y="175.269087" style="stroke: #000000; stroke-width: 1.5"/>
     <use xlink:href="#m0de2c597bb" x="320.445343" y="76.923283" style="stroke: #000000; stroke-width: 1.5"/>
     <use xlink:href="#m0de2c597bb" x="323.834796" y="96.532685" style="stroke: #000000; stroke-width: 1.5"/>
     <use xlink:href="#m0de2c597bb" x="341.84777" y="733.013562" style="stroke: #000000; stroke-width: 1.5"/>
     <use xlink:href="#m0de2c597bb" x="307.38705" y="30.469148" style="stroke: #000000; stroke-width: 1.5"/>
     <use xlink:href="#m0de2c597bb" x="338.974457" y="114.535052" style="stroke: #000000; stroke-width: 1.5"/>
     <use xlink:href="#m0de2c597bb" x="341.215618" y="241.713924" style="stroke: #000000; stroke-width: 1.5"/>
     <use xlink:href="#m0de2c597bb" x="334.252176" y="122.59316" style="stroke: #000000; stroke-width: 1.5"/>
     <use xlink:href="#m0de2c597bb" x="332.621773" y="131.903929" style="stroke: #000000; stroke-width: 1.5"/>
     <use xlink:href="#m0de2c597bb" x="329.760361" y="93.178115" style="stroke: #000000; stroke-width: 1.5"/>
     <use xlink:href="#m0de2c597bb" x="333.809993" y="395.575532" style="stroke: #000000; stroke-width: 1.5"/>
     <use xlink:href="#m0de2c597bb" x="326.022575" y="122.084754" style="stroke: #000000; stroke-width: 1.5"/>
     <use xlink:href="#m0de2c597bb" x="324.816654" y="179.157198" style="stroke: #000000; stroke-width: 1.5"/>
     <use xlink:href="#m0de2c597bb" x="312.69882" y="73.440934" style="stroke: #000000; stroke-width: 1.5"/>
     <use xlink:href="#m0de2c597bb" x="333.562383" y="292.959066" style="stroke: #000000; stroke-width: 1.5"/>
     <use xlink:href="#m0de2c597bb" x="329.492378" y="-1" style="stroke: #000000; stroke-width: 1.5"/>
     <use xlink:href="#m0de2c597bb" x="339.254078" y="-1" style="stroke: #000000; stroke-width: 1.5"/>
     <use xlink:href="#m0de2c597bb" x="343.706294" y="166.984923" style="stroke: #000000; stroke-width: 1.5"/>
     <use xlink:href="#m0de2c597bb" x="331.145271" y="-1" style="stroke: #000000; stroke-width: 1.5"/>
     <use xlink:href="#m0de2c597bb" x="327.895853" y="-1" style="stroke: #000000; stroke-width: 1.5"/>
     <use xlink:href="#m0de2c597bb" x="342.094892" y="311.151759" style="stroke: #000000; stroke-width: 1.5"/>
     <use xlink:href="#m0de2c597bb" x="326.542788" y="-1" style="stroke: #000000; stroke-width: 1.5"/>
     <use xlink:href="#m0de2c597bb" x="324.671446" y="-1" style="stroke: #000000; stroke-width: 1.5"/>
     <use xlink:href="#m0de2c597bb" x="335.929714" y="245.545289" style="stroke: #000000; stroke-width: 1.5"/>
     <use xlink:href="#m0de2c597bb" x="307.218206" y="85.628221" style="stroke: #000000; stroke-width: 1.5"/>
     <use xlink:href="#m0de2c597bb" x="328.487406" y="153.954426" style="stroke: #000000; stroke-width: 1.5"/>
     <use xlink:href="#m0de2c597bb" x="316.177335" y="103.336253" style="stroke: #000000; stroke-width: 1.5"/>
     <use xlink:href="#m0de2c597bb" x="325.944113" y="76.937692" style="stroke: #000000; stroke-width: 1.5"/>
     <use xlink:href="#m0de2c597bb" x="339.497086" y="172.395571" style="stroke: #000000; stroke-width: 1.5"/>
     <use xlink:href="#m0de2c597bb" x="329.184123" y="-1" style="stroke: #000000; stroke-width: 1.5"/>
     <use xlink:href="#m0de2c597bb" x="328.922147" y="-1" style="stroke: #000000; stroke-width: 1.5"/>
     <use xlink:href="#m0de2c597bb" x="352.369636" y="402.610138" style="stroke: #000000; stroke-width: 1.5"/>
     <use xlink:href="#m0de2c597bb" x="312.448253" y="107.514407" style="stroke: #000000; stroke-width: 1.5"/>
     <use xlink:href="#m0de2c597bb" x="316.828233" y="54.569379" style="stroke: #000000; stroke-width: 1.5"/>
     <use xlink:href="#m0de2c597bb" x="339.648098" y="268.654656" style="stroke: #000000; stroke-width: 1.5"/>
     <use xlink:href="#m0de2c597bb" x="309.998645" y="106.412807" style="stroke: #000000; stroke-width: 1.5"/>
     <use xlink:href="#m0de2c597bb" x="310.711421" y="-1" style="stroke: #000000; stroke-width: 1.5"/>
     <use xlink:href="#m0de2c597bb" x="326.075165" y="-1" style="stroke: #000000; stroke-width: 1.5"/>
     <use xlink:href="#m0de2c597bb" x="333.595356" y="142.223828" style="stroke: #000000; stroke-width: 1.5"/>
     <use xlink:href="#m0de2c597bb" x="323.829411" y="81.458532" style="stroke: #000000; stroke-width: 1.5"/>
     <use xlink:href="#m0de2c597bb" x="331.852629" y="163.103761" style="stroke: #000000; stroke-width: 1.5"/>
     <use xlink:href="#m0de2c597bb" x="329.288876" y="124.743372" style="stroke: #000000; stroke-width: 1.5"/>
     <use xlink:href="#m0de2c597bb" x="326.996581" y="75.689769" style="stroke: #000000; stroke-width: 1.5"/>
     <use xlink:href="#m0de2c597bb" x="345.625965" y="260.204996" style="stroke: #000000; stroke-width: 1.5"/>
     <use xlink:href="#m0de2c597bb" x="320.2273" y="-1" style="stroke: #000000; stroke-width: 1.5"/>
     <use xlink:href="#m0de2c597bb" x="321.4845" y="-1" style="stroke: #000000; stroke-width: 1.5"/>
     <use xlink:href="#m0de2c597bb" x="346.033782" y="169.086573" style="stroke: #000000; stroke-width: 1.5"/>
     <use xlink:href="#m0de2c597bb" x="327.192874" y="85.36251" style="stroke: #000000; stroke-width: 1.5"/>
     <use xlink:href="#m0de2c597bb" x="330.043378" y="-1" style="stroke: #000000; stroke-width: 1.5"/>
     <use xlink:href="#m0de2c597bb" x="350.520321" y="-1" style="stroke: #000000; stroke-width: 1.5"/>
     <use xlink:href="#m0de2c597bb" x="357.564725" y="145.226786" style="stroke: #000000; stroke-width: 1.5"/>
     <use xlink:href="#m0de2c597bb" x="341.151063" y="229.939101" style="stroke: #000000; stroke-width: 1.5"/>
     <use xlink:href="#m0de2c597bb" x="322.237795" y="109.849715" style="stroke: #000000; stroke-width: 1.5"/>
     <use xlink:href="#m0de2c597bb" x="322.349608" y="-1" style="stroke: #000000; stroke-width: 1.5"/>
     <use xlink:href="#m0de2c597bb" x="348.819927" y="-1" style="stroke: #000000; stroke-width: 1.5"/>
     <use xlink:href="#m0de2c597bb" x="352.395962" y="128.116408" style="stroke: #000000; stroke-width: 1.5"/>
     <use xlink:href="#m0de2c597bb" x="343.00971" y="197.28995" style="stroke: #000000; stroke-width: 1.5"/>
     <use xlink:href="#m0de2c597bb" x="298.238705" y="84.365382" style="stroke: #000000; stroke-width: 1.5"/>
    </g>
   </g>
   <g id="PathCollection_2">
    <defs>
     <path id="m7c97a05c47" d="M 0 1.322876 
C 0.350831 1.322876 0.68734 1.183489 0.935414 0.935414 
C 1.183489 0.68734 1.322876 0.350831 1.322876 0 
C 1.322876 -0.350831 1.183489 -0.68734 0.935414 -0.935414 
C 0.68734 -1.183489 0.350831 -1.322876 0 -1.322876 
C -0.350831 -1.322876 -0.68734 -1.183489 -0.935414 -0.935414 
C -1.183489 -0.68734 -1.322876 -0.350831 -1.322876 0 
C -1.322876 0.350831 -1.183489 0.68734 -0.935414 0.935414 
C -0.68734 1.183489 -0.350831 1.322876 0 1.322876 
z
" style="stroke: #1f77b4"/>
    </defs>
    <g clip-path="url(#pc629d5069a)">
     <use xlink:href="#m7c97a05c47" x="74.410614" y="87.856055" style="fill: #1f77b4; stroke: #1f77b4"/>
     <use xlink:href="#m7c97a05c47" x="75.109773" y="87.784953" style="fill: #1f77b4; stroke: #1f77b4"/>
     <use xlink:href="#m7c97a05c47" x="91.654682" y="86.007141" style="fill: #1f77b4; stroke: #1f77b4"/>
     <use xlink:href="#m7c97a05c47" x="92.89944" y="85.86678" style="fill: #1f77b4; stroke: #1f77b4"/>
     <use xlink:href="#m7c97a05c47" x="90.537851" y="86.132374" style="fill: #1f77b4; stroke: #1f77b4"/>
     <use xlink:href="#m7c97a05c47" x="91.318567" y="86.044901" style="fill: #1f77b4; stroke: #1f77b4"/>
     <use xlink:href="#m7c97a05c47" x="113.720859" y="83.423414" style="fill: #1f77b4; stroke: #1f77b4"/>
     <use xlink:href="#m7c97a05c47" x="110.242354" y="83.841131" style="fill: #1f77b4; stroke: #1f77b4"/>
     <use xlink:href="#m7c97a05c47" x="113.638833" y="83.433283" style="fill: #1f77b4; stroke: #1f77b4"/>
     <use xlink:href="#m7c97a05c47" x="124.77585" y="82.085693" style="fill: #1f77b4; stroke: #1f77b4"/>
     <use xlink:href="#m7c97a05c47" x="125.43544" y="82.00576" style="fill: #1f77b4; stroke: #1f77b4"/>
     <use xlink:href="#m7c97a05c47" x="124.945105" y="82.065179" style="fill: #1f77b4; stroke: #1f77b4"/>
     <use xlink:href="#m7c97a05c47" x="134.726889" y="80.885139" style="fill: #1f77b4; stroke: #1f77b4"/>
     <use xlink:href="#m7c97a05c47" x="128.671735" y="81.614055" style="fill: #1f77b4; stroke: #1f77b4"/>
     <use xlink:href="#m7c97a05c47" x="141.982305" y="80.024337" style="fill: #1f77b4; stroke: #1f77b4"/>
     <use xlink:href="#m7c97a05c47" x="149.766048" y="79.125518" style="fill: #1f77b4; stroke: #1f77b4"/>
     <use xlink:href="#m7c97a05c47" x="150.490662" y="79.043532" style="fill: #1f77b4; stroke: #1f77b4"/>
     <use xlink:href="#m7c97a05c47" x="153.152378" y="78.745258" style="fill: #1f77b4; stroke: #1f77b4"/>
     <use xlink:href="#m7c97a05c47" x="166.594362" y="77.324308" style="fill: #1f77b4; stroke: #1f77b4"/>
     <use xlink:href="#m7c97a05c47" x="175.095462" y="76.520698" style="fill: #1f77b4; stroke: #1f77b4"/>
     <use xlink:href="#m7c97a05c47" x="188.335654" y="75.467328" style="fill: #1f77b4; stroke: #1f77b4"/>
     <use xlink:href="#m7c97a05c47" x="189.427819" y="75.393155" style="fill: #1f77b4; stroke: #1f77b4"/>
     <use xlink:href="#m7c97a05c47" x="187.207735" y="75.546124" style="fill: #1f77b4; stroke: #1f77b4"/>
     <use xlink:href="#m7c97a05c47" x="184.986666" y="75.707673" style="fill: #1f77b4; stroke: #1f77b4"/>
     <use xlink:href="#m7c97a05c47" x="196.061469" y="74.990365" style="fill: #1f77b4; stroke: #1f77b4"/>
     <use xlink:href="#m7c97a05c47" x="219.409159" y="74.347192" style="fill: #1f77b4; stroke: #1f77b4"/>
     <use xlink:href="#m7c97a05c47" x="218.465067" y="74.346392" style="fill: #1f77b4; stroke: #1f77b4"/>
     <use xlink:href="#m7c97a05c47" x="212.509376" y="74.397099" style="fill: #1f77b4; stroke: #1f77b4"/>
     <use xlink:href="#m7c97a05c47" x="258.720812" y="76.92907" style="fill: #1f77b4; stroke: #1f77b4"/>
     <use xlink:href="#m7c97a05c47" x="270.3281" y="78.853979" style="fill: #1f77b4; stroke: #1f77b4"/>
     <use xlink:href="#m7c97a05c47" x="287.35596" y="82.997587" style="fill: #1f77b4; stroke: #1f77b4"/>
     <use xlink:href="#m7c97a05c47" x="289.947716" y="83.792055" style="fill: #1f77b4; stroke: #1f77b4"/>
     <use xlink:href="#m7c97a05c47" x="256.729746" y="76.660781" style="fill: #1f77b4; stroke: #1f77b4"/>
     <use xlink:href="#m7c97a05c47" x="275.535227" y="79.9385" style="fill: #1f77b4; stroke: #1f77b4"/>
     <use xlink:href="#m7c97a05c47" x="271.710061" y="79.127498" style="fill: #1f77b4; stroke: #1f77b4"/>
     <use xlink:href="#m7c97a05c47" x="286.315313" y="82.691851" style="fill: #1f77b4; stroke: #1f77b4"/>
     <use xlink:href="#m7c97a05c47" x="299.733619" y="87.243436" style="fill: #1f77b4; stroke: #1f77b4"/>
     <use xlink:href="#m7c97a05c47" x="284.881765" y="82.282805" style="fill: #1f77b4; stroke: #1f77b4"/>
     <use xlink:href="#m7c97a05c47" x="260.799098" y="77.22754" style="fill: #1f77b4; stroke: #1f77b4"/>
     <use xlink:href="#m7c97a05c47" x="300.589798" y="87.581014" style="fill: #1f77b4; stroke: #1f77b4"/>
     <use xlink:href="#m7c97a05c47" x="309.8944" y="91.628989" style="fill: #1f77b4; stroke: #1f77b4"/>
     <use xlink:href="#m7c97a05c47" x="281.294191" y="81.318682" style="fill: #1f77b4; stroke: #1f77b4"/>
     <use xlink:href="#m7c97a05c47" x="287.018044" y="82.897487" style="fill: #1f77b4; stroke: #1f77b4"/>
     <use xlink:href="#m7c97a05c47" x="300.879357" y="87.696511" style="fill: #1f77b4; stroke: #1f77b4"/>
     <use xlink:href="#m7c97a05c47" x="301.595177" y="87.984935" style="fill: #1f77b4; stroke: #1f77b4"/>
     <use xlink:href="#m7c97a05c47" x="320.558033" y="97.056996" style="fill: #1f77b4; stroke: #1f77b4"/>
     <use xlink:href="#m7c97a05c47" x="324.089099" y="98.997193" style="fill: #1f77b4; stroke: #1f77b4"/>
     <use xlink:href="#m7c97a05c47" x="322.119368" y="97.90827" style="fill: #1f77b4; stroke: #1f77b4"/>
     <use xlink:href="#m7c97a05c47" x="329.129818" y="101.837977" style="fill: #1f77b4; stroke: #1f77b4"/>
     <use xlink:href="#m7c97a05c47" x="326.934597" y="100.593566" style="fill: #1f77b4; stroke: #1f77b4"/>
     <use xlink:href="#m7c97a05c47" x="320.445343" y="96.996007" style="fill: #1f77b4; stroke: #1f77b4"/>
     <use xlink:href="#m7c97a05c47" x="323.834796" y="98.855768" style="fill: #1f77b4; stroke: #1f77b4"/>
     <use xlink:href="#m7c97a05c47" x="341.84777" y="108.992584" style="fill: #1f77b4; stroke: #1f77b4"/>
     <use xlink:href="#m7c97a05c47" x="307.38705" y="90.470344" style="fill: #1f77b4; stroke: #1f77b4"/>
     <use xlink:href="#m7c97a05c47" x="338.974457" y="107.41176" style="fill: #1f77b4; stroke: #1f77b4"/>
     <use xlink:href="#m7c97a05c47" x="341.215618" y="108.647848" style="fill: #1f77b4; stroke: #1f77b4"/>
     <use xlink:href="#m7c97a05c47" x="334.252176" y="104.754145" style="fill: #1f77b4; stroke: #1f77b4"/>
     <use xlink:href="#m7c97a05c47" x="332.621773" y="103.826764" style="fill: #1f77b4; stroke: #1f77b4"/>
     <use xlink:href="#m7c97a05c47" x="329.760361" y="102.196673" style="fill: #1f77b4; stroke: #1f77b4"/>
     <use xlink:href="#m7c97a05c47" x="333.809993" y="104.50291" style="fill: #1f77b4; stroke: #1f77b4"/>
     <use xlink:href="#m7c97a05c47" x="326.022575" y="100.079424" style="fill: #1f77b4; stroke: #1f77b4"/>
     <use xlink:href="#m7c97a05c47" x="324.816654" y="99.403055" style="fill: #1f77b4; stroke: #1f77b4"/>
     <use xlink:href="#m7c97a05c47" x="312.69882" y="92.981692" style="fill: #1f77b4; stroke: #1f77b4"/>
     <use xlink:href="#m7c97a05c47" x="333.562383" y="104.362117" style="fill: #1f77b4; stroke: #1f77b4"/>
     <use xlink:href="#m7c97a05c47" x="318.815054" y="96.121072" style="fill: #1f77b4; stroke: #1f77b4"/>
     <use xlink:href="#m7c97a05c47" x="343.706294" y="109.994746" style="fill: #1f77b4; stroke: #1f77b4"/>
     <use xlink:href="#m7c97a05c47" x="322.84898" y="98.309816" style="fill: #1f77b4; stroke: #1f77b4"/>
     <use xlink:href="#m7c97a05c47" x="342.094892" y="109.126853" style="fill: #1f77b4; stroke: #1f77b4"/>
     <use xlink:href="#m7c97a05c47" x="304.120699" y="89.035531" style="fill: #1f77b4; stroke: #1f77b4"/>
     <use xlink:href="#m7c97a05c47" x="335.929714" y="105.704441" style="fill: #1f77b4; stroke: #1f77b4"/>
     <use xlink:href="#m7c97a05c47" x="307.218206" y="90.39409" style="fill: #1f77b4; stroke: #1f77b4"/>
     <use xlink:href="#m7c97a05c47" x="328.487406" y="101.472998" style="fill: #1f77b4; stroke: #1f77b4"/>
     <use xlink:href="#m7c97a05c47" x="316.177335" y="94.737549" style="fill: #1f77b4; stroke: #1f77b4"/>
     <use xlink:href="#m7c97a05c47" x="325.944113" y="100.0353" style="fill: #1f77b4; stroke: #1f77b4"/>
     <use xlink:href="#m7c97a05c47" x="339.497086" y="107.701798" style="fill: #1f77b4; stroke: #1f77b4"/>
     <use xlink:href="#m7c97a05c47" x="317.910481" y="95.641935" style="fill: #1f77b4; stroke: #1f77b4"/>
     <use xlink:href="#m7c97a05c47" x="352.369636" y="114.389358" style="fill: #1f77b4; stroke: #1f77b4"/>
     <use xlink:href="#m7c97a05c47" x="312.448253" y="92.858464" style="fill: #1f77b4; stroke: #1f77b4"/>
     <use xlink:href="#m7c97a05c47" x="316.828233" y="95.075025" style="fill: #1f77b4; stroke: #1f77b4"/>
     <use xlink:href="#m7c97a05c47" x="339.648098" y="107.78541" style="fill: #1f77b4; stroke: #1f77b4"/>
     <use xlink:href="#m7c97a05c47" x="309.998645" y="91.678215" style="fill: #1f77b4; stroke: #1f77b4"/>
     <use xlink:href="#m7c97a05c47" x="312.435254" y="92.852087" style="fill: #1f77b4; stroke: #1f77b4"/>
     <use xlink:href="#m7c97a05c47" x="333.595356" y="104.380876" style="fill: #1f77b4; stroke: #1f77b4"/>
     <use xlink:href="#m7c97a05c47" x="323.829411" y="98.852772" style="fill: #1f77b4; stroke: #1f77b4"/>
     <use xlink:href="#m7c97a05c47" x="331.852629" y="103.388581" style="fill: #1f77b4; stroke: #1f77b4"/>
     <use xlink:href="#m7c97a05c47" x="329.288876" y="101.928424" style="fill: #1f77b4; stroke: #1f77b4"/>
     <use xlink:href="#m7c97a05c47" x="326.996581" y="100.628581" style="fill: #1f77b4; stroke: #1f77b4"/>
     <use xlink:href="#m7c97a05c47" x="345.625965" y="111.010143" style="fill: #1f77b4; stroke: #1f77b4"/>
     <use xlink:href="#m7c97a05c47" x="317.631712" y="95.495232" style="fill: #1f77b4; stroke: #1f77b4"/>
     <use xlink:href="#m7c97a05c47" x="346.033782" y="111.223065" style="fill: #1f77b4; stroke: #1f77b4"/>
     <use xlink:href="#m7c97a05c47" x="327.192874" y="100.739524" style="fill: #1f77b4; stroke: #1f77b4"/>
     <use xlink:href="#m7c97a05c47" x="337.916702" y="106.821776" style="fill: #1f77b4; stroke: #1f77b4"/>
     <use xlink:href="#m7c97a05c47" x="347.902505" y="112.185355" style="fill: #1f77b4; stroke: #1f77b4"/>
     <use xlink:href="#m7c97a05c47" x="357.564725" y="116.76612" style="fill: #1f77b4; stroke: #1f77b4"/>
     <use xlink:href="#m7c97a05c47" x="341.151063" y="108.612548" style="fill: #1f77b4; stroke: #1f77b4"/>
     <use xlink:href="#m7c97a05c47" x="322.237795" y="97.973294" style="fill: #1f77b4; stroke: #1f77b4"/>
     <use xlink:href="#m7c97a05c47" x="323.279779" y="98.547938" style="fill: #1f77b4; stroke: #1f77b4"/>
     <use xlink:href="#m7c97a05c47" x="352.395962" y="114.401914" style="fill: #1f77b4; stroke: #1f77b4"/>
     <use xlink:href="#m7c97a05c47" x="343.00971" y="109.621203" style="fill: #1f77b4; stroke: #1f77b4"/>
     <use xlink:href="#m7c97a05c47" x="298.238705" y="86.668058" style="fill: #1f77b4; stroke: #1f77b4"/>
     <use xlink:href="#m7c97a05c47" x="316.66983" y="94.992656" style="fill: #1f77b4; stroke: #1f77b4"/>
    </g>
   </g>
   <g id="matplotlib.axis_1">
    <g id="xtick_1">
     <g id="line2d_1">
      <defs>
       <path id="m8e0271fda7" d="M 0 0 
L 0 3.5 
" style="stroke: #000000; stroke-width: 0.8"/>
      </defs>
      <g>
       <use xlink:href="#m8e0271fda7" x="80.923082" y="193.536948" style="stroke: #000000; stroke-width: 0.8"/>
      </g>
     </g>
     <g id="text_1">
      <!-- $\mathdefault{0.25}$ -->
      <g transform="translate(68.783547 210.222825) scale(0.14 -0.14)">
       <defs>
        <path id="CMR17-30" d="M 2688 2025 
C 2688 2416 2682 3080 2413 3591 
C 2176 4039 1798 4198 1466 4198 
C 1158 4198 768 4058 525 3597 
C 269 3118 243 2524 243 2025 
C 243 1661 250 1106 448 619 
C 723 -39 1216 -128 1466 -128 
C 1760 -128 2208 -7 2470 600 
C 2662 1042 2688 1559 2688 2025 
z
M 1466 -26 
C 1056 -26 813 325 723 812 
C 653 1188 653 1738 653 2096 
C 653 2588 653 2997 736 3387 
C 858 3929 1216 4096 1466 4096 
C 1728 4096 2067 3923 2189 3400 
C 2272 3036 2278 2607 2278 2096 
C 2278 1680 2278 1169 2202 792 
C 2067 95 1690 -26 1466 -26 
z
" transform="scale(0.015625)"/>
        <path id="CMMI12-3a" d="M 1178 307 
C 1178 492 1024 619 870 619 
C 685 619 557 466 557 313 
C 557 128 710 0 864 0 
C 1050 0 1178 153 1178 307 
z
" transform="scale(0.015625)"/>
        <path id="CMR17-32" d="M 2669 989 
L 2554 989 
C 2490 536 2438 459 2413 420 
C 2381 369 1920 369 1830 369 
L 602 369 
C 832 619 1280 1072 1824 1597 
C 2214 1967 2669 2402 2669 3035 
C 2669 3790 2067 4224 1395 4224 
C 691 4224 262 3604 262 3030 
C 262 2780 448 2748 525 2748 
C 589 2748 781 2787 781 3010 
C 781 3207 614 3264 525 3264 
C 486 3264 448 3258 422 3245 
C 544 3790 915 4058 1306 4058 
C 1862 4058 2227 3617 2227 3035 
C 2227 2479 1901 2000 1536 1584 
L 262 146 
L 262 0 
L 2515 0 
L 2669 989 
z
" transform="scale(0.015625)"/>
        <path id="CMR17-35" d="M 730 3692 
C 794 3666 1056 3584 1325 3584 
C 1920 3584 2246 3911 2432 4100 
C 2432 4157 2432 4192 2394 4192 
C 2387 4192 2374 4192 2323 4163 
C 2099 4058 1837 3973 1517 3973 
C 1325 3973 1037 3999 723 4139 
C 653 4171 640 4171 634 4171 
C 602 4171 595 4164 595 4037 
L 595 2203 
C 595 2089 595 2057 659 2057 
C 691 2057 704 2070 736 2114 
C 941 2401 1222 2522 1542 2522 
C 1766 2522 2246 2382 2246 1289 
C 2246 1085 2246 715 2054 421 
C 1894 159 1645 25 1370 25 
C 947 25 518 320 403 814 
C 429 807 480 795 506 795 
C 589 795 749 840 749 1038 
C 749 1210 627 1280 506 1280 
C 358 1280 262 1190 262 1011 
C 262 454 704 -128 1382 -128 
C 2042 -128 2669 440 2669 1264 
C 2669 2030 2170 2624 1549 2624 
C 1222 2624 947 2503 730 2274 
L 730 3692 
z
" transform="scale(0.015625)"/>
       </defs>
       <use xlink:href="#CMR17-30" transform="scale(0.996264)"/>
       <use xlink:href="#CMMI12-3a" transform="translate(45.690477 0) scale(0.996264)"/>
       <use xlink:href="#CMR17-32" transform="translate(72.787654 0) scale(0.996264)"/>
       <use xlink:href="#CMR17-35" transform="translate(118.478131 0) scale(0.996264)"/>
      </g>
     </g>
    </g>
    <g id="xtick_2">
     <g id="line2d_2">
      <g>
       <use xlink:href="#m8e0271fda7" x="116.481839" y="193.536948" style="stroke: #000000; stroke-width: 0.8"/>
      </g>
     </g>
     <g id="text_2">
      <!-- $\mathdefault{0.50}$ -->
      <g transform="translate(104.342304 210.222825) scale(0.14 -0.14)">
       <use xlink:href="#CMR17-30" transform="scale(0.996264)"/>
       <use xlink:href="#CMMI12-3a" transform="translate(45.690477 0) scale(0.996264)"/>
       <use xlink:href="#CMR17-35" transform="translate(72.787654 0) scale(0.996264)"/>
       <use xlink:href="#CMR17-30" transform="translate(118.478131 0) scale(0.996264)"/>
      </g>
     </g>
    </g>
    <g id="xtick_3">
     <g id="line2d_3">
      <g>
       <use xlink:href="#m8e0271fda7" x="152.040595" y="193.536948" style="stroke: #000000; stroke-width: 0.8"/>
      </g>
     </g>
     <g id="text_3">
      <!-- $\mathdefault{0.75}$ -->
      <g transform="translate(139.90106 210.222825) scale(0.14 -0.14)">
       <defs>
        <path id="CMR17-37" d="M 2886 3941 
L 2886 4081 
L 1382 4081 
C 634 4081 621 4165 595 4288 
L 480 4288 
L 294 3094 
L 410 3094 
C 429 3215 474 3540 550 3661 
C 589 3712 1062 3712 1171 3712 
L 2579 3712 
L 1869 2661 
C 1395 1954 1069 999 1069 165 
C 1069 89 1069 -128 1299 -128 
C 1530 -128 1530 89 1530 171 
L 1530 465 
C 1530 1508 1709 2196 2003 2636 
L 2886 3941 
z
" transform="scale(0.015625)"/>
       </defs>
       <use xlink:href="#CMR17-30" transform="scale(0.996264)"/>
       <use xlink:href="#CMMI12-3a" transform="translate(45.690477 0) scale(0.996264)"/>
       <use xlink:href="#CMR17-37" transform="translate(72.787654 0) scale(0.996264)"/>
       <use xlink:href="#CMR17-35" transform="translate(118.478131 0) scale(0.996264)"/>
      </g>
     </g>
    </g>
    <g id="xtick_4">
     <g id="line2d_4">
      <g>
       <use xlink:href="#m8e0271fda7" x="187.599352" y="193.536948" style="stroke: #000000; stroke-width: 0.8"/>
      </g>
     </g>
     <g id="text_4">
      <!-- $\mathdefault{1.00}$ -->
      <g transform="translate(175.459817 210.222825) scale(0.14 -0.14)">
       <defs>
        <path id="CMR17-31" d="M 1702 4058 
C 1702 4192 1696 4192 1606 4192 
C 1357 3916 979 3827 621 3827 
C 602 3827 570 3827 563 3808 
C 557 3795 557 3782 557 3648 
C 755 3648 1088 3686 1344 3839 
L 1344 461 
C 1344 236 1331 160 781 160 
L 589 160 
L 589 0 
C 896 0 1216 0 1523 0 
C 1830 0 2150 0 2458 0 
L 2458 160 
L 2266 160 
C 1715 160 1702 230 1702 458 
L 1702 4058 
z
" transform="scale(0.015625)"/>
       </defs>
       <use xlink:href="#CMR17-31" transform="scale(0.996264)"/>
       <use xlink:href="#CMMI12-3a" transform="translate(45.690477 0) scale(0.996264)"/>
       <use xlink:href="#CMR17-30" transform="translate(72.787654 0) scale(0.996264)"/>
       <use xlink:href="#CMR17-30" transform="translate(118.478131 0) scale(0.996264)"/>
      </g>
     </g>
    </g>
    <g id="xtick_5">
     <g id="line2d_5">
      <g>
       <use xlink:href="#m8e0271fda7" x="223.158108" y="193.536948" style="stroke: #000000; stroke-width: 0.8"/>
      </g>
     </g>
     <g id="text_5">
      <!-- $\mathdefault{1.25}$ -->
      <g transform="translate(211.018573 210.222825) scale(0.14 -0.14)">
       <use xlink:href="#CMR17-31" transform="scale(0.996264)"/>
       <use xlink:href="#CMMI12-3a" transform="translate(45.690477 0) scale(0.996264)"/>
       <use xlink:href="#CMR17-32" transform="translate(72.787654 0) scale(0.996264)"/>
       <use xlink:href="#CMR17-35" transform="translate(118.478131 0) scale(0.996264)"/>
      </g>
     </g>
    </g>
    <g id="xtick_6">
     <g id="line2d_6">
      <g>
       <use xlink:href="#m8e0271fda7" x="258.716865" y="193.536948" style="stroke: #000000; stroke-width: 0.8"/>
      </g>
     </g>
     <g id="text_6">
      <!-- $\mathdefault{1.50}$ -->
      <g transform="translate(246.57733 210.222825) scale(0.14 -0.14)">
       <use xlink:href="#CMR17-31" transform="scale(0.996264)"/>
       <use xlink:href="#CMMI12-3a" transform="translate(45.690477 0) scale(0.996264)"/>
       <use xlink:href="#CMR17-35" transform="translate(72.787654 0) scale(0.996264)"/>
       <use xlink:href="#CMR17-30" transform="translate(118.478131 0) scale(0.996264)"/>
      </g>
     </g>
    </g>
    <g id="xtick_7">
     <g id="line2d_7">
      <g>
       <use xlink:href="#m8e0271fda7" x="294.275622" y="193.536948" style="stroke: #000000; stroke-width: 0.8"/>
      </g>
     </g>
     <g id="text_7">
      <!-- $\mathdefault{1.75}$ -->
      <g transform="translate(282.136086 210.222825) scale(0.14 -0.14)">
       <use xlink:href="#CMR17-31" transform="scale(0.996264)"/>
       <use xlink:href="#CMMI12-3a" transform="translate(45.690477 0) scale(0.996264)"/>
       <use xlink:href="#CMR17-37" transform="translate(72.787654 0) scale(0.996264)"/>
       <use xlink:href="#CMR17-35" transform="translate(118.478131 0) scale(0.996264)"/>
      </g>
     </g>
    </g>
    <g id="xtick_8">
     <g id="line2d_8">
      <g>
       <use xlink:href="#m8e0271fda7" x="329.834378" y="193.536948" style="stroke: #000000; stroke-width: 0.8"/>
      </g>
     </g>
     <g id="text_8">
      <!-- $\mathdefault{2.00}$ -->
      <g transform="translate(317.694843 210.222825) scale(0.14 -0.14)">
       <use xlink:href="#CMR17-32" transform="scale(0.996264)"/>
       <use xlink:href="#CMMI12-3a" transform="translate(45.690477 0) scale(0.996264)"/>
       <use xlink:href="#CMR17-30" transform="translate(72.787654 0) scale(0.996264)"/>
       <use xlink:href="#CMR17-30" transform="translate(118.478131 0) scale(0.996264)"/>
      </g>
     </g>
    </g>
    <g id="xtick_9">
     <g id="line2d_9">
      <g>
       <use xlink:href="#m8e0271fda7" x="365.393135" y="193.536948" style="stroke: #000000; stroke-width: 0.8"/>
      </g>
     </g>
     <g id="text_9">
      <!-- $\mathdefault{2.25}$ -->
      <g transform="translate(353.253599 210.222825) scale(0.14 -0.14)">
       <use xlink:href="#CMR17-32" transform="scale(0.996264)"/>
       <use xlink:href="#CMMI12-3a" transform="translate(45.690477 0) scale(0.996264)"/>
       <use xlink:href="#CMR17-32" transform="translate(72.787654 0) scale(0.996264)"/>
       <use xlink:href="#CMR17-35" transform="translate(118.478131 0) scale(0.996264)"/>
      </g>
     </g>
    </g>
    <g id="text_10">
     <!-- P -->
     <g transform="translate(211.341709 226.620729) scale(0.14 -0.14)">
      <defs>
       <path id="CMR17-50" d="M 1267 2042 
L 2291 2042 
C 3117 2042 3718 2578 3718 3184 
C 3718 3791 3130 4352 2291 4352 
L 333 4352 
L 333 4186 
C 774 4186 845 4186 845 3899 
L 845 446 
C 845 160 774 160 333 160 
L 333 0 
C 518 0 858 0 1056 0 
C 1254 0 1594 0 1779 0 
L 1779 160 
C 1338 160 1267 160 1267 446 
L 1267 2042 
z
M 1254 2176 
L 1254 3938 
C 1254 4155 1267 4186 1523 4186 
L 2170 4186 
C 2995 4186 3232 3714 3232 3184 
C 3232 2604 2950 2176 2170 2176 
L 1254 2176 
z
" transform="scale(0.015625)"/>
      </defs>
      <use xlink:href="#CMR17-50" transform="scale(0.996264)"/>
     </g>
    </g>
   </g>
   <g id="matplotlib.axis_2">
    <g id="ytick_1">
     <g id="line2d_10">
      <defs>
       <path id="m198fa7b335" d="M 0 0 
L -3.5 0 
" style="stroke: #000000; stroke-width: 0.8"/>
      </defs>
      <g>
       <use xlink:href="#m198fa7b335" x="60.252909" y="193.536948" style="stroke: #000000; stroke-width: 0.8"/>
      </g>
     </g>
     <g id="text_11">
      <!-- $\mathdefault{−15}$ -->
      <g transform="translate(28.747696 198.379886) scale(0.14 -0.14)">
       <defs>
        <path id="CMSY10-0" d="M 4218 1472 
C 4326 1472 4442 1472 4442 1600 
C 4442 1728 4326 1728 4218 1728 
L 755 1728 
C 646 1728 531 1728 531 1600 
C 531 1472 646 1472 755 1472 
L 4218 1472 
z
" transform="scale(0.015625)"/>
       </defs>
       <use xlink:href="#CMSY10-0" transform="scale(0.996264)"/>
       <use xlink:href="#CMR17-31" transform="translate(77.487468 0) scale(0.996264)"/>
       <use xlink:href="#CMR17-35" transform="translate(123.177945 0) scale(0.996264)"/>
      </g>
     </g>
    </g>
    <g id="ytick_2">
     <g id="line2d_11">
      <g>
       <use xlink:href="#m198fa7b335" x="60.252909" y="168.123518" style="stroke: #000000; stroke-width: 0.8"/>
      </g>
     </g>
     <g id="text_12">
      <!-- $\mathdefault{−10}$ -->
      <g transform="translate(28.747696 172.966456) scale(0.14 -0.14)">
       <use xlink:href="#CMSY10-0" transform="scale(0.996264)"/>
       <use xlink:href="#CMR17-31" transform="translate(77.487468 0) scale(0.996264)"/>
       <use xlink:href="#CMR17-30" transform="translate(123.177945 0) scale(0.996264)"/>
      </g>
     </g>
    </g>
    <g id="ytick_3">
     <g id="line2d_12">
      <g>
       <use xlink:href="#m198fa7b335" x="60.252909" y="142.710088" style="stroke: #000000; stroke-width: 0.8"/>
      </g>
     </g>
     <g id="text_13">
      <!-- $\mathdefault{−5}$ -->
      <g transform="translate(35.576185 147.553026) scale(0.14 -0.14)">
       <use xlink:href="#CMSY10-0" transform="scale(0.996264)"/>
       <use xlink:href="#CMR17-35" transform="translate(77.487468 0) scale(0.996264)"/>
      </g>
     </g>
    </g>
    <g id="ytick_4">
     <g id="line2d_13">
      <g>
       <use xlink:href="#m198fa7b335" x="60.252909" y="117.296658" style="stroke: #000000; stroke-width: 0.8"/>
      </g>
     </g>
     <g id="text_14">
      <!-- $\mathdefault{0}$ -->
      <g transform="translate(46.42442 122.139596) scale(0.14 -0.14)">
       <use xlink:href="#CMR17-30" transform="scale(0.996264)"/>
      </g>
     </g>
    </g>
    <g id="ytick_5">
     <g id="line2d_14">
      <g>
       <use xlink:href="#m198fa7b335" x="60.252909" y="91.883228" style="stroke: #000000; stroke-width: 0.8"/>
      </g>
     </g>
     <g id="text_15">
      <!-- $\mathdefault{5}$ -->
      <g transform="translate(46.42442 96.726166) scale(0.14 -0.14)">
       <use xlink:href="#CMR17-35" transform="scale(0.996264)"/>
      </g>
     </g>
    </g>
    <g id="ytick_6">
     <g id="line2d_15">
      <g>
       <use xlink:href="#m198fa7b335" x="60.252909" y="66.469798" style="stroke: #000000; stroke-width: 0.8"/>
      </g>
     </g>
     <g id="text_16">
      <!-- $\mathdefault{10}$ -->
      <g transform="translate(39.595931 71.312736) scale(0.14 -0.14)">
       <use xlink:href="#CMR17-31" transform="scale(0.996264)"/>
       <use xlink:href="#CMR17-30" transform="translate(45.690477 0) scale(0.996264)"/>
      </g>
     </g>
    </g>
    <g id="ytick_7">
     <g id="line2d_16">
      <g>
       <use xlink:href="#m198fa7b335" x="60.252909" y="41.056368" style="stroke: #000000; stroke-width: 0.8"/>
      </g>
     </g>
     <g id="text_17">
      <!-- $\mathdefault{15}$ -->
      <g transform="translate(39.595931 45.899306) scale(0.14 -0.14)">
       <use xlink:href="#CMR17-31" transform="scale(0.996264)"/>
       <use xlink:href="#CMR17-35" transform="translate(45.690477 0) scale(0.996264)"/>
      </g>
     </g>
    </g>
    <g id="ytick_8">
     <g id="line2d_17">
      <g>
       <use xlink:href="#m198fa7b335" x="60.252909" y="15.642938" style="stroke: #000000; stroke-width: 0.8"/>
      </g>
     </g>
     <g id="text_18">
      <!-- $\mathdefault{20}$ -->
      <g transform="translate(39.595931 20.485876) scale(0.14 -0.14)">
       <use xlink:href="#CMR17-32" transform="scale(0.996264)"/>
       <use xlink:href="#CMR17-30" transform="translate(45.690477 0) scale(0.996264)"/>
      </g>
     </g>
    </g>
    <g id="text_19">
     <!-- $\phi(P)$ -->
     <g transform="translate(21.260772 119.29218) rotate(-90) scale(0.14 -0.14)">
      <defs>
       <path id="CMMI12-1e" d="M 2752 4390 
C 2752 4448 2707 4448 2688 4448 
C 2630 4448 2624 4435 2598 4326 
L 2253 2939 
C 2234 2856 2227 2849 2221 2843 
C 2214 2830 2170 2824 2157 2824 
C 1107 2734 301 1864 301 1057 
C 301 361 832 -64 1498 -64 
C 1446 -261 1402 -463 1350 -659 
C 1261 -995 1210 -1204 1210 -1229 
C 1210 -1241 1210 -1280 1274 -1280 
C 1293 -1280 1318 -1280 1331 -1254 
C 1344 -1241 1382 -1089 1408 -1008 
L 1645 -64 
C 2739 -64 3571 854 3571 1680 
C 3571 2343 3085 2816 2374 2816 
L 2752 4390 
z
M 2336 2701 
C 2758 2701 3181 2463 3181 1828 
C 3181 1097 2675 128 1677 50 
L 2336 2701 
z
M 1530 50 
C 1216 50 691 220 691 938 
C 691 1761 1274 2676 2195 2676 
L 1530 50 
z
" transform="scale(0.015625)"/>
       <path id="CMR17-28" d="M 1958 -1561 
C 1958 -1555 1958 -1542 1939 -1523 
C 1645 -1224 858 -407 858 1581 
C 858 3569 1632 4379 1946 4697 
C 1946 4704 1958 4717 1958 4736 
C 1958 4755 1939 4768 1914 4768 
C 1843 4768 1299 4296 986 3594 
C 666 2887 576 2199 576 1588 
C 576 1128 621 351 1005 -471 
C 1312 -1135 1837 -1600 1914 -1600 
C 1946 -1600 1958 -1587 1958 -1561 
z
" transform="scale(0.015625)"/>
       <path id="CMMI12-50" d="M 1894 2023 
L 2970 2023 
C 3853 2023 4736 2673 4736 3401 
C 4736 3898 4314 4352 3507 4352 
L 1530 4352 
C 1408 4352 1350 4352 1350 4231 
C 1350 4167 1408 4167 1504 4167 
C 1894 4167 1894 4116 1894 4046 
C 1894 4034 1894 3995 1869 3899 
L 1005 472 
C 947 249 934 185 486 185 
C 365 185 301 185 301 70 
C 301 0 358 0 397 0 
C 518 0 646 0 768 0 
L 1517 0 
C 1638 0 1773 0 1894 0 
C 1946 0 2016 0 2016 121 
C 2016 185 1958 185 1862 185 
C 1478 185 1472 230 1472 293 
C 1472 325 1478 369 1485 401 
L 1894 2023 
z
M 2355 3930 
C 2413 4167 2438 4167 2688 4167 
L 3322 4167 
C 3802 4167 4198 4013 4198 3535 
C 4198 3369 4115 2827 3821 2534 
C 3712 2419 3405 2176 2822 2176 
L 1920 2176 
L 2355 3930 
z
" transform="scale(0.015625)"/>
       <path id="CMR17-29" d="M 1683 1581 
C 1683 2040 1638 2817 1254 3639 
C 947 4303 422 4768 346 4768 
C 326 4768 301 4761 301 4729 
C 301 4717 307 4710 314 4697 
C 621 4378 1402 3568 1402 1584 
C 1402 -407 627 -1217 314 -1537 
C 307 -1549 301 -1556 301 -1568 
C 301 -1600 326 -1600 346 -1600 
C 416 -1600 960 -1128 1274 -426 
C 1594 281 1683 969 1683 1581 
z
" transform="scale(0.015625)"/>
      </defs>
      <use xlink:href="#CMMI12-1e" transform="scale(0.996264)"/>
      <use xlink:href="#CMR17-28" transform="translate(57.73418 0) scale(0.996264)"/>
      <use xlink:href="#CMMI12-50" transform="translate(93.014948 0) scale(0.996264)"/>
      <use xlink:href="#CMR17-29" transform="translate(169.440769 0) scale(0.996264)"/>
     </g>
    </g>
   </g>
   <g id="line2d_18">
    <path d="M 74.410614 106.113013 
L 75.109773 105.875167 
L 90.537851 101.001755 
L 91.318567 100.774218 
L 91.654682 100.676824 
L 92.89944 100.319106 
L 110.242354 95.821043 
L 113.638833 95.046314 
L 113.720859 95.028034 
L 124.77585 92.749977 
L 124.945105 92.717963 
L 125.43544 92.625705 
L 128.671735 92.034969 
L 134.726889 91.014503 
L 141.982305 89.937334 
L 149.766048 88.958187 
L 150.490662 88.876329 
L 153.152378 88.589226 
L 166.594362 87.465626 
L 175.095462 87.036222 
L 184.986666 86.810832 
L 187.207735 86.800773 
L 188.335654 86.801359 
L 189.427819 86.805582 
L 196.061469 86.908484 
L 212.509376 87.735904 
L 218.465067 88.23664 
L 219.409159 88.325836 
L 256.729746 94.004472 
L 258.720812 94.425417 
L 260.799098 94.877551 
L 270.3281 97.117326 
L 271.710061 97.464883 
L 275.535227 98.456919 
L 281.294191 100.033677 
L 284.881765 101.066472 
L 286.315313 101.490014 
L 287.018044 101.699899 
L 287.35596 101.801354 
L 289.947716 102.590946 
L 298.238705 105.252849 
L 299.733619 105.754858 
L 300.589798 106.045407 
L 300.879357 106.14417 
L 301.595177 106.389409 
L 304.120699 107.266987 
L 307.218206 108.369576 
L 307.38705 108.430509 
L 309.8944 109.345486 
L 309.998645 109.383937 
L 312.435254 110.292024 
L 312.448253 110.296917 
L 312.69882 110.391324 
L 316.177335 111.721495 
L 316.66983 111.912771 
L 316.828233 111.974447 
L 317.631712 112.288457 
L 317.910481 112.397858 
L 318.815054 112.754467 
L 320.445343 113.403402 
L 320.558033 113.448554 
L 322.119368 114.078084 
L 322.237795 114.126134 
L 322.84898 114.374784 
L 323.279779 114.550723 
L 323.829411 114.776007 
L 323.834796 114.778218 
L 324.089099 114.882764 
L 324.816654 115.182946 
L 325.944113 115.651275 
L 326.022575 115.68401 
L 326.934597 116.06587 
L 326.996581 116.091913 
L 327.192874 116.174465 
L 328.487406 116.721794 
L 329.129818 116.995282 
L 329.288876 117.063188 
L 329.760361 117.264927 
L 331.852629 118.16825 
L 332.621773 118.503641 
L 333.562383 118.916225 
L 333.595356 118.930737 
L 333.809993 119.025279 
L 334.252176 119.220488 
L 335.929714 119.966423 
L 337.916702 120.860934 
L 338.974457 121.341974 
L 339.497086 121.580897 
L 339.648098 121.650086 
L 341.151063 122.34245 
L 341.215618 122.372341 
L 341.84777 122.665709 
L 342.094892 122.78072 
L 343.00971 123.208083 
L 343.706294 123.535187 
L 345.625965 124.444206 
L 346.033782 124.638749 
L 347.902505 125.536611 
L 352.369636 127.72559 
L 352.395962 127.738669 
L 357.564725 130.346949 
" clip-path="url(#pc629d5069a)" style="fill: none; stroke-dasharray: 11.1,4.8; stroke-dashoffset: 0; stroke: #ff7f0e; stroke-width: 3"/>
   </g>
   <g id="patch_3">
    <path d="M 60.252909 193.536948 
L 60.252909 15.642938 
" style="fill: none; stroke: #000000; stroke-width: 0.8; stroke-linejoin: miter; stroke-linecap: square"/>
   </g>
   <g id="patch_4">
    <path d="M 371.722431 193.536948 
L 371.722431 15.642938 
" style="fill: none; stroke: #000000; stroke-width: 0.8; stroke-linejoin: miter; stroke-linecap: square"/>
   </g>
   <g id="patch_5">
    <path d="M 60.252909 193.536948 
L 371.722431 193.536948 
" style="fill: none; stroke: #000000; stroke-width: 0.8; stroke-linejoin: miter; stroke-linecap: square"/>
   </g>
   <g id="patch_6">
    <path d="M 60.252909 15.642938 
L 371.722431 15.642938 
" style="fill: none; stroke: #000000; stroke-width: 0.8; stroke-linejoin: miter; stroke-linecap: square"/>
   </g>
   <g id="legend_1">
    <g id="line2d_19">
     <path d="M 72.852909 130.734377 
L 86.852909 130.734377 
L 100.852909 130.734377 
" style="fill: none; stroke-dasharray: 11.1,4.8; stroke-dashoffset: 0; stroke: #ff7f0e; stroke-width: 3"/>
    </g>
    <g id="text_20">
     <!-- $\phi^*$ -->
     <g transform="translate(112.052909 135.634377) scale(0.14 -0.14)">
      <defs>
       <path id="CMSY10-3" d="M 1760 2719 
C 1766 2808 1766 2962 1600 2962 
C 1498 2962 1414 2879 1434 2795 
L 1434 2712 
L 1523 1720 
L 704 2316 
C 646 2348 634 2360 589 2360 
C 499 2360 416 2271 416 2181 
C 416 2079 480 2053 544 2021 
L 1453 1586 
L 570 1158 
C 467 1107 416 1081 416 985 
C 416 889 499 806 589 806 
C 634 806 646 806 806 928 
L 1523 1446 
L 1427 371 
C 1427 236 1542 204 1594 204 
C 1670 204 1766 248 1766 371 
L 1670 1446 
L 2490 851 
C 2547 819 2560 806 2605 806 
C 2694 806 2778 896 2778 985 
C 2778 1081 2720 1113 2643 1152 
C 2259 1343 2246 1343 1741 1580 
L 2624 2008 
C 2726 2060 2778 2085 2778 2181 
C 2778 2277 2694 2360 2605 2360 
C 2560 2360 2547 2360 2387 2239 
L 1670 1720 
L 1760 2719 
z
" transform="scale(0.015625)"/>
      </defs>
      <use xlink:href="#CMMI12-1e" transform="scale(0.996264)"/>
      <use xlink:href="#CMSY10-3" transform="translate(57.73418 36.153639) scale(0.697382)"/>
     </g>
    </g>
    <g id="PathCollection_3">
     <g>
      <use xlink:href="#m0de2c597bb" x="86.852909" y="151.471405" style="stroke: #000000; stroke-width: 1.5"/>
     </g>
    </g>
    <g id="text_21">
     <!-- $u$ -->
     <g transform="translate(112.052909 155.146405) scale(0.14 -0.14)">
      <defs>
       <path id="CMMI12-75" d="M 2182 370 
C 2266 13 2573 -64 2726 -64 
C 2931 -64 3085 70 3187 287 
C 3296 517 3379 894 3379 913 
C 3379 945 3354 971 3315 971 
C 3258 971 3251 939 3226 843 
C 3110 402 2995 64 2739 64 
C 2547 64 2547 275 2547 358 
C 2547 505 2566 568 2630 837 
C 2675 1009 2720 1181 2758 1360 
L 3021 2401 
C 3066 2561 3066 2574 3066 2593 
C 3066 2689 2989 2753 2893 2753 
C 2707 2753 2662 2593 2624 2433 
C 2560 2184 2214 811 2170 588 
C 2163 588 1914 64 1446 64 
C 1114 64 1050 351 1050 588 
C 1050 952 1229 1462 1395 1890 
C 1472 2095 1504 2178 1504 2305 
C 1504 2580 1306 2816 998 2816 
C 410 2816 173 1890 173 1839 
C 173 1814 198 1782 243 1782 
C 301 1782 307 1807 333 1896 
C 486 2441 736 2682 979 2682 
C 1043 2682 1146 2682 1146 2478 
C 1146 2312 1075 2127 979 1884 
C 698 1124 666 881 666 690 
C 666 38 1158 -64 1421 -64 
C 1830 -64 2054 217 2182 370 
z
" transform="scale(0.015625)"/>
      </defs>
      <use xlink:href="#CMMI12-75" transform="scale(0.996264)"/>
     </g>
    </g>
    <g id="PathCollection_4">
     <g>
      <use xlink:href="#m7c97a05c47" x="86.852909" y="174.54992" style="fill: #1f77b4; stroke: #1f77b4"/>
     </g>
    </g>
    <g id="text_22">
     <!-- $\hat{\phi}$ -->
     <g transform="translate(112.052909 178.22492) scale(0.14 -0.14)">
      <defs>
       <path id="CMR17-5e" d="M 1466 4421 
L 678 3555 
L 755 3478 
L 1466 4166 
L 2176 3478 
L 2253 3555 
L 1466 4421 
z
" transform="scale(0.015625)"/>
      </defs>
      <use xlink:href="#CMR17-5e" transform="translate(14.151005 26.296621) scale(0.996264)"/>
      <use xlink:href="#CMMI12-1e" transform="scale(0.996264)"/>
     </g>
    </g>
   </g>
  </g>
 </g>
 <defs>
  <clipPath id="pc629d5069a">
   <rect x="60.252909" y="15.642938" width="311.469522" height="177.89401"/>
  </clipPath>
 </defs>
</svg>
