<?xml version="1.0" encoding="utf-8" standalone="no"?>
<!DOCTYPE svg PUBLIC "-//W3C//DTD SVG 1.1//EN"
  "http://www.w3.org/Graphics/SVG/1.1/DTD/svg11.dtd">
<svg xmlns:xlink="http://www.w3.org/1999/xlink" width="388.542964pt" height="240.132758pt" viewBox="0 0 388.542964 240.132758" xmlns="http://www.w3.org/2000/svg" version="1.1">
 <metadata>
  <rdf:RDF xmlns:dc="http://purl.org/dc/elements/1.1/" xmlns:cc="http://creativecommons.org/ns#" xmlns:rdf="http://www.w3.org/1999/02/22-rdf-syntax-ns#">
   <cc:Work>
    <dc:type rdf:resource="http://purl.org/dc/dcmitype/StillImage"/>
    <dc:date>2024-12-04T09:43:55.411819</dc:date>
    <dc:format>image/svg+xml</dc:format>
    <dc:creator>
     <cc:Agent>
      <dc:title>Matplotlib v3.7.5, https://matplotlib.org/</dc:title>
     </cc:Agent>
    </dc:creator>
   </cc:Work>
  </rdf:RDF>
 </metadata>
 <defs>
  <style type="text/css">*{stroke-linejoin: round; stroke-linecap: butt}</style>
 </defs>
 <g id="figure_1">
  <g id="patch_1">
   <path d="M 0 240.132758 
L 388.542964 240.132758 
L 388.542964 0 
L 0 0 
z
" style="fill: #ffffff"/>
  </g>
  <g id="axes_1">
   <g id="patch_2">
    <path d="M 60.252909 193.536948 
L 376.182834 193.536948 
L 376.182834 15.642938 
L 60.252909 15.642938 
z
" style="fill: #ffffff"/>
   </g>
   <g id="PathCollection_1">
    <defs>
     <path id="md835c0e256" d="M -3.535534 3.535534 
L 3.535534 -3.535534 
M -3.535534 -3.535534 
L 3.535534 3.535534 
" style="stroke: #000000; stroke-width: 1.5"/>
    </defs>
    <g clip-path="url(#p537d6cb569)">
     <use xlink:href="#md835c0e256" x="74.61336" y="116.403568" style="stroke: #000000; stroke-width: 1.5"/>
     <use xlink:href="#md835c0e256" x="77.475827" y="116.591638" style="stroke: #000000; stroke-width: 1.5"/>
     <use xlink:href="#md835c0e256" x="78.336657" y="118.497195" style="stroke: #000000; stroke-width: 1.5"/>
     <use xlink:href="#md835c0e256" x="76.321103" y="114.761992" style="stroke: #000000; stroke-width: 1.5"/>
     <use xlink:href="#md835c0e256" x="84.05818" y="115.851514" style="stroke: #000000; stroke-width: 1.5"/>
     <use xlink:href="#md835c0e256" x="88.028355" y="111.372353" style="stroke: #000000; stroke-width: 1.5"/>
     <use xlink:href="#md835c0e256" x="97.974531" y="118.264011" style="stroke: #000000; stroke-width: 1.5"/>
     <use xlink:href="#md835c0e256" x="96.498108" y="114.36845" style="stroke: #000000; stroke-width: 1.5"/>
     <use xlink:href="#md835c0e256" x="100.520372" y="120.344269" style="stroke: #000000; stroke-width: 1.5"/>
     <use xlink:href="#md835c0e256" x="98.659804" y="114.811311" style="stroke: #000000; stroke-width: 1.5"/>
     <use xlink:href="#md835c0e256" x="100.935762" y="110.619703" style="stroke: #000000; stroke-width: 1.5"/>
     <use xlink:href="#md835c0e256" x="105.012047" y="126.014707" style="stroke: #000000; stroke-width: 1.5"/>
     <use xlink:href="#md835c0e256" x="102.35086" y="114.148109" style="stroke: #000000; stroke-width: 1.5"/>
     <use xlink:href="#md835c0e256" x="104.273051" y="118.027904" style="stroke: #000000; stroke-width: 1.5"/>
     <use xlink:href="#md835c0e256" x="102.598953" y="109.35419" style="stroke: #000000; stroke-width: 1.5"/>
     <use xlink:href="#md835c0e256" x="117.145597" y="113.284493" style="stroke: #000000; stroke-width: 1.5"/>
     <use xlink:href="#md835c0e256" x="123.881527" y="122.740646" style="stroke: #000000; stroke-width: 1.5"/>
     <use xlink:href="#md835c0e256" x="116.403522" y="106.174089" style="stroke: #000000; stroke-width: 1.5"/>
     <use xlink:href="#md835c0e256" x="138.47211" y="89.044982" style="stroke: #000000; stroke-width: 1.5"/>
     <use xlink:href="#md835c0e256" x="155.719774" y="134.768327" style="stroke: #000000; stroke-width: 1.5"/>
     <use xlink:href="#md835c0e256" x="129.053615" y="81.28056" style="stroke: #000000; stroke-width: 1.5"/>
     <use xlink:href="#md835c0e256" x="151.041464" y="116.367826" style="stroke: #000000; stroke-width: 1.5"/>
     <use xlink:href="#md835c0e256" x="152.884385" y="111.73917" style="stroke: #000000; stroke-width: 1.5"/>
     <use xlink:href="#md835c0e256" x="171.545058" y="118.060465" style="stroke: #000000; stroke-width: 1.5"/>
     <use xlink:href="#md835c0e256" x="168.630654" y="109.234915" style="stroke: #000000; stroke-width: 1.5"/>
     <use xlink:href="#md835c0e256" x="173.552353" y="115.280858" style="stroke: #000000; stroke-width: 1.5"/>
     <use xlink:href="#md835c0e256" x="178.782602" y="113.141758" style="stroke: #000000; stroke-width: 1.5"/>
     <use xlink:href="#md835c0e256" x="199.075156" y="111.64475" style="stroke: #000000; stroke-width: 1.5"/>
     <use xlink:href="#md835c0e256" x="216.32762" y="63.690416" style="stroke: #000000; stroke-width: 1.5"/>
     <use xlink:href="#md835c0e256" x="232.690941" y="112.833544" style="stroke: #000000; stroke-width: 1.5"/>
     <use xlink:href="#md835c0e256" x="236.778042" y="115.798876" style="stroke: #000000; stroke-width: 1.5"/>
     <use xlink:href="#md835c0e256" x="239.978432" y="114.574952" style="stroke: #000000; stroke-width: 1.5"/>
     <use xlink:href="#md835c0e256" x="240.809233" y="144.342668" style="stroke: #000000; stroke-width: 1.5"/>
     <use xlink:href="#md835c0e256" x="216.041827" y="105.707732" style="stroke: #000000; stroke-width: 1.5"/>
     <use xlink:href="#md835c0e256" x="239.035727" y="117.623479" style="stroke: #000000; stroke-width: 1.5"/>
     <use xlink:href="#md835c0e256" x="238.836203" y="119.466638" style="stroke: #000000; stroke-width: 1.5"/>
     <use xlink:href="#md835c0e256" x="232.212334" y="95.212158" style="stroke: #000000; stroke-width: 1.5"/>
     <use xlink:href="#md835c0e256" x="265.918835" y="113.250439" style="stroke: #000000; stroke-width: 1.5"/>
     <use xlink:href="#md835c0e256" x="273.329491" y="130.525775" style="stroke: #000000; stroke-width: 1.5"/>
     <use xlink:href="#md835c0e256" x="253.138533" y="117.210824" style="stroke: #000000; stroke-width: 1.5"/>
     <use xlink:href="#md835c0e256" x="253.204035" y="125.446594" style="stroke: #000000; stroke-width: 1.5"/>
     <use xlink:href="#md835c0e256" x="251.96015" y="122.951259" style="stroke: #000000; stroke-width: 1.5"/>
     <use xlink:href="#md835c0e256" x="244.500673" y="-1" style="stroke: #000000; stroke-width: 1.5"/>
     <use xlink:href="#md835c0e256" x="260.55381" y="-1" style="stroke: #000000; stroke-width: 1.5"/>
     <use xlink:href="#md835c0e256" x="280.262923" y="135.878625" style="stroke: #000000; stroke-width: 1.5"/>
     <use xlink:href="#md835c0e256" x="263.246472" y="164.241796" style="stroke: #000000; stroke-width: 1.5"/>
     <use xlink:href="#md835c0e256" x="234.586438" y="100.2081" style="stroke: #000000; stroke-width: 1.5"/>
     <use xlink:href="#md835c0e256" x="265.884162" y="124.574312" style="stroke: #000000; stroke-width: 1.5"/>
     <use xlink:href="#md835c0e256" x="259.219644" y="145.683505" style="stroke: #000000; stroke-width: 1.5"/>
     <use xlink:href="#md835c0e256" x="249.691382" y="-1" style="stroke: #000000; stroke-width: 1.5"/>
     <use xlink:href="#md835c0e256" x="261.666646" y="-1" style="stroke: #000000; stroke-width: 1.5"/>
     <use xlink:href="#md835c0e256" x="324.84207" y="217.468813" style="stroke: #000000; stroke-width: 1.5"/>
     <use xlink:href="#md835c0e256" x="309.553281" y="130.213246" style="stroke: #000000; stroke-width: 1.5"/>
     <use xlink:href="#md835c0e256" x="281.953736" y="126.203275" style="stroke: #000000; stroke-width: 1.5"/>
     <use xlink:href="#md835c0e256" x="253.40689" y="117.907429" style="stroke: #000000; stroke-width: 1.5"/>
     <use xlink:href="#md835c0e256" x="252.008605" y="43.873986" style="stroke: #000000; stroke-width: 1.5"/>
     <use xlink:href="#md835c0e256" x="296.833188" y="114.654082" style="stroke: #000000; stroke-width: 1.5"/>
     <use xlink:href="#md835c0e256" x="300.866424" y="240.624034" style="stroke: #000000; stroke-width: 1.5"/>
     <use xlink:href="#md835c0e256" x="282.043566" y="129.350374" style="stroke: #000000; stroke-width: 1.5"/>
     <use xlink:href="#md835c0e256" x="276.524465" y="119.334372" style="stroke: #000000; stroke-width: 1.5"/>
     <use xlink:href="#md835c0e256" x="274.658427" y="113.070649" style="stroke: #000000; stroke-width: 1.5"/>
     <use xlink:href="#md835c0e256" x="291.428304" y="103.090129" style="stroke: #000000; stroke-width: 1.5"/>
     <use xlink:href="#md835c0e256" x="295.764851" y="131.508655" style="stroke: #000000; stroke-width: 1.5"/>
     <use xlink:href="#md835c0e256" x="269.735554" y="11.960074" style="stroke: #000000; stroke-width: 1.5"/>
     <use xlink:href="#md835c0e256" x="301.889576" y="93.489017" style="stroke: #000000; stroke-width: 1.5"/>
     <use xlink:href="#md835c0e256" x="312.79051" y="102.97044" style="stroke: #000000; stroke-width: 1.5"/>
     <use xlink:href="#md835c0e256" x="317.163592" y="126.070729" style="stroke: #000000; stroke-width: 1.5"/>
     <use xlink:href="#md835c0e256" x="293.059005" y="281.131459" style="stroke: #000000; stroke-width: 1.5"/>
     <use xlink:href="#md835c0e256" x="243.048385" y="43.943564" style="stroke: #000000; stroke-width: 1.5"/>
     <use xlink:href="#md835c0e256" x="276.634965" y="99.554919" style="stroke: #000000; stroke-width: 1.5"/>
     <use xlink:href="#md835c0e256" x="287.466306" y="122.43414" style="stroke: #000000; stroke-width: 1.5"/>
     <use xlink:href="#md835c0e256" x="267.079473" y="102.35516" style="stroke: #000000; stroke-width: 1.5"/>
     <use xlink:href="#md835c0e256" x="294.444853" y="111.494539" style="stroke: #000000; stroke-width: 1.5"/>
     <use xlink:href="#md835c0e256" x="312.155837" y="124.911864" style="stroke: #000000; stroke-width: 1.5"/>
     <use xlink:href="#md835c0e256" x="302.857661" y="122.929495" style="stroke: #000000; stroke-width: 1.5"/>
     <use xlink:href="#md835c0e256" x="265.890023" y="160.294538" style="stroke: #000000; stroke-width: 1.5"/>
     <use xlink:href="#md835c0e256" x="246.202351" y="53.151864" style="stroke: #000000; stroke-width: 1.5"/>
     <use xlink:href="#md835c0e256" x="275.572676" y="145.33929" style="stroke: #000000; stroke-width: 1.5"/>
     <use xlink:href="#md835c0e256" x="258.452633" y="102.563435" style="stroke: #000000; stroke-width: 1.5"/>
     <use xlink:href="#md835c0e256" x="310.17182" y="259.056263" style="stroke: #000000; stroke-width: 1.5"/>
     <use xlink:href="#md835c0e256" x="277.531635" y="-1" style="stroke: #000000; stroke-width: 1.5"/>
     <use xlink:href="#md835c0e256" x="282.549775" y="-1" style="stroke: #000000; stroke-width: 1.5"/>
     <use xlink:href="#md835c0e256" x="302.55723" y="136.953032" style="stroke: #000000; stroke-width: 1.5"/>
     <use xlink:href="#md835c0e256" x="281.556832" y="111.596495" style="stroke: #000000; stroke-width: 1.5"/>
     <use xlink:href="#md835c0e256" x="297.216621" y="118.51754" style="stroke: #000000; stroke-width: 1.5"/>
     <use xlink:href="#md835c0e256" x="294.6079" y="326.26422" style="stroke: #000000; stroke-width: 1.5"/>
     <use xlink:href="#md835c0e256" x="279.047604" y="-1" style="stroke: #000000; stroke-width: 1.5"/>
     <use xlink:href="#md835c0e256" x="313.427567" y="-1" style="stroke: #000000; stroke-width: 1.5"/>
     <use xlink:href="#md835c0e256" x="333.199687" y="132.933196" style="stroke: #000000; stroke-width: 1.5"/>
     <use xlink:href="#md835c0e256" x="309.334399" y="138.617279" style="stroke: #000000; stroke-width: 1.5"/>
     <use xlink:href="#md835c0e256" x="276.793771" y="89.441283" style="stroke: #000000; stroke-width: 1.5"/>
     <use xlink:href="#md835c0e256" x="361.822383" y="157.104638" style="stroke: #000000; stroke-width: 1.5"/>
     <use xlink:href="#md835c0e256" x="282.838301" y="59.793559" style="stroke: #000000; stroke-width: 1.5"/>
     <use xlink:href="#md835c0e256" x="291.614719" y="108.129976" style="stroke: #000000; stroke-width: 1.5"/>
     <use xlink:href="#md835c0e256" x="301.408182" y="96.060708" style="stroke: #000000; stroke-width: 1.5"/>
     <use xlink:href="#md835c0e256" x="314.372742" y="129.316832" style="stroke: #000000; stroke-width: 1.5"/>
     <use xlink:href="#md835c0e256" x="296.026936" y="47.469146" style="stroke: #000000; stroke-width: 1.5"/>
     <use xlink:href="#md835c0e256" x="317.341804" y="123.41556" style="stroke: #000000; stroke-width: 1.5"/>
     <use xlink:href="#md835c0e256" x="297.729939" y="120.080682" style="stroke: #000000; stroke-width: 1.5"/>
     <use xlink:href="#md835c0e256" x="288.806787" y="99.3391" style="stroke: #000000; stroke-width: 1.5"/>
     <use xlink:href="#md835c0e256" x="310.732986" y="138.919179" style="stroke: #000000; stroke-width: 1.5"/>
     <use xlink:href="#md835c0e256" x="251.33046" y="99.955527" style="stroke: #000000; stroke-width: 1.5"/>
     <use xlink:href="#md835c0e256" x="283.090771" y="82.443551" style="stroke: #000000; stroke-width: 1.5"/>
     <use xlink:href="#md835c0e256" x="293.729691" y="81.81312" style="stroke: #000000; stroke-width: 1.5"/>
    </g>
   </g>
   <g id="PathCollection_2">
    <defs>
     <path id="m9a27a189e3" d="M 0 1.322876 
C 0.350831 1.322876 0.68734 1.183489 0.935414 0.935414 
C 1.183489 0.68734 1.322876 0.350831 1.322876 0 
C 1.322876 -0.350831 1.183489 -0.68734 0.935414 -0.935414 
C 0.68734 -1.183489 0.350831 -1.322876 0 -1.322876 
C -0.350831 -1.322876 -0.68734 -1.183489 -0.935414 -0.935414 
C -1.183489 -0.68734 -1.322876 -0.350831 -1.322876 0 
C -1.322876 0.350831 -1.183489 0.68734 -0.935414 0.935414 
C -0.68734 1.183489 -0.350831 1.322876 0 1.322876 
z
" style="stroke: #1f77b4"/>
    </defs>
    <g clip-path="url(#p537d6cb569)">
     <use xlink:href="#m9a27a189e3" x="74.61336" y="115.26862" style="fill: #1f77b4; stroke: #1f77b4"/>
     <use xlink:href="#m9a27a189e3" x="77.475827" y="115.268977" style="fill: #1f77b4; stroke: #1f77b4"/>
     <use xlink:href="#m9a27a189e3" x="78.336657" y="115.265705" style="fill: #1f77b4; stroke: #1f77b4"/>
     <use xlink:href="#m9a27a189e3" x="76.321103" y="115.27083" style="fill: #1f77b4; stroke: #1f77b4"/>
     <use xlink:href="#m9a27a189e3" x="84.05818" y="115.195999" style="fill: #1f77b4; stroke: #1f77b4"/>
     <use xlink:href="#m9a27a189e3" x="88.028355" y="115.086036" style="fill: #1f77b4; stroke: #1f77b4"/>
     <use xlink:href="#m9a27a189e3" x="97.974531" y="114.492202" style="fill: #1f77b4; stroke: #1f77b4"/>
     <use xlink:href="#m9a27a189e3" x="96.498108" y="114.613583" style="fill: #1f77b4; stroke: #1f77b4"/>
     <use xlink:href="#m9a27a189e3" x="100.520372" y="114.255326" style="fill: #1f77b4; stroke: #1f77b4"/>
     <use xlink:href="#m9a27a189e3" x="98.659804" y="114.431807" style="fill: #1f77b4; stroke: #1f77b4"/>
     <use xlink:href="#m9a27a189e3" x="100.935762" y="114.213538" style="fill: #1f77b4; stroke: #1f77b4"/>
     <use xlink:href="#m9a27a189e3" x="105.012047" y="113.764626" style="fill: #1f77b4; stroke: #1f77b4"/>
     <use xlink:href="#m9a27a189e3" x="102.35086" y="114.065152" style="fill: #1f77b4; stroke: #1f77b4"/>
     <use xlink:href="#m9a27a189e3" x="104.273051" y="113.850468" style="fill: #1f77b4; stroke: #1f77b4"/>
     <use xlink:href="#m9a27a189e3" x="102.598953" y="114.038236" style="fill: #1f77b4; stroke: #1f77b4"/>
     <use xlink:href="#m9a27a189e3" x="117.145597" y="112.377694" style="fill: #1f77b4; stroke: #1f77b4"/>
     <use xlink:href="#m9a27a189e3" x="123.881527" y="111.902626" style="fill: #1f77b4; stroke: #1f77b4"/>
     <use xlink:href="#m9a27a189e3" x="116.403522" y="112.448324" style="fill: #1f77b4; stroke: #1f77b4"/>
     <use xlink:href="#m9a27a189e3" x="138.47211" y="111.876963" style="fill: #1f77b4; stroke: #1f77b4"/>
     <use xlink:href="#m9a27a189e3" x="155.719774" y="112.865057" style="fill: #1f77b4; stroke: #1f77b4"/>
     <use xlink:href="#m9a27a189e3" x="129.053615" y="111.751541" style="fill: #1f77b4; stroke: #1f77b4"/>
     <use xlink:href="#m9a27a189e3" x="151.041464" y="112.547594" style="fill: #1f77b4; stroke: #1f77b4"/>
     <use xlink:href="#m9a27a189e3" x="152.884385" y="112.670965" style="fill: #1f77b4; stroke: #1f77b4"/>
     <use xlink:href="#m9a27a189e3" x="171.545058" y="113.734929" style="fill: #1f77b4; stroke: #1f77b4"/>
     <use xlink:href="#m9a27a189e3" x="168.630654" y="113.642139" style="fill: #1f77b4; stroke: #1f77b4"/>
     <use xlink:href="#m9a27a189e3" x="173.552353" y="113.763695" style="fill: #1f77b4; stroke: #1f77b4"/>
     <use xlink:href="#m9a27a189e3" x="178.782602" y="113.644951" style="fill: #1f77b4; stroke: #1f77b4"/>
     <use xlink:href="#m9a27a189e3" x="199.075156" y="106.469183" style="fill: #1f77b4; stroke: #1f77b4"/>
     <use xlink:href="#m9a27a189e3" x="216.32762" y="81.833482" style="fill: #1f77b4; stroke: #1f77b4"/>
     <use xlink:href="#m9a27a189e3" x="232.690941" y="57.4524" style="fill: #1f77b4; stroke: #1f77b4"/>
     <use xlink:href="#m9a27a189e3" x="236.778042" y="54.821863" style="fill: #1f77b4; stroke: #1f77b4"/>
     <use xlink:href="#m9a27a189e3" x="239.978432" y="53.920284" style="fill: #1f77b4; stroke: #1f77b4"/>
     <use xlink:href="#m9a27a189e3" x="240.809233" y="53.850842" style="fill: #1f77b4; stroke: #1f77b4"/>
     <use xlink:href="#m9a27a189e3" x="216.041827" y="82.360332" style="fill: #1f77b4; stroke: #1f77b4"/>
     <use xlink:href="#m9a27a189e3" x="239.035727" y="54.080843" style="fill: #1f77b4; stroke: #1f77b4"/>
     <use xlink:href="#m9a27a189e3" x="238.836203" y="54.126029" style="fill: #1f77b4; stroke: #1f77b4"/>
     <use xlink:href="#m9a27a189e3" x="232.212334" y="57.86866" style="fill: #1f77b4; stroke: #1f77b4"/>
     <use xlink:href="#m9a27a189e3" x="265.918835" y="81.17176" style="fill: #1f77b4; stroke: #1f77b4"/>
     <use xlink:href="#m9a27a189e3" x="273.329491" y="97.582536" style="fill: #1f77b4; stroke: #1f77b4"/>
     <use xlink:href="#m9a27a189e3" x="253.138533" y="60.464888" style="fill: #1f77b4; stroke: #1f77b4"/>
     <use xlink:href="#m9a27a189e3" x="253.204035" y="60.536928" style="fill: #1f77b4; stroke: #1f77b4"/>
     <use xlink:href="#m9a27a189e3" x="251.96015" y="59.23329" style="fill: #1f77b4; stroke: #1f77b4"/>
     <use xlink:href="#m9a27a189e3" x="232.973396" y="57.2173" style="fill: #1f77b4; stroke: #1f77b4"/>
     <use xlink:href="#m9a27a189e3" x="280.262923" y="112.793692" style="fill: #1f77b4; stroke: #1f77b4"/>
     <use xlink:href="#m9a27a189e3" x="263.246472" y="75.835155" style="fill: #1f77b4; stroke: #1f77b4"/>
     <use xlink:href="#m9a27a189e3" x="234.586438" y="56.025866" style="fill: #1f77b4; stroke: #1f77b4"/>
     <use xlink:href="#m9a27a189e3" x="265.884162" y="81.099786" style="fill: #1f77b4; stroke: #1f77b4"/>
     <use xlink:href="#m9a27a189e3" x="259.219644" y="68.724975" style="fill: #1f77b4; stroke: #1f77b4"/>
     <use xlink:href="#m9a27a189e3" x="246.222004" y="55.020609" style="fill: #1f77b4; stroke: #1f77b4"/>
     <use xlink:href="#m9a27a189e3" x="324.84207" y="149.66329" style="fill: #1f77b4; stroke: #1f77b4"/>
     <use xlink:href="#m9a27a189e3" x="309.553281" y="145.054685" style="fill: #1f77b4; stroke: #1f77b4"/>
     <use xlink:href="#m9a27a189e3" x="281.953736" y="116.160636" style="fill: #1f77b4; stroke: #1f77b4"/>
     <use xlink:href="#m9a27a189e3" x="253.40689" y="60.762474" style="fill: #1f77b4; stroke: #1f77b4"/>
     <use xlink:href="#m9a27a189e3" x="252.008605" y="59.281511" style="fill: #1f77b4; stroke: #1f77b4"/>
     <use xlink:href="#m9a27a189e3" x="296.833188" y="136.971272" style="fill: #1f77b4; stroke: #1f77b4"/>
     <use xlink:href="#m9a27a189e3" x="300.866424" y="140.213141" style="fill: #1f77b4; stroke: #1f77b4"/>
     <use xlink:href="#m9a27a189e3" x="282.043566" y="116.334299" style="fill: #1f77b4; stroke: #1f77b4"/>
     <use xlink:href="#m9a27a189e3" x="276.524465" y="104.793495" style="fill: #1f77b4; stroke: #1f77b4"/>
     <use xlink:href="#m9a27a189e3" x="274.658427" y="100.604192" style="fill: #1f77b4; stroke: #1f77b4"/>
     <use xlink:href="#m9a27a189e3" x="291.428304" y="131.213514" style="fill: #1f77b4; stroke: #1f77b4"/>
     <use xlink:href="#m9a27a189e3" x="295.764851" y="135.973236" style="fill: #1f77b4; stroke: #1f77b4"/>
     <use xlink:href="#m9a27a189e3" x="269.735554" y="89.434176" style="fill: #1f77b4; stroke: #1f77b4"/>
     <use xlink:href="#m9a27a189e3" x="301.889576" y="140.91856" style="fill: #1f77b4; stroke: #1f77b4"/>
     <use xlink:href="#m9a27a189e3" x="312.79051" y="146.336958" style="fill: #1f77b4; stroke: #1f77b4"/>
     <use xlink:href="#m9a27a189e3" x="317.163592" y="147.763669" style="fill: #1f77b4; stroke: #1f77b4"/>
     <use xlink:href="#m9a27a189e3" x="293.059005" y="133.144768" style="fill: #1f77b4; stroke: #1f77b4"/>
     <use xlink:href="#m9a27a189e3" x="243.048385" y="53.996545" style="fill: #1f77b4; stroke: #1f77b4"/>
     <use xlink:href="#m9a27a189e3" x="276.634965" y="105.038554" style="fill: #1f77b4; stroke: #1f77b4"/>
     <use xlink:href="#m9a27a189e3" x="287.466306" y="125.735453" style="fill: #1f77b4; stroke: #1f77b4"/>
     <use xlink:href="#m9a27a189e3" x="267.079473" y="83.616777" style="fill: #1f77b4; stroke: #1f77b4"/>
     <use xlink:href="#m9a27a189e3" x="294.444853" y="134.649432" style="fill: #1f77b4; stroke: #1f77b4"/>
     <use xlink:href="#m9a27a189e3" x="312.155837" y="146.102502" style="fill: #1f77b4; stroke: #1f77b4"/>
     <use xlink:href="#m9a27a189e3" x="302.857661" y="141.547699" style="fill: #1f77b4; stroke: #1f77b4"/>
     <use xlink:href="#m9a27a189e3" x="265.890023" y="81.111946" style="fill: #1f77b4; stroke: #1f77b4"/>
     <use xlink:href="#m9a27a189e3" x="246.202351" y="55.011351" style="fill: #1f77b4; stroke: #1f77b4"/>
     <use xlink:href="#m9a27a189e3" x="275.572676" y="102.667458" style="fill: #1f77b4; stroke: #1f77b4"/>
     <use xlink:href="#m9a27a189e3" x="258.452633" y="67.512553" style="fill: #1f77b4; stroke: #1f77b4"/>
     <use xlink:href="#m9a27a189e3" x="310.17182" y="145.317092" style="fill: #1f77b4; stroke: #1f77b4"/>
     <use xlink:href="#m9a27a189e3" x="245.26358" y="54.611561" style="fill: #1f77b4; stroke: #1f77b4"/>
     <use xlink:href="#m9a27a189e3" x="302.55723" y="141.356287" style="fill: #1f77b4; stroke: #1f77b4"/>
     <use xlink:href="#m9a27a189e3" x="281.556832" y="115.386784" style="fill: #1f77b4; stroke: #1f77b4"/>
     <use xlink:href="#m9a27a189e3" x="297.216621" y="137.314235" style="fill: #1f77b4; stroke: #1f77b4"/>
     <use xlink:href="#m9a27a189e3" x="294.6079" y="134.818583" style="fill: #1f77b4; stroke: #1f77b4"/>
     <use xlink:href="#m9a27a189e3" x="262.714196" y="74.827285" style="fill: #1f77b4; stroke: #1f77b4"/>
     <use xlink:href="#m9a27a189e3" x="333.199687" y="151.158706" style="fill: #1f77b4; stroke: #1f77b4"/>
     <use xlink:href="#m9a27a189e3" x="309.334399" y="144.959701" style="fill: #1f77b4; stroke: #1f77b4"/>
     <use xlink:href="#m9a27a189e3" x="276.793771" y="105.389986" style="fill: #1f77b4; stroke: #1f77b4"/>
     <use xlink:href="#m9a27a189e3" x="361.822383" y="154.098428" style="fill: #1f77b4; stroke: #1f77b4"/>
     <use xlink:href="#m9a27a189e3" x="282.838301" y="117.846703" style="fill: #1f77b4; stroke: #1f77b4"/>
     <use xlink:href="#m9a27a189e3" x="291.614719" y="131.443419" style="fill: #1f77b4; stroke: #1f77b4"/>
     <use xlink:href="#m9a27a189e3" x="301.408182" y="140.592007" style="fill: #1f77b4; stroke: #1f77b4"/>
     <use xlink:href="#m9a27a189e3" x="314.372742" y="146.889278" style="fill: #1f77b4; stroke: #1f77b4"/>
     <use xlink:href="#m9a27a189e3" x="296.026936" y="136.223974" style="fill: #1f77b4; stroke: #1f77b4"/>
     <use xlink:href="#m9a27a189e3" x="317.341804" y="147.815602" style="fill: #1f77b4; stroke: #1f77b4"/>
     <use xlink:href="#m9a27a189e3" x="297.729939" y="137.761229" style="fill: #1f77b4; stroke: #1f77b4"/>
     <use xlink:href="#m9a27a189e3" x="288.806787" y="127.718359" style="fill: #1f77b4; stroke: #1f77b4"/>
     <use xlink:href="#m9a27a189e3" x="310.732986" y="145.547708" style="fill: #1f77b4; stroke: #1f77b4"/>
     <use xlink:href="#m9a27a189e3" x="251.33046" y="58.625666" style="fill: #1f77b4; stroke: #1f77b4"/>
     <use xlink:href="#m9a27a189e3" x="283.090771" y="118.317892" style="fill: #1f77b4; stroke: #1f77b4"/>
     <use xlink:href="#m9a27a189e3" x="293.729691" y="133.888125" style="fill: #1f77b4; stroke: #1f77b4"/>
     <use xlink:href="#m9a27a189e3" x="299.145372" y="138.924908" style="fill: #1f77b4; stroke: #1f77b4"/>
    </g>
   </g>
   <g id="matplotlib.axis_1">
    <g id="xtick_1">
     <g id="line2d_1">
      <defs>
       <path id="m63608039f7" d="M 0 0 
L 0 3.5 
" style="stroke: #000000; stroke-width: 0.8"/>
      </defs>
      <g>
       <use xlink:href="#m63608039f7" x="97.154302" y="193.536948" style="stroke: #000000; stroke-width: 0.8"/>
      </g>
     </g>
     <g id="text_1">
      <!-- $\mathdefault{0.5}$ -->
      <g transform="translate(88.429011 210.222825) scale(0.14 -0.14)">
       <defs>
        <path id="CMR17-30" d="M 2688 2025 
C 2688 2416 2682 3080 2413 3591 
C 2176 4039 1798 4198 1466 4198 
C 1158 4198 768 4058 525 3597 
C 269 3118 243 2524 243 2025 
C 243 1661 250 1106 448 619 
C 723 -39 1216 -128 1466 -128 
C 1760 -128 2208 -7 2470 600 
C 2662 1042 2688 1559 2688 2025 
z
M 1466 -26 
C 1056 -26 813 325 723 812 
C 653 1188 653 1738 653 2096 
C 653 2588 653 2997 736 3387 
C 858 3929 1216 4096 1466 4096 
C 1728 4096 2067 3923 2189 3400 
C 2272 3036 2278 2607 2278 2096 
C 2278 1680 2278 1169 2202 792 
C 2067 95 1690 -26 1466 -26 
z
" transform="scale(0.015625)"/>
        <path id="CMMI12-3a" d="M 1178 307 
C 1178 492 1024 619 870 619 
C 685 619 557 466 557 313 
C 557 128 710 0 864 0 
C 1050 0 1178 153 1178 307 
z
" transform="scale(0.015625)"/>
        <path id="CMR17-35" d="M 730 3692 
C 794 3666 1056 3584 1325 3584 
C 1920 3584 2246 3911 2432 4100 
C 2432 4157 2432 4192 2394 4192 
C 2387 4192 2374 4192 2323 4163 
C 2099 4058 1837 3973 1517 3973 
C 1325 3973 1037 3999 723 4139 
C 653 4171 640 4171 634 4171 
C 602 4171 595 4164 595 4037 
L 595 2203 
C 595 2089 595 2057 659 2057 
C 691 2057 704 2070 736 2114 
C 941 2401 1222 2522 1542 2522 
C 1766 2522 2246 2382 2246 1289 
C 2246 1085 2246 715 2054 421 
C 1894 159 1645 25 1370 25 
C 947 25 518 320 403 814 
C 429 807 480 795 506 795 
C 589 795 749 840 749 1038 
C 749 1210 627 1280 506 1280 
C 358 1280 262 1190 262 1011 
C 262 454 704 -128 1382 -128 
C 2042 -128 2669 440 2669 1264 
C 2669 2030 2170 2624 1549 2624 
C 1222 2624 947 2503 730 2274 
L 730 3692 
z
" transform="scale(0.015625)"/>
       </defs>
       <use xlink:href="#CMR17-30" transform="scale(0.996264)"/>
       <use xlink:href="#CMMI12-3a" transform="translate(45.690477 0) scale(0.996264)"/>
       <use xlink:href="#CMR17-35" transform="translate(72.787654 0) scale(0.996264)"/>
      </g>
     </g>
    </g>
    <g id="xtick_2">
     <g id="line2d_2">
      <g>
       <use xlink:href="#m63608039f7" x="135.941586" y="193.536948" style="stroke: #000000; stroke-width: 0.8"/>
      </g>
     </g>
     <g id="text_2">
      <!-- $\mathdefault{1.0}$ -->
      <g transform="translate(127.216295 210.222825) scale(0.14 -0.14)">
       <defs>
        <path id="CMR17-31" d="M 1702 4058 
C 1702 4192 1696 4192 1606 4192 
C 1357 3916 979 3827 621 3827 
C 602 3827 570 3827 563 3808 
C 557 3795 557 3782 557 3648 
C 755 3648 1088 3686 1344 3839 
L 1344 461 
C 1344 236 1331 160 781 160 
L 589 160 
L 589 0 
C 896 0 1216 0 1523 0 
C 1830 0 2150 0 2458 0 
L 2458 160 
L 2266 160 
C 1715 160 1702 230 1702 458 
L 1702 4058 
z
" transform="scale(0.015625)"/>
       </defs>
       <use xlink:href="#CMR17-31" transform="scale(0.996264)"/>
       <use xlink:href="#CMMI12-3a" transform="translate(45.690477 0) scale(0.996264)"/>
       <use xlink:href="#CMR17-30" transform="translate(72.787654 0) scale(0.996264)"/>
      </g>
     </g>
    </g>
    <g id="xtick_3">
     <g id="line2d_3">
      <g>
       <use xlink:href="#m63608039f7" x="174.72887" y="193.536948" style="stroke: #000000; stroke-width: 0.8"/>
      </g>
     </g>
     <g id="text_3">
      <!-- $\mathdefault{1.5}$ -->
      <g transform="translate(166.003579 210.222825) scale(0.14 -0.14)">
       <use xlink:href="#CMR17-31" transform="scale(0.996264)"/>
       <use xlink:href="#CMMI12-3a" transform="translate(45.690477 0) scale(0.996264)"/>
       <use xlink:href="#CMR17-35" transform="translate(72.787654 0) scale(0.996264)"/>
      </g>
     </g>
    </g>
    <g id="xtick_4">
     <g id="line2d_4">
      <g>
       <use xlink:href="#m63608039f7" x="213.516154" y="193.536948" style="stroke: #000000; stroke-width: 0.8"/>
      </g>
     </g>
     <g id="text_4">
      <!-- $\mathdefault{2.0}$ -->
      <g transform="translate(204.790863 210.222825) scale(0.14 -0.14)">
       <defs>
        <path id="CMR17-32" d="M 2669 989 
L 2554 989 
C 2490 536 2438 459 2413 420 
C 2381 369 1920 369 1830 369 
L 602 369 
C 832 619 1280 1072 1824 1597 
C 2214 1967 2669 2402 2669 3035 
C 2669 3790 2067 4224 1395 4224 
C 691 4224 262 3604 262 3030 
C 262 2780 448 2748 525 2748 
C 589 2748 781 2787 781 3010 
C 781 3207 614 3264 525 3264 
C 486 3264 448 3258 422 3245 
C 544 3790 915 4058 1306 4058 
C 1862 4058 2227 3617 2227 3035 
C 2227 2479 1901 2000 1536 1584 
L 262 146 
L 262 0 
L 2515 0 
L 2669 989 
z
" transform="scale(0.015625)"/>
       </defs>
       <use xlink:href="#CMR17-32" transform="scale(0.996264)"/>
       <use xlink:href="#CMMI12-3a" transform="translate(45.690477 0) scale(0.996264)"/>
       <use xlink:href="#CMR17-30" transform="translate(72.787654 0) scale(0.996264)"/>
      </g>
     </g>
    </g>
    <g id="xtick_5">
     <g id="line2d_5">
      <g>
       <use xlink:href="#m63608039f7" x="252.303438" y="193.536948" style="stroke: #000000; stroke-width: 0.8"/>
      </g>
     </g>
     <g id="text_5">
      <!-- $\mathdefault{2.5}$ -->
      <g transform="translate(243.578147 210.222825) scale(0.14 -0.14)">
       <use xlink:href="#CMR17-32" transform="scale(0.996264)"/>
       <use xlink:href="#CMMI12-3a" transform="translate(45.690477 0) scale(0.996264)"/>
       <use xlink:href="#CMR17-35" transform="translate(72.787654 0) scale(0.996264)"/>
      </g>
     </g>
    </g>
    <g id="xtick_6">
     <g id="line2d_6">
      <g>
       <use xlink:href="#m63608039f7" x="291.090722" y="193.536948" style="stroke: #000000; stroke-width: 0.8"/>
      </g>
     </g>
     <g id="text_6">
      <!-- $\mathdefault{3.0}$ -->
      <g transform="translate(282.365431 210.222825) scale(0.14 -0.14)">
       <defs>
        <path id="CMR17-33" d="M 1414 2157 
C 1984 2157 2234 1662 2234 1090 
C 2234 320 1824 25 1453 25 
C 1114 25 563 194 390 693 
C 422 680 454 680 486 680 
C 640 680 755 782 755 948 
C 755 1133 614 1216 486 1216 
C 378 1216 211 1165 211 926 
C 211 335 787 -128 1466 -128 
C 2176 -128 2720 430 2720 1085 
C 2720 1707 2208 2157 1600 2227 
C 2086 2328 2554 2756 2554 3329 
C 2554 3820 2048 4179 1472 4179 
C 890 4179 378 3829 378 3329 
C 378 3110 544 3072 627 3072 
C 762 3072 877 3155 877 3321 
C 877 3486 762 3569 627 3569 
C 602 3569 570 3569 544 3557 
C 730 3959 1235 4032 1459 4032 
C 1683 4032 2106 3925 2106 3320 
C 2106 3143 2080 2828 1862 2550 
C 1670 2304 1453 2304 1242 2284 
C 1210 2284 1062 2269 1037 2269 
C 992 2263 966 2257 966 2208 
C 966 2163 973 2157 1101 2157 
L 1414 2157 
z
" transform="scale(0.015625)"/>
       </defs>
       <use xlink:href="#CMR17-33" transform="scale(0.996264)"/>
       <use xlink:href="#CMMI12-3a" transform="translate(45.690477 0) scale(0.996264)"/>
       <use xlink:href="#CMR17-30" transform="translate(72.787654 0) scale(0.996264)"/>
      </g>
     </g>
    </g>
    <g id="xtick_7">
     <g id="line2d_7">
      <g>
       <use xlink:href="#m63608039f7" x="329.878006" y="193.536948" style="stroke: #000000; stroke-width: 0.8"/>
      </g>
     </g>
     <g id="text_7">
      <!-- $\mathdefault{3.5}$ -->
      <g transform="translate(321.152715 210.222825) scale(0.14 -0.14)">
       <use xlink:href="#CMR17-33" transform="scale(0.996264)"/>
       <use xlink:href="#CMMI12-3a" transform="translate(45.690477 0) scale(0.996264)"/>
       <use xlink:href="#CMR17-35" transform="translate(72.787654 0) scale(0.996264)"/>
      </g>
     </g>
    </g>
    <g id="xtick_8">
     <g id="line2d_8">
      <g>
       <use xlink:href="#m63608039f7" x="368.66529" y="193.536948" style="stroke: #000000; stroke-width: 0.8"/>
      </g>
     </g>
     <g id="text_8">
      <!-- $\mathdefault{4.0}$ -->
      <g transform="translate(359.939999 210.222825) scale(0.14 -0.14)">
       <defs>
        <path id="CMR17-34" d="M 2150 4122 
C 2150 4256 2144 4256 2029 4256 
L 128 1254 
L 128 1088 
L 1779 1088 
L 1779 457 
C 1779 224 1766 160 1318 160 
L 1197 160 
L 1197 0 
C 1402 0 1747 0 1965 0 
C 2182 0 2528 0 2733 0 
L 2733 160 
L 2611 160 
C 2163 160 2150 224 2150 457 
L 2150 1088 
L 2803 1088 
L 2803 1254 
L 2150 1254 
L 2150 4122 
z
M 1798 3703 
L 1798 1254 
L 256 1254 
L 1798 3703 
z
" transform="scale(0.015625)"/>
       </defs>
       <use xlink:href="#CMR17-34" transform="scale(0.996264)"/>
       <use xlink:href="#CMMI12-3a" transform="translate(45.690477 0) scale(0.996264)"/>
       <use xlink:href="#CMR17-30" transform="translate(72.787654 0) scale(0.996264)"/>
      </g>
     </g>
    </g>
    <g id="text_9">
     <!-- P -->
     <g transform="translate(213.57191 226.620729) scale(0.14 -0.14)">
      <defs>
       <path id="CMR17-50" d="M 1267 2042 
L 2291 2042 
C 3117 2042 3718 2578 3718 3184 
C 3718 3791 3130 4352 2291 4352 
L 333 4352 
L 333 4186 
C 774 4186 845 4186 845 3899 
L 845 446 
C 845 160 774 160 333 160 
L 333 0 
C 518 0 858 0 1056 0 
C 1254 0 1594 0 1779 0 
L 1779 160 
C 1338 160 1267 160 1267 446 
L 1267 2042 
z
M 1254 2176 
L 1254 3938 
C 1254 4155 1267 4186 1523 4186 
L 2170 4186 
C 2995 4186 3232 3714 3232 3184 
C 3232 2604 2950 2176 2170 2176 
L 1254 2176 
z
" transform="scale(0.015625)"/>
      </defs>
      <use xlink:href="#CMR17-50" transform="scale(0.996264)"/>
     </g>
    </g>
   </g>
   <g id="matplotlib.axis_2">
    <g id="ytick_1">
     <g id="line2d_9">
      <defs>
       <path id="m692d00c977" d="M 0 0 
L -3.5 0 
" style="stroke: #000000; stroke-width: 0.8"/>
      </defs>
      <g>
       <use xlink:href="#m692d00c977" x="60.252909" y="193.536948" style="stroke: #000000; stroke-width: 0.8"/>
      </g>
     </g>
     <g id="text_10">
      <!-- $\mathdefault{−15}$ -->
      <g transform="translate(28.747696 198.379886) scale(0.14 -0.14)">
       <defs>
        <path id="CMSY10-0" d="M 4218 1472 
C 4326 1472 4442 1472 4442 1600 
C 4442 1728 4326 1728 4218 1728 
L 755 1728 
C 646 1728 531 1728 531 1600 
C 531 1472 646 1472 755 1472 
L 4218 1472 
z
" transform="scale(0.015625)"/>
       </defs>
       <use xlink:href="#CMSY10-0" transform="scale(0.996264)"/>
       <use xlink:href="#CMR17-31" transform="translate(77.487468 0) scale(0.996264)"/>
       <use xlink:href="#CMR17-35" transform="translate(123.177945 0) scale(0.996264)"/>
      </g>
     </g>
    </g>
    <g id="ytick_2">
     <g id="line2d_10">
      <g>
       <use xlink:href="#m692d00c977" x="60.252909" y="168.123518" style="stroke: #000000; stroke-width: 0.8"/>
      </g>
     </g>
     <g id="text_11">
      <!-- $\mathdefault{−10}$ -->
      <g transform="translate(28.747696 172.966456) scale(0.14 -0.14)">
       <use xlink:href="#CMSY10-0" transform="scale(0.996264)"/>
       <use xlink:href="#CMR17-31" transform="translate(77.487468 0) scale(0.996264)"/>
       <use xlink:href="#CMR17-30" transform="translate(123.177945 0) scale(0.996264)"/>
      </g>
     </g>
    </g>
    <g id="ytick_3">
     <g id="line2d_11">
      <g>
       <use xlink:href="#m692d00c977" x="60.252909" y="142.710088" style="stroke: #000000; stroke-width: 0.8"/>
      </g>
     </g>
     <g id="text_12">
      <!-- $\mathdefault{−5}$ -->
      <g transform="translate(35.576185 147.553026) scale(0.14 -0.14)">
       <use xlink:href="#CMSY10-0" transform="scale(0.996264)"/>
       <use xlink:href="#CMR17-35" transform="translate(77.487468 0) scale(0.996264)"/>
      </g>
     </g>
    </g>
    <g id="ytick_4">
     <g id="line2d_12">
      <g>
       <use xlink:href="#m692d00c977" x="60.252909" y="117.296658" style="stroke: #000000; stroke-width: 0.8"/>
      </g>
     </g>
     <g id="text_13">
      <!-- $\mathdefault{0}$ -->
      <g transform="translate(46.42442 122.139596) scale(0.14 -0.14)">
       <use xlink:href="#CMR17-30" transform="scale(0.996264)"/>
      </g>
     </g>
    </g>
    <g id="ytick_5">
     <g id="line2d_13">
      <g>
       <use xlink:href="#m692d00c977" x="60.252909" y="91.883228" style="stroke: #000000; stroke-width: 0.8"/>
      </g>
     </g>
     <g id="text_14">
      <!-- $\mathdefault{5}$ -->
      <g transform="translate(46.42442 96.726166) scale(0.14 -0.14)">
       <use xlink:href="#CMR17-35" transform="scale(0.996264)"/>
      </g>
     </g>
    </g>
    <g id="ytick_6">
     <g id="line2d_14">
      <g>
       <use xlink:href="#m692d00c977" x="60.252909" y="66.469798" style="stroke: #000000; stroke-width: 0.8"/>
      </g>
     </g>
     <g id="text_15">
      <!-- $\mathdefault{10}$ -->
      <g transform="translate(39.595931 71.312736) scale(0.14 -0.14)">
       <use xlink:href="#CMR17-31" transform="scale(0.996264)"/>
       <use xlink:href="#CMR17-30" transform="translate(45.690477 0) scale(0.996264)"/>
      </g>
     </g>
    </g>
    <g id="ytick_7">
     <g id="line2d_15">
      <g>
       <use xlink:href="#m692d00c977" x="60.252909" y="41.056368" style="stroke: #000000; stroke-width: 0.8"/>
      </g>
     </g>
     <g id="text_16">
      <!-- $\mathdefault{15}$ -->
      <g transform="translate(39.595931 45.899306) scale(0.14 -0.14)">
       <use xlink:href="#CMR17-31" transform="scale(0.996264)"/>
       <use xlink:href="#CMR17-35" transform="translate(45.690477 0) scale(0.996264)"/>
      </g>
     </g>
    </g>
    <g id="ytick_8">
     <g id="line2d_16">
      <g>
       <use xlink:href="#m692d00c977" x="60.252909" y="15.642938" style="stroke: #000000; stroke-width: 0.8"/>
      </g>
     </g>
     <g id="text_17">
      <!-- $\mathdefault{20}$ -->
      <g transform="translate(39.595931 20.485876) scale(0.14 -0.14)">
       <use xlink:href="#CMR17-32" transform="scale(0.996264)"/>
       <use xlink:href="#CMR17-30" transform="translate(45.690477 0) scale(0.996264)"/>
      </g>
     </g>
    </g>
    <g id="text_18">
     <!-- $\phi(P)$ -->
     <g transform="translate(21.260772 119.29218) rotate(-90) scale(0.14 -0.14)">
      <defs>
       <path id="CMMI12-1e" d="M 2752 4390 
C 2752 4448 2707 4448 2688 4448 
C 2630 4448 2624 4435 2598 4326 
L 2253 2939 
C 2234 2856 2227 2849 2221 2843 
C 2214 2830 2170 2824 2157 2824 
C 1107 2734 301 1864 301 1057 
C 301 361 832 -64 1498 -64 
C 1446 -261 1402 -463 1350 -659 
C 1261 -995 1210 -1204 1210 -1229 
C 1210 -1241 1210 -1280 1274 -1280 
C 1293 -1280 1318 -1280 1331 -1254 
C 1344 -1241 1382 -1089 1408 -1008 
L 1645 -64 
C 2739 -64 3571 854 3571 1680 
C 3571 2343 3085 2816 2374 2816 
L 2752 4390 
z
M 2336 2701 
C 2758 2701 3181 2463 3181 1828 
C 3181 1097 2675 128 1677 50 
L 2336 2701 
z
M 1530 50 
C 1216 50 691 220 691 938 
C 691 1761 1274 2676 2195 2676 
L 1530 50 
z
" transform="scale(0.015625)"/>
       <path id="CMR17-28" d="M 1958 -1561 
C 1958 -1555 1958 -1542 1939 -1523 
C 1645 -1224 858 -407 858 1581 
C 858 3569 1632 4379 1946 4697 
C 1946 4704 1958 4717 1958 4736 
C 1958 4755 1939 4768 1914 4768 
C 1843 4768 1299 4296 986 3594 
C 666 2887 576 2199 576 1588 
C 576 1128 621 351 1005 -471 
C 1312 -1135 1837 -1600 1914 -1600 
C 1946 -1600 1958 -1587 1958 -1561 
z
" transform="scale(0.015625)"/>
       <path id="CMMI12-50" d="M 1894 2023 
L 2970 2023 
C 3853 2023 4736 2673 4736 3401 
C 4736 3898 4314 4352 3507 4352 
L 1530 4352 
C 1408 4352 1350 4352 1350 4231 
C 1350 4167 1408 4167 1504 4167 
C 1894 4167 1894 4116 1894 4046 
C 1894 4034 1894 3995 1869 3899 
L 1005 472 
C 947 249 934 185 486 185 
C 365 185 301 185 301 70 
C 301 0 358 0 397 0 
C 518 0 646 0 768 0 
L 1517 0 
C 1638 0 1773 0 1894 0 
C 1946 0 2016 0 2016 121 
C 2016 185 1958 185 1862 185 
C 1478 185 1472 230 1472 293 
C 1472 325 1478 369 1485 401 
L 1894 2023 
z
M 2355 3930 
C 2413 4167 2438 4167 2688 4167 
L 3322 4167 
C 3802 4167 4198 4013 4198 3535 
C 4198 3369 4115 2827 3821 2534 
C 3712 2419 3405 2176 2822 2176 
L 1920 2176 
L 2355 3930 
z
" transform="scale(0.015625)"/>
       <path id="CMR17-29" d="M 1683 1581 
C 1683 2040 1638 2817 1254 3639 
C 947 4303 422 4768 346 4768 
C 326 4768 301 4761 301 4729 
C 301 4717 307 4710 314 4697 
C 621 4378 1402 3568 1402 1584 
C 1402 -407 627 -1217 314 -1537 
C 307 -1549 301 -1556 301 -1568 
C 301 -1600 326 -1600 346 -1600 
C 416 -1600 960 -1128 1274 -426 
C 1594 281 1683 969 1683 1581 
z
" transform="scale(0.015625)"/>
      </defs>
      <use xlink:href="#CMMI12-1e" transform="scale(0.996264)"/>
      <use xlink:href="#CMR17-28" transform="translate(57.73418 0) scale(0.996264)"/>
      <use xlink:href="#CMMI12-50" transform="translate(93.014948 0) scale(0.996264)"/>
      <use xlink:href="#CMR17-29" transform="translate(169.440769 0) scale(0.996264)"/>
     </g>
    </g>
   </g>
   <g id="line2d_17">
    <path d="M 74.61336 105.414848 
L 76.321103 104.269471 
L 77.475827 103.506169 
L 78.336657 102.943 
L 84.05818 99.327121 
L 88.028355 96.94805 
L 96.498108 92.228634 
L 97.974531 91.45557 
L 98.659804 91.101762 
L 100.520372 90.157148 
L 100.935762 89.949448 
L 102.35086 89.250632 
L 102.598953 89.129511 
L 104.273051 88.323072 
L 105.012047 87.973111 
L 116.403522 83.045374 
L 117.145597 82.754785 
L 123.881527 80.287246 
L 129.053615 78.600656 
L 138.47211 75.993604 
L 151.041464 73.448097 
L 152.884385 73.164607 
L 155.719774 72.773264 
L 168.630654 71.678122 
L 171.545058 71.58673 
L 173.552353 71.557161 
L 178.782602 71.608001 
L 199.075156 73.555018 
L 216.041827 77.318649 
L 216.32762 77.398703 
L 232.212334 82.715985 
L 232.690941 82.902653 
L 232.973396 83.013544 
L 234.586438 83.657146 
L 236.778042 84.559765 
L 238.836203 85.436975 
L 239.035727 85.523536 
L 239.978432 85.936155 
L 240.809233 86.304772 
L 243.048385 87.321482 
L 245.26358 88.36065 
L 246.202351 88.811038 
L 246.222004 88.820531 
L 251.33046 91.37643 
L 251.96015 91.703688 
L 252.008605 91.728982 
L 253.138533 92.323307 
L 253.204035 92.358025 
L 253.40689 92.465727 
L 258.452633 95.234137 
L 259.219644 95.67003 
L 262.714196 97.706298 
L 263.246472 98.023695 
L 265.884162 99.624804 
L 265.890023 99.628415 
L 265.918835 99.646164 
L 267.079473 100.365851 
L 269.735554 102.047078 
L 273.329491 104.39783 
L 274.658427 105.289174 
L 275.572676 105.909307 
L 276.524465 106.560904 
L 276.634965 106.636949 
L 276.793771 106.746382 
L 280.262923 109.1795 
L 281.556832 110.107814 
L 281.953736 110.39484 
L 282.043566 110.459949 
L 282.838301 111.038353 
L 283.090771 111.222992 
L 287.466306 114.491378 
L 288.806787 115.51856 
L 291.428304 117.562463 
L 291.614719 117.709573 
L 293.059005 118.857289 
L 293.729691 119.395049 
L 294.444853 119.971818 
L 294.6079 120.103797 
L 295.764851 121.045455 
L 296.026936 121.260026 
L 296.833188 121.923022 
L 297.216621 122.239866 
L 297.729939 122.665595 
L 299.145372 123.84873 
L 300.866424 125.305564 
L 301.408182 125.768292 
L 301.889576 126.181126 
L 302.55723 126.756284 
L 302.857661 127.016077 
L 309.334399 132.765015 
L 309.553281 132.964252 
L 310.17182 133.529027 
L 310.732986 134.043653 
L 312.155837 135.358035 
L 312.79051 135.948737 
L 314.372742 137.4332 
L 317.163592 140.092829 
L 317.341804 140.264449 
L 324.84207 147.681867 
L 333.199687 156.394921 
L 361.822383 189.810884 
" clip-path="url(#p537d6cb569)" style="fill: none; stroke-dasharray: 11.1,4.8; stroke-dashoffset: 0; stroke: #ff7f0e; stroke-width: 3"/>
   </g>
   <g id="patch_3">
    <path d="M 60.252909 193.536948 
L 60.252909 15.642938 
" style="fill: none; stroke: #000000; stroke-width: 0.8; stroke-linejoin: miter; stroke-linecap: square"/>
   </g>
   <g id="patch_4">
    <path d="M 376.182834 193.536948 
L 376.182834 15.642938 
" style="fill: none; stroke: #000000; stroke-width: 0.8; stroke-linejoin: miter; stroke-linecap: square"/>
   </g>
   <g id="patch_5">
    <path d="M 60.252909 193.536948 
L 376.182834 193.536948 
" style="fill: none; stroke: #000000; stroke-width: 0.8; stroke-linejoin: miter; stroke-linecap: square"/>
   </g>
   <g id="patch_6">
    <path d="M 60.252909 15.642938 
L 376.182834 15.642938 
" style="fill: none; stroke: #000000; stroke-width: 0.8; stroke-linejoin: miter; stroke-linecap: square"/>
   </g>
   <g id="legend_1">
    <g id="line2d_18">
     <path d="M 311.282835 33.142938 
L 325.282835 33.142938 
L 339.282835 33.142938 
" style="fill: none; stroke-dasharray: 11.1,4.8; stroke-dashoffset: 0; stroke: #ff7f0e; stroke-width: 3"/>
    </g>
    <g id="text_19">
     <!-- $\phi^*$ -->
     <g transform="translate(350.482835 38.042938) scale(0.14 -0.14)">
      <defs>
       <path id="CMSY10-3" d="M 1760 2719 
C 1766 2808 1766 2962 1600 2962 
C 1498 2962 1414 2879 1434 2795 
L 1434 2712 
L 1523 1720 
L 704 2316 
C 646 2348 634 2360 589 2360 
C 499 2360 416 2271 416 2181 
C 416 2079 480 2053 544 2021 
L 1453 1586 
L 570 1158 
C 467 1107 416 1081 416 985 
C 416 889 499 806 589 806 
C 634 806 646 806 806 928 
L 1523 1446 
L 1427 371 
C 1427 236 1542 204 1594 204 
C 1670 204 1766 248 1766 371 
L 1670 1446 
L 2490 851 
C 2547 819 2560 806 2605 806 
C 2694 806 2778 896 2778 985 
C 2778 1081 2720 1113 2643 1152 
C 2259 1343 2246 1343 1741 1580 
L 2624 2008 
C 2726 2060 2778 2085 2778 2181 
C 2778 2277 2694 2360 2605 2360 
C 2560 2360 2547 2360 2387 2239 
L 1670 1720 
L 1760 2719 
z
" transform="scale(0.015625)"/>
      </defs>
      <use xlink:href="#CMMI12-1e" transform="scale(0.996264)"/>
      <use xlink:href="#CMSY10-3" transform="translate(57.73418 36.153639) scale(0.697382)"/>
     </g>
    </g>
    <g id="PathCollection_3">
     <g>
      <use xlink:href="#md835c0e256" x="325.282835" y="53.879967" style="stroke: #000000; stroke-width: 1.5"/>
     </g>
    </g>
    <g id="text_20">
     <!-- $u$ -->
     <g transform="translate(350.482835 57.554967) scale(0.14 -0.14)">
      <defs>
       <path id="CMMI12-75" d="M 2182 370 
C 2266 13 2573 -64 2726 -64 
C 2931 -64 3085 70 3187 287 
C 3296 517 3379 894 3379 913 
C 3379 945 3354 971 3315 971 
C 3258 971 3251 939 3226 843 
C 3110 402 2995 64 2739 64 
C 2547 64 2547 275 2547 358 
C 2547 505 2566 568 2630 837 
C 2675 1009 2720 1181 2758 1360 
L 3021 2401 
C 3066 2561 3066 2574 3066 2593 
C 3066 2689 2989 2753 2893 2753 
C 2707 2753 2662 2593 2624 2433 
C 2560 2184 2214 811 2170 588 
C 2163 588 1914 64 1446 64 
C 1114 64 1050 351 1050 588 
C 1050 952 1229 1462 1395 1890 
C 1472 2095 1504 2178 1504 2305 
C 1504 2580 1306 2816 998 2816 
C 410 2816 173 1890 173 1839 
C 173 1814 198 1782 243 1782 
C 301 1782 307 1807 333 1896 
C 486 2441 736 2682 979 2682 
C 1043 2682 1146 2682 1146 2478 
C 1146 2312 1075 2127 979 1884 
C 698 1124 666 881 666 690 
C 666 38 1158 -64 1421 -64 
C 1830 -64 2054 217 2182 370 
z
" transform="scale(0.015625)"/>
      </defs>
      <use xlink:href="#CMMI12-75" transform="scale(0.996264)"/>
     </g>
    </g>
    <g id="PathCollection_4">
     <g>
      <use xlink:href="#m9a27a189e3" x="325.282835" y="76.958481" style="fill: #1f77b4; stroke: #1f77b4"/>
     </g>
    </g>
    <g id="text_21">
     <!-- $\hat{\phi}$ -->
     <g transform="translate(350.482835 80.633481) scale(0.14 -0.14)">
      <defs>
       <path id="CMR17-5e" d="M 1466 4421 
L 678 3555 
L 755 3478 
L 1466 4166 
L 2176 3478 
L 2253 3555 
L 1466 4421 
z
" transform="scale(0.015625)"/>
      </defs>
      <use xlink:href="#CMR17-5e" transform="translate(14.151005 26.296621) scale(0.996264)"/>
      <use xlink:href="#CMMI12-1e" transform="scale(0.996264)"/>
     </g>
    </g>
   </g>
  </g>
 </g>
 <defs>
  <clipPath id="p537d6cb569">
   <rect x="60.252909" y="15.642938" width="315.929926" height="177.89401"/>
  </clipPath>
 </defs>
</svg>
