<?xml version="1.0" encoding="utf-8" standalone="no"?>
<!DOCTYPE svg PUBLIC "-//W3C//DTD SVG 1.1//EN"
  "http://www.w3.org/Graphics/SVG/1.1/DTD/svg11.dtd">
<svg xmlns:xlink="http://www.w3.org/1999/xlink" width="388.542964pt" height="240.132758pt" viewBox="0 0 388.542964 240.132758" xmlns="http://www.w3.org/2000/svg" version="1.1">
 <metadata>
  <rdf:RDF xmlns:dc="http://purl.org/dc/elements/1.1/" xmlns:cc="http://creativecommons.org/ns#" xmlns:rdf="http://www.w3.org/1999/02/22-rdf-syntax-ns#">
   <cc:Work>
    <dc:type rdf:resource="http://purl.org/dc/dcmitype/StillImage"/>
    <dc:date>2024-12-03T17:49:02.998996</dc:date>
    <dc:format>image/svg+xml</dc:format>
    <dc:creator>
     <cc:Agent>
      <dc:title>Matplotlib v3.7.5, https://matplotlib.org/</dc:title>
     </cc:Agent>
    </dc:creator>
   </cc:Work>
  </rdf:RDF>
 </metadata>
 <defs>
  <style type="text/css">*{stroke-linejoin: round; stroke-linecap: butt}</style>
 </defs>
 <g id="figure_1">
  <g id="patch_1">
   <path d="M 0 240.132758 
L 388.542964 240.132758 
L 388.542964 0 
L 0 0 
z
" style="fill: #ffffff"/>
  </g>
  <g id="axes_1">
   <g id="patch_2">
    <path d="M 62.226495 193.536948 
L 376.182834 193.536948 
L 376.182834 10.8 
L 62.226495 10.8 
z
" style="fill: #ffffff"/>
   </g>
   <g id="PathCollection_1">
    <defs>
     <path id="m0bd5323808" d="M -3.535534 3.535534 
L 3.535534 -3.535534 
M -3.535534 -3.535534 
L 3.535534 3.535534 
" style="stroke: #000000; stroke-width: 1.5"/>
    </defs>
    <g clip-path="url(#pd63756ed0b)">
     <use xlink:href="#m0bd5323808" x="76.497238" y="139.935539" style="stroke: #000000; stroke-width: 1.5"/>
     <use xlink:href="#m0bd5323808" x="79.341823" y="144.508248" style="stroke: #000000; stroke-width: 1.5"/>
     <use xlink:href="#m0bd5323808" x="78.194313" y="119.763362" style="stroke: #000000; stroke-width: 1.5"/>
     <use xlink:href="#m0bd5323808" x="85.883057" y="130.628545" style="stroke: #000000; stroke-width: 1.5"/>
     <use xlink:href="#m0bd5323808" x="89.828431" y="103.345274" style="stroke: #000000; stroke-width: 1.5"/>
     <use xlink:href="#m0bd5323808" x="98.245274" y="116.972319" style="stroke: #000000; stroke-width: 1.5"/>
     <use xlink:href="#m0bd5323808" x="100.393466" y="120.143354" style="stroke: #000000; stroke-width: 1.5"/>
     <use xlink:href="#m0bd5323808" x="102.655206" y="101.032459" style="stroke: #000000; stroke-width: 1.5"/>
     <use xlink:href="#m0bd5323808" x="104.061465" y="115.569315" style="stroke: #000000; stroke-width: 1.5"/>
     <use xlink:href="#m0bd5323808" x="104.308008" y="97.676098" style="stroke: #000000; stroke-width: 1.5"/>
     <use xlink:href="#m0bd5323808" x="118.76378" y="110.881964" style="stroke: #000000; stroke-width: 1.5"/>
     <use xlink:href="#m0bd5323808" x="118.02634" y="91.163942" style="stroke: #000000; stroke-width: 1.5"/>
     <use xlink:href="#m0bd5323808" x="139.957068" y="73.137403" style="stroke: #000000; stroke-width: 1.5"/>
     <use xlink:href="#m0bd5323808" x="130.59741" y="68.441852" style="stroke: #000000; stroke-width: 1.5"/>
     <use xlink:href="#m0bd5323808" x="152.447902" y="139.176686" style="stroke: #000000; stroke-width: 1.5"/>
     <use xlink:href="#m0bd5323808" x="154.279311" y="104.581311" style="stroke: #000000; stroke-width: 1.5"/>
     <use xlink:href="#m0bd5323808" x="169.927214" y="97.387847" style="stroke: #000000; stroke-width: 1.5"/>
     <use xlink:href="#m0bd5323808" x="174.818168" y="124.19268" style="stroke: #000000; stroke-width: 1.5"/>
     <use xlink:href="#m0bd5323808" x="180.015744" y="110.205952" style="stroke: #000000; stroke-width: 1.5"/>
     <use xlink:href="#m0bd5323808" x="200.181532" y="104.255523" style="stroke: #000000; stroke-width: 1.5"/>
     <use xlink:href="#m0bd5323808" x="217.326222" y="60.751092" style="stroke: #000000; stroke-width: 1.5"/>
     <use xlink:href="#m0bd5323808" x="233.587322" y="108.822149" style="stroke: #000000; stroke-width: 1.5"/>
     <use xlink:href="#m0bd5323808" x="237.648891" y="129.936688" style="stroke: #000000; stroke-width: 1.5"/>
     <use xlink:href="#m0bd5323808" x="240.829289" y="118.38655" style="stroke: #000000; stroke-width: 1.5"/>
     <use xlink:href="#m0bd5323808" x="217.042213" y="90.369654" style="stroke: #000000; stroke-width: 1.5"/>
     <use xlink:href="#m0bd5323808" x="233.111705" y="77.899932" style="stroke: #000000; stroke-width: 1.5"/>
     <use xlink:href="#m0bd5323808" x="266.607644" y="110.718523" style="stroke: #000000; stroke-width: 1.5"/>
     <use xlink:href="#m0bd5323808" x="253.90718" y="185.230723" style="stroke: #000000; stroke-width: 1.5"/>
     <use xlink:href="#m0bd5323808" x="233.868013" y="26.824417" style="stroke: #000000; stroke-width: 1.5"/>
     <use xlink:href="#m0bd5323808" x="235.470978" y="82.859519" style="stroke: #000000; stroke-width: 1.5"/>
     <use xlink:href="#m0bd5323808" x="247.033858" y="38.239209" style="stroke: #000000; stroke-width: 1.5"/>
     <use xlink:href="#m0bd5323808" x="252.784311" y="54.667953" style="stroke: #000000; stroke-width: 1.5"/>
     <use xlink:href="#m0bd5323808" x="297.328879" y="118.957114" style="stroke: #000000; stroke-width: 1.5"/>
     <use xlink:href="#m0bd5323808" x="275.292641" y="109.877792" style="stroke: #000000; stroke-width: 1.5"/>
     <use xlink:href="#m0bd5323808" x="291.957758" y="86.431414" style="stroke: #000000; stroke-width: 1.5"/>
     <use xlink:href="#m0bd5323808" x="270.400521" y="47.688284" style="stroke: #000000; stroke-width: 1.5"/>
     <use xlink:href="#m0bd5323808" x="302.35368" y="76.447048" style="stroke: #000000; stroke-width: 1.5"/>
     <use xlink:href="#m0bd5323808" x="313.186517" y="86.269175" style="stroke: #000000; stroke-width: 1.5"/>
     <use xlink:href="#m0bd5323808" x="243.880064" y="54.686287" style="stroke: #000000; stroke-width: 1.5"/>
     <use xlink:href="#m0bd5323808" x="277.256831" y="82.13413" style="stroke: #000000; stroke-width: 1.5"/>
     <use xlink:href="#m0bd5323808" x="267.761032" y="85.455985" style="stroke: #000000; stroke-width: 1.5"/>
     <use xlink:href="#m0bd5323808" x="294.955463" y="103.748284" style="stroke: #000000; stroke-width: 1.5"/>
     <use xlink:href="#m0bd5323808" x="247.014327" y="57.280336" style="stroke: #000000; stroke-width: 1.5"/>
     <use xlink:href="#m0bd5323808" x="259.188083" y="85.727442" style="stroke: #000000; stroke-width: 1.5"/>
     <use xlink:href="#m0bd5323808" x="246.081421" y="23.113414" style="stroke: #000000; stroke-width: 1.5"/>
     <use xlink:href="#m0bd5323808" x="282.147953" y="104.091116" style="stroke: #000000; stroke-width: 1.5"/>
     <use xlink:href="#m0bd5323808" x="263.423024" y="19.106225" style="stroke: #000000; stroke-width: 1.5"/>
     <use xlink:href="#m0bd5323808" x="277.414645" y="73.410589" style="stroke: #000000; stroke-width: 1.5"/>
     <use xlink:href="#m0bd5323808" x="283.421416" y="59.394071" style="stroke: #000000; stroke-width: 1.5"/>
     <use xlink:href="#m0bd5323808" x="292.143009" y="94.903952" style="stroke: #000000; stroke-width: 1.5"/>
     <use xlink:href="#m0bd5323808" x="301.875293" y="78.657609" style="stroke: #000000; stroke-width: 1.5"/>
     <use xlink:href="#m0bd5323808" x="296.527663" y="55.638817" style="stroke: #000000; stroke-width: 1.5"/>
     <use xlink:href="#m0bd5323808" x="289.352618" y="81.900311" style="stroke: #000000; stroke-width: 1.5"/>
     <use xlink:href="#m0bd5323808" x="252.110402" y="82.57579" style="stroke: #000000; stroke-width: 1.5"/>
     <use xlink:href="#m0bd5323808" x="283.672308" y="69.076601" style="stroke: #000000; stroke-width: 1.5"/>
     <use xlink:href="#m0bd5323808" x="294.244769" y="68.729934" style="stroke: #000000; stroke-width: 1.5"/>
    </g>
   </g>
   <g id="PathCollection_2">
    <defs>
     <path id="m8c3fc9d50b" d="M 0 1.322876 
C 0.350831 1.322876 0.68734 1.183489 0.935414 0.935414 
C 1.183489 0.68734 1.322876 0.350831 1.322876 0 
C 1.322876 -0.350831 1.183489 -0.68734 0.935414 -0.935414 
C 0.68734 -1.183489 0.350831 -1.322876 0 -1.322876 
C -0.350831 -1.322876 -0.68734 -1.183489 -0.935414 -0.935414 
C -1.183489 -0.68734 -1.322876 -0.350831 -1.322876 0 
C -1.322876 0.350831 -1.183489 0.68734 -0.935414 0.935414 
C -0.68734 1.183489 -0.350831 1.322876 0 1.322876 
z
" style="stroke: #1f77b4"/>
    </defs>
    <g clip-path="url(#pd63756ed0b)">
     <use xlink:href="#m8c3fc9d50b" x="76.497238" y="124.075631" style="fill: #1f77b4; stroke: #1f77b4"/>
     <use xlink:href="#m8c3fc9d50b" x="79.341823" y="124.079032" style="fill: #1f77b4; stroke: #1f77b4"/>
     <use xlink:href="#m8c3fc9d50b" x="80.197276" y="124.047858" style="fill: #1f77b4; stroke: #1f77b4"/>
     <use xlink:href="#m8c3fc9d50b" x="78.194313" y="124.096713" style="fill: #1f77b4; stroke: #1f77b4"/>
     <use xlink:href="#m8c3fc9d50b" x="85.883057" y="123.395268" style="fill: #1f77b4; stroke: #1f77b4"/>
     <use xlink:href="#m8c3fc9d50b" x="89.828431" y="122.408588" style="fill: #1f77b4; stroke: #1f77b4"/>
     <use xlink:href="#m8c3fc9d50b" x="99.712474" y="117.807359" style="fill: #1f77b4; stroke: #1f77b4"/>
     <use xlink:href="#m8c3fc9d50b" x="98.245274" y="118.66299" style="fill: #1f77b4; stroke: #1f77b4"/>
     <use xlink:href="#m8c3fc9d50b" x="102.242411" y="116.239306" style="fill: #1f77b4; stroke: #1f77b4"/>
     <use xlink:href="#m8c3fc9d50b" x="100.393466" y="117.395327" style="fill: #1f77b4; stroke: #1f77b4"/>
     <use xlink:href="#m8c3fc9d50b" x="102.655206" y="115.975409" style="fill: #1f77b4; stroke: #1f77b4"/>
     <use xlink:href="#m8c3fc9d50b" x="106.706027" y="113.346757" style="fill: #1f77b4; stroke: #1f77b4"/>
     <use xlink:href="#m8c3fc9d50b" x="104.061465" y="115.066399" style="fill: #1f77b4; stroke: #1f77b4"/>
     <use xlink:href="#m8c3fc9d50b" x="105.971648" y="113.82255" style="fill: #1f77b4; stroke: #1f77b4"/>
     <use xlink:href="#m8c3fc9d50b" x="104.308008" y="114.905994" style="fill: #1f77b4; stroke: #1f77b4"/>
     <use xlink:href="#m8c3fc9d50b" x="118.76378" y="106.941495" style="fill: #1f77b4; stroke: #1f77b4"/>
     <use xlink:href="#m8c3fc9d50b" x="125.457631" y="105.158611" style="fill: #1f77b4; stroke: #1f77b4"/>
     <use xlink:href="#m8c3fc9d50b" x="118.02634" y="107.221177" style="fill: #1f77b4; stroke: #1f77b4"/>
     <use xlink:href="#m8c3fc9d50b" x="139.957068" y="105.066827" style="fill: #1f77b4; stroke: #1f77b4"/>
     <use xlink:href="#m8c3fc9d50b" x="157.096988" y="108.959175" style="fill: #1f77b4; stroke: #1f77b4"/>
     <use xlink:href="#m8c3fc9d50b" x="130.59741" y="104.624406" style="fill: #1f77b4; stroke: #1f77b4"/>
     <use xlink:href="#m8c3fc9d50b" x="152.447902" y="107.621236" style="fill: #1f77b4; stroke: #1f77b4"/>
     <use xlink:href="#m8c3fc9d50b" x="154.279311" y="108.130241" style="fill: #1f77b4; stroke: #1f77b4"/>
     <use xlink:href="#m8c3fc9d50b" x="172.823412" y="113.184842" style="fill: #1f77b4; stroke: #1f77b4"/>
     <use xlink:href="#m8c3fc9d50b" x="169.927214" y="112.687499" style="fill: #1f77b4; stroke: #1f77b4"/>
     <use xlink:href="#m8c3fc9d50b" x="174.818168" y="113.341659" style="fill: #1f77b4; stroke: #1f77b4"/>
     <use xlink:href="#m8c3fc9d50b" x="180.015744" y="112.702379" style="fill: #1f77b4; stroke: #1f77b4"/>
     <use xlink:href="#m8c3fc9d50b" x="200.181532" y="91.683933" style="fill: #1f77b4; stroke: #1f77b4"/>
     <use xlink:href="#m8c3fc9d50b" x="217.326222" y="68.741035" style="fill: #1f77b4; stroke: #1f77b4"/>
     <use xlink:href="#m8c3fc9d50b" x="233.587322" y="58.622352" style="fill: #1f77b4; stroke: #1f77b4"/>
     <use xlink:href="#m8c3fc9d50b" x="237.648891" y="57.79047" style="fill: #1f77b4; stroke: #1f77b4"/>
     <use xlink:href="#m8c3fc9d50b" x="240.829289" y="57.513395" style="fill: #1f77b4; stroke: #1f77b4"/>
     <use xlink:href="#m8c3fc9d50b" x="241.6549" y="57.492218" style="fill: #1f77b4; stroke: #1f77b4"/>
     <use xlink:href="#m8c3fc9d50b" x="217.042213" y="69.030482" style="fill: #1f77b4; stroke: #1f77b4"/>
     <use xlink:href="#m8c3fc9d50b" x="239.892473" y="57.562449" style="fill: #1f77b4; stroke: #1f77b4"/>
     <use xlink:href="#m8c3fc9d50b" x="239.694195" y="57.576276" style="fill: #1f77b4; stroke: #1f77b4"/>
     <use xlink:href="#m8c3fc9d50b" x="233.111705" y="58.757333" style="fill: #1f77b4; stroke: #1f77b4"/>
     <use xlink:href="#m8c3fc9d50b" x="266.607644" y="68.383522" style="fill: #1f77b4; stroke: #1f77b4"/>
     <use xlink:href="#m8c3fc9d50b" x="273.972007" y="80.095597" style="fill: #1f77b4; stroke: #1f77b4"/>
     <use xlink:href="#m8c3fc9d50b" x="253.90718" y="59.621166" style="fill: #1f77b4; stroke: #1f77b4"/>
     <use xlink:href="#m8c3fc9d50b" x="253.972273" y="59.645694" style="fill: #1f77b4; stroke: #1f77b4"/>
     <use xlink:href="#m8c3fc9d50b" x="252.736158" y="59.206567" style="fill: #1f77b4; stroke: #1f77b4"/>
     <use xlink:href="#m8c3fc9d50b" x="233.868013" y="58.54653" style="fill: #1f77b4; stroke: #1f77b4"/>
     <use xlink:href="#m8c3fc9d50b" x="280.862127" y="108.650241" style="fill: #1f77b4; stroke: #1f77b4"/>
     <use xlink:href="#m8c3fc9d50b" x="263.951975" y="65.719057" style="fill: #1f77b4; stroke: #1f77b4"/>
     <use xlink:href="#m8c3fc9d50b" x="235.470978" y="58.166789" style="fill: #1f77b4; stroke: #1f77b4"/>
     <use xlink:href="#m8c3fc9d50b" x="266.573188" y="68.345032" style="fill: #1f77b4; stroke: #1f77b4"/>
     <use xlink:href="#m8c3fc9d50b" x="259.950303" y="62.65831" style="fill: #1f77b4; stroke: #1f77b4"/>
     <use xlink:href="#m8c3fc9d50b" x="247.033858" y="57.852087" style="fill: #1f77b4; stroke: #1f77b4"/>
     <use xlink:href="#m8c3fc9d50b" x="282.542377" y="135.28276" style="fill: #1f77b4; stroke: #1f77b4"/>
     <use xlink:href="#m8c3fc9d50b" x="254.17386" y="59.722691" style="fill: #1f77b4; stroke: #1f77b4"/>
     <use xlink:href="#m8c3fc9d50b" x="252.784311" y="59.222633" style="fill: #1f77b4; stroke: #1f77b4"/>
     <use xlink:href="#m8c3fc9d50b" x="282.631645" y="138.490966" style="fill: #1f77b4; stroke: #1f77b4"/>
     <use xlink:href="#m8c3fc9d50b" x="277.147022" y="88.901279" style="fill: #1f77b4; stroke: #1f77b4"/>
     <use xlink:href="#m8c3fc9d50b" x="275.292641" y="83.31303" style="fill: #1f77b4; stroke: #1f77b4"/>
     <use xlink:href="#m8c3fc9d50b" x="270.400521" y="73.405656" style="fill: #1f77b4; stroke: #1f77b4"/>
     <use xlink:href="#m8c3fc9d50b" x="243.880064" y="57.536679" style="fill: #1f77b4; stroke: #1f77b4"/>
     <use xlink:href="#m8c3fc9d50b" x="277.256831" y="89.284065" style="fill: #1f77b4; stroke: #1f77b4"/>
     <use xlink:href="#m8c3fc9d50b" x="267.761032" y="69.738769" style="fill: #1f77b4; stroke: #1f77b4"/>
     <use xlink:href="#m8c3fc9d50b" x="266.579013" y="68.351529" style="fill: #1f77b4; stroke: #1f77b4"/>
     <use xlink:href="#m8c3fc9d50b" x="247.014327" y="57.849213" style="fill: #1f77b4; stroke: #1f77b4"/>
     <use xlink:href="#m8c3fc9d50b" x="276.201179" y="85.864461" style="fill: #1f77b4; stroke: #1f77b4"/>
     <use xlink:href="#m8c3fc9d50b" x="259.188083" y="62.181528" style="fill: #1f77b4; stroke: #1f77b4"/>
     <use xlink:href="#m8c3fc9d50b" x="246.081421" y="57.725484" style="fill: #1f77b4; stroke: #1f77b4"/>
     <use xlink:href="#m8c3fc9d50b" x="282.147953" y="125.236524" style="fill: #1f77b4; stroke: #1f77b4"/>
     <use xlink:href="#m8c3fc9d50b" x="263.423024" y="65.254598" style="fill: #1f77b4; stroke: #1f77b4"/>
     <use xlink:href="#m8c3fc9d50b" x="277.414645" y="89.84658" style="fill: #1f77b4; stroke: #1f77b4"/>
     <use xlink:href="#m8c3fc9d50b" x="252.110402" y="59.005248" style="fill: #1f77b4; stroke: #1f77b4"/>
    </g>
   </g>
   <g id="matplotlib.axis_1">
    <g id="xtick_1">
     <g id="line2d_1">
      <defs>
       <path id="mca89b29ae6" d="M 0 0 
L 0 3.5 
" style="stroke: #000000; stroke-width: 0.8"/>
      </defs>
      <g>
       <use xlink:href="#mca89b29ae6" x="98.897369" y="193.536948" style="stroke: #000000; stroke-width: 0.8"/>
      </g>
     </g>
     <g id="text_1">
      <!-- $\mathdefault{0.5}$ -->
      <g transform="translate(90.172078 210.222825) scale(0.14 -0.14)">
       <defs>
        <path id="CMR17-30" d="M 2688 2025 
C 2688 2416 2682 3080 2413 3591 
C 2176 4039 1798 4198 1466 4198 
C 1158 4198 768 4058 525 3597 
C 269 3118 243 2524 243 2025 
C 243 1661 250 1106 448 619 
C 723 -39 1216 -128 1466 -128 
C 1760 -128 2208 -7 2470 600 
C 2662 1042 2688 1559 2688 2025 
z
M 1466 -26 
C 1056 -26 813 325 723 812 
C 653 1188 653 1738 653 2096 
C 653 2588 653 2997 736 3387 
C 858 3929 1216 4096 1466 4096 
C 1728 4096 2067 3923 2189 3400 
C 2272 3036 2278 2607 2278 2096 
C 2278 1680 2278 1169 2202 792 
C 2067 95 1690 -26 1466 -26 
z
" transform="scale(0.015625)"/>
        <path id="CMMI12-3a" d="M 1178 307 
C 1178 492 1024 619 870 619 
C 685 619 557 466 557 313 
C 557 128 710 0 864 0 
C 1050 0 1178 153 1178 307 
z
" transform="scale(0.015625)"/>
        <path id="CMR17-35" d="M 730 3692 
C 794 3666 1056 3584 1325 3584 
C 1920 3584 2246 3911 2432 4100 
C 2432 4157 2432 4192 2394 4192 
C 2387 4192 2374 4192 2323 4163 
C 2099 4058 1837 3973 1517 3973 
C 1325 3973 1037 3999 723 4139 
C 653 4171 640 4171 634 4171 
C 602 4171 595 4164 595 4037 
L 595 2203 
C 595 2089 595 2057 659 2057 
C 691 2057 704 2070 736 2114 
C 941 2401 1222 2522 1542 2522 
C 1766 2522 2246 2382 2246 1289 
C 2246 1085 2246 715 2054 421 
C 1894 159 1645 25 1370 25 
C 947 25 518 320 403 814 
C 429 807 480 795 506 795 
C 589 795 749 840 749 1038 
C 749 1210 627 1280 506 1280 
C 358 1280 262 1190 262 1011 
C 262 454 704 -128 1382 -128 
C 2042 -128 2669 440 2669 1264 
C 2669 2030 2170 2624 1549 2624 
C 1222 2624 947 2503 730 2274 
L 730 3692 
z
" transform="scale(0.015625)"/>
       </defs>
       <use xlink:href="#CMR17-30" transform="scale(0.996264)"/>
       <use xlink:href="#CMMI12-3a" transform="translate(45.690477 0) scale(0.996264)"/>
       <use xlink:href="#CMR17-35" transform="translate(72.787654 0) scale(0.996264)"/>
      </g>
     </g>
    </g>
    <g id="xtick_2">
     <g id="line2d_2">
      <g>
       <use xlink:href="#mca89b29ae6" x="137.442352" y="193.536948" style="stroke: #000000; stroke-width: 0.8"/>
      </g>
     </g>
     <g id="text_2">
      <!-- $\mathdefault{1.0}$ -->
      <g transform="translate(128.717061 210.222825) scale(0.14 -0.14)">
       <defs>
        <path id="CMR17-31" d="M 1702 4058 
C 1702 4192 1696 4192 1606 4192 
C 1357 3916 979 3827 621 3827 
C 602 3827 570 3827 563 3808 
C 557 3795 557 3782 557 3648 
C 755 3648 1088 3686 1344 3839 
L 1344 461 
C 1344 236 1331 160 781 160 
L 589 160 
L 589 0 
C 896 0 1216 0 1523 0 
C 1830 0 2150 0 2458 0 
L 2458 160 
L 2266 160 
C 1715 160 1702 230 1702 458 
L 1702 4058 
z
" transform="scale(0.015625)"/>
       </defs>
       <use xlink:href="#CMR17-31" transform="scale(0.996264)"/>
       <use xlink:href="#CMMI12-3a" transform="translate(45.690477 0) scale(0.996264)"/>
       <use xlink:href="#CMR17-30" transform="translate(72.787654 0) scale(0.996264)"/>
      </g>
     </g>
    </g>
    <g id="xtick_3">
     <g id="line2d_3">
      <g>
       <use xlink:href="#mca89b29ae6" x="175.987336" y="193.536948" style="stroke: #000000; stroke-width: 0.8"/>
      </g>
     </g>
     <g id="text_3">
      <!-- $\mathdefault{1.5}$ -->
      <g transform="translate(167.262045 210.222825) scale(0.14 -0.14)">
       <use xlink:href="#CMR17-31" transform="scale(0.996264)"/>
       <use xlink:href="#CMMI12-3a" transform="translate(45.690477 0) scale(0.996264)"/>
       <use xlink:href="#CMR17-35" transform="translate(72.787654 0) scale(0.996264)"/>
      </g>
     </g>
    </g>
    <g id="xtick_4">
     <g id="line2d_4">
      <g>
       <use xlink:href="#mca89b29ae6" x="214.532319" y="193.536948" style="stroke: #000000; stroke-width: 0.8"/>
      </g>
     </g>
     <g id="text_4">
      <!-- $\mathdefault{2.0}$ -->
      <g transform="translate(205.807028 210.222825) scale(0.14 -0.14)">
       <defs>
        <path id="CMR17-32" d="M 2669 989 
L 2554 989 
C 2490 536 2438 459 2413 420 
C 2381 369 1920 369 1830 369 
L 602 369 
C 832 619 1280 1072 1824 1597 
C 2214 1967 2669 2402 2669 3035 
C 2669 3790 2067 4224 1395 4224 
C 691 4224 262 3604 262 3030 
C 262 2780 448 2748 525 2748 
C 589 2748 781 2787 781 3010 
C 781 3207 614 3264 525 3264 
C 486 3264 448 3258 422 3245 
C 544 3790 915 4058 1306 4058 
C 1862 4058 2227 3617 2227 3035 
C 2227 2479 1901 2000 1536 1584 
L 262 146 
L 262 0 
L 2515 0 
L 2669 989 
z
" transform="scale(0.015625)"/>
       </defs>
       <use xlink:href="#CMR17-32" transform="scale(0.996264)"/>
       <use xlink:href="#CMMI12-3a" transform="translate(45.690477 0) scale(0.996264)"/>
       <use xlink:href="#CMR17-30" transform="translate(72.787654 0) scale(0.996264)"/>
      </g>
     </g>
    </g>
    <g id="xtick_5">
     <g id="line2d_5">
      <g>
       <use xlink:href="#mca89b29ae6" x="253.077302" y="193.536948" style="stroke: #000000; stroke-width: 0.8"/>
      </g>
     </g>
     <g id="text_5">
      <!-- $\mathdefault{2.5}$ -->
      <g transform="translate(244.352011 210.222825) scale(0.14 -0.14)">
       <use xlink:href="#CMR17-32" transform="scale(0.996264)"/>
       <use xlink:href="#CMMI12-3a" transform="translate(45.690477 0) scale(0.996264)"/>
       <use xlink:href="#CMR17-35" transform="translate(72.787654 0) scale(0.996264)"/>
      </g>
     </g>
    </g>
    <g id="xtick_6">
     <g id="line2d_6">
      <g>
       <use xlink:href="#mca89b29ae6" x="291.622285" y="193.536948" style="stroke: #000000; stroke-width: 0.8"/>
      </g>
     </g>
     <g id="text_6">
      <!-- $\mathdefault{3.0}$ -->
      <g transform="translate(282.896994 210.222825) scale(0.14 -0.14)">
       <defs>
        <path id="CMR17-33" d="M 1414 2157 
C 1984 2157 2234 1662 2234 1090 
C 2234 320 1824 25 1453 25 
C 1114 25 563 194 390 693 
C 422 680 454 680 486 680 
C 640 680 755 782 755 948 
C 755 1133 614 1216 486 1216 
C 378 1216 211 1165 211 926 
C 211 335 787 -128 1466 -128 
C 2176 -128 2720 430 2720 1085 
C 2720 1707 2208 2157 1600 2227 
C 2086 2328 2554 2756 2554 3329 
C 2554 3820 2048 4179 1472 4179 
C 890 4179 378 3829 378 3329 
C 378 3110 544 3072 627 3072 
C 762 3072 877 3155 877 3321 
C 877 3486 762 3569 627 3569 
C 602 3569 570 3569 544 3557 
C 730 3959 1235 4032 1459 4032 
C 1683 4032 2106 3925 2106 3320 
C 2106 3143 2080 2828 1862 2550 
C 1670 2304 1453 2304 1242 2284 
C 1210 2284 1062 2269 1037 2269 
C 992 2263 966 2257 966 2208 
C 966 2163 973 2157 1101 2157 
L 1414 2157 
z
" transform="scale(0.015625)"/>
       </defs>
       <use xlink:href="#CMR17-33" transform="scale(0.996264)"/>
       <use xlink:href="#CMMI12-3a" transform="translate(45.690477 0) scale(0.996264)"/>
       <use xlink:href="#CMR17-30" transform="translate(72.787654 0) scale(0.996264)"/>
      </g>
     </g>
    </g>
    <g id="xtick_7">
     <g id="line2d_7">
      <g>
       <use xlink:href="#mca89b29ae6" x="330.167268" y="193.536948" style="stroke: #000000; stroke-width: 0.8"/>
      </g>
     </g>
     <g id="text_7">
      <!-- $\mathdefault{3.5}$ -->
      <g transform="translate(321.441977 210.222825) scale(0.14 -0.14)">
       <use xlink:href="#CMR17-33" transform="scale(0.996264)"/>
       <use xlink:href="#CMMI12-3a" transform="translate(45.690477 0) scale(0.996264)"/>
       <use xlink:href="#CMR17-35" transform="translate(72.787654 0) scale(0.996264)"/>
      </g>
     </g>
    </g>
    <g id="xtick_8">
     <g id="line2d_8">
      <g>
       <use xlink:href="#mca89b29ae6" x="368.712251" y="193.536948" style="stroke: #000000; stroke-width: 0.8"/>
      </g>
     </g>
     <g id="text_8">
      <!-- $\mathdefault{4.0}$ -->
      <g transform="translate(359.98696 210.222825) scale(0.14 -0.14)">
       <defs>
        <path id="CMR17-34" d="M 2150 4122 
C 2150 4256 2144 4256 2029 4256 
L 128 1254 
L 128 1088 
L 1779 1088 
L 1779 457 
C 1779 224 1766 160 1318 160 
L 1197 160 
L 1197 0 
C 1402 0 1747 0 1965 0 
C 2182 0 2528 0 2733 0 
L 2733 160 
L 2611 160 
C 2163 160 2150 224 2150 457 
L 2150 1088 
L 2803 1088 
L 2803 1254 
L 2150 1254 
L 2150 4122 
z
M 1798 3703 
L 1798 1254 
L 256 1254 
L 1798 3703 
z
" transform="scale(0.015625)"/>
       </defs>
       <use xlink:href="#CMR17-34" transform="scale(0.996264)"/>
       <use xlink:href="#CMMI12-3a" transform="translate(45.690477 0) scale(0.996264)"/>
       <use xlink:href="#CMR17-30" transform="translate(72.787654 0) scale(0.996264)"/>
      </g>
     </g>
    </g>
    <g id="text_9">
     <!-- P -->
     <g transform="translate(214.558703 226.620729) scale(0.14 -0.14)">
      <defs>
       <path id="CMR17-50" d="M 1267 2042 
L 2291 2042 
C 3117 2042 3718 2578 3718 3184 
C 3718 3791 3130 4352 2291 4352 
L 333 4352 
L 333 4186 
C 774 4186 845 4186 845 3899 
L 845 446 
C 845 160 774 160 333 160 
L 333 0 
C 518 0 858 0 1056 0 
C 1254 0 1594 0 1779 0 
L 1779 160 
C 1338 160 1267 160 1267 446 
L 1267 2042 
z
M 1254 2176 
L 1254 3938 
C 1254 4155 1267 4186 1523 4186 
L 2170 4186 
C 2995 4186 3232 3714 3232 3184 
C 3232 2604 2950 2176 2170 2176 
L 1254 2176 
z
" transform="scale(0.015625)"/>
      </defs>
      <use xlink:href="#CMR17-50" transform="scale(0.996264)"/>
     </g>
    </g>
   </g>
   <g id="matplotlib.axis_2">
    <g id="ytick_1">
     <g id="line2d_9">
      <defs>
       <path id="m5e2cfb2236" d="M 0 0 
L -3.5 0 
" style="stroke: #000000; stroke-width: 0.8"/>
      </defs>
      <g>
       <use xlink:href="#m5e2cfb2236" x="62.226495" y="150.835992" style="stroke: #000000; stroke-width: 0.8"/>
      </g>
     </g>
     <g id="text_10">
      <!-- $\mathdefault{10^{-1}}$ -->
      <g transform="translate(28.747696 155.67893) scale(0.14 -0.14)">
       <defs>
        <path id="CMSY10-0" d="M 4218 1472 
C 4326 1472 4442 1472 4442 1600 
C 4442 1728 4326 1728 4218 1728 
L 755 1728 
C 646 1728 531 1728 531 1600 
C 531 1472 646 1472 755 1472 
L 4218 1472 
z
" transform="scale(0.015625)"/>
       </defs>
       <use xlink:href="#CMR17-31" transform="scale(0.996264)"/>
       <use xlink:href="#CMR17-30" transform="translate(45.690477 0) scale(0.996264)"/>
       <use xlink:href="#CMSY10-0" transform="translate(91.380954 36.153639) scale(0.697382)"/>
       <use xlink:href="#CMR17-31" transform="translate(145.621947 36.153639) scale(0.697382)"/>
      </g>
     </g>
    </g>
    <g id="ytick_2">
     <g id="line2d_10">
      <g>
       <use xlink:href="#m5e2cfb2236" x="62.226495" y="106.308328" style="stroke: #000000; stroke-width: 0.8"/>
      </g>
     </g>
     <g id="text_11">
      <!-- $\mathdefault{10^{0}}$ -->
      <g transform="translate(36.552291 111.151266) scale(0.14 -0.14)">
       <use xlink:href="#CMR17-31" transform="scale(0.996264)"/>
       <use xlink:href="#CMR17-30" transform="translate(45.690477 0) scale(0.996264)"/>
       <use xlink:href="#CMR17-30" transform="translate(91.380954 36.153639) scale(0.697382)"/>
      </g>
     </g>
    </g>
    <g id="ytick_3">
     <g id="line2d_11">
      <g>
       <use xlink:href="#m5e2cfb2236" x="62.226495" y="61.780664" style="stroke: #000000; stroke-width: 0.8"/>
      </g>
     </g>
     <g id="text_12">
      <!-- $\mathdefault{10^{1}}$ -->
      <g transform="translate(36.552291 66.623602) scale(0.14 -0.14)">
       <use xlink:href="#CMR17-31" transform="scale(0.996264)"/>
       <use xlink:href="#CMR17-30" transform="translate(45.690477 0) scale(0.996264)"/>
       <use xlink:href="#CMR17-31" transform="translate(91.380954 36.153639) scale(0.697382)"/>
      </g>
     </g>
    </g>
    <g id="ytick_4">
     <g id="line2d_12">
      <g>
       <use xlink:href="#m5e2cfb2236" x="62.226495" y="17.253" style="stroke: #000000; stroke-width: 0.8"/>
      </g>
     </g>
     <g id="text_13">
      <!-- $\mathdefault{10^{2}}$ -->
      <g transform="translate(36.552291 22.095938) scale(0.14 -0.14)">
       <use xlink:href="#CMR17-31" transform="scale(0.996264)"/>
       <use xlink:href="#CMR17-30" transform="translate(45.690477 0) scale(0.996264)"/>
       <use xlink:href="#CMR17-32" transform="translate(91.380954 36.153639) scale(0.697382)"/>
      </g>
     </g>
    </g>
    <g id="ytick_5">
     <g id="line2d_13">
      <defs>
       <path id="m2347b4ebc7" d="M 0 0 
L -2 0 
" style="stroke: #000000; stroke-width: 0.6"/>
      </defs>
      <g>
       <use xlink:href="#m2347b4ebc7" x="62.226495" y="181.959493" style="stroke: #000000; stroke-width: 0.6"/>
      </g>
     </g>
    </g>
    <g id="ytick_6">
     <g id="line2d_14">
      <g>
       <use xlink:href="#m2347b4ebc7" x="62.226495" y="174.118561" style="stroke: #000000; stroke-width: 0.6"/>
      </g>
     </g>
    </g>
    <g id="ytick_7">
     <g id="line2d_15">
      <g>
       <use xlink:href="#m2347b4ebc7" x="62.226495" y="168.555331" style="stroke: #000000; stroke-width: 0.6"/>
      </g>
     </g>
    </g>
    <g id="ytick_8">
     <g id="line2d_16">
      <g>
       <use xlink:href="#m2347b4ebc7" x="62.226495" y="164.240154" style="stroke: #000000; stroke-width: 0.6"/>
      </g>
     </g>
    </g>
    <g id="ytick_9">
     <g id="line2d_17">
      <g>
       <use xlink:href="#m2347b4ebc7" x="62.226495" y="160.714398" style="stroke: #000000; stroke-width: 0.6"/>
      </g>
     </g>
    </g>
    <g id="ytick_10">
     <g id="line2d_18">
      <g>
       <use xlink:href="#m2347b4ebc7" x="62.226495" y="157.733414" style="stroke: #000000; stroke-width: 0.6"/>
      </g>
     </g>
    </g>
    <g id="ytick_11">
     <g id="line2d_19">
      <g>
       <use xlink:href="#m2347b4ebc7" x="62.226495" y="155.151168" style="stroke: #000000; stroke-width: 0.6"/>
      </g>
     </g>
    </g>
    <g id="ytick_12">
     <g id="line2d_20">
      <g>
       <use xlink:href="#m2347b4ebc7" x="62.226495" y="152.873466" style="stroke: #000000; stroke-width: 0.6"/>
      </g>
     </g>
    </g>
    <g id="ytick_13">
     <g id="line2d_21">
      <g>
       <use xlink:href="#m2347b4ebc7" x="62.226495" y="137.431829" style="stroke: #000000; stroke-width: 0.6"/>
      </g>
     </g>
    </g>
    <g id="ytick_14">
     <g id="line2d_22">
      <g>
       <use xlink:href="#m2347b4ebc7" x="62.226495" y="129.590897" style="stroke: #000000; stroke-width: 0.6"/>
      </g>
     </g>
    </g>
    <g id="ytick_15">
     <g id="line2d_23">
      <g>
       <use xlink:href="#m2347b4ebc7" x="62.226495" y="124.027667" style="stroke: #000000; stroke-width: 0.6"/>
      </g>
     </g>
    </g>
    <g id="ytick_16">
     <g id="line2d_24">
      <g>
       <use xlink:href="#m2347b4ebc7" x="62.226495" y="119.71249" style="stroke: #000000; stroke-width: 0.6"/>
      </g>
     </g>
    </g>
    <g id="ytick_17">
     <g id="line2d_25">
      <g>
       <use xlink:href="#m2347b4ebc7" x="62.226495" y="116.186734" style="stroke: #000000; stroke-width: 0.6"/>
      </g>
     </g>
    </g>
    <g id="ytick_18">
     <g id="line2d_26">
      <g>
       <use xlink:href="#m2347b4ebc7" x="62.226495" y="113.20575" style="stroke: #000000; stroke-width: 0.6"/>
      </g>
     </g>
    </g>
    <g id="ytick_19">
     <g id="line2d_27">
      <g>
       <use xlink:href="#m2347b4ebc7" x="62.226495" y="110.623504" style="stroke: #000000; stroke-width: 0.6"/>
      </g>
     </g>
    </g>
    <g id="ytick_20">
     <g id="line2d_28">
      <g>
       <use xlink:href="#m2347b4ebc7" x="62.226495" y="108.345802" style="stroke: #000000; stroke-width: 0.6"/>
      </g>
     </g>
    </g>
    <g id="ytick_21">
     <g id="line2d_29">
      <g>
       <use xlink:href="#m2347b4ebc7" x="62.226495" y="92.904165" style="stroke: #000000; stroke-width: 0.6"/>
      </g>
     </g>
    </g>
    <g id="ytick_22">
     <g id="line2d_30">
      <g>
       <use xlink:href="#m2347b4ebc7" x="62.226495" y="85.063233" style="stroke: #000000; stroke-width: 0.6"/>
      </g>
     </g>
    </g>
    <g id="ytick_23">
     <g id="line2d_31">
      <g>
       <use xlink:href="#m2347b4ebc7" x="62.226495" y="79.500003" style="stroke: #000000; stroke-width: 0.6"/>
      </g>
     </g>
    </g>
    <g id="ytick_24">
     <g id="line2d_32">
      <g>
       <use xlink:href="#m2347b4ebc7" x="62.226495" y="75.184826" style="stroke: #000000; stroke-width: 0.6"/>
      </g>
     </g>
    </g>
    <g id="ytick_25">
     <g id="line2d_33">
      <g>
       <use xlink:href="#m2347b4ebc7" x="62.226495" y="71.65907" style="stroke: #000000; stroke-width: 0.6"/>
      </g>
     </g>
    </g>
    <g id="ytick_26">
     <g id="line2d_34">
      <g>
       <use xlink:href="#m2347b4ebc7" x="62.226495" y="68.678086" style="stroke: #000000; stroke-width: 0.6"/>
      </g>
     </g>
    </g>
    <g id="ytick_27">
     <g id="line2d_35">
      <g>
       <use xlink:href="#m2347b4ebc7" x="62.226495" y="66.09584" style="stroke: #000000; stroke-width: 0.6"/>
      </g>
     </g>
    </g>
    <g id="ytick_28">
     <g id="line2d_36">
      <g>
       <use xlink:href="#m2347b4ebc7" x="62.226495" y="63.818138" style="stroke: #000000; stroke-width: 0.6"/>
      </g>
     </g>
    </g>
    <g id="ytick_29">
     <g id="line2d_37">
      <g>
       <use xlink:href="#m2347b4ebc7" x="62.226495" y="48.376501" style="stroke: #000000; stroke-width: 0.6"/>
      </g>
     </g>
    </g>
    <g id="ytick_30">
     <g id="line2d_38">
      <g>
       <use xlink:href="#m2347b4ebc7" x="62.226495" y="40.535569" style="stroke: #000000; stroke-width: 0.6"/>
      </g>
     </g>
    </g>
    <g id="ytick_31">
     <g id="line2d_39">
      <g>
       <use xlink:href="#m2347b4ebc7" x="62.226495" y="34.972339" style="stroke: #000000; stroke-width: 0.6"/>
      </g>
     </g>
    </g>
    <g id="ytick_32">
     <g id="line2d_40">
      <g>
       <use xlink:href="#m2347b4ebc7" x="62.226495" y="30.657162" style="stroke: #000000; stroke-width: 0.6"/>
      </g>
     </g>
    </g>
    <g id="ytick_33">
     <g id="line2d_41">
      <g>
       <use xlink:href="#m2347b4ebc7" x="62.226495" y="27.131406" style="stroke: #000000; stroke-width: 0.6"/>
      </g>
     </g>
    </g>
    <g id="ytick_34">
     <g id="line2d_42">
      <g>
       <use xlink:href="#m2347b4ebc7" x="62.226495" y="24.150422" style="stroke: #000000; stroke-width: 0.6"/>
      </g>
     </g>
    </g>
    <g id="ytick_35">
     <g id="line2d_43">
      <g>
       <use xlink:href="#m2347b4ebc7" x="62.226495" y="21.568176" style="stroke: #000000; stroke-width: 0.6"/>
      </g>
     </g>
    </g>
    <g id="ytick_36">
     <g id="line2d_44">
      <g>
       <use xlink:href="#m2347b4ebc7" x="62.226495" y="19.290474" style="stroke: #000000; stroke-width: 0.6"/>
      </g>
     </g>
    </g>
    <g id="text_14">
     <!-- $\phi(P)$ -->
     <g transform="translate(21.260772 116.870711) rotate(-90) scale(0.14 -0.14)">
      <defs>
       <path id="CMMI12-1e" d="M 2752 4390 
C 2752 4448 2707 4448 2688 4448 
C 2630 4448 2624 4435 2598 4326 
L 2253 2939 
C 2234 2856 2227 2849 2221 2843 
C 2214 2830 2170 2824 2157 2824 
C 1107 2734 301 1864 301 1057 
C 301 361 832 -64 1498 -64 
C 1446 -261 1402 -463 1350 -659 
C 1261 -995 1210 -1204 1210 -1229 
C 1210 -1241 1210 -1280 1274 -1280 
C 1293 -1280 1318 -1280 1331 -1254 
C 1344 -1241 1382 -1089 1408 -1008 
L 1645 -64 
C 2739 -64 3571 854 3571 1680 
C 3571 2343 3085 2816 2374 2816 
L 2752 4390 
z
M 2336 2701 
C 2758 2701 3181 2463 3181 1828 
C 3181 1097 2675 128 1677 50 
L 2336 2701 
z
M 1530 50 
C 1216 50 691 220 691 938 
C 691 1761 1274 2676 2195 2676 
L 1530 50 
z
" transform="scale(0.015625)"/>
       <path id="CMR17-28" d="M 1958 -1561 
C 1958 -1555 1958 -1542 1939 -1523 
C 1645 -1224 858 -407 858 1581 
C 858 3569 1632 4379 1946 4697 
C 1946 4704 1958 4717 1958 4736 
C 1958 4755 1939 4768 1914 4768 
C 1843 4768 1299 4296 986 3594 
C 666 2887 576 2199 576 1588 
C 576 1128 621 351 1005 -471 
C 1312 -1135 1837 -1600 1914 -1600 
C 1946 -1600 1958 -1587 1958 -1561 
z
" transform="scale(0.015625)"/>
       <path id="CMMI12-50" d="M 1894 2023 
L 2970 2023 
C 3853 2023 4736 2673 4736 3401 
C 4736 3898 4314 4352 3507 4352 
L 1530 4352 
C 1408 4352 1350 4352 1350 4231 
C 1350 4167 1408 4167 1504 4167 
C 1894 4167 1894 4116 1894 4046 
C 1894 4034 1894 3995 1869 3899 
L 1005 472 
C 947 249 934 185 486 185 
C 365 185 301 185 301 70 
C 301 0 358 0 397 0 
C 518 0 646 0 768 0 
L 1517 0 
C 1638 0 1773 0 1894 0 
C 1946 0 2016 0 2016 121 
C 2016 185 1958 185 1862 185 
C 1478 185 1472 230 1472 293 
C 1472 325 1478 369 1485 401 
L 1894 2023 
z
M 2355 3930 
C 2413 4167 2438 4167 2688 4167 
L 3322 4167 
C 3802 4167 4198 4013 4198 3535 
C 4198 3369 4115 2827 3821 2534 
C 3712 2419 3405 2176 2822 2176 
L 1920 2176 
L 2355 3930 
z
" transform="scale(0.015625)"/>
       <path id="CMR17-29" d="M 1683 1581 
C 1683 2040 1638 2817 1254 3639 
C 947 4303 422 4768 346 4768 
C 326 4768 301 4761 301 4729 
C 301 4717 307 4710 314 4697 
C 621 4378 1402 3568 1402 1584 
C 1402 -407 627 -1217 314 -1537 
C 307 -1549 301 -1556 301 -1568 
C 301 -1600 326 -1600 346 -1600 
C 416 -1600 960 -1128 1274 -426 
C 1594 281 1683 969 1683 1581 
z
" transform="scale(0.015625)"/>
      </defs>
      <use xlink:href="#CMMI12-1e" transform="scale(0.996264)"/>
      <use xlink:href="#CMR17-28" transform="translate(57.73418 0) scale(0.996264)"/>
      <use xlink:href="#CMMI12-50" transform="translate(93.014948 0) scale(0.996264)"/>
      <use xlink:href="#CMR17-29" transform="translate(169.440769 0) scale(0.996264)"/>
     </g>
    </g>
   </g>
   <g id="line2d_45">
    <path d="M 76.497238 89.887001 
L 78.194313 88.107317 
L 79.341823 87.006191 
L 80.197276 86.23217 
L 85.883057 81.887415 
L 89.828431 79.483019 
L 98.245274 75.449462 
L 99.712474 74.862111 
L 100.393466 74.599136 
L 102.242411 73.914064 
L 102.655206 73.766632 
L 104.061465 73.278684 
L 104.308008 73.195349 
L 105.971648 72.649467 
L 106.706027 72.417288 
L 118.02634 69.413437 
L 118.76378 69.250064 
L 125.457631 67.915734 
L 130.59741 67.05395 
L 139.957068 65.793101 
L 152.447902 64.636576 
L 154.279311 64.511954 
L 157.096988 64.341228 
L 169.927214 63.871324 
L 172.823412 63.832621 
L 174.818168 63.820115 
L 180.015744 63.841622 
L 200.181532 64.683788 
L 217.042213 66.423658 
L 217.326222 66.46242 
L 233.111705 69.228354 
L 233.587322 69.333025 
L 233.868013 69.395474 
L 235.470978 69.761962 
L 237.648891 70.287933 
L 239.694195 70.813182 
L 239.892473 70.865794 
L 240.829289 71.118572 
L 241.6549 71.347222 
L 243.880064 71.992261 
L 246.081421 72.674564 
L 247.014327 72.977929 
L 247.033858 72.984374 
L 252.110402 74.802978 
L 252.736158 75.048687 
L 252.784311 75.067809 
L 253.90718 75.522634 
L 253.972273 75.549536 
L 254.17386 75.633232 
L 259.188083 77.919188 
L 259.950303 78.305079 
L 263.423024 80.217382 
L 263.951975 80.533258 
L 266.573188 82.210453 
L 266.579013 82.214405 
L 266.607644 82.233842 
L 267.761032 83.038866 
L 270.400521 85.061303 
L 273.972007 88.298804 
L 275.292641 89.683535 
L 276.201179 90.708976 
L 277.147022 91.848447 
L 277.256831 91.985912 
L 277.414645 92.185465 
L 280.862127 97.255376 
L 282.147953 99.603986 
L 282.542377 100.391927 
L 282.631645 100.575221 
L 283.421416 102.284654 
L 283.672308 102.863775 
L 288.020511 117.801674 
L 289.352618 126.619067 
L 289.35932 241.132758 
" clip-path="url(#pd63756ed0b)" style="fill: none; stroke-dasharray: 11.1,4.8; stroke-dashoffset: 0; stroke: #ff7f0e; stroke-width: 3"/>
   </g>
   <g id="patch_3">
    <path d="M 62.226495 193.536948 
L 62.226495 10.8 
" style="fill: none; stroke: #000000; stroke-width: 0.8; stroke-linejoin: miter; stroke-linecap: square"/>
   </g>
   <g id="patch_4">
    <path d="M 376.182834 193.536948 
L 376.182834 10.8 
" style="fill: none; stroke: #000000; stroke-width: 0.8; stroke-linejoin: miter; stroke-linecap: square"/>
   </g>
   <g id="patch_5">
    <path d="M 62.226495 193.536948 
L 376.182834 193.536948 
" style="fill: none; stroke: #000000; stroke-width: 0.8; stroke-linejoin: miter; stroke-linecap: square"/>
   </g>
   <g id="patch_6">
    <path d="M 62.226495 10.8 
L 376.182834 10.8 
" style="fill: none; stroke: #000000; stroke-width: 0.8; stroke-linejoin: miter; stroke-linecap: square"/>
   </g>
   <g id="legend_1">
    <g id="line2d_46">
     <path d="M 311.282835 28.3 
L 325.282835 28.3 
L 339.282835 28.3 
" style="fill: none; stroke-dasharray: 11.1,4.8; stroke-dashoffset: 0; stroke: #ff7f0e; stroke-width: 3"/>
    </g>
    <g id="text_15">
     <!-- $\phi^*$ -->
     <g transform="translate(350.482835 33.2) scale(0.14 -0.14)">
      <defs>
       <path id="CMSY10-3" d="M 1760 2719 
C 1766 2808 1766 2962 1600 2962 
C 1498 2962 1414 2879 1434 2795 
L 1434 2712 
L 1523 1720 
L 704 2316 
C 646 2348 634 2360 589 2360 
C 499 2360 416 2271 416 2181 
C 416 2079 480 2053 544 2021 
L 1453 1586 
L 570 1158 
C 467 1107 416 1081 416 985 
C 416 889 499 806 589 806 
C 634 806 646 806 806 928 
L 1523 1446 
L 1427 371 
C 1427 236 1542 204 1594 204 
C 1670 204 1766 248 1766 371 
L 1670 1446 
L 2490 851 
C 2547 819 2560 806 2605 806 
C 2694 806 2778 896 2778 985 
C 2778 1081 2720 1113 2643 1152 
C 2259 1343 2246 1343 1741 1580 
L 2624 2008 
C 2726 2060 2778 2085 2778 2181 
C 2778 2277 2694 2360 2605 2360 
C 2560 2360 2547 2360 2387 2239 
L 1670 1720 
L 1760 2719 
z
" transform="scale(0.015625)"/>
      </defs>
      <use xlink:href="#CMMI12-1e" transform="scale(0.996264)"/>
      <use xlink:href="#CMSY10-3" transform="translate(57.73418 36.153639) scale(0.697382)"/>
     </g>
    </g>
    <g id="PathCollection_3">
     <g>
      <use xlink:href="#m0bd5323808" x="325.282835" y="49.037028" style="stroke: #000000; stroke-width: 1.5"/>
     </g>
    </g>
    <g id="text_16">
     <!-- $u$ -->
     <g transform="translate(350.482835 52.712028) scale(0.14 -0.14)">
      <defs>
       <path id="CMMI12-75" d="M 2182 370 
C 2266 13 2573 -64 2726 -64 
C 2931 -64 3085 70 3187 287 
C 3296 517 3379 894 3379 913 
C 3379 945 3354 971 3315 971 
C 3258 971 3251 939 3226 843 
C 3110 402 2995 64 2739 64 
C 2547 64 2547 275 2547 358 
C 2547 505 2566 568 2630 837 
C 2675 1009 2720 1181 2758 1360 
L 3021 2401 
C 3066 2561 3066 2574 3066 2593 
C 3066 2689 2989 2753 2893 2753 
C 2707 2753 2662 2593 2624 2433 
C 2560 2184 2214 811 2170 588 
C 2163 588 1914 64 1446 64 
C 1114 64 1050 351 1050 588 
C 1050 952 1229 1462 1395 1890 
C 1472 2095 1504 2178 1504 2305 
C 1504 2580 1306 2816 998 2816 
C 410 2816 173 1890 173 1839 
C 173 1814 198 1782 243 1782 
C 301 1782 307 1807 333 1896 
C 486 2441 736 2682 979 2682 
C 1043 2682 1146 2682 1146 2478 
C 1146 2312 1075 2127 979 1884 
C 698 1124 666 881 666 690 
C 666 38 1158 -64 1421 -64 
C 1830 -64 2054 217 2182 370 
z
" transform="scale(0.015625)"/>
      </defs>
      <use xlink:href="#CMMI12-75" transform="scale(0.996264)"/>
     </g>
    </g>
    <g id="PathCollection_4">
     <g>
      <use xlink:href="#m8c3fc9d50b" x="325.282835" y="72.115543" style="fill: #1f77b4; stroke: #1f77b4"/>
     </g>
    </g>
    <g id="text_17">
     <!-- $\hat{\phi}$ -->
     <g transform="translate(350.482835 75.790543) scale(0.14 -0.14)">
      <defs>
       <path id="CMR17-5e" d="M 1466 4421 
L 678 3555 
L 755 3478 
L 1466 4166 
L 2176 3478 
L 2253 3555 
L 1466 4421 
z
" transform="scale(0.015625)"/>
      </defs>
      <use xlink:href="#CMR17-5e" transform="translate(14.151005 26.296621) scale(0.996264)"/>
      <use xlink:href="#CMMI12-1e" transform="scale(0.996264)"/>
     </g>
    </g>
   </g>
  </g>
 </g>
 <defs>
  <clipPath id="pd63756ed0b">
   <rect x="62.226495" y="10.8" width="313.956339" height="182.736948"/>
  </clipPath>
 </defs>
</svg>
