<?xml version="1.0" encoding="utf-8" standalone="no"?>
<!DOCTYPE svg PUBLIC "-//W3C//DTD SVG 1.1//EN"
  "http://www.w3.org/Graphics/SVG/1.1/DTD/svg11.dtd">
<svg xmlns:xlink="http://www.w3.org/1999/xlink" width="388.542964pt" height="240.132758pt" viewBox="0 0 388.542964 240.132758" xmlns="http://www.w3.org/2000/svg" version="1.1">
 <metadata>
  <rdf:RDF xmlns:dc="http://purl.org/dc/elements/1.1/" xmlns:cc="http://creativecommons.org/ns#" xmlns:rdf="http://www.w3.org/1999/02/22-rdf-syntax-ns#">
   <cc:Work>
    <dc:type rdf:resource="http://purl.org/dc/dcmitype/StillImage"/>
    <dc:date>2024-12-06T22:48:42.751234</dc:date>
    <dc:format>image/svg+xml</dc:format>
    <dc:creator>
     <cc:Agent>
      <dc:title>Matplotlib v3.7.5, https://matplotlib.org/</dc:title>
     </cc:Agent>
    </dc:creator>
   </cc:Work>
  </rdf:RDF>
 </metadata>
 <defs>
  <style type="text/css">*{stroke-linejoin: round; stroke-linecap: butt}</style>
 </defs>
 <g id="figure_1">
  <g id="patch_1">
   <path d="M 0 240.132758 
L 388.542964 240.132758 
L 388.542964 0 
L 0 0 
z
" style="fill: #ffffff"/>
  </g>
  <g id="axes_1">
   <g id="patch_2">
    <path d="M 49.404673 187.701556 
L 377.742964 187.701556 
L 377.742964 10.8 
L 49.404673 10.8 
z
" style="fill: #ffffff"/>
   </g>
   <g id="matplotlib.axis_1">
    <g id="xtick_1">
     <g id="line2d_1">
      <defs>
       <path id="ma8fc7ef5ea" d="M 0 0 
L 0 3.5 
" style="stroke: #000000; stroke-width: 0.8"/>
      </defs>
      <g>
       <use xlink:href="#ma8fc7ef5ea" x="64.007409" y="187.701556" style="stroke: #000000; stroke-width: 0.8"/>
      </g>
     </g>
     <g id="text_1">
      <!-- $\mathdefault{0.0}$ -->
      <g transform="translate(55.282118 204.387432) scale(0.14 -0.14)">
       <defs>
        <path id="CMR17-30" d="M 2688 2025 
C 2688 2416 2682 3080 2413 3591 
C 2176 4039 1798 4198 1466 4198 
C 1158 4198 768 4058 525 3597 
C 269 3118 243 2524 243 2025 
C 243 1661 250 1106 448 619 
C 723 -39 1216 -128 1466 -128 
C 1760 -128 2208 -7 2470 600 
C 2662 1042 2688 1559 2688 2025 
z
M 1466 -26 
C 1056 -26 813 325 723 812 
C 653 1188 653 1738 653 2096 
C 653 2588 653 2997 736 3387 
C 858 3929 1216 4096 1466 4096 
C 1728 4096 2067 3923 2189 3400 
C 2272 3036 2278 2607 2278 2096 
C 2278 1680 2278 1169 2202 792 
C 2067 95 1690 -26 1466 -26 
z
" transform="scale(0.015625)"/>
        <path id="CMMI12-3a" d="M 1178 307 
C 1178 492 1024 619 870 619 
C 685 619 557 466 557 313 
C 557 128 710 0 864 0 
C 1050 0 1178 153 1178 307 
z
" transform="scale(0.015625)"/>
       </defs>
       <use xlink:href="#CMR17-30" transform="scale(0.996264)"/>
       <use xlink:href="#CMMI12-3a" transform="translate(45.690477 0) scale(0.996264)"/>
       <use xlink:href="#CMR17-30" transform="translate(72.787654 0) scale(0.996264)"/>
      </g>
     </g>
    </g>
    <g id="xtick_2">
     <g id="line2d_2">
      <g>
       <use xlink:href="#ma8fc7ef5ea" x="118.397857" y="187.701556" style="stroke: #000000; stroke-width: 0.8"/>
      </g>
     </g>
     <g id="text_2">
      <!-- $\mathdefault{0.2}$ -->
      <g transform="translate(109.672566 204.387432) scale(0.14 -0.14)">
       <defs>
        <path id="CMR17-32" d="M 2669 989 
L 2554 989 
C 2490 536 2438 459 2413 420 
C 2381 369 1920 369 1830 369 
L 602 369 
C 832 619 1280 1072 1824 1597 
C 2214 1967 2669 2402 2669 3035 
C 2669 3790 2067 4224 1395 4224 
C 691 4224 262 3604 262 3030 
C 262 2780 448 2748 525 2748 
C 589 2748 781 2787 781 3010 
C 781 3207 614 3264 525 3264 
C 486 3264 448 3258 422 3245 
C 544 3790 915 4058 1306 4058 
C 1862 4058 2227 3617 2227 3035 
C 2227 2479 1901 2000 1536 1584 
L 262 146 
L 262 0 
L 2515 0 
L 2669 989 
z
" transform="scale(0.015625)"/>
       </defs>
       <use xlink:href="#CMR17-30" transform="scale(0.996264)"/>
       <use xlink:href="#CMMI12-3a" transform="translate(45.690477 0) scale(0.996264)"/>
       <use xlink:href="#CMR17-32" transform="translate(72.787654 0) scale(0.996264)"/>
      </g>
     </g>
    </g>
    <g id="xtick_3">
     <g id="line2d_3">
      <g>
       <use xlink:href="#ma8fc7ef5ea" x="172.788304" y="187.701556" style="stroke: #000000; stroke-width: 0.8"/>
      </g>
     </g>
     <g id="text_3">
      <!-- $\mathdefault{0.4}$ -->
      <g transform="translate(164.063013 204.387432) scale(0.14 -0.14)">
       <defs>
        <path id="CMR17-34" d="M 2150 4122 
C 2150 4256 2144 4256 2029 4256 
L 128 1254 
L 128 1088 
L 1779 1088 
L 1779 457 
C 1779 224 1766 160 1318 160 
L 1197 160 
L 1197 0 
C 1402 0 1747 0 1965 0 
C 2182 0 2528 0 2733 0 
L 2733 160 
L 2611 160 
C 2163 160 2150 224 2150 457 
L 2150 1088 
L 2803 1088 
L 2803 1254 
L 2150 1254 
L 2150 4122 
z
M 1798 3703 
L 1798 1254 
L 256 1254 
L 1798 3703 
z
" transform="scale(0.015625)"/>
       </defs>
       <use xlink:href="#CMR17-30" transform="scale(0.996264)"/>
       <use xlink:href="#CMMI12-3a" transform="translate(45.690477 0) scale(0.996264)"/>
       <use xlink:href="#CMR17-34" transform="translate(72.787654 0) scale(0.996264)"/>
      </g>
     </g>
    </g>
    <g id="xtick_4">
     <g id="line2d_4">
      <g>
       <use xlink:href="#ma8fc7ef5ea" x="227.178752" y="187.701556" style="stroke: #000000; stroke-width: 0.8"/>
      </g>
     </g>
     <g id="text_4">
      <!-- $\mathdefault{0.6}$ -->
      <g transform="translate(218.453461 204.387432) scale(0.14 -0.14)">
       <defs>
        <path id="CMR17-36" d="M 678 2176 
C 678 3690 1395 4032 1811 4032 
C 1946 4032 2272 4009 2400 3776 
C 2298 3776 2106 3776 2106 3553 
C 2106 3381 2246 3323 2336 3323 
C 2394 3323 2566 3348 2566 3560 
C 2566 3954 2246 4179 1805 4179 
C 1043 4179 243 3390 243 1984 
C 243 253 966 -128 1478 -128 
C 2099 -128 2688 427 2688 1283 
C 2688 2081 2170 2662 1517 2662 
C 1126 2662 838 2407 678 1960 
L 678 2176 
z
M 1478 25 
C 691 25 691 1200 691 1436 
C 691 1896 909 2560 1504 2560 
C 1613 2560 1926 2560 2138 2120 
C 2253 1870 2253 1609 2253 1289 
C 2253 944 2253 690 2118 434 
C 1978 171 1773 25 1478 25 
z
" transform="scale(0.015625)"/>
       </defs>
       <use xlink:href="#CMR17-30" transform="scale(0.996264)"/>
       <use xlink:href="#CMMI12-3a" transform="translate(45.690477 0) scale(0.996264)"/>
       <use xlink:href="#CMR17-36" transform="translate(72.787654 0) scale(0.996264)"/>
      </g>
     </g>
    </g>
    <g id="xtick_5">
     <g id="line2d_5">
      <g>
       <use xlink:href="#ma8fc7ef5ea" x="281.5692" y="187.701556" style="stroke: #000000; stroke-width: 0.8"/>
      </g>
     </g>
     <g id="text_5">
      <!-- $\mathdefault{0.8}$ -->
      <g transform="translate(272.843909 204.387432) scale(0.14 -0.14)">
       <defs>
        <path id="CMR17-38" d="M 1741 2264 
C 2144 2467 2554 2773 2554 3263 
C 2554 3841 1990 4179 1472 4179 
C 890 4179 378 3759 378 3180 
C 378 3021 416 2747 666 2505 
C 730 2442 998 2251 1171 2130 
C 883 1983 211 1634 211 934 
C 211 279 838 -128 1459 -128 
C 2144 -128 2720 362 2720 1010 
C 2720 1590 2330 1857 2074 2029 
L 1741 2264 
z
M 902 2822 
C 851 2854 595 3051 595 3351 
C 595 3739 998 4032 1459 4032 
C 1965 4032 2336 3676 2336 3262 
C 2336 2669 1670 2331 1638 2331 
C 1632 2331 1626 2331 1574 2370 
L 902 2822 
z
M 2080 1519 
C 2176 1449 2483 1240 2483 851 
C 2483 381 2010 25 1472 25 
C 890 25 448 438 448 940 
C 448 1443 838 1862 1280 2060 
L 2080 1519 
z
" transform="scale(0.015625)"/>
       </defs>
       <use xlink:href="#CMR17-30" transform="scale(0.996264)"/>
       <use xlink:href="#CMMI12-3a" transform="translate(45.690477 0) scale(0.996264)"/>
       <use xlink:href="#CMR17-38" transform="translate(72.787654 0) scale(0.996264)"/>
      </g>
     </g>
    </g>
    <g id="xtick_6">
     <g id="line2d_6">
      <g>
       <use xlink:href="#ma8fc7ef5ea" x="335.959648" y="187.701556" style="stroke: #000000; stroke-width: 0.8"/>
      </g>
     </g>
     <g id="text_6">
      <!-- $\mathdefault{1.0}$ -->
      <g transform="translate(327.234357 204.387432) scale(0.14 -0.14)">
       <defs>
        <path id="CMR17-31" d="M 1702 4058 
C 1702 4192 1696 4192 1606 4192 
C 1357 3916 979 3827 621 3827 
C 602 3827 570 3827 563 3808 
C 557 3795 557 3782 557 3648 
C 755 3648 1088 3686 1344 3839 
L 1344 461 
C 1344 236 1331 160 781 160 
L 589 160 
L 589 0 
C 896 0 1216 0 1523 0 
C 1830 0 2150 0 2458 0 
L 2458 160 
L 2266 160 
C 1715 160 1702 230 1702 458 
L 1702 4058 
z
" transform="scale(0.015625)"/>
       </defs>
       <use xlink:href="#CMR17-31" transform="scale(0.996264)"/>
       <use xlink:href="#CMMI12-3a" transform="translate(45.690477 0) scale(0.996264)"/>
       <use xlink:href="#CMR17-30" transform="translate(72.787654 0) scale(0.996264)"/>
      </g>
     </g>
    </g>
    <g id="text_7">
     <!-- $\mathbf{P}$ -->
     <g transform="translate(208.214286 220.785337) scale(0.14 -0.14)">
      <defs>
       <path id="CMBX12-50" d="M 1766 1934 
L 2854 1934 
C 3923 1934 4518 2474 4518 3128 
C 4518 3812 3910 4352 2854 4352 
L 243 4352 
L 243 4078 
L 922 4078 
L 922 267 
L 243 267 
L 243 0 
C 429 0 1114 0 1344 0 
C 1574 0 2259 0 2445 0 
L 2445 267 
L 1766 267 
L 1766 1934 
z
M 2624 4078 
C 3616 4078 3616 3558 3616 3127 
C 3616 2709 3616 2176 2624 2176 
L 1734 2176 
L 1734 4078 
L 2624 4078 
z
" transform="scale(0.015625)"/>
      </defs>
      <use xlink:href="#CMBX12-50" transform="scale(0.996264)"/>
     </g>
    </g>
   </g>
   <g id="matplotlib.axis_2">
    <g id="ytick_1">
     <g id="line2d_7">
      <defs>
       <path id="m597c285546" d="M 0 0 
L -3.5 0 
" style="stroke: #000000; stroke-width: 0.8"/>
      </defs>
      <g>
       <use xlink:href="#m597c285546" x="49.404673" y="175.69443" style="stroke: #000000; stroke-width: 0.8"/>
      </g>
     </g>
     <g id="text_8">
      <!-- $\mathdefault{0}$ -->
      <g transform="translate(35.576185 180.537368) scale(0.14 -0.14)">
       <use xlink:href="#CMR17-30" transform="scale(0.996264)"/>
      </g>
     </g>
    </g>
    <g id="ytick_2">
     <g id="line2d_8">
      <g>
       <use xlink:href="#m597c285546" x="49.404673" y="150.390897" style="stroke: #000000; stroke-width: 0.8"/>
      </g>
     </g>
     <g id="text_9">
      <!-- $\mathdefault{10}$ -->
      <g transform="translate(28.747696 155.233835) scale(0.14 -0.14)">
       <use xlink:href="#CMR17-31" transform="scale(0.996264)"/>
       <use xlink:href="#CMR17-30" transform="translate(45.690477 0) scale(0.996264)"/>
      </g>
     </g>
    </g>
    <g id="ytick_3">
     <g id="line2d_9">
      <g>
       <use xlink:href="#m597c285546" x="49.404673" y="125.087364" style="stroke: #000000; stroke-width: 0.8"/>
      </g>
     </g>
     <g id="text_10">
      <!-- $\mathdefault{20}$ -->
      <g transform="translate(28.747696 129.930302) scale(0.14 -0.14)">
       <use xlink:href="#CMR17-32" transform="scale(0.996264)"/>
       <use xlink:href="#CMR17-30" transform="translate(45.690477 0) scale(0.996264)"/>
      </g>
     </g>
    </g>
    <g id="ytick_4">
     <g id="line2d_10">
      <g>
       <use xlink:href="#m597c285546" x="49.404673" y="99.783831" style="stroke: #000000; stroke-width: 0.8"/>
      </g>
     </g>
     <g id="text_11">
      <!-- $\mathdefault{30}$ -->
      <g transform="translate(28.747696 104.626769) scale(0.14 -0.14)">
       <defs>
        <path id="CMR17-33" d="M 1414 2157 
C 1984 2157 2234 1662 2234 1090 
C 2234 320 1824 25 1453 25 
C 1114 25 563 194 390 693 
C 422 680 454 680 486 680 
C 640 680 755 782 755 948 
C 755 1133 614 1216 486 1216 
C 378 1216 211 1165 211 926 
C 211 335 787 -128 1466 -128 
C 2176 -128 2720 430 2720 1085 
C 2720 1707 2208 2157 1600 2227 
C 2086 2328 2554 2756 2554 3329 
C 2554 3820 2048 4179 1472 4179 
C 890 4179 378 3829 378 3329 
C 378 3110 544 3072 627 3072 
C 762 3072 877 3155 877 3321 
C 877 3486 762 3569 627 3569 
C 602 3569 570 3569 544 3557 
C 730 3959 1235 4032 1459 4032 
C 1683 4032 2106 3925 2106 3320 
C 2106 3143 2080 2828 1862 2550 
C 1670 2304 1453 2304 1242 2284 
C 1210 2284 1062 2269 1037 2269 
C 992 2263 966 2257 966 2208 
C 966 2163 973 2157 1101 2157 
L 1414 2157 
z
" transform="scale(0.015625)"/>
       </defs>
       <use xlink:href="#CMR17-33" transform="scale(0.996264)"/>
       <use xlink:href="#CMR17-30" transform="translate(45.690477 0) scale(0.996264)"/>
      </g>
     </g>
    </g>
    <g id="ytick_5">
     <g id="line2d_11">
      <g>
       <use xlink:href="#m597c285546" x="49.404673" y="74.480297" style="stroke: #000000; stroke-width: 0.8"/>
      </g>
     </g>
     <g id="text_12">
      <!-- $\mathdefault{40}$ -->
      <g transform="translate(28.747696 79.323236) scale(0.14 -0.14)">
       <use xlink:href="#CMR17-34" transform="scale(0.996264)"/>
       <use xlink:href="#CMR17-30" transform="translate(45.690477 0) scale(0.996264)"/>
      </g>
     </g>
    </g>
    <g id="ytick_6">
     <g id="line2d_12">
      <g>
       <use xlink:href="#m597c285546" x="49.404673" y="49.176764" style="stroke: #000000; stroke-width: 0.8"/>
      </g>
     </g>
     <g id="text_13">
      <!-- $\mathdefault{50}$ -->
      <g transform="translate(28.747696 54.019702) scale(0.14 -0.14)">
       <defs>
        <path id="CMR17-35" d="M 730 3692 
C 794 3666 1056 3584 1325 3584 
C 1920 3584 2246 3911 2432 4100 
C 2432 4157 2432 4192 2394 4192 
C 2387 4192 2374 4192 2323 4163 
C 2099 4058 1837 3973 1517 3973 
C 1325 3973 1037 3999 723 4139 
C 653 4171 640 4171 634 4171 
C 602 4171 595 4164 595 4037 
L 595 2203 
C 595 2089 595 2057 659 2057 
C 691 2057 704 2070 736 2114 
C 941 2401 1222 2522 1542 2522 
C 1766 2522 2246 2382 2246 1289 
C 2246 1085 2246 715 2054 421 
C 1894 159 1645 25 1370 25 
C 947 25 518 320 403 814 
C 429 807 480 795 506 795 
C 589 795 749 840 749 1038 
C 749 1210 627 1280 506 1280 
C 358 1280 262 1190 262 1011 
C 262 454 704 -128 1382 -128 
C 2042 -128 2669 440 2669 1264 
C 2669 2030 2170 2624 1549 2624 
C 1222 2624 947 2503 730 2274 
L 730 3692 
z
" transform="scale(0.015625)"/>
       </defs>
       <use xlink:href="#CMR17-35" transform="scale(0.996264)"/>
       <use xlink:href="#CMR17-30" transform="translate(45.690477 0) scale(0.996264)"/>
      </g>
     </g>
    </g>
    <g id="ytick_7">
     <g id="line2d_13">
      <g>
       <use xlink:href="#m597c285546" x="49.404673" y="23.873231" style="stroke: #000000; stroke-width: 0.8"/>
      </g>
     </g>
     <g id="text_14">
      <!-- $\mathdefault{60}$ -->
      <g transform="translate(28.747696 28.716169) scale(0.14 -0.14)">
       <use xlink:href="#CMR17-36" transform="scale(0.996264)"/>
       <use xlink:href="#CMR17-30" transform="translate(45.690477 0) scale(0.996264)"/>
      </g>
     </g>
    </g>
    <g id="text_15">
     <!-- $\phi(P, S)$ -->
     <g transform="translate(21.260772 120.859002) rotate(-90) scale(0.14 -0.14)">
      <defs>
       <path id="CMMI12-1e" d="M 2752 4390 
C 2752 4448 2707 4448 2688 4448 
C 2630 4448 2624 4435 2598 4326 
L 2253 2939 
C 2234 2856 2227 2849 2221 2843 
C 2214 2830 2170 2824 2157 2824 
C 1107 2734 301 1864 301 1057 
C 301 361 832 -64 1498 -64 
C 1446 -261 1402 -463 1350 -659 
C 1261 -995 1210 -1204 1210 -1229 
C 1210 -1241 1210 -1280 1274 -1280 
C 1293 -1280 1318 -1280 1331 -1254 
C 1344 -1241 1382 -1089 1408 -1008 
L 1645 -64 
C 2739 -64 3571 854 3571 1680 
C 3571 2343 3085 2816 2374 2816 
L 2752 4390 
z
M 2336 2701 
C 2758 2701 3181 2463 3181 1828 
C 3181 1097 2675 128 1677 50 
L 2336 2701 
z
M 1530 50 
C 1216 50 691 220 691 938 
C 691 1761 1274 2676 2195 2676 
L 1530 50 
z
" transform="scale(0.015625)"/>
       <path id="CMR17-28" d="M 1958 -1561 
C 1958 -1555 1958 -1542 1939 -1523 
C 1645 -1224 858 -407 858 1581 
C 858 3569 1632 4379 1946 4697 
C 1946 4704 1958 4717 1958 4736 
C 1958 4755 1939 4768 1914 4768 
C 1843 4768 1299 4296 986 3594 
C 666 2887 576 2199 576 1588 
C 576 1128 621 351 1005 -471 
C 1312 -1135 1837 -1600 1914 -1600 
C 1946 -1600 1958 -1587 1958 -1561 
z
" transform="scale(0.015625)"/>
       <path id="CMMI12-50" d="M 1894 2023 
L 2970 2023 
C 3853 2023 4736 2673 4736 3401 
C 4736 3898 4314 4352 3507 4352 
L 1530 4352 
C 1408 4352 1350 4352 1350 4231 
C 1350 4167 1408 4167 1504 4167 
C 1894 4167 1894 4116 1894 4046 
C 1894 4034 1894 3995 1869 3899 
L 1005 472 
C 947 249 934 185 486 185 
C 365 185 301 185 301 70 
C 301 0 358 0 397 0 
C 518 0 646 0 768 0 
L 1517 0 
C 1638 0 1773 0 1894 0 
C 1946 0 2016 0 2016 121 
C 2016 185 1958 185 1862 185 
C 1478 185 1472 230 1472 293 
C 1472 325 1478 369 1485 401 
L 1894 2023 
z
M 2355 3930 
C 2413 4167 2438 4167 2688 4167 
L 3322 4167 
C 3802 4167 4198 4013 4198 3535 
C 4198 3369 4115 2827 3821 2534 
C 3712 2419 3405 2176 2822 2176 
L 1920 2176 
L 2355 3930 
z
" transform="scale(0.015625)"/>
       <path id="CMMI12-3b" d="M 1248 -31 
C 1248 343 1126 619 864 619 
C 659 619 557 453 557 313 
C 557 172 653 0 870 0 
C 954 0 1024 26 1082 83 
C 1094 96 1101 96 1107 96 
C 1120 96 1120 5 1120 -27 
C 1120 -240 1082 -659 710 -1080 
C 640 -1157 640 -1170 640 -1183 
C 640 -1216 672 -1248 704 -1248 
C 755 -1248 1248 -771 1248 -31 
z
" transform="scale(0.015625)"/>
       <path id="CMMI12-53" d="M 4064 4423 
C 4064 4480 4019 4480 4006 4480 
C 3981 4480 3974 4474 3898 4378 
C 3859 4333 3597 4001 3590 3995 
C 3379 4410 2957 4480 2688 4480 
C 1875 4480 1139 3743 1139 3025 
C 1139 2549 1427 2269 1741 2161 
C 1811 2135 2189 2033 2381 1989 
C 2707 1900 2790 1875 2925 1735 
C 2950 1703 3078 1557 3078 1258 
C 3078 667 2528 57 1888 57 
C 1363 57 781 280 781 991 
C 781 1112 806 1265 826 1328 
C 826 1348 832 1378 832 1391 
C 832 1417 819 1449 768 1449 
C 710 1449 704 1436 678 1328 
L 352 24 
C 352 18 326 -64 326 -71 
C 326 -128 378 -128 390 -128 
C 416 -128 422 -122 499 -26 
L 794 356 
C 947 126 1280 -128 1875 -128 
C 2701 -128 3456 666 3456 1460 
C 3456 1728 3392 1963 3149 2197 
C 3014 2331 2899 2363 2310 2516 
C 1882 2630 1824 2649 1709 2751 
C 1600 2858 1517 3011 1517 3227 
C 1517 3761 2061 4308 2669 4308 
C 3296 4308 3590 3926 3590 3323 
C 3590 3158 3558 2986 3558 2961 
C 3558 2903 3610 2903 3629 2903 
C 3686 2903 3693 2922 3718 3024 
L 4064 4423 
z
" transform="scale(0.015625)"/>
       <path id="CMR17-29" d="M 1683 1581 
C 1683 2040 1638 2817 1254 3639 
C 947 4303 422 4768 346 4768 
C 326 4768 301 4761 301 4729 
C 301 4717 307 4710 314 4697 
C 621 4378 1402 3568 1402 1584 
C 1402 -407 627 -1217 314 -1537 
C 307 -1549 301 -1556 301 -1568 
C 301 -1600 326 -1600 346 -1600 
C 416 -1600 960 -1128 1274 -426 
C 1594 281 1683 969 1683 1581 
z
" transform="scale(0.015625)"/>
      </defs>
      <use xlink:href="#CMMI12-1e" transform="scale(0.996264)"/>
      <use xlink:href="#CMR17-28" transform="translate(57.73418 0) scale(0.996264)"/>
      <use xlink:href="#CMMI12-50" transform="translate(93.014948 0) scale(0.996264)"/>
      <use xlink:href="#CMMI12-3b" transform="translate(158.601898 0) scale(0.996264)"/>
      <use xlink:href="#CMMI12-53" transform="translate(202.30348 0) scale(0.996264)"/>
      <use xlink:href="#CMR17-29" transform="translate(268.09792 0) scale(0.996264)"/>
     </g>
    </g>
   </g>
   <g id="line2d_14">
    <path d="M 88.038623 150.918504 
L 90.073145 150.843528 
L 90.595536 150.748769 
L 91.130737 150.509452 
L 91.68845 149.88723 
L 92.284396 148.346377 
L 92.94182 145.239954 
L 94.585556 134.629514 
L 95.67808 126.619047 
L 97.049284 115.639543 
L 98.796038 102.871989 
L 101.036033 87.956844 
L 103.902931 72.449453 
L 107.539615 57.583453 
L 112.082323 42.915012 
L 117.637274 34.134123 
L 124.247037 28.386591 
L 131.861362 26.876327 
L 140.323735 31.543519 
L 149.372194 40.646812 
L 158.685226 52.272003 
L 167.933996 66.667364 
L 192.94233 104.675883 
L 200.037652 114.224086 
L 206.546267 121.702868 
L 212.557685 127.206201 
L 218.178175 131.926028 
L 223.509436 135.076846 
L 228.641904 137.494 
L 233.651518 139.29765 
L 238.596537 140.536593 
L 248.447105 142.283521 
L 268.372371 145.36603 
L 278.365291 146.992991 
L 283.314168 147.981027 
L 293.014424 150.342087 
L 311.061855 155.018248 
L 319.13969 157.57128 
L 335.972226 163.145593 
L 349.750822 168.386062 
L 354.339797 170.346861 
L 360.00804 173.142321 
L 361.517772 174.083947 
L 362.390595 174.916616 
L 362.814898 175.630546 
L 362.728209 175.989648 
L 362.393512 176.331273 
L 361.878695 176.590173 
L 360.999226 176.789527 
L 359.157878 176.920224 
L 353.696826 176.969482 
L 315.34771 176.907713 
L 300.689856 176.706927 
L 292.527585 176.381347 
L 289.441225 176.17877 
L 289.441225 176.17877 
" clip-path="url(#p21f6ec1643)" style="fill: none; stroke: #000000; stroke-width: 3; stroke-linecap: square"/>
   </g>
   <g id="line2d_15">
    <path d="M 331.45814 150.918504 
L 329.793769 150.843528 
L 329.370212 150.748769 
L 328.936702 150.509452 
L 328.492315 149.88723 
L 328.036792 148.346377 
L 327.570977 145.239954 
L 327.095662 140.596473 
L 326.610995 134.629514 
L 326.115775 126.619047 
L 325.079056 102.871989 
L 323.926017 72.449453 
L 322.553014 42.915012 
L 321.744738 34.134123 
L 320.835443 28.386591 
L 319.812357 26.876327 
L 318.665754 31.543519 
L 317.389295 40.646812 
L 315.979302 52.272003 
L 314.4354 66.667364 
L 312.760088 80.261662 
L 310.957741 92.930378 
L 309.035993 104.675883 
L 307.00261 114.224086 
L 304.86735 121.702868 
L 302.640586 127.206201 
L 300.331316 131.926028 
L 297.949264 135.076846 
L 295.503492 137.494 
L 293.001181 139.29765 
L 290.449074 140.536593 
L 287.85265 141.464629 
L 279.839297 143.855532 
L 268.742485 146.992991 
L 265.908509 147.981027 
L 248.558125 155.018248 
L 239.783535 158.804896 
L 233.952271 161.040868 
L 222.446977 165.16805 
L 216.8207 166.911667 
L 208.592829 169.066896 
L 200.664964 170.933638 
L 195.565111 171.960874 
L 188.209284 173.142321 
L 174.594309 174.916616 
L 168.335711 175.49641 
L 151.629521 176.51543 
L 143.57822 176.789527 
L 131.001746 176.935195 
L 98.267544 176.971461 
L 66.122489 176.858976 
L 64.933092 176.667468 
L 64.496714 176.385184 
L 64.329141 176.17877 
L 64.329141 176.17877 
" clip-path="url(#p21f6ec1643)" style="fill: none; stroke: #808080; stroke-width: 3; stroke-linecap: square"/>
   </g>
   <g id="line2d_16">
    <path d="M 88.038623 123.829711 
L 93.693624 124.696523 
L 97.049284 124.992296 
L 103.902931 125.326322 
L 124.247037 125.940411 
L 167.933996 127.212084 
L 185.207223 127.903089 
L 200.037652 128.68896 
L 212.557685 129.555685 
L 228.641904 130.973811 
L 248.447105 133.01786 
L 283.314168 136.854266 
L 302.314319 139.142917 
L 315.190266 140.882801 
L 326.468334 142.625363 
L 335.972226 144.353834 
L 343.693223 146.051452 
L 347.90526 147.158838 
L 351.432926 148.242757 
L 354.339797 149.300067 
L 356.693239 150.32852 
L 358.561202 151.32644 
L 360.00804 152.292916 
L 361.093501 153.227158 
L 361.871628 154.128946 
L 362.390595 154.998181 
L 362.692807 155.83521 
L 362.814898 156.640537 
L 362.728209 157.790875 
L 362.393512 158.874348 
L 361.676269 160.220792 
L 360.754526 161.461823 
L 359.435419 162.877335 
L 357.446013 164.632182 
L 355.128816 166.356842 
L 352.567113 167.996227 
L 349.807296 169.50989 
L 346.858929 170.871155 
L 343.707877 172.065755 
L 340.337022 173.089363 
L 336.742183 173.946305 
L 332.687931 174.688186 
L 327.736736 175.35599 
L 322.000137 175.897633 
L 314.899514 176.334413 
L 305.756934 176.657088 
L 292.594936 176.874314 
L 289.441225 176.907611 
L 289.441225 176.907611 
" clip-path="url(#p21f6ec1643)" style="fill: none; stroke-dasharray: 3,4.95; stroke-dashoffset: 0; stroke: #1f77b4; stroke-width: 3"/>
   </g>
   <g id="line2d_17">
    <path d="M 88.038623 102.684117 
L 92.284396 105.070479 
L 93.693624 105.720321 
L 95.67808 106.393899 
L 98.796038 107.103191 
L 103.902931 107.888014 
L 112.082323 108.816988 
L 131.861362 110.653223 
L 149.372194 112.256596 
L 167.933996 114.185727 
L 176.83853 115.267389 
L 185.207223 116.421026 
L 192.94233 117.639591 
L 200.037652 118.916042 
L 206.546267 120.24215 
L 212.557685 121.609503 
L 223.509436 124.43813 
L 233.651518 127.345028 
L 273.37863 139.036148 
L 306.765123 148.64196 
L 319.13969 152.432193 
L 329.83687 155.969843 
L 338.739921 159.22542 
L 343.693223 161.229228 
L 347.90526 163.096503 
L 351.432926 164.827648 
L 354.339797 166.424271 
L 356.693239 167.890105 
L 358.561202 169.230217 
L 360.00804 170.450928 
L 361.093501 171.558732 
L 362.160677 173.024289 
L 362.692807 174.275742 
L 362.818496 175.337072 
L 362.640482 176.230959 
L 362.239164 176.978166 
L 361.676269 177.597688 
L 360.754526 178.253865 
L 359.435419 178.849428 
L 357.734933 179.307325 
L 355.706624 179.581734 
L 353.413028 179.659879 
L 350.352393 179.516096 
L 346.066214 179.057703 
L 332.186341 177.421255 
L 324.840207 176.852749 
L 316.474246 176.432974 
L 305.954415 176.138828 
L 290.283072 175.94985 
L 289.441225 175.942809 
L 289.441225 175.942809 
" clip-path="url(#p21f6ec1643)" style="fill: none; stroke-dasharray: 11.1,4.8; stroke-dashoffset: 0; stroke: #1f77b4; stroke-width: 3"/>
   </g>
   <g id="line2d_18">
    <path d="M 88.038623 155.473262 
L 90.595536 145.722616 
L 93.693624 132.964394 
L 97.049284 117.857366 
L 101.036033 98.682313 
L 107.539615 67.378428 
L 112.082323 48.122515 
L 117.637274 30.333168 
L 124.247037 19.2674 
L 131.861362 18.84098 
L 140.323735 28.343955 
L 149.372194 43.36983 
L 158.685226 59.450562 
L 167.933996 74.028105 
L 176.83853 86.255305 
L 185.207223 96.190203 
L 192.94233 104.208957 
L 200.037652 110.738175 
L 206.546267 116.14383 
L 212.557685 120.712706 
L 218.178175 124.660316 
L 223.509436 128.140657 
L 228.641904 131.262827 
L 233.651518 134.10389 
L 238.596537 136.716766 
L 243.518992 139.13797 
L 248.447105 141.393036 
L 253.395512 143.499399 
L 258.368881 145.469834 
L 263.36394 147.314068 
L 273.37863 150.655555 
L 283.314168 153.576744 
L 293.014424 156.125466 
L 302.314319 158.345715 
L 315.190266 161.14937 
L 333.00491 164.723654 
L 347.90526 167.748013 
L 354.339797 169.247996 
L 358.561202 170.45765 
L 360.592429 171.217564 
L 361.871628 171.875819 
L 362.566275 172.449121 
L 362.814898 172.950814 
L 362.728209 173.391625 
L 362.393512 173.780146 
L 361.676269 174.229069 
L 360.502369 174.697608 
L 358.594529 175.216724 
L 355.706624 175.753776 
L 352.007979 176.209304 
L 347.124086 176.569585 
L 340.595177 176.803949 
L 329.946415 176.931395 
L 301.692534 176.970872 
L 289.441225 176.971481 
L 289.441225 176.971481 
" clip-path="url(#p21f6ec1643)" style="fill: none; stroke-dasharray: 19.2,4.8,3,4.8; stroke-dashoffset: 0; stroke: #1f77b4; stroke-width: 3"/>
   </g>
   <g id="line2d_19">
    <path d="M 331.45814 123.829711 
L 64.329141 176.907611 
L 64.329141 176.907611 
" clip-path="url(#p21f6ec1643)" style="fill: none; stroke-dasharray: 3,4.95; stroke-dashoffset: 0; stroke: #ff7f0e; stroke-width: 3"/>
   </g>
   <g id="line2d_20">
    <path d="M 331.45814 102.684117 
L 322.553014 108.816988 
L 314.4354 114.185727 
L 304.86735 120.24215 
L 295.503492 125.884798 
L 285.216253 131.759411 
L 277.104832 136.151984 
L 268.742485 140.459337 
L 260.181392 144.636523 
L 251.478044 148.64196 
L 242.707863 152.432193 
L 233.952271 155.969843 
L 225.296093 159.22542 
L 216.8207 162.179966 
L 208.592829 164.827648 
L 200.664964 167.173225 
L 193.073353 169.230217 
L 183.507466 171.558732 
L 174.594309 173.464007 
L 166.328709 175.002964 
L 158.684983 176.230959 
L 149.953195 177.404264 
L 142.064275 178.253865 
L 133.600691 178.943224 
L 124.946 179.410364 
L 116.438074 179.635226 
L 108.348167 179.63353 
L 100.205237 179.419671 
L 92.037925 178.99137 
L 83.545514 178.318946 
L 75.105112 177.421255 
L 66.674705 176.296354 
L 64.329141 175.942809 
L 64.329141 175.942809 
" clip-path="url(#p21f6ec1643)" style="fill: none; stroke-dasharray: 11.1,4.8; stroke-dashoffset: 0; stroke: #ff7f0e; stroke-width: 3"/>
   </g>
   <g id="line2d_21">
    <path d="M 331.45814 155.473262 
L 329.793769 147.771451 
L 328.036792 138.906107 
L 327.095662 132.964394 
L 326.610995 129.074661 
L 326.115775 124.180296 
L 325.607101 117.857366 
L 325.079056 109.567656 
L 324.522693 98.682313 
L 323.274731 67.378428 
L 322.553014 48.122515 
L 321.744738 30.333168 
L 320.835443 19.2674 
L 319.812357 18.84098 
L 318.665754 28.343955 
L 315.979302 59.450562 
L 314.4354 74.028105 
L 312.760088 86.255305 
L 310.957741 96.190203 
L 309.035993 104.208957 
L 307.00261 110.738175 
L 304.86735 116.14383 
L 302.640586 120.712706 
L 300.331316 124.660316 
L 297.949264 128.140657 
L 295.503492 131.262827 
L 293.001181 134.10389 
L 290.449074 136.716766 
L 287.85265 139.13797 
L 285.216253 141.393036 
L 282.544082 143.499399 
L 279.839297 145.469834 
L 277.104832 147.314068 
L 271.554108 150.655555 
L 265.908509 153.576744 
L 260.181392 156.125466 
L 254.390231 158.345715 
L 248.558125 160.278461 
L 242.707863 161.962837 
L 236.863891 163.434221 
L 231.051431 164.723654 
L 222.446977 166.373963 
L 214.047932 167.748013 
L 203.271617 169.247996 
L 190.621373 170.723466 
L 176.761129 172.075647 
L 162.430993 173.250887 
L 145.123386 174.42774 
L 127.295511 175.399726 
L 109.178107 176.152662 
L 91.533411 176.657412 
L 74.359308 176.924089 
L 64.329141 176.971481 
L 64.329141 176.971481 
" clip-path="url(#p21f6ec1643)" style="fill: none; stroke-dasharray: 19.2,4.8,3,4.8; stroke-dashoffset: 0; stroke: #ff7f0e; stroke-width: 3"/>
   </g>
   <g id="patch_3">
    <path d="M 49.404673 187.701556 
L 49.404673 10.8 
" style="fill: none; stroke: #000000; stroke-width: 0.8; stroke-linejoin: miter; stroke-linecap: square"/>
   </g>
   <g id="patch_4">
    <path d="M 377.742964 187.701556 
L 377.742964 10.8 
" style="fill: none; stroke: #000000; stroke-width: 0.8; stroke-linejoin: miter; stroke-linecap: square"/>
   </g>
   <g id="patch_5">
    <path d="M 49.404673 187.701556 
L 377.742964 187.701556 
" style="fill: none; stroke: #000000; stroke-width: 0.8; stroke-linejoin: miter; stroke-linecap: square"/>
   </g>
   <g id="patch_6">
    <path d="M 49.404673 10.8 
L 377.742964 10.8 
" style="fill: none; stroke: #000000; stroke-width: 0.8; stroke-linejoin: miter; stroke-linecap: square"/>
   </g>
   <g id="text_16">
    <!-- $\mathbf{s}$ -->
    <g style="fill: #808080" transform="translate(142.601043 223.081867) scale(0.24 -0.24)">
     <defs>
      <path id="CMBX12-73" d="M 2413 2715 
C 2413 2836 2413 2880 2317 2880 
C 2278 2880 2266 2880 2170 2823 
C 2144 2804 2074 2759 2042 2740 
C 1862 2842 1626 2880 1395 2880 
C 1203 2880 243 2880 243 2056 
C 243 1389 1037 1250 1235 1218 
C 1408 1187 1619 1148 1645 1148 
C 1901 1091 2157 932 2157 666 
C 2157 178 1574 178 1440 178 
C 1114 178 710 279 531 896 
C 493 1023 486 1023 378 1023 
C 243 1023 243 1004 243 858 
L 243 132 
C 243 12 243 -32 339 -32 
C 384 -32 397 -32 525 70 
L 691 191 
C 979 -32 1325 -32 1440 -32 
C 1792 -32 2592 44 2592 888 
C 2592 1192 2426 1402 2298 1516 
C 2035 1731 1818 1770 1472 1833 
C 1062 1903 678 1973 678 2277 
C 678 2689 1248 2689 1382 2689 
C 2093 2689 2131 2245 2144 2087 
C 2150 2005 2202 2005 2278 2005 
C 2413 2005 2413 2024 2413 2170 
L 2413 2715 
z
" transform="scale(0.015625)"/>
     </defs>
     <use xlink:href="#CMBX12-73" transform="scale(0.996264)"/>
    </g>
   </g>
   <g id="legend_1">
    <g id="line2d_22">
     <path d="M 125.453987 31.866486 
L 139.453987 31.866486 
L 153.453987 31.866486 
" style="fill: none; stroke: #000000; stroke-width: 3; stroke-linecap: square"/>
    </g>
    <g id="text_17">
     <!-- $\hat{\phi}(P)$ -->
     <g transform="translate(164.653987 36.766486) scale(0.14 -0.14)">
      <defs>
       <path id="CMR17-5e" d="M 1466 4421 
L 678 3555 
L 755 3478 
L 1466 4166 
L 2176 3478 
L 2253 3555 
L 1466 4421 
z
" transform="scale(0.015625)"/>
      </defs>
      <use xlink:href="#CMR17-5e" transform="translate(14.151005 26.296621) scale(0.996264)"/>
      <use xlink:href="#CMMI12-1e" transform="scale(0.996264)"/>
      <use xlink:href="#CMR17-28" transform="translate(57.73418 0) scale(0.996264)"/>
      <use xlink:href="#CMMI12-50" transform="translate(93.014948 0) scale(0.996264)"/>
      <use xlink:href="#CMR17-29" transform="translate(169.440769 0) scale(0.996264)"/>
     </g>
    </g>
    <g id="line2d_23">
     <path d="M 125.453987 55.719897 
L 139.453987 55.719897 
L 153.453987 55.719897 
" style="fill: none; stroke: #808080; stroke-width: 3; stroke-linecap: square"/>
    </g>
    <g id="text_18">
     <!-- $\hat{\phi}(S)$ -->
     <g transform="translate(164.653987 60.619897) scale(0.14 -0.14)">
      <use xlink:href="#CMR17-5e" transform="translate(14.151005 26.296621) scale(0.996264)"/>
      <use xlink:href="#CMMI12-1e" transform="scale(0.996264)"/>
      <use xlink:href="#CMR17-28" transform="translate(57.73418 0) scale(0.996264)"/>
      <use xlink:href="#CMMI12-53" transform="translate(93.014948 0) scale(0.996264)"/>
      <use xlink:href="#CMR17-29" transform="translate(158.809387 0) scale(0.996264)"/>
     </g>
    </g>
    <g id="line2d_24">
     <path d="M 125.453987 76.667593 
L 139.453987 76.667593 
L 153.453987 76.667593 
" style="fill: none; stroke-dasharray: 3,4.95; stroke-dashoffset: 0; stroke: #1f77b4; stroke-width: 3"/>
    </g>
    <g id="text_19">
     <!-- $\phi^s_1(P)$ -->
     <g transform="translate(164.653987 81.567593) scale(0.14 -0.14)">
      <defs>
       <path id="CMMI12-73" d="M 1459 1280 
C 1568 1261 1741 1223 1779 1216 
C 1862 1192 2150 1090 2150 783 
C 2150 586 1971 70 1229 70 
C 1094 70 614 70 486 436 
C 742 404 870 603 870 745 
C 870 880 781 950 653 950 
C 512 950 326 841 326 552 
C 326 173 710 -64 1222 -64 
C 2195 -64 2483 651 2483 984 
C 2483 1079 2483 1258 2278 1462 
C 2118 1616 1965 1648 1619 1718 
C 1446 1756 1171 1814 1171 2101 
C 1171 2229 1286 2689 1894 2689 
C 2163 2689 2426 2589 2490 2368 
C 2208 2368 2195 2125 2195 2119 
C 2195 1984 2317 1946 2374 1946 
C 2464 1946 2643 2015 2643 2281 
C 2643 2545 2400 2816 1901 2816 
C 1062 2816 838 2160 838 1899 
C 838 1414 1312 1312 1459 1280 
z
" transform="scale(0.015625)"/>
      </defs>
      <use xlink:href="#CMMI12-1e" transform="scale(0.996264)"/>
      <use xlink:href="#CMMI12-73" transform="translate(57.73418 36.153639) scale(0.697382)"/>
      <use xlink:href="#CMR17-31" transform="translate(57.73418 -24.740171) scale(0.697382)"/>
      <use xlink:href="#CMR17-28" transform="translate(90.397201 0) scale(0.996264)"/>
      <use xlink:href="#CMMI12-50" transform="translate(125.677969 0) scale(0.996264)"/>
      <use xlink:href="#CMR17-29" transform="translate(202.10379 0) scale(0.996264)"/>
     </g>
    </g>
    <g id="line2d_25">
     <path d="M 125.453987 97.615289 
L 139.453987 97.615289 
L 153.453987 97.615289 
" style="fill: none; stroke-dasharray: 11.1,4.8; stroke-dashoffset: 0; stroke: #1f77b4; stroke-width: 3"/>
    </g>
    <g id="text_20">
     <!-- $\phi^s_4(P)$ -->
     <g transform="translate(164.653987 102.515289) scale(0.14 -0.14)">
      <use xlink:href="#CMMI12-1e" transform="scale(0.996264)"/>
      <use xlink:href="#CMMI12-73" transform="translate(57.73418 36.153639) scale(0.697382)"/>
      <use xlink:href="#CMR17-34" transform="translate(57.73418 -24.740171) scale(0.697382)"/>
      <use xlink:href="#CMR17-28" transform="translate(90.397201 0) scale(0.996264)"/>
      <use xlink:href="#CMMI12-50" transform="translate(125.677969 0) scale(0.996264)"/>
      <use xlink:href="#CMR17-29" transform="translate(202.10379 0) scale(0.996264)"/>
     </g>
    </g>
    <g id="line2d_26">
     <path d="M 227.573819 31.866486 
L 241.573819 31.866486 
L 255.573819 31.866486 
" style="fill: none; stroke-dasharray: 19.2,4.8,3,4.8; stroke-dashoffset: 0; stroke: #1f77b4; stroke-width: 3"/>
    </g>
    <g id="text_21">
     <!-- $\phi^s_9(P)$ -->
     <g transform="translate(266.773819 36.766486) scale(0.14 -0.14)">
      <defs>
       <path id="CMR17-39" d="M 2253 1864 
C 2253 464 1670 31 1190 31 
C 1043 31 685 31 538 294 
C 704 268 826 357 826 518 
C 826 692 685 749 595 749 
C 538 749 365 723 365 506 
C 365 71 742 -128 1203 -128 
C 1939 -128 2688 674 2688 2073 
C 2688 3817 1971 4179 1485 4179 
C 851 4179 243 3628 243 2778 
C 243 1991 762 1408 1414 1408 
C 1952 1408 2189 1903 2253 2112 
L 2253 1864 
z
M 1427 1510 
C 1254 1510 1011 1542 813 1922 
C 678 2169 678 2461 678 2771 
C 678 3146 678 3405 858 3684 
C 947 3817 1114 4032 1485 4032 
C 2240 4032 2240 2885 2240 2632 
C 2240 2182 2035 1510 1427 1510 
z
" transform="scale(0.015625)"/>
      </defs>
      <use xlink:href="#CMMI12-1e" transform="scale(0.996264)"/>
      <use xlink:href="#CMMI12-73" transform="translate(57.73418 36.153639) scale(0.697382)"/>
      <use xlink:href="#CMR17-39" transform="translate(57.73418 -24.740171) scale(0.697382)"/>
      <use xlink:href="#CMR17-28" transform="translate(90.397201 0) scale(0.996264)"/>
      <use xlink:href="#CMMI12-50" transform="translate(125.677969 0) scale(0.996264)"/>
      <use xlink:href="#CMR17-29" transform="translate(202.10379 0) scale(0.996264)"/>
     </g>
    </g>
    <g id="line2d_27">
     <path d="M 227.573819 52.814183 
L 241.573819 52.814183 
L 255.573819 52.814183 
" style="fill: none; stroke-dasharray: 3,4.95; stroke-dashoffset: 0; stroke: #ff7f0e; stroke-width: 3"/>
    </g>
    <g id="text_22">
     <!-- $\phi^s_1(S)$ -->
     <g transform="translate(266.773819 57.714183) scale(0.14 -0.14)">
      <use xlink:href="#CMMI12-1e" transform="scale(0.996264)"/>
      <use xlink:href="#CMMI12-73" transform="translate(57.73418 36.153639) scale(0.697382)"/>
      <use xlink:href="#CMR17-31" transform="translate(57.73418 -24.740171) scale(0.697382)"/>
      <use xlink:href="#CMR17-28" transform="translate(90.397201 0) scale(0.996264)"/>
      <use xlink:href="#CMMI12-53" transform="translate(125.677969 0) scale(0.996264)"/>
      <use xlink:href="#CMR17-29" transform="translate(191.472408 0) scale(0.996264)"/>
     </g>
    </g>
    <g id="line2d_28">
     <path d="M 227.573819 73.761879 
L 241.573819 73.761879 
L 255.573819 73.761879 
" style="fill: none; stroke-dasharray: 11.1,4.8; stroke-dashoffset: 0; stroke: #ff7f0e; stroke-width: 3"/>
    </g>
    <g id="text_23">
     <!-- $\phi^s_4(S)$ -->
     <g transform="translate(266.773819 78.661879) scale(0.14 -0.14)">
      <use xlink:href="#CMMI12-1e" transform="scale(0.996264)"/>
      <use xlink:href="#CMMI12-73" transform="translate(57.73418 36.153639) scale(0.697382)"/>
      <use xlink:href="#CMR17-34" transform="translate(57.73418 -24.740171) scale(0.697382)"/>
      <use xlink:href="#CMR17-28" transform="translate(90.397201 0) scale(0.996264)"/>
      <use xlink:href="#CMMI12-53" transform="translate(125.677969 0) scale(0.996264)"/>
      <use xlink:href="#CMR17-29" transform="translate(191.472408 0) scale(0.996264)"/>
     </g>
    </g>
    <g id="line2d_29">
     <path d="M 227.573819 94.709575 
L 241.573819 94.709575 
L 255.573819 94.709575 
" style="fill: none; stroke-dasharray: 19.2,4.8,3,4.8; stroke-dashoffset: 0; stroke: #ff7f0e; stroke-width: 3"/>
    </g>
    <g id="text_24">
     <!-- $\phi^s_9(S)$ -->
     <g transform="translate(266.773819 99.609575) scale(0.14 -0.14)">
      <use xlink:href="#CMMI12-1e" transform="scale(0.996264)"/>
      <use xlink:href="#CMMI12-73" transform="translate(57.73418 36.153639) scale(0.697382)"/>
      <use xlink:href="#CMR17-39" transform="translate(57.73418 -24.740171) scale(0.697382)"/>
      <use xlink:href="#CMR17-28" transform="translate(90.397201 0) scale(0.996264)"/>
      <use xlink:href="#CMMI12-53" transform="translate(125.677969 0) scale(0.996264)"/>
      <use xlink:href="#CMR17-29" transform="translate(191.472408 0) scale(0.996264)"/>
     </g>
    </g>
   </g>
  </g>
 </g>
 <defs>
  <clipPath id="p21f6ec1643">
   <rect x="49.404673" y="10.8" width="328.33829" height="176.901556"/>
  </clipPath>
 </defs>
</svg>
