<?xml version="1.0" encoding="utf-8" standalone="no"?>
<!DOCTYPE svg PUBLIC "-//W3C//DTD SVG 1.1//EN"
  "http://www.w3.org/Graphics/SVG/1.1/DTD/svg11.dtd">
<svg xmlns:xlink="http://www.w3.org/1999/xlink" width="388.542964pt" height="240.132758pt" viewBox="0 0 388.542964 240.132758" xmlns="http://www.w3.org/2000/svg" version="1.1">
 <metadata>
  <rdf:RDF xmlns:dc="http://purl.org/dc/elements/1.1/" xmlns:cc="http://creativecommons.org/ns#" xmlns:rdf="http://www.w3.org/1999/02/22-rdf-syntax-ns#">
   <cc:Work>
    <dc:type rdf:resource="http://purl.org/dc/dcmitype/StillImage"/>
    <dc:date>2024-12-04T19:46:18.919318</dc:date>
    <dc:format>image/svg+xml</dc:format>
    <dc:creator>
     <cc:Agent>
      <dc:title>Matplotlib v3.7.5, https://matplotlib.org/</dc:title>
     </cc:Agent>
    </dc:creator>
   </cc:Work>
  </rdf:RDF>
 </metadata>
 <defs>
  <style type="text/css">*{stroke-linejoin: round; stroke-linecap: butt}</style>
 </defs>
 <g id="figure_1">
  <g id="patch_1">
   <path d="M 0 240.132758 
L 388.542964 240.132758 
L 388.542964 0 
L 0 0 
z
" style="fill: #ffffff"/>
  </g>
  <g id="axes_1">
   <g id="patch_2">
    <path d="M 49.404673 193.536948 
L 377.742964 193.536948 
L 377.742964 10.8 
L 49.404673 10.8 
z
" style="fill: #ffffff"/>
   </g>
   <g id="matplotlib.axis_1">
    <g id="xtick_1">
     <g id="line2d_1">
      <defs>
       <path id="m1c44fe6ff1" d="M 0 0 
L 0 3.5 
" style="stroke: #000000; stroke-width: 0.8"/>
      </defs>
      <g>
       <use xlink:href="#m1c44fe6ff1" x="64.224823" y="193.536948" style="stroke: #000000; stroke-width: 0.8"/>
      </g>
     </g>
     <g id="text_1">
      <!-- $\mathdefault{0.0}$ -->
      <g transform="translate(55.499532 210.222825) scale(0.14 -0.14)">
       <defs>
        <path id="CMR17-30" d="M 2688 2025 
C 2688 2416 2682 3080 2413 3591 
C 2176 4039 1798 4198 1466 4198 
C 1158 4198 768 4058 525 3597 
C 269 3118 243 2524 243 2025 
C 243 1661 250 1106 448 619 
C 723 -39 1216 -128 1466 -128 
C 1760 -128 2208 -7 2470 600 
C 2662 1042 2688 1559 2688 2025 
z
M 1466 -26 
C 1056 -26 813 325 723 812 
C 653 1188 653 1738 653 2096 
C 653 2588 653 2997 736 3387 
C 858 3929 1216 4096 1466 4096 
C 1728 4096 2067 3923 2189 3400 
C 2272 3036 2278 2607 2278 2096 
C 2278 1680 2278 1169 2202 792 
C 2067 95 1690 -26 1466 -26 
z
" transform="scale(0.015625)"/>
        <path id="CMMI12-3a" d="M 1178 307 
C 1178 492 1024 619 870 619 
C 685 619 557 466 557 313 
C 557 128 710 0 864 0 
C 1050 0 1178 153 1178 307 
z
" transform="scale(0.015625)"/>
       </defs>
       <use xlink:href="#CMR17-30" transform="scale(0.996264)"/>
       <use xlink:href="#CMMI12-3a" transform="translate(45.690477 0) scale(0.996264)"/>
       <use xlink:href="#CMR17-30" transform="translate(72.787654 0) scale(0.996264)"/>
      </g>
     </g>
    </g>
    <g id="xtick_2">
     <g id="line2d_2">
      <g>
       <use xlink:href="#m1c44fe6ff1" x="118.777439" y="193.536948" style="stroke: #000000; stroke-width: 0.8"/>
      </g>
     </g>
     <g id="text_2">
      <!-- $\mathdefault{0.2}$ -->
      <g transform="translate(110.052148 210.222825) scale(0.14 -0.14)">
       <defs>
        <path id="CMR17-32" d="M 2669 989 
L 2554 989 
C 2490 536 2438 459 2413 420 
C 2381 369 1920 369 1830 369 
L 602 369 
C 832 619 1280 1072 1824 1597 
C 2214 1967 2669 2402 2669 3035 
C 2669 3790 2067 4224 1395 4224 
C 691 4224 262 3604 262 3030 
C 262 2780 448 2748 525 2748 
C 589 2748 781 2787 781 3010 
C 781 3207 614 3264 525 3264 
C 486 3264 448 3258 422 3245 
C 544 3790 915 4058 1306 4058 
C 1862 4058 2227 3617 2227 3035 
C 2227 2479 1901 2000 1536 1584 
L 262 146 
L 262 0 
L 2515 0 
L 2669 989 
z
" transform="scale(0.015625)"/>
       </defs>
       <use xlink:href="#CMR17-30" transform="scale(0.996264)"/>
       <use xlink:href="#CMMI12-3a" transform="translate(45.690477 0) scale(0.996264)"/>
       <use xlink:href="#CMR17-32" transform="translate(72.787654 0) scale(0.996264)"/>
      </g>
     </g>
    </g>
    <g id="xtick_3">
     <g id="line2d_3">
      <g>
       <use xlink:href="#m1c44fe6ff1" x="173.330055" y="193.536948" style="stroke: #000000; stroke-width: 0.8"/>
      </g>
     </g>
     <g id="text_3">
      <!-- $\mathdefault{0.4}$ -->
      <g transform="translate(164.604764 210.222825) scale(0.14 -0.14)">
       <defs>
        <path id="CMR17-34" d="M 2150 4122 
C 2150 4256 2144 4256 2029 4256 
L 128 1254 
L 128 1088 
L 1779 1088 
L 1779 457 
C 1779 224 1766 160 1318 160 
L 1197 160 
L 1197 0 
C 1402 0 1747 0 1965 0 
C 2182 0 2528 0 2733 0 
L 2733 160 
L 2611 160 
C 2163 160 2150 224 2150 457 
L 2150 1088 
L 2803 1088 
L 2803 1254 
L 2150 1254 
L 2150 4122 
z
M 1798 3703 
L 1798 1254 
L 256 1254 
L 1798 3703 
z
" transform="scale(0.015625)"/>
       </defs>
       <use xlink:href="#CMR17-30" transform="scale(0.996264)"/>
       <use xlink:href="#CMMI12-3a" transform="translate(45.690477 0) scale(0.996264)"/>
       <use xlink:href="#CMR17-34" transform="translate(72.787654 0) scale(0.996264)"/>
      </g>
     </g>
    </g>
    <g id="xtick_4">
     <g id="line2d_4">
      <g>
       <use xlink:href="#m1c44fe6ff1" x="227.882671" y="193.536948" style="stroke: #000000; stroke-width: 0.8"/>
      </g>
     </g>
     <g id="text_4">
      <!-- $\mathdefault{0.6}$ -->
      <g transform="translate(219.15738 210.222825) scale(0.14 -0.14)">
       <defs>
        <path id="CMR17-36" d="M 678 2176 
C 678 3690 1395 4032 1811 4032 
C 1946 4032 2272 4009 2400 3776 
C 2298 3776 2106 3776 2106 3553 
C 2106 3381 2246 3323 2336 3323 
C 2394 3323 2566 3348 2566 3560 
C 2566 3954 2246 4179 1805 4179 
C 1043 4179 243 3390 243 1984 
C 243 253 966 -128 1478 -128 
C 2099 -128 2688 427 2688 1283 
C 2688 2081 2170 2662 1517 2662 
C 1126 2662 838 2407 678 1960 
L 678 2176 
z
M 1478 25 
C 691 25 691 1200 691 1436 
C 691 1896 909 2560 1504 2560 
C 1613 2560 1926 2560 2138 2120 
C 2253 1870 2253 1609 2253 1289 
C 2253 944 2253 690 2118 434 
C 1978 171 1773 25 1478 25 
z
" transform="scale(0.015625)"/>
       </defs>
       <use xlink:href="#CMR17-30" transform="scale(0.996264)"/>
       <use xlink:href="#CMMI12-3a" transform="translate(45.690477 0) scale(0.996264)"/>
       <use xlink:href="#CMR17-36" transform="translate(72.787654 0) scale(0.996264)"/>
      </g>
     </g>
    </g>
    <g id="xtick_5">
     <g id="line2d_5">
      <g>
       <use xlink:href="#m1c44fe6ff1" x="282.435287" y="193.536948" style="stroke: #000000; stroke-width: 0.8"/>
      </g>
     </g>
     <g id="text_5">
      <!-- $\mathdefault{0.8}$ -->
      <g transform="translate(273.709996 210.222825) scale(0.14 -0.14)">
       <defs>
        <path id="CMR17-38" d="M 1741 2264 
C 2144 2467 2554 2773 2554 3263 
C 2554 3841 1990 4179 1472 4179 
C 890 4179 378 3759 378 3180 
C 378 3021 416 2747 666 2505 
C 730 2442 998 2251 1171 2130 
C 883 1983 211 1634 211 934 
C 211 279 838 -128 1459 -128 
C 2144 -128 2720 362 2720 1010 
C 2720 1590 2330 1857 2074 2029 
L 1741 2264 
z
M 902 2822 
C 851 2854 595 3051 595 3351 
C 595 3739 998 4032 1459 4032 
C 1965 4032 2336 3676 2336 3262 
C 2336 2669 1670 2331 1638 2331 
C 1632 2331 1626 2331 1574 2370 
L 902 2822 
z
M 2080 1519 
C 2176 1449 2483 1240 2483 851 
C 2483 381 2010 25 1472 25 
C 890 25 448 438 448 940 
C 448 1443 838 1862 1280 2060 
L 2080 1519 
z
" transform="scale(0.015625)"/>
       </defs>
       <use xlink:href="#CMR17-30" transform="scale(0.996264)"/>
       <use xlink:href="#CMMI12-3a" transform="translate(45.690477 0) scale(0.996264)"/>
       <use xlink:href="#CMR17-38" transform="translate(72.787654 0) scale(0.996264)"/>
      </g>
     </g>
    </g>
    <g id="xtick_6">
     <g id="line2d_6">
      <g>
       <use xlink:href="#m1c44fe6ff1" x="336.987903" y="193.536948" style="stroke: #000000; stroke-width: 0.8"/>
      </g>
     </g>
     <g id="text_6">
      <!-- $\mathdefault{1.0}$ -->
      <g transform="translate(328.262612 210.222825) scale(0.14 -0.14)">
       <defs>
        <path id="CMR17-31" d="M 1702 4058 
C 1702 4192 1696 4192 1606 4192 
C 1357 3916 979 3827 621 3827 
C 602 3827 570 3827 563 3808 
C 557 3795 557 3782 557 3648 
C 755 3648 1088 3686 1344 3839 
L 1344 461 
C 1344 236 1331 160 781 160 
L 589 160 
L 589 0 
C 896 0 1216 0 1523 0 
C 1830 0 2150 0 2458 0 
L 2458 160 
L 2266 160 
C 1715 160 1702 230 1702 458 
L 1702 4058 
z
" transform="scale(0.015625)"/>
       </defs>
       <use xlink:href="#CMR17-31" transform="scale(0.996264)"/>
       <use xlink:href="#CMMI12-3a" transform="translate(45.690477 0) scale(0.996264)"/>
       <use xlink:href="#CMR17-30" transform="translate(72.787654 0) scale(0.996264)"/>
      </g>
     </g>
    </g>
    <g id="text_7">
     <!-- P -->
     <g transform="translate(208.927858 226.620729) scale(0.14 -0.14)">
      <defs>
       <path id="CMR17-50" d="M 1267 2042 
L 2291 2042 
C 3117 2042 3718 2578 3718 3184 
C 3718 3791 3130 4352 2291 4352 
L 333 4352 
L 333 4186 
C 774 4186 845 4186 845 3899 
L 845 446 
C 845 160 774 160 333 160 
L 333 0 
C 518 0 858 0 1056 0 
C 1254 0 1594 0 1779 0 
L 1779 160 
C 1338 160 1267 160 1267 446 
L 1267 2042 
z
M 1254 2176 
L 1254 3938 
C 1254 4155 1267 4186 1523 4186 
L 2170 4186 
C 2995 4186 3232 3714 3232 3184 
C 3232 2604 2950 2176 2170 2176 
L 1254 2176 
z
" transform="scale(0.015625)"/>
      </defs>
      <use xlink:href="#CMR17-50" transform="scale(0.996264)"/>
     </g>
    </g>
   </g>
   <g id="matplotlib.axis_2">
    <g id="ytick_1">
     <g id="line2d_7">
      <defs>
       <path id="mfc24ef26fc" d="M 0 0 
L -3.5 0 
" style="stroke: #000000; stroke-width: 0.8"/>
      </defs>
      <g>
       <use xlink:href="#mfc24ef26fc" x="49.404673" y="174.959479" style="stroke: #000000; stroke-width: 0.8"/>
      </g>
     </g>
     <g id="text_8">
      <!-- $\mathdefault{0}$ -->
      <g transform="translate(35.576185 179.802417) scale(0.14 -0.14)">
       <use xlink:href="#CMR17-30" transform="scale(0.996264)"/>
      </g>
     </g>
    </g>
    <g id="ytick_2">
     <g id="line2d_8">
      <g>
       <use xlink:href="#mfc24ef26fc" x="49.404673" y="150.837043" style="stroke: #000000; stroke-width: 0.8"/>
      </g>
     </g>
     <g id="text_9">
      <!-- $\mathdefault{10}$ -->
      <g transform="translate(28.747696 155.679982) scale(0.14 -0.14)">
       <use xlink:href="#CMR17-31" transform="scale(0.996264)"/>
       <use xlink:href="#CMR17-30" transform="translate(45.690477 0) scale(0.996264)"/>
      </g>
     </g>
    </g>
    <g id="ytick_3">
     <g id="line2d_9">
      <g>
       <use xlink:href="#mfc24ef26fc" x="49.404673" y="126.714608" style="stroke: #000000; stroke-width: 0.8"/>
      </g>
     </g>
     <g id="text_10">
      <!-- $\mathdefault{20}$ -->
      <g transform="translate(28.747696 131.557546) scale(0.14 -0.14)">
       <use xlink:href="#CMR17-32" transform="scale(0.996264)"/>
       <use xlink:href="#CMR17-30" transform="translate(45.690477 0) scale(0.996264)"/>
      </g>
     </g>
    </g>
    <g id="ytick_4">
     <g id="line2d_10">
      <g>
       <use xlink:href="#mfc24ef26fc" x="49.404673" y="102.592172" style="stroke: #000000; stroke-width: 0.8"/>
      </g>
     </g>
     <g id="text_11">
      <!-- $\mathdefault{30}$ -->
      <g transform="translate(28.747696 107.43511) scale(0.14 -0.14)">
       <defs>
        <path id="CMR17-33" d="M 1414 2157 
C 1984 2157 2234 1662 2234 1090 
C 2234 320 1824 25 1453 25 
C 1114 25 563 194 390 693 
C 422 680 454 680 486 680 
C 640 680 755 782 755 948 
C 755 1133 614 1216 486 1216 
C 378 1216 211 1165 211 926 
C 211 335 787 -128 1466 -128 
C 2176 -128 2720 430 2720 1085 
C 2720 1707 2208 2157 1600 2227 
C 2086 2328 2554 2756 2554 3329 
C 2554 3820 2048 4179 1472 4179 
C 890 4179 378 3829 378 3329 
C 378 3110 544 3072 627 3072 
C 762 3072 877 3155 877 3321 
C 877 3486 762 3569 627 3569 
C 602 3569 570 3569 544 3557 
C 730 3959 1235 4032 1459 4032 
C 1683 4032 2106 3925 2106 3320 
C 2106 3143 2080 2828 1862 2550 
C 1670 2304 1453 2304 1242 2284 
C 1210 2284 1062 2269 1037 2269 
C 992 2263 966 2257 966 2208 
C 966 2163 973 2157 1101 2157 
L 1414 2157 
z
" transform="scale(0.015625)"/>
       </defs>
       <use xlink:href="#CMR17-33" transform="scale(0.996264)"/>
       <use xlink:href="#CMR17-30" transform="translate(45.690477 0) scale(0.996264)"/>
      </g>
     </g>
    </g>
    <g id="ytick_5">
     <g id="line2d_11">
      <g>
       <use xlink:href="#mfc24ef26fc" x="49.404673" y="78.469737" style="stroke: #000000; stroke-width: 0.8"/>
      </g>
     </g>
     <g id="text_12">
      <!-- $\mathdefault{40}$ -->
      <g transform="translate(28.747696 83.312675) scale(0.14 -0.14)">
       <use xlink:href="#CMR17-34" transform="scale(0.996264)"/>
       <use xlink:href="#CMR17-30" transform="translate(45.690477 0) scale(0.996264)"/>
      </g>
     </g>
    </g>
    <g id="ytick_6">
     <g id="line2d_12">
      <g>
       <use xlink:href="#mfc24ef26fc" x="49.404673" y="54.347301" style="stroke: #000000; stroke-width: 0.8"/>
      </g>
     </g>
     <g id="text_13">
      <!-- $\mathdefault{50}$ -->
      <g transform="translate(28.747696 59.190239) scale(0.14 -0.14)">
       <defs>
        <path id="CMR17-35" d="M 730 3692 
C 794 3666 1056 3584 1325 3584 
C 1920 3584 2246 3911 2432 4100 
C 2432 4157 2432 4192 2394 4192 
C 2387 4192 2374 4192 2323 4163 
C 2099 4058 1837 3973 1517 3973 
C 1325 3973 1037 3999 723 4139 
C 653 4171 640 4171 634 4171 
C 602 4171 595 4164 595 4037 
L 595 2203 
C 595 2089 595 2057 659 2057 
C 691 2057 704 2070 736 2114 
C 941 2401 1222 2522 1542 2522 
C 1766 2522 2246 2382 2246 1289 
C 2246 1085 2246 715 2054 421 
C 1894 159 1645 25 1370 25 
C 947 25 518 320 403 814 
C 429 807 480 795 506 795 
C 589 795 749 840 749 1038 
C 749 1210 627 1280 506 1280 
C 358 1280 262 1190 262 1011 
C 262 454 704 -128 1382 -128 
C 2042 -128 2669 440 2669 1264 
C 2669 2030 2170 2624 1549 2624 
C 1222 2624 947 2503 730 2274 
L 730 3692 
z
" transform="scale(0.015625)"/>
       </defs>
       <use xlink:href="#CMR17-35" transform="scale(0.996264)"/>
       <use xlink:href="#CMR17-30" transform="translate(45.690477 0) scale(0.996264)"/>
      </g>
     </g>
    </g>
    <g id="ytick_7">
     <g id="line2d_13">
      <g>
       <use xlink:href="#mfc24ef26fc" x="49.404673" y="30.224866" style="stroke: #000000; stroke-width: 0.8"/>
      </g>
     </g>
     <g id="text_14">
      <!-- $\mathdefault{60}$ -->
      <g transform="translate(28.747696 35.067804) scale(0.14 -0.14)">
       <use xlink:href="#CMR17-36" transform="scale(0.996264)"/>
       <use xlink:href="#CMR17-30" transform="translate(45.690477 0) scale(0.996264)"/>
      </g>
     </g>
    </g>
    <g id="text_15">
     <!-- $\phi(P)$ -->
     <g transform="translate(21.260772 116.870711) rotate(-90) scale(0.14 -0.14)">
      <defs>
       <path id="CMMI12-1e" d="M 2752 4390 
C 2752 4448 2707 4448 2688 4448 
C 2630 4448 2624 4435 2598 4326 
L 2253 2939 
C 2234 2856 2227 2849 2221 2843 
C 2214 2830 2170 2824 2157 2824 
C 1107 2734 301 1864 301 1057 
C 301 361 832 -64 1498 -64 
C 1446 -261 1402 -463 1350 -659 
C 1261 -995 1210 -1204 1210 -1229 
C 1210 -1241 1210 -1280 1274 -1280 
C 1293 -1280 1318 -1280 1331 -1254 
C 1344 -1241 1382 -1089 1408 -1008 
L 1645 -64 
C 2739 -64 3571 854 3571 1680 
C 3571 2343 3085 2816 2374 2816 
L 2752 4390 
z
M 2336 2701 
C 2758 2701 3181 2463 3181 1828 
C 3181 1097 2675 128 1677 50 
L 2336 2701 
z
M 1530 50 
C 1216 50 691 220 691 938 
C 691 1761 1274 2676 2195 2676 
L 1530 50 
z
" transform="scale(0.015625)"/>
       <path id="CMR17-28" d="M 1958 -1561 
C 1958 -1555 1958 -1542 1939 -1523 
C 1645 -1224 858 -407 858 1581 
C 858 3569 1632 4379 1946 4697 
C 1946 4704 1958 4717 1958 4736 
C 1958 4755 1939 4768 1914 4768 
C 1843 4768 1299 4296 986 3594 
C 666 2887 576 2199 576 1588 
C 576 1128 621 351 1005 -471 
C 1312 -1135 1837 -1600 1914 -1600 
C 1946 -1600 1958 -1587 1958 -1561 
z
" transform="scale(0.015625)"/>
       <path id="CMMI12-50" d="M 1894 2023 
L 2970 2023 
C 3853 2023 4736 2673 4736 3401 
C 4736 3898 4314 4352 3507 4352 
L 1530 4352 
C 1408 4352 1350 4352 1350 4231 
C 1350 4167 1408 4167 1504 4167 
C 1894 4167 1894 4116 1894 4046 
C 1894 4034 1894 3995 1869 3899 
L 1005 472 
C 947 249 934 185 486 185 
C 365 185 301 185 301 70 
C 301 0 358 0 397 0 
C 518 0 646 0 768 0 
L 1517 0 
C 1638 0 1773 0 1894 0 
C 1946 0 2016 0 2016 121 
C 2016 185 1958 185 1862 185 
C 1478 185 1472 230 1472 293 
C 1472 325 1478 369 1485 401 
L 1894 2023 
z
M 2355 3930 
C 2413 4167 2438 4167 2688 4167 
L 3322 4167 
C 3802 4167 4198 4013 4198 3535 
C 4198 3369 4115 2827 3821 2534 
C 3712 2419 3405 2176 2822 2176 
L 1920 2176 
L 2355 3930 
z
" transform="scale(0.015625)"/>
       <path id="CMR17-29" d="M 1683 1581 
C 1683 2040 1638 2817 1254 3639 
C 947 4303 422 4768 346 4768 
C 326 4768 301 4761 301 4729 
C 301 4717 307 4710 314 4697 
C 621 4378 1402 3568 1402 1584 
C 1402 -407 627 -1217 314 -1537 
C 307 -1549 301 -1556 301 -1568 
C 301 -1600 326 -1600 346 -1600 
C 416 -1600 960 -1128 1274 -426 
C 1594 281 1683 969 1683 1581 
z
" transform="scale(0.015625)"/>
      </defs>
      <use xlink:href="#CMMI12-1e" transform="scale(0.996264)"/>
      <use xlink:href="#CMR17-28" transform="translate(57.73418 0) scale(0.996264)"/>
      <use xlink:href="#CMMI12-50" transform="translate(93.014948 0) scale(0.996264)"/>
      <use xlink:href="#CMR17-29" transform="translate(169.440769 0) scale(0.996264)"/>
     </g>
    </g>
   </g>
   <g id="line2d_14">
    <path d="M 88.753224 145.822271 
L 92.576997 145.734065 
L 93.268096 145.534847 
L 93.987663 144.812853 
L 94.760533 142.462134 
L 96.633644 132.105491 
L 101.348885 101.065973 
L 103.858527 88.007652 
L 107.070406 72.217995 
L 111.135246 58.795087 
L 116.184062 43.892583 
L 122.297172 35.997322 
L 129.465723 35.99515 
L 137.566306 34.195713 
L 146.364367 43.657197 
L 155.538612 54.282252 
L 164.748877 69.797286 
L 173.694357 79.752897 
L 182.158195 92.904835 
L 190.024546 104.291055 
L 197.263795 113.912051 
L 203.91653 121.312328 
L 210.059384 127.667781 
L 215.78566 132.405263 
L 221.192013 135.716421 
L 226.364332 138.163519 
L 231.375031 140.076261 
L 236.28389 141.590962 
L 241.135863 142.780906 
L 245.962734 143.716582 
L 255.617873 145.143556 
L 265.312925 146.465903 
L 275.011701 148.016193 
L 284.612425 149.798699 
L 293.984919 151.733641 
L 302.986327 153.82972 
L 311.479234 156.056662 
L 323.03244 159.397109 
L 332.958875 162.527098 
L 343.539075 166.149206 
L 351.256755 169.01338 
L 356.532231 171.186817 
L 359.875027 172.801013 
L 361.774931 173.959891 
L 362.644764 174.745808 
L 362.818496 175.141222 
L 362.701049 175.411524 
L 362.228398 175.635661 
L 361.109201 175.801828 
L 358.288057 175.902535 
L 347.391103 175.93644 
L 281.630896 175.93659 
L 281.630896 175.93659 
" clip-path="url(#p7431fb44ab)" style="fill: none; stroke: #1f77b4; stroke-width: 3; stroke-linecap: square"/>
   </g>
   <g id="line2d_15">
    <path d="M 333.525578 145.822271 
L 330.397387 145.734065 
L 329.845674 145.534847 
L 329.287538 144.812853 
L 328.721989 142.462134 
L 328.146117 137.883899 
L 327.555644 132.105491 
L 326.944947 123.998607 
L 325.635093 101.065973 
L 322.401631 43.892583 
L 321.390891 35.997322 
L 320.265825 35.99515 
L 319.009362 34.195713 
L 316.050806 54.282252 
L 314.33873 69.797286 
L 312.474919 79.752897 
L 310.468673 92.904835 
L 308.331533 104.291055 
L 306.07771 113.912051 
L 303.720113 121.312328 
L 301.271341 127.667781 
L 298.742905 132.405263 
L 296.14404 135.716421 
L 293.48315 138.163519 
L 290.767602 140.076261 
L 288.002808 141.590962 
L 285.193484 142.780906 
L 282.343905 143.716582 
L 276.536257 145.143556 
L 267.598711 147.206465 
L 261.52006 148.885055 
L 252.27002 151.733641 
L 242.930318 154.93344 
L 224.343583 161.515934 
L 215.274445 164.429435 
L 206.466166 166.936417 
L 197.984282 169.01338 
L 189.878541 170.700776 
L 182.180704 172.056426 
L 174.904111 173.130054 
L 168.050492 173.959891 
L 159.555618 174.745808 
L 151.757607 175.243436 
L 142.91061 175.590951 
L 130.593785 175.81795 
L 109.532241 175.918995 
L 64.329141 175.93659 
L 64.329141 175.93659 
" clip-path="url(#p7431fb44ab)" style="fill: none; stroke: #ff7f0e; stroke-width: 3; stroke-linecap: square"/>
   </g>
   <g id="line2d_16">
    <path d="M 88.753224 110.734907 
L 362.818496 185.230723 
L 281.630896 163.162491 
" clip-path="url(#p7431fb44ab)" style="fill: none; stroke-dasharray: 3,4.95; stroke-dashoffset: 0; stroke: #ff7f0e; stroke-width: 3"/>
   </g>
   <g id="line2d_17">
    <path d="M 88.753224 126.707435 
L 92.576997 120.997216 
L 95.624531 116.772716 
L 99.393814 111.938631 
L 103.858527 106.75714 
L 107.070406 103.384734 
L 111.135246 99.530366 
L 116.184062 95.36618 
L 122.297172 91.211312 
L 129.465723 87.514684 
L 137.566306 84.770332 
L 146.364367 83.384394 
L 155.538612 83.554447 
L 164.748877 85.219747 
L 173.694357 88.112426 
L 182.158195 91.866401 
L 190.024546 96.126273 
L 197.263795 100.610825 
L 203.91653 105.137228 
L 210.059384 109.605129 
L 215.78566 113.974578 
L 226.364332 122.427493 
L 255.617873 146.482193 
L 265.312925 154.007415 
L 270.167353 157.581477 
L 275.011701 160.986544 
L 279.831645 164.190378 
L 284.612425 167.162867 
L 289.336382 169.876335 
L 293.984919 172.307506 
L 298.539372 174.438643 
L 302.986327 176.260506 
L 307.303673 177.766493 
L 311.479234 178.960422 
L 315.49945 179.851139 
L 319.353364 180.453673 
L 323.03244 180.787923 
L 326.529183 180.877572 
L 329.838975 180.749232 
L 332.958875 180.431314 
L 335.887565 179.953153 
L 338.625209 179.34377 
L 341.174715 178.631442 
L 345.723135 177.001795 
L 349.575326 175.24951 
L 352.7851 173.519568 
L 356.532231 171.179276 
L 359.875027 168.791414 
L 362.818496 166.447856 
L 357.056517 170.823648 
L 353.884397 172.869209 
L 350.521538 174.765381 
L 347.391103 176.285733 
L 344.219405 177.592328 
L 341.008363 178.682199 
L 337.782559 179.548328 
L 334.572802 180.189759 
L 331.164112 180.637919 
L 327.822974 180.852481 
L 324.325109 180.8475 
L 320.913265 180.624782 
L 317.37313 180.17566 
L 313.736357 179.492706 
L 309.850741 178.526575 
L 305.99842 177.339549 
L 301.906019 175.842471 
L 297.729921 174.078956 
L 293.296786 171.963423 
L 288.58138 169.458503 
L 283.698257 166.611342 
L 281.630896 165.33428 
L 281.630896 165.33428 
" clip-path="url(#p7431fb44ab)" style="fill: none; stroke-dasharray: 11.1,4.8; stroke-dashoffset: 0; stroke: #ff7f0e; stroke-width: 3"/>
   </g>
   <g id="line2d_18">
    <path d="M 88.753224 134.247421 
L 91.233044 131.030318 
L 93.987663 127.107666 
L 96.633644 122.95974 
L 99.393814 118.197426 
L 101.348885 114.533976 
L 103.858527 109.455519 
L 107.070406 102.304127 
L 111.135246 92.160616 
L 116.184062 77.907091 
L 129.465723 36.561477 
L 137.566306 19.106225 
L 146.364367 19.292639 
L 155.538612 40.122072 
L 164.748877 69.175361 
L 173.694357 94.888266 
L 182.158195 113.995784 
L 190.024546 127.448167 
L 197.263795 136.912871 
L 203.91653 143.724217 
L 210.059384 148.779426 
L 215.78566 152.656252 
L 221.192013 155.725906 
L 226.364332 158.226514 
L 231.375031 160.313854 
L 236.28389 162.09212 
L 241.135863 163.63157 
L 245.962734 164.980633 
L 250.786385 166.173825 
L 255.617873 167.235896 
L 265.312925 169.036948 
L 275.011701 170.490188 
L 284.612425 171.66684 
L 293.984919 172.62033 
L 307.303673 173.721042 
L 323.03244 174.734833 
L 341.174715 175.629938 
L 362.644764 176.425851 
L 362.818496 176.431388 
L 341.256297 175.63344 
L 323.406795 174.75594 
L 308.473123 173.805925 
L 295.665731 172.774237 
L 284.635576 171.669414 
L 281.630896 171.325428 
L 281.630896 171.325428 
" clip-path="url(#p7431fb44ab)" style="fill: none; stroke-dasharray: 19.2,4.8,3,4.8; stroke-dashoffset: 0; stroke: #ff7f0e; stroke-width: 3"/>
   </g>
   <g id="line2d_19">
    <path d="M 333.525578 110.734907 
L 328.721989 112.367798 
L 326.944947 113.210152 
L 325.635093 114.158632 
L 324.150287 115.713845 
L 322.401631 118.191095 
L 320.265825 121.801289 
L 317.606919 126.394641 
L 316.050806 128.888364 
L 314.33873 131.391877 
L 312.474919 133.823422 
L 310.468673 136.124041 
L 308.331533 138.262254 
L 306.07771 140.230012 
L 303.720113 142.038344 
L 301.271341 143.708082 
L 296.14404 146.734125 
L 290.767602 149.502053 
L 282.343905 153.46725 
L 267.598711 160.046499 
L 255.367192 165.256981 
L 246.047714 168.967279 
L 236.698988 172.36857 
L 230.494501 174.416167 
L 224.343583 176.266307 
L 218.271988 177.91042 
L 212.305484 179.347562 
L 206.466166 180.583903 
L 197.984282 182.088036 
L 189.878541 183.21826 
L 182.180704 184.033251 
L 174.904111 184.591756 
L 165.858734 185.028602 
L 157.542981 185.209641 
L 148.103739 185.198802 
L 136.487843 184.930389 
L 123.901388 184.395285 
L 110.498467 183.597602 
L 99.46884 182.736674 
L 91.214447 181.888196 
L 84.986455 181.037285 
L 80.221313 180.175165 
L 76.548756 179.302344 
L 73.730193 178.425515 
L 71.448379 177.48631 
L 69.767191 176.560978 
L 68.45235 175.590178 
L 67.383659 174.517927 
L 66.53988 173.355385 
L 65.835656 172.003619 
L 65.25835 170.405861 
L 64.80778 168.490598 
L 64.494878 166.149656 
L 64.329141 163.162491 
L 64.329141 163.162491 
" clip-path="url(#p7431fb44ab)" style="fill: none; stroke-dasharray: 3,4.95; stroke-dashoffset: 0; stroke: #1f77b4; stroke-width: 3"/>
   </g>
   <g id="line2d_20">
    <path d="M 333.525578 126.707435 
L 328.146117 116.772716 
L 326.944947 113.85487 
L 325.635093 109.598021 
L 324.150287 103.384734 
L 322.401631 95.36618 
L 321.390891 91.211312 
L 320.265825 87.514684 
L 319.009362 84.770332 
L 317.606919 83.384394 
L 316.050806 83.554447 
L 314.33873 85.219747 
L 312.474919 88.112426 
L 310.468673 91.866401 
L 303.720113 105.137228 
L 301.271341 109.605129 
L 298.742905 113.974578 
L 293.48315 122.427493 
L 288.002808 130.61252 
L 282.343905 138.636232 
L 276.536257 146.482193 
L 270.604854 154.007415 
L 267.598711 157.581477 
L 264.569628 160.986544 
L 261.52006 164.190378 
L 258.451633 167.162867 
L 255.367192 169.876335 
L 252.27002 172.307506 
L 249.163273 174.438643 
L 246.047714 176.260506 
L 242.930318 177.766493 
L 239.812824 178.960422 
L 236.698988 179.851139 
L 233.591672 180.453673 
L 230.494501 180.787923 
L 227.410612 180.877572 
L 224.343583 180.749232 
L 221.296242 180.431314 
L 218.271988 179.953153 
L 212.305484 178.631442 
L 206.466166 177.001795 
L 184.700288 170.497409 
L 179.708017 169.302248 
L 174.904111 168.337868 
L 170.288342 167.596838 
L 165.858734 167.061502 
L 161.612134 166.708613 
L 155.572795 166.465292 
L 149.91094 166.490653 
L 144.604712 166.711195 
L 138.041965 167.206251 
L 130.593785 168.006485 
L 121.419186 169.248706 
L 111.486231 170.823648 
L 100.964181 172.722249 
L 92.33565 174.511887 
L 85.407725 176.176417 
L 78.987746 177.951142 
L 68.928239 180.813825 
L 67.779993 180.86663 
L 66.991803 180.685532 
L 66.431389 180.337649 
L 65.939182 179.755533 
L 65.522863 178.903977 
L 65.141461 177.587799 
L 64.80778 175.573871 
L 64.542604 172.510369 
L 64.367356 167.632196 
L 64.329141 165.33428 
L 64.329141 165.33428 
" clip-path="url(#p7431fb44ab)" style="fill: none; stroke-dasharray: 11.1,4.8; stroke-dashoffset: 0; stroke: #1f77b4; stroke-width: 3"/>
   </g>
   <g id="line2d_21">
    <path d="M 333.525578 134.247421 
L 332.010956 131.909475 
L 329.845674 128.169735 
L 328.721989 125.936212 
L 327.555644 122.95974 
L 326.944947 120.901709 
L 326.307245 118.197426 
L 325.635093 114.533976 
L 324.9195 109.455519 
L 324.150287 102.304127 
L 323.315767 92.160616 
L 322.401631 77.907091 
L 320.265825 36.561477 
L 319.009362 19.106225 
L 317.606919 19.292639 
L 316.050806 40.122072 
L 314.33873 69.175361 
L 312.474919 94.888266 
L 310.468673 113.995784 
L 308.331533 127.448167 
L 306.07771 136.912871 
L 303.720113 143.724217 
L 301.271341 148.779426 
L 298.742905 152.656252 
L 296.14404 155.725906 
L 293.48315 158.226514 
L 290.767602 160.313854 
L 288.002808 162.09212 
L 285.193484 163.63157 
L 282.343905 164.980633 
L 279.457095 166.173825 
L 276.536257 167.235896 
L 270.604854 169.036948 
L 264.569628 170.490188 
L 258.451633 171.66684 
L 252.27002 172.62033 
L 246.047714 173.392368 
L 236.698988 174.282026 
L 227.410612 174.927221 
L 215.274445 175.51838 
L 200.772032 175.969865 
L 182.180704 176.286937 
L 159.555618 176.425851 
L 129.197333 176.362067 
L 95.363026 176.068082 
L 79.592084 175.737575 
L 72.342487 175.389933 
L 68.762859 175.020492 
L 66.902723 174.626076 
L 65.810839 174.181548 
L 65.141461 173.680099 
L 64.71741 173.089642 
L 64.45803 172.336329 
L 64.329141 171.325428 
L 64.329141 171.325428 
" clip-path="url(#p7431fb44ab)" style="fill: none; stroke-dasharray: 19.2,4.8,3,4.8; stroke-dashoffset: 0; stroke: #1f77b4; stroke-width: 3"/>
   </g>
   <g id="patch_3">
    <path d="M 49.404673 193.536948 
L 49.404673 10.8 
" style="fill: none; stroke: #000000; stroke-width: 0.8; stroke-linejoin: miter; stroke-linecap: square"/>
   </g>
   <g id="patch_4">
    <path d="M 377.742964 193.536948 
L 377.742964 10.8 
" style="fill: none; stroke: #000000; stroke-width: 0.8; stroke-linejoin: miter; stroke-linecap: square"/>
   </g>
   <g id="patch_5">
    <path d="M 49.404673 193.536948 
L 377.742964 193.536948 
" style="fill: none; stroke: #000000; stroke-width: 0.8; stroke-linejoin: miter; stroke-linecap: square"/>
   </g>
   <g id="patch_6">
    <path d="M 49.404673 10.8 
L 377.742964 10.8 
" style="fill: none; stroke: #000000; stroke-width: 0.8; stroke-linejoin: miter; stroke-linecap: square"/>
   </g>
   <g id="legend_1">
    <g id="line2d_22">
     <path d="M 187.423819 28.674537 
L 201.423819 28.674537 
L 215.423819 28.674537 
" style="fill: none; stroke: #1f77b4; stroke-width: 3; stroke-linecap: square"/>
    </g>
    <g id="text_16">
     <!-- $\hat{\phi}$ -->
     <g transform="translate(226.623819 33.574537) scale(0.14 -0.14)">
      <defs>
       <path id="CMR17-5e" d="M 1466 4421 
L 678 3555 
L 755 3478 
L 1466 4166 
L 2176 3478 
L 2253 3555 
L 1466 4421 
z
" transform="scale(0.015625)"/>
      </defs>
      <use xlink:href="#CMR17-5e" transform="translate(14.151005 26.296621) scale(0.996264)"/>
      <use xlink:href="#CMMI12-1e" transform="scale(0.996264)"/>
     </g>
    </g>
    <g id="line2d_23">
     <path d="M 187.423819 51.753052 
L 201.423819 51.753052 
L 215.423819 51.753052 
" style="fill: none; stroke: #ff7f0e; stroke-width: 3; stroke-linecap: square"/>
    </g>
    <g id="text_17">
     <!-- $\hat{\phi}$ -->
     <g transform="translate(226.623819 56.653052) scale(0.14 -0.14)">
      <use xlink:href="#CMR17-5e" transform="translate(14.151005 26.296621) scale(0.996264)"/>
      <use xlink:href="#CMMI12-1e" transform="scale(0.996264)"/>
     </g>
    </g>
    <g id="line2d_24">
     <path d="M 187.423819 71.265081 
L 201.423819 71.265081 
L 215.423819 71.265081 
" style="fill: none; stroke-dasharray: 3,4.95; stroke-dashoffset: 0; stroke: #ff7f0e; stroke-width: 3"/>
    </g>
    <g id="text_18">
     <!-- $\phi^s_3$ -->
     <g transform="translate(226.623819 76.165081) scale(0.14 -0.14)">
      <defs>
       <path id="CMMI12-73" d="M 1459 1280 
C 1568 1261 1741 1223 1779 1216 
C 1862 1192 2150 1090 2150 783 
C 2150 586 1971 70 1229 70 
C 1094 70 614 70 486 436 
C 742 404 870 603 870 745 
C 870 880 781 950 653 950 
C 512 950 326 841 326 552 
C 326 173 710 -64 1222 -64 
C 2195 -64 2483 651 2483 984 
C 2483 1079 2483 1258 2278 1462 
C 2118 1616 1965 1648 1619 1718 
C 1446 1756 1171 1814 1171 2101 
C 1171 2229 1286 2689 1894 2689 
C 2163 2689 2426 2589 2490 2368 
C 2208 2368 2195 2125 2195 2119 
C 2195 1984 2317 1946 2374 1946 
C 2464 1946 2643 2015 2643 2281 
C 2643 2545 2400 2816 1901 2816 
C 1062 2816 838 2160 838 1899 
C 838 1414 1312 1312 1459 1280 
z
" transform="scale(0.015625)"/>
      </defs>
      <use xlink:href="#CMMI12-1e" transform="scale(0.996264)"/>
      <use xlink:href="#CMMI12-73" transform="translate(57.73418 36.153639) scale(0.697382)"/>
      <use xlink:href="#CMR17-33" transform="translate(57.73418 -24.740171) scale(0.697382)"/>
     </g>
    </g>
    <g id="line2d_25">
     <path d="M 187.423819 91.527059 
L 201.423819 91.527059 
L 215.423819 91.527059 
" style="fill: none; stroke-dasharray: 11.1,4.8; stroke-dashoffset: 0; stroke: #ff7f0e; stroke-width: 3"/>
    </g>
    <g id="text_19">
     <!-- $\phi^s_4$ -->
     <g transform="translate(226.623819 96.427059) scale(0.14 -0.14)">
      <use xlink:href="#CMMI12-1e" transform="scale(0.996264)"/>
      <use xlink:href="#CMMI12-73" transform="translate(57.73418 36.153639) scale(0.697382)"/>
      <use xlink:href="#CMR17-34" transform="translate(57.73418 -24.740171) scale(0.697382)"/>
     </g>
    </g>
    <g id="line2d_26">
     <path d="M 187.423819 111.789036 
L 201.423819 111.789036 
L 215.423819 111.789036 
" style="fill: none; stroke-dasharray: 19.2,4.8,3,4.8; stroke-dashoffset: 0; stroke: #ff7f0e; stroke-width: 3"/>
    </g>
    <g id="text_20">
     <!-- $\phi^s_6$ -->
     <g transform="translate(226.623819 116.689036) scale(0.14 -0.14)">
      <use xlink:href="#CMMI12-1e" transform="scale(0.996264)"/>
      <use xlink:href="#CMMI12-73" transform="translate(57.73418 36.153639) scale(0.697382)"/>
      <use xlink:href="#CMR17-36" transform="translate(57.73418 -24.740171) scale(0.697382)"/>
     </g>
    </g>
    <g id="line2d_27">
     <path d="M 187.423819 132.051014 
L 201.423819 132.051014 
L 215.423819 132.051014 
" style="fill: none; stroke-dasharray: 3,4.95; stroke-dashoffset: 0; stroke: #1f77b4; stroke-width: 3"/>
    </g>
    <g id="text_21">
     <!-- $\phi^s_3$ -->
     <g transform="translate(226.623819 136.951014) scale(0.14 -0.14)">
      <use xlink:href="#CMMI12-1e" transform="scale(0.996264)"/>
      <use xlink:href="#CMMI12-73" transform="translate(57.73418 36.153639) scale(0.697382)"/>
      <use xlink:href="#CMR17-33" transform="translate(57.73418 -24.740171) scale(0.697382)"/>
     </g>
    </g>
    <g id="line2d_28">
     <path d="M 187.423819 152.312992 
L 201.423819 152.312992 
L 215.423819 152.312992 
" style="fill: none; stroke-dasharray: 11.1,4.8; stroke-dashoffset: 0; stroke: #1f77b4; stroke-width: 3"/>
    </g>
    <g id="text_22">
     <!-- $\phi^s_4$ -->
     <g transform="translate(226.623819 157.212992) scale(0.14 -0.14)">
      <use xlink:href="#CMMI12-1e" transform="scale(0.996264)"/>
      <use xlink:href="#CMMI12-73" transform="translate(57.73418 36.153639) scale(0.697382)"/>
      <use xlink:href="#CMR17-34" transform="translate(57.73418 -24.740171) scale(0.697382)"/>
     </g>
    </g>
    <g id="line2d_29">
     <path d="M 187.423819 172.57497 
L 201.423819 172.57497 
L 215.423819 172.57497 
" style="fill: none; stroke-dasharray: 19.2,4.8,3,4.8; stroke-dashoffset: 0; stroke: #1f77b4; stroke-width: 3"/>
    </g>
    <g id="text_23">
     <!-- $\phi^s_6$ -->
     <g transform="translate(226.623819 177.47497) scale(0.14 -0.14)">
      <use xlink:href="#CMMI12-1e" transform="scale(0.996264)"/>
      <use xlink:href="#CMMI12-73" transform="translate(57.73418 36.153639) scale(0.697382)"/>
      <use xlink:href="#CMR17-36" transform="translate(57.73418 -24.740171) scale(0.697382)"/>
     </g>
    </g>
   </g>
  </g>
 </g>
 <defs>
  <clipPath id="p7431fb44ab">
   <rect x="49.404673" y="10.8" width="328.33829" height="182.736948"/>
  </clipPath>
 </defs>
</svg>
