<?xml version="1.0" encoding="utf-8" standalone="no"?>
<!DOCTYPE svg PUBLIC "-//W3C//DTD SVG 1.1//EN"
  "http://www.w3.org/Graphics/SVG/1.1/DTD/svg11.dtd">
<svg xmlns:xlink="http://www.w3.org/1999/xlink" width="388.542964pt" height="240.132758pt" viewBox="0 0 388.542964 240.132758" xmlns="http://www.w3.org/2000/svg" version="1.1">
 <metadata>
  <rdf:RDF xmlns:dc="http://purl.org/dc/elements/1.1/" xmlns:cc="http://creativecommons.org/ns#" xmlns:rdf="http://www.w3.org/1999/02/22-rdf-syntax-ns#">
   <cc:Work>
    <dc:type rdf:resource="http://purl.org/dc/dcmitype/StillImage"/>
    <dc:date>2024-12-13T16:43:09.354517</dc:date>
    <dc:format>image/svg+xml</dc:format>
    <dc:creator>
     <cc:Agent>
      <dc:title>Matplotlib v3.7.5, https://matplotlib.org/</dc:title>
     </cc:Agent>
    </dc:creator>
   </cc:Work>
  </rdf:RDF>
 </metadata>
 <defs>
  <style type="text/css">*{stroke-linejoin: round; stroke-linecap: butt}</style>
 </defs>
 <g id="figure_1">
  <g id="patch_1">
   <path d="M 0 240.132758 
L 388.542964 240.132758 
L 388.542964 0 
L 0 0 
z
" style="fill: #ffffff"/>
  </g>
  <g id="axes_1">
   <g id="patch_2">
    <path d="M 49.404673 187.701556 
L 377.742964 187.701556 
L 377.742964 10.8 
L 49.404673 10.8 
z
" style="fill: #ffffff"/>
   </g>
   <g id="matplotlib.axis_1">
    <g id="xtick_1">
     <g id="line2d_1">
      <defs>
       <path id="m49894f3de4" d="M 0 0 
L 0 3.5 
" style="stroke: #000000; stroke-width: 0.8"/>
      </defs>
      <g>
       <use xlink:href="#m49894f3de4" x="64.191691" y="187.701556" style="stroke: #000000; stroke-width: 0.8"/>
      </g>
     </g>
     <g id="text_1">
      <!-- $\mathdefault{0.0}$ -->
      <g transform="translate(55.4664 204.387432) scale(0.14 -0.14)">
       <defs>
        <path id="CMR17-30" d="M 2688 2025 
C 2688 2416 2682 3080 2413 3591 
C 2176 4039 1798 4198 1466 4198 
C 1158 4198 768 4058 525 3597 
C 269 3118 243 2524 243 2025 
C 243 1661 250 1106 448 619 
C 723 -39 1216 -128 1466 -128 
C 1760 -128 2208 -7 2470 600 
C 2662 1042 2688 1559 2688 2025 
z
M 1466 -26 
C 1056 -26 813 325 723 812 
C 653 1188 653 1738 653 2096 
C 653 2588 653 2997 736 3387 
C 858 3929 1216 4096 1466 4096 
C 1728 4096 2067 3923 2189 3400 
C 2272 3036 2278 2607 2278 2096 
C 2278 1680 2278 1169 2202 792 
C 2067 95 1690 -26 1466 -26 
z
" transform="scale(0.015625)"/>
        <path id="CMMI12-3a" d="M 1178 307 
C 1178 492 1024 619 870 619 
C 685 619 557 466 557 313 
C 557 128 710 0 864 0 
C 1050 0 1178 153 1178 307 
z
" transform="scale(0.015625)"/>
       </defs>
       <use xlink:href="#CMR17-30" transform="scale(0.996264)"/>
       <use xlink:href="#CMMI12-3a" transform="translate(45.690477 0) scale(0.996264)"/>
       <use xlink:href="#CMR17-30" transform="translate(72.787654 0) scale(0.996264)"/>
      </g>
     </g>
    </g>
    <g id="xtick_2">
     <g id="line2d_2">
      <g>
       <use xlink:href="#m49894f3de4" x="123.861391" y="187.701556" style="stroke: #000000; stroke-width: 0.8"/>
      </g>
     </g>
     <g id="text_2">
      <!-- $\mathdefault{0.2}$ -->
      <g transform="translate(115.1361 204.387432) scale(0.14 -0.14)">
       <defs>
        <path id="CMR17-32" d="M 2669 989 
L 2554 989 
C 2490 536 2438 459 2413 420 
C 2381 369 1920 369 1830 369 
L 602 369 
C 832 619 1280 1072 1824 1597 
C 2214 1967 2669 2402 2669 3035 
C 2669 3790 2067 4224 1395 4224 
C 691 4224 262 3604 262 3030 
C 262 2780 448 2748 525 2748 
C 589 2748 781 2787 781 3010 
C 781 3207 614 3264 525 3264 
C 486 3264 448 3258 422 3245 
C 544 3790 915 4058 1306 4058 
C 1862 4058 2227 3617 2227 3035 
C 2227 2479 1901 2000 1536 1584 
L 262 146 
L 262 0 
L 2515 0 
L 2669 989 
z
" transform="scale(0.015625)"/>
       </defs>
       <use xlink:href="#CMR17-30" transform="scale(0.996264)"/>
       <use xlink:href="#CMMI12-3a" transform="translate(45.690477 0) scale(0.996264)"/>
       <use xlink:href="#CMR17-32" transform="translate(72.787654 0) scale(0.996264)"/>
      </g>
     </g>
    </g>
    <g id="xtick_3">
     <g id="line2d_3">
      <g>
       <use xlink:href="#m49894f3de4" x="183.531092" y="187.701556" style="stroke: #000000; stroke-width: 0.8"/>
      </g>
     </g>
     <g id="text_3">
      <!-- $\mathdefault{0.4}$ -->
      <g transform="translate(174.805801 204.387432) scale(0.14 -0.14)">
       <defs>
        <path id="CMR17-34" d="M 2150 4122 
C 2150 4256 2144 4256 2029 4256 
L 128 1254 
L 128 1088 
L 1779 1088 
L 1779 457 
C 1779 224 1766 160 1318 160 
L 1197 160 
L 1197 0 
C 1402 0 1747 0 1965 0 
C 2182 0 2528 0 2733 0 
L 2733 160 
L 2611 160 
C 2163 160 2150 224 2150 457 
L 2150 1088 
L 2803 1088 
L 2803 1254 
L 2150 1254 
L 2150 4122 
z
M 1798 3703 
L 1798 1254 
L 256 1254 
L 1798 3703 
z
" transform="scale(0.015625)"/>
       </defs>
       <use xlink:href="#CMR17-30" transform="scale(0.996264)"/>
       <use xlink:href="#CMMI12-3a" transform="translate(45.690477 0) scale(0.996264)"/>
       <use xlink:href="#CMR17-34" transform="translate(72.787654 0) scale(0.996264)"/>
      </g>
     </g>
    </g>
    <g id="xtick_4">
     <g id="line2d_4">
      <g>
       <use xlink:href="#m49894f3de4" x="243.200792" y="187.701556" style="stroke: #000000; stroke-width: 0.8"/>
      </g>
     </g>
     <g id="text_4">
      <!-- $\mathdefault{0.6}$ -->
      <g transform="translate(234.475501 204.387432) scale(0.14 -0.14)">
       <defs>
        <path id="CMR17-36" d="M 678 2176 
C 678 3690 1395 4032 1811 4032 
C 1946 4032 2272 4009 2400 3776 
C 2298 3776 2106 3776 2106 3553 
C 2106 3381 2246 3323 2336 3323 
C 2394 3323 2566 3348 2566 3560 
C 2566 3954 2246 4179 1805 4179 
C 1043 4179 243 3390 243 1984 
C 243 253 966 -128 1478 -128 
C 2099 -128 2688 427 2688 1283 
C 2688 2081 2170 2662 1517 2662 
C 1126 2662 838 2407 678 1960 
L 678 2176 
z
M 1478 25 
C 691 25 691 1200 691 1436 
C 691 1896 909 2560 1504 2560 
C 1613 2560 1926 2560 2138 2120 
C 2253 1870 2253 1609 2253 1289 
C 2253 944 2253 690 2118 434 
C 1978 171 1773 25 1478 25 
z
" transform="scale(0.015625)"/>
       </defs>
       <use xlink:href="#CMR17-30" transform="scale(0.996264)"/>
       <use xlink:href="#CMMI12-3a" transform="translate(45.690477 0) scale(0.996264)"/>
       <use xlink:href="#CMR17-36" transform="translate(72.787654 0) scale(0.996264)"/>
      </g>
     </g>
    </g>
    <g id="xtick_5">
     <g id="line2d_5">
      <g>
       <use xlink:href="#m49894f3de4" x="302.870492" y="187.701556" style="stroke: #000000; stroke-width: 0.8"/>
      </g>
     </g>
     <g id="text_5">
      <!-- $\mathdefault{0.8}$ -->
      <g transform="translate(294.145201 204.387432) scale(0.14 -0.14)">
       <defs>
        <path id="CMR17-38" d="M 1741 2264 
C 2144 2467 2554 2773 2554 3263 
C 2554 3841 1990 4179 1472 4179 
C 890 4179 378 3759 378 3180 
C 378 3021 416 2747 666 2505 
C 730 2442 998 2251 1171 2130 
C 883 1983 211 1634 211 934 
C 211 279 838 -128 1459 -128 
C 2144 -128 2720 362 2720 1010 
C 2720 1590 2330 1857 2074 2029 
L 1741 2264 
z
M 902 2822 
C 851 2854 595 3051 595 3351 
C 595 3739 998 4032 1459 4032 
C 1965 4032 2336 3676 2336 3262 
C 2336 2669 1670 2331 1638 2331 
C 1632 2331 1626 2331 1574 2370 
L 902 2822 
z
M 2080 1519 
C 2176 1449 2483 1240 2483 851 
C 2483 381 2010 25 1472 25 
C 890 25 448 438 448 940 
C 448 1443 838 1862 1280 2060 
L 2080 1519 
z
" transform="scale(0.015625)"/>
       </defs>
       <use xlink:href="#CMR17-30" transform="scale(0.996264)"/>
       <use xlink:href="#CMMI12-3a" transform="translate(45.690477 0) scale(0.996264)"/>
       <use xlink:href="#CMR17-38" transform="translate(72.787654 0) scale(0.996264)"/>
      </g>
     </g>
    </g>
    <g id="xtick_6">
     <g id="line2d_6">
      <g>
       <use xlink:href="#m49894f3de4" x="362.540193" y="187.701556" style="stroke: #000000; stroke-width: 0.8"/>
      </g>
     </g>
     <g id="text_6">
      <!-- $\mathdefault{1.0}$ -->
      <g transform="translate(353.814902 204.387432) scale(0.14 -0.14)">
       <defs>
        <path id="CMR17-31" d="M 1702 4058 
C 1702 4192 1696 4192 1606 4192 
C 1357 3916 979 3827 621 3827 
C 602 3827 570 3827 563 3808 
C 557 3795 557 3782 557 3648 
C 755 3648 1088 3686 1344 3839 
L 1344 461 
C 1344 236 1331 160 781 160 
L 589 160 
L 589 0 
C 896 0 1216 0 1523 0 
C 1830 0 2150 0 2458 0 
L 2458 160 
L 2266 160 
C 1715 160 1702 230 1702 458 
L 1702 4058 
z
" transform="scale(0.015625)"/>
       </defs>
       <use xlink:href="#CMR17-31" transform="scale(0.996264)"/>
       <use xlink:href="#CMMI12-3a" transform="translate(45.690477 0) scale(0.996264)"/>
       <use xlink:href="#CMR17-30" transform="translate(72.787654 0) scale(0.996264)"/>
      </g>
     </g>
    </g>
    <g id="text_7">
     <!-- $\mathbf{P}$ -->
     <g transform="translate(208.214286 220.785337) scale(0.14 -0.14)">
      <defs>
       <path id="CMBX12-50" d="M 1766 1934 
L 2854 1934 
C 3923 1934 4518 2474 4518 3128 
C 4518 3812 3910 4352 2854 4352 
L 243 4352 
L 243 4078 
L 922 4078 
L 922 267 
L 243 267 
L 243 0 
C 429 0 1114 0 1344 0 
C 1574 0 2259 0 2445 0 
L 2445 267 
L 1766 267 
L 1766 1934 
z
M 2624 4078 
C 3616 4078 3616 3558 3616 3127 
C 3616 2709 3616 2176 2624 2176 
L 1734 2176 
L 1734 4078 
L 2624 4078 
z
" transform="scale(0.015625)"/>
      </defs>
      <use xlink:href="#CMBX12-50" transform="scale(0.996264)"/>
     </g>
    </g>
   </g>
   <g id="matplotlib.axis_2">
    <g id="ytick_1">
     <g id="line2d_7">
      <defs>
       <path id="m4a539614aa" d="M 0 0 
L -3.5 0 
" style="stroke: #000000; stroke-width: 0.8"/>
      </defs>
      <g>
       <use xlink:href="#m4a539614aa" x="49.404673" y="172.061123" style="stroke: #000000; stroke-width: 0.8"/>
      </g>
     </g>
     <g id="text_8">
      <!-- $\mathdefault{2}$ -->
      <g transform="translate(35.576185 176.904062) scale(0.14 -0.14)">
       <use xlink:href="#CMR17-32" transform="scale(0.996264)"/>
      </g>
     </g>
    </g>
    <g id="ytick_2">
     <g id="line2d_8">
      <g>
       <use xlink:href="#m4a539614aa" x="49.404673" y="141.02294" style="stroke: #000000; stroke-width: 0.8"/>
      </g>
     </g>
     <g id="text_9">
      <!-- $\mathdefault{4}$ -->
      <g transform="translate(35.576185 145.865878) scale(0.14 -0.14)">
       <use xlink:href="#CMR17-34" transform="scale(0.996264)"/>
      </g>
     </g>
    </g>
    <g id="ytick_3">
     <g id="line2d_9">
      <g>
       <use xlink:href="#m4a539614aa" x="49.404673" y="109.984756" style="stroke: #000000; stroke-width: 0.8"/>
      </g>
     </g>
     <g id="text_10">
      <!-- $\mathdefault{6}$ -->
      <g transform="translate(35.576185 114.827694) scale(0.14 -0.14)">
       <use xlink:href="#CMR17-36" transform="scale(0.996264)"/>
      </g>
     </g>
    </g>
    <g id="ytick_4">
     <g id="line2d_10">
      <g>
       <use xlink:href="#m4a539614aa" x="49.404673" y="78.946573" style="stroke: #000000; stroke-width: 0.8"/>
      </g>
     </g>
     <g id="text_11">
      <!-- $\mathdefault{8}$ -->
      <g transform="translate(35.576185 83.789511) scale(0.14 -0.14)">
       <use xlink:href="#CMR17-38" transform="scale(0.996264)"/>
      </g>
     </g>
    </g>
    <g id="ytick_5">
     <g id="line2d_11">
      <g>
       <use xlink:href="#m4a539614aa" x="49.404673" y="47.908389" style="stroke: #000000; stroke-width: 0.8"/>
      </g>
     </g>
     <g id="text_12">
      <!-- $\mathdefault{10}$ -->
      <g transform="translate(28.747696 52.751327) scale(0.14 -0.14)">
       <use xlink:href="#CMR17-31" transform="scale(0.996264)"/>
       <use xlink:href="#CMR17-30" transform="translate(45.690477 0) scale(0.996264)"/>
      </g>
     </g>
    </g>
    <g id="ytick_6">
     <g id="line2d_12">
      <g>
       <use xlink:href="#m4a539614aa" x="49.404673" y="16.870205" style="stroke: #000000; stroke-width: 0.8"/>
      </g>
     </g>
     <g id="text_13">
      <!-- $\mathdefault{12}$ -->
      <g transform="translate(28.747696 21.713144) scale(0.14 -0.14)">
       <use xlink:href="#CMR17-31" transform="scale(0.996264)"/>
       <use xlink:href="#CMR17-32" transform="translate(45.690477 0) scale(0.996264)"/>
      </g>
     </g>
    </g>
    <g id="text_14">
     <!-- $\phi(P, S)$ -->
     <g transform="translate(21.260772 120.859002) rotate(-90) scale(0.14 -0.14)">
      <defs>
       <path id="CMMI12-1e" d="M 2752 4390 
C 2752 4448 2707 4448 2688 4448 
C 2630 4448 2624 4435 2598 4326 
L 2253 2939 
C 2234 2856 2227 2849 2221 2843 
C 2214 2830 2170 2824 2157 2824 
C 1107 2734 301 1864 301 1057 
C 301 361 832 -64 1498 -64 
C 1446 -261 1402 -463 1350 -659 
C 1261 -995 1210 -1204 1210 -1229 
C 1210 -1241 1210 -1280 1274 -1280 
C 1293 -1280 1318 -1280 1331 -1254 
C 1344 -1241 1382 -1089 1408 -1008 
L 1645 -64 
C 2739 -64 3571 854 3571 1680 
C 3571 2343 3085 2816 2374 2816 
L 2752 4390 
z
M 2336 2701 
C 2758 2701 3181 2463 3181 1828 
C 3181 1097 2675 128 1677 50 
L 2336 2701 
z
M 1530 50 
C 1216 50 691 220 691 938 
C 691 1761 1274 2676 2195 2676 
L 1530 50 
z
" transform="scale(0.015625)"/>
       <path id="CMR17-28" d="M 1958 -1561 
C 1958 -1555 1958 -1542 1939 -1523 
C 1645 -1224 858 -407 858 1581 
C 858 3569 1632 4379 1946 4697 
C 1946 4704 1958 4717 1958 4736 
C 1958 4755 1939 4768 1914 4768 
C 1843 4768 1299 4296 986 3594 
C 666 2887 576 2199 576 1588 
C 576 1128 621 351 1005 -471 
C 1312 -1135 1837 -1600 1914 -1600 
C 1946 -1600 1958 -1587 1958 -1561 
z
" transform="scale(0.015625)"/>
       <path id="CMMI12-50" d="M 1894 2023 
L 2970 2023 
C 3853 2023 4736 2673 4736 3401 
C 4736 3898 4314 4352 3507 4352 
L 1530 4352 
C 1408 4352 1350 4352 1350 4231 
C 1350 4167 1408 4167 1504 4167 
C 1894 4167 1894 4116 1894 4046 
C 1894 4034 1894 3995 1869 3899 
L 1005 472 
C 947 249 934 185 486 185 
C 365 185 301 185 301 70 
C 301 0 358 0 397 0 
C 518 0 646 0 768 0 
L 1517 0 
C 1638 0 1773 0 1894 0 
C 1946 0 2016 0 2016 121 
C 2016 185 1958 185 1862 185 
C 1478 185 1472 230 1472 293 
C 1472 325 1478 369 1485 401 
L 1894 2023 
z
M 2355 3930 
C 2413 4167 2438 4167 2688 4167 
L 3322 4167 
C 3802 4167 4198 4013 4198 3535 
C 4198 3369 4115 2827 3821 2534 
C 3712 2419 3405 2176 2822 2176 
L 1920 2176 
L 2355 3930 
z
" transform="scale(0.015625)"/>
       <path id="CMMI12-3b" d="M 1248 -31 
C 1248 343 1126 619 864 619 
C 659 619 557 453 557 313 
C 557 172 653 0 870 0 
C 954 0 1024 26 1082 83 
C 1094 96 1101 96 1107 96 
C 1120 96 1120 5 1120 -27 
C 1120 -240 1082 -659 710 -1080 
C 640 -1157 640 -1170 640 -1183 
C 640 -1216 672 -1248 704 -1248 
C 755 -1248 1248 -771 1248 -31 
z
" transform="scale(0.015625)"/>
       <path id="CMMI12-53" d="M 4064 4423 
C 4064 4480 4019 4480 4006 4480 
C 3981 4480 3974 4474 3898 4378 
C 3859 4333 3597 4001 3590 3995 
C 3379 4410 2957 4480 2688 4480 
C 1875 4480 1139 3743 1139 3025 
C 1139 2549 1427 2269 1741 2161 
C 1811 2135 2189 2033 2381 1989 
C 2707 1900 2790 1875 2925 1735 
C 2950 1703 3078 1557 3078 1258 
C 3078 667 2528 57 1888 57 
C 1363 57 781 280 781 991 
C 781 1112 806 1265 826 1328 
C 826 1348 832 1378 832 1391 
C 832 1417 819 1449 768 1449 
C 710 1449 704 1436 678 1328 
L 352 24 
C 352 18 326 -64 326 -71 
C 326 -128 378 -128 390 -128 
C 416 -128 422 -122 499 -26 
L 794 356 
C 947 126 1280 -128 1875 -128 
C 2701 -128 3456 666 3456 1460 
C 3456 1728 3392 1963 3149 2197 
C 3014 2331 2899 2363 2310 2516 
C 1882 2630 1824 2649 1709 2751 
C 1600 2858 1517 3011 1517 3227 
C 1517 3761 2061 4308 2669 4308 
C 3296 4308 3590 3926 3590 3323 
C 3590 3158 3558 2986 3558 2961 
C 3558 2903 3610 2903 3629 2903 
C 3686 2903 3693 2922 3718 3024 
L 4064 4423 
z
" transform="scale(0.015625)"/>
       <path id="CMR17-29" d="M 1683 1581 
C 1683 2040 1638 2817 1254 3639 
C 947 4303 422 4768 346 4768 
C 326 4768 301 4761 301 4729 
C 301 4717 307 4710 314 4697 
C 621 4378 1402 3568 1402 1584 
C 1402 -407 627 -1217 314 -1537 
C 307 -1549 301 -1556 301 -1568 
C 301 -1600 326 -1600 346 -1600 
C 416 -1600 960 -1128 1274 -426 
C 1594 281 1683 969 1683 1581 
z
" transform="scale(0.015625)"/>
      </defs>
      <use xlink:href="#CMMI12-1e" transform="scale(0.996264)"/>
      <use xlink:href="#CMR17-28" transform="translate(57.73418 0) scale(0.996264)"/>
      <use xlink:href="#CMMI12-50" transform="translate(93.014948 0) scale(0.996264)"/>
      <use xlink:href="#CMMI12-3b" transform="translate(158.601898 0) scale(0.996264)"/>
      <use xlink:href="#CMMI12-53" transform="translate(202.30348 0) scale(0.996264)"/>
      <use xlink:href="#CMR17-29" transform="translate(268.09792 0) scale(0.996264)"/>
     </g>
    </g>
   </g>
   <g id="line2d_13">
    <path d="M 93.273266 140.697477 
L 92.97261 139.020412 
L 92.694614 136.042235 
L 92.50763 131.31889 
L 92.517651 125.031346 
L 92.752504 117.344298 
L 93.300626 105.982571 
L 94.320696 89.643521 
L 95.374198 75.872032 
L 96.419758 64.295673 
L 97.72675 52.043006 
L 98.760569 43.824078 
L 99.933511 35.968242 
L 101.248765 28.989834 
L 101.959769 26.012116 
L 102.703982 23.474821 
L 103.480443 21.437697 
L 104.286603 19.95555 
L 105.119227 19.075518 
L 105.974334 18.84098 
L 106.846882 19.293258 
L 107.731433 20.473156 
L 108.621229 22.419718 
L 109.508968 25.167027 
L 110.386561 28.74051 
L 111.245194 33.1493 
L 112.076196 38.383066 
L 112.870262 44.40047 
L 113.618369 51.129777 
L 114.942564 66.2914 
L 115.989455 82.863627 
L 116.717489 99.880813 
L 117.109839 116.613111 
L 117.174667 132.34093 
L 116.942826 146.171656 
L 116.461281 157.377168 
L 115.785818 165.952654 
L 114.973021 172.576025 
L 114.531644 175.208251 
L 114.074973 177.176242 
L 113.607988 178.418582 
L 113.13534 179.113814 
L 112.660979 179.487333 
L 112.188206 179.660576 
L 111.719741 179.656543 
L 111.257819 179.444296 
L 110.804207 178.976391 
L 109.927027 177.318364 
L 109.094825 175.709945 
L 108.31041 174.354615 
L 107.573933 172.192501 
L 106.883901 169.906598 
L 105.931473 167.696571 
L 103.602848 157.973274 
L 101.709679 147.81887 
L 101.265007 143.984478 
L 100.883556 138.792489 
L 100.667002 132.711 
L 100.688864 127.096064 
L 100.916919 122.25619 
L 101.314679 118.383343 
L 101.747983 115.958248 
L 102.249792 114.29437 
L 102.686061 113.514838 
L 103.026356 113.241102 
L 103.373346 113.213389 
L 103.722852 113.405828 
L 104.18664 113.947062 
L 104.862192 115.191563 
L 105.79145 117.471772 
L 107.545703 121.857089 
L 108.077996 122.636058 
L 108.503022 122.917801 
L 108.966774 122.956718 
L 110.049254 122.720737 
L 111.463955 122.528439 
L 113.03644 122.553273 
L 113.300183 122.576628 
L 113.300183 122.576628 
" clip-path="url(#p623f2dd34b)" style="fill: none; stroke: #000000; stroke-width: 3; stroke-linecap: square"/>
   </g>
   <g id="line2d_14">
    <path d="M 362.818496 140.697477 
L 346.789686 139.77832 
L 331.693521 138.596994 
L 322.117559 137.661579 
L 312.912354 136.610169 
L 304.059713 135.446869 
L 295.543989 134.176475 
L 287.347789 132.801311 
L 279.455962 131.31889 
L 271.852912 129.717964 
L 264.523613 127.977325 
L 257.453696 126.064892 
L 250.627833 123.93842 
L 244.032917 121.548239 
L 237.654171 118.837952 
L 234.54178 117.344298 
L 231.478577 115.748301 
L 228.463245 114.042804 
L 225.493242 112.219898 
L 222.567519 110.273063 
L 219.684386 108.195935 
L 216.84219 105.982571 
L 214.039756 103.628487 
L 211.274817 101.129148 
L 208.544858 98.4806 
L 205.850838 95.68394 
L 203.189832 92.737642 
L 200.560524 89.643521 
L 195.390912 83.025482 
L 190.329198 75.872032 
L 185.364258 68.251563 
L 180.484971 60.260854 
L 173.304666 47.914605 
L 168.596646 39.821774 
L 163.943771 32.333071 
L 161.636059 28.989834 
L 159.338759 26.012116 
L 157.055294 23.474821 
L 154.783362 21.437697 
L 152.523486 19.95555 
L 150.276173 19.075518 
L 148.042029 18.84098 
L 145.822396 19.293258 
L 143.617799 20.473156 
L 141.430024 22.419718 
L 139.260788 25.167027 
L 137.112042 28.74051 
L 134.986281 33.1493 
L 132.885202 38.383066 
L 130.811745 44.40047 
L 128.768474 51.129777 
L 126.758111 58.468747 
L 124.783741 66.2914 
L 120.95206 82.863627 
L 117.29508 99.880813 
L 109.018719 139.549836 
L 106.079374 152.124284 
L 104.690605 157.377168 
L 103.355376 161.958775 
L 100.841302 169.468065 
L 99.660347 172.576025 
L 98.528215 175.208251 
L 97.443334 177.176242 
L 96.403934 178.418582 
L 95.408259 179.113814 
L 94.454393 179.487333 
L 93.540571 179.660576 
L 92.664634 179.656543 
L 91.824825 179.444296 
L 91.01929 178.976391 
L 90.246354 178.237951 
L 88.105035 175.709945 
L 86.810011 174.354615 
L 86.198073 173.371733 
L 84.488871 169.906598 
L 82.947953 167.696571 
L 79.115369 157.973274 
L 77.067943 152.160578 
L 75.60117 147.81887 
L 74.559815 143.984478 
L 73.185253 137.75912 
L 71.302588 127.985539 
L 69.430162 118.383343 
L 68.625102 115.200458 
L 68.025564 113.66432 
L 67.666734 113.241102 
L 67.417143 113.213389 
L 67.183283 113.405828 
L 66.894444 113.947062 
L 66.506809 115.191563 
L 65.922703 117.978026 
L 64.966666 122.583525 
L 64.711795 122.964814 
L 64.57205 122.861805 
L 64.361456 122.516414 
L 64.329141 122.576628 
" clip-path="url(#p623f2dd34b)" style="fill: none; stroke: #808080; stroke-width: 3; stroke-linecap: square"/>
   </g>
   <g id="line2d_15">
    <path d="M 93.273266 157.657253 
L 92.919659 154.085146 
L 92.658063 149.155272 
L 92.50763 142.350218 
L 92.517651 131.154734 
L 92.752504 117.948544 
L 93.300626 100.987621 
L 93.91554 87.905982 
L 94.551717 77.663739 
L 95.374198 67.664574 
L 96.044131 61.501625 
L 96.824625 56.034668 
L 97.72675 51.517171 
L 98.226656 49.686495 
L 98.760569 48.17383 
L 99.32931 46.998312 
L 99.933511 46.173899 
L 100.573297 45.708923 
L 101.248765 45.605514 
L 101.959769 45.860225 
L 102.703982 46.462591 
L 103.480443 47.397265 
L 104.286603 48.643454 
L 105.974334 51.966474 
L 107.731433 56.193992 
L 109.508968 61.063437 
L 111.245194 66.313201 
L 112.870262 71.708066 
L 114.311838 77.051042 
L 115.503829 82.191256 
L 116.395018 87.023493 
L 116.955723 91.483166 
L 117.181709 95.540585 
L 117.093194 99.190867 
L 116.729902 102.4485 
L 116.144189 105.339075 
L 115.393157 107.895669 
L 114.531644 110.153522 
L 113.13534 113.057121 
L 111.719741 115.478413 
L 109.927027 118.118968 
L 107.573933 121.163598 
L 104.296614 124.974269 
L 101.586603 128.174182 
L 100.883556 129.340656 
L 100.654889 130.158542 
L 100.713522 130.743608 
L 100.972493 131.24298 
L 101.478354 131.737727 
L 102.356503 132.262459 
L 103.839299 132.849559 
L 106.250459 133.532372 
L 108.966774 134.099795 
L 110.984829 134.220121 
L 113.300183 134.267296 
L 113.300183 134.267296 
" clip-path="url(#p623f2dd34b)" style="fill: none; stroke-dasharray: 3,4.95; stroke-dashoffset: 0; stroke: #1f77b4; stroke-width: 3"/>
   </g>
   <g id="line2d_16">
    <path d="M 93.273266 113.399908 
L 92.734083 106.38185 
L 92.50763 100.884775 
L 92.517651 96.235763 
L 92.752504 92.420164 
L 93.181638 89.396787 
L 93.739011 87.108313 
L 94.320696 85.487444 
L 95.077114 83.968607 
L 96.044131 82.578117 
L 97.259839 81.354277 
L 98.226656 80.657737 
L 99.32931 80.082233 
L 100.573297 79.657113 
L 101.959769 79.419956 
L 103.480443 79.419127 
L 105.119227 79.715411 
L 106.846882 80.384526 
L 108.621229 81.518618 
L 109.508968 82.293318 
L 110.386561 83.226053 
L 111.245194 84.332262 
L 112.076196 85.628312 
L 112.870262 87.130069 
L 113.618369 88.853178 
L 114.311838 90.812156 
L 114.942564 93.019319 
L 115.503829 95.485588 
L 115.989455 98.216336 
L 116.395018 101.213486 
L 116.955723 107.983479 
L 117.181709 115.6815 
L 117.093194 124.072562 
L 116.729902 132.814313 
L 116.144189 141.491757 
L 115.393157 149.684097 
L 114.531644 157.026589 
L 113.607988 163.262444 
L 112.660979 168.261723 
L 111.719741 172.01202 
L 110.804207 174.59083 
L 109.927027 176.129885 
L 109.505029 176.558363 
L 109.094825 176.786367 
L 108.69658 176.833731 
L 108.31041 176.719542 
L 107.573933 176.077728 
L 106.883901 174.991007 
L 106.238358 173.569874 
L 105.34821 171.004588 
L 104.296614 167.121067 
L 103.183659 162.020244 
L 102.127205 156.057164 
L 101.364329 150.571329 
L 100.883556 145.673457 
L 100.667002 141.365027 
L 100.688864 137.599966 
L 100.916919 134.316055 
L 101.314679 131.450774 
L 101.941702 128.561901 
L 102.798534 125.767949 
L 103.839299 123.167894 
L 105.185167 120.439071 
L 107.034999 117.238743 
L 108.364168 115.276538 
L 109.061967 114.610146 
L 109.82815 114.192501 
L 110.924954 113.873084 
L 112.797068 113.592591 
L 113.300183 113.538437 
L 113.300183 113.538437 
" clip-path="url(#p623f2dd34b)" style="fill: none; stroke-dasharray: 11.1,4.8; stroke-dashoffset: 0; stroke: #1f77b4; stroke-width: 3"/>
   </g>
   <g id="line2d_17">
    <path d="M 93.273266 150.794183 
L 92.869291 144.227293 
L 92.594324 136.393272 
L 92.483599 127.0593 
L 92.568332 117.639561 
L 92.893929 106.653788 
L 93.432528 96.087037 
L 94.109039 86.569439 
L 95.077114 76.014987 
L 96.044131 67.400643 
L 97.259839 58.239936 
L 98.760569 48.699828 
L 99.933511 42.303628 
L 101.248765 36.098765 
L 102.703982 30.383002 
L 103.480443 27.839832 
L 104.286603 25.594263 
L 105.119227 23.725669 
L 105.974334 22.323487 
L 106.846882 21.48639 
L 107.731433 21.319222 
L 108.621229 21.92998 
L 109.508968 23.423361 
L 110.386561 25.893611 
L 111.245194 29.414613 
L 112.076196 34.032662 
L 112.870262 39.753442 
L 113.618369 46.53711 
L 114.311838 54.293311 
L 114.942564 62.88063 
L 115.989455 81.793087 
L 116.717489 101.519317 
L 117.109839 120.312359 
L 117.174667 136.843404 
L 116.942826 150.400902 
L 116.461281 160.838155 
L 115.785818 168.387402 
L 114.973021 173.474206 
L 114.531644 175.243034 
L 114.074973 176.573011 
L 113.607988 177.518205 
L 113.13534 178.128299 
L 112.660979 178.44836 
L 112.188206 178.518749 
L 111.719741 178.375262 
L 111.257819 178.049408 
L 110.360318 176.957477 
L 109.505029 175.423111 
L 108.31041 172.578321 
L 107.22328 169.354529 
L 105.931473 164.809119 
L 104.545731 159.118688 
L 103.183659 152.659754 
L 101.9799 145.931135 
L 101.17346 140.188411 
L 100.743682 135.413679 
L 100.650015 132.023792 
L 100.779323 129.203244 
L 101.096989 126.874676 
L 101.565183 124.964782 
L 102.249792 123.179024 
L 103.026356 121.785042 
L 103.955493 120.576431 
L 105.078816 119.509687 
L 106.336902 118.645018 
L 107.659994 118.0159 
L 108.779613 117.724544 
L 110.276614 117.605551 
L 113.300183 117.549946 
L 113.300183 117.549946 
" clip-path="url(#p623f2dd34b)" style="fill: none; stroke-dasharray: 19.2,4.8,3,4.8; stroke-dashoffset: 0; stroke: #1f77b4; stroke-width: 3"/>
   </g>
   <g id="line2d_18">
    <path d="M 362.818496 157.657253 
L 352.025949 156.591372 
L 341.657027 155.405339 
L 331.693521 154.085146 
L 322.117559 152.615209 
L 312.912354 150.978348 
L 304.059713 149.155272 
L 295.543989 147.125223 
L 287.347789 144.865046 
L 279.455962 142.350218 
L 271.852912 139.554431 
L 264.523613 136.450223 
L 257.453696 133.009838 
L 254.011041 131.154734 
L 250.627833 129.205412 
L 247.302669 127.159031 
L 244.032917 125.012216 
L 240.817261 122.76274 
L 237.654171 120.408701 
L 234.54178 117.948544 
L 231.478577 115.381619 
L 225.493242 109.929078 
L 219.684386 104.064337 
L 214.039756 97.823895 
L 208.544858 91.269866 
L 203.189832 84.504018 
L 187.835351 64.512244 
L 182.914976 58.665441 
L 180.484971 56.034668 
L 178.074162 53.642015 
L 175.681359 51.517171 
L 173.304666 49.686495 
L 170.943392 48.17383 
L 168.596646 46.998312 
L 166.263576 46.173899 
L 163.943771 45.708923 
L 161.636059 45.605514 
L 159.338759 45.860225 
L 157.055294 46.462591 
L 154.783362 47.397265 
L 152.523486 48.643454 
L 150.276173 50.176055 
L 148.042029 51.966474 
L 145.822396 53.983174 
L 143.617799 56.193992 
L 139.260788 61.063437 
L 134.986281 66.313201 
L 128.768474 74.396545 
L 119.100463 87.023493 
L 113.829515 93.563032 
L 109.018719 99.190867 
L 104.690605 103.937796 
L 99.660347 109.059687 
L 95.408259 113.057121 
L 91.01929 116.872573 
L 86.810011 120.248363 
L 82.467333 123.456897 
L 78.048669 126.454877 
L 73.40014 129.340656 
L 68.519741 132.099805 
L 64.329141 134.267296 
L 64.329141 134.267296 
" clip-path="url(#p623f2dd34b)" style="fill: none; stroke-dasharray: 3,4.95; stroke-dashoffset: 0; stroke: #ff7f0e; stroke-width: 3"/>
   </g>
   <g id="line2d_19">
    <path d="M 362.818496 113.399908 
L 341.657027 110.58289 
L 322.117559 107.776987 
L 304.059713 104.993624 
L 283.364905 101.562814 
L 264.523613 98.205591 
L 244.032917 94.305467 
L 219.684386 89.396787 
L 192.847229 83.968607 
L 182.914976 82.149401 
L 175.681359 80.992458 
L 168.596646 80.082233 
L 163.943771 79.657113 
L 159.338759 79.419956 
L 154.783362 79.419127 
L 150.276173 79.715411 
L 145.822396 80.384526 
L 143.617799 80.887051 
L 141.430024 81.518618 
L 139.260788 82.293318 
L 137.112042 83.226053 
L 134.986281 84.332262 
L 132.885202 85.628312 
L 130.811745 87.130069 
L 128.768474 88.853178 
L 126.758111 90.812156 
L 124.783741 93.019319 
L 122.847239 95.485588 
L 120.95206 98.216336 
L 119.100463 101.213486 
L 117.29508 104.472363 
L 115.537381 107.983479 
L 113.829515 111.728407 
L 112.173046 115.6815 
L 109.018719 124.072562 
L 106.079374 132.814313 
L 102.072558 145.673468 
L 98.528215 157.026589 
L 96.403934 163.262444 
L 94.454393 168.261723 
L 92.664634 172.01202 
L 91.824825 173.440543 
L 91.01929 174.59083 
L 90.246354 175.480702 
L 89.504038 176.129885 
L 88.790799 176.558363 
L 88.105035 176.786367 
L 87.445249 176.833731 
L 86.810011 176.719542 
L 86.198073 176.461936 
L 85.038622 175.582651 
L 83.957903 174.316201 
L 82.947953 172.762867 
L 81.551107 170.069684 
L 80.27862 167.121067 
L 78.74967 163.041692 
L 76.758568 157.023355 
L 74.315915 148.871905 
L 70.08593 133.811044 
L 64.556573 114.310946 
L 64.329141 113.538437 
L 64.329141 113.538437 
" clip-path="url(#p623f2dd34b)" style="fill: none; stroke-dasharray: 11.1,4.8; stroke-dashoffset: 0; stroke: #ff7f0e; stroke-width: 3"/>
   </g>
   <g id="line2d_20">
    <path d="M 362.818496 150.794183 
L 352.025949 149.035787 
L 341.657027 147.18523 
L 331.693521 145.238299 
L 322.117559 143.190523 
L 312.912354 141.037296 
L 304.059713 138.773279 
L 295.543989 136.393272 
L 287.347789 133.891098 
L 279.455962 131.260651 
L 271.852912 128.495049 
L 264.523613 125.586966 
L 257.453696 122.528557 
L 250.627833 119.310788 
L 244.032917 115.924756 
L 237.654171 112.359827 
L 231.478577 108.605381 
L 225.493242 104.650113 
L 219.684386 100.481382 
L 214.039756 96.087037 
L 208.544858 91.452959 
L 203.189832 86.569439 
L 197.961625 81.42591 
L 192.847229 76.014987 
L 187.835351 70.337009 
L 182.914976 64.403166 
L 178.074162 58.239936 
L 170.943392 48.699828 
L 161.636059 36.098765 
L 157.055294 30.383002 
L 154.783362 27.839832 
L 152.523486 25.594263 
L 150.276173 23.725669 
L 148.042029 22.323487 
L 145.822396 21.48639 
L 143.617799 21.319222 
L 141.430024 21.92998 
L 139.260788 23.423361 
L 137.112042 25.893611 
L 134.986281 29.414613 
L 132.885202 34.032662 
L 130.811745 39.753442 
L 128.768474 46.53711 
L 126.758111 54.293311 
L 124.783741 62.88063 
L 122.847239 72.119984 
L 119.100463 91.670284 
L 112.173046 128.91971 
L 109.018719 144.013845 
L 107.52202 150.400902 
L 106.079374 156.001644 
L 104.690605 160.838155 
L 103.355376 164.949417 
L 102.072558 168.387402 
L 100.841302 171.208967 
L 99.660347 173.474206 
L 98.528215 175.243034 
L 97.443334 176.573011 
L 96.403934 177.518205 
L 95.408259 178.128299 
L 94.454393 178.44836 
L 93.540571 178.518749 
L 92.664634 178.375262 
L 91.824825 178.049408 
L 91.01929 177.568762 
L 89.504038 176.236206 
L 88.105035 174.533756 
L 86.810011 172.578321 
L 85.038622 169.354529 
L 83.444535 165.956298 
L 81.551107 161.375438 
L 79.491866 155.820642 
L 76.758568 147.755133 
L 69.94886 127.231826 
L 68.315714 123.179024 
L 67.035674 120.576431 
L 66.01771 118.984814 
L 65.174644 118.05919 
L 64.470813 117.603405 
L 64.329141 117.549946 
L 64.329141 117.549946 
" clip-path="url(#p623f2dd34b)" style="fill: none; stroke-dasharray: 19.2,4.8,3,4.8; stroke-dashoffset: 0; stroke: #ff7f0e; stroke-width: 3"/>
   </g>
   <g id="patch_3">
    <path d="M 49.404673 187.701556 
L 49.404673 10.8 
" style="fill: none; stroke: #000000; stroke-width: 0.8; stroke-linejoin: miter; stroke-linecap: square"/>
   </g>
   <g id="patch_4">
    <path d="M 377.742964 187.701556 
L 377.742964 10.8 
" style="fill: none; stroke: #000000; stroke-width: 0.8; stroke-linejoin: miter; stroke-linecap: square"/>
   </g>
   <g id="patch_5">
    <path d="M 49.404673 187.701556 
L 377.742964 187.701556 
" style="fill: none; stroke: #000000; stroke-width: 0.8; stroke-linejoin: miter; stroke-linecap: square"/>
   </g>
   <g id="patch_6">
    <path d="M 49.404673 10.8 
L 377.742964 10.8 
" style="fill: none; stroke: #000000; stroke-width: 0.8; stroke-linejoin: miter; stroke-linecap: square"/>
   </g>
   <g id="text_15">
    <!-- $\mathbf{s}$ -->
    <g style="fill: #808080" transform="translate(142.601043 223.081867) scale(0.24 -0.24)">
     <defs>
      <path id="CMBX12-73" d="M 2413 2715 
C 2413 2836 2413 2880 2317 2880 
C 2278 2880 2266 2880 2170 2823 
C 2144 2804 2074 2759 2042 2740 
C 1862 2842 1626 2880 1395 2880 
C 1203 2880 243 2880 243 2056 
C 243 1389 1037 1250 1235 1218 
C 1408 1187 1619 1148 1645 1148 
C 1901 1091 2157 932 2157 666 
C 2157 178 1574 178 1440 178 
C 1114 178 710 279 531 896 
C 493 1023 486 1023 378 1023 
C 243 1023 243 1004 243 858 
L 243 132 
C 243 12 243 -32 339 -32 
C 384 -32 397 -32 525 70 
L 691 191 
C 979 -32 1325 -32 1440 -32 
C 1792 -32 2592 44 2592 888 
C 2592 1192 2426 1402 2298 1516 
C 2035 1731 1818 1770 1472 1833 
C 1062 1903 678 1973 678 2277 
C 678 2689 1248 2689 1382 2689 
C 2093 2689 2131 2245 2144 2087 
C 2150 2005 2202 2005 2278 2005 
C 2413 2005 2413 2024 2413 2170 
L 2413 2715 
z
" transform="scale(0.015625)"/>
     </defs>
     <use xlink:href="#CMBX12-73" transform="scale(0.996264)"/>
    </g>
   </g>
   <g id="legend_1">
    <g id="line2d_21">
     <path d="M 183.886073 31.866486 
L 197.886073 31.866486 
L 211.886073 31.866486 
" style="fill: none; stroke: #000000; stroke-width: 3; stroke-linecap: square"/>
    </g>
    <g id="text_16">
     <!-- $\hat{\phi}(P)$ -->
     <g transform="translate(223.086073 36.766486) scale(0.14 -0.14)">
      <defs>
       <path id="CMR17-5e" d="M 1466 4421 
L 678 3555 
L 755 3478 
L 1466 4166 
L 2176 3478 
L 2253 3555 
L 1466 4421 
z
" transform="scale(0.015625)"/>
      </defs>
      <use xlink:href="#CMR17-5e" transform="translate(14.151005 26.296621) scale(0.996264)"/>
      <use xlink:href="#CMMI12-1e" transform="scale(0.996264)"/>
      <use xlink:href="#CMR17-28" transform="translate(57.73418 0) scale(0.996264)"/>
      <use xlink:href="#CMMI12-50" transform="translate(93.014948 0) scale(0.996264)"/>
      <use xlink:href="#CMR17-29" transform="translate(169.440769 0) scale(0.996264)"/>
     </g>
    </g>
    <g id="line2d_22">
     <path d="M 183.886073 55.719897 
L 197.886073 55.719897 
L 211.886073 55.719897 
" style="fill: none; stroke: #808080; stroke-width: 3; stroke-linecap: square"/>
    </g>
    <g id="text_17">
     <!-- $\hat{\phi}(S)$ -->
     <g transform="translate(223.086073 60.619897) scale(0.14 -0.14)">
      <use xlink:href="#CMR17-5e" transform="translate(14.151005 26.296621) scale(0.996264)"/>
      <use xlink:href="#CMMI12-1e" transform="scale(0.996264)"/>
      <use xlink:href="#CMR17-28" transform="translate(57.73418 0) scale(0.996264)"/>
      <use xlink:href="#CMMI12-53" transform="translate(93.014948 0) scale(0.996264)"/>
      <use xlink:href="#CMR17-29" transform="translate(158.809387 0) scale(0.996264)"/>
     </g>
    </g>
    <g id="line2d_23">
     <path d="M 183.886073 76.667593 
L 197.886073 76.667593 
L 211.886073 76.667593 
" style="fill: none; stroke-dasharray: 3,4.95; stroke-dashoffset: 0; stroke: #1f77b4; stroke-width: 3"/>
    </g>
    <g id="text_18">
     <!-- $\phi^s_5(P)$ -->
     <g transform="translate(223.086073 81.567593) scale(0.14 -0.14)">
      <defs>
       <path id="CMMI12-73" d="M 1459 1280 
C 1568 1261 1741 1223 1779 1216 
C 1862 1192 2150 1090 2150 783 
C 2150 586 1971 70 1229 70 
C 1094 70 614 70 486 436 
C 742 404 870 603 870 745 
C 870 880 781 950 653 950 
C 512 950 326 841 326 552 
C 326 173 710 -64 1222 -64 
C 2195 -64 2483 651 2483 984 
C 2483 1079 2483 1258 2278 1462 
C 2118 1616 1965 1648 1619 1718 
C 1446 1756 1171 1814 1171 2101 
C 1171 2229 1286 2689 1894 2689 
C 2163 2689 2426 2589 2490 2368 
C 2208 2368 2195 2125 2195 2119 
C 2195 1984 2317 1946 2374 1946 
C 2464 1946 2643 2015 2643 2281 
C 2643 2545 2400 2816 1901 2816 
C 1062 2816 838 2160 838 1899 
C 838 1414 1312 1312 1459 1280 
z
" transform="scale(0.015625)"/>
       <path id="CMR17-35" d="M 730 3692 
C 794 3666 1056 3584 1325 3584 
C 1920 3584 2246 3911 2432 4100 
C 2432 4157 2432 4192 2394 4192 
C 2387 4192 2374 4192 2323 4163 
C 2099 4058 1837 3973 1517 3973 
C 1325 3973 1037 3999 723 4139 
C 653 4171 640 4171 634 4171 
C 602 4171 595 4164 595 4037 
L 595 2203 
C 595 2089 595 2057 659 2057 
C 691 2057 704 2070 736 2114 
C 941 2401 1222 2522 1542 2522 
C 1766 2522 2246 2382 2246 1289 
C 2246 1085 2246 715 2054 421 
C 1894 159 1645 25 1370 25 
C 947 25 518 320 403 814 
C 429 807 480 795 506 795 
C 589 795 749 840 749 1038 
C 749 1210 627 1280 506 1280 
C 358 1280 262 1190 262 1011 
C 262 454 704 -128 1382 -128 
C 2042 -128 2669 440 2669 1264 
C 2669 2030 2170 2624 1549 2624 
C 1222 2624 947 2503 730 2274 
L 730 3692 
z
" transform="scale(0.015625)"/>
      </defs>
      <use xlink:href="#CMMI12-1e" transform="scale(0.996264)"/>
      <use xlink:href="#CMMI12-73" transform="translate(57.73418 36.153639) scale(0.697382)"/>
      <use xlink:href="#CMR17-35" transform="translate(57.73418 -24.740171) scale(0.697382)"/>
      <use xlink:href="#CMR17-28" transform="translate(90.397201 0) scale(0.996264)"/>
      <use xlink:href="#CMMI12-50" transform="translate(125.677969 0) scale(0.996264)"/>
      <use xlink:href="#CMR17-29" transform="translate(202.10379 0) scale(0.996264)"/>
     </g>
    </g>
    <g id="line2d_24">
     <path d="M 183.886073 97.615289 
L 197.886073 97.615289 
L 211.886073 97.615289 
" style="fill: none; stroke-dasharray: 11.1,4.8; stroke-dashoffset: 0; stroke: #1f77b4; stroke-width: 3"/>
    </g>
    <g id="text_19">
     <!-- $\phi^s_{6}(P)$ -->
     <g transform="translate(223.086073 102.515289) scale(0.14 -0.14)">
      <use xlink:href="#CMMI12-1e" transform="scale(0.996264)"/>
      <use xlink:href="#CMMI12-73" transform="translate(57.73418 36.153639) scale(0.697382)"/>
      <use xlink:href="#CMR17-36" transform="translate(57.73418 -24.740171) scale(0.697382)"/>
      <use xlink:href="#CMR17-28" transform="translate(90.397201 0) scale(0.996264)"/>
      <use xlink:href="#CMMI12-50" transform="translate(125.677969 0) scale(0.996264)"/>
      <use xlink:href="#CMR17-29" transform="translate(202.10379 0) scale(0.996264)"/>
     </g>
    </g>
    <g id="line2d_25">
     <path d="M 286.005905 31.866486 
L 300.005905 31.866486 
L 314.005905 31.866486 
" style="fill: none; stroke-dasharray: 19.2,4.8,3,4.8; stroke-dashoffset: 0; stroke: #1f77b4; stroke-width: 3"/>
    </g>
    <g id="text_20">
     <!-- $\phi^s_{13}(P)$ -->
     <g transform="translate(325.205905 36.766486) scale(0.14 -0.14)">
      <defs>
       <path id="CMR17-33" d="M 1414 2157 
C 1984 2157 2234 1662 2234 1090 
C 2234 320 1824 25 1453 25 
C 1114 25 563 194 390 693 
C 422 680 454 680 486 680 
C 640 680 755 782 755 948 
C 755 1133 614 1216 486 1216 
C 378 1216 211 1165 211 926 
C 211 335 787 -128 1466 -128 
C 2176 -128 2720 430 2720 1085 
C 2720 1707 2208 2157 1600 2227 
C 2086 2328 2554 2756 2554 3329 
C 2554 3820 2048 4179 1472 4179 
C 890 4179 378 3829 378 3329 
C 378 3110 544 3072 627 3072 
C 762 3072 877 3155 877 3321 
C 877 3486 762 3569 627 3569 
C 602 3569 570 3569 544 3557 
C 730 3959 1235 4032 1459 4032 
C 1683 4032 2106 3925 2106 3320 
C 2106 3143 2080 2828 1862 2550 
C 1670 2304 1453 2304 1242 2284 
C 1210 2284 1062 2269 1037 2269 
C 992 2263 966 2257 966 2208 
C 966 2163 973 2157 1101 2157 
L 1414 2157 
z
" transform="scale(0.015625)"/>
      </defs>
      <use xlink:href="#CMMI12-1e" transform="scale(0.996264)"/>
      <use xlink:href="#CMMI12-73" transform="translate(57.73418 36.153639) scale(0.697382)"/>
      <use xlink:href="#CMR17-31" transform="translate(57.73418 -24.740171) scale(0.697382)"/>
      <use xlink:href="#CMR17-33" transform="translate(89.717362 -24.740171) scale(0.697382)"/>
      <use xlink:href="#CMR17-28" transform="translate(122.198676 0) scale(0.996264)"/>
      <use xlink:href="#CMMI12-50" transform="translate(157.479444 0) scale(0.996264)"/>
      <use xlink:href="#CMR17-29" transform="translate(233.905265 0) scale(0.996264)"/>
     </g>
    </g>
    <g id="line2d_26">
     <path d="M 286.005905 52.814183 
L 300.005905 52.814183 
L 314.005905 52.814183 
" style="fill: none; stroke-dasharray: 3,4.95; stroke-dashoffset: 0; stroke: #ff7f0e; stroke-width: 3"/>
    </g>
    <g id="text_21">
     <!-- $\phi^s_5(S)$ -->
     <g transform="translate(325.205905 57.714183) scale(0.14 -0.14)">
      <use xlink:href="#CMMI12-1e" transform="scale(0.996264)"/>
      <use xlink:href="#CMMI12-73" transform="translate(57.73418 36.153639) scale(0.697382)"/>
      <use xlink:href="#CMR17-35" transform="translate(57.73418 -24.740171) scale(0.697382)"/>
      <use xlink:href="#CMR17-28" transform="translate(90.397201 0) scale(0.996264)"/>
      <use xlink:href="#CMMI12-53" transform="translate(125.677969 0) scale(0.996264)"/>
      <use xlink:href="#CMR17-29" transform="translate(191.472408 0) scale(0.996264)"/>
     </g>
    </g>
    <g id="line2d_27">
     <path d="M 286.005905 73.761879 
L 300.005905 73.761879 
L 314.005905 73.761879 
" style="fill: none; stroke-dasharray: 11.1,4.8; stroke-dashoffset: 0; stroke: #ff7f0e; stroke-width: 3"/>
    </g>
    <g id="text_22">
     <!-- $\phi^s_{6}(S)$ -->
     <g transform="translate(325.205905 78.661879) scale(0.14 -0.14)">
      <use xlink:href="#CMMI12-1e" transform="scale(0.996264)"/>
      <use xlink:href="#CMMI12-73" transform="translate(57.73418 36.153639) scale(0.697382)"/>
      <use xlink:href="#CMR17-36" transform="translate(57.73418 -24.740171) scale(0.697382)"/>
      <use xlink:href="#CMR17-28" transform="translate(90.397201 0) scale(0.996264)"/>
      <use xlink:href="#CMMI12-53" transform="translate(125.677969 0) scale(0.996264)"/>
      <use xlink:href="#CMR17-29" transform="translate(191.472408 0) scale(0.996264)"/>
     </g>
    </g>
    <g id="line2d_28">
     <path d="M 286.005905 94.709575 
L 300.005905 94.709575 
L 314.005905 94.709575 
" style="fill: none; stroke-dasharray: 19.2,4.8,3,4.8; stroke-dashoffset: 0; stroke: #ff7f0e; stroke-width: 3"/>
    </g>
    <g id="text_23">
     <!-- $\phi^s_{13}(S)$ -->
     <g transform="translate(325.205905 99.609575) scale(0.14 -0.14)">
      <use xlink:href="#CMMI12-1e" transform="scale(0.996264)"/>
      <use xlink:href="#CMMI12-73" transform="translate(57.73418 36.153639) scale(0.697382)"/>
      <use xlink:href="#CMR17-31" transform="translate(57.73418 -24.740171) scale(0.697382)"/>
      <use xlink:href="#CMR17-33" transform="translate(89.717362 -24.740171) scale(0.697382)"/>
      <use xlink:href="#CMR17-28" transform="translate(122.198676 0) scale(0.996264)"/>
      <use xlink:href="#CMMI12-53" transform="translate(157.479444 0) scale(0.996264)"/>
      <use xlink:href="#CMR17-29" transform="translate(223.273883 0) scale(0.996264)"/>
     </g>
    </g>
   </g>
  </g>
 </g>
 <defs>
  <clipPath id="p623f2dd34b">
   <rect x="49.404673" y="10.8" width="328.33829" height="176.901556"/>
  </clipPath>
 </defs>
</svg>
