<?xml version="1.0" encoding="utf-8" standalone="no"?>
<!DOCTYPE svg PUBLIC "-//W3C//DTD SVG 1.1//EN"
  "http://www.w3.org/Graphics/SVG/1.1/DTD/svg11.dtd">
<svg xmlns:xlink="http://www.w3.org/1999/xlink" width="388.542964pt" height="240.132758pt" viewBox="0 0 388.542964 240.132758" xmlns="http://www.w3.org/2000/svg" version="1.1">
 <metadata>
  <rdf:RDF xmlns:dc="http://purl.org/dc/elements/1.1/" xmlns:cc="http://creativecommons.org/ns#" xmlns:rdf="http://www.w3.org/1999/02/22-rdf-syntax-ns#">
   <cc:Work>
    <dc:type rdf:resource="http://purl.org/dc/dcmitype/StillImage"/>
    <dc:date>2024-12-13T16:46:01.274619</dc:date>
    <dc:format>image/svg+xml</dc:format>
    <dc:creator>
     <cc:Agent>
      <dc:title>Matplotlib v3.7.5, https://matplotlib.org/</dc:title>
     </cc:Agent>
    </dc:creator>
   </cc:Work>
  </rdf:RDF>
 </metadata>
 <defs>
  <style type="text/css">*{stroke-linejoin: round; stroke-linecap: butt}</style>
 </defs>
 <g id="figure_1">
  <g id="patch_1">
   <path d="M 0 240.132758 
L 388.542964 240.132758 
L 388.542964 0 
L 0 0 
z
" style="fill: #ffffff"/>
  </g>
  <g id="axes_1">
   <g id="patch_2">
    <path d="M 65.305464 193.536948 
L 377.742964 193.536948 
L 377.742964 10.8 
L 65.305464 10.8 
z
" style="fill: #ffffff"/>
   </g>
   <g id="matplotlib.axis_1">
    <g id="xtick_1">
     <g id="line2d_1">
      <defs>
       <path id="ma80415787f" d="M 0 0 
L 0 3.5 
" style="stroke: #000000; stroke-width: 0.8"/>
      </defs>
      <g>
       <use xlink:href="#ma80415787f" x="79.507169" y="193.536948" style="stroke: #000000; stroke-width: 0.8"/>
      </g>
     </g>
     <g id="text_1">
      <!-- $\mathdefault{0.0}$ -->
      <g transform="translate(70.781878 210.222825) scale(0.14 -0.14)">
       <defs>
        <path id="CMR17-30" d="M 2688 2025 
C 2688 2416 2682 3080 2413 3591 
C 2176 4039 1798 4198 1466 4198 
C 1158 4198 768 4058 525 3597 
C 269 3118 243 2524 243 2025 
C 243 1661 250 1106 448 619 
C 723 -39 1216 -128 1466 -128 
C 1760 -128 2208 -7 2470 600 
C 2662 1042 2688 1559 2688 2025 
z
M 1466 -26 
C 1056 -26 813 325 723 812 
C 653 1188 653 1738 653 2096 
C 653 2588 653 2997 736 3387 
C 858 3929 1216 4096 1466 4096 
C 1728 4096 2067 3923 2189 3400 
C 2272 3036 2278 2607 2278 2096 
C 2278 1680 2278 1169 2202 792 
C 2067 95 1690 -26 1466 -26 
z
" transform="scale(0.015625)"/>
        <path id="CMMI12-3a" d="M 1178 307 
C 1178 492 1024 619 870 619 
C 685 619 557 466 557 313 
C 557 128 710 0 864 0 
C 1050 0 1178 153 1178 307 
z
" transform="scale(0.015625)"/>
       </defs>
       <use xlink:href="#CMR17-30" transform="scale(0.996264)"/>
       <use xlink:href="#CMMI12-3a" transform="translate(45.690477 0) scale(0.996264)"/>
       <use xlink:href="#CMR17-30" transform="translate(72.787654 0) scale(0.996264)"/>
      </g>
     </g>
    </g>
    <g id="xtick_2">
     <g id="line2d_2">
      <g>
       <use xlink:href="#ma80415787f" x="136.313987" y="193.536948" style="stroke: #000000; stroke-width: 0.8"/>
      </g>
     </g>
     <g id="text_2">
      <!-- $\mathdefault{0.2}$ -->
      <g transform="translate(127.588696 210.222825) scale(0.14 -0.14)">
       <defs>
        <path id="CMR17-32" d="M 2669 989 
L 2554 989 
C 2490 536 2438 459 2413 420 
C 2381 369 1920 369 1830 369 
L 602 369 
C 832 619 1280 1072 1824 1597 
C 2214 1967 2669 2402 2669 3035 
C 2669 3790 2067 4224 1395 4224 
C 691 4224 262 3604 262 3030 
C 262 2780 448 2748 525 2748 
C 589 2748 781 2787 781 3010 
C 781 3207 614 3264 525 3264 
C 486 3264 448 3258 422 3245 
C 544 3790 915 4058 1306 4058 
C 1862 4058 2227 3617 2227 3035 
C 2227 2479 1901 2000 1536 1584 
L 262 146 
L 262 0 
L 2515 0 
L 2669 989 
z
" transform="scale(0.015625)"/>
       </defs>
       <use xlink:href="#CMR17-30" transform="scale(0.996264)"/>
       <use xlink:href="#CMMI12-3a" transform="translate(45.690477 0) scale(0.996264)"/>
       <use xlink:href="#CMR17-32" transform="translate(72.787654 0) scale(0.996264)"/>
      </g>
     </g>
    </g>
    <g id="xtick_3">
     <g id="line2d_3">
      <g>
       <use xlink:href="#ma80415787f" x="193.120805" y="193.536948" style="stroke: #000000; stroke-width: 0.8"/>
      </g>
     </g>
     <g id="text_3">
      <!-- $\mathdefault{0.4}$ -->
      <g transform="translate(184.395514 210.222825) scale(0.14 -0.14)">
       <defs>
        <path id="CMR17-34" d="M 2150 4122 
C 2150 4256 2144 4256 2029 4256 
L 128 1254 
L 128 1088 
L 1779 1088 
L 1779 457 
C 1779 224 1766 160 1318 160 
L 1197 160 
L 1197 0 
C 1402 0 1747 0 1965 0 
C 2182 0 2528 0 2733 0 
L 2733 160 
L 2611 160 
C 2163 160 2150 224 2150 457 
L 2150 1088 
L 2803 1088 
L 2803 1254 
L 2150 1254 
L 2150 4122 
z
M 1798 3703 
L 1798 1254 
L 256 1254 
L 1798 3703 
z
" transform="scale(0.015625)"/>
       </defs>
       <use xlink:href="#CMR17-30" transform="scale(0.996264)"/>
       <use xlink:href="#CMMI12-3a" transform="translate(45.690477 0) scale(0.996264)"/>
       <use xlink:href="#CMR17-34" transform="translate(72.787654 0) scale(0.996264)"/>
      </g>
     </g>
    </g>
    <g id="xtick_4">
     <g id="line2d_4">
      <g>
       <use xlink:href="#ma80415787f" x="249.927623" y="193.536948" style="stroke: #000000; stroke-width: 0.8"/>
      </g>
     </g>
     <g id="text_4">
      <!-- $\mathdefault{0.6}$ -->
      <g transform="translate(241.202332 210.222825) scale(0.14 -0.14)">
       <defs>
        <path id="CMR17-36" d="M 678 2176 
C 678 3690 1395 4032 1811 4032 
C 1946 4032 2272 4009 2400 3776 
C 2298 3776 2106 3776 2106 3553 
C 2106 3381 2246 3323 2336 3323 
C 2394 3323 2566 3348 2566 3560 
C 2566 3954 2246 4179 1805 4179 
C 1043 4179 243 3390 243 1984 
C 243 253 966 -128 1478 -128 
C 2099 -128 2688 427 2688 1283 
C 2688 2081 2170 2662 1517 2662 
C 1126 2662 838 2407 678 1960 
L 678 2176 
z
M 1478 25 
C 691 25 691 1200 691 1436 
C 691 1896 909 2560 1504 2560 
C 1613 2560 1926 2560 2138 2120 
C 2253 1870 2253 1609 2253 1289 
C 2253 944 2253 690 2118 434 
C 1978 171 1773 25 1478 25 
z
" transform="scale(0.015625)"/>
       </defs>
       <use xlink:href="#CMR17-30" transform="scale(0.996264)"/>
       <use xlink:href="#CMMI12-3a" transform="translate(45.690477 0) scale(0.996264)"/>
       <use xlink:href="#CMR17-36" transform="translate(72.787654 0) scale(0.996264)"/>
      </g>
     </g>
    </g>
    <g id="xtick_5">
     <g id="line2d_5">
      <g>
       <use xlink:href="#ma80415787f" x="306.734441" y="193.536948" style="stroke: #000000; stroke-width: 0.8"/>
      </g>
     </g>
     <g id="text_5">
      <!-- $\mathdefault{0.8}$ -->
      <g transform="translate(298.00915 210.222825) scale(0.14 -0.14)">
       <defs>
        <path id="CMR17-38" d="M 1741 2264 
C 2144 2467 2554 2773 2554 3263 
C 2554 3841 1990 4179 1472 4179 
C 890 4179 378 3759 378 3180 
C 378 3021 416 2747 666 2505 
C 730 2442 998 2251 1171 2130 
C 883 1983 211 1634 211 934 
C 211 279 838 -128 1459 -128 
C 2144 -128 2720 362 2720 1010 
C 2720 1590 2330 1857 2074 2029 
L 1741 2264 
z
M 902 2822 
C 851 2854 595 3051 595 3351 
C 595 3739 998 4032 1459 4032 
C 1965 4032 2336 3676 2336 3262 
C 2336 2669 1670 2331 1638 2331 
C 1632 2331 1626 2331 1574 2370 
L 902 2822 
z
M 2080 1519 
C 2176 1449 2483 1240 2483 851 
C 2483 381 2010 25 1472 25 
C 890 25 448 438 448 940 
C 448 1443 838 1862 1280 2060 
L 2080 1519 
z
" transform="scale(0.015625)"/>
       </defs>
       <use xlink:href="#CMR17-30" transform="scale(0.996264)"/>
       <use xlink:href="#CMMI12-3a" transform="translate(45.690477 0) scale(0.996264)"/>
       <use xlink:href="#CMR17-38" transform="translate(72.787654 0) scale(0.996264)"/>
      </g>
     </g>
    </g>
    <g id="xtick_6">
     <g id="line2d_6">
      <g>
       <use xlink:href="#ma80415787f" x="363.541259" y="193.536948" style="stroke: #000000; stroke-width: 0.8"/>
      </g>
     </g>
     <g id="text_6">
      <!-- $\mathdefault{1.0}$ -->
      <g transform="translate(354.815968 210.222825) scale(0.14 -0.14)">
       <defs>
        <path id="CMR17-31" d="M 1702 4058 
C 1702 4192 1696 4192 1606 4192 
C 1357 3916 979 3827 621 3827 
C 602 3827 570 3827 563 3808 
C 557 3795 557 3782 557 3648 
C 755 3648 1088 3686 1344 3839 
L 1344 461 
C 1344 236 1331 160 781 160 
L 589 160 
L 589 0 
C 896 0 1216 0 1523 0 
C 1830 0 2150 0 2458 0 
L 2458 160 
L 2266 160 
C 1715 160 1702 230 1702 458 
L 1702 4058 
z
" transform="scale(0.015625)"/>
       </defs>
       <use xlink:href="#CMR17-31" transform="scale(0.996264)"/>
       <use xlink:href="#CMMI12-3a" transform="translate(45.690477 0) scale(0.996264)"/>
       <use xlink:href="#CMR17-30" transform="translate(72.787654 0) scale(0.996264)"/>
      </g>
     </g>
    </g>
    <g id="text_7">
     <!-- t -->
     <g transform="translate(218.868691 226.620729) scale(0.14 -0.14)">
      <defs>
       <path id="CMR17-74" d="M 966 2560 
L 1862 2560 
L 1862 2725 
L 966 2725 
L 966 3904 
L 851 3904 
C 838 3245 614 2668 70 2668 
L 70 2560 
L 627 2560 
L 627 771 
C 627 650 627 -64 1370 -64 
C 1747 -64 1965 306 1965 777 
L 1965 1140 
L 1850 1140 
L 1850 783 
C 1850 344 1677 51 1408 51 
C 1222 51 966 178 966 758 
L 966 2560 
z
" transform="scale(0.015625)"/>
      </defs>
      <use xlink:href="#CMR17-74" transform="scale(0.996264)"/>
     </g>
    </g>
   </g>
   <g id="matplotlib.axis_2">
    <g id="ytick_1">
     <g id="line2d_7">
      <defs>
       <path id="m2b33060b61" d="M 0 0 
L -3.5 0 
" style="stroke: #000000; stroke-width: 0.8"/>
      </defs>
      <g>
       <use xlink:href="#m2b33060b61" x="65.305464" y="174.075962" style="stroke: #000000; stroke-width: 0.8"/>
      </g>
     </g>
     <g id="text_8">
      <!-- $\mathdefault{0.100}$ -->
      <g transform="translate(27.197905 178.918901) scale(0.14 -0.14)">
       <use xlink:href="#CMR17-30" transform="scale(0.996264)"/>
       <use xlink:href="#CMMI12-3a" transform="translate(45.690477 0) scale(0.996264)"/>
       <use xlink:href="#CMR17-31" transform="translate(72.787654 0) scale(0.996264)"/>
       <use xlink:href="#CMR17-30" transform="translate(118.478131 0) scale(0.996264)"/>
       <use xlink:href="#CMR17-30" transform="translate(164.168608 0) scale(0.996264)"/>
      </g>
     </g>
    </g>
    <g id="ytick_2">
     <g id="line2d_8">
      <g>
       <use xlink:href="#m2b33060b61" x="65.305464" y="152.953525" style="stroke: #000000; stroke-width: 0.8"/>
      </g>
     </g>
     <g id="text_9">
      <!-- $\mathdefault{0.125}$ -->
      <g transform="translate(27.197905 157.796463) scale(0.14 -0.14)">
       <defs>
        <path id="CMR17-35" d="M 730 3692 
C 794 3666 1056 3584 1325 3584 
C 1920 3584 2246 3911 2432 4100 
C 2432 4157 2432 4192 2394 4192 
C 2387 4192 2374 4192 2323 4163 
C 2099 4058 1837 3973 1517 3973 
C 1325 3973 1037 3999 723 4139 
C 653 4171 640 4171 634 4171 
C 602 4171 595 4164 595 4037 
L 595 2203 
C 595 2089 595 2057 659 2057 
C 691 2057 704 2070 736 2114 
C 941 2401 1222 2522 1542 2522 
C 1766 2522 2246 2382 2246 1289 
C 2246 1085 2246 715 2054 421 
C 1894 159 1645 25 1370 25 
C 947 25 518 320 403 814 
C 429 807 480 795 506 795 
C 589 795 749 840 749 1038 
C 749 1210 627 1280 506 1280 
C 358 1280 262 1190 262 1011 
C 262 454 704 -128 1382 -128 
C 2042 -128 2669 440 2669 1264 
C 2669 2030 2170 2624 1549 2624 
C 1222 2624 947 2503 730 2274 
L 730 3692 
z
" transform="scale(0.015625)"/>
       </defs>
       <use xlink:href="#CMR17-30" transform="scale(0.996264)"/>
       <use xlink:href="#CMMI12-3a" transform="translate(45.690477 0) scale(0.996264)"/>
       <use xlink:href="#CMR17-31" transform="translate(72.787654 0) scale(0.996264)"/>
       <use xlink:href="#CMR17-32" transform="translate(118.478131 0) scale(0.996264)"/>
       <use xlink:href="#CMR17-35" transform="translate(164.168608 0) scale(0.996264)"/>
      </g>
     </g>
    </g>
    <g id="ytick_3">
     <g id="line2d_9">
      <g>
       <use xlink:href="#m2b33060b61" x="65.305464" y="131.831087" style="stroke: #000000; stroke-width: 0.8"/>
      </g>
     </g>
     <g id="text_10">
      <!-- $\mathdefault{0.150}$ -->
      <g transform="translate(27.197905 136.674025) scale(0.14 -0.14)">
       <use xlink:href="#CMR17-30" transform="scale(0.996264)"/>
       <use xlink:href="#CMMI12-3a" transform="translate(45.690477 0) scale(0.996264)"/>
       <use xlink:href="#CMR17-31" transform="translate(72.787654 0) scale(0.996264)"/>
       <use xlink:href="#CMR17-35" transform="translate(118.478131 0) scale(0.996264)"/>
       <use xlink:href="#CMR17-30" transform="translate(164.168608 0) scale(0.996264)"/>
      </g>
     </g>
    </g>
    <g id="ytick_4">
     <g id="line2d_10">
      <g>
       <use xlink:href="#m2b33060b61" x="65.305464" y="110.70865" style="stroke: #000000; stroke-width: 0.8"/>
      </g>
     </g>
     <g id="text_11">
      <!-- $\mathdefault{0.175}$ -->
      <g transform="translate(27.197905 115.551588) scale(0.14 -0.14)">
       <defs>
        <path id="CMR17-37" d="M 2886 3941 
L 2886 4081 
L 1382 4081 
C 634 4081 621 4165 595 4288 
L 480 4288 
L 294 3094 
L 410 3094 
C 429 3215 474 3540 550 3661 
C 589 3712 1062 3712 1171 3712 
L 2579 3712 
L 1869 2661 
C 1395 1954 1069 999 1069 165 
C 1069 89 1069 -128 1299 -128 
C 1530 -128 1530 89 1530 171 
L 1530 465 
C 1530 1508 1709 2196 2003 2636 
L 2886 3941 
z
" transform="scale(0.015625)"/>
       </defs>
       <use xlink:href="#CMR17-30" transform="scale(0.996264)"/>
       <use xlink:href="#CMMI12-3a" transform="translate(45.690477 0) scale(0.996264)"/>
       <use xlink:href="#CMR17-31" transform="translate(72.787654 0) scale(0.996264)"/>
       <use xlink:href="#CMR17-37" transform="translate(118.478131 0) scale(0.996264)"/>
       <use xlink:href="#CMR17-35" transform="translate(164.168608 0) scale(0.996264)"/>
      </g>
     </g>
    </g>
    <g id="ytick_5">
     <g id="line2d_11">
      <g>
       <use xlink:href="#m2b33060b61" x="65.305464" y="89.586212" style="stroke: #000000; stroke-width: 0.8"/>
      </g>
     </g>
     <g id="text_12">
      <!-- $\mathdefault{0.200}$ -->
      <g transform="translate(27.197905 94.42915) scale(0.14 -0.14)">
       <use xlink:href="#CMR17-30" transform="scale(0.996264)"/>
       <use xlink:href="#CMMI12-3a" transform="translate(45.690477 0) scale(0.996264)"/>
       <use xlink:href="#CMR17-32" transform="translate(72.787654 0) scale(0.996264)"/>
       <use xlink:href="#CMR17-30" transform="translate(118.478131 0) scale(0.996264)"/>
       <use xlink:href="#CMR17-30" transform="translate(164.168608 0) scale(0.996264)"/>
      </g>
     </g>
    </g>
    <g id="ytick_6">
     <g id="line2d_12">
      <g>
       <use xlink:href="#m2b33060b61" x="65.305464" y="68.463774" style="stroke: #000000; stroke-width: 0.8"/>
      </g>
     </g>
     <g id="text_13">
      <!-- $\mathdefault{0.225}$ -->
      <g transform="translate(27.197905 73.306713) scale(0.14 -0.14)">
       <use xlink:href="#CMR17-30" transform="scale(0.996264)"/>
       <use xlink:href="#CMMI12-3a" transform="translate(45.690477 0) scale(0.996264)"/>
       <use xlink:href="#CMR17-32" transform="translate(72.787654 0) scale(0.996264)"/>
       <use xlink:href="#CMR17-32" transform="translate(118.478131 0) scale(0.996264)"/>
       <use xlink:href="#CMR17-35" transform="translate(164.168608 0) scale(0.996264)"/>
      </g>
     </g>
    </g>
    <g id="ytick_7">
     <g id="line2d_13">
      <g>
       <use xlink:href="#m2b33060b61" x="65.305464" y="47.341337" style="stroke: #000000; stroke-width: 0.8"/>
      </g>
     </g>
     <g id="text_14">
      <!-- $\mathdefault{0.250}$ -->
      <g transform="translate(27.197905 52.184275) scale(0.14 -0.14)">
       <use xlink:href="#CMR17-30" transform="scale(0.996264)"/>
       <use xlink:href="#CMMI12-3a" transform="translate(45.690477 0) scale(0.996264)"/>
       <use xlink:href="#CMR17-32" transform="translate(72.787654 0) scale(0.996264)"/>
       <use xlink:href="#CMR17-35" transform="translate(118.478131 0) scale(0.996264)"/>
       <use xlink:href="#CMR17-30" transform="translate(164.168608 0) scale(0.996264)"/>
      </g>
     </g>
    </g>
    <g id="ytick_8">
     <g id="line2d_14">
      <g>
       <use xlink:href="#m2b33060b61" x="65.305464" y="26.218899" style="stroke: #000000; stroke-width: 0.8"/>
      </g>
     </g>
     <g id="text_15">
      <!-- $\mathdefault{0.275}$ -->
      <g transform="translate(27.197905 31.061837) scale(0.14 -0.14)">
       <use xlink:href="#CMR17-30" transform="scale(0.996264)"/>
       <use xlink:href="#CMMI12-3a" transform="translate(45.690477 0) scale(0.996264)"/>
       <use xlink:href="#CMR17-32" transform="translate(72.787654 0) scale(0.996264)"/>
       <use xlink:href="#CMR17-37" transform="translate(118.478131 0) scale(0.996264)"/>
       <use xlink:href="#CMR17-35" transform="translate(164.168608 0) scale(0.996264)"/>
      </g>
     </g>
    </g>
    <g id="text_16">
     <!-- P -->
     <g transform="translate(20.485876 106.814435) rotate(-90) scale(0.14 -0.14)">
      <defs>
       <path id="CMR17-50" d="M 1267 2042 
L 2291 2042 
C 3117 2042 3718 2578 3718 3184 
C 3718 3791 3130 4352 2291 4352 
L 333 4352 
L 333 4186 
C 774 4186 845 4186 845 3899 
L 845 446 
C 845 160 774 160 333 160 
L 333 0 
C 518 0 858 0 1056 0 
C 1254 0 1594 0 1779 0 
L 1779 160 
C 1338 160 1267 160 1267 446 
L 1267 2042 
z
M 1254 2176 
L 1254 3938 
C 1254 4155 1267 4186 1523 4186 
L 2170 4186 
C 2995 4186 3232 3714 3232 3184 
C 3232 2604 2950 2176 2170 2176 
L 1254 2176 
z
" transform="scale(0.015625)"/>
      </defs>
      <use xlink:href="#CMR17-50" transform="scale(0.996264)"/>
     </g>
    </g>
   </g>
   <g id="line2d_15">
    <path d="M 79.507169 176.209171 
L 84.504903 177.210557 
L 88.669558 177.847867 
L 92.834215 178.275038 
L 96.166037 178.434874 
L 99.497738 178.395436 
L 102.829437 178.106276 
L 105.328304 177.683927 
L 107.827049 177.042299 
L 110.325916 176.131693 
L 112.825029 174.890223 
L 114.49094 173.842336 
L 116.156728 172.58871 
L 117.822641 171.100829 
L 119.488553 169.348068 
L 121.154339 167.298575 
L 122.820375 164.919539 
L 124.486161 162.181596 
L 126.152074 159.058973 
L 127.817864 155.536108 
L 129.484386 151.609736 
L 131.983133 145.020343 
L 135.314832 135.264879 
L 139.479487 122.96088 
L 141.1454 118.593577 
L 142.81119 114.843571 
L 144.477222 111.878863 
L 145.310178 110.730345 
L 146.143012 109.817132 
L 146.975968 109.142474 
L 147.808925 108.706031 
L 148.641877 108.502502 
L 149.474833 108.522444 
L 150.307667 108.753168 
L 151.140619 109.178998 
L 151.97358 109.781981 
L 153.639366 111.44067 
L 155.305279 113.567528 
L 157.804144 117.300513 
L 165.300502 129.047141 
L 167.799367 132.531663 
L 170.298114 135.710903 
L 172.796979 138.594279 
L 175.295844 141.202276 
L 177.794472 143.555477 
L 180.293701 145.671722 
L 182.792575 147.562318 
L 185.29144 149.235208 
L 187.790187 150.695428 
L 190.289052 151.946794 
L 192.787798 152.992447 
L 195.286537 153.836496 
L 197.78541 154.484142 
L 200.284275 154.941888 
L 202.783013 155.217727 
L 206.114721 155.31885 
L 209.446538 155.139002 
L 212.778482 154.706814 
L 216.11019 154.053056 
L 220.274968 152.973064 
L 224.439619 151.660902 
L 230.270682 149.55294 
L 241.931691 144.978507 
L 249.428168 142.178614 
L 255.258605 140.22381 
L 261.089178 138.510191 
L 266.919869 137.041674 
L 272.750187 135.790849 
L 280.247155 134.423442 
L 292.741125 132.427556 
L 306.068056 130.229099 
L 317.729184 128.057143 
L 338.553201 123.857965 
L 350.214329 121.642599 
L 359.376608 120.111925 
L 363.541259 119.494652 
L 363.541259 119.494652 
" clip-path="url(#pc5a58c2f92)" style="fill: none; stroke: #1f77b4; stroke-width: 3; stroke-linecap: square"/>
   </g>
   <g id="line2d_16">
    <path d="M 79.507169 178.131473 
L 84.903816 179.224484 
L 89.448362 179.926582 
L 93.424839 180.326621 
L 97.117282 180.483505 
L 100.525691 180.411081 
L 103.650066 180.120895 
L 106.490407 179.623838 
L 109.046714 178.936804 
L 111.318987 178.089072 
L 113.307225 177.125519 
L 115.295464 175.916518 
L 117.283703 174.421121 
L 118.987907 172.877819 
L 120.692112 171.061844 
L 122.396316 168.942313 
L 124.100521 166.487675 
L 125.804725 163.667166 
L 127.50893 160.454084 
L 129.497169 156.188079 
L 131.485407 151.371509 
L 133.75768 145.263216 
L 136.882055 136.130967 
L 141.142566 123.696121 
L 142.846771 119.325909 
L 144.266941 116.178949 
L 145.687112 113.585494 
L 146.823248 111.954088 
L 147.959385 110.738314 
L 148.811487 110.104347 
L 149.663589 109.708091 
L 150.515691 109.545126 
L 151.367794 109.606817 
L 152.219896 109.880019 
L 153.356032 110.542805 
L 154.492169 111.501064 
L 155.912339 113.035477 
L 157.616544 115.255111 
L 159.888816 118.652989 
L 166.989669 129.575013 
L 170.114044 133.828718 
L 172.954384 137.328423 
L 176.078759 140.765719 
L 178.635066 143.284314 
L 181.475407 145.767456 
L 184.031714 147.724036 
L 186.872055 149.611182 
L 189.99643 151.40588 
L 193.120805 152.936931 
L 196.24518 154.20992 
L 199.369555 155.223103 
L 202.49393 155.997473 
L 205.902339 156.606664 
L 209.594782 157.039248 
L 214.139328 157.329893 
L 219.820009 157.455094 
L 230.613305 157.41402 
L 240.270464 157.46786 
L 247.65535 157.736939 
L 254.756203 158.222118 
L 262.709157 158.994103 
L 274.922623 160.439776 
L 289.408362 162.103343 
L 298.497453 162.922892 
L 307.018475 163.468629 
L 315.255464 163.774647 
L 323.492453 163.86345 
L 332.013475 163.737425 
L 341.102566 163.37727 
L 350.759725 162.764177 
L 360.984953 161.886015 
L 363.257225 161.66192 
L 363.257225 161.66192 
" clip-path="url(#pc5a58c2f92)" style="fill: none; stroke-dasharray: 19.2,4.8,3,4.8; stroke-dashoffset: 0; stroke: #2ca02c; stroke-width: 3"/>
   </g>
   <g id="line2d_17">
    <path d="M 79.507169 178.131473 
L 83.59726 180.181975 
L 87.403316 181.845788 
L 90.896936 183.135056 
L 94.106521 184.087278 
L 97.060475 184.735516 
L 99.787203 185.108582 
L 102.286703 185.230641 
L 104.615782 185.126397 
L 106.802845 184.809646 
L 108.876294 184.287257 
L 110.864532 183.557965 
L 112.795964 182.611037 
L 114.670589 181.444433 
L 116.545214 180.012873 
L 118.419839 178.298052 
L 120.322867 176.253916 
L 122.311106 173.785964 
L 124.412958 170.816284 
L 126.742038 167.128932 
L 129.497169 162.330749 
L 133.814487 154.292995 
L 138.444242 145.818219 
L 141.312987 141.031657 
L 143.812487 137.281286 
L 146.16997 134.136932 
L 148.470646 131.435015 
L 150.771322 129.074524 
L 153.100402 127.000367 
L 155.514691 125.146421 
L 158.042595 123.485139 
L 160.712515 121.996276 
L 163.552856 120.666021 
L 166.620424 119.476044 
L 169.943623 118.428069 
L 173.579259 117.52017 
L 177.527333 116.76753 
L 181.844652 116.173385 
L 186.644828 115.742607 
L 191.956265 115.495579 
L 197.835771 115.449676 
L 204.396958 115.6245 
L 211.753441 116.044766 
L 220.217657 116.756022 
L 230.045237 117.812395 
L 241.775845 119.307251 
L 256.375197 121.405719 
L 275.916742 124.454175 
L 314.744203 130.796868 
L 359.309151 137.99326 
L 363.512856 138.656449 
L 363.512856 138.656449 
" clip-path="url(#pc5a58c2f92)" style="fill: none; stroke-dasharray: 3,4.95; stroke-dashoffset: 0; stroke: #d62728; stroke-width: 3"/>
   </g>
   <g id="line2d_18">
    <path d="M 79.507169 178.131473 
L 83.256419 176.982906 
L 86.920458 175.629631 
L 90.527691 174.06052 
L 94.049714 172.287212 
L 97.51493 170.294984 
L 100.951743 168.061318 
L 104.331748 165.599353 
L 107.711754 162.860213 
L 111.09176 159.831668 
L 114.500169 156.476238 
L 117.993788 152.721756 
L 121.686231 148.421469 
L 125.861532 143.204607 
L 137.847771 127.968018 
L 140.063237 125.670062 
L 141.909458 124.060827 
L 143.528453 122.936506 
L 144.977027 122.195499 
L 146.311987 121.758439 
L 147.561737 121.577849 
L 148.783083 121.622808 
L 150.00443 121.888871 
L 151.282583 122.400237 
L 152.645947 123.196086 
L 154.122924 124.325959 
L 155.798725 125.901289 
L 157.786964 128.094296 
L 160.371674 131.304155 
L 166.478407 139.39242 
L 170.284464 144.168947 
L 173.465646 147.808879 
L 176.448004 150.890333 
L 179.373555 153.599729 
L 182.327509 156.03394 
L 185.309867 158.205399 
L 188.377436 160.164314 
L 191.530214 161.91518 
L 194.825009 163.489875 
L 198.261822 164.884829 
L 201.869055 166.107628 
L 205.675112 167.160935 
L 209.708396 168.04322 
L 213.968907 168.745318 
L 218.485049 169.263048 
L 223.313629 169.590482 
L 228.454646 169.713876 
L 233.964907 169.620244 
L 239.844413 169.29424 
L 246.121566 168.720018 
L 252.796367 167.884001 
L 259.954026 166.759769 
L 267.537737 165.341076 
L 275.632708 163.59704 
L 284.210538 161.517803 
L 293.242822 159.097246 
L 302.786367 156.306475 
L 312.755964 153.157237 
L 323.180015 149.628606 
L 334.030117 145.716693 
L 345.164254 141.462649 
L 356.525617 136.881744 
L 363.512856 133.947013 
L 363.512856 133.947013 
" clip-path="url(#pc5a58c2f92)" style="fill: none; stroke-dasharray: 11.1,4.8; stroke-dashoffset: 0; stroke: #d62728; stroke-width: 3"/>
   </g>
   <g id="line2d_19">
    <path d="M 79.507169 178.131473 
L 82.915578 179.397697 
L 86.210373 180.387211 
L 89.391555 181.112971 
L 92.459123 181.586429 
L 95.413078 181.817788 
L 98.225015 181.81741 
L 100.923339 181.597414 
L 103.508049 181.166151 
L 106.007549 180.523384 
L 108.393436 179.681027 
L 110.694112 178.633713 
L 112.909578 177.38224 
L 115.068237 175.906736 
L 117.170089 174.198071 
L 119.215135 172.246792 
L 121.231777 170.009815 
L 123.191612 167.502633 
L 125.151447 164.628888 
L 127.082879 161.3993 
L 129.042714 157.680196 
L 131.030953 153.418654 
L 133.104402 148.43183 
L 135.348271 142.436205 
L 138.188612 134.159216 
L 142.449123 121.7425 
L 144.124924 117.573828 
L 145.459885 114.811403 
L 146.596021 112.93448 
L 147.618544 111.652408 
L 148.527453 110.845643 
L 149.379555 110.370612 
L 150.203254 110.160284 
L 151.026953 110.17995 
L 151.879055 110.42286 
L 152.816367 110.924356 
L 153.895697 111.764962 
L 155.17385 113.059423 
L 156.736038 114.974972 
L 158.866294 117.970135 
L 163.212015 124.576713 
L 167.103282 130.290185 
L 170.08564 134.280898 
L 172.869174 137.639243 
L 175.539095 140.518679 
L 178.209015 143.072967 
L 180.878936 145.319845 
L 183.577259 147.300661 
L 186.33239 149.04724 
L 189.144328 150.568295 
L 192.069879 151.897845 
L 195.109044 153.034006 
L 198.290225 153.985032 
L 201.641828 154.753901 
L 205.192254 155.339252 
L 208.998311 155.738725 
L 213.088402 155.941247 
L 217.519333 155.934543 
L 222.376316 155.699834 
L 227.687754 155.217438 
L 233.624066 154.451138 
L 240.327271 153.355937 
L 247.939384 151.881981 
L 256.687634 149.958186 
L 266.884458 147.484839 
L 278.8991 144.334933 
L 292.532737 140.527618 
L 307.898981 135.99876 
L 324.117328 130.980228 
L 340.307271 125.740062 
L 356.639231 120.222868 
L 363.512856 117.8306 
L 363.512856 117.8306 
" clip-path="url(#pc5a58c2f92)" style="fill: none; stroke-dasharray: 19.2,4.8,3,4.8; stroke-dashoffset: 0; stroke: #d62728; stroke-width: 3"/>
   </g>
   <g id="line2d_20">
    <path d="M 79.507169 174.782686 
L 84.504903 175.852448 
L 88.669558 176.526004 
L 92.834215 176.975837 
L 96.166037 177.145518 
L 99.497738 177.107754 
L 102.829437 176.809265 
L 105.328304 176.369593 
L 107.827049 175.69841 
L 110.325916 174.741542 
L 111.991704 173.912562 
L 113.657985 172.903484 
L 115.323894 171.688597 
L 116.989684 170.238789 
L 118.655597 168.522444 
L 120.321506 166.506648 
L 121.987419 164.158307 
L 123.653209 161.446229 
L 125.319117 158.343643 
L 126.98503 154.833891 
L 128.65082 150.915022 
L 131.150177 144.31727 
L 134.481875 134.526843 
L 138.646535 122.158422 
L 140.312444 117.767487 
L 141.978356 113.997941 
L 143.644265 111.019146 
L 144.477222 109.864962 
L 145.310178 108.946247 
L 146.143012 108.266805 
L 146.975968 107.825062 
L 147.808925 107.61564 
L 148.641877 107.628747 
L 149.474833 107.851186 
L 150.307667 108.267019 
L 151.140619 108.858093 
L 152.806532 110.487094 
L 154.472327 112.577001 
L 156.971192 116.245953 
L 164.46755 127.840356 
L 167.799367 132.413896 
L 170.298114 135.520316 
L 172.796979 138.360648 
L 176.128678 141.759419 
L 178.627424 144.03149 
L 181.126662 146.071201 
L 183.625527 147.876248 
L 186.124392 149.441456 
L 188.623139 150.759272 
L 191.121886 151.821839 
L 193.620751 152.621742 
L 196.119616 153.153038 
L 198.618362 153.411384 
L 201.117227 153.394582 
L 203.615974 153.102332 
L 206.114721 152.536231 
L 208.613586 151.699603 
L 211.112578 150.597353 
L 213.611316 149.236089 
L 216.11019 147.623379 
L 218.608928 145.768501 
L 221.10792 143.681553 
L 224.439619 140.558501 
L 227.771445 137.074282 
L 231.103626 133.262812 
L 235.268294 128.098048 
L 239.432945 122.563869 
L 244.430438 115.560367 
L 252.75974 103.431482 
L 261.089178 91.383942 
L 266.919869 83.35976 
L 271.917243 76.906703 
L 276.081894 71.885641 
L 280.247155 67.213798 
L 284.411823 62.90004 
L 288.576474 58.93613 
L 292.741125 55.303526 
L 296.905911 51.974855 
L 301.070563 48.918329 
L 306.068056 45.561218 
L 311.065786 42.487985 
L 316.896358 39.192187 
L 322.726914 36.143504 
L 329.390938 32.895674 
L 336.887296 29.485383 
L 345.216717 25.955638 
L 353.546036 22.684114 
L 361.042394 19.96413 
L 363.541259 19.106225 
L 363.541259 19.106225 
" clip-path="url(#pc5a58c2f92)" style="fill: none; stroke: #1f77b4; stroke-width: 2; stroke-linecap: square"/>
   </g>
   <g id="line2d_21">
    <path d="M 79.507169 174.084787 
L 84.504903 175.10801 
L 88.669558 175.768554 
L 92.834215 176.210267 
L 96.166037 176.366376 
L 99.497738 176.300442 
L 101.996481 176.069738 
L 104.495348 175.646948 
L 106.994092 174.989614 
L 109.49296 174.044493 
L 111.15875 173.222778 
L 112.825029 172.221027 
L 114.49094 171.014059 
L 116.156728 169.573284 
L 117.822641 167.867767 
L 119.488553 165.864995 
L 121.154339 163.532328 
L 122.820375 160.837902 
L 124.486161 157.756 
L 126.152074 154.267752 
L 127.817864 150.370091 
L 130.31722 143.797078 
L 132.816089 136.525826 
L 138.646535 119.213984 
L 140.312444 115.004558 
L 141.978356 111.485691 
L 142.81119 110.035656 
L 143.644265 108.811447 
L 144.477222 107.823161 
L 145.310178 107.075771 
L 146.143012 106.570045 
L 146.975968 106.301702 
L 147.808925 106.262611 
L 148.641877 106.440834 
L 149.474833 106.821441 
L 150.307667 107.386843 
L 151.97358 108.994857 
L 153.639366 111.103121 
L 156.138231 114.863148 
L 164.46755 128.183747 
L 166.966415 131.712825 
L 169.465153 134.936936 
L 171.964145 137.867978 
L 174.462892 140.526573 
L 176.961512 142.934465 
L 180.293701 145.787008 
L 183.625527 148.258857 
L 186.957226 150.373843 
L 190.289052 152.151457 
L 193.620751 153.610129 
L 196.952576 154.770482 
L 200.284275 155.656279 
L 203.615974 156.294225 
L 206.947673 156.71388 
L 211.112578 156.979433 
L 215.277229 157.015906 
L 220.274968 156.845457 
L 228.604405 156.300369 
L 238.599984 155.676738 
L 245.263382 155.477848 
L 251.926796 155.513799 
L 258.590431 155.773611 
L 266.919869 156.331428 
L 291.075221 158.123784 
L 299.404658 158.442707 
L 307.734079 158.532089 
L 316.063398 158.404673 
L 326.05874 158.016417 
L 338.553201 157.287535 
L 363.541259 155.581936 
L 363.541259 155.581936 
" clip-path="url(#pc5a58c2f92)" style="fill: none; stroke: #1f77b4; stroke-width: 2; stroke-linecap: square"/>
   </g>
   <g id="patch_3">
    <path d="M 65.305464 193.536948 
L 65.305464 10.8 
" style="fill: none; stroke: #000000; stroke-width: 0.8; stroke-linejoin: miter; stroke-linecap: square"/>
   </g>
   <g id="patch_4">
    <path d="M 377.742964 193.536948 
L 377.742964 10.8 
" style="fill: none; stroke: #000000; stroke-width: 0.8; stroke-linejoin: miter; stroke-linecap: square"/>
   </g>
   <g id="patch_5">
    <path d="M 65.305464 193.536948 
L 377.742964 193.536948 
" style="fill: none; stroke: #000000; stroke-width: 0.8; stroke-linejoin: miter; stroke-linecap: square"/>
   </g>
   <g id="patch_6">
    <path d="M 65.305464 10.8 
L 377.742964 10.8 
" style="fill: none; stroke: #000000; stroke-width: 0.8; stroke-linejoin: miter; stroke-linecap: square"/>
   </g>
   <g id="legend_1">
    <g id="line2d_22">
     <path d="M 77.905464 28.999506 
L 91.905464 28.999506 
L 105.905464 28.999506 
" style="fill: none; stroke: #1f77b4; stroke-width: 3; stroke-linecap: square"/>
    </g>
    <g id="text_17">
     <!-- $\hat{P}$ -->
     <g transform="translate(117.105464 33.899506) scale(0.14 -0.14)">
      <defs>
       <path id="CMR17-5e" d="M 1466 4421 
L 678 3555 
L 755 3478 
L 1466 4166 
L 2176 3478 
L 2253 3555 
L 1466 4421 
z
" transform="scale(0.015625)"/>
       <path id="CMMI12-50" d="M 1894 2023 
L 2970 2023 
C 3853 2023 4736 2673 4736 3401 
C 4736 3898 4314 4352 3507 4352 
L 1530 4352 
C 1408 4352 1350 4352 1350 4231 
C 1350 4167 1408 4167 1504 4167 
C 1894 4167 1894 4116 1894 4046 
C 1894 4034 1894 3995 1869 3899 
L 1005 472 
C 947 249 934 185 486 185 
C 365 185 301 185 301 70 
C 301 0 358 0 397 0 
C 518 0 646 0 768 0 
L 1517 0 
C 1638 0 1773 0 1894 0 
C 1946 0 2016 0 2016 121 
C 2016 185 1958 185 1862 185 
C 1478 185 1472 230 1472 293 
C 1472 325 1478 369 1485 401 
L 1894 2023 
z
M 2355 3930 
C 2413 4167 2438 4167 2688 4167 
L 3322 4167 
C 3802 4167 4198 4013 4198 3535 
C 4198 3369 4115 2827 3821 2534 
C 3712 2419 3405 2176 2822 2176 
L 1920 2176 
L 2355 3930 
z
" transform="scale(0.015625)"/>
      </defs>
      <use xlink:href="#CMR17-5e" transform="translate(23.496833 25.189733) scale(0.996264)"/>
      <use xlink:href="#CMMI12-50" transform="scale(0.996264)"/>
     </g>
    </g>
    <g id="line2d_23">
     <path d="M 77.905464 52.078021 
L 91.905464 52.078021 
L 105.905464 52.078021 
" style="fill: none; stroke-dasharray: 19.2,4.8,3,4.8; stroke-dashoffset: 0; stroke: #2ca02c; stroke-width: 3"/>
    </g>
    <g id="text_18">
     <!-- $\sum \hat{\phi} \cdot dt$ -->
     <g transform="translate(117.105464 56.978021) scale(0.14 -0.14)">
      <defs>
       <path id="CMEX10-50" d="M 2694 -3418 
L 422 -6227 
C 371 -6291 365 -6304 365 -6330 
C 365 -6400 422 -6400 538 -6400 
L 5843 -6400 
L 6394 -4806 
L 6234 -4806 
C 6074 -5286 5645 -5677 5101 -5862 
C 4998 -5894 4557 -6048 3616 -6048 
L 896 -6048 
L 3117 -3302 
C 3162 -3245 3174 -3226 3174 -3200 
C 3174 -3174 3168 -3168 3130 -3110 
L 1050 -256 
L 3584 -256 
C 4314 -256 5786 -301 6234 -1498 
L 6394 -1498 
L 5843 0 
L 538 0 
C 365 0 358 -6 358 -205 
L 2694 -3418 
z
" transform="scale(0.015625)"/>
       <path id="CMMI12-1e" d="M 2752 4390 
C 2752 4448 2707 4448 2688 4448 
C 2630 4448 2624 4435 2598 4326 
L 2253 2939 
C 2234 2856 2227 2849 2221 2843 
C 2214 2830 2170 2824 2157 2824 
C 1107 2734 301 1864 301 1057 
C 301 361 832 -64 1498 -64 
C 1446 -261 1402 -463 1350 -659 
C 1261 -995 1210 -1204 1210 -1229 
C 1210 -1241 1210 -1280 1274 -1280 
C 1293 -1280 1318 -1280 1331 -1254 
C 1344 -1241 1382 -1089 1408 -1008 
L 1645 -64 
C 2739 -64 3571 854 3571 1680 
C 3571 2343 3085 2816 2374 2816 
L 2752 4390 
z
M 2336 2701 
C 2758 2701 3181 2463 3181 1828 
C 3181 1097 2675 128 1677 50 
L 2336 2701 
z
M 1530 50 
C 1216 50 691 220 691 938 
C 691 1761 1274 2676 2195 2676 
L 1530 50 
z
" transform="scale(0.015625)"/>
       <path id="CMSY10-1" d="M 1229 1619 
C 1229 1805 1075 1958 890 1958 
C 704 1958 550 1805 550 1619 
C 550 1433 704 1280 890 1280 
C 1075 1280 1229 1433 1229 1619 
z
" transform="scale(0.015625)"/>
       <path id="CMMI12-64" d="M 3219 4257 
C 3226 4282 3238 4320 3238 4352 
C 3238 4416 3174 4416 3162 4416 
C 3155 4416 2842 4388 2810 4380 
C 2701 4373 2605 4358 2490 4358 
C 2330 4345 2285 4339 2285 4224 
C 2285 4160 2336 4160 2426 4160 
C 2739 4160 2746 4103 2746 4040 
C 2746 4002 2733 3952 2726 3933 
L 2336 2395 
C 2266 2561 2093 2816 1760 2816 
C 1037 2816 256 1884 256 939 
C 256 307 627 -64 1062 -64 
C 1414 -64 1715 211 1894 422 
C 1958 45 2259 -64 2451 -64 
C 2643 -64 2797 51 2912 281 
C 3014 498 3104 888 3104 913 
C 3104 945 3078 971 3040 971 
C 2982 971 2976 939 2950 843 
C 2854 466 2733 64 2470 64 
C 2285 64 2272 229 2272 357 
C 2272 382 2272 515 2317 694 
L 3219 4257 
z
M 1926 760 
C 1894 651 1894 639 1805 517 
C 1664 338 1382 64 1082 64 
C 819 64 672 300 672 677 
C 672 1028 870 1743 992 2012 
C 1210 2459 1510 2689 1760 2689 
C 2182 2689 2266 2165 2266 2114 
C 2266 2108 2246 2024 2240 2012 
L 1926 760 
z
" transform="scale(0.015625)"/>
       <path id="CMMI12-74" d="M 1286 2566 
L 1875 2566 
C 1997 2566 2061 2566 2061 2681 
C 2061 2752 2022 2752 1894 2752 
L 1331 2752 
L 1568 3692 
C 1594 3781 1594 3794 1594 3840 
C 1594 3943 1510 4000 1427 4000 
C 1376 4000 1229 3981 1178 3775 
L 928 2752 
L 326 2752 
C 198 2752 141 2752 141 2630 
C 141 2566 186 2566 307 2566 
L 877 2566 
L 454 881 
C 403 658 384 594 384 511 
C 384 211 595 -64 954 -64 
C 1600 -64 1946 868 1946 912 
C 1946 951 1920 970 1882 970 
C 1869 970 1843 970 1830 944 
C 1824 938 1818 931 1773 829 
C 1638 511 1344 64 973 64 
C 781 64 768 224 768 364 
C 768 370 768 492 787 568 
L 1286 2566 
z
" transform="scale(0.015625)"/>
      </defs>
      <use xlink:href="#CMEX10-50" transform="translate(0 74.720454) scale(0.996264)"/>
      <use xlink:href="#CMR17-5e" transform="translate(135.916962 26.296621) scale(0.996264)"/>
      <use xlink:href="#CMMI12-1e" transform="translate(121.765958 0) scale(0.996264)"/>
      <use xlink:href="#CMSY10-1" transform="translate(201.639345 0) scale(0.996264)"/>
      <use xlink:href="#CMMI12-64" transform="translate(251.452637 0) scale(0.996264)"/>
      <use xlink:href="#CMMI12-74" transform="translate(302.141734 0) scale(0.996264)"/>
     </g>
    </g>
    <g id="line2d_24">
     <path d="M 77.905464 73.0259 
L 91.905464 73.0259 
L 105.905464 73.0259 
" style="fill: none; stroke-dasharray: 3,4.95; stroke-dashoffset: 0; stroke: #d62728; stroke-width: 3"/>
    </g>
    <g id="text_19">
     <!-- $\sum \phi^s_5 \cdot dt$ -->
     <g transform="translate(117.105464 77.9259) scale(0.14 -0.14)">
      <defs>
       <path id="CMMI12-73" d="M 1459 1280 
C 1568 1261 1741 1223 1779 1216 
C 1862 1192 2150 1090 2150 783 
C 2150 586 1971 70 1229 70 
C 1094 70 614 70 486 436 
C 742 404 870 603 870 745 
C 870 880 781 950 653 950 
C 512 950 326 841 326 552 
C 326 173 710 -64 1222 -64 
C 2195 -64 2483 651 2483 984 
C 2483 1079 2483 1258 2278 1462 
C 2118 1616 1965 1648 1619 1718 
C 1446 1756 1171 1814 1171 2101 
C 1171 2229 1286 2689 1894 2689 
C 2163 2689 2426 2589 2490 2368 
C 2208 2368 2195 2125 2195 2119 
C 2195 1984 2317 1946 2374 1946 
C 2464 1946 2643 2015 2643 2281 
C 2643 2545 2400 2816 1901 2816 
C 1062 2816 838 2160 838 1899 
C 838 1414 1312 1312 1459 1280 
z
" transform="scale(0.015625)"/>
      </defs>
      <use xlink:href="#CMEX10-50" transform="translate(0 74.720454) scale(0.996264)"/>
      <use xlink:href="#CMMI12-1e" transform="translate(121.765958 0) scale(0.996264)"/>
      <use xlink:href="#CMMI12-73" transform="translate(179.500138 36.153639) scale(0.697382)"/>
      <use xlink:href="#CMR17-35" transform="translate(179.500138 -24.740171) scale(0.697382)"/>
      <use xlink:href="#CMSY10-1" transform="translate(234.302366 0) scale(0.996264)"/>
      <use xlink:href="#CMMI12-64" transform="translate(284.115658 0) scale(0.996264)"/>
      <use xlink:href="#CMMI12-74" transform="translate(334.804754 0) scale(0.996264)"/>
     </g>
    </g>
    <g id="line2d_25">
     <path d="M 197.852244 28.999506 
L 211.852244 28.999506 
L 225.852244 28.999506 
" style="fill: none; stroke-dasharray: 11.1,4.8; stroke-dashoffset: 0; stroke: #d62728; stroke-width: 3"/>
    </g>
    <g id="text_20">
     <!-- $\sum \phi^s_{6} \cdot dt$ -->
     <g transform="translate(237.052244 33.899506) scale(0.14 -0.14)">
      <use xlink:href="#CMEX10-50" transform="translate(0 74.720454) scale(0.996264)"/>
      <use xlink:href="#CMMI12-1e" transform="translate(121.765958 0) scale(0.996264)"/>
      <use xlink:href="#CMMI12-73" transform="translate(179.500138 36.153639) scale(0.697382)"/>
      <use xlink:href="#CMR17-36" transform="translate(179.500138 -24.740171) scale(0.697382)"/>
      <use xlink:href="#CMSY10-1" transform="translate(234.302366 0) scale(0.996264)"/>
      <use xlink:href="#CMMI12-64" transform="translate(284.115658 0) scale(0.996264)"/>
      <use xlink:href="#CMMI12-74" transform="translate(334.804754 0) scale(0.996264)"/>
     </g>
    </g>
    <g id="line2d_26">
     <path d="M 197.852244 49.947385 
L 211.852244 49.947385 
L 225.852244 49.947385 
" style="fill: none; stroke-dasharray: 19.2,4.8,3,4.8; stroke-dashoffset: 0; stroke: #d62728; stroke-width: 3"/>
    </g>
    <g id="text_21">
     <!-- $\sum \phi^s_{13} \cdot dt$ -->
     <g transform="translate(237.052244 54.847385) scale(0.14 -0.14)">
      <defs>
       <path id="CMR17-33" d="M 1414 2157 
C 1984 2157 2234 1662 2234 1090 
C 2234 320 1824 25 1453 25 
C 1114 25 563 194 390 693 
C 422 680 454 680 486 680 
C 640 680 755 782 755 948 
C 755 1133 614 1216 486 1216 
C 378 1216 211 1165 211 926 
C 211 335 787 -128 1466 -128 
C 2176 -128 2720 430 2720 1085 
C 2720 1707 2208 2157 1600 2227 
C 2086 2328 2554 2756 2554 3329 
C 2554 3820 2048 4179 1472 4179 
C 890 4179 378 3829 378 3329 
C 378 3110 544 3072 627 3072 
C 762 3072 877 3155 877 3321 
C 877 3486 762 3569 627 3569 
C 602 3569 570 3569 544 3557 
C 730 3959 1235 4032 1459 4032 
C 1683 4032 2106 3925 2106 3320 
C 2106 3143 2080 2828 1862 2550 
C 1670 2304 1453 2304 1242 2284 
C 1210 2284 1062 2269 1037 2269 
C 992 2263 966 2257 966 2208 
C 966 2163 973 2157 1101 2157 
L 1414 2157 
z
" transform="scale(0.015625)"/>
      </defs>
      <use xlink:href="#CMEX10-50" transform="translate(0 74.720454) scale(0.996264)"/>
      <use xlink:href="#CMMI12-1e" transform="translate(121.765958 0) scale(0.996264)"/>
      <use xlink:href="#CMMI12-73" transform="translate(179.500138 36.153639) scale(0.697382)"/>
      <use xlink:href="#CMR17-31" transform="translate(179.500138 -24.740171) scale(0.697382)"/>
      <use xlink:href="#CMR17-33" transform="translate(211.48332 -24.740171) scale(0.697382)"/>
      <use xlink:href="#CMSY10-1" transform="translate(266.103841 0) scale(0.996264)"/>
      <use xlink:href="#CMMI12-64" transform="translate(315.917133 0) scale(0.996264)"/>
      <use xlink:href="#CMMI12-74" transform="translate(366.606229 0) scale(0.996264)"/>
     </g>
    </g>
   </g>
  </g>
 </g>
 <defs>
  <clipPath id="pc5a58c2f92">
   <rect x="65.305464" y="10.8" width="312.4375" height="182.736948"/>
  </clipPath>
 </defs>
</svg>
