<?xml version="1.0" encoding="utf-8" standalone="no"?>
<!DOCTYPE svg PUBLIC "-//W3C//DTD SVG 1.1//EN"
  "http://www.w3.org/Graphics/SVG/1.1/DTD/svg11.dtd">
<svg xmlns:xlink="http://www.w3.org/1999/xlink" width="388.542964pt" height="240.132758pt" viewBox="0 0 388.542964 240.132758" xmlns="http://www.w3.org/2000/svg" version="1.1">
 <metadata>
  <rdf:RDF xmlns:dc="http://purl.org/dc/elements/1.1/" xmlns:cc="http://creativecommons.org/ns#" xmlns:rdf="http://www.w3.org/1999/02/22-rdf-syntax-ns#">
   <cc:Work>
    <dc:type rdf:resource="http://purl.org/dc/dcmitype/StillImage"/>
    <dc:date>2024-12-30T22:27:46.944627</dc:date>
    <dc:format>image/svg+xml</dc:format>
    <dc:creator>
     <cc:Agent>
      <dc:title>Matplotlib v3.7.5, https://matplotlib.org/</dc:title>
     </cc:Agent>
    </dc:creator>
   </cc:Work>
  </rdf:RDF>
 </metadata>
 <defs>
  <style type="text/css">*{stroke-linejoin: round; stroke-linecap: butt}</style>
 </defs>
 <g id="figure_1">
  <g id="patch_1">
   <path d="M 0 240.132758 
L 388.542964 240.132758 
L 388.542964 0 
L 0 0 
z
" style="fill: #ffffff"/>
  </g>
  <g id="axes_1">
   <g id="patch_2">
    <path d="M 35.250582 193.536948 
L 377.742964 193.536948 
L 377.742964 10.8 
L 35.250582 10.8 
z
" style="fill: #ffffff"/>
   </g>
   <g id="matplotlib.axis_1">
    <g id="xtick_1">
     <g id="line2d_1">
      <defs>
       <path id="mc2f585130f" d="M 0 0 
L 0 3.5 
" style="stroke: #000000; stroke-width: 0.8"/>
      </defs>
      <g>
       <use xlink:href="#mc2f585130f" x="50.818418" y="193.536948" style="stroke: #000000; stroke-width: 0.8"/>
      </g>
     </g>
     <g id="text_1">
      <!-- $\mathdefault{0.0}$ -->
      <g transform="translate(42.093127 210.222825) scale(0.14 -0.14)">
       <defs>
        <path id="CMR17-30" d="M 2688 2025 
C 2688 2416 2682 3080 2413 3591 
C 2176 4039 1798 4198 1466 4198 
C 1158 4198 768 4058 525 3597 
C 269 3118 243 2524 243 2025 
C 243 1661 250 1106 448 619 
C 723 -39 1216 -128 1466 -128 
C 1760 -128 2208 -7 2470 600 
C 2662 1042 2688 1559 2688 2025 
z
M 1466 -26 
C 1056 -26 813 325 723 812 
C 653 1188 653 1738 653 2096 
C 653 2588 653 2997 736 3387 
C 858 3929 1216 4096 1466 4096 
C 1728 4096 2067 3923 2189 3400 
C 2272 3036 2278 2607 2278 2096 
C 2278 1680 2278 1169 2202 792 
C 2067 95 1690 -26 1466 -26 
z
" transform="scale(0.015625)"/>
        <path id="CMMI12-3a" d="M 1178 307 
C 1178 492 1024 619 870 619 
C 685 619 557 466 557 313 
C 557 128 710 0 864 0 
C 1050 0 1178 153 1178 307 
z
" transform="scale(0.015625)"/>
       </defs>
       <use xlink:href="#CMR17-30" transform="scale(0.996264)"/>
       <use xlink:href="#CMMI12-3a" transform="translate(45.690477 0) scale(0.996264)"/>
       <use xlink:href="#CMR17-30" transform="translate(72.787654 0) scale(0.996264)"/>
      </g>
     </g>
    </g>
    <g id="xtick_2">
     <g id="line2d_2">
      <g>
       <use xlink:href="#mc2f585130f" x="113.08976" y="193.536948" style="stroke: #000000; stroke-width: 0.8"/>
      </g>
     </g>
     <g id="text_2">
      <!-- $\mathdefault{0.2}$ -->
      <g transform="translate(104.364469 210.222825) scale(0.14 -0.14)">
       <defs>
        <path id="CMR17-32" d="M 2669 989 
L 2554 989 
C 2490 536 2438 459 2413 420 
C 2381 369 1920 369 1830 369 
L 602 369 
C 832 619 1280 1072 1824 1597 
C 2214 1967 2669 2402 2669 3035 
C 2669 3790 2067 4224 1395 4224 
C 691 4224 262 3604 262 3030 
C 262 2780 448 2748 525 2748 
C 589 2748 781 2787 781 3010 
C 781 3207 614 3264 525 3264 
C 486 3264 448 3258 422 3245 
C 544 3790 915 4058 1306 4058 
C 1862 4058 2227 3617 2227 3035 
C 2227 2479 1901 2000 1536 1584 
L 262 146 
L 262 0 
L 2515 0 
L 2669 989 
z
" transform="scale(0.015625)"/>
       </defs>
       <use xlink:href="#CMR17-30" transform="scale(0.996264)"/>
       <use xlink:href="#CMMI12-3a" transform="translate(45.690477 0) scale(0.996264)"/>
       <use xlink:href="#CMR17-32" transform="translate(72.787654 0) scale(0.996264)"/>
      </g>
     </g>
    </g>
    <g id="xtick_3">
     <g id="line2d_3">
      <g>
       <use xlink:href="#mc2f585130f" x="175.361102" y="193.536948" style="stroke: #000000; stroke-width: 0.8"/>
      </g>
     </g>
     <g id="text_3">
      <!-- $\mathdefault{0.4}$ -->
      <g transform="translate(166.635811 210.222825) scale(0.14 -0.14)">
       <defs>
        <path id="CMR17-34" d="M 2150 4122 
C 2150 4256 2144 4256 2029 4256 
L 128 1254 
L 128 1088 
L 1779 1088 
L 1779 457 
C 1779 224 1766 160 1318 160 
L 1197 160 
L 1197 0 
C 1402 0 1747 0 1965 0 
C 2182 0 2528 0 2733 0 
L 2733 160 
L 2611 160 
C 2163 160 2150 224 2150 457 
L 2150 1088 
L 2803 1088 
L 2803 1254 
L 2150 1254 
L 2150 4122 
z
M 1798 3703 
L 1798 1254 
L 256 1254 
L 1798 3703 
z
" transform="scale(0.015625)"/>
       </defs>
       <use xlink:href="#CMR17-30" transform="scale(0.996264)"/>
       <use xlink:href="#CMMI12-3a" transform="translate(45.690477 0) scale(0.996264)"/>
       <use xlink:href="#CMR17-34" transform="translate(72.787654 0) scale(0.996264)"/>
      </g>
     </g>
    </g>
    <g id="xtick_4">
     <g id="line2d_4">
      <g>
       <use xlink:href="#mc2f585130f" x="237.632444" y="193.536948" style="stroke: #000000; stroke-width: 0.8"/>
      </g>
     </g>
     <g id="text_4">
      <!-- $\mathdefault{0.6}$ -->
      <g transform="translate(228.907153 210.222825) scale(0.14 -0.14)">
       <defs>
        <path id="CMR17-36" d="M 678 2176 
C 678 3690 1395 4032 1811 4032 
C 1946 4032 2272 4009 2400 3776 
C 2298 3776 2106 3776 2106 3553 
C 2106 3381 2246 3323 2336 3323 
C 2394 3323 2566 3348 2566 3560 
C 2566 3954 2246 4179 1805 4179 
C 1043 4179 243 3390 243 1984 
C 243 253 966 -128 1478 -128 
C 2099 -128 2688 427 2688 1283 
C 2688 2081 2170 2662 1517 2662 
C 1126 2662 838 2407 678 1960 
L 678 2176 
z
M 1478 25 
C 691 25 691 1200 691 1436 
C 691 1896 909 2560 1504 2560 
C 1613 2560 1926 2560 2138 2120 
C 2253 1870 2253 1609 2253 1289 
C 2253 944 2253 690 2118 434 
C 1978 171 1773 25 1478 25 
z
" transform="scale(0.015625)"/>
       </defs>
       <use xlink:href="#CMR17-30" transform="scale(0.996264)"/>
       <use xlink:href="#CMMI12-3a" transform="translate(45.690477 0) scale(0.996264)"/>
       <use xlink:href="#CMR17-36" transform="translate(72.787654 0) scale(0.996264)"/>
      </g>
     </g>
    </g>
    <g id="xtick_5">
     <g id="line2d_5">
      <g>
       <use xlink:href="#mc2f585130f" x="299.903786" y="193.536948" style="stroke: #000000; stroke-width: 0.8"/>
      </g>
     </g>
     <g id="text_5">
      <!-- $\mathdefault{0.8}$ -->
      <g transform="translate(291.178495 210.222825) scale(0.14 -0.14)">
       <defs>
        <path id="CMR17-38" d="M 1741 2264 
C 2144 2467 2554 2773 2554 3263 
C 2554 3841 1990 4179 1472 4179 
C 890 4179 378 3759 378 3180 
C 378 3021 416 2747 666 2505 
C 730 2442 998 2251 1171 2130 
C 883 1983 211 1634 211 934 
C 211 279 838 -128 1459 -128 
C 2144 -128 2720 362 2720 1010 
C 2720 1590 2330 1857 2074 2029 
L 1741 2264 
z
M 902 2822 
C 851 2854 595 3051 595 3351 
C 595 3739 998 4032 1459 4032 
C 1965 4032 2336 3676 2336 3262 
C 2336 2669 1670 2331 1638 2331 
C 1632 2331 1626 2331 1574 2370 
L 902 2822 
z
M 2080 1519 
C 2176 1449 2483 1240 2483 851 
C 2483 381 2010 25 1472 25 
C 890 25 448 438 448 940 
C 448 1443 838 1862 1280 2060 
L 2080 1519 
z
" transform="scale(0.015625)"/>
       </defs>
       <use xlink:href="#CMR17-30" transform="scale(0.996264)"/>
       <use xlink:href="#CMMI12-3a" transform="translate(45.690477 0) scale(0.996264)"/>
       <use xlink:href="#CMR17-38" transform="translate(72.787654 0) scale(0.996264)"/>
      </g>
     </g>
    </g>
    <g id="xtick_6">
     <g id="line2d_6">
      <g>
       <use xlink:href="#mc2f585130f" x="362.175128" y="193.536948" style="stroke: #000000; stroke-width: 0.8"/>
      </g>
     </g>
     <g id="text_6">
      <!-- $\mathdefault{1.0}$ -->
      <g transform="translate(353.449837 210.222825) scale(0.14 -0.14)">
       <defs>
        <path id="CMR17-31" d="M 1702 4058 
C 1702 4192 1696 4192 1606 4192 
C 1357 3916 979 3827 621 3827 
C 602 3827 570 3827 563 3808 
C 557 3795 557 3782 557 3648 
C 755 3648 1088 3686 1344 3839 
L 1344 461 
C 1344 236 1331 160 781 160 
L 589 160 
L 589 0 
C 896 0 1216 0 1523 0 
C 1830 0 2150 0 2458 0 
L 2458 160 
L 2266 160 
C 1715 160 1702 230 1702 458 
L 1702 4058 
z
" transform="scale(0.015625)"/>
       </defs>
       <use xlink:href="#CMR17-31" transform="scale(0.996264)"/>
       <use xlink:href="#CMMI12-3a" transform="translate(45.690477 0) scale(0.996264)"/>
       <use xlink:href="#CMR17-30" transform="translate(72.787654 0) scale(0.996264)"/>
      </g>
     </g>
    </g>
    <g id="text_7">
     <!-- t -->
     <g transform="translate(203.84125 226.620729) scale(0.14 -0.14)">
      <defs>
       <path id="CMR17-74" d="M 966 2560 
L 1862 2560 
L 1862 2725 
L 966 2725 
L 966 3904 
L 851 3904 
C 838 3245 614 2668 70 2668 
L 70 2560 
L 627 2560 
L 627 771 
C 627 650 627 -64 1370 -64 
C 1747 -64 1965 306 1965 777 
L 1965 1140 
L 1850 1140 
L 1850 783 
C 1850 344 1677 51 1408 51 
C 1222 51 966 178 966 758 
L 966 2560 
z
" transform="scale(0.015625)"/>
      </defs>
      <use xlink:href="#CMR17-74" transform="scale(0.996264)"/>
     </g>
    </g>
   </g>
   <g id="matplotlib.axis_2">
    <g id="ytick_1">
     <g id="line2d_7">
      <defs>
       <path id="mbc4a9d14a7" d="M 0 0 
L -3.5 0 
" style="stroke: #000000; stroke-width: 0.8"/>
      </defs>
      <g>
       <use xlink:href="#mbc4a9d14a7" x="35.250582" y="183.233323" style="stroke: #000000; stroke-width: 0.8"/>
      </g>
     </g>
     <g id="text_8">
      <!-- $\mathdefault{0.0}$ -->
      <g transform="translate(10.8 188.076261) scale(0.14 -0.14)">
       <use xlink:href="#CMR17-30" transform="scale(0.996264)"/>
       <use xlink:href="#CMMI12-3a" transform="translate(45.690477 0) scale(0.996264)"/>
       <use xlink:href="#CMR17-30" transform="translate(72.787654 0) scale(0.996264)"/>
      </g>
     </g>
    </g>
    <g id="ytick_2">
     <g id="line2d_8">
      <g>
       <use xlink:href="#mbc4a9d14a7" x="35.250582" y="157.673429" style="stroke: #000000; stroke-width: 0.8"/>
      </g>
     </g>
     <g id="text_9">
      <!-- $\mathdefault{0.1}$ -->
      <g transform="translate(10.8 162.516367) scale(0.14 -0.14)">
       <use xlink:href="#CMR17-30" transform="scale(0.996264)"/>
       <use xlink:href="#CMMI12-3a" transform="translate(45.690477 0) scale(0.996264)"/>
       <use xlink:href="#CMR17-31" transform="translate(72.787654 0) scale(0.996264)"/>
      </g>
     </g>
    </g>
    <g id="ytick_3">
     <g id="line2d_9">
      <g>
       <use xlink:href="#mbc4a9d14a7" x="35.250582" y="132.113534" style="stroke: #000000; stroke-width: 0.8"/>
      </g>
     </g>
     <g id="text_10">
      <!-- $\mathdefault{0.2}$ -->
      <g transform="translate(10.8 136.956473) scale(0.14 -0.14)">
       <use xlink:href="#CMR17-30" transform="scale(0.996264)"/>
       <use xlink:href="#CMMI12-3a" transform="translate(45.690477 0) scale(0.996264)"/>
       <use xlink:href="#CMR17-32" transform="translate(72.787654 0) scale(0.996264)"/>
      </g>
     </g>
    </g>
    <g id="ytick_4">
     <g id="line2d_10">
      <g>
       <use xlink:href="#mbc4a9d14a7" x="35.250582" y="106.55364" style="stroke: #000000; stroke-width: 0.8"/>
      </g>
     </g>
     <g id="text_11">
      <!-- $\mathdefault{0.3}$ -->
      <g transform="translate(10.8 111.396578) scale(0.14 -0.14)">
       <defs>
        <path id="CMR17-33" d="M 1414 2157 
C 1984 2157 2234 1662 2234 1090 
C 2234 320 1824 25 1453 25 
C 1114 25 563 194 390 693 
C 422 680 454 680 486 680 
C 640 680 755 782 755 948 
C 755 1133 614 1216 486 1216 
C 378 1216 211 1165 211 926 
C 211 335 787 -128 1466 -128 
C 2176 -128 2720 430 2720 1085 
C 2720 1707 2208 2157 1600 2227 
C 2086 2328 2554 2756 2554 3329 
C 2554 3820 2048 4179 1472 4179 
C 890 4179 378 3829 378 3329 
C 378 3110 544 3072 627 3072 
C 762 3072 877 3155 877 3321 
C 877 3486 762 3569 627 3569 
C 602 3569 570 3569 544 3557 
C 730 3959 1235 4032 1459 4032 
C 1683 4032 2106 3925 2106 3320 
C 2106 3143 2080 2828 1862 2550 
C 1670 2304 1453 2304 1242 2284 
C 1210 2284 1062 2269 1037 2269 
C 992 2263 966 2257 966 2208 
C 966 2163 973 2157 1101 2157 
L 1414 2157 
z
" transform="scale(0.015625)"/>
       </defs>
       <use xlink:href="#CMR17-30" transform="scale(0.996264)"/>
       <use xlink:href="#CMMI12-3a" transform="translate(45.690477 0) scale(0.996264)"/>
       <use xlink:href="#CMR17-33" transform="translate(72.787654 0) scale(0.996264)"/>
      </g>
     </g>
    </g>
    <g id="ytick_5">
     <g id="line2d_11">
      <g>
       <use xlink:href="#mbc4a9d14a7" x="35.250582" y="80.993746" style="stroke: #000000; stroke-width: 0.8"/>
      </g>
     </g>
     <g id="text_12">
      <!-- $\mathdefault{0.4}$ -->
      <g transform="translate(10.8 85.836684) scale(0.14 -0.14)">
       <use xlink:href="#CMR17-30" transform="scale(0.996264)"/>
       <use xlink:href="#CMMI12-3a" transform="translate(45.690477 0) scale(0.996264)"/>
       <use xlink:href="#CMR17-34" transform="translate(72.787654 0) scale(0.996264)"/>
      </g>
     </g>
    </g>
    <g id="ytick_6">
     <g id="line2d_12">
      <g>
       <use xlink:href="#mbc4a9d14a7" x="35.250582" y="55.433852" style="stroke: #000000; stroke-width: 0.8"/>
      </g>
     </g>
     <g id="text_13">
      <!-- $\mathdefault{0.5}$ -->
      <g transform="translate(10.8 60.27679) scale(0.14 -0.14)">
       <defs>
        <path id="CMR17-35" d="M 730 3692 
C 794 3666 1056 3584 1325 3584 
C 1920 3584 2246 3911 2432 4100 
C 2432 4157 2432 4192 2394 4192 
C 2387 4192 2374 4192 2323 4163 
C 2099 4058 1837 3973 1517 3973 
C 1325 3973 1037 3999 723 4139 
C 653 4171 640 4171 634 4171 
C 602 4171 595 4164 595 4037 
L 595 2203 
C 595 2089 595 2057 659 2057 
C 691 2057 704 2070 736 2114 
C 941 2401 1222 2522 1542 2522 
C 1766 2522 2246 2382 2246 1289 
C 2246 1085 2246 715 2054 421 
C 1894 159 1645 25 1370 25 
C 947 25 518 320 403 814 
C 429 807 480 795 506 795 
C 589 795 749 840 749 1038 
C 749 1210 627 1280 506 1280 
C 358 1280 262 1190 262 1011 
C 262 454 704 -128 1382 -128 
C 2042 -128 2669 440 2669 1264 
C 2669 2030 2170 2624 1549 2624 
C 1222 2624 947 2503 730 2274 
L 730 3692 
z
" transform="scale(0.015625)"/>
       </defs>
       <use xlink:href="#CMR17-30" transform="scale(0.996264)"/>
       <use xlink:href="#CMMI12-3a" transform="translate(45.690477 0) scale(0.996264)"/>
       <use xlink:href="#CMR17-35" transform="translate(72.787654 0) scale(0.996264)"/>
      </g>
     </g>
    </g>
    <g id="ytick_7">
     <g id="line2d_13">
      <g>
       <use xlink:href="#mbc4a9d14a7" x="35.250582" y="29.873958" style="stroke: #000000; stroke-width: 0.8"/>
      </g>
     </g>
     <g id="text_14">
      <!-- $\mathdefault{0.6}$ -->
      <g transform="translate(10.8 34.716896) scale(0.14 -0.14)">
       <use xlink:href="#CMR17-30" transform="scale(0.996264)"/>
       <use xlink:href="#CMMI12-3a" transform="translate(45.690477 0) scale(0.996264)"/>
       <use xlink:href="#CMR17-36" transform="translate(72.787654 0) scale(0.996264)"/>
      </g>
     </g>
    </g>
   </g>
   <g id="line2d_14">
    <path d="M 50.818418 182.013988 
L 59.949101 181.823357 
L 64.514374 181.562859 
L 68.166702 181.156771 
L 70.905947 180.643766 
L 73.645058 179.8544 
L 75.471086 179.128795 
L 77.297251 178.223208 
L 80.036496 176.543312 
L 83.688688 173.922022 
L 87.341285 171.323017 
L 90.080528 169.623778 
L 92.819641 168.198901 
L 95.558884 167.023463 
L 99.21108 165.750023 
L 103.776354 164.453571 
L 111.081409 162.679059 
L 127.516612 158.75218 
L 134.820994 156.75447 
L 141.212438 154.759303 
L 146.690794 152.797102 
L 151.256063 150.938438 
L 155.821471 148.837662 
L 160.387019 146.45819 
L 164.039349 144.330543 
L 167.69167 141.985742 
L 171.343861 139.409546 
L 174.996062 136.590224 
L 178.648383 133.519466 
L 182.300574 130.193542 
L 185.952765 126.61304 
L 190.518044 121.789363 
L 195.083591 116.602247 
L 199.64886 111.091408 
L 205.127356 104.126393 
L 212.431738 94.436206 
L 227.041189 74.918476 
L 232.519527 67.996979 
L 237.084944 62.54596 
L 241.650083 57.449046 
L 245.302414 53.658988 
L 248.954744 50.145351 
L 252.606926 46.921802 
L 256.259256 43.99547 
L 259.911457 41.369464 
L 263.563509 39.041528 
L 267.215709 37.005325 
L 270.868559 35.250586 
L 274.520759 33.765169 
L 278.17296 32.533764 
L 281.825142 31.539414 
L 285.477472 30.763928 
L 289.129802 30.188994 
L 293.695071 29.723979 
L 298.260211 29.507233 
L 302.825628 29.504917 
L 308.303984 29.740494 
L 313.782341 30.190106 
L 320.173914 30.928373 
L 327.478835 31.985202 
L 336.609373 33.529547 
L 349.39226 35.945815 
L 362.175128 38.513273 
L 362.175128 38.513273 
" clip-path="url(#p6fb8b00287)" style="fill: none; stroke: #98df8a; stroke-width: 2; stroke-linecap: square"/>
   </g>
   <g id="line2d_15">
    <path d="M 50.818418 159.998365 
L 53.557663 159.8204 
L 56.296908 159.395524 
L 58.123072 158.904251 
L 59.949101 158.177912 
L 61.775265 157.13895 
L 63.601293 155.691545 
L 65.427457 153.722592 
L 67.25362 151.111072 
L 69.079784 147.748947 
L 70.905947 143.579818 
L 72.731977 138.651527 
L 75.471086 130.311803 
L 78.210331 122.009141 
L 80.036496 117.2269 
L 81.862525 113.42019 
L 82.775607 111.928131 
L 83.688688 110.713553 
L 84.60177 109.767901 
L 85.514718 109.076618 
L 86.427798 108.621019 
L 87.341285 108.380109 
L 88.254367 108.332264 
L 89.167448 108.455705 
L 90.080528 108.729704 
L 91.906558 109.653251 
L 93.732724 110.967815 
L 95.558884 112.564942 
L 98.298132 115.311349 
L 101.950323 119.330655 
L 113.820656 132.673515 
L 119.299013 138.386413 
L 123.864286 142.848749 
L 128.42956 147.038331 
L 132.994838 150.962391 
L 137.560247 154.629057 
L 142.125516 158.043522 
L 146.690794 161.207662 
L 151.256063 164.119828 
L 155.821471 166.777041 
L 160.387019 169.176607 
L 164.952427 171.318319 
L 169.517706 173.206269 
L 174.082975 174.849483 
L 178.648383 176.261931 
L 183.213661 177.461598 
L 188.692018 178.650131 
L 194.170504 179.601714 
L 200.561947 180.464199 
L 207.866469 181.192673 
L 216.084606 181.769787 
L 226.128232 182.236393 
L 238.91084 182.594974 
L 257.172214 182.864517 
L 286.390559 183.04704 
L 346.653147 183.155891 
L 362.175128 183.166532 
L 362.175128 183.166532 
" clip-path="url(#p6fb8b00287)" style="fill: none; stroke: #ff9896; stroke-width: 2; stroke-linecap: square"/>
   </g>
   <g id="line2d_16">
    <path d="M 50.818418 182.060173 
L 59.949101 181.877866 
L 65.427457 181.552068 
L 69.079784 181.099332 
L 71.818895 180.529816 
L 74.55814 179.664592 
L 76.384168 178.883755 
L 78.210331 177.92928 
L 80.949442 176.214345 
L 89.167448 170.702508 
L 91.906558 169.254528 
L 94.645806 168.061167 
L 98.298132 166.784643 
L 101.950323 165.75155 
L 107.429217 164.44877 
L 119.299013 161.947428 
L 131.168803 159.371693 
L 138.473325 157.591101 
L 144.864629 155.818156 
L 150.342985 154.076137 
L 154.908394 152.425814 
L 159.473533 150.559665 
L 164.039349 148.443772 
L 168.604618 146.04622 
L 172.256949 143.904565 
L 175.90914 141.548981 
L 179.56147 138.96743 
L 183.213661 136.150348 
L 186.865852 133.091339 
L 190.518044 129.787681 
L 195.083591 125.315862 
L 199.64886 120.477091 
L 204.214268 115.295505 
L 209.692625 108.678553 
L 215.171519 101.708152 
L 223.388989 90.834078 
L 236.171857 73.86161 
L 241.650083 66.932723 
L 246.215501 61.45109 
L 250.78077 56.302819 
L 255.346169 51.538094 
L 258.99837 48.029607 
L 262.650421 44.807033 
L 266.302622 41.878644 
L 269.95549 39.248875 
L 273.607672 36.918333 
L 277.259873 34.881719 
L 280.912203 33.130713 
L 284.564385 31.654148 
L 288.216715 30.438069 
L 291.868916 29.466769 
L 295.521097 28.722575 
L 299.173298 28.187846 
L 302.825628 27.844376 
L 307.390897 27.655554 
L 311.956166 27.702006 
L 316.521435 27.950776 
L 322.00007 28.473287 
L 328.391903 29.332808 
L 335.696304 30.565493 
L 344.826972 32.368283 
L 356.696772 34.970889 
L 362.175128 36.22504 
L 362.175128 36.22504 
" clip-path="url(#p6fb8b00287)" style="fill: none; stroke: #98df8a; stroke-width: 2; stroke-linecap: square"/>
   </g>
   <g id="line2d_17">
    <path d="M 50.818418 159.615354 
L 53.557663 159.430923 
L 56.296908 158.998008 
L 58.123072 158.499867 
L 59.949101 157.764759 
L 61.775265 156.714377 
L 63.601293 155.251775 
L 65.427457 153.26244 
L 67.25362 150.623282 
L 69.079784 147.22364 
L 70.905947 143.003535 
L 72.731977 138.007053 
L 75.471086 129.526129 
L 78.210331 121.037499 
L 80.036496 116.116612 
L 81.862525 112.171211 
L 82.775607 110.613162 
L 83.688688 109.336083 
L 84.60177 108.332279 
L 85.514718 107.587918 
L 86.427798 107.084367 
L 87.341285 106.800869 
L 88.254367 106.715759 
L 89.167448 106.807031 
L 90.080528 107.053684 
L 91.906558 107.935494 
L 93.732724 109.223078 
L 95.558884 110.804718 
L 98.298132 113.54379 
L 101.950323 117.571894 
L 114.733739 131.972386 
L 120.211961 137.654271 
L 124.777369 142.087409 
L 129.342638 146.248935 
L 133.907916 150.149565 
L 138.473325 153.799991 
L 143.038603 157.207587 
L 147.603872 160.37563 
L 152.16928 163.3036 
L 156.73442 165.988175 
L 161.300097 168.426439 
L 165.865505 170.616311 
L 170.430784 172.559775 
L 174.996062 174.263326 
L 179.56147 175.738276 
L 184.126739 177.000135 
L 189.604966 178.259942 
L 195.083591 179.276779 
L 201.474886 180.205643 
L 207.866469 180.910957 
L 215.171519 181.506646 
L 224.302076 182.022809 
L 236.171857 182.44508 
L 251.693857 182.754224 
L 275.433847 182.977171 
L 318.34774 183.118307 
L 362.175128 183.164653 
L 362.175128 183.164653 
" clip-path="url(#p6fb8b00287)" style="fill: none; stroke: #ff9896; stroke-width: 2; stroke-linecap: square"/>
   </g>
   <g id="line2d_18">
    <path d="M 50.818418 181.92611 
L 59.949101 181.719519 
L 64.514374 181.437863 
L 68.166702 180.999057 
L 70.905947 180.444926 
L 73.645058 179.592559 
L 75.471086 178.809263 
L 77.297251 177.83187 
L 80.036496 176.018983 
L 83.688688 173.189164 
L 87.341285 170.378795 
L 90.080528 168.535557 
L 92.819641 166.982786 
L 95.558884 165.693142 
L 99.21108 164.280594 
L 103.776354 162.815642 
L 111.994491 160.49045 
L 121.125173 157.857041 
L 127.516612 155.801529 
L 132.994838 153.818302 
L 137.560247 151.960269 
L 142.125516 149.871654 
L 146.690794 147.507942 
L 150.342985 145.388355 
L 153.995316 143.040366 
L 157.647368 140.442506 
L 161.300097 137.574634 
L 164.952427 134.421523 
L 168.604618 130.971767 
L 172.256949 127.219994 
L 175.90914 123.168528 
L 179.56147 118.827279 
L 184.126739 113.02374 
L 188.692018 106.855943 
L 194.170504 99.085992 
L 215.171519 68.824157 
L 219.736658 62.865901 
L 223.388989 58.408745 
L 227.041189 54.264773 
L 230.693371 50.458382 
L 234.345701 47.005853 
L 237.997883 43.915045 
L 241.650083 41.185564 
L 245.302414 38.810079 
L 248.954744 36.776146 
L 252.606926 35.066015 
L 256.259256 33.658403 
L 259.911457 32.530352 
L 263.563509 31.656144 
L 267.215709 31.010733 
L 270.868559 30.568266 
L 275.433847 30.26369 
L 279.999116 30.192772 
L 285.477472 30.357613 
L 291.868916 30.815696 
L 299.173298 31.589552 
L 308.303984 32.796063 
L 322.00007 34.862233 
L 347.566215 38.993858 
L 362.175128 41.42632 
L 362.175128 41.42632 
" clip-path="url(#p6fb8b00287)" style="fill: none; stroke: #98df8a; stroke-width: 2; stroke-linecap: square"/>
   </g>
   <g id="line2d_19">
    <path d="M 50.818418 160.671434 
L 53.557663 160.505172 
L 56.296908 160.094857 
L 58.123072 159.616053 
L 59.949101 158.905612 
L 61.775265 157.887408 
L 63.601293 156.467545 
L 65.427457 154.535631 
L 67.25362 151.974214 
L 69.079784 148.680179 
L 70.905947 144.603343 
L 72.731977 139.798379 
L 75.471086 131.713077 
L 78.210331 123.743435 
L 80.036496 119.208204 
L 80.949442 117.295305 
L 81.862525 115.647324 
L 82.775607 114.272201 
L 83.688688 113.167915 
L 84.60177 112.324718 
L 85.514718 111.727152 
L 86.427798 111.355939 
L 87.341285 111.189993 
L 88.254367 111.207757 
L 89.167448 111.387902 
L 90.080528 111.710234 
L 91.906558 112.707807 
L 93.732724 114.071009 
L 95.558884 115.696739 
L 98.298132 118.458876 
L 102.863406 123.496584 
L 112.907574 134.71652 
L 118.38593 140.436614 
L 122.951338 144.909248 
L 127.516612 149.106078 
L 132.081751 153.02868 
L 136.647159 156.680142 
L 141.212438 160.061098 
L 145.777707 163.170148 
L 150.342985 166.004251 
L 154.908394 168.560812 
L 159.473533 170.839489 
L 164.039349 172.844885 
L 168.604618 174.585953 
L 173.169897 176.077902 
L 177.735166 177.340343 
L 182.300574 178.396343 
L 187.77893 179.425916 
L 193.257287 180.236986 
L 199.64886 180.960946 
L 206.953382 181.563457 
L 216.084606 182.076786 
L 227.041189 182.464077 
L 242.563171 182.77097 
L 266.302622 182.986731 
L 310.13014 183.121755 
L 362.175128 183.169331 
L 362.175128 183.169331 
" clip-path="url(#p6fb8b00287)" style="fill: none; stroke: #ff9896; stroke-width: 2; stroke-linecap: square"/>
   </g>
   <g id="line2d_20">
    <path d="M 50.818418 181.994992 
L 59.949101 181.800923 
L 64.514374 181.535866 
L 68.166702 181.12273 
L 70.905947 180.600865 
L 73.645058 179.797925 
L 75.471086 179.05989 
L 77.297251 178.138842 
L 80.036496 176.430307 
L 83.688688 173.764177 
L 87.341285 171.119822 
L 90.080528 169.389795 
L 92.819641 167.937708 
L 95.558884 166.738108 
L 99.21108 165.435489 
L 103.776354 164.10405 
L 111.081409 162.268745 
L 125.690452 158.632245 
L 132.994838 156.563077 
L 138.473325 154.809902 
L 143.951551 152.822902 
L 148.516959 150.943835 
L 153.082228 148.8217 
L 157.647368 146.41821 
L 161.300097 144.267562 
L 164.952427 141.895799 
L 168.604618 139.287397 
L 172.256949 136.429569 
L 175.90914 133.313681 
L 179.56147 129.935018 
L 183.213661 126.294448 
L 187.77893 121.386176 
L 192.344209 116.106161 
L 196.909747 110.496418 
L 202.387973 103.412486 
L 209.692625 93.577424 
L 222.475901 76.290576 
L 227.954258 69.251092 
L 232.519527 63.702341 
L 237.084944 58.511794 
L 240.736996 54.652561 
L 244.389456 51.075075 
L 248.041657 47.793832 
L 251.693857 44.81625 
L 255.346169 42.145163 
L 258.99837 39.77786 
L 262.650421 37.707851 
L 266.302622 35.923587 
L 269.95549 34.412302 
L 273.607672 33.1578 
L 277.259873 32.142243 
L 280.912203 31.34686 
L 284.564385 30.752578 
L 289.129802 30.2627 
L 293.695071 30.019856 
L 298.260211 29.989066 
L 303.738697 30.186876 
L 310.13014 30.679039 
L 317.434653 31.504846 
L 325.652809 32.675129 
L 335.696304 34.334482 
L 349.39226 36.832256 
L 362.175128 39.286749 
L 362.175128 39.286749 
" clip-path="url(#p6fb8b00287)" style="fill: none; stroke: #98df8a; stroke-width: 2; stroke-linecap: square"/>
   </g>
   <g id="line2d_21">
    <path d="M 50.818418 160.149739 
L 53.557663 159.974381 
L 56.296908 159.552724 
L 58.123072 159.064209 
L 59.949101 158.341407 
L 61.775265 157.307025 
L 63.601293 155.865704 
L 65.427457 153.904962 
L 67.25362 151.30451 
L 69.079784 147.957459 
L 70.905947 143.808768 
L 72.731977 138.907823 
L 75.471086 130.624632 
L 78.210331 122.396134 
L 80.036496 117.66907 
L 81.862525 113.917304 
L 82.775607 112.451533 
L 83.688688 111.261689 
L 84.60177 110.338965 
L 85.514718 109.668782 
L 86.427798 109.232166 
L 87.341285 109.008061 
L 88.254367 108.974933 
L 89.167448 109.111125 
L 90.080528 109.395949 
L 91.906558 110.336009 
L 93.732724 111.661437 
L 95.558884 113.26484 
L 98.298132 116.014455 
L 102.863406 121.064956 
L 112.907574 132.360205 
L 118.38593 138.122926 
L 122.951338 142.630212 
L 127.516612 146.863686 
L 132.081751 150.828724 
L 136.647159 154.532736 
L 141.212438 157.980327 
L 145.777707 161.173066 
L 150.342985 164.109354 
L 154.908394 166.786172 
L 159.473533 169.20084 
L 164.039349 171.353996 
L 168.604618 173.249446 
L 173.169897 174.896927 
L 177.735166 176.310888 
L 182.300574 177.510023 
L 187.77893 178.695838 
L 193.257287 179.6433 
L 199.64886 180.500231 
L 206.953382 181.222257 
L 215.171519 181.792836 
L 225.215144 182.253005 
L 237.997883 182.605783 
L 256.259256 182.870403 
L 286.390559 183.052624 
L 348.479173 183.158299 
L 362.175128 183.167215 
L 362.175128 183.167215 
" clip-path="url(#p6fb8b00287)" style="fill: none; stroke: #ff9896; stroke-width: 2; stroke-linecap: square"/>
   </g>
   <g id="line2d_22">
    <path d="M 50.818418 181.946171 
L 59.949101 181.743238 
L 64.514374 181.466429 
L 68.166702 181.035118 
L 70.905947 180.490406 
L 73.645058 179.652469 
L 75.471086 178.882392 
L 77.297251 177.921455 
L 80.036496 176.139051 
L 83.688688 173.357093 
L 87.341285 170.595345 
L 90.080528 168.785343 
L 92.819641 167.262247 
L 95.558884 165.999231 
L 99.21108 164.619391 
L 103.776354 163.194457 
L 111.994491 160.950789 
L 122.038256 158.17477 
L 128.42956 156.205292 
L 133.907916 154.31191 
L 139.386403 152.164846 
L 143.951551 150.132909 
L 148.516959 147.835237 
L 152.16928 145.776696 
L 155.821471 143.498757 
L 159.473533 140.980945 
L 163.126401 138.204437 
L 166.778592 135.155361 
L 170.430784 131.822547 
L 174.082975 128.201223 
L 177.735166 124.292847 
L 181.387496 120.106202 
L 185.952765 114.50857 
L 190.518044 108.554922 
L 195.996669 101.040643 
L 205.127356 88.034996 
L 213.344955 76.416218 
L 218.823571 69.035122 
L 223.388989 63.246339 
L 227.041189 58.908731 
L 230.693371 54.865134 
L 234.345701 51.138422 
L 237.997883 47.743694 
L 241.650083 44.688764 
L 245.302414 41.973954 
L 248.954744 39.593442 
L 252.606926 37.537418 
L 256.259256 35.789779 
L 259.911457 34.332974 
L 263.563509 33.145887 
L 267.215709 32.206458 
L 270.868559 31.491409 
L 274.520759 30.977993 
L 279.086029 30.585131 
L 283.651316 30.429812 
L 289.129802 30.502147 
L 294.608029 30.800446 
L 300.999584 31.365965 
L 309.217053 32.337707 
L 319.260697 33.762183 
L 333.87026 36.078724 
L 356.696772 39.946328 
L 362.175128 40.899635 
L 362.175128 40.899635 
" clip-path="url(#p6fb8b00287)" style="fill: none; stroke: #98df8a; stroke-width: 2; stroke-linecap: square"/>
   </g>
   <g id="line2d_23">
    <path d="M 50.818418 160.523654 
L 53.557663 160.354787 
L 56.296908 159.94123 
L 58.123072 159.459671 
L 59.949101 158.745676 
L 61.775265 157.722822 
L 63.601293 156.296815 
L 65.427457 154.356626 
L 67.25362 151.784026 
L 69.079784 148.474786 
L 70.905947 144.377353 
L 72.731977 139.544931 
L 75.471086 131.403112 
L 78.210331 123.359573 
L 80.036496 118.769721 
L 80.949442 116.829414 
L 81.862525 115.154582 
L 82.775607 113.753681 
L 83.688688 112.62515 
L 84.60177 111.759405 
L 85.514718 111.141234 
L 86.427798 110.751442 
L 87.341285 110.568974 
L 88.254367 110.572348 
L 89.167448 110.740061 
L 90.080528 111.051691 
L 91.906558 112.032955 
L 93.732724 113.385363 
L 95.558884 115.004625 
L 98.298132 117.762924 
L 102.863406 122.803854 
L 112.907574 134.044159 
L 118.38593 139.776056 
L 122.951338 144.258494 
L 127.516612 148.465988 
L 132.081751 152.40125 
L 136.647159 156.068593 
L 141.212438 159.469764 
L 145.777707 162.604141 
L 150.342985 165.468985 
L 154.908394 168.061427 
L 159.473533 170.380327 
L 164.039349 172.429009 
L 168.604618 174.2149 
L 173.169897 175.751593 
L 177.735166 177.057237 
L 182.300574 178.153693 
L 187.77893 179.22703 
L 193.257287 180.075965 
L 199.64886 180.836519 
L 206.953382 181.471649 
L 216.084606 182.014315 
L 227.041189 182.424514 
L 241.650083 182.735907 
L 263.563509 182.960503 
L 302.825628 183.106373 
L 362.175128 183.168767 
L 362.175128 183.168767 
" clip-path="url(#p6fb8b00287)" style="fill: none; stroke: #ff9896; stroke-width: 2; stroke-linecap: square"/>
   </g>
   <g id="line2d_24">
    <path d="M 50.818418 181.950089 
L 59.225049 181.590023 
L 63.895399 181.178986 
L 67.320323 180.647076 
L 69.811177 180.059368 
L 71.990674 179.332222 
L 73.858814 178.499031 
L 76.038311 177.264958 
L 78.217808 175.763958 
L 80.708662 173.765676 
L 86.624439 168.833199 
L 89.115293 167.134691 
L 91.606147 165.689053 
L 94.408357 164.317249 
L 97.521924 163.051359 
L 101.569561 161.665101 
L 109.042122 159.392713 
L 120.562321 155.85488 
L 128.034882 153.327274 
L 134.573373 150.886 
L 140.177794 148.563476 
L 144.848144 146.400511 
L 148.895781 144.284561 
L 152.320705 142.258024 
L 155.745629 139.984157 
L 159.48191 137.236553 
L 163.529547 133.975484 
L 167.265827 130.690329 
L 171.002108 127.097357 
L 174.427032 123.498412 
L 178.163312 119.228748 
L 182.21095 114.227631 
L 186.569943 108.468578 
L 191.551651 101.497347 
L 197.156072 93.259266 
L 205.251346 80.912223 
L 213.969334 67.704599 
L 219.262398 60.097029 
L 223.621392 54.201868 
L 227.669029 49.088477 
L 231.40531 44.711662 
L 235.14159 40.68362 
L 238.566514 37.304995 
L 241.991438 34.231387 
L 245.416362 31.469638 
L 248.529929 29.235534 
L 251.643496 27.265663 
L 254.757063 25.552592 
L 257.87063 24.081405 
L 261.295554 22.720412 
L 264.720478 21.607107 
L 268.145402 20.723728 
L 271.881682 20.00426 
L 275.617963 19.516439 
L 279.6656 19.214301 
L 284.024594 19.106484 
L 289.006301 19.205556 
L 294.610722 19.548966 
L 300.5265 20.137672 
L 307.064991 21.015202 
L 314.848908 22.296288 
L 324.812323 24.179396 
L 339.134732 27.136989 
L 361.863772 32.052692 
L 361.863772 32.052692 
" clip-path="url(#p6fb8b00287)" style="fill: none; stroke-dasharray: 19.2,4.8,3,4.8; stroke-dashoffset: 0; stroke: #2ca02c; stroke-width: 3"/>
   </g>
   <g id="line2d_25">
    <path d="M 50.818418 159.998365 
L 53.620628 159.67991 
L 55.800125 159.223406 
L 57.668265 158.629703 
L 59.225049 157.94323 
L 60.781832 157.027437 
L 62.338616 155.815557 
L 63.584043 154.580532 
L 64.82947 153.065293 
L 66.074896 151.234703 
L 67.320323 149.064003 
L 68.877107 145.854199 
L 70.43389 142.10128 
L 72.302031 136.976771 
L 78.217808 120.003515 
L 79.463235 117.207963 
L 80.708662 114.898705 
L 81.954089 113.093539 
L 82.888159 112.067393 
L 83.822229 111.314051 
L 84.756299 110.821225 
L 85.690369 110.570528 
L 86.624439 110.53743 
L 87.558509 110.693679 
L 88.803936 111.147579 
L 90.049363 111.828183 
L 91.606147 112.928758 
L 93.474287 114.53386 
L 95.965141 117.022768 
L 99.390064 120.812319 
L 111.221619 134.148625 
L 116.514684 139.685218 
L 121.496391 144.588398 
L 126.478098 149.197255 
L 131.771162 153.783271 
L 137.064226 158.059469 
L 142.045934 161.802101 
L 146.716284 165.049346 
L 151.075278 167.829315 
L 155.434272 170.353973 
L 160.104623 172.789953 
L 164.463617 174.824167 
L 168.822611 176.62194 
L 173.181605 178.177165 
L 177.540599 179.495485 
L 182.21095 180.669397 
L 187.192657 181.692975 
L 192.797078 182.620862 
L 199.024212 183.43242 
L 205.87406 184.100398 
L 213.035264 184.576651 
L 221.753252 184.918986 
L 234.20752 185.159104 
L 248.218572 185.222471 
L 261.918267 185.043118 
L 331.039457 183.832121 
L 361.863772 183.578858 
L 361.863772 183.578858 
" clip-path="url(#p6fb8b00287)" style="fill: none; stroke-dasharray: 19.2,4.8,3,4.8; stroke-dashoffset: 0; stroke: #d62728; stroke-width: 3"/>
   </g>
   <g id="patch_3">
    <path d="M 35.250582 193.536948 
L 35.250582 10.8 
" style="fill: none; stroke: #000000; stroke-width: 0.8; stroke-linejoin: miter; stroke-linecap: square"/>
   </g>
   <g id="patch_4">
    <path d="M 377.742964 193.536948 
L 377.742964 10.8 
" style="fill: none; stroke: #000000; stroke-width: 0.8; stroke-linejoin: miter; stroke-linecap: square"/>
   </g>
   <g id="patch_5">
    <path d="M 35.250582 193.536948 
L 377.742964 193.536948 
" style="fill: none; stroke: #000000; stroke-width: 0.8; stroke-linejoin: miter; stroke-linecap: square"/>
   </g>
   <g id="patch_6">
    <path d="M 35.250582 10.8 
L 377.742964 10.8 
" style="fill: none; stroke: #000000; stroke-width: 0.8; stroke-linejoin: miter; stroke-linecap: square"/>
   </g>
   <g id="legend_1">
    <g id="line2d_26">
     <path d="M 47.850582 28.999506 
L 61.850582 28.999506 
L 75.850582 28.999506 
" style="fill: none; stroke: #98df8a; stroke-width: 2; stroke-linecap: square"/>
    </g>
    <g id="text_15">
     <!-- $\hat{P1}$ -->
     <g transform="translate(87.050582 33.899506) scale(0.14 -0.14)">
      <defs>
       <path id="CMR17-5e" d="M 1466 4421 
L 678 3555 
L 755 3478 
L 1466 4166 
L 2176 3478 
L 2253 3555 
L 1466 4421 
z
" transform="scale(0.015625)"/>
       <path id="CMMI12-50" d="M 1894 2023 
L 2970 2023 
C 3853 2023 4736 2673 4736 3401 
C 4736 3898 4314 4352 3507 4352 
L 1530 4352 
C 1408 4352 1350 4352 1350 4231 
C 1350 4167 1408 4167 1504 4167 
C 1894 4167 1894 4116 1894 4046 
C 1894 4034 1894 3995 1869 3899 
L 1005 472 
C 947 249 934 185 486 185 
C 365 185 301 185 301 70 
C 301 0 358 0 397 0 
C 518 0 646 0 768 0 
L 1517 0 
C 1638 0 1773 0 1894 0 
C 1946 0 2016 0 2016 121 
C 2016 185 1958 185 1862 185 
C 1478 185 1472 230 1472 293 
C 1472 325 1478 369 1485 401 
L 1894 2023 
z
M 2355 3930 
C 2413 4167 2438 4167 2688 4167 
L 3322 4167 
C 3802 4167 4198 4013 4198 3535 
C 4198 3369 4115 2827 3821 2534 
C 3712 2419 3405 2176 2822 2176 
L 1920 2176 
L 2355 3930 
z
" transform="scale(0.015625)"/>
      </defs>
      <use xlink:href="#CMR17-5e" transform="translate(38.212918 25.189733) scale(0.996264)"/>
      <use xlink:href="#CMMI12-50" transform="scale(0.996264)"/>
      <use xlink:href="#CMR17-31" transform="translate(76.425821 0) scale(0.996264)"/>
     </g>
    </g>
    <g id="line2d_27">
     <path d="M 47.850582 49.211041 
L 61.850582 49.211041 
L 75.850582 49.211041 
" style="fill: none; stroke: #ff9896; stroke-width: 2; stroke-linecap: square"/>
    </g>
    <g id="text_16">
     <!-- $\hat{P2}$ -->
     <g transform="translate(87.050582 54.111041) scale(0.14 -0.14)">
      <use xlink:href="#CMR17-5e" transform="translate(38.212918 25.189733) scale(0.996264)"/>
      <use xlink:href="#CMMI12-50" transform="scale(0.996264)"/>
      <use xlink:href="#CMR17-32" transform="translate(76.425821 0) scale(0.996264)"/>
     </g>
    </g>
    <g id="line2d_28">
     <path d="M 47.850582 68.723069 
L 61.850582 68.723069 
L 75.850582 68.723069 
" style="fill: none; stroke-dasharray: 19.2,4.8,3,4.8; stroke-dashoffset: 0; stroke: #2ca02c; stroke-width: 3"/>
    </g>
    <g id="text_17">
     <!-- $P1_{int}$ -->
     <g transform="translate(87.050582 73.623069) scale(0.14 -0.14)">
      <defs>
       <path id="CMMI12-69" d="M 1811 913 
C 1811 945 1786 971 1747 971 
C 1690 971 1683 952 1651 843 
C 1485 262 1222 64 1011 64 
C 934 64 845 83 845 275 
C 845 447 922 639 992 830 
L 1440 2018 
C 1459 2069 1504 2184 1504 2305 
C 1504 2574 1312 2816 998 2816 
C 410 2816 173 1890 173 1839 
C 173 1814 198 1782 243 1782 
C 301 1782 307 1807 333 1896 
C 486 2428 730 2682 979 2682 
C 1037 2682 1146 2682 1146 2478 
C 1146 2312 1062 2101 1011 1961 
L 563 773 
C 525 671 486 568 486 453 
C 486 166 685 -64 992 -64 
C 1581 -64 1811 869 1811 913 
z
M 1760 4013 
C 1760 4109 1683 4224 1542 4224 
C 1395 4224 1229 4083 1229 3917 
C 1229 3758 1363 3707 1440 3707 
C 1613 3707 1760 3873 1760 4013 
z
" transform="scale(0.015625)"/>
       <path id="CMMI12-6e" d="M 1318 1871 
C 1331 1910 1491 2229 1728 2433 
C 1894 2586 2112 2689 2362 2689 
C 2618 2689 2707 2497 2707 2242 
C 2707 1878 2445 1150 2317 805 
C 2259 651 2227 568 2227 453 
C 2227 166 2426 -64 2733 -64 
C 3328 -64 3552 875 3552 913 
C 3552 945 3526 971 3488 971 
C 3430 971 3424 952 3392 843 
C 3245 319 3002 64 2752 64 
C 2688 64 2586 64 2586 269 
C 2586 429 2656 621 2694 710 
C 2822 1063 3091 1780 3091 2145 
C 3091 2528 2867 2816 2381 2816 
C 1811 2816 1510 2415 1395 2255 
C 1376 2618 1114 2816 832 2816 
C 627 2816 486 2695 378 2478 
C 262 2248 173 1865 173 1839 
C 173 1814 198 1782 243 1782 
C 294 1782 301 1788 339 1935 
C 442 2325 557 2689 813 2689 
C 960 2689 1011 2586 1011 2395 
C 1011 2254 947 2005 902 1807 
L 723 1118 
C 698 996 627 709 595 594 
C 550 428 480 128 480 96 
C 480 6 550 -64 646 -64 
C 723 -64 813 -26 864 70 
C 877 102 934 326 966 453 
L 1107 1028 
L 1318 1871 
z
" transform="scale(0.015625)"/>
       <path id="CMMI12-74" d="M 1286 2566 
L 1875 2566 
C 1997 2566 2061 2566 2061 2681 
C 2061 2752 2022 2752 1894 2752 
L 1331 2752 
L 1568 3692 
C 1594 3781 1594 3794 1594 3840 
C 1594 3943 1510 4000 1427 4000 
C 1376 4000 1229 3981 1178 3775 
L 928 2752 
L 326 2752 
C 198 2752 141 2752 141 2630 
C 141 2566 186 2566 307 2566 
L 877 2566 
L 454 881 
C 403 658 384 594 384 511 
C 384 211 595 -64 954 -64 
C 1600 -64 1946 868 1946 912 
C 1946 951 1920 970 1882 970 
C 1869 970 1843 970 1830 944 
C 1824 938 1818 931 1773 829 
C 1638 511 1344 64 973 64 
C 781 64 768 224 768 364 
C 768 370 768 492 787 568 
L 1286 2566 
z
" transform="scale(0.015625)"/>
      </defs>
      <use xlink:href="#CMMI12-50" transform="scale(0.996264)"/>
      <use xlink:href="#CMR17-31" transform="translate(76.425821 0) scale(0.996264)"/>
      <use xlink:href="#CMMI12-69" transform="translate(122.116298 -14.943915) scale(0.697382)"/>
      <use xlink:href="#CMMI12-6e" transform="translate(145.411205 -14.943915) scale(0.697382)"/>
      <use xlink:href="#CMMI12-74" transform="translate(186.172048 -14.943915) scale(0.697382)"/>
     </g>
    </g>
    <g id="line2d_29">
     <path d="M 47.850582 88.235098 
L 61.850582 88.235098 
L 75.850582 88.235098 
" style="fill: none; stroke-dasharray: 19.2,4.8,3,4.8; stroke-dashoffset: 0; stroke: #d62728; stroke-width: 3"/>
    </g>
    <g id="text_18">
     <!-- $P2_{int}$ -->
     <g transform="translate(87.050582 93.135098) scale(0.14 -0.14)">
      <use xlink:href="#CMMI12-50" transform="scale(0.996264)"/>
      <use xlink:href="#CMR17-32" transform="translate(76.425821 0) scale(0.996264)"/>
      <use xlink:href="#CMMI12-69" transform="translate(122.116298 -14.943915) scale(0.697382)"/>
      <use xlink:href="#CMMI12-6e" transform="translate(145.411205 -14.943915) scale(0.697382)"/>
      <use xlink:href="#CMMI12-74" transform="translate(186.172048 -14.943915) scale(0.697382)"/>
     </g>
    </g>
   </g>
  </g>
 </g>
 <defs>
  <clipPath id="p6fb8b00287">
   <rect x="35.250582" y="10.8" width="342.492382" height="182.736948"/>
  </clipPath>
 </defs>
</svg>
