<?xml version="1.0" encoding="utf-8" standalone="no"?>
<!DOCTYPE svg PUBLIC "-//W3C//DTD SVG 1.1//EN"
  "http://www.w3.org/Graphics/SVG/1.1/DTD/svg11.dtd">
<svg xmlns:xlink="http://www.w3.org/1999/xlink" width="388.542964pt" height="240.132758pt" viewBox="0 0 388.542964 240.132758" xmlns="http://www.w3.org/2000/svg" version="1.1">
 <metadata>
  <rdf:RDF xmlns:dc="http://purl.org/dc/elements/1.1/" xmlns:cc="http://creativecommons.org/ns#" xmlns:rdf="http://www.w3.org/1999/02/22-rdf-syntax-ns#">
   <cc:Work>
    <dc:type rdf:resource="http://purl.org/dc/dcmitype/StillImage"/>
    <dc:date>2024-12-30T22:27:43.493313</dc:date>
    <dc:format>image/svg+xml</dc:format>
    <dc:creator>
     <cc:Agent>
      <dc:title>Matplotlib v3.7.5, https://matplotlib.org/</dc:title>
     </cc:Agent>
    </dc:creator>
   </cc:Work>
  </rdf:RDF>
 </metadata>
 <defs>
  <style type="text/css">*{stroke-linejoin: round; stroke-linecap: butt}</style>
 </defs>
 <g id="figure_1">
  <g id="patch_1">
   <path d="M 0 240.132758 
L 388.542964 240.132758 
L 388.542964 0 
L 0 0 
z
" style="fill: #ffffff"/>
  </g>
  <g id="axes_1">
   <g id="patch_2">
    <path d="M 49.404673 193.536948 
L 377.742964 193.536948 
L 377.742964 10.8 
L 49.404673 10.8 
z
" style="fill: #ffffff"/>
   </g>
   <g id="matplotlib.axis_1">
    <g id="xtick_1">
     <g id="line2d_1">
      <defs>
       <path id="ma21a6f58b7" d="M 0 0 
L 0 3.5 
" style="stroke: #000000; stroke-width: 0.8"/>
      </defs>
      <g>
       <use xlink:href="#ma21a6f58b7" x="63.039423" y="193.536948" style="stroke: #000000; stroke-width: 0.8"/>
      </g>
     </g>
     <g id="text_1">
      <!-- $\mathdefault{0.0}$ -->
      <g transform="translate(54.314132 210.222825) scale(0.14 -0.14)">
       <defs>
        <path id="CMR17-30" d="M 2688 2025 
C 2688 2416 2682 3080 2413 3591 
C 2176 4039 1798 4198 1466 4198 
C 1158 4198 768 4058 525 3597 
C 269 3118 243 2524 243 2025 
C 243 1661 250 1106 448 619 
C 723 -39 1216 -128 1466 -128 
C 1760 -128 2208 -7 2470 600 
C 2662 1042 2688 1559 2688 2025 
z
M 1466 -26 
C 1056 -26 813 325 723 812 
C 653 1188 653 1738 653 2096 
C 653 2588 653 2997 736 3387 
C 858 3929 1216 4096 1466 4096 
C 1728 4096 2067 3923 2189 3400 
C 2272 3036 2278 2607 2278 2096 
C 2278 1680 2278 1169 2202 792 
C 2067 95 1690 -26 1466 -26 
z
" transform="scale(0.015625)"/>
        <path id="CMMI12-3a" d="M 1178 307 
C 1178 492 1024 619 870 619 
C 685 619 557 466 557 313 
C 557 128 710 0 864 0 
C 1050 0 1178 153 1178 307 
z
" transform="scale(0.015625)"/>
       </defs>
       <use xlink:href="#CMR17-30" transform="scale(0.996264)"/>
       <use xlink:href="#CMMI12-3a" transform="translate(45.690477 0) scale(0.996264)"/>
       <use xlink:href="#CMR17-30" transform="translate(72.787654 0) scale(0.996264)"/>
      </g>
     </g>
    </g>
    <g id="xtick_2">
     <g id="line2d_2">
      <g>
       <use xlink:href="#ma21a6f58b7" x="123.100724" y="193.536948" style="stroke: #000000; stroke-width: 0.8"/>
      </g>
     </g>
     <g id="text_2">
      <!-- $\mathdefault{0.2}$ -->
      <g transform="translate(114.375433 210.222825) scale(0.14 -0.14)">
       <defs>
        <path id="CMR17-32" d="M 2669 989 
L 2554 989 
C 2490 536 2438 459 2413 420 
C 2381 369 1920 369 1830 369 
L 602 369 
C 832 619 1280 1072 1824 1597 
C 2214 1967 2669 2402 2669 3035 
C 2669 3790 2067 4224 1395 4224 
C 691 4224 262 3604 262 3030 
C 262 2780 448 2748 525 2748 
C 589 2748 781 2787 781 3010 
C 781 3207 614 3264 525 3264 
C 486 3264 448 3258 422 3245 
C 544 3790 915 4058 1306 4058 
C 1862 4058 2227 3617 2227 3035 
C 2227 2479 1901 2000 1536 1584 
L 262 146 
L 262 0 
L 2515 0 
L 2669 989 
z
" transform="scale(0.015625)"/>
       </defs>
       <use xlink:href="#CMR17-30" transform="scale(0.996264)"/>
       <use xlink:href="#CMMI12-3a" transform="translate(45.690477 0) scale(0.996264)"/>
       <use xlink:href="#CMR17-32" transform="translate(72.787654 0) scale(0.996264)"/>
      </g>
     </g>
    </g>
    <g id="xtick_3">
     <g id="line2d_3">
      <g>
       <use xlink:href="#ma21a6f58b7" x="183.162025" y="193.536948" style="stroke: #000000; stroke-width: 0.8"/>
      </g>
     </g>
     <g id="text_3">
      <!-- $\mathdefault{0.4}$ -->
      <g transform="translate(174.436734 210.222825) scale(0.14 -0.14)">
       <defs>
        <path id="CMR17-34" d="M 2150 4122 
C 2150 4256 2144 4256 2029 4256 
L 128 1254 
L 128 1088 
L 1779 1088 
L 1779 457 
C 1779 224 1766 160 1318 160 
L 1197 160 
L 1197 0 
C 1402 0 1747 0 1965 0 
C 2182 0 2528 0 2733 0 
L 2733 160 
L 2611 160 
C 2163 160 2150 224 2150 457 
L 2150 1088 
L 2803 1088 
L 2803 1254 
L 2150 1254 
L 2150 4122 
z
M 1798 3703 
L 1798 1254 
L 256 1254 
L 1798 3703 
z
" transform="scale(0.015625)"/>
       </defs>
       <use xlink:href="#CMR17-30" transform="scale(0.996264)"/>
       <use xlink:href="#CMMI12-3a" transform="translate(45.690477 0) scale(0.996264)"/>
       <use xlink:href="#CMR17-34" transform="translate(72.787654 0) scale(0.996264)"/>
      </g>
     </g>
    </g>
    <g id="xtick_4">
     <g id="line2d_4">
      <g>
       <use xlink:href="#ma21a6f58b7" x="243.223326" y="193.536948" style="stroke: #000000; stroke-width: 0.8"/>
      </g>
     </g>
     <g id="text_4">
      <!-- $\mathdefault{0.6}$ -->
      <g transform="translate(234.498035 210.222825) scale(0.14 -0.14)">
       <defs>
        <path id="CMR17-36" d="M 678 2176 
C 678 3690 1395 4032 1811 4032 
C 1946 4032 2272 4009 2400 3776 
C 2298 3776 2106 3776 2106 3553 
C 2106 3381 2246 3323 2336 3323 
C 2394 3323 2566 3348 2566 3560 
C 2566 3954 2246 4179 1805 4179 
C 1043 4179 243 3390 243 1984 
C 243 253 966 -128 1478 -128 
C 2099 -128 2688 427 2688 1283 
C 2688 2081 2170 2662 1517 2662 
C 1126 2662 838 2407 678 1960 
L 678 2176 
z
M 1478 25 
C 691 25 691 1200 691 1436 
C 691 1896 909 2560 1504 2560 
C 1613 2560 1926 2560 2138 2120 
C 2253 1870 2253 1609 2253 1289 
C 2253 944 2253 690 2118 434 
C 1978 171 1773 25 1478 25 
z
" transform="scale(0.015625)"/>
       </defs>
       <use xlink:href="#CMR17-30" transform="scale(0.996264)"/>
       <use xlink:href="#CMMI12-3a" transform="translate(45.690477 0) scale(0.996264)"/>
       <use xlink:href="#CMR17-36" transform="translate(72.787654 0) scale(0.996264)"/>
      </g>
     </g>
    </g>
    <g id="xtick_5">
     <g id="line2d_5">
      <g>
       <use xlink:href="#ma21a6f58b7" x="303.284627" y="193.536948" style="stroke: #000000; stroke-width: 0.8"/>
      </g>
     </g>
     <g id="text_5">
      <!-- $\mathdefault{0.8}$ -->
      <g transform="translate(294.559336 210.222825) scale(0.14 -0.14)">
       <defs>
        <path id="CMR17-38" d="M 1741 2264 
C 2144 2467 2554 2773 2554 3263 
C 2554 3841 1990 4179 1472 4179 
C 890 4179 378 3759 378 3180 
C 378 3021 416 2747 666 2505 
C 730 2442 998 2251 1171 2130 
C 883 1983 211 1634 211 934 
C 211 279 838 -128 1459 -128 
C 2144 -128 2720 362 2720 1010 
C 2720 1590 2330 1857 2074 2029 
L 1741 2264 
z
M 902 2822 
C 851 2854 595 3051 595 3351 
C 595 3739 998 4032 1459 4032 
C 1965 4032 2336 3676 2336 3262 
C 2336 2669 1670 2331 1638 2331 
C 1632 2331 1626 2331 1574 2370 
L 902 2822 
z
M 2080 1519 
C 2176 1449 2483 1240 2483 851 
C 2483 381 2010 25 1472 25 
C 890 25 448 438 448 940 
C 448 1443 838 1862 1280 2060 
L 2080 1519 
z
" transform="scale(0.015625)"/>
       </defs>
       <use xlink:href="#CMR17-30" transform="scale(0.996264)"/>
       <use xlink:href="#CMMI12-3a" transform="translate(45.690477 0) scale(0.996264)"/>
       <use xlink:href="#CMR17-38" transform="translate(72.787654 0) scale(0.996264)"/>
      </g>
     </g>
    </g>
    <g id="xtick_6">
     <g id="line2d_6">
      <g>
       <use xlink:href="#ma21a6f58b7" x="363.345928" y="193.536948" style="stroke: #000000; stroke-width: 0.8"/>
      </g>
     </g>
     <g id="text_6">
      <!-- $\mathdefault{1.0}$ -->
      <g transform="translate(354.620637 210.222825) scale(0.14 -0.14)">
       <defs>
        <path id="CMR17-31" d="M 1702 4058 
C 1702 4192 1696 4192 1606 4192 
C 1357 3916 979 3827 621 3827 
C 602 3827 570 3827 563 3808 
C 557 3795 557 3782 557 3648 
C 755 3648 1088 3686 1344 3839 
L 1344 461 
C 1344 236 1331 160 781 160 
L 589 160 
L 589 0 
C 896 0 1216 0 1523 0 
C 1830 0 2150 0 2458 0 
L 2458 160 
L 2266 160 
C 1715 160 1702 230 1702 458 
L 1702 4058 
z
" transform="scale(0.015625)"/>
       </defs>
       <use xlink:href="#CMR17-31" transform="scale(0.996264)"/>
       <use xlink:href="#CMMI12-3a" transform="translate(45.690477 0) scale(0.996264)"/>
       <use xlink:href="#CMR17-30" transform="translate(72.787654 0) scale(0.996264)"/>
      </g>
     </g>
    </g>
    <g id="text_7">
     <!-- S -->
     <g transform="translate(209.780214 226.620729) scale(0.14 -0.14)">
      <defs>
       <path id="CMR17-53" d="M 2803 4290 
C 2803 4404 2797 4411 2758 4411 
C 2720 4411 2707 4385 2682 4328 
L 2490 3907 
C 2246 4257 1875 4416 1472 4416 
C 819 4416 294 3901 294 3253 
C 294 3056 339 2776 557 2510 
C 794 2218 1018 2167 1530 2033 
C 1722 1982 2042 1899 2106 1874 
C 2470 1722 2662 1341 2662 985 
C 2662 527 2336 38 1779 38 
C 1094 38 454 419 410 1311 
C 403 1413 397 1419 352 1419 
C 301 1419 294 1413 294 1285 
L 294 -1 
C 294 -115 301 -122 339 -122 
C 384 -122 397 -90 486 108 
C 493 127 493 140 614 381 
C 934 -39 1472 -128 1779 -128 
C 2477 -128 2970 451 2970 1124 
C 2970 1454 2848 1708 2778 1823 
C 2509 2230 2221 2306 1914 2382 
C 1869 2402 1856 2402 1498 2490 
C 1152 2579 1005 2624 845 2796 
C 666 2992 602 3196 602 3399 
C 602 3812 934 4263 1478 4263 
C 2157 4263 2579 3786 2675 2993 
C 2694 2878 2701 2872 2746 2872 
C 2803 2872 2803 2891 2803 2999 
L 2803 4290 
z
" transform="scale(0.015625)"/>
      </defs>
      <use xlink:href="#CMR17-53" transform="scale(0.996264)"/>
     </g>
    </g>
   </g>
   <g id="matplotlib.axis_2">
    <g id="ytick_1">
     <g id="line2d_7">
      <defs>
       <path id="md10b06db97" d="M 0 0 
L -3.5 0 
" style="stroke: #000000; stroke-width: 0.8"/>
      </defs>
      <g>
       <use xlink:href="#md10b06db97" x="49.404673" y="185.231554" style="stroke: #000000; stroke-width: 0.8"/>
      </g>
     </g>
     <g id="text_8">
      <!-- $\mathdefault{0}$ -->
      <g transform="translate(35.576185 190.074492) scale(0.14 -0.14)">
       <use xlink:href="#CMR17-30" transform="scale(0.996264)"/>
      </g>
     </g>
    </g>
    <g id="ytick_2">
     <g id="line2d_8">
      <g>
       <use xlink:href="#md10b06db97" x="49.404673" y="161.042244" style="stroke: #000000; stroke-width: 0.8"/>
      </g>
     </g>
     <g id="text_9">
      <!-- $\mathdefault{2}$ -->
      <g transform="translate(35.576185 165.885182) scale(0.14 -0.14)">
       <use xlink:href="#CMR17-32" transform="scale(0.996264)"/>
      </g>
     </g>
    </g>
    <g id="ytick_3">
     <g id="line2d_9">
      <g>
       <use xlink:href="#md10b06db97" x="49.404673" y="136.852934" style="stroke: #000000; stroke-width: 0.8"/>
      </g>
     </g>
     <g id="text_10">
      <!-- $\mathdefault{4}$ -->
      <g transform="translate(35.576185 141.695872) scale(0.14 -0.14)">
       <use xlink:href="#CMR17-34" transform="scale(0.996264)"/>
      </g>
     </g>
    </g>
    <g id="ytick_4">
     <g id="line2d_10">
      <g>
       <use xlink:href="#md10b06db97" x="49.404673" y="112.663624" style="stroke: #000000; stroke-width: 0.8"/>
      </g>
     </g>
     <g id="text_11">
      <!-- $\mathdefault{6}$ -->
      <g transform="translate(35.576185 117.506563) scale(0.14 -0.14)">
       <use xlink:href="#CMR17-36" transform="scale(0.996264)"/>
      </g>
     </g>
    </g>
    <g id="ytick_5">
     <g id="line2d_11">
      <g>
       <use xlink:href="#md10b06db97" x="49.404673" y="88.474315" style="stroke: #000000; stroke-width: 0.8"/>
      </g>
     </g>
     <g id="text_12">
      <!-- $\mathdefault{8}$ -->
      <g transform="translate(35.576185 93.317253) scale(0.14 -0.14)">
       <use xlink:href="#CMR17-38" transform="scale(0.996264)"/>
      </g>
     </g>
    </g>
    <g id="ytick_6">
     <g id="line2d_12">
      <g>
       <use xlink:href="#md10b06db97" x="49.404673" y="64.285005" style="stroke: #000000; stroke-width: 0.8"/>
      </g>
     </g>
     <g id="text_13">
      <!-- $\mathdefault{10}$ -->
      <g transform="translate(28.747696 69.127943) scale(0.14 -0.14)">
       <use xlink:href="#CMR17-31" transform="scale(0.996264)"/>
       <use xlink:href="#CMR17-30" transform="translate(45.690477 0) scale(0.996264)"/>
      </g>
     </g>
    </g>
    <g id="ytick_7">
     <g id="line2d_13">
      <g>
       <use xlink:href="#md10b06db97" x="49.404673" y="40.095695" style="stroke: #000000; stroke-width: 0.8"/>
      </g>
     </g>
     <g id="text_14">
      <!-- $\mathdefault{12}$ -->
      <g transform="translate(28.747696 44.938633) scale(0.14 -0.14)">
       <use xlink:href="#CMR17-31" transform="scale(0.996264)"/>
       <use xlink:href="#CMR17-32" transform="translate(45.690477 0) scale(0.996264)"/>
      </g>
     </g>
    </g>
    <g id="ytick_8">
     <g id="line2d_14">
      <g>
       <use xlink:href="#md10b06db97" x="49.404673" y="15.906385" style="stroke: #000000; stroke-width: 0.8"/>
      </g>
     </g>
     <g id="text_15">
      <!-- $\mathdefault{14}$ -->
      <g transform="translate(28.747696 20.749324) scale(0.14 -0.14)">
       <use xlink:href="#CMR17-31" transform="scale(0.996264)"/>
       <use xlink:href="#CMR17-34" transform="translate(45.690477 0) scale(0.996264)"/>
      </g>
     </g>
    </g>
    <g id="text_16">
     <!-- $\phi_2(S)$ -->
     <g transform="translate(21.260772 118.884194) rotate(-90) scale(0.14 -0.14)">
      <defs>
       <path id="CMMI12-1e" d="M 2752 4390 
C 2752 4448 2707 4448 2688 4448 
C 2630 4448 2624 4435 2598 4326 
L 2253 2939 
C 2234 2856 2227 2849 2221 2843 
C 2214 2830 2170 2824 2157 2824 
C 1107 2734 301 1864 301 1057 
C 301 361 832 -64 1498 -64 
C 1446 -261 1402 -463 1350 -659 
C 1261 -995 1210 -1204 1210 -1229 
C 1210 -1241 1210 -1280 1274 -1280 
C 1293 -1280 1318 -1280 1331 -1254 
C 1344 -1241 1382 -1089 1408 -1008 
L 1645 -64 
C 2739 -64 3571 854 3571 1680 
C 3571 2343 3085 2816 2374 2816 
L 2752 4390 
z
M 2336 2701 
C 2758 2701 3181 2463 3181 1828 
C 3181 1097 2675 128 1677 50 
L 2336 2701 
z
M 1530 50 
C 1216 50 691 220 691 938 
C 691 1761 1274 2676 2195 2676 
L 1530 50 
z
" transform="scale(0.015625)"/>
       <path id="CMR17-28" d="M 1958 -1561 
C 1958 -1555 1958 -1542 1939 -1523 
C 1645 -1224 858 -407 858 1581 
C 858 3569 1632 4379 1946 4697 
C 1946 4704 1958 4717 1958 4736 
C 1958 4755 1939 4768 1914 4768 
C 1843 4768 1299 4296 986 3594 
C 666 2887 576 2199 576 1588 
C 576 1128 621 351 1005 -471 
C 1312 -1135 1837 -1600 1914 -1600 
C 1946 -1600 1958 -1587 1958 -1561 
z
" transform="scale(0.015625)"/>
       <path id="CMMI12-53" d="M 4064 4423 
C 4064 4480 4019 4480 4006 4480 
C 3981 4480 3974 4474 3898 4378 
C 3859 4333 3597 4001 3590 3995 
C 3379 4410 2957 4480 2688 4480 
C 1875 4480 1139 3743 1139 3025 
C 1139 2549 1427 2269 1741 2161 
C 1811 2135 2189 2033 2381 1989 
C 2707 1900 2790 1875 2925 1735 
C 2950 1703 3078 1557 3078 1258 
C 3078 667 2528 57 1888 57 
C 1363 57 781 280 781 991 
C 781 1112 806 1265 826 1328 
C 826 1348 832 1378 832 1391 
C 832 1417 819 1449 768 1449 
C 710 1449 704 1436 678 1328 
L 352 24 
C 352 18 326 -64 326 -71 
C 326 -128 378 -128 390 -128 
C 416 -128 422 -122 499 -26 
L 794 356 
C 947 126 1280 -128 1875 -128 
C 2701 -128 3456 666 3456 1460 
C 3456 1728 3392 1963 3149 2197 
C 3014 2331 2899 2363 2310 2516 
C 1882 2630 1824 2649 1709 2751 
C 1600 2858 1517 3011 1517 3227 
C 1517 3761 2061 4308 2669 4308 
C 3296 4308 3590 3926 3590 3323 
C 3590 3158 3558 2986 3558 2961 
C 3558 2903 3610 2903 3629 2903 
C 3686 2903 3693 2922 3718 3024 
L 4064 4423 
z
" transform="scale(0.015625)"/>
       <path id="CMR17-29" d="M 1683 1581 
C 1683 2040 1638 2817 1254 3639 
C 947 4303 422 4768 346 4768 
C 326 4768 301 4761 301 4729 
C 301 4717 307 4710 314 4697 
C 621 4378 1402 3568 1402 1584 
C 1402 -407 627 -1217 314 -1537 
C 307 -1549 301 -1556 301 -1568 
C 301 -1600 326 -1600 346 -1600 
C 416 -1600 960 -1128 1274 -426 
C 1594 281 1683 969 1683 1581 
z
" transform="scale(0.015625)"/>
      </defs>
      <use xlink:href="#CMMI12-1e" transform="scale(0.996264)"/>
      <use xlink:href="#CMR17-32" transform="translate(57.73418 -14.943915) scale(0.697382)"/>
      <use xlink:href="#CMR17-28" transform="translate(90.215494 0) scale(0.996264)"/>
      <use xlink:href="#CMMI12-53" transform="translate(125.496262 0) scale(0.996264)"/>
      <use xlink:href="#CMR17-29" transform="translate(191.290701 0) scale(0.996264)"/>
     </g>
    </g>
   </g>
   <g id="line2d_15">
    <path d="M 362.72148 171.173683 
L 361.638479 172.898172 
L 360.43879 174.397982 
L 359.078147 175.667807 
L 357.496193 176.685636 
L 356.598363 177.086008 
L 355.612987 177.402152 
L 354.526155 177.620368 
L 353.321938 177.721501 
L 351.98324 177.677899 
L 350.489763 177.448357 
L 348.820495 176.969406 
L 346.952969 176.140604 
L 344.863989 174.799738 
L 342.530732 172.683845 
L 339.932095 169.375835 
L 337.050035 164.257636 
L 333.871287 156.54335 
L 330.39059 145.538257 
L 326.611757 131.180393 
L 322.548408 114.524163 
L 318.227376 97.512664 
L 313.68752 81.949741 
L 308.979229 68.62918 
L 304.160085 57.327386 
L 299.295869 47.405804 
L 294.453366 38.402105 
L 289.697891 30.366519 
L 285.089229 23.893193 
L 280.679433 19.882764 
L 276.508131 19.133873 
L 272.606238 21.965224 
L 268.991973 28.064283 
L 265.673985 36.616343 
L 262.652146 46.595135 
L 259.917919 57.042372 
L 255.255379 76.673659 
L 248.623106 104.865289 
L 241.470831 134.043896 
L 240.269262 137.668333 
L 239.348897 139.605924 
L 238.617839 140.590442 
L 238.016786 141.070534 
L 237.35466 141.333255 
L 236.322082 141.438002 
L 235.15225 141.569309 
L 234.32337 141.891342 
L 233.576775 142.394402 
L 232.619788 143.303708 
L 231.37449 144.797151 
L 228.993674 148.090269 
L 223.917043 155.189144 
L 221.230089 158.566203 
L 218.944535 161.171954 
L 216.419483 163.767456 
L 213.650513 166.286798 
L 210.637194 168.666607 
L 207.381881 170.854809 
L 203.889746 172.817525 
L 200.170501 174.541151 
L 196.235797 176.032201 
L 192.101243 177.310968 
L 187.786002 178.405581 
L 181.787055 179.631478 
L 175.5591 180.649776 
L 167.546406 181.702011 
L 159.396654 182.553279 
L 149.616511 183.328568 
L 140.03202 183.850006 
L 129.34363 184.196306 
L 114.143228 184.419954 
L 98.318441 184.691143 
L 75.478717 185.189372 
L 64.591565 185.230613 
L 64.591565 185.230613 
" clip-path="url(#p70c59b43fc)" style="fill: none; stroke: #1f77b4; stroke-width: 2; stroke-linecap: square"/>
   </g>
   <g id="line2d_16">
    <path d="M 362.818496 170.999936 
L 361.726169 172.772465 
L 360.51617 174.312849 
L 359.142317 175.61688 
L 357.544736 176.66062 
L 356.63819 177.070642 
L 355.643291 177.394175 
L 354.546274 177.617462 
L 353.331478 177.721239 
L 351.981217 177.677719 
L 350.475551 177.445286 
L 348.793753 176.959778 
L 346.913303 176.119422 
L 344.811436 174.759731 
L 342.465273 172.613696 
L 339.854303 169.259012 
L 336.960268 164.070657 
L 333.770995 156.262814 
L 330.280901 145.151832 
L 326.494371 130.707801 
L 322.425062 114.019477 
L 318.100056 97.039766 
L 313.558249 81.546996 
L 308.850065 68.299459 
L 304.03289 57.052522 
L 299.172004 47.166178 
L 294.333922 38.18925 
L 289.583924 30.187563 
L 284.981205 23.764965 
L 280.577512 19.824966 
L 276.412619 19.159525 
L 272.516471 22.075423 
L 268.907917 28.246664 
L 265.595029 36.852279 
L 262.57779 46.863401 
L 259.847465 57.325379 
L 255.191369 76.950403 
L 248.566096 105.100641 
L 241.418027 134.22517 
L 240.218642 137.795124 
L 239.302931 139.682074 
L 238.579337 140.629474 
L 237.99008 141.085915 
L 237.212519 141.362968 
L 235.952257 141.45511 
L 234.913576 141.637379 
L 234.070072 142.039524 
L 233.145662 142.771287 
L 232.084516 143.912442 
L 230.349287 146.175337 
L 222.356604 157.190949 
L 219.429526 160.639597 
L 216.964725 163.231653 
L 214.264758 165.756375 
L 211.328846 168.151964 
L 208.159469 170.365657 
L 204.761433 172.361462 
L 201.143195 174.122808 
L 197.316274 175.652408 
L 193.294497 176.967899 
L 189.093724 178.09583 
L 184.734029 179.065498 
L 178.709727 180.161168 
L 170.916796 181.288777 
L 162.941243 182.207215 
L 153.293656 183.067174 
L 143.752501 183.673857 
L 132.999668 184.101806 
L 120.149173 184.352582 
L 96.08312 184.751576 
L 77.35953 185.169188 
L 64.794644 185.230513 
L 64.794644 185.230513 
" clip-path="url(#p70c59b43fc)" style="fill: none; stroke: #1f77b4; stroke-width: 2; stroke-linecap: square"/>
   </g>
   <g id="line2d_17">
    <path d="M 362.469524 171.609527 
L 361.402687 173.224774 
L 360.223349 174.627248 
L 358.886406 175.815183 
L 357.333019 176.767076 
L 355.482982 177.435113 
L 354.414891 177.635644 
L 353.230721 177.723588 
L 351.913019 177.671317 
L 350.441757 177.437877 
L 348.795596 176.960442 
L 346.951716 176.139934 
L 344.886936 174.817106 
L 342.577486 172.733549 
L 340.002011 169.479912 
L 337.141573 164.446503 
L 333.982874 156.85275 
L 330.519754 145.990415 
L 326.755491 131.757526 
L 322.703437 115.159383 
L 318.390245 98.120582 
L 313.854274 82.472525 
L 309.146788 69.059342 
L 304.325191 57.685631 
L 299.45566 47.715721 
L 294.605782 38.6742 
L 289.841303 30.593203 
L 285.2226 24.05367 
L 280.802332 19.95505 
L 276.620595 19.106225 
L 272.708319 21.842568 
L 269.084533 27.865477 
L 265.757701 36.367824 
L 262.727951 46.322705 
L 259.986582 56.767081 
L 255.312353 76.42755 
L 248.66526 104.690987 
L 241.491129 133.973652 
L 240.277299 137.64796 
L 239.338444 139.623456 
L 238.580733 140.62805 
L 237.942825 141.112124 
L 237.211534 141.363146 
L 235.947406 141.455424 
L 235.018145 141.60523 
L 234.159445 141.984488 
L 233.36402 142.573118 
L 232.426972 143.51609 
L 230.988198 145.305557 
L 228.310533 149.070476 
L 224.014042 155.061089 
L 221.272493 158.515498 
L 218.929803 161.18794 
L 216.330558 163.853573 
L 213.468241 166.441128 
L 210.340471 168.881821 
L 208.108527 170.39835 
L 205.760673 171.811739 
L 203.299469 173.114454 
L 199.401737 174.856919 
L 195.270388 176.354451 
L 190.924 177.631091 
L 186.384234 178.718969 
L 180.075024 179.933155 
L 173.53429 180.939317 
L 165.145784 181.973491 
L 156.658954 182.796385 
L 148.221223 183.418548 
L 138.351492 183.919391 
L 127.446387 184.237029 
L 109.674653 184.471898 
L 95.680726 184.762803 
L 77.684275 185.165179 
L 64.329141 185.230723 
L 64.329141 185.230723 
" clip-path="url(#p70c59b43fc)" style="fill: none; stroke: #1f77b4; stroke-width: 2; stroke-linecap: square"/>
   </g>
   <g id="line2d_18">
    <path d="M 362.674296 171.256938 
L 361.594732 172.960027 
L 360.399625 174.440529 
L 359.044281 175.694375 
L 357.468681 176.699657 
L 356.574181 177.095251 
L 355.592581 177.407454 
L 354.509831 177.62268 
L 353.310231 177.721807 
L 351.976116 177.677247 
L 350.48758 177.447886 
L 348.823359 176.970435 
L 346.960988 176.144869 
L 344.877288 174.809814 
L 342.549437 172.703737 
L 339.95574 169.411118 
L 337.078227 164.315987 
L 333.904115 156.634653 
L 330.427142 145.666516 
L 326.651727 131.341043 
L 322.590669 114.697265 
L 318.271337 97.676561 
L 313.732162 82.089273 
L 309.023889 68.743612 
L 304.204154 57.422925 
L 299.338703 47.488783 
L 294.494464 38.475463 
L 289.736823 30.427951 
L 285.12587 23.937035 
L 280.713729 19.902869 
L 276.5401 19.125626 
L 272.635629 21.929721 
L 269.019449 28.004916 
L 265.699331 36.54092 
L 262.675737 46.51023 
L 259.939846 56.95433 
L 255.274853 76.589562 
L 248.639538 104.797334 
L 241.484184 133.99777 
L 240.280933 137.638793 
L 239.357775 139.591019 
L 238.62226 140.585886 
L 238.015032 141.07161 
L 237.340841 141.336488 
L 236.387792 141.435516 
L 235.102131 141.582028 
L 234.324748 141.890578 
L 233.53267 142.430268 
L 232.530916 143.40057 
L 231.239634 144.972819 
L 228.787703 148.385384 
L 224.209005 154.802558 
L 221.56177 158.167509 
L 218.498654 161.651626 
L 215.917756 164.248759 
L 213.088929 166.757948 
L 210.01161 169.116515 
L 206.688645 171.27416 
L 203.126353 173.199775 
L 199.33456 174.883915 
L 195.326584 176.336121 
L 191.118632 177.579368 
L 186.730897 178.643172 
L 180.639427 179.835716 
L 174.326583 180.828128 
L 166.221795 181.854052 
L 158.00108 182.679797 
L 148.16662 183.421969 
L 138.565572 183.91089 
L 127.906198 184.227639 
L 110.360725 184.463209 
L 96.337885 184.744512 
L 77.087832 185.172428 
L 64.523262 185.230643 
L 64.523262 185.230643 
" clip-path="url(#p70c59b43fc)" style="fill: none; stroke: #1f77b4; stroke-width: 2; stroke-linecap: square"/>
   </g>
   <g id="line2d_19">
    <path d="M 362.534482 171.499247 
L 361.464118 173.141268 
L 360.280002 174.568046 
L 358.93801 175.776214 
L 357.378055 176.74499 
L 355.520643 177.425771 
L 354.448202 177.631215 
L 353.259611 177.72301 
L 351.937202 177.673635 
L 350.461017 177.442109 
L 348.809594 176.965489 
L 346.960648 176.144684 
L 344.890319 174.819679 
L 342.575446 172.731375 
L 339.994654 169.469035 
L 337.129455 164.421587 
L 333.966245 156.806806 
L 330.499098 145.918337 
L 326.731541 131.661451 
L 322.677017 115.051122 
L 318.361802 98.014224 
L 313.82499 82.380458 
L 309.117128 68.982985 
L 304.296051 57.622181 
L 299.427593 47.661221 
L 294.579273 38.626956 
L 289.816745 30.554194 
L 285.200189 24.026611 
L 280.782159 19.943147 
L 276.602641 19.110423 
L 272.692872 21.861103 
L 269.071 27.89437 
L 265.746174 36.401885 
L 262.717981 46.358404 
L 259.978258 56.800277 
L 255.306769 76.451576 
L 248.663363 104.698836 
L 241.495962 133.956956 
L 240.285927 137.626105 
L 239.352638 139.599638 
L 238.602481 140.606201 
L 237.974919 141.094514 
L 237.262423 141.353377 
L 236.059906 141.449014 
L 235.057364 141.594142 
L 234.265286 141.923177 
L 233.329384 142.603557 
L 232.170309 143.810969 
L 230.702429 145.690773 
L 226.997808 150.950173 
L 223.563865 155.651793 
L 220.770855 159.109613 
L 218.390898 161.766146 
L 215.757035 164.400579 
L 212.864306 166.942772 
L 209.711567 169.327196 
L 206.301099 171.501906 
L 203.887366 172.818738 
L 200.064445 174.585485 
L 196.010771 176.108717 
L 191.743125 177.410208 
L 187.282645 178.520243 
L 182.652665 179.471699 
L 176.262235 180.54495 
L 168.02311 181.645906 
L 159.635542 182.53108 
L 151.243993 183.217254 
L 141.35817 183.790856 
L 130.343206 184.17266 
L 116.053672 184.399412 
L 98.613579 184.683478 
L 75.262091 185.19135 
L 64.378344 185.230704 
L 64.378344 185.230704 
" clip-path="url(#p70c59b43fc)" style="fill: none; stroke: #1f77b4; stroke-width: 2; stroke-linecap: square"/>
   </g>
   <g id="patch_3">
    <path d="M 49.404673 193.536948 
L 49.404673 10.8 
" style="fill: none; stroke: #000000; stroke-width: 0.8; stroke-linejoin: miter; stroke-linecap: square"/>
   </g>
   <g id="patch_4">
    <path d="M 377.742964 193.536948 
L 377.742964 10.8 
" style="fill: none; stroke: #000000; stroke-width: 0.8; stroke-linejoin: miter; stroke-linecap: square"/>
   </g>
   <g id="patch_5">
    <path d="M 49.404673 193.536948 
L 377.742964 193.536948 
" style="fill: none; stroke: #000000; stroke-width: 0.8; stroke-linejoin: miter; stroke-linecap: square"/>
   </g>
   <g id="patch_6">
    <path d="M 49.404673 10.8 
L 377.742964 10.8 
" style="fill: none; stroke: #000000; stroke-width: 0.8; stroke-linejoin: miter; stroke-linecap: square"/>
   </g>
   <g id="legend_1"/>
  </g>
 </g>
 <defs>
  <clipPath id="p70c59b43fc">
   <rect x="49.404673" y="10.8" width="328.33829" height="182.736948"/>
  </clipPath>
 </defs>
</svg>
