<?xml version="1.0" encoding="utf-8" standalone="no"?>
<!DOCTYPE svg PUBLIC "-//W3C//DTD SVG 1.1//EN"
  "http://www.w3.org/Graphics/SVG/1.1/DTD/svg11.dtd">
<svg xmlns:xlink="http://www.w3.org/1999/xlink" width="388.542964pt" height="240.132758pt" viewBox="0 0 388.542964 240.132758" xmlns="http://www.w3.org/2000/svg" version="1.1">
 <metadata>
  <rdf:RDF xmlns:dc="http://purl.org/dc/elements/1.1/" xmlns:cc="http://creativecommons.org/ns#" xmlns:rdf="http://www.w3.org/1999/02/22-rdf-syntax-ns#">
   <cc:Work>
    <dc:type rdf:resource="http://purl.org/dc/dcmitype/StillImage"/>
    <dc:date>2024-12-30T22:27:44.125931</dc:date>
    <dc:format>image/svg+xml</dc:format>
    <dc:creator>
     <cc:Agent>
      <dc:title>Matplotlib v3.7.5, https://matplotlib.org/</dc:title>
     </cc:Agent>
    </dc:creator>
   </cc:Work>
  </rdf:RDF>
 </metadata>
 <defs>
  <style type="text/css">*{stroke-linejoin: round; stroke-linecap: butt}</style>
 </defs>
 <g id="figure_1">
  <g id="patch_1">
   <path d="M 0 240.132758 
L 388.542964 240.132758 
L 388.542964 0 
L 0 0 
z
" style="fill: #ffffff"/>
  </g>
  <g id="axes_1">
   <g id="patch_2">
    <path d="M 31.456977 193.536948 
L 377.742964 193.536948 
L 377.742964 10.8 
L 31.456977 10.8 
z
" style="fill: #ffffff"/>
   </g>
   <g id="matplotlib.axis_1">
    <g id="xtick_1">
     <g id="line2d_1">
      <defs>
       <path id="mcbf63c9346" d="M 0 0 
L 0 3.5 
" style="stroke: #000000; stroke-width: 0.8"/>
      </defs>
      <g>
       <use xlink:href="#mcbf63c9346" x="45.837032" y="193.536948" style="stroke: #000000; stroke-width: 0.8"/>
      </g>
     </g>
     <g id="text_1">
      <!-- $\mathdefault{0.0}$ -->
      <g transform="translate(37.111741 210.222825) scale(0.14 -0.14)">
       <defs>
        <path id="CMR17-30" d="M 2688 2025 
C 2688 2416 2682 3080 2413 3591 
C 2176 4039 1798 4198 1466 4198 
C 1158 4198 768 4058 525 3597 
C 269 3118 243 2524 243 2025 
C 243 1661 250 1106 448 619 
C 723 -39 1216 -128 1466 -128 
C 1760 -128 2208 -7 2470 600 
C 2662 1042 2688 1559 2688 2025 
z
M 1466 -26 
C 1056 -26 813 325 723 812 
C 653 1188 653 1738 653 2096 
C 653 2588 653 2997 736 3387 
C 858 3929 1216 4096 1466 4096 
C 1728 4096 2067 3923 2189 3400 
C 2272 3036 2278 2607 2278 2096 
C 2278 1680 2278 1169 2202 792 
C 2067 95 1690 -26 1466 -26 
z
" transform="scale(0.015625)"/>
        <path id="CMMI12-3a" d="M 1178 307 
C 1178 492 1024 619 870 619 
C 685 619 557 466 557 313 
C 557 128 710 0 864 0 
C 1050 0 1178 153 1178 307 
z
" transform="scale(0.015625)"/>
       </defs>
       <use xlink:href="#CMR17-30" transform="scale(0.996264)"/>
       <use xlink:href="#CMMI12-3a" transform="translate(45.690477 0) scale(0.996264)"/>
       <use xlink:href="#CMR17-30" transform="translate(72.787654 0) scale(0.996264)"/>
      </g>
     </g>
    </g>
    <g id="xtick_2">
     <g id="line2d_2">
      <g>
       <use xlink:href="#mcbf63c9346" x="109.181417" y="193.536948" style="stroke: #000000; stroke-width: 0.8"/>
      </g>
     </g>
     <g id="text_2">
      <!-- $\mathdefault{0.2}$ -->
      <g transform="translate(100.456126 210.222825) scale(0.14 -0.14)">
       <defs>
        <path id="CMR17-32" d="M 2669 989 
L 2554 989 
C 2490 536 2438 459 2413 420 
C 2381 369 1920 369 1830 369 
L 602 369 
C 832 619 1280 1072 1824 1597 
C 2214 1967 2669 2402 2669 3035 
C 2669 3790 2067 4224 1395 4224 
C 691 4224 262 3604 262 3030 
C 262 2780 448 2748 525 2748 
C 589 2748 781 2787 781 3010 
C 781 3207 614 3264 525 3264 
C 486 3264 448 3258 422 3245 
C 544 3790 915 4058 1306 4058 
C 1862 4058 2227 3617 2227 3035 
C 2227 2479 1901 2000 1536 1584 
L 262 146 
L 262 0 
L 2515 0 
L 2669 989 
z
" transform="scale(0.015625)"/>
       </defs>
       <use xlink:href="#CMR17-30" transform="scale(0.996264)"/>
       <use xlink:href="#CMMI12-3a" transform="translate(45.690477 0) scale(0.996264)"/>
       <use xlink:href="#CMR17-32" transform="translate(72.787654 0) scale(0.996264)"/>
      </g>
     </g>
    </g>
    <g id="xtick_3">
     <g id="line2d_3">
      <g>
       <use xlink:href="#mcbf63c9346" x="172.525801" y="193.536948" style="stroke: #000000; stroke-width: 0.8"/>
      </g>
     </g>
     <g id="text_3">
      <!-- $\mathdefault{0.4}$ -->
      <g transform="translate(163.80051 210.222825) scale(0.14 -0.14)">
       <defs>
        <path id="CMR17-34" d="M 2150 4122 
C 2150 4256 2144 4256 2029 4256 
L 128 1254 
L 128 1088 
L 1779 1088 
L 1779 457 
C 1779 224 1766 160 1318 160 
L 1197 160 
L 1197 0 
C 1402 0 1747 0 1965 0 
C 2182 0 2528 0 2733 0 
L 2733 160 
L 2611 160 
C 2163 160 2150 224 2150 457 
L 2150 1088 
L 2803 1088 
L 2803 1254 
L 2150 1254 
L 2150 4122 
z
M 1798 3703 
L 1798 1254 
L 256 1254 
L 1798 3703 
z
" transform="scale(0.015625)"/>
       </defs>
       <use xlink:href="#CMR17-30" transform="scale(0.996264)"/>
       <use xlink:href="#CMMI12-3a" transform="translate(45.690477 0) scale(0.996264)"/>
       <use xlink:href="#CMR17-34" transform="translate(72.787654 0) scale(0.996264)"/>
      </g>
     </g>
    </g>
    <g id="xtick_4">
     <g id="line2d_4">
      <g>
       <use xlink:href="#mcbf63c9346" x="235.870185" y="193.536948" style="stroke: #000000; stroke-width: 0.8"/>
      </g>
     </g>
     <g id="text_4">
      <!-- $\mathdefault{0.6}$ -->
      <g transform="translate(227.144894 210.222825) scale(0.14 -0.14)">
       <defs>
        <path id="CMR17-36" d="M 678 2176 
C 678 3690 1395 4032 1811 4032 
C 1946 4032 2272 4009 2400 3776 
C 2298 3776 2106 3776 2106 3553 
C 2106 3381 2246 3323 2336 3323 
C 2394 3323 2566 3348 2566 3560 
C 2566 3954 2246 4179 1805 4179 
C 1043 4179 243 3390 243 1984 
C 243 253 966 -128 1478 -128 
C 2099 -128 2688 427 2688 1283 
C 2688 2081 2170 2662 1517 2662 
C 1126 2662 838 2407 678 1960 
L 678 2176 
z
M 1478 25 
C 691 25 691 1200 691 1436 
C 691 1896 909 2560 1504 2560 
C 1613 2560 1926 2560 2138 2120 
C 2253 1870 2253 1609 2253 1289 
C 2253 944 2253 690 2118 434 
C 1978 171 1773 25 1478 25 
z
" transform="scale(0.015625)"/>
       </defs>
       <use xlink:href="#CMR17-30" transform="scale(0.996264)"/>
       <use xlink:href="#CMMI12-3a" transform="translate(45.690477 0) scale(0.996264)"/>
       <use xlink:href="#CMR17-36" transform="translate(72.787654 0) scale(0.996264)"/>
      </g>
     </g>
    </g>
    <g id="xtick_5">
     <g id="line2d_5">
      <g>
       <use xlink:href="#mcbf63c9346" x="299.214569" y="193.536948" style="stroke: #000000; stroke-width: 0.8"/>
      </g>
     </g>
     <g id="text_5">
      <!-- $\mathdefault{0.8}$ -->
      <g transform="translate(290.489278 210.222825) scale(0.14 -0.14)">
       <defs>
        <path id="CMR17-38" d="M 1741 2264 
C 2144 2467 2554 2773 2554 3263 
C 2554 3841 1990 4179 1472 4179 
C 890 4179 378 3759 378 3180 
C 378 3021 416 2747 666 2505 
C 730 2442 998 2251 1171 2130 
C 883 1983 211 1634 211 934 
C 211 279 838 -128 1459 -128 
C 2144 -128 2720 362 2720 1010 
C 2720 1590 2330 1857 2074 2029 
L 1741 2264 
z
M 902 2822 
C 851 2854 595 3051 595 3351 
C 595 3739 998 4032 1459 4032 
C 1965 4032 2336 3676 2336 3262 
C 2336 2669 1670 2331 1638 2331 
C 1632 2331 1626 2331 1574 2370 
L 902 2822 
z
M 2080 1519 
C 2176 1449 2483 1240 2483 851 
C 2483 381 2010 25 1472 25 
C 890 25 448 438 448 940 
C 448 1443 838 1862 1280 2060 
L 2080 1519 
z
" transform="scale(0.015625)"/>
       </defs>
       <use xlink:href="#CMR17-30" transform="scale(0.996264)"/>
       <use xlink:href="#CMMI12-3a" transform="translate(45.690477 0) scale(0.996264)"/>
       <use xlink:href="#CMR17-38" transform="translate(72.787654 0) scale(0.996264)"/>
      </g>
     </g>
    </g>
    <g id="xtick_6">
     <g id="line2d_6">
      <g>
       <use xlink:href="#mcbf63c9346" x="362.558954" y="193.536948" style="stroke: #000000; stroke-width: 0.8"/>
      </g>
     </g>
     <g id="text_6">
      <!-- $\mathdefault{1.0}$ -->
      <g transform="translate(353.833663 210.222825) scale(0.14 -0.14)">
       <defs>
        <path id="CMR17-31" d="M 1702 4058 
C 1702 4192 1696 4192 1606 4192 
C 1357 3916 979 3827 621 3827 
C 602 3827 570 3827 563 3808 
C 557 3795 557 3782 557 3648 
C 755 3648 1088 3686 1344 3839 
L 1344 461 
C 1344 236 1331 160 781 160 
L 589 160 
L 589 0 
C 896 0 1216 0 1523 0 
C 1830 0 2150 0 2458 0 
L 2458 160 
L 2266 160 
C 1715 160 1702 230 1702 458 
L 1702 4058 
z
" transform="scale(0.015625)"/>
       </defs>
       <use xlink:href="#CMR17-31" transform="scale(0.996264)"/>
       <use xlink:href="#CMMI12-3a" transform="translate(45.690477 0) scale(0.996264)"/>
       <use xlink:href="#CMR17-30" transform="translate(72.787654 0) scale(0.996264)"/>
      </g>
     </g>
    </g>
    <g id="text_7">
     <!-- S -->
     <g transform="translate(200.806366 226.620729) scale(0.14 -0.14)">
      <defs>
       <path id="CMR17-53" d="M 2803 4290 
C 2803 4404 2797 4411 2758 4411 
C 2720 4411 2707 4385 2682 4328 
L 2490 3907 
C 2246 4257 1875 4416 1472 4416 
C 819 4416 294 3901 294 3253 
C 294 3056 339 2776 557 2510 
C 794 2218 1018 2167 1530 2033 
C 1722 1982 2042 1899 2106 1874 
C 2470 1722 2662 1341 2662 985 
C 2662 527 2336 38 1779 38 
C 1094 38 454 419 410 1311 
C 403 1413 397 1419 352 1419 
C 301 1419 294 1413 294 1285 
L 294 -1 
C 294 -115 301 -122 339 -122 
C 384 -122 397 -90 486 108 
C 493 127 493 140 614 381 
C 934 -39 1472 -128 1779 -128 
C 2477 -128 2970 451 2970 1124 
C 2970 1454 2848 1708 2778 1823 
C 2509 2230 2221 2306 1914 2382 
C 1869 2402 1856 2402 1498 2490 
C 1152 2579 1005 2624 845 2796 
C 666 2992 602 3196 602 3399 
C 602 3812 934 4263 1478 4263 
C 2157 4263 2579 3786 2675 2993 
C 2694 2878 2701 2872 2746 2872 
C 2803 2872 2803 2891 2803 2999 
L 2803 4290 
z
" transform="scale(0.015625)"/>
      </defs>
      <use xlink:href="#CMR17-53" transform="scale(0.996264)"/>
     </g>
    </g>
   </g>
   <g id="matplotlib.axis_2">
    <g id="ytick_1">
     <g id="line2d_7">
      <defs>
       <path id="mddd87de302" d="M 0 0 
L -3.5 0 
" style="stroke: #000000; stroke-width: 0.8"/>
      </defs>
      <g>
       <use xlink:href="#mddd87de302" x="31.456977" y="185.231163" style="stroke: #000000; stroke-width: 0.8"/>
      </g>
     </g>
     <g id="text_8">
      <!-- $\mathdefault{0}$ -->
      <g transform="translate(17.628489 190.074101) scale(0.14 -0.14)">
       <use xlink:href="#CMR17-30" transform="scale(0.996264)"/>
      </g>
     </g>
    </g>
    <g id="ytick_2">
     <g id="line2d_8">
      <g>
       <use xlink:href="#mddd87de302" x="31.456977" y="153.195771" style="stroke: #000000; stroke-width: 0.8"/>
      </g>
     </g>
     <g id="text_9">
      <!-- $\mathdefault{5}$ -->
      <g transform="translate(17.628489 158.038709) scale(0.14 -0.14)">
       <defs>
        <path id="CMR17-35" d="M 730 3692 
C 794 3666 1056 3584 1325 3584 
C 1920 3584 2246 3911 2432 4100 
C 2432 4157 2432 4192 2394 4192 
C 2387 4192 2374 4192 2323 4163 
C 2099 4058 1837 3973 1517 3973 
C 1325 3973 1037 3999 723 4139 
C 653 4171 640 4171 634 4171 
C 602 4171 595 4164 595 4037 
L 595 2203 
C 595 2089 595 2057 659 2057 
C 691 2057 704 2070 736 2114 
C 941 2401 1222 2522 1542 2522 
C 1766 2522 2246 2382 2246 1289 
C 2246 1085 2246 715 2054 421 
C 1894 159 1645 25 1370 25 
C 947 25 518 320 403 814 
C 429 807 480 795 506 795 
C 589 795 749 840 749 1038 
C 749 1210 627 1280 506 1280 
C 358 1280 262 1190 262 1011 
C 262 454 704 -128 1382 -128 
C 2042 -128 2669 440 2669 1264 
C 2669 2030 2170 2624 1549 2624 
C 1222 2624 947 2503 730 2274 
L 730 3692 
z
" transform="scale(0.015625)"/>
       </defs>
       <use xlink:href="#CMR17-35" transform="scale(0.996264)"/>
      </g>
     </g>
    </g>
    <g id="ytick_3">
     <g id="line2d_9">
      <g>
       <use xlink:href="#mddd87de302" x="31.456977" y="121.160379" style="stroke: #000000; stroke-width: 0.8"/>
      </g>
     </g>
     <g id="text_10">
      <!-- $\mathdefault{10}$ -->
      <g transform="translate(10.8 126.003317) scale(0.14 -0.14)">
       <use xlink:href="#CMR17-31" transform="scale(0.996264)"/>
       <use xlink:href="#CMR17-30" transform="translate(45.690477 0) scale(0.996264)"/>
      </g>
     </g>
    </g>
    <g id="ytick_4">
     <g id="line2d_10">
      <g>
       <use xlink:href="#mddd87de302" x="31.456977" y="89.124987" style="stroke: #000000; stroke-width: 0.8"/>
      </g>
     </g>
     <g id="text_11">
      <!-- $\mathdefault{15}$ -->
      <g transform="translate(10.8 93.967925) scale(0.14 -0.14)">
       <use xlink:href="#CMR17-31" transform="scale(0.996264)"/>
       <use xlink:href="#CMR17-35" transform="translate(45.690477 0) scale(0.996264)"/>
      </g>
     </g>
    </g>
    <g id="ytick_5">
     <g id="line2d_11">
      <g>
       <use xlink:href="#mddd87de302" x="31.456977" y="57.089595" style="stroke: #000000; stroke-width: 0.8"/>
      </g>
     </g>
     <g id="text_12">
      <!-- $\mathdefault{20}$ -->
      <g transform="translate(10.8 61.932533) scale(0.14 -0.14)">
       <use xlink:href="#CMR17-32" transform="scale(0.996264)"/>
       <use xlink:href="#CMR17-30" transform="translate(45.690477 0) scale(0.996264)"/>
      </g>
     </g>
    </g>
    <g id="ytick_6">
     <g id="line2d_12">
      <g>
       <use xlink:href="#mddd87de302" x="31.456977" y="25.054202" style="stroke: #000000; stroke-width: 0.8"/>
      </g>
     </g>
     <g id="text_13">
      <!-- $\mathdefault{25}$ -->
      <g transform="translate(10.8 29.897141) scale(0.14 -0.14)">
       <use xlink:href="#CMR17-32" transform="scale(0.996264)"/>
       <use xlink:href="#CMR17-35" transform="translate(45.690477 0) scale(0.996264)"/>
      </g>
     </g>
    </g>
   </g>
   <g id="line2d_13">
    <path d="M 361.703153 141.462615 
L 359.96735 134.662897 
L 357.91009 125.480557 
L 355.331059 112.605297 
L 348.969725 79.162882 
L 347.228032 70.807668 
L 345.278019 62.274253 
L 343.094521 53.856433 
L 340.653111 45.861797 
L 337.931248 38.559259 
L 334.909431 32.152217 
L 331.573313 26.805344 
L 327.916644 22.699416 
L 323.943144 20.057361 
L 319.666991 19.106702 
L 315.115897 20.008198 
L 310.331092 22.812456 
L 305.365888 27.464666 
L 300.28128 33.822813 
L 295.146702 41.646447 
L 290.033362 50.585876 
L 285.010504 60.202971 
L 280.141597 70.044165 
L 271.074088 89.078598 
L 266.950602 98.001071 
L 263.130751 106.538781 
L 259.624182 114.717158 
L 253.540979 129.757633 
L 246.539433 147.308997 
L 241.607586 158.720237 
L 237.279329 168.815669 
L 234.563356 175.236273 
L 233.15892 177.99075 
L 232.090722 179.593304 
L 231.24353 180.522901 
L 230.334889 181.188963 
L 229.583446 181.492576 
L 228.769385 181.573696 
L 228.017168 181.409129 
L 227.257854 180.983596 
L 226.599083 180.376908 
L 225.853587 179.402962 
L 224.97955 177.888222 
L 223.638035 175.044875 
L 221.933399 171.461759 
L 220.697016 169.349254 
L 219.275854 167.443237 
L 217.650865 165.701986 
L 215.136095 163.388631 
L 210.546508 159.487289 
L 207.858702 157.413978 
L 204.899182 155.440832 
L 202.773867 154.259266 
L 200.526599 153.227428 
L 198.158588 152.366519 
L 195.671266 151.682829 
L 193.068231 151.170642 
L 190.352145 150.815373 
L 186.076888 150.536162 
L 181.575963 150.506178 
L 176.871664 150.676218 
L 170.325825 151.163115 
L 163.530899 151.920824 
L 156.559359 152.942274 
L 149.487567 154.216983 
L 142.394433 155.711936 
L 133.610785 157.803733 
L 123.370337 160.482037 
L 112.087866 163.656606 
L 95.028338 168.736828 
L 83.355751 172.352992 
L 74.843031 175.24199 
L 60.838771 180.240882 
L 55.3802 182.232484 
L 47.441359 184.770936 
L 47.249142 184.797497 
L 47.249142 184.797497 
" clip-path="url(#p441854e1ff)" style="fill: none; stroke: #1f77b4; stroke-width: 2; stroke-linecap: square"/>
   </g>
   <g id="line2d_14">
    <path d="M 362.002692 142.541914 
L 360.230642 135.752935 
L 358.125565 126.494091 
L 355.484557 113.40309 
L 348.985054 79.239114 
L 347.211325 70.730654 
L 345.228086 62.068227 
L 343.011326 53.559792 
L 340.536917 45.516897 
L 337.783225 38.206171 
L 334.730995 31.82318 
L 331.36739 26.527925 
L 327.68652 22.496738 
L 323.69301 19.949772 
L 319.401263 19.10741 
L 314.839843 20.120786 
L 310.049771 23.030947 
L 305.084227 27.776778 
L 300.003734 34.211842 
L 294.877142 42.09147 
L 289.774599 51.063699 
L 284.764956 60.689189 
L 279.910642 70.519605 
L 270.873678 89.507337 
L 266.764558 98.409738 
L 262.958753 106.931555 
L 259.464775 115.097926 
L 253.403037 130.107843 
L 246.423786 147.587158 
L 241.505003 158.952054 
L 238.080346 166.880457 
L 234.478367 175.420023 
L 233.08354 178.119059 
L 232.031218 179.668541 
L 230.972346 180.756841 
L 230.168026 181.275375 
L 229.391456 181.535054 
L 228.576338 181.55421 
L 227.863595 181.345149 
L 227.197028 180.93721 
L 226.473733 180.234744 
L 225.771883 179.277625 
L 224.832528 177.599719 
L 222.969146 173.575662 
L 221.542396 170.74239 
L 220.269654 168.724565 
L 218.805638 166.903687 
L 217.136041 165.205194 
L 213.862843 162.277353 
L 209.936727 158.997881 
L 207.25464 156.982068 
L 204.324155 155.10116 
L 202.232283 153.990463 
L 200.030974 153.028787 
L 197.721456 152.230975 
L 195.30588 151.599299 
L 192.786976 151.126056 
L 188.822981 150.681103 
L 184.647533 150.501962 
L 180.27833 150.535309 
L 174.183734 150.844706 
L 167.830131 151.413238 
L 161.275089 152.224886 
L 154.579547 153.275684 
L 147.808219 154.552611 
L 139.334322 156.414201 
L 129.309779 158.902219 
L 118.051721 161.951697 
L 106.068528 165.427945 
L 85.863574 171.548047 
L 77.841722 174.202137 
L 62.403729 179.64214 
L 54.789646 182.429624 
L 47.688198 184.732991 
L 47.688198 184.732991 
" clip-path="url(#p441854e1ff)" style="fill: none; stroke: #1f77b4; stroke-width: 2; stroke-linecap: square"/>
   </g>
   <g id="line2d_15">
    <path d="M 361.634644 141.211764 
L 359.90492 134.401494 
L 357.855665 125.222814 
L 355.287129 112.376395 
L 348.949412 79.061977 
L 347.213269 70.739672 
L 345.268599 62.23538 
L 343.090953 53.84365 
L 340.655263 45.868311 
L 337.939007 38.577822 
L 334.922212 32.175986 
L 331.59085 26.829284 
L 327.938429 22.718871 
L 323.968403 20.06858 
L 319.694855 19.106946 
L 315.145894 19.996271 
L 310.361977 22.788711 
L 305.397169 27.430399 
L 300.312014 33.780066 
L 295.176303 41.597785 
L 290.06132 50.53444 
L 285.036405 60.151718 
L 280.165232 69.995552 
L 271.093023 89.038099 
L 266.966894 97.965314 
L 263.145023 106.506225 
L 259.63634 114.688134 
L 253.549758 129.735367 
L 246.544322 147.297204 
L 241.609587 158.715703 
L 237.278688 168.817221 
L 234.559317 175.245051 
L 233.151256 178.00389 
L 232.077979 179.609541 
L 231.223557 180.541172 
L 230.301041 181.207375 
L 229.529776 181.505887 
L 228.679733 181.566543 
L 227.875696 181.350582 
L 227.216492 180.95226 
L 226.502465 180.2681 
L 225.693822 179.154549 
L 224.747274 177.428776 
L 221.045374 169.896911 
L 219.658683 167.911582 
L 218.071469 166.12322 
L 215.610879 163.809424 
L 211.101902 159.940959 
L 208.451757 157.851265 
L 205.525992 155.827765 
L 203.420112 154.597121 
L 201.189881 153.509316 
L 198.835934 152.590491 
L 196.359741 151.85146 
L 193.764002 151.289441 
L 191.051465 150.891608 
L 186.774755 150.562488 
L 182.264098 150.496937 
L 177.541175 150.641756 
L 170.95944 151.104997 
L 164.114968 151.846288 
L 157.084935 152.856917 
L 149.948325 154.127018 
L 142.785295 155.624538 
L 133.914345 157.727826 
L 123.574188 160.42671 
L 112.193578 163.625907 
L 95.021447 168.738904 
L 83.308765 172.368281 
L 74.790354 175.260349 
L 60.821916 180.247366 
L 55.387242 182.230126 
L 47.453302 184.769202 
L 47.197249 184.804242 
L 47.197249 184.804242 
" clip-path="url(#p441854e1ff)" style="fill: none; stroke: #1f77b4; stroke-width: 2; stroke-linecap: square"/>
   </g>
   <g id="line2d_16">
    <path d="M 361.85061 141.997474 
L 360.099817 135.21389 
L 358.022169 126.009126 
L 355.417049 113.052612 
L 348.99774 79.302221 
L 347.242549 70.874648 
L 345.278377 62.275781 
L 343.080778 53.807306 
L 340.625681 45.780066 
L 337.890207 38.460896 
L 334.855402 32.052082 
L 331.507787 26.716403 
L 327.840754 22.631861 
L 323.858967 20.02037 
L 319.575923 19.106225 
L 315.020487 20.046363 
L 310.23319 22.887795 
L 305.267552 27.573111 
L 300.18436 33.958192 
L 295.052953 41.800817 
L 289.943917 50.75078 
L 284.926213 60.369756 
L 280.063215 70.205427 
L 271.008128 89.219635 
L 266.89023 98.133615 
L 263.076382 106.66285 
L 259.574778 114.835062 
L 253.500467 129.860463 
L 246.508473 147.383533 
L 241.58246 158.777013 
L 237.259583 168.86365 
L 234.549122 175.267181 
L 233.150878 178.004545 
L 232.092119 179.591525 
L 231.258689 180.508926 
L 230.377195 181.165315 
L 229.507368 181.511117 
L 228.792209 181.574997 
L 228.03884 181.417295 
L 227.305068 181.018296 
L 226.632611 180.413459 
L 225.831934 179.370087 
L 224.826373 177.587465 
L 222.914777 173.458568 
L 221.476738 170.626281 
L 220.199446 168.626582 
L 218.73124 166.821455 
L 217.056054 165.129532 
L 213.76277 162.190859 
L 209.794009 158.884762 
L 207.072032 156.854314 
L 204.088576 154.966291 
L 201.953755 153.857247 
L 199.703439 152.903013 
L 197.338438 152.117792 
L 194.861292 151.503053 
L 192.274719 151.049748 
L 188.197984 150.637962 
L 183.898573 150.49379 
L 179.394731 150.563297 
L 173.110807 150.924579 
L 166.561617 151.553056 
L 159.811659 152.435767 
L 152.930762 153.567513 
L 145.989503 154.929342 
L 137.334386 156.889247 
L 127.153494 159.467861 
L 115.808503 162.586214 
L 102.448398 166.5087 
L 84.02648 172.135526 
L 75.412583 175.043603 
L 61.11355 180.135183 
L 55.223171 182.285019 
L 47.428386 184.772809 
L 47.401982 184.776584 
L 47.401982 184.776584 
" clip-path="url(#p441854e1ff)" style="fill: none; stroke: #1f77b4; stroke-width: 2; stroke-linecap: square"/>
   </g>
   <g id="line2d_17">
    <path d="M 361.703153 141.462615 
L 359.96735 134.662897 
L 357.91009 125.480557 
L 355.331059 112.605297 
L 348.969725 79.162882 
L 347.228032 70.807668 
L 345.278019 62.274253 
L 343.094521 53.856433 
L 340.653111 45.861797 
L 337.931248 38.559259 
L 334.909431 32.152217 
L 331.573313 26.805344 
L 327.916644 22.699416 
L 323.943144 20.057361 
L 319.666991 19.106702 
L 315.115897 20.008198 
L 310.331092 22.812456 
L 305.365888 27.464666 
L 300.28128 33.822813 
L 295.146702 41.646447 
L 290.033362 50.585876 
L 285.010504 60.202971 
L 280.141597 70.044165 
L 271.074088 89.078598 
L 266.950602 98.001071 
L 263.130751 106.538781 
L 259.624182 114.717158 
L 253.540979 129.757633 
L 246.539433 147.308997 
L 241.607586 158.720237 
L 237.279329 168.815669 
L 234.563356 175.236273 
L 233.15892 177.99075 
L 232.090722 179.593304 
L 231.24353 180.522901 
L 230.334889 181.188963 
L 229.583446 181.492576 
L 228.769385 181.573696 
L 228.017168 181.409129 
L 227.257854 180.983596 
L 226.599083 180.376908 
L 225.853587 179.402962 
L 224.97955 177.888222 
L 223.638035 175.044875 
L 221.933399 171.461759 
L 220.697016 169.349254 
L 219.275854 167.443237 
L 217.650865 165.701986 
L 215.136095 163.388631 
L 210.546508 159.487289 
L 207.858702 157.413978 
L 204.899182 155.440832 
L 202.773867 154.259266 
L 200.526599 153.227428 
L 198.158588 152.366519 
L 195.671266 151.682829 
L 193.068231 151.170642 
L 190.352145 150.815373 
L 186.076888 150.536162 
L 181.575963 150.506178 
L 176.871664 150.676218 
L 170.325825 151.163115 
L 163.530899 151.920824 
L 156.559359 152.942274 
L 149.487567 154.216983 
L 142.394433 155.711936 
L 133.610785 157.803733 
L 123.370337 160.482037 
L 112.087866 163.656606 
L 95.028338 168.736828 
L 83.355751 172.352992 
L 74.843031 175.24199 
L 60.838771 180.240882 
L 55.3802 182.232484 
L 47.441359 184.770936 
L 47.249142 184.797497 
L 47.249142 184.797497 
" clip-path="url(#p441854e1ff)" style="fill: none; stroke: #1f77b4; stroke-width: 2; stroke-linecap: square"/>
   </g>
   <g id="line2d_18">
    <path d="M 361.703153 177.956548 
L 360.574281 178.826399 
L 359.325438 179.582227 
L 357.91009 180.222248 
L 356.264864 180.735452 
L 354.305921 181.096092 
L 351.921297 181.253552 
L 348.969725 181.104746 
L 347.228032 180.85226 
L 345.278019 180.417443 
L 343.094521 179.715528 
L 340.653111 178.609261 
L 337.931248 176.881054 
L 334.909431 174.207195 
L 331.573313 170.173306 
L 327.916644 164.405198 
L 323.943144 156.852689 
L 319.666991 148.053457 
L 315.115897 139.028251 
L 310.331092 130.746348 
L 305.365888 123.649109 
L 300.28128 117.630784 
L 295.146702 112.354019 
L 290.033362 107.568165 
L 285.010504 103.291663 
L 280.141597 99.833711 
L 275.482067 97.670518 
L 271.074088 97.229387 
L 266.950602 98.686545 
L 263.130751 101.882636 
L 259.624182 106.389446 
L 256.430461 111.663858 
L 253.540979 117.195384 
L 248.614136 127.605555 
L 241.607586 142.569389 
L 234.0484 158.06872 
L 232.772221 160.012433 
L 231.787917 161.057901 
L 230.996755 161.591122 
L 230.135272 161.899943 
L 229.083498 162.019641 
L 226.770421 162.201665 
L 225.648798 162.557823 
L 224.212986 163.288831 
L 222.307884 164.530605 
L 212.968908 170.927898 
L 209.680362 172.80049 
L 205.916051 174.652195 
L 202.773867 175.974612 
L 199.357356 177.203418 
L 195.671266 178.314094 
L 191.724007 179.294157 
L 187.527897 180.143183 
L 181.575963 181.087847 
L 175.262428 181.8524 
L 166.954999 182.615902 
L 156.559359 183.331685 
L 144.16568 183.958477 
L 130.150864 184.426666 
L 115.224075 184.688862 
L 54.068521 185.223897 
L 47.249142 185.230713 
L 47.249142 185.230713 
" clip-path="url(#p441854e1ff)" style="fill: none; stroke: #ff7f0e; stroke-width: 2; stroke-linecap: square"/>
   </g>
   <g id="line2d_19">
    <path d="M 362.002692 177.69204 
L 360.850656 178.631028 
L 359.574515 179.447038 
L 358.125565 180.137842 
L 356.440657 180.690757 
L 354.435274 181.079354 
L 351.997092 181.252615 
L 348.985054 181.106429 
L 347.211325 180.849234 
L 345.228086 180.404061 
L 343.011326 179.683771 
L 340.536917 178.546921 
L 337.783225 176.769795 
L 334.730995 174.021292 
L 331.36739 169.885129 
L 327.68652 163.999146 
L 323.69301 156.347498 
L 319.401263 147.506948 
L 314.839843 138.512038 
L 310.049771 130.304826 
L 305.084227 123.287014 
L 300.003734 117.32901 
L 294.877142 112.091772 
L 289.774599 107.336293 
L 284.764956 103.097442 
L 279.910642 99.695106 
L 275.266234 97.607912 
L 270.873678 97.255398 
L 266.764558 98.80008 
L 262.958753 102.069262 
L 259.464775 106.62804 
L 256.282608 111.931378 
L 253.403037 117.473554 
L 248.492429 127.869805 
L 241.505003 142.782243 
L 233.966204 158.210806 
L 232.701259 160.10197 
L 231.735493 161.101571 
L 230.972346 161.603451 
L 230.168026 161.892493 
L 229.011119 162.022165 
L 226.811783 162.192703 
L 225.771883 162.508328 
L 224.609313 163.062604 
L 222.969146 164.078624 
L 219.315744 166.67072 
L 215.248269 169.487934 
L 211.587711 171.744028 
L 208.176231 173.576834 
L 204.324155 175.346411 
L 201.14514 176.586133 
L 197.721456 177.721954 
L 194.059039 178.73827 
L 190.168291 179.629777 
L 184.647533 180.633094 
L 178.78174 181.451052 
L 171.035858 182.268182 
L 161.275089 183.032611 
L 149.50468 183.714519 
L 135.966734 184.261496 
L 121.205402 184.608538 
L 103.252463 184.782089 
L 76.051234 185.042575 
L 55.351743 185.221206 
L 47.688198 185.230612 
L 47.688198 185.230612 
" clip-path="url(#p441854e1ff)" style="fill: none; stroke: #ff7f0e; stroke-width: 2; stroke-linecap: square"/>
   </g>
   <g id="line2d_20">
    <path d="M 361.634644 178.014968 
L 360.509491 178.870636 
L 359.265689 179.613589 
L 357.855665 180.242892 
L 356.217367 180.747152 
L 354.266202 181.101041 
L 351.890828 181.253859 
L 348.949412 181.102505 
L 347.213269 180.849586 
L 345.268599 180.414926 
L 343.090953 179.714166 
L 340.655263 178.610412 
L 337.939007 176.886816 
L 334.922212 174.220394 
L 331.59085 170.197645 
L 327.938429 164.443381 
L 323.968403 156.903584 
L 319.694855 148.110807 
L 315.145894 139.084594 
L 310.361977 130.79512 
L 305.397169 123.689559 
L 300.312014 117.664396 
L 295.176303 112.38289 
L 290.06132 107.593193 
L 285.036405 103.312328 
L 280.165232 99.848045 
L 275.503343 97.676824 
L 271.093023 97.227163 
L 266.966894 98.676726 
L 263.145023 101.86733 
L 259.63634 106.371402 
L 256.440976 111.644947 
L 253.549758 117.177799 
L 248.620026 127.592827 
L 241.609587 142.565231 
L 234.043303 158.077565 
L 232.763122 160.02401 
L 231.772947 161.070519 
L 230.973818 161.602697 
L 230.097119 161.908262 
L 229.009817 162.022209 
L 226.868682 162.180873 
L 225.693822 162.53943 
L 224.483679 163.13262 
L 222.617466 164.317053 
L 212.719472 171.078476 
L 209.365419 172.967161 
L 205.525992 174.827027 
L 202.320585 176.149684 
L 198.835934 177.373353 
L 195.076672 178.474595 
L 191.051465 179.442468 
L 186.774755 180.277873 
L 180.712063 181.204859 
L 174.287648 181.954103 
L 165.846675 182.702791 
L 155.307505 183.404964 
L 142.785295 184.015464 
L 128.690473 184.462054 
L 113.764623 184.704319 
L 47.32696 185.230697 
L 47.197249 185.230723 
L 47.197249 185.230723 
" clip-path="url(#p441854e1ff)" style="fill: none; stroke: #ff7f0e; stroke-width: 2; stroke-linecap: square"/>
   </g>
   <g id="line2d_21">
    <path d="M 361.85061 177.828185 
L 360.712034 178.730388 
L 359.4516 179.514676 
L 358.022169 180.178894 
L 356.360444 180.711437 
L 354.381793 181.086388 
L 351.974684 181.252915 
L 348.99774 181.107807 
L 347.242549 180.85488 
L 345.278377 180.417541 
L 343.080778 179.710302 
L 340.625681 178.59462 
L 337.890207 176.850372 
L 334.855402 174.151254 
L 331.507787 170.082109 
L 327.840754 164.271797 
L 323.858967 156.682955 
L 319.575923 147.866003 
L 315.020487 138.849376 
L 310.23319 130.592094 
L 305.267552 123.522302 
L 300.18436 117.525229 
L 295.052953 112.26267 
L 289.943917 107.487913 
L 284.926213 103.224786 
L 280.063215 99.786258 
L 275.409896 97.649181 
L 271.008128 97.23744 
L 266.89023 98.722895 
L 263.076382 101.941197 
L 259.574778 106.463099 
L 256.385909 111.744288 
L 253.500467 117.276993 
L 248.580476 127.678652 
L 241.58246 142.621567 
L 234.035978 158.090342 
L 232.766954 160.019154 
L 231.793335 161.053335 
L 231.017616 161.580361 
L 230.186337 161.888185 
L 229.064657 162.020333 
L 226.77516 162.200605 
L 225.649817 162.557412 
L 224.348116 163.209956 
L 222.231315 164.583859 
L 213.76277 170.439399 
L 210.643976 172.27693 
L 207.072032 174.11564 
L 204.088576 175.44487 
L 200.843044 176.694308 
L 197.338438 177.837309 
L 193.581423 178.857393 
L 189.582362 179.749557 
L 183.898573 180.749937 
L 177.851984 181.562685 
L 169.865312 182.372747 
L 159.811659 183.129523 
L 147.726835 183.799968 
L 133.906963 184.324542 
L 118.976545 184.641895 
L 98.360756 184.808772 
L 76.282189 185.03934 
L 55.510113 185.220825 
L 47.401982 185.230681 
L 47.401982 185.230681 
" clip-path="url(#p441854e1ff)" style="fill: none; stroke: #ff7f0e; stroke-width: 2; stroke-linecap: square"/>
   </g>
   <g id="line2d_22">
    <path d="M 361.703153 177.956548 
L 360.574281 178.826399 
L 359.325438 179.582227 
L 357.91009 180.222248 
L 356.264864 180.735452 
L 354.305921 181.096092 
L 351.921297 181.253552 
L 348.969725 181.104746 
L 347.228032 180.85226 
L 345.278019 180.417443 
L 343.094521 179.715528 
L 340.653111 178.609261 
L 337.931248 176.881054 
L 334.909431 174.207195 
L 331.573313 170.173306 
L 327.916644 164.405198 
L 323.943144 156.852689 
L 319.666991 148.053457 
L 315.115897 139.028251 
L 310.331092 130.746348 
L 305.365888 123.649109 
L 300.28128 117.630784 
L 295.146702 112.354019 
L 290.033362 107.568165 
L 285.010504 103.291663 
L 280.141597 99.833711 
L 275.482067 97.670518 
L 271.074088 97.229387 
L 266.950602 98.686545 
L 263.130751 101.882636 
L 259.624182 106.389446 
L 256.430461 111.663858 
L 253.540979 117.195384 
L 248.614136 127.605555 
L 241.607586 142.569389 
L 234.0484 158.06872 
L 232.772221 160.012433 
L 231.787917 161.057901 
L 230.996755 161.591122 
L 230.135272 161.899943 
L 229.083498 162.019641 
L 226.770421 162.201665 
L 225.648798 162.557823 
L 224.212986 163.288831 
L 222.307884 164.530605 
L 212.968908 170.927898 
L 209.680362 172.80049 
L 205.916051 174.652195 
L 202.773867 175.974612 
L 199.357356 177.203418 
L 195.671266 178.314094 
L 191.724007 179.294157 
L 187.527897 180.143183 
L 181.575963 181.087847 
L 175.262428 181.8524 
L 166.954999 182.615902 
L 156.559359 183.331685 
L 144.16568 183.958477 
L 130.150864 184.426666 
L 115.224075 184.688862 
L 54.068521 185.223897 
L 47.249142 185.230713 
L 47.249142 185.230713 
" clip-path="url(#p441854e1ff)" style="fill: none; stroke: #ff7f0e; stroke-width: 2; stroke-linecap: square"/>
   </g>
   <g id="patch_3">
    <path d="M 31.456977 193.536948 
L 31.456977 10.8 
" style="fill: none; stroke: #000000; stroke-width: 0.8; stroke-linejoin: miter; stroke-linecap: square"/>
   </g>
   <g id="patch_4">
    <path d="M 377.742964 193.536948 
L 377.742964 10.8 
" style="fill: none; stroke: #000000; stroke-width: 0.8; stroke-linejoin: miter; stroke-linecap: square"/>
   </g>
   <g id="patch_5">
    <path d="M 31.456977 193.536948 
L 377.742964 193.536948 
" style="fill: none; stroke: #000000; stroke-width: 0.8; stroke-linejoin: miter; stroke-linecap: square"/>
   </g>
   <g id="patch_6">
    <path d="M 31.456977 10.8 
L 377.742964 10.8 
" style="fill: none; stroke: #000000; stroke-width: 0.8; stroke-linejoin: miter; stroke-linecap: square"/>
   </g>
   <g id="legend_1">
    <g id="line2d_23">
     <path d="M 44.056977 28.3 
L 58.056977 28.3 
L 72.056977 28.3 
" style="fill: none; stroke: #1f77b4; stroke-width: 2; stroke-linecap: square"/>
    </g>
    <g id="text_14">
     <!-- $\phi_1$ -->
     <g transform="translate(83.256977 33.2) scale(0.14 -0.14)">
      <defs>
       <path id="CMMI12-1e" d="M 2752 4390 
C 2752 4448 2707 4448 2688 4448 
C 2630 4448 2624 4435 2598 4326 
L 2253 2939 
C 2234 2856 2227 2849 2221 2843 
C 2214 2830 2170 2824 2157 2824 
C 1107 2734 301 1864 301 1057 
C 301 361 832 -64 1498 -64 
C 1446 -261 1402 -463 1350 -659 
C 1261 -995 1210 -1204 1210 -1229 
C 1210 -1241 1210 -1280 1274 -1280 
C 1293 -1280 1318 -1280 1331 -1254 
C 1344 -1241 1382 -1089 1408 -1008 
L 1645 -64 
C 2739 -64 3571 854 3571 1680 
C 3571 2343 3085 2816 2374 2816 
L 2752 4390 
z
M 2336 2701 
C 2758 2701 3181 2463 3181 1828 
C 3181 1097 2675 128 1677 50 
L 2336 2701 
z
M 1530 50 
C 1216 50 691 220 691 938 
C 691 1761 1274 2676 2195 2676 
L 1530 50 
z
" transform="scale(0.015625)"/>
      </defs>
      <use xlink:href="#CMMI12-1e" transform="scale(0.996264)"/>
      <use xlink:href="#CMR17-31" transform="translate(57.73418 -14.943915) scale(0.697382)"/>
     </g>
    </g>
    <g id="line2d_24">
     <path d="M 44.056977 47.812028 
L 58.056977 47.812028 
L 72.056977 47.812028 
" style="fill: none; stroke: #ff7f0e; stroke-width: 2; stroke-linecap: square"/>
    </g>
    <g id="text_15">
     <!-- $\phi_2$ -->
     <g transform="translate(83.256977 52.712028) scale(0.14 -0.14)">
      <use xlink:href="#CMMI12-1e" transform="scale(0.996264)"/>
      <use xlink:href="#CMR17-32" transform="translate(57.73418 -14.943915) scale(0.697382)"/>
     </g>
    </g>
   </g>
  </g>
 </g>
 <defs>
  <clipPath id="p441854e1ff">
   <rect x="31.456977" y="10.8" width="346.285987" height="182.736948"/>
  </clipPath>
 </defs>
</svg>
