<?xml version="1.0" encoding="utf-8" standalone="no"?>
<!DOCTYPE svg PUBLIC "-//W3C//DTD SVG 1.1//EN"
  "http://www.w3.org/Graphics/SVG/1.1/DTD/svg11.dtd">
<svg xmlns:xlink="http://www.w3.org/1999/xlink" width="388.542964pt" height="240.132758pt" viewBox="0 0 388.542964 240.132758" xmlns="http://www.w3.org/2000/svg" version="1.1">
 <metadata>
  <rdf:RDF xmlns:dc="http://purl.org/dc/elements/1.1/" xmlns:cc="http://creativecommons.org/ns#" xmlns:rdf="http://www.w3.org/1999/02/22-rdf-syntax-ns#">
   <cc:Work>
    <dc:type rdf:resource="http://purl.org/dc/dcmitype/StillImage"/>
    <dc:date>2024-12-30T22:27:42.996794</dc:date>
    <dc:format>image/svg+xml</dc:format>
    <dc:creator>
     <cc:Agent>
      <dc:title>Matplotlib v3.7.5, https://matplotlib.org/</dc:title>
     </cc:Agent>
    </dc:creator>
   </cc:Work>
  </rdf:RDF>
 </metadata>
 <defs>
  <style type="text/css">*{stroke-linejoin: round; stroke-linecap: butt}</style>
 </defs>
 <g id="figure_1">
  <g id="patch_1">
   <path d="M 0 240.132758 
L 388.542964 240.132758 
L 388.542964 0 
L 0 0 
z
" style="fill: #ffffff"/>
  </g>
  <g id="axes_1">
   <g id="patch_2">
    <path d="M 49.404673 193.536948 
L 377.742964 193.536948 
L 377.742964 10.8 
L 49.404673 10.8 
z
" style="fill: #ffffff"/>
   </g>
   <g id="matplotlib.axis_1">
    <g id="xtick_1">
     <g id="line2d_1">
      <defs>
       <path id="m2dc344ca71" d="M 0 0 
L 0 3.5 
" style="stroke: #000000; stroke-width: 0.8"/>
      </defs>
      <g>
       <use xlink:href="#m2dc344ca71" x="63.039423" y="193.536948" style="stroke: #000000; stroke-width: 0.8"/>
      </g>
     </g>
     <g id="text_1">
      <!-- $\mathdefault{0.0}$ -->
      <g transform="translate(54.314132 210.222825) scale(0.14 -0.14)">
       <defs>
        <path id="CMR17-30" d="M 2688 2025 
C 2688 2416 2682 3080 2413 3591 
C 2176 4039 1798 4198 1466 4198 
C 1158 4198 768 4058 525 3597 
C 269 3118 243 2524 243 2025 
C 243 1661 250 1106 448 619 
C 723 -39 1216 -128 1466 -128 
C 1760 -128 2208 -7 2470 600 
C 2662 1042 2688 1559 2688 2025 
z
M 1466 -26 
C 1056 -26 813 325 723 812 
C 653 1188 653 1738 653 2096 
C 653 2588 653 2997 736 3387 
C 858 3929 1216 4096 1466 4096 
C 1728 4096 2067 3923 2189 3400 
C 2272 3036 2278 2607 2278 2096 
C 2278 1680 2278 1169 2202 792 
C 2067 95 1690 -26 1466 -26 
z
" transform="scale(0.015625)"/>
        <path id="CMMI12-3a" d="M 1178 307 
C 1178 492 1024 619 870 619 
C 685 619 557 466 557 313 
C 557 128 710 0 864 0 
C 1050 0 1178 153 1178 307 
z
" transform="scale(0.015625)"/>
       </defs>
       <use xlink:href="#CMR17-30" transform="scale(0.996264)"/>
       <use xlink:href="#CMMI12-3a" transform="translate(45.690477 0) scale(0.996264)"/>
       <use xlink:href="#CMR17-30" transform="translate(72.787654 0) scale(0.996264)"/>
      </g>
     </g>
    </g>
    <g id="xtick_2">
     <g id="line2d_2">
      <g>
       <use xlink:href="#m2dc344ca71" x="123.100724" y="193.536948" style="stroke: #000000; stroke-width: 0.8"/>
      </g>
     </g>
     <g id="text_2">
      <!-- $\mathdefault{0.2}$ -->
      <g transform="translate(114.375433 210.222825) scale(0.14 -0.14)">
       <defs>
        <path id="CMR17-32" d="M 2669 989 
L 2554 989 
C 2490 536 2438 459 2413 420 
C 2381 369 1920 369 1830 369 
L 602 369 
C 832 619 1280 1072 1824 1597 
C 2214 1967 2669 2402 2669 3035 
C 2669 3790 2067 4224 1395 4224 
C 691 4224 262 3604 262 3030 
C 262 2780 448 2748 525 2748 
C 589 2748 781 2787 781 3010 
C 781 3207 614 3264 525 3264 
C 486 3264 448 3258 422 3245 
C 544 3790 915 4058 1306 4058 
C 1862 4058 2227 3617 2227 3035 
C 2227 2479 1901 2000 1536 1584 
L 262 146 
L 262 0 
L 2515 0 
L 2669 989 
z
" transform="scale(0.015625)"/>
       </defs>
       <use xlink:href="#CMR17-30" transform="scale(0.996264)"/>
       <use xlink:href="#CMMI12-3a" transform="translate(45.690477 0) scale(0.996264)"/>
       <use xlink:href="#CMR17-32" transform="translate(72.787654 0) scale(0.996264)"/>
      </g>
     </g>
    </g>
    <g id="xtick_3">
     <g id="line2d_3">
      <g>
       <use xlink:href="#m2dc344ca71" x="183.162025" y="193.536948" style="stroke: #000000; stroke-width: 0.8"/>
      </g>
     </g>
     <g id="text_3">
      <!-- $\mathdefault{0.4}$ -->
      <g transform="translate(174.436734 210.222825) scale(0.14 -0.14)">
       <defs>
        <path id="CMR17-34" d="M 2150 4122 
C 2150 4256 2144 4256 2029 4256 
L 128 1254 
L 128 1088 
L 1779 1088 
L 1779 457 
C 1779 224 1766 160 1318 160 
L 1197 160 
L 1197 0 
C 1402 0 1747 0 1965 0 
C 2182 0 2528 0 2733 0 
L 2733 160 
L 2611 160 
C 2163 160 2150 224 2150 457 
L 2150 1088 
L 2803 1088 
L 2803 1254 
L 2150 1254 
L 2150 4122 
z
M 1798 3703 
L 1798 1254 
L 256 1254 
L 1798 3703 
z
" transform="scale(0.015625)"/>
       </defs>
       <use xlink:href="#CMR17-30" transform="scale(0.996264)"/>
       <use xlink:href="#CMMI12-3a" transform="translate(45.690477 0) scale(0.996264)"/>
       <use xlink:href="#CMR17-34" transform="translate(72.787654 0) scale(0.996264)"/>
      </g>
     </g>
    </g>
    <g id="xtick_4">
     <g id="line2d_4">
      <g>
       <use xlink:href="#m2dc344ca71" x="243.223326" y="193.536948" style="stroke: #000000; stroke-width: 0.8"/>
      </g>
     </g>
     <g id="text_4">
      <!-- $\mathdefault{0.6}$ -->
      <g transform="translate(234.498035 210.222825) scale(0.14 -0.14)">
       <defs>
        <path id="CMR17-36" d="M 678 2176 
C 678 3690 1395 4032 1811 4032 
C 1946 4032 2272 4009 2400 3776 
C 2298 3776 2106 3776 2106 3553 
C 2106 3381 2246 3323 2336 3323 
C 2394 3323 2566 3348 2566 3560 
C 2566 3954 2246 4179 1805 4179 
C 1043 4179 243 3390 243 1984 
C 243 253 966 -128 1478 -128 
C 2099 -128 2688 427 2688 1283 
C 2688 2081 2170 2662 1517 2662 
C 1126 2662 838 2407 678 1960 
L 678 2176 
z
M 1478 25 
C 691 25 691 1200 691 1436 
C 691 1896 909 2560 1504 2560 
C 1613 2560 1926 2560 2138 2120 
C 2253 1870 2253 1609 2253 1289 
C 2253 944 2253 690 2118 434 
C 1978 171 1773 25 1478 25 
z
" transform="scale(0.015625)"/>
       </defs>
       <use xlink:href="#CMR17-30" transform="scale(0.996264)"/>
       <use xlink:href="#CMMI12-3a" transform="translate(45.690477 0) scale(0.996264)"/>
       <use xlink:href="#CMR17-36" transform="translate(72.787654 0) scale(0.996264)"/>
      </g>
     </g>
    </g>
    <g id="xtick_5">
     <g id="line2d_5">
      <g>
       <use xlink:href="#m2dc344ca71" x="303.284627" y="193.536948" style="stroke: #000000; stroke-width: 0.8"/>
      </g>
     </g>
     <g id="text_5">
      <!-- $\mathdefault{0.8}$ -->
      <g transform="translate(294.559336 210.222825) scale(0.14 -0.14)">
       <defs>
        <path id="CMR17-38" d="M 1741 2264 
C 2144 2467 2554 2773 2554 3263 
C 2554 3841 1990 4179 1472 4179 
C 890 4179 378 3759 378 3180 
C 378 3021 416 2747 666 2505 
C 730 2442 998 2251 1171 2130 
C 883 1983 211 1634 211 934 
C 211 279 838 -128 1459 -128 
C 2144 -128 2720 362 2720 1010 
C 2720 1590 2330 1857 2074 2029 
L 1741 2264 
z
M 902 2822 
C 851 2854 595 3051 595 3351 
C 595 3739 998 4032 1459 4032 
C 1965 4032 2336 3676 2336 3262 
C 2336 2669 1670 2331 1638 2331 
C 1632 2331 1626 2331 1574 2370 
L 902 2822 
z
M 2080 1519 
C 2176 1449 2483 1240 2483 851 
C 2483 381 2010 25 1472 25 
C 890 25 448 438 448 940 
C 448 1443 838 1862 1280 2060 
L 2080 1519 
z
" transform="scale(0.015625)"/>
       </defs>
       <use xlink:href="#CMR17-30" transform="scale(0.996264)"/>
       <use xlink:href="#CMMI12-3a" transform="translate(45.690477 0) scale(0.996264)"/>
       <use xlink:href="#CMR17-38" transform="translate(72.787654 0) scale(0.996264)"/>
      </g>
     </g>
    </g>
    <g id="xtick_6">
     <g id="line2d_6">
      <g>
       <use xlink:href="#m2dc344ca71" x="363.345928" y="193.536948" style="stroke: #000000; stroke-width: 0.8"/>
      </g>
     </g>
     <g id="text_6">
      <!-- $\mathdefault{1.0}$ -->
      <g transform="translate(354.620637 210.222825) scale(0.14 -0.14)">
       <defs>
        <path id="CMR17-31" d="M 1702 4058 
C 1702 4192 1696 4192 1606 4192 
C 1357 3916 979 3827 621 3827 
C 602 3827 570 3827 563 3808 
C 557 3795 557 3782 557 3648 
C 755 3648 1088 3686 1344 3839 
L 1344 461 
C 1344 236 1331 160 781 160 
L 589 160 
L 589 0 
C 896 0 1216 0 1523 0 
C 1830 0 2150 0 2458 0 
L 2458 160 
L 2266 160 
C 1715 160 1702 230 1702 458 
L 1702 4058 
z
" transform="scale(0.015625)"/>
       </defs>
       <use xlink:href="#CMR17-31" transform="scale(0.996264)"/>
       <use xlink:href="#CMMI12-3a" transform="translate(45.690477 0) scale(0.996264)"/>
       <use xlink:href="#CMR17-30" transform="translate(72.787654 0) scale(0.996264)"/>
      </g>
     </g>
    </g>
    <g id="text_7">
     <!-- S -->
     <g transform="translate(209.780214 226.620729) scale(0.14 -0.14)">
      <defs>
       <path id="CMR17-53" d="M 2803 4290 
C 2803 4404 2797 4411 2758 4411 
C 2720 4411 2707 4385 2682 4328 
L 2490 3907 
C 2246 4257 1875 4416 1472 4416 
C 819 4416 294 3901 294 3253 
C 294 3056 339 2776 557 2510 
C 794 2218 1018 2167 1530 2033 
C 1722 1982 2042 1899 2106 1874 
C 2470 1722 2662 1341 2662 985 
C 2662 527 2336 38 1779 38 
C 1094 38 454 419 410 1311 
C 403 1413 397 1419 352 1419 
C 301 1419 294 1413 294 1285 
L 294 -1 
C 294 -115 301 -122 339 -122 
C 384 -122 397 -90 486 108 
C 493 127 493 140 614 381 
C 934 -39 1472 -128 1779 -128 
C 2477 -128 2970 451 2970 1124 
C 2970 1454 2848 1708 2778 1823 
C 2509 2230 2221 2306 1914 2382 
C 1869 2402 1856 2402 1498 2490 
C 1152 2579 1005 2624 845 2796 
C 666 2992 602 3196 602 3399 
C 602 3812 934 4263 1478 4263 
C 2157 4263 2579 3786 2675 2993 
C 2694 2878 2701 2872 2746 2872 
C 2803 2872 2803 2891 2803 2999 
L 2803 4290 
z
" transform="scale(0.015625)"/>
      </defs>
      <use xlink:href="#CMR17-53" transform="scale(0.996264)"/>
     </g>
    </g>
   </g>
   <g id="matplotlib.axis_2">
    <g id="ytick_1">
     <g id="line2d_7">
      <defs>
       <path id="m3ac0b31842" d="M 0 0 
L -3.5 0 
" style="stroke: #000000; stroke-width: 0.8"/>
      </defs>
      <g>
       <use xlink:href="#m3ac0b31842" x="49.404673" y="185.658743" style="stroke: #000000; stroke-width: 0.8"/>
      </g>
     </g>
     <g id="text_8">
      <!-- $\mathdefault{0}$ -->
      <g transform="translate(35.576185 190.501681) scale(0.14 -0.14)">
       <use xlink:href="#CMR17-30" transform="scale(0.996264)"/>
      </g>
     </g>
    </g>
    <g id="ytick_2">
     <g id="line2d_8">
      <g>
       <use xlink:href="#m3ac0b31842" x="49.404673" y="153.540903" style="stroke: #000000; stroke-width: 0.8"/>
      </g>
     </g>
     <g id="text_9">
      <!-- $\mathdefault{5}$ -->
      <g transform="translate(35.576185 158.383842) scale(0.14 -0.14)">
       <defs>
        <path id="CMR17-35" d="M 730 3692 
C 794 3666 1056 3584 1325 3584 
C 1920 3584 2246 3911 2432 4100 
C 2432 4157 2432 4192 2394 4192 
C 2387 4192 2374 4192 2323 4163 
C 2099 4058 1837 3973 1517 3973 
C 1325 3973 1037 3999 723 4139 
C 653 4171 640 4171 634 4171 
C 602 4171 595 4164 595 4037 
L 595 2203 
C 595 2089 595 2057 659 2057 
C 691 2057 704 2070 736 2114 
C 941 2401 1222 2522 1542 2522 
C 1766 2522 2246 2382 2246 1289 
C 2246 1085 2246 715 2054 421 
C 1894 159 1645 25 1370 25 
C 947 25 518 320 403 814 
C 429 807 480 795 506 795 
C 589 795 749 840 749 1038 
C 749 1210 627 1280 506 1280 
C 358 1280 262 1190 262 1011 
C 262 454 704 -128 1382 -128 
C 2042 -128 2669 440 2669 1264 
C 2669 2030 2170 2624 1549 2624 
C 1222 2624 947 2503 730 2274 
L 730 3692 
z
" transform="scale(0.015625)"/>
       </defs>
       <use xlink:href="#CMR17-35" transform="scale(0.996264)"/>
      </g>
     </g>
    </g>
    <g id="ytick_3">
     <g id="line2d_9">
      <g>
       <use xlink:href="#m3ac0b31842" x="49.404673" y="121.423064" style="stroke: #000000; stroke-width: 0.8"/>
      </g>
     </g>
     <g id="text_10">
      <!-- $\mathdefault{10}$ -->
      <g transform="translate(28.747696 126.266003) scale(0.14 -0.14)">
       <use xlink:href="#CMR17-31" transform="scale(0.996264)"/>
       <use xlink:href="#CMR17-30" transform="translate(45.690477 0) scale(0.996264)"/>
      </g>
     </g>
    </g>
    <g id="ytick_4">
     <g id="line2d_10">
      <g>
       <use xlink:href="#m3ac0b31842" x="49.404673" y="89.305225" style="stroke: #000000; stroke-width: 0.8"/>
      </g>
     </g>
     <g id="text_11">
      <!-- $\mathdefault{15}$ -->
      <g transform="translate(28.747696 94.148163) scale(0.14 -0.14)">
       <use xlink:href="#CMR17-31" transform="scale(0.996264)"/>
       <use xlink:href="#CMR17-35" transform="translate(45.690477 0) scale(0.996264)"/>
      </g>
     </g>
    </g>
    <g id="ytick_5">
     <g id="line2d_11">
      <g>
       <use xlink:href="#m3ac0b31842" x="49.404673" y="57.187386" style="stroke: #000000; stroke-width: 0.8"/>
      </g>
     </g>
     <g id="text_12">
      <!-- $\mathdefault{20}$ -->
      <g transform="translate(28.747696 62.030324) scale(0.14 -0.14)">
       <use xlink:href="#CMR17-32" transform="scale(0.996264)"/>
       <use xlink:href="#CMR17-30" transform="translate(45.690477 0) scale(0.996264)"/>
      </g>
     </g>
    </g>
    <g id="ytick_6">
     <g id="line2d_12">
      <g>
       <use xlink:href="#m3ac0b31842" x="49.404673" y="25.069547" style="stroke: #000000; stroke-width: 0.8"/>
      </g>
     </g>
     <g id="text_13">
      <!-- $\mathdefault{25}$ -->
      <g transform="translate(28.747696 29.912485) scale(0.14 -0.14)">
       <use xlink:href="#CMR17-32" transform="scale(0.996264)"/>
       <use xlink:href="#CMR17-35" transform="translate(45.690477 0) scale(0.996264)"/>
      </g>
     </g>
    </g>
    <g id="text_14">
     <!-- $\phi_1(S)$ -->
     <g transform="translate(21.260772 118.884194) rotate(-90) scale(0.14 -0.14)">
      <defs>
       <path id="CMMI12-1e" d="M 2752 4390 
C 2752 4448 2707 4448 2688 4448 
C 2630 4448 2624 4435 2598 4326 
L 2253 2939 
C 2234 2856 2227 2849 2221 2843 
C 2214 2830 2170 2824 2157 2824 
C 1107 2734 301 1864 301 1057 
C 301 361 832 -64 1498 -64 
C 1446 -261 1402 -463 1350 -659 
C 1261 -995 1210 -1204 1210 -1229 
C 1210 -1241 1210 -1280 1274 -1280 
C 1293 -1280 1318 -1280 1331 -1254 
C 1344 -1241 1382 -1089 1408 -1008 
L 1645 -64 
C 2739 -64 3571 854 3571 1680 
C 3571 2343 3085 2816 2374 2816 
L 2752 4390 
z
M 2336 2701 
C 2758 2701 3181 2463 3181 1828 
C 3181 1097 2675 128 1677 50 
L 2336 2701 
z
M 1530 50 
C 1216 50 691 220 691 938 
C 691 1761 1274 2676 2195 2676 
L 1530 50 
z
" transform="scale(0.015625)"/>
       <path id="CMR17-28" d="M 1958 -1561 
C 1958 -1555 1958 -1542 1939 -1523 
C 1645 -1224 858 -407 858 1581 
C 858 3569 1632 4379 1946 4697 
C 1946 4704 1958 4717 1958 4736 
C 1958 4755 1939 4768 1914 4768 
C 1843 4768 1299 4296 986 3594 
C 666 2887 576 2199 576 1588 
C 576 1128 621 351 1005 -471 
C 1312 -1135 1837 -1600 1914 -1600 
C 1946 -1600 1958 -1587 1958 -1561 
z
" transform="scale(0.015625)"/>
       <path id="CMMI12-53" d="M 4064 4423 
C 4064 4480 4019 4480 4006 4480 
C 3981 4480 3974 4474 3898 4378 
C 3859 4333 3597 4001 3590 3995 
C 3379 4410 2957 4480 2688 4480 
C 1875 4480 1139 3743 1139 3025 
C 1139 2549 1427 2269 1741 2161 
C 1811 2135 2189 2033 2381 1989 
C 2707 1900 2790 1875 2925 1735 
C 2950 1703 3078 1557 3078 1258 
C 3078 667 2528 57 1888 57 
C 1363 57 781 280 781 991 
C 781 1112 806 1265 826 1328 
C 826 1348 832 1378 832 1391 
C 832 1417 819 1449 768 1449 
C 710 1449 704 1436 678 1328 
L 352 24 
C 352 18 326 -64 326 -71 
C 326 -128 378 -128 390 -128 
C 416 -128 422 -122 499 -26 
L 794 356 
C 947 126 1280 -128 1875 -128 
C 2701 -128 3456 666 3456 1460 
C 3456 1728 3392 1963 3149 2197 
C 3014 2331 2899 2363 2310 2516 
C 1882 2630 1824 2649 1709 2751 
C 1600 2858 1517 3011 1517 3227 
C 1517 3761 2061 4308 2669 4308 
C 3296 4308 3590 3926 3590 3323 
C 3590 3158 3558 2986 3558 2961 
C 3558 2903 3610 2903 3629 2903 
C 3686 2903 3693 2922 3718 3024 
L 4064 4423 
z
" transform="scale(0.015625)"/>
       <path id="CMR17-29" d="M 1683 1581 
C 1683 2040 1638 2817 1254 3639 
C 947 4303 422 4768 346 4768 
C 326 4768 301 4761 301 4729 
C 301 4717 307 4710 314 4697 
C 621 4378 1402 3568 1402 1584 
C 1402 -407 627 -1217 314 -1537 
C 307 -1549 301 -1556 301 -1568 
C 301 -1600 326 -1600 346 -1600 
C 416 -1600 960 -1128 1274 -426 
C 1594 281 1683 969 1683 1581 
z
" transform="scale(0.015625)"/>
      </defs>
      <use xlink:href="#CMMI12-1e" transform="scale(0.996264)"/>
      <use xlink:href="#CMR17-31" transform="translate(57.73418 -14.943915) scale(0.697382)"/>
      <use xlink:href="#CMR17-28" transform="translate(90.215494 0) scale(0.996264)"/>
      <use xlink:href="#CMMI12-53" transform="translate(125.496262 0) scale(0.996264)"/>
      <use xlink:href="#CMR17-29" transform="translate(191.290701 0) scale(0.996264)"/>
     </g>
    </g>
   </g>
   <g id="line2d_13">
    <path d="M 362.72148 142.493158 
L 361.055666 135.693749 
L 359.078147 126.45254 
L 356.598363 113.427261 
L 350.489763 79.468684 
L 348.820495 70.993975 
L 346.952969 62.351879 
L 344.863989 53.846417 
L 342.530732 45.79004 
L 339.932095 38.450979 
L 337.050035 32.030352 
L 333.871287 26.689222 
L 330.39059 22.6068 
L 326.611757 20.004516 
L 322.548408 19.106225 
L 318.227376 20.067699 
L 313.68752 22.934271 
L 308.979229 27.647156 
L 304.160085 34.061743 
L 299.295869 41.933985 
L 294.453366 50.912472 
L 289.697891 60.557453 
L 285.089229 70.416735 
L 276.508131 89.472453 
L 268.991973 106.95455 
L 265.673985 115.145485 
L 259.917919 130.204392 
L 253.291714 147.760819 
L 248.623106 159.175774 
L 244.525641 169.287828 
L 241.956932 175.700738 
L 240.632643 178.435803 
L 239.631211 180.017888 
L 238.617839 181.139721 
L 237.838363 181.681559 
L 237.067263 181.955638 
L 236.322082 181.974442 
L 235.677211 181.78393 
L 235.043438 181.389189 
L 234.32337 180.661164 
L 233.576775 179.570512 
L 232.619788 177.713656 
L 228.993674 169.992631 
L 227.69781 168.091563 
L 226.213767 166.358634 
L 223.917043 164.090586 
L 219.732764 160.298231 
L 216.419483 157.583651 
L 213.650513 155.660699 
L 211.668787 154.514581 
L 209.578778 153.515331 
L 207.381881 152.681289 
L 205.079546 152.017081 
L 202.674789 151.516579 
L 200.170501 151.165955 
L 196.235797 150.882673 
L 192.101243 150.838753 
L 187.786002 150.98721 
L 181.787055 151.434304 
L 175.5591 152.138737 
L 169.163936 153.092845 
L 162.665177 154.28957 
L 156.127414 155.704196 
L 148.000144 157.705242 
L 138.467232 160.30031 
L 127.873674 163.412405 
L 114.143228 167.703939 
L 99.310384 172.508629 
L 91.138613 175.424167 
L 77.541228 180.542714 
L 71.934033 182.706802 
L 64.591565 185.192552 
L 64.591565 185.192552 
" clip-path="url(#p42d0b00601)" style="fill: none; stroke: #1f77b4; stroke-width: 2; stroke-linecap: square"/>
   </g>
   <g id="line2d_14">
    <path d="M 362.818496 142.859627 
L 361.138291 136.053176 
L 359.142317 126.770504 
L 356.63819 113.645812 
L 350.475551 79.39391 
L 348.793753 70.863552 
L 346.913303 62.178832 
L 344.811436 53.648499 
L 342.465273 45.584905 
L 339.854303 38.255364 
L 336.960268 31.855945 
L 333.770995 26.547063 
L 330.280901 22.505501 
L 326.494371 19.951979 
L 322.425062 19.10745 
L 318.100056 20.123434 
L 313.558249 23.041084 
L 308.850065 27.79913 
L 304.03289 34.250754 
L 299.172004 42.150662 
L 294.333922 51.145982 
L 289.583924 60.796245 
L 284.981205 70.65196 
L 276.412619 89.688559 
L 268.907917 107.157621 
L 265.595029 115.345009 
L 259.847465 130.393556 
L 253.229942 147.917856 
L 248.566096 159.312001 
L 244.471136 169.427922 
L 241.903644 175.822352 
L 240.58111 178.528334 
L 239.583329 180.081804 
L 238.579337 181.172905 
L 237.816704 181.692774 
L 237.080383 181.953121 
L 236.307512 181.972327 
L 235.63171 181.762727 
L 234.999691 181.353738 
L 234.313883 180.649464 
L 233.490642 179.423005 
L 232.546095 177.553724 
L 229.255242 170.438124 
L 227.989485 168.480176 
L 226.537787 166.709609 
L 224.290627 164.443499 
L 220.199391 160.706712 
L 216.964725 158.003119 
L 214.264758 156.055669 
L 212.333563 154.877178 
L 210.298049 153.835603 
L 208.159469 152.952615 
L 205.919174 152.236478 
L 203.579214 151.683999 
L 201.143195 151.283877 
L 197.316274 150.933139 
L 193.294497 150.829901 
L 189.093724 150.924783 
L 183.248956 151.302984 
L 177.171815 151.934518 
L 170.916796 152.808728 
L 164.545438 153.920709 
L 158.116497 155.253235 
L 150.092069 157.168382 
L 140.62807 159.69328 
L 130.03662 162.759522 
L 117.479063 166.646839 
L 99.968268 172.284966 
L 91.687649 175.222281 
L 77.808373 180.434228 
L 72.060994 182.661901 
L 64.794644 185.159288 
L 64.794644 185.159288 
" clip-path="url(#p42d0b00601)" style="fill: none; stroke: #1f77b4; stroke-width: 2; stroke-linecap: square"/>
   </g>
   <g id="line2d_15">
    <path d="M 362.469524 141.526054 
L 360.82945 134.698257 
L 358.886406 125.495954 
L 356.450995 112.616474 
L 350.441757 79.216317 
L 348.795596 70.872594 
L 346.951716 62.346414 
L 344.886936 53.933088 
L 342.577486 45.937223 
L 340.002011 38.627972 
L 337.141573 32.20966 
L 333.982874 26.849197 
L 330.519754 22.728205 
L 326.755491 20.071093 
L 322.703437 19.106985 
L 318.390245 19.998598 
L 313.854274 22.798225 
L 309.146788 27.451859 
L 304.325191 33.817867 
L 299.45566 41.655706 
L 294.605782 50.615361 
L 289.841303 60.25739 
L 285.2226 70.126559 
L 276.620595 89.218114 
L 269.084533 106.731197 
L 265.757701 114.934163 
L 259.986582 130.020122 
L 253.344232 147.627156 
L 248.66526 159.075042 
L 244.558827 169.202557 
L 241.980398 175.64693 
L 240.645316 178.412869 
L 239.627667 180.022653 
L 238.817528 180.956681 
L 237.942825 181.624599 
L 237.211534 181.923879 
L 236.405548 181.984691 
L 235.643184 181.768174 
L 235.018145 181.368827 
L 234.341127 180.682906 
L 233.574394 179.56649 
L 232.676905 177.836275 
L 229.166871 170.285026 
L 227.852051 168.294587 
L 226.347101 166.501623 
L 224.014042 164.181872 
L 219.738761 160.303452 
L 216.330558 157.516421 
L 213.468241 155.547086 
L 211.412572 154.380697 
L 209.239141 153.372472 
L 206.948933 152.540946 
L 204.544104 151.889848 
L 202.026893 151.4107 
L 199.401737 151.087542 
L 195.270388 150.852555 
L 190.924 150.862188 
L 186.384234 151.069041 
L 180.075024 151.605004 
L 173.53429 152.416104 
L 166.836138 153.495936 
L 160.056077 154.830409 
L 153.270217 156.380481 
L 144.891232 158.52671 
L 135.157741 161.248913 
L 124.485483 164.451287 
L 106.101706 170.266901 
L 96.621092 173.441357 
L 86.040863 177.29999 
L 78.13457 180.302107 
L 71.830628 182.743313 
L 64.521925 185.203194 
L 64.329141 185.230723 
L 64.329141 185.230723 
" clip-path="url(#p42d0b00601)" style="fill: none; stroke: #1f77b4; stroke-width: 2; stroke-linecap: square"/>
   </g>
   <g id="line2d_16">
    <path d="M 362.674296 142.313786 
L 361.014246 135.512744 
L 359.044281 126.28429 
L 356.574181 113.294431 
L 350.48758 79.457179 
L 348.823359 71.007917 
L 346.960988 62.38692 
L 344.877288 53.89665 
L 342.549437 45.848751 
L 339.95574 38.510745 
L 337.078227 32.085437 
L 333.904115 26.736025 
L 330.427142 22.640971 
L 326.651727 20.022759 
L 322.590669 19.106262 
L 318.271337 20.048819 
L 313.732162 22.897564 
L 309.023889 27.594938 
L 304.204154 33.996452 
L 299.338703 41.859261 
L 294.494464 50.832258 
L 289.736823 60.47599 
L 285.12587 70.336974 
L 276.5401 89.400117 
L 269.019449 106.888224 
L 265.699331 115.081468 
L 259.939846 130.145539 
L 253.31024 147.713707 
L 248.639538 159.13651 
L 244.540712 169.249105 
L 241.970732 175.669117 
L 240.644958 178.413526 
L 239.641073 180.00459 
L 238.62226 181.135868 
L 237.834067 181.683799 
L 237.045264 181.959691 
L 236.266235 181.965795 
L 235.568596 181.731546 
L 234.857407 181.230762 
L 234.179475 180.477728 
L 233.351579 179.175895 
L 232.298435 177.003592 
L 229.575878 171.016273 
L 228.364787 169.011428 
L 226.972677 167.201655 
L 225.384314 165.505377 
L 222.261718 162.559141 
L 218.498654 159.244536 
L 215.917756 157.208862 
L 213.088929 155.31598 
L 211.064754 154.204082 
L 208.93107 153.247392 
L 206.688645 152.46015 
L 204.339887 151.843829 
L 201.887374 151.389357 
L 198.021933 150.976511 
L 193.945356 150.831969 
L 189.674944 150.901655 
L 183.71671 151.263866 
L 177.506959 151.893961 
L 171.106846 152.778943 
L 164.58258 153.913603 
L 158.00108 155.278936 
L 149.79455 157.243885 
L 140.141324 159.829136 
L 129.384334 162.955514 
L 116.716671 166.888095 
L 99.249545 172.529402 
L 91.082099 175.444964 
L 77.524172 180.549647 
L 71.939086 182.705016 
L 64.548298 185.199209 
L 64.523262 185.202994 
L 64.523262 185.202994 
" clip-path="url(#p42d0b00601)" style="fill: none; stroke: #1f77b4; stroke-width: 2; stroke-linecap: square"/>
   </g>
   <g id="line2d_17">
    <path d="M 362.534482 141.777551 
L 360.888644 134.960333 
L 358.93801 125.754361 
L 356.492648 112.845965 
L 350.461017 79.317482 
L 348.809594 70.940764 
L 346.960648 62.385388 
L 344.890319 53.945903 
L 342.575446 45.930693 
L 339.994654 38.609361 
L 337.129455 32.18583 
L 333.966245 26.825195 
L 330.499098 22.7087 
L 326.731541 20.059846 
L 322.677017 19.106739 
L 318.361802 20.010556 
L 313.82499 22.822031 
L 309.117128 27.486214 
L 304.296051 33.860725 
L 299.427593 41.704494 
L 294.579273 50.66693 
L 289.816745 60.308775 
L 285.200189 70.175297 
L 276.602641 89.258717 
L 269.071 106.763836 
L 265.746174 114.963261 
L 259.978258 130.042445 
L 253.339596 147.638979 
L 248.663363 159.079587 
L 244.559435 169.201001 
L 241.984229 175.63813 
L 240.652583 178.399695 
L 239.639749 180.006374 
L 238.836466 180.938364 
L 237.974919 181.606139 
L 237.262423 181.910534 
L 236.490554 181.991863 
L 235.777324 181.826872 
L 235.057364 181.400244 
L 234.432737 180.791994 
L 233.725879 179.815542 
L 232.897143 178.296903 
L 231.625157 175.446239 
L 230.008871 171.853902 
L 228.836569 169.735959 
L 227.489064 167.825037 
L 225.948297 166.079304 
L 223.563865 163.759996 
L 219.212153 159.848613 
L 216.663653 157.769966 
L 213.857522 155.791743 
L 211.842361 154.607135 
L 209.711567 153.572642 
L 207.466287 152.709518 
L 205.107881 152.024068 
L 202.639759 151.510563 
L 200.064445 151.154379 
L 196.010771 150.874449 
L 191.743125 150.844389 
L 187.282645 151.014866 
L 181.076072 151.503016 
L 174.633321 152.262675 
L 168.02311 153.286754 
L 161.317842 154.564744 
L 154.592339 156.063544 
L 146.26394 158.160725 
L 136.554245 160.845922 
L 125.856534 164.028661 
L 109.681187 169.121957 
L 98.613579 172.747428 
L 90.542066 175.643861 
L 77.263635 180.655618 
L 72.087977 182.652346 
L 64.560598 185.197331 
L 64.378344 185.22396 
L 64.378344 185.22396 
" clip-path="url(#p42d0b00601)" style="fill: none; stroke: #1f77b4; stroke-width: 2; stroke-linecap: square"/>
   </g>
   <g id="patch_3">
    <path d="M 49.404673 193.536948 
L 49.404673 10.8 
" style="fill: none; stroke: #000000; stroke-width: 0.8; stroke-linejoin: miter; stroke-linecap: square"/>
   </g>
   <g id="patch_4">
    <path d="M 377.742964 193.536948 
L 377.742964 10.8 
" style="fill: none; stroke: #000000; stroke-width: 0.8; stroke-linejoin: miter; stroke-linecap: square"/>
   </g>
   <g id="patch_5">
    <path d="M 49.404673 193.536948 
L 377.742964 193.536948 
" style="fill: none; stroke: #000000; stroke-width: 0.8; stroke-linejoin: miter; stroke-linecap: square"/>
   </g>
   <g id="patch_6">
    <path d="M 49.404673 10.8 
L 377.742964 10.8 
" style="fill: none; stroke: #000000; stroke-width: 0.8; stroke-linejoin: miter; stroke-linecap: square"/>
   </g>
   <g id="legend_1"/>
  </g>
 </g>
 <defs>
  <clipPath id="p42d0b00601">
   <rect x="49.404673" y="10.8" width="328.33829" height="182.736948"/>
  </clipPath>
 </defs>
</svg>
