<svg width="2181" height="810" xmlns="http://www.w3.org/2000/svg" xmlns:xlink="http://www.w3.org/1999/xlink" xml:space="preserve" overflow="hidden"><g transform="translate(-138 -1169)"><path d="M952.506 1383.06 1494.72 1384.04 1494.71 1390.92 952.494 1389.94ZM1490.16 1373.72 1517.63 1387.52 1490.11 1401.22Z"/><rect x="385.5" y="1172.5" width="567" height="427" stroke="#042433" stroke-width="6.875" stroke-miterlimit="8" fill="#156082"/><path d="M593.455 1358.14 606.383 1358.14 617.082 1389.71C618.622 1394.25 619.811 1398.08 620.649 1401.22L621.094 1401.22C621.311 1399.57 621.804 1396.83 622.574 1392.99 623.344 1389.15 624.053 1385.8 624.701 1382.94L627.538 1370.17C628.133 1367.5 628.43 1365.32 628.43 1363.65 628.43 1362.38 628.112 1361.49 627.477 1360.99 626.843 1360.5 625.836 1360.2 624.458 1360.12L624.904 1358.14 639.089 1358.14 638.643 1360.12C637.616 1360.34 636.88 1360.58 636.434 1360.85 635.988 1361.12 635.59 1361.53 635.238 1362.07 634.887 1362.61 634.522 1363.45 634.144 1364.6 633.766 1365.75 633.293 1367.62 632.726 1370.21L623.202 1413.46 617.69 1413.46 605.856 1378.69C604.424 1374.52 603.168 1370.38 602.087 1366.24L601.56 1366.24C601.398 1367.62 600.952 1370.25 600.223 1374.13 599.493 1378 598.723 1381.79 597.913 1385.49L594.346 1401.66C593.779 1404.23 593.495 1406.34 593.495 1407.99 593.495 1409.2 593.799 1410.06 594.407 1410.56 595.015 1411.06 596.035 1411.36 597.467 1411.47L597.021 1413.46 582.837 1413.46 583.282 1411.47C584.309 1411.31 585.079 1411.05 585.592 1410.68 586.106 1410.32 586.538 1409.81 586.889 1409.16 587.241 1408.51 587.565 1407.72 587.862 1406.79 588.159 1405.86 588.605 1404.06 589.199 1401.38L596.089 1370.17C596.359 1369.01 596.575 1367.9 596.737 1366.85 596.9 1365.8 596.981 1364.73 596.981 1363.65 596.981 1362.38 596.663 1361.49 596.028 1360.99 595.393 1360.5 594.387 1360.2 593.009 1360.12Z" fill="#FFFFFF" fill-rule="evenodd"/><text fill="#000000" fill-opacity="0" font-family="Arial,Arial_MSFontService,sans-serif" font-size="55.3198" x="582.837" y="1406.54">๐</text><path d="M655.628 1358.14 668.556 1358.14 679.255 1389.71C680.795 1394.25 681.984 1398.08 682.822 1401.22L683.267 1401.22C683.483 1399.57 683.977 1396.83 684.747 1392.99 685.517 1389.15 686.226 1385.8 686.874 1382.94L689.711 1370.17C690.306 1367.5 690.603 1365.32 690.603 1363.65 690.603 1362.38 690.285 1361.49 689.65 1360.99 689.015 1360.5 688.009 1360.2 686.631 1360.12L687.077 1358.14 701.261 1358.14 700.816 1360.12C699.789 1360.34 699.053 1360.58 698.607 1360.85 698.161 1361.12 697.763 1361.53 697.411 1362.07 697.06 1362.61 696.695 1363.45 696.317 1364.6 695.939 1365.75 695.466 1367.62 694.899 1370.21L685.375 1413.46 679.863 1413.46 668.029 1378.69C666.597 1374.52 665.341 1370.38 664.26 1366.24L663.733 1366.24C663.571 1367.62 663.125 1370.25 662.396 1374.13 661.666 1378 660.896 1381.79 660.086 1385.49L656.519 1401.66C655.952 1404.23 655.668 1406.34 655.668 1407.99 655.668 1409.2 655.972 1410.06 656.58 1410.56 657.188 1411.06 658.208 1411.36 659.64 1411.47L659.194 1413.46 645.01 1413.46 645.455 1411.47C646.482 1411.31 647.252 1411.05 647.765 1410.68 648.279 1410.32 648.711 1409.81 649.062 1409.16 649.414 1408.51 649.738 1407.72 650.035 1406.79 650.332 1405.86 650.778 1404.06 651.372 1401.38L658.262 1370.17C658.532 1369.01 658.748 1367.9 658.91 1366.85 659.073 1365.8 659.154 1364.73 659.154 1363.65 659.154 1362.38 658.836 1361.49 658.201 1360.99 657.566 1360.5 656.56 1360.2 655.182 1360.12Z" fill="#FFFFFF" fill-rule="evenodd"/><text fill="#000000" fill-opacity="0" font-family="Arial,Arial_MSFontService,sans-serif" font-size="55.3198" x="645.01" y="1406.54">๐</text><path d="M707.075 1399.89C708.505 1399.89 709.647 1400.37 710.501 1401.34 711.355 1402.3 711.781 1403.58 711.781 1405.19 711.781 1406.07 711.702 1407.04 711.543 1408.11 711.384 1409.18 711.116 1410.39 710.739 1411.72 709.984 1414.44 709.389 1416.82 708.952 1418.86 708.515 1420.91 708.297 1422.41 708.297 1423.36 708.297 1424.55 708.53 1425.44 708.997 1426.03 709.463 1426.61 710.213 1426.91 711.245 1426.91 712.179 1426.91 713.176 1426.56 714.239 1425.86 715.301 1425.17 716.319 1424.27 717.292 1423.17 718.265 1422.07 719.133 1420.83 719.898 1419.47 720.662 1418.11 721.223 1416.77 721.581 1415.44L724.857 1400.52 730.725 1400.52 726.138 1419.97C725.9 1420.98 725.731 1421.88 725.632 1422.68 725.532 1423.47 725.483 1424.15 725.483 1424.7 725.483 1425.46 725.622 1426 725.9 1426.34 726.178 1426.68 726.624 1426.85 727.24 1426.85 727.617 1426.85 727.985 1426.78 728.342 1426.64 728.699 1426.5 729.082 1426.28 729.489 1425.98 729.896 1425.68 730.338 1425.3 730.814 1424.84 731.291 1424.37 731.827 1423.81 732.423 1423.15L734.478 1425.12C733.485 1426.13 732.572 1427 731.738 1427.72 730.904 1428.45 730.109 1429.05 729.355 1429.51 728.6 1429.98 727.851 1430.32 727.106 1430.52 726.361 1430.73 725.592 1430.84 724.798 1430.84 723.368 1430.84 722.251 1430.38 721.447 1429.45 720.643 1428.53 720.24 1427.26 720.24 1425.65 720.24 1425.24 720.27 1424.82 720.33 1424.39 720.389 1423.96 720.499 1423.55 720.657 1423.15L720.3 1423.03C718.334 1425.64 716.423 1427.59 714.566 1428.89 712.71 1430.19 710.779 1430.84 708.773 1430.84 706.668 1430.84 705.085 1430.28 704.022 1429.17 702.96 1428.06 702.429 1426.46 702.429 1424.37 702.429 1423.84 702.523 1423.09 702.712 1422.14 702.901 1421.19 703.134 1420.12 703.412 1418.95 703.69 1417.78 703.988 1416.56 704.305 1415.27 704.623 1413.99 704.921 1412.76 705.199 1411.58 705.477 1410.4 705.71 1409.33 705.899 1408.36 706.088 1407.4 706.182 1406.65 706.182 1406.12 706.182 1404.67 705.586 1403.94 704.395 1403.94 704.018 1403.94 703.65 1404.02 703.293 1404.16 702.935 1404.31 702.553 1404.54 702.146 1404.84 701.739 1405.13 701.297 1405.51 700.821 1405.97 700.344 1406.42 699.808 1406.96 699.212 1407.58L697.187 1405.64C698.259 1404.57 699.217 1403.66 700.061 1402.93 700.905 1402.19 701.704 1401.6 702.459 1401.16 703.213 1400.71 703.958 1400.39 704.693 1400.19 705.427 1399.99 706.222 1399.89 707.075 1399.89Z" fill="#FFFFFF" fill-rule="evenodd"/><text fill="#000000" fill-opacity="0" font-family="Arial,Arial_MSFontService,sans-serif" font-size="30.9468" x="697.187" y="1426.97">๐ข</text><rect x="147.5" y="1184.5" width="166" height="124" stroke="#024059" stroke-width="6.875" stroke-miterlimit="8" fill="#0F9ED5"/><text fill="#FFFFFF" font-family="Aptos,Aptos_MSFontService,sans-serif" font-weight="400" font-size="83" transform="matrix(1 0 0 1 216.762 1272)">t</text><rect x="1287.5" y="1327.5" width="167" height="121" stroke="#024059" stroke-width="6.875" stroke-miterlimit="8" fill="#0F9ED5"/><path d="M1365.59 1364.86C1363.92 1364.86 1362.16 1364.9 1360.32 1364.98L1354.81 1389.54 1359.03 1389.54C1362.29 1389.54 1364.94 1389.2 1366.95 1388.53 1368.96 1387.85 1370.61 1386.8 1371.89 1385.39 1373.18 1383.97 1374.17 1382.29 1374.87 1380.34 1375.57 1378.4 1375.92 1376.26 1375.92 1373.94 1375.92 1370.8 1375.13 1368.51 1373.53 1367.05 1371.94 1365.59 1369.29 1364.86 1365.59 1364.86ZM1348.61 1361.29 1366.48 1361.29C1369.7 1361.29 1372.34 1361.54 1374.41 1362.04 1376.47 1362.54 1378.17 1363.31 1379.51 1364.35 1380.85 1365.39 1381.85 1366.71 1382.51 1368.3 1383.17 1369.9 1383.5 1371.75 1383.5 1373.86 1383.5 1377.91 1382.54 1381.42 1380.63 1384.39 1378.71 1387.37 1376.11 1389.55 1372.82 1390.96 1369.54 1392.36 1365.6 1393.07 1361.01 1393.07 1358.26 1393.07 1355.96 1393.01 1354.12 1392.9L1351.53 1404.82C1351.28 1405.93 1351.12 1406.78 1351.02 1407.37 1350.93 1407.97 1350.85 1408.61 1350.78 1409.3 1350.71 1409.99 1350.68 1410.6 1350.68 1411.14 1350.68 1411.98 1350.81 1412.63 1351.08 1413.11 1351.35 1413.58 1351.76 1413.92 1352.3 1414.14 1352.84 1414.36 1353.77 1414.52 1355.09 1414.63L1354.65 1416.61 1337.99 1416.61 1338.44 1414.63C1339.46 1414.46 1340.23 1414.2 1340.75 1413.84 1341.26 1413.47 1341.69 1412.96 1342.04 1412.32 1342.4 1411.67 1342.72 1410.88 1343.02 1409.95 1343.31 1409.01 1343.76 1407.21 1344.35 1404.54L1351.24 1373.33C1351.84 1370.63 1352.14 1368.49 1352.14 1366.93 1352.14 1365.6 1351.82 1364.68 1351.2 1364.17 1350.58 1363.66 1349.57 1363.36 1348.16 1363.28Z" fill="#FFFFFF" fill-rule="evenodd"/><text fill="#000000" fill-opacity="0" font-family="Arial,Arial_MSFontService,sans-serif" font-size="55.3198" x="1337.99" y="1409.7">๐</text><path d="M1364.75 1345.03 1370.19 1345.03 1384.37 1355.29 1382.79 1357.6 1367.92 1350.26 1367.47 1350.26 1352.27 1357.6 1350.69 1355.29Z" fill="#FFFFFF" fill-rule="evenodd"/><text fill="#000000" fill-opacity="0" font-family="Arial,Arial_MSFontService,sans-serif" font-size="12.5635" x="1350.69" y="1356.03">เท</text><rect x="320" y="1676" width="1846" height="303" fill="#E97132" fill-opacity="0.501961"/><path d="M570.878 1775.38C572.691 1775.38 574.274 1775.89 575.628 1776.91 576.983 1777.93 578.18 1779.44 579.222 1781.44L574.41 1783.54C573.41 1781.5 572.545 1780.09 571.816 1779.3 571.087 1778.52 570.18 1778.13 569.097 1778.13 568.514 1778.13 567.972 1778.24 567.472 1778.44 566.972 1778.65 566.514 1779.06 566.097 1779.68 565.68 1780.29 565.326 1781.11 565.035 1782.13 564.743 1783.15 564.347 1784.85 563.847 1787.23L561.66 1797.57C561.326 1799.13 560.951 1800.51 560.535 1801.69 560.118 1802.88 559.634 1804.01 559.081 1805.07 558.529 1806.13 557.946 1807.08 557.331 1807.9 556.717 1808.72 556.014 1809.55 555.222 1810.38L555.222 1810.69C556.535 1810.69 557.831 1810.84 559.113 1811.13 560.394 1811.42 561.66 1811.8 562.91 1812.26 564.18 1812.74 565.394 1813.12 566.55 1813.4 567.706 1813.68 568.847 1813.82 569.972 1813.82 571.201 1813.82 572.243 1813.65 573.097 1813.32 573.951 1812.99 574.79 1812.41 575.613 1811.6 576.436 1810.79 577.535 1809.33 578.91 1807.23L581.285 1808.79C578.764 1812.68 576.602 1815.37 574.8 1816.84 572.998 1818.3 571.18 1819.04 569.347 1819.04 567.785 1819.04 566.311 1818.87 564.925 1818.54 563.54 1818.21 562.18 1817.76 560.847 1817.19 559.347 1816.59 558.05 1816.14 556.956 1815.84 555.863 1815.53 554.743 1815.38 553.597 1815.38 552.347 1815.38 551.154 1815.62 550.019 1816.09 548.884 1816.55 547.264 1817.54 545.16 1819.04L543.503 1816.98C546.108 1814.62 548.305 1813.02 550.097 1812.16 552.41 1809.96 554.087 1806.46 555.128 1801.66L558.128 1787.85C558.67 1785.35 559.326 1783.34 560.097 1781.82 560.868 1780.3 561.785 1779.12 562.847 1778.27 563.91 1777.43 565.087 1776.74 566.378 1776.19 567.67 1775.65 569.17 1775.38 570.878 1775.38Z" fill-rule="evenodd"/><text fill="#000000" fill-opacity="0" font-family="Arial,Arial_MSFontService,sans-serif" font-size="43.6562" x="543.503" y="1813.58">โ</text><path d="M605.841 1804.66 644.341 1804.66 644.341 1808.82 605.841 1808.82ZM605.841 1791.69 644.341 1791.69 644.341 1795.85 605.841 1795.85Z" fill-rule="evenodd"/><text fill="#000000" fill-opacity="0" font-family="Arial,Arial_MSFontService,sans-serif" font-size="17.125" x="605.841" y="1806.68">=</text><path d="M707.31 1726.82 709.028 1726.82C708.903 1728.82 708.841 1731.59 708.841 1735.13L708.841 1761.82C708.841 1763.03 708.909 1763.94 709.044 1764.56 709.179 1765.17 709.419 1765.67 709.763 1766.06 710.107 1766.44 710.601 1766.74 711.247 1766.96 711.893 1767.18 712.705 1767.35 713.685 1767.46 714.664 1767.58 715.955 1767.66 717.56 1767.7L717.56 1769.98 694.466 1769.98 694.466 1767.7C696.778 1767.59 698.429 1767.45 699.419 1767.28 700.409 1767.1 701.164 1766.83 701.685 1766.48 702.205 1766.12 702.586 1765.62 702.825 1764.98 703.065 1764.33 703.185 1763.28 703.185 1761.82L703.185 1736.48C703.185 1735.64 703.039 1735.04 702.747 1734.65 702.455 1734.26 702.028 1734.07 701.466 1734.07 700.799 1734.07 699.851 1734.42 698.622 1735.1 697.393 1735.79 695.872 1736.74 694.06 1737.95L692.685 1735.54Z" fill-rule="evenodd"/><text fill="#000000" fill-opacity="0" font-family="Arial,Arial_MSFontService,sans-serif" font-size="43.1562" x="692.685" y="1764.58">1</text><path d="M677.045 1818.81 687.014 1818.81 695.264 1843.15C696.451 1846.65 697.368 1849.61 698.014 1852.02L698.358 1852.02C698.524 1850.75 698.904 1848.64 699.498 1845.68 700.092 1842.72 700.639 1840.14 701.139 1837.93L703.326 1828.09C703.785 1826.02 704.014 1824.35 704.014 1823.06 704.014 1822.08 703.769 1821.39 703.279 1821.01 702.79 1820.62 702.014 1820.4 700.951 1820.34L701.295 1818.81 712.233 1818.81 711.889 1820.34C711.097 1820.5 710.529 1820.69 710.186 1820.9 709.842 1821.11 709.535 1821.42 709.264 1821.84 708.993 1822.25 708.712 1822.9 708.42 1823.79 708.128 1824.68 707.764 1826.12 707.326 1828.12L699.983 1861.46 695.733 1861.46 686.608 1834.65C685.503 1831.44 684.535 1828.24 683.701 1825.06L683.295 1825.06C683.17 1826.12 682.826 1828.14 682.264 1831.13 681.701 1834.12 681.108 1837.04 680.483 1839.9L677.733 1852.37C677.295 1854.35 677.076 1855.97 677.076 1857.24 677.076 1858.18 677.311 1858.84 677.779 1859.23 678.248 1859.61 679.035 1859.85 680.139 1859.93L679.795 1861.46 668.858 1861.46 669.201 1859.93C669.993 1859.81 670.587 1859.6 670.983 1859.32 671.378 1859.04 671.712 1858.65 671.983 1858.15 672.253 1857.65 672.503 1857.04 672.733 1856.32 672.962 1855.6 673.305 1854.21 673.764 1852.15L679.076 1828.09C679.285 1827.19 679.451 1826.34 679.576 1825.52 679.701 1824.71 679.764 1823.89 679.764 1823.06 679.764 1822.08 679.519 1821.39 679.029 1821.01 678.54 1820.62 677.764 1820.4 676.701 1820.34Z" fill-rule="evenodd"/><text fill="#000000" fill-opacity="0" font-family="Arial,Arial_MSFontService,sans-serif" font-size="42.6562" x="668.858" y="1856.13">๐</text><path d="M717.27 1851.12C718.371 1851.12 719.251 1851.49 719.909 1852.23 720.567 1852.97 720.896 1853.96 720.896 1855.2 720.896 1855.87 720.834 1856.62 720.712 1857.45 720.59 1858.28 720.383 1859.2 720.092 1860.23 719.511 1862.32 719.052 1864.16 718.715 1865.73 718.379 1867.31 718.21 1868.47 718.21 1869.2 718.21 1870.12 718.39 1870.8 718.75 1871.25 719.109 1871.71 719.687 1871.93 720.482 1871.93 721.201 1871.93 721.97 1871.66 722.789 1871.13 723.607 1870.59 724.391 1869.9 725.141 1869.05 725.891 1868.2 726.56 1867.25 727.149 1866.2 727.738 1865.16 728.17 1864.12 728.446 1863.1L730.97 1851.6 735.491 1851.6 731.957 1866.58C731.773 1867.36 731.643 1868.06 731.567 1868.67 731.49 1869.28 731.452 1869.8 731.452 1870.23 731.452 1870.81 731.559 1871.23 731.773 1871.49 731.988 1871.75 732.332 1871.88 732.806 1871.88 733.097 1871.88 733.38 1871.83 733.655 1871.72 733.931 1871.62 734.225 1871.45 734.539 1871.22 734.852 1870.99 735.193 1870.7 735.56 1870.34 735.927 1869.98 736.34 1869.54 736.799 1869.04L738.383 1870.55C737.618 1871.33 736.914 1872 736.271 1872.56 735.629 1873.12 735.017 1873.58 734.436 1873.94 733.854 1874.3 733.277 1874.56 732.703 1874.72 732.129 1874.88 731.536 1874.96 730.924 1874.96 729.823 1874.96 728.962 1874.6 728.343 1873.89 727.723 1873.18 727.413 1872.21 727.413 1870.97 727.413 1870.65 727.436 1870.32 727.482 1869.99 727.528 1869.66 727.612 1869.35 727.734 1869.04L727.459 1868.95C725.944 1870.95 724.472 1872.45 723.041 1873.46 721.611 1874.46 720.123 1874.96 718.578 1874.96 716.956 1874.96 715.736 1874.53 714.917 1873.67 714.099 1872.82 713.689 1871.59 713.689 1869.98 713.689 1869.57 713.762 1868.99 713.907 1868.26 714.053 1867.52 714.233 1866.71 714.447 1865.8 714.661 1864.9 714.89 1863.96 715.135 1862.97 715.38 1861.98 715.61 1861.03 715.824 1860.12 716.038 1859.21 716.218 1858.39 716.363 1857.64 716.508 1856.9 716.581 1856.33 716.581 1855.91 716.581 1854.8 716.122 1854.24 715.204 1854.24 714.913 1854.24 714.63 1854.29 714.355 1854.41 714.08 1854.52 713.785 1854.7 713.471 1854.93 713.158 1855.15 712.817 1855.45 712.45 1855.8 712.083 1856.15 711.67 1856.56 711.211 1857.04L709.65 1855.55C710.477 1854.72 711.215 1854.02 711.865 1853.46 712.515 1852.89 713.131 1852.44 713.712 1852.09 714.294 1851.75 714.867 1851.5 715.434 1851.35 716 1851.19 716.612 1851.12 717.27 1851.12Z" fill-rule="evenodd"/><text fill="#000000" fill-opacity="0" font-family="Arial,Arial_MSFontService,sans-serif" font-size="23.8442" x="709.65" y="1871.98">๐ข</text><path d="M666.778 1798.54 741.778 1798.54 741.778 1802.54 666.778 1802.54Z" fill-rule="evenodd"/><path d="M755.422 1739.16 830.891 1739.16 830.891 1757.66 826.766 1757.66C826.287 1753.23 825.318 1749.72 823.86 1747.13 822.401 1744.55 820.193 1743.26 817.235 1743.26L767.922 1743.26 805.203 1793.88 805.203 1797.66 764.953 1852.29 819.172 1852.29C821.568 1852.29 823.401 1851.44 824.672 1849.76 825.943 1848.07 827.037 1844.3 827.953 1838.44L832.578 1838.44 830.985 1861.35 754.141 1861.35 754.141 1858.26 797.922 1798.91 755.422 1742.13Z" fill-rule="evenodd"/><text fill="#000000" fill-opacity="0" font-family="Arial,Arial_MSFontService,sans-serif" font-size="122.188" x="754.141" y="1846.08">เท</text><path d="M1085.02 1761.6C1091.52 1763.31 1096.53 1767.74 1100.05 1774.88 1103.57 1782.03 1105.33 1790.49 1105.33 1800.26 1105.33 1810.03 1103.57 1818.49 1100.05 1825.63 1096.53 1832.78 1091.52 1837.21 1085.02 1838.91L1084.24 1836.35C1089.28 1834.46 1093.1 1830.33 1095.69 1823.96 1098.28 1817.6 1099.58 1809.71 1099.58 1800.29 1099.58 1790.85 1098.28 1782.94 1095.69 1776.57 1093.1 1770.19 1089.28 1766.06 1084.24 1764.16ZM895.499 1761.6 896.28 1764.16C891.239 1766.06 887.421 1770.19 884.827 1776.57 882.234 1782.94 880.937 1790.85 880.937 1800.29 880.937 1809.71 882.234 1817.6 884.827 1823.96 887.421 1830.33 891.239 1834.46 896.28 1836.35L895.499 1838.91C888.999 1837.21 883.989 1832.78 880.468 1825.63 876.947 1818.49 875.187 1810.03 875.187 1800.26 875.187 1790.49 876.947 1782.03 880.468 1774.88 883.989 1767.74 888.999 1763.31 895.499 1761.6Z" fill-rule="evenodd"/><path d="M921.453 1778.63C920.162 1778.63 918.808 1778.66 917.391 1778.73L913.141 1797.66 916.391 1797.66C918.912 1797.66 920.948 1797.4 922.5 1796.88 924.052 1796.36 925.323 1795.55 926.313 1794.46 927.302 1793.37 928.068 1792.07 928.61 1790.57 929.151 1789.07 929.422 1787.42 929.422 1785.63 929.422 1783.22 928.808 1781.44 927.578 1780.32 926.349 1779.19 924.308 1778.63 921.453 1778.63ZM908.36 1775.88 922.141 1775.88C924.62 1775.88 926.656 1776.08 928.25 1776.46 929.844 1776.85 931.156 1777.44 932.188 1778.24 933.219 1779.04 933.99 1780.06 934.5 1781.29 935.011 1782.52 935.266 1783.94 935.266 1785.57 935.266 1788.69 934.526 1791.4 933.047 1793.69 931.568 1795.99 929.563 1797.67 927.031 1798.76 924.5 1799.84 921.464 1800.38 917.922 1800.38 915.797 1800.38 914.026 1800.34 912.61 1800.26L910.61 1809.44C910.422 1810.3 910.292 1810.96 910.219 1811.41 910.146 1811.87 910.084 1812.37 910.031 1812.9 909.979 1813.43 909.953 1813.9 909.953 1814.32 909.953 1814.97 910.058 1815.47 910.266 1815.84 910.474 1816.2 910.787 1816.47 911.203 1816.63 911.62 1816.8 912.339 1816.92 913.36 1817.01L913.016 1818.54 900.172 1818.54 900.516 1817.01C901.308 1816.88 901.901 1816.68 902.297 1816.4 902.693 1816.12 903.026 1815.73 903.297 1815.23 903.568 1814.73 903.818 1814.12 904.047 1813.4 904.276 1812.68 904.62 1811.29 905.078 1809.23L910.391 1785.16C910.849 1783.08 911.078 1781.43 911.078 1780.23 911.078 1779.21 910.839 1778.5 910.36 1778.1 909.88 1777.71 909.099 1777.48 908.016 1777.41Z" fill-rule="evenodd"/><text fill="#000000" fill-opacity="0" font-family="Arial,Arial_MSFontService,sans-serif" font-size="42.6562" x="900.172" y="1813.21">๐</text><path d="M949.326 1772.95 952.355 1772.95 951.689 1780.13 957.587 1775.98 959.079 1778.55 952.539 1781.6 959.079 1784.68 957.587 1787.22 951.689 1783.07 952.355 1790.25 949.326 1790.25 950.014 1783.07 944.093 1787.22 942.579 1784.68 949.142 1781.6 942.579 1778.55 944.093 1775.98 950.014 1780.13Z" fill-rule="evenodd"/><text fill="#000000" fill-opacity="0" font-family="Arial,Arial_MSFontService,sans-serif" font-size="17.3037" x="942.579" y="1788.09">โ</text><path d="M983.393 1798.16 1021.89 1798.16 1021.89 1802.32 983.393 1802.32Z" fill-rule="evenodd"/><text fill="#000000" fill-opacity="0" font-family="Arial,Arial_MSFontService,sans-serif" font-size="4.15625" x="983.393" y="1801.8">โ</text><path d="M1064.18 1778.63C1062.89 1778.63 1061.53 1778.66 1060.12 1778.73L1055.87 1797.66 1059.12 1797.66C1061.64 1797.66 1063.67 1797.4 1065.23 1796.88 1066.78 1796.36 1068.05 1795.55 1069.04 1794.46 1070.03 1793.37 1070.79 1792.07 1071.33 1790.57 1071.88 1789.07 1072.15 1787.42 1072.15 1785.63 1072.15 1783.22 1071.53 1781.44 1070.3 1780.32 1069.07 1779.19 1067.03 1778.63 1064.18 1778.63ZM1051.08 1775.88 1064.87 1775.88C1067.34 1775.88 1069.38 1776.08 1070.98 1776.46 1072.57 1776.85 1073.88 1777.44 1074.91 1778.24 1075.94 1779.04 1076.71 1780.06 1077.23 1781.29 1077.74 1782.52 1077.99 1783.94 1077.99 1785.57 1077.99 1788.69 1077.25 1791.4 1075.77 1793.69 1074.29 1795.99 1072.29 1797.67 1069.76 1798.76 1067.23 1799.84 1064.19 1800.38 1060.65 1800.38 1058.52 1800.38 1056.75 1800.34 1055.33 1800.26L1053.33 1809.44C1053.15 1810.3 1053.02 1810.96 1052.94 1811.41 1052.87 1811.87 1052.81 1812.37 1052.76 1812.9 1052.7 1813.43 1052.68 1813.9 1052.68 1814.32 1052.68 1814.97 1052.78 1815.47 1052.99 1815.84 1053.2 1816.2 1053.51 1816.47 1053.93 1816.63 1054.34 1816.8 1055.06 1816.92 1056.08 1817.01L1055.74 1818.54 1042.9 1818.54 1043.24 1817.01C1044.03 1816.88 1044.63 1816.68 1045.02 1816.4 1045.42 1816.12 1045.75 1815.73 1046.02 1815.23 1046.29 1814.73 1046.54 1814.12 1046.77 1813.4 1047 1812.68 1047.34 1811.29 1047.8 1809.23L1053.12 1785.16C1053.57 1783.08 1053.8 1781.43 1053.8 1780.23 1053.8 1779.21 1053.56 1778.5 1053.08 1778.1 1052.61 1777.71 1051.82 1777.48 1050.74 1777.41Z" fill="#215F9A" fill-rule="evenodd"/><text fill="#000000" fill-opacity="0" font-family="Arial,Arial_MSFontService,sans-serif" font-size="42.6562" x="1042.9" y="1813.21">๐</text><path d="M1063.62 1763.22 1067.81 1763.22 1078.75 1771.13 1077.53 1772.91 1066.06 1767.25 1065.72 1767.25 1054 1772.91 1052.78 1771.13Z" fill="#215F9A" fill-rule="evenodd"/><text fill="#000000" fill-opacity="0" font-family="Arial,Arial_MSFontService,sans-serif" font-size="9.6875" x="1052.78" y="1771.7">เท</text><path d="M1124.74 1746.15C1126.33 1746.15 1127.68 1746.33 1128.81 1746.69 1129.93 1747.05 1130.85 1747.53 1131.55 1748.15 1132.25 1748.76 1132.76 1749.49 1133.08 1750.35 1133.39 1751.21 1133.55 1752.13 1133.55 1753.13 1133.55 1753.72 1133.51 1754.28 1133.42 1754.79 1133.34 1755.3 1133.19 1755.81 1132.99 1756.3 1132.78 1756.8 1132.51 1757.3 1132.17 1757.81 1131.83 1758.31 1131.41 1758.85 1130.91 1759.41 1130.53 1759.9 1130.03 1760.47 1129.42 1761.11 1128.8 1761.75 1128.14 1762.44 1127.41 1763.18 1126.68 1763.91 1125.92 1764.68 1125.13 1765.47 1124.33 1766.27 1123.56 1767.06 1122.81 1767.84 1122.06 1768.62 1121.37 1769.37 1120.74 1770.11 1120.11 1770.84 1119.6 1771.52 1119.2 1772.13L1127.7 1772.13C1128.41 1772.13 1128.99 1772.1 1129.42 1772.05 1129.85 1771.99 1130.2 1771.87 1130.48 1771.69 1130.77 1771.51 1131.01 1771.23 1131.21 1770.85 1131.41 1770.48 1131.64 1769.96 1131.9 1769.3L1134.03 1769.3C1133.95 1770.39 1133.88 1771.48 1133.81 1772.59 1133.74 1773.69 1133.67 1774.78 1133.59 1775.87L1114.16 1775.87 1114.16 1774.67C1114.52 1773.85 1114.95 1773.03 1115.44 1772.23 1115.93 1771.43 1116.48 1770.61 1117.09 1769.79 1117.71 1768.96 1118.4 1768.11 1119.18 1767.23 1119.96 1766.35 1120.83 1765.43 1121.77 1764.48 1123.21 1763.05 1124.38 1761.82 1125.29 1760.8 1126.19 1759.78 1126.9 1758.88 1127.42 1758.08 1127.94 1757.29 1128.3 1756.55 1128.49 1755.88 1128.68 1755.21 1128.77 1754.49 1128.77 1753.72 1128.77 1752.94 1128.66 1752.22 1128.44 1751.56 1128.22 1750.91 1127.9 1750.35 1127.49 1749.89 1127.08 1749.43 1126.55 1749.07 1125.92 1748.81 1125.28 1748.55 1124.55 1748.42 1123.73 1748.42 1122.3 1748.42 1121.11 1748.81 1120.15 1749.58 1119.18 1750.35 1118.43 1751.47 1117.9 1752.94L1114.89 1752.94 1114.89 1748.47C1116.85 1747.66 1118.65 1747.07 1120.29 1746.7 1121.94 1746.33 1123.42 1746.15 1124.74 1746.15Z" fill-rule="evenodd"/><text fill="#000000" fill-opacity="0" font-family="Arial,Arial_MSFontService,sans-serif" font-size="29.7192" x="1114.16" y="1772.15">2</text><path d="M846.863 1848.07C847.965 1848.07 848.845 1848.44 849.502 1849.18 850.16 1849.92 850.489 1850.91 850.489 1852.15 850.489 1852.83 850.428 1853.58 850.306 1854.4 850.183 1855.23 849.977 1856.15 849.686 1857.18 849.105 1859.27 848.646 1861.11 848.309 1862.69 847.972 1864.26 847.804 1865.42 847.804 1866.15 847.804 1867.07 847.984 1867.75 848.344 1868.21 848.703 1868.66 849.281 1868.88 850.076 1868.88 850.795 1868.88 851.564 1868.62 852.383 1868.08 853.201 1867.54 853.985 1866.85 854.735 1866 855.485 1865.15 856.154 1864.2 856.743 1863.16 857.332 1862.11 857.764 1861.07 858.04 1860.05L860.564 1848.55 865.085 1848.55 861.551 1863.54C861.367 1864.32 861.237 1865.01 861.161 1865.62 861.084 1866.24 861.046 1866.76 861.046 1867.18 861.046 1867.77 861.153 1868.19 861.367 1868.45 861.581 1868.71 861.926 1868.84 862.4 1868.84 862.691 1868.84 862.974 1868.78 863.249 1868.68 863.524 1868.57 863.819 1868.4 864.133 1868.17 864.446 1867.94 864.787 1867.65 865.154 1867.29 865.521 1866.93 865.934 1866.5 866.393 1865.99L867.977 1867.51C867.212 1868.29 866.508 1868.96 865.865 1869.51 865.223 1870.07 864.611 1870.53 864.029 1870.89 863.448 1871.25 862.87 1871.51 862.297 1871.67 861.723 1871.83 861.13 1871.91 860.518 1871.91 859.417 1871.91 858.556 1871.56 857.936 1870.84 857.317 1870.13 857.007 1869.16 857.007 1867.92 857.007 1867.6 857.03 1867.27 857.076 1866.94 857.122 1866.61 857.206 1866.3 857.328 1865.99L857.053 1865.9C855.538 1867.9 854.065 1869.41 852.635 1870.41 851.205 1871.41 849.717 1871.91 848.171 1871.91 846.55 1871.91 845.33 1871.48 844.511 1870.63 843.692 1869.77 843.283 1868.54 843.283 1866.93 843.283 1866.52 843.356 1865.95 843.501 1865.21 843.647 1864.48 843.826 1863.66 844.041 1862.76 844.255 1861.85 844.484 1860.91 844.729 1859.92 844.974 1858.93 845.203 1857.99 845.417 1857.08 845.632 1856.17 845.811 1855.34 845.957 1854.6 846.102 1853.85 846.175 1853.28 846.175 1852.86 846.175 1851.75 845.716 1851.19 844.798 1851.19 844.507 1851.19 844.224 1851.25 843.949 1851.36 843.673 1851.48 843.379 1851.65 843.065 1851.88 842.752 1852.11 842.411 1852.4 842.044 1852.75 841.677 1853.1 841.264 1853.51 840.805 1853.99L839.244 1852.5C840.07 1851.67 840.809 1850.97 841.459 1850.41 842.109 1849.84 842.725 1849.39 843.306 1849.04 843.888 1848.7 844.461 1848.45 845.027 1848.3 845.593 1848.14 846.205 1848.07 846.863 1848.07Z" fill-rule="evenodd"/><text fill="#000000" fill-opacity="0" font-family="Arial,Arial_MSFontService,sans-serif" font-size="23.8442" x="839.244" y="1868.93">๐ข</text><path d="M1176.56 1780.16 1181 1780.16 1181 1798.16 1198.03 1798.16 1198.03 1802.32 1181 1802.32 1181 1820.32 1176.56 1820.32 1176.56 1802.32 1159.53 1802.32 1159.53 1798.16 1176.56 1798.16Z" fill-rule="evenodd"/><text fill="#000000" fill-opacity="0" font-family="Arial,Arial_MSFontService,sans-serif" font-size="40.1562" x="1159.53" y="1815.3">+</text><path d="M1254.56 1726.82 1256.28 1726.82C1256.15 1728.82 1256.09 1731.59 1256.09 1735.13L1256.09 1761.82C1256.09 1763.03 1256.16 1763.94 1256.29 1764.56 1256.43 1765.17 1256.67 1765.67 1257.01 1766.06 1257.36 1766.44 1257.85 1766.74 1258.5 1766.96 1259.14 1767.18 1259.96 1767.35 1260.93 1767.46 1261.91 1767.58 1263.21 1767.66 1264.81 1767.7L1264.81 1769.98 1241.72 1769.98 1241.72 1767.7C1244.03 1767.59 1245.68 1767.45 1246.67 1767.28 1247.66 1767.1 1248.41 1766.83 1248.93 1766.48 1249.46 1766.12 1249.84 1765.62 1250.08 1764.98 1250.31 1764.33 1250.43 1763.28 1250.43 1761.82L1250.43 1736.48C1250.43 1735.64 1250.29 1735.04 1250 1734.65 1249.71 1734.26 1249.28 1734.07 1248.72 1734.07 1248.05 1734.07 1247.1 1734.42 1245.87 1735.1 1244.64 1735.79 1243.12 1736.74 1241.31 1737.95L1239.93 1735.54Z" fill-rule="evenodd"/><text fill="#000000" fill-opacity="0" font-family="Arial,Arial_MSFontService,sans-serif" font-size="43.1562" x="1239.93" y="1764.58">1</text><path d="M1227.16 1818.81 1237.13 1818.81 1245.38 1843.15C1246.57 1846.65 1247.48 1849.61 1248.13 1852.02L1248.47 1852.02C1248.64 1850.75 1249.02 1848.64 1249.61 1845.68 1250.21 1842.72 1250.75 1840.14 1251.25 1837.93L1253.44 1828.09C1253.9 1826.02 1254.13 1824.35 1254.13 1823.06 1254.13 1822.08 1253.88 1821.39 1253.39 1821.01 1252.9 1820.62 1252.13 1820.4 1251.07 1820.34L1251.41 1818.81 1262.35 1818.81 1262 1820.34C1261.21 1820.5 1260.64 1820.69 1260.3 1820.9 1259.96 1821.11 1259.65 1821.42 1259.38 1821.84 1259.11 1822.25 1258.83 1822.9 1258.53 1823.79 1258.24 1824.68 1257.88 1826.12 1257.44 1828.12L1250.1 1861.46 1245.85 1861.46 1236.72 1834.65C1235.62 1831.44 1234.65 1828.24 1233.82 1825.06L1233.41 1825.06C1233.28 1826.12 1232.94 1828.14 1232.38 1831.13 1231.82 1834.12 1231.22 1837.04 1230.6 1839.9L1227.85 1852.37C1227.41 1854.35 1227.19 1855.97 1227.19 1857.24 1227.19 1858.18 1227.43 1858.84 1227.89 1859.23 1228.36 1859.61 1229.15 1859.85 1230.25 1859.93L1229.91 1861.46 1218.97 1861.46 1219.32 1859.93C1220.11 1859.81 1220.7 1859.6 1221.1 1859.32 1221.49 1859.04 1221.83 1858.65 1222.1 1858.15 1222.37 1857.65 1222.62 1857.04 1222.85 1856.32 1223.08 1855.6 1223.42 1854.21 1223.88 1852.15L1229.19 1828.09C1229.4 1827.19 1229.57 1826.34 1229.69 1825.52 1229.82 1824.71 1229.88 1823.89 1229.88 1823.06 1229.88 1822.08 1229.63 1821.39 1229.14 1821.01 1228.65 1820.62 1227.88 1820.4 1226.82 1820.34Z" fill-rule="evenodd"/><text fill="#000000" fill-opacity="0" font-family="Arial,Arial_MSFontService,sans-serif" font-size="42.6562" x="1218.97" y="1856.13">๐</text><path d="M1278.15 1842.46C1278.99 1842.46 1279.74 1842.51 1280.38 1842.59 1281.02 1842.67 1281.64 1842.78 1282.24 1842.9L1281.3 1847.17 1279.02 1847.17C1278.92 1846.3 1278.66 1845.66 1278.24 1845.25 1277.83 1844.85 1277.28 1844.64 1276.59 1844.64 1275.8 1844.64 1275.13 1844.82 1274.58 1845.16 1274.04 1845.5 1273.57 1846.02 1273.16 1846.72 1272.76 1847.42 1272.41 1848.23 1272.12 1849.17 1271.83 1850.1 1271.63 1850.91 1271.52 1851.6L1277.88 1851.6 1277.37 1854.15 1270.99 1854.15 1266.84 1873.81C1266.12 1877.16 1264.95 1879.65 1263.34 1881.26 1261.72 1882.87 1259.57 1883.68 1256.88 1883.68 1256.18 1883.68 1255.66 1883.63 1255.34 1883.54 1255.43 1883.16 1255.52 1882.77 1255.59 1882.36 1255.67 1881.96 1255.76 1881.56 1255.87 1881.18 1255.96 1881.21 1256.09 1881.23 1256.26 1881.23 1256.43 1881.23 1256.66 1881.23 1256.97 1881.23 1257.57 1881.23 1258.11 1881.13 1258.61 1880.94 1259.11 1880.75 1259.56 1880.4 1259.98 1879.91 1260.39 1879.41 1260.77 1878.73 1261.11 1877.86 1261.46 1877 1261.78 1875.89 1262.09 1874.52L1266.68 1854.15 1262.73 1854.15 1263.14 1852.38C1263.99 1852.33 1264.65 1852.28 1265.15 1852.22 1265.65 1852.16 1266.07 1852.02 1266.41 1851.82 1266.76 1851.61 1267.01 1851.26 1267.18 1850.77 1268.07 1847.97 1269.41 1845.89 1271.19 1844.52 1272.97 1843.15 1275.29 1842.46 1278.15 1842.46Z" fill-rule="evenodd"/><text fill="#000000" fill-opacity="0" font-family="Arial,Arial_MSFontService,sans-serif" font-size="41.2168" x="1255.34" y="1878.53">๐</text><path d="M1216.78 1798.54 1286.78 1798.54 1286.78 1802.54 1216.78 1802.54Z" fill-rule="evenodd"/><path d="M1299.83 1739.16 1375.3 1739.16 1375.3 1757.66 1371.17 1757.66C1370.7 1753.23 1369.73 1749.72 1368.27 1747.13 1366.81 1744.55 1364.6 1743.26 1361.64 1743.26L1312.33 1743.26 1349.61 1793.88 1349.61 1797.66 1309.36 1852.29 1363.58 1852.29C1365.98 1852.29 1367.81 1851.44 1369.08 1849.76 1370.35 1848.07 1371.45 1844.3 1372.36 1838.44L1376.99 1838.44 1375.39 1861.35 1298.55 1861.35 1298.55 1858.26 1342.33 1798.91 1299.83 1742.13Z" fill-rule="evenodd"/><text fill="#000000" fill-opacity="0" font-family="Arial,Arial_MSFontService,sans-serif" font-size="122.188" x="1298.55" y="1846.08">เท</text><path d="M1864.67 1718.68C1873.24 1726.01 1880.03 1736.95 1885.06 1751.49 1890.1 1766.03 1892.61 1782.26 1892.61 1800.18 1892.61 1817.82 1890.1 1834.03 1885.06 1848.79 1880.03 1863.55 1873.24 1874.57 1864.67 1881.87L1863.21 1879.55C1870.6 1872.03 1876.3 1861.15 1880.3 1846.9 1884.3 1832.65 1886.3 1817.08 1886.3 1800.21 1886.3 1782.94 1884.29 1767.3 1880.27 1753.3 1876.25 1739.3 1870.56 1728.54 1863.21 1721.02ZM1456.03 1718.68 1457.49 1721.02C1450.12 1728.54 1444.43 1739.3 1440.42 1753.3 1436.41 1767.3 1434.4 1782.94 1434.4 1800.21 1434.4 1817.08 1436.4 1832.65 1440.4 1846.9 1444.4 1861.15 1450.1 1872.03 1457.49 1879.55L1456.03 1881.87C1447.46 1874.57 1440.67 1863.55 1435.64 1848.79 1430.6 1834.03 1428.09 1817.82 1428.09 1800.18 1428.09 1782.26 1430.6 1766.03 1435.64 1751.49 1440.67 1736.95 1447.46 1726.01 1456.03 1718.68Z" fill-rule="evenodd"/><path d="M1479.61 1742.04C1477.49 1742.04 1475.58 1742.9 1473.89 1744.62 1472.21 1746.34 1470.88 1748.66 1469.91 1751.57 1468.94 1754.49 1468.46 1757.39 1468.46 1760.29 1468.46 1762.46 1468.75 1764.08 1469.35 1765.15 1469.94 1766.22 1470.93 1766.76 1472.33 1766.76 1472.98 1766.76 1473.63 1766.62 1474.3 1766.34 1474.97 1766.06 1475.66 1765.6 1476.38 1764.98 1477.1 1764.35 1477.8 1763.59 1478.5 1762.7 1479.2 1761.8 1479.84 1760.9 1480.42 1759.99 1481.01 1759.09 1481.55 1758.01 1482.05 1756.78 1482.55 1755.54 1482.98 1754.04 1483.33 1752.29L1483.61 1750.95C1483.92 1749.45 1484.08 1748.03 1484.08 1746.7 1484.08 1745.07 1483.74 1743.89 1483.05 1743.15 1482.36 1742.41 1481.22 1742.04 1479.61 1742.04ZM1492.71 1725.29 1494.55 1725.29 1486.77 1759.88C1486.31 1761.93 1486.08 1763.47 1486.08 1764.51 1486.08 1765.34 1486.22 1765.95 1486.49 1766.32 1486.76 1766.7 1487.18 1766.88 1487.77 1766.88 1488.39 1766.88 1489.06 1766.63 1489.77 1766.12 1490.48 1765.61 1491.48 1764.63 1492.77 1763.2L1494.55 1764.95C1492.63 1766.97 1491.02 1768.39 1489.71 1769.23 1488.39 1770.06 1486.98 1770.48 1485.46 1770.48 1484.16 1770.48 1483.13 1770.05 1482.36 1769.2 1481.59 1768.34 1481.21 1767.21 1481.21 1765.79 1481.21 1764.64 1481.45 1763.43 1481.92 1762.13L1481.52 1762.01C1479.52 1764.93 1477.62 1767.06 1475.83 1768.42 1474.04 1769.77 1472.14 1770.45 1470.14 1770.45 1467.85 1770.45 1466.08 1769.58 1464.81 1767.85 1463.55 1766.12 1462.92 1763.7 1462.92 1760.57 1462.92 1756.99 1463.63 1753.55 1465.03 1750.24 1466.44 1746.94 1468.37 1744.34 1470.83 1742.43 1473.29 1740.53 1476.03 1739.57 1479.05 1739.57 1480.32 1739.57 1481.49 1739.7 1482.56 1739.96 1483.64 1740.22 1484.74 1740.68 1485.86 1741.32L1487.49 1734.1C1487.65 1733.42 1487.8 1732.66 1487.92 1731.82 1488.05 1730.99 1488.11 1730.26 1488.11 1729.63 1488.11 1729.01 1488 1728.54 1487.77 1728.21 1487.54 1727.89 1487.21 1727.66 1486.78 1727.51 1486.36 1727.36 1485.59 1727.26 1484.49 1727.2L1484.86 1725.57Z" fill-rule="evenodd"/><text fill="#000000" fill-opacity="0" font-family="Arial,Arial_MSFontService,sans-serif" font-size="45.1875" x="1462.92" y="1764.83">๐</text><path d="M1521.98 1730.07C1520.69 1730.07 1519.34 1730.1 1517.92 1730.17L1513.67 1749.1 1516.92 1749.1C1519.44 1749.1 1521.48 1748.84 1523.03 1748.32 1524.58 1747.8 1525.85 1746.99 1526.84 1745.9 1527.83 1744.81 1528.6 1743.51 1529.14 1742.01 1529.68 1740.51 1529.95 1738.86 1529.95 1737.07 1529.95 1734.66 1529.34 1732.88 1528.11 1731.76 1526.88 1730.63 1524.84 1730.07 1521.98 1730.07ZM1508.89 1727.32 1522.67 1727.32C1525.15 1727.32 1527.19 1727.51 1528.78 1727.9 1530.38 1728.29 1531.69 1728.88 1532.72 1729.68 1533.75 1730.48 1534.52 1731.5 1535.03 1732.73 1535.54 1733.96 1535.8 1735.38 1535.8 1737.01 1535.8 1740.13 1535.06 1742.84 1533.58 1745.13 1532.1 1747.43 1530.09 1749.11 1527.56 1750.2 1525.03 1751.28 1521.99 1751.82 1518.45 1751.82 1516.33 1751.82 1514.56 1751.78 1513.14 1751.7L1511.14 1760.88C1510.95 1761.74 1510.82 1762.39 1510.75 1762.85 1510.68 1763.31 1510.61 1763.81 1510.56 1764.34 1510.51 1764.87 1510.48 1765.34 1510.48 1765.76 1510.48 1766.41 1510.59 1766.91 1510.8 1767.28 1511.01 1767.64 1511.32 1767.91 1511.73 1768.07 1512.15 1768.24 1512.87 1768.36 1513.89 1768.45L1513.55 1769.98 1500.7 1769.98 1501.05 1768.45C1501.84 1768.32 1502.43 1768.12 1502.83 1767.84 1503.22 1767.56 1503.56 1767.17 1503.83 1766.67 1504.1 1766.17 1504.35 1765.56 1504.58 1764.84 1504.81 1764.12 1505.15 1762.73 1505.61 1760.67L1510.92 1736.6C1511.38 1734.52 1511.61 1732.87 1511.61 1731.67 1511.61 1730.64 1511.37 1729.94 1510.89 1729.54 1510.41 1729.14 1509.63 1728.92 1508.55 1728.85Z" fill="#215F9A" fill-rule="evenodd"/><text fill="#000000" fill-opacity="0" font-family="Arial,Arial_MSFontService,sans-serif" font-size="42.6562" x="1500.7" y="1764.65">๐</text><path d="M1521.43 1714.66 1525.62 1714.66 1536.56 1722.57 1535.34 1724.35 1523.87 1718.69 1523.52 1718.69 1511.81 1724.35 1510.59 1722.57Z" fill="#215F9A" fill-rule="evenodd"/><text fill="#000000" fill-opacity="0" font-family="Arial,Arial_MSFontService,sans-serif" font-size="9.6875" x="1510.59" y="1723.14">เท</text><path d="M1487.79 1833.52C1485.67 1833.52 1483.76 1834.38 1482.07 1836.1 1480.39 1837.82 1479.06 1840.14 1478.09 1843.06 1477.12 1845.97 1476.64 1848.88 1476.64 1851.77 1476.64 1853.94 1476.93 1855.56 1477.53 1856.63 1478.12 1857.71 1479.12 1858.24 1480.51 1858.24 1481.16 1858.24 1481.81 1858.1 1482.48 1857.82 1483.15 1857.54 1483.84 1857.09 1484.56 1856.46 1485.28 1855.84 1485.99 1855.08 1486.68 1854.18 1487.38 1853.28 1488.02 1852.38 1488.61 1851.48 1489.19 1850.57 1489.73 1849.5 1490.23 1848.26 1490.73 1847.02 1491.16 1845.52 1491.51 1843.77L1491.79 1842.43C1492.11 1840.93 1492.26 1839.51 1492.26 1838.18 1492.26 1836.56 1491.92 1835.37 1491.23 1834.63 1490.54 1833.89 1489.4 1833.52 1487.79 1833.52ZM1517.04 1823.87 1521.36 1823.87 1519.64 1831.59 1529.14 1831.59 1528.45 1834.74 1518.95 1834.74 1516.17 1846.87C1515.63 1849.22 1515.28 1850.91 1515.14 1851.95 1514.99 1852.98 1514.92 1853.81 1514.92 1854.43 1514.92 1857.01 1515.99 1858.31 1518.14 1858.31 1519.05 1858.31 1520.03 1857.96 1521.06 1857.26 1522.09 1856.56 1523.31 1855.37 1524.73 1853.68L1526.54 1855.56C1524.73 1857.74 1522.99 1859.36 1521.31 1860.4 1519.63 1861.44 1517.88 1861.96 1516.04 1861.96 1511.69 1861.96 1509.51 1859.76 1509.51 1855.37 1509.51 1853.97 1509.69 1852.5 1510.04 1850.96L1513.73 1834.74 1508.48 1834.74 1508.95 1832.59C1510.18 1832.57 1511.11 1832.47 1511.75 1832.31 1512.38 1832.14 1512.91 1831.91 1513.34 1831.62 1513.77 1831.33 1514.16 1830.91 1514.51 1830.37 1514.87 1829.83 1515.21 1829.13 1515.54 1828.29 1515.88 1827.45 1516.38 1825.97 1517.04 1823.87ZM1500.89 1816.77 1502.73 1816.77 1494.95 1851.37C1494.49 1853.41 1494.26 1854.95 1494.26 1855.99 1494.26 1856.83 1494.4 1857.43 1494.67 1857.81 1494.94 1858.18 1495.37 1858.37 1495.95 1858.37 1496.57 1858.37 1497.24 1858.11 1497.95 1857.6 1498.66 1857.09 1499.66 1856.12 1500.95 1854.68L1502.73 1856.43C1500.81 1858.45 1499.2 1859.88 1497.89 1860.71 1496.57 1861.54 1495.16 1861.96 1493.64 1861.96 1492.35 1861.96 1491.31 1861.53 1490.54 1860.68 1489.77 1859.83 1489.39 1858.69 1489.39 1857.27 1489.39 1856.13 1489.63 1854.91 1490.11 1853.62L1489.7 1853.49C1487.7 1856.41 1485.8 1858.54 1484.01 1859.9 1482.22 1861.25 1480.32 1861.93 1478.32 1861.93 1476.03 1861.93 1474.26 1861.07 1473 1859.34 1471.74 1857.61 1471.11 1855.18 1471.11 1852.06 1471.11 1848.47 1471.81 1845.03 1473.21 1841.73 1474.62 1838.43 1476.55 1835.82 1479.01 1833.91 1481.47 1832.01 1484.21 1831.06 1487.23 1831.06 1488.5 1831.06 1489.67 1831.19 1490.75 1831.45 1491.82 1831.71 1492.92 1832.16 1494.04 1832.81L1495.67 1825.59C1495.83 1824.9 1495.98 1824.14 1496.11 1823.31 1496.23 1822.47 1496.29 1821.74 1496.29 1821.12 1496.29 1820.49 1496.18 1820.02 1495.95 1819.7 1495.72 1819.37 1495.39 1819.14 1494.96 1818.99 1494.54 1818.85 1493.77 1818.74 1492.67 1818.68L1493.04 1817.06Z" fill-rule="evenodd"/><text fill="#000000" fill-opacity="0" font-family="Arial,Arial_MSFontService,sans-serif" font-size="45.1875" x="1471.11" y="1856.31">๐๐ก</text><path d="M1459.78 1798.54 1539.78 1798.54 1539.78 1802.54 1459.78 1802.54Z" fill-rule="evenodd"/><path d="M1558.92 1798.16 1597.42 1798.16 1597.42 1802.32 1558.92 1802.32Z" fill-rule="evenodd"/><text fill="#000000" fill-opacity="0" font-family="Arial,Arial_MSFontService,sans-serif" font-size="4.15625" x="1558.92" y="1801.8">โ</text><path d="M1647.8 1790.63C1646.11 1790.63 1644.67 1791.58 1643.47 1793.48 1642.28 1795.37 1641.22 1798.36 1640.3 1802.44L1637.11 1816.6C1640.07 1816.5 1642.62 1815.52 1644.77 1813.68 1646.92 1811.84 1648.57 1809.34 1649.74 1806.19 1650.91 1803.05 1651.49 1799.8 1651.49 1796.44 1651.49 1794.63 1651.17 1793.21 1650.54 1792.18 1649.9 1791.15 1648.99 1790.63 1647.8 1790.63ZM1633.36 1788.07 1634.99 1790.23C1631.93 1792.41 1629.49 1795.01 1627.68 1798.01 1625.86 1801.01 1624.96 1803.97 1624.96 1806.88 1624.96 1809.59 1625.56 1811.73 1626.77 1813.29 1627.98 1814.85 1629.8 1815.88 1632.24 1816.38L1635.43 1802.04C1636.49 1797.29 1638.17 1793.78 1640.47 1791.52 1642.78 1789.26 1645.37 1788.13 1648.27 1788.13 1651.12 1788.13 1653.27 1788.93 1654.71 1790.52 1656.15 1792.12 1656.86 1794.51 1656.86 1797.69 1656.86 1801.67 1656.04 1805.29 1654.38 1808.54 1652.72 1811.79 1650.36 1814.33 1647.3 1816.16 1644.24 1818 1640.68 1818.94 1636.61 1819.01L1633.68 1832.04 1628.77 1832.04 1631.71 1818.94C1627.83 1818.51 1624.85 1817.22 1622.75 1815.09 1620.66 1812.95 1619.61 1810.14 1619.61 1806.66 1619.61 1799.75 1624.2 1793.55 1633.36 1788.07Z" fill="#275317" fill-rule="evenodd"/><text fill="#000000" fill-opacity="0" font-family="Arial,Arial_MSFontService,sans-serif" font-size="43.9688" x="1619.61" y="1826.54">๐</text><path d="M1641.09 1773.48 1645.28 1773.48 1655.91 1783.32 1654.22 1785.1 1643.19 1777.51 1642.84 1777.51 1631.62 1785.1 1629.94 1783.32Z" fill="#275317" fill-rule="evenodd"/><text fill="#000000" fill-opacity="0" font-family="Arial,Arial_MSFontService,sans-serif" font-size="11.625" x="1629.94" y="1783.65">เท</text><path d="M1794.04 1761.6C1800.54 1763.31 1805.55 1767.74 1809.07 1774.88 1812.59 1782.03 1814.35 1790.49 1814.35 1800.26 1814.35 1810.03 1812.59 1818.49 1809.07 1825.63 1805.55 1832.78 1800.54 1837.21 1794.04 1838.91L1793.26 1836.35C1798.3 1834.46 1802.11 1830.33 1804.71 1823.96 1807.3 1817.6 1808.6 1809.71 1808.6 1800.29 1808.6 1790.85 1807.3 1782.94 1804.71 1776.57 1802.11 1770.19 1798.3 1766.06 1793.26 1764.16ZM1696.6 1761.6 1697.38 1764.16C1692.34 1766.06 1688.52 1770.19 1685.93 1776.57 1683.33 1782.94 1682.03 1790.85 1682.03 1800.29 1682.03 1809.71 1683.33 1817.6 1685.93 1823.96 1688.52 1830.33 1692.34 1834.46 1697.38 1836.35L1696.6 1838.91C1690.1 1837.21 1685.09 1832.78 1681.57 1825.63 1678.04 1818.49 1676.28 1810.03 1676.28 1800.26 1676.28 1790.49 1678.04 1782.03 1681.57 1774.88 1685.09 1767.74 1690.1 1763.31 1696.6 1761.6Z" fill="#275317" fill-rule="evenodd"/><path d="M1722.55 1778.63C1721.26 1778.63 1719.91 1778.66 1718.49 1778.73L1714.24 1797.66 1717.49 1797.66C1720.01 1797.66 1722.05 1797.4 1723.6 1796.88 1725.15 1796.36 1726.42 1795.55 1727.41 1794.46 1728.4 1793.37 1729.17 1792.07 1729.71 1790.57 1730.25 1789.07 1730.52 1787.42 1730.52 1785.63 1730.52 1783.22 1729.91 1781.44 1728.68 1780.32 1727.45 1779.19 1725.41 1778.63 1722.55 1778.63ZM1709.46 1775.88 1723.24 1775.88C1725.72 1775.88 1727.75 1776.08 1729.35 1776.46 1730.94 1776.85 1732.25 1777.44 1733.29 1778.24 1734.32 1779.04 1735.09 1780.06 1735.6 1781.29 1736.11 1782.52 1736.36 1783.94 1736.36 1785.57 1736.36 1788.69 1735.62 1791.4 1734.15 1793.69 1732.67 1795.99 1730.66 1797.67 1728.13 1798.76 1725.6 1799.84 1722.56 1800.38 1719.02 1800.38 1716.9 1800.38 1715.12 1800.34 1713.71 1800.26L1711.71 1809.44C1711.52 1810.3 1711.39 1810.96 1711.32 1811.41 1711.24 1811.87 1711.18 1812.37 1711.13 1812.9 1711.08 1813.43 1711.05 1813.9 1711.05 1814.32 1711.05 1814.97 1711.16 1815.47 1711.36 1815.84 1711.57 1816.2 1711.88 1816.47 1712.3 1816.63 1712.72 1816.8 1713.44 1816.92 1714.46 1817.01L1714.11 1818.54 1701.27 1818.54 1701.61 1817.01C1702.41 1816.88 1703 1816.68 1703.4 1816.4 1703.79 1816.12 1704.12 1815.73 1704.4 1815.23 1704.67 1814.73 1704.92 1814.12 1705.15 1813.4 1705.37 1812.68 1705.72 1811.29 1706.18 1809.23L1711.49 1785.16C1711.95 1783.08 1712.18 1781.43 1712.18 1780.23 1712.18 1779.21 1711.94 1778.5 1711.46 1778.1 1710.98 1777.71 1710.2 1777.48 1709.11 1777.41Z" fill="#275317" fill-rule="evenodd"/><text fill="#000000" fill-opacity="0" font-family="Arial,Arial_MSFontService,sans-serif" font-size="42.6562" x="1701.27" y="1813.21">๐</text><path d="M1722 1763.22 1726.18 1763.22 1737.12 1771.13 1735.9 1772.91 1724.43 1767.25 1724.09 1767.25 1712.37 1772.91 1711.15 1771.13Z" fill="#275317" fill-rule="evenodd"/><text fill="#000000" fill-opacity="0" font-family="Arial,Arial_MSFontService,sans-serif" font-size="9.6875" x="1711.15" y="1771.7">เท</text><path d="M1744.77 1811.29 1750.23 1811.29C1750.53 1812.75 1750.67 1814.18 1750.67 1815.6 1750.67 1817.06 1750.42 1818.39 1749.92 1819.6 1749.42 1820.81 1748.63 1822.01 1747.53 1823.21 1746.44 1824.41 1744.93 1825.73 1743.02 1827.16L1741.33 1825.26C1742.39 1824.26 1743.16 1823.36 1743.64 1822.55 1744.12 1821.75 1744.46 1820.84 1744.67 1819.82 1744.88 1818.8 1744.98 1817.52 1744.98 1815.98 1744.98 1814.39 1744.91 1812.83 1744.77 1811.29Z" fill="#275317" fill-rule="evenodd"/><text fill="#000000" fill-opacity="0" font-family="Arial,Arial_MSFontService,sans-serif" font-size="15.875" x="1741.33" y="1825.18">,</text><path d="M1776.68 1780.94 1780.99 1780.94 1779.27 1788.66 1788.77 1788.66 1788.08 1791.82 1778.58 1791.82 1775.8 1803.94C1775.26 1806.3 1774.92 1807.99 1774.77 1809.02 1774.62 1810.05 1774.55 1810.88 1774.55 1811.51 1774.55 1814.09 1775.62 1815.38 1777.77 1815.38 1778.69 1815.38 1779.66 1815.03 1780.69 1814.34 1781.72 1813.64 1782.95 1812.44 1784.36 1810.76L1786.18 1812.63C1784.36 1814.82 1782.62 1816.43 1780.94 1817.48 1779.26 1818.52 1777.51 1819.04 1775.68 1819.04 1771.32 1819.04 1769.15 1816.84 1769.15 1812.44 1769.15 1811.05 1769.32 1809.58 1769.68 1808.04L1773.36 1791.82 1768.11 1791.82 1768.58 1789.66C1769.81 1789.64 1770.74 1789.55 1771.38 1789.38 1772.01 1789.22 1772.55 1788.99 1772.97 1788.69 1773.4 1788.4 1773.79 1787.99 1774.15 1787.44 1774.5 1786.9 1774.84 1786.21 1775.18 1785.37 1775.51 1784.52 1776.01 1783.05 1776.68 1780.94Z" fill-rule="evenodd"/><text fill="#000000" fill-opacity="0" font-family="Arial,Arial_MSFontService,sans-serif" font-size="38.0938" x="1768.11" y="1814.28">๐ก</text><path d="M1843.12 1778.63C1841.82 1778.63 1840.47 1778.66 1839.05 1778.73L1834.8 1797.66 1838.05 1797.66C1840.57 1797.66 1842.61 1797.4 1844.16 1796.88 1845.71 1796.36 1846.99 1795.55 1847.98 1794.46 1848.96 1793.37 1849.73 1792.07 1850.27 1790.57 1850.81 1789.07 1851.08 1787.42 1851.08 1785.63 1851.08 1783.22 1850.47 1781.44 1849.24 1780.32 1848.01 1779.19 1845.97 1778.63 1843.12 1778.63ZM1830.02 1775.88 1843.8 1775.88C1846.28 1775.88 1848.32 1776.08 1849.91 1776.46 1851.51 1776.85 1852.82 1777.44 1853.85 1778.24 1854.88 1779.04 1855.65 1780.06 1856.16 1781.29 1856.67 1782.52 1856.93 1783.94 1856.93 1785.57 1856.93 1788.69 1856.19 1791.4 1854.71 1793.69 1853.23 1795.99 1851.23 1797.67 1848.69 1798.76 1846.16 1799.84 1843.13 1800.38 1839.58 1800.38 1837.46 1800.38 1835.69 1800.34 1834.27 1800.26L1832.27 1809.44C1832.08 1810.3 1831.95 1810.96 1831.88 1811.41 1831.81 1811.87 1831.75 1812.37 1831.69 1812.9 1831.64 1813.43 1831.62 1813.9 1831.62 1814.32 1831.62 1814.97 1831.72 1815.47 1831.93 1815.84 1832.14 1816.2 1832.45 1816.47 1832.87 1816.63 1833.28 1816.8 1834 1816.92 1835.02 1817.01L1834.68 1818.54 1821.83 1818.54 1822.18 1817.01C1822.97 1816.88 1823.56 1816.68 1823.96 1816.4 1824.36 1816.12 1824.69 1815.73 1824.96 1815.23 1825.23 1814.73 1825.48 1814.12 1825.71 1813.4 1825.94 1812.68 1826.28 1811.29 1826.74 1809.23L1832.05 1785.16C1832.51 1783.08 1832.74 1781.43 1832.74 1780.23 1832.74 1779.21 1832.5 1778.5 1832.02 1778.1 1831.54 1777.71 1830.76 1777.48 1829.68 1777.41Z" fill="#215F9A" fill-rule="evenodd"/><text fill="#000000" fill-opacity="0" font-family="Arial,Arial_MSFontService,sans-serif" font-size="42.6562" x="1821.83" y="1813.21">๐</text><path d="M1842.56 1763.22 1846.75 1763.22 1857.69 1771.13 1856.47 1772.91 1845 1767.25 1844.66 1767.25 1832.94 1772.91 1831.72 1771.13Z" fill="#215F9A" fill-rule="evenodd"/><text fill="#000000" fill-opacity="0" font-family="Arial,Arial_MSFontService,sans-serif" font-size="9.6875" x="1831.72" y="1771.7">เท</text><path d="M1911.65 1699.24C1913.24 1699.24 1914.6 1699.42 1915.72 1699.78 1916.85 1700.14 1917.76 1700.62 1918.46 1701.23 1919.17 1701.85 1919.68 1702.58 1919.99 1703.44 1920.3 1704.29 1920.46 1705.22 1920.46 1706.21 1920.46 1706.81 1920.42 1707.37 1920.33 1707.88 1920.25 1708.39 1920.1 1708.9 1919.9 1709.39 1919.69 1709.89 1919.42 1710.39 1919.08 1710.9 1918.75 1711.4 1918.33 1711.94 1917.82 1712.5 1917.44 1712.99 1916.94 1713.56 1916.33 1714.2 1915.72 1714.84 1915.05 1715.53 1914.32 1716.27 1913.59 1717 1912.83 1717.77 1912.04 1718.56 1911.24 1719.36 1910.47 1720.14 1909.72 1720.93 1908.97 1721.71 1908.28 1722.46 1907.65 1723.2 1907.03 1723.93 1906.51 1724.6 1906.12 1725.22L1914.61 1725.22C1915.33 1725.22 1915.9 1725.19 1916.33 1725.14 1916.76 1725.08 1917.11 1724.96 1917.4 1724.78 1917.68 1724.6 1917.92 1724.32 1918.12 1723.94 1918.32 1723.57 1918.55 1723.05 1918.81 1722.39L1920.94 1722.39C1920.87 1723.48 1920.79 1724.57 1920.72 1725.68 1920.66 1726.78 1920.58 1727.87 1920.51 1728.96L1901.07 1728.96 1901.07 1727.76C1901.44 1726.94 1901.86 1726.12 1902.35 1725.32 1902.84 1724.52 1903.39 1723.7 1904.01 1722.88 1904.62 1722.05 1905.31 1721.2 1906.09 1720.32 1906.87 1719.44 1907.74 1718.52 1908.69 1717.57 1910.13 1716.14 1911.3 1714.91 1912.2 1713.89 1913.1 1712.87 1913.81 1711.97 1914.33 1711.17 1914.85 1710.38 1915.21 1709.64 1915.4 1708.97 1915.59 1708.3 1915.69 1707.58 1915.69 1706.81 1915.69 1706.03 1915.58 1705.31 1915.35 1704.65 1915.13 1704 1914.81 1703.44 1914.4 1702.98 1913.99 1702.52 1913.46 1702.16 1912.83 1701.9 1912.19 1701.64 1911.46 1701.51 1910.64 1701.51 1909.22 1701.51 1908.02 1701.9 1907.06 1702.67 1906.09 1703.44 1905.34 1704.56 1904.81 1706.03L1901.8 1706.03 1901.8 1701.56C1903.76 1700.75 1905.56 1700.16 1907.21 1699.79 1908.85 1699.42 1910.33 1699.24 1911.65 1699.24Z" fill-rule="evenodd"/><text fill="#000000" fill-opacity="0" font-family="Arial,Arial_MSFontService,sans-serif" font-size="29.7192" x="1901.07" y="1725.24">2</text><path d="M1405.91 1839.42C1406.75 1839.42 1407.5 1839.46 1408.14 1839.54 1408.78 1839.63 1409.4 1839.73 1410 1839.85L1409.06 1844.12 1406.79 1844.12C1406.68 1843.25 1406.42 1842.61 1406.01 1842.2 1405.59 1841.8 1405.04 1841.6 1404.35 1841.6 1403.56 1841.6 1402.89 1841.77 1402.34 1842.11 1401.8 1842.46 1401.33 1842.98 1400.92 1843.67 1400.52 1844.37 1400.17 1845.18 1399.88 1846.12 1399.59 1847.05 1399.39 1847.86 1399.28 1848.55L1405.64 1848.55 1405.13 1851.1 1398.75 1851.1 1394.6 1870.76C1393.88 1874.12 1392.71 1876.6 1391.1 1878.21 1389.49 1879.83 1387.33 1880.63 1384.64 1880.63 1383.94 1880.63 1383.42 1880.59 1383.1 1880.5 1383.19 1880.11 1383.28 1879.72 1383.35 1879.31 1383.43 1878.91 1383.52 1878.51 1383.63 1878.13 1383.72 1878.16 1383.85 1878.18 1384.02 1878.18 1384.19 1878.18 1384.43 1878.18 1384.73 1878.18 1385.33 1878.18 1385.87 1878.08 1386.37 1877.89 1386.87 1877.7 1387.32 1877.35 1387.74 1876.86 1388.15 1876.36 1388.53 1875.68 1388.87 1874.82 1389.22 1873.95 1389.54 1872.84 1389.85 1871.48L1394.44 1851.1 1390.49 1851.1 1390.9 1849.33C1391.75 1849.28 1392.42 1849.23 1392.91 1849.17 1393.41 1849.11 1393.83 1848.97 1394.17 1848.77 1394.52 1848.56 1394.78 1848.21 1394.94 1847.72 1395.83 1844.92 1397.17 1842.84 1398.95 1841.47 1400.73 1840.1 1403.05 1839.42 1405.91 1839.42Z" fill-rule="evenodd"/><text fill="#000000" fill-opacity="0" font-family="Arial,Arial_MSFontService,sans-serif" font-size="41.2168" x="1383.1" y="1875.48">๐</text><path d="M1090.28 1901.39C1092.1 1901.39 1093.68 1901.9 1095.03 1902.92 1096.39 1903.94 1097.59 1905.45 1098.63 1907.45L1093.82 1909.54C1092.82 1907.5 1091.95 1906.09 1091.22 1905.31 1090.49 1904.53 1089.59 1904.14 1088.5 1904.14 1087.92 1904.14 1087.38 1904.24 1086.88 1904.45 1086.38 1904.66 1085.92 1905.07 1085.5 1905.69 1085.09 1906.3 1084.73 1907.12 1084.44 1908.14 1084.15 1909.16 1083.75 1910.86 1083.25 1913.23L1081.07 1923.58C1080.73 1925.14 1080.36 1926.51 1079.94 1927.7 1079.52 1928.89 1079.04 1930.01 1078.49 1931.08 1077.94 1932.14 1077.35 1933.08 1076.74 1933.9 1076.12 1934.73 1075.42 1935.56 1074.63 1936.39L1074.63 1936.7C1075.94 1936.7 1077.24 1936.85 1078.52 1937.14 1079.8 1937.43 1081.07 1937.81 1082.32 1938.26 1083.59 1938.74 1084.8 1939.12 1085.96 1939.4 1087.11 1939.69 1088.25 1939.83 1089.38 1939.83 1090.61 1939.83 1091.65 1939.66 1092.5 1939.33 1093.36 1938.99 1094.2 1938.42 1095.02 1937.61 1095.84 1936.79 1096.94 1935.34 1098.32 1933.23L1100.69 1934.79C1098.17 1938.69 1096.01 1941.37 1094.21 1942.84 1092.4 1944.31 1090.59 1945.04 1088.75 1945.04 1087.19 1945.04 1085.72 1944.88 1084.33 1944.54 1082.95 1944.21 1081.59 1943.76 1080.25 1943.2 1078.75 1942.6 1077.46 1942.14 1076.36 1941.84 1075.27 1941.54 1074.15 1941.39 1073 1941.39 1071.75 1941.39 1070.56 1941.62 1069.43 1942.09 1068.29 1942.56 1066.67 1943.54 1064.57 1945.04L1062.91 1942.98C1065.51 1940.63 1067.71 1939.02 1069.5 1938.17 1071.82 1935.96 1073.49 1932.46 1074.53 1927.67L1077.53 1913.86C1078.08 1911.36 1078.73 1909.35 1079.5 1907.83 1080.27 1906.31 1081.19 1905.12 1082.25 1904.28 1083.32 1903.44 1084.49 1902.74 1085.78 1902.2 1087.08 1901.66 1088.58 1901.39 1090.28 1901.39Z" fill-rule="evenodd"/><text fill="#000000" fill-opacity="0" font-family="Arial,Arial_MSFontService,sans-serif" font-size="43.6562" x="1062.91" y="1939.59">โ</text><path d="M1125.25 1930.67 1163.75 1930.67 1163.75 1934.83 1125.25 1934.83ZM1125.25 1917.7 1163.75 1917.7 1163.75 1921.86 1125.25 1921.86Z" fill-rule="evenodd"/><text fill="#000000" fill-opacity="0" font-family="Arial,Arial_MSFontService,sans-serif" font-size="17.125" x="1125.25" y="1932.69">=</text><path d="M1213.92 1901.39C1215.73 1901.39 1217.32 1901.9 1218.67 1902.92 1220.02 1903.94 1221.22 1905.45 1222.26 1907.45L1217.45 1909.54C1216.45 1907.5 1215.59 1906.09 1214.86 1905.31 1214.13 1904.53 1213.22 1904.14 1212.14 1904.14 1211.56 1904.14 1211.01 1904.24 1210.51 1904.45 1210.01 1904.66 1209.56 1905.07 1209.14 1905.69 1208.72 1906.3 1208.37 1907.12 1208.08 1908.14 1207.78 1909.16 1207.39 1910.86 1206.89 1913.23L1204.7 1923.58C1204.37 1925.14 1203.99 1926.51 1203.58 1927.7 1203.16 1928.89 1202.68 1930.01 1202.12 1931.08 1201.57 1932.14 1200.99 1933.08 1200.37 1933.9 1199.76 1934.73 1199.06 1935.56 1198.26 1936.39L1198.26 1936.7C1199.58 1936.7 1200.87 1936.85 1202.15 1937.14 1203.44 1937.43 1204.7 1937.81 1205.95 1938.26 1207.22 1938.74 1208.44 1939.12 1209.59 1939.4 1210.75 1939.69 1211.89 1939.83 1213.01 1939.83 1214.24 1939.83 1215.28 1939.66 1216.14 1939.33 1216.99 1938.99 1217.83 1938.42 1218.65 1937.61 1219.48 1936.79 1220.58 1935.34 1221.95 1933.23L1224.33 1934.79C1221.81 1938.69 1219.64 1941.37 1217.84 1942.84 1216.04 1944.31 1214.22 1945.04 1212.39 1945.04 1210.83 1945.04 1209.35 1944.88 1207.97 1944.54 1206.58 1944.21 1205.22 1943.76 1203.89 1943.2 1202.39 1942.6 1201.09 1942.14 1200 1941.84 1198.9 1941.54 1197.78 1941.39 1196.64 1941.39 1195.39 1941.39 1194.2 1941.62 1193.06 1942.09 1191.93 1942.56 1190.31 1943.54 1188.2 1945.04L1186.55 1942.98C1189.15 1940.63 1191.35 1939.02 1193.14 1938.17 1195.45 1935.96 1197.13 1932.46 1198.17 1927.67L1201.17 1913.86C1201.71 1911.36 1202.37 1909.35 1203.14 1907.83 1203.91 1906.31 1204.83 1905.12 1205.89 1904.28 1206.95 1903.44 1208.13 1902.74 1209.42 1902.2 1210.71 1901.66 1212.21 1901.39 1213.92 1901.39Z" fill-rule="evenodd"/><text fill="#000000" fill-opacity="0" font-family="Arial,Arial_MSFontService,sans-serif" font-size="43.6562" x="1186.55" y="1939.59">โ</text><path d="M1234.34 1934.2C1235.44 1934.2 1236.32 1934.57 1236.98 1935.31 1237.64 1936.05 1237.96 1937.04 1237.96 1938.28 1237.96 1938.96 1237.9 1939.71 1237.78 1940.53 1237.66 1941.36 1237.45 1942.28 1237.16 1943.31 1236.58 1945.41 1236.12 1947.24 1235.78 1948.82 1235.45 1950.39 1235.28 1951.55 1235.28 1952.28 1235.28 1953.2 1235.46 1953.89 1235.82 1954.34 1236.18 1954.79 1236.76 1955.01 1237.55 1955.01 1238.27 1955.01 1239.04 1954.75 1239.86 1954.21 1240.68 1953.68 1241.46 1952.98 1242.21 1952.13 1242.96 1951.28 1243.63 1950.34 1244.22 1949.29 1244.81 1948.24 1245.24 1947.2 1245.51 1946.18L1248.04 1934.68 1252.56 1934.68 1249.03 1949.67C1248.84 1950.45 1248.71 1951.14 1248.64 1951.76 1248.56 1952.37 1248.52 1952.89 1248.52 1953.32 1248.52 1953.9 1248.63 1954.32 1248.84 1954.58 1249.06 1954.84 1249.4 1954.97 1249.87 1954.97 1250.17 1954.97 1250.45 1954.91 1250.72 1954.81 1251 1954.7 1251.29 1954.53 1251.61 1954.3 1251.92 1954.07 1252.26 1953.78 1252.63 1953.42 1253 1953.06 1253.41 1952.63 1253.87 1952.12L1255.45 1953.64C1254.69 1954.42 1253.98 1955.09 1253.34 1955.65 1252.7 1956.2 1252.09 1956.66 1251.5 1957.02 1250.92 1957.38 1250.35 1957.64 1249.77 1957.8 1249.2 1957.96 1248.6 1958.04 1247.99 1958.04 1246.89 1958.04 1246.03 1957.69 1245.41 1956.98 1244.79 1956.26 1244.48 1955.29 1244.48 1954.05 1244.48 1953.73 1244.5 1953.4 1244.55 1953.07 1244.6 1952.75 1244.68 1952.43 1244.8 1952.12L1244.53 1952.03C1243.01 1954.03 1241.54 1955.54 1240.11 1956.54 1238.68 1957.54 1237.19 1958.04 1235.65 1958.04 1234.02 1958.04 1232.8 1957.61 1231.99 1956.76 1231.17 1955.9 1230.76 1954.67 1230.76 1953.06 1230.76 1952.65 1230.83 1952.08 1230.98 1951.34 1231.12 1950.61 1231.3 1949.79 1231.52 1948.89 1231.73 1947.98 1231.96 1947.04 1232.2 1946.05 1232.45 1945.07 1232.68 1944.12 1232.89 1943.21 1233.11 1942.3 1233.29 1941.47 1233.43 1940.73 1233.58 1939.99 1233.65 1939.41 1233.65 1939 1233.65 1937.88 1233.19 1937.32 1232.27 1937.32 1231.98 1937.32 1231.7 1937.38 1231.42 1937.49 1231.15 1937.61 1230.85 1937.78 1230.54 1938.01 1230.23 1938.24 1229.89 1938.53 1229.52 1938.88 1229.15 1939.23 1228.74 1939.65 1228.28 1940.12L1226.72 1938.63C1227.55 1937.8 1228.28 1937.11 1228.93 1936.54 1229.58 1935.97 1230.2 1935.52 1230.78 1935.17 1231.36 1934.83 1231.94 1934.58 1232.5 1934.43 1233.07 1934.28 1233.68 1934.2 1234.34 1934.2Z" fill-rule="evenodd"/><text fill="#000000" fill-opacity="0" font-family="Arial,Arial_MSFontService,sans-serif" font-size="23.8442" x="1226.72" y="1955.06">๐ข</text><path d="M1295.64 1906.17 1300.07 1906.17 1300.07 1924.17 1317.11 1924.17 1317.11 1928.33 1300.07 1928.33 1300.07 1946.33 1295.64 1946.33 1295.64 1928.33 1278.61 1928.33 1278.61 1924.17 1295.64 1924.17Z" fill-rule="evenodd"/><text fill="#000000" fill-opacity="0" font-family="Arial,Arial_MSFontService,sans-serif" font-size="40.1562" x="1278.61" y="1941.31">+</text><path d="M1363.7 1901.39C1365.52 1901.39 1367.1 1901.9 1368.45 1902.92 1369.81 1903.94 1371.01 1905.45 1372.05 1907.45L1367.23 1909.54C1366.23 1907.5 1365.37 1906.09 1364.64 1905.31 1363.91 1904.53 1363.01 1904.14 1361.92 1904.14 1361.34 1904.14 1360.8 1904.24 1360.3 1904.45 1359.8 1904.66 1359.34 1905.07 1358.92 1905.69 1358.51 1906.3 1358.15 1907.12 1357.86 1908.14 1357.57 1909.16 1357.17 1910.86 1356.67 1913.23L1354.48 1923.58C1354.15 1925.14 1353.78 1926.51 1353.36 1927.7 1352.94 1928.89 1352.46 1930.01 1351.91 1931.08 1351.35 1932.14 1350.77 1933.08 1350.16 1933.9 1349.54 1934.73 1348.84 1935.56 1348.05 1936.39L1348.05 1936.7C1349.36 1936.7 1350.66 1936.85 1351.94 1937.14 1353.22 1937.43 1354.48 1937.81 1355.73 1938.26 1357.01 1938.74 1358.22 1939.12 1359.38 1939.4 1360.53 1939.69 1361.67 1939.83 1362.8 1939.83 1364.03 1939.83 1365.07 1939.66 1365.92 1939.33 1366.78 1938.99 1367.61 1938.42 1368.44 1937.61 1369.26 1936.79 1370.36 1935.34 1371.73 1933.23L1374.11 1934.79C1371.59 1938.69 1369.43 1941.37 1367.63 1942.84 1365.82 1944.31 1364.01 1945.04 1362.17 1945.04 1360.61 1945.04 1359.14 1944.88 1357.75 1944.54 1356.36 1944.21 1355.01 1943.76 1353.67 1943.2 1352.17 1942.6 1350.88 1942.14 1349.78 1941.84 1348.69 1941.54 1347.57 1941.39 1346.42 1941.39 1345.17 1941.39 1343.98 1941.62 1342.84 1942.09 1341.71 1942.56 1340.09 1943.54 1337.98 1945.04L1336.33 1942.98C1338.93 1940.63 1341.13 1939.02 1342.92 1938.17 1345.23 1935.96 1346.91 1932.46 1347.95 1927.67L1350.95 1913.86C1351.49 1911.36 1352.15 1909.35 1352.92 1907.83 1353.69 1906.31 1354.61 1905.12 1355.67 1904.28 1356.73 1903.44 1357.91 1902.74 1359.2 1902.2 1360.49 1901.66 1361.99 1901.39 1363.7 1901.39Z" fill-rule="evenodd"/><text fill="#000000" fill-opacity="0" font-family="Arial,Arial_MSFontService,sans-serif" font-size="43.6562" x="1336.33" y="1939.59">โ</text><path d="M1394.77 1937.27C1393.84 1937.27 1392.98 1937.55 1392.19 1938.11 1391.4 1938.67 1390.56 1939.47 1389.65 1940.51 1389.24 1941 1388.86 1941.48 1388.5 1941.96 1388.15 1942.43 1387.84 1942.95 1387.55 1943.51 1387.27 1944.06 1387.02 1944.68 1386.8 1945.36 1386.57 1946.04 1386.38 1946.83 1386.21 1947.72 1386 1948.77 1385.83 1949.66 1385.71 1950.38 1385.58 1951.1 1385.52 1951.78 1385.52 1952.42 1385.52 1953.66 1385.81 1954.54 1386.38 1955.05 1386.96 1955.56 1387.88 1955.82 1389.15 1955.82 1390.03 1955.82 1390.86 1955.62 1391.64 1955.23 1392.41 1954.84 1393.11 1954.31 1393.74 1953.64 1394.36 1952.96 1394.92 1952.18 1395.41 1951.28 1395.9 1950.39 1396.31 1949.43 1396.64 1948.42 1396.97 1947.4 1397.22 1946.35 1397.4 1945.28 1397.57 1944.21 1397.66 1943.17 1397.66 1942.16 1397.66 1940.53 1397.44 1939.3 1396.98 1938.49 1396.53 1937.68 1395.8 1937.27 1394.77 1937.27ZM1384.12 1934.2C1385.24 1934.2 1386.11 1934.57 1386.73 1935.31 1387.35 1936.05 1387.66 1937.03 1387.66 1938.24 1387.66 1938.59 1387.63 1938.93 1387.58 1939.25 1387.52 1939.57 1387.43 1939.89 1387.29 1940.21L1387.61 1940.37C1389.11 1938.28 1390.58 1936.72 1392.03 1935.71 1393.47 1934.7 1394.99 1934.2 1396.58 1934.2 1398.4 1934.2 1399.8 1934.86 1400.77 1936.17 1401.74 1937.49 1402.23 1939.41 1402.23 1941.93 1402.23 1944.14 1401.89 1946.21 1401.21 1948.16 1400.53 1950.11 1399.6 1951.82 1398.44 1953.29 1397.28 1954.76 1395.93 1955.92 1394.39 1956.77 1392.85 1957.62 1391.23 1958.04 1389.51 1958.04 1388.32 1958.04 1387.28 1957.92 1386.41 1957.69 1385.53 1957.45 1384.79 1957.16 1384.21 1956.83 1384.08 1957.42 1383.93 1958.04 1383.77 1958.69 1383.61 1959.33 1383.45 1959.95 1383.31 1960.54 1383.16 1961.14 1383.04 1961.69 1382.95 1962.2 1382.86 1962.7 1382.81 1963.11 1382.81 1963.41 1382.81 1963.69 1382.86 1963.92 1382.94 1964.1 1383.02 1964.29 1383.18 1964.44 1383.4 1964.56 1383.62 1964.68 1383.92 1964.78 1384.28 1964.85 1384.65 1964.92 1385.11 1964.97 1385.66 1965.02L1385.59 1966.53 1377.51 1966.53 1383.11 1942.62C1383.3 1941.78 1383.43 1941.08 1383.5 1940.51 1383.58 1939.94 1383.62 1939.44 1383.62 1939 1383.62 1937.88 1383.17 1937.32 1382.26 1937.32 1381.99 1937.32 1381.71 1937.38 1381.44 1937.49 1381.16 1937.61 1380.87 1937.78 1380.55 1938.01 1380.24 1938.24 1379.9 1938.53 1379.52 1938.88 1379.15 1939.23 1378.73 1939.65 1378.27 1940.12L1376.69 1938.63C1377.45 1937.86 1378.15 1937.2 1378.79 1936.64 1379.42 1936.08 1380.03 1935.63 1380.62 1935.27 1381.21 1934.91 1381.78 1934.64 1382.34 1934.46 1382.9 1934.29 1383.49 1934.2 1384.12 1934.2Z" fill-rule="evenodd"/><text fill="#000000" fill-opacity="0" font-family="Arial,Arial_MSFontService,sans-serif" font-size="32.3354" x="1376.69" y="1962.49">๐</text><path d="M0 3.4375-82.499 3.4375-79.0615 0-79.0615 189.919-82.499 186.482 352.08 186.482 352.08 205.47 345.205 205.47 345.205 189.919 348.642 193.357-85.9365 193.357-85.9365-3.4375 0-3.4375ZM362.392 200.886 348.642 228.386 334.892 200.886Z" transform="matrix(1 -1.22465e-16 -1.22465e-16 -1 320.5 1827.89)"/><rect x="1517.5" y="1173.5" width="568" height="427" stroke="#052909" stroke-width="6.875" stroke-miterlimit="8" fill="#196B24"/><path d="M1722.82 1355.75 1735.75 1355.75 1746.45 1387.33C1747.99 1391.86 1749.17 1395.7 1750.01 1398.84L1750.46 1398.84C1750.67 1397.19 1751.17 1394.44 1751.94 1390.61 1752.71 1386.77 1753.42 1383.42 1754.06 1380.56L1756.9 1367.79C1757.5 1365.12 1757.79 1362.94 1757.79 1361.27 1757.79 1360 1757.48 1359.11 1756.84 1358.61 1756.21 1358.11 1755.2 1357.82 1753.82 1357.74L1754.27 1355.75 1768.45 1355.75 1768.01 1357.74C1766.98 1357.96 1766.24 1358.2 1765.8 1358.47 1765.35 1358.74 1764.95 1359.15 1764.6 1359.69 1764.25 1360.23 1763.89 1361.07 1763.51 1362.22 1763.13 1363.37 1762.66 1365.24 1762.09 1367.83L1752.57 1411.07 1747.05 1411.07 1735.22 1376.3C1733.79 1372.14 1732.53 1367.99 1731.45 1363.86L1730.92 1363.86C1730.76 1365.24 1730.32 1367.87 1729.59 1371.74 1728.86 1375.62 1728.09 1379.41 1727.28 1383.11L1723.71 1399.28C1723.14 1401.85 1722.86 1403.96 1722.86 1405.6 1722.86 1406.82 1723.16 1407.68 1723.77 1408.18 1724.38 1408.68 1725.4 1408.98 1726.83 1409.09L1726.38 1411.07 1712.2 1411.07 1712.65 1409.09C1713.67 1408.93 1714.44 1408.66 1714.96 1408.3 1715.47 1407.93 1715.9 1407.43 1716.25 1406.78 1716.6 1406.13 1716.93 1405.34 1717.23 1404.41 1717.52 1403.48 1717.97 1401.67 1718.56 1399L1725.45 1367.79C1725.72 1366.63 1725.94 1365.52 1726.1 1364.47 1726.26 1363.41 1726.34 1362.35 1726.34 1361.27 1726.34 1360 1726.03 1359.11 1725.39 1358.61 1724.76 1358.11 1723.75 1357.82 1722.37 1357.74Z" fill="#FFFFFF" fill-rule="evenodd"/><text fill="#000000" fill-opacity="0" font-family="Arial,Arial_MSFontService,sans-serif" font-size="55.3198" x="1712.2" y="1404.16">๐</text><path d="M1784.99 1355.75 1797.92 1355.75 1808.62 1387.33C1810.16 1391.86 1811.35 1395.7 1812.19 1398.84L1812.63 1398.84C1812.85 1397.19 1813.34 1394.44 1814.11 1390.61 1814.88 1386.77 1815.59 1383.42 1816.24 1380.56L1819.07 1367.79C1819.67 1365.12 1819.97 1362.94 1819.97 1361.27 1819.97 1360 1819.65 1359.11 1819.01 1358.61 1818.38 1358.11 1817.37 1357.82 1815.99 1357.74L1816.44 1355.75 1830.63 1355.75 1830.18 1357.74C1829.15 1357.96 1828.42 1358.2 1827.97 1358.47 1827.52 1358.74 1827.13 1359.15 1826.78 1359.69 1826.42 1360.23 1826.06 1361.07 1825.68 1362.22 1825.3 1363.37 1824.83 1365.24 1824.26 1367.83L1814.74 1411.07 1809.23 1411.07 1797.39 1376.3C1795.96 1372.14 1794.7 1367.99 1793.62 1363.86L1793.1 1363.86C1792.93 1365.24 1792.49 1367.87 1791.76 1371.74 1791.03 1375.62 1790.26 1379.41 1789.45 1383.11L1785.88 1399.28C1785.32 1401.85 1785.03 1403.96 1785.03 1405.6 1785.03 1406.82 1785.34 1407.68 1785.94 1408.18 1786.55 1408.68 1787.57 1408.98 1789 1409.09L1788.56 1411.07 1774.37 1411.07 1774.82 1409.09C1775.85 1408.93 1776.62 1408.66 1777.13 1408.3 1777.64 1407.93 1778.07 1407.43 1778.43 1406.78 1778.78 1406.13 1779.1 1405.34 1779.4 1404.41 1779.7 1403.48 1780.14 1401.67 1780.74 1399L1787.63 1367.79C1787.9 1366.63 1788.11 1365.52 1788.27 1364.47 1788.44 1363.41 1788.52 1362.35 1788.52 1361.27 1788.52 1360 1788.2 1359.11 1787.56 1358.61 1786.93 1358.11 1785.92 1357.82 1784.55 1357.74Z" fill="#FFFFFF" fill-rule="evenodd"/><text fill="#000000" fill-opacity="0" font-family="Arial,Arial_MSFontService,sans-serif" font-size="55.3198" x="1774.37" y="1404.16">๐</text><path d="M1858.15 1400.64C1856.92 1400.64 1855.89 1401 1855.05 1401.72 1854.22 1402.45 1853.53 1403.36 1852.98 1404.45 1852.44 1405.54 1851.99 1406.73 1851.64 1408.01 1851.3 1409.29 1851 1410.49 1850.77 1411.63L1847.61 1425.45C1850.03 1425.33 1852.15 1424.74 1853.95 1423.67 1855.76 1422.61 1857.26 1421.24 1858.47 1419.56 1859.67 1417.89 1860.56 1415.98 1861.16 1413.86 1861.76 1411.74 1862.05 1409.55 1862.05 1407.31 1862.05 1406.65 1862.02 1405.94 1861.95 1405.16 1861.88 1404.39 1861.72 1403.67 1861.46 1403 1861.2 1402.34 1860.81 1401.78 1860.3 1401.32 1859.78 1400.86 1859.07 1400.64 1858.15 1400.64ZM1843.14 1397.51 1845.05 1399.98C1841.75 1402.48 1839.23 1405.13 1837.48 1407.92 1835.73 1410.71 1834.86 1413.49 1834.86 1416.27 1834.86 1418.85 1835.47 1420.88 1836.68 1422.35 1837.89 1423.82 1839.76 1424.77 1842.28 1425.21L1845.29 1411.75C1845.82 1409.28 1846.55 1407.15 1847.46 1405.36 1848.37 1403.56 1849.42 1402.08 1850.6 1400.92 1851.78 1399.76 1853.07 1398.9 1854.46 1398.34 1855.85 1397.79 1857.29 1397.51 1858.78 1397.51 1861.78 1397.51 1864.03 1398.4 1865.55 1400.19 1867.07 1401.98 1867.83 1404.49 1867.83 1407.72 1867.83 1410.62 1867.35 1413.33 1866.39 1415.84 1865.42 1418.35 1864.04 1420.54 1862.23 1422.39 1860.43 1424.25 1858.24 1425.71 1855.68 1426.77 1853.12 1427.83 1850.25 1428.38 1847.07 1428.4L1844.3 1440.67 1838.73 1440.67 1841.59 1428.22C1839.59 1427.96 1837.8 1427.5 1836.23 1426.83 1834.66 1426.17 1833.34 1425.32 1832.27 1424.28 1831.2 1423.25 1830.38 1422.04 1829.81 1420.65 1829.25 1419.26 1828.96 1417.7 1828.96 1415.97 1828.96 1412.66 1830.16 1409.47 1832.55 1406.4 1834.94 1403.33 1838.47 1400.37 1843.14 1397.51Z" fill="#FFFFFF" fill-rule="evenodd"/><text fill="#000000" fill-opacity="0" font-family="Arial,Arial_MSFontService,sans-serif" font-size="43.1587" x="1828.96" y="1435.27">๐</text><path d="M2256.4 1448.5 2256.4 1831.6 2189.42 1831.6 2189.42 1824.72 2252.97 1824.72 2249.53 1828.16 2249.53 1448.5ZM2194 1841.91 2166.5 1828.16 2194 1814.41Z"/><path d="M0 3.4375-82.4927 3.4375-79.0552 0-79.0552 189.406-82.4927 185.969 1484.72 185.969 1484.72 204.448 1477.85 204.448 1477.85 189.406 1481.28 192.844-85.9302 192.844-85.9302-3.4375 0-3.4375ZM1495.03 199.865 1481.28 227.365 1467.53 199.865Z" transform="matrix(1 -1.22465e-16 -1.22465e-16 -1 320.5 1827.87)"/><path d="M0.00921314-3.43749 81.3129-3.21958 81.2945 3.6554-0.00921314 3.43749ZM76.7573-13.5443 104.22 0.279331 76.6836 13.9556Z" transform="matrix(1 0 0 -1 2085.5 1387.78)"/><rect x="2189.5" y="1325.5" width="126" height="123" stroke="#1C440D" stroke-width="6.875" stroke-miterlimit="8" fill="#8ED973"/><path d="M2258.62 1378.01C2256.43 1378.01 2254.56 1379.24 2253.01 1381.7 2251.46 1384.15 2250.08 1388.03 2248.9 1393.33L2244.76 1411.69C2248.6 1411.55 2251.91 1410.29 2254.69 1407.9 2257.47 1405.51 2259.62 1402.27 2261.14 1398.19 2262.65 1394.11 2263.4 1389.9 2263.4 1385.55 2263.4 1383.2 2262.99 1381.35 2262.17 1380.01 2261.34 1378.68 2260.16 1378.01 2258.62 1378.01ZM2239.9 1374.68 2242.01 1377.48C2238.03 1380.32 2234.87 1383.68 2232.52 1387.57 2230.17 1391.46 2229 1395.3 2229 1399.08 2229 1402.59 2229.78 1405.36 2231.35 1407.39 2232.91 1409.42 2235.28 1410.75 2238.44 1411.4L2242.57 1392.8C2243.95 1386.64 2246.13 1382.09 2249.12 1379.16 2252.1 1376.23 2255.47 1374.77 2259.23 1374.77 2262.93 1374.77 2265.71 1375.8 2267.58 1377.87 2269.44 1379.93 2270.38 1383.03 2270.38 1387.17 2270.38 1392.33 2269.3 1397.02 2267.15 1401.23 2265.01 1405.44 2261.95 1408.74 2257.97 1411.12 2254 1413.5 2249.38 1414.73 2244.11 1414.81L2240.3 1431.71 2233.94 1431.71 2237.75 1414.73C2232.73 1414.16 2228.85 1412.49 2226.14 1409.72 2223.42 1406.95 2222.07 1403.31 2222.07 1398.8 2222.07 1389.83 2228.01 1381.79 2239.9 1374.68Z" fill="#FFFFFF" fill-rule="evenodd"/><text fill="#000000" fill-opacity="0" font-family="Arial,Arial_MSFontService,sans-serif" font-size="57.022" x="2222.07" y="1424.58">๐</text><path d="M2249.8 1355.76 2255.23 1355.76 2269.01 1368.52 2266.83 1370.83 2252.52 1360.99 2252.07 1360.99 2237.52 1370.83 2235.34 1368.52Z" fill="#FFFFFF" fill-rule="evenodd"/><text fill="#000000" fill-opacity="0" font-family="Arial,Arial_MSFontService,sans-serif" font-size="15.0762" x="2235.34" y="1368.95">เท</text><rect x="1009.5" y="1324.5" width="236" height="121" stroke="#024059" stroke-width="6.875" stroke-miterlimit="8" fill="#0F9ED5"/><path d="M1074.09 1375.64C1075.55 1375.64 1076.85 1375.81 1078 1376.15 1079.15 1376.49 1080.16 1377.01 1081.04 1377.71 1081.92 1378.41 1082.64 1379.28 1083.21 1380.32 1083.78 1381.36 1084.2 1382.61 1084.48 1384.07 1084.77 1385.53 1084.91 1387.38 1084.91 1389.62L1084.91 1404.9C1084.91 1406.77 1084.96 1408.12 1085.07 1408.96 1085.18 1409.79 1085.37 1410.44 1085.64 1410.9 1085.91 1411.36 1086.3 1411.75 1086.81 1412.06 1087.33 1412.37 1088.22 1412.7 1089.49 1413.05L1089.49 1415.04 1073.52 1415.04 1073.52 1413.05C1074.58 1412.73 1075.33 1412.44 1075.79 1412.2 1076.25 1411.96 1076.64 1411.62 1076.95 1411.19 1077.26 1410.75 1077.5 1410.08 1077.68 1409.18 1077.85 1408.27 1077.94 1406.9 1077.94 1405.07L1077.94 1394.45C1077.94 1392.56 1077.89 1390.84 1077.78 1389.3 1077.67 1387.76 1077.49 1386.5 1077.23 1385.51 1076.97 1384.52 1076.66 1383.75 1076.3 1383.2 1075.93 1382.65 1075.5 1382.17 1075 1381.78 1074.5 1381.39 1073.93 1381.08 1073.28 1380.85 1072.63 1380.62 1071.78 1380.51 1070.73 1380.51 1069.67 1380.51 1068.67 1380.72 1067.73 1381.13 1066.78 1381.55 1065.74 1382.28 1064.61 1383.3 1063.47 1384.33 1062.65 1385.34 1062.13 1386.34 1061.62 1387.34 1061.36 1388.49 1061.36 1389.79L1061.36 1404.9C1061.36 1407.23 1061.47 1408.84 1061.69 1409.75 1061.9 1410.65 1062.32 1411.34 1062.92 1411.81 1063.53 1412.29 1064.52 1412.7 1065.9 1413.05L1065.9 1415.04 1050.02 1415.04 1050.02 1413.05C1051.07 1412.73 1051.82 1412.44 1052.27 1412.2 1052.71 1411.96 1053.09 1411.62 1053.4 1411.19 1053.71 1410.75 1053.95 1410.09 1054.13 1409.2 1054.3 1408.31 1054.39 1406.92 1054.39 1405.02L1054.39 1387.35C1054.39 1385.63 1054.37 1384.23 1054.31 1383.18 1054.26 1382.13 1054.07 1381.28 1053.74 1380.65 1053.42 1380.01 1052.93 1379.54 1052.27 1379.23 1051.6 1378.92 1050.66 1378.66 1049.45 1378.44L1049.45 1376.29 1058.93 1375.93 1061.4 1375.93 1060.96 1382.53 1061.53 1382.69C1063.52 1380.67 1065.14 1379.22 1066.37 1378.36 1067.6 1377.49 1068.84 1376.82 1070.1 1376.35 1071.35 1375.88 1072.68 1375.64 1074.09 1375.64ZM1036.4 1357.04 1038.84 1357.04 1038.84 1404.9C1038.84 1407.23 1038.94 1408.84 1039.16 1409.75 1039.38 1410.65 1039.79 1411.34 1040.4 1411.81 1041 1412.29 1042 1412.7 1043.38 1413.05L1043.38 1415.04 1027.29 1415.04 1027.29 1413.05C1028.64 1412.7 1029.58 1412.33 1030.1 1411.96 1030.63 1411.58 1031.01 1411.12 1031.24 1410.6 1031.47 1410.07 1031.63 1409.35 1031.72 1408.45 1031.82 1407.54 1031.87 1406.36 1031.87 1404.9L1031.87 1370.98C1031.87 1368.39 1031.85 1366.58 1031.81 1365.55 1031.76 1364.52 1031.66 1363.65 1031.48 1362.94 1031.31 1362.22 1031.06 1361.66 1030.75 1361.26 1030.44 1360.85 1030.02 1360.53 1029.49 1360.28 1028.97 1360.04 1028.02 1359.8 1026.64 1359.55L1026.64 1357.45Z" fill="#FFFFFF" fill-rule="evenodd"/><text fill="#000000" fill-opacity="0" font-family="Arial,Arial_MSFontService,sans-serif" font-size="57.9946" x="1026.64" y="1407.79">ln</text><path d="M1124.08 1356.47 1125.17 1359.59C1118.85 1361.67 1114.17 1365.73 1111.13 1371.77 1108.09 1377.81 1106.57 1385.4 1106.57 1394.53 1106.57 1403.98 1108.09 1411.78 1111.13 1417.91 1114.17 1424.05 1118.81 1428.15 1125.05 1430.23L1124.08 1433.35C1116.16 1431.27 1110.09 1426.79 1105.88 1419.92 1101.66 1413.04 1099.56 1404.71 1099.56 1394.93 1099.56 1385.18 1101.67 1376.85 1105.9 1369.95 1110.13 1363.05 1116.19 1358.55 1124.08 1356.47Z" fill="#FFFFFF" fill-rule="evenodd"/><text fill="#000000" fill-opacity="0" font-family="Arial,Arial_MSFontService,sans-serif" font-size="76.8804" x="1099.56" y="1423.74">(</text><path d="M1156.55 1363.28C1154.87 1363.28 1153.11 1363.32 1151.28 1363.4L1145.77 1387.96 1149.98 1387.96C1153.25 1387.96 1155.89 1387.63 1157.9 1386.95 1159.92 1386.27 1161.56 1385.23 1162.85 1383.81 1164.13 1382.39 1165.12 1380.71 1165.83 1378.76 1166.53 1376.82 1166.88 1374.68 1166.88 1372.36 1166.88 1369.23 1166.08 1366.93 1164.49 1365.47 1162.9 1364.01 1160.25 1363.28 1156.55 1363.28ZM1139.56 1359.72 1157.44 1359.72C1160.65 1359.72 1163.29 1359.97 1165.36 1360.47 1167.43 1360.96 1169.13 1361.73 1170.47 1362.78 1171.8 1363.82 1172.8 1365.13 1173.47 1366.73 1174.13 1368.32 1174.46 1370.17 1174.46 1372.28 1174.46 1376.33 1173.5 1379.84 1171.58 1382.82 1169.66 1385.79 1167.06 1387.98 1163.78 1389.38 1160.5 1390.79 1156.56 1391.49 1151.97 1391.49 1149.21 1391.49 1146.91 1391.43 1145.08 1391.33L1142.48 1403.24C1142.24 1404.35 1142.07 1405.2 1141.98 1405.79 1141.88 1406.39 1141.8 1407.03 1141.73 1407.72 1141.67 1408.41 1141.63 1409.02 1141.63 1409.56 1141.63 1410.4 1141.77 1411.06 1142.04 1411.53 1142.31 1412 1142.71 1412.35 1143.25 1412.56 1143.79 1412.78 1144.73 1412.94 1146.05 1413.05L1145.6 1415.04 1128.95 1415.04 1129.39 1413.05C1130.42 1412.89 1131.19 1412.62 1131.7 1412.26 1132.22 1411.89 1132.65 1411.39 1133 1410.74 1133.35 1410.09 1133.67 1409.3 1133.97 1408.37 1134.27 1407.44 1134.72 1405.63 1135.31 1402.96L1142.2 1371.75C1142.79 1369.05 1143.09 1366.92 1143.09 1365.35 1143.09 1364.02 1142.78 1363.11 1142.16 1362.59 1141.54 1362.08 1140.52 1361.78 1139.12 1361.7Z" fill="#FFFFFF" fill-rule="evenodd"/><text fill="#000000" fill-opacity="0" font-family="Arial,Arial_MSFontService,sans-serif" font-size="55.3198" x="1128.95" y="1408.12">๐</text><path d="M1182.28 1356.47C1190.17 1358.55 1196.23 1363.05 1200.45 1369.95 1204.68 1376.85 1206.8 1385.18 1206.8 1394.93 1206.8 1404.71 1204.69 1413.04 1200.47 1419.92 1196.26 1426.79 1190.19 1431.27 1182.28 1433.35L1181.3 1430.23C1187.55 1428.15 1192.19 1424.05 1195.23 1417.91 1198.27 1411.78 1199.79 1403.98 1199.79 1394.53 1199.79 1385.4 1198.27 1377.81 1195.25 1371.77 1192.22 1365.73 1187.53 1361.67 1181.18 1359.59Z" fill="#FFFFFF" fill-rule="evenodd"/><text fill="#000000" fill-opacity="0" font-family="Arial,Arial_MSFontService,sans-serif" font-size="76.8804" x="1181.18" y="1423.74">)</text><path d="M1116.52 1340.22 1121.95 1340.22 1194.33 1350.23 1193.76 1352.79 1120.04 1345.45 1118.87 1345.45 1045.35 1352.79 1044.66 1350.23Z" fill="#FFFFFF" fill-rule="evenodd"/><text fill="#000000" fill-opacity="0" font-family="Arial,Arial_MSFontService,sans-serif" font-size="12.5635" x="1044.66" y="1351.22">เทฃ</text><path d="M313.5 1243.06 361.823 1243.06 361.823 1249.94 313.5 1249.94ZM357.24 1232.75 384.74 1246.5 357.24 1260.25Z"/><rect x="141.5" y="1439.5" width="172" height="125" stroke="#024059" stroke-width="6.875" stroke-miterlimit="8" fill="#0F9ED5"/><path d="M208.733 1477.32C207.058 1477.32 205.302 1477.36 203.465 1477.44L197.953 1502 202.168 1502C205.437 1502 208.078 1501.66 210.091 1500.99 212.104 1500.31 213.752 1499.27 215.035 1497.85 216.319 1496.43 217.312 1494.75 218.014 1492.8 218.717 1490.86 219.068 1488.72 219.068 1486.4 219.068 1483.27 218.271 1480.97 216.677 1479.51 215.083 1478.05 212.435 1477.32 208.733 1477.32ZM191.752 1473.76 209.625 1473.76C212.84 1473.76 215.481 1474.01 217.548 1474.5 219.615 1475 221.317 1475.77 222.654 1476.81 223.992 1477.86 224.992 1479.17 225.654 1480.77 226.315 1482.36 226.646 1484.21 226.646 1486.32 226.646 1490.37 225.687 1493.88 223.769 1496.86 221.851 1499.83 219.25 1502.02 215.967 1503.42 212.685 1504.83 208.747 1505.53 204.154 1505.53 201.398 1505.53 199.101 1505.47 197.264 1505.37L194.67 1517.28C194.427 1518.39 194.258 1519.24 194.164 1519.83 194.069 1520.43 193.988 1521.07 193.921 1521.76 193.853 1522.45 193.819 1523.06 193.819 1523.6 193.819 1524.44 193.954 1525.1 194.225 1525.57 194.495 1526.04 194.9 1526.39 195.44 1526.6 195.981 1526.82 196.913 1526.98 198.237 1527.09L197.791 1529.07 181.134 1529.07 181.58 1527.09C182.607 1526.93 183.377 1526.66 183.89 1526.3 184.403 1525.93 184.836 1525.43 185.187 1524.78 185.538 1524.13 185.862 1523.34 186.16 1522.41 186.457 1521.48 186.903 1519.67 187.497 1517L194.387 1485.79C194.981 1483.09 195.278 1480.96 195.278 1479.39 195.278 1478.06 194.968 1477.15 194.346 1476.63 193.725 1476.12 192.712 1475.82 191.307 1475.74Z" fill="#FFFFFF" fill-rule="evenodd"/><text fill="#000000" fill-opacity="0" font-family="Arial,Arial_MSFontService,sans-serif" font-size="55.3198" x="181.134" y="1522.16">๐</text><path d="M238.608 1510.24C237.218 1510.24 236.056 1510.6 235.123 1511.32 234.189 1512.05 233.45 1513.11 232.904 1514.51 232.358 1515.91 231.97 1517.62 231.742 1519.63 231.514 1521.65 231.4 1523.94 231.4 1526.5 231.4 1529.46 231.544 1532.01 231.831 1534.17 232.119 1536.32 232.566 1538.1 233.172 1539.49 233.777 1540.88 234.537 1541.9 235.45 1542.55 236.364 1543.21 237.456 1543.54 238.727 1543.54 239.918 1543.54 240.961 1543.23 241.854 1542.61 242.748 1542 243.487 1541.04 244.073 1539.74 244.659 1538.44 245.101 1536.79 245.399 1534.79 245.696 1532.8 245.845 1530.44 245.845 1527.72 245.845 1524.66 245.682 1522.03 245.354 1519.83 245.026 1517.62 244.565 1515.81 243.969 1514.39 243.373 1512.97 242.624 1511.92 241.72 1511.25 240.817 1510.57 239.779 1510.24 238.608 1510.24ZM238.727 1507.35C241.09 1507.35 243.11 1507.79 244.788 1508.67 246.466 1509.56 247.836 1510.82 248.898 1512.46 249.961 1514.09 250.74 1516.09 251.236 1518.46 251.733 1520.82 251.981 1523.49 251.981 1526.47 251.981 1533.08 250.81 1538.08 248.466 1541.47 246.123 1544.85 242.728 1546.54 238.28 1546.54 233.872 1546.54 230.595 1544.95 228.451 1541.75 226.306 1538.55 225.234 1533.71 225.234 1527.21 225.234 1523.82 225.567 1520.88 226.232 1518.4 226.897 1515.92 227.83 1513.85 229.032 1512.22 230.233 1510.58 231.658 1509.36 233.306 1508.55 234.954 1507.75 236.761 1507.35 238.727 1507.35Z" fill="#FFFFFF" fill-rule="evenodd"/><text fill="#000000" fill-opacity="0" font-family="Arial,Arial_MSFontService,sans-serif" font-size="39.1973" x="225.234" y="1541.64">0</text><path d="M313.5 1495.06 361.823 1495.06 361.823 1501.94 313.5 1501.94ZM357.24 1484.75 384.74 1498.5 357.24 1512.25Z"/><path d="M310.5 1202.06 1490.12 1202.06 1490.12 1208.94 310.5 1208.94ZM1485.54 1191.75 1513.04 1205.5 1485.54 1219.25Z"/></g></svg>