<?xml version="1.0" encoding="utf-8" standalone="no"?>
<!DOCTYPE svg PUBLIC "-//W3C//DTD SVG 1.1//EN"
  "http://www.w3.org/Graphics/SVG/1.1/DTD/svg11.dtd">
<svg xmlns:xlink="http://www.w3.org/1999/xlink" width="388.542964pt" height="240.132758pt" viewBox="0 0 388.542964 240.132758" xmlns="http://www.w3.org/2000/svg" version="1.1">
 <metadata>
  <rdf:RDF xmlns:dc="http://purl.org/dc/elements/1.1/" xmlns:cc="http://creativecommons.org/ns#" xmlns:rdf="http://www.w3.org/1999/02/22-rdf-syntax-ns#">
   <cc:Work>
    <dc:type rdf:resource="http://purl.org/dc/dcmitype/StillImage"/>
    <dc:date>2024-12-29T13:07:30.494729</dc:date>
    <dc:format>image/svg+xml</dc:format>
    <dc:creator>
     <cc:Agent>
      <dc:title>Matplotlib v3.7.5, https://matplotlib.org/</dc:title>
     </cc:Agent>
    </dc:creator>
   </cc:Work>
  </rdf:RDF>
 </metadata>
 <defs>
  <style type="text/css">*{stroke-linejoin: round; stroke-linecap: butt}</style>
 </defs>
 <g id="figure_1">
  <g id="patch_1">
   <path d="M 0 240.132758 
L 388.542964 240.132758 
L 388.542964 0 
L 0 0 
z
" style="fill: #ffffff"/>
  </g>
  <g id="axes_1">
   <g id="patch_2">
    <path d="M 53.42442 193.536948 
L 377.742964 193.536948 
L 377.742964 10.8 
L 53.42442 10.8 
z
" style="fill: #ffffff"/>
   </g>
   <g id="matplotlib.axis_1">
    <g id="xtick_1">
     <g id="line2d_1">
      <defs>
       <path id="mbd33063bdd" d="M 0 0 
L 0 3.5 
" style="stroke: #000000; stroke-width: 0.8"/>
      </defs>
      <g>
       <use xlink:href="#mbd33063bdd" x="73.486051" y="193.536948" style="stroke: #000000; stroke-width: 0.8"/>
      </g>
     </g>
     <g id="text_1">
      <!-- $\mathdefault{0.1}$ -->
      <g transform="translate(64.76076 210.222825) scale(0.14 -0.14)">
       <defs>
        <path id="CMR17-30" d="M 2688 2025 
C 2688 2416 2682 3080 2413 3591 
C 2176 4039 1798 4198 1466 4198 
C 1158 4198 768 4058 525 3597 
C 269 3118 243 2524 243 2025 
C 243 1661 250 1106 448 619 
C 723 -39 1216 -128 1466 -128 
C 1760 -128 2208 -7 2470 600 
C 2662 1042 2688 1559 2688 2025 
z
M 1466 -26 
C 1056 -26 813 325 723 812 
C 653 1188 653 1738 653 2096 
C 653 2588 653 2997 736 3387 
C 858 3929 1216 4096 1466 4096 
C 1728 4096 2067 3923 2189 3400 
C 2272 3036 2278 2607 2278 2096 
C 2278 1680 2278 1169 2202 792 
C 2067 95 1690 -26 1466 -26 
z
" transform="scale(0.015625)"/>
        <path id="CMMI12-3a" d="M 1178 307 
C 1178 492 1024 619 870 619 
C 685 619 557 466 557 313 
C 557 128 710 0 864 0 
C 1050 0 1178 153 1178 307 
z
" transform="scale(0.015625)"/>
        <path id="CMR17-31" d="M 1702 4058 
C 1702 4192 1696 4192 1606 4192 
C 1357 3916 979 3827 621 3827 
C 602 3827 570 3827 563 3808 
C 557 3795 557 3782 557 3648 
C 755 3648 1088 3686 1344 3839 
L 1344 461 
C 1344 236 1331 160 781 160 
L 589 160 
L 589 0 
C 896 0 1216 0 1523 0 
C 1830 0 2150 0 2458 0 
L 2458 160 
L 2266 160 
C 1715 160 1702 230 1702 458 
L 1702 4058 
z
" transform="scale(0.015625)"/>
       </defs>
       <use xlink:href="#CMR17-30" transform="scale(0.996264)"/>
       <use xlink:href="#CMMI12-3a" transform="translate(45.690477 0) scale(0.996264)"/>
       <use xlink:href="#CMR17-31" transform="translate(72.787654 0) scale(0.996264)"/>
      </g>
     </g>
    </g>
    <g id="xtick_2">
     <g id="line2d_2">
      <g>
       <use xlink:href="#mbd33063bdd" x="130.492082" y="193.536948" style="stroke: #000000; stroke-width: 0.8"/>
      </g>
     </g>
     <g id="text_2">
      <!-- $\mathdefault{0.2}$ -->
      <g transform="translate(121.766791 210.222825) scale(0.14 -0.14)">
       <defs>
        <path id="CMR17-32" d="M 2669 989 
L 2554 989 
C 2490 536 2438 459 2413 420 
C 2381 369 1920 369 1830 369 
L 602 369 
C 832 619 1280 1072 1824 1597 
C 2214 1967 2669 2402 2669 3035 
C 2669 3790 2067 4224 1395 4224 
C 691 4224 262 3604 262 3030 
C 262 2780 448 2748 525 2748 
C 589 2748 781 2787 781 3010 
C 781 3207 614 3264 525 3264 
C 486 3264 448 3258 422 3245 
C 544 3790 915 4058 1306 4058 
C 1862 4058 2227 3617 2227 3035 
C 2227 2479 1901 2000 1536 1584 
L 262 146 
L 262 0 
L 2515 0 
L 2669 989 
z
" transform="scale(0.015625)"/>
       </defs>
       <use xlink:href="#CMR17-30" transform="scale(0.996264)"/>
       <use xlink:href="#CMMI12-3a" transform="translate(45.690477 0) scale(0.996264)"/>
       <use xlink:href="#CMR17-32" transform="translate(72.787654 0) scale(0.996264)"/>
      </g>
     </g>
    </g>
    <g id="xtick_3">
     <g id="line2d_3">
      <g>
       <use xlink:href="#mbd33063bdd" x="187.498113" y="193.536948" style="stroke: #000000; stroke-width: 0.8"/>
      </g>
     </g>
     <g id="text_3">
      <!-- $\mathdefault{0.3}$ -->
      <g transform="translate(178.772822 210.222825) scale(0.14 -0.14)">
       <defs>
        <path id="CMR17-33" d="M 1414 2157 
C 1984 2157 2234 1662 2234 1090 
C 2234 320 1824 25 1453 25 
C 1114 25 563 194 390 693 
C 422 680 454 680 486 680 
C 640 680 755 782 755 948 
C 755 1133 614 1216 486 1216 
C 378 1216 211 1165 211 926 
C 211 335 787 -128 1466 -128 
C 2176 -128 2720 430 2720 1085 
C 2720 1707 2208 2157 1600 2227 
C 2086 2328 2554 2756 2554 3329 
C 2554 3820 2048 4179 1472 4179 
C 890 4179 378 3829 378 3329 
C 378 3110 544 3072 627 3072 
C 762 3072 877 3155 877 3321 
C 877 3486 762 3569 627 3569 
C 602 3569 570 3569 544 3557 
C 730 3959 1235 4032 1459 4032 
C 1683 4032 2106 3925 2106 3320 
C 2106 3143 2080 2828 1862 2550 
C 1670 2304 1453 2304 1242 2284 
C 1210 2284 1062 2269 1037 2269 
C 992 2263 966 2257 966 2208 
C 966 2163 973 2157 1101 2157 
L 1414 2157 
z
" transform="scale(0.015625)"/>
       </defs>
       <use xlink:href="#CMR17-30" transform="scale(0.996264)"/>
       <use xlink:href="#CMMI12-3a" transform="translate(45.690477 0) scale(0.996264)"/>
       <use xlink:href="#CMR17-33" transform="translate(72.787654 0) scale(0.996264)"/>
      </g>
     </g>
    </g>
    <g id="xtick_4">
     <g id="line2d_4">
      <g>
       <use xlink:href="#mbd33063bdd" x="244.504144" y="193.536948" style="stroke: #000000; stroke-width: 0.8"/>
      </g>
     </g>
     <g id="text_4">
      <!-- $\mathdefault{0.4}$ -->
      <g transform="translate(235.778853 210.222825) scale(0.14 -0.14)">
       <defs>
        <path id="CMR17-34" d="M 2150 4122 
C 2150 4256 2144 4256 2029 4256 
L 128 1254 
L 128 1088 
L 1779 1088 
L 1779 457 
C 1779 224 1766 160 1318 160 
L 1197 160 
L 1197 0 
C 1402 0 1747 0 1965 0 
C 2182 0 2528 0 2733 0 
L 2733 160 
L 2611 160 
C 2163 160 2150 224 2150 457 
L 2150 1088 
L 2803 1088 
L 2803 1254 
L 2150 1254 
L 2150 4122 
z
M 1798 3703 
L 1798 1254 
L 256 1254 
L 1798 3703 
z
" transform="scale(0.015625)"/>
       </defs>
       <use xlink:href="#CMR17-30" transform="scale(0.996264)"/>
       <use xlink:href="#CMMI12-3a" transform="translate(45.690477 0) scale(0.996264)"/>
       <use xlink:href="#CMR17-34" transform="translate(72.787654 0) scale(0.996264)"/>
      </g>
     </g>
    </g>
    <g id="xtick_5">
     <g id="line2d_5">
      <g>
       <use xlink:href="#mbd33063bdd" x="301.510175" y="193.536948" style="stroke: #000000; stroke-width: 0.8"/>
      </g>
     </g>
     <g id="text_5">
      <!-- $\mathdefault{0.5}$ -->
      <g transform="translate(292.784884 210.222825) scale(0.14 -0.14)">
       <defs>
        <path id="CMR17-35" d="M 730 3692 
C 794 3666 1056 3584 1325 3584 
C 1920 3584 2246 3911 2432 4100 
C 2432 4157 2432 4192 2394 4192 
C 2387 4192 2374 4192 2323 4163 
C 2099 4058 1837 3973 1517 3973 
C 1325 3973 1037 3999 723 4139 
C 653 4171 640 4171 634 4171 
C 602 4171 595 4164 595 4037 
L 595 2203 
C 595 2089 595 2057 659 2057 
C 691 2057 704 2070 736 2114 
C 941 2401 1222 2522 1542 2522 
C 1766 2522 2246 2382 2246 1289 
C 2246 1085 2246 715 2054 421 
C 1894 159 1645 25 1370 25 
C 947 25 518 320 403 814 
C 429 807 480 795 506 795 
C 589 795 749 840 749 1038 
C 749 1210 627 1280 506 1280 
C 358 1280 262 1190 262 1011 
C 262 454 704 -128 1382 -128 
C 2042 -128 2669 440 2669 1264 
C 2669 2030 2170 2624 1549 2624 
C 1222 2624 947 2503 730 2274 
L 730 3692 
z
" transform="scale(0.015625)"/>
       </defs>
       <use xlink:href="#CMR17-30" transform="scale(0.996264)"/>
       <use xlink:href="#CMMI12-3a" transform="translate(45.690477 0) scale(0.996264)"/>
       <use xlink:href="#CMR17-35" transform="translate(72.787654 0) scale(0.996264)"/>
      </g>
     </g>
    </g>
    <g id="xtick_6">
     <g id="line2d_6">
      <g>
       <use xlink:href="#mbd33063bdd" x="358.516206" y="193.536948" style="stroke: #000000; stroke-width: 0.8"/>
      </g>
     </g>
     <g id="text_6">
      <!-- $\mathdefault{0.6}$ -->
      <g transform="translate(349.790915 210.222825) scale(0.14 -0.14)">
       <defs>
        <path id="CMR17-36" d="M 678 2176 
C 678 3690 1395 4032 1811 4032 
C 1946 4032 2272 4009 2400 3776 
C 2298 3776 2106 3776 2106 3553 
C 2106 3381 2246 3323 2336 3323 
C 2394 3323 2566 3348 2566 3560 
C 2566 3954 2246 4179 1805 4179 
C 1043 4179 243 3390 243 1984 
C 243 253 966 -128 1478 -128 
C 2099 -128 2688 427 2688 1283 
C 2688 2081 2170 2662 1517 2662 
C 1126 2662 838 2407 678 1960 
L 678 2176 
z
M 1478 25 
C 691 25 691 1200 691 1436 
C 691 1896 909 2560 1504 2560 
C 1613 2560 1926 2560 2138 2120 
C 2253 1870 2253 1609 2253 1289 
C 2253 944 2253 690 2118 434 
C 1978 171 1773 25 1478 25 
z
" transform="scale(0.015625)"/>
       </defs>
       <use xlink:href="#CMR17-30" transform="scale(0.996264)"/>
       <use xlink:href="#CMMI12-3a" transform="translate(45.690477 0) scale(0.996264)"/>
       <use xlink:href="#CMR17-36" transform="translate(72.787654 0) scale(0.996264)"/>
      </g>
     </g>
    </g>
    <g id="text_7">
     <!-- P -->
     <g transform="translate(210.937731 226.620729) scale(0.14 -0.14)">
      <defs>
       <path id="CMR17-50" d="M 1267 2042 
L 2291 2042 
C 3117 2042 3718 2578 3718 3184 
C 3718 3791 3130 4352 2291 4352 
L 333 4352 
L 333 4186 
C 774 4186 845 4186 845 3899 
L 845 446 
C 845 160 774 160 333 160 
L 333 0 
C 518 0 858 0 1056 0 
C 1254 0 1594 0 1779 0 
L 1779 160 
C 1338 160 1267 160 1267 446 
L 1267 2042 
z
M 1254 2176 
L 1254 3938 
C 1254 4155 1267 4186 1523 4186 
L 2170 4186 
C 2995 4186 3232 3714 3232 3184 
C 3232 2604 2950 2176 2170 2176 
L 1254 2176 
z
" transform="scale(0.015625)"/>
      </defs>
      <use xlink:href="#CMR17-50" transform="scale(0.996264)"/>
     </g>
    </g>
   </g>
   <g id="matplotlib.axis_2">
    <g id="ytick_1">
     <g id="line2d_7">
      <defs>
       <path id="m48f9f4390e" d="M 0 0 
L -3.5 0 
" style="stroke: #000000; stroke-width: 0.8"/>
      </defs>
      <g>
       <use xlink:href="#m48f9f4390e" x="53.42442" y="183.828888" style="stroke: #000000; stroke-width: 0.8"/>
      </g>
     </g>
     <g id="text_8">
      <!-- $\mathdefault{−5}$ -->
      <g transform="translate(28.747696 188.671826) scale(0.14 -0.14)">
       <defs>
        <path id="CMSY10-0" d="M 4218 1472 
C 4326 1472 4442 1472 4442 1600 
C 4442 1728 4326 1728 4218 1728 
L 755 1728 
C 646 1728 531 1728 531 1600 
C 531 1472 646 1472 755 1472 
L 4218 1472 
z
" transform="scale(0.015625)"/>
       </defs>
       <use xlink:href="#CMSY10-0" transform="scale(0.996264)"/>
       <use xlink:href="#CMR17-35" transform="translate(77.487468 0) scale(0.996264)"/>
      </g>
     </g>
    </g>
    <g id="ytick_2">
     <g id="line2d_8">
      <g>
       <use xlink:href="#m48f9f4390e" x="53.42442" y="151.93924" style="stroke: #000000; stroke-width: 0.8"/>
      </g>
     </g>
     <g id="text_9">
      <!-- $\mathdefault{0}$ -->
      <g transform="translate(39.595931 156.782178) scale(0.14 -0.14)">
       <use xlink:href="#CMR17-30" transform="scale(0.996264)"/>
      </g>
     </g>
    </g>
    <g id="ytick_3">
     <g id="line2d_9">
      <g>
       <use xlink:href="#m48f9f4390e" x="53.42442" y="120.049592" style="stroke: #000000; stroke-width: 0.8"/>
      </g>
     </g>
     <g id="text_10">
      <!-- $\mathdefault{5}$ -->
      <g transform="translate(39.595931 124.89253) scale(0.14 -0.14)">
       <use xlink:href="#CMR17-35" transform="scale(0.996264)"/>
      </g>
     </g>
    </g>
    <g id="ytick_4">
     <g id="line2d_10">
      <g>
       <use xlink:href="#m48f9f4390e" x="53.42442" y="88.159944" style="stroke: #000000; stroke-width: 0.8"/>
      </g>
     </g>
     <g id="text_11">
      <!-- $\mathdefault{10}$ -->
      <g transform="translate(32.767443 93.002883) scale(0.14 -0.14)">
       <use xlink:href="#CMR17-31" transform="scale(0.996264)"/>
       <use xlink:href="#CMR17-30" transform="translate(45.690477 0) scale(0.996264)"/>
      </g>
     </g>
    </g>
    <g id="ytick_5">
     <g id="line2d_11">
      <g>
       <use xlink:href="#m48f9f4390e" x="53.42442" y="56.270297" style="stroke: #000000; stroke-width: 0.8"/>
      </g>
     </g>
     <g id="text_12">
      <!-- $\mathdefault{15}$ -->
      <g transform="translate(32.767443 61.113235) scale(0.14 -0.14)">
       <use xlink:href="#CMR17-31" transform="scale(0.996264)"/>
       <use xlink:href="#CMR17-35" transform="translate(45.690477 0) scale(0.996264)"/>
      </g>
     </g>
    </g>
    <g id="ytick_6">
     <g id="line2d_12">
      <g>
       <use xlink:href="#m48f9f4390e" x="53.42442" y="24.380649" style="stroke: #000000; stroke-width: 0.8"/>
      </g>
     </g>
     <g id="text_13">
      <!-- $\mathdefault{20}$ -->
      <g transform="translate(32.767443 29.223587) scale(0.14 -0.14)">
       <use xlink:href="#CMR17-32" transform="scale(0.996264)"/>
       <use xlink:href="#CMR17-30" transform="translate(45.690477 0) scale(0.996264)"/>
      </g>
     </g>
    </g>
    <g id="text_14">
     <!-- $\phi(P, t)$ -->
     <g transform="translate(21.260772 121.636933) rotate(-90) scale(0.14 -0.14)">
      <defs>
       <path id="CMMI12-1e" d="M 2752 4390 
C 2752 4448 2707 4448 2688 4448 
C 2630 4448 2624 4435 2598 4326 
L 2253 2939 
C 2234 2856 2227 2849 2221 2843 
C 2214 2830 2170 2824 2157 2824 
C 1107 2734 301 1864 301 1057 
C 301 361 832 -64 1498 -64 
C 1446 -261 1402 -463 1350 -659 
C 1261 -995 1210 -1204 1210 -1229 
C 1210 -1241 1210 -1280 1274 -1280 
C 1293 -1280 1318 -1280 1331 -1254 
C 1344 -1241 1382 -1089 1408 -1008 
L 1645 -64 
C 2739 -64 3571 854 3571 1680 
C 3571 2343 3085 2816 2374 2816 
L 2752 4390 
z
M 2336 2701 
C 2758 2701 3181 2463 3181 1828 
C 3181 1097 2675 128 1677 50 
L 2336 2701 
z
M 1530 50 
C 1216 50 691 220 691 938 
C 691 1761 1274 2676 2195 2676 
L 1530 50 
z
" transform="scale(0.015625)"/>
       <path id="CMR17-28" d="M 1958 -1561 
C 1958 -1555 1958 -1542 1939 -1523 
C 1645 -1224 858 -407 858 1581 
C 858 3569 1632 4379 1946 4697 
C 1946 4704 1958 4717 1958 4736 
C 1958 4755 1939 4768 1914 4768 
C 1843 4768 1299 4296 986 3594 
C 666 2887 576 2199 576 1588 
C 576 1128 621 351 1005 -471 
C 1312 -1135 1837 -1600 1914 -1600 
C 1946 -1600 1958 -1587 1958 -1561 
z
" transform="scale(0.015625)"/>
       <path id="CMMI12-50" d="M 1894 2023 
L 2970 2023 
C 3853 2023 4736 2673 4736 3401 
C 4736 3898 4314 4352 3507 4352 
L 1530 4352 
C 1408 4352 1350 4352 1350 4231 
C 1350 4167 1408 4167 1504 4167 
C 1894 4167 1894 4116 1894 4046 
C 1894 4034 1894 3995 1869 3899 
L 1005 472 
C 947 249 934 185 486 185 
C 365 185 301 185 301 70 
C 301 0 358 0 397 0 
C 518 0 646 0 768 0 
L 1517 0 
C 1638 0 1773 0 1894 0 
C 1946 0 2016 0 2016 121 
C 2016 185 1958 185 1862 185 
C 1478 185 1472 230 1472 293 
C 1472 325 1478 369 1485 401 
L 1894 2023 
z
M 2355 3930 
C 2413 4167 2438 4167 2688 4167 
L 3322 4167 
C 3802 4167 4198 4013 4198 3535 
C 4198 3369 4115 2827 3821 2534 
C 3712 2419 3405 2176 2822 2176 
L 1920 2176 
L 2355 3930 
z
" transform="scale(0.015625)"/>
       <path id="CMMI12-3b" d="M 1248 -31 
C 1248 343 1126 619 864 619 
C 659 619 557 453 557 313 
C 557 172 653 0 870 0 
C 954 0 1024 26 1082 83 
C 1094 96 1101 96 1107 96 
C 1120 96 1120 5 1120 -27 
C 1120 -240 1082 -659 710 -1080 
C 640 -1157 640 -1170 640 -1183 
C 640 -1216 672 -1248 704 -1248 
C 755 -1248 1248 -771 1248 -31 
z
" transform="scale(0.015625)"/>
       <path id="CMMI12-74" d="M 1286 2566 
L 1875 2566 
C 1997 2566 2061 2566 2061 2681 
C 2061 2752 2022 2752 1894 2752 
L 1331 2752 
L 1568 3692 
C 1594 3781 1594 3794 1594 3840 
C 1594 3943 1510 4000 1427 4000 
C 1376 4000 1229 3981 1178 3775 
L 928 2752 
L 326 2752 
C 198 2752 141 2752 141 2630 
C 141 2566 186 2566 307 2566 
L 877 2566 
L 454 881 
C 403 658 384 594 384 511 
C 384 211 595 -64 954 -64 
C 1600 -64 1946 868 1946 912 
C 1946 951 1920 970 1882 970 
C 1869 970 1843 970 1830 944 
C 1824 938 1818 931 1773 829 
C 1638 511 1344 64 973 64 
C 781 64 768 224 768 364 
C 768 370 768 492 787 568 
L 1286 2566 
z
" transform="scale(0.015625)"/>
       <path id="CMR17-29" d="M 1683 1581 
C 1683 2040 1638 2817 1254 3639 
C 947 4303 422 4768 346 4768 
C 326 4768 301 4761 301 4729 
C 301 4717 307 4710 314 4697 
C 621 4378 1402 3568 1402 1584 
C 1402 -407 627 -1217 314 -1537 
C 307 -1549 301 -1556 301 -1568 
C 301 -1600 326 -1600 346 -1600 
C 416 -1600 960 -1128 1274 -426 
C 1594 281 1683 969 1683 1581 
z
" transform="scale(0.015625)"/>
      </defs>
      <use xlink:href="#CMMI12-1e" transform="scale(0.996264)"/>
      <use xlink:href="#CMR17-28" transform="translate(57.73418 0) scale(0.996264)"/>
      <use xlink:href="#CMMI12-50" transform="translate(93.014948 0) scale(0.996264)"/>
      <use xlink:href="#CMMI12-3b" transform="translate(158.601898 0) scale(0.996264)"/>
      <use xlink:href="#CMMI12-74" transform="translate(202.30348 0) scale(0.996264)"/>
      <use xlink:href="#CMR17-29" transform="translate(237.529811 0) scale(0.996264)"/>
     </g>
    </g>
   </g>
   <g id="line2d_13">
    <path d="M 68.709616 165.419906 
L 68.409418 162.912506 
L 68.224984 158.719636 
L 68.166172 152.565243 
L 68.243693 145.32884 
L 68.4697 138.466842 
L 68.857476 132.246891 
L 69.421732 125.958938 
L 70.178656 119.059336 
L 71.145584 111.469107 
L 72.341911 103.181474 
L 73.787783 94.403841 
L 75.504657 85.711289 
L 77.514529 77.327739 
L 79.840654 68.975221 
L 82.504701 60.734305 
L 85.527843 53.15552 
L 88.928743 46.554443 
L 92.722277 40.605619 
L 96.918267 35.207429 
L 101.520476 30.936272 
L 106.523679 28.124955 
L 111.913265 26.539329 
L 117.663369 25.891668 
L 123.739299 26.270946 
L 130.092083 28.30867 
L 136.663008 31.975072 
L 143.38348 35.373809 
L 150.179621 41.406364 
L 156.970614 46.587653 
L 163.673409 54.128277 
L 170.208597 60.849117 
L 176.498293 69.224663 
L 182.472653 74.784112 
L 188.072148 82.496364 
L 193.245166 90.196476 
L 197.953514 97.77843 
L 202.169432 104.831532 
L 205.876577 111.481986 
L 209.070447 117.74837 
L 211.755629 123.679366 
L 213.942061 129.371343 
L 215.64962 134.750894 
L 216.902279 139.642565 
L 217.728256 144.032622 
L 218.158047 148.055627 
L 218.223455 151.834013 
L 217.956998 155.394373 
L 217.391124 158.679609 
L 216.557043 161.622868 
L 215.485913 164.211811 
L 214.205426 166.492445 
L 212.742833 168.525532 
L 211.123209 170.356137 
L 209.369303 172.005153 
L 207.501621 173.476505 
L 205.539717 174.769402 
L 203.500105 175.88538 
L 201.398636 176.831047 
L 199.248578 177.618415 
L 197.060311 178.262949 
L 192.619728 179.188674 
L 188.145592 179.73872 
L 183.692608 180.018888 
L 179.300614 180.103966 
L 172.891383 179.962373 
L 166.753927 179.556313 
L 160.927967 178.892311 
L 157.228365 178.292535 
L 153.680985 177.554613 
L 150.286703 176.673976 
L 147.047107 175.662187 
L 142.476125 173.998981 
L 138.250684 172.448118 
L 135.624293 171.659629 
L 129.721024 170.118177 
L 127.623165 169.106532 
L 125.675328 167.76253 
L 123.877378 166.234 
L 120.730789 163.19196 
L 118.182862 160.471347 
L 116.664298 158.556223 
L 115.480989 156.63865 
L 114.877034 155.325495 
L 114.420095 153.975825 
L 114.006631 151.895618 
L 113.913292 149.811509 
L 114.130736 147.833956 
L 114.442741 146.627974 
L 114.883762 145.530982 
L 115.449415 144.536319 
L 116.521063 143.176649 
L 118.340572 141.410797 
L 121.829127 138.452212 
L 124.614876 136.324814 
L 126.932353 134.789198 
L 129.444195 133.388903 
L 132.156924 132.153031 
L 135.085144 131.068601 
L 139.365638 129.785496 
L 145.436267 128.257972 
L 160.849936 124.496685 
L 182.412545 119.038631 
L 187.617502 117.920394 
L 193.132681 116.917675 
L 198.952814 116.107271 
L 205.067267 115.562459 
L 211.458251 115.336556 
L 218.102561 115.44691 
L 224.970175 115.867202 
L 232.024058 116.531834 
L 246.518616 118.243188 
L 264.852969 120.406743 
L 282.670327 122.482379 
L 289.477358 123.46404 
L 296.036858 124.659136 
L 302.31111 126.148878 
L 308.271404 127.974249 
L 313.893002 130.093378 
L 321.657574 133.473507 
L 326.37705 135.523157 
L 330.72708 137.195538 
L 334.713748 138.480879 
L 340.03491 140.111676 
L 341.639804 140.730183 
L 343.163525 141.444226 
L 344.608348 142.267651 
L 347.271324 144.183606 
L 352.719634 148.662569 
L 354.468494 149.831538 
L 356.691248 151.012041 
L 359.002075 151.943801 
L 362.568737 153.313925 
L 362.97335 153.70218 
L 362.961321 153.972932 
L 362.69748 154.208945 
L 362.064432 154.45535 
L 360.703433 154.715311 
L 358.295531 154.929505 
L 353.831062 155.081741 
L 347.272242 155.143288 
L 347.272242 155.143288 
" clip-path="url(#p00aec41966)" style="fill: none; stroke: #000000; stroke-width: 3; stroke-linecap: square"/>
   </g>
   <g id="line2d_14">
    <path d="M 68.709616 185.230723 
L 68.409418 179.606019 
L 68.224984 173.741574 
L 68.166172 167.610037 
L 68.243693 161.183604 
L 68.4697 154.434849 
L 68.857476 147.337881 
L 69.421732 139.870015 
L 70.178656 132.014049 
L 71.145584 123.76261 
L 72.341911 115.117082 
L 73.787783 106.099872 
L 75.504657 96.755238 
L 77.514529 87.158533 
L 79.840654 77.416573 
L 82.504701 67.681815 
L 85.527843 58.149639 
L 88.928743 49.058461 
L 92.722277 40.682003 
L 96.918267 33.314212 
L 101.520476 27.246343 
L 106.523679 22.738188 
L 111.913265 19.988012 
L 117.663369 19.106225 
L 123.739299 20.100076 
L 130.092083 22.872343 
L 136.663008 27.233375 
L 143.38348 32.924861 
L 150.179621 39.653044 
L 156.970614 47.113288 
L 163.673409 55.01757 
L 170.208597 63.111437 
L 176.498293 71.18264 
L 188.072148 86.6317 
L 193.245166 93.801299 
L 197.953514 100.518357 
L 202.169432 106.754614 
L 205.876577 112.500453 
L 209.070447 117.763041 
L 211.755629 122.559054 
L 213.942061 126.906437 
L 215.64962 130.833646 
L 216.902279 134.369086 
L 217.728256 137.541522 
L 218.158047 140.380763 
L 218.223455 142.914345 
L 217.956998 145.168933 
L 217.391124 147.169618 
L 216.557043 148.93972 
L 215.485913 150.500685 
L 214.205426 151.872923 
L 212.742833 153.073915 
L 211.123209 154.120276 
L 209.369303 155.027326 
L 207.501621 155.808459 
L 205.539717 156.476057 
L 201.398636 157.513835 
L 197.060311 158.21772 
L 192.619728 158.649465 
L 188.145592 158.860161 
L 183.692608 158.891091 
L 177.13727 158.672294 
L 170.812866 158.212217 
L 164.77585 157.576812 
L 157.228365 156.540482 
L 150.286703 155.364124 
L 142.476125 153.785281 
L 135.624293 152.158364 
L 129.721024 150.53627 
L 124.757669 148.955002 
L 120.730789 147.439643 
L 118.182862 146.286724 
L 116.232749 145.193677 
L 114.877034 144.1648 
L 114.246237 143.437127 
L 113.940339 142.747898 
L 113.951773 142.097236 
L 114.270387 141.484819 
L 114.883762 140.91005 
L 115.777398 140.371916 
L 117.37706 139.709149 
L 119.406725 139.105905 
L 122.492467 138.430539 
L 126.932353 137.728886 
L 132.156924 137.143549 
L 138.251933 136.681534 
L 145.436267 136.362296 
L 154.067981 136.21809 
L 164.604498 136.290806 
L 177.516145 136.623276 
L 193.132681 137.245051 
L 214.750386 138.332152 
L 246.518616 140.165788 
L 319.160411 144.431659 
L 336.573954 145.213226 
L 347.271324 145.500197 
L 354.468494 145.484571 
L 358.488154 145.289345 
L 361.018072 144.972044 
L 362.255084 144.63895 
L 362.872095 144.259215 
L 363.001212 143.929257 
L 362.858707 143.580768 
L 362.355014 143.124114 
L 361.348204 142.55173 
L 359.446714 141.758044 
L 356.358669 140.732357 
L 351.478001 139.369048 
L 347.272242 138.314668 
L 347.272242 138.314668 
" clip-path="url(#p00aec41966)" style="fill: none; stroke-dasharray: 3,4.95; stroke-dashoffset: 0; stroke: #1f77b4; stroke-width: 3"/>
   </g>
   <g id="line2d_15">
    <path d="M 68.709616 180.292742 
L 68.409418 175.060521 
L 68.224984 169.521008 
L 68.166172 163.656439 
L 68.243693 157.450635 
L 68.4697 150.890078 
L 68.857476 143.965377 
L 69.421732 136.673037 
L 70.178656 129.01768 
L 71.145584 121.015987 
L 72.341911 112.694867 
L 73.787783 104.10208 
L 75.504657 95.304806 
L 77.514529 86.395536 
L 79.840654 77.489076 
L 82.504701 68.731369 
L 85.527843 60.293149 
L 88.928743 52.366964 
L 92.722277 45.15921 
L 96.918267 38.878965 
L 101.520476 33.723587 
L 106.523679 29.862631 
L 111.913265 27.422394 
L 117.663369 26.473358 
L 123.739299 27.022435 
L 130.092083 29.013202 
L 136.663008 32.330775 
L 143.38348 36.813115 
L 150.179621 42.268529 
L 156.970614 48.488096 
L 163.673409 55.262681 
L 170.208597 62.39497 
L 176.498293 69.707617 
L 182.472653 77.047525 
L 188.072148 84.292061 
L 193.245166 91.341927 
L 197.953514 98.123525 
L 202.169432 104.584912 
L 205.876577 110.691387 
L 209.070447 116.425719 
L 211.755629 121.781958 
L 213.942061 126.756924 
L 215.64962 131.361188 
L 216.902279 135.607574 
L 217.728256 139.511487 
L 218.158047 143.091935 
L 218.223455 146.367219 
L 217.956998 149.356597 
L 217.391124 152.079179 
L 216.557043 154.553551 
L 215.485913 156.797336 
L 214.205426 158.828437 
L 212.742833 160.661935 
L 211.123209 162.312919 
L 209.369303 163.795888 
L 207.501621 165.123562 
L 205.539717 166.307986 
L 203.500105 167.360258 
L 201.398636 168.290496 
L 197.060311 169.822999 
L 192.619728 170.970833 
L 188.145592 171.791103 
L 183.692608 172.331169 
L 179.300614 172.631232 
L 175.000124 172.725174 
L 170.812866 172.641767 
L 164.77585 172.236644 
L 159.059299 171.554742 
L 153.680985 170.650212 
L 148.647491 169.566338 
L 143.961169 168.338382 
L 139.620967 166.995096 
L 135.624293 165.560222 
L 131.969101 164.053802 
L 128.653215 162.492768 
L 125.675328 160.891547 
L 123.034641 159.262592 
L 120.730789 157.616985 
L 118.763551 155.964129 
L 117.133173 154.312908 
L 115.838287 152.670797 
L 114.877034 151.044065 
L 114.246237 149.439206 
L 113.940339 147.861389 
L 113.951773 146.314922 
L 114.270387 144.803499 
L 114.883762 143.330313 
L 115.777398 141.897782 
L 116.93536 140.507656 
L 118.340572 139.161709 
L 119.976786 137.860949 
L 122.492467 136.198681 
L 125.365829 134.621551 
L 128.585012 133.133406 
L 132.156924 131.740569 
L 136.112799 130.452084 
L 140.510552 129.280923 
L 145.436267 128.244726 
L 151.002549 127.365852 
L 155.678473 126.825887 
L 160.849936 126.402152 
L 166.579721 126.107651 
L 172.923153 125.955328 
L 182.412545 125.993629 
L 193.132681 126.327015 
L 205.067267 126.965151 
L 218.102561 127.901413 
L 232.024058 129.110291 
L 250.187688 130.93429 
L 268.483867 132.989276 
L 289.477358 135.555636 
L 313.893002 138.757085 
L 345.976889 143.208828 
L 362.255084 145.623057 
L 363.001212 145.878377 
L 362.858707 145.953161 
L 361.901846 146.06551 
L 357.030045 146.297916 
L 348.989842 146.772339 
L 347.272242 146.913431 
L 347.272242 146.913431 
" clip-path="url(#p00aec41966)" style="fill: none; stroke-dasharray: 11.1,4.8; stroke-dashoffset: 0; stroke: #1f77b4; stroke-width: 3"/>
   </g>
   <g id="line2d_16">
    <path d="M 68.709616 180.292742 
L 68.409418 175.079834 
L 68.224984 169.559838 
L 68.166172 163.714608 
L 68.243693 157.527544 
L 68.4697 150.984658 
L 68.857476 144.076042 
L 69.421732 136.797627 
L 70.178656 129.153404 
L 71.145584 121.159369 
L 72.341911 112.841661 
L 73.787783 104.247208 
L 75.504657 95.442313 
L 77.514529 86.518511 
L 79.840654 77.589607 
L 82.504701 68.800527 
L 85.527843 60.320983 
L 88.928743 52.342525 
L 92.722277 45.0706 
L 96.918267 38.713546 
L 101.520476 33.468074 
L 106.523679 29.503352 
L 111.913265 26.945625 
L 117.663369 25.865623 
L 123.739299 26.270837 
L 130.092083 28.105893 
L 136.663008 31.257195 
L 143.38348 35.564409 
L 150.179621 40.837714 
L 156.970614 46.870281 
L 163.673409 53.455166 
L 170.208597 60.397123 
L 176.498293 67.520836 
L 182.472653 74.675144 
L 188.072148 81.738921 
L 193.245166 88.61428 
L 197.953514 95.228721 
L 202.169432 101.531155 
L 205.876577 107.48746 
L 209.070447 113.080775 
L 211.755629 118.305274 
L 213.942061 123.157952 
L 215.64962 127.649264 
L 216.902279 131.791857 
L 217.728256 135.600896 
L 218.158047 139.095103 
L 218.223455 142.292483 
L 217.956998 145.211949 
L 217.391124 147.872277 
L 216.557043 150.291709 
L 215.485913 152.487501 
L 214.205426 154.477217 
L 212.742833 156.275612 
L 211.123209 157.897438 
L 209.369303 159.356865 
L 207.501621 160.666307 
L 205.539717 161.837503 
L 203.500105 162.881268 
L 201.398636 163.807437 
L 197.060311 165.344053 
L 192.619728 166.510672 
L 188.145592 167.362577 
L 183.692608 167.945448 
L 179.300614 168.297988 
L 175.000124 168.452706 
L 170.812866 168.437143 
L 164.77585 168.1446 
L 159.059299 167.585263 
L 153.680985 166.810259 
L 148.647491 165.860155 
L 143.961169 164.767686 
L 139.620967 163.55921 
L 135.624293 162.256198 
L 131.969101 160.876467 
L 128.653215 159.434753 
L 125.675328 157.943347 
L 123.034641 156.412598 
L 120.730789 154.85156 
L 118.763551 153.267693 
L 117.133173 151.668038 
L 115.838287 150.058456 
L 114.877034 148.443786 
L 114.246237 146.829374 
L 113.940339 145.219597 
L 113.951773 143.618309 
L 114.270387 142.029164 
L 114.883762 140.455724 
L 115.777398 138.901121 
L 116.93536 137.368154 
L 118.340572 135.859921 
L 119.976786 134.378888 
L 122.492467 132.450834 
L 125.365829 130.581881 
L 128.585012 128.778408 
L 132.156924 127.048371 
L 136.112799 125.401166 
L 140.510552 123.849054 
L 145.436267 122.408172 
L 149.543897 121.412923 
L 154.067981 120.5027 
L 159.066979 119.690727 
L 164.604498 118.99159 
L 170.737451 118.422252 
L 177.516145 118.000926 
L 184.97651 117.74677 
L 193.132681 117.678896 
L 201.973684 117.814857 
L 211.458251 118.169289 
L 221.510697 118.751843 
L 232.024058 119.565543 
L 242.861367 120.605396 
L 253.862384 121.857216 
L 264.852969 123.297837 
L 275.656216 124.895962 
L 289.477358 127.205944 
L 302.31111 129.629284 
L 313.893002 132.067773 
L 324.062792 134.435613 
L 332.765333 136.667791 
L 340.03491 138.723479 
L 347.271324 141.021646 
L 352.719634 143.026211 
L 356.000607 144.440993 
L 358.488154 145.712749 
L 360.315708 146.865197 
L 361.596517 147.920389 
L 362.423854 148.897641 
L 362.872095 149.812679 
L 363.001212 150.678655 
L 362.858707 151.505852 
L 362.481854 152.302372 
L 361.727945 153.264975 
L 360.703433 154.200093 
L 359.170335 155.296882 
L 357.030045 156.555792 
L 353.831062 158.166469 
L 348.136275 160.726234 
L 347.272242 161.103513 
L 347.272242 161.103513 
" clip-path="url(#p00aec41966)" style="fill: none; stroke-dasharray: 19.2,4.8,3,4.8; stroke-dashoffset: 0; stroke: #1f77b4; stroke-width: 3"/>
   </g>
   <g id="patch_3">
    <path d="M 53.42442 193.536948 
L 53.42442 10.8 
" style="fill: none; stroke: #000000; stroke-width: 0.8; stroke-linejoin: miter; stroke-linecap: square"/>
   </g>
   <g id="patch_4">
    <path d="M 377.742964 193.536948 
L 377.742964 10.8 
" style="fill: none; stroke: #000000; stroke-width: 0.8; stroke-linejoin: miter; stroke-linecap: square"/>
   </g>
   <g id="patch_5">
    <path d="M 53.42442 193.536948 
L 377.742964 193.536948 
" style="fill: none; stroke: #000000; stroke-width: 0.8; stroke-linejoin: miter; stroke-linecap: square"/>
   </g>
   <g id="patch_6">
    <path d="M 53.42442 10.8 
L 377.742964 10.8 
" style="fill: none; stroke: #000000; stroke-width: 0.8; stroke-linejoin: miter; stroke-linecap: square"/>
   </g>
   <g id="legend_1">
    <g id="line2d_17">
     <path d="M 227.525739 31.866486 
L 241.525739 31.866486 
L 255.525739 31.866486 
" style="fill: none; stroke: #000000; stroke-width: 3; stroke-linecap: square"/>
    </g>
    <g id="text_15">
     <!-- $\hat{\phi}$ -->
     <g transform="translate(266.725739 36.766486) scale(0.14 -0.14)">
      <defs>
       <path id="CMR17-5e" d="M 1466 4421 
L 678 3555 
L 755 3478 
L 1466 4166 
L 2176 3478 
L 2253 3555 
L 1466 4421 
z
" transform="scale(0.015625)"/>
      </defs>
      <use xlink:href="#CMR17-5e" transform="translate(14.151005 26.296621) scale(0.996264)"/>
      <use xlink:href="#CMMI12-1e" transform="scale(0.996264)"/>
     </g>
    </g>
    <g id="line2d_18">
     <path d="M 227.525739 51.378515 
L 241.525739 51.378515 
L 255.525739 51.378515 
" style="fill: none; stroke-dasharray: 3,4.95; stroke-dashoffset: 0; stroke: #1f77b4; stroke-width: 3"/>
    </g>
    <g id="text_16">
     <!-- $\phi^s_9$ -->
     <g transform="translate(266.725739 56.278515) scale(0.14 -0.14)">
      <defs>
       <path id="CMMI12-73" d="M 1459 1280 
C 1568 1261 1741 1223 1779 1216 
C 1862 1192 2150 1090 2150 783 
C 2150 586 1971 70 1229 70 
C 1094 70 614 70 486 436 
C 742 404 870 603 870 745 
C 870 880 781 950 653 950 
C 512 950 326 841 326 552 
C 326 173 710 -64 1222 -64 
C 2195 -64 2483 651 2483 984 
C 2483 1079 2483 1258 2278 1462 
C 2118 1616 1965 1648 1619 1718 
C 1446 1756 1171 1814 1171 2101 
C 1171 2229 1286 2689 1894 2689 
C 2163 2689 2426 2589 2490 2368 
C 2208 2368 2195 2125 2195 2119 
C 2195 1984 2317 1946 2374 1946 
C 2464 1946 2643 2015 2643 2281 
C 2643 2545 2400 2816 1901 2816 
C 1062 2816 838 2160 838 1899 
C 838 1414 1312 1312 1459 1280 
z
" transform="scale(0.015625)"/>
       <path id="CMR17-39" d="M 2253 1864 
C 2253 464 1670 31 1190 31 
C 1043 31 685 31 538 294 
C 704 268 826 357 826 518 
C 826 692 685 749 595 749 
C 538 749 365 723 365 506 
C 365 71 742 -128 1203 -128 
C 1939 -128 2688 674 2688 2073 
C 2688 3817 1971 4179 1485 4179 
C 851 4179 243 3628 243 2778 
C 243 1991 762 1408 1414 1408 
C 1952 1408 2189 1903 2253 2112 
L 2253 1864 
z
M 1427 1510 
C 1254 1510 1011 1542 813 1922 
C 678 2169 678 2461 678 2771 
C 678 3146 678 3405 858 3684 
C 947 3817 1114 4032 1485 4032 
C 2240 4032 2240 2885 2240 2632 
C 2240 2182 2035 1510 1427 1510 
z
" transform="scale(0.015625)"/>
      </defs>
      <use xlink:href="#CMMI12-1e" transform="scale(0.996264)"/>
      <use xlink:href="#CMMI12-73" transform="translate(57.73418 36.153639) scale(0.697382)"/>
      <use xlink:href="#CMR17-39" transform="translate(57.73418 -24.740171) scale(0.697382)"/>
     </g>
    </g>
    <g id="line2d_19">
     <path d="M 307.825738 31.866486 
L 321.825738 31.866486 
L 335.825738 31.866486 
" style="fill: none; stroke-dasharray: 11.1,4.8; stroke-dashoffset: 0; stroke: #1f77b4; stroke-width: 3"/>
    </g>
    <g id="text_17">
     <!-- $\phi^s_{10}$ -->
     <g transform="translate(347.025738 36.766486) scale(0.14 -0.14)">
      <use xlink:href="#CMMI12-1e" transform="scale(0.996264)"/>
      <use xlink:href="#CMMI12-73" transform="translate(57.73418 36.153639) scale(0.697382)"/>
      <use xlink:href="#CMR17-31" transform="translate(57.73418 -24.740171) scale(0.697382)"/>
      <use xlink:href="#CMR17-30" transform="translate(89.717362 -24.740171) scale(0.697382)"/>
     </g>
    </g>
    <g id="line2d_20">
     <path d="M 307.825738 52.128464 
L 321.825738 52.128464 
L 335.825738 52.128464 
" style="fill: none; stroke-dasharray: 19.2,4.8,3,4.8; stroke-dashoffset: 0; stroke: #1f77b4; stroke-width: 3"/>
    </g>
    <g id="text_18">
     <!-- $\phi^s_{13}$ -->
     <g transform="translate(347.025738 57.028464) scale(0.14 -0.14)">
      <use xlink:href="#CMMI12-1e" transform="scale(0.996264)"/>
      <use xlink:href="#CMMI12-73" transform="translate(57.73418 36.153639) scale(0.697382)"/>
      <use xlink:href="#CMR17-31" transform="translate(57.73418 -24.740171) scale(0.697382)"/>
      <use xlink:href="#CMR17-33" transform="translate(89.717362 -24.740171) scale(0.697382)"/>
     </g>
    </g>
   </g>
  </g>
 </g>
 <defs>
  <clipPath id="p00aec41966">
   <rect x="53.42442" y="10.8" width="324.318544" height="182.736948"/>
  </clipPath>
 </defs>
</svg>
