<?xml version="1.0" encoding="utf-8" standalone="no"?>
<!DOCTYPE svg PUBLIC "-//W3C//DTD SVG 1.1//EN"
  "http://www.w3.org/Graphics/SVG/1.1/DTD/svg11.dtd">
<svg xmlns:xlink="http://www.w3.org/1999/xlink" width="388.542964pt" height="240.132758pt" viewBox="0 0 388.542964 240.132758" xmlns="http://www.w3.org/2000/svg" version="1.1">
 <metadata>
  <rdf:RDF xmlns:dc="http://purl.org/dc/elements/1.1/" xmlns:cc="http://creativecommons.org/ns#" xmlns:rdf="http://www.w3.org/1999/02/22-rdf-syntax-ns#">
   <cc:Work>
    <dc:type rdf:resource="http://purl.org/dc/dcmitype/StillImage"/>
    <dc:date>2024-12-29T13:19:48.374062</dc:date>
    <dc:format>image/svg+xml</dc:format>
    <dc:creator>
     <cc:Agent>
      <dc:title>Matplotlib v3.7.5, https://matplotlib.org/</dc:title>
     </cc:Agent>
    </dc:creator>
   </cc:Work>
  </rdf:RDF>
 </metadata>
 <defs>
  <style type="text/css">*{stroke-linejoin: round; stroke-linecap: butt}</style>
 </defs>
 <g id="figure_1">
  <g id="patch_1">
   <path d="M 0 240.132758 
L 388.542964 240.132758 
L 388.542964 0 
L 0 0 
z
" style="fill: #ffffff"/>
  </g>
  <g id="axes_1">
   <g id="patch_2">
    <path d="M 53.42442 193.536948 
L 377.742964 193.536948 
L 377.742964 10.8 
L 53.42442 10.8 
z
" style="fill: #ffffff"/>
   </g>
   <g id="matplotlib.axis_1">
    <g id="xtick_1">
     <g id="line2d_1">
      <defs>
       <path id="ma079fc2c83" d="M 0 0 
L 0 3.5 
" style="stroke: #000000; stroke-width: 0.8"/>
      </defs>
      <g>
       <use xlink:href="#ma079fc2c83" x="73.360463" y="193.536948" style="stroke: #000000; stroke-width: 0.8"/>
      </g>
     </g>
     <g id="text_1">
      <!-- $\mathdefault{0.1}$ -->
      <g transform="translate(64.635172 210.222825) scale(0.14 -0.14)">
       <defs>
        <path id="CMR17-30" d="M 2688 2025 
C 2688 2416 2682 3080 2413 3591 
C 2176 4039 1798 4198 1466 4198 
C 1158 4198 768 4058 525 3597 
C 269 3118 243 2524 243 2025 
C 243 1661 250 1106 448 619 
C 723 -39 1216 -128 1466 -128 
C 1760 -128 2208 -7 2470 600 
C 2662 1042 2688 1559 2688 2025 
z
M 1466 -26 
C 1056 -26 813 325 723 812 
C 653 1188 653 1738 653 2096 
C 653 2588 653 2997 736 3387 
C 858 3929 1216 4096 1466 4096 
C 1728 4096 2067 3923 2189 3400 
C 2272 3036 2278 2607 2278 2096 
C 2278 1680 2278 1169 2202 792 
C 2067 95 1690 -26 1466 -26 
z
" transform="scale(0.015625)"/>
        <path id="CMMI12-3a" d="M 1178 307 
C 1178 492 1024 619 870 619 
C 685 619 557 466 557 313 
C 557 128 710 0 864 0 
C 1050 0 1178 153 1178 307 
z
" transform="scale(0.015625)"/>
        <path id="CMR17-31" d="M 1702 4058 
C 1702 4192 1696 4192 1606 4192 
C 1357 3916 979 3827 621 3827 
C 602 3827 570 3827 563 3808 
C 557 3795 557 3782 557 3648 
C 755 3648 1088 3686 1344 3839 
L 1344 461 
C 1344 236 1331 160 781 160 
L 589 160 
L 589 0 
C 896 0 1216 0 1523 0 
C 1830 0 2150 0 2458 0 
L 2458 160 
L 2266 160 
C 1715 160 1702 230 1702 458 
L 1702 4058 
z
" transform="scale(0.015625)"/>
       </defs>
       <use xlink:href="#CMR17-30" transform="scale(0.996264)"/>
       <use xlink:href="#CMMI12-3a" transform="translate(45.690477 0) scale(0.996264)"/>
       <use xlink:href="#CMR17-31" transform="translate(72.787654 0) scale(0.996264)"/>
      </g>
     </g>
    </g>
    <g id="xtick_2">
     <g id="line2d_2">
      <g>
       <use xlink:href="#ma079fc2c83" x="128.001925" y="193.536948" style="stroke: #000000; stroke-width: 0.8"/>
      </g>
     </g>
     <g id="text_2">
      <!-- $\mathdefault{0.2}$ -->
      <g transform="translate(119.276634 210.222825) scale(0.14 -0.14)">
       <defs>
        <path id="CMR17-32" d="M 2669 989 
L 2554 989 
C 2490 536 2438 459 2413 420 
C 2381 369 1920 369 1830 369 
L 602 369 
C 832 619 1280 1072 1824 1597 
C 2214 1967 2669 2402 2669 3035 
C 2669 3790 2067 4224 1395 4224 
C 691 4224 262 3604 262 3030 
C 262 2780 448 2748 525 2748 
C 589 2748 781 2787 781 3010 
C 781 3207 614 3264 525 3264 
C 486 3264 448 3258 422 3245 
C 544 3790 915 4058 1306 4058 
C 1862 4058 2227 3617 2227 3035 
C 2227 2479 1901 2000 1536 1584 
L 262 146 
L 262 0 
L 2515 0 
L 2669 989 
z
" transform="scale(0.015625)"/>
       </defs>
       <use xlink:href="#CMR17-30" transform="scale(0.996264)"/>
       <use xlink:href="#CMMI12-3a" transform="translate(45.690477 0) scale(0.996264)"/>
       <use xlink:href="#CMR17-32" transform="translate(72.787654 0) scale(0.996264)"/>
      </g>
     </g>
    </g>
    <g id="xtick_3">
     <g id="line2d_3">
      <g>
       <use xlink:href="#ma079fc2c83" x="182.643386" y="193.536948" style="stroke: #000000; stroke-width: 0.8"/>
      </g>
     </g>
     <g id="text_3">
      <!-- $\mathdefault{0.3}$ -->
      <g transform="translate(173.918095 210.222825) scale(0.14 -0.14)">
       <defs>
        <path id="CMR17-33" d="M 1414 2157 
C 1984 2157 2234 1662 2234 1090 
C 2234 320 1824 25 1453 25 
C 1114 25 563 194 390 693 
C 422 680 454 680 486 680 
C 640 680 755 782 755 948 
C 755 1133 614 1216 486 1216 
C 378 1216 211 1165 211 926 
C 211 335 787 -128 1466 -128 
C 2176 -128 2720 430 2720 1085 
C 2720 1707 2208 2157 1600 2227 
C 2086 2328 2554 2756 2554 3329 
C 2554 3820 2048 4179 1472 4179 
C 890 4179 378 3829 378 3329 
C 378 3110 544 3072 627 3072 
C 762 3072 877 3155 877 3321 
C 877 3486 762 3569 627 3569 
C 602 3569 570 3569 544 3557 
C 730 3959 1235 4032 1459 4032 
C 1683 4032 2106 3925 2106 3320 
C 2106 3143 2080 2828 1862 2550 
C 1670 2304 1453 2304 1242 2284 
C 1210 2284 1062 2269 1037 2269 
C 992 2263 966 2257 966 2208 
C 966 2163 973 2157 1101 2157 
L 1414 2157 
z
" transform="scale(0.015625)"/>
       </defs>
       <use xlink:href="#CMR17-30" transform="scale(0.996264)"/>
       <use xlink:href="#CMMI12-3a" transform="translate(45.690477 0) scale(0.996264)"/>
       <use xlink:href="#CMR17-33" transform="translate(72.787654 0) scale(0.996264)"/>
      </g>
     </g>
    </g>
    <g id="xtick_4">
     <g id="line2d_4">
      <g>
       <use xlink:href="#ma079fc2c83" x="237.284848" y="193.536948" style="stroke: #000000; stroke-width: 0.8"/>
      </g>
     </g>
     <g id="text_4">
      <!-- $\mathdefault{0.4}$ -->
      <g transform="translate(228.559557 210.222825) scale(0.14 -0.14)">
       <defs>
        <path id="CMR17-34" d="M 2150 4122 
C 2150 4256 2144 4256 2029 4256 
L 128 1254 
L 128 1088 
L 1779 1088 
L 1779 457 
C 1779 224 1766 160 1318 160 
L 1197 160 
L 1197 0 
C 1402 0 1747 0 1965 0 
C 2182 0 2528 0 2733 0 
L 2733 160 
L 2611 160 
C 2163 160 2150 224 2150 457 
L 2150 1088 
L 2803 1088 
L 2803 1254 
L 2150 1254 
L 2150 4122 
z
M 1798 3703 
L 1798 1254 
L 256 1254 
L 1798 3703 
z
" transform="scale(0.015625)"/>
       </defs>
       <use xlink:href="#CMR17-30" transform="scale(0.996264)"/>
       <use xlink:href="#CMMI12-3a" transform="translate(45.690477 0) scale(0.996264)"/>
       <use xlink:href="#CMR17-34" transform="translate(72.787654 0) scale(0.996264)"/>
      </g>
     </g>
    </g>
    <g id="xtick_5">
     <g id="line2d_5">
      <g>
       <use xlink:href="#ma079fc2c83" x="291.92631" y="193.536948" style="stroke: #000000; stroke-width: 0.8"/>
      </g>
     </g>
     <g id="text_5">
      <!-- $\mathdefault{0.5}$ -->
      <g transform="translate(283.201019 210.222825) scale(0.14 -0.14)">
       <defs>
        <path id="CMR17-35" d="M 730 3692 
C 794 3666 1056 3584 1325 3584 
C 1920 3584 2246 3911 2432 4100 
C 2432 4157 2432 4192 2394 4192 
C 2387 4192 2374 4192 2323 4163 
C 2099 4058 1837 3973 1517 3973 
C 1325 3973 1037 3999 723 4139 
C 653 4171 640 4171 634 4171 
C 602 4171 595 4164 595 4037 
L 595 2203 
C 595 2089 595 2057 659 2057 
C 691 2057 704 2070 736 2114 
C 941 2401 1222 2522 1542 2522 
C 1766 2522 2246 2382 2246 1289 
C 2246 1085 2246 715 2054 421 
C 1894 159 1645 25 1370 25 
C 947 25 518 320 403 814 
C 429 807 480 795 506 795 
C 589 795 749 840 749 1038 
C 749 1210 627 1280 506 1280 
C 358 1280 262 1190 262 1011 
C 262 454 704 -128 1382 -128 
C 2042 -128 2669 440 2669 1264 
C 2669 2030 2170 2624 1549 2624 
C 1222 2624 947 2503 730 2274 
L 730 3692 
z
" transform="scale(0.015625)"/>
       </defs>
       <use xlink:href="#CMR17-30" transform="scale(0.996264)"/>
       <use xlink:href="#CMMI12-3a" transform="translate(45.690477 0) scale(0.996264)"/>
       <use xlink:href="#CMR17-35" transform="translate(72.787654 0) scale(0.996264)"/>
      </g>
     </g>
    </g>
    <g id="xtick_6">
     <g id="line2d_6">
      <g>
       <use xlink:href="#ma079fc2c83" x="346.567772" y="193.536948" style="stroke: #000000; stroke-width: 0.8"/>
      </g>
     </g>
     <g id="text_6">
      <!-- $\mathdefault{0.6}$ -->
      <g transform="translate(337.842481 210.222825) scale(0.14 -0.14)">
       <defs>
        <path id="CMR17-36" d="M 678 2176 
C 678 3690 1395 4032 1811 4032 
C 1946 4032 2272 4009 2400 3776 
C 2298 3776 2106 3776 2106 3553 
C 2106 3381 2246 3323 2336 3323 
C 2394 3323 2566 3348 2566 3560 
C 2566 3954 2246 4179 1805 4179 
C 1043 4179 243 3390 243 1984 
C 243 253 966 -128 1478 -128 
C 2099 -128 2688 427 2688 1283 
C 2688 2081 2170 2662 1517 2662 
C 1126 2662 838 2407 678 1960 
L 678 2176 
z
M 1478 25 
C 691 25 691 1200 691 1436 
C 691 1896 909 2560 1504 2560 
C 1613 2560 1926 2560 2138 2120 
C 2253 1870 2253 1609 2253 1289 
C 2253 944 2253 690 2118 434 
C 1978 171 1773 25 1478 25 
z
" transform="scale(0.015625)"/>
       </defs>
       <use xlink:href="#CMR17-30" transform="scale(0.996264)"/>
       <use xlink:href="#CMMI12-3a" transform="translate(45.690477 0) scale(0.996264)"/>
       <use xlink:href="#CMR17-36" transform="translate(72.787654 0) scale(0.996264)"/>
      </g>
     </g>
    </g>
    <g id="text_7">
     <!-- P -->
     <g transform="translate(210.937731 226.620729) scale(0.14 -0.14)">
      <defs>
       <path id="CMR17-50" d="M 1267 2042 
L 2291 2042 
C 3117 2042 3718 2578 3718 3184 
C 3718 3791 3130 4352 2291 4352 
L 333 4352 
L 333 4186 
C 774 4186 845 4186 845 3899 
L 845 446 
C 845 160 774 160 333 160 
L 333 0 
C 518 0 858 0 1056 0 
C 1254 0 1594 0 1779 0 
L 1779 160 
C 1338 160 1267 160 1267 446 
L 1267 2042 
z
M 1254 2176 
L 1254 3938 
C 1254 4155 1267 4186 1523 4186 
L 2170 4186 
C 2995 4186 3232 3714 3232 3184 
C 3232 2604 2950 2176 2170 2176 
L 1254 2176 
z
" transform="scale(0.015625)"/>
      </defs>
      <use xlink:href="#CMR17-50" transform="scale(0.996264)"/>
     </g>
    </g>
   </g>
   <g id="matplotlib.axis_2">
    <g id="ytick_1">
     <g id="line2d_7">
      <defs>
       <path id="mfcf3a5aef3" d="M 0 0 
L -3.5 0 
" style="stroke: #000000; stroke-width: 0.8"/>
      </defs>
      <g>
       <use xlink:href="#mfcf3a5aef3" x="53.42442" y="183.828888" style="stroke: #000000; stroke-width: 0.8"/>
      </g>
     </g>
     <g id="text_8">
      <!-- $\mathdefault{−5}$ -->
      <g transform="translate(28.747696 188.671826) scale(0.14 -0.14)">
       <defs>
        <path id="CMSY10-0" d="M 4218 1472 
C 4326 1472 4442 1472 4442 1600 
C 4442 1728 4326 1728 4218 1728 
L 755 1728 
C 646 1728 531 1728 531 1600 
C 531 1472 646 1472 755 1472 
L 4218 1472 
z
" transform="scale(0.015625)"/>
       </defs>
       <use xlink:href="#CMSY10-0" transform="scale(0.996264)"/>
       <use xlink:href="#CMR17-35" transform="translate(77.487468 0) scale(0.996264)"/>
      </g>
     </g>
    </g>
    <g id="ytick_2">
     <g id="line2d_8">
      <g>
       <use xlink:href="#mfcf3a5aef3" x="53.42442" y="151.93924" style="stroke: #000000; stroke-width: 0.8"/>
      </g>
     </g>
     <g id="text_9">
      <!-- $\mathdefault{0}$ -->
      <g transform="translate(39.595931 156.782178) scale(0.14 -0.14)">
       <use xlink:href="#CMR17-30" transform="scale(0.996264)"/>
      </g>
     </g>
    </g>
    <g id="ytick_3">
     <g id="line2d_9">
      <g>
       <use xlink:href="#mfcf3a5aef3" x="53.42442" y="120.049592" style="stroke: #000000; stroke-width: 0.8"/>
      </g>
     </g>
     <g id="text_10">
      <!-- $\mathdefault{5}$ -->
      <g transform="translate(39.595931 124.89253) scale(0.14 -0.14)">
       <use xlink:href="#CMR17-35" transform="scale(0.996264)"/>
      </g>
     </g>
    </g>
    <g id="ytick_4">
     <g id="line2d_10">
      <g>
       <use xlink:href="#mfcf3a5aef3" x="53.42442" y="88.159944" style="stroke: #000000; stroke-width: 0.8"/>
      </g>
     </g>
     <g id="text_11">
      <!-- $\mathdefault{10}$ -->
      <g transform="translate(32.767443 93.002883) scale(0.14 -0.14)">
       <use xlink:href="#CMR17-31" transform="scale(0.996264)"/>
       <use xlink:href="#CMR17-30" transform="translate(45.690477 0) scale(0.996264)"/>
      </g>
     </g>
    </g>
    <g id="ytick_5">
     <g id="line2d_11">
      <g>
       <use xlink:href="#mfcf3a5aef3" x="53.42442" y="56.270297" style="stroke: #000000; stroke-width: 0.8"/>
      </g>
     </g>
     <g id="text_12">
      <!-- $\mathdefault{15}$ -->
      <g transform="translate(32.767443 61.113235) scale(0.14 -0.14)">
       <use xlink:href="#CMR17-31" transform="scale(0.996264)"/>
       <use xlink:href="#CMR17-35" transform="translate(45.690477 0) scale(0.996264)"/>
      </g>
     </g>
    </g>
    <g id="ytick_6">
     <g id="line2d_12">
      <g>
       <use xlink:href="#mfcf3a5aef3" x="53.42442" y="24.380649" style="stroke: #000000; stroke-width: 0.8"/>
      </g>
     </g>
     <g id="text_13">
      <!-- $\mathdefault{20}$ -->
      <g transform="translate(32.767443 29.223587) scale(0.14 -0.14)">
       <use xlink:href="#CMR17-32" transform="scale(0.996264)"/>
       <use xlink:href="#CMR17-30" transform="translate(45.690477 0) scale(0.996264)"/>
      </g>
     </g>
    </g>
    <g id="text_14">
     <!-- $\phi(P, t)$ -->
     <g transform="translate(21.260772 121.636933) rotate(-90) scale(0.14 -0.14)">
      <defs>
       <path id="CMMI12-1e" d="M 2752 4390 
C 2752 4448 2707 4448 2688 4448 
C 2630 4448 2624 4435 2598 4326 
L 2253 2939 
C 2234 2856 2227 2849 2221 2843 
C 2214 2830 2170 2824 2157 2824 
C 1107 2734 301 1864 301 1057 
C 301 361 832 -64 1498 -64 
C 1446 -261 1402 -463 1350 -659 
C 1261 -995 1210 -1204 1210 -1229 
C 1210 -1241 1210 -1280 1274 -1280 
C 1293 -1280 1318 -1280 1331 -1254 
C 1344 -1241 1382 -1089 1408 -1008 
L 1645 -64 
C 2739 -64 3571 854 3571 1680 
C 3571 2343 3085 2816 2374 2816 
L 2752 4390 
z
M 2336 2701 
C 2758 2701 3181 2463 3181 1828 
C 3181 1097 2675 128 1677 50 
L 2336 2701 
z
M 1530 50 
C 1216 50 691 220 691 938 
C 691 1761 1274 2676 2195 2676 
L 1530 50 
z
" transform="scale(0.015625)"/>
       <path id="CMR17-28" d="M 1958 -1561 
C 1958 -1555 1958 -1542 1939 -1523 
C 1645 -1224 858 -407 858 1581 
C 858 3569 1632 4379 1946 4697 
C 1946 4704 1958 4717 1958 4736 
C 1958 4755 1939 4768 1914 4768 
C 1843 4768 1299 4296 986 3594 
C 666 2887 576 2199 576 1588 
C 576 1128 621 351 1005 -471 
C 1312 -1135 1837 -1600 1914 -1600 
C 1946 -1600 1958 -1587 1958 -1561 
z
" transform="scale(0.015625)"/>
       <path id="CMMI12-50" d="M 1894 2023 
L 2970 2023 
C 3853 2023 4736 2673 4736 3401 
C 4736 3898 4314 4352 3507 4352 
L 1530 4352 
C 1408 4352 1350 4352 1350 4231 
C 1350 4167 1408 4167 1504 4167 
C 1894 4167 1894 4116 1894 4046 
C 1894 4034 1894 3995 1869 3899 
L 1005 472 
C 947 249 934 185 486 185 
C 365 185 301 185 301 70 
C 301 0 358 0 397 0 
C 518 0 646 0 768 0 
L 1517 0 
C 1638 0 1773 0 1894 0 
C 1946 0 2016 0 2016 121 
C 2016 185 1958 185 1862 185 
C 1478 185 1472 230 1472 293 
C 1472 325 1478 369 1485 401 
L 1894 2023 
z
M 2355 3930 
C 2413 4167 2438 4167 2688 4167 
L 3322 4167 
C 3802 4167 4198 4013 4198 3535 
C 4198 3369 4115 2827 3821 2534 
C 3712 2419 3405 2176 2822 2176 
L 1920 2176 
L 2355 3930 
z
" transform="scale(0.015625)"/>
       <path id="CMMI12-3b" d="M 1248 -31 
C 1248 343 1126 619 864 619 
C 659 619 557 453 557 313 
C 557 172 653 0 870 0 
C 954 0 1024 26 1082 83 
C 1094 96 1101 96 1107 96 
C 1120 96 1120 5 1120 -27 
C 1120 -240 1082 -659 710 -1080 
C 640 -1157 640 -1170 640 -1183 
C 640 -1216 672 -1248 704 -1248 
C 755 -1248 1248 -771 1248 -31 
z
" transform="scale(0.015625)"/>
       <path id="CMMI12-74" d="M 1286 2566 
L 1875 2566 
C 1997 2566 2061 2566 2061 2681 
C 2061 2752 2022 2752 1894 2752 
L 1331 2752 
L 1568 3692 
C 1594 3781 1594 3794 1594 3840 
C 1594 3943 1510 4000 1427 4000 
C 1376 4000 1229 3981 1178 3775 
L 928 2752 
L 326 2752 
C 198 2752 141 2752 141 2630 
C 141 2566 186 2566 307 2566 
L 877 2566 
L 454 881 
C 403 658 384 594 384 511 
C 384 211 595 -64 954 -64 
C 1600 -64 1946 868 1946 912 
C 1946 951 1920 970 1882 970 
C 1869 970 1843 970 1830 944 
C 1824 938 1818 931 1773 829 
C 1638 511 1344 64 973 64 
C 781 64 768 224 768 364 
C 768 370 768 492 787 568 
L 1286 2566 
z
" transform="scale(0.015625)"/>
       <path id="CMR17-29" d="M 1683 1581 
C 1683 2040 1638 2817 1254 3639 
C 947 4303 422 4768 346 4768 
C 326 4768 301 4761 301 4729 
C 301 4717 307 4710 314 4697 
C 621 4378 1402 3568 1402 1584 
C 1402 -407 627 -1217 314 -1537 
C 307 -1549 301 -1556 301 -1568 
C 301 -1600 326 -1600 346 -1600 
C 416 -1600 960 -1128 1274 -426 
C 1594 281 1683 969 1683 1581 
z
" transform="scale(0.015625)"/>
      </defs>
      <use xlink:href="#CMMI12-1e" transform="scale(0.996264)"/>
      <use xlink:href="#CMR17-28" transform="translate(57.73418 0) scale(0.996264)"/>
      <use xlink:href="#CMMI12-50" transform="translate(93.014948 0) scale(0.996264)"/>
      <use xlink:href="#CMMI12-3b" transform="translate(158.601898 0) scale(0.996264)"/>
      <use xlink:href="#CMMI12-74" transform="translate(202.30348 0) scale(0.996264)"/>
      <use xlink:href="#CMR17-29" transform="translate(237.529811 0) scale(0.996264)"/>
     </g>
    </g>
   </g>
   <g id="line2d_13">
    <path d="M 68.782151 165.419906 
L 68.494405 162.912506 
L 68.317621 158.719636 
L 68.261249 152.565243 
L 68.335554 145.32884 
L 68.552186 138.466842 
L 68.923878 132.246891 
L 69.464729 125.958938 
L 70.190257 119.059336 
L 71.117077 111.469107 
L 72.263781 103.181474 
L 73.649679 94.403841 
L 75.295338 85.711289 
L 77.221843 77.327739 
L 79.451482 68.975221 
L 82.005026 60.734305 
L 84.90277 53.15552 
L 88.162603 46.554443 
L 91.798784 40.605619 
L 95.820728 35.207429 
L 100.23204 30.936272 
L 105.027713 28.124955 
L 110.193744 26.539329 
L 115.705337 25.891668 
L 121.529242 26.270946 
L 127.618518 28.30867 
L 133.916885 31.975072 
L 140.358597 35.373809 
L 146.872839 41.406364 
L 153.382146 46.587653 
L 159.806914 54.128277 
L 166.071027 60.849117 
L 172.099831 69.224663 
L 177.826379 74.784112 
L 183.193611 82.496364 
L 188.152056 90.196476 
L 192.665105 97.77843 
L 196.70615 104.831532 
L 200.259525 111.481986 
L 203.320916 117.74837 
L 205.894718 123.679366 
L 207.990458 129.371343 
L 209.627189 134.750894 
L 210.827889 139.642565 
L 211.619605 144.032622 
L 212.031568 148.055627 
L 212.094263 151.834013 
L 211.838858 155.394373 
L 211.296457 158.679609 
L 210.496973 161.622868 
L 209.470273 164.211811 
L 208.242899 166.492445 
L 206.840973 168.525532 
L 205.28853 170.356137 
L 203.607375 172.005153 
L 201.817163 173.476505 
L 199.936638 174.769402 
L 197.981627 175.88538 
L 195.967325 176.831047 
L 193.90645 177.618415 
L 191.808951 178.262949 
L 187.552561 179.188674 
L 183.264009 179.73872 
L 178.995731 180.018888 
L 174.785914 180.103966 
L 168.642533 179.962373 
L 162.759655 179.556313 
L 157.175351 178.892311 
L 153.629206 178.292535 
L 150.228969 177.554613 
L 146.975479 176.673976 
L 143.870259 175.662187 
L 138.102267 173.449529 
L 134.161836 172.023936 
L 130.549274 171.071522 
L 128.322135 170.490509 
L 126.239333 169.659051 
L 124.300395 168.468563 
L 122.505371 167.010273 
L 120.081801 164.679561 
L 116.759884 161.125617 
L 115.197133 159.190553 
L 113.955959 157.283017 
L 113.034578 155.325495 
L 112.429945 153.288033 
L 112.136736 151.196497 
L 112.147695 149.134661 
L 112.453094 147.217782 
L 112.81451 146.065793 
L 113.29749 145.022065 
L 114.240277 143.618444 
L 115.430904 142.302507 
L 117.922796 139.988531 
L 120.991196 137.388801 
L 123.828741 135.288888 
L 126.173959 133.837885 
L 128.708858 132.546808 
L 131.444698 131.415398 
L 134.401013 130.410249 
L 138.73394 129.177264 
L 150.599912 126.191741 
L 162.592674 123.013579 
L 175.385278 119.619352 
L 182.757824 117.920394 
L 188.044236 116.917675 
L 193.622955 116.107271 
L 199.483784 115.562459 
L 205.609675 115.336556 
L 211.978383 115.44691 
L 218.561134 115.867202 
L 225.322427 116.531834 
L 239.215761 118.243188 
L 256.789619 120.406743 
L 273.867925 122.482379 
L 280.392606 123.46404 
L 286.680022 124.659136 
L 292.694023 126.148878 
L 298.407088 127.974249 
L 303.795506 130.093378 
L 311.238009 133.473507 
L 315.761725 135.523157 
L 319.931319 137.195538 
L 323.752622 138.480879 
L 328.853067 140.111676 
L 330.391391 140.730183 
L 331.851909 141.444226 
L 333.236801 142.267651 
L 335.78932 144.183606 
L 341.011637 148.662569 
L 342.687956 149.831538 
L 344.818512 151.012041 
L 347.033487 151.943801 
L 350.452206 153.313925 
L 350.840036 153.70218 
L 350.828507 153.972932 
L 350.57561 154.208945 
L 349.968819 154.45535 
L 348.664274 154.715311 
L 346.35625 154.929505 
L 342.076964 155.081741 
L 335.790199 155.143288 
L 335.790199 155.143288 
" clip-path="url(#p2e2f2a90fb)" style="fill: none; stroke: #1f77b4; stroke-width: 3; stroke-linecap: square"/>
   </g>
   <g id="line2d_14">
    <path d="M 68.587959 165.406403 
L 68.335697 162.893078 
L 68.191844 158.694739 
L 68.166172 152.539819 
L 68.26933 145.310202 
L 68.513205 138.456906 
L 68.910773 132.243675 
L 69.476282 125.96204 
L 70.225431 119.070066 
L 71.17489 111.488872 
L 72.34331 103.211461 
L 73.749828 94.442951 
L 75.415004 85.756536 
L 77.359572 77.378576 
L 79.605467 69.031022 
L 82.173216 60.789673 
L 85.082375 53.204623 
L 88.350061 46.597373 
L 91.990224 40.645435 
L 96.011679 35.241686 
L 100.416306 30.960249 
L 105.199563 28.138969 
L 110.346386 26.546701 
L 115.831656 25.895439 
L 121.621786 26.273136 
L 127.670432 28.310057 
L 133.921885 31.975181 
L 140.310525 35.375305 
L 146.76756 41.402933 
L 153.21594 46.565148 
L 159.578964 54.111349 
L 165.780676 60.860334 
L 171.749162 69.221853 
L 177.417477 74.740731 
L 182.731264 82.476827 
L 187.641783 90.174433 
L 192.11246 97.758723 
L 196.11724 104.814787 
L 199.640945 111.467878 
L 202.678772 117.735581 
L 205.235036 123.664129 
L 207.317635 129.349316 
L 208.946582 134.721041 
L 210.143178 139.606534 
L 210.933949 143.991958 
L 211.346971 148.011453 
L 211.412597 151.788427 
L 211.161654 155.350989 
L 210.624154 158.642363 
L 209.829979 161.594066 
L 208.808034 164.191288 
L 207.585318 166.478641 
L 206.187544 168.516853 
L 204.638651 170.351719 
L 202.959906 172.004736 
L 201.171779 173.480243 
L 199.29267 174.777489 
L 197.338588 175.897943 
L 195.324758 176.848093 
L 193.264404 177.639816 
L 191.167068 178.288575 
L 186.912697 179.222088 
L 182.628493 179.779269 
L 178.369643 180.066133 
L 174.175655 180.157705 
L 168.072106 180.025527 
L 162.252362 179.627539 
L 156.759772 178.967032 
L 153.291573 178.36432 
L 149.984002 177.616131 
L 146.838682 176.714353 
L 143.856833 175.666799 
L 139.690512 173.914382 
L 134.704994 171.740427 
L 128.429303 169.265195 
L 126.653185 167.99775 
L 125.032779 166.412438 
L 122.891361 163.826888 
L 120.083885 160.018516 
L 118.849909 158.112527 
L 117.949689 156.297134 
L 117.533378 155.050632 
L 117.263024 153.734224 
L 117.138375 152.336635 
L 117.222671 150.118624 
L 117.631288 147.871418 
L 118.083401 146.440433 
L 118.678979 145.108054 
L 119.417828 143.883728 
L 120.300167 142.745837 
L 121.892092 141.102675 
L 124.516579 138.784006 
L 128.605297 135.494357 
L 131.492713 133.448488 
L 134.710246 131.506828 
L 137.04251 130.312147 
L 140.82999 128.681293 
L 144.97874 127.206833 
L 151.113645 125.355475 
L 161.771955 122.453499 
L 174.487029 119.147836 
L 181.734315 117.457153 
L 186.921279 116.410239 
L 192.401834 115.493118 
L 198.180542 114.762112 
L 204.252971 114.265354 
L 210.612413 114.035041 
L 217.24304 114.083069 
L 224.123845 114.397313 
L 231.224033 114.940946 
L 242.205125 116.061382 
L 260.990365 118.281583 
L 275.945932 120.230065 
L 283.230688 121.363089 
L 290.304284 122.70427 
L 297.107851 124.335706 
L 303.588791 126.306408 
L 309.700238 128.583363 
L 315.40578 131.014767 
L 323.144659 134.402578 
L 327.736932 136.185007 
L 337.247492 139.472342 
L 338.826886 140.205684 
L 340.306098 141.027009 
L 342.978665 142.886741 
L 346.339217 145.720474 
L 349.034517 147.9168 
L 351.190477 149.314824 
L 352.925224 150.145013 
L 354.754258 150.775093 
L 359.602001 152.247945 
L 360.004552 152.621298 
L 360.088026 152.930193 
L 359.96078 153.236626 
L 359.520025 153.598706 
L 358.621158 153.978937 
L 357.152107 154.328207 
L 354.773637 154.631839 
L 351.055675 154.84688 
L 344.837858 154.955624 
L 344.837858 154.955624 
" clip-path="url(#p2e2f2a90fb)" style="fill: none; stroke: #1f77b4; stroke-width: 2; stroke-linecap: square"/>
   </g>
   <g id="line2d_15">
    <path d="M 70.180751 165.51548 
L 69.950672 163.088085 
L 69.824565 159.014319 
L 69.812613 152.977845 
L 69.925834 145.777471 
L 70.176443 138.882972 
L 70.578087 132.653365 
L 71.145407 126.408818 
L 71.894462 119.57696 
L 72.842713 112.056895 
L 74.009117 103.838162 
L 75.413665 95.093325 
L 77.077323 86.387063 
L 79.021874 77.993185 
L 81.269837 69.636714 
L 83.842813 61.344133 
L 86.761275 53.668667 
L 90.043559 46.987721 
L 93.704632 41.003315 
L 97.754633 35.556976 
L 102.197025 31.195336 
L 107.027644 28.290897 
L 112.233449 26.63969 
L 117.789231 25.955169 
L 123.662298 26.322087 
L 129.806143 28.3675 
L 136.164006 32.032344 
L 142.669421 35.319419 
L 149.251382 41.486287 
L 155.830827 46.922651 
L 162.32784 54.306499 
L 168.663508 60.739134 
L 174.762692 69.243805 
L 180.555665 75.056922 
L 185.984257 82.612424 
L 190.998133 90.316581 
L 195.558603 97.877739 
L 199.638014 104.910206 
L 203.220001 111.544119 
L 206.300395 117.801941 
L 208.883447 123.743034 
L 210.97808 129.464457 
L 212.604666 134.876782 
L 213.786915 139.792774 
L 214.551844 144.199925 
L 214.930636 148.234739 
L 214.954769 152.015714 
L 214.656064 155.563444 
L 214.067349 158.820314 
L 213.219908 161.727192 
L 212.143735 164.281671 
L 210.867183 166.535135 
L 209.417478 168.54783 
L 207.819423 170.361829 
L 206.095456 171.995369 
L 204.266894 173.451068 
L 202.35196 174.727903 
L 200.368452 175.827618 
L 198.332117 176.75719 
L 196.255267 177.528853 
L 194.149251 178.158127 
L 189.899211 179.054017 
L 185.651403 179.572976 
L 181.460883 179.817269 
L 177.368754 179.857487 
L 173.406069 179.735636 
L 169.595709 179.471095 
L 165.954203 179.065799 
L 162.493616 178.508906 
L 159.221554 177.779883 
L 156.144579 176.853652 
L 153.266649 175.706278 
L 150.59032 174.327369 
L 148.118255 172.734966 
L 145.85165 170.990362 
L 142.840286 168.308597 
L 140.300119 165.703867 
L 138.87125 163.850816 
L 137.656856 161.742881 
L 136.65941 159.416799 
L 135.882179 157.057328 
L 135.328476 154.849413 
L 135.00256 152.882433 
L 134.908924 151.142357 
L 135.05248 149.541844 
L 135.438534 147.953526 
L 136.073179 146.236104 
L 137.504588 143.153963 
L 139.531958 139.331848 
L 141.225938 136.510445 
L 143.202175 133.695707 
L 145.467949 131.078996 
L 148.030205 128.762517 
L 150.895556 126.752303 
L 154.070457 125.002144 
L 157.560119 123.456516 
L 161.369551 122.071888 
L 165.501365 120.823416 
L 169.958201 119.70013 
L 174.738477 118.698798 
L 179.840306 117.818318 
L 185.257808 117.060196 
L 190.981621 116.429484 
L 197.000181 115.934873 
L 203.295805 115.587549 
L 209.848625 115.399527 
L 216.632928 115.384087 
L 223.619174 115.556784 
L 230.772042 115.934085 
L 238.053362 116.527941 
L 245.422097 117.33686 
L 252.832911 118.336623 
L 263.928303 120.079299 
L 298.842273 125.965272 
L 305.130177 127.215446 
L 311.103467 128.6258 
L 316.738171 130.239737 
L 322.014292 132.047593 
L 326.91421 133.969515 
L 339.27246 139.016774 
L 344.128117 140.586668 
L 350.355737 142.460993 
L 352.241799 143.282836 
L 353.815331 144.22195 
L 355.100693 145.244823 
L 356.548378 146.763853 
L 357.727273 148.388531 
L 358.246811 149.414233 
L 358.304523 149.978852 
L 358.145001 150.208407 
L 357.768473 150.366364 
L 356.281639 150.562015 
L 355.323106 150.840166 
L 354.35441 151.36365 
L 351.655528 152.972469 
L 349.893325 153.681239 
L 348.045759 154.192497 
L 345.511675 154.651667 
L 342.185907 155.010748 
L 337.570998 155.276266 
L 330.261767 155.4553 
L 324.10036 155.503857 
L 324.10036 155.503857 
" clip-path="url(#p2e2f2a90fb)" style="fill: none; stroke: #1f77b4; stroke-width: 2; stroke-linecap: square"/>
   </g>
   <g id="line2d_16">
    <path d="M 68.953259 165.431742 
L 68.666649 162.933545 
L 68.490716 158.753825 
L 68.434783 152.611595 
L 68.509077 145.377705 
L 68.725167 138.511005 
L 69.09565 132.289111 
L 69.634575 126.004547 
L 70.357302 119.110258 
L 71.280487 111.524953 
L 72.422456 103.241289 
L 73.802622 94.463564 
L 75.441275 85.766481 
L 77.359715 77.378625 
L 79.579791 69.021697 
L 82.122612 60.773001 
L 85.008322 53.184363 
L 88.254789 46.575561 
L 91.876608 40.621798 
L 95.883341 35.218645 
L 100.278426 30.942305 
L 105.057636 28.127364 
L 110.207048 26.539961 
L 115.702496 25.891595 
L 121.510808 26.27052 
L 127.585599 28.307806 
L 133.870914 31.97388 
L 140.301129 35.375597 
L 146.805576 41.40415 
L 153.306554 46.57741 
L 159.725036 54.122218 
L 165.983515 60.852524 
L 172.008247 69.223933 
L 177.731424 74.774088 
L 183.095058 82.492204 
L 188.050294 90.192103 
L 192.559663 97.774683 
L 196.596458 104.828436 
L 200.145209 111.479411 
L 203.201437 117.746031 
L 205.769588 123.676489 
L 207.860118 129.367093 
L 209.492012 134.744994 
L 210.688918 139.635282 
L 211.478745 144.024304 
L 211.890789 148.046594 
L 211.956237 151.824848 
L 211.707981 155.386067 
L 211.177418 158.673098 
L 210.394902 161.618546 
L 209.390919 164.209417 
L 208.192971 166.491437 
L 206.82819 168.525369 
L 205.320496 170.356342 
L 203.69238 172.005111 
L 201.964439 173.475488 
L 200.155891 174.766364 
L 198.282791 175.879059 
L 196.360773 176.819993 
L 194.402864 177.600976 
L 192.419878 178.237333 
L 188.427295 179.140753 
L 184.451127 179.659019 
L 180.54692 179.895037 
L 176.754456 179.919017 
L 173.105019 179.771188 
L 169.622009 179.467412 
L 166.321563 179.004457 
L 163.216677 178.363894 
L 160.31559 177.515323 
L 157.626315 176.421517 
L 155.153534 175.045925 
L 152.901927 173.367565 
L 150.875762 171.401103 
L 149.07893 169.2131 
L 147.515471 166.911014 
L 146.190277 164.571429 
L 145.108429 162.15671 
L 144.276027 159.555332 
L 143.699875 156.759948 
L 143.387597 153.934191 
L 143.34766 151.282739 
L 143.589434 148.909835 
L 144.123303 146.789467 
L 144.960046 144.799941 
L 146.111403 142.767227 
L 148.454691 139.244612 
L 151.574388 134.862136 
L 154.105672 131.631877 
L 155.511164 130.041193 
L 157.012295 128.526978 
L 158.608999 127.124243 
L 160.30297 125.84914 
L 162.095641 124.700393 
L 163.986784 123.66343 
L 168.069826 121.830411 
L 172.555338 120.179143 
L 177.442881 118.626496 
L 182.728642 117.184628 
L 188.403064 115.909774 
L 194.452581 114.853407 
L 200.856024 114.045008 
L 207.589242 113.496104 
L 214.617828 113.212193 
L 221.905222 113.200627 
L 229.407456 113.473517 
L 237.07501 114.042651 
L 244.856116 114.907073 
L 252.693939 116.037767 
L 264.431948 118.080922 
L 290.734339 122.924975 
L 304.426202 125.397489 
L 310.77462 126.717253 
L 316.751101 128.193043 
L 322.335063 129.868488 
L 327.512826 131.732725 
L 332.275727 133.707647 
L 345.688817 139.601382 
L 349.942992 141.087 
L 355.218397 142.783397 
L 356.747472 143.439264 
L 357.976066 144.14549 
L 358.926816 144.894771 
L 359.623464 145.653179 
L 360.246701 146.711651 
L 360.440714 147.578354 
L 360.292493 148.218788 
L 359.886327 148.656359 
L 359.299404 148.935605 
L 358.34784 149.137589 
L 356.512683 149.238873 
L 350.531218 149.380082 
L 348.336404 149.72222 
L 345.818082 150.332347 
L 335.033787 153.291729 
L 331.669523 153.837978 
L 327.738789 154.242907 
L 322.78422 154.513432 
L 312.585122 154.765556 
L 303.794887 155.092825 
L 303.794887 155.092825 
" clip-path="url(#p2e2f2a90fb)" style="fill: none; stroke: #1f77b4; stroke-width: 2; stroke-linecap: square"/>
   </g>
   <g id="line2d_17">
    <path d="M 68.976367 165.43334 
L 68.749696 162.943662 
L 68.626488 158.78059 
L 68.616636 152.66013 
L 68.731066 145.440243 
L 68.981594 138.576544 
L 69.381519 132.359371 
L 69.945127 126.087868 
L 70.688145 119.210981 
L 71.627475 111.643409 
L 72.781752 103.376679 
L 74.170361 94.607202 
L 75.813659 85.907473 
L 77.732522 77.516271 
L 79.949109 69.155688 
L 82.483792 60.892133 
L 85.356523 53.279809 
L 88.584499 46.65113 
L 92.181924 40.685324 
L 96.157547 35.267889 
L 100.514347 30.973034 
L 105.247431 28.142886 
L 110.342567 26.546506 
L 115.77497 25.893748 
L 121.511761 26.270545 
L 127.506285 28.305677 
L 133.703486 31.969634 
L 140.038038 35.384161 
L 146.440096 41.392277 
L 152.833703 46.513508 
L 159.14119 54.078455 
L 165.286183 60.878903 
L 171.196143 69.217285 
L 176.804889 74.674536 
L 182.056714 82.448185 
L 186.902877 90.14219 
L 191.30687 97.729582 
L 195.243678 104.789396 
L 198.696774 111.445595 
L 201.663519 117.714515 
L 204.147643 123.638145 
L 206.158835 129.310555 
L 207.716635 134.666206 
L 208.84386 139.537023 
L 209.566937 143.909318 
L 209.915733 147.917016 
L 209.920602 151.685831 
L 209.612256 155.24801 
L 209.021946 158.549 
L 208.180009 161.517604 
L 207.115219 164.133344 
L 205.854707 166.436718 
L 204.424609 168.487784 
L 202.848456 170.333688 
L 201.148183 171.997555 
L 199.343608 173.484604 
L 197.453312 174.794191 
L 195.49327 175.927445 
L 193.478186 176.890386 
L 191.421512 177.694525 
L 189.332807 178.354953 
L 185.107943 179.309322 
L 180.870442 179.884189 
L 176.672985 180.186664 
L 172.554834 180.292742 
L 166.589474 180.181743 
L 160.936841 179.804356 
L 155.63815 179.161461 
L 152.315175 178.565561 
L 149.16536 177.816657 
L 146.190822 176.902117 
L 143.393753 175.824152 
L 140.774688 174.614028 
L 132.08838 170.10961 
L 130.364633 169.049097 
L 128.82008 167.647363 
L 127.455014 165.864197 
L 126.269614 163.86594 
L 124.828751 160.923425 
L 123.794137 158.386677 
L 123.166893 156.253103 
L 122.975543 154.943611 
L 122.966172 153.623612 
L 123.138778 152.215243 
L 123.739836 149.829949 
L 124.751343 147.11979 
L 125.6539 145.217446 
L 126.739061 143.327977 
L 128.006901 141.506909 
L 129.457803 139.761098 
L 131.97864 137.194236 
L 134.916317 134.54599 
L 138.277813 131.796432 
L 140.758632 129.979161 
L 143.436532 128.242427 
L 146.316465 126.62996 
L 149.405368 125.160224 
L 152.710365 123.829119 
L 156.240087 122.616786 
L 161.977937 120.963337 
L 168.278804 119.441394 
L 175.17744 118.0206 
L 182.706593 116.733997 
L 188.088807 115.991382 
L 193.765834 115.375143 
L 199.735606 114.910975 
L 205.994118 114.61783 
L 212.529334 114.51014 
L 219.322594 114.601106 
L 226.35043 114.902608 
L 233.579396 115.420275 
L 240.966255 116.147184 
L 248.465347 117.061504 
L 259.806227 118.704509 
L 274.779983 121.179812 
L 285.623391 123.139686 
L 295.908112 125.247687 
L 302.364952 126.817084 
L 308.44979 128.567281 
L 314.128592 130.490429 
L 319.375206 132.504331 
L 330.537006 136.95348 
L 334.224354 138.20109 
L 342.83445 140.843362 
L 344.974745 141.825153 
L 346.800554 142.961018 
L 348.344025 144.18889 
L 350.198332 145.974608 
L 354.261817 150.342602 
L 354.276799 150.716126 
L 354.046537 151.091966 
L 353.368226 151.712305 
L 352.081691 152.554684 
L 350.478131 153.312566 
L 348.740518 153.895771 
L 346.313194 154.445062 
L 343.515107 154.844315 
L 339.519332 155.174458 
L 333.84509 155.40198 
L 325.088824 155.512263 
L 323.80483 155.514227 
L 323.80483 155.514227 
" clip-path="url(#p2e2f2a90fb)" style="fill: none; stroke: #1f77b4; stroke-width: 2; stroke-linecap: square"/>
   </g>
   <g id="line2d_18">
    <path d="M 68.976367 185.230723 
L 68.749696 179.606019 
L 68.626488 173.741574 
L 68.616636 167.610037 
L 68.731066 161.183604 
L 68.981594 154.434849 
L 69.381519 147.337881 
L 69.945127 139.870015 
L 70.688145 132.014049 
L 71.627475 123.76261 
L 72.781752 115.117082 
L 74.170361 106.099872 
L 75.813659 96.755238 
L 77.732522 87.158533 
L 79.949109 77.416573 
L 82.483792 67.681815 
L 85.356523 58.149639 
L 88.584499 49.058461 
L 92.181924 40.682003 
L 96.157547 33.314212 
L 100.514347 27.246343 
L 105.247431 22.738188 
L 110.342567 19.988012 
L 115.77497 19.106225 
L 121.511761 20.100076 
L 127.506285 22.872343 
L 133.703486 27.233375 
L 140.038038 32.924861 
L 146.440096 39.653044 
L 152.833703 47.113288 
L 159.14119 55.01757 
L 165.286183 63.111437 
L 171.196143 71.18264 
L 182.056714 86.6317 
L 186.902877 93.801299 
L 191.30687 100.518357 
L 195.243678 106.754614 
L 198.696774 112.500453 
L 201.663519 117.763041 
L 204.147643 122.559054 
L 206.158835 126.906437 
L 207.716635 130.833646 
L 208.84386 134.369086 
L 209.566937 137.541522 
L 209.915733 140.380763 
L 209.920602 142.914345 
L 209.612256 145.168933 
L 209.021946 147.169618 
L 208.180009 148.93972 
L 207.115219 150.500685 
L 205.854707 151.872923 
L 204.424609 153.073915 
L 202.848456 154.120276 
L 201.148183 155.027326 
L 199.343608 155.808459 
L 197.453312 156.476057 
L 193.478186 157.513835 
L 189.332807 158.21772 
L 185.107943 158.649465 
L 180.870442 158.860161 
L 176.672985 158.891091 
L 170.535256 158.672294 
L 164.668173 158.212217 
L 159.129807 157.576812 
L 152.315175 156.540482 
L 146.190822 155.364124 
L 140.774688 154.106977 
L 136.073594 152.811077 
L 132.08838 151.506606 
L 128.82008 150.215794 
L 126.269614 148.955002 
L 124.828751 148.036595 
L 123.794137 147.146106 
L 123.166893 146.286724 
L 122.975543 145.732374 
L 122.966172 145.193677 
L 123.138778 144.671053 
L 123.493893 144.1648 
L 124.368611 143.437127 
L 125.6539 142.747898 
L 127.35002 142.097236 
L 130.252043 141.289086 
L 133.890602 140.547292 
L 138.277813 139.8691 
L 144.850989 139.105905 
L 152.710365 138.430539 
L 161.977937 137.837799 
L 175.17744 137.232889 
L 190.890672 136.749311 
L 209.228074 136.404368 
L 229.943035 136.22826 
L 252.241314 136.261734 
L 271.075847 136.481315 
L 289.12337 136.897161 
L 305.456517 137.517594 
L 316.806664 138.154982 
L 326.40923 138.901078 
L 334.224354 139.730298 
L 340.348893 140.608889 
L 344.974745 141.49804 
L 348.344025 142.357979 
L 350.708556 143.151923 
L 352.602988 144.006924 
L 353.803997 144.784844 
L 354.287514 145.330493 
L 354.248627 145.500197 
L 353.97443 145.515309 
L 352.951768 145.2439 
L 348.089271 143.843734 
L 342.224012 142.454225 
L 323.80483 138.314668 
L 323.80483 138.314668 
" clip-path="url(#p2e2f2a90fb)" style="fill: none; stroke-dasharray: 3,4.95; stroke-dashoffset: 0; stroke: #d62728; stroke-width: 3"/>
   </g>
   <g id="line2d_19">
    <path d="M 68.976367 180.292742 
L 68.749696 175.060521 
L 68.626488 169.521008 
L 68.616636 163.656439 
L 68.731066 157.450635 
L 68.981594 150.890078 
L 69.381519 143.965377 
L 69.945127 136.673037 
L 70.688145 129.01768 
L 71.627475 121.015987 
L 72.781752 112.694867 
L 74.170361 104.10208 
L 75.813659 95.304806 
L 77.732522 86.395536 
L 79.949109 77.489076 
L 82.483792 68.731369 
L 85.356523 60.293149 
L 88.584499 52.366964 
L 92.181924 45.15921 
L 96.157547 38.878965 
L 100.514347 33.723587 
L 105.247431 29.862631 
L 110.342567 27.422394 
L 115.77497 26.473358 
L 121.511761 27.022435 
L 127.506285 29.013202 
L 133.703486 32.330775 
L 140.038038 36.813115 
L 146.440096 42.268529 
L 152.833703 48.488096 
L 159.14119 55.262681 
L 165.286183 62.39497 
L 171.196143 69.707617 
L 176.804889 77.047525 
L 182.056714 84.292061 
L 186.902877 91.341927 
L 191.30687 98.123525 
L 195.243678 104.584912 
L 198.696774 110.691387 
L 201.663519 116.425719 
L 204.147643 121.781958 
L 206.158835 126.756924 
L 207.716635 131.361188 
L 208.84386 135.607574 
L 209.566937 139.511487 
L 209.915733 143.091935 
L 209.920602 146.367219 
L 209.612256 149.356597 
L 209.021946 152.079179 
L 208.180009 154.553551 
L 207.115219 156.797336 
L 205.854707 158.828437 
L 204.424609 160.661935 
L 202.848456 162.312919 
L 201.148183 163.795888 
L 199.343608 165.123562 
L 197.453312 166.307986 
L 195.49327 167.360258 
L 193.478186 168.290496 
L 189.332807 169.822999 
L 185.107943 170.970833 
L 180.870442 171.791103 
L 176.672985 172.331169 
L 172.554834 172.631232 
L 168.545804 172.725174 
L 164.668173 172.641767 
L 159.129807 172.236644 
L 153.955334 171.554742 
L 149.16536 170.650212 
L 144.769819 169.566338 
L 140.774688 168.338382 
L 137.181693 166.995096 
L 133.991419 165.560222 
L 131.204153 164.053802 
L 128.82008 162.492768 
L 126.839862 160.891547 
L 125.263993 159.262592 
L 124.093909 157.616985 
L 123.53979 156.515378 
L 123.166893 155.413229 
L 122.975543 154.312908 
L 122.966172 153.216704 
L 123.138778 152.126568 
L 123.493893 151.044065 
L 124.031393 149.971464 
L 124.751343 148.910089 
L 125.6539 147.861389 
L 127.35002 146.314922 
L 129.457803 144.803499 
L 131.97864 143.330313 
L 134.916317 141.897782 
L 138.277813 140.507656 
L 142.072605 139.161709 
L 146.316465 137.860949 
L 151.030277 136.606388 
L 156.240087 135.399295 
L 164.014141 133.865996 
L 172.809099 132.424628 
L 182.706593 131.082592 
L 193.765834 129.850804 
L 205.994118 128.744686 
L 219.322594 127.784076 
L 233.579396 126.993593 
L 248.465347 126.402152 
L 263.581054 126.040458 
L 278.443995 125.938735 
L 289.12337 126.0487 
L 299.180533 126.327015 
L 308.44979 126.777057 
L 316.806664 127.397146 
L 324.177059 128.179546 
L 330.537006 129.110291 
L 335.907642 130.169368 
L 340.348893 131.331277 
L 343.945927 132.566587 
L 346.800554 133.843583 
L 349.019861 135.130104 
L 350.708556 136.395348 
L 351.963759 137.611881 
L 352.871616 138.757085 
L 353.665254 140.144481 
L 354.1049 141.351163 
L 354.30103 142.596171 
L 354.211531 143.565574 
L 353.893952 144.29634 
L 353.368226 144.833482 
L 352.630541 145.221033 
L 351.450409 145.542218 
L 349.650622 145.783181 
L 346.313194 145.984881 
L 336.229813 146.269285 
L 327.754845 146.622725 
L 323.80483 146.913431 
L 323.80483 146.913431 
" clip-path="url(#p2e2f2a90fb)" style="fill: none; stroke-dasharray: 11.1,4.8; stroke-dashoffset: 0; stroke: #d62728; stroke-width: 3"/>
   </g>
   <g id="line2d_20">
    <path d="M 68.976367 180.292742 
L 68.749696 175.079834 
L 68.626488 169.559838 
L 68.616636 163.714608 
L 68.731066 157.527544 
L 68.981594 150.984658 
L 69.381519 144.076042 
L 69.945127 136.797627 
L 70.688145 129.153404 
L 71.627475 121.159369 
L 72.781752 112.841661 
L 74.170361 104.247208 
L 75.813659 95.442313 
L 77.732522 86.518511 
L 79.949109 77.589607 
L 82.483792 68.800527 
L 85.356523 60.320983 
L 88.584499 52.342525 
L 92.181924 45.0706 
L 96.157547 38.713546 
L 100.514347 33.468074 
L 105.247431 29.503352 
L 110.342567 26.945625 
L 115.77497 25.865623 
L 121.511761 26.270837 
L 127.506285 28.105893 
L 133.703486 31.257195 
L 140.038038 35.564409 
L 146.440096 40.837714 
L 152.833703 46.870281 
L 159.14119 53.455166 
L 165.286183 60.397123 
L 171.196143 67.520836 
L 176.804889 74.675144 
L 182.056714 81.738921 
L 186.902877 88.61428 
L 191.30687 95.228721 
L 195.243678 101.531155 
L 198.696774 107.48746 
L 201.663519 113.080775 
L 204.147643 118.305274 
L 206.158835 123.157952 
L 207.716635 127.649264 
L 208.84386 131.791857 
L 209.566937 135.600896 
L 209.915733 139.095103 
L 209.920602 142.292483 
L 209.612256 145.211949 
L 209.021946 147.872277 
L 208.180009 150.291709 
L 207.115219 152.487501 
L 205.854707 154.477217 
L 204.424609 156.275612 
L 202.848456 157.897438 
L 201.148183 159.356865 
L 199.343608 160.666307 
L 197.453312 161.837503 
L 195.49327 162.881268 
L 193.478186 163.807437 
L 189.332807 165.344053 
L 185.107943 166.510672 
L 180.870442 167.362577 
L 176.672985 167.945448 
L 172.554834 168.297988 
L 168.545804 168.452706 
L 164.668173 168.437143 
L 159.129807 168.1446 
L 153.955334 167.585263 
L 149.16536 166.810259 
L 144.769819 165.860155 
L 140.774688 164.767686 
L 137.181693 163.55921 
L 133.991419 162.256198 
L 131.204153 160.876467 
L 128.82008 159.434753 
L 126.839862 157.943347 
L 125.263993 156.412598 
L 124.093909 154.85156 
L 123.53979 153.797793 
L 123.166893 152.735992 
L 122.975543 151.668038 
L 122.966172 150.595729 
L 123.138778 149.520583 
L 123.493893 148.443786 
L 124.031393 147.367277 
L 124.751343 146.292128 
L 126.173625 144.684678 
L 128.006901 143.087066 
L 130.252043 141.50275 
L 132.911371 139.935256 
L 135.989298 138.387599 
L 139.493796 136.862594 
L 143.436532 135.363068 
L 147.834361 133.891683 
L 152.710365 132.450834 
L 158.092392 131.04326 
L 164.014141 129.671466 
L 172.809099 127.903724 
L 182.706593 126.213753 
L 193.765834 124.612252 
L 205.994118 123.113544 
L 219.322594 121.735847 
L 233.579396 120.5027 
L 248.465347 119.444332 
L 263.581054 118.596515 
L 278.443995 118.000926 
L 292.553423 117.702538 
L 302.364952 117.700756 
L 311.341969 117.908162 
L 319.375206 118.337816 
L 326.40923 118.997453 
L 330.537006 119.565543 
L 334.224354 120.234335 
L 337.487622 121.000075 
L 340.348893 121.857216 
L 342.83445 122.798436 
L 344.974745 123.814859 
L 346.800554 124.895962 
L 348.344025 126.030525 
L 349.636747 127.205944 
L 350.708556 128.409804 
L 351.963759 130.241162 
L 352.871616 132.067773 
L 353.504461 133.854279 
L 354.022306 136.125217 
L 354.261817 138.227427 
L 354.276799 140.586208 
L 354.046537 142.647425 
L 353.603373 144.440993 
L 352.951768 146.011139 
L 352.081691 147.40365 
L 350.983241 148.659677 
L 349.650622 149.812679 
L 348.089271 150.888679 
L 345.934223 152.105696 
L 343.090311 153.453939 
L 339.05578 155.115527 
L 323.80483 161.103513 
L 323.80483 161.103513 
" clip-path="url(#p2e2f2a90fb)" style="fill: none; stroke-dasharray: 19.2,4.8,3,4.8; stroke-dashoffset: 0; stroke: #d62728; stroke-width: 3"/>
   </g>
   <g id="line2d_21">
    <path d="M 70.114758 165.51103 
L 69.804983 162.998191 
L 69.570129 158.729462 
L 69.454933 152.404493 
L 69.50246 144.989657 
L 69.725809 138.017355 
L 70.111986 131.679191 
L 70.872753 122.889548 
L 71.950982 112.852312 
L 73.409288 101.512554 
L 74.795423 92.46891 
L 75.872605 86.528389 
L 77.077237 80.750587 
L 79.13341 72.178358 
L 80.68144 66.444112 
L 82.381701 60.821886 
L 84.241101 55.514288 
L 86.263171 50.670497 
L 88.449306 46.270927 
L 90.802145 42.160298 
L 93.327696 38.260901 
L 96.032865 34.703849 
L 97.454007 33.127079 
L 98.920737 31.716567 
L 100.432526 30.482787 
L 101.988616 29.425046 
L 103.588146 28.534013 
L 105.230259 27.795371 
L 106.914166 27.193194 
L 108.639175 26.712679 
L 112.21022 26.074227 
L 115.939117 25.849188 
L 117.861135 25.912835 
L 119.820159 26.123203 
L 121.814561 26.513235 
L 123.841997 27.11883 
L 125.899322 27.965205 
L 127.982694 29.045403 
L 136.511426 34.011969 
L 138.689394 35.119769 
L 140.886798 38.109946 
L 143.067177 40.328332 
L 145.243216 41.259934 
L 147.438853 42.325108 
L 149.651092 43.929809 
L 151.868412 46.279199 
L 156.255541 51.921661 
L 158.412365 54.061296 
L 160.556144 55.508346 
L 162.70064 56.668929 
L 164.851373 60.856879 
L 166.93827 63.809807 
L 168.986346 65.027268 
L 171.034031 69.391517 
L 174.972859 71.913296 
L 176.933422 76.316382 
L 180.653501 80.727643 
L 182.461545 83.18212 
L 185.943708 88.439495 
L 190.775265 96.30654 
L 196.449312 105.958826 
L 200.127963 112.701102 
L 203.311829 119.037445 
L 206.006103 125.042985 
L 207.531563 128.914635 
L 209.416062 134.449967 
L 210.834028 139.486463 
L 211.821939 143.99887 
L 212.416744 148.126601 
L 212.608411 150.732702 
L 212.643276 153.2398 
L 212.527299 155.637311 
L 212.267676 157.901362 
L 211.873414 160.008267 
L 211.355048 161.945833 
L 210.723734 163.717513 
L 209.588498 166.099778 
L 208.255471 168.212675 
L 206.750969 170.108454 
L 205.097416 171.811772 
L 203.315428 173.328257 
L 201.42505 174.657261 
L 199.445939 175.800397 
L 197.396902 176.764868 
L 194.58595 177.795335 
L 191.717726 178.570172 
L 188.822176 179.131991 
L 185.199982 179.595101 
L 180.893762 179.883982 
L 175.976142 179.952002 
L 171.212704 179.801114 
L 165.993008 179.40146 
L 161.64549 178.853949 
L 157.523137 178.100693 
L 154.184342 177.267181 
L 151.03995 176.239095 
L 148.104454 175.007298 
L 145.390972 173.588979 
L 142.515998 171.782751 
L 138.611294 169.003343 
L 136.190191 167.119837 
L 134.844967 165.817754 
L 133.640294 164.29296 
L 132.592709 162.548018 
L 131.559739 160.305513 
L 130.663721 157.765079 
L 130.008021 155.238361 
L 129.679613 153.15347 
L 129.62309 151.331558 
L 129.817485 149.501663 
L 130.281094 147.417735 
L 131.062535 144.955115 
L 132.053589 142.530843 
L 133.157388 140.358407 
L 134.508067 138.198385 
L 136.109705 136.103285 
L 137.964591 134.071233 
L 140.077975 132.075691 
L 142.458953 130.106758 
L 145.117589 128.189638 
L 148.061015 126.372576 
L 150.733102 124.968459 
L 153.603289 123.682008 
L 157.30548 122.298113 
L 161.284693 121.076951 
L 165.537566 119.996261 
L 170.844025 118.882528 
L 176.523885 117.90405 
L 183.477107 116.945368 
L 189.967248 116.261383 
L 196.832338 115.745465 
L 204.06088 115.418888 
L 211.633137 115.299672 
L 219.519912 115.408271 
L 227.680086 115.770199 
L 234.850591 116.298574 
L 242.138831 117.030632 
L 250.727237 118.119072 
L 260.563713 119.596248 
L 276.370271 122.231647 
L 292.880968 125.170428 
L 300.82679 126.806601 
L 306.312915 128.130304 
L 311.588027 129.618194 
L 316.598321 131.262092 
L 322.19303 133.353048 
L 335.395334 138.459727 
L 339.892636 139.829125 
L 346.202037 141.66391 
L 348.256838 142.478632 
L 350.143714 143.444045 
L 351.829282 144.533557 
L 353.619103 145.943045 
L 356.561732 148.629952 
L 358.491827 150.266288 
L 359.551291 150.906352 
L 360.402055 151.166239 
L 362.887709 151.67316 
L 363.001212 151.957027 
L 362.892725 152.26253 
L 362.481967 152.665041 
L 361.673738 153.119111 
L 360.306661 153.608958 
L 358.390928 154.052525 
L 355.694325 154.441809 
L 351.91331 154.750473 
L 346.294662 154.965536 
L 339.401042 155.061599 
L 339.401042 155.061599 
" clip-path="url(#p2e2f2a90fb)" style="fill: none; stroke-dasharray: 11.1,4.8; stroke-dashoffset: 0; stroke: #ff7f0e; stroke-width: 3"/>
   </g>
   <g id="line2d_22">
    <path d="M 70.114758 175.874713 
L 69.570129 156.981263 
L 69.451233 144.712665 
L 69.557794 135.688956 
L 69.837149 126.865408 
L 70.275241 118.292861 
L 70.872753 110.008682 
L 71.648433 102.042483 
L 72.628226 94.425434 
L 73.841693 87.192386 
L 74.795423 82.602524 
L 75.872605 78.212382 
L 77.077237 74.033714 
L 78.413679 70.077464 
L 79.888938 66.353782 
L 81.512035 62.87231 
L 83.291211 59.641959 
L 85.231699 56.670357 
L 87.335639 53.963326 
L 89.604588 51.52514 
L 92.042863 49.359089 
L 94.657499 47.467865 
L 97.454007 45.853059 
L 100.432526 44.514578 
L 103.588146 43.450988 
L 106.914166 42.66063 
L 110.4047 42.142821 
L 114.05522 41.898586 
L 117.861135 41.931129 
L 121.814561 42.245814 
L 125.899322 42.849364 
L 130.088051 43.749011 
L 134.353023 44.954162 
L 138.689394 46.482793 
L 143.067177 48.347277 
L 147.438853 50.551581 
L 151.868412 53.143832 
L 156.255541 56.103238 
L 160.556144 59.417589 
L 164.851373 63.144712 
L 168.986346 67.187611 
L 173.005407 71.562476 
L 176.933422 76.278912 
L 180.653501 81.204623 
L 184.22676 86.361167 
L 187.608628 91.659722 
L 190.775265 97.019216 
L 193.721948 102.375452 
L 196.449312 107.671479 
L 200.127963 115.378456 
L 203.311829 122.645622 
L 206.006103 129.329168 
L 208.21318 135.310937 
L 209.938987 140.512963 
L 211.209123 144.930624 
L 212.062346 148.618818 
L 212.532526 151.64911 
L 212.643276 154.09294 
L 212.527299 155.434305 
L 212.267676 156.576634 
L 211.873414 157.550698 
L 211.355048 158.389357 
L 210.369157 159.463787 
L 209.164728 160.40199 
L 207.270084 161.567972 
L 202.065989 164.351263 
L 196.701411 167.361603 
L 190.995365 170.850774 
L 180.183191 177.536384 
L 175.976142 179.805398 
L 172.556153 181.370428 
L 169.884172 182.369342 
L 167.273844 183.121545 
L 164.728995 183.61459 
L 162.253225 183.842188 
L 159.850051 183.804631 
L 157.523137 183.508146 
L 155.276383 182.964619 
L 153.113893 182.191313 
L 151.03995 181.209924 
L 149.058868 180.045958 
L 146.719293 178.377281 
L 144.537432 176.523292 
L 142.515998 174.535372 
L 140.297733 172.025715 
L 138.290523 169.412365 
L 136.474924 166.710523 
L 134.592274 163.501237 
L 132.788936 159.949302 
L 131.411722 156.761476 
L 130.465287 154.024756 
L 129.950455 151.922362 
L 129.679613 149.967774 
L 129.616389 148.055823 
L 129.779192 145.851673 
L 130.137661 143.91021 
L 130.728452 142.008368 
L 131.449754 140.459473 
L 132.394593 139.019429 
L 133.579879 137.695951 
L 135.013967 136.471221 
L 137.005275 135.124405 
L 139.344289 133.818579 
L 142.458953 132.341438 
L 146.553452 130.675613 
L 151.857525 128.774613 
L 161.284693 125.670478 
L 171.632484 122.461276 
L 179.073359 120.36463 
L 185.292804 118.817477 
L 191.890797 117.422803 
L 197.843096 116.399497 
L 204.06088 115.574265 
L 210.531333 114.975721 
L 216.103668 114.664796 
L 222.98654 114.523962 
L 230.054404 114.633746 
L 237.269202 114.972643 
L 245.812353 115.618873 
L 255.648651 116.631057 
L 264.238994 117.730142 
L 271.544154 118.848945 
L 278.76773 120.178957 
L 284.709574 121.495347 
L 290.566186 123.037979 
L 296.318512 124.825123 
L 301.938463 126.855258 
L 307.386515 129.092063 
L 313.626934 131.946164 
L 320.382365 135.283637 
L 331.891187 141.237015 
L 336.064624 143.565569 
L 339.275229 145.586649 
L 342.288303 147.799056 
L 345.121695 150.234233 
L 348.256838 153.320017 
L 352.588495 157.679902 
L 353.933947 158.705098 
L 354.795718 159.132239 
L 355.541415 159.26651 
L 356.1839 159.129796 
L 356.737017 158.760794 
L 357.358431 157.953516 
L 357.872563 156.870608 
L 358.399103 155.226737 
L 358.979545 152.588396 
L 359.606496 148.548808 
L 361.259039 136.996041 
L 361.589189 136.244458 
L 361.767406 136.202236 
L 361.94064 136.438806 
L 362.140124 137.080529 
L 362.415982 138.748331 
L 362.721869 142.152342 
L 362.950437 147.451489 
L 362.990301 153.514195 
L 362.814658 159.05878 
L 362.481967 163.13902 
L 362.075345 165.751756 
L 361.610294 167.377511 
L 361.1982 168.11406 
L 360.814311 168.390738 
L 360.481425 168.396123 
L 360.034353 168.121878 
L 359.55432 167.553727 
L 358.937173 166.499622 
L 358.050128 164.528459 
L 356.598534 160.591287 
L 352.496781 148.895352 
L 351.175332 145.941198 
L 350.128179 144.157174 
L 349.371702 143.222858 
L 348.609298 142.665098 
L 347.995636 142.494984 
L 347.37914 142.599008 
L 346.760234 143.022983 
L 346.139244 143.776605 
L 345.516462 144.885845 
L 344.735917 146.817022 
L 343.953614 149.399033 
L 343.013058 153.423927 
L 342.071264 158.553307 
L 340.971707 166.019144 
L 339.872118 175.239425 
L 339.401042 179.758653 
L 339.401042 179.758653 
" clip-path="url(#p2e2f2a90fb)" style="fill: none; stroke-dasharray: 19.2,4.8,3,4.8; stroke-dashoffset: 0; stroke: #8c564b; stroke-width: 3"/>
   </g>
   <g id="patch_3">
    <path d="M 53.42442 193.536948 
L 53.42442 10.8 
" style="fill: none; stroke: #000000; stroke-width: 0.8; stroke-linejoin: miter; stroke-linecap: square"/>
   </g>
   <g id="patch_4">
    <path d="M 377.742964 193.536948 
L 377.742964 10.8 
" style="fill: none; stroke: #000000; stroke-width: 0.8; stroke-linejoin: miter; stroke-linecap: square"/>
   </g>
   <g id="patch_5">
    <path d="M 53.42442 193.536948 
L 377.742964 193.536948 
" style="fill: none; stroke: #000000; stroke-width: 0.8; stroke-linejoin: miter; stroke-linecap: square"/>
   </g>
   <g id="patch_6">
    <path d="M 53.42442 10.8 
L 377.742964 10.8 
" style="fill: none; stroke: #000000; stroke-width: 0.8; stroke-linejoin: miter; stroke-linecap: square"/>
   </g>
   <g id="legend_1">
    <g id="line2d_23">
     <path d="M 205.268901 31.866486 
L 219.268901 31.866486 
L 233.268901 31.866486 
" style="fill: none; stroke: #1f77b4; stroke-width: 3; stroke-linecap: square"/>
    </g>
    <g id="text_15">
     <!-- $\hat{\phi}$ -->
     <g transform="translate(244.468901 36.766486) scale(0.14 -0.14)">
      <defs>
       <path id="CMR17-5e" d="M 1466 4421 
L 678 3555 
L 755 3478 
L 1466 4166 
L 2176 3478 
L 2253 3555 
L 1466 4421 
z
" transform="scale(0.015625)"/>
      </defs>
      <use xlink:href="#CMR17-5e" transform="translate(14.151005 26.296621) scale(0.996264)"/>
      <use xlink:href="#CMMI12-1e" transform="scale(0.996264)"/>
     </g>
    </g>
    <g id="line2d_24">
     <path d="M 205.268901 51.378515 
L 219.268901 51.378515 
L 233.268901 51.378515 
" style="fill: none; stroke-dasharray: 3,4.95; stroke-dashoffset: 0; stroke: #d62728; stroke-width: 3"/>
    </g>
    <g id="text_16">
     <!-- $\phi^s_9$ -->
     <g transform="translate(244.468901 56.278515) scale(0.14 -0.14)">
      <defs>
       <path id="CMMI12-73" d="M 1459 1280 
C 1568 1261 1741 1223 1779 1216 
C 1862 1192 2150 1090 2150 783 
C 2150 586 1971 70 1229 70 
C 1094 70 614 70 486 436 
C 742 404 870 603 870 745 
C 870 880 781 950 653 950 
C 512 950 326 841 326 552 
C 326 173 710 -64 1222 -64 
C 2195 -64 2483 651 2483 984 
C 2483 1079 2483 1258 2278 1462 
C 2118 1616 1965 1648 1619 1718 
C 1446 1756 1171 1814 1171 2101 
C 1171 2229 1286 2689 1894 2689 
C 2163 2689 2426 2589 2490 2368 
C 2208 2368 2195 2125 2195 2119 
C 2195 1984 2317 1946 2374 1946 
C 2464 1946 2643 2015 2643 2281 
C 2643 2545 2400 2816 1901 2816 
C 1062 2816 838 2160 838 1899 
C 838 1414 1312 1312 1459 1280 
z
" transform="scale(0.015625)"/>
       <path id="CMR17-39" d="M 2253 1864 
C 2253 464 1670 31 1190 31 
C 1043 31 685 31 538 294 
C 704 268 826 357 826 518 
C 826 692 685 749 595 749 
C 538 749 365 723 365 506 
C 365 71 742 -128 1203 -128 
C 1939 -128 2688 674 2688 2073 
C 2688 3817 1971 4179 1485 4179 
C 851 4179 243 3628 243 2778 
C 243 1991 762 1408 1414 1408 
C 1952 1408 2189 1903 2253 2112 
L 2253 1864 
z
M 1427 1510 
C 1254 1510 1011 1542 813 1922 
C 678 2169 678 2461 678 2771 
C 678 3146 678 3405 858 3684 
C 947 3817 1114 4032 1485 4032 
C 2240 4032 2240 2885 2240 2632 
C 2240 2182 2035 1510 1427 1510 
z
" transform="scale(0.015625)"/>
      </defs>
      <use xlink:href="#CMMI12-1e" transform="scale(0.996264)"/>
      <use xlink:href="#CMMI12-73" transform="translate(57.73418 36.153639) scale(0.697382)"/>
      <use xlink:href="#CMR17-39" transform="translate(57.73418 -24.740171) scale(0.697382)"/>
     </g>
    </g>
    <g id="line2d_25">
     <path d="M 205.268901 71.640493 
L 219.268901 71.640493 
L 233.268901 71.640493 
" style="fill: none; stroke-dasharray: 11.1,4.8; stroke-dashoffset: 0; stroke: #d62728; stroke-width: 3"/>
    </g>
    <g id="text_17">
     <!-- $\phi^s_{10}$ -->
     <g transform="translate(244.468901 76.540493) scale(0.14 -0.14)">
      <use xlink:href="#CMMI12-1e" transform="scale(0.996264)"/>
      <use xlink:href="#CMMI12-73" transform="translate(57.73418 36.153639) scale(0.697382)"/>
      <use xlink:href="#CMR17-31" transform="translate(57.73418 -24.740171) scale(0.697382)"/>
      <use xlink:href="#CMR17-30" transform="translate(89.717362 -24.740171) scale(0.697382)"/>
     </g>
    </g>
    <g id="line2d_26">
     <path d="M 290.586126 31.866486 
L 304.586126 31.866486 
L 318.586126 31.866486 
" style="fill: none; stroke-dasharray: 19.2,4.8,3,4.8; stroke-dashoffset: 0; stroke: #d62728; stroke-width: 3"/>
    </g>
    <g id="text_18">
     <!-- $\phi^s_{13}$ -->
     <g transform="translate(329.786126 36.766486) scale(0.14 -0.14)">
      <use xlink:href="#CMMI12-1e" transform="scale(0.996264)"/>
      <use xlink:href="#CMMI12-73" transform="translate(57.73418 36.153639) scale(0.697382)"/>
      <use xlink:href="#CMR17-31" transform="translate(57.73418 -24.740171) scale(0.697382)"/>
      <use xlink:href="#CMR17-33" transform="translate(89.717362 -24.740171) scale(0.697382)"/>
     </g>
    </g>
    <g id="line2d_27">
     <path d="M 290.586126 52.128464 
L 304.586126 52.128464 
L 318.586126 52.128464 
" style="fill: none; stroke-dasharray: 11.1,4.8; stroke-dashoffset: 0; stroke: #ff7f0e; stroke-width: 3"/>
    </g>
    <g id="text_19">
     <!-- $\phi^*$ -->
     <g transform="translate(329.786126 57.028464) scale(0.14 -0.14)">
      <defs>
       <path id="CMSY10-3" d="M 1760 2719 
C 1766 2808 1766 2962 1600 2962 
C 1498 2962 1414 2879 1434 2795 
L 1434 2712 
L 1523 1720 
L 704 2316 
C 646 2348 634 2360 589 2360 
C 499 2360 416 2271 416 2181 
C 416 2079 480 2053 544 2021 
L 1453 1586 
L 570 1158 
C 467 1107 416 1081 416 985 
C 416 889 499 806 589 806 
C 634 806 646 806 806 928 
L 1523 1446 
L 1427 371 
C 1427 236 1542 204 1594 204 
C 1670 204 1766 248 1766 371 
L 1670 1446 
L 2490 851 
C 2547 819 2560 806 2605 806 
C 2694 806 2778 896 2778 985 
C 2778 1081 2720 1113 2643 1152 
C 2259 1343 2246 1343 1741 1580 
L 2624 2008 
C 2726 2060 2778 2085 2778 2181 
C 2778 2277 2694 2360 2605 2360 
C 2560 2360 2547 2360 2387 2239 
L 1670 1720 
L 1760 2719 
z
" transform="scale(0.015625)"/>
      </defs>
      <use xlink:href="#CMMI12-1e" transform="scale(0.996264)"/>
      <use xlink:href="#CMSY10-3" transform="translate(57.73418 36.153639) scale(0.697382)"/>
     </g>
    </g>
    <g id="line2d_28">
     <path d="M 290.586126 71.640493 
L 304.586126 71.640493 
L 318.586126 71.640493 
" style="fill: none; stroke-dasharray: 19.2,4.8,3,4.8; stroke-dashoffset: 0; stroke: #8c564b; stroke-width: 3"/>
    </g>
    <g id="text_20">
     <!-- $\phi^s_{s} \cdot dt$ -->
     <g transform="translate(329.786126 76.540493) scale(0.14 -0.14)">
      <defs>
       <path id="CMSY10-1" d="M 1229 1619 
C 1229 1805 1075 1958 890 1958 
C 704 1958 550 1805 550 1619 
C 550 1433 704 1280 890 1280 
C 1075 1280 1229 1433 1229 1619 
z
" transform="scale(0.015625)"/>
       <path id="CMMI12-64" d="M 3219 4257 
C 3226 4282 3238 4320 3238 4352 
C 3238 4416 3174 4416 3162 4416 
C 3155 4416 2842 4388 2810 4380 
C 2701 4373 2605 4358 2490 4358 
C 2330 4345 2285 4339 2285 4224 
C 2285 4160 2336 4160 2426 4160 
C 2739 4160 2746 4103 2746 4040 
C 2746 4002 2733 3952 2726 3933 
L 2336 2395 
C 2266 2561 2093 2816 1760 2816 
C 1037 2816 256 1884 256 939 
C 256 307 627 -64 1062 -64 
C 1414 -64 1715 211 1894 422 
C 1958 45 2259 -64 2451 -64 
C 2643 -64 2797 51 2912 281 
C 3014 498 3104 888 3104 913 
C 3104 945 3078 971 3040 971 
C 2982 971 2976 939 2950 843 
C 2854 466 2733 64 2470 64 
C 2285 64 2272 229 2272 357 
C 2272 382 2272 515 2317 694 
L 3219 4257 
z
M 1926 760 
C 1894 651 1894 639 1805 517 
C 1664 338 1382 64 1082 64 
C 819 64 672 300 672 677 
C 672 1028 870 1743 992 2012 
C 1210 2459 1510 2689 1760 2689 
C 2182 2689 2266 2165 2266 2114 
C 2266 2108 2246 2024 2240 2012 
L 1926 760 
z
" transform="scale(0.015625)"/>
      </defs>
      <use xlink:href="#CMMI12-1e" transform="scale(0.996264)"/>
      <use xlink:href="#CMMI12-73" transform="translate(57.73418 36.153639) scale(0.697382)"/>
      <use xlink:href="#CMMI12-73" transform="translate(57.73418 -24.62935) scale(0.697382)"/>
      <use xlink:href="#CMSY10-1" transform="translate(112.536408 0) scale(0.996264)"/>
      <use xlink:href="#CMMI12-64" transform="translate(162.3497 0) scale(0.996264)"/>
      <use xlink:href="#CMMI12-74" transform="translate(213.038797 0) scale(0.996264)"/>
     </g>
    </g>
   </g>
  </g>
 </g>
 <defs>
  <clipPath id="p2e2f2a90fb">
   <rect x="53.42442" y="10.8" width="324.318544" height="182.736948"/>
  </clipPath>
 </defs>
</svg>
