<?xml version="1.0" encoding="utf-8" standalone="no"?>
<!DOCTYPE svg PUBLIC "-//W3C//DTD SVG 1.1//EN"
  "http://www.w3.org/Graphics/SVG/1.1/DTD/svg11.dtd">
<svg xmlns:xlink="http://www.w3.org/1999/xlink" width="388.542964pt" height="240.132758pt" viewBox="0 0 388.542964 240.132758" xmlns="http://www.w3.org/2000/svg" version="1.1">
 <metadata>
  <rdf:RDF xmlns:dc="http://purl.org/dc/elements/1.1/" xmlns:cc="http://creativecommons.org/ns#" xmlns:rdf="http://www.w3.org/1999/02/22-rdf-syntax-ns#">
   <cc:Work>
    <dc:type rdf:resource="http://purl.org/dc/dcmitype/StillImage"/>
    <dc:date>2024-12-28T11:32:57.816506</dc:date>
    <dc:format>image/svg+xml</dc:format>
    <dc:creator>
     <cc:Agent>
      <dc:title>Matplotlib v3.7.5, https://matplotlib.org/</dc:title>
     </cc:Agent>
    </dc:creator>
   </cc:Work>
  </rdf:RDF>
 </metadata>
 <defs>
  <style type="text/css">*{stroke-linejoin: round; stroke-linecap: butt}</style>
 </defs>
 <g id="figure_1">
  <g id="patch_1">
   <path d="M 0 240.132758 
L 388.542964 240.132758 
L 388.542964 0 
L 0 0 
z
" style="fill: #ffffff"/>
  </g>
  <g id="axes_1">
   <g id="patch_2">
    <path d="M 53.42442 193.536948 
L 377.742964 193.536948 
L 377.742964 10.8 
L 53.42442 10.8 
z
" style="fill: #ffffff"/>
   </g>
   <g id="matplotlib.axis_1">
    <g id="xtick_1">
     <g id="line2d_1">
      <defs>
       <path id="mbe9d234a66" d="M 0 0 
L 0 3.5 
" style="stroke: #000000; stroke-width: 0.8"/>
      </defs>
      <g>
       <use xlink:href="#mbe9d234a66" x="73.326083" y="193.536948" style="stroke: #000000; stroke-width: 0.8"/>
      </g>
     </g>
     <g id="text_1">
      <!-- $\mathdefault{0.1}$ -->
      <g transform="translate(64.600792 210.222825) scale(0.14 -0.14)">
       <defs>
        <path id="CMR17-30" d="M 2688 2025 
C 2688 2416 2682 3080 2413 3591 
C 2176 4039 1798 4198 1466 4198 
C 1158 4198 768 4058 525 3597 
C 269 3118 243 2524 243 2025 
C 243 1661 250 1106 448 619 
C 723 -39 1216 -128 1466 -128 
C 1760 -128 2208 -7 2470 600 
C 2662 1042 2688 1559 2688 2025 
z
M 1466 -26 
C 1056 -26 813 325 723 812 
C 653 1188 653 1738 653 2096 
C 653 2588 653 2997 736 3387 
C 858 3929 1216 4096 1466 4096 
C 1728 4096 2067 3923 2189 3400 
C 2272 3036 2278 2607 2278 2096 
C 2278 1680 2278 1169 2202 792 
C 2067 95 1690 -26 1466 -26 
z
" transform="scale(0.015625)"/>
        <path id="CMMI12-3a" d="M 1178 307 
C 1178 492 1024 619 870 619 
C 685 619 557 466 557 313 
C 557 128 710 0 864 0 
C 1050 0 1178 153 1178 307 
z
" transform="scale(0.015625)"/>
        <path id="CMR17-31" d="M 1702 4058 
C 1702 4192 1696 4192 1606 4192 
C 1357 3916 979 3827 621 3827 
C 602 3827 570 3827 563 3808 
C 557 3795 557 3782 557 3648 
C 755 3648 1088 3686 1344 3839 
L 1344 461 
C 1344 236 1331 160 781 160 
L 589 160 
L 589 0 
C 896 0 1216 0 1523 0 
C 1830 0 2150 0 2458 0 
L 2458 160 
L 2266 160 
C 1715 160 1702 230 1702 458 
L 1702 4058 
z
" transform="scale(0.015625)"/>
       </defs>
       <use xlink:href="#CMR17-30" transform="scale(0.996264)"/>
       <use xlink:href="#CMMI12-3a" transform="translate(45.690477 0) scale(0.996264)"/>
       <use xlink:href="#CMR17-31" transform="translate(72.787654 0) scale(0.996264)"/>
      </g>
     </g>
    </g>
    <g id="xtick_2">
     <g id="line2d_2">
      <g>
       <use xlink:href="#mbe9d234a66" x="126.753774" y="193.536948" style="stroke: #000000; stroke-width: 0.8"/>
      </g>
     </g>
     <g id="text_2">
      <!-- $\mathdefault{0.2}$ -->
      <g transform="translate(118.028483 210.222825) scale(0.14 -0.14)">
       <defs>
        <path id="CMR17-32" d="M 2669 989 
L 2554 989 
C 2490 536 2438 459 2413 420 
C 2381 369 1920 369 1830 369 
L 602 369 
C 832 619 1280 1072 1824 1597 
C 2214 1967 2669 2402 2669 3035 
C 2669 3790 2067 4224 1395 4224 
C 691 4224 262 3604 262 3030 
C 262 2780 448 2748 525 2748 
C 589 2748 781 2787 781 3010 
C 781 3207 614 3264 525 3264 
C 486 3264 448 3258 422 3245 
C 544 3790 915 4058 1306 4058 
C 1862 4058 2227 3617 2227 3035 
C 2227 2479 1901 2000 1536 1584 
L 262 146 
L 262 0 
L 2515 0 
L 2669 989 
z
" transform="scale(0.015625)"/>
       </defs>
       <use xlink:href="#CMR17-30" transform="scale(0.996264)"/>
       <use xlink:href="#CMMI12-3a" transform="translate(45.690477 0) scale(0.996264)"/>
       <use xlink:href="#CMR17-32" transform="translate(72.787654 0) scale(0.996264)"/>
      </g>
     </g>
    </g>
    <g id="xtick_3">
     <g id="line2d_3">
      <g>
       <use xlink:href="#mbe9d234a66" x="180.181465" y="193.536948" style="stroke: #000000; stroke-width: 0.8"/>
      </g>
     </g>
     <g id="text_3">
      <!-- $\mathdefault{0.3}$ -->
      <g transform="translate(171.456174 210.222825) scale(0.14 -0.14)">
       <defs>
        <path id="CMR17-33" d="M 1414 2157 
C 1984 2157 2234 1662 2234 1090 
C 2234 320 1824 25 1453 25 
C 1114 25 563 194 390 693 
C 422 680 454 680 486 680 
C 640 680 755 782 755 948 
C 755 1133 614 1216 486 1216 
C 378 1216 211 1165 211 926 
C 211 335 787 -128 1466 -128 
C 2176 -128 2720 430 2720 1085 
C 2720 1707 2208 2157 1600 2227 
C 2086 2328 2554 2756 2554 3329 
C 2554 3820 2048 4179 1472 4179 
C 890 4179 378 3829 378 3329 
C 378 3110 544 3072 627 3072 
C 762 3072 877 3155 877 3321 
C 877 3486 762 3569 627 3569 
C 602 3569 570 3569 544 3557 
C 730 3959 1235 4032 1459 4032 
C 1683 4032 2106 3925 2106 3320 
C 2106 3143 2080 2828 1862 2550 
C 1670 2304 1453 2304 1242 2284 
C 1210 2284 1062 2269 1037 2269 
C 992 2263 966 2257 966 2208 
C 966 2163 973 2157 1101 2157 
L 1414 2157 
z
" transform="scale(0.015625)"/>
       </defs>
       <use xlink:href="#CMR17-30" transform="scale(0.996264)"/>
       <use xlink:href="#CMMI12-3a" transform="translate(45.690477 0) scale(0.996264)"/>
       <use xlink:href="#CMR17-33" transform="translate(72.787654 0) scale(0.996264)"/>
      </g>
     </g>
    </g>
    <g id="xtick_4">
     <g id="line2d_4">
      <g>
       <use xlink:href="#mbe9d234a66" x="233.609156" y="193.536948" style="stroke: #000000; stroke-width: 0.8"/>
      </g>
     </g>
     <g id="text_4">
      <!-- $\mathdefault{0.4}$ -->
      <g transform="translate(224.883865 210.222825) scale(0.14 -0.14)">
       <defs>
        <path id="CMR17-34" d="M 2150 4122 
C 2150 4256 2144 4256 2029 4256 
L 128 1254 
L 128 1088 
L 1779 1088 
L 1779 457 
C 1779 224 1766 160 1318 160 
L 1197 160 
L 1197 0 
C 1402 0 1747 0 1965 0 
C 2182 0 2528 0 2733 0 
L 2733 160 
L 2611 160 
C 2163 160 2150 224 2150 457 
L 2150 1088 
L 2803 1088 
L 2803 1254 
L 2150 1254 
L 2150 4122 
z
M 1798 3703 
L 1798 1254 
L 256 1254 
L 1798 3703 
z
" transform="scale(0.015625)"/>
       </defs>
       <use xlink:href="#CMR17-30" transform="scale(0.996264)"/>
       <use xlink:href="#CMMI12-3a" transform="translate(45.690477 0) scale(0.996264)"/>
       <use xlink:href="#CMR17-34" transform="translate(72.787654 0) scale(0.996264)"/>
      </g>
     </g>
    </g>
    <g id="xtick_5">
     <g id="line2d_5">
      <g>
       <use xlink:href="#mbe9d234a66" x="287.036847" y="193.536948" style="stroke: #000000; stroke-width: 0.8"/>
      </g>
     </g>
     <g id="text_5">
      <!-- $\mathdefault{0.5}$ -->
      <g transform="translate(278.311556 210.222825) scale(0.14 -0.14)">
       <defs>
        <path id="CMR17-35" d="M 730 3692 
C 794 3666 1056 3584 1325 3584 
C 1920 3584 2246 3911 2432 4100 
C 2432 4157 2432 4192 2394 4192 
C 2387 4192 2374 4192 2323 4163 
C 2099 4058 1837 3973 1517 3973 
C 1325 3973 1037 3999 723 4139 
C 653 4171 640 4171 634 4171 
C 602 4171 595 4164 595 4037 
L 595 2203 
C 595 2089 595 2057 659 2057 
C 691 2057 704 2070 736 2114 
C 941 2401 1222 2522 1542 2522 
C 1766 2522 2246 2382 2246 1289 
C 2246 1085 2246 715 2054 421 
C 1894 159 1645 25 1370 25 
C 947 25 518 320 403 814 
C 429 807 480 795 506 795 
C 589 795 749 840 749 1038 
C 749 1210 627 1280 506 1280 
C 358 1280 262 1190 262 1011 
C 262 454 704 -128 1382 -128 
C 2042 -128 2669 440 2669 1264 
C 2669 2030 2170 2624 1549 2624 
C 1222 2624 947 2503 730 2274 
L 730 3692 
z
" transform="scale(0.015625)"/>
       </defs>
       <use xlink:href="#CMR17-30" transform="scale(0.996264)"/>
       <use xlink:href="#CMMI12-3a" transform="translate(45.690477 0) scale(0.996264)"/>
       <use xlink:href="#CMR17-35" transform="translate(72.787654 0) scale(0.996264)"/>
      </g>
     </g>
    </g>
    <g id="xtick_6">
     <g id="line2d_6">
      <g>
       <use xlink:href="#mbe9d234a66" x="340.464538" y="193.536948" style="stroke: #000000; stroke-width: 0.8"/>
      </g>
     </g>
     <g id="text_6">
      <!-- $\mathdefault{0.6}$ -->
      <g transform="translate(331.739247 210.222825) scale(0.14 -0.14)">
       <defs>
        <path id="CMR17-36" d="M 678 2176 
C 678 3690 1395 4032 1811 4032 
C 1946 4032 2272 4009 2400 3776 
C 2298 3776 2106 3776 2106 3553 
C 2106 3381 2246 3323 2336 3323 
C 2394 3323 2566 3348 2566 3560 
C 2566 3954 2246 4179 1805 4179 
C 1043 4179 243 3390 243 1984 
C 243 253 966 -128 1478 -128 
C 2099 -128 2688 427 2688 1283 
C 2688 2081 2170 2662 1517 2662 
C 1126 2662 838 2407 678 1960 
L 678 2176 
z
M 1478 25 
C 691 25 691 1200 691 1436 
C 691 1896 909 2560 1504 2560 
C 1613 2560 1926 2560 2138 2120 
C 2253 1870 2253 1609 2253 1289 
C 2253 944 2253 690 2118 434 
C 1978 171 1773 25 1478 25 
z
" transform="scale(0.015625)"/>
       </defs>
       <use xlink:href="#CMR17-30" transform="scale(0.996264)"/>
       <use xlink:href="#CMMI12-3a" transform="translate(45.690477 0) scale(0.996264)"/>
       <use xlink:href="#CMR17-36" transform="translate(72.787654 0) scale(0.996264)"/>
      </g>
     </g>
    </g>
    <g id="text_7">
     <!-- P -->
     <g transform="translate(210.937731 226.620729) scale(0.14 -0.14)">
      <defs>
       <path id="CMR17-50" d="M 1267 2042 
L 2291 2042 
C 3117 2042 3718 2578 3718 3184 
C 3718 3791 3130 4352 2291 4352 
L 333 4352 
L 333 4186 
C 774 4186 845 4186 845 3899 
L 845 446 
C 845 160 774 160 333 160 
L 333 0 
C 518 0 858 0 1056 0 
C 1254 0 1594 0 1779 0 
L 1779 160 
C 1338 160 1267 160 1267 446 
L 1267 2042 
z
M 1254 2176 
L 1254 3938 
C 1254 4155 1267 4186 1523 4186 
L 2170 4186 
C 2995 4186 3232 3714 3232 3184 
C 3232 2604 2950 2176 2170 2176 
L 1254 2176 
z
" transform="scale(0.015625)"/>
      </defs>
      <use xlink:href="#CMR17-50" transform="scale(0.996264)"/>
     </g>
    </g>
   </g>
   <g id="matplotlib.axis_2">
    <g id="ytick_1">
     <g id="line2d_7">
      <defs>
       <path id="mb39266d111" d="M 0 0 
L -3.5 0 
" style="stroke: #000000; stroke-width: 0.8"/>
      </defs>
      <g>
       <use xlink:href="#mb39266d111" x="53.42442" y="190.239965" style="stroke: #000000; stroke-width: 0.8"/>
      </g>
     </g>
     <g id="text_8">
      <!-- $\mathdefault{−5}$ -->
      <g transform="translate(28.747696 195.082904) scale(0.14 -0.14)">
       <defs>
        <path id="CMSY10-0" d="M 4218 1472 
C 4326 1472 4442 1472 4442 1600 
C 4442 1728 4326 1728 4218 1728 
L 755 1728 
C 646 1728 531 1728 531 1600 
C 531 1472 646 1472 755 1472 
L 4218 1472 
z
" transform="scale(0.015625)"/>
       </defs>
       <use xlink:href="#CMSY10-0" transform="scale(0.996264)"/>
       <use xlink:href="#CMR17-35" transform="translate(77.487468 0) scale(0.996264)"/>
      </g>
     </g>
    </g>
    <g id="ytick_2">
     <g id="line2d_8">
      <g>
       <use xlink:href="#mb39266d111" x="53.42442" y="157.300885" style="stroke: #000000; stroke-width: 0.8"/>
      </g>
     </g>
     <g id="text_9">
      <!-- $\mathdefault{0}$ -->
      <g transform="translate(39.595931 162.143823) scale(0.14 -0.14)">
       <use xlink:href="#CMR17-30" transform="scale(0.996264)"/>
      </g>
     </g>
    </g>
    <g id="ytick_3">
     <g id="line2d_9">
      <g>
       <use xlink:href="#mb39266d111" x="53.42442" y="124.361805" style="stroke: #000000; stroke-width: 0.8"/>
      </g>
     </g>
     <g id="text_10">
      <!-- $\mathdefault{5}$ -->
      <g transform="translate(39.595931 129.204743) scale(0.14 -0.14)">
       <use xlink:href="#CMR17-35" transform="scale(0.996264)"/>
      </g>
     </g>
    </g>
    <g id="ytick_4">
     <g id="line2d_10">
      <g>
       <use xlink:href="#mb39266d111" x="53.42442" y="91.422725" style="stroke: #000000; stroke-width: 0.8"/>
      </g>
     </g>
     <g id="text_11">
      <!-- $\mathdefault{10}$ -->
      <g transform="translate(32.767443 96.265663) scale(0.14 -0.14)">
       <use xlink:href="#CMR17-31" transform="scale(0.996264)"/>
       <use xlink:href="#CMR17-30" transform="translate(45.690477 0) scale(0.996264)"/>
      </g>
     </g>
    </g>
    <g id="ytick_5">
     <g id="line2d_11">
      <g>
       <use xlink:href="#mb39266d111" x="53.42442" y="58.483645" style="stroke: #000000; stroke-width: 0.8"/>
      </g>
     </g>
     <g id="text_12">
      <!-- $\mathdefault{15}$ -->
      <g transform="translate(32.767443 63.326583) scale(0.14 -0.14)">
       <use xlink:href="#CMR17-31" transform="scale(0.996264)"/>
       <use xlink:href="#CMR17-35" transform="translate(45.690477 0) scale(0.996264)"/>
      </g>
     </g>
    </g>
    <g id="ytick_6">
     <g id="line2d_12">
      <g>
       <use xlink:href="#mb39266d111" x="53.42442" y="25.544565" style="stroke: #000000; stroke-width: 0.8"/>
      </g>
     </g>
     <g id="text_13">
      <!-- $\mathdefault{20}$ -->
      <g transform="translate(32.767443 30.387503) scale(0.14 -0.14)">
       <use xlink:href="#CMR17-32" transform="scale(0.996264)"/>
       <use xlink:href="#CMR17-30" transform="translate(45.690477 0) scale(0.996264)"/>
      </g>
     </g>
    </g>
    <g id="text_14">
     <!-- $\phi(P, S)$ -->
     <g transform="translate(21.260772 123.776698) rotate(-90) scale(0.14 -0.14)">
      <defs>
       <path id="CMMI12-1e" d="M 2752 4390 
C 2752 4448 2707 4448 2688 4448 
C 2630 4448 2624 4435 2598 4326 
L 2253 2939 
C 2234 2856 2227 2849 2221 2843 
C 2214 2830 2170 2824 2157 2824 
C 1107 2734 301 1864 301 1057 
C 301 361 832 -64 1498 -64 
C 1446 -261 1402 -463 1350 -659 
C 1261 -995 1210 -1204 1210 -1229 
C 1210 -1241 1210 -1280 1274 -1280 
C 1293 -1280 1318 -1280 1331 -1254 
C 1344 -1241 1382 -1089 1408 -1008 
L 1645 -64 
C 2739 -64 3571 854 3571 1680 
C 3571 2343 3085 2816 2374 2816 
L 2752 4390 
z
M 2336 2701 
C 2758 2701 3181 2463 3181 1828 
C 3181 1097 2675 128 1677 50 
L 2336 2701 
z
M 1530 50 
C 1216 50 691 220 691 938 
C 691 1761 1274 2676 2195 2676 
L 1530 50 
z
" transform="scale(0.015625)"/>
       <path id="CMR17-28" d="M 1958 -1561 
C 1958 -1555 1958 -1542 1939 -1523 
C 1645 -1224 858 -407 858 1581 
C 858 3569 1632 4379 1946 4697 
C 1946 4704 1958 4717 1958 4736 
C 1958 4755 1939 4768 1914 4768 
C 1843 4768 1299 4296 986 3594 
C 666 2887 576 2199 576 1588 
C 576 1128 621 351 1005 -471 
C 1312 -1135 1837 -1600 1914 -1600 
C 1946 -1600 1958 -1587 1958 -1561 
z
" transform="scale(0.015625)"/>
       <path id="CMMI12-50" d="M 1894 2023 
L 2970 2023 
C 3853 2023 4736 2673 4736 3401 
C 4736 3898 4314 4352 3507 4352 
L 1530 4352 
C 1408 4352 1350 4352 1350 4231 
C 1350 4167 1408 4167 1504 4167 
C 1894 4167 1894 4116 1894 4046 
C 1894 4034 1894 3995 1869 3899 
L 1005 472 
C 947 249 934 185 486 185 
C 365 185 301 185 301 70 
C 301 0 358 0 397 0 
C 518 0 646 0 768 0 
L 1517 0 
C 1638 0 1773 0 1894 0 
C 1946 0 2016 0 2016 121 
C 2016 185 1958 185 1862 185 
C 1478 185 1472 230 1472 293 
C 1472 325 1478 369 1485 401 
L 1894 2023 
z
M 2355 3930 
C 2413 4167 2438 4167 2688 4167 
L 3322 4167 
C 3802 4167 4198 4013 4198 3535 
C 4198 3369 4115 2827 3821 2534 
C 3712 2419 3405 2176 2822 2176 
L 1920 2176 
L 2355 3930 
z
" transform="scale(0.015625)"/>
       <path id="CMMI12-3b" d="M 1248 -31 
C 1248 343 1126 619 864 619 
C 659 619 557 453 557 313 
C 557 172 653 0 870 0 
C 954 0 1024 26 1082 83 
C 1094 96 1101 96 1107 96 
C 1120 96 1120 5 1120 -27 
C 1120 -240 1082 -659 710 -1080 
C 640 -1157 640 -1170 640 -1183 
C 640 -1216 672 -1248 704 -1248 
C 755 -1248 1248 -771 1248 -31 
z
" transform="scale(0.015625)"/>
       <path id="CMMI12-53" d="M 4064 4423 
C 4064 4480 4019 4480 4006 4480 
C 3981 4480 3974 4474 3898 4378 
C 3859 4333 3597 4001 3590 3995 
C 3379 4410 2957 4480 2688 4480 
C 1875 4480 1139 3743 1139 3025 
C 1139 2549 1427 2269 1741 2161 
C 1811 2135 2189 2033 2381 1989 
C 2707 1900 2790 1875 2925 1735 
C 2950 1703 3078 1557 3078 1258 
C 3078 667 2528 57 1888 57 
C 1363 57 781 280 781 991 
C 781 1112 806 1265 826 1328 
C 826 1348 832 1378 832 1391 
C 832 1417 819 1449 768 1449 
C 710 1449 704 1436 678 1328 
L 352 24 
C 352 18 326 -64 326 -71 
C 326 -128 378 -128 390 -128 
C 416 -128 422 -122 499 -26 
L 794 356 
C 947 126 1280 -128 1875 -128 
C 2701 -128 3456 666 3456 1460 
C 3456 1728 3392 1963 3149 2197 
C 3014 2331 2899 2363 2310 2516 
C 1882 2630 1824 2649 1709 2751 
C 1600 2858 1517 3011 1517 3227 
C 1517 3761 2061 4308 2669 4308 
C 3296 4308 3590 3926 3590 3323 
C 3590 3158 3558 2986 3558 2961 
C 3558 2903 3610 2903 3629 2903 
C 3686 2903 3693 2922 3718 3024 
L 4064 4423 
z
" transform="scale(0.015625)"/>
       <path id="CMR17-29" d="M 1683 1581 
C 1683 2040 1638 2817 1254 3639 
C 947 4303 422 4768 346 4768 
C 326 4768 301 4761 301 4729 
C 301 4717 307 4710 314 4697 
C 621 4378 1402 3568 1402 1584 
C 1402 -407 627 -1217 314 -1537 
C 307 -1549 301 -1556 301 -1568 
C 301 -1600 326 -1600 346 -1600 
C 416 -1600 960 -1128 1274 -426 
C 1594 281 1683 969 1683 1581 
z
" transform="scale(0.015625)"/>
      </defs>
      <use xlink:href="#CMMI12-1e" transform="scale(0.996264)"/>
      <use xlink:href="#CMR17-28" transform="translate(57.73418 0) scale(0.996264)"/>
      <use xlink:href="#CMMI12-50" transform="translate(93.014948 0) scale(0.996264)"/>
      <use xlink:href="#CMMI12-3b" transform="translate(158.601898 0) scale(0.996264)"/>
      <use xlink:href="#CMMI12-53" transform="translate(202.30348 0) scale(0.996264)"/>
      <use xlink:href="#CMR17-29" transform="translate(268.09792 0) scale(0.996264)"/>
     </g>
    </g>
   </g>
   <g id="line2d_13">
    <path d="M 68.948868 154.651472 
L 69.373876 145.927466 
L 69.633663 143.009244 
L 70.389752 137.396851 
L 71.54849 126.427044 
L 72.318874 121.180356 
L 73.242788 115.887736 
L 75.644093 100.033912 
L 77.174603 91.529888 
L 81.048916 75.405578 
L 83.459835 65.70105 
L 86.232963 56.653828 
L 89.402339 47.874643 
L 92.998877 39.297973 
L 97.047914 31.80312 
L 101.566313 26.191575 
L 106.558499 22.466905 
L 112.013112 20.219331 
L 117.903131 19.106225 
L 124.178973 19.148972 
L 130.772424 21.122472 
L 137.595004 26.377491 
L 144.546509 33.516897 
L 151.513969 39.860771 
L 158.382334 48.789771 
L 165.039771 60.429426 
L 171.383196 65.886073 
L 177.324606 76.952883 
L 182.795627 85.651148 
L 192.143474 103.221902 
L 195.977658 112.382763 
L 199.25095 119.859665 
L 201.980721 127.0449 
L 204.193927 133.36278 
L 205.9213 139.383733 
L 207.201501 144.835304 
L 208.073762 149.359841 
L 208.57789 153.209011 
L 208.752419 156.750407 
L 208.634575 160.061288 
L 208.258274 163.025169 
L 207.655138 165.569892 
L 206.854306 167.764145 
L 205.881127 169.742426 
L 204.75845 171.580061 
L 203.506767 173.256698 
L 202.144692 174.728181 
L 200.687097 175.984277 
L 199.148265 177.048193 
L 197.540503 177.956351 
L 194.159287 179.437607 
L 190.612332 180.622781 
L 186.958185 181.610216 
L 181.364289 182.807424 
L 175.733531 183.688209 
L 170.150605 184.236999 
L 166.488608 184.406863 
L 162.894936 184.414298 
L 159.38462 184.257663 
L 155.971144 183.938304 
L 152.667019 183.460466 
L 149.482448 182.831217 
L 146.42764 182.06025 
L 143.510722 181.158708 
L 140.739274 180.138374 
L 138.119664 179.008682 
L 135.65683 177.776661 
L 133.355109 176.446433 
L 131.21771 175.023367 
L 129.24676 173.520515 
L 126.60489 171.176387 
L 124.340875 168.841497 
L 122.452372 166.615379 
L 120.933562 164.481142 
L 120.122866 163.054242 
L 119.470744 161.581257 
L 118.974242 160.043328 
L 118.630671 158.443635 
L 118.437226 156.807112 
L 118.423174 154.367588 
L 118.594359 152.80534 
L 118.907614 151.322405 
L 119.361371 149.922911 
L 120.303047 147.944571 
L 121.555868 146.016457 
L 123.120193 144.017954 
L 124.998768 141.886566 
L 127.196522 139.729683 
L 128.84265 138.455254 
L 130.637113 137.477743 
L 132.583272 136.814693 
L 135.795899 135.866754 
L 138.140451 134.842994 
L 140.653641 133.455893 
L 146.210399 130.251602 
L 149.268352 128.74519 
L 152.52264 127.421855 
L 155.981765 126.312967 
L 159.653777 125.420689 
L 163.546445 124.729116 
L 167.668384 124.213004 
L 172.025932 123.843827 
L 179.018366 123.504226 
L 189.208555 123.325755 
L 203.320679 123.351856 
L 225.354183 123.649609 
L 238.81658 124.031703 
L 249.129295 124.579077 
L 256.032498 125.180592 
L 262.905035 126.080871 
L 266.316966 126.67867 
L 269.704678 127.392898 
L 273.062519 128.232785 
L 276.385505 129.199864 
L 282.9051 131.455808 
L 292.292196 134.995431 
L 295.29891 135.992885 
L 301.103591 137.564267 
L 311.792208 139.986334 
L 316.638216 141.353149 
L 325.279238 144.185203 
L 329.069794 145.540766 
L 332.512567 147.043014 
L 335.616696 148.831758 
L 338.3939 150.802157 
L 343.033072 154.25734 
L 345.781616 155.967648 
L 347.978406 157.058756 
L 350.596702 158.079341 
L 353.161465 159.066388 
L 353.093635 159.181786 
L 352.6221 159.306698 
L 350.896494 159.467022 
L 346.051378 159.64158 
L 337.968064 159.742973 
L 337.968064 159.742973 
" clip-path="url(#pdd8087c740)" style="fill: none; stroke: #1f77b4; stroke-width: 2; stroke-linecap: square"/>
   </g>
   <g id="line2d_14">
    <path d="M 68.166172 154.698965 
L 68.925951 143.004418 
L 69.71871 137.072441 
L 70.915818 126.031219 
L 71.706686 120.972316 
L 72.652251 115.782518 
L 75.101193 99.999107 
L 76.658042 91.54998 
L 83.033739 65.723805 
L 85.840058 56.681774 
L 89.043513 47.916837 
L 92.673967 39.340393 
L 96.755335 31.835212 
L 101.302768 26.212433 
L 106.31856 22.479922 
L 111.789263 20.227675 
L 117.68495 19.111804 
L 123.954288 19.151711 
L 130.526435 21.118426 
L 137.312209 26.361483 
L 144.210731 33.499104 
L 151.11005 39.871451 
L 157.897074 48.868907 
L 164.462207 60.534716 
L 170.706546 66.053153 
L 176.545732 77.014761 
L 181.914704 85.807737 
L 191.075045 103.408678 
L 194.829155 112.577682 
L 198.034217 120.049451 
L 200.708402 127.211399 
L 202.878729 133.499424 
L 204.577202 139.49665 
L 205.840509 144.9454 
L 206.707945 149.475196 
L 207.21771 153.321354 
L 207.407429 156.852173 
L 207.312689 160.153558 
L 206.966928 163.113352 
L 206.400064 165.655022 
L 205.640551 167.837969 
L 204.712195 169.792191 
L 203.637429 171.600807 
L 202.435807 173.256296 
L 201.125306 174.719907 
L 199.720255 175.97849 
L 198.234716 177.050069 
L 196.679945 177.967342 
L 193.405491 179.464424 
L 189.964103 180.659669 
L 186.414378 181.651832 
L 182.798891 182.485408 
L 177.332965 183.464198 
L 171.904251 184.107254 
L 168.349191 184.335637 
L 164.871245 184.394423 
L 161.491574 184.277306 
L 158.228759 183.979588 
L 155.102004 183.497801 
L 152.12708 182.829024 
L 149.319949 181.970031 
L 146.695666 180.915971 
L 144.267113 179.658944 
L 142.046885 178.187153 
L 140.04557 176.484968 
L 138.273677 174.537921 
L 136.739485 172.34423 
L 135.45079 169.929152 
L 134.413841 167.356256 
L 133.634393 164.723119 
L 133.115751 162.131092 
L 132.861251 159.640458 
L 132.872994 157.241533 
L 133.151633 154.865088 
L 133.69732 152.432623 
L 134.509743 149.914852 
L 135.58716 147.358227 
L 136.9284 144.846147 
L 138.532341 142.425508 
L 140.396872 140.061784 
L 143.682098 136.434403 
L 146.198114 133.952527 
L 147.554433 132.759459 
L 148.976449 131.657427 
L 150.46526 130.687824 
L 152.020908 129.865277 
L 155.335399 128.487791 
L 158.925377 126.96234 
L 169.149322 122.168671 
L 171.414739 121.340884 
L 173.755359 120.615457 
L 176.172058 119.998552 
L 178.665185 119.490184 
L 183.881794 118.779568 
L 189.404421 118.423469 
L 195.23055 118.346085 
L 201.350644 118.473403 
L 211.052484 118.910599 
L 232.034994 120.16372 
L 254.306494 121.652804 
L 261.80121 122.296186 
L 269.242904 123.117756 
L 276.580017 124.225566 
L 280.193099 124.927616 
L 283.760721 125.75038 
L 287.276547 126.706467 
L 290.735975 127.801178 
L 294.133209 129.026461 
L 300.720141 131.741734 
L 306.998522 134.412205 
L 310.012465 135.5635 
L 312.937941 136.54023 
L 318.516361 138.026097 
L 328.52043 140.386359 
L 332.930315 141.685064 
L 340.566138 144.235016 
L 345.288904 146.015047 
L 347.984234 147.324235 
L 350.336716 148.796133 
L 352.365968 150.34379 
L 356.160536 153.67077 
L 359.28546 156.619557 
L 359.525288 157.077114 
L 359.464495 157.403817 
L 359.154003 157.641707 
L 358.430284 157.867372 
L 356.858269 158.086272 
L 353.489568 158.296293 
L 324.419285 159.445742 
L 324.419285 159.445742 
" clip-path="url(#pdd8087c740)" style="fill: none; stroke: #1f77b4; stroke-width: 2; stroke-linecap: square"/>
   </g>
   <g id="line2d_15">
    <path d="M 68.241494 154.694486 
L 68.357395 149.799136 
L 68.723136 143.002798 
L 69.416171 136.919302 
L 70.538848 125.803135 
L 71.301454 120.841383 
L 72.224373 115.708203 
L 74.644017 99.968052 
L 76.193231 91.565221 
L 82.566182 65.747667 
L 85.375116 56.714393 
L 88.580274 47.970843 
L 92.21017 39.400455 
L 96.2863 31.886277 
L 100.821441 26.25038 
L 105.815371 22.507063 
L 111.251999 20.247603 
L 117.099146 19.126631 
L 123.303678 19.159451 
L 129.793147 21.106363 
L 136.478871 26.314564 
L 143.261396 33.448969 
L 150.030332 39.900628 
L 156.675915 49.063769 
L 163.092871 60.776384 
L 169.186486 66.415385 
L 174.877017 77.146734 
L 180.103912 86.122333 
L 184.824067 95.628469 
L 189.012993 103.752671 
L 192.663111 112.928315 
L 195.78079 120.383615 
L 198.38517 127.49773 
L 200.503238 133.729205 
L 202.165567 139.681636 
L 203.409655 145.121207 
L 204.272314 149.658058 
L 204.791713 153.499887 
L 205.003803 157.014404 
L 204.942708 160.300986 
L 204.6411 163.255079 
L 204.127291 165.79405 
L 203.428953 167.962293 
L 202.569239 169.880682 
L 201.569071 171.641763 
L 200.447907 173.258482 
L 199.222289 174.703829 
L 197.906804 175.962674 
L 196.514317 177.045445 
L 195.056005 177.978136 
L 191.98205 179.504771 
L 188.750269 180.720171 
L 185.416439 181.721949 
L 182.022039 182.555328 
L 178.602593 183.234706 
L 175.188226 183.759438 
L 171.80553 184.122106 
L 168.479072 184.313214 
L 165.230413 184.323615 
L 162.080841 184.144993 
L 159.049319 183.769559 
L 156.155593 183.189562 
L 153.417184 182.395821 
L 150.85129 181.37713 
L 148.475091 180.118173 
L 146.304239 178.59825 
L 144.354322 176.791589 
L 142.639862 174.669599 
L 141.175404 172.210827 
L 139.97422 169.418422 
L 139.050107 166.33896 
L 138.415548 163.071613 
L 138.083098 159.747944 
L 138.06501 156.475871 
L 138.373177 153.284507 
L 139.019472 150.112386 
L 140.015181 146.869532 
L 141.371866 143.531391 
L 143.099869 140.171853 
L 145.209729 136.872967 
L 147.710356 133.616315 
L 150.611431 130.329858 
L 152.213532 128.699063 
L 153.918104 127.136432 
L 155.725601 125.716896 
L 157.635926 124.509478 
L 159.649908 123.527192 
L 176.625982 116.884664 
L 179.452753 116.021119 
L 182.37495 115.29534 
L 185.391185 114.714806 
L 188.498706 114.277369 
L 191.694565 113.974672 
L 194.975357 113.794778 
L 201.779919 113.748607 
L 208.878781 114.028272 
L 216.236562 114.532984 
L 227.666572 115.537787 
L 251.354348 117.894829 
L 263.263566 119.220527 
L 271.1064 120.256822 
L 278.810101 121.531106 
L 282.594639 122.301096 
L 286.327364 123.18667 
L 290.001143 124.207042 
L 293.61241 125.377706 
L 297.154062 126.70343 
L 300.623171 128.173276 
L 307.325415 131.377754 
L 313.684779 134.429754 
L 316.727447 135.699807 
L 319.675374 136.749504 
L 322.526587 137.598033 
L 327.929825 138.914331 
L 332.922991 140.101493 
L 337.50086 141.37473 
L 343.584029 143.328182 
L 350.252198 145.680314 
L 352.991411 146.901329 
L 355.352428 148.261688 
L 357.352063 149.711131 
L 359.716934 151.773071 
L 361.798348 153.867463 
L 362.820203 155.184106 
L 363.001212 155.805325 
L 362.885613 156.099028 
L 362.607412 156.321474 
L 361.929105 156.554698 
L 360.639303 156.73526 
L 357.70905 156.850017 
L 346.629053 157.080699 
L 332.076317 157.94613 
L 325.267838 158.232418 
L 321.930218 158.598475 
L 318.454231 159.01702 
L 316.983579 159.08095 
L 316.983579 159.08095 
" clip-path="url(#pdd8087c740)" style="fill: none; stroke: #1f77b4; stroke-width: 2; stroke-linecap: square"/>
   </g>
   <g id="line2d_16">
    <path d="M 68.457681 154.68148 
L 68.840916 146.010486 
L 69.083725 143.005602 
L 69.800855 137.113273 
L 70.912789 126.029372 
L 71.655944 120.95563 
L 72.549657 115.764546 
L 74.878992 99.984192 
L 76.366422 91.559837 
L 82.481003 65.751901 
L 85.179227 56.727995 
L 88.262043 48.007634 
L 91.758643 39.458356 
L 95.692734 31.95026 
L 100.079062 26.30813 
L 104.920961 22.554661 
L 110.20591 20.285801 
L 115.905597 19.156235 
L 121.971204 19.174907 
L 128.335233 21.08259 
L 134.91039 26.227084 
L 141.599744 33.361891 
L 148.293318 39.949733 
L 154.880345 49.338974 
L 161.252909 61.084616 
L 167.312305 66.838928 
L 172.975275 77.29704 
L 178.176916 86.447352 
L 182.869716 95.986654 
L 187.025809 104.065508 
L 190.635547 113.238853 
L 193.702927 120.674623 
L 196.246019 127.744534 
L 198.29191 133.927616 
L 199.871664 139.842173 
L 201.023098 145.274752 
L 201.784903 149.822299 
L 202.1966 153.667844 
L 202.294939 157.17544 
L 202.116477 160.455454 
L 201.694255 163.412387 
L 201.059035 165.959554 
L 200.238475 168.125167 
L 199.257701 170.014119 
L 198.138352 171.720827 
L 196.900347 173.27946 
L 195.561519 174.684479 
L 194.136199 175.928559 
L 192.637969 177.018721 
L 191.078596 177.974121 
L 187.81567 179.570396 
L 184.413038 180.869176 
L 180.925539 181.960036 
L 177.392102 182.88657 
L 172.076057 183.995938 
L 166.814737 184.763098 
L 163.371534 185.074506 
L 159.99871 185.220489 
L 156.711327 185.199166 
L 153.522027 185.011299 
L 150.443375 184.660304 
L 147.485329 184.15164 
L 144.657801 183.49263 
L 141.970058 182.691271 
L 139.429186 181.754815 
L 137.042884 180.687462 
L 134.817155 179.488147 
L 132.757475 178.150914 
L 130.868924 176.668339 
L 129.155785 175.040315 
L 127.621124 173.284577 
L 126.268229 171.442924 
L 124.584516 168.648663 
L 123.320986 165.959504 
L 122.713854 164.237052 
L 122.296186 162.529085 
L 122.068173 160.78518 
L 122.030253 158.96824 
L 122.182386 157.071839 
L 122.524732 155.123465 
L 123.057482 153.175438 
L 123.780643 151.281491 
L 124.694398 149.475648 
L 125.799664 147.756605 
L 127.096949 146.087638 
L 129.406218 143.546525 
L 132.157125 140.827883 
L 134.240658 138.96802 
L 136.528382 137.261806 
L 137.749637 136.542127 
L 139.023325 135.935607 
L 141.730764 134.972311 
L 144.655508 133.945665 
L 147.80266 132.477712 
L 156.682363 127.764685 
L 160.653483 126.109862 
L 164.871755 124.770365 
L 169.340538 123.756408 
L 174.06254 123.037907 
L 179.039082 122.56704 
L 184.268572 122.292115 
L 192.580106 122.143355 
L 204.489898 122.243396 
L 223.895568 122.683378 
L 241.082698 123.243519 
L 251.615782 123.777935 
L 258.651033 124.311811 
L 265.649232 125.081641 
L 272.567164 126.19546 
L 275.98239 126.917149 
L 279.362157 127.763828 
L 282.700684 128.738622 
L 289.233733 131.023169 
L 298.601403 134.673899 
L 301.59073 135.722022 
L 304.506461 136.621084 
L 310.10488 138.02386 
L 317.868881 139.773981 
L 322.596105 141.066605 
L 328.981774 143.122228 
L 336.154437 145.668245 
L 339.171437 147.033617 
L 341.820719 148.594469 
L 344.115688 150.268848 
L 349.052455 154.385947 
L 351.899751 156.829843 
L 352.137604 157.257625 
L 352.039489 157.555209 
L 351.673203 157.76765 
L 350.627942 158.006537 
L 348.308866 158.240356 
L 334.513763 159.13016 
L 327.810373 159.332742 
L 323.040635 159.394085 
L 323.040635 159.394085 
" clip-path="url(#pdd8087c740)" style="fill: none; stroke: #1f77b4; stroke-width: 2; stroke-linecap: square"/>
   </g>
   <g id="patch_3">
    <path d="M 53.42442 193.536948 
L 53.42442 10.8 
" style="fill: none; stroke: #000000; stroke-width: 0.8; stroke-linejoin: miter; stroke-linecap: square"/>
   </g>
   <g id="patch_4">
    <path d="M 377.742964 193.536948 
L 377.742964 10.8 
" style="fill: none; stroke: #000000; stroke-width: 0.8; stroke-linejoin: miter; stroke-linecap: square"/>
   </g>
   <g id="patch_5">
    <path d="M 53.42442 193.536948 
L 377.742964 193.536948 
" style="fill: none; stroke: #000000; stroke-width: 0.8; stroke-linejoin: miter; stroke-linecap: square"/>
   </g>
   <g id="patch_6">
    <path d="M 53.42442 10.8 
L 377.742964 10.8 
" style="fill: none; stroke: #000000; stroke-width: 0.8; stroke-linejoin: miter; stroke-linecap: square"/>
   </g>
   <g id="legend_1"/>
  </g>
 </g>
 <defs>
  <clipPath id="pdd8087c740">
   <rect x="53.42442" y="10.8" width="324.318544" height="182.736948"/>
  </clipPath>
 </defs>
</svg>
