<?xml version="1.0" encoding="utf-8" standalone="no"?>
<!DOCTYPE svg PUBLIC "-//W3C//DTD SVG 1.1//EN"
  "http://www.w3.org/Graphics/SVG/1.1/DTD/svg11.dtd">
<svg xmlns:xlink="http://www.w3.org/1999/xlink" width="388.542964pt" height="240.132758pt" viewBox="0 0 388.542964 240.132758" xmlns="http://www.w3.org/2000/svg" version="1.1">
 <metadata>
  <rdf:RDF xmlns:dc="http://purl.org/dc/elements/1.1/" xmlns:cc="http://creativecommons.org/ns#" xmlns:rdf="http://www.w3.org/1999/02/22-rdf-syntax-ns#">
   <cc:Work>
    <dc:type rdf:resource="http://purl.org/dc/dcmitype/StillImage"/>
    <dc:date>2024-12-27T13:47:52.257806</dc:date>
    <dc:format>image/svg+xml</dc:format>
    <dc:creator>
     <cc:Agent>
      <dc:title>Matplotlib v3.7.5, https://matplotlib.org/</dc:title>
     </cc:Agent>
    </dc:creator>
   </cc:Work>
  </rdf:RDF>
 </metadata>
 <defs>
  <style type="text/css">*{stroke-linejoin: round; stroke-linecap: butt}</style>
 </defs>
 <g id="figure_1">
  <g id="patch_1">
   <path d="M 0 240.132758 
L 388.542964 240.132758 
L 388.542964 0 
L 0 0 
z
" style="fill: #ffffff"/>
  </g>
  <g id="axes_1">
   <g id="patch_2">
    <path d="M 53.42442 193.536948 
L 377.742964 193.536948 
L 377.742964 10.8 
L 53.42442 10.8 
z
" style="fill: #ffffff"/>
   </g>
   <g id="matplotlib.axis_1">
    <g id="xtick_1">
     <g id="line2d_1">
      <defs>
       <path id="m96bd1c5758" d="M 0 0 
L 0 3.5 
" style="stroke: #000000; stroke-width: 0.8"/>
      </defs>
      <g>
       <use xlink:href="#m96bd1c5758" x="71.802407" y="193.536948" style="stroke: #000000; stroke-width: 0.8"/>
      </g>
     </g>
     <g id="text_1">
      <!-- $\mathdefault{0.1}$ -->
      <g transform="translate(63.077116 210.222825) scale(0.14 -0.14)">
       <defs>
        <path id="CMR17-30" d="M 2688 2025 
C 2688 2416 2682 3080 2413 3591 
C 2176 4039 1798 4198 1466 4198 
C 1158 4198 768 4058 525 3597 
C 269 3118 243 2524 243 2025 
C 243 1661 250 1106 448 619 
C 723 -39 1216 -128 1466 -128 
C 1760 -128 2208 -7 2470 600 
C 2662 1042 2688 1559 2688 2025 
z
M 1466 -26 
C 1056 -26 813 325 723 812 
C 653 1188 653 1738 653 2096 
C 653 2588 653 2997 736 3387 
C 858 3929 1216 4096 1466 4096 
C 1728 4096 2067 3923 2189 3400 
C 2272 3036 2278 2607 2278 2096 
C 2278 1680 2278 1169 2202 792 
C 2067 95 1690 -26 1466 -26 
z
" transform="scale(0.015625)"/>
        <path id="CMMI12-3a" d="M 1178 307 
C 1178 492 1024 619 870 619 
C 685 619 557 466 557 313 
C 557 128 710 0 864 0 
C 1050 0 1178 153 1178 307 
z
" transform="scale(0.015625)"/>
        <path id="CMR17-31" d="M 1702 4058 
C 1702 4192 1696 4192 1606 4192 
C 1357 3916 979 3827 621 3827 
C 602 3827 570 3827 563 3808 
C 557 3795 557 3782 557 3648 
C 755 3648 1088 3686 1344 3839 
L 1344 461 
C 1344 236 1331 160 781 160 
L 589 160 
L 589 0 
C 896 0 1216 0 1523 0 
C 1830 0 2150 0 2458 0 
L 2458 160 
L 2266 160 
C 1715 160 1702 230 1702 458 
L 1702 4058 
z
" transform="scale(0.015625)"/>
       </defs>
       <use xlink:href="#CMR17-30" transform="scale(0.996264)"/>
       <use xlink:href="#CMMI12-3a" transform="translate(45.690477 0) scale(0.996264)"/>
       <use xlink:href="#CMR17-31" transform="translate(72.787654 0) scale(0.996264)"/>
      </g>
     </g>
    </g>
    <g id="xtick_2">
     <g id="line2d_2">
      <g>
       <use xlink:href="#m96bd1c5758" x="130.019028" y="193.536948" style="stroke: #000000; stroke-width: 0.8"/>
      </g>
     </g>
     <g id="text_2">
      <!-- $\mathdefault{0.2}$ -->
      <g transform="translate(121.293737 210.222825) scale(0.14 -0.14)">
       <defs>
        <path id="CMR17-32" d="M 2669 989 
L 2554 989 
C 2490 536 2438 459 2413 420 
C 2381 369 1920 369 1830 369 
L 602 369 
C 832 619 1280 1072 1824 1597 
C 2214 1967 2669 2402 2669 3035 
C 2669 3790 2067 4224 1395 4224 
C 691 4224 262 3604 262 3030 
C 262 2780 448 2748 525 2748 
C 589 2748 781 2787 781 3010 
C 781 3207 614 3264 525 3264 
C 486 3264 448 3258 422 3245 
C 544 3790 915 4058 1306 4058 
C 1862 4058 2227 3617 2227 3035 
C 2227 2479 1901 2000 1536 1584 
L 262 146 
L 262 0 
L 2515 0 
L 2669 989 
z
" transform="scale(0.015625)"/>
       </defs>
       <use xlink:href="#CMR17-30" transform="scale(0.996264)"/>
       <use xlink:href="#CMMI12-3a" transform="translate(45.690477 0) scale(0.996264)"/>
       <use xlink:href="#CMR17-32" transform="translate(72.787654 0) scale(0.996264)"/>
      </g>
     </g>
    </g>
    <g id="xtick_3">
     <g id="line2d_3">
      <g>
       <use xlink:href="#m96bd1c5758" x="188.235648" y="193.536948" style="stroke: #000000; stroke-width: 0.8"/>
      </g>
     </g>
     <g id="text_3">
      <!-- $\mathdefault{0.3}$ -->
      <g transform="translate(179.510357 210.222825) scale(0.14 -0.14)">
       <defs>
        <path id="CMR17-33" d="M 1414 2157 
C 1984 2157 2234 1662 2234 1090 
C 2234 320 1824 25 1453 25 
C 1114 25 563 194 390 693 
C 422 680 454 680 486 680 
C 640 680 755 782 755 948 
C 755 1133 614 1216 486 1216 
C 378 1216 211 1165 211 926 
C 211 335 787 -128 1466 -128 
C 2176 -128 2720 430 2720 1085 
C 2720 1707 2208 2157 1600 2227 
C 2086 2328 2554 2756 2554 3329 
C 2554 3820 2048 4179 1472 4179 
C 890 4179 378 3829 378 3329 
C 378 3110 544 3072 627 3072 
C 762 3072 877 3155 877 3321 
C 877 3486 762 3569 627 3569 
C 602 3569 570 3569 544 3557 
C 730 3959 1235 4032 1459 4032 
C 1683 4032 2106 3925 2106 3320 
C 2106 3143 2080 2828 1862 2550 
C 1670 2304 1453 2304 1242 2284 
C 1210 2284 1062 2269 1037 2269 
C 992 2263 966 2257 966 2208 
C 966 2163 973 2157 1101 2157 
L 1414 2157 
z
" transform="scale(0.015625)"/>
       </defs>
       <use xlink:href="#CMR17-30" transform="scale(0.996264)"/>
       <use xlink:href="#CMMI12-3a" transform="translate(45.690477 0) scale(0.996264)"/>
       <use xlink:href="#CMR17-33" transform="translate(72.787654 0) scale(0.996264)"/>
      </g>
     </g>
    </g>
    <g id="xtick_4">
     <g id="line2d_4">
      <g>
       <use xlink:href="#m96bd1c5758" x="246.452268" y="193.536948" style="stroke: #000000; stroke-width: 0.8"/>
      </g>
     </g>
     <g id="text_4">
      <!-- $\mathdefault{0.4}$ -->
      <g transform="translate(237.726977 210.222825) scale(0.14 -0.14)">
       <defs>
        <path id="CMR17-34" d="M 2150 4122 
C 2150 4256 2144 4256 2029 4256 
L 128 1254 
L 128 1088 
L 1779 1088 
L 1779 457 
C 1779 224 1766 160 1318 160 
L 1197 160 
L 1197 0 
C 1402 0 1747 0 1965 0 
C 2182 0 2528 0 2733 0 
L 2733 160 
L 2611 160 
C 2163 160 2150 224 2150 457 
L 2150 1088 
L 2803 1088 
L 2803 1254 
L 2150 1254 
L 2150 4122 
z
M 1798 3703 
L 1798 1254 
L 256 1254 
L 1798 3703 
z
" transform="scale(0.015625)"/>
       </defs>
       <use xlink:href="#CMR17-30" transform="scale(0.996264)"/>
       <use xlink:href="#CMMI12-3a" transform="translate(45.690477 0) scale(0.996264)"/>
       <use xlink:href="#CMR17-34" transform="translate(72.787654 0) scale(0.996264)"/>
      </g>
     </g>
    </g>
    <g id="xtick_5">
     <g id="line2d_5">
      <g>
       <use xlink:href="#m96bd1c5758" x="304.668889" y="193.536948" style="stroke: #000000; stroke-width: 0.8"/>
      </g>
     </g>
     <g id="text_5">
      <!-- $\mathdefault{0.5}$ -->
      <g transform="translate(295.943598 210.222825) scale(0.14 -0.14)">
       <defs>
        <path id="CMR17-35" d="M 730 3692 
C 794 3666 1056 3584 1325 3584 
C 1920 3584 2246 3911 2432 4100 
C 2432 4157 2432 4192 2394 4192 
C 2387 4192 2374 4192 2323 4163 
C 2099 4058 1837 3973 1517 3973 
C 1325 3973 1037 3999 723 4139 
C 653 4171 640 4171 634 4171 
C 602 4171 595 4164 595 4037 
L 595 2203 
C 595 2089 595 2057 659 2057 
C 691 2057 704 2070 736 2114 
C 941 2401 1222 2522 1542 2522 
C 1766 2522 2246 2382 2246 1289 
C 2246 1085 2246 715 2054 421 
C 1894 159 1645 25 1370 25 
C 947 25 518 320 403 814 
C 429 807 480 795 506 795 
C 589 795 749 840 749 1038 
C 749 1210 627 1280 506 1280 
C 358 1280 262 1190 262 1011 
C 262 454 704 -128 1382 -128 
C 2042 -128 2669 440 2669 1264 
C 2669 2030 2170 2624 1549 2624 
C 1222 2624 947 2503 730 2274 
L 730 3692 
z
" transform="scale(0.015625)"/>
       </defs>
       <use xlink:href="#CMR17-30" transform="scale(0.996264)"/>
       <use xlink:href="#CMMI12-3a" transform="translate(45.690477 0) scale(0.996264)"/>
       <use xlink:href="#CMR17-35" transform="translate(72.787654 0) scale(0.996264)"/>
      </g>
     </g>
    </g>
    <g id="xtick_6">
     <g id="line2d_6">
      <g>
       <use xlink:href="#m96bd1c5758" x="362.885509" y="193.536948" style="stroke: #000000; stroke-width: 0.8"/>
      </g>
     </g>
     <g id="text_6">
      <!-- $\mathdefault{0.6}$ -->
      <g transform="translate(354.160218 210.222825) scale(0.14 -0.14)">
       <defs>
        <path id="CMR17-36" d="M 678 2176 
C 678 3690 1395 4032 1811 4032 
C 1946 4032 2272 4009 2400 3776 
C 2298 3776 2106 3776 2106 3553 
C 2106 3381 2246 3323 2336 3323 
C 2394 3323 2566 3348 2566 3560 
C 2566 3954 2246 4179 1805 4179 
C 1043 4179 243 3390 243 1984 
C 243 253 966 -128 1478 -128 
C 2099 -128 2688 427 2688 1283 
C 2688 2081 2170 2662 1517 2662 
C 1126 2662 838 2407 678 1960 
L 678 2176 
z
M 1478 25 
C 691 25 691 1200 691 1436 
C 691 1896 909 2560 1504 2560 
C 1613 2560 1926 2560 2138 2120 
C 2253 1870 2253 1609 2253 1289 
C 2253 944 2253 690 2118 434 
C 1978 171 1773 25 1478 25 
z
" transform="scale(0.015625)"/>
       </defs>
       <use xlink:href="#CMR17-30" transform="scale(0.996264)"/>
       <use xlink:href="#CMMI12-3a" transform="translate(45.690477 0) scale(0.996264)"/>
       <use xlink:href="#CMR17-36" transform="translate(72.787654 0) scale(0.996264)"/>
      </g>
     </g>
    </g>
    <g id="text_7">
     <!-- P -->
     <g transform="translate(210.937731 226.620729) scale(0.14 -0.14)">
      <defs>
       <path id="CMR17-50" d="M 1267 2042 
L 2291 2042 
C 3117 2042 3718 2578 3718 3184 
C 3718 3791 3130 4352 2291 4352 
L 333 4352 
L 333 4186 
C 774 4186 845 4186 845 3899 
L 845 446 
C 845 160 774 160 333 160 
L 333 0 
C 518 0 858 0 1056 0 
C 1254 0 1594 0 1779 0 
L 1779 160 
C 1338 160 1267 160 1267 446 
L 1267 2042 
z
M 1254 2176 
L 1254 3938 
C 1254 4155 1267 4186 1523 4186 
L 2170 4186 
C 2995 4186 3232 3714 3232 3184 
C 3232 2604 2950 2176 2170 2176 
L 1254 2176 
z
" transform="scale(0.015625)"/>
      </defs>
      <use xlink:href="#CMR17-50" transform="scale(0.996264)"/>
     </g>
    </g>
   </g>
   <g id="matplotlib.axis_2">
    <g id="ytick_1">
     <g id="line2d_7">
      <defs>
       <path id="m9ee43b4788" d="M 0 0 
L -3.5 0 
" style="stroke: #000000; stroke-width: 0.8"/>
      </defs>
      <g>
       <use xlink:href="#m9ee43b4788" x="53.42442" y="190.528599" style="stroke: #000000; stroke-width: 0.8"/>
      </g>
     </g>
     <g id="text_8">
      <!-- $\mathdefault{−5}$ -->
      <g transform="translate(28.747696 195.371537) scale(0.14 -0.14)">
       <defs>
        <path id="CMSY10-0" d="M 4218 1472 
C 4326 1472 4442 1472 4442 1600 
C 4442 1728 4326 1728 4218 1728 
L 755 1728 
C 646 1728 531 1728 531 1600 
C 531 1472 646 1472 755 1472 
L 4218 1472 
z
" transform="scale(0.015625)"/>
       </defs>
       <use xlink:href="#CMSY10-0" transform="scale(0.996264)"/>
       <use xlink:href="#CMR17-35" transform="translate(77.487468 0) scale(0.996264)"/>
      </g>
     </g>
    </g>
    <g id="ytick_2">
     <g id="line2d_8">
      <g>
       <use xlink:href="#m9ee43b4788" x="53.42442" y="158.91992" style="stroke: #000000; stroke-width: 0.8"/>
      </g>
     </g>
     <g id="text_9">
      <!-- $\mathdefault{0}$ -->
      <g transform="translate(39.595931 163.762859) scale(0.14 -0.14)">
       <use xlink:href="#CMR17-30" transform="scale(0.996264)"/>
      </g>
     </g>
    </g>
    <g id="ytick_3">
     <g id="line2d_9">
      <g>
       <use xlink:href="#m9ee43b4788" x="53.42442" y="127.311242" style="stroke: #000000; stroke-width: 0.8"/>
      </g>
     </g>
     <g id="text_10">
      <!-- $\mathdefault{5}$ -->
      <g transform="translate(39.595931 132.15418) scale(0.14 -0.14)">
       <use xlink:href="#CMR17-35" transform="scale(0.996264)"/>
      </g>
     </g>
    </g>
    <g id="ytick_4">
     <g id="line2d_10">
      <g>
       <use xlink:href="#m9ee43b4788" x="53.42442" y="95.702564" style="stroke: #000000; stroke-width: 0.8"/>
      </g>
     </g>
     <g id="text_11">
      <!-- $\mathdefault{10}$ -->
      <g transform="translate(32.767443 100.545502) scale(0.14 -0.14)">
       <use xlink:href="#CMR17-31" transform="scale(0.996264)"/>
       <use xlink:href="#CMR17-30" transform="translate(45.690477 0) scale(0.996264)"/>
      </g>
     </g>
    </g>
    <g id="ytick_5">
     <g id="line2d_11">
      <g>
       <use xlink:href="#m9ee43b4788" x="53.42442" y="64.093886" style="stroke: #000000; stroke-width: 0.8"/>
      </g>
     </g>
     <g id="text_12">
      <!-- $\mathdefault{15}$ -->
      <g transform="translate(32.767443 68.936824) scale(0.14 -0.14)">
       <use xlink:href="#CMR17-31" transform="scale(0.996264)"/>
       <use xlink:href="#CMR17-35" transform="translate(45.690477 0) scale(0.996264)"/>
      </g>
     </g>
    </g>
    <g id="ytick_6">
     <g id="line2d_12">
      <g>
       <use xlink:href="#m9ee43b4788" x="53.42442" y="32.485207" style="stroke: #000000; stroke-width: 0.8"/>
      </g>
     </g>
     <g id="text_13">
      <!-- $\mathdefault{20}$ -->
      <g transform="translate(32.767443 37.328145) scale(0.14 -0.14)">
       <use xlink:href="#CMR17-32" transform="scale(0.996264)"/>
       <use xlink:href="#CMR17-30" transform="translate(45.690477 0) scale(0.996264)"/>
      </g>
     </g>
    </g>
    <g id="text_14">
     <!-- $\phi(P, S)$ -->
     <g transform="translate(21.260772 123.776698) rotate(-90) scale(0.14 -0.14)">
      <defs>
       <path id="CMMI12-1e" d="M 2752 4390 
C 2752 4448 2707 4448 2688 4448 
C 2630 4448 2624 4435 2598 4326 
L 2253 2939 
C 2234 2856 2227 2849 2221 2843 
C 2214 2830 2170 2824 2157 2824 
C 1107 2734 301 1864 301 1057 
C 301 361 832 -64 1498 -64 
C 1446 -261 1402 -463 1350 -659 
C 1261 -995 1210 -1204 1210 -1229 
C 1210 -1241 1210 -1280 1274 -1280 
C 1293 -1280 1318 -1280 1331 -1254 
C 1344 -1241 1382 -1089 1408 -1008 
L 1645 -64 
C 2739 -64 3571 854 3571 1680 
C 3571 2343 3085 2816 2374 2816 
L 2752 4390 
z
M 2336 2701 
C 2758 2701 3181 2463 3181 1828 
C 3181 1097 2675 128 1677 50 
L 2336 2701 
z
M 1530 50 
C 1216 50 691 220 691 938 
C 691 1761 1274 2676 2195 2676 
L 1530 50 
z
" transform="scale(0.015625)"/>
       <path id="CMR17-28" d="M 1958 -1561 
C 1958 -1555 1958 -1542 1939 -1523 
C 1645 -1224 858 -407 858 1581 
C 858 3569 1632 4379 1946 4697 
C 1946 4704 1958 4717 1958 4736 
C 1958 4755 1939 4768 1914 4768 
C 1843 4768 1299 4296 986 3594 
C 666 2887 576 2199 576 1588 
C 576 1128 621 351 1005 -471 
C 1312 -1135 1837 -1600 1914 -1600 
C 1946 -1600 1958 -1587 1958 -1561 
z
" transform="scale(0.015625)"/>
       <path id="CMMI12-50" d="M 1894 2023 
L 2970 2023 
C 3853 2023 4736 2673 4736 3401 
C 4736 3898 4314 4352 3507 4352 
L 1530 4352 
C 1408 4352 1350 4352 1350 4231 
C 1350 4167 1408 4167 1504 4167 
C 1894 4167 1894 4116 1894 4046 
C 1894 4034 1894 3995 1869 3899 
L 1005 472 
C 947 249 934 185 486 185 
C 365 185 301 185 301 70 
C 301 0 358 0 397 0 
C 518 0 646 0 768 0 
L 1517 0 
C 1638 0 1773 0 1894 0 
C 1946 0 2016 0 2016 121 
C 2016 185 1958 185 1862 185 
C 1478 185 1472 230 1472 293 
C 1472 325 1478 369 1485 401 
L 1894 2023 
z
M 2355 3930 
C 2413 4167 2438 4167 2688 4167 
L 3322 4167 
C 3802 4167 4198 4013 4198 3535 
C 4198 3369 4115 2827 3821 2534 
C 3712 2419 3405 2176 2822 2176 
L 1920 2176 
L 2355 3930 
z
" transform="scale(0.015625)"/>
       <path id="CMMI12-3b" d="M 1248 -31 
C 1248 343 1126 619 864 619 
C 659 619 557 453 557 313 
C 557 172 653 0 870 0 
C 954 0 1024 26 1082 83 
C 1094 96 1101 96 1107 96 
C 1120 96 1120 5 1120 -27 
C 1120 -240 1082 -659 710 -1080 
C 640 -1157 640 -1170 640 -1183 
C 640 -1216 672 -1248 704 -1248 
C 755 -1248 1248 -771 1248 -31 
z
" transform="scale(0.015625)"/>
       <path id="CMMI12-53" d="M 4064 4423 
C 4064 4480 4019 4480 4006 4480 
C 3981 4480 3974 4474 3898 4378 
C 3859 4333 3597 4001 3590 3995 
C 3379 4410 2957 4480 2688 4480 
C 1875 4480 1139 3743 1139 3025 
C 1139 2549 1427 2269 1741 2161 
C 1811 2135 2189 2033 2381 1989 
C 2707 1900 2790 1875 2925 1735 
C 2950 1703 3078 1557 3078 1258 
C 3078 667 2528 57 1888 57 
C 1363 57 781 280 781 991 
C 781 1112 806 1265 826 1328 
C 826 1348 832 1378 832 1391 
C 832 1417 819 1449 768 1449 
C 710 1449 704 1436 678 1328 
L 352 24 
C 352 18 326 -64 326 -71 
C 326 -128 378 -128 390 -128 
C 416 -128 422 -122 499 -26 
L 794 356 
C 947 126 1280 -128 1875 -128 
C 2701 -128 3456 666 3456 1460 
C 3456 1728 3392 1963 3149 2197 
C 3014 2331 2899 2363 2310 2516 
C 1882 2630 1824 2649 1709 2751 
C 1600 2858 1517 3011 1517 3227 
C 1517 3761 2061 4308 2669 4308 
C 3296 4308 3590 3926 3590 3323 
C 3590 3158 3558 2986 3558 2961 
C 3558 2903 3610 2903 3629 2903 
C 3686 2903 3693 2922 3718 3024 
L 4064 4423 
z
" transform="scale(0.015625)"/>
       <path id="CMR17-29" d="M 1683 1581 
C 1683 2040 1638 2817 1254 3639 
C 947 4303 422 4768 346 4768 
C 326 4768 301 4761 301 4729 
C 301 4717 307 4710 314 4697 
C 621 4378 1402 3568 1402 1584 
C 1402 -407 627 -1217 314 -1537 
C 307 -1549 301 -1556 301 -1568 
C 301 -1600 326 -1600 346 -1600 
C 416 -1600 960 -1128 1274 -426 
C 1594 281 1683 969 1683 1581 
z
" transform="scale(0.015625)"/>
      </defs>
      <use xlink:href="#CMMI12-1e" transform="scale(0.996264)"/>
      <use xlink:href="#CMR17-28" transform="translate(57.73418 0) scale(0.996264)"/>
      <use xlink:href="#CMMI12-50" transform="translate(93.014948 0) scale(0.996264)"/>
      <use xlink:href="#CMMI12-3b" transform="translate(158.601898 0) scale(0.996264)"/>
      <use xlink:href="#CMMI12-53" transform="translate(202.30348 0) scale(0.996264)"/>
      <use xlink:href="#CMR17-29" transform="translate(268.09792 0) scale(0.996264)"/>
     </g>
    </g>
   </g>
   <g id="line2d_13">
    <path d="M 68.166172 156.314371 
L 68.524382 147.869131 
L 68.780471 145.209882 
L 69.562818 140.198048 
L 70.800872 129.83087 
L 71.634591 124.556579 
L 72.639962 119.330022 
L 75.267154 104.013437 
L 76.946594 95.764691 
L 81.202925 80.212058 
L 83.851978 70.969126 
L 86.897559 62.272037 
L 90.375442 53.8024 
L 94.31813 45.557283 
L 98.750909 38.383306 
L 103.68982 33.027203 
L 109.137595 29.477449 
L 115.079087 27.33768 
L 121.482078 26.281613 
L 128.290884 26.336235 
L 135.428478 28.256722 
L 142.798327 33.332843 
L 150.29104 40.176969 
L 157.784308 46.205147 
L 165.154417 54.693709 
L 172.281619 65.872024 
L 179.057642 71.106856 
L 185.388935 81.798448 
L 191.204536 90.145067 
L 201.10146 107.051466 
L 205.141576 115.862375 
L 208.577412 123.051714 
L 211.429303 129.951336 
L 213.72728 136.011165 
L 215.505576 141.784903 
L 216.806698 147.020985 
L 217.672961 151.371803 
L 218.147359 155.069253 
L 218.272018 158.465476 
L 218.086444 161.640319 
L 217.627556 164.485719 
L 216.928685 166.92947 
L 216.020643 169.029129 
L 214.931086 170.907962 
L 213.683767 172.644098 
L 212.300893 174.230899 
L 210.801375 175.633469 
L 209.20102 176.840974 
L 207.515147 177.871246 
L 205.755901 178.755414 
L 202.061621 180.204247 
L 198.188705 181.367503 
L 194.196874 182.339376 
L 188.0764 183.524201 
L 181.895583 184.408348 
L 175.740878 184.980814 
L 169.682447 185.224257 
L 165.727485 185.199922 
L 159.960827 184.887957 
L 154.437572 184.264234 
L 149.201744 183.363366 
L 144.290983 182.230549 
L 139.738021 180.907988 
L 135.566983 179.414569 
L 133.007551 178.31804 
L 130.629226 177.13165 
L 128.43337 175.852968 
L 126.420867 174.493375 
L 123.742033 172.363397 
L 121.463687 170.222761 
L 119.571585 168.124116 
L 118.048263 166.031748 
L 117.2275 164.605853 
L 116.272544 162.395701 
L 115.629947 160.129973 
L 115.279305 157.894201 
L 115.202037 155.781339 
L 115.382181 153.848356 
L 115.807219 152.095771 
L 116.468415 150.473828 
L 117.360582 148.903137 
L 118.907639 146.746904 
L 120.870772 144.428164 
L 122.626747 142.669196 
L 123.938478 141.611355 
L 125.368084 140.761983 
L 126.920232 140.179521 
L 132.365916 138.706129 
L 134.464977 137.727321 
L 144.470182 132.487093 
L 147.411893 131.317003 
L 150.545398 130.297701 
L 153.879139 129.437145 
L 157.420853 128.73066 
L 161.176292 128.165814 
L 167.226378 127.546386 
L 173.792571 127.145044 
L 183.37298 126.85022 
L 196.682751 126.720575 
L 217.674314 126.775561 
L 237.478172 127.030945 
L 247.809208 127.322582 
L 258.289852 127.858987 
L 265.300081 128.447909 
L 272.284302 129.316832 
L 279.201813 130.556861 
L 282.623492 131.337736 
L 289.364 133.212904 
L 305.394982 138.375424 
L 311.38233 139.836694 
L 325.016579 142.630905 
L 329.878057 143.903304 
L 338.500717 146.4519 
L 342.253155 147.665939 
L 345.634269 148.992456 
L 348.651626 150.532642 
L 351.316329 152.216964 
L 358.793027 157.315938 
L 363.001212 159.875823 
L 362.927475 160.046693 
L 362.569026 160.219125 
L 361.478376 160.432311 
L 358.545965 160.706228 
L 352.608549 161.006575 
L 349.823126 161.095951 
L 349.823126 161.095951 
" clip-path="url(#p7e644b8ec2)" style="fill: none; stroke: #000000; stroke-width: 3; stroke-linecap: square"/>
   </g>
   <g id="line2d_14">
    <path d="M 68.166172 170.535061 
L 68.342824 164.135448 
L 68.780471 156.484758 
L 69.562818 147.248051 
L 70.800872 136.023229 
L 72.639962 122.374768 
L 73.841712 114.518779 
L 75.267154 105.937185 
L 76.946594 96.639276 
L 78.913492 86.679083 
L 81.202925 76.184955 
L 83.851978 65.376794 
L 86.897559 54.586949 
L 90.375442 44.267224 
L 94.31813 34.972963 
L 98.750909 27.314927 
L 103.68982 21.875553 
L 109.137595 19.106225 
L 115.079087 19.231746 
L 121.482078 22.200064 
L 128.290884 27.693962 
L 135.428478 35.201771 
L 142.798327 44.118275 
L 150.29104 53.848448 
L 179.057642 92.189326 
L 205.141576 126.244071 
L 208.577412 131.109175 
L 211.429303 135.442804 
L 213.72728 139.299866 
L 215.505576 142.727795 
L 216.806698 145.775148 
L 217.672961 148.484263 
L 218.147359 150.892685 
L 218.272018 153.034811 
L 218.086444 154.940054 
L 217.627556 156.634699 
L 216.928685 158.141858 
L 216.020643 159.481866 
L 214.931086 160.672449 
L 213.683767 161.729813 
L 212.300893 162.667296 
L 210.801375 163.497137 
L 209.20102 164.230324 
L 205.755901 165.443256 
L 202.061621 166.369564 
L 198.188705 167.059735 
L 194.196874 167.552983 
L 190.128131 167.881519 
L 183.956891 168.120228 
L 177.784818 168.112375 
L 171.687246 167.90831 
L 163.781086 167.395995 
L 156.248928 166.670556 
L 149.201744 165.782876 
L 142.732406 164.772296 
L 136.913639 163.670291 
L 131.795608 162.502799 
L 127.404208 161.291443 
L 123.742033 160.05429 
L 120.790988 158.806382 
L 118.516294 157.560005 
L 117.2275 156.632456 
L 116.272544 155.715006 
L 115.629947 154.810505 
L 115.279305 153.921921 
L 115.202037 153.051508 
L 115.382181 152.201521 
L 115.807219 151.374121 
L 116.468415 150.571509 
L 117.360582 149.796089 
L 118.907639 148.808933 
L 120.870772 147.881312 
L 123.268086 147.02069 
L 126.128426 146.235396 
L 129.489502 145.534548 
L 133.396848 144.928003 
L 137.903798 144.425906 
L 143.068838 144.038636 
L 150.545398 143.73094 
L 159.271516 143.634873 
L 169.357102 143.762329 
L 180.889011 144.117309 
L 196.682751 144.833235 
L 217.674314 146.018278 
L 258.289852 148.593467 
L 302.302049 151.328636 
L 327.491058 152.69982 
L 343.98995 153.411535 
L 353.643853 153.649699 
L 359.4128 153.585646 
L 361.958136 153.346408 
L 362.85457 153.053238 
L 363.001212 152.847407 
L 362.927475 152.624848 
L 362.569026 152.308512 
L 361.478376 151.721236 
L 358.768633 150.588917 
L 351.446036 147.828816 
L 349.823126 147.236738 
L 349.823126 147.236738 
" clip-path="url(#p7e644b8ec2)" style="fill: none; stroke-dasharray: 3,4.95; stroke-dashoffset: 0; stroke: #1f77b4; stroke-width: 3"/>
   </g>
   <g id="line2d_15">
    <path d="M 68.166172 179.192583 
L 68.342824 171.859841 
L 68.780471 163.124871 
L 69.562818 152.657786 
L 70.800872 140.086441 
L 72.639962 125.049768 
L 73.841712 116.52499 
L 75.267154 107.32329 
L 76.946594 97.483548 
L 78.913492 87.091519 
L 81.202925 76.30552 
L 83.851978 65.366726 
L 86.897559 54.611198 
L 90.375442 44.468034 
L 94.31813 35.438718 
L 98.750909 28.051342 
L 103.68982 22.793534 
L 109.137595 20.034153 
L 115.079087 19.954476 
L 121.482078 22.512914 
L 128.290884 27.453434 
L 135.428478 34.354846 
L 142.798327 42.704588 
L 150.29104 51.980172 
L 157.784308 61.701796 
L 179.057642 90.055447 
L 196.452223 113.479208 
L 201.10146 119.945564 
L 205.141576 125.770611 
L 208.577412 130.994253 
L 211.429303 135.664438 
L 213.72728 139.830332 
L 215.505576 143.535698 
L 216.806698 146.827609 
L 217.672961 149.748045 
L 218.147359 152.335088 
L 218.272018 154.624306 
L 218.086444 156.646594 
L 217.627556 158.429966 
L 216.928685 159.999379 
L 216.020643 161.37703 
L 214.931086 162.582487 
L 213.683767 163.633755 
L 212.300893 164.545883 
L 210.801375 165.332752 
L 209.20102 166.006871 
L 205.755901 167.059069 
L 202.061621 167.776398 
L 198.188705 168.218315 
L 194.196874 168.432145 
L 190.128131 168.456831 
L 183.956891 168.206845 
L 177.784818 167.685651 
L 171.687246 166.957619 
L 163.781086 165.7495 
L 156.248928 164.350838 
L 149.201744 162.828622 
L 142.732406 161.234014 
L 136.913639 159.60679 
L 131.795608 157.978529 
L 127.404208 156.37452 
L 123.742033 154.814952 
L 120.790988 153.316137 
L 118.516294 151.891046 
L 116.873119 150.550103 
L 116.024562 149.604154 
L 115.481648 148.712622 
L 115.224046 147.877478 
L 115.234187 147.100057 
L 115.497176 146.381291 
L 116.001755 145.721771 
L 116.740262 145.121615 
L 117.708899 144.580565 
L 119.358927 143.950258 
L 121.428432 143.422138 
L 123.938478 142.993451 
L 127.74385 142.592218 
L 132.365916 142.3335 
L 139.131069 142.199126 
L 148.95416 142.265178 
L 163.136276 142.602672 
L 188.520436 143.454582 
L 244.343408 145.589392 
L 286.01264 147.370338 
L 311.38233 148.663544 
L 327.491058 149.673326 
L 340.423781 150.708482 
L 348.651626 151.58524 
L 354.686374 152.471057 
L 358.110204 153.184071 
L 360.472394 153.899325 
L 361.65885 154.436441 
L 362.428804 154.973526 
L 362.85457 155.510111 
L 363.001212 156.045813 
L 362.927475 156.580125 
L 362.569026 157.289778 
L 361.833043 158.171309 
L 360.495261 159.392642 
L 357.87435 161.443607 
L 353.535798 164.55672 
L 349.823126 167.034527 
L 349.823126 167.034527 
" clip-path="url(#p7e644b8ec2)" style="fill: none; stroke-dasharray: 11.1,4.8; stroke-dashoffset: 0; stroke: #1f77b4; stroke-width: 3"/>
   </g>
   <g id="line2d_16">
    <path d="M 68.166172 175.143334 
L 68.342824 168.330333 
L 68.780471 160.119736 
L 69.562818 150.180822 
L 70.800872 138.140498 
L 72.639962 123.636449 
L 73.841712 115.37819 
L 75.267154 106.442851 
L 76.946594 96.869091 
L 78.913492 86.742483 
L 81.202925 76.221176 
L 83.851978 65.54623 
L 86.897559 55.053609 
L 90.375442 45.172593 
L 94.31813 36.404773 
L 98.750909 29.278809 
L 103.68982 24.282775 
L 109.137595 21.78582 
L 115.079087 21.969797 
L 121.482078 24.793228 
L 128.290884 29.99967 
L 135.428478 37.167607 
L 142.798327 45.783861 
L 150.29104 55.325318 
L 157.784308 65.311417 
L 179.057642 94.445609 
L 191.204536 111.239028 
L 201.10146 125.335362 
L 205.141576 131.401877 
L 208.577412 136.863322 
L 211.429303 141.767588 
L 213.72728 146.163778 
L 215.505576 150.095315 
L 216.806698 153.609234 
L 217.672961 156.747363 
L 218.147359 159.547605 
L 218.272018 162.045418 
L 218.086444 164.271525 
L 217.627556 166.253752 
L 216.928685 168.016899 
L 216.020643 169.582984 
L 214.931086 170.971382 
L 213.683767 172.200001 
L 212.300893 173.283641 
L 210.801375 174.236007 
L 209.20102 175.069482 
L 207.515147 175.794693 
L 203.934907 176.957591 
L 200.144179 177.789496 
L 196.205108 178.342466 
L 192.169867 178.657799 
L 188.0764 178.769482 
L 183.956891 178.705115 
L 177.784818 178.32713 
L 171.687246 177.664648 
L 165.727485 176.765051 
L 159.960827 175.665687 
L 154.437572 174.397109 
L 149.201744 172.984449 
L 144.290983 171.449193 
L 139.738021 169.810452 
L 135.566983 168.085188 
L 131.795608 166.289309 
L 128.43337 164.437856 
L 125.482801 162.545111 
L 122.938681 160.624934 
L 120.790988 158.691173 
L 119.023883 156.757055 
L 117.618827 154.835884 
L 116.555087 152.940746 
L 115.810646 151.083577 
L 115.364988 149.277253 
L 115.198463 147.533105 
L 115.294434 145.862139 
L 115.639038 144.274344 
L 116.22222 142.779113 
L 117.037648 141.384636 
L 118.082772 140.097951 
L 119.358927 138.925117 
L 120.870772 137.870926 
L 122.626747 136.938732 
L 124.638321 136.130877 
L 126.920232 135.44827 
L 129.489502 134.890843 
L 132.365916 134.457258 
L 136.71762 134.06766 
L 141.712501 133.885986 
L 147.411893 133.901818 
L 155.624149 134.180297 
L 167.226378 134.857382 
L 183.37298 136.055384 
L 214.521316 138.635737 
L 265.300081 143.054292 
L 292.674067 145.64125 
L 311.38233 147.626969 
L 325.016579 149.291729 
L 334.375292 150.621856 
L 342.253155 151.94457 
L 348.651626 153.25583 
L 352.520863 154.229581 
L 355.651896 155.193589 
L 358.110204 156.146718 
L 359.97119 157.087917 
L 361.313413 158.016478 
L 362.2137 158.931604 
L 362.746828 159.832771 
L 362.979906 160.719582 
L 362.973452 161.591503 
L 362.681904 162.730551 
L 362.157486 163.842328 
L 361.098864 165.458183 
L 359.429283 167.516119 
L 356.971252 170.168361 
L 353.99786 173.048585 
L 350.748744 175.863398 
L 349.823126 176.616582 
L 349.823126 176.616582 
" clip-path="url(#p7e644b8ec2)" style="fill: none; stroke-dasharray: 19.2,4.8,3,4.8; stroke-dashoffset: 0; stroke: #1f77b4; stroke-width: 3"/>
   </g>
   <g id="patch_3">
    <path d="M 53.42442 193.536948 
L 53.42442 10.8 
" style="fill: none; stroke: #000000; stroke-width: 0.8; stroke-linejoin: miter; stroke-linecap: square"/>
   </g>
   <g id="patch_4">
    <path d="M 377.742964 193.536948 
L 377.742964 10.8 
" style="fill: none; stroke: #000000; stroke-width: 0.8; stroke-linejoin: miter; stroke-linecap: square"/>
   </g>
   <g id="patch_5">
    <path d="M 53.42442 193.536948 
L 377.742964 193.536948 
" style="fill: none; stroke: #000000; stroke-width: 0.8; stroke-linejoin: miter; stroke-linecap: square"/>
   </g>
   <g id="patch_6">
    <path d="M 53.42442 10.8 
L 377.742964 10.8 
" style="fill: none; stroke: #000000; stroke-width: 0.8; stroke-linejoin: miter; stroke-linecap: square"/>
   </g>
   <g id="legend_1">
    <g id="line2d_17">
     <path d="M 183.886073 31.866486 
L 197.886073 31.866486 
L 211.886073 31.866486 
" style="fill: none; stroke: #000000; stroke-width: 3; stroke-linecap: square"/>
    </g>
    <g id="text_15">
     <!-- $\hat{\phi}(P)$ -->
     <g transform="translate(223.086073 36.766486) scale(0.14 -0.14)">
      <defs>
       <path id="CMR17-5e" d="M 1466 4421 
L 678 3555 
L 755 3478 
L 1466 4166 
L 2176 3478 
L 2253 3555 
L 1466 4421 
z
" transform="scale(0.015625)"/>
      </defs>
      <use xlink:href="#CMR17-5e" transform="translate(14.151005 26.296621) scale(0.996264)"/>
      <use xlink:href="#CMMI12-1e" transform="scale(0.996264)"/>
      <use xlink:href="#CMR17-28" transform="translate(57.73418 0) scale(0.996264)"/>
      <use xlink:href="#CMMI12-50" transform="translate(93.014948 0) scale(0.996264)"/>
      <use xlink:href="#CMR17-29" transform="translate(169.440769 0) scale(0.996264)"/>
     </g>
    </g>
    <g id="line2d_18">
     <path d="M 183.886073 52.814183 
L 197.886073 52.814183 
L 211.886073 52.814183 
" style="fill: none; stroke-dasharray: 3,4.95; stroke-dashoffset: 0; stroke: #1f77b4; stroke-width: 3"/>
    </g>
    <g id="text_16">
     <!-- $\phi^s_2(P)$ -->
     <g transform="translate(223.086073 57.714183) scale(0.14 -0.14)">
      <defs>
       <path id="CMMI12-73" d="M 1459 1280 
C 1568 1261 1741 1223 1779 1216 
C 1862 1192 2150 1090 2150 783 
C 2150 586 1971 70 1229 70 
C 1094 70 614 70 486 436 
C 742 404 870 603 870 745 
C 870 880 781 950 653 950 
C 512 950 326 841 326 552 
C 326 173 710 -64 1222 -64 
C 2195 -64 2483 651 2483 984 
C 2483 1079 2483 1258 2278 1462 
C 2118 1616 1965 1648 1619 1718 
C 1446 1756 1171 1814 1171 2101 
C 1171 2229 1286 2689 1894 2689 
C 2163 2689 2426 2589 2490 2368 
C 2208 2368 2195 2125 2195 2119 
C 2195 1984 2317 1946 2374 1946 
C 2464 1946 2643 2015 2643 2281 
C 2643 2545 2400 2816 1901 2816 
C 1062 2816 838 2160 838 1899 
C 838 1414 1312 1312 1459 1280 
z
" transform="scale(0.015625)"/>
      </defs>
      <use xlink:href="#CMMI12-1e" transform="scale(0.996264)"/>
      <use xlink:href="#CMMI12-73" transform="translate(57.73418 36.153639) scale(0.697382)"/>
      <use xlink:href="#CMR17-32" transform="translate(57.73418 -24.740171) scale(0.697382)"/>
      <use xlink:href="#CMR17-28" transform="translate(90.397201 0) scale(0.996264)"/>
      <use xlink:href="#CMMI12-50" transform="translate(125.677969 0) scale(0.996264)"/>
      <use xlink:href="#CMR17-29" transform="translate(202.10379 0) scale(0.996264)"/>
     </g>
    </g>
    <g id="line2d_19">
     <path d="M 286.005905 31.866486 
L 300.005905 31.866486 
L 314.005905 31.866486 
" style="fill: none; stroke-dasharray: 11.1,4.8; stroke-dashoffset: 0; stroke: #1f77b4; stroke-width: 3"/>
    </g>
    <g id="text_17">
     <!-- $\phi^s_{3}(P)$ -->
     <g transform="translate(325.205905 36.766486) scale(0.14 -0.14)">
      <use xlink:href="#CMMI12-1e" transform="scale(0.996264)"/>
      <use xlink:href="#CMMI12-73" transform="translate(57.73418 36.153639) scale(0.697382)"/>
      <use xlink:href="#CMR17-33" transform="translate(57.73418 -24.740171) scale(0.697382)"/>
      <use xlink:href="#CMR17-28" transform="translate(90.397201 0) scale(0.996264)"/>
      <use xlink:href="#CMMI12-50" transform="translate(125.677969 0) scale(0.996264)"/>
      <use xlink:href="#CMR17-29" transform="translate(202.10379 0) scale(0.996264)"/>
     </g>
    </g>
    <g id="line2d_20">
     <path d="M 286.005905 52.814183 
L 300.005905 52.814183 
L 314.005905 52.814183 
" style="fill: none; stroke-dasharray: 19.2,4.8,3,4.8; stroke-dashoffset: 0; stroke: #1f77b4; stroke-width: 3"/>
    </g>
    <g id="text_18">
     <!-- $\phi^s_{14}(P)$ -->
     <g transform="translate(325.205905 57.714183) scale(0.14 -0.14)">
      <use xlink:href="#CMMI12-1e" transform="scale(0.996264)"/>
      <use xlink:href="#CMMI12-73" transform="translate(57.73418 36.153639) scale(0.697382)"/>
      <use xlink:href="#CMR17-31" transform="translate(57.73418 -24.740171) scale(0.697382)"/>
      <use xlink:href="#CMR17-34" transform="translate(89.717362 -24.740171) scale(0.697382)"/>
      <use xlink:href="#CMR17-28" transform="translate(122.198676 0) scale(0.996264)"/>
      <use xlink:href="#CMMI12-50" transform="translate(157.479444 0) scale(0.996264)"/>
      <use xlink:href="#CMR17-29" transform="translate(233.905265 0) scale(0.996264)"/>
     </g>
    </g>
   </g>
  </g>
 </g>
 <defs>
  <clipPath id="p7e644b8ec2">
   <rect x="53.42442" y="10.8" width="324.318544" height="182.736948"/>
  </clipPath>
 </defs>
</svg>
