<?xml version="1.0" encoding="utf-8" standalone="no"?>
<!DOCTYPE svg PUBLIC "-//W3C//DTD SVG 1.1//EN"
  "http://www.w3.org/Graphics/SVG/1.1/DTD/svg11.dtd">
<svg xmlns:xlink="http://www.w3.org/1999/xlink" width="388.542964pt" height="240.132758pt" viewBox="0 0 388.542964 240.132758" xmlns="http://www.w3.org/2000/svg" version="1.1">
 <metadata>
  <rdf:RDF xmlns:dc="http://purl.org/dc/elements/1.1/" xmlns:cc="http://creativecommons.org/ns#" xmlns:rdf="http://www.w3.org/1999/02/22-rdf-syntax-ns#">
   <cc:Work>
    <dc:type rdf:resource="http://purl.org/dc/dcmitype/StillImage"/>
    <dc:date>2024-12-29T11:50:49.397263</dc:date>
    <dc:format>image/svg+xml</dc:format>
    <dc:creator>
     <cc:Agent>
      <dc:title>Matplotlib v3.7.5, https://matplotlib.org/</dc:title>
     </cc:Agent>
    </dc:creator>
   </cc:Work>
  </rdf:RDF>
 </metadata>
 <defs>
  <style type="text/css">*{stroke-linejoin: round; stroke-linecap: butt}</style>
 </defs>
 <g id="figure_1">
  <g id="patch_1">
   <path d="M 0 240.132758 
L 388.542964 240.132758 
L 388.542964 0 
L 0 0 
z
" style="fill: #ffffff"/>
  </g>
  <g id="axes_1">
   <g id="patch_2">
    <path d="M 53.42442 193.536948 
L 377.742964 193.536948 
L 377.742964 10.8 
L 53.42442 10.8 
z
" style="fill: #ffffff"/>
   </g>
   <g id="matplotlib.axis_1">
    <g id="xtick_1">
     <g id="line2d_1">
      <defs>
       <path id="meeeb6bde35" d="M 0 0 
L 0 3.5 
" style="stroke: #000000; stroke-width: 0.8"/>
      </defs>
      <g>
       <use xlink:href="#meeeb6bde35" x="73.405968" y="193.536948" style="stroke: #000000; stroke-width: 0.8"/>
      </g>
     </g>
     <g id="text_1">
      <!-- $\mathdefault{0.1}$ -->
      <g transform="translate(64.680677 210.222825) scale(0.14 -0.14)">
       <defs>
        <path id="CMR17-30" d="M 2688 2025 
C 2688 2416 2682 3080 2413 3591 
C 2176 4039 1798 4198 1466 4198 
C 1158 4198 768 4058 525 3597 
C 269 3118 243 2524 243 2025 
C 243 1661 250 1106 448 619 
C 723 -39 1216 -128 1466 -128 
C 1760 -128 2208 -7 2470 600 
C 2662 1042 2688 1559 2688 2025 
z
M 1466 -26 
C 1056 -26 813 325 723 812 
C 653 1188 653 1738 653 2096 
C 653 2588 653 2997 736 3387 
C 858 3929 1216 4096 1466 4096 
C 1728 4096 2067 3923 2189 3400 
C 2272 3036 2278 2607 2278 2096 
C 2278 1680 2278 1169 2202 792 
C 2067 95 1690 -26 1466 -26 
z
" transform="scale(0.015625)"/>
        <path id="CMMI12-3a" d="M 1178 307 
C 1178 492 1024 619 870 619 
C 685 619 557 466 557 313 
C 557 128 710 0 864 0 
C 1050 0 1178 153 1178 307 
z
" transform="scale(0.015625)"/>
        <path id="CMR17-31" d="M 1702 4058 
C 1702 4192 1696 4192 1606 4192 
C 1357 3916 979 3827 621 3827 
C 602 3827 570 3827 563 3808 
C 557 3795 557 3782 557 3648 
C 755 3648 1088 3686 1344 3839 
L 1344 461 
C 1344 236 1331 160 781 160 
L 589 160 
L 589 0 
C 896 0 1216 0 1523 0 
C 1830 0 2150 0 2458 0 
L 2458 160 
L 2266 160 
C 1715 160 1702 230 1702 458 
L 1702 4058 
z
" transform="scale(0.015625)"/>
       </defs>
       <use xlink:href="#CMR17-30" transform="scale(0.996264)"/>
       <use xlink:href="#CMMI12-3a" transform="translate(45.690477 0) scale(0.996264)"/>
       <use xlink:href="#CMR17-31" transform="translate(72.787654 0) scale(0.996264)"/>
      </g>
     </g>
    </g>
    <g id="xtick_2">
     <g id="line2d_2">
      <g>
       <use xlink:href="#meeeb6bde35" x="128.526121" y="193.536948" style="stroke: #000000; stroke-width: 0.8"/>
      </g>
     </g>
     <g id="text_2">
      <!-- $\mathdefault{0.2}$ -->
      <g transform="translate(119.80083 210.222825) scale(0.14 -0.14)">
       <defs>
        <path id="CMR17-32" d="M 2669 989 
L 2554 989 
C 2490 536 2438 459 2413 420 
C 2381 369 1920 369 1830 369 
L 602 369 
C 832 619 1280 1072 1824 1597 
C 2214 1967 2669 2402 2669 3035 
C 2669 3790 2067 4224 1395 4224 
C 691 4224 262 3604 262 3030 
C 262 2780 448 2748 525 2748 
C 589 2748 781 2787 781 3010 
C 781 3207 614 3264 525 3264 
C 486 3264 448 3258 422 3245 
C 544 3790 915 4058 1306 4058 
C 1862 4058 2227 3617 2227 3035 
C 2227 2479 1901 2000 1536 1584 
L 262 146 
L 262 0 
L 2515 0 
L 2669 989 
z
" transform="scale(0.015625)"/>
       </defs>
       <use xlink:href="#CMR17-30" transform="scale(0.996264)"/>
       <use xlink:href="#CMMI12-3a" transform="translate(45.690477 0) scale(0.996264)"/>
       <use xlink:href="#CMR17-32" transform="translate(72.787654 0) scale(0.996264)"/>
      </g>
     </g>
    </g>
    <g id="xtick_3">
     <g id="line2d_3">
      <g>
       <use xlink:href="#meeeb6bde35" x="183.646275" y="193.536948" style="stroke: #000000; stroke-width: 0.8"/>
      </g>
     </g>
     <g id="text_3">
      <!-- $\mathdefault{0.3}$ -->
      <g transform="translate(174.920983 210.222825) scale(0.14 -0.14)">
       <defs>
        <path id="CMR17-33" d="M 1414 2157 
C 1984 2157 2234 1662 2234 1090 
C 2234 320 1824 25 1453 25 
C 1114 25 563 194 390 693 
C 422 680 454 680 486 680 
C 640 680 755 782 755 948 
C 755 1133 614 1216 486 1216 
C 378 1216 211 1165 211 926 
C 211 335 787 -128 1466 -128 
C 2176 -128 2720 430 2720 1085 
C 2720 1707 2208 2157 1600 2227 
C 2086 2328 2554 2756 2554 3329 
C 2554 3820 2048 4179 1472 4179 
C 890 4179 378 3829 378 3329 
C 378 3110 544 3072 627 3072 
C 762 3072 877 3155 877 3321 
C 877 3486 762 3569 627 3569 
C 602 3569 570 3569 544 3557 
C 730 3959 1235 4032 1459 4032 
C 1683 4032 2106 3925 2106 3320 
C 2106 3143 2080 2828 1862 2550 
C 1670 2304 1453 2304 1242 2284 
C 1210 2284 1062 2269 1037 2269 
C 992 2263 966 2257 966 2208 
C 966 2163 973 2157 1101 2157 
L 1414 2157 
z
" transform="scale(0.015625)"/>
       </defs>
       <use xlink:href="#CMR17-30" transform="scale(0.996264)"/>
       <use xlink:href="#CMMI12-3a" transform="translate(45.690477 0) scale(0.996264)"/>
       <use xlink:href="#CMR17-33" transform="translate(72.787654 0) scale(0.996264)"/>
      </g>
     </g>
    </g>
    <g id="xtick_4">
     <g id="line2d_4">
      <g>
       <use xlink:href="#meeeb6bde35" x="238.766428" y="193.536948" style="stroke: #000000; stroke-width: 0.8"/>
      </g>
     </g>
     <g id="text_4">
      <!-- $\mathdefault{0.4}$ -->
      <g transform="translate(230.041137 210.222825) scale(0.14 -0.14)">
       <defs>
        <path id="CMR17-34" d="M 2150 4122 
C 2150 4256 2144 4256 2029 4256 
L 128 1254 
L 128 1088 
L 1779 1088 
L 1779 457 
C 1779 224 1766 160 1318 160 
L 1197 160 
L 1197 0 
C 1402 0 1747 0 1965 0 
C 2182 0 2528 0 2733 0 
L 2733 160 
L 2611 160 
C 2163 160 2150 224 2150 457 
L 2150 1088 
L 2803 1088 
L 2803 1254 
L 2150 1254 
L 2150 4122 
z
M 1798 3703 
L 1798 1254 
L 256 1254 
L 1798 3703 
z
" transform="scale(0.015625)"/>
       </defs>
       <use xlink:href="#CMR17-30" transform="scale(0.996264)"/>
       <use xlink:href="#CMMI12-3a" transform="translate(45.690477 0) scale(0.996264)"/>
       <use xlink:href="#CMR17-34" transform="translate(72.787654 0) scale(0.996264)"/>
      </g>
     </g>
    </g>
    <g id="xtick_5">
     <g id="line2d_5">
      <g>
       <use xlink:href="#meeeb6bde35" x="293.886581" y="193.536948" style="stroke: #000000; stroke-width: 0.8"/>
      </g>
     </g>
     <g id="text_5">
      <!-- $\mathdefault{0.5}$ -->
      <g transform="translate(285.16129 210.222825) scale(0.14 -0.14)">
       <defs>
        <path id="CMR17-35" d="M 730 3692 
C 794 3666 1056 3584 1325 3584 
C 1920 3584 2246 3911 2432 4100 
C 2432 4157 2432 4192 2394 4192 
C 2387 4192 2374 4192 2323 4163 
C 2099 4058 1837 3973 1517 3973 
C 1325 3973 1037 3999 723 4139 
C 653 4171 640 4171 634 4171 
C 602 4171 595 4164 595 4037 
L 595 2203 
C 595 2089 595 2057 659 2057 
C 691 2057 704 2070 736 2114 
C 941 2401 1222 2522 1542 2522 
C 1766 2522 2246 2382 2246 1289 
C 2246 1085 2246 715 2054 421 
C 1894 159 1645 25 1370 25 
C 947 25 518 320 403 814 
C 429 807 480 795 506 795 
C 589 795 749 840 749 1038 
C 749 1210 627 1280 506 1280 
C 358 1280 262 1190 262 1011 
C 262 454 704 -128 1382 -128 
C 2042 -128 2669 440 2669 1264 
C 2669 2030 2170 2624 1549 2624 
C 1222 2624 947 2503 730 2274 
L 730 3692 
z
" transform="scale(0.015625)"/>
       </defs>
       <use xlink:href="#CMR17-30" transform="scale(0.996264)"/>
       <use xlink:href="#CMMI12-3a" transform="translate(45.690477 0) scale(0.996264)"/>
       <use xlink:href="#CMR17-35" transform="translate(72.787654 0) scale(0.996264)"/>
      </g>
     </g>
    </g>
    <g id="xtick_6">
     <g id="line2d_6">
      <g>
       <use xlink:href="#meeeb6bde35" x="349.006734" y="193.536948" style="stroke: #000000; stroke-width: 0.8"/>
      </g>
     </g>
     <g id="text_6">
      <!-- $\mathdefault{0.6}$ -->
      <g transform="translate(340.281443 210.222825) scale(0.14 -0.14)">
       <defs>
        <path id="CMR17-36" d="M 678 2176 
C 678 3690 1395 4032 1811 4032 
C 1946 4032 2272 4009 2400 3776 
C 2298 3776 2106 3776 2106 3553 
C 2106 3381 2246 3323 2336 3323 
C 2394 3323 2566 3348 2566 3560 
C 2566 3954 2246 4179 1805 4179 
C 1043 4179 243 3390 243 1984 
C 243 253 966 -128 1478 -128 
C 2099 -128 2688 427 2688 1283 
C 2688 2081 2170 2662 1517 2662 
C 1126 2662 838 2407 678 1960 
L 678 2176 
z
M 1478 25 
C 691 25 691 1200 691 1436 
C 691 1896 909 2560 1504 2560 
C 1613 2560 1926 2560 2138 2120 
C 2253 1870 2253 1609 2253 1289 
C 2253 944 2253 690 2118 434 
C 1978 171 1773 25 1478 25 
z
" transform="scale(0.015625)"/>
       </defs>
       <use xlink:href="#CMR17-30" transform="scale(0.996264)"/>
       <use xlink:href="#CMMI12-3a" transform="translate(45.690477 0) scale(0.996264)"/>
       <use xlink:href="#CMR17-36" transform="translate(72.787654 0) scale(0.996264)"/>
      </g>
     </g>
    </g>
    <g id="text_7">
     <!-- P -->
     <g transform="translate(210.937731 226.620729) scale(0.14 -0.14)">
      <defs>
       <path id="CMR17-50" d="M 1267 2042 
L 2291 2042 
C 3117 2042 3718 2578 3718 3184 
C 3718 3791 3130 4352 2291 4352 
L 333 4352 
L 333 4186 
C 774 4186 845 4186 845 3899 
L 845 446 
C 845 160 774 160 333 160 
L 333 0 
C 518 0 858 0 1056 0 
C 1254 0 1594 0 1779 0 
L 1779 160 
C 1338 160 1267 160 1267 446 
L 1267 2042 
z
M 1254 2176 
L 1254 3938 
C 1254 4155 1267 4186 1523 4186 
L 2170 4186 
C 2995 4186 3232 3714 3232 3184 
C 3232 2604 2950 2176 2170 2176 
L 1254 2176 
z
" transform="scale(0.015625)"/>
      </defs>
      <use xlink:href="#CMR17-50" transform="scale(0.996264)"/>
     </g>
    </g>
   </g>
   <g id="matplotlib.axis_2">
    <g id="ytick_1">
     <g id="line2d_7">
      <defs>
       <path id="m753da9e195" d="M 0 0 
L -3.5 0 
" style="stroke: #000000; stroke-width: 0.8"/>
      </defs>
      <g>
       <use xlink:href="#m753da9e195" x="53.42442" y="189.035361" style="stroke: #000000; stroke-width: 0.8"/>
      </g>
     </g>
     <g id="text_8">
      <!-- $\mathdefault{−5}$ -->
      <g transform="translate(28.747696 193.878299) scale(0.14 -0.14)">
       <defs>
        <path id="CMSY10-0" d="M 4218 1472 
C 4326 1472 4442 1472 4442 1600 
C 4442 1728 4326 1728 4218 1728 
L 755 1728 
C 646 1728 531 1728 531 1600 
C 531 1472 646 1472 755 1472 
L 4218 1472 
z
" transform="scale(0.015625)"/>
       </defs>
       <use xlink:href="#CMSY10-0" transform="scale(0.996264)"/>
       <use xlink:href="#CMR17-35" transform="translate(77.487468 0) scale(0.996264)"/>
      </g>
     </g>
    </g>
    <g id="ytick_2">
     <g id="line2d_8">
      <g>
       <use xlink:href="#m753da9e195" x="53.42442" y="154.7244" style="stroke: #000000; stroke-width: 0.8"/>
      </g>
     </g>
     <g id="text_9">
      <!-- $\mathdefault{0}$ -->
      <g transform="translate(39.595931 159.567338) scale(0.14 -0.14)">
       <use xlink:href="#CMR17-30" transform="scale(0.996264)"/>
      </g>
     </g>
    </g>
    <g id="ytick_3">
     <g id="line2d_9">
      <g>
       <use xlink:href="#m753da9e195" x="53.42442" y="120.413439" style="stroke: #000000; stroke-width: 0.8"/>
      </g>
     </g>
     <g id="text_10">
      <!-- $\mathdefault{5}$ -->
      <g transform="translate(39.595931 125.256377) scale(0.14 -0.14)">
       <use xlink:href="#CMR17-35" transform="scale(0.996264)"/>
      </g>
     </g>
    </g>
    <g id="ytick_4">
     <g id="line2d_10">
      <g>
       <use xlink:href="#m753da9e195" x="53.42442" y="86.102478" style="stroke: #000000; stroke-width: 0.8"/>
      </g>
     </g>
     <g id="text_11">
      <!-- $\mathdefault{10}$ -->
      <g transform="translate(32.767443 90.945416) scale(0.14 -0.14)">
       <use xlink:href="#CMR17-31" transform="scale(0.996264)"/>
       <use xlink:href="#CMR17-30" transform="translate(45.690477 0) scale(0.996264)"/>
      </g>
     </g>
    </g>
    <g id="ytick_5">
     <g id="line2d_11">
      <g>
       <use xlink:href="#m753da9e195" x="53.42442" y="51.791517" style="stroke: #000000; stroke-width: 0.8"/>
      </g>
     </g>
     <g id="text_12">
      <!-- $\mathdefault{15}$ -->
      <g transform="translate(32.767443 56.634455) scale(0.14 -0.14)">
       <use xlink:href="#CMR17-31" transform="scale(0.996264)"/>
       <use xlink:href="#CMR17-35" transform="translate(45.690477 0) scale(0.996264)"/>
      </g>
     </g>
    </g>
    <g id="ytick_6">
     <g id="line2d_12">
      <g>
       <use xlink:href="#m753da9e195" x="53.42442" y="17.480556" style="stroke: #000000; stroke-width: 0.8"/>
      </g>
     </g>
     <g id="text_13">
      <!-- $\mathdefault{20}$ -->
      <g transform="translate(32.767443 22.323494) scale(0.14 -0.14)">
       <use xlink:href="#CMR17-32" transform="scale(0.996264)"/>
       <use xlink:href="#CMR17-30" transform="translate(45.690477 0) scale(0.996264)"/>
      </g>
     </g>
    </g>
    <g id="text_14">
     <!-- $\phi(P, S)$ -->
     <g transform="translate(21.260772 123.776698) rotate(-90) scale(0.14 -0.14)">
      <defs>
       <path id="CMMI12-1e" d="M 2752 4390 
C 2752 4448 2707 4448 2688 4448 
C 2630 4448 2624 4435 2598 4326 
L 2253 2939 
C 2234 2856 2227 2849 2221 2843 
C 2214 2830 2170 2824 2157 2824 
C 1107 2734 301 1864 301 1057 
C 301 361 832 -64 1498 -64 
C 1446 -261 1402 -463 1350 -659 
C 1261 -995 1210 -1204 1210 -1229 
C 1210 -1241 1210 -1280 1274 -1280 
C 1293 -1280 1318 -1280 1331 -1254 
C 1344 -1241 1382 -1089 1408 -1008 
L 1645 -64 
C 2739 -64 3571 854 3571 1680 
C 3571 2343 3085 2816 2374 2816 
L 2752 4390 
z
M 2336 2701 
C 2758 2701 3181 2463 3181 1828 
C 3181 1097 2675 128 1677 50 
L 2336 2701 
z
M 1530 50 
C 1216 50 691 220 691 938 
C 691 1761 1274 2676 2195 2676 
L 1530 50 
z
" transform="scale(0.015625)"/>
       <path id="CMR17-28" d="M 1958 -1561 
C 1958 -1555 1958 -1542 1939 -1523 
C 1645 -1224 858 -407 858 1581 
C 858 3569 1632 4379 1946 4697 
C 1946 4704 1958 4717 1958 4736 
C 1958 4755 1939 4768 1914 4768 
C 1843 4768 1299 4296 986 3594 
C 666 2887 576 2199 576 1588 
C 576 1128 621 351 1005 -471 
C 1312 -1135 1837 -1600 1914 -1600 
C 1946 -1600 1958 -1587 1958 -1561 
z
" transform="scale(0.015625)"/>
       <path id="CMMI12-50" d="M 1894 2023 
L 2970 2023 
C 3853 2023 4736 2673 4736 3401 
C 4736 3898 4314 4352 3507 4352 
L 1530 4352 
C 1408 4352 1350 4352 1350 4231 
C 1350 4167 1408 4167 1504 4167 
C 1894 4167 1894 4116 1894 4046 
C 1894 4034 1894 3995 1869 3899 
L 1005 472 
C 947 249 934 185 486 185 
C 365 185 301 185 301 70 
C 301 0 358 0 397 0 
C 518 0 646 0 768 0 
L 1517 0 
C 1638 0 1773 0 1894 0 
C 1946 0 2016 0 2016 121 
C 2016 185 1958 185 1862 185 
C 1478 185 1472 230 1472 293 
C 1472 325 1478 369 1485 401 
L 1894 2023 
z
M 2355 3930 
C 2413 4167 2438 4167 2688 4167 
L 3322 4167 
C 3802 4167 4198 4013 4198 3535 
C 4198 3369 4115 2827 3821 2534 
C 3712 2419 3405 2176 2822 2176 
L 1920 2176 
L 2355 3930 
z
" transform="scale(0.015625)"/>
       <path id="CMMI12-3b" d="M 1248 -31 
C 1248 343 1126 619 864 619 
C 659 619 557 453 557 313 
C 557 172 653 0 870 0 
C 954 0 1024 26 1082 83 
C 1094 96 1101 96 1107 96 
C 1120 96 1120 5 1120 -27 
C 1120 -240 1082 -659 710 -1080 
C 640 -1157 640 -1170 640 -1183 
C 640 -1216 672 -1248 704 -1248 
C 755 -1248 1248 -771 1248 -31 
z
" transform="scale(0.015625)"/>
       <path id="CMMI12-53" d="M 4064 4423 
C 4064 4480 4019 4480 4006 4480 
C 3981 4480 3974 4474 3898 4378 
C 3859 4333 3597 4001 3590 3995 
C 3379 4410 2957 4480 2688 4480 
C 1875 4480 1139 3743 1139 3025 
C 1139 2549 1427 2269 1741 2161 
C 1811 2135 2189 2033 2381 1989 
C 2707 1900 2790 1875 2925 1735 
C 2950 1703 3078 1557 3078 1258 
C 3078 667 2528 57 1888 57 
C 1363 57 781 280 781 991 
C 781 1112 806 1265 826 1328 
C 826 1348 832 1378 832 1391 
C 832 1417 819 1449 768 1449 
C 710 1449 704 1436 678 1328 
L 352 24 
C 352 18 326 -64 326 -71 
C 326 -128 378 -128 390 -128 
C 416 -128 422 -122 499 -26 
L 794 356 
C 947 126 1280 -128 1875 -128 
C 2701 -128 3456 666 3456 1460 
C 3456 1728 3392 1963 3149 2197 
C 3014 2331 2899 2363 2310 2516 
C 1882 2630 1824 2649 1709 2751 
C 1600 2858 1517 3011 1517 3227 
C 1517 3761 2061 4308 2669 4308 
C 3296 4308 3590 3926 3590 3323 
C 3590 3158 3558 2986 3558 2961 
C 3558 2903 3610 2903 3629 2903 
C 3686 2903 3693 2922 3718 3024 
L 4064 4423 
z
" transform="scale(0.015625)"/>
       <path id="CMR17-29" d="M 1683 1581 
C 1683 2040 1638 2817 1254 3639 
C 947 4303 422 4768 346 4768 
C 326 4768 301 4761 301 4729 
C 301 4717 307 4710 314 4697 
C 621 4378 1402 3568 1402 1584 
C 1402 -407 627 -1217 314 -1537 
C 307 -1549 301 -1556 301 -1568 
C 301 -1600 326 -1600 346 -1600 
C 416 -1600 960 -1128 1274 -426 
C 1594 281 1683 969 1683 1581 
z
" transform="scale(0.015625)"/>
      </defs>
      <use xlink:href="#CMMI12-1e" transform="scale(0.996264)"/>
      <use xlink:href="#CMR17-28" transform="translate(57.73418 0) scale(0.996264)"/>
      <use xlink:href="#CMMI12-50" transform="translate(93.014948 0) scale(0.996264)"/>
      <use xlink:href="#CMMI12-3b" transform="translate(158.601898 0) scale(0.996264)"/>
      <use xlink:href="#CMMI12-53" transform="translate(202.30348 0) scale(0.996264)"/>
      <use xlink:href="#CMR17-29" transform="translate(268.09792 0) scale(0.996264)"/>
     </g>
    </g>
   </g>
   <g id="line2d_13">
    <path d="M 68.591654 169.214096 
L 68.337182 166.50994 
L 68.192069 161.99283 
L 68.166172 155.37058 
L 68.270233 147.592033 
L 68.516245 140.218381 
L 68.917296 133.533392 
L 69.48776 126.774806 
L 70.243471 119.359539 
L 71.201248 111.202722 
L 72.379904 102.296824 
L 73.798744 92.86254 
L 75.478508 83.516585 
L 77.440112 74.502503 
L 79.705682 65.521137 
L 82.295926 56.654041 
L 85.230571 48.493074 
L 88.526884 41.384149 
L 92.198937 34.980293 
L 96.255622 29.166248 
L 100.698837 24.559731 
L 105.523997 21.524238 
L 110.715909 19.811072 
L 116.249234 19.110361 
L 122.090089 19.516736 
L 128.191725 21.708316 
L 134.497943 25.651726 
L 140.942552 29.310013 
L 147.456154 35.795306 
L 153.961026 41.349477 
L 160.379795 49.468645 
L 166.635837 56.730066 
L 172.65661 65.726458 
L 178.374583 71.664373 
L 183.734922 79.987854 
L 188.68846 88.269923 
L 193.198303 96.430072 
L 197.238167 104.021888 
L 200.792742 111.180134 
L 203.857182 117.92373 
L 206.43584 124.30242 
L 208.536684 130.419271 
L 210.179901 136.19886 
L 211.38698 141.455298 
L 212.184679 146.173698 
L 212.60132 150.498384 
L 212.667521 154.562136 
L 212.414379 158.395196 
L 211.872171 161.936477 
L 211.071038 165.112296 
L 210.04014 167.906721 
L 208.806712 170.367747 
L 207.396693 172.560717 
L 205.834231 174.5349 
L 204.140779 176.313427 
L 202.336986 177.900966 
L 200.441416 179.296709 
L 198.470215 180.502237 
L 196.438743 181.524529 
L 194.360339 182.376366 
L 192.244628 183.074384 
L 190.10661 183.635528 
L 185.791987 184.421246 
L 181.477298 184.863114 
L 177.20941 185.058631 
L 173.023772 185.072678 
L 166.955968 184.830893 
L 161.191588 184.310805 
L 157.535905 183.804355 
L 154.037321 183.15588 
L 150.700775 182.350883 
L 147.5279 181.380635 
L 144.519928 180.253542 
L 140.317107 178.368068 
L 135.287914 176.02905 
L 128.957244 173.365878 
L 127.165566 172.002199 
L 125.530964 170.296518 
L 123.370786 167.514652 
L 120.538715 163.417119 
L 119.293928 161.366412 
L 118.385822 159.41318 
L 117.965864 158.072034 
L 117.693141 156.655673 
L 117.5674 155.151969 
L 117.652435 152.765549 
L 118.064632 150.347717 
L 118.520705 148.808081 
L 119.121501 147.374537 
L 119.866823 146.05725 
L 120.756892 144.832961 
L 122.362762 143.065037 
L 125.010242 140.570317 
L 128.237088 137.765499 
L 131.039886 135.557286 
L 134.173944 133.417621 
L 136.450475 132.08608 
L 138.880222 130.847922 
L 142.820184 129.156411 
L 147.131596 127.609533 
L 153.503917 125.624296 
L 166.617948 121.859123 
L 177.784801 118.829022 
L 185.308932 117.047407 
L 190.688392 115.983042 
L 196.367646 115.089131 
L 202.345331 114.423147 
L 208.617439 114.028902 
L 215.171945 113.930797 
L 221.989793 114.129013 
L 229.046015 114.597032 
L 236.305851 115.283545 
L 247.488721 116.57823 
L 270.266469 119.524835 
L 281.463367 121.194943 
L 288.713396 122.51442 
L 295.719318 124.103578 
L 302.4263 126.039074 
L 308.782597 128.335979 
L 314.747304 130.897731 
L 327.752365 136.874725 
L 332.154496 138.56458 
L 337.906539 140.600976 
L 339.604804 141.310917 
L 341.198034 142.09994 
L 342.690205 142.983626 
L 345.386185 144.984565 
L 348.776177 148.033456 
L 351.49509 150.396544 
L 353.669937 151.900718 
L 355.419882 152.793941 
L 357.264939 153.471862 
L 362.155151 155.056545 
L 362.561229 155.458245 
L 362.645434 155.790594 
L 362.517073 156.120294 
L 362.072457 156.509866 
L 361.165715 156.918967 
L 359.683795 157.294756 
L 357.572454 157.592812 
L 354.19015 157.826194 
L 348.703766 157.957226 
L 347.261665 157.969812 
L 347.261665 157.969812 
" clip-path="url(#p69d08b3d37)" style="fill: none; stroke: #1f77b4; stroke-width: 2; stroke-linecap: square"/>
   </g>
   <g id="line2d_14">
    <path d="M 70.1984 169.331455 
L 69.966305 166.719754 
L 69.839094 162.336675 
L 69.827037 155.841864 
L 69.94125 148.094781 
L 70.194055 140.676798 
L 70.599216 133.97419 
L 71.171507 127.255508 
L 71.927124 119.904921 
L 72.883682 111.813874 
L 74.060305 102.971109 
L 75.477157 93.562296 
L 77.155389 84.194986 
L 79.116977 75.163778 
L 81.384633 66.172818 
L 83.98015 57.250599 
L 86.924179 48.992351 
L 90.235218 41.804136 
L 93.928364 35.365346 
L 98.013846 29.505478 
L 102.495155 24.812668 
L 107.368094 21.687701 
L 112.619505 19.911121 
L 118.223958 19.174626 
L 124.148477 19.569404 
L 130.346145 21.77012 
L 136.759707 25.713229 
L 143.322114 29.249884 
L 149.961737 35.88499 
L 156.598821 41.734125 
L 163.152752 49.678613 
L 169.543924 56.599664 
L 175.696541 65.750076 
L 181.540263 72.004572 
L 187.016413 80.133746 
L 192.074214 88.422863 
L 196.674636 96.558124 
L 200.789785 104.124551 
L 204.403152 111.262163 
L 207.510533 117.995129 
L 210.116214 124.387316 
L 212.229197 130.543154 
L 213.870033 136.366427 
L 215.062639 141.655679 
L 215.834269 146.397455 
L 216.216379 150.738625 
L 216.240724 154.80668 
L 215.939402 158.623782 
L 215.34553 162.12794 
L 214.490664 165.255531 
L 213.405064 168.003965 
L 212.117328 170.428531 
L 210.654923 172.594045 
L 209.042868 174.545777 
L 207.303798 176.303349 
L 205.459217 177.869576 
L 203.527507 179.243358 
L 201.526622 180.426572 
L 199.472448 181.426725 
L 197.377403 182.256979 
L 195.252937 182.934032 
L 193.113293 183.4748 
L 188.81917 184.220153 
L 184.556966 184.619106 
L 180.375057 184.764737 
L 176.308713 184.716872 
L 172.386039 184.50768 
L 168.625765 184.147989 
L 165.041801 183.632603 
L 161.644976 182.944077 
L 158.442269 182.057052 
L 155.43833 180.944245 
L 152.636756 179.585068 
L 150.039897 177.981572 
L 147.649394 176.174917 
L 145.467196 174.255689 
L 142.587322 171.398973 
L 140.932055 169.534146 
L 139.490669 167.540397 
L 138.265635 165.272411 
L 137.259452 162.769714 
L 136.475411 160.231094 
L 135.916858 157.855536 
L 135.588086 155.739207 
L 135.49363 153.867011 
L 135.638443 152.144975 
L 136.02788 150.436059 
L 136.668085 148.588237 
L 138.112034 145.272075 
L 140.157165 141.159756 
L 141.865984 138.12413 
L 143.859534 135.095675 
L 146.145158 132.280282 
L 147.399719 130.991324 
L 148.729861 129.787918 
L 151.620314 127.625072 
L 154.823029 125.742028 
L 158.343263 124.079044 
L 162.186068 122.589284 
L 166.354079 121.246018 
L 170.849959 120.037443 
L 175.672114 118.960082 
L 180.818638 118.012749 
L 186.2836 117.197065 
L 192.057557 116.518464 
L 198.128843 115.986298 
L 204.479621 115.612602 
L 211.089847 115.410305 
L 217.933584 115.393692 
L 224.981034 115.579501 
L 232.196566 115.98545 
L 239.541675 116.624396 
L 246.974964 117.494735 
L 254.4507 118.570408 
L 265.643295 120.445402 
L 300.863132 126.778285 
L 307.206122 128.123381 
L 313.231742 129.64082 
L 318.915809 131.3773 
L 324.238152 133.322422 
L 329.180996 135.390273 
L 341.647512 140.820759 
L 345.010136 142.019274 
L 352.827885 144.52649 
L 354.73047 145.410734 
L 356.317786 146.421152 
L 357.614409 147.52169 
L 359.074777 149.156057 
L 360.263999 150.904094 
L 360.788089 152.007675 
L 360.846307 152.615164 
L 360.685387 152.862149 
L 360.30556 153.0321 
L 359.05812 153.200901 
L 358.075485 153.443909 
L 357.11588 153.938655 
L 353.673913 156.063583 
L 352.0726 156.69807 
L 350.156874 157.229117 
L 347.545394 157.700725 
L 344.140223 158.066205 
L 339.447104 158.33464 
L 332.067399 158.514214 
L 326.342494 158.559671 
L 326.342494 158.559671 
" clip-path="url(#p69d08b3d37)" style="fill: none; stroke: #1f77b4; stroke-width: 2; stroke-linecap: square"/>
   </g>
   <g id="line2d_15">
    <path d="M 68.960155 169.241359 
L 68.671034 166.553479 
L 68.49356 162.056403 
L 68.437137 155.447806 
L 68.512081 147.664662 
L 68.730064 140.276588 
L 69.103793 133.582278 
L 69.647439 126.820541 
L 70.376498 119.402784 
L 71.30777 111.241542 
L 72.459744 102.328917 
L 73.852001 92.884719 
L 75.505009 83.527284 
L 77.440256 74.502556 
L 79.679781 65.511105 
L 82.244878 56.636103 
L 85.155869 48.471275 
L 88.430777 41.360681 
L 92.084325 34.954862 
L 96.12616 29.141459 
L 100.559749 24.540425 
L 105.380827 21.511751 
L 110.575351 19.803821 
L 116.118942 19.106225 
L 121.978139 19.513921 
L 128.106148 21.705894 
L 134.446527 25.650325 
L 140.933074 29.310328 
L 147.494503 35.796615 
L 154.052434 41.36267 
L 160.527146 49.48034 
L 166.840452 56.721663 
L 172.917965 65.728696 
L 178.691281 71.700262 
L 184.101903 80.004398 
L 189.10055 88.288934 
L 193.649424 96.447244 
L 197.721583 104.036573 
L 201.301423 111.192542 
L 204.384426 117.934973 
L 206.975076 124.315718 
L 209.083919 130.438398 
L 210.73011 136.224631 
L 211.937501 141.486229 
L 212.734248 146.2085 
L 213.149902 150.536194 
L 213.215923 154.601323 
L 212.965492 158.432937 
L 212.430281 161.969546 
L 211.64091 165.138635 
L 210.628131 167.926226 
L 209.419689 170.381515 
L 208.042951 172.569879 
L 206.522049 174.539874 
L 204.879669 176.31383 
L 203.136591 177.89585 
L 201.312199 179.284739 
L 199.42269 180.481918 
L 197.483834 181.494296 
L 195.508773 182.334578 
L 193.508413 183.019252 
L 191.496506 183.565239 
L 187.469357 184.314158 
L 183.488647 184.708276 
L 179.601982 184.840883 
L 175.845419 184.770577 
L 172.245621 184.52691 
L 168.822282 184.115971 
L 165.590055 183.525669 
L 162.5598 182.729261 
L 159.739335 181.689577 
L 157.135199 180.365466 
L 154.751859 178.723508 
L 152.593775 176.757579 
L 150.664947 174.509888 
L 148.969491 172.079663 
L 147.511875 169.578443 
L 146.297059 167.034471 
L 145.330793 164.348567 
L 144.619345 161.433316 
L 144.170236 158.380081 
L 143.991427 155.410497 
L 144.092019 152.702832 
L 144.481981 150.296673 
L 145.17196 148.106504 
L 146.173084 145.967981 
L 147.49792 143.682078 
L 151.166499 138.019643 
L 153.535129 134.621233 
L 156.276358 131.163681 
L 157.790639 129.534495 
L 159.401332 128.025253 
L 161.110143 126.653334 
L 162.918519 125.417365 
L 164.826229 124.301668 
L 168.945041 122.329472 
L 173.469849 120.552826 
L 178.400209 118.88229 
L 183.732277 117.330945 
L 189.45641 115.959293 
L 195.558924 114.822719 
L 202.018465 113.952939 
L 208.810671 113.362359 
L 215.900831 113.056891 
L 223.252067 113.044447 
L 230.820025 113.338057 
L 238.554752 113.950403 
L 246.404024 114.880459 
L 254.310512 116.097005 
L 262.21677 117.529479 
L 309.743023 126.86087 
L 315.962679 128.35625 
L 321.795543 130.048694 
L 327.225286 131.958961 
L 332.240048 134.039199 
L 338.973839 137.211145 
L 346.494619 140.76296 
L 351.076856 142.58325 
L 358.543821 145.220441 
L 359.931909 145.951916 
L 361.028089 146.737988 
L 361.855883 147.554778 
L 362.440095 148.357757 
L 362.914608 149.437337 
L 362.985606 150.288838 
L 362.740218 150.900594 
L 362.261172 151.308777 
L 361.623834 151.563429 
L 360.3714 151.766253 
L 358.237127 151.81817 
L 353.996311 151.875768 
L 351.938358 152.121662 
L 349.561195 152.630322 
L 346.384919 153.580554 
L 340.151333 155.521057 
L 336.809012 156.292967 
L 333.410051 156.844533 
L 329.450039 157.247541 
L 324.470924 157.514563 
L 305.859134 158.11743 
L 305.859134 158.11743 
" clip-path="url(#p69d08b3d37)" style="fill: none; stroke: #1f77b4; stroke-width: 2; stroke-linecap: square"/>
   </g>
   <g id="line2d_16">
    <path d="M 68.983465 169.243079 
L 68.754808 166.564364 
L 68.63052 162.085199 
L 68.620582 155.500026 
L 68.736015 147.731949 
L 68.988738 140.347103 
L 69.392166 133.657873 
L 69.960712 126.910188 
L 70.710239 119.511154 
L 71.657798 111.368992 
L 72.822187 102.474587 
L 74.222962 93.039262 
L 75.880656 83.678981 
L 77.816329 74.650653 
L 80.052335 65.655269 
L 82.609223 56.764279 
L 85.507121 48.573968 
L 88.763376 41.441987 
L 92.392316 35.02321 
L 96.402768 29.194441 
L 100.797736 24.573487 
L 105.572285 21.528452 
L 110.712057 19.810862 
L 116.192051 19.108542 
L 121.9791 19.513948 
L 128.02614 21.703604 
L 134.277632 25.645757 
L 140.667678 29.319542 
L 147.125822 35.783841 
L 153.575441 41.293916 
L 159.938185 49.433254 
L 166.137012 56.750046 
L 172.098746 65.721543 
L 177.756629 71.593151 
L 183.054462 79.957037 
L 187.943081 88.235232 
L 192.385655 96.398718 
L 196.356952 103.994568 
L 199.840299 111.156159 
L 202.833035 117.901064 
L 205.338921 124.274463 
L 207.367732 130.377567 
L 208.93918 136.139861 
L 210.076279 141.380509 
L 210.805691 146.084784 
L 211.157543 150.396777 
L 211.162455 154.45175 
L 210.851408 158.284398 
L 210.255926 161.836025 
L 209.406613 165.030029 
L 208.332495 167.844376 
L 207.06094 170.322641 
L 205.618313 172.52944 
L 204.028352 174.5155 
L 202.313184 176.3057 
L 200.4928 177.905658 
L 198.585944 179.314679 
L 196.60873 180.533978 
L 194.575993 181.570034 
L 192.501302 182.435229 
L 190.394298 183.145802 
L 188.269175 183.718611 
L 183.993057 184.52498 
L 179.732544 184.984658 
L 175.534455 185.196209 
L 171.432069 185.225573 
L 165.513587 185.006467 
L 159.926703 184.507971 
L 156.404456 184.013546 
L 153.05237 183.372402 
L 149.874961 182.566635 
L 146.874365 181.582656 
L 144.052791 180.422843 
L 141.410782 179.120837 
L 132.648377 174.274408 
L 130.909529 173.133372 
L 130.107944 172.434423 
L 128.640275 170.70954 
L 127.353878 168.645365 
L 125.764204 165.409095 
L 124.583869 162.5155 
L 123.813972 160.09535 
L 123.529324 158.656886 
L 123.428026 157.253829 
L 123.510309 155.795358 
L 123.776469 154.208611 
L 124.520805 151.51591 
L 125.679292 148.519001 
L 126.681805 146.469302 
L 127.868506 144.46873 
L 129.23983 142.552349 
L 130.795952 140.701089 
L 133.478577 137.92532 
L 136.583469 135.031217 
L 140.118668 132.067573 
L 142.72007 130.148327 
L 145.522793 128.342183 
L 148.532301 126.683343 
L 151.756215 125.178492 
L 155.20238 123.813519 
L 158.880199 122.562383 
L 164.853826 120.837883 
L 171.406772 119.237089 
L 178.574681 117.749217 
L 186.387732 116.431542 
L 191.965812 115.696677 
L 197.840597 115.112461 
L 204.009132 114.702899 
L 210.46386 114.485472 
L 217.188994 114.474726 
L 224.164165 114.684523 
L 231.360296 115.125216 
L 238.73724 115.796654 
L 246.251383 116.683459 
L 253.853921 117.754622 
L 265.293004 119.609764 
L 280.286153 122.322175 
L 291.059085 124.468776 
L 297.903266 126.006215 
L 304.416672 127.694772 
L 310.554816 129.577858 
L 316.283368 131.647027 
L 321.575945 133.81384 
L 332.83553 138.600803 
L 336.555181 139.943141 
L 345.240707 142.786036 
L 347.399751 143.842372 
L 349.241556 145.06448 
L 350.798548 146.385582 
L 352.669101 148.306887 
L 356.768184 153.006533 
L 356.783297 153.408418 
L 356.551018 153.812795 
L 355.866764 154.480235 
L 354.7627 155.268593 
L 353.210702 156.089042 
L 351.513751 156.731904 
L 349.490985 157.268507 
L 346.767046 157.742777 
L 343.278688 158.107516 
L 338.097848 158.38963 
L 330.488658 158.549329 
L 326.044376 158.570829 
L 326.044376 158.570829 
" clip-path="url(#p69d08b3d37)" style="fill: none; stroke: #1f77b4; stroke-width: 2; stroke-linecap: square"/>
   </g>
   <g id="patch_3">
    <path d="M 53.42442 193.536948 
L 53.42442 10.8 
" style="fill: none; stroke: #000000; stroke-width: 0.8; stroke-linejoin: miter; stroke-linecap: square"/>
   </g>
   <g id="patch_4">
    <path d="M 377.742964 193.536948 
L 377.742964 10.8 
" style="fill: none; stroke: #000000; stroke-width: 0.8; stroke-linejoin: miter; stroke-linecap: square"/>
   </g>
   <g id="patch_5">
    <path d="M 53.42442 193.536948 
L 377.742964 193.536948 
" style="fill: none; stroke: #000000; stroke-width: 0.8; stroke-linejoin: miter; stroke-linecap: square"/>
   </g>
   <g id="patch_6">
    <path d="M 53.42442 10.8 
L 377.742964 10.8 
" style="fill: none; stroke: #000000; stroke-width: 0.8; stroke-linejoin: miter; stroke-linecap: square"/>
   </g>
   <g id="legend_1"/>
  </g>
 </g>
 <defs>
  <clipPath id="p69d08b3d37">
   <rect x="53.42442" y="10.8" width="324.318544" height="182.736948"/>
  </clipPath>
 </defs>
</svg>
