<?xml version="1.0" encoding="utf-8" standalone="no"?>
<!DOCTYPE svg PUBLIC "-//W3C//DTD SVG 1.1//EN"
  "http://www.w3.org/Graphics/SVG/1.1/DTD/svg11.dtd">
<svg xmlns:xlink="http://www.w3.org/1999/xlink" width="388.542964pt" height="240.132758pt" viewBox="0 0 388.542964 240.132758" xmlns="http://www.w3.org/2000/svg" version="1.1">
 <metadata>
  <rdf:RDF xmlns:dc="http://purl.org/dc/elements/1.1/" xmlns:cc="http://creativecommons.org/ns#" xmlns:rdf="http://www.w3.org/1999/02/22-rdf-syntax-ns#">
   <cc:Work>
    <dc:type rdf:resource="http://purl.org/dc/dcmitype/StillImage"/>
    <dc:date>2024-12-29T13:19:52.749798</dc:date>
    <dc:format>image/svg+xml</dc:format>
    <dc:creator>
     <cc:Agent>
      <dc:title>Matplotlib v3.7.5, https://matplotlib.org/</dc:title>
     </cc:Agent>
    </dc:creator>
   </cc:Work>
  </rdf:RDF>
 </metadata>
 <defs>
  <style type="text/css">*{stroke-linejoin: round; stroke-linecap: butt}</style>
 </defs>
 <g id="figure_1">
  <g id="patch_1">
   <path d="M 0 240.132758 
L 388.542964 240.132758 
L 388.542964 0 
L 0 0 
z
" style="fill: #ffffff"/>
  </g>
  <g id="axes_1">
   <g id="patch_2">
    <path d="M 53.42442 193.536948 
L 377.742964 193.536948 
L 377.742964 10.8 
L 53.42442 10.8 
z
" style="fill: #ffffff"/>
   </g>
   <g id="matplotlib.axis_1">
    <g id="xtick_1">
     <g id="line2d_1">
      <defs>
       <path id="mfe96504058" d="M 0 0 
L 0 3.5 
" style="stroke: #000000; stroke-width: 0.8"/>
      </defs>
      <g>
       <use xlink:href="#mfe96504058" x="68.166172" y="193.536948" style="stroke: #000000; stroke-width: 0.8"/>
      </g>
     </g>
     <g id="text_1">
      <!-- $\mathdefault{0.0}$ -->
      <g transform="translate(59.440881 210.222825) scale(0.14 -0.14)">
       <defs>
        <path id="CMR17-30" d="M 2688 2025 
C 2688 2416 2682 3080 2413 3591 
C 2176 4039 1798 4198 1466 4198 
C 1158 4198 768 4058 525 3597 
C 269 3118 243 2524 243 2025 
C 243 1661 250 1106 448 619 
C 723 -39 1216 -128 1466 -128 
C 1760 -128 2208 -7 2470 600 
C 2662 1042 2688 1559 2688 2025 
z
M 1466 -26 
C 1056 -26 813 325 723 812 
C 653 1188 653 1738 653 2096 
C 653 2588 653 2997 736 3387 
C 858 3929 1216 4096 1466 4096 
C 1728 4096 2067 3923 2189 3400 
C 2272 3036 2278 2607 2278 2096 
C 2278 1680 2278 1169 2202 792 
C 2067 95 1690 -26 1466 -26 
z
" transform="scale(0.015625)"/>
        <path id="CMMI12-3a" d="M 1178 307 
C 1178 492 1024 619 870 619 
C 685 619 557 466 557 313 
C 557 128 710 0 864 0 
C 1050 0 1178 153 1178 307 
z
" transform="scale(0.015625)"/>
       </defs>
       <use xlink:href="#CMR17-30" transform="scale(0.996264)"/>
       <use xlink:href="#CMMI12-3a" transform="translate(45.690477 0) scale(0.996264)"/>
       <use xlink:href="#CMR17-30" transform="translate(72.787654 0) scale(0.996264)"/>
      </g>
     </g>
    </g>
    <g id="xtick_2">
     <g id="line2d_2">
      <g>
       <use xlink:href="#mfe96504058" x="127.13318" y="193.536948" style="stroke: #000000; stroke-width: 0.8"/>
      </g>
     </g>
     <g id="text_2">
      <!-- $\mathdefault{0.2}$ -->
      <g transform="translate(118.407889 210.222825) scale(0.14 -0.14)">
       <defs>
        <path id="CMR17-32" d="M 2669 989 
L 2554 989 
C 2490 536 2438 459 2413 420 
C 2381 369 1920 369 1830 369 
L 602 369 
C 832 619 1280 1072 1824 1597 
C 2214 1967 2669 2402 2669 3035 
C 2669 3790 2067 4224 1395 4224 
C 691 4224 262 3604 262 3030 
C 262 2780 448 2748 525 2748 
C 589 2748 781 2787 781 3010 
C 781 3207 614 3264 525 3264 
C 486 3264 448 3258 422 3245 
C 544 3790 915 4058 1306 4058 
C 1862 4058 2227 3617 2227 3035 
C 2227 2479 1901 2000 1536 1584 
L 262 146 
L 262 0 
L 2515 0 
L 2669 989 
z
" transform="scale(0.015625)"/>
       </defs>
       <use xlink:href="#CMR17-30" transform="scale(0.996264)"/>
       <use xlink:href="#CMMI12-3a" transform="translate(45.690477 0) scale(0.996264)"/>
       <use xlink:href="#CMR17-32" transform="translate(72.787654 0) scale(0.996264)"/>
      </g>
     </g>
    </g>
    <g id="xtick_3">
     <g id="line2d_3">
      <g>
       <use xlink:href="#mfe96504058" x="186.100188" y="193.536948" style="stroke: #000000; stroke-width: 0.8"/>
      </g>
     </g>
     <g id="text_3">
      <!-- $\mathdefault{0.4}$ -->
      <g transform="translate(177.374897 210.222825) scale(0.14 -0.14)">
       <defs>
        <path id="CMR17-34" d="M 2150 4122 
C 2150 4256 2144 4256 2029 4256 
L 128 1254 
L 128 1088 
L 1779 1088 
L 1779 457 
C 1779 224 1766 160 1318 160 
L 1197 160 
L 1197 0 
C 1402 0 1747 0 1965 0 
C 2182 0 2528 0 2733 0 
L 2733 160 
L 2611 160 
C 2163 160 2150 224 2150 457 
L 2150 1088 
L 2803 1088 
L 2803 1254 
L 2150 1254 
L 2150 4122 
z
M 1798 3703 
L 1798 1254 
L 256 1254 
L 1798 3703 
z
" transform="scale(0.015625)"/>
       </defs>
       <use xlink:href="#CMR17-30" transform="scale(0.996264)"/>
       <use xlink:href="#CMMI12-3a" transform="translate(45.690477 0) scale(0.996264)"/>
       <use xlink:href="#CMR17-34" transform="translate(72.787654 0) scale(0.996264)"/>
      </g>
     </g>
    </g>
    <g id="xtick_4">
     <g id="line2d_4">
      <g>
       <use xlink:href="#mfe96504058" x="245.067196" y="193.536948" style="stroke: #000000; stroke-width: 0.8"/>
      </g>
     </g>
     <g id="text_4">
      <!-- $\mathdefault{0.6}$ -->
      <g transform="translate(236.341905 210.222825) scale(0.14 -0.14)">
       <defs>
        <path id="CMR17-36" d="M 678 2176 
C 678 3690 1395 4032 1811 4032 
C 1946 4032 2272 4009 2400 3776 
C 2298 3776 2106 3776 2106 3553 
C 2106 3381 2246 3323 2336 3323 
C 2394 3323 2566 3348 2566 3560 
C 2566 3954 2246 4179 1805 4179 
C 1043 4179 243 3390 243 1984 
C 243 253 966 -128 1478 -128 
C 2099 -128 2688 427 2688 1283 
C 2688 2081 2170 2662 1517 2662 
C 1126 2662 838 2407 678 1960 
L 678 2176 
z
M 1478 25 
C 691 25 691 1200 691 1436 
C 691 1896 909 2560 1504 2560 
C 1613 2560 1926 2560 2138 2120 
C 2253 1870 2253 1609 2253 1289 
C 2253 944 2253 690 2118 434 
C 1978 171 1773 25 1478 25 
z
" transform="scale(0.015625)"/>
       </defs>
       <use xlink:href="#CMR17-30" transform="scale(0.996264)"/>
       <use xlink:href="#CMMI12-3a" transform="translate(45.690477 0) scale(0.996264)"/>
       <use xlink:href="#CMR17-36" transform="translate(72.787654 0) scale(0.996264)"/>
      </g>
     </g>
    </g>
    <g id="xtick_5">
     <g id="line2d_5">
      <g>
       <use xlink:href="#mfe96504058" x="304.034204" y="193.536948" style="stroke: #000000; stroke-width: 0.8"/>
      </g>
     </g>
     <g id="text_5">
      <!-- $\mathdefault{0.8}$ -->
      <g transform="translate(295.308913 210.222825) scale(0.14 -0.14)">
       <defs>
        <path id="CMR17-38" d="M 1741 2264 
C 2144 2467 2554 2773 2554 3263 
C 2554 3841 1990 4179 1472 4179 
C 890 4179 378 3759 378 3180 
C 378 3021 416 2747 666 2505 
C 730 2442 998 2251 1171 2130 
C 883 1983 211 1634 211 934 
C 211 279 838 -128 1459 -128 
C 2144 -128 2720 362 2720 1010 
C 2720 1590 2330 1857 2074 2029 
L 1741 2264 
z
M 902 2822 
C 851 2854 595 3051 595 3351 
C 595 3739 998 4032 1459 4032 
C 1965 4032 2336 3676 2336 3262 
C 2336 2669 1670 2331 1638 2331 
C 1632 2331 1626 2331 1574 2370 
L 902 2822 
z
M 2080 1519 
C 2176 1449 2483 1240 2483 851 
C 2483 381 2010 25 1472 25 
C 890 25 448 438 448 940 
C 448 1443 838 1862 1280 2060 
L 2080 1519 
z
" transform="scale(0.015625)"/>
       </defs>
       <use xlink:href="#CMR17-30" transform="scale(0.996264)"/>
       <use xlink:href="#CMMI12-3a" transform="translate(45.690477 0) scale(0.996264)"/>
       <use xlink:href="#CMR17-38" transform="translate(72.787654 0) scale(0.996264)"/>
      </g>
     </g>
    </g>
    <g id="xtick_6">
     <g id="line2d_6">
      <g>
       <use xlink:href="#mfe96504058" x="363.001212" y="193.536948" style="stroke: #000000; stroke-width: 0.8"/>
      </g>
     </g>
     <g id="text_6">
      <!-- $\mathdefault{1.0}$ -->
      <g transform="translate(354.275921 210.222825) scale(0.14 -0.14)">
       <defs>
        <path id="CMR17-31" d="M 1702 4058 
C 1702 4192 1696 4192 1606 4192 
C 1357 3916 979 3827 621 3827 
C 602 3827 570 3827 563 3808 
C 557 3795 557 3782 557 3648 
C 755 3648 1088 3686 1344 3839 
L 1344 461 
C 1344 236 1331 160 781 160 
L 589 160 
L 589 0 
C 896 0 1216 0 1523 0 
C 1830 0 2150 0 2458 0 
L 2458 160 
L 2266 160 
C 1715 160 1702 230 1702 458 
L 1702 4058 
z
" transform="scale(0.015625)"/>
       </defs>
       <use xlink:href="#CMR17-31" transform="scale(0.996264)"/>
       <use xlink:href="#CMMI12-3a" transform="translate(45.690477 0) scale(0.996264)"/>
       <use xlink:href="#CMR17-30" transform="translate(72.787654 0) scale(0.996264)"/>
      </g>
     </g>
    </g>
    <g id="text_7">
     <!-- t -->
     <g transform="translate(212.928169 226.620729) scale(0.14 -0.14)">
      <defs>
       <path id="CMR17-74" d="M 966 2560 
L 1862 2560 
L 1862 2725 
L 966 2725 
L 966 3904 
L 851 3904 
C 838 3245 614 2668 70 2668 
L 70 2560 
L 627 2560 
L 627 771 
C 627 650 627 -64 1370 -64 
C 1747 -64 1965 306 1965 777 
L 1965 1140 
L 1850 1140 
L 1850 783 
C 1850 344 1677 51 1408 51 
C 1222 51 966 178 966 758 
L 966 2560 
z
" transform="scale(0.015625)"/>
      </defs>
      <use xlink:href="#CMR17-74" transform="scale(0.996264)"/>
     </g>
    </g>
   </g>
   <g id="matplotlib.axis_2">
    <g id="ytick_1">
     <g id="line2d_7">
      <defs>
       <path id="mf511130411" d="M 0 0 
L -3.5 0 
" style="stroke: #000000; stroke-width: 0.8"/>
      </defs>
      <g>
       <use xlink:href="#mf511130411" x="53.42442" y="183.828888" style="stroke: #000000; stroke-width: 0.8"/>
      </g>
     </g>
     <g id="text_8">
      <!-- $\mathdefault{−5}$ -->
      <g transform="translate(28.747696 188.671826) scale(0.14 -0.14)">
       <defs>
        <path id="CMSY10-0" d="M 4218 1472 
C 4326 1472 4442 1472 4442 1600 
C 4442 1728 4326 1728 4218 1728 
L 755 1728 
C 646 1728 531 1728 531 1600 
C 531 1472 646 1472 755 1472 
L 4218 1472 
z
" transform="scale(0.015625)"/>
        <path id="CMR17-35" d="M 730 3692 
C 794 3666 1056 3584 1325 3584 
C 1920 3584 2246 3911 2432 4100 
C 2432 4157 2432 4192 2394 4192 
C 2387 4192 2374 4192 2323 4163 
C 2099 4058 1837 3973 1517 3973 
C 1325 3973 1037 3999 723 4139 
C 653 4171 640 4171 634 4171 
C 602 4171 595 4164 595 4037 
L 595 2203 
C 595 2089 595 2057 659 2057 
C 691 2057 704 2070 736 2114 
C 941 2401 1222 2522 1542 2522 
C 1766 2522 2246 2382 2246 1289 
C 2246 1085 2246 715 2054 421 
C 1894 159 1645 25 1370 25 
C 947 25 518 320 403 814 
C 429 807 480 795 506 795 
C 589 795 749 840 749 1038 
C 749 1210 627 1280 506 1280 
C 358 1280 262 1190 262 1011 
C 262 454 704 -128 1382 -128 
C 2042 -128 2669 440 2669 1264 
C 2669 2030 2170 2624 1549 2624 
C 1222 2624 947 2503 730 2274 
L 730 3692 
z
" transform="scale(0.015625)"/>
       </defs>
       <use xlink:href="#CMSY10-0" transform="scale(0.996264)"/>
       <use xlink:href="#CMR17-35" transform="translate(77.487468 0) scale(0.996264)"/>
      </g>
     </g>
    </g>
    <g id="ytick_2">
     <g id="line2d_8">
      <g>
       <use xlink:href="#mf511130411" x="53.42442" y="151.93924" style="stroke: #000000; stroke-width: 0.8"/>
      </g>
     </g>
     <g id="text_9">
      <!-- $\mathdefault{0}$ -->
      <g transform="translate(39.595931 156.782178) scale(0.14 -0.14)">
       <use xlink:href="#CMR17-30" transform="scale(0.996264)"/>
      </g>
     </g>
    </g>
    <g id="ytick_3">
     <g id="line2d_9">
      <g>
       <use xlink:href="#mf511130411" x="53.42442" y="120.049592" style="stroke: #000000; stroke-width: 0.8"/>
      </g>
     </g>
     <g id="text_10">
      <!-- $\mathdefault{5}$ -->
      <g transform="translate(39.595931 124.89253) scale(0.14 -0.14)">
       <use xlink:href="#CMR17-35" transform="scale(0.996264)"/>
      </g>
     </g>
    </g>
    <g id="ytick_4">
     <g id="line2d_10">
      <g>
       <use xlink:href="#mf511130411" x="53.42442" y="88.159944" style="stroke: #000000; stroke-width: 0.8"/>
      </g>
     </g>
     <g id="text_11">
      <!-- $\mathdefault{10}$ -->
      <g transform="translate(32.767443 93.002883) scale(0.14 -0.14)">
       <use xlink:href="#CMR17-31" transform="scale(0.996264)"/>
       <use xlink:href="#CMR17-30" transform="translate(45.690477 0) scale(0.996264)"/>
      </g>
     </g>
    </g>
    <g id="ytick_5">
     <g id="line2d_11">
      <g>
       <use xlink:href="#mf511130411" x="53.42442" y="56.270297" style="stroke: #000000; stroke-width: 0.8"/>
      </g>
     </g>
     <g id="text_12">
      <!-- $\mathdefault{15}$ -->
      <g transform="translate(32.767443 61.113235) scale(0.14 -0.14)">
       <use xlink:href="#CMR17-31" transform="scale(0.996264)"/>
       <use xlink:href="#CMR17-35" transform="translate(45.690477 0) scale(0.996264)"/>
      </g>
     </g>
    </g>
    <g id="ytick_6">
     <g id="line2d_12">
      <g>
       <use xlink:href="#mf511130411" x="53.42442" y="24.380649" style="stroke: #000000; stroke-width: 0.8"/>
      </g>
     </g>
     <g id="text_13">
      <!-- $\mathdefault{20}$ -->
      <g transform="translate(32.767443 29.223587) scale(0.14 -0.14)">
       <use xlink:href="#CMR17-32" transform="scale(0.996264)"/>
       <use xlink:href="#CMR17-30" transform="translate(45.690477 0) scale(0.996264)"/>
      </g>
     </g>
    </g>
    <g id="text_14">
     <!-- $\phi(P, t)$ -->
     <g transform="translate(21.260772 121.636933) rotate(-90) scale(0.14 -0.14)">
      <defs>
       <path id="CMMI12-1e" d="M 2752 4390 
C 2752 4448 2707 4448 2688 4448 
C 2630 4448 2624 4435 2598 4326 
L 2253 2939 
C 2234 2856 2227 2849 2221 2843 
C 2214 2830 2170 2824 2157 2824 
C 1107 2734 301 1864 301 1057 
C 301 361 832 -64 1498 -64 
C 1446 -261 1402 -463 1350 -659 
C 1261 -995 1210 -1204 1210 -1229 
C 1210 -1241 1210 -1280 1274 -1280 
C 1293 -1280 1318 -1280 1331 -1254 
C 1344 -1241 1382 -1089 1408 -1008 
L 1645 -64 
C 2739 -64 3571 854 3571 1680 
C 3571 2343 3085 2816 2374 2816 
L 2752 4390 
z
M 2336 2701 
C 2758 2701 3181 2463 3181 1828 
C 3181 1097 2675 128 1677 50 
L 2336 2701 
z
M 1530 50 
C 1216 50 691 220 691 938 
C 691 1761 1274 2676 2195 2676 
L 1530 50 
z
" transform="scale(0.015625)"/>
       <path id="CMR17-28" d="M 1958 -1561 
C 1958 -1555 1958 -1542 1939 -1523 
C 1645 -1224 858 -407 858 1581 
C 858 3569 1632 4379 1946 4697 
C 1946 4704 1958 4717 1958 4736 
C 1958 4755 1939 4768 1914 4768 
C 1843 4768 1299 4296 986 3594 
C 666 2887 576 2199 576 1588 
C 576 1128 621 351 1005 -471 
C 1312 -1135 1837 -1600 1914 -1600 
C 1946 -1600 1958 -1587 1958 -1561 
z
" transform="scale(0.015625)"/>
       <path id="CMMI12-50" d="M 1894 2023 
L 2970 2023 
C 3853 2023 4736 2673 4736 3401 
C 4736 3898 4314 4352 3507 4352 
L 1530 4352 
C 1408 4352 1350 4352 1350 4231 
C 1350 4167 1408 4167 1504 4167 
C 1894 4167 1894 4116 1894 4046 
C 1894 4034 1894 3995 1869 3899 
L 1005 472 
C 947 249 934 185 486 185 
C 365 185 301 185 301 70 
C 301 0 358 0 397 0 
C 518 0 646 0 768 0 
L 1517 0 
C 1638 0 1773 0 1894 0 
C 1946 0 2016 0 2016 121 
C 2016 185 1958 185 1862 185 
C 1478 185 1472 230 1472 293 
C 1472 325 1478 369 1485 401 
L 1894 2023 
z
M 2355 3930 
C 2413 4167 2438 4167 2688 4167 
L 3322 4167 
C 3802 4167 4198 4013 4198 3535 
C 4198 3369 4115 2827 3821 2534 
C 3712 2419 3405 2176 2822 2176 
L 1920 2176 
L 2355 3930 
z
" transform="scale(0.015625)"/>
       <path id="CMMI12-3b" d="M 1248 -31 
C 1248 343 1126 619 864 619 
C 659 619 557 453 557 313 
C 557 172 653 0 870 0 
C 954 0 1024 26 1082 83 
C 1094 96 1101 96 1107 96 
C 1120 96 1120 5 1120 -27 
C 1120 -240 1082 -659 710 -1080 
C 640 -1157 640 -1170 640 -1183 
C 640 -1216 672 -1248 704 -1248 
C 755 -1248 1248 -771 1248 -31 
z
" transform="scale(0.015625)"/>
       <path id="CMMI12-74" d="M 1286 2566 
L 1875 2566 
C 1997 2566 2061 2566 2061 2681 
C 2061 2752 2022 2752 1894 2752 
L 1331 2752 
L 1568 3692 
C 1594 3781 1594 3794 1594 3840 
C 1594 3943 1510 4000 1427 4000 
C 1376 4000 1229 3981 1178 3775 
L 928 2752 
L 326 2752 
C 198 2752 141 2752 141 2630 
C 141 2566 186 2566 307 2566 
L 877 2566 
L 454 881 
C 403 658 384 594 384 511 
C 384 211 595 -64 954 -64 
C 1600 -64 1946 868 1946 912 
C 1946 951 1920 970 1882 970 
C 1869 970 1843 970 1830 944 
C 1824 938 1818 931 1773 829 
C 1638 511 1344 64 973 64 
C 781 64 768 224 768 364 
C 768 370 768 492 787 568 
L 1286 2566 
z
" transform="scale(0.015625)"/>
       <path id="CMR17-29" d="M 1683 1581 
C 1683 2040 1638 2817 1254 3639 
C 947 4303 422 4768 346 4768 
C 326 4768 301 4761 301 4729 
C 301 4717 307 4710 314 4697 
C 621 4378 1402 3568 1402 1584 
C 1402 -407 627 -1217 314 -1537 
C 307 -1549 301 -1556 301 -1568 
C 301 -1600 326 -1600 346 -1600 
C 416 -1600 960 -1128 1274 -426 
C 1594 281 1683 969 1683 1581 
z
" transform="scale(0.015625)"/>
      </defs>
      <use xlink:href="#CMMI12-1e" transform="scale(0.996264)"/>
      <use xlink:href="#CMR17-28" transform="translate(57.73418 0) scale(0.996264)"/>
      <use xlink:href="#CMMI12-50" transform="translate(93.014948 0) scale(0.996264)"/>
      <use xlink:href="#CMMI12-3b" transform="translate(158.601898 0) scale(0.996264)"/>
      <use xlink:href="#CMMI12-74" transform="translate(202.30348 0) scale(0.996264)"/>
      <use xlink:href="#CMR17-29" transform="translate(237.529811 0) scale(0.996264)"/>
     </g>
    </g>
   </g>
   <g id="line2d_13">
    <path d="M 68.166172 165.419906 
L 69.030802 162.912506 
L 69.895433 158.719636 
L 70.760063 152.565243 
L 72.489324 138.466842 
L 75.083216 119.059336 
L 76.812349 103.181474 
L 80.270743 68.975221 
L 82.000005 53.15552 
L 83.729265 40.605619 
L 84.593896 35.207429 
L 85.458527 30.936272 
L 86.323157 28.124955 
L 87.187787 26.539329 
L 88.052291 25.891668 
L 88.916922 26.270946 
L 89.781551 28.30867 
L 91.510684 35.373809 
L 92.375315 41.406364 
L 93.239946 46.587653 
L 95.833838 69.224663 
L 96.698339 74.784112 
L 100.156862 104.831532 
L 101.885995 117.74837 
L 103.61564 129.371343 
L 105.344898 139.642565 
L 107.074033 148.055627 
L 108.803295 155.394373 
L 110.532554 161.622868 
L 112.261816 166.492445 
L 113.990951 170.356137 
L 115.720209 173.476505 
L 117.449472 175.88538 
L 119.178607 177.618415 
L 120.908374 178.780476 
L 122.637637 179.503326 
L 124.366899 179.907171 
L 126.09603 180.082313 
L 128.689924 180.040849 
L 131.283686 179.719664 
L 133.877452 179.143745 
L 136.471469 178.292535 
L 139.065235 177.13191 
L 141.658997 175.662187 
L 146.846653 172.448118 
L 148.575915 171.659629 
L 152.898935 170.118177 
L 154.628198 169.106532 
L 156.357337 167.76253 
L 164.139005 161.125617 
L 177.108461 151.196497 
L 181.431489 147.833956 
L 184.025256 146.065793 
L 186.619145 144.536319 
L 191.806801 141.860746 
L 196.129821 139.48776 
L 206.505387 133.388903 
L 209.963789 131.776321 
L 213.422305 130.410249 
L 224.662761 126.191741 
L 228.121023 124.496685 
L 231.579548 122.480095 
L 235.902568 119.619352 
L 239.36097 117.399881 
L 241.090223 116.4836 
L 242.819354 115.797698 
L 244.548748 115.407572 
L 246.277756 115.350296 
L 248.00701 115.621647 
L 249.736281 116.174212 
L 252.33017 117.352964 
L 260.111592 121.217192 
L 263.570117 122.952219 
L 265.299371 124.029314 
L 267.028502 125.363205 
L 268.757632 127.01984 
L 270.486904 129.003952 
L 275.675069 135.523157 
L 277.404323 137.195538 
L 279.133453 138.480879 
L 282.591855 140.730183 
L 284.321109 142.267651 
L 286.914875 145.197331 
L 288.644147 147.10418 
L 290.3734 148.662569 
L 292.102654 149.831538 
L 293.831925 150.679923 
L 295.561056 151.296555 
L 298.154945 151.943801 
L 301.613347 152.524964 
L 306.801003 153.141052 
L 315.447043 153.908496 
L 324.093346 154.45535 
L 333.604409 154.824977 
L 345.708991 155.048964 
L 363.001212 155.143288 
L 363.001212 155.143288 
" clip-path="url(#p573d359e17)" style="fill: none; stroke: #1f77b4; stroke-width: 3; stroke-linecap: square"/>
   </g>
   <g id="line2d_14">
    <path d="M 68.166172 165.406403 
L 69.030802 162.893078 
L 69.895433 158.694739 
L 70.760063 152.539819 
L 72.489324 138.456906 
L 75.083216 119.070066 
L 76.812349 103.211461 
L 80.270743 69.031022 
L 82.000005 53.204623 
L 83.729265 40.645435 
L 84.593896 35.241686 
L 85.458527 30.960249 
L 86.323157 28.138969 
L 87.187787 26.546701 
L 88.052291 25.895439 
L 88.916922 26.273136 
L 89.781551 28.310057 
L 91.510684 35.375305 
L 92.375315 41.402933 
L 93.239946 46.565148 
L 95.833838 69.221853 
L 96.698339 74.740731 
L 100.156862 104.814787 
L 101.885995 117.735581 
L 103.61564 129.349316 
L 105.344898 139.606534 
L 107.074033 148.011453 
L 108.803295 155.350989 
L 110.532554 161.594066 
L 112.261816 166.478641 
L 113.990951 170.351719 
L 115.720209 173.480243 
L 117.449472 175.897943 
L 119.178607 177.639816 
L 120.908374 178.810119 
L 122.637637 179.540389 
L 124.366899 179.951074 
L 126.09603 180.132794 
L 128.689924 180.10094 
L 131.283686 179.788478 
L 133.877452 179.218122 
L 136.471469 178.36432 
L 139.065235 177.184513 
L 141.658997 175.666799 
L 147.71128 171.740427 
L 150.305178 170.554028 
L 152.034431 169.759448 
L 153.763571 168.678454 
L 155.492833 167.235103 
L 162.40962 160.706436 
L 165.003509 158.728242 
L 171.920682 153.734224 
L 175.379207 150.86907 
L 181.431489 145.760593 
L 184.025256 143.883728 
L 189.213034 140.546351 
L 192.671428 138.158043 
L 196.994456 134.80842 
L 201.317476 131.506828 
L 204.776133 129.204644 
L 208.234526 127.206833 
L 217.745325 121.929862 
L 222.068486 119.147836 
L 226.391892 116.410239 
L 228.985781 115.101018 
L 230.714912 114.482033 
L 232.444183 114.11561 
L 234.173437 114.024428 
L 235.902568 114.208656 
L 237.631839 114.643647 
L 239.36097 115.281713 
L 241.954859 116.485032 
L 247.142392 119.223697 
L 249.736281 120.775945 
L 251.465658 122.002308 
L 253.194806 123.479319 
L 254.92406 125.278227 
L 256.65319 127.413041 
L 261.840969 134.402578 
L 263.570117 136.185007 
L 265.299371 137.5778 
L 267.893014 139.472342 
L 269.622268 141.027009 
L 272.216034 143.862772 
L 273.945288 145.720474 
L 275.675069 147.278585 
L 277.404323 148.463233 
L 279.133453 149.314824 
L 280.862725 149.914626 
L 283.456491 150.506562 
L 286.914875 150.98419 
L 292.96729 151.508615 
L 309.394892 152.85274 
L 322.36397 153.920492 
L 331.010642 154.408973 
L 340.521336 154.723215 
L 353.490396 154.909093 
L 363.001212 154.955624 
L 363.001212 154.955624 
" clip-path="url(#p573d359e17)" style="fill: none; stroke: #1f77b4; stroke-width: 2; stroke-linecap: square"/>
   </g>
   <g id="line2d_15">
    <path d="M 68.166172 165.51548 
L 69.030802 163.088085 
L 69.895433 159.014319 
L 70.760063 152.977845 
L 72.489324 138.882972 
L 75.083216 119.57696 
L 76.812349 103.838162 
L 80.270743 69.636714 
L 82.000005 53.668667 
L 83.729265 41.003315 
L 84.593896 35.556976 
L 85.458527 31.195336 
L 86.323157 28.290897 
L 87.187787 26.63969 
L 88.052291 25.955169 
L 88.916922 26.322087 
L 89.781551 28.3675 
L 91.510684 35.319419 
L 94.969207 60.739134 
L 95.833838 69.243805 
L 96.698339 75.056922 
L 100.156862 104.910206 
L 101.885995 117.801941 
L 104.480269 134.876782 
L 106.209402 144.199925 
L 107.938664 152.015714 
L 109.667927 158.820314 
L 111.397057 164.281671 
L 113.126447 168.54783 
L 114.855578 171.995369 
L 116.58484 174.727903 
L 118.313976 176.75719 
L 120.043871 178.158127 
L 121.773006 179.054017 
L 123.502268 179.572976 
L 125.231399 179.817269 
L 126.960661 179.857487 
L 129.554428 179.620723 
L 132.148317 179.065799 
L 133.877452 178.508906 
L 135.606838 177.779883 
L 137.335973 176.853652 
L 139.065235 175.706278 
L 140.794493 174.327369 
L 143.38826 171.876001 
L 151.169805 163.850816 
L 152.898935 161.742881 
L 158.951226 153.834557 
L 161.544984 151.142357 
L 166.732771 146.236104 
L 168.461902 144.263265 
L 170.191042 141.957883 
L 172.785309 137.933873 
L 176.243834 132.353633 
L 177.973096 129.880999 
L 179.702227 127.721474 
L 181.431489 125.848325 
L 184.025256 123.456516 
L 186.619145 121.431523 
L 189.213034 119.70013 
L 191.806801 118.243416 
L 194.40069 117.060196 
L 196.994456 116.164474 
L 199.588223 115.587549 
L 201.317476 115.399527 
L 203.046739 115.384087 
L 204.776133 115.556784 
L 206.505387 115.934085 
L 208.234526 116.527941 
L 209.963789 117.33686 
L 212.557546 118.893358 
L 223.798126 126.574433 
L 226.391892 128.6258 
L 228.121023 130.239737 
L 230.714912 133.001821 
L 234.173437 136.75821 
L 235.902568 138.342016 
L 237.631839 139.611091 
L 239.36097 140.586668 
L 241.954859 141.727587 
L 245.413243 143.282836 
L 248.00701 144.726974 
L 252.33017 147.224919 
L 254.92406 148.388531 
L 257.517826 149.208504 
L 260.111592 149.742201 
L 263.570117 150.145537 
L 267.893014 150.366364 
L 287.779511 151.006398 
L 294.69642 151.62296 
L 304.207096 152.757127 
L 314.582548 153.950036 
L 322.36397 154.594999 
L 330.146024 155.010748 
L 339.6567 155.294707 
L 353.490396 155.467415 
L 363.001212 155.503857 
L 363.001212 155.503857 
" clip-path="url(#p573d359e17)" style="fill: none; stroke: #1f77b4; stroke-width: 2; stroke-linecap: square"/>
   </g>
   <g id="line2d_16">
    <path d="M 68.166172 165.431742 
L 69.030802 162.933545 
L 69.895433 158.753825 
L 70.760063 152.611595 
L 72.489324 138.511005 
L 75.083216 119.110258 
L 76.812349 103.241289 
L 80.270743 69.021697 
L 82.000005 53.184363 
L 83.729265 40.621798 
L 84.593896 35.218645 
L 85.458527 30.942305 
L 86.323157 28.127364 
L 87.187787 26.539961 
L 88.052291 25.891595 
L 88.916922 26.27052 
L 89.781551 28.307806 
L 91.510684 35.375597 
L 92.375315 41.40415 
L 93.239946 46.57741 
L 95.833838 69.223933 
L 96.698339 74.774088 
L 100.156862 104.828436 
L 101.885995 117.746031 
L 103.61564 129.367093 
L 105.344898 139.635282 
L 107.074033 148.046594 
L 108.803295 155.386067 
L 110.532554 161.618546 
L 112.261816 166.491437 
L 113.990951 170.356342 
L 115.720209 173.475488 
L 117.449472 175.879059 
L 119.178607 177.600976 
L 120.908374 178.74479 
L 122.637637 179.440859 
L 124.366899 179.807163 
L 126.09603 179.930412 
L 127.825293 179.865068 
L 129.554428 179.638597 
L 131.283686 179.256657 
L 133.012948 178.708013 
L 134.742206 177.967807 
L 136.471469 177.001493 
L 138.200604 175.770824 
L 139.929862 174.244739 
L 141.658997 172.417544 
L 144.252886 169.2131 
L 148.575915 163.380593 
L 151.169805 159.555332 
L 157.221964 150.060333 
L 159.815853 146.789467 
L 164.139005 141.676171 
L 165.868145 139.244612 
L 167.597398 136.413332 
L 172.785309 127.124243 
L 174.514703 124.700393 
L 176.243834 122.714771 
L 178.837723 120.179143 
L 181.431489 117.88851 
L 184.025256 115.909774 
L 185.754518 114.853407 
L 187.483649 114.045008 
L 189.213034 113.496104 
L 190.942174 113.212193 
L 192.671428 113.200627 
L 194.40069 113.473517 
L 196.129821 114.042651 
L 197.859083 114.907073 
L 199.588223 116.037767 
L 202.182112 118.080922 
L 207.369891 122.287849 
L 214.286941 127.431882 
L 216.016071 129.00489 
L 218.609961 131.732725 
L 222.933121 136.584861 
L 224.662761 138.245204 
L 226.391892 139.601382 
L 228.121023 140.654886 
L 229.850417 141.471543 
L 234.173437 143.105972 
L 237.631839 144.516426 
L 242.819354 146.711651 
L 245.413243 147.578354 
L 248.00701 148.218788 
L 250.600899 148.656359 
L 254.059424 149.001337 
L 258.382462 149.189848 
L 266.164007 149.235723 
L 278.268835 149.291635 
L 283.456491 149.520176 
L 287.779511 149.894912 
L 292.96729 150.59306 
L 300.748711 151.950403 
L 307.665621 153.063585 
L 312.853276 153.678422 
L 318.905568 154.148919 
L 325.822618 154.445485 
L 337.062934 154.656155 
L 362.136576 155.072546 
L 363.001212 155.092825 
L 363.001212 155.092825 
" clip-path="url(#p573d359e17)" style="fill: none; stroke: #1f77b4; stroke-width: 2; stroke-linecap: square"/>
   </g>
   <g id="line2d_17">
    <path d="M 68.166172 165.43334 
L 69.030802 162.943662 
L 69.895433 158.78059 
L 70.760063 152.66013 
L 72.489324 138.576544 
L 75.083216 119.210981 
L 76.812349 103.376679 
L 80.270743 69.155688 
L 82.000005 53.279809 
L 83.729265 40.685324 
L 84.593896 35.267889 
L 85.458527 30.973034 
L 86.323157 28.142886 
L 87.187787 26.546506 
L 88.052291 25.893748 
L 88.916922 26.270545 
L 89.781551 28.305677 
L 91.510684 35.384161 
L 92.375315 41.392277 
L 93.239946 46.513508 
L 95.833838 69.217285 
L 96.698339 74.674536 
L 100.156862 104.789396 
L 101.885995 117.714515 
L 103.61564 129.310555 
L 105.344898 139.537023 
L 107.074033 147.917016 
L 108.803295 155.24801 
L 110.532554 161.517604 
L 112.261816 166.436718 
L 113.990951 170.333688 
L 115.720209 173.484604 
L 117.449472 175.927445 
L 119.178607 177.694525 
L 120.908374 178.887339 
L 122.637637 179.636802 
L 124.366899 180.064041 
L 126.09603 180.260663 
L 128.689924 180.250116 
L 131.283686 179.958577 
L 133.877452 179.407296 
L 136.471469 178.565561 
L 138.200604 177.816657 
L 139.929862 176.902117 
L 142.523624 175.232063 
L 147.71128 171.578544 
L 152.898935 168.399472 
L 154.628198 166.796313 
L 157.221964 163.86594 
L 159.815853 160.923425 
L 162.40962 158.386677 
L 165.003509 156.253103 
L 170.191042 152.215243 
L 172.785309 149.829949 
L 175.379207 147.11979 
L 181.431489 140.626167 
L 189.213034 132.717097 
L 193.536063 128.242427 
L 196.129821 125.877031 
L 198.723719 123.829119 
L 201.317476 122.046886 
L 204.776133 119.937197 
L 209.099153 117.573383 
L 211.692919 116.348697 
L 214.286941 115.375143 
L 216.016071 114.910975 
L 217.745325 114.61783 
L 219.474596 114.51014 
L 221.203727 114.601106 
L 222.933121 114.902608 
L 224.662761 115.420275 
L 226.391892 116.147184 
L 228.985781 117.578407 
L 231.579548 119.302632 
L 235.902568 122.476083 
L 239.36097 125.247687 
L 241.954859 127.66863 
L 244.548748 130.490429 
L 248.871645 135.368288 
L 250.600899 136.95348 
L 252.33017 138.20109 
L 254.059424 139.167875 
L 258.382462 141.314046 
L 260.97621 142.961018 
L 266.164007 146.507898 
L 267.893014 147.442185 
L 269.622268 148.194349 
L 272.216034 149.022063 
L 274.809924 149.582194 
L 278.268835 150.075361 
L 284.321109 150.643771 
L 294.69642 151.615766 
L 305.071855 152.884226 
L 314.582548 153.983538 
L 321.499457 154.573876 
L 329.281389 155.013034 
L 338.792064 155.311179 
L 351.761265 155.479624 
L 363.001212 155.514227 
L 363.001212 155.514227 
" clip-path="url(#p573d359e17)" style="fill: none; stroke: #1f77b4; stroke-width: 2; stroke-linecap: square"/>
   </g>
   <g id="line2d_18">
    <path d="M 68.166172 185.230723 
L 69.895433 173.741574 
L 71.624694 161.183604 
L 73.353955 147.337881 
L 75.083216 132.014049 
L 76.812349 115.117082 
L 79.406113 87.158533 
L 82.864635 49.058461 
L 84.593896 33.314212 
L 85.458527 27.246343 
L 86.323157 22.738188 
L 87.187787 19.988012 
L 88.052291 19.106225 
L 88.916922 20.100076 
L 89.781551 22.872343 
L 90.646182 27.233375 
L 91.510684 32.924861 
L 93.239946 47.113288 
L 98.427602 93.801299 
L 100.156862 106.754614 
L 101.885995 117.763041 
L 103.61564 126.906437 
L 105.344898 134.369086 
L 107.074033 140.380763 
L 108.803295 145.168933 
L 110.532554 148.93972 
L 112.261816 151.872923 
L 113.990951 154.120276 
L 115.720209 155.808459 
L 117.449472 157.041173 
L 119.178607 157.903262 
L 120.908374 158.464145 
L 122.637637 158.779665 
L 124.366899 158.895817 
L 126.960661 158.775897 
L 129.554428 158.387939 
L 133.012948 157.576812 
L 137.335973 156.256886 
L 143.38826 154.106977 
L 162.40962 147.146106 
L 169.326406 144.93034 
L 175.379207 143.20311 
L 181.431489 141.684723 
L 187.483649 140.371916 
L 194.40069 139.105905 
L 201.317476 138.06521 
L 208.234526 137.232889 
L 215.151567 136.617699 
L 221.203727 136.292855 
L 226.391892 136.216019 
L 231.579548 136.370872 
L 235.902568 136.70636 
L 240.225588 137.245051 
L 244.548748 137.984669 
L 249.736281 139.101788 
L 257.517826 141.054643 
L 265.299371 142.961375 
L 270.486904 144.006924 
L 274.809924 144.675153 
L 279.133453 145.143256 
L 284.321109 145.45244 
L 289.508765 145.523286 
L 295.561056 145.369929 
L 302.477842 144.972044 
L 311.988658 144.178668 
L 324.957982 142.840845 
L 343.979843 140.628344 
L 363.001212 138.314668 
L 363.001212 138.314668 
" clip-path="url(#p573d359e17)" style="fill: none; stroke-dasharray: 3,4.95; stroke-dashoffset: 0; stroke: #d62728; stroke-width: 3"/>
   </g>
   <g id="line2d_19">
    <path d="M 68.166172 180.292742 
L 69.895433 169.521008 
L 71.624694 157.450635 
L 73.353955 143.965377 
L 75.083216 129.01768 
L 77.676979 104.10208 
L 82.864635 52.366964 
L 84.593896 38.878965 
L 85.458527 33.723587 
L 86.323157 29.862631 
L 87.187787 27.422394 
L 88.052291 26.473358 
L 88.916922 27.022435 
L 89.781551 29.013202 
L 90.646182 32.330775 
L 91.510684 36.813115 
L 92.375315 42.268529 
L 94.104575 55.262681 
L 100.156862 104.584912 
L 101.885995 116.425719 
L 103.61564 126.756924 
L 105.344898 135.607574 
L 107.074033 143.091935 
L 108.803295 149.356597 
L 110.532554 154.553551 
L 112.261816 158.828437 
L 113.990951 162.312919 
L 115.720209 165.123562 
L 117.449472 167.360258 
L 119.178607 169.108407 
L 120.908374 170.441124 
L 122.637637 171.418762 
L 124.366899 172.093496 
L 126.09603 172.50895 
L 127.825293 172.70205 
L 129.554428 172.704016 
L 131.283686 172.541342 
L 133.877452 172.0372 
L 136.471469 171.275617 
L 139.065235 170.30696 
L 142.523624 168.761843 
L 146.846653 166.525917 
L 152.034431 163.538746 
L 158.951226 159.262592 
L 177.973096 147.342199 
L 184.889883 143.330313 
L 190.942174 140.054098 
L 196.994456 137.01937 
L 203.046739 134.24099 
L 208.234526 132.079433 
L 213.422305 130.147644 
L 217.745325 128.744686 
L 222.068486 127.569432 
L 225.52738 126.825887 
L 228.985781 126.288951 
L 232.444183 125.989554 
L 235.902568 125.957067 
L 238.496334 126.122486 
L 241.090223 126.45791 
L 243.684113 126.965151 
L 247.142392 127.901413 
L 250.600899 129.110291 
L 254.059424 130.546636 
L 259.24708 132.989276 
L 269.622268 138.002537 
L 273.945288 139.813969 
L 278.268835 141.351163 
L 282.591855 142.596171 
L 286.914875 143.565574 
L 291.238036 144.29634 
L 296.425691 144.921657 
L 302.477842 145.398033 
L 310.25951 145.755314 
L 321.499457 146.013797 
L 356.948921 146.679241 
L 363.001212 146.913431 
L 363.001212 146.913431 
" clip-path="url(#p573d359e17)" style="fill: none; stroke-dasharray: 11.1,4.8; stroke-dashoffset: 0; stroke: #d62728; stroke-width: 3"/>
   </g>
   <g id="line2d_20">
    <path d="M 68.166172 180.292742 
L 69.895433 169.559838 
L 71.624694 157.527544 
L 73.353955 144.076042 
L 75.083216 129.153404 
L 77.676979 104.247208 
L 82.864635 52.342525 
L 84.593896 38.713546 
L 85.458527 33.468074 
L 86.323157 29.503352 
L 87.187787 26.945625 
L 88.052291 25.865623 
L 88.916922 26.270837 
L 89.781551 28.105893 
L 90.646182 31.257195 
L 91.510684 35.564409 
L 92.375315 40.837714 
L 94.104575 53.455166 
L 100.156862 101.531155 
L 101.885995 113.080775 
L 103.61564 123.157952 
L 105.344898 131.791857 
L 107.074033 139.095103 
L 108.803295 145.211949 
L 110.532554 150.291709 
L 112.261816 154.477217 
L 113.990951 157.897438 
L 115.720209 160.666307 
L 117.449472 162.881268 
L 119.178607 164.625446 
L 120.908374 165.96985 
L 122.637637 166.972922 
L 124.366899 167.685079 
L 126.09603 168.148352 
L 127.825293 168.398245 
L 129.554428 168.46466 
L 132.148317 168.274631 
L 134.742206 167.797954 
L 137.335973 167.089872 
L 140.794493 165.860155 
L 144.252886 164.37658 
L 148.575915 162.256198 
L 153.763571 159.434753 
L 160.680489 155.374732 
L 171.920682 148.443786 
L 186.619145 139.416996 
L 195.265194 134.378888 
L 202.182112 130.581881 
L 209.099153 127.048371 
L 215.151567 124.227299 
L 220.339091 122.067737 
L 224.662761 120.5027 
L 228.121023 119.444332 
L 231.579548 118.596515 
L 235.03795 118.000926 
L 237.631839 117.74677 
L 240.225588 117.678896 
L 242.819354 117.814857 
L 245.413243 118.169289 
L 248.00701 118.751843 
L 250.600899 119.565543 
L 253.194806 120.605396 
L 255.788695 121.857216 
L 259.24708 123.814859 
L 262.705605 126.030525 
L 268.757632 130.241162 
L 275.675069 135.008655 
L 279.998089 137.719249 
L 284.321109 140.138733 
L 288.644147 142.257785 
L 292.96729 144.101704 
L 297.29031 145.712749 
L 302.477842 147.40365 
L 308.530256 149.131609 
L 316.311678 151.096511 
L 326.687113 153.453939 
L 343.115102 156.91356 
L 363.001212 161.103513 
L 363.001212 161.103513 
" clip-path="url(#p573d359e17)" style="fill: none; stroke-dasharray: 19.2,4.8,3,4.8; stroke-dashoffset: 0; stroke: #d62728; stroke-width: 3"/>
   </g>
   <g id="line2d_21">
    <path d="M 68.166172 165.51103 
L 68.755842 163.998127 
L 69.345512 161.801344 
L 69.935182 158.729462 
L 70.819687 152.404493 
L 73.178368 133.766169 
L 74.947378 120.502307 
L 76.421553 107.34145 
L 82.318254 50.670497 
L 83.792429 40.180674 
L 84.971769 33.127079 
L 85.856274 29.425046 
L 86.445944 27.795371 
L 87.035615 26.712679 
L 87.625284 26.074227 
L 88.214956 25.849188 
L 88.509789 25.912835 
L 88.804625 26.123203 
L 89.09946 26.513235 
L 89.68913 27.965205 
L 90.573634 31.623676 
L 91.458141 35.119769 
L 92.04781 40.328332 
L 92.637479 42.325108 
L 92.932315 43.929809 
L 93.521986 49.156498 
L 94.111655 54.061296 
L 94.701327 56.668929 
L 95.290996 63.809807 
L 95.585831 65.027268 
L 95.880665 69.391517 
L 96.470336 71.913296 
L 96.765172 76.316382 
L 97.649676 83.18212 
L 100.598026 108.250338 
L 102.367036 121.06888 
L 104.430883 134.449967 
L 105.905059 142.545758 
L 107.674068 150.732702 
L 109.443078 157.901362 
L 110.622416 161.945833 
L 111.801758 165.338931 
L 113.275932 168.866974 
L 114.75011 171.811772 
L 116.224284 174.235097 
L 117.403622 175.800397 
L 118.582965 177.048734 
L 119.762303 178.01136 
L 120.941646 178.728982 
L 122.415819 179.34572 
L 123.889993 179.719685 
L 125.659003 179.929229 
L 127.722852 179.929108 
L 130.081528 179.678817 
L 132.440209 179.190298 
L 134.504054 178.558046 
L 136.567899 177.707121 
L 138.631744 176.604349 
L 140.695594 175.226471 
L 143.054274 173.337986 
L 153.07866 164.617286 
L 154.847674 162.548018 
L 159.859866 156.442658 
L 161.923711 154.410841 
L 164.282396 152.4533 
L 169.589429 148.24049 
L 171.653274 146.234656 
L 174.01195 143.59273 
L 184.920847 130.759253 
L 188.753706 126.666327 
L 191.112382 124.439285 
L 193.471067 122.516966 
L 195.829744 120.887738 
L 198.48326 119.342235 
L 201.431608 117.90405 
L 204.085124 116.838256 
L 206.73864 116.018352 
L 209.097317 115.534476 
L 211.161171 115.324178 
L 213.225016 115.332261 
L 215.288861 115.582421 
L 217.057866 116.008665 
L 218.826871 116.639682 
L 220.890725 117.624558 
L 223.24941 119.020147 
L 227.082251 121.615086 
L 232.978964 125.846968 
L 235.0428 127.582152 
L 237.106654 129.618194 
L 239.465321 132.300546 
L 243.003349 136.343098 
L 244.772354 137.989736 
L 246.541377 139.28836 
L 248.605213 140.485751 
L 250.963898 141.854313 
L 252.438072 142.942709 
L 254.207077 144.533557 
L 257.155425 147.228608 
L 258.629616 148.279788 
L 260.10379 149.085672 
L 261.872795 149.784284 
L 263.936631 150.330438 
L 266.295316 150.720606 
L 269.538513 151.013601 
L 274.255865 151.185034 
L 296.36849 151.689599 
L 304.034207 152.237339 
L 318.481114 153.583184 
L 327.326174 154.246349 
L 335.876386 154.655055 
L 346.19562 154.914776 
L 361.527038 155.056802 
L 362.706381 155.061599 
L 362.706381 155.061599 
" clip-path="url(#p573d359e17)" style="fill: none; stroke-dasharray: 11.1,4.8; stroke-dashoffset: 0; stroke: #ff7f0e; stroke-width: 3"/>
   </g>
   <g id="line2d_22">
    <path d="M 68.166172 175.874713 
L 71.704192 138.67731 
L 74.357708 112.736183 
L 76.421553 94.425434 
L 78.190564 80.381731 
L 79.959573 68.185938 
L 81.433749 59.641959 
L 82.613088 53.963326 
L 83.792429 49.359089 
L 84.676935 46.625876 
L 85.561439 44.514578 
L 86.445944 43.021732 
L 87.035615 42.367634 
L 87.625284 41.986363 
L 88.214956 41.879962 
L 88.804625 42.052806 
L 89.394294 42.51103 
L 89.983965 43.261706 
L 90.573634 44.312579 
L 91.458141 46.482793 
L 92.342646 49.401792 
L 93.227151 53.143832 
L 94.406491 59.417589 
L 95.585831 67.187611 
L 97.060005 78.708501 
L 99.12385 97.019216 
L 101.777366 120.281655 
L 103.251542 131.40623 
L 104.430883 138.867497 
L 105.610223 144.930624 
L 106.789561 149.698421 
L 107.674068 152.525336 
L 108.558571 154.790284 
L 109.443078 156.576634 
L 110.622416 158.389357 
L 111.801758 159.787436 
L 114.75011 162.746757 
L 116.813955 165.0505 
L 118.582965 167.361603 
L 120.941646 170.850774 
L 125.364171 177.536384 
L 127.133181 179.805398 
L 128.607355 181.370428 
L 130.081528 182.581018 
L 131.260871 183.26948 
L 132.440209 183.696444 
L 133.619552 183.85751 
L 134.79889 183.754412 
L 135.978232 183.394863 
L 137.15757 182.792008 
L 138.336913 181.964538 
L 139.811087 180.649048 
L 141.580096 178.727601 
L 143.643946 176.135029 
L 146.592293 172.025715 
L 150.130312 166.710523 
L 155.142505 159.111023 
L 157.20635 156.395532 
L 159.270195 154.024756 
L 161.923711 151.354176 
L 170.768763 143.086502 
L 174.306791 139.966308 
L 176.960298 137.908687 
L 180.203486 135.694135 
L 187.574363 131.04747 
L 192.881396 127.578014 
L 196.419415 125.003665 
L 206.73864 117.240019 
L 208.802485 116.101279 
L 210.571499 115.347939 
L 212.340504 114.830586 
L 214.109518 114.561686 
L 215.878523 114.547671 
L 217.647546 114.776794 
L 219.416551 115.219572 
L 221.480387 115.967754 
L 223.839072 117.076653 
L 226.197757 118.455311 
L 228.261594 119.941392 
L 230.030616 121.495347 
L 231.799621 123.375188 
L 233.568626 125.609464 
L 235.63248 128.632377 
L 239.17049 134.344043 
L 241.824007 138.402174 
L 244.477523 142.013568 
L 247.720719 146.445763 
L 249.489724 149.236708 
L 254.207077 156.982877 
L 255.386419 158.257804 
L 256.270931 158.878512 
L 257.155425 159.204728 
L 258.039936 159.245681 
L 258.924447 159.029736 
L 259.808941 158.586529 
L 260.988283 157.706689 
L 262.462457 156.245648 
L 264.526311 153.751114 
L 267.474659 149.765991 
L 271.307518 144.650321 
L 273.371354 142.198266 
L 275.435208 140.081977 
L 277.204213 138.595617 
L 278.678387 137.610262 
L 280.15256 136.873923 
L 281.626734 136.400121 
L 283.100908 136.195128 
L 284.575099 136.263659 
L 286.049273 136.60825 
L 287.228598 137.080529 
L 288.702789 137.906799 
L 290.176963 138.980501 
L 291.945968 140.576957 
L 294.009805 142.832635 
L 296.073658 145.43064 
L 298.727175 149.146729 
L 307.277386 161.382965 
L 309.34124 163.777834 
L 310.815414 165.243344 
L 312.584419 166.659918 
L 314.058593 167.533565 
L 315.532767 168.11406 
L 316.712109 168.361976 
L 318.186283 168.396123 
L 319.365625 168.201535 
L 320.544968 167.817297 
L 322.019142 167.078396 
L 323.493316 166.059195 
L 324.967489 164.797573 
L 326.441663 163.32516 
L 328.505517 160.952354 
L 331.159033 157.533983 
L 338.235071 148.194645 
L 340.004076 146.237187 
L 341.773081 144.610621 
L 343.247273 143.558118 
L 344.721446 142.83887 
L 345.900771 142.542255 
L 346.785283 142.499084 
L 347.669794 142.599008 
L 348.849136 143.022983 
L 349.73363 143.552905 
L 350.912973 144.572137 
L 352.092315 145.969947 
L 353.271658 147.772255 
L 354.451 149.996698 
L 355.630343 152.688067 
L 356.809668 155.845488 
L 358.283859 160.518731 
L 359.758033 166.019144 
L 361.232207 172.425052 
L 362.706381 179.758653 
L 362.706381 179.758653 
" clip-path="url(#p573d359e17)" style="fill: none; stroke-dasharray: 19.2,4.8,3,4.8; stroke-dashoffset: 0; stroke: #8c564b; stroke-width: 3"/>
   </g>
   <g id="patch_3">
    <path d="M 53.42442 193.536948 
L 53.42442 10.8 
" style="fill: none; stroke: #000000; stroke-width: 0.8; stroke-linejoin: miter; stroke-linecap: square"/>
   </g>
   <g id="patch_4">
    <path d="M 377.742964 193.536948 
L 377.742964 10.8 
" style="fill: none; stroke: #000000; stroke-width: 0.8; stroke-linejoin: miter; stroke-linecap: square"/>
   </g>
   <g id="patch_5">
    <path d="M 53.42442 193.536948 
L 377.742964 193.536948 
" style="fill: none; stroke: #000000; stroke-width: 0.8; stroke-linejoin: miter; stroke-linecap: square"/>
   </g>
   <g id="patch_6">
    <path d="M 53.42442 10.8 
L 377.742964 10.8 
" style="fill: none; stroke: #000000; stroke-width: 0.8; stroke-linejoin: miter; stroke-linecap: square"/>
   </g>
   <g id="legend_1">
    <g id="line2d_23">
     <path d="M 205.268901 31.866486 
L 219.268901 31.866486 
L 233.268901 31.866486 
" style="fill: none; stroke: #1f77b4; stroke-width: 3; stroke-linecap: square"/>
    </g>
    <g id="text_15">
     <!-- $\hat{\phi}$ -->
     <g transform="translate(244.468901 36.766486) scale(0.14 -0.14)">
      <defs>
       <path id="CMR17-5e" d="M 1466 4421 
L 678 3555 
L 755 3478 
L 1466 4166 
L 2176 3478 
L 2253 3555 
L 1466 4421 
z
" transform="scale(0.015625)"/>
      </defs>
      <use xlink:href="#CMR17-5e" transform="translate(14.151005 26.296621) scale(0.996264)"/>
      <use xlink:href="#CMMI12-1e" transform="scale(0.996264)"/>
     </g>
    </g>
    <g id="line2d_24">
     <path d="M 205.268901 51.378515 
L 219.268901 51.378515 
L 233.268901 51.378515 
" style="fill: none; stroke-dasharray: 3,4.95; stroke-dashoffset: 0; stroke: #d62728; stroke-width: 3"/>
    </g>
    <g id="text_16">
     <!-- $\phi^s_9$ -->
     <g transform="translate(244.468901 56.278515) scale(0.14 -0.14)">
      <defs>
       <path id="CMMI12-73" d="M 1459 1280 
C 1568 1261 1741 1223 1779 1216 
C 1862 1192 2150 1090 2150 783 
C 2150 586 1971 70 1229 70 
C 1094 70 614 70 486 436 
C 742 404 870 603 870 745 
C 870 880 781 950 653 950 
C 512 950 326 841 326 552 
C 326 173 710 -64 1222 -64 
C 2195 -64 2483 651 2483 984 
C 2483 1079 2483 1258 2278 1462 
C 2118 1616 1965 1648 1619 1718 
C 1446 1756 1171 1814 1171 2101 
C 1171 2229 1286 2689 1894 2689 
C 2163 2689 2426 2589 2490 2368 
C 2208 2368 2195 2125 2195 2119 
C 2195 1984 2317 1946 2374 1946 
C 2464 1946 2643 2015 2643 2281 
C 2643 2545 2400 2816 1901 2816 
C 1062 2816 838 2160 838 1899 
C 838 1414 1312 1312 1459 1280 
z
" transform="scale(0.015625)"/>
       <path id="CMR17-39" d="M 2253 1864 
C 2253 464 1670 31 1190 31 
C 1043 31 685 31 538 294 
C 704 268 826 357 826 518 
C 826 692 685 749 595 749 
C 538 749 365 723 365 506 
C 365 71 742 -128 1203 -128 
C 1939 -128 2688 674 2688 2073 
C 2688 3817 1971 4179 1485 4179 
C 851 4179 243 3628 243 2778 
C 243 1991 762 1408 1414 1408 
C 1952 1408 2189 1903 2253 2112 
L 2253 1864 
z
M 1427 1510 
C 1254 1510 1011 1542 813 1922 
C 678 2169 678 2461 678 2771 
C 678 3146 678 3405 858 3684 
C 947 3817 1114 4032 1485 4032 
C 2240 4032 2240 2885 2240 2632 
C 2240 2182 2035 1510 1427 1510 
z
" transform="scale(0.015625)"/>
      </defs>
      <use xlink:href="#CMMI12-1e" transform="scale(0.996264)"/>
      <use xlink:href="#CMMI12-73" transform="translate(57.73418 36.153639) scale(0.697382)"/>
      <use xlink:href="#CMR17-39" transform="translate(57.73418 -24.740171) scale(0.697382)"/>
     </g>
    </g>
    <g id="line2d_25">
     <path d="M 205.268901 71.640493 
L 219.268901 71.640493 
L 233.268901 71.640493 
" style="fill: none; stroke-dasharray: 11.1,4.8; stroke-dashoffset: 0; stroke: #d62728; stroke-width: 3"/>
    </g>
    <g id="text_17">
     <!-- $\phi^s_{10}$ -->
     <g transform="translate(244.468901 76.540493) scale(0.14 -0.14)">
      <use xlink:href="#CMMI12-1e" transform="scale(0.996264)"/>
      <use xlink:href="#CMMI12-73" transform="translate(57.73418 36.153639) scale(0.697382)"/>
      <use xlink:href="#CMR17-31" transform="translate(57.73418 -24.740171) scale(0.697382)"/>
      <use xlink:href="#CMR17-30" transform="translate(89.717362 -24.740171) scale(0.697382)"/>
     </g>
    </g>
    <g id="line2d_26">
     <path d="M 290.586126 31.866486 
L 304.586126 31.866486 
L 318.586126 31.866486 
" style="fill: none; stroke-dasharray: 19.2,4.8,3,4.8; stroke-dashoffset: 0; stroke: #d62728; stroke-width: 3"/>
    </g>
    <g id="text_18">
     <!-- $\phi^s_{13}$ -->
     <g transform="translate(329.786126 36.766486) scale(0.14 -0.14)">
      <defs>
       <path id="CMR17-33" d="M 1414 2157 
C 1984 2157 2234 1662 2234 1090 
C 2234 320 1824 25 1453 25 
C 1114 25 563 194 390 693 
C 422 680 454 680 486 680 
C 640 680 755 782 755 948 
C 755 1133 614 1216 486 1216 
C 378 1216 211 1165 211 926 
C 211 335 787 -128 1466 -128 
C 2176 -128 2720 430 2720 1085 
C 2720 1707 2208 2157 1600 2227 
C 2086 2328 2554 2756 2554 3329 
C 2554 3820 2048 4179 1472 4179 
C 890 4179 378 3829 378 3329 
C 378 3110 544 3072 627 3072 
C 762 3072 877 3155 877 3321 
C 877 3486 762 3569 627 3569 
C 602 3569 570 3569 544 3557 
C 730 3959 1235 4032 1459 4032 
C 1683 4032 2106 3925 2106 3320 
C 2106 3143 2080 2828 1862 2550 
C 1670 2304 1453 2304 1242 2284 
C 1210 2284 1062 2269 1037 2269 
C 992 2263 966 2257 966 2208 
C 966 2163 973 2157 1101 2157 
L 1414 2157 
z
" transform="scale(0.015625)"/>
      </defs>
      <use xlink:href="#CMMI12-1e" transform="scale(0.996264)"/>
      <use xlink:href="#CMMI12-73" transform="translate(57.73418 36.153639) scale(0.697382)"/>
      <use xlink:href="#CMR17-31" transform="translate(57.73418 -24.740171) scale(0.697382)"/>
      <use xlink:href="#CMR17-33" transform="translate(89.717362 -24.740171) scale(0.697382)"/>
     </g>
    </g>
    <g id="line2d_27">
     <path d="M 290.586126 52.128464 
L 304.586126 52.128464 
L 318.586126 52.128464 
" style="fill: none; stroke-dasharray: 11.1,4.8; stroke-dashoffset: 0; stroke: #ff7f0e; stroke-width: 3"/>
    </g>
    <g id="text_19">
     <!-- $\phi^*$ -->
     <g transform="translate(329.786126 57.028464) scale(0.14 -0.14)">
      <defs>
       <path id="CMSY10-3" d="M 1760 2719 
C 1766 2808 1766 2962 1600 2962 
C 1498 2962 1414 2879 1434 2795 
L 1434 2712 
L 1523 1720 
L 704 2316 
C 646 2348 634 2360 589 2360 
C 499 2360 416 2271 416 2181 
C 416 2079 480 2053 544 2021 
L 1453 1586 
L 570 1158 
C 467 1107 416 1081 416 985 
C 416 889 499 806 589 806 
C 634 806 646 806 806 928 
L 1523 1446 
L 1427 371 
C 1427 236 1542 204 1594 204 
C 1670 204 1766 248 1766 371 
L 1670 1446 
L 2490 851 
C 2547 819 2560 806 2605 806 
C 2694 806 2778 896 2778 985 
C 2778 1081 2720 1113 2643 1152 
C 2259 1343 2246 1343 1741 1580 
L 2624 2008 
C 2726 2060 2778 2085 2778 2181 
C 2778 2277 2694 2360 2605 2360 
C 2560 2360 2547 2360 2387 2239 
L 1670 1720 
L 1760 2719 
z
" transform="scale(0.015625)"/>
      </defs>
      <use xlink:href="#CMMI12-1e" transform="scale(0.996264)"/>
      <use xlink:href="#CMSY10-3" transform="translate(57.73418 36.153639) scale(0.697382)"/>
     </g>
    </g>
    <g id="line2d_28">
     <path d="M 290.586126 71.640493 
L 304.586126 71.640493 
L 318.586126 71.640493 
" style="fill: none; stroke-dasharray: 19.2,4.8,3,4.8; stroke-dashoffset: 0; stroke: #8c564b; stroke-width: 3"/>
    </g>
    <g id="text_20">
     <!-- $\phi^s_{s} \cdot dt$ -->
     <g transform="translate(329.786126 76.540493) scale(0.14 -0.14)">
      <defs>
       <path id="CMSY10-1" d="M 1229 1619 
C 1229 1805 1075 1958 890 1958 
C 704 1958 550 1805 550 1619 
C 550 1433 704 1280 890 1280 
C 1075 1280 1229 1433 1229 1619 
z
" transform="scale(0.015625)"/>
       <path id="CMMI12-64" d="M 3219 4257 
C 3226 4282 3238 4320 3238 4352 
C 3238 4416 3174 4416 3162 4416 
C 3155 4416 2842 4388 2810 4380 
C 2701 4373 2605 4358 2490 4358 
C 2330 4345 2285 4339 2285 4224 
C 2285 4160 2336 4160 2426 4160 
C 2739 4160 2746 4103 2746 4040 
C 2746 4002 2733 3952 2726 3933 
L 2336 2395 
C 2266 2561 2093 2816 1760 2816 
C 1037 2816 256 1884 256 939 
C 256 307 627 -64 1062 -64 
C 1414 -64 1715 211 1894 422 
C 1958 45 2259 -64 2451 -64 
C 2643 -64 2797 51 2912 281 
C 3014 498 3104 888 3104 913 
C 3104 945 3078 971 3040 971 
C 2982 971 2976 939 2950 843 
C 2854 466 2733 64 2470 64 
C 2285 64 2272 229 2272 357 
C 2272 382 2272 515 2317 694 
L 3219 4257 
z
M 1926 760 
C 1894 651 1894 639 1805 517 
C 1664 338 1382 64 1082 64 
C 819 64 672 300 672 677 
C 672 1028 870 1743 992 2012 
C 1210 2459 1510 2689 1760 2689 
C 2182 2689 2266 2165 2266 2114 
C 2266 2108 2246 2024 2240 2012 
L 1926 760 
z
" transform="scale(0.015625)"/>
      </defs>
      <use xlink:href="#CMMI12-1e" transform="scale(0.996264)"/>
      <use xlink:href="#CMMI12-73" transform="translate(57.73418 36.153639) scale(0.697382)"/>
      <use xlink:href="#CMMI12-73" transform="translate(57.73418 -24.62935) scale(0.697382)"/>
      <use xlink:href="#CMSY10-1" transform="translate(112.536408 0) scale(0.996264)"/>
      <use xlink:href="#CMMI12-64" transform="translate(162.3497 0) scale(0.996264)"/>
      <use xlink:href="#CMMI12-74" transform="translate(213.038797 0) scale(0.996264)"/>
     </g>
    </g>
   </g>
  </g>
 </g>
 <defs>
  <clipPath id="p573d359e17">
   <rect x="53.42442" y="10.8" width="324.318544" height="182.736948"/>
  </clipPath>
 </defs>
</svg>
