<?xml version="1.0" encoding="utf-8" standalone="no"?>
<!DOCTYPE svg PUBLIC "-//W3C//DTD SVG 1.1//EN"
  "http://www.w3.org/Graphics/SVG/1.1/DTD/svg11.dtd">
<svg xmlns:xlink="http://www.w3.org/1999/xlink" width="388.542964pt" height="240.132758pt" viewBox="0 0 388.542964 240.132758" xmlns="http://www.w3.org/2000/svg" version="1.1">
 <metadata>
  <rdf:RDF xmlns:dc="http://purl.org/dc/elements/1.1/" xmlns:cc="http://creativecommons.org/ns#" xmlns:rdf="http://www.w3.org/1999/02/22-rdf-syntax-ns#">
   <cc:Work>
    <dc:type rdf:resource="http://purl.org/dc/dcmitype/StillImage"/>
    <dc:date>2024-12-09T18:55:05.864252</dc:date>
    <dc:format>image/svg+xml</dc:format>
    <dc:creator>
     <cc:Agent>
      <dc:title>Matplotlib v3.7.5, https://matplotlib.org/</dc:title>
     </cc:Agent>
    </dc:creator>
   </cc:Work>
  </rdf:RDF>
 </metadata>
 <defs>
  <style type="text/css">*{stroke-linejoin: round; stroke-linecap: butt}</style>
 </defs>
 <g id="figure_1">
  <g id="patch_1">
   <path d="M 0 240.132758 
L 388.542964 240.132758 
L 388.542964 0 
L 0 0 
z
" style="fill: #ffffff"/>
  </g>
  <g id="axes_1">
   <g id="patch_2">
    <path d="M 51.648487 193.536948 
L 377.742964 193.536948 
L 377.742964 10.8 
L 51.648487 10.8 
z
" style="fill: #ffffff"/>
   </g>
   <g id="matplotlib.axis_1">
    <g id="xtick_1">
     <g id="line2d_1">
      <defs>
       <path id="m9fd1f9281b" d="M 0 0 
L 0 3.5 
" style="stroke: #000000; stroke-width: 0.8"/>
      </defs>
      <g>
       <use xlink:href="#m9fd1f9281b" x="66.470963" y="193.536948" style="stroke: #000000; stroke-width: 0.8"/>
      </g>
     </g>
     <g id="text_1">
      <!-- $\mathdefault{0.0}$ -->
      <g transform="translate(57.745672 210.222825) scale(0.14 -0.14)">
       <defs>
        <path id="CMR17-30" d="M 2688 2025 
C 2688 2416 2682 3080 2413 3591 
C 2176 4039 1798 4198 1466 4198 
C 1158 4198 768 4058 525 3597 
C 269 3118 243 2524 243 2025 
C 243 1661 250 1106 448 619 
C 723 -39 1216 -128 1466 -128 
C 1760 -128 2208 -7 2470 600 
C 2662 1042 2688 1559 2688 2025 
z
M 1466 -26 
C 1056 -26 813 325 723 812 
C 653 1188 653 1738 653 2096 
C 653 2588 653 2997 736 3387 
C 858 3929 1216 4096 1466 4096 
C 1728 4096 2067 3923 2189 3400 
C 2272 3036 2278 2607 2278 2096 
C 2278 1680 2278 1169 2202 792 
C 2067 95 1690 -26 1466 -26 
z
" transform="scale(0.015625)"/>
        <path id="CMMI12-3a" d="M 1178 307 
C 1178 492 1024 619 870 619 
C 685 619 557 466 557 313 
C 557 128 710 0 864 0 
C 1050 0 1178 153 1178 307 
z
" transform="scale(0.015625)"/>
       </defs>
       <use xlink:href="#CMR17-30" transform="scale(0.996264)"/>
       <use xlink:href="#CMMI12-3a" transform="translate(45.690477 0) scale(0.996264)"/>
       <use xlink:href="#CMR17-30" transform="translate(72.787654 0) scale(0.996264)"/>
      </g>
     </g>
    </g>
    <g id="xtick_2">
     <g id="line2d_2">
      <g>
       <use xlink:href="#m9fd1f9281b" x="125.760868" y="193.536948" style="stroke: #000000; stroke-width: 0.8"/>
      </g>
     </g>
     <g id="text_2">
      <!-- $\mathdefault{0.2}$ -->
      <g transform="translate(117.035577 210.222825) scale(0.14 -0.14)">
       <defs>
        <path id="CMR17-32" d="M 2669 989 
L 2554 989 
C 2490 536 2438 459 2413 420 
C 2381 369 1920 369 1830 369 
L 602 369 
C 832 619 1280 1072 1824 1597 
C 2214 1967 2669 2402 2669 3035 
C 2669 3790 2067 4224 1395 4224 
C 691 4224 262 3604 262 3030 
C 262 2780 448 2748 525 2748 
C 589 2748 781 2787 781 3010 
C 781 3207 614 3264 525 3264 
C 486 3264 448 3258 422 3245 
C 544 3790 915 4058 1306 4058 
C 1862 4058 2227 3617 2227 3035 
C 2227 2479 1901 2000 1536 1584 
L 262 146 
L 262 0 
L 2515 0 
L 2669 989 
z
" transform="scale(0.015625)"/>
       </defs>
       <use xlink:href="#CMR17-30" transform="scale(0.996264)"/>
       <use xlink:href="#CMMI12-3a" transform="translate(45.690477 0) scale(0.996264)"/>
       <use xlink:href="#CMR17-32" transform="translate(72.787654 0) scale(0.996264)"/>
      </g>
     </g>
    </g>
    <g id="xtick_3">
     <g id="line2d_3">
      <g>
       <use xlink:href="#m9fd1f9281b" x="185.050773" y="193.536948" style="stroke: #000000; stroke-width: 0.8"/>
      </g>
     </g>
     <g id="text_3">
      <!-- $\mathdefault{0.4}$ -->
      <g transform="translate(176.325482 210.222825) scale(0.14 -0.14)">
       <defs>
        <path id="CMR17-34" d="M 2150 4122 
C 2150 4256 2144 4256 2029 4256 
L 128 1254 
L 128 1088 
L 1779 1088 
L 1779 457 
C 1779 224 1766 160 1318 160 
L 1197 160 
L 1197 0 
C 1402 0 1747 0 1965 0 
C 2182 0 2528 0 2733 0 
L 2733 160 
L 2611 160 
C 2163 160 2150 224 2150 457 
L 2150 1088 
L 2803 1088 
L 2803 1254 
L 2150 1254 
L 2150 4122 
z
M 1798 3703 
L 1798 1254 
L 256 1254 
L 1798 3703 
z
" transform="scale(0.015625)"/>
       </defs>
       <use xlink:href="#CMR17-30" transform="scale(0.996264)"/>
       <use xlink:href="#CMMI12-3a" transform="translate(45.690477 0) scale(0.996264)"/>
       <use xlink:href="#CMR17-34" transform="translate(72.787654 0) scale(0.996264)"/>
      </g>
     </g>
    </g>
    <g id="xtick_4">
     <g id="line2d_4">
      <g>
       <use xlink:href="#m9fd1f9281b" x="244.340678" y="193.536948" style="stroke: #000000; stroke-width: 0.8"/>
      </g>
     </g>
     <g id="text_4">
      <!-- $\mathdefault{0.6}$ -->
      <g transform="translate(235.615387 210.222825) scale(0.14 -0.14)">
       <defs>
        <path id="CMR17-36" d="M 678 2176 
C 678 3690 1395 4032 1811 4032 
C 1946 4032 2272 4009 2400 3776 
C 2298 3776 2106 3776 2106 3553 
C 2106 3381 2246 3323 2336 3323 
C 2394 3323 2566 3348 2566 3560 
C 2566 3954 2246 4179 1805 4179 
C 1043 4179 243 3390 243 1984 
C 243 253 966 -128 1478 -128 
C 2099 -128 2688 427 2688 1283 
C 2688 2081 2170 2662 1517 2662 
C 1126 2662 838 2407 678 1960 
L 678 2176 
z
M 1478 25 
C 691 25 691 1200 691 1436 
C 691 1896 909 2560 1504 2560 
C 1613 2560 1926 2560 2138 2120 
C 2253 1870 2253 1609 2253 1289 
C 2253 944 2253 690 2118 434 
C 1978 171 1773 25 1478 25 
z
" transform="scale(0.015625)"/>
       </defs>
       <use xlink:href="#CMR17-30" transform="scale(0.996264)"/>
       <use xlink:href="#CMMI12-3a" transform="translate(45.690477 0) scale(0.996264)"/>
       <use xlink:href="#CMR17-36" transform="translate(72.787654 0) scale(0.996264)"/>
      </g>
     </g>
    </g>
    <g id="xtick_5">
     <g id="line2d_5">
      <g>
       <use xlink:href="#m9fd1f9281b" x="303.630583" y="193.536948" style="stroke: #000000; stroke-width: 0.8"/>
      </g>
     </g>
     <g id="text_5">
      <!-- $\mathdefault{0.8}$ -->
      <g transform="translate(294.905292 210.222825) scale(0.14 -0.14)">
       <defs>
        <path id="CMR17-38" d="M 1741 2264 
C 2144 2467 2554 2773 2554 3263 
C 2554 3841 1990 4179 1472 4179 
C 890 4179 378 3759 378 3180 
C 378 3021 416 2747 666 2505 
C 730 2442 998 2251 1171 2130 
C 883 1983 211 1634 211 934 
C 211 279 838 -128 1459 -128 
C 2144 -128 2720 362 2720 1010 
C 2720 1590 2330 1857 2074 2029 
L 1741 2264 
z
M 902 2822 
C 851 2854 595 3051 595 3351 
C 595 3739 998 4032 1459 4032 
C 1965 4032 2336 3676 2336 3262 
C 2336 2669 1670 2331 1638 2331 
C 1632 2331 1626 2331 1574 2370 
L 902 2822 
z
M 2080 1519 
C 2176 1449 2483 1240 2483 851 
C 2483 381 2010 25 1472 25 
C 890 25 448 438 448 940 
C 448 1443 838 1862 1280 2060 
L 2080 1519 
z
" transform="scale(0.015625)"/>
       </defs>
       <use xlink:href="#CMR17-30" transform="scale(0.996264)"/>
       <use xlink:href="#CMMI12-3a" transform="translate(45.690477 0) scale(0.996264)"/>
       <use xlink:href="#CMR17-38" transform="translate(72.787654 0) scale(0.996264)"/>
      </g>
     </g>
    </g>
    <g id="xtick_6">
     <g id="line2d_6">
      <g>
       <use xlink:href="#m9fd1f9281b" x="362.920488" y="193.536948" style="stroke: #000000; stroke-width: 0.8"/>
      </g>
     </g>
     <g id="text_6">
      <!-- $\mathdefault{1.0}$ -->
      <g transform="translate(354.195197 210.222825) scale(0.14 -0.14)">
       <defs>
        <path id="CMR17-31" d="M 1702 4058 
C 1702 4192 1696 4192 1606 4192 
C 1357 3916 979 3827 621 3827 
C 602 3827 570 3827 563 3808 
C 557 3795 557 3782 557 3648 
C 755 3648 1088 3686 1344 3839 
L 1344 461 
C 1344 236 1331 160 781 160 
L 589 160 
L 589 0 
C 896 0 1216 0 1523 0 
C 1830 0 2150 0 2458 0 
L 2458 160 
L 2266 160 
C 1715 160 1702 230 1702 458 
L 1702 4058 
z
" transform="scale(0.015625)"/>
       </defs>
       <use xlink:href="#CMR17-31" transform="scale(0.996264)"/>
       <use xlink:href="#CMMI12-3a" transform="translate(45.690477 0) scale(0.996264)"/>
       <use xlink:href="#CMR17-30" transform="translate(72.787654 0) scale(0.996264)"/>
      </g>
     </g>
    </g>
    <g id="text_7">
     <!-- t -->
     <g transform="translate(212.040202 226.620729) scale(0.14 -0.14)">
      <defs>
       <path id="CMR17-74" d="M 966 2560 
L 1862 2560 
L 1862 2725 
L 966 2725 
L 966 3904 
L 851 3904 
C 838 3245 614 2668 70 2668 
L 70 2560 
L 627 2560 
L 627 771 
C 627 650 627 -64 1370 -64 
C 1747 -64 1965 306 1965 777 
L 1965 1140 
L 1850 1140 
L 1850 783 
C 1850 344 1677 51 1408 51 
C 1222 51 966 178 966 758 
L 966 2560 
z
" transform="scale(0.015625)"/>
      </defs>
      <use xlink:href="#CMR17-74" transform="scale(0.996264)"/>
     </g>
    </g>
   </g>
   <g id="matplotlib.axis_2">
    <g id="ytick_1">
     <g id="line2d_7">
      <defs>
       <path id="m75fef5c8e4" d="M 0 0 
L -3.5 0 
" style="stroke: #000000; stroke-width: 0.8"/>
      </defs>
      <g>
       <use xlink:href="#m75fef5c8e4" x="51.648487" y="185.231909" style="stroke: #000000; stroke-width: 0.8"/>
      </g>
     </g>
     <g id="text_8">
      <!-- $\mathdefault{0.0}$ -->
      <g transform="translate(27.197905 190.074847) scale(0.14 -0.14)">
       <use xlink:href="#CMR17-30" transform="scale(0.996264)"/>
       <use xlink:href="#CMMI12-3a" transform="translate(45.690477 0) scale(0.996264)"/>
       <use xlink:href="#CMR17-30" transform="translate(72.787654 0) scale(0.996264)"/>
      </g>
     </g>
    </g>
    <g id="ytick_2">
     <g id="line2d_8">
      <g>
       <use xlink:href="#m75fef5c8e4" x="51.648487" y="152.029008" style="stroke: #000000; stroke-width: 0.8"/>
      </g>
     </g>
     <g id="text_9">
      <!-- $\mathdefault{0.2}$ -->
      <g transform="translate(27.197905 156.871947) scale(0.14 -0.14)">
       <use xlink:href="#CMR17-30" transform="scale(0.996264)"/>
       <use xlink:href="#CMMI12-3a" transform="translate(45.690477 0) scale(0.996264)"/>
       <use xlink:href="#CMR17-32" transform="translate(72.787654 0) scale(0.996264)"/>
      </g>
     </g>
    </g>
    <g id="ytick_3">
     <g id="line2d_9">
      <g>
       <use xlink:href="#m75fef5c8e4" x="51.648487" y="118.826108" style="stroke: #000000; stroke-width: 0.8"/>
      </g>
     </g>
     <g id="text_10">
      <!-- $\mathdefault{0.4}$ -->
      <g transform="translate(27.197905 123.669047) scale(0.14 -0.14)">
       <use xlink:href="#CMR17-30" transform="scale(0.996264)"/>
       <use xlink:href="#CMMI12-3a" transform="translate(45.690477 0) scale(0.996264)"/>
       <use xlink:href="#CMR17-34" transform="translate(72.787654 0) scale(0.996264)"/>
      </g>
     </g>
    </g>
    <g id="ytick_4">
     <g id="line2d_10">
      <g>
       <use xlink:href="#m75fef5c8e4" x="51.648487" y="85.623208" style="stroke: #000000; stroke-width: 0.8"/>
      </g>
     </g>
     <g id="text_11">
      <!-- $\mathdefault{0.6}$ -->
      <g transform="translate(27.197905 90.466146) scale(0.14 -0.14)">
       <use xlink:href="#CMR17-30" transform="scale(0.996264)"/>
       <use xlink:href="#CMMI12-3a" transform="translate(45.690477 0) scale(0.996264)"/>
       <use xlink:href="#CMR17-36" transform="translate(72.787654 0) scale(0.996264)"/>
      </g>
     </g>
    </g>
    <g id="ytick_5">
     <g id="line2d_11">
      <g>
       <use xlink:href="#m75fef5c8e4" x="51.648487" y="52.420308" style="stroke: #000000; stroke-width: 0.8"/>
      </g>
     </g>
     <g id="text_12">
      <!-- $\mathdefault{0.8}$ -->
      <g transform="translate(27.197905 57.263246) scale(0.14 -0.14)">
       <use xlink:href="#CMR17-30" transform="scale(0.996264)"/>
       <use xlink:href="#CMMI12-3a" transform="translate(45.690477 0) scale(0.996264)"/>
       <use xlink:href="#CMR17-38" transform="translate(72.787654 0) scale(0.996264)"/>
      </g>
     </g>
    </g>
    <g id="ytick_6">
     <g id="line2d_12">
      <g>
       <use xlink:href="#m75fef5c8e4" x="51.648487" y="19.217408" style="stroke: #000000; stroke-width: 0.8"/>
      </g>
     </g>
     <g id="text_13">
      <!-- $\mathdefault{1.0}$ -->
      <g transform="translate(27.197905 24.060346) scale(0.14 -0.14)">
       <use xlink:href="#CMR17-31" transform="scale(0.996264)"/>
       <use xlink:href="#CMMI12-3a" transform="translate(45.690477 0) scale(0.996264)"/>
       <use xlink:href="#CMR17-30" transform="translate(72.787654 0) scale(0.996264)"/>
      </g>
     </g>
    </g>
    <g id="text_14">
     <!-- P -->
     <g transform="translate(20.485876 106.814435) rotate(-90) scale(0.14 -0.14)">
      <defs>
       <path id="CMR17-50" d="M 1267 2042 
L 2291 2042 
C 3117 2042 3718 2578 3718 3184 
C 3718 3791 3130 4352 2291 4352 
L 333 4352 
L 333 4186 
C 774 4186 845 4186 845 3899 
L 845 446 
C 845 160 774 160 333 160 
L 333 0 
C 518 0 858 0 1056 0 
C 1254 0 1594 0 1779 0 
L 1779 160 
C 1338 160 1267 160 1267 446 
L 1267 2042 
z
M 1254 2176 
L 1254 3938 
C 1254 4155 1267 4186 1523 4186 
L 2170 4186 
C 2995 4186 3232 3714 3232 3184 
C 3232 2604 2950 2176 2170 2176 
L 1254 2176 
z
" transform="scale(0.015625)"/>
      </defs>
      <use xlink:href="#CMR17-50" transform="scale(0.996264)"/>
     </g>
    </g>
   </g>
   <g id="line2d_13">
    <path d="M 66.470963 19.109807 
L 69.079058 21.833005 
L 71.687154 24.870081 
L 74.295121 28.28078 
L 76.903217 32.122833 
L 79.511183 36.445072 
L 82.119278 41.282368 
L 84.727374 46.647297 
L 87.335342 52.523721 
L 90.812673 61.067722 
L 95.15937 72.58259 
L 104.722514 98.36143 
L 108.199977 106.927646 
L 110.80807 112.853789 
L 113.416035 118.305954 
L 116.024133 123.272724 
L 118.632738 127.764914 
L 121.240708 131.806489 
L 123.848673 135.434409 
L 126.456771 138.689026 
L 129.064736 141.611069 
L 131.672833 144.239855 
L 134.280927 146.610978 
L 137.758262 149.426222 
L 141.235588 151.904815 
L 144.712928 154.101365 
L 148.190383 156.061819 
L 152.537084 158.239213 
L 156.883776 160.172158 
L 162.099839 162.241254 
L 168.18514 164.395427 
L 175.140446 166.607156 
L 182.964479 168.858678 
L 191.657996 171.128937 
L 201.22076 173.386802 
L 210.783647 175.420966 
L 221.216029 177.407444 
L 231.648543 179.162612 
L 242.080527 180.682171 
L 251.643424 181.857947 
L 261.206302 182.818487 
L 270.76881 183.562953 
L 281.201448 184.143763 
L 292.503067 184.547443 
L 307.281885 184.837076 
L 329.885389 185.024242 
L 362.920488 185.11467 
L 362.920488 185.11467 
" clip-path="url(#p9ec5809773)" style="fill: none; stroke: #1f77b4; stroke-width: 2; stroke-linecap: square"/>
   </g>
   <g id="line2d_14">
    <path d="M 66.470963 19.408039 
L 69.079058 22.300684 
L 71.687154 25.55492 
L 74.295121 29.226349 
L 76.903217 33.365625 
L 79.511183 38.010706 
L 82.119278 43.18256 
L 84.727374 48.876713 
L 87.335342 55.059098 
L 90.812673 63.944168 
L 95.15937 75.733104 
L 102.114548 94.724426 
L 105.591879 103.620223 
L 109.069338 111.807778 
L 111.677436 117.407818 
L 114.285401 122.521755 
L 116.893371 127.15515 
L 119.501976 131.331345 
L 122.110074 135.082005 
L 124.718039 138.447191 
L 127.326137 141.46838 
L 129.934102 144.185273 
L 132.542071 146.635276 
L 136.01953 149.544517 
L 139.496989 152.108242 
L 142.97432 154.385333 
L 146.451651 156.425775 
L 150.798476 158.707557 
L 155.145054 160.753825 
L 160.361107 162.97514 
L 166.446664 165.332181 
L 174.271085 168.10705 
L 183.83384 171.233916 
L 194.265965 174.402888 
L 203.828986 177.096439 
L 212.522503 179.312508 
L 219.477165 180.860153 
L 225.56311 182.005385 
L 231.648543 182.930139 
L 237.733835 183.631335 
L 244.68862 184.186889 
L 252.512794 184.570923 
L 262.944919 184.838469 
L 279.462849 185.00869 
L 315.975287 185.107766 
L 362.920488 185.138733 
L 362.920488 185.138733 
" clip-path="url(#p9ec5809773)" style="fill: none; stroke: #1f77b4; stroke-width: 2; stroke-linecap: square"/>
   </g>
   <g id="line2d_15">
    <path d="M 66.470963 19.359315 
L 69.079058 22.474583 
L 71.687154 25.968106 
L 74.295121 29.899057 
L 76.903217 34.318833 
L 79.511183 39.263324 
L 82.119278 44.746947 
L 84.727374 50.754819 
L 88.204706 59.491728 
L 92.551402 71.272164 
L 102.114548 97.657334 
L 105.591879 106.424156 
L 108.199977 112.488714 
L 110.80807 118.068325 
L 113.416035 123.151636 
L 116.024133 127.750694 
L 118.632738 131.893528 
L 121.240708 135.615962 
L 123.848673 138.960774 
L 126.456771 141.970301 
L 129.064736 144.684277 
L 131.672833 147.139317 
L 135.150292 150.065261 
L 138.627623 152.654434 
L 142.104959 154.963583 
L 146.451651 157.530153 
L 150.798476 159.817305 
L 156.014415 162.289333 
L 162.099839 164.91594 
L 169.923871 168.043799 
L 179.487148 171.636944 
L 189.050035 175.000177 
L 196.874059 177.511965 
L 203.828986 179.490473 
L 209.914277 180.980726 
L 215.999843 182.223106 
L 222.085399 183.212576 
L 228.171203 183.956457 
L 234.256513 184.471683 
L 241.211298 184.825727 
L 250.774177 185.048523 
L 267.291488 185.161169 
L 321.191474 185.211688 
L 362.920488 185.216211 
L 362.920488 185.216211 
" clip-path="url(#p9ec5809773)" style="fill: none; stroke: #1f77b4; stroke-width: 2; stroke-linecap: square"/>
   </g>
   <g id="line2d_16">
    <path d="M 66.470963 19.632642 
L 69.079058 22.421396 
L 71.687154 25.549537 
L 74.295121 29.073409 
L 76.903217 33.045336 
L 79.511183 37.506959 
L 82.119278 42.484708 
L 84.727374 47.981432 
L 87.335342 53.971839 
L 90.812673 62.625618 
L 95.15937 74.193376 
L 103.853276 97.568208 
L 107.330611 106.175247 
L 109.938576 112.148852 
L 112.546674 117.659014 
L 115.154767 122.689177 
L 117.762736 127.24526 
L 120.371342 131.351155 
L 122.97944 135.038332 
L 125.587405 138.346349 
L 128.195374 141.315696 
L 130.803467 143.985584 
L 133.411561 146.392128 
L 136.888896 149.246876 
L 140.366227 151.758136 
L 143.843558 153.98259 
L 147.321021 155.968229 
L 151.667714 158.175819 
L 156.014415 160.140068 
L 161.230478 162.251068 
L 167.315902 164.462777 
L 174.271085 166.753258 
L 182.964479 169.361926 
L 192.527366 171.990335 
L 203.828986 174.851125 
L 215.130472 177.48827 
L 224.693864 179.516864 
L 233.387266 181.134999 
L 241.211298 182.351021 
L 248.16596 183.210525 
L 255.120887 183.855729 
L 262.944919 184.350572 
L 272.507551 184.705366 
L 285.548282 184.934583 
L 308.151255 185.070388 
L 362.920488 185.138278 
L 362.920488 185.138278 
" clip-path="url(#p9ec5809773)" style="fill: none; stroke: #1f77b4; stroke-width: 2; stroke-linecap: square"/>
   </g>
   <g id="line2d_17">
    <path d="M 66.470963 19.632642 
L 69.079058 22.421396 
L 71.687154 25.549537 
L 74.295121 29.073409 
L 76.903217 33.045336 
L 79.511183 37.506959 
L 82.119278 42.484708 
L 84.727374 47.981432 
L 87.335342 53.971839 
L 90.812673 62.625618 
L 95.15937 74.193376 
L 103.853276 97.568208 
L 107.330611 106.175247 
L 109.938576 112.148852 
L 112.546674 117.659014 
L 115.154767 122.689177 
L 117.762736 127.24526 
L 120.371342 131.351155 
L 122.97944 135.038332 
L 125.587405 138.346349 
L 128.195374 141.315696 
L 130.803467 143.985584 
L 133.411561 146.392128 
L 136.888896 149.246876 
L 140.366227 151.758136 
L 143.843558 153.98259 
L 147.321021 155.968229 
L 151.667714 158.175819 
L 156.014415 160.140068 
L 161.230478 162.251068 
L 167.315902 164.462777 
L 174.271085 166.753258 
L 182.964479 169.361926 
L 192.527366 171.990335 
L 203.828986 174.851125 
L 215.130472 177.48827 
L 224.693864 179.516864 
L 233.387266 181.134999 
L 241.211298 182.351021 
L 248.16596 183.210525 
L 255.120887 183.855729 
L 262.944919 184.350572 
L 272.507551 184.705366 
L 285.548282 184.934583 
L 308.151255 185.070388 
L 362.920488 185.138278 
L 362.920488 185.138278 
" clip-path="url(#p9ec5809773)" style="fill: none; stroke: #1f77b4; stroke-width: 3; stroke-linecap: square"/>
   </g>
   <g id="line2d_18">
    <path d="M 66.470963 19.106225 
L 68.842559 22.168701 
L 71.214155 25.573573 
L 73.585752 29.34813 
L 75.957348 33.51816 
L 78.328944 38.105878 
L 80.99699 43.784902 
L 83.665036 50.012627 
L 86.629531 57.52792 
L 90.186925 67.192339 
L 102.637805 101.725424 
L 105.6023 109.02788 
L 108.566796 115.720191 
L 111.234841 121.192998 
L 113.902887 126.144871 
L 116.570933 130.598113 
L 119.238978 134.588391 
L 121.907024 138.156761 
L 124.57507 141.347787 
L 127.243116 144.20604 
L 130.207611 147.042146 
L 133.172106 149.570378 
L 136.433051 152.050857 
L 139.990445 154.460364 
L 143.844289 156.791184 
L 148.291032 159.199865 
L 153.330674 161.657074 
L 159.259664 164.28299 
L 166.374453 167.180914 
L 174.971489 170.435315 
L 184.161424 173.679689 
L 192.165562 176.280208 
L 198.983901 178.269285 
L 205.209341 179.855404 
L 211.138331 181.132854 
L 217.067322 182.176211 
L 222.996312 182.997483 
L 229.518202 183.675262 
L 236.92944 184.214475 
L 245.822925 184.626973 
L 257.384457 184.924217 
L 274.28208 185.114972 
L 306.002179 185.211153 
L 362.624038 185.230723 
L 362.624038 185.230723 
" clip-path="url(#p9ec5809773)" style="fill: none; stroke-dasharray: 19.2,4.8,3,4.8; stroke-dashoffset: 0; stroke: #2ca02c; stroke-width: 3"/>
   </g>
   <g id="line2d_19">
    <path d="M 66.470963 19.106225 
L 68.961139 22.725991 
L 71.451315 26.74223 
L 74.000781 31.283272 
L 76.609537 36.390915 
L 79.336872 42.229114 
L 82.242078 48.987659 
L 85.443733 57.019958 
L 89.238287 67.174171 
L 96.175205 86.543085 
L 100.740528 98.911229 
L 104.031118 107.196425 
L 106.906678 113.844613 
L 109.574724 119.459605 
L 112.12419 124.314109 
L 114.614366 128.586565 
L 117.104542 132.423996 
L 119.624363 135.902711 
L 122.203474 139.086809 
L 124.871519 142.028658 
L 127.658145 144.770487 
L 130.592995 147.345989 
L 133.705715 149.782166 
L 137.055595 152.120457 
L 140.672279 154.372803 
L 144.644703 156.581501 
L 149.032156 158.761828 
L 153.923573 160.93918 
L 159.437534 163.145088 
L 165.751909 165.425724 
L 173.074212 167.827841 
L 181.671248 170.408498 
L 191.691242 173.179513 
L 202.363425 175.901608 
L 212.205549 178.188954 
L 220.772941 179.957279 
L 228.450983 181.318993 
L 235.743642 182.387568 
L 243.006655 183.226523 
L 250.655053 183.883776 
L 259.192799 184.389263 
L 269.420308 184.763294 
L 282.908761 185.019829 
L 303.749163 185.169931 
L 350.143513 185.227579 
L 362.890843 185.229772 
L 362.890843 185.229772 
" clip-path="url(#p9ec5809773)" style="fill: none; stroke-dasharray: 3,4.95; stroke-dashoffset: 0; stroke: #d62728; stroke-width: 3"/>
   </g>
   <g id="line2d_20">
    <path d="M 66.470963 19.106225 
L 68.872204 22.599817 
L 71.30309 26.535211 
L 73.763621 30.950693 
L 76.283442 35.941602 
L 78.862553 41.551013 
L 81.589889 48.028543 
L 84.524739 55.591333 
L 87.844974 64.790656 
L 92.173137 77.498306 
L 99.880825 100.200756 
L 102.9639 108.518622 
L 105.631945 115.097528 
L 108.092476 120.590289 
L 110.464073 125.353539 
L 112.806024 129.567974 
L 115.17762 133.381494 
L 117.608506 136.868446 
L 120.098682 140.055449 
L 122.707438 143.036943 
L 125.464418 145.85255 
L 128.399269 148.53382 
L 131.571279 151.128828 
L 134.980448 153.630097 
L 138.715712 156.092034 
L 142.806716 158.518095 
L 147.312748 160.927128 
L 152.263456 163.318833 
L 157.747772 165.718086 
L 163.795342 168.117298 
L 170.376521 170.486658 
L 177.43202 172.789213 
L 184.813613 174.963557 
L 192.313786 176.941165 
L 199.754669 178.674845 
L 207.106618 180.160866 
L 214.399276 181.408131 
L 221.721579 182.434161 
L 229.251397 183.263162 
L 237.255534 183.917956 
L 246.178665 184.419912 
L 256.821203 184.787084 
L 270.843265 185.034113 
L 292.928755 185.175499 
L 345.281741 185.228035 
L 362.890843 185.230168 
L 362.890843 185.230168 
" clip-path="url(#p9ec5809773)" style="fill: none; stroke-dasharray: 11.1,4.8; stroke-dashoffset: 0; stroke: #d62728; stroke-width: 3"/>
   </g>
   <g id="line2d_21">
    <path d="M 66.470963 19.106225 
L 68.961139 22.725991 
L 71.451315 26.74223 
L 74.000781 31.283272 
L 76.609537 36.390915 
L 79.336872 42.229114 
L 82.242078 48.987659 
L 85.443733 57.019958 
L 89.238287 67.174171 
L 96.175205 86.543085 
L 100.740528 98.911229 
L 104.031118 107.196425 
L 106.906678 113.844613 
L 109.574724 119.459605 
L 112.12419 124.314109 
L 114.614366 128.586565 
L 117.104542 132.423996 
L 119.624363 135.902711 
L 122.203474 139.086809 
L 124.871519 142.028658 
L 127.658145 144.770487 
L 130.592995 147.345989 
L 133.705715 149.782166 
L 137.055595 152.120457 
L 140.672279 154.372803 
L 144.644703 156.581501 
L 149.032156 158.761828 
L 153.923573 160.93918 
L 159.437534 163.145088 
L 165.751909 165.425724 
L 173.074212 167.827841 
L 181.671248 170.408498 
L 191.691242 173.179513 
L 202.363425 175.901608 
L 212.205549 178.188954 
L 220.772941 179.957279 
L 228.450983 181.318993 
L 235.743642 182.387568 
L 243.006655 183.226523 
L 250.655053 183.883776 
L 259.192799 184.389263 
L 269.420308 184.763294 
L 282.908761 185.019829 
L 303.749163 185.169931 
L 350.143513 185.227579 
L 362.890843 185.229772 
L 362.890843 185.229772 
" clip-path="url(#p9ec5809773)" style="fill: none; stroke-dasharray: 19.2,4.8,3,4.8; stroke-dashoffset: 0; stroke: #d62728; stroke-width: 3"/>
   </g>
   <g id="patch_3">
    <path d="M 51.648487 193.536948 
L 51.648487 10.8 
" style="fill: none; stroke: #000000; stroke-width: 0.8; stroke-linejoin: miter; stroke-linecap: square"/>
   </g>
   <g id="patch_4">
    <path d="M 377.742964 193.536948 
L 377.742964 10.8 
" style="fill: none; stroke: #000000; stroke-width: 0.8; stroke-linejoin: miter; stroke-linecap: square"/>
   </g>
   <g id="patch_5">
    <path d="M 51.648487 193.536948 
L 377.742964 193.536948 
" style="fill: none; stroke: #000000; stroke-width: 0.8; stroke-linejoin: miter; stroke-linecap: square"/>
   </g>
   <g id="patch_6">
    <path d="M 51.648487 10.8 
L 377.742964 10.8 
" style="fill: none; stroke: #000000; stroke-width: 0.8; stroke-linejoin: miter; stroke-linecap: square"/>
   </g>
   <g id="legend_1">
    <g id="line2d_22">
     <path d="M 148.232178 28.999506 
L 162.232178 28.999506 
L 176.232178 28.999506 
" style="fill: none; stroke: #1f77b4; stroke-width: 3; stroke-linecap: square"/>
    </g>
    <g id="text_15">
     <!-- $\hat{P}$ -->
     <g transform="translate(187.432178 33.899506) scale(0.14 -0.14)">
      <defs>
       <path id="CMR17-5e" d="M 1466 4421 
L 678 3555 
L 755 3478 
L 1466 4166 
L 2176 3478 
L 2253 3555 
L 1466 4421 
z
" transform="scale(0.015625)"/>
       <path id="CMMI12-50" d="M 1894 2023 
L 2970 2023 
C 3853 2023 4736 2673 4736 3401 
C 4736 3898 4314 4352 3507 4352 
L 1530 4352 
C 1408 4352 1350 4352 1350 4231 
C 1350 4167 1408 4167 1504 4167 
C 1894 4167 1894 4116 1894 4046 
C 1894 4034 1894 3995 1869 3899 
L 1005 472 
C 947 249 934 185 486 185 
C 365 185 301 185 301 70 
C 301 0 358 0 397 0 
C 518 0 646 0 768 0 
L 1517 0 
C 1638 0 1773 0 1894 0 
C 1946 0 2016 0 2016 121 
C 2016 185 1958 185 1862 185 
C 1478 185 1472 230 1472 293 
C 1472 325 1478 369 1485 401 
L 1894 2023 
z
M 2355 3930 
C 2413 4167 2438 4167 2688 4167 
L 3322 4167 
C 3802 4167 4198 4013 4198 3535 
C 4198 3369 4115 2827 3821 2534 
C 3712 2419 3405 2176 2822 2176 
L 1920 2176 
L 2355 3930 
z
" transform="scale(0.015625)"/>
      </defs>
      <use xlink:href="#CMR17-5e" transform="translate(23.496833 25.189733) scale(0.996264)"/>
      <use xlink:href="#CMMI12-50" transform="scale(0.996264)"/>
     </g>
    </g>
    <g id="line2d_23">
     <path d="M 148.232178 52.078021 
L 162.232178 52.078021 
L 176.232178 52.078021 
" style="fill: none; stroke-dasharray: 19.2,4.8,3,4.8; stroke-dashoffset: 0; stroke: #2ca02c; stroke-width: 3"/>
    </g>
    <g id="text_16">
     <!-- $\sum \hat{\phi} \cdot dt$ -->
     <g transform="translate(187.432178 56.978021) scale(0.14 -0.14)">
      <defs>
       <path id="CMEX10-50" d="M 2694 -3418 
L 422 -6227 
C 371 -6291 365 -6304 365 -6330 
C 365 -6400 422 -6400 538 -6400 
L 5843 -6400 
L 6394 -4806 
L 6234 -4806 
C 6074 -5286 5645 -5677 5101 -5862 
C 4998 -5894 4557 -6048 3616 -6048 
L 896 -6048 
L 3117 -3302 
C 3162 -3245 3174 -3226 3174 -3200 
C 3174 -3174 3168 -3168 3130 -3110 
L 1050 -256 
L 3584 -256 
C 4314 -256 5786 -301 6234 -1498 
L 6394 -1498 
L 5843 0 
L 538 0 
C 365 0 358 -6 358 -205 
L 2694 -3418 
z
" transform="scale(0.015625)"/>
       <path id="CMMI12-1e" d="M 2752 4390 
C 2752 4448 2707 4448 2688 4448 
C 2630 4448 2624 4435 2598 4326 
L 2253 2939 
C 2234 2856 2227 2849 2221 2843 
C 2214 2830 2170 2824 2157 2824 
C 1107 2734 301 1864 301 1057 
C 301 361 832 -64 1498 -64 
C 1446 -261 1402 -463 1350 -659 
C 1261 -995 1210 -1204 1210 -1229 
C 1210 -1241 1210 -1280 1274 -1280 
C 1293 -1280 1318 -1280 1331 -1254 
C 1344 -1241 1382 -1089 1408 -1008 
L 1645 -64 
C 2739 -64 3571 854 3571 1680 
C 3571 2343 3085 2816 2374 2816 
L 2752 4390 
z
M 2336 2701 
C 2758 2701 3181 2463 3181 1828 
C 3181 1097 2675 128 1677 50 
L 2336 2701 
z
M 1530 50 
C 1216 50 691 220 691 938 
C 691 1761 1274 2676 2195 2676 
L 1530 50 
z
" transform="scale(0.015625)"/>
       <path id="CMSY10-1" d="M 1229 1619 
C 1229 1805 1075 1958 890 1958 
C 704 1958 550 1805 550 1619 
C 550 1433 704 1280 890 1280 
C 1075 1280 1229 1433 1229 1619 
z
" transform="scale(0.015625)"/>
       <path id="CMMI12-64" d="M 3219 4257 
C 3226 4282 3238 4320 3238 4352 
C 3238 4416 3174 4416 3162 4416 
C 3155 4416 2842 4388 2810 4380 
C 2701 4373 2605 4358 2490 4358 
C 2330 4345 2285 4339 2285 4224 
C 2285 4160 2336 4160 2426 4160 
C 2739 4160 2746 4103 2746 4040 
C 2746 4002 2733 3952 2726 3933 
L 2336 2395 
C 2266 2561 2093 2816 1760 2816 
C 1037 2816 256 1884 256 939 
C 256 307 627 -64 1062 -64 
C 1414 -64 1715 211 1894 422 
C 1958 45 2259 -64 2451 -64 
C 2643 -64 2797 51 2912 281 
C 3014 498 3104 888 3104 913 
C 3104 945 3078 971 3040 971 
C 2982 971 2976 939 2950 843 
C 2854 466 2733 64 2470 64 
C 2285 64 2272 229 2272 357 
C 2272 382 2272 515 2317 694 
L 3219 4257 
z
M 1926 760 
C 1894 651 1894 639 1805 517 
C 1664 338 1382 64 1082 64 
C 819 64 672 300 672 677 
C 672 1028 870 1743 992 2012 
C 1210 2459 1510 2689 1760 2689 
C 2182 2689 2266 2165 2266 2114 
C 2266 2108 2246 2024 2240 2012 
L 1926 760 
z
" transform="scale(0.015625)"/>
       <path id="CMMI12-74" d="M 1286 2566 
L 1875 2566 
C 1997 2566 2061 2566 2061 2681 
C 2061 2752 2022 2752 1894 2752 
L 1331 2752 
L 1568 3692 
C 1594 3781 1594 3794 1594 3840 
C 1594 3943 1510 4000 1427 4000 
C 1376 4000 1229 3981 1178 3775 
L 928 2752 
L 326 2752 
C 198 2752 141 2752 141 2630 
C 141 2566 186 2566 307 2566 
L 877 2566 
L 454 881 
C 403 658 384 594 384 511 
C 384 211 595 -64 954 -64 
C 1600 -64 1946 868 1946 912 
C 1946 951 1920 970 1882 970 
C 1869 970 1843 970 1830 944 
C 1824 938 1818 931 1773 829 
C 1638 511 1344 64 973 64 
C 781 64 768 224 768 364 
C 768 370 768 492 787 568 
L 1286 2566 
z
" transform="scale(0.015625)"/>
      </defs>
      <use xlink:href="#CMEX10-50" transform="translate(0 74.720454) scale(0.996264)"/>
      <use xlink:href="#CMR17-5e" transform="translate(135.916962 26.296621) scale(0.996264)"/>
      <use xlink:href="#CMMI12-1e" transform="translate(121.765958 0) scale(0.996264)"/>
      <use xlink:href="#CMSY10-1" transform="translate(201.639345 0) scale(0.996264)"/>
      <use xlink:href="#CMMI12-64" transform="translate(251.452637 0) scale(0.996264)"/>
      <use xlink:href="#CMMI12-74" transform="translate(302.141734 0) scale(0.996264)"/>
     </g>
    </g>
    <g id="line2d_24">
     <path d="M 148.232178 73.0259 
L 162.232178 73.0259 
L 176.232178 73.0259 
" style="fill: none; stroke-dasharray: 3,4.95; stroke-dashoffset: 0; stroke: #d62728; stroke-width: 3"/>
    </g>
    <g id="text_17">
     <!-- $\sum \phi^s_6 \cdot dt$ -->
     <g transform="translate(187.432178 77.9259) scale(0.14 -0.14)">
      <defs>
       <path id="CMMI12-73" d="M 1459 1280 
C 1568 1261 1741 1223 1779 1216 
C 1862 1192 2150 1090 2150 783 
C 2150 586 1971 70 1229 70 
C 1094 70 614 70 486 436 
C 742 404 870 603 870 745 
C 870 880 781 950 653 950 
C 512 950 326 841 326 552 
C 326 173 710 -64 1222 -64 
C 2195 -64 2483 651 2483 984 
C 2483 1079 2483 1258 2278 1462 
C 2118 1616 1965 1648 1619 1718 
C 1446 1756 1171 1814 1171 2101 
C 1171 2229 1286 2689 1894 2689 
C 2163 2689 2426 2589 2490 2368 
C 2208 2368 2195 2125 2195 2119 
C 2195 1984 2317 1946 2374 1946 
C 2464 1946 2643 2015 2643 2281 
C 2643 2545 2400 2816 1901 2816 
C 1062 2816 838 2160 838 1899 
C 838 1414 1312 1312 1459 1280 
z
" transform="scale(0.015625)"/>
      </defs>
      <use xlink:href="#CMEX10-50" transform="translate(0 74.720454) scale(0.996264)"/>
      <use xlink:href="#CMMI12-1e" transform="translate(121.765958 0) scale(0.996264)"/>
      <use xlink:href="#CMMI12-73" transform="translate(179.500138 36.153639) scale(0.697382)"/>
      <use xlink:href="#CMR17-36" transform="translate(179.500138 -24.740171) scale(0.697382)"/>
      <use xlink:href="#CMSY10-1" transform="translate(234.302366 0) scale(0.996264)"/>
      <use xlink:href="#CMMI12-64" transform="translate(284.115658 0) scale(0.996264)"/>
      <use xlink:href="#CMMI12-74" transform="translate(334.804754 0) scale(0.996264)"/>
     </g>
    </g>
    <g id="line2d_25">
     <path d="M 268.178958 28.999506 
L 282.178958 28.999506 
L 296.178958 28.999506 
" style="fill: none; stroke-dasharray: 11.1,4.8; stroke-dashoffset: 0; stroke: #d62728; stroke-width: 3"/>
    </g>
    <g id="text_18">
     <!-- $\sum \phi^s_9 \cdot dt$ -->
     <g transform="translate(307.378958 33.899506) scale(0.14 -0.14)">
      <defs>
       <path id="CMR17-39" d="M 2253 1864 
C 2253 464 1670 31 1190 31 
C 1043 31 685 31 538 294 
C 704 268 826 357 826 518 
C 826 692 685 749 595 749 
C 538 749 365 723 365 506 
C 365 71 742 -128 1203 -128 
C 1939 -128 2688 674 2688 2073 
C 2688 3817 1971 4179 1485 4179 
C 851 4179 243 3628 243 2778 
C 243 1991 762 1408 1414 1408 
C 1952 1408 2189 1903 2253 2112 
L 2253 1864 
z
M 1427 1510 
C 1254 1510 1011 1542 813 1922 
C 678 2169 678 2461 678 2771 
C 678 3146 678 3405 858 3684 
C 947 3817 1114 4032 1485 4032 
C 2240 4032 2240 2885 2240 2632 
C 2240 2182 2035 1510 1427 1510 
z
" transform="scale(0.015625)"/>
      </defs>
      <use xlink:href="#CMEX10-50" transform="translate(0 74.720454) scale(0.996264)"/>
      <use xlink:href="#CMMI12-1e" transform="translate(121.765958 0) scale(0.996264)"/>
      <use xlink:href="#CMMI12-73" transform="translate(179.500138 36.153639) scale(0.697382)"/>
      <use xlink:href="#CMR17-39" transform="translate(179.500138 -24.740171) scale(0.697382)"/>
      <use xlink:href="#CMSY10-1" transform="translate(234.302366 0) scale(0.996264)"/>
      <use xlink:href="#CMMI12-64" transform="translate(284.115658 0) scale(0.996264)"/>
      <use xlink:href="#CMMI12-74" transform="translate(334.804754 0) scale(0.996264)"/>
     </g>
    </g>
    <g id="line2d_26">
     <path d="M 268.178958 49.947385 
L 282.178958 49.947385 
L 296.178958 49.947385 
" style="fill: none; stroke-dasharray: 19.2,4.8,3,4.8; stroke-dashoffset: 0; stroke: #d62728; stroke-width: 3"/>
    </g>
    <g id="text_19">
     <!-- $\sum \phi^s_{11} \cdot dt$ -->
     <g transform="translate(307.378958 54.847385) scale(0.14 -0.14)">
      <use xlink:href="#CMEX10-50" transform="translate(0 74.720454) scale(0.996264)"/>
      <use xlink:href="#CMMI12-1e" transform="translate(121.765958 0) scale(0.996264)"/>
      <use xlink:href="#CMMI12-73" transform="translate(179.500138 36.153639) scale(0.697382)"/>
      <use xlink:href="#CMR17-31" transform="translate(179.500138 -24.740171) scale(0.697382)"/>
      <use xlink:href="#CMR17-31" transform="translate(211.48332 -24.740171) scale(0.697382)"/>
      <use xlink:href="#CMSY10-1" transform="translate(266.103841 0) scale(0.996264)"/>
      <use xlink:href="#CMMI12-64" transform="translate(315.917133 0) scale(0.996264)"/>
      <use xlink:href="#CMMI12-74" transform="translate(366.606229 0) scale(0.996264)"/>
     </g>
    </g>
   </g>
  </g>
 </g>
 <defs>
  <clipPath id="p9ec5809773">
   <rect x="51.648487" y="10.8" width="326.094477" height="182.736948"/>
  </clipPath>
 </defs>
</svg>
