<?xml version="1.0" encoding="UTF-8" standalone="no"?>
<svg
   width="388.542964pt"
   height="240.132758pt"
   viewBox="0 0 388.542964 240.132758"
   version="1.1"
   id="svg107"
   sodipodi:docname="Result_phi_s.svg"
   inkscape:version="1.3 (0e150ed6c4, 2023-07-21)"
   xmlns:inkscape="http://www.inkscape.org/namespaces/inkscape"
   xmlns:sodipodi="http://sodipodi.sourceforge.net/DTD/sodipodi-0.dtd"
   xmlns:xlink="http://www.w3.org/1999/xlink"
   xmlns="http://www.w3.org/2000/svg"
   xmlns:svg="http://www.w3.org/2000/svg"
   xmlns:rdf="http://www.w3.org/1999/02/22-rdf-syntax-ns#"
   xmlns:cc="http://creativecommons.org/ns#"
   xmlns:dc="http://purl.org/dc/elements/1.1/">
  <sodipodi:namedview
     id="namedview107"
     pagecolor="#ffffff"
     bordercolor="#000000"
     borderopacity="0.25"
     inkscape:showpageshadow="2"
     inkscape:pageopacity="0.0"
     inkscape:pagecheckerboard="0"
     inkscape:deskcolor="#d1d1d1"
     inkscape:document-units="pt"
     inkscape:zoom="2.536399"
     inkscape:cx="259.02865"
     inkscape:cy="160.26658"
     inkscape:window-width="2560"
     inkscape:window-height="1494"
     inkscape:window-x="-11"
     inkscape:window-y="-11"
     inkscape:window-maximized="1"
     inkscape:current-layer="axes_1" />
  <metadata
     id="metadata1">
    <rdf:RDF>
      <cc:Work>
        <dc:type
           rdf:resource="http://purl.org/dc/dcmitype/StillImage" />
        <dc:date>2024-12-10T14:52:09.123044</dc:date>
        <dc:format>image/svg+xml</dc:format>
        <dc:creator>
          <cc:Agent>
            <dc:title>Matplotlib v3.7.5, https://matplotlib.org/</dc:title>
          </cc:Agent>
        </dc:creator>
      </cc:Work>
    </rdf:RDF>
  </metadata>
  <defs
     id="defs1">
    <style
       type="text/css"
       id="style1">*{stroke-linejoin: round; stroke-linecap: butt}</style>
  </defs>
  <g
     id="figure_1">
    <g
       id="patch_1">
      <path
         d="M 0 240.132758  L 388.542964 240.132758  L 388.542964 0  L 0 0  z "
         style="fill: #ffffff"
         id="path1" />
    </g>
    <g
       id="axes_1">
      <g
         id="patch_2">
        <path
           d="M 49.404673 187.701556  L 377.742964 187.701556  L 377.742964 10.8  L 49.404673 10.8  z "
           style="fill: #ffffff"
           id="path2" />
      </g>
      <g
         id="matplotlib.axis_1">
        <g
           id="xtick_1">
          <g
             id="line2d_1">
            <defs
               id="defs2">
              <path
                 id="m65e8cca9bf"
                 d="M 0 0  L 0 3.5  "
                 style="stroke: #000000; stroke-width: 0.8" />
            </defs>
            <g
               id="g2">
              <use
                 xlink:href="#m65e8cca9bf"
                 x="64.151802"
                 y="187.701556"
                 style="stroke: #000000; stroke-width: 0.8"
                 id="use2" />
            </g>
          </g>
          <g
             id="text_1">
            <!-- $\mathdefault{0.0}$ -->
            <g
               transform="translate(55.426511 204.387432) scale(0.14 -0.14)"
               id="g5">
              <defs
                 id="defs3">
                <path
                   id="CMR17-30"
                   d="M 2688 2025  C 2688 2416 2682 3080 2413 3591  C 2176 4039 1798 4198 1466 4198  C 1158 4198 768 4058 525 3597  C 269 3118 243 2524 243 2025  C 243 1661 250 1106 448 619  C 723 -39 1216 -128 1466 -128  C 1760 -128 2208 -7 2470 600  C 2662 1042 2688 1559 2688 2025  z M 1466 -26  C 1056 -26 813 325 723 812  C 653 1188 653 1738 653 2096  C 653 2588 653 2997 736 3387  C 858 3929 1216 4096 1466 4096  C 1728 4096 2067 3923 2189 3400  C 2272 3036 2278 2607 2278 2096  C 2278 1680 2278 1169 2202 792  C 2067 95 1690 -26 1466 -26  z "
                   transform="scale(0.015625)" />
                <path
                   id="CMMI12-3a"
                   d="M 1178 307  C 1178 492 1024 619 870 619  C 685 619 557 466 557 313  C 557 128 710 0 864 0  C 1050 0 1178 153 1178 307  z "
                   transform="scale(0.015625)" />
              </defs>
              <use
                 xlink:href="#CMR17-30"
                 transform="scale(0.996264)"
                 id="use3" />
              <use
                 xlink:href="#CMMI12-3a"
                 transform="translate(45.690477 0) scale(0.996264)"
                 id="use4" />
              <use
                 xlink:href="#CMR17-30"
                 transform="translate(72.787654 0) scale(0.996264)"
                 id="use5" />
            </g>
          </g>
        </g>
        <g
           id="xtick_2">
          <g
             id="line2d_2">
            <g
               id="g6">
              <use
                 xlink:href="#m65e8cca9bf"
                 x="124.058639"
                 y="187.701556"
                 style="stroke: #000000; stroke-width: 0.8"
                 id="use6" />
            </g>
          </g>
          <g
             id="text_2">
            <!-- $\mathdefault{0.2}$ -->
            <g
               transform="translate(115.333348 204.387432) scale(0.14 -0.14)"
               id="g9">
              <defs
                 id="defs6">
                <path
                   id="CMR17-32"
                   d="M 2669 989  L 2554 989  C 2490 536 2438 459 2413 420  C 2381 369 1920 369 1830 369  L 602 369  C 832 619 1280 1072 1824 1597  C 2214 1967 2669 2402 2669 3035  C 2669 3790 2067 4224 1395 4224  C 691 4224 262 3604 262 3030  C 262 2780 448 2748 525 2748  C 589 2748 781 2787 781 3010  C 781 3207 614 3264 525 3264  C 486 3264 448 3258 422 3245  C 544 3790 915 4058 1306 4058  C 1862 4058 2227 3617 2227 3035  C 2227 2479 1901 2000 1536 1584  L 262 146  L 262 0  L 2515 0  L 2669 989  z "
                   transform="scale(0.015625)" />
              </defs>
              <use
                 xlink:href="#CMR17-30"
                 transform="scale(0.996264)"
                 id="use7" />
              <use
                 xlink:href="#CMMI12-3a"
                 transform="translate(45.690477 0) scale(0.996264)"
                 id="use8" />
              <use
                 xlink:href="#CMR17-32"
                 transform="translate(72.787654 0) scale(0.996264)"
                 id="use9" />
            </g>
          </g>
        </g>
        <g
           id="xtick_3">
          <g
             id="line2d_3">
            <g
               id="g10">
              <use
                 xlink:href="#m65e8cca9bf"
                 x="183.965476"
                 y="187.701556"
                 style="stroke: #000000; stroke-width: 0.8"
                 id="use10" />
            </g>
          </g>
          <g
             id="text_3">
            <!-- $\mathdefault{0.4}$ -->
            <g
               transform="translate(175.240185 204.387432) scale(0.14 -0.14)"
               id="g13">
              <defs
                 id="defs10">
                <path
                   id="CMR17-34"
                   d="M 2150 4122  C 2150 4256 2144 4256 2029 4256  L 128 1254  L 128 1088  L 1779 1088  L 1779 457  C 1779 224 1766 160 1318 160  L 1197 160  L 1197 0  C 1402 0 1747 0 1965 0  C 2182 0 2528 0 2733 0  L 2733 160  L 2611 160  C 2163 160 2150 224 2150 457  L 2150 1088  L 2803 1088  L 2803 1254  L 2150 1254  L 2150 4122  z M 1798 3703  L 1798 1254  L 256 1254  L 1798 3703  z "
                   transform="scale(0.015625)" />
              </defs>
              <use
                 xlink:href="#CMR17-30"
                 transform="scale(0.996264)"
                 id="use11" />
              <use
                 xlink:href="#CMMI12-3a"
                 transform="translate(45.690477 0) scale(0.996264)"
                 id="use12" />
              <use
                 xlink:href="#CMR17-34"
                 transform="translate(72.787654 0) scale(0.996264)"
                 id="use13" />
            </g>
          </g>
        </g>
        <g
           id="xtick_4">
          <g
             id="line2d_4">
            <g
               id="g14">
              <use
                 xlink:href="#m65e8cca9bf"
                 x="243.872312"
                 y="187.701556"
                 style="stroke: #000000; stroke-width: 0.8"
                 id="use14" />
            </g>
          </g>
          <g
             id="text_4">
            <!-- $\mathdefault{0.6}$ -->
            <g
               transform="translate(235.147021 204.387432) scale(0.14 -0.14)"
               id="g17">
              <defs
                 id="defs14">
                <path
                   id="CMR17-36"
                   d="M 678 2176  C 678 3690 1395 4032 1811 4032  C 1946 4032 2272 4009 2400 3776  C 2298 3776 2106 3776 2106 3553  C 2106 3381 2246 3323 2336 3323  C 2394 3323 2566 3348 2566 3560  C 2566 3954 2246 4179 1805 4179  C 1043 4179 243 3390 243 1984  C 243 253 966 -128 1478 -128  C 2099 -128 2688 427 2688 1283  C 2688 2081 2170 2662 1517 2662  C 1126 2662 838 2407 678 1960  L 678 2176  z M 1478 25  C 691 25 691 1200 691 1436  C 691 1896 909 2560 1504 2560  C 1613 2560 1926 2560 2138 2120  C 2253 1870 2253 1609 2253 1289  C 2253 944 2253 690 2118 434  C 1978 171 1773 25 1478 25  z "
                   transform="scale(0.015625)" />
              </defs>
              <use
                 xlink:href="#CMR17-30"
                 transform="scale(0.996264)"
                 id="use15" />
              <use
                 xlink:href="#CMMI12-3a"
                 transform="translate(45.690477 0) scale(0.996264)"
                 id="use16" />
              <use
                 xlink:href="#CMR17-36"
                 transform="translate(72.787654 0) scale(0.996264)"
                 id="use17" />
            </g>
          </g>
        </g>
        <g
           id="xtick_5">
          <g
             id="line2d_5">
            <g
               id="g18">
              <use
                 xlink:href="#m65e8cca9bf"
                 x="303.779149"
                 y="187.701556"
                 style="stroke: #000000; stroke-width: 0.8"
                 id="use18" />
            </g>
          </g>
          <g
             id="text_5">
            <!-- $\mathdefault{0.8}$ -->
            <g
               transform="translate(295.053858 204.387432) scale(0.14 -0.14)"
               id="g21">
              <defs
                 id="defs18">
                <path
                   id="CMR17-38"
                   d="M 1741 2264  C 2144 2467 2554 2773 2554 3263  C 2554 3841 1990 4179 1472 4179  C 890 4179 378 3759 378 3180  C 378 3021 416 2747 666 2505  C 730 2442 998 2251 1171 2130  C 883 1983 211 1634 211 934  C 211 279 838 -128 1459 -128  C 2144 -128 2720 362 2720 1010  C 2720 1590 2330 1857 2074 2029  L 1741 2264  z M 902 2822  C 851 2854 595 3051 595 3351  C 595 3739 998 4032 1459 4032  C 1965 4032 2336 3676 2336 3262  C 2336 2669 1670 2331 1638 2331  C 1632 2331 1626 2331 1574 2370  L 902 2822  z M 2080 1519  C 2176 1449 2483 1240 2483 851  C 2483 381 2010 25 1472 25  C 890 25 448 438 448 940  C 448 1443 838 1862 1280 2060  L 2080 1519  z "
                   transform="scale(0.015625)" />
              </defs>
              <use
                 xlink:href="#CMR17-30"
                 transform="scale(0.996264)"
                 id="use19" />
              <use
                 xlink:href="#CMMI12-3a"
                 transform="translate(45.690477 0) scale(0.996264)"
                 id="use20" />
              <use
                 xlink:href="#CMR17-38"
                 transform="translate(72.787654 0) scale(0.996264)"
                 id="use21" />
            </g>
          </g>
        </g>
        <g
           id="xtick_6">
          <g
             id="line2d_6">
            <g
               id="g22">
              <use
                 xlink:href="#m65e8cca9bf"
                 x="363.685986"
                 y="187.701556"
                 style="stroke: #000000; stroke-width: 0.8"
                 id="use22" />
            </g>
          </g>
          <g
             id="text_6">
            <!-- $\mathdefault{1.0}$ -->
            <g
               transform="translate(354.960695 204.387432) scale(0.14 -0.14)"
               id="g25">
              <defs
                 id="defs22">
                <path
                   id="CMR17-31"
                   d="M 1702 4058  C 1702 4192 1696 4192 1606 4192  C 1357 3916 979 3827 621 3827  C 602 3827 570 3827 563 3808  C 557 3795 557 3782 557 3648  C 755 3648 1088 3686 1344 3839  L 1344 461  C 1344 236 1331 160 781 160  L 589 160  L 589 0  C 896 0 1216 0 1523 0  C 1830 0 2150 0 2458 0  L 2458 160  L 2266 160  C 1715 160 1702 230 1702 458  L 1702 4058  z "
                   transform="scale(0.015625)" />
              </defs>
              <use
                 xlink:href="#CMR17-31"
                 transform="scale(0.996264)"
                 id="use23" />
              <use
                 xlink:href="#CMMI12-3a"
                 transform="translate(45.690477 0) scale(0.996264)"
                 id="use24" />
              <use
                 xlink:href="#CMR17-30"
                 transform="translate(72.787654 0) scale(0.996264)"
                 id="use25" />
            </g>
          </g>
        </g>
        <g
           id="text_7">
          <!-- $\mathbf{P}$ -->
          <g
             transform="translate(208.214286 220.785337) scale(0.14 -0.14)"
             id="g26">
            <defs
               id="defs25">
              <path
                 id="CMBX12-50"
                 d="M 1766 1934  L 2854 1934  C 3923 1934 4518 2474 4518 3128  C 4518 3812 3910 4352 2854 4352  L 243 4352  L 243 4078  L 922 4078  L 922 267  L 243 267  L 243 0  C 429 0 1114 0 1344 0  C 1574 0 2259 0 2445 0  L 2445 267  L 1766 267  L 1766 1934  z M 2624 4078  C 3616 4078 3616 3558 3616 3127  C 3616 2709 3616 2176 2624 2176  L 1734 2176  L 1734 4078  L 2624 4078  z "
                 transform="scale(0.015625)" />
            </defs>
            <use
               xlink:href="#CMBX12-50"
               transform="scale(0.996264)"
               id="use26" />
          </g>
        </g>
      </g>
      <g
         id="matplotlib.axis_2">
        <g
           id="ytick_1">
          <g
             id="line2d_7">
            <defs
               id="defs26">
              <path
                 id="m26611f009d"
                 d="M 0 0  L -3.5 0  "
                 style="stroke: #000000; stroke-width: 0.8" />
            </defs>
            <g
               id="g27">
              <use
                 xlink:href="#m26611f009d"
                 x="49.404673"
                 y="161.373647"
                 style="stroke: #000000; stroke-width: 0.8"
                 id="use27" />
            </g>
          </g>
          <g
             id="text_8">
            <!-- $\mathdefault{5}$ -->
            <g
               transform="translate(35.576185 166.216586) scale(0.14 -0.14)"
               id="g28">
              <defs
                 id="defs27">
                <path
                   id="CMR17-35"
                   d="M 730 3692  C 794 3666 1056 3584 1325 3584  C 1920 3584 2246 3911 2432 4100  C 2432 4157 2432 4192 2394 4192  C 2387 4192 2374 4192 2323 4163  C 2099 4058 1837 3973 1517 3973  C 1325 3973 1037 3999 723 4139  C 653 4171 640 4171 634 4171  C 602 4171 595 4164 595 4037  L 595 2203  C 595 2089 595 2057 659 2057  C 691 2057 704 2070 736 2114  C 941 2401 1222 2522 1542 2522  C 1766 2522 2246 2382 2246 1289  C 2246 1085 2246 715 2054 421  C 1894 159 1645 25 1370 25  C 947 25 518 320 403 814  C 429 807 480 795 506 795  C 589 795 749 840 749 1038  C 749 1210 627 1280 506 1280  C 358 1280 262 1190 262 1011  C 262 454 704 -128 1382 -128  C 2042 -128 2669 440 2669 1264  C 2669 2030 2170 2624 1549 2624  C 1222 2624 947 2503 730 2274  L 730 3692  z "
                   transform="scale(0.015625)" />
              </defs>
              <use
                 xlink:href="#CMR17-35"
                 transform="scale(0.996264)"
                 id="use28" />
            </g>
          </g>
        </g>
        <g
           id="ytick_2">
          <g
             id="line2d_8">
            <g
               id="g29">
              <use
                 xlink:href="#m26611f009d"
                 x="49.404673"
                 y="127.532131"
                 style="stroke: #000000; stroke-width: 0.8"
                 id="use29" />
            </g>
          </g>
          <g
             id="text_9">
            <!-- $\mathdefault{10}$ -->
            <g
               transform="translate(28.747696 132.375069) scale(0.14 -0.14)"
               id="g31">
              <use
                 xlink:href="#CMR17-31"
                 transform="scale(0.996264)"
                 id="use30" />
              <use
                 xlink:href="#CMR17-30"
                 transform="translate(45.690477 0) scale(0.996264)"
                 id="use31" />
            </g>
          </g>
        </g>
        <g
           id="ytick_3">
          <g
             id="line2d_9">
            <g
               id="g32">
              <use
                 xlink:href="#m26611f009d"
                 x="49.404673"
                 y="93.690614"
                 style="stroke: #000000; stroke-width: 0.8"
                 id="use32" />
            </g>
          </g>
          <g
             id="text_10">
            <!-- $\mathdefault{15}$ -->
            <g
               transform="translate(28.747696 98.533552) scale(0.14 -0.14)"
               id="g34">
              <use
                 xlink:href="#CMR17-31"
                 transform="scale(0.996264)"
                 id="use33" />
              <use
                 xlink:href="#CMR17-35"
                 transform="translate(45.690477 0) scale(0.996264)"
                 id="use34" />
            </g>
          </g>
        </g>
        <g
           id="ytick_4">
          <g
             id="line2d_10">
            <g
               id="g35">
              <use
                 xlink:href="#m26611f009d"
                 x="49.404673"
                 y="59.849097"
                 style="stroke: #000000; stroke-width: 0.8"
                 id="use35" />
            </g>
          </g>
          <g
             id="text_11">
            <!-- $\mathdefault{20}$ -->
            <g
               transform="translate(28.747696 64.692035) scale(0.14 -0.14)"
               id="g37">
              <use
                 xlink:href="#CMR17-32"
                 transform="scale(0.996264)"
                 id="use36" />
              <use
                 xlink:href="#CMR17-30"
                 transform="translate(45.690477 0) scale(0.996264)"
                 id="use37" />
            </g>
          </g>
        </g>
        <g
           id="ytick_5">
          <g
             id="line2d_11">
            <g
               id="g38">
              <use
                 xlink:href="#m26611f009d"
                 x="49.404673"
                 y="26.00758"
                 style="stroke: #000000; stroke-width: 0.8"
                 id="use38" />
            </g>
          </g>
          <g
             id="text_12">
            <!-- $\mathdefault{25}$ -->
            <g
               transform="translate(28.747696 30.850519) scale(0.14 -0.14)"
               id="g40">
              <use
                 xlink:href="#CMR17-32"
                 transform="scale(0.996264)"
                 id="use39" />
              <use
                 xlink:href="#CMR17-35"
                 transform="translate(45.690477 0) scale(0.996264)"
                 id="use40" />
            </g>
          </g>
        </g>
        <g
           id="text_13">
          <!-- $\phi(P, S)$ -->
          <g
             transform="translate(21.260772 120.859002) rotate(-90) scale(0.14 -0.14)"
             id="g46">
            <defs
               id="defs40">
              <path
                 id="CMMI12-1e"
                 d="M 2752 4390  C 2752 4448 2707 4448 2688 4448  C 2630 4448 2624 4435 2598 4326  L 2253 2939  C 2234 2856 2227 2849 2221 2843  C 2214 2830 2170 2824 2157 2824  C 1107 2734 301 1864 301 1057  C 301 361 832 -64 1498 -64  C 1446 -261 1402 -463 1350 -659  C 1261 -995 1210 -1204 1210 -1229  C 1210 -1241 1210 -1280 1274 -1280  C 1293 -1280 1318 -1280 1331 -1254  C 1344 -1241 1382 -1089 1408 -1008  L 1645 -64  C 2739 -64 3571 854 3571 1680  C 3571 2343 3085 2816 2374 2816  L 2752 4390  z M 2336 2701  C 2758 2701 3181 2463 3181 1828  C 3181 1097 2675 128 1677 50  L 2336 2701  z M 1530 50  C 1216 50 691 220 691 938  C 691 1761 1274 2676 2195 2676  L 1530 50  z "
                 transform="scale(0.015625)" />
              <path
                 id="CMR17-28"
                 d="M 1958 -1561  C 1958 -1555 1958 -1542 1939 -1523  C 1645 -1224 858 -407 858 1581  C 858 3569 1632 4379 1946 4697  C 1946 4704 1958 4717 1958 4736  C 1958 4755 1939 4768 1914 4768  C 1843 4768 1299 4296 986 3594  C 666 2887 576 2199 576 1588  C 576 1128 621 351 1005 -471  C 1312 -1135 1837 -1600 1914 -1600  C 1946 -1600 1958 -1587 1958 -1561  z "
                 transform="scale(0.015625)" />
              <path
                 id="CMMI12-50"
                 d="M 1894 2023  L 2970 2023  C 3853 2023 4736 2673 4736 3401  C 4736 3898 4314 4352 3507 4352  L 1530 4352  C 1408 4352 1350 4352 1350 4231  C 1350 4167 1408 4167 1504 4167  C 1894 4167 1894 4116 1894 4046  C 1894 4034 1894 3995 1869 3899  L 1005 472  C 947 249 934 185 486 185  C 365 185 301 185 301 70  C 301 0 358 0 397 0  C 518 0 646 0 768 0  L 1517 0  C 1638 0 1773 0 1894 0  C 1946 0 2016 0 2016 121  C 2016 185 1958 185 1862 185  C 1478 185 1472 230 1472 293  C 1472 325 1478 369 1485 401  L 1894 2023  z M 2355 3930  C 2413 4167 2438 4167 2688 4167  L 3322 4167  C 3802 4167 4198 4013 4198 3535  C 4198 3369 4115 2827 3821 2534  C 3712 2419 3405 2176 2822 2176  L 1920 2176  L 2355 3930  z "
                 transform="scale(0.015625)" />
              <path
                 id="CMMI12-3b"
                 d="M 1248 -31  C 1248 343 1126 619 864 619  C 659 619 557 453 557 313  C 557 172 653 0 870 0  C 954 0 1024 26 1082 83  C 1094 96 1101 96 1107 96  C 1120 96 1120 5 1120 -27  C 1120 -240 1082 -659 710 -1080  C 640 -1157 640 -1170 640 -1183  C 640 -1216 672 -1248 704 -1248  C 755 -1248 1248 -771 1248 -31  z "
                 transform="scale(0.015625)" />
              <path
                 id="CMMI12-53"
                 d="M 4064 4423  C 4064 4480 4019 4480 4006 4480  C 3981 4480 3974 4474 3898 4378  C 3859 4333 3597 4001 3590 3995  C 3379 4410 2957 4480 2688 4480  C 1875 4480 1139 3743 1139 3025  C 1139 2549 1427 2269 1741 2161  C 1811 2135 2189 2033 2381 1989  C 2707 1900 2790 1875 2925 1735  C 2950 1703 3078 1557 3078 1258  C 3078 667 2528 57 1888 57  C 1363 57 781 280 781 991  C 781 1112 806 1265 826 1328  C 826 1348 832 1378 832 1391  C 832 1417 819 1449 768 1449  C 710 1449 704 1436 678 1328  L 352 24  C 352 18 326 -64 326 -71  C 326 -128 378 -128 390 -128  C 416 -128 422 -122 499 -26  L 794 356  C 947 126 1280 -128 1875 -128  C 2701 -128 3456 666 3456 1460  C 3456 1728 3392 1963 3149 2197  C 3014 2331 2899 2363 2310 2516  C 1882 2630 1824 2649 1709 2751  C 1600 2858 1517 3011 1517 3227  C 1517 3761 2061 4308 2669 4308  C 3296 4308 3590 3926 3590 3323  C 3590 3158 3558 2986 3558 2961  C 3558 2903 3610 2903 3629 2903  C 3686 2903 3693 2922 3718 3024  L 4064 4423  z "
                 transform="scale(0.015625)" />
              <path
                 id="CMR17-29"
                 d="M 1683 1581  C 1683 2040 1638 2817 1254 3639  C 947 4303 422 4768 346 4768  C 326 4768 301 4761 301 4729  C 301 4717 307 4710 314 4697  C 621 4378 1402 3568 1402 1584  C 1402 -407 627 -1217 314 -1537  C 307 -1549 301 -1556 301 -1568  C 301 -1600 326 -1600 346 -1600  C 416 -1600 960 -1128 1274 -426  C 1594 281 1683 969 1683 1581  z "
                 transform="scale(0.015625)" />
            </defs>
            <use
               xlink:href="#CMMI12-1e"
               transform="scale(0.996264)"
               id="use41" />
            <use
               xlink:href="#CMR17-28"
               transform="translate(57.73418 0) scale(0.996264)"
               id="use42" />
            <use
               xlink:href="#CMMI12-50"
               transform="translate(93.014948 0) scale(0.996264)"
               id="use43" />
            <use
               xlink:href="#CMMI12-3b"
               transform="translate(158.601898 0) scale(0.996264)"
               id="use44" />
            <use
               xlink:href="#CMMI12-53"
               transform="translate(202.30348 0) scale(0.996264)"
               id="use45" />
            <use
               xlink:href="#CMR17-29"
               transform="translate(268.09792 0) scale(0.996264)"
               id="use46" />
          </g>
        </g>
      </g>
      <g
         id="line2d_12">
        <path
           d="M 83.997521 36.841219  L 90.208843 37.430267  L 94.2071 37.976288  L 98.893785 38.852573  L 102.423023 39.734654  L 106.281282 40.983262  L 108.331668 41.793786  L 110.460151 42.761754  L 112.663637 43.916575  L 114.937819 45.291425  L 117.277506 46.921923  L 119.676275 48.84353  L 122.126292 51.088249  L 124.619757 53.680983  L 127.146407 56.629529  L 129.695646 59.91979  L 132.25516 63.508209  L 137.356366 71.268737  L 147.097279 86.866115  L 149.354353 90.714248  L 151.512972 94.671098  L 153.560659 98.790821  L 155.486083 103.077096  L 157.278793 107.482177  L 158.930584 111.926006  L 161.783638 120.571921  L 164.004772 128.488596  L 164.873521 132.147714  L 165.581775 135.651311  L 166.131702 139.037909  L 166.526767 142.330878  L 166.771835 145.530914  L 166.872503 148.619822  L 166.835653 151.570998  L 166.668391 154.361231  L 166.378689 156.972804  L 165.974956 159.398624  L 165.465324 161.640042  L 164.858658 163.702549  L 164.163438 165.595323  L 163.38809 167.329019  L 162.540998 168.9151  L 161.630035 170.36601  L 159.646211 172.910041  L 157.495152 175.049565  L 155.227116 176.859342  L 152.886872 178.384735  L 151.70181 179.013337  L 150.512562 179.345366  L 149.323153 178.914164  L 148.137306 179.026924  L 146.957949 179.536548  L 145.788331 179.660576  L 143.488766 179.484271  L 141.257455 178.936397  L 138.070824 177.703705  L 134.175439 176.033998  L 133.270675 175.449049  L 131.547487 173.915264  L 129.182207 171.551592  L 127.080313 169.630829  L 124.145904 166.015921  L 123.161856 164.710776  L 122.28024 163.187298  L 121.496537 161.377588  L 120.494694 158.473435  L 119.935831 157.992972  L 118.37096 150.898341  L 118.107816 148.214457  L 118.078219 147.870241  L 118.062324 149.2505  L 118.174874 145.042105  L 118.691205 141.976786  L 119.241338 140.121256  L 119.943579 138.493728  L 120.792211 137.094201  L 121.786971 135.898464  L 123.567053 134.221473  L 126.144488 131.761333  L 129.406975 128.235628  L 132.927399 124.484762  L 135.747977 121.830269  L 138.157766 119.867713  L 140.852276 117.987694  L 143.857176 116.219962  L 147.19626 114.563988  L 150.887042 113.001304  L 154.938611 111.53042  L 159.350108 110.218691  L 162.48567 109.508035  L 165.767613 108.994959  L 169.187074 108.723588  L 172.730716 108.711053  L 176.382943 108.945464  L 180.125099 109.397697  L 183.937242 110.037247  L 187.796536 110.842775  L 191.679852 111.80576  L 195.5619 112.926552  L 199.419337 114.208363  L 203.226499 115.648703  L 206.960576 117.234708  L 212.377483 119.823382  L 217.516811 122.534593  L 226.766615 127.729485  L 236.650509 133.472224  L 241.371312 136.478508  L 244.386218 138.631944  L 246.777641 140.572567  L 248.603353 142.30138  L 249.924789 143.819971  L 250.804169 145.132304  L 251.302643 146.244765  L 251.479358 147.166159  L 251.389733 147.909379  L 251.085525 148.491195  L 250.612689 148.932087  L 249.844341 149.319356  L 248.743236 149.601652  L 247.096471 149.77542  L 244.229481 149.814727  L 240.611729 149.734972  L 240.611729 149.734972  "
           clip-path="url(#pab43c07959)"
           style="fill: none; stroke: #000000; stroke-width: 3; stroke-linecap: square"
           id="path46" />
      </g>
      <g
         id="line2d_13">
        <path
           d="M 362.818496 36.841219  L 353.708039 37.295866  L 344.993862 37.976288  L 337.468664 38.852573  L 331.934504 39.734654  L 325.964964 40.983262  L 322.81371 41.793786  L 319.550656 42.761754  L 316.176177 43.916575  L 312.691059 45.291425  L 309.096892 46.921923  L 305.396031 48.84353  L 301.59219 51.088249  L 297.687905 53.680983  L 293.688782 56.629529  L 289.600176 59.91979  L 285.428818 63.508209  L 263.59176 83.046151  L 250.04007 94.671098  L 245.508962 98.790821  L 236.490915 107.482177  L 223.223491 120.571921  L 214.664872 128.488596  L 206.410568 135.651311  L 191.004003 148.619822  L 183.915702 154.361231  L 177.259146 159.398624  L 171.034915 163.702549  L 165.236119 167.329019  L 159.848466 170.36601  L 154.849816 172.910041  L 150.2202 175.049565  L 143.910031 177.656894  L 140.088328 179.013337  L 138.283576 179.345366  L 136.545619 178.914164  L 134.871761 179.026924  L 133.258646 179.536548  L 131.703947 179.660576  L 128.759206 179.484271  L 126.018254 178.936397  L 123.463248 178.130686  L 117.787454 176.033998  L 116.760487 175.449049  L 114.802042 173.915264  L 112.083341 171.551592  L 109.59725 169.630829  L 103.890101 163.985219  L 102.634763 162.31457  L 100.856481 159.402781  L 100.289249 158.473435  L 99.189885 157.992972  L 97.621212 154.994498  L 96.139079 152.792371  L 93.836392 149.550307  L 92.967621 148.214457  L 92.54347 147.870241  L 92.126059 149.2505  L 91.715011 147.266101  L 91.310211 146.333879  L 90.518724 145.398992  L 89.750495 144.612063  L 88.279272 142.488216  L 86.221661 139.694087  L 84.323093 137.422419  L 82.281296 135.344588  L 80.657434 133.606748  L 79.63049 132.172649  L 78.642633 130.387354  L 77.689936 128.235628  L 76.320319 124.484762  L 71.869916 111.53042  L 71.003284 109.508035  L 70.515041 108.827303  L 70.203486 108.685169  L 69.903441 108.798973  L 69.615088 109.146388  L 69.204714 110.037247  L 68.698809 111.80576  L 68.238804 114.208363  L 67.724523 118.07442  L 66.94722 126.070406  L 65.230729 143.819971  L 64.52516 149.43246  L 64.377161 149.820155  L 64.34021 149.770066  L 64.329141 149.734972  L 64.329141 149.734972  "
           clip-path="url(#pab43c07959)"
           style="fill: none; stroke: #808080; stroke-width: 3; stroke-linecap: square"
           id="path47" />
      </g>
      <g
         id="line2d_14">
        <path
           d="M 83.997521 38.633188  L 104.311263 50.80717  L 110.460151 54.869665  L 114.937819 58.021807  L 119.676275 61.573201  L 124.619757 65.558756  L 129.695646 70.008485  L 134.813259 74.941584  L 139.870425 80.363348  L 142.341572 83.25353  L 144.755285 86.257935  L 147.097279 89.370251  L 149.354353 92.583404  L 151.512972 95.88709  L 153.560659 99.269551  L 155.486083 102.716978  L 157.278793 106.213385  L 158.930584 109.742555  L 160.434547 113.287069  L 161.783638 116.824173  L 162.974493 120.335399  L 164.004772 123.800377  L 164.873521 127.198465  L 165.581775 130.511588  L 166.131702 133.721061  L 166.526767 136.810528  L 166.771835 139.765535  L 166.872503 142.573838  L 166.835653 145.225336  L 166.668391 147.713742  L 166.378689 150.033097  L 165.974956 152.180995  L 165.465324 154.157929  L 164.858658 155.965245  L 164.163438 157.60658  L 163.38809 159.086946  L 162.540998 160.412469  L 161.630035 161.590695  L 160.662064 162.630098  L 159.646211 163.537379  L 158.588348 164.322226  L 156.372775 165.558867  L 154.063569 166.407609  L 151.70181 166.931984  L 149.323153 167.18897  L 146.957949 167.228483  L 144.631122 167.093356  L 141.257455 166.640594  L 138.070824 165.972326  L 134.175439 164.868972  L 130.729635 163.630753  L 127.751904 162.335077  L 125.236506 161.029234  L 123.161856 159.740568  L 121.496537 158.483162  L 120.20476 157.263368  L 119.249577 156.083073  L 118.595532 154.942244  L 118.209577 153.839932  L 118.062324 152.775466  L 118.127905 151.748101  L 118.384391 150.757302  L 118.946749 149.569155  L 119.754197 148.435313  L 120.792211 147.353192  L 122.05898 146.319301  L 123.899975 145.136428  L 126.144488 144.009544  L 128.890952 142.931361  L 131.667191 142.065933  L 135.002874 141.228221  L 139.022935 140.418104  L 144.932161 139.484682  L 152.197079 138.600096  L 160.899107 137.774126  L 172.730716 136.898674  L 187.796536 136.028889  L 208.793573 135.063315  L 245.656272 133.419734  L 250.622384 132.990796  L 251.479697 132.756772  L 251.331958 132.684834  L 250.32571 132.561451  L 246.88187 132.427263  L 240.611729 132.354667  L 240.611729 132.354667  "
           clip-path="url(#pab43c07959)"
           style="fill: none; stroke-dasharray: 3,4.95; stroke-dashoffset: 0; stroke: #1f77b4; stroke-width: 3"
           id="path48" />
      </g>
      <g
         id="line2d_15">
        <path
           d="M 83.997521 18.84098  L 87.892982 24.205774  L 92.800978 30.4846  L 98.893785 37.855364  L 108.331668 48.811605  L 127.146407 70.47741  L 134.813259 79.723372  L 139.870425 86.12205  L 144.755285 92.642955  L 149.354353 99.221727  L 153.560659 105.791166  L 157.278793 112.280618  L 158.930584 115.474283  L 160.434547 118.624095  L 161.783638 121.719364  L 162.974493 124.754152  L 164.004772 127.721494  L 164.873521 130.614471  L 165.581775 133.428299  L 166.131702 136.15728  L 166.526767 138.796934  L 166.771835 141.343432  L 166.872503 143.793555  L 166.835653 146.144506  L 166.668391 148.395319  L 166.378689 150.543688  L 165.974956 152.588897  L 165.465324 154.531411  L 164.858658 156.371069  L 164.163438 158.108628  L 162.540998 161.281712  L 160.662064 164.064097  L 158.588348 166.469207  L 156.372775 168.51664  L 154.063569 170.225427  L 151.70181 171.615627  L 149.323153 172.706664  L 146.957949 173.517367  L 144.631122 174.065969  L 142.36372 174.369597  L 140.172231 174.444635  L 138.070824 174.306566  L 136.069258 173.970161  L 134.175439 173.449494  L 132.39457 172.758022  L 130.729635 171.908371  L 129.182207 170.912776  L 127.751904 169.782455  L 126.437457 168.528148  L 125.236506 167.159875  L 123.640816 164.914056  L 122.28024 162.461326  L 121.140067 159.827675  L 120.20476 157.037661  L 119.458768 154.114314  L 118.887019 151.081847  L 118.37096 146.91119  L 118.107816 142.651934  L 118.069952 138.373844  L 118.233505 134.149515  L 118.578513 130.053481  L 119.089247 126.158668  L 119.754197 122.531992  L 120.566492 119.232462  L 121.524424 116.308367  L 122.340581 114.384378  L 123.244983 112.704205  L 124.243929 111.276186  L 125.346306 110.105887  L 126.563932 109.195702  L 127.911622 108.545663  L 129.406975 108.153523  L 131.070983 108.01463  L 132.927399 108.122089  L 135.002874 108.466837  L 138.157766 109.274605  L 142.81946 110.792693  L 169.187074 119.957118  L 178.243872 122.696472  L 187.796536 125.355851  L 199.419337 128.342693  L 215.83807 132.286582  L 230.81198 135.918751  L 237.682627 137.774423  L 242.960088 139.425414  L 246.235212 140.658015  L 248.603353 141.764108  L 250.183792 142.74305  L 250.962174 143.433831  L 251.374664 144.042928  L 251.479697 144.572676  L 251.331958 145.027324  L 250.981635 145.412911  L 250.32571 145.808743  L 249.127107 146.22929  L 247.309589 146.598328  L 244.453937 146.913991  L 240.611729 147.122267  L 240.611729 147.122267  "
           clip-path="url(#pab43c07959)"
           style="fill: none; stroke-dasharray: 11.1,4.8; stroke-dashoffset: 0; stroke: #1f77b4; stroke-width: 3"
           id="path49" />
      </g>
      <g
         id="line2d_16">
        <path
           d="M 83.997521 19.46358  L 87.892982 24.80746  L 92.800978 31.080116  L 98.893785 38.468437  L 108.331668 49.498817  L 124.619757 68.451842  L 132.25516 77.701032  L 137.356366 84.155582  L 142.341572 90.778305  L 147.097279 97.505246  L 151.512972 104.267037  L 155.486083 110.988627  L 158.930584 117.593786  L 160.434547 120.831338  L 161.783638 124.011093  L 162.974493 127.12623  L 164.004772 130.168834  L 164.873521 133.131051  L 165.581775 136.007272  L 166.131702 138.790931  L 166.526767 141.476788  L 166.771835 144.060336  L 166.872503 146.537737  L 166.835653 148.905684  L 166.668391 151.162809  L 166.378689 153.306502  L 165.974956 155.335832  L 165.465324 157.251181  L 164.858658 159.052388  L 164.163438 160.740307  L 163.38809 162.316184  L 161.630035 165.138636  L 159.646211 167.538205  L 157.495152 169.534682  L 155.227116 171.152814  L 152.886872 172.417846  L 150.512562 173.355706  L 148.137306 173.991655  L 145.788331 174.350527  L 143.488766 174.455986  L 141.257455 174.330639  L 139.10953 173.995946  L 137.056996 173.472194  L 135.108518 172.778364  L 133.270675 171.932352  L 131.547487 170.950651  L 129.941285 169.848722  L 128.452467 168.640473  L 126.437457 166.656498  L 124.677603 164.499896  L 123.161856 162.202883  L 121.876467 159.7922  L 120.806262 157.290468  L 119.935831 154.717257  L 119.249577 152.089673  L 118.595532 148.529397  L 118.209577 144.937215  L 118.062324 141.350339  L 118.127905 137.805709  L 118.384391 134.340479  L 118.813971 130.990299  L 119.402994 127.788481  L 120.142143 124.765131  L 121.027103 121.946216  L 122.05898 119.353921  L 123.244983 117.007191  L 124.599413 114.922504  L 125.738747 113.540089  L 126.997959 112.319372  L 128.392724 111.265988  L 129.941781 110.385849  L 131.667191 109.684295  L 133.593553 109.166817  L 135.747977 108.838212  L 138.157766 108.702668  L 140.852276 108.762756  L 143.857176 109.019242  L 148.386811 109.663013  L 153.547742 110.638508  L 160.899107 112.284013  L 170.944264 114.778557  L 187.796536 119.213201  L 206.960576 124.456865  L 219.158523 128.012894  L 226.766615 130.429626  L 233.283618 132.730095  L 237.682627 134.485989  L 241.371312 136.166407  L 244.386218 137.769014  L 246.777641 139.288412  L 248.603353 140.71632  L 249.924789 142.042863  L 250.804169 143.258178  L 251.302643 144.35448  L 251.479358 145.327605  L 251.389733 146.178  L 251.085525 146.910402  L 250.612689 147.533338  L 249.844341 148.174837  L 248.743236 148.774801  L 247.309589 149.290852  L 245.347172 149.745674  L 242.649989 150.119494  L 240.611729 150.294444  L 240.611729 150.294444  "
           clip-path="url(#pab43c07959)"
           style="fill: none; stroke-dasharray: 19.2,4.8,3,4.8; stroke-dashoffset: 0; stroke: #1f77b4; stroke-width: 3"
           id="path50" />
      </g>
      <g
         id="line2d_17">
        <path
           d="M 362.818496 38.633188  L 353.708039 41.583748  L 344.993862 44.622996  L 337.468664 47.431126  L 329.004902 50.80717  L 319.550656 54.869665  L 312.691059 58.021807  L 305.396031 61.573201  L 297.687905 65.558756  L 289.600176 70.008485  L 281.180726 74.941584  L 272.487848 80.363348  L 263.59176 86.257935  L 254.57141 92.583404  L 245.508962 99.269551  L 236.490915 106.213385  L 223.223491 116.824173  L 198.510641 136.810528  L 191.004003 142.573838  L 183.915702 147.713742  L 177.259146 152.180995  L 171.034915 155.965245  L 165.236119 159.086946  L 159.848466 161.590695  L 154.849816 163.537379  L 150.2202 164.993191  L 145.932981 166.027643  L 141.962781 166.706626  L 138.283576 167.090616  L 134.871761 167.233066  L 131.703947 167.18034  L 127.364605 166.819732  L 123.463248 166.214057  L 119.944829 165.443862  L 115.765803 164.261073  L 112.083341 162.986594  L 108.054303 161.35489  L 103.890101 159.422916  L 99.189885 156.964561  L 94.281688 154.112036  L 89.004312 150.757302  L 83.426872 146.934059  L 77.225786 142.4087  L 69.757772 136.667748  L 64.329141 132.354667  L 64.329141 132.354667  "
           clip-path="url(#pab43c07959)"
           style="fill: none; stroke-dasharray: 3,4.95; stroke-dashoffset: 0; stroke: #ff7f0e; stroke-width: 3"
           id="path51" />
      </g>
      <g
         id="line2d_18">
        <path
           d="M 362.818496 18.84098  L 316.176177 53.763204  L 281.180726 79.723372  L 254.57141 99.221727  L 232.024134 115.474283  L 214.664872 127.721494  L 202.413525 136.15728  L 191.004003 143.793555  L 180.532921 150.543688  L 171.034915 156.371069  L 162.492258 161.281712  L 157.300556 164.064097  L 152.490619 166.469207  L 148.035362 168.51664  L 143.910031 170.225427  L 140.088328 171.615627  L 136.545619 172.706664  L 133.258646 173.517367  L 130.204939 174.065969  L 127.364605 174.369597  L 124.718559 174.444635  L 122.250585 174.306566  L 119.944829 173.970161  L 117.787454 173.449494  L 115.765803 172.758022  L 113.867873 171.908371  L 112.083341 170.912776  L 110.40202 169.782455  L 108.054303 167.857664  L 105.891747 165.687042  L 103.890101 163.300153  L 102.028641 160.724095  L 100.289249 157.983512  L 98.133883 154.114314  L 96.139079 150.050867  L 93.836392 144.788175  L 91.310211 138.373844  L 87.924366 129.058158  L 84.323093 119.232462  L 82.562671 114.999148  L 81.186987 112.199804  L 80.138825 110.467179  L 79.131953 109.195702  L 78.401258 108.545663  L 77.689936 108.153523  L 76.996606 108.01463  L 76.320319 108.122089  L 75.660212 108.466837  L 75.016274 109.036928  L 74.182675 110.12234  L 73.378808 111.540218  L 72.419202 113.701323  L 71.342297 116.70809  L 70.052009 121.056589  L 68.579578 126.881956  L 66.723923 135.249774  L 64.329141 147.122267  L 64.329141 147.122267  "
           clip-path="url(#pab43c07959)"
           style="fill: none; stroke-dasharray: 11.1,4.8; stroke-dashoffset: 0; stroke: #ff7f0e; stroke-width: 3"
           id="path52" />
      </g>
      <g
         id="line2d_19">
        <path
           d="M 362.818496 19.46358  L 322.81371 49.498817  L 245.508962 107.637627  L 227.597166 120.831338  L 210.496621 133.131051  L 198.510641 141.476788  L 187.406979 148.905684  L 177.259146 155.335832  L 171.034915 159.052388  L 165.236119 162.316184  L 159.848466 165.138636  L 154.849816 167.538205  L 150.2202 169.534682  L 145.932981 171.152814  L 141.962781 172.417846  L 138.283576 173.355706  L 134.871761 173.991655  L 131.703947 174.350527  L 128.759206 174.455986  L 126.018254 174.330639  L 123.463248 173.995946  L 121.078311 173.472194  L 118.848433 172.778364  L 116.760487 171.932352  L 114.802042 170.950651  L 112.962159 169.848722  L 110.40202 168.00054  L 108.054303 165.955098  L 105.891747 163.748475  L 103.890101 161.410717  L 101.43609 158.133237  L 99.189885 154.717257  L 96.624118 150.315687  L 94.281688 145.836544  L 91.715011 140.458789  L 88.639192 133.490775  L 81.728081 117.56991  L 79.883408 113.983253  L 78.401258 111.598117  L 77.225786 110.131874  L 76.320319 109.318581  L 75.443785 108.838212  L 74.805207 108.702668  L 74.182675 108.762756  L 73.576888 109.019242  L 72.988678 109.470249  L 72.233811 110.364729  L 71.515652 111.572828  L 70.675052 113.469384  L 69.757772 116.188321  L 68.820914 119.733964  L 67.82226 124.456865  L 66.796581 130.429626  L 65.708116 138.156951  L 64.586953 147.807103  L 64.329141 150.294444  L 64.329141 150.294444  "
           clip-path="url(#pab43c07959)"
           style="fill: none; stroke-dasharray: 19.2,4.8,3,4.8; stroke-dashoffset: 0; stroke: #ff7f0e; stroke-width: 3"
           id="path53" />
      </g>
      <g
         id="patch_3">
        <path
           d="M 49.404673 187.701556  L 49.404673 10.8  "
           style="fill: none; stroke: #000000; stroke-width: 0.8; stroke-linejoin: miter; stroke-linecap: square"
           id="path54" />
      </g>
      <g
         id="patch_4">
        <path
           d="M 377.742964 187.701556  L 377.742964 10.8  "
           style="fill: none; stroke: #000000; stroke-width: 0.8; stroke-linejoin: miter; stroke-linecap: square"
           id="path55" />
      </g>
      <g
         id="patch_5">
        <path
           d="M 49.404673 187.701556  L 377.742964 187.701556  "
           style="fill: none; stroke: #000000; stroke-width: 0.8; stroke-linejoin: miter; stroke-linecap: square"
           id="path56" />
      </g>
      <g
         id="patch_6">
        <path
           d="M 49.404673 10.8  L 377.742964 10.8  "
           style="fill: none; stroke: #000000; stroke-width: 0.8; stroke-linejoin: miter; stroke-linecap: square"
           id="path57" />
      </g>
      <g
         id="text_14">
        <!-- $\mathbf{s}$ -->
        <g
           style="fill: #808080"
           transform="translate(142.601043 223.081867) scale(0.24 -0.24)"
           id="g57">
          <defs
             id="defs57">
            <path
               id="CMBX12-73"
               d="M 2413 2715  C 2413 2836 2413 2880 2317 2880  C 2278 2880 2266 2880 2170 2823  C 2144 2804 2074 2759 2042 2740  C 1862 2842 1626 2880 1395 2880  C 1203 2880 243 2880 243 2056  C 243 1389 1037 1250 1235 1218  C 1408 1187 1619 1148 1645 1148  C 1901 1091 2157 932 2157 666  C 2157 178 1574 178 1440 178  C 1114 178 710 279 531 896  C 493 1023 486 1023 378 1023  C 243 1023 243 1004 243 858  L 243 132  C 243 12 243 -32 339 -32  C 384 -32 397 -32 525 70  L 691 191  C 979 -32 1325 -32 1440 -32  C 1792 -32 2592 44 2592 888  C 2592 1192 2426 1402 2298 1516  C 2035 1731 1818 1770 1472 1833  C 1062 1903 678 1973 678 2277  C 678 2689 1248 2689 1382 2689  C 2093 2689 2131 2245 2144 2087  C 2150 2005 2202 2005 2278 2005  C 2413 2005 2413 2024 2413 2170  L 2413 2715  z "
               transform="scale(0.015625)" />
          </defs>
          <use
             xlink:href="#CMBX12-73"
             transform="scale(0.996264)"
             id="use57" />
        </g>
      </g>
      <g
         id="legend_1">
        <g
           id="line2d_20">
          <path
             d="M 178.868847 31.866486  L 192.868847 31.866486  L 206.868847 31.866486  "
             style="fill: none; stroke: #000000; stroke-width: 3; stroke-linecap: square"
             id="path58" />
        </g>
        <g
           id="text_15">
          <!-- $\hat{\phi}(P)$ -->
          <g
             transform="translate(218.068847 36.766486) scale(0.14 -0.14)"
             id="g62">
            <defs
               id="defs58">
              <path
                 id="CMR17-5e"
                 d="M 1466 4421  L 678 3555  L 755 3478  L 1466 4166  L 2176 3478  L 2253 3555  L 1466 4421  z "
                 transform="scale(0.015625)" />
            </defs>
            <use
               xlink:href="#CMR17-5e"
               transform="translate(14.151005 26.296621) scale(0.996264)"
               id="use58" />
            <use
               xlink:href="#CMMI12-1e"
               transform="scale(0.996264)"
               id="use59" />
            <use
               xlink:href="#CMR17-28"
               transform="translate(57.73418 0) scale(0.996264)"
               id="use60" />
            <use
               xlink:href="#CMMI12-50"
               transform="translate(93.014948 0) scale(0.996264)"
               id="use61" />
            <use
               xlink:href="#CMR17-29"
               transform="translate(169.440769 0) scale(0.996264)"
               id="use62" />
          </g>
        </g>
        <g
           id="line2d_21">
          <path
             d="M 178.868847 55.719897  L 192.868847 55.719897  L 206.868847 55.719897  "
             style="fill: none; stroke: #808080; stroke-width: 3; stroke-linecap: square"
             id="path62" />
        </g>
        <g
           id="text_16">
          <!-- $\hat{\phi}(S)$ -->
          <g
             transform="translate(218.068847 60.619897) scale(0.14 -0.14)"
             id="g67">
            <use
               xlink:href="#CMR17-5e"
               transform="translate(14.151005 26.296621) scale(0.996264)"
               id="use63" />
            <use
               xlink:href="#CMMI12-1e"
               transform="scale(0.996264)"
               id="use64" />
            <use
               xlink:href="#CMR17-28"
               transform="translate(57.73418 0) scale(0.996264)"
               id="use65" />
            <use
               xlink:href="#CMMI12-53"
               transform="translate(93.014948 0) scale(0.996264)"
               id="use66" />
            <use
               xlink:href="#CMR17-29"
               transform="translate(158.809387 0) scale(0.996264)"
               id="use67" />
          </g>
        </g>
        <g
           id="line2d_22">
          <path
             d="M 178.868847 76.667593  L 192.868847 76.667593  L 206.868847 76.667593  "
             style="fill: none; stroke-dasharray: 3,4.95; stroke-dashoffset: 0; stroke: #1f77b4; stroke-width: 3"
             id="path67" />
        </g>
        <g
           id="text_17">
          <!-- $\phi^s_5(P)$ -->
          <g
             transform="translate(218.068847 81.567593) scale(0.14 -0.14)"
             id="g73">
            <defs
               id="defs67">
              <path
                 id="CMMI12-73"
                 d="M 1459 1280  C 1568 1261 1741 1223 1779 1216  C 1862 1192 2150 1090 2150 783  C 2150 586 1971 70 1229 70  C 1094 70 614 70 486 436  C 742 404 870 603 870 745  C 870 880 781 950 653 950  C 512 950 326 841 326 552  C 326 173 710 -64 1222 -64  C 2195 -64 2483 651 2483 984  C 2483 1079 2483 1258 2278 1462  C 2118 1616 1965 1648 1619 1718  C 1446 1756 1171 1814 1171 2101  C 1171 2229 1286 2689 1894 2689  C 2163 2689 2426 2589 2490 2368  C 2208 2368 2195 2125 2195 2119  C 2195 1984 2317 1946 2374 1946  C 2464 1946 2643 2015 2643 2281  C 2643 2545 2400 2816 1901 2816  C 1062 2816 838 2160 838 1899  C 838 1414 1312 1312 1459 1280  z "
                 transform="scale(0.015625)" />
            </defs>
            <use
               xlink:href="#CMMI12-1e"
               transform="scale(0.996264)"
               id="use68" />
            <use
               xlink:href="#CMMI12-73"
               transform="translate(57.73418 36.153639) scale(0.697382)"
               id="use69" />
            <use
               xlink:href="#CMR17-35"
               transform="translate(57.73418 -24.740171) scale(0.697382)"
               id="use70" />
            <use
               xlink:href="#CMR17-28"
               transform="translate(90.397201 0) scale(0.996264)"
               id="use71" />
            <use
               xlink:href="#CMMI12-50"
               transform="translate(125.677969 0) scale(0.996264)"
               id="use72" />
            <use
               xlink:href="#CMR17-29"
               transform="translate(202.10379 0) scale(0.996264)"
               id="use73" />
          </g>
        </g>
        <g
           id="line2d_23">
          <path
             d="M 178.868847 97.615289  L 192.868847 97.615289  L 206.868847 97.615289  "
             style="fill: none; stroke-dasharray: 11.1,4.8; stroke-dashoffset: 0; stroke: #1f77b4; stroke-width: 3"
             id="path73" />
        </g>
        <g
           id="text_18">
          <!-- $\phi^s_{10}(P)$ -->
          <g
             transform="translate(218.068847 102.515289) scale(0.14 -0.14)"
             id="g80">
            <use
               xlink:href="#CMMI12-1e"
               transform="scale(0.996264)"
               id="use74" />
            <use
               xlink:href="#CMMI12-73"
               transform="translate(57.73418 36.153639) scale(0.697382)"
               id="use75" />
            <use
               xlink:href="#CMR17-31"
               transform="translate(57.73418 -24.740171) scale(0.697382)"
               id="use76" />
            <use
               xlink:href="#CMR17-30"
               transform="translate(89.717362 -24.740171) scale(0.697382)"
               id="use77" />
            <use
               xlink:href="#CMR17-28"
               transform="translate(122.198676 0) scale(0.996264)"
               id="use78" />
            <use
               xlink:href="#CMMI12-50"
               transform="translate(157.479444 0) scale(0.996264)"
               id="use79" />
            <use
               xlink:href="#CMR17-29"
               transform="translate(233.905265 0) scale(0.996264)"
               id="use80" />
          </g>
        </g>
        <g
           id="line2d_24">
          <path
             d="M 286.005905 31.866486  L 300.005905 31.866486  L 314.005905 31.866486  "
             style="fill: none; stroke-dasharray: 19.2,4.8,3,4.8; stroke-dashoffset: 0; stroke: #1f77b4; stroke-width: 3"
             id="path80" />
        </g>
        <g
           id="text_19">
          <!-- $\phi^s_{14}(P)$ -->
          <g
             transform="translate(325.205905 36.766486) scale(0.14 -0.14)"
             id="g87">
            <use
               xlink:href="#CMMI12-1e"
               transform="scale(0.996264)"
               id="use81" />
            <use
               xlink:href="#CMMI12-73"
               transform="translate(57.73418 36.153639) scale(0.697382)"
               id="use82" />
            <use
               xlink:href="#CMR17-31"
               transform="translate(57.73418 -24.740171) scale(0.697382)"
               id="use83" />
            <use
               xlink:href="#CMR17-34"
               transform="translate(89.717362 -24.740171) scale(0.697382)"
               id="use84" />
            <use
               xlink:href="#CMR17-28"
               transform="translate(122.198676 0) scale(0.996264)"
               id="use85" />
            <use
               xlink:href="#CMMI12-50"
               transform="translate(157.479444 0) scale(0.996264)"
               id="use86" />
            <use
               xlink:href="#CMR17-29"
               transform="translate(233.905265 0) scale(0.996264)"
               id="use87" />
          </g>
        </g>
        <g
           id="line2d_25">
          <path
             d="M 286.005905 52.814183  L 300.005905 52.814183  L 314.005905 52.814183  "
             style="fill: none; stroke-dasharray: 3,4.95; stroke-dashoffset: 0; stroke: #ff7f0e; stroke-width: 3"
             id="path87" />
        </g>
        <g
           id="text_20">
          <!-- $\phi^s_5(S)$ -->
          <g
             transform="translate(325.205905 57.714183) scale(0.14 -0.14)"
             id="g93">
            <use
               xlink:href="#CMMI12-1e"
               transform="scale(0.996264)"
               id="use88" />
            <use
               xlink:href="#CMMI12-73"
               transform="translate(57.73418 36.153639) scale(0.697382)"
               id="use89" />
            <use
               xlink:href="#CMR17-35"
               transform="translate(57.73418 -24.740171) scale(0.697382)"
               id="use90" />
            <use
               xlink:href="#CMR17-28"
               transform="translate(90.397201 0) scale(0.996264)"
               id="use91" />
            <use
               xlink:href="#CMMI12-53"
               transform="translate(125.677969 0) scale(0.996264)"
               id="use92" />
            <use
               xlink:href="#CMR17-29"
               transform="translate(191.472408 0) scale(0.996264)"
               id="use93" />
          </g>
        </g>
        <g
           id="line2d_26">
          <path
             d="M 286.005905 73.761879  L 300.005905 73.761879  L 314.005905 73.761879  "
             style="fill: none; stroke-dasharray: 11.1,4.8; stroke-dashoffset: 0; stroke: #ff7f0e; stroke-width: 3"
             id="path93" />
        </g>
        <g
           id="text_21">
          <!-- $\phi^s_{10}(S)$ -->
          <g
             transform="translate(325.205905 78.661879) scale(0.14 -0.14)"
             id="g100">
            <use
               xlink:href="#CMMI12-1e"
               transform="scale(0.996264)"
               id="use94" />
            <use
               xlink:href="#CMMI12-73"
               transform="translate(57.73418 36.153639) scale(0.697382)"
               id="use95" />
            <use
               xlink:href="#CMR17-31"
               transform="translate(57.73418 -24.740171) scale(0.697382)"
               id="use96" />
            <use
               xlink:href="#CMR17-30"
               transform="translate(89.717362 -24.740171) scale(0.697382)"
               id="use97" />
            <use
               xlink:href="#CMR17-28"
               transform="translate(122.198676 0) scale(0.996264)"
               id="use98" />
            <use
               xlink:href="#CMMI12-53"
               transform="translate(157.479444 0) scale(0.996264)"
               id="use99" />
            <use
               xlink:href="#CMR17-29"
               transform="translate(223.273883 0) scale(0.996264)"
               id="use100" />
          </g>
        </g>
        <g
           id="line2d_27">
          <path
             d="M 286.005905 94.709575  L 300.005905 94.709575  L 314.005905 94.709575  "
             style="fill: none; stroke-dasharray: 19.2,4.8,3,4.8; stroke-dashoffset: 0; stroke: #ff7f0e; stroke-width: 3"
             id="path100" />
        </g>
        <g
           id="text_22">
          <!-- $\phi^s_{14}(S)$ -->
          <g
             transform="translate(325.205905 99.609575) scale(0.14 -0.14)"
             id="g107">
            <use
               xlink:href="#CMMI12-1e"
               transform="scale(0.996264)"
               id="use101" />
            <use
               xlink:href="#CMMI12-73"
               transform="translate(57.73418 36.153639) scale(0.697382)"
               id="use102" />
            <use
               xlink:href="#CMR17-31"
               transform="translate(57.73418 -24.740171) scale(0.697382)"
               id="use103" />
            <use
               xlink:href="#CMR17-34"
               transform="translate(89.717362 -24.740171) scale(0.697382)"
               id="use104" />
            <use
               xlink:href="#CMR17-28"
               transform="translate(122.198676 0) scale(0.996264)"
               id="use105" />
            <use
               xlink:href="#CMMI12-53"
               transform="translate(157.479444 0) scale(0.996264)"
               id="use106" />
            <use
               xlink:href="#CMR17-29"
               transform="translate(223.273883 0) scale(0.996264)"
               id="use107" />
          </g>
        </g>
      </g>
    </g>
  </g>
  <defs
     id="defs107">
    <clipPath
       id="pab43c07959">
      <rect
         x="49.404673"
         y="10.8"
         width="328.33829"
         height="176.901556"
         id="rect107" />
    </clipPath>
  </defs>
</svg>
