<?xml version="1.0" encoding="utf-8" standalone="no"?>
<!DOCTYPE svg PUBLIC "-//W3C//DTD SVG 1.1//EN"
  "http://www.w3.org/Graphics/SVG/1.1/DTD/svg11.dtd">
<svg xmlns:xlink="http://www.w3.org/1999/xlink" width="388.542964pt" height="240.132758pt" viewBox="0 0 388.542964 240.132758" xmlns="http://www.w3.org/2000/svg" version="1.1">
 <metadata>
  <rdf:RDF xmlns:dc="http://purl.org/dc/elements/1.1/" xmlns:cc="http://creativecommons.org/ns#" xmlns:rdf="http://www.w3.org/1999/02/22-rdf-syntax-ns#">
   <cc:Work>
    <dc:type rdf:resource="http://purl.org/dc/dcmitype/StillImage"/>
    <dc:date>2024-12-09T18:42:40.201653</dc:date>
    <dc:format>image/svg+xml</dc:format>
    <dc:creator>
     <cc:Agent>
      <dc:title>Matplotlib v3.7.5, https://matplotlib.org/</dc:title>
     </cc:Agent>
    </dc:creator>
   </cc:Work>
  </rdf:RDF>
 </metadata>
 <defs>
  <style type="text/css">*{stroke-linejoin: round; stroke-linecap: butt}</style>
 </defs>
 <g id="figure_1">
  <g id="patch_1">
   <path d="M 0 240.132758 
L 388.542964 240.132758 
L 388.542964 0 
L 0 0 
z
" style="fill: #ffffff"/>
  </g>
  <g id="axes_1">
   <g id="patch_2">
    <path d="M 49.404673 187.701556 
L 377.742964 187.701556 
L 377.742964 10.8 
L 49.404673 10.8 
z
" style="fill: #ffffff"/>
   </g>
   <g id="matplotlib.axis_1">
    <g id="xtick_1">
     <g id="line2d_1">
      <defs>
       <path id="ma68ecbb207" d="M 0 0 
L 0 3.5 
" style="stroke: #000000; stroke-width: 0.8"/>
      </defs>
      <g>
       <use xlink:href="#ma68ecbb207" x="64.300932" y="187.701556" style="stroke: #000000; stroke-width: 0.8"/>
      </g>
     </g>
     <g id="text_1">
      <!-- $\mathdefault{0.0}$ -->
      <g transform="translate(55.575641 204.387432) scale(0.14 -0.14)">
       <defs>
        <path id="CMR17-30" d="M 2688 2025 
C 2688 2416 2682 3080 2413 3591 
C 2176 4039 1798 4198 1466 4198 
C 1158 4198 768 4058 525 3597 
C 269 3118 243 2524 243 2025 
C 243 1661 250 1106 448 619 
C 723 -39 1216 -128 1466 -128 
C 1760 -128 2208 -7 2470 600 
C 2662 1042 2688 1559 2688 2025 
z
M 1466 -26 
C 1056 -26 813 325 723 812 
C 653 1188 653 1738 653 2096 
C 653 2588 653 2997 736 3387 
C 858 3929 1216 4096 1466 4096 
C 1728 4096 2067 3923 2189 3400 
C 2272 3036 2278 2607 2278 2096 
C 2278 1680 2278 1169 2202 792 
C 2067 95 1690 -26 1466 -26 
z
" transform="scale(0.015625)"/>
        <path id="CMMI12-3a" d="M 1178 307 
C 1178 492 1024 619 870 619 
C 685 619 557 466 557 313 
C 557 128 710 0 864 0 
C 1050 0 1178 153 1178 307 
z
" transform="scale(0.015625)"/>
       </defs>
       <use xlink:href="#CMR17-30" transform="scale(0.996264)"/>
       <use xlink:href="#CMMI12-3a" transform="translate(45.690477 0) scale(0.996264)"/>
       <use xlink:href="#CMR17-30" transform="translate(72.787654 0) scale(0.996264)"/>
      </g>
     </g>
    </g>
    <g id="xtick_2">
     <g id="line2d_2">
      <g>
       <use xlink:href="#ma68ecbb207" x="123.965774" y="187.701556" style="stroke: #000000; stroke-width: 0.8"/>
      </g>
     </g>
     <g id="text_2">
      <!-- $\mathdefault{0.2}$ -->
      <g transform="translate(115.240483 204.387432) scale(0.14 -0.14)">
       <defs>
        <path id="CMR17-32" d="M 2669 989 
L 2554 989 
C 2490 536 2438 459 2413 420 
C 2381 369 1920 369 1830 369 
L 602 369 
C 832 619 1280 1072 1824 1597 
C 2214 1967 2669 2402 2669 3035 
C 2669 3790 2067 4224 1395 4224 
C 691 4224 262 3604 262 3030 
C 262 2780 448 2748 525 2748 
C 589 2748 781 2787 781 3010 
C 781 3207 614 3264 525 3264 
C 486 3264 448 3258 422 3245 
C 544 3790 915 4058 1306 4058 
C 1862 4058 2227 3617 2227 3035 
C 2227 2479 1901 2000 1536 1584 
L 262 146 
L 262 0 
L 2515 0 
L 2669 989 
z
" transform="scale(0.015625)"/>
       </defs>
       <use xlink:href="#CMR17-30" transform="scale(0.996264)"/>
       <use xlink:href="#CMMI12-3a" transform="translate(45.690477 0) scale(0.996264)"/>
       <use xlink:href="#CMR17-32" transform="translate(72.787654 0) scale(0.996264)"/>
      </g>
     </g>
    </g>
    <g id="xtick_3">
     <g id="line2d_3">
      <g>
       <use xlink:href="#ma68ecbb207" x="183.630615" y="187.701556" style="stroke: #000000; stroke-width: 0.8"/>
      </g>
     </g>
     <g id="text_3">
      <!-- $\mathdefault{0.4}$ -->
      <g transform="translate(174.905324 204.387432) scale(0.14 -0.14)">
       <defs>
        <path id="CMR17-34" d="M 2150 4122 
C 2150 4256 2144 4256 2029 4256 
L 128 1254 
L 128 1088 
L 1779 1088 
L 1779 457 
C 1779 224 1766 160 1318 160 
L 1197 160 
L 1197 0 
C 1402 0 1747 0 1965 0 
C 2182 0 2528 0 2733 0 
L 2733 160 
L 2611 160 
C 2163 160 2150 224 2150 457 
L 2150 1088 
L 2803 1088 
L 2803 1254 
L 2150 1254 
L 2150 4122 
z
M 1798 3703 
L 1798 1254 
L 256 1254 
L 1798 3703 
z
" transform="scale(0.015625)"/>
       </defs>
       <use xlink:href="#CMR17-30" transform="scale(0.996264)"/>
       <use xlink:href="#CMMI12-3a" transform="translate(45.690477 0) scale(0.996264)"/>
       <use xlink:href="#CMR17-34" transform="translate(72.787654 0) scale(0.996264)"/>
      </g>
     </g>
    </g>
    <g id="xtick_4">
     <g id="line2d_4">
      <g>
       <use xlink:href="#ma68ecbb207" x="243.295457" y="187.701556" style="stroke: #000000; stroke-width: 0.8"/>
      </g>
     </g>
     <g id="text_4">
      <!-- $\mathdefault{0.6}$ -->
      <g transform="translate(234.570166 204.387432) scale(0.14 -0.14)">
       <defs>
        <path id="CMR17-36" d="M 678 2176 
C 678 3690 1395 4032 1811 4032 
C 1946 4032 2272 4009 2400 3776 
C 2298 3776 2106 3776 2106 3553 
C 2106 3381 2246 3323 2336 3323 
C 2394 3323 2566 3348 2566 3560 
C 2566 3954 2246 4179 1805 4179 
C 1043 4179 243 3390 243 1984 
C 243 253 966 -128 1478 -128 
C 2099 -128 2688 427 2688 1283 
C 2688 2081 2170 2662 1517 2662 
C 1126 2662 838 2407 678 1960 
L 678 2176 
z
M 1478 25 
C 691 25 691 1200 691 1436 
C 691 1896 909 2560 1504 2560 
C 1613 2560 1926 2560 2138 2120 
C 2253 1870 2253 1609 2253 1289 
C 2253 944 2253 690 2118 434 
C 1978 171 1773 25 1478 25 
z
" transform="scale(0.015625)"/>
       </defs>
       <use xlink:href="#CMR17-30" transform="scale(0.996264)"/>
       <use xlink:href="#CMMI12-3a" transform="translate(45.690477 0) scale(0.996264)"/>
       <use xlink:href="#CMR17-36" transform="translate(72.787654 0) scale(0.996264)"/>
      </g>
     </g>
    </g>
    <g id="xtick_5">
     <g id="line2d_5">
      <g>
       <use xlink:href="#ma68ecbb207" x="302.960298" y="187.701556" style="stroke: #000000; stroke-width: 0.8"/>
      </g>
     </g>
     <g id="text_5">
      <!-- $\mathdefault{0.8}$ -->
      <g transform="translate(294.235007 204.387432) scale(0.14 -0.14)">
       <defs>
        <path id="CMR17-38" d="M 1741 2264 
C 2144 2467 2554 2773 2554 3263 
C 2554 3841 1990 4179 1472 4179 
C 890 4179 378 3759 378 3180 
C 378 3021 416 2747 666 2505 
C 730 2442 998 2251 1171 2130 
C 883 1983 211 1634 211 934 
C 211 279 838 -128 1459 -128 
C 2144 -128 2720 362 2720 1010 
C 2720 1590 2330 1857 2074 2029 
L 1741 2264 
z
M 902 2822 
C 851 2854 595 3051 595 3351 
C 595 3739 998 4032 1459 4032 
C 1965 4032 2336 3676 2336 3262 
C 2336 2669 1670 2331 1638 2331 
C 1632 2331 1626 2331 1574 2370 
L 902 2822 
z
M 2080 1519 
C 2176 1449 2483 1240 2483 851 
C 2483 381 2010 25 1472 25 
C 890 25 448 438 448 940 
C 448 1443 838 1862 1280 2060 
L 2080 1519 
z
" transform="scale(0.015625)"/>
       </defs>
       <use xlink:href="#CMR17-30" transform="scale(0.996264)"/>
       <use xlink:href="#CMMI12-3a" transform="translate(45.690477 0) scale(0.996264)"/>
       <use xlink:href="#CMR17-38" transform="translate(72.787654 0) scale(0.996264)"/>
      </g>
     </g>
    </g>
    <g id="xtick_6">
     <g id="line2d_6">
      <g>
       <use xlink:href="#ma68ecbb207" x="362.62514" y="187.701556" style="stroke: #000000; stroke-width: 0.8"/>
      </g>
     </g>
     <g id="text_6">
      <!-- $\mathdefault{1.0}$ -->
      <g transform="translate(353.899849 204.387432) scale(0.14 -0.14)">
       <defs>
        <path id="CMR17-31" d="M 1702 4058 
C 1702 4192 1696 4192 1606 4192 
C 1357 3916 979 3827 621 3827 
C 602 3827 570 3827 563 3808 
C 557 3795 557 3782 557 3648 
C 755 3648 1088 3686 1344 3839 
L 1344 461 
C 1344 236 1331 160 781 160 
L 589 160 
L 589 0 
C 896 0 1216 0 1523 0 
C 1830 0 2150 0 2458 0 
L 2458 160 
L 2266 160 
C 1715 160 1702 230 1702 458 
L 1702 4058 
z
" transform="scale(0.015625)"/>
       </defs>
       <use xlink:href="#CMR17-31" transform="scale(0.996264)"/>
       <use xlink:href="#CMMI12-3a" transform="translate(45.690477 0) scale(0.996264)"/>
       <use xlink:href="#CMR17-30" transform="translate(72.787654 0) scale(0.996264)"/>
      </g>
     </g>
    </g>
    <g id="text_7">
     <!-- $\mathbf{P}$ -->
     <g style="fill: #1f77b4" transform="translate(208.214286 220.785337) scale(0.14 -0.14)">
      <defs>
       <path id="CMBX12-50" d="M 1766 1934 
L 2854 1934 
C 3923 1934 4518 2474 4518 3128 
C 4518 3812 3910 4352 2854 4352 
L 243 4352 
L 243 4078 
L 922 4078 
L 922 267 
L 243 267 
L 243 0 
C 429 0 1114 0 1344 0 
C 1574 0 2259 0 2445 0 
L 2445 267 
L 1766 267 
L 1766 1934 
z
M 2624 4078 
C 3616 4078 3616 3558 3616 3127 
C 3616 2709 3616 2176 2624 2176 
L 1734 2176 
L 1734 4078 
L 2624 4078 
z
" transform="scale(0.015625)"/>
      </defs>
      <use xlink:href="#CMBX12-50" transform="scale(0.996264)"/>
     </g>
    </g>
   </g>
   <g id="matplotlib.axis_2">
    <g id="ytick_1">
     <g id="line2d_7">
      <defs>
       <path id="m912e03c092" d="M 0 0 
L -3.5 0 
" style="stroke: #000000; stroke-width: 0.8"/>
      </defs>
      <g>
       <use xlink:href="#m912e03c092" x="49.404673" y="155.808272" style="stroke: #000000; stroke-width: 0.8"/>
      </g>
     </g>
     <g id="text_8">
      <!-- $\mathdefault{5}$ -->
      <g transform="translate(35.576185 160.65121) scale(0.14 -0.14)">
       <defs>
        <path id="CMR17-35" d="M 730 3692 
C 794 3666 1056 3584 1325 3584 
C 1920 3584 2246 3911 2432 4100 
C 2432 4157 2432 4192 2394 4192 
C 2387 4192 2374 4192 2323 4163 
C 2099 4058 1837 3973 1517 3973 
C 1325 3973 1037 3999 723 4139 
C 653 4171 640 4171 634 4171 
C 602 4171 595 4164 595 4037 
L 595 2203 
C 595 2089 595 2057 659 2057 
C 691 2057 704 2070 736 2114 
C 941 2401 1222 2522 1542 2522 
C 1766 2522 2246 2382 2246 1289 
C 2246 1085 2246 715 2054 421 
C 1894 159 1645 25 1370 25 
C 947 25 518 320 403 814 
C 429 807 480 795 506 795 
C 589 795 749 840 749 1038 
C 749 1210 627 1280 506 1280 
C 358 1280 262 1190 262 1011 
C 262 454 704 -128 1382 -128 
C 2042 -128 2669 440 2669 1264 
C 2669 2030 2170 2624 1549 2624 
C 1222 2624 947 2503 730 2274 
L 730 3692 
z
" transform="scale(0.015625)"/>
       </defs>
       <use xlink:href="#CMR17-35" transform="scale(0.996264)"/>
      </g>
     </g>
    </g>
    <g id="ytick_2">
     <g id="line2d_8">
      <g>
       <use xlink:href="#m912e03c092" x="49.404673" y="117.11792" style="stroke: #000000; stroke-width: 0.8"/>
      </g>
     </g>
     <g id="text_9">
      <!-- $\mathdefault{10}$ -->
      <g transform="translate(28.747696 121.960858) scale(0.14 -0.14)">
       <use xlink:href="#CMR17-31" transform="scale(0.996264)"/>
       <use xlink:href="#CMR17-30" transform="translate(45.690477 0) scale(0.996264)"/>
      </g>
     </g>
    </g>
    <g id="ytick_3">
     <g id="line2d_9">
      <g>
       <use xlink:href="#m912e03c092" x="49.404673" y="78.427567" style="stroke: #000000; stroke-width: 0.8"/>
      </g>
     </g>
     <g id="text_10">
      <!-- $\mathdefault{15}$ -->
      <g transform="translate(28.747696 83.270505) scale(0.14 -0.14)">
       <use xlink:href="#CMR17-31" transform="scale(0.996264)"/>
       <use xlink:href="#CMR17-35" transform="translate(45.690477 0) scale(0.996264)"/>
      </g>
     </g>
    </g>
    <g id="ytick_4">
     <g id="line2d_10">
      <g>
       <use xlink:href="#m912e03c092" x="49.404673" y="39.737215" style="stroke: #000000; stroke-width: 0.8"/>
      </g>
     </g>
     <g id="text_11">
      <!-- $\mathdefault{20}$ -->
      <g transform="translate(28.747696 44.580153) scale(0.14 -0.14)">
       <use xlink:href="#CMR17-32" transform="scale(0.996264)"/>
       <use xlink:href="#CMR17-30" transform="translate(45.690477 0) scale(0.996264)"/>
      </g>
     </g>
    </g>
    <g id="text_12">
     <!-- $\phi(P, S)$ -->
     <g transform="translate(21.260772 120.859002) rotate(-90) scale(0.14 -0.14)">
      <defs>
       <path id="CMMI12-1e" d="M 2752 4390 
C 2752 4448 2707 4448 2688 4448 
C 2630 4448 2624 4435 2598 4326 
L 2253 2939 
C 2234 2856 2227 2849 2221 2843 
C 2214 2830 2170 2824 2157 2824 
C 1107 2734 301 1864 301 1057 
C 301 361 832 -64 1498 -64 
C 1446 -261 1402 -463 1350 -659 
C 1261 -995 1210 -1204 1210 -1229 
C 1210 -1241 1210 -1280 1274 -1280 
C 1293 -1280 1318 -1280 1331 -1254 
C 1344 -1241 1382 -1089 1408 -1008 
L 1645 -64 
C 2739 -64 3571 854 3571 1680 
C 3571 2343 3085 2816 2374 2816 
L 2752 4390 
z
M 2336 2701 
C 2758 2701 3181 2463 3181 1828 
C 3181 1097 2675 128 1677 50 
L 2336 2701 
z
M 1530 50 
C 1216 50 691 220 691 938 
C 691 1761 1274 2676 2195 2676 
L 1530 50 
z
" transform="scale(0.015625)"/>
       <path id="CMR17-28" d="M 1958 -1561 
C 1958 -1555 1958 -1542 1939 -1523 
C 1645 -1224 858 -407 858 1581 
C 858 3569 1632 4379 1946 4697 
C 1946 4704 1958 4717 1958 4736 
C 1958 4755 1939 4768 1914 4768 
C 1843 4768 1299 4296 986 3594 
C 666 2887 576 2199 576 1588 
C 576 1128 621 351 1005 -471 
C 1312 -1135 1837 -1600 1914 -1600 
C 1946 -1600 1958 -1587 1958 -1561 
z
" transform="scale(0.015625)"/>
       <path id="CMMI12-50" d="M 1894 2023 
L 2970 2023 
C 3853 2023 4736 2673 4736 3401 
C 4736 3898 4314 4352 3507 4352 
L 1530 4352 
C 1408 4352 1350 4352 1350 4231 
C 1350 4167 1408 4167 1504 4167 
C 1894 4167 1894 4116 1894 4046 
C 1894 4034 1894 3995 1869 3899 
L 1005 472 
C 947 249 934 185 486 185 
C 365 185 301 185 301 70 
C 301 0 358 0 397 0 
C 518 0 646 0 768 0 
L 1517 0 
C 1638 0 1773 0 1894 0 
C 1946 0 2016 0 2016 121 
C 2016 185 1958 185 1862 185 
C 1478 185 1472 230 1472 293 
C 1472 325 1478 369 1485 401 
L 1894 2023 
z
M 2355 3930 
C 2413 4167 2438 4167 2688 4167 
L 3322 4167 
C 3802 4167 4198 4013 4198 3535 
C 4198 3369 4115 2827 3821 2534 
C 3712 2419 3405 2176 2822 2176 
L 1920 2176 
L 2355 3930 
z
" transform="scale(0.015625)"/>
       <path id="CMMI12-3b" d="M 1248 -31 
C 1248 343 1126 619 864 619 
C 659 619 557 453 557 313 
C 557 172 653 0 870 0 
C 954 0 1024 26 1082 83 
C 1094 96 1101 96 1107 96 
C 1120 96 1120 5 1120 -27 
C 1120 -240 1082 -659 710 -1080 
C 640 -1157 640 -1170 640 -1183 
C 640 -1216 672 -1248 704 -1248 
C 755 -1248 1248 -771 1248 -31 
z
" transform="scale(0.015625)"/>
       <path id="CMMI12-53" d="M 4064 4423 
C 4064 4480 4019 4480 4006 4480 
C 3981 4480 3974 4474 3898 4378 
C 3859 4333 3597 4001 3590 3995 
C 3379 4410 2957 4480 2688 4480 
C 1875 4480 1139 3743 1139 3025 
C 1139 2549 1427 2269 1741 2161 
C 1811 2135 2189 2033 2381 1989 
C 2707 1900 2790 1875 2925 1735 
C 2950 1703 3078 1557 3078 1258 
C 3078 667 2528 57 1888 57 
C 1363 57 781 280 781 991 
C 781 1112 806 1265 826 1328 
C 826 1348 832 1378 832 1391 
C 832 1417 819 1449 768 1449 
C 710 1449 704 1436 678 1328 
L 352 24 
C 352 18 326 -64 326 -71 
C 326 -128 378 -128 390 -128 
C 416 -128 422 -122 499 -26 
L 794 356 
C 947 126 1280 -128 1875 -128 
C 2701 -128 3456 666 3456 1460 
C 3456 1728 3392 1963 3149 2197 
C 3014 2331 2899 2363 2310 2516 
C 1882 2630 1824 2649 1709 2751 
C 1600 2858 1517 3011 1517 3227 
C 1517 3761 2061 4308 2669 4308 
C 3296 4308 3590 3926 3590 3323 
C 3590 3158 3558 2986 3558 2961 
C 3558 2903 3610 2903 3629 2903 
C 3686 2903 3693 2922 3718 3024 
L 4064 4423 
z
" transform="scale(0.015625)"/>
       <path id="CMR17-29" d="M 1683 1581 
C 1683 2040 1638 2817 1254 3639 
C 947 4303 422 4768 346 4768 
C 326 4768 301 4761 301 4729 
C 301 4717 307 4710 314 4697 
C 621 4378 1402 3568 1402 1584 
C 1402 -407 627 -1217 314 -1537 
C 307 -1549 301 -1556 301 -1568 
C 301 -1600 326 -1600 346 -1600 
C 416 -1600 960 -1128 1274 -426 
C 1594 281 1683 969 1683 1581 
z
" transform="scale(0.015625)"/>
      </defs>
      <use xlink:href="#CMMI12-1e" transform="scale(0.996264)"/>
      <use xlink:href="#CMR17-28" transform="translate(57.73418 0) scale(0.996264)"/>
      <use xlink:href="#CMMI12-50" transform="translate(93.014948 0) scale(0.996264)"/>
      <use xlink:href="#CMMI12-3b" transform="translate(158.601898 0) scale(0.996264)"/>
      <use xlink:href="#CMMI12-53" transform="translate(202.30348 0) scale(0.996264)"/>
      <use xlink:href="#CMR17-29" transform="translate(268.09792 0) scale(0.996264)"/>
     </g>
    </g>
   </g>
   <g id="line2d_11">
    <path d="M 84.372485 18.84098 
L 91.67065 19.209812 
L 97.339184 19.744966 
L 100.641121 20.222957 
L 104.266517 20.955943 
L 108.212181 22.099338 
L 110.300997 22.897855 
L 112.463197 23.901112 
L 114.694541 25.160012 
L 116.990044 26.733564 
L 119.343316 28.685513 
L 121.746887 31.07696 
L 124.19308 33.952834 
L 126.672187 37.316751 
L 129.173938 41.101112 
L 136.698957 53.032138 
L 139.172258 56.684877 
L 141.60612 60.520291 
L 143.986744 64.949556 
L 152.716051 83.796491 
L 154.639566 88.395848 
L 156.437925 93.225316 
L 159.628319 102.837502 
L 162.23291 111.610665 
L 163.305873 115.738377 
L 164.223381 119.806632 
L 164.985843 123.8804 
L 165.594442 127.966019 
L 166.051845 131.999796 
L 166.361963 135.86775 
L 166.529563 139.462965 
L 166.56044 142.752654 
L 166.460828 145.805137 
L 166.238052 148.739856 
L 165.899635 151.645532 
L 165.453212 154.517787 
L 164.906867 157.262983 
L 164.26875 159.769353 
L 163.546857 161.982495 
L 162.749312 163.933426 
L 160.956918 167.407917 
L 158.952622 170.695764 
L 156.789608 173.644599 
L 155.664278 174.878113 
L 154.517051 175.924288 
L 153.353171 176.788428 
L 152.177422 177.487261 
L 150.994312 178.042074 
L 148.622526 178.801833 
L 146.267071 179.202563 
L 143.953119 179.325089 
L 141.701509 179.203429 
L 139.529444 178.83649 
L 137.450964 178.200158 
L 135.476834 177.260353 
L 133.615364 175.994429 
L 131.872118 174.419536 
L 130.251022 172.615692 
L 128.051463 169.725515 
L 126.129424 166.715734 
L 124.998942 164.578128 
L 123.521517 161.183948 
L 122.29369 157.710459 
L 121.299842 154.290875 
L 120.524026 150.989375 
L 119.801252 146.878451 
L 119.473983 144.044988 
L 119.299387 140.146327 
L 119.40075 136.671846 
L 119.645753 134.052871 
L 120.028651 132.619015 
L 121.69793 127.782503 
L 122.565036 126.381907 
L 123.217493 125.279365 
L 123.566562 124.498463 
L 123.931185 122.990051 
L 124.311434 123.427019 
L 125.120132 122.629344 
L 129.050228 118.124548 
L 133.549341 113.58366 
L 136.65706 111.101325 
L 140.221963 108.504931 
L 144.302437 105.836143 
L 148.956667 103.089147 
L 152.855369 101.008004 
L 155.657041 99.689351 
L 158.625522 98.506453 
L 161.760482 97.522892 
L 165.061379 96.771856 
L 168.524097 96.256487 
L 172.141353 95.966579 
L 175.903956 95.896643 
L 179.798115 96.051887 
L 183.808112 96.442423 
L 187.913605 97.074589 
L 192.093504 97.946326 
L 196.32104 99.047326 
L 200.571185 100.364606 
L 204.814777 101.88397 
L 209.023278 103.590723 
L 213.166885 105.46633 
L 217.218348 107.48662 
L 223.064571 110.714774 
L 228.563218 114.058419 
L 235.244175 118.444668 
L 243.672805 124.284698 
L 248.174745 127.583667 
L 251.802724 130.514903 
L 254.613199 133.117543 
L 256.688532 135.387696 
L 258.121935 137.327306 
L 259.009588 138.957474 
L 259.443688 140.31166 
L 259.522424 141.168442 
L 259.35839 142.127835 
L 258.94641 142.907707 
L 258.340772 143.536261 
L 257.379681 144.145018 
L 256.254698 144.592713 
L 254.760501 144.961091 
L 252.626506 145.235155 
L 249.869359 145.337023 
L 246.054443 145.223318 
L 241.504991 144.912013 
L 241.504991 144.912013 
" clip-path="url(#p89c88e3699)" style="fill: none; stroke: #1f77b4; stroke-width: 2; stroke-linecap: square"/>
   </g>
   <g id="line2d_12">
    <path d="M 362.818496 18.84098 
L 352.467418 19.127618 
L 344.127873 19.570099 
L 336.945299 20.222957 
L 331.667427 20.955943 
L 325.97754 22.099338 
L 322.974919 22.897855 
L 319.866356 23.901112 
L 316.652455 25.160012 
L 313.334265 26.733564 
L 309.913352 28.685513 
L 306.392667 31.07696 
L 302.774467 33.952834 
L 299.062987 37.316751 
L 295.26322 41.101112 
L 287.421095 49.190909 
L 283.391485 53.032138 
L 275.152103 60.520291 
L 270.958992 64.949556 
L 262.47074 74.80721 
L 245.347077 93.225316 
L 236.861599 102.837502 
L 232.671279 107.335029 
L 224.435276 115.738377 
L 216.441741 123.8804 
L 205.011876 135.86775 
L 201.370819 139.462965 
L 197.820759 142.752654 
L 178.518647 159.769353 
L 175.64015 161.982495 
L 170.167464 165.711122 
L 158.05286 173.644599 
L 155.880582 174.878113 
L 153.785884 175.924288 
L 151.765523 176.788428 
L 149.816963 177.487261 
L 146.124232 178.474059 
L 142.686569 179.040779 
L 139.48291 179.295534 
L 136.494199 179.294144 
L 133.701848 179.051675 
L 131.090052 178.554089 
L 128.64292 177.770136 
L 126.346763 176.668365 
L 124.188946 175.242188 
L 122.157417 173.538901 
L 119.324241 170.69979 
L 116.718908 167.740311 
L 114.312549 164.578128 
L 112.079587 161.183948 
L 109.332722 156.560515 
L 101.743606 143.076047 
L 100.204389 140.146327 
L 98.725168 137.687644 
L 97.299515 134.764279 
L 96.376168 133.505076 
L 94.589025 131.595424 
L 93.296918 129.629867 
L 92.043299 127.782503 
L 90.034009 125.279365 
L 89.643645 124.498463 
L 89.256999 122.990051 
L 88.874052 123.427019 
L 88.119023 122.629344 
L 87.012944 120.991464 
L 84.212616 116.209587 
L 79.214437 105.836143 
L 76.996728 100.336261 
L 75.956811 97.986833 
L 75.207318 96.771856 
L 74.484206 96.083944 
L 74.016933 95.904 
L 73.561686 95.945525 
L 73.118508 96.217176 
L 72.687541 96.728279 
L 72.064228 97.946326 
L 71.469029 99.679831 
L 70.719525 102.714861 
L 69.854411 107.48662 
L 68.922589 114.058419 
L 64.867857 144.592713 
L 64.627595 145.336624 
L 64.610859 145.326843 
L 64.535143 145.07628 
L 64.511607 144.912013 
L 64.511607 144.912013 
" clip-path="url(#p89c88e3699)" style="fill: none; stroke: #ff7f0e; stroke-width: 2; stroke-linecap: square"/>
   </g>
   <g id="line2d_13">
    <path d="M 85.720997 18.866056 
L 92.389539 19.211937 
L 96.643124 19.587662 
L 101.585083 20.27671 
L 105.273724 21.057 
L 107.235473 21.599592 
L 109.273283 22.281334 
L 111.384748 23.139021 
L 113.566282 24.218361 
L 115.813562 25.573373 
L 118.121179 27.266047 
L 120.482808 29.361292 
L 122.890958 31.917629 
L 125.337009 34.969492 
L 127.812191 38.501457 
L 132.807252 46.507643 
L 135.303869 50.522986 
L 140.234855 57.972854 
L 142.642933 62.003561 
L 144.995302 66.677725 
L 153.592502 85.497799 
L 155.480204 90.224801 
L 157.242805 95.130618 
L 160.360544 104.67196 
L 162.896285 113.325418 
L 163.935889 117.435272 
L 164.821391 121.515784 
L 165.552646 125.611646 
L 166.131488 129.702652 
L 166.56044 133.697569 
L 166.843353 137.474791 
L 166.985009 140.950504 
L 166.991179 144.136277 
L 166.868345 147.133549 
L 166.623289 150.063704 
L 166.263747 152.978185 
L 165.797587 155.826038 
L 165.232695 158.493051 
L 164.577206 160.882897 
L 163.839327 162.979261 
L 163.027112 164.845093 
L 161.211202 168.241989 
L 159.189036 171.415637 
L 158.118749 172.842259 
L 157.017567 174.102844 
L 155.891642 175.175795 
L 154.746637 176.060631 
L 153.58811 176.771001 
L 152.42086 177.327227 
L 150.078795 178.059868 
L 147.754495 178.396162 
L 145.47615 178.417188 
L 143.268131 178.150383 
L 141.150691 177.581076 
L 139.140065 176.665104 
L 137.249788 175.346546 
L 135.48997 173.587787 
L 133.868506 171.416227 
L 132.390804 168.953129 
L 131.060774 166.355079 
L 129.880376 163.679882 
L 128.850577 160.878842 
L 127.971304 157.923077 
L 127.241769 154.854068 
L 126.425246 150.173808 
L 125.937499 145.504389 
L 125.773412 140.874786 
L 125.928858 136.334336 
L 126.208739 133.433955 
L 126.629271 130.669262 
L 127.524503 126.406429 
L 128.298595 123.385273 
L 129.216272 120.831651 
L 132.148069 114.580179 
L 133.58169 111.916549 
L 134.355594 110.76649 
L 135.167827 109.792332 
L 136.909504 108.280119 
L 138.80892 106.794621 
L 139.818465 105.752754 
L 140.868534 103.765612 
L 141.959181 103.558356 
L 143.090734 103.007624 
L 145.47719 101.432751 
L 148.029761 99.662149 
L 149.368238 99.016781 
L 150.748447 98.638363 
L 153.633657 98.037531 
L 159.896295 95.933755 
L 163.267305 95.34228 
L 166.790711 95.015223 
L 170.459089 94.889143 
L 174.262536 94.942711 
L 178.187929 95.158757 
L 182.22041 95.541588 
L 186.343302 96.128325 
L 190.535844 96.962242 
L 194.776502 98.05308 
L 199.040561 99.363564 
L 205.421304 101.623426 
L 211.70056 104.153322 
L 217.781169 106.938744 
L 223.569121 109.947709 
L 227.220305 112.048637 
L 230.679039 114.215449 
L 233.926263 116.441476 
L 238.363354 119.807348 
L 242.248151 123.024447 
L 245.563229 126.03736 
L 248.310347 128.930104 
L 250.511093 131.706487 
L 252.201457 134.267436 
L 253.428594 136.511764 
L 254.246473 138.395078 
L 254.712188 139.927463 
L 254.881948 141.149532 
L 254.808724 142.111725 
L 254.54033 142.862747 
L 254.119086 143.444868 
L 253.38094 144.01706 
L 252.502978 144.413551 
L 251.288181 144.732556 
L 249.491413 144.959907 
L 246.930182 145.032194 
L 243.130843 144.887587 
L 234.881023 144.279106 
L 230.330646 143.953352 
L 230.330646 143.953352 
" clip-path="url(#p89c88e3699)" style="fill: none; stroke: #1f77b4; stroke-width: 2; stroke-linecap: square"/>
   </g>
   <g id="line2d_14">
    <path d="M 362.282579 18.866056 
L 351.236777 19.211937 
L 344.639304 19.587662 
L 339.7788 19.997363 
L 334.522764 20.623743 
L 328.854019 21.599592 
L 325.861818 22.281334 
L 322.763799 23.139021 
L 319.560318 24.218361 
L 316.251944 25.573373 
L 312.84049 27.266047 
L 309.328056 29.361292 
L 305.717609 31.917629 
L 302.01333 34.969492 
L 298.218454 38.501457 
L 286.349244 50.522986 
L 273.892692 62.003561 
L 269.64661 66.677725 
L 265.368522 71.69817 
L 261.067744 76.520612 
L 252.433203 85.497799 
L 248.118929 90.224801 
L 239.54353 99.999855 
L 235.299635 104.67196 
L 226.940779 113.325418 
L 214.844624 125.611646 
L 203.422209 137.474791 
L 199.786531 140.950504 
L 192.792486 147.133549 
L 186.17925 152.978185 
L 179.955828 158.493051 
L 176.989624 160.882897 
L 174.119626 162.979261 
L 168.663521 166.575064 
L 158.830961 172.842259 
L 156.585245 174.102844 
L 154.419146 175.175795 
L 152.330068 176.060631 
L 150.315441 176.771001 
L 146.497209 177.750473 
L 142.942978 178.271105 
L 139.631777 178.443249 
L 136.543 178.319813 
L 133.658186 177.905813 
L 130.959157 177.169881 
L 128.430347 176.059405 
L 127.224849 175.346546 
L 124.923038 173.587787 
L 122.756023 171.416227 
L 120.711403 168.953129 
L 117.850154 165.028979 
L 116.064886 162.298814 
L 114.36669 159.418922 
L 111.964577 154.854068 
L 108.994038 148.613524 
L 105.58314 140.874786 
L 98.91411 124.874136 
L 97.791283 122.037323 
L 95.073906 115.958747 
L 92.979576 110.76649 
L 91.955483 108.98262 
L 90.44536 106.794621 
L 89.948638 105.752754 
L 89.455001 103.765612 
L 88.964424 103.558356 
L 88.476896 103.007624 
L 87.510764 101.432751 
L 86.556048 99.662149 
L 86.083073 99.016781 
L 85.145463 98.388652 
L 84.68091 98.037531 
L 82.401579 95.597252 
L 81.511027 95.151606 
L 80.633363 94.928535 
L 79.769451 94.8947 
L 78.920182 95.03092 
L 78.086798 95.327646 
L 77.270517 95.80642 
L 76.47261 96.512655 
L 75.694646 97.476969 
L 74.568152 99.363564 
L 73.495246 101.623426 
L 72.156876 105.053832 
L 70.934099 108.923797 
L 69.836726 113.12397 
L 68.649624 118.692246 
L 67.177126 127.011763 
L 66.280994 133.445046 
L 64.779159 144.681416 
L 64.62393 145.032194 
L 64.590666 144.991259 
L 64.507833 144.518898 
L 64.468366 143.953352 
L 64.468366 143.953352 
" clip-path="url(#p89c88e3699)" style="fill: none; stroke: #ff7f0e; stroke-width: 2; stroke-linecap: square"/>
   </g>
   <g id="line2d_15">
    <path d="M 87.162324 18.886158 
L 92.9685 19.191924 
L 97.31276 19.568269 
L 100.603149 19.982545 
L 104.219276 20.621721 
L 108.158974 21.626262 
L 110.246665 22.33274 
L 112.409132 23.225539 
L 114.642436 24.35354 
L 116.941501 25.774718 
L 119.300591 27.55515 
L 121.712355 29.762358 
L 124.168839 32.455115 
L 126.660736 35.661551 
L 129.177606 39.348664 
L 139.266767 55.340049 
L 141.730591 59.12137 
L 144.144226 63.400091 
L 146.494132 68.304455 
L 150.950374 78.108518 
L 153.031584 82.593026 
L 155.000024 87.188694 
L 156.845388 92.034736 
L 160.131998 101.785636 
L 162.836361 110.668453 
L 163.95993 114.807242 
L 164.927377 118.8629 
L 165.739068 122.917709 
L 166.396103 126.999941 
L 166.900876 131.063089 
L 167.25704 134.998677 
L 167.4692 138.684418 
L 167.543011 142.061105 
L 167.484919 145.173893 
L 167.301805 148.141975 
L 166.590829 153.983537 
L 166.078819 156.792725 
L 165.473599 159.379474 
L 164.783001 161.6705 
L 164.015453 163.679004 
L 162.280796 167.177786 
L 160.331098 170.38624 
L 159.292684 171.862887 
L 158.222148 173.191862 
L 157.124834 174.341314 
L 156.006839 175.299512 
L 154.873757 176.072883 
L 153.730895 176.678219 
L 152.583134 177.13606 
L 150.291151 177.685503 
L 148.031361 177.840083 
L 145.833265 177.657741 
L 143.721737 177.140538 
L 141.718579 176.245247 
L 140.763241 175.632902 
L 139.841625 174.897 
L 138.955386 174.027646 
L 138.10643 173.017643 
L 137.295736 171.864936 
L 135.794772 169.162795 
L 134.46127 166.073017 
L 133.301324 162.805689 
L 132.319621 159.447754 
L 131.519022 155.95952 
L 130.901256 152.340875 
L 130.466979 148.66368 
L 130.216362 144.999126 
L 130.148899 141.376521 
L 130.263963 137.784557 
L 130.560829 134.189626 
L 131.03897 130.561977 
L 131.697743 126.933229 
L 132.536968 123.475127 
L 133.556525 120.453151 
L 135.424348 116.315122 
L 136.895692 113.69135 
L 142.400313 105.963287 
L 143.477028 104.883732 
L 144.598801 104.061003 
L 146.978385 102.713547 
L 148.235813 101.793592 
L 149.5379 100.43207 
L 150.884253 99.679809 
L 152.274874 99.381998 
L 155.186525 98.370823 
L 158.26822 97.006276 
L 159.871277 96.442659 
L 161.514653 96.134731 
L 168.471081 95.738955 
L 172.161562 95.72151 
L 177.929839 95.991921 
L 183.932103 96.564991 
L 188.035692 97.180634 
L 192.198068 98.061448 
L 196.398843 99.227594 
L 202.721316 101.362985 
L 211.060692 104.49544 
L 217.133424 107.005205 
L 222.947817 109.723901 
L 226.636111 111.654271 
L 230.142055 113.681026 
L 233.44177 115.822704 
L 236.51237 118.076552 
L 239.332908 120.379201 
L 243.060428 123.767167 
L 245.190955 125.993622 
L 247.029794 128.262664 
L 248.575967 130.588344 
L 249.832853 132.912202 
L 250.809592 135.136546 
L 251.520461 137.167228 
L 251.984309 138.942907 
L 252.224004 140.441331 
L 252.265577 141.670296 
L 252.136821 142.656088 
L 251.865955 143.432367 
L 251.480381 144.034206 
L 250.742786 144.679475 
L 249.87921 145.095865 
L 248.627889 145.412383 
L 247.021081 145.575129 
L 244.520041 145.571705 
L 240.458104 145.302269 
L 224.354832 144.060441 
L 220.395708 143.824157 
L 220.395708 143.824157 
" clip-path="url(#p89c88e3699)" style="fill: none; stroke: #1f77b4; stroke-width: 2; stroke-linecap: square"/>
   </g>
   <g id="line2d_16">
    <path d="M 362.370135 18.886158 
L 352.669327 19.191924 
L 345.878391 19.568269 
L 340.884561 19.982545 
L 335.488229 20.621721 
L 329.672253 21.626262 
L 326.603093 22.33274 
L 323.425787 23.225539 
L 320.140724 24.35354 
L 316.749151 25.774718 
L 313.252026 27.55515 
L 309.652408 29.762358 
L 305.953143 32.455115 
L 302.158516 35.661551 
L 298.273594 39.348664 
L 286.131189 51.571597 
L 277.702861 59.12137 
L 273.412734 63.400091 
L 260.349015 78.108518 
L 251.576686 87.188694 
L 234.228246 106.351837 
L 225.796184 114.807242 
L 217.613863 122.917709 
L 202.19052 138.684418 
L 198.557002 142.061105 
L 178.804218 159.379474 
L 175.857742 161.6705 
L 170.254024 165.484502 
L 160.148766 171.862887 
L 157.839135 173.191862 
L 155.610285 174.341314 
L 153.459638 175.299512 
L 151.384429 176.072883 
L 149.381743 176.678219 
L 145.583079 177.466222 
L 142.041038 177.807126 
L 138.734998 177.789725 
L 135.644834 177.442797 
L 132.752436 176.744228 
L 131.375271 176.245247 
L 130.040858 175.632902 
L 128.747969 174.897 
L 127.494582 174.027646 
L 126.279064 173.017643 
L 125.099439 171.864936 
L 122.841899 169.162795 
L 120.7101 166.073017 
L 117.723074 161.139541 
L 115.857247 157.722193 
L 113.222463 152.340875 
L 109.970385 144.999126 
L 106.238598 135.989964 
L 102.782873 126.933229 
L 100.808256 121.899686 
L 97.638762 114.927839 
L 94.584048 108.711125 
L 93.387906 105.963287 
L 92.794699 104.883732 
L 91.618052 103.398463 
L 91.034361 102.713547 
L 90.45375 101.793592 
L 89.876254 100.43207 
L 89.301969 99.679809 
L 88.730769 99.381998 
L 87.598207 98.370823 
L 85.925454 96.442659 
L 85.375274 96.134731 
L 83.215787 95.738955 
L 82.163393 95.72151 
L 80.623222 95.991921 
L 79.134531 96.564991 
L 78.173492 97.180634 
L 77.239756 98.061448 
L 76.334877 99.227594 
L 75.035228 101.362985 
L 73.417711 104.49544 
L 71.940209 107.887074 
L 70.608667 111.654271 
L 69.425972 115.822704 
L 68.391768 120.379201 
L 67.113177 127.120191 
L 66.288402 132.912202 
L 64.677156 145.095865 
L 64.479372 145.59974 
L 64.450116 145.571705 
L 64.380011 145.185199 
L 64.329141 143.824157 
L 64.329141 143.824157 
" clip-path="url(#p89c88e3699)" style="fill: none; stroke: #ff7f0e; stroke-width: 2; stroke-linecap: square"/>
   </g>
   <g id="line2d_17">
    <path d="M 84.791142 18.857894 
L 91.103498 19.174656 
L 96.636625 19.672543 
L 99.852409 20.114359 
L 103.379047 20.788456 
L 107.215282 21.83509 
L 109.245949 22.563973 
L 111.34819 23.478438 
L 113.518325 24.625316 
L 115.751869 26.059246 
L 118.043025 27.841478 
L 120.385295 30.034193 
L 122.770822 32.68896 
L 125.191721 35.829791 
L 127.638123 39.423183 
L 137.46089 55.001783 
L 139.866048 58.659289 
L 142.225583 62.74217 
L 144.52668 67.446355 
L 152.898178 86.00111 
L 154.726455 90.706954 
L 156.429114 95.580486 
L 159.4293 105.081786 
L 161.850892 113.792938 
L 162.836619 117.968684 
L 163.670287 122.123457 
L 164.352946 126.286319 
L 164.885902 130.416968 
L 165.272143 134.414205 
L 165.515625 138.160721 
L 165.621283 141.592961 
L 165.594735 144.746341 
L 165.44241 147.734906 
L 165.171233 150.667544 
L 164.788682 153.573718 
L 164.3021 156.384777 
L 163.71948 158.985639 
L 163.048654 161.299066 
L 162.297368 163.332847 
L 160.584884 166.898852 
L 158.640654 170.278579 
L 156.521543 173.389871 
L 155.412119 174.716675 
L 154.277419 175.851595 
L 153.12283 176.794466 
L 151.953251 177.560625 
L 150.773617 178.171719 
L 148.40167 179.017985 
L 146.038881 179.48308 
L 143.711869 179.660576 
L 141.444006 179.593179 
L 139.253813 179.285986 
L 137.157476 178.718281 
L 135.166965 177.856341 
L 133.292114 176.672101 
L 131.540164 175.17108 
L 129.91569 173.41756 
L 128.421892 171.520988 
L 126.428313 168.543829 
L 125.263509 166.426663 
L 124.228319 164.16084 
L 123.320195 161.770556 
L 122.189713 158.064717 
L 121.327065 154.331175 
L 120.72076 150.631653 
L 120.35948 147.018398 
L 120.233614 143.55351 
L 120.334786 139.924058 
L 120.656943 136.141913 
L 121.195785 132.380583 
L 121.674205 130.106036 
L 122.247916 128.29233 
L 124.545834 122.416914 
L 125.507729 120.450451 
L 126.570703 118.789974 
L 128.359857 116.358581 
L 129.009611 115.288347 
L 129.686704 113.358523 
L 130.391647 113.221307 
L 131.887054 111.915708 
L 136.149135 107.490413 
L 138.076068 106.130331 
L 140.137874 104.785739 
L 143.495023 102.367621 
L 145.917033 101.024143 
L 148.491769 99.93183 
L 152.650179 98.502578 
L 157.172319 97.173328 
L 160.391537 96.378678 
L 163.772184 95.730247 
L 167.311229 95.277841 
L 171.001852 95.034669 
L 174.834292 94.992118 
L 178.796883 95.148787 
L 182.87308 95.520918 
L 187.041857 96.129897 
L 191.28144 96.986403 
L 195.566375 98.084509 
L 199.867197 99.407937 
L 204.154203 100.940016 
L 208.395137 102.665587 
L 212.5585 104.568778 
L 216.611661 106.628019 
L 220.525051 108.816786 
L 224.269872 111.104284 
L 229.516769 114.646514 
L 234.257568 118.190478 
L 238.444597 121.57736 
L 242.051363 124.748742 
L 245.074024 127.751494 
L 247.52901 130.598705 
L 249.449395 133.226238 
L 250.880842 135.553933 
L 251.876553 137.537078 
L 252.493963 139.176615 
L 252.791394 140.503422 
L 252.823632 141.560945 
L 252.64114 142.394644 
L 252.289298 143.045517 
L 251.806441 143.549182 
L 251.014168 144.041715 
L 249.868114 144.444239 
L 248.373543 144.714067 
L 246.322481 144.852501 
L 243.326404 144.820909 
L 237.934197 144.498173 
L 231.123026 144.01585 
L 231.123026 144.01585 
" clip-path="url(#p89c88e3699)" style="fill: none; stroke: #1f77b4; stroke-width: 2; stroke-linecap: square"/>
   </g>
   <g id="line2d_18">
    <path d="M 361.878975 18.857894 
L 351.24645 19.174656 
L 342.628607 19.672543 
L 337.776673 20.114359 
L 332.533209 20.788456 
L 326.881605 21.83509 
L 323.900269 22.563973 
L 320.814341 23.478438 
L 317.624356 24.625316 
L 314.33131 26.059246 
L 310.936856 27.841478 
L 307.443234 30.034193 
L 303.854107 32.68896 
L 300.172233 35.829791 
L 296.402446 39.423183 
L 284.621592 51.318492 
L 276.440231 58.659289 
L 272.274184 62.74217 
L 268.069106 67.446355 
L 263.8346 72.405645 
L 259.578418 77.123149 
L 251.039951 86.00111 
L 246.776337 90.706954 
L 234.115885 105.081786 
L 225.871133 113.792938 
L 217.854215 122.123457 
L 202.696724 138.160721 
L 199.117502 141.592961 
L 182.618778 156.384777 
L 179.60587 158.985639 
L 176.68877 161.299066 
L 171.138183 165.165897 
L 163.495593 170.278579 
L 158.834668 173.389871 
L 156.626978 174.716675 
L 154.497625 175.851595 
L 152.444296 176.794466 
L 150.463578 177.560625 
L 146.710453 178.65059 
L 143.217347 179.290996 
L 139.96318 179.604042 
L 136.928521 179.656362 
L 134.095118 179.47036 
L 131.445842 179.036666 
L 128.965201 178.326227 
L 126.638402 177.305334 
L 124.452526 175.958821 
L 122.395067 174.319424 
L 120.455234 172.48064 
L 117.74306 169.555397 
L 115.240642 166.426663 
L 112.920097 162.978305 
L 110.756408 159.307851 
L 108.078455 154.331175 
L 104.418167 147.018398 
L 101.62258 141.194732 
L 96.533208 129.160562 
L 94.64242 125.571656 
L 91.490937 118.789974 
L 90.194082 116.358581 
L 89.768309 115.288347 
L 89.345711 113.358523 
L 88.92611 113.221307 
L 88.095733 111.915708 
L 86.871343 109.268461 
L 85.670738 106.76187 
L 84.492671 104.785739 
L 82.576319 101.024143 
L 81.08473 98.964814 
L 78.918049 96.378678 
L 77.869127 95.477843 
L 77.183803 95.1305 
L 76.510528 94.988797 
L 75.849955 95.044889 
L 75.202971 95.306511 
L 74.570735 95.794775 
L 73.954145 96.527229 
L 73.060448 98.084509 
L 72.207465 100.148841 
L 71.398389 102.665587 
L 70.393207 106.628019 
L 69.263643 112.274785 
L 68.105103 119.342906 
L 66.773895 128.719867 
L 64.643641 144.852501 
L 64.596038 144.850907 
L 64.562254 144.779151 
L 64.47478 144.098926 
L 64.469184 144.01585 
L 64.469184 144.01585 
" clip-path="url(#p89c88e3699)" style="fill: none; stroke: #ff7f0e; stroke-width: 2; stroke-linecap: square"/>
   </g>
   <g id="patch_3">
    <path d="M 49.404673 187.701556 
L 49.404673 10.8 
" style="fill: none; stroke: #000000; stroke-width: 0.8; stroke-linejoin: miter; stroke-linecap: square"/>
   </g>
   <g id="patch_4">
    <path d="M 377.742964 187.701556 
L 377.742964 10.8 
" style="fill: none; stroke: #000000; stroke-width: 0.8; stroke-linejoin: miter; stroke-linecap: square"/>
   </g>
   <g id="patch_5">
    <path d="M 49.404673 187.701556 
L 377.742964 187.701556 
" style="fill: none; stroke: #000000; stroke-width: 0.8; stroke-linejoin: miter; stroke-linecap: square"/>
   </g>
   <g id="patch_6">
    <path d="M 49.404673 10.8 
L 377.742964 10.8 
" style="fill: none; stroke: #000000; stroke-width: 0.8; stroke-linejoin: miter; stroke-linecap: square"/>
   </g>
   <g id="text_13">
    <!-- $\mathbf{s}$ -->
    <g style="fill: #ff7f0e" transform="translate(142.601043 223.081867) scale(0.24 -0.24)">
     <defs>
      <path id="CMBX12-73" d="M 2413 2715 
C 2413 2836 2413 2880 2317 2880 
C 2278 2880 2266 2880 2170 2823 
C 2144 2804 2074 2759 2042 2740 
C 1862 2842 1626 2880 1395 2880 
C 1203 2880 243 2880 243 2056 
C 243 1389 1037 1250 1235 1218 
C 1408 1187 1619 1148 1645 1148 
C 1901 1091 2157 932 2157 666 
C 2157 178 1574 178 1440 178 
C 1114 178 710 279 531 896 
C 493 1023 486 1023 378 1023 
C 243 1023 243 1004 243 858 
L 243 132 
C 243 12 243 -32 339 -32 
C 384 -32 397 -32 525 70 
L 691 191 
C 979 -32 1325 -32 1440 -32 
C 1792 -32 2592 44 2592 888 
C 2592 1192 2426 1402 2298 1516 
C 2035 1731 1818 1770 1472 1833 
C 1062 1903 678 1973 678 2277 
C 678 2689 1248 2689 1382 2689 
C 2093 2689 2131 2245 2144 2087 
C 2150 2005 2202 2005 2278 2005 
C 2413 2005 2413 2024 2413 2170 
L 2413 2715 
z
" transform="scale(0.015625)"/>
     </defs>
     <use xlink:href="#CMBX12-73" transform="scale(0.996264)"/>
    </g>
   </g>
   <g id="legend_1"/>
  </g>
 </g>
 <defs>
  <clipPath id="p89c88e3699">
   <rect x="49.404673" y="10.8" width="328.33829" height="176.901556"/>
  </clipPath>
 </defs>
</svg>
