<?xml version="1.0" encoding="utf-8" standalone="no"?>
<!DOCTYPE svg PUBLIC "-//W3C//DTD SVG 1.1//EN"
  "http://www.w3.org/Graphics/SVG/1.1/DTD/svg11.dtd">
<svg xmlns:xlink="http://www.w3.org/1999/xlink" width="388.542964pt" height="240.132758pt" viewBox="0 0 388.542964 240.132758" xmlns="http://www.w3.org/2000/svg" version="1.1">
 <metadata>
  <rdf:RDF xmlns:dc="http://purl.org/dc/elements/1.1/" xmlns:cc="http://creativecommons.org/ns#" xmlns:rdf="http://www.w3.org/1999/02/22-rdf-syntax-ns#">
   <cc:Work>
    <dc:type rdf:resource="http://purl.org/dc/dcmitype/StillImage"/>
    <dc:date>2024-12-10T13:24:44.554197</dc:date>
    <dc:format>image/svg+xml</dc:format>
    <dc:creator>
     <cc:Agent>
      <dc:title>Matplotlib v3.7.5, https://matplotlib.org/</dc:title>
     </cc:Agent>
    </dc:creator>
   </cc:Work>
  </rdf:RDF>
 </metadata>
 <defs>
  <style type="text/css">*{stroke-linejoin: round; stroke-linecap: butt}</style>
 </defs>
 <g id="figure_1">
  <g id="patch_1">
   <path d="M 0 240.132758 
L 388.542964 240.132758 
L 388.542964 0 
L 0 0 
z
" style="fill: #ffffff"/>
  </g>
  <g id="axes_1">
   <g id="patch_2">
    <path d="M 49.404673 187.701556 
L 377.742964 187.701556 
L 377.742964 10.8 
L 49.404673 10.8 
z
" style="fill: #ffffff"/>
   </g>
   <g id="matplotlib.axis_1">
    <g id="xtick_1">
     <g id="line2d_1">
      <defs>
       <path id="mff7550ec9a" d="M 0 0 
L 0 3.5 
" style="stroke: #000000; stroke-width: 0.8"/>
      </defs>
      <g>
       <use xlink:href="#mff7550ec9a" x="64.27938" y="187.701556" style="stroke: #000000; stroke-width: 0.8"/>
      </g>
     </g>
     <g id="text_1">
      <!-- $\mathdefault{0.0}$ -->
      <g transform="translate(55.554089 204.387432) scale(0.14 -0.14)">
       <defs>
        <path id="CMR17-30" d="M 2688 2025 
C 2688 2416 2682 3080 2413 3591 
C 2176 4039 1798 4198 1466 4198 
C 1158 4198 768 4058 525 3597 
C 269 3118 243 2524 243 2025 
C 243 1661 250 1106 448 619 
C 723 -39 1216 -128 1466 -128 
C 1760 -128 2208 -7 2470 600 
C 2662 1042 2688 1559 2688 2025 
z
M 1466 -26 
C 1056 -26 813 325 723 812 
C 653 1188 653 1738 653 2096 
C 653 2588 653 2997 736 3387 
C 858 3929 1216 4096 1466 4096 
C 1728 4096 2067 3923 2189 3400 
C 2272 3036 2278 2607 2278 2096 
C 2278 1680 2278 1169 2202 792 
C 2067 95 1690 -26 1466 -26 
z
" transform="scale(0.015625)"/>
        <path id="CMMI12-3a" d="M 1178 307 
C 1178 492 1024 619 870 619 
C 685 619 557 466 557 313 
C 557 128 710 0 864 0 
C 1050 0 1178 153 1178 307 
z
" transform="scale(0.015625)"/>
       </defs>
       <use xlink:href="#CMR17-30" transform="scale(0.996264)"/>
       <use xlink:href="#CMMI12-3a" transform="translate(45.690477 0) scale(0.996264)"/>
       <use xlink:href="#CMR17-30" transform="translate(72.787654 0) scale(0.996264)"/>
      </g>
     </g>
    </g>
    <g id="xtick_2">
     <g id="line2d_2">
      <g>
       <use xlink:href="#mff7550ec9a" x="124.078582" y="187.701556" style="stroke: #000000; stroke-width: 0.8"/>
      </g>
     </g>
     <g id="text_2">
      <!-- $\mathdefault{0.2}$ -->
      <g transform="translate(115.353291 204.387432) scale(0.14 -0.14)">
       <defs>
        <path id="CMR17-32" d="M 2669 989 
L 2554 989 
C 2490 536 2438 459 2413 420 
C 2381 369 1920 369 1830 369 
L 602 369 
C 832 619 1280 1072 1824 1597 
C 2214 1967 2669 2402 2669 3035 
C 2669 3790 2067 4224 1395 4224 
C 691 4224 262 3604 262 3030 
C 262 2780 448 2748 525 2748 
C 589 2748 781 2787 781 3010 
C 781 3207 614 3264 525 3264 
C 486 3264 448 3258 422 3245 
C 544 3790 915 4058 1306 4058 
C 1862 4058 2227 3617 2227 3035 
C 2227 2479 1901 2000 1536 1584 
L 262 146 
L 262 0 
L 2515 0 
L 2669 989 
z
" transform="scale(0.015625)"/>
       </defs>
       <use xlink:href="#CMR17-30" transform="scale(0.996264)"/>
       <use xlink:href="#CMMI12-3a" transform="translate(45.690477 0) scale(0.996264)"/>
       <use xlink:href="#CMR17-32" transform="translate(72.787654 0) scale(0.996264)"/>
      </g>
     </g>
    </g>
    <g id="xtick_3">
     <g id="line2d_3">
      <g>
       <use xlink:href="#mff7550ec9a" x="183.877783" y="187.701556" style="stroke: #000000; stroke-width: 0.8"/>
      </g>
     </g>
     <g id="text_3">
      <!-- $\mathdefault{0.4}$ -->
      <g transform="translate(175.152492 204.387432) scale(0.14 -0.14)">
       <defs>
        <path id="CMR17-34" d="M 2150 4122 
C 2150 4256 2144 4256 2029 4256 
L 128 1254 
L 128 1088 
L 1779 1088 
L 1779 457 
C 1779 224 1766 160 1318 160 
L 1197 160 
L 1197 0 
C 1402 0 1747 0 1965 0 
C 2182 0 2528 0 2733 0 
L 2733 160 
L 2611 160 
C 2163 160 2150 224 2150 457 
L 2150 1088 
L 2803 1088 
L 2803 1254 
L 2150 1254 
L 2150 4122 
z
M 1798 3703 
L 1798 1254 
L 256 1254 
L 1798 3703 
z
" transform="scale(0.015625)"/>
       </defs>
       <use xlink:href="#CMR17-30" transform="scale(0.996264)"/>
       <use xlink:href="#CMMI12-3a" transform="translate(45.690477 0) scale(0.996264)"/>
       <use xlink:href="#CMR17-34" transform="translate(72.787654 0) scale(0.996264)"/>
      </g>
     </g>
    </g>
    <g id="xtick_4">
     <g id="line2d_4">
      <g>
       <use xlink:href="#mff7550ec9a" x="243.676984" y="187.701556" style="stroke: #000000; stroke-width: 0.8"/>
      </g>
     </g>
     <g id="text_4">
      <!-- $\mathdefault{0.6}$ -->
      <g transform="translate(234.951693 204.387432) scale(0.14 -0.14)">
       <defs>
        <path id="CMR17-36" d="M 678 2176 
C 678 3690 1395 4032 1811 4032 
C 1946 4032 2272 4009 2400 3776 
C 2298 3776 2106 3776 2106 3553 
C 2106 3381 2246 3323 2336 3323 
C 2394 3323 2566 3348 2566 3560 
C 2566 3954 2246 4179 1805 4179 
C 1043 4179 243 3390 243 1984 
C 243 253 966 -128 1478 -128 
C 2099 -128 2688 427 2688 1283 
C 2688 2081 2170 2662 1517 2662 
C 1126 2662 838 2407 678 1960 
L 678 2176 
z
M 1478 25 
C 691 25 691 1200 691 1436 
C 691 1896 909 2560 1504 2560 
C 1613 2560 1926 2560 2138 2120 
C 2253 1870 2253 1609 2253 1289 
C 2253 944 2253 690 2118 434 
C 1978 171 1773 25 1478 25 
z
" transform="scale(0.015625)"/>
       </defs>
       <use xlink:href="#CMR17-30" transform="scale(0.996264)"/>
       <use xlink:href="#CMMI12-3a" transform="translate(45.690477 0) scale(0.996264)"/>
       <use xlink:href="#CMR17-36" transform="translate(72.787654 0) scale(0.996264)"/>
      </g>
     </g>
    </g>
    <g id="xtick_5">
     <g id="line2d_5">
      <g>
       <use xlink:href="#mff7550ec9a" x="303.476186" y="187.701556" style="stroke: #000000; stroke-width: 0.8"/>
      </g>
     </g>
     <g id="text_5">
      <!-- $\mathdefault{0.8}$ -->
      <g transform="translate(294.750895 204.387432) scale(0.14 -0.14)">
       <defs>
        <path id="CMR17-38" d="M 1741 2264 
C 2144 2467 2554 2773 2554 3263 
C 2554 3841 1990 4179 1472 4179 
C 890 4179 378 3759 378 3180 
C 378 3021 416 2747 666 2505 
C 730 2442 998 2251 1171 2130 
C 883 1983 211 1634 211 934 
C 211 279 838 -128 1459 -128 
C 2144 -128 2720 362 2720 1010 
C 2720 1590 2330 1857 2074 2029 
L 1741 2264 
z
M 902 2822 
C 851 2854 595 3051 595 3351 
C 595 3739 998 4032 1459 4032 
C 1965 4032 2336 3676 2336 3262 
C 2336 2669 1670 2331 1638 2331 
C 1632 2331 1626 2331 1574 2370 
L 902 2822 
z
M 2080 1519 
C 2176 1449 2483 1240 2483 851 
C 2483 381 2010 25 1472 25 
C 890 25 448 438 448 940 
C 448 1443 838 1862 1280 2060 
L 2080 1519 
z
" transform="scale(0.015625)"/>
       </defs>
       <use xlink:href="#CMR17-30" transform="scale(0.996264)"/>
       <use xlink:href="#CMMI12-3a" transform="translate(45.690477 0) scale(0.996264)"/>
       <use xlink:href="#CMR17-38" transform="translate(72.787654 0) scale(0.996264)"/>
      </g>
     </g>
    </g>
    <g id="xtick_6">
     <g id="line2d_6">
      <g>
       <use xlink:href="#mff7550ec9a" x="363.275387" y="187.701556" style="stroke: #000000; stroke-width: 0.8"/>
      </g>
     </g>
     <g id="text_6">
      <!-- $\mathdefault{1.0}$ -->
      <g transform="translate(354.550096 204.387432) scale(0.14 -0.14)">
       <defs>
        <path id="CMR17-31" d="M 1702 4058 
C 1702 4192 1696 4192 1606 4192 
C 1357 3916 979 3827 621 3827 
C 602 3827 570 3827 563 3808 
C 557 3795 557 3782 557 3648 
C 755 3648 1088 3686 1344 3839 
L 1344 461 
C 1344 236 1331 160 781 160 
L 589 160 
L 589 0 
C 896 0 1216 0 1523 0 
C 1830 0 2150 0 2458 0 
L 2458 160 
L 2266 160 
C 1715 160 1702 230 1702 458 
L 1702 4058 
z
" transform="scale(0.015625)"/>
       </defs>
       <use xlink:href="#CMR17-31" transform="scale(0.996264)"/>
       <use xlink:href="#CMMI12-3a" transform="translate(45.690477 0) scale(0.996264)"/>
       <use xlink:href="#CMR17-30" transform="translate(72.787654 0) scale(0.996264)"/>
      </g>
     </g>
    </g>
    <g id="text_7">
     <!-- $\mathbf{P}$ -->
     <g style="fill: #1f77b4" transform="translate(208.214286 220.785337) scale(0.14 -0.14)">
      <defs>
       <path id="CMBX12-50" d="M 1766 1934 
L 2854 1934 
C 3923 1934 4518 2474 4518 3128 
C 4518 3812 3910 4352 2854 4352 
L 243 4352 
L 243 4078 
L 922 4078 
L 922 267 
L 243 267 
L 243 0 
C 429 0 1114 0 1344 0 
C 1574 0 2259 0 2445 0 
L 2445 267 
L 1766 267 
L 1766 1934 
z
M 2624 4078 
C 3616 4078 3616 3558 3616 3127 
C 3616 2709 3616 2176 2624 2176 
L 1734 2176 
L 1734 4078 
L 2624 4078 
z
" transform="scale(0.015625)"/>
      </defs>
      <use xlink:href="#CMBX12-50" transform="scale(0.996264)"/>
     </g>
    </g>
   </g>
   <g id="matplotlib.axis_2">
    <g id="ytick_1">
     <g id="line2d_7">
      <defs>
       <path id="m9ee2b55157" d="M 0 0 
L -3.5 0 
" style="stroke: #000000; stroke-width: 0.8"/>
      </defs>
      <g>
       <use xlink:href="#m9ee2b55157" x="49.404673" y="159.03328" style="stroke: #000000; stroke-width: 0.8"/>
      </g>
     </g>
     <g id="text_8">
      <!-- $\mathdefault{5}$ -->
      <g transform="translate(35.576185 163.876218) scale(0.14 -0.14)">
       <defs>
        <path id="CMR17-35" d="M 730 3692 
C 794 3666 1056 3584 1325 3584 
C 1920 3584 2246 3911 2432 4100 
C 2432 4157 2432 4192 2394 4192 
C 2387 4192 2374 4192 2323 4163 
C 2099 4058 1837 3973 1517 3973 
C 1325 3973 1037 3999 723 4139 
C 653 4171 640 4171 634 4171 
C 602 4171 595 4164 595 4037 
L 595 2203 
C 595 2089 595 2057 659 2057 
C 691 2057 704 2070 736 2114 
C 941 2401 1222 2522 1542 2522 
C 1766 2522 2246 2382 2246 1289 
C 2246 1085 2246 715 2054 421 
C 1894 159 1645 25 1370 25 
C 947 25 518 320 403 814 
C 429 807 480 795 506 795 
C 589 795 749 840 749 1038 
C 749 1210 627 1280 506 1280 
C 358 1280 262 1190 262 1011 
C 262 454 704 -128 1382 -128 
C 2042 -128 2669 440 2669 1264 
C 2669 2030 2170 2624 1549 2624 
C 1222 2624 947 2503 730 2274 
L 730 3692 
z
" transform="scale(0.015625)"/>
       </defs>
       <use xlink:href="#CMR17-35" transform="scale(0.996264)"/>
      </g>
     </g>
    </g>
    <g id="ytick_2">
     <g id="line2d_8">
      <g>
       <use xlink:href="#m9ee2b55157" x="49.404673" y="120.941668" style="stroke: #000000; stroke-width: 0.8"/>
      </g>
     </g>
     <g id="text_9">
      <!-- $\mathdefault{10}$ -->
      <g transform="translate(28.747696 125.784606) scale(0.14 -0.14)">
       <use xlink:href="#CMR17-31" transform="scale(0.996264)"/>
       <use xlink:href="#CMR17-30" transform="translate(45.690477 0) scale(0.996264)"/>
      </g>
     </g>
    </g>
    <g id="ytick_3">
     <g id="line2d_9">
      <g>
       <use xlink:href="#m9ee2b55157" x="49.404673" y="82.850055" style="stroke: #000000; stroke-width: 0.8"/>
      </g>
     </g>
     <g id="text_10">
      <!-- $\mathdefault{15}$ -->
      <g transform="translate(28.747696 87.692994) scale(0.14 -0.14)">
       <use xlink:href="#CMR17-31" transform="scale(0.996264)"/>
       <use xlink:href="#CMR17-35" transform="translate(45.690477 0) scale(0.996264)"/>
      </g>
     </g>
    </g>
    <g id="ytick_4">
     <g id="line2d_10">
      <g>
       <use xlink:href="#m9ee2b55157" x="49.404673" y="44.758443" style="stroke: #000000; stroke-width: 0.8"/>
      </g>
     </g>
     <g id="text_11">
      <!-- $\mathdefault{20}$ -->
      <g transform="translate(28.747696 49.601382) scale(0.14 -0.14)">
       <use xlink:href="#CMR17-32" transform="scale(0.996264)"/>
       <use xlink:href="#CMR17-30" transform="translate(45.690477 0) scale(0.996264)"/>
      </g>
     </g>
    </g>
    <g id="text_12">
     <!-- $\phi(P, S)$ -->
     <g transform="translate(21.260772 120.859002) rotate(-90) scale(0.14 -0.14)">
      <defs>
       <path id="CMMI12-1e" d="M 2752 4390 
C 2752 4448 2707 4448 2688 4448 
C 2630 4448 2624 4435 2598 4326 
L 2253 2939 
C 2234 2856 2227 2849 2221 2843 
C 2214 2830 2170 2824 2157 2824 
C 1107 2734 301 1864 301 1057 
C 301 361 832 -64 1498 -64 
C 1446 -261 1402 -463 1350 -659 
C 1261 -995 1210 -1204 1210 -1229 
C 1210 -1241 1210 -1280 1274 -1280 
C 1293 -1280 1318 -1280 1331 -1254 
C 1344 -1241 1382 -1089 1408 -1008 
L 1645 -64 
C 2739 -64 3571 854 3571 1680 
C 3571 2343 3085 2816 2374 2816 
L 2752 4390 
z
M 2336 2701 
C 2758 2701 3181 2463 3181 1828 
C 3181 1097 2675 128 1677 50 
L 2336 2701 
z
M 1530 50 
C 1216 50 691 220 691 938 
C 691 1761 1274 2676 2195 2676 
L 1530 50 
z
" transform="scale(0.015625)"/>
       <path id="CMR17-28" d="M 1958 -1561 
C 1958 -1555 1958 -1542 1939 -1523 
C 1645 -1224 858 -407 858 1581 
C 858 3569 1632 4379 1946 4697 
C 1946 4704 1958 4717 1958 4736 
C 1958 4755 1939 4768 1914 4768 
C 1843 4768 1299 4296 986 3594 
C 666 2887 576 2199 576 1588 
C 576 1128 621 351 1005 -471 
C 1312 -1135 1837 -1600 1914 -1600 
C 1946 -1600 1958 -1587 1958 -1561 
z
" transform="scale(0.015625)"/>
       <path id="CMMI12-50" d="M 1894 2023 
L 2970 2023 
C 3853 2023 4736 2673 4736 3401 
C 4736 3898 4314 4352 3507 4352 
L 1530 4352 
C 1408 4352 1350 4352 1350 4231 
C 1350 4167 1408 4167 1504 4167 
C 1894 4167 1894 4116 1894 4046 
C 1894 4034 1894 3995 1869 3899 
L 1005 472 
C 947 249 934 185 486 185 
C 365 185 301 185 301 70 
C 301 0 358 0 397 0 
C 518 0 646 0 768 0 
L 1517 0 
C 1638 0 1773 0 1894 0 
C 1946 0 2016 0 2016 121 
C 2016 185 1958 185 1862 185 
C 1478 185 1472 230 1472 293 
C 1472 325 1478 369 1485 401 
L 1894 2023 
z
M 2355 3930 
C 2413 4167 2438 4167 2688 4167 
L 3322 4167 
C 3802 4167 4198 4013 4198 3535 
C 4198 3369 4115 2827 3821 2534 
C 3712 2419 3405 2176 2822 2176 
L 1920 2176 
L 2355 3930 
z
" transform="scale(0.015625)"/>
       <path id="CMMI12-3b" d="M 1248 -31 
C 1248 343 1126 619 864 619 
C 659 619 557 453 557 313 
C 557 172 653 0 870 0 
C 954 0 1024 26 1082 83 
C 1094 96 1101 96 1107 96 
C 1120 96 1120 5 1120 -27 
C 1120 -240 1082 -659 710 -1080 
C 640 -1157 640 -1170 640 -1183 
C 640 -1216 672 -1248 704 -1248 
C 755 -1248 1248 -771 1248 -31 
z
" transform="scale(0.015625)"/>
       <path id="CMMI12-53" d="M 4064 4423 
C 4064 4480 4019 4480 4006 4480 
C 3981 4480 3974 4474 3898 4378 
C 3859 4333 3597 4001 3590 3995 
C 3379 4410 2957 4480 2688 4480 
C 1875 4480 1139 3743 1139 3025 
C 1139 2549 1427 2269 1741 2161 
C 1811 2135 2189 2033 2381 1989 
C 2707 1900 2790 1875 2925 1735 
C 2950 1703 3078 1557 3078 1258 
C 3078 667 2528 57 1888 57 
C 1363 57 781 280 781 991 
C 781 1112 806 1265 826 1328 
C 826 1348 832 1378 832 1391 
C 832 1417 819 1449 768 1449 
C 710 1449 704 1436 678 1328 
L 352 24 
C 352 18 326 -64 326 -71 
C 326 -128 378 -128 390 -128 
C 416 -128 422 -122 499 -26 
L 794 356 
C 947 126 1280 -128 1875 -128 
C 2701 -128 3456 666 3456 1460 
C 3456 1728 3392 1963 3149 2197 
C 3014 2331 2899 2363 2310 2516 
C 1882 2630 1824 2649 1709 2751 
C 1600 2858 1517 3011 1517 3227 
C 1517 3761 2061 4308 2669 4308 
C 3296 4308 3590 3926 3590 3323 
C 3590 3158 3558 2986 3558 2961 
C 3558 2903 3610 2903 3629 2903 
C 3686 2903 3693 2922 3718 3024 
L 4064 4423 
z
" transform="scale(0.015625)"/>
       <path id="CMR17-29" d="M 1683 1581 
C 1683 2040 1638 2817 1254 3639 
C 947 4303 422 4768 346 4768 
C 326 4768 301 4761 301 4729 
C 301 4717 307 4710 314 4697 
C 621 4378 1402 3568 1402 1584 
C 1402 -407 627 -1217 314 -1537 
C 307 -1549 301 -1556 301 -1568 
C 301 -1600 326 -1600 346 -1600 
C 416 -1600 960 -1128 1274 -426 
C 1594 281 1683 969 1683 1581 
z
" transform="scale(0.015625)"/>
      </defs>
      <use xlink:href="#CMMI12-1e" transform="scale(0.996264)"/>
      <use xlink:href="#CMR17-28" transform="translate(57.73418 0) scale(0.996264)"/>
      <use xlink:href="#CMMI12-50" transform="translate(93.014948 0) scale(0.996264)"/>
      <use xlink:href="#CMMI12-3b" transform="translate(158.601898 0) scale(0.996264)"/>
      <use xlink:href="#CMMI12-53" transform="translate(202.30348 0) scale(0.996264)"/>
      <use xlink:href="#CMR17-29" transform="translate(268.09792 0) scale(0.996264)"/>
     </g>
    </g>
   </g>
   <g id="line2d_11">
    <path d="M 83.580106 18.851195 
L 89.529194 19.484084 
L 93.357234 20.062657 
L 97.847859 20.981105 
L 101.234045 21.897286 
L 104.942238 23.185078 
L 106.916099 24.017344 
L 108.967837 25.008489 
L 111.095017 26.188695 
L 113.294129 27.592109 
L 115.56083 29.255754 
L 117.889595 31.218545 
L 120.273472 33.517622 
L 122.70569 36.184895 
L 125.177054 39.239574 
L 127.677823 42.680728 
L 130.196935 46.479544 
L 132.72346 50.577127 
L 137.747262 59.289836 
L 147.299729 76.553498 
L 149.504816 80.858464 
L 151.610441 85.306588 
L 153.604655 89.942167 
L 155.476283 94.751236 
L 157.216121 99.671705 
L 158.816291 104.611246 
L 161.567939 114.155778 
L 163.695698 122.870754 
L 164.521273 126.908979 
L 165.188663 130.784749 
L 165.700195 134.538381 
L 166.05946 138.190781 
L 166.271304 141.737519 
L 166.34153 145.155697 
L 166.276633 148.416956 
L 166.08408 151.493889 
L 165.771749 154.369559 
L 165.347783 157.03867 
L 164.820577 159.50261 
L 164.198827 161.769189 
L 163.491116 163.849516 
L 162.705934 165.755898 
L 161.851506 167.502524 
L 160.935051 169.103821 
L 158.950514 171.9182 
L 156.808827 174.299931 
L 154.56112 176.327529 
L 152.251768 178.044613 
L 151.086024 178.735992 
L 149.918829 179.007504 
L 148.753878 178.485143 
L 146.444116 179.519101 
L 145.305417 179.6403 
L 143.07342 179.44188 
L 140.915613 178.836511 
L 137.848052 177.482582 
L 135.010767 176.08823 
L 134.119979 175.511701 
L 133.257398 174.798288 
L 131.618101 172.966605 
L 129.375878 170.176158 
L 127.391742 167.882397 
L 125.659216 165.073249 
L 123.722762 161.667056 
L 122.906441 159.750814 
L 122.18609 157.566381 
L 121.017633 153.432595 
L 120.779399 153.24736 
L 119.888798 148.159434 
L 119.512625 145.102594 
L 119.411871 142.53987 
L 119.50514 140.119268 
L 119.738456 137.550634 
L 120.807651 133.22811 
L 121.746539 130.677926 
L 122.931013 128.212174 
L 124.375066 125.816147 
L 126.100157 123.423433 
L 129.282524 119.509563 
L 133.303806 114.880734 
L 136.538288 111.49941 
L 139.297853 108.964172 
L 142.373425 106.544053 
L 144.612408 105.030983 
L 147.011171 103.609834 
L 149.576165 102.280615 
L 152.311719 101.039613 
L 155.221506 99.88724 
L 158.308145 98.839388 
L 161.569605 97.93821 
L 165.003043 97.249378 
L 168.601 96.844397 
L 172.35282 96.769651 
L 176.245091 97.024223 
L 180.259261 97.563468 
L 184.374881 98.32712 
L 190.68437 99.798247 
L 194.941457 100.977806 
L 199.205887 102.330056 
L 203.448895 103.872602 
L 207.641014 105.610616 
L 211.755529 107.526291 
L 217.727406 110.627773 
L 226.981121 115.835945 
L 242.207605 124.612764 
L 245.856086 126.978938 
L 249.080129 129.280238 
L 252.73107 132.203805 
L 255.660915 134.884701 
L 257.901779 137.262092 
L 259.496541 139.309449 
L 260.503619 141.027436 
L 260.916544 142.11014 
L 261.074585 143.028882 
L 261.01401 143.797499 
L 260.771566 144.431053 
L 260.382004 144.945153 
L 259.68798 145.471992 
L 258.628186 145.925106 
L 257.198576 146.247639 
L 255.192101 146.436107 
L 252.193394 146.453206 
L 246.212535 146.195898 
L 244.11542 146.09682 
L 244.11542 146.09682 
" clip-path="url(#p5d668836e7)" style="fill: none; stroke: #1f77b4; stroke-width: 2; stroke-linecap: square"/>
   </g>
   <g id="line2d_12">
    <path d="M 362.506013 18.851195 
L 353.634695 19.340796 
L 347.416096 19.84051 
L 340.404831 20.624911 
L 335.247167 21.400899 
L 329.677986 22.485783 
L 323.682941 24.017344 
L 320.523429 25.008489 
L 317.255492 26.188695 
L 313.879662 27.592109 
L 310.397171 29.255754 
L 306.80996 31.218545 
L 303.121042 33.517622 
L 299.332608 36.184895 
L 295.449309 39.239574 
L 291.475923 42.680728 
L 287.418634 46.479544 
L 279.074904 54.882892 
L 270.477289 63.697492 
L 261.69408 72.309052 
L 252.799487 80.858464 
L 248.335598 85.306588 
L 243.873884 89.942167 
L 234.999055 99.671705 
L 226.250313 109.466414 
L 217.705717 118.62798 
L 209.428613 126.908979 
L 197.628769 138.190781 
L 186.683111 148.416956 
L 179.899195 154.369559 
L 173.535279 159.50261 
L 167.589832 163.849516 
L 162.053567 167.502524 
L 156.908378 170.570858 
L 152.137772 173.157657 
L 147.717511 175.354116 
L 141.691652 178.044613 
L 139.83192 178.735992 
L 138.041652 179.007504 
L 136.318277 178.485143 
L 133.059566 179.519101 
L 131.519111 179.6403 
L 130.034402 179.596008 
L 127.222701 179.185559 
L 124.605748 178.415267 
L 119.88964 176.573948 
L 117.760348 175.511701 
L 116.746899 174.798288 
L 114.814793 172.966605 
L 112.132797 170.176158 
L 109.679309 167.882397 
L 106.711793 164.19605 
L 104.680167 161.667056 
L 103.405793 159.750814 
L 101.59959 156.418376 
L 100.45857 154.187619 
L 99.905242 153.432595 
L 99.362714 153.24736 
L 97.291629 149.00104 
L 93.548433 142.53987 
L 92.682325 141.027766 
L 92.258484 141.235596 
L 91.021657 138.083994 
L 89.447836 135.917158 
L 85.168332 128.212174 
L 82.319161 122.808999 
L 80.845969 119.509563 
L 79.441351 115.700264 
L 77.579393 109.801065 
L 75.593206 103.609834 
L 73.983432 99.348271 
L 73.122347 97.562538 
L 72.709086 97.007542 
L 72.307885 96.764558 
L 71.919046 96.85778 
L 71.542924 97.262049 
L 71.002997 98.32712 
L 70.329054 100.367636 
L 69.707436 103.076772 
L 69.136347 106.548644 
L 68.3678 112.747206 
L 64.512383 146.470294 
L 64.462597 146.300186 
L 64.443473 146.09682 
L 64.443473 146.09682 
" clip-path="url(#p5d668836e7)" style="fill: none; stroke: #ff7f0e; stroke-width: 2; stroke-linecap: square"/>
   </g>
   <g id="line2d_13">
    <path d="M 83.70205 18.84098 
L 89.695995 19.476426 
L 93.544971 20.057338 
L 98.05636 20.980858 
L 101.456842 21.904261 
L 105.180026 23.205159 
L 107.161761 24.047524 
L 109.221691 25.052125 
L 111.357395 26.250175 
L 113.565369 27.676634 
L 115.84127 29.370184 
L 118.179524 31.370668 
L 120.573186 33.716244 
L 123.015402 36.43933 
L 125.496821 39.558394 
L 128.007735 43.070633 
L 130.53681 46.943744 
L 135.603396 55.483043 
L 145.394472 73.076147 
L 147.689976 77.374016 
L 149.897077 81.752283 
L 152.002801 86.291268 
L 153.995063 91.02482 
L 155.862646 95.92568 
L 157.596353 100.920024 
L 160.630044 110.785084 
L 163.046228 119.932635 
L 164.014704 124.160152 
L 164.82292 128.19053 
L 165.471491 132.069148 
L 165.963312 135.832559 
L 166.301949 139.493626 
L 166.492621 143.040561 
L 166.541149 146.445777 
L 166.454688 149.681143 
L 166.240438 152.721941 
L 165.906863 155.555559 
L 165.461912 158.180173 
L 164.914603 160.599979 
L 164.273393 162.82406 
L 163.547218 164.86422 
L 162.744731 166.733013 
L 161.874149 168.444505 
L 160.943008 170.013193 
L 158.93386 172.769238 
L 156.775038 175.100694 
L 154.519221 177.083011 
L 152.212061 178.739687 
L 151.05195 179.308159 
L 149.893549 179.148416 
L 148.741056 178.7765 
L 147.597866 179.372608 
L 146.467471 179.582698 
L 145.353134 179.547879 
L 144.257483 179.375347 
L 143.183325 179.072386 
L 142.132468 178.636175 
L 141.107328 178.07208 
L 139.141192 176.630523 
L 137.296421 174.913089 
L 135.582304 172.943759 
L 134.005534 170.58622 
L 130.134314 163.733103 
L 129.616429 162.474855 
L 128.689882 159.351867 
L 127.571401 154.540822 
L 126.77415 150.079624 
L 126.293262 146.107003 
L 126.146029 143.693473 
L 126.182826 138.814926 
L 126.378382 136.15478 
L 126.928458 132.487025 
L 128.537481 124.923142 
L 128.965327 123.896469 
L 129.428884 123.483424 
L 130.465621 120.556776 
L 131.650835 118.256522 
L 133.715956 114.904834 
L 136.138466 111.544565 
L 137.959668 109.335673 
L 139.95103 107.172917 
L 142.117418 105.088379 
L 144.462396 103.122399 
L 146.990035 101.319127 
L 149.702243 99.723406 
L 152.600723 98.369506 
L 155.685081 97.271617 
L 158.953633 96.417962 
L 162.401952 95.779944 
L 166.023211 95.336435 
L 169.808267 95.102467 
L 173.744816 95.135132 
L 177.816978 95.493992 
L 182.005987 96.179424 
L 186.290778 97.116181 
L 192.842836 98.785174 
L 199.462428 100.665365 
L 203.862542 102.08862 
L 208.216481 103.712233 
L 212.492708 105.568077 
L 216.660144 107.644543 
L 220.6899 109.886361 
L 226.416499 113.382718 
L 231.688024 116.849563 
L 236.441977 120.240855 
L 239.300553 122.489692 
L 241.900611 124.741318 
L 244.238281 126.980471 
L 247.255238 130.234788 
L 249.701282 133.234497 
L 251.610754 135.872076 
L 253.404938 138.761045 
L 254.464127 140.974042 
L 254.86283 142.254085 
L 254.988633 143.265193 
L 254.896549 144.054818 
L 254.634822 144.664516 
L 254.093635 145.258132 
L 253.403156 145.662204 
L 252.416038 145.97907 
L 250.926424 146.197054 
L 248.744835 146.265988 
L 244.450572 146.119866 
L 233.350793 145.713857 
L 231.944298 145.67826 
L 231.944298 145.67826 
" clip-path="url(#p5d668836e7)" style="fill: none; stroke: #1f77b4; stroke-width: 2; stroke-linecap: square"/>
   </g>
   <g id="line2d_14">
    <path d="M 362.818496 18.84098 
L 353.827809 19.332571 
L 347.555389 19.834218 
L 340.492263 20.62247 
L 335.296853 21.403689 
L 329.683938 22.498381 
L 323.637514 24.047524 
L 320.448615 25.052125 
L 317.148527 26.250175 
L 313.738106 27.676634 
L 310.21785 29.370184 
L 306.590095 31.370668 
L 302.857586 33.716244 
L 299.022816 36.43933 
L 295.090597 39.558394 
L 291.065707 43.070633 
L 286.954596 46.943744 
L 278.49811 55.483043 
L 269.783193 64.39093 
L 260.882469 73.076147 
L 251.874139 81.752283 
L 247.356126 86.291268 
L 242.843014 91.02482 
L 233.874943 100.920024 
L 225.048606 110.785084 
L 216.444325 119.932635 
L 208.12682 128.19053 
L 192.553841 143.040561 
L 185.368914 149.681143 
L 178.610652 155.555559 
L 172.282273 160.599979 
L 166.379054 164.86422 
L 160.888519 168.444505 
L 155.789595 171.449964 
L 151.063453 173.982707 
L 146.683807 176.131908 
L 142.625502 177.957158 
L 140.708714 178.739687 
L 138.86265 179.308159 
L 137.084394 179.148416 
L 135.371248 178.7765 
L 133.719828 179.372608 
L 132.127601 179.582698 
L 130.591994 179.547879 
L 129.110408 179.375347 
L 127.680621 179.072386 
L 126.299709 178.636175 
L 124.965998 178.07208 
L 122.431399 176.630523 
L 120.060273 174.913089 
L 117.838264 172.943759 
L 115.752145 170.58622 
L 111.93913 165.747423 
L 110.190769 163.733103 
L 109.351873 162.474855 
L 107.739063 159.351867 
L 102.012513 147.366499 
L 100.104322 143.693473 
L 98.889689 140.270065 
L 97.14232 136.15478 
L 94.398064 129.871416 
L 93.349769 126.675171 
L 92.834826 124.923142 
L 92.325478 123.896469 
L 91.821865 123.483424 
L 90.830176 120.556776 
L 84.80307 106.118518 
L 82.646662 101.319127 
L 81.392395 99.014768 
L 80.168027 97.271617 
L 78.974404 96.073865 
L 77.813068 95.336435 
L 77.057649 95.102467 
L 76.318062 95.135132 
L 75.595177 95.493992 
L 74.88988 96.179424 
L 73.866828 97.646657 
L 72.573627 100.011515 
L 71.661891 102.08862 
L 70.804365 104.610723 
L 70.004995 107.644543 
L 69.035306 112.212778 
L 67.798678 119.115749 
L 66.825971 125.864273 
L 65.904997 134.15734 
L 64.599189 146.023549 
L 64.491152 146.265988 
L 64.445966 146.186551 
L 64.363175 145.67826 
L 64.363175 145.67826 
" clip-path="url(#p5d668836e7)" style="fill: none; stroke: #ff7f0e; stroke-width: 2; stroke-linecap: square"/>
   </g>
   <g id="line2d_15">
    <path d="M 84.110039 18.862064 
L 89.174859 19.380799 
L 94.397137 20.161844 
L 97.455803 20.778778 
L 100.832624 21.638652 
L 104.534744 22.852206 
L 106.507184 23.639049 
L 108.558832 24.57877 
L 110.6873 25.701303 
L 112.889455 27.040694 
L 115.160817 28.634824 
L 117.496219 30.523886 
L 119.889181 32.74781 
L 122.331776 35.341426 
L 124.816092 38.329932 
L 127.332103 41.718601 
L 129.869023 45.486029 
L 132.414782 49.577146 
L 137.484042 58.361565 
L 147.14698 75.884042 
L 149.382338 80.227058 
L 151.518562 84.704701 
L 153.543491 89.369973 
L 155.445737 94.217142 
L 157.215132 99.184553 
L 158.84346 104.17878 
L 161.649401 113.851169 
L 163.823871 122.681157 
L 164.669503 126.76633 
L 165.354938 130.684276 
L 165.882233 134.476487 
L 166.254935 138.165214 
L 166.478079 141.747008 
L 166.557438 145.199111 
L 166.499705 148.490994 
L 166.312339 151.597613 
L 166.003509 154.500859 
L 165.581708 157.194466 
L 165.055483 159.681539 
L 164.433911 161.969529 
L 163.725728 164.069618 
L 162.93977 165.994836 
L 162.084728 167.758469 
L 161.168994 169.375142 
L 159.186846 172.222354 
L 157.055264 174.636251 
L 154.828167 176.698297 
L 152.554039 178.448533 
L 151.412533 179.138346 
L 150.274431 179.320944 
L 149.144063 178.750004 
L 146.922473 179.550505 
L 145.837988 179.560076 
L 144.775262 179.407509 
L 143.737076 179.110186 
L 142.726149 178.658434 
L 141.744253 178.045133 
L 140.793892 177.27135 
L 139.876795 176.344646 
L 138.994717 175.275581 
L 137.340601 172.74776 
L 135.841407 169.76705 
L 134.504675 166.471384 
L 131.906302 159.585457 
L 131.517414 158.005466 
L 130.872603 153.976806 
L 130.240303 147.91046 
L 130.043478 144.41504 
L 130.027403 141.134538 
L 130.192934 137.824815 
L 130.784137 131.734141 
L 131.408667 128.143777 
L 132.219467 125.141867 
L 133.789118 120.917728 
L 135.789155 115.570969 
L 136.552822 115.337837 
L 137.36556 114.439979 
L 139.139669 111.239651 
L 141.112728 108.364435 
L 143.286913 105.680342 
L 145.663399 103.297531 
L 148.242935 101.257117 
L 151.024888 99.522583 
L 154.007939 98.052858 
L 157.188569 96.830317 
L 160.562438 95.860931 
L 164.122319 95.160801 
L 167.859864 94.73927 
L 171.762213 94.601925 
L 175.816028 94.769951 
L 180.003692 95.277134 
L 184.304736 96.117044 
L 190.918055 97.802173 
L 199.892132 100.368399 
L 204.37689 101.793448 
L 208.814296 103.403308 
L 213.169099 105.252853 
L 217.40578 107.347402 
L 221.488484 109.637434 
L 225.383793 112.04324 
L 229.059542 114.494905 
L 232.486412 116.9657 
L 235.640809 119.475597 
L 238.503092 122.059914 
L 241.059024 124.729599 
L 243.301153 127.450469 
L 245.228215 130.147116 
L 246.84381 132.727764 
L 248.709174 136.21614 
L 249.957128 139.115535 
L 250.665196 141.393572 
L 250.922004 143.095865 
L 250.820119 144.306615 
L 250.448415 145.123998 
L 249.886198 145.644901 
L 249.200229 145.954324 
L 248.181495 146.153635 
L 246.592954 146.210516 
L 243.138478 146.036924 
L 236.795431 145.75385 
L 224.568885 145.541064 
L 221.947834 145.50275 
L 221.947834 145.50275 
" clip-path="url(#p5d668836e7)" style="fill: none; stroke: #1f77b4; stroke-width: 2; stroke-linecap: square"/>
   </g>
   <g id="line2d_16">
    <path d="M 362.387482 18.862064 
L 353.20696 19.380799 
L 346.738147 19.91995 
L 339.428441 20.778778 
L 334.046654 21.638652 
L 328.235082 22.852206 
L 325.164446 23.639049 
L 321.98289 24.57877 
L 318.68993 25.701303 
L 315.286513 27.040694 
L 311.773565 28.634824 
L 308.153081 30.523886 
L 304.427432 32.74781 
L 300.600807 35.341426 
L 296.676038 38.329932 
L 292.658686 41.718601 
L 288.554472 45.486029 
L 284.370364 49.577146 
L 266.980897 67.252131 
L 248.987849 84.704701 
L 244.47055 89.369973 
L 235.486688 99.184553 
L 222.283931 113.851169 
L 217.994159 118.383688 
L 209.630193 126.76633 
L 197.717939 138.165214 
L 186.681605 148.490994 
L 179.846407 154.500859 
L 173.439355 159.681539 
L 167.455591 164.069618 
L 161.884236 167.758469 
L 156.705462 170.859452 
L 151.902251 173.477686 
L 147.44788 175.707277 
L 143.31794 177.613644 
L 139.486485 179.138346 
L 137.675151 179.320944 
L 135.929335 178.750004 
L 132.623263 179.550505 
L 131.057221 179.560076 
L 129.545784 179.407509 
L 128.086395 179.110186 
L 126.676916 178.658434 
L 125.314409 178.045133 
L 123.997294 177.27135 
L 122.72324 176.344646 
L 121.490421 175.275581 
L 120.296506 174.073508 
L 118.018729 171.30861 
L 115.876236 168.140471 
L 112.888079 163.360235 
L 110.136663 159.585457 
L 109.265955 158.005466 
L 107.587214 153.976806 
L 105.20945 147.91046 
L 100.185283 136.212373 
L 99.515582 134.164664 
L 98.855849 131.734141 
L 97.564036 128.143777 
L 95.68719 123.763803 
L 94.471549 120.917728 
L 93.280617 117.369155 
L 92.693758 115.570969 
L 92.112185 115.337837 
L 91.535573 114.439979 
L 89.275533 108.364435 
L 87.625643 104.445689 
L 86.01173 101.257117 
L 84.433246 98.756374 
L 82.890745 96.830317 
L 81.88321 95.860931 
L 80.893252 95.160801 
L 79.921588 94.73927 
L 78.969523 94.601925 
L 78.03805 94.769951 
L 77.12851 95.277134 
L 76.242332 96.117044 
L 74.959876 97.802173 
L 73.345686 100.368399 
L 72.213783 102.570882 
L 71.155706 105.252853 
L 70.176594 108.472784 
L 69.002248 113.266275 
L 67.985472 118.213452 
L 67.129866 123.384978 
L 66.281399 130.147116 
L 64.465319 146.212758 
L 64.434106 146.18835 
L 64.346211 145.822606 
L 64.334504 145.50275 
L 64.334504 145.50275 
" clip-path="url(#p5d668836e7)" style="fill: none; stroke: #ff7f0e; stroke-width: 2; stroke-linecap: square"/>
   </g>
   <g id="line2d_17">
    <path d="M 84.128074 18.867048 
L 89.12029 19.386989 
L 94.249887 20.162294 
L 98.864425 21.158148 
L 102.33102 22.158361 
L 106.114655 23.571321 
L 108.12338 24.486979 
L 110.207361 25.579012 
L 112.363715 26.880405 
L 114.588371 28.427891 
L 116.876377 30.260457 
L 119.221644 32.417757 
L 121.616754 34.934782 
L 124.054127 37.838471 
L 126.524332 41.137877 
L 129.016885 44.816799 
L 131.520403 48.827459 
L 136.513226 57.501691 
L 146.068215 74.950824 
L 148.288103 79.249673 
L 150.414036 83.664383 
L 152.43385 88.257423 
L 154.336399 93.037045 
L 156.11131 97.953802 
L 157.750251 102.921765 
L 160.592458 112.614635 
L 162.820598 121.514573 
L 163.698746 125.628511 
L 164.419797 129.563015 
L 164.985275 133.360849 
L 165.398262 137.049822 
L 165.663189 140.633211 
L 165.785177 144.0923 
L 165.770546 147.397882 
L 165.626013 150.523576 
L 165.359251 153.448593 
L 164.978235 156.164425 
L 164.490932 158.672705 
L 163.90593 160.980105 
L 163.2315 163.097874 
L 162.476116 165.039062 
L 161.648064 166.817202 
L 160.75508 168.446744 
L 158.804868 171.314824 
L 156.684754 173.742706 
L 154.446518 175.813825 
L 152.136587 177.578974 
L 150.967324 178.319153 
L 149.794702 178.748207 
L 148.622872 178.35807 
L 147.455766 178.664501 
L 146.29659 179.434177 
L 145.148623 179.652199 
L 144.014781 179.660576 
L 141.799695 179.3524 
L 139.668773 178.693813 
L 135.713703 177.07605 
L 134.795777 176.625973 
L 133.907912 176.059973 
L 133.050856 175.326591 
L 132.224796 174.415601 
L 127.933794 168.619426 
L 126.756444 166.631441 
L 124.77009 162.394943 
L 123.954977 160.252555 
L 123.254028 157.831318 
L 122.408543 153.912434 
L 121.519256 148.516576 
L 121.247598 144.319199 
L 121.287295 141.472779 
L 121.654482 136.928719 
L 121.80163 136.1026 
L 121.970868 136.249713 
L 122.375635 132.85278 
L 122.869497 131.190486 
L 124.900156 126.213324 
L 126.23965 123.590828 
L 127.811204 120.90853 
L 129.630512 118.156237 
L 131.71575 115.340895 
L 134.087361 112.478525 
L 136.767727 109.618639 
L 138.737124 107.758864 
L 140.860518 105.976741 
L 143.14418 104.306179 
L 145.593351 102.773195 
L 148.212879 101.389776 
L 151.006362 100.153394 
L 153.975718 99.050739 
L 157.120981 98.069321 
L 160.440396 97.212825 
L 163.928376 96.517389 
L 167.578034 96.052229 
L 171.37872 95.894984 
L 175.316205 96.087088 
L 179.374475 96.605939 
L 183.533312 97.380649 
L 189.905675 98.870244 
L 196.362396 100.684502 
L 200.664046 102.108854 
L 204.928618 103.746293 
L 209.124106 105.614263 
L 213.220638 107.698881 
L 217.187876 109.950486 
L 222.837575 113.479515 
L 229.684615 118.1176 
L 234.225528 121.419411 
L 238.214579 124.586326 
L 241.635622 127.633027 
L 244.493557 130.523885 
L 246.811179 133.193796 
L 248.626339 135.586669 
L 249.987781 137.674065 
L 250.94904 139.453903 
L 251.567394 140.942968 
L 251.898697 142.167914 
L 251.99504 143.158965 
L 251.903152 143.947781 
L 251.557432 144.737043 
L 251.026831 145.287705 
L 250.370392 145.65803 
L 249.436346 145.939695 
L 248.008323 146.118122 
L 245.643778 146.145654 
L 238.581097 145.871001 
L 232.359915 145.687368 
L 232.359915 145.687368 
" clip-path="url(#p5d668836e7)" style="fill: none; stroke: #1f77b4; stroke-width: 2; stroke-linecap: square"/>
   </g>
   <g id="line2d_18">
    <path d="M 362.261947 18.867048 
L 353.08449 19.386989 
L 346.663153 19.922914 
L 339.429119 20.77096 
L 334.110562 21.61581 
L 328.370223 22.80331 
L 325.337458 23.571321 
L 322.195037 24.486979 
L 318.942266 25.579012 
L 315.579606 26.880405 
L 312.107612 28.427891 
L 308.528314 30.260457 
L 304.843673 32.417757 
L 301.057609 34.934782 
L 297.17276 37.838471 
L 293.194295 41.137877 
L 289.127881 44.816799 
L 284.980057 48.827459 
L 263.279557 70.678464 
L 249.821256 83.664383 
L 245.322455 88.257423 
L 236.3693 97.953802 
L 223.197945 112.614635 
L 214.700237 121.514573 
L 206.502466 129.563015 
L 191.191304 144.0923 
L 184.140154 150.523576 
L 177.513023 156.164425 
L 171.310464 160.980105 
L 165.52574 165.039062 
L 160.145111 168.446744 
L 155.146959 171.314824 
L 150.512135 173.742706 
L 144.185137 176.73373 
L 140.347399 178.319153 
L 138.5335 178.748207 
L 136.785687 178.35807 
L 135.101466 178.664501 
L 133.477499 179.434177 
L 131.911461 179.652199 
L 130.400818 179.660576 
L 127.536387 179.3524 
L 124.865457 178.693813 
L 120.041021 177.07605 
L 118.93191 176.625973 
L 117.85826 176.059973 
L 116.818671 175.326591 
L 115.811388 174.415601 
L 109.557169 167.682602 
L 107.238665 164.452446 
L 105.097486 161.352137 
L 103.756762 159.078238 
L 101.860424 155.211916 
L 100.085014 151.498858 
L 99.517356 150.931209 
L 98.414464 148.516576 
L 96.834397 145.267224 
L 94.848062 141.472779 
L 93.899591 139.317782 
L 92.97733 136.928719 
L 92.525478 136.1026 
L 92.079342 136.249713 
L 91.638865 134.15099 
L 91.20364 132.85278 
L 90.348266 131.190486 
L 89.100071 128.825911 
L 86.328091 122.704667 
L 84.084247 117.224486 
L 81.252964 109.618639 
L 78.91443 103.521349 
L 77.636787 100.75377 
L 76.404298 98.545234 
L 75.220116 96.841266 
L 74.647455 96.250879 
L 74.088374 95.931209 
L 73.543507 95.947222 
L 73.013283 96.309453 
L 72.498261 96.966521 
L 71.755692 98.33748 
L 71.050245 100.04118 
L 70.383402 102.108854 
L 69.756299 104.651555 
L 68.983602 108.808096 
L 67.962975 115.827445 
L 66.629317 126.632138 
L 65.404153 138.893933 
L 64.623351 145.791001 
L 64.486325 146.156745 
L 64.445324 146.105974 
L 64.362037 145.687368 
L 64.362037 145.687368 
" clip-path="url(#p5d668836e7)" style="fill: none; stroke: #ff7f0e; stroke-width: 2; stroke-linecap: square"/>
   </g>
   <g id="patch_3">
    <path d="M 49.404673 187.701556 
L 49.404673 10.8 
" style="fill: none; stroke: #000000; stroke-width: 0.8; stroke-linejoin: miter; stroke-linecap: square"/>
   </g>
   <g id="patch_4">
    <path d="M 377.742964 187.701556 
L 377.742964 10.8 
" style="fill: none; stroke: #000000; stroke-width: 0.8; stroke-linejoin: miter; stroke-linecap: square"/>
   </g>
   <g id="patch_5">
    <path d="M 49.404673 187.701556 
L 377.742964 187.701556 
" style="fill: none; stroke: #000000; stroke-width: 0.8; stroke-linejoin: miter; stroke-linecap: square"/>
   </g>
   <g id="patch_6">
    <path d="M 49.404673 10.8 
L 377.742964 10.8 
" style="fill: none; stroke: #000000; stroke-width: 0.8; stroke-linejoin: miter; stroke-linecap: square"/>
   </g>
   <g id="text_13">
    <!-- $\mathbf{s}$ -->
    <g style="fill: #ff7f0e" transform="translate(142.601043 223.081867) scale(0.24 -0.24)">
     <defs>
      <path id="CMBX12-73" d="M 2413 2715 
C 2413 2836 2413 2880 2317 2880 
C 2278 2880 2266 2880 2170 2823 
C 2144 2804 2074 2759 2042 2740 
C 1862 2842 1626 2880 1395 2880 
C 1203 2880 243 2880 243 2056 
C 243 1389 1037 1250 1235 1218 
C 1408 1187 1619 1148 1645 1148 
C 1901 1091 2157 932 2157 666 
C 2157 178 1574 178 1440 178 
C 1114 178 710 279 531 896 
C 493 1023 486 1023 378 1023 
C 243 1023 243 1004 243 858 
L 243 132 
C 243 12 243 -32 339 -32 
C 384 -32 397 -32 525 70 
L 691 191 
C 979 -32 1325 -32 1440 -32 
C 1792 -32 2592 44 2592 888 
C 2592 1192 2426 1402 2298 1516 
C 2035 1731 1818 1770 1472 1833 
C 1062 1903 678 1973 678 2277 
C 678 2689 1248 2689 1382 2689 
C 2093 2689 2131 2245 2144 2087 
C 2150 2005 2202 2005 2278 2005 
C 2413 2005 2413 2024 2413 2170 
L 2413 2715 
z
" transform="scale(0.015625)"/>
     </defs>
     <use xlink:href="#CMBX12-73" transform="scale(0.996264)"/>
    </g>
   </g>
   <g id="legend_1"/>
  </g>
 </g>
 <defs>
  <clipPath id="p5d668836e7">
   <rect x="49.404673" y="10.8" width="328.33829" height="176.901556"/>
  </clipPath>
 </defs>
</svg>
