<?xml version="1.0" encoding="UTF-8" standalone="no"?>
<svg
   width="388.542964pt"
   height="240.132758pt"
   viewBox="0 0 388.542964 240.132758"
   version="1.1"
   id="svg107"
   sodipodi:docname="Result_phi_s_s.svg"
   inkscape:version="1.3 (0e150ed6c4, 2023-07-21)"
   inkscape:export-filename="Result_phi_s_s.pdf"
   inkscape:export-xdpi="96"
   inkscape:export-ydpi="96"
   xmlns:inkscape="http://www.inkscape.org/namespaces/inkscape"
   xmlns:sodipodi="http://sodipodi.sourceforge.net/DTD/sodipodi-0.dtd"
   xmlns:xlink="http://www.w3.org/1999/xlink"
   xmlns="http://www.w3.org/2000/svg"
   xmlns:svg="http://www.w3.org/2000/svg"
   xmlns:rdf="http://www.w3.org/1999/02/22-rdf-syntax-ns#"
   xmlns:cc="http://creativecommons.org/ns#"
   xmlns:dc="http://purl.org/dc/elements/1.1/">
  <sodipodi:namedview
     id="namedview107"
     pagecolor="#ffffff"
     bordercolor="#000000"
     borderopacity="0.25"
     inkscape:showpageshadow="2"
     inkscape:pageopacity="0.0"
     inkscape:pagecheckerboard="0"
     inkscape:deskcolor="#d1d1d1"
     inkscape:document-units="pt"
     inkscape:zoom="2.536399"
     inkscape:cx="259.02865"
     inkscape:cy="160.26658"
     inkscape:window-width="2560"
     inkscape:window-height="1494"
     inkscape:window-x="-11"
     inkscape:window-y="-11"
     inkscape:window-maximized="1"
     inkscape:current-layer="axes_1" />
  <metadata
     id="metadata1">
    <rdf:RDF>
      <cc:Work>
        <dc:type
           rdf:resource="http://purl.org/dc/dcmitype/StillImage" />
        <dc:date>2024-12-10T14:52:09.123044</dc:date>
        <dc:format>image/svg+xml</dc:format>
        <dc:creator>
          <cc:Agent>
            <dc:title>Matplotlib v3.7.5, https://matplotlib.org/</dc:title>
          </cc:Agent>
        </dc:creator>
      </cc:Work>
    </rdf:RDF>
  </metadata>
  <defs
     id="defs1">
    <style
       type="text/css"
       id="style1">*{stroke-linejoin: round; stroke-linecap: butt}</style>
  </defs>
  <g
     id="figure_1">
    <g
       id="patch_1">
      <path
         d="M 0 240.132758  L 388.542964 240.132758  L 388.542964 0  L 0 0  z "
         style="fill: #ffffff"
         id="path1" />
    </g>
    <g
       id="axes_1">
      <g
         id="patch_2">
        <path
           d="M 49.404673 187.701556  L 377.742964 187.701556  L 377.742964 10.8  L 49.404673 10.8  z "
           style="fill: #ffffff"
           id="path2" />
      </g>
      <g
         id="matplotlib.axis_1">
        <g
           id="xtick_1">
          <g
             id="line2d_1">
            <defs
               id="defs2">
              <path
                 id="m65e8cca9bf"
                 d="M 0 0  L 0 3.5  "
                 style="stroke: #000000; stroke-width: 0.8" />
            </defs>
            <g
               id="g2">
              <use
                 xlink:href="#m65e8cca9bf"
                 x="64.151802"
                 y="187.701556"
                 style="stroke: #000000; stroke-width: 0.8"
                 id="use2" />
            </g>
          </g>
          <g
             id="text_1">
            <!-- $\mathdefault{0.0}$ -->
            <g
               transform="translate(55.426511 204.387432) scale(0.14 -0.14)"
               id="g5">
              <defs
                 id="defs3">
                <path
                   id="CMR17-30"
                   d="M 2688 2025  C 2688 2416 2682 3080 2413 3591  C 2176 4039 1798 4198 1466 4198  C 1158 4198 768 4058 525 3597  C 269 3118 243 2524 243 2025  C 243 1661 250 1106 448 619  C 723 -39 1216 -128 1466 -128  C 1760 -128 2208 -7 2470 600  C 2662 1042 2688 1559 2688 2025  z M 1466 -26  C 1056 -26 813 325 723 812  C 653 1188 653 1738 653 2096  C 653 2588 653 2997 736 3387  C 858 3929 1216 4096 1466 4096  C 1728 4096 2067 3923 2189 3400  C 2272 3036 2278 2607 2278 2096  C 2278 1680 2278 1169 2202 792  C 2067 95 1690 -26 1466 -26  z "
                   transform="scale(0.015625)" />
                <path
                   id="CMMI12-3a"
                   d="M 1178 307  C 1178 492 1024 619 870 619  C 685 619 557 466 557 313  C 557 128 710 0 864 0  C 1050 0 1178 153 1178 307  z "
                   transform="scale(0.015625)" />
              </defs>
              <use
                 xlink:href="#CMR17-30"
                 transform="scale(0.996264)"
                 id="use3" />
              <use
                 xlink:href="#CMMI12-3a"
                 transform="translate(45.690477 0) scale(0.996264)"
                 id="use4" />
              <use
                 xlink:href="#CMR17-30"
                 transform="translate(72.787654 0) scale(0.996264)"
                 id="use5" />
            </g>
          </g>
        </g>
        <g
           id="xtick_2">
          <g
             id="line2d_2">
            <g
               id="g6">
              <use
                 xlink:href="#m65e8cca9bf"
                 x="124.058639"
                 y="187.701556"
                 style="stroke: #000000; stroke-width: 0.8"
                 id="use6" />
            </g>
          </g>
          <g
             id="text_2">
            <!-- $\mathdefault{0.2}$ -->
            <g
               transform="translate(115.333348 204.387432) scale(0.14 -0.14)"
               id="g9">
              <defs
                 id="defs6">
                <path
                   id="CMR17-32"
                   d="M 2669 989  L 2554 989  C 2490 536 2438 459 2413 420  C 2381 369 1920 369 1830 369  L 602 369  C 832 619 1280 1072 1824 1597  C 2214 1967 2669 2402 2669 3035  C 2669 3790 2067 4224 1395 4224  C 691 4224 262 3604 262 3030  C 262 2780 448 2748 525 2748  C 589 2748 781 2787 781 3010  C 781 3207 614 3264 525 3264  C 486 3264 448 3258 422 3245  C 544 3790 915 4058 1306 4058  C 1862 4058 2227 3617 2227 3035  C 2227 2479 1901 2000 1536 1584  L 262 146  L 262 0  L 2515 0  L 2669 989  z "
                   transform="scale(0.015625)" />
              </defs>
              <use
                 xlink:href="#CMR17-30"
                 transform="scale(0.996264)"
                 id="use7" />
              <use
                 xlink:href="#CMMI12-3a"
                 transform="translate(45.690477 0) scale(0.996264)"
                 id="use8" />
              <use
                 xlink:href="#CMR17-32"
                 transform="translate(72.787654 0) scale(0.996264)"
                 id="use9" />
            </g>
          </g>
        </g>
        <g
           id="xtick_3">
          <g
             id="line2d_3">
            <g
               id="g10">
              <use
                 xlink:href="#m65e8cca9bf"
                 x="183.965476"
                 y="187.701556"
                 style="stroke: #000000; stroke-width: 0.8"
                 id="use10" />
            </g>
          </g>
          <g
             id="text_3">
            <!-- $\mathdefault{0.4}$ -->
            <g
               transform="translate(175.240185 204.387432) scale(0.14 -0.14)"
               id="g13">
              <defs
                 id="defs10">
                <path
                   id="CMR17-34"
                   d="M 2150 4122  C 2150 4256 2144 4256 2029 4256  L 128 1254  L 128 1088  L 1779 1088  L 1779 457  C 1779 224 1766 160 1318 160  L 1197 160  L 1197 0  C 1402 0 1747 0 1965 0  C 2182 0 2528 0 2733 0  L 2733 160  L 2611 160  C 2163 160 2150 224 2150 457  L 2150 1088  L 2803 1088  L 2803 1254  L 2150 1254  L 2150 4122  z M 1798 3703  L 1798 1254  L 256 1254  L 1798 3703  z "
                   transform="scale(0.015625)" />
              </defs>
              <use
                 xlink:href="#CMR17-30"
                 transform="scale(0.996264)"
                 id="use11" />
              <use
                 xlink:href="#CMMI12-3a"
                 transform="translate(45.690477 0) scale(0.996264)"
                 id="use12" />
              <use
                 xlink:href="#CMR17-34"
                 transform="translate(72.787654 0) scale(0.996264)"
                 id="use13" />
            </g>
          </g>
        </g>
        <g
           id="xtick_4">
          <g
             id="line2d_4">
            <g
               id="g14">
              <use
                 xlink:href="#m65e8cca9bf"
                 x="243.872312"
                 y="187.701556"
                 style="stroke: #000000; stroke-width: 0.8"
                 id="use14" />
            </g>
          </g>
          <g
             id="text_4">
            <!-- $\mathdefault{0.6}$ -->
            <g
               transform="translate(235.147021 204.387432) scale(0.14 -0.14)"
               id="g17">
              <defs
                 id="defs14">
                <path
                   id="CMR17-36"
                   d="M 678 2176  C 678 3690 1395 4032 1811 4032  C 1946 4032 2272 4009 2400 3776  C 2298 3776 2106 3776 2106 3553  C 2106 3381 2246 3323 2336 3323  C 2394 3323 2566 3348 2566 3560  C 2566 3954 2246 4179 1805 4179  C 1043 4179 243 3390 243 1984  C 243 253 966 -128 1478 -128  C 2099 -128 2688 427 2688 1283  C 2688 2081 2170 2662 1517 2662  C 1126 2662 838 2407 678 1960  L 678 2176  z M 1478 25  C 691 25 691 1200 691 1436  C 691 1896 909 2560 1504 2560  C 1613 2560 1926 2560 2138 2120  C 2253 1870 2253 1609 2253 1289  C 2253 944 2253 690 2118 434  C 1978 171 1773 25 1478 25  z "
                   transform="scale(0.015625)" />
              </defs>
              <use
                 xlink:href="#CMR17-30"
                 transform="scale(0.996264)"
                 id="use15" />
              <use
                 xlink:href="#CMMI12-3a"
                 transform="translate(45.690477 0) scale(0.996264)"
                 id="use16" />
              <use
                 xlink:href="#CMR17-36"
                 transform="translate(72.787654 0) scale(0.996264)"
                 id="use17" />
            </g>
          </g>
        </g>
        <g
           id="xtick_5">
          <g
             id="line2d_5">
            <g
               id="g18">
              <use
                 xlink:href="#m65e8cca9bf"
                 x="303.779149"
                 y="187.701556"
                 style="stroke: #000000; stroke-width: 0.8"
                 id="use18" />
            </g>
          </g>
          <g
             id="text_5">
            <!-- $\mathdefault{0.8}$ -->
            <g
               transform="translate(295.053858 204.387432) scale(0.14 -0.14)"
               id="g21">
              <defs
                 id="defs18">
                <path
                   id="CMR17-38"
                   d="M 1741 2264  C 2144 2467 2554 2773 2554 3263  C 2554 3841 1990 4179 1472 4179  C 890 4179 378 3759 378 3180  C 378 3021 416 2747 666 2505  C 730 2442 998 2251 1171 2130  C 883 1983 211 1634 211 934  C 211 279 838 -128 1459 -128  C 2144 -128 2720 362 2720 1010  C 2720 1590 2330 1857 2074 2029  L 1741 2264  z M 902 2822  C 851 2854 595 3051 595 3351  C 595 3739 998 4032 1459 4032  C 1965 4032 2336 3676 2336 3262  C 2336 2669 1670 2331 1638 2331  C 1632 2331 1626 2331 1574 2370  L 902 2822  z M 2080 1519  C 2176 1449 2483 1240 2483 851  C 2483 381 2010 25 1472 25  C 890 25 448 438 448 940  C 448 1443 838 1862 1280 2060  L 2080 1519  z "
                   transform="scale(0.015625)" />
              </defs>
              <use
                 xlink:href="#CMR17-30"
                 transform="scale(0.996264)"
                 id="use19" />
              <use
                 xlink:href="#CMMI12-3a"
                 transform="translate(45.690477 0) scale(0.996264)"
                 id="use20" />
              <use
                 xlink:href="#CMR17-38"
                 transform="translate(72.787654 0) scale(0.996264)"
                 id="use21" />
            </g>
          </g>
        </g>
        <g
           id="xtick_6">
          <g
             id="line2d_6">
            <g
               id="g22">
              <use
                 xlink:href="#m65e8cca9bf"
                 x="363.685986"
                 y="187.701556"
                 style="stroke: #000000; stroke-width: 0.8"
                 id="use22" />
            </g>
          </g>
          <g
             id="text_6">
            <!-- $\mathdefault{1.0}$ -->
            <g
               transform="translate(354.960695 204.387432) scale(0.14 -0.14)"
               id="g25">
              <defs
                 id="defs22">
                <path
                   id="CMR17-31"
                   d="M 1702 4058  C 1702 4192 1696 4192 1606 4192  C 1357 3916 979 3827 621 3827  C 602 3827 570 3827 563 3808  C 557 3795 557 3782 557 3648  C 755 3648 1088 3686 1344 3839  L 1344 461  C 1344 236 1331 160 781 160  L 589 160  L 589 0  C 896 0 1216 0 1523 0  C 1830 0 2150 0 2458 0  L 2458 160  L 2266 160  C 1715 160 1702 230 1702 458  L 1702 4058  z "
                   transform="scale(0.015625)" />
              </defs>
              <use
                 xlink:href="#CMR17-31"
                 transform="scale(0.996264)"
                 id="use23" />
              <use
                 xlink:href="#CMMI12-3a"
                 transform="translate(45.690477 0) scale(0.996264)"
                 id="use24" />
              <use
                 xlink:href="#CMR17-30"
                 transform="translate(72.787654 0) scale(0.996264)"
                 id="use25" />
            </g>
          </g>
        </g>
      </g>
      <g
         id="matplotlib.axis_2">
        <g
           id="ytick_1">
          <g
             id="line2d_7">
            <defs
               id="defs26">
              <path
                 id="m26611f009d"
                 d="M 0 0  L -3.5 0  "
                 style="stroke: #000000; stroke-width: 0.8" />
            </defs>
            <g
               id="g27">
              <use
                 xlink:href="#m26611f009d"
                 x="49.404673"
                 y="161.373647"
                 style="stroke: #000000; stroke-width: 0.8"
                 id="use27" />
            </g>
          </g>
          <g
             id="text_8">
            <!-- $\mathdefault{5}$ -->
            <g
               transform="translate(35.576185 166.216586) scale(0.14 -0.14)"
               id="g28">
              <defs
                 id="defs27">
                <path
                   id="CMR17-35"
                   d="M 730 3692  C 794 3666 1056 3584 1325 3584  C 1920 3584 2246 3911 2432 4100  C 2432 4157 2432 4192 2394 4192  C 2387 4192 2374 4192 2323 4163  C 2099 4058 1837 3973 1517 3973  C 1325 3973 1037 3999 723 4139  C 653 4171 640 4171 634 4171  C 602 4171 595 4164 595 4037  L 595 2203  C 595 2089 595 2057 659 2057  C 691 2057 704 2070 736 2114  C 941 2401 1222 2522 1542 2522  C 1766 2522 2246 2382 2246 1289  C 2246 1085 2246 715 2054 421  C 1894 159 1645 25 1370 25  C 947 25 518 320 403 814  C 429 807 480 795 506 795  C 589 795 749 840 749 1038  C 749 1210 627 1280 506 1280  C 358 1280 262 1190 262 1011  C 262 454 704 -128 1382 -128  C 2042 -128 2669 440 2669 1264  C 2669 2030 2170 2624 1549 2624  C 1222 2624 947 2503 730 2274  L 730 3692  z "
                   transform="scale(0.015625)" />
              </defs>
              <use
                 xlink:href="#CMR17-35"
                 transform="scale(0.996264)"
                 id="use28" />
            </g>
          </g>
        </g>
        <g
           id="ytick_2">
          <g
             id="line2d_8">
            <g
               id="g29">
              <use
                 xlink:href="#m26611f009d"
                 x="49.404673"
                 y="127.532131"
                 style="stroke: #000000; stroke-width: 0.8"
                 id="use29" />
            </g>
          </g>
          <g
             id="text_9">
            <!-- $\mathdefault{10}$ -->
            <g
               transform="translate(28.747696 132.375069) scale(0.14 -0.14)"
               id="g31">
              <use
                 xlink:href="#CMR17-31"
                 transform="scale(0.996264)"
                 id="use30" />
              <use
                 xlink:href="#CMR17-30"
                 transform="translate(45.690477 0) scale(0.996264)"
                 id="use31" />
            </g>
          </g>
        </g>
        <g
           id="ytick_3">
          <g
             id="line2d_9">
            <g
               id="g32">
              <use
                 xlink:href="#m26611f009d"
                 x="49.404673"
                 y="93.690614"
                 style="stroke: #000000; stroke-width: 0.8"
                 id="use32" />
            </g>
          </g>
          <g
             id="text_10">
            <!-- $\mathdefault{15}$ -->
            <g
               transform="translate(28.747696 98.533552) scale(0.14 -0.14)"
               id="g34">
              <use
                 xlink:href="#CMR17-31"
                 transform="scale(0.996264)"
                 id="use33" />
              <use
                 xlink:href="#CMR17-35"
                 transform="translate(45.690477 0) scale(0.996264)"
                 id="use34" />
            </g>
          </g>
        </g>
        <g
           id="ytick_4">
          <g
             id="line2d_10">
            <g
               id="g35">
              <use
                 xlink:href="#m26611f009d"
                 x="49.404673"
                 y="59.849097"
                 style="stroke: #000000; stroke-width: 0.8"
                 id="use35" />
            </g>
          </g>
          <g
             id="text_11">
            <!-- $\mathdefault{20}$ -->
            <g
               transform="translate(28.747696 64.692035) scale(0.14 -0.14)"
               id="g37">
              <use
                 xlink:href="#CMR17-32"
                 transform="scale(0.996264)"
                 id="use36" />
              <use
                 xlink:href="#CMR17-30"
                 transform="translate(45.690477 0) scale(0.996264)"
                 id="use37" />
            </g>
          </g>
        </g>
        <g
           id="ytick_5">
          <g
             id="line2d_11">
            <g
               id="g38">
              <use
                 xlink:href="#m26611f009d"
                 x="49.404673"
                 y="26.00758"
                 style="stroke: #000000; stroke-width: 0.8"
                 id="use38" />
            </g>
          </g>
          <g
             id="text_12">
            <!-- $\mathdefault{25}$ -->
            <g
               transform="translate(28.747696 30.850519) scale(0.14 -0.14)"
               id="g40">
              <use
                 xlink:href="#CMR17-32"
                 transform="scale(0.996264)"
                 id="use39" />
              <use
                 xlink:href="#CMR17-35"
                 transform="translate(45.690477 0) scale(0.996264)"
                 id="use40" />
            </g>
          </g>
        </g>
        <g
           id="text_13">
          <!-- $\phi(P, S)$ -->
          <g
             transform="translate(21.260772 120.859002) rotate(-90) scale(0.14 -0.14)"
             id="g46">
            <defs
               id="defs40">
              <path
                 id="CMMI12-1e"
                 d="M 2752 4390  C 2752 4448 2707 4448 2688 4448  C 2630 4448 2624 4435 2598 4326  L 2253 2939  C 2234 2856 2227 2849 2221 2843  C 2214 2830 2170 2824 2157 2824  C 1107 2734 301 1864 301 1057  C 301 361 832 -64 1498 -64  C 1446 -261 1402 -463 1350 -659  C 1261 -995 1210 -1204 1210 -1229  C 1210 -1241 1210 -1280 1274 -1280  C 1293 -1280 1318 -1280 1331 -1254  C 1344 -1241 1382 -1089 1408 -1008  L 1645 -64  C 2739 -64 3571 854 3571 1680  C 3571 2343 3085 2816 2374 2816  L 2752 4390  z M 2336 2701  C 2758 2701 3181 2463 3181 1828  C 3181 1097 2675 128 1677 50  L 2336 2701  z M 1530 50  C 1216 50 691 220 691 938  C 691 1761 1274 2676 2195 2676  L 1530 50  z "
                 transform="scale(0.015625)" />
              <path
                 id="CMR17-28"
                 d="M 1958 -1561  C 1958 -1555 1958 -1542 1939 -1523  C 1645 -1224 858 -407 858 1581  C 858 3569 1632 4379 1946 4697  C 1946 4704 1958 4717 1958 4736  C 1958 4755 1939 4768 1914 4768  C 1843 4768 1299 4296 986 3594  C 666 2887 576 2199 576 1588  C 576 1128 621 351 1005 -471  C 1312 -1135 1837 -1600 1914 -1600  C 1946 -1600 1958 -1587 1958 -1561  z "
                 transform="scale(0.015625)" />
              <path
                 id="CMMI12-50"
                 d="M 1894 2023  L 2970 2023  C 3853 2023 4736 2673 4736 3401  C 4736 3898 4314 4352 3507 4352  L 1530 4352  C 1408 4352 1350 4352 1350 4231  C 1350 4167 1408 4167 1504 4167  C 1894 4167 1894 4116 1894 4046  C 1894 4034 1894 3995 1869 3899  L 1005 472  C 947 249 934 185 486 185  C 365 185 301 185 301 70  C 301 0 358 0 397 0  C 518 0 646 0 768 0  L 1517 0  C 1638 0 1773 0 1894 0  C 1946 0 2016 0 2016 121  C 2016 185 1958 185 1862 185  C 1478 185 1472 230 1472 293  C 1472 325 1478 369 1485 401  L 1894 2023  z M 2355 3930  C 2413 4167 2438 4167 2688 4167  L 3322 4167  C 3802 4167 4198 4013 4198 3535  C 4198 3369 4115 2827 3821 2534  C 3712 2419 3405 2176 2822 2176  L 1920 2176  L 2355 3930  z "
                 transform="scale(0.015625)" />
              <path
                 id="CMMI12-3b"
                 d="M 1248 -31  C 1248 343 1126 619 864 619  C 659 619 557 453 557 313  C 557 172 653 0 870 0  C 954 0 1024 26 1082 83  C 1094 96 1101 96 1107 96  C 1120 96 1120 5 1120 -27  C 1120 -240 1082 -659 710 -1080  C 640 -1157 640 -1170 640 -1183  C 640 -1216 672 -1248 704 -1248  C 755 -1248 1248 -771 1248 -31  z "
                 transform="scale(0.015625)" />
              <path
                 id="CMMI12-53"
                 d="M 4064 4423  C 4064 4480 4019 4480 4006 4480  C 3981 4480 3974 4474 3898 4378  C 3859 4333 3597 4001 3590 3995  C 3379 4410 2957 4480 2688 4480  C 1875 4480 1139 3743 1139 3025  C 1139 2549 1427 2269 1741 2161  C 1811 2135 2189 2033 2381 1989  C 2707 1900 2790 1875 2925 1735  C 2950 1703 3078 1557 3078 1258  C 3078 667 2528 57 1888 57  C 1363 57 781 280 781 991  C 781 1112 806 1265 826 1328  C 826 1348 832 1378 832 1391  C 832 1417 819 1449 768 1449  C 710 1449 704 1436 678 1328  L 352 24  C 352 18 326 -64 326 -71  C 326 -128 378 -128 390 -128  C 416 -128 422 -122 499 -26  L 794 356  C 947 126 1280 -128 1875 -128  C 2701 -128 3456 666 3456 1460  C 3456 1728 3392 1963 3149 2197  C 3014 2331 2899 2363 2310 2516  C 1882 2630 1824 2649 1709 2751  C 1600 2858 1517 3011 1517 3227  C 1517 3761 2061 4308 2669 4308  C 3296 4308 3590 3926 3590 3323  C 3590 3158 3558 2986 3558 2961  C 3558 2903 3610 2903 3629 2903  C 3686 2903 3693 2922 3718 3024  L 4064 4423  z "
                 transform="scale(0.015625)" />
              <path
                 id="CMR17-29"
                 d="M 1683 1581  C 1683 2040 1638 2817 1254 3639  C 947 4303 422 4768 346 4768  C 326 4768 301 4761 301 4729  C 301 4717 307 4710 314 4697  C 621 4378 1402 3568 1402 1584  C 1402 -407 627 -1217 314 -1537  C 307 -1549 301 -1556 301 -1568  C 301 -1600 326 -1600 346 -1600  C 416 -1600 960 -1128 1274 -426  C 1594 281 1683 969 1683 1581  z "
                 transform="scale(0.015625)" />
            </defs>
            <use
               xlink:href="#CMMI12-1e"
               transform="scale(0.996264)"
               id="use41" />
            <use
               xlink:href="#CMR17-28"
               transform="translate(57.73418 0) scale(0.996264)"
               id="use42" />
            <use
               xlink:href="#CMMI12-50"
               transform="translate(93.014948 0) scale(0.996264)"
               id="use43" />
            <use
               xlink:href="#CMMI12-3b"
               transform="translate(158.601898 0) scale(0.996264)"
               id="use44" />
            <use
               xlink:href="#CMMI12-53"
               transform="translate(202.30348 0) scale(0.996264)"
               id="use45" />
            <use
               xlink:href="#CMR17-29"
               transform="translate(268.09792 0) scale(0.996264)"
               id="use46" />
          </g>
        </g>
      </g>
      <g
         id="line2d_13">
        <path
           d="M 362.818496 36.841219  L 353.708039 37.295866  L 344.993862 37.976288  L 337.468664 38.852573  L 331.934504 39.734654  L 325.964964 40.983262  L 322.81371 41.793786  L 319.550656 42.761754  L 316.176177 43.916575  L 312.691059 45.291425  L 309.096892 46.921923  L 305.396031 48.84353  L 301.59219 51.088249  L 297.687905 53.680983  L 293.688782 56.629529  L 289.600176 59.91979  L 285.428818 63.508209  L 263.59176 83.046151  L 250.04007 94.671098  L 245.508962 98.790821  L 236.490915 107.482177  L 223.223491 120.571921  L 214.664872 128.488596  L 206.410568 135.651311  L 191.004003 148.619822  L 183.915702 154.361231  L 177.259146 159.398624  L 171.034915 163.702549  L 165.236119 167.329019  L 159.848466 170.36601  L 154.849816 172.910041  L 150.2202 175.049565  L 143.910031 177.656894  L 140.088328 179.013337  L 138.283576 179.345366  L 136.545619 178.914164  L 134.871761 179.026924  L 133.258646 179.536548  L 131.703947 179.660576  L 128.759206 179.484271  L 126.018254 178.936397  L 123.463248 178.130686  L 117.787454 176.033998  L 116.760487 175.449049  L 114.802042 173.915264  L 112.083341 171.551592  L 109.59725 169.630829  L 103.890101 163.985219  L 102.634763 162.31457  L 100.856481 159.402781  L 100.289249 158.473435  L 99.189885 157.992972  L 97.621212 154.994498  L 96.139079 152.792371  L 93.836392 149.550307  L 92.967621 148.214457  L 92.54347 147.870241  L 92.126059 149.2505  L 91.715011 147.266101  L 91.310211 146.333879  L 90.518724 145.398992  L 89.750495 144.612063  L 88.279272 142.488216  L 86.221661 139.694087  L 84.323093 137.422419  L 82.281296 135.344588  L 80.657434 133.606748  L 79.63049 132.172649  L 78.642633 130.387354  L 77.689936 128.235628  L 76.320319 124.484762  L 71.869916 111.53042  L 71.003284 109.508035  L 70.515041 108.827303  L 70.203486 108.685169  L 69.903441 108.798973  L 69.615088 109.146388  L 69.204714 110.037247  L 68.698809 111.80576  L 68.238804 114.208363  L 67.724523 118.07442  L 66.94722 126.070406  L 65.230729 143.819971  L 64.52516 149.43246  L 64.377161 149.820155  L 64.34021 149.770066  L 64.329141 149.734972  L 64.329141 149.734972  "
           clip-path="url(#pab43c07959)"
           style="fill:none;stroke:#000000;stroke-width:3;stroke-linecap:square;stroke-opacity:1"
           id="path47" />
      </g>
      <g
         id="line2d_17">
        <path
           d="M 362.818496 38.633188  L 353.708039 41.583748  L 344.993862 44.622996  L 337.468664 47.431126  L 329.004902 50.80717  L 319.550656 54.869665  L 312.691059 58.021807  L 305.396031 61.573201  L 297.687905 65.558756  L 289.600176 70.008485  L 281.180726 74.941584  L 272.487848 80.363348  L 263.59176 86.257935  L 254.57141 92.583404  L 245.508962 99.269551  L 236.490915 106.213385  L 223.223491 116.824173  L 198.510641 136.810528  L 191.004003 142.573838  L 183.915702 147.713742  L 177.259146 152.180995  L 171.034915 155.965245  L 165.236119 159.086946  L 159.848466 161.590695  L 154.849816 163.537379  L 150.2202 164.993191  L 145.932981 166.027643  L 141.962781 166.706626  L 138.283576 167.090616  L 134.871761 167.233066  L 131.703947 167.18034  L 127.364605 166.819732  L 123.463248 166.214057  L 119.944829 165.443862  L 115.765803 164.261073  L 112.083341 162.986594  L 108.054303 161.35489  L 103.890101 159.422916  L 99.189885 156.964561  L 94.281688 154.112036  L 89.004312 150.757302  L 83.426872 146.934059  L 77.225786 142.4087  L 69.757772 136.667748  L 64.329141 132.354667  L 64.329141 132.354667  "
           clip-path="url(#pab43c07959)"
           style="fill: none; stroke-dasharray: 3,4.95; stroke-dashoffset: 0; stroke: #ff7f0e; stroke-width: 3"
           id="path51" />
      </g>
      <g
         id="line2d_18">
        <path
           d="M 362.818496 18.84098  L 316.176177 53.763204  L 281.180726 79.723372  L 254.57141 99.221727  L 232.024134 115.474283  L 214.664872 127.721494  L 202.413525 136.15728  L 191.004003 143.793555  L 180.532921 150.543688  L 171.034915 156.371069  L 162.492258 161.281712  L 157.300556 164.064097  L 152.490619 166.469207  L 148.035362 168.51664  L 143.910031 170.225427  L 140.088328 171.615627  L 136.545619 172.706664  L 133.258646 173.517367  L 130.204939 174.065969  L 127.364605 174.369597  L 124.718559 174.444635  L 122.250585 174.306566  L 119.944829 173.970161  L 117.787454 173.449494  L 115.765803 172.758022  L 113.867873 171.908371  L 112.083341 170.912776  L 110.40202 169.782455  L 108.054303 167.857664  L 105.891747 165.687042  L 103.890101 163.300153  L 102.028641 160.724095  L 100.289249 157.983512  L 98.133883 154.114314  L 96.139079 150.050867  L 93.836392 144.788175  L 91.310211 138.373844  L 87.924366 129.058158  L 84.323093 119.232462  L 82.562671 114.999148  L 81.186987 112.199804  L 80.138825 110.467179  L 79.131953 109.195702  L 78.401258 108.545663  L 77.689936 108.153523  L 76.996606 108.01463  L 76.320319 108.122089  L 75.660212 108.466837  L 75.016274 109.036928  L 74.182675 110.12234  L 73.378808 111.540218  L 72.419202 113.701323  L 71.342297 116.70809  L 70.052009 121.056589  L 68.579578 126.881956  L 66.723923 135.249774  L 64.329141 147.122267  L 64.329141 147.122267  "
           clip-path="url(#pab43c07959)"
           style="fill: none; stroke-dasharray: 11.1,4.8; stroke-dashoffset: 0; stroke: #ff7f0e; stroke-width: 3"
           id="path52" />
      </g>
      <g
         id="line2d_19">
        <path
           d="M 362.818496 19.46358  L 322.81371 49.498817  L 245.508962 107.637627  L 227.597166 120.831338  L 210.496621 133.131051  L 198.510641 141.476788  L 187.406979 148.905684  L 177.259146 155.335832  L 171.034915 159.052388  L 165.236119 162.316184  L 159.848466 165.138636  L 154.849816 167.538205  L 150.2202 169.534682  L 145.932981 171.152814  L 141.962781 172.417846  L 138.283576 173.355706  L 134.871761 173.991655  L 131.703947 174.350527  L 128.759206 174.455986  L 126.018254 174.330639  L 123.463248 173.995946  L 121.078311 173.472194  L 118.848433 172.778364  L 116.760487 171.932352  L 114.802042 170.950651  L 112.962159 169.848722  L 110.40202 168.00054  L 108.054303 165.955098  L 105.891747 163.748475  L 103.890101 161.410717  L 101.43609 158.133237  L 99.189885 154.717257  L 96.624118 150.315687  L 94.281688 145.836544  L 91.715011 140.458789  L 88.639192 133.490775  L 81.728081 117.56991  L 79.883408 113.983253  L 78.401258 111.598117  L 77.225786 110.131874  L 76.320319 109.318581  L 75.443785 108.838212  L 74.805207 108.702668  L 74.182675 108.762756  L 73.576888 109.019242  L 72.988678 109.470249  L 72.233811 110.364729  L 71.515652 111.572828  L 70.675052 113.469384  L 69.757772 116.188321  L 68.820914 119.733964  L 67.82226 124.456865  L 66.796581 130.429626  L 65.708116 138.156951  L 64.586953 147.807103  L 64.329141 150.294444  L 64.329141 150.294444  "
           clip-path="url(#pab43c07959)"
           style="fill: none; stroke-dasharray: 19.2,4.8,3,4.8; stroke-dashoffset: 0; stroke: #ff7f0e; stroke-width: 3"
           id="path53" />
      </g>
      <g
         id="patch_3">
        <path
           d="M 49.404673 187.701556  L 49.404673 10.8  "
           style="fill: none; stroke: #000000; stroke-width: 0.8; stroke-linejoin: miter; stroke-linecap: square"
           id="path54" />
      </g>
      <g
         id="patch_4">
        <path
           d="M 377.742964 187.701556  L 377.742964 10.8  "
           style="fill: none; stroke: #000000; stroke-width: 0.8; stroke-linejoin: miter; stroke-linecap: square"
           id="path55" />
      </g>
      <g
         id="patch_5">
        <path
           d="M 49.404673 187.701556  L 377.742964 187.701556  "
           style="fill: none; stroke: #000000; stroke-width: 0.8; stroke-linejoin: miter; stroke-linecap: square"
           id="path56" />
      </g>
      <g
         id="patch_6">
        <path
           d="M 49.404673 10.8  L 377.742964 10.8  "
           style="fill: none; stroke: #000000; stroke-width: 0.8; stroke-linejoin: miter; stroke-linecap: square"
           id="path57" />
      </g>
      <g
         id="text_14">
        <!-- $\mathbf{s}$ -->
        <g
           style="fill:#000000;fill-opacity:1"
           transform="matrix(0.24,0,0,-0.24,204.10556,218.05506)"
           id="g57">
          <defs
             id="defs57">
            <path
               id="CMBX12-73"
               d="m 2413,2715 c 0,121 0,165 -96,165 -39,0 -51,0 -147,-57 -26,-19 -96,-64 -128,-83 -180,102 -416,140 -647,140 -192,0 -1152,0 -1152,-824 0,-667 794,-806 992,-838 173,-31 384,-70 410,-70 256,-57 512,-216 512,-482 0,-488 -583,-488 -717,-488 -326,0 -730,101 -909,718 -38,127 -45,127 -153,127 -135,0 -135,-19 -135,-165 V 132 c 0,-120 0,-164 96,-164 45,0 58,0 186,102 l 166,121 c 288,-223 634,-223 749,-223 352,0 1152,76 1152,920 0,304 -166,514 -294,628 -263,215 -480,254 -826,317 -410,70 -794,140 -794,444 0,412 570,412 704,412 711,0 749,-444 762,-602 6,-82 58,-82 134,-82 135,0 135,19 135,165 z"
               transform="scale(0.015625)" />
          </defs>
          <use
             xlink:href="#CMBX12-73"
             transform="scale(0.996264)"
             id="use57"
             style="fill:#000000;fill-opacity:1" />
        </g>
      </g>
      <g
         id="legend_1"
         transform="translate(-3.548337,65.052857)">
        <g
           id="line2d_21"
           transform="translate(107.9286,-21.290026)">
          <path
             d="m 178.86885,55.719897 h 14 14"
             style="fill:none;stroke:#000000;stroke-width:3;stroke-linecap:square;stroke-opacity:1"
             id="path62" />
        </g>
        <g
           id="text_16"
           transform="translate(107.9286,-21.290026)">
          <!-- $\hat{\phi}(S)$ -->
          <g
             transform="matrix(0.14,0,0,-0.14,218.06885,60.619897)"
             id="g67">
            <path
               id="use63"
               d="m 36.971677,95.11667 -12.2665,-13.480697 1.19863,-1.19863 11.06787,10.709838 11.052304,-10.709838 1.19863,1.19863 z"
               style="stroke-width:0.0155666" />
            <use
               xlink:href="#CMMI12-1e"
               transform="scale(0.996264)"
               id="use64" />
            <use
               xlink:href="#CMR17-28"
               transform="matrix(0.996264,0,0,0.996264,57.73418,0)"
               id="use65" />
            <use
               xlink:href="#CMMI12-53"
               transform="matrix(0.996264,0,0,0.996264,93.014948,0)"
               id="use66" />
            <use
               xlink:href="#CMR17-29"
               transform="matrix(0.996264,0,0,0.996264,158.80939,0)"
               id="use67" />
          </g>
        </g>
        <g
           id="line2d_25">
          <path
             d="m 286.0059,52.814183 h 14 14"
             style="fill:none;stroke:#ff7f0e;stroke-width:3;stroke-dasharray:3, 4.95;stroke-dashoffset:0"
             id="path87" />
        </g>
        <g
           id="text_20">
          <!-- $\phi^s_5(S)$ -->
          <g
             transform="matrix(0.14,0,0,-0.14,325.2059,57.714183)"
             id="g93">
            <use
               xlink:href="#CMMI12-1e"
               transform="scale(0.996264)"
               id="use88" />
            <path
               id="use89"
               d="m 73.63231,50.101279 c 1.187729,-0.207035 3.07284,-0.621106 3.48691,-0.697382 0.904418,-0.261518 4.042637,-1.372971 4.042637,-4.718225 0,-2.146629 -1.950491,-7.769271 -10.035763,-7.769271 -1.47104,0 -6.701405,0 -8.096169,3.988153 2.789528,-0.348691 4.184292,1.819731 4.184292,3.367047 0,1.47104 -0.969797,2.233802 -2.364561,2.233802 -1.53642,0 -3.563186,-1.187729 -3.563186,-4.336844 0,-4.129809 4.184292,-6.712302 9.763348,-6.712302 10.602385,0 13.740604,7.791065 13.740604,11.41963 0,1.035177 0,2.985667 -2.233801,5.208572 -1.743455,1.678075 -3.410634,2.026766 -7.180856,2.789528 -1.88511,0.414071 -4.881674,1.046073 -4.881674,4.173395 0,1.394764 1.253109,6.407198 7.878238,6.407198 2.931183,0 5.796987,-1.08966 6.494369,-3.497807 -3.072839,0 -3.214495,-2.647872 -3.214495,-2.713252 0,-1.47104 1.329385,-1.885111 1.950491,-1.885111 0.980693,0 2.931183,0.751865 2.931183,3.650359 0,2.876701 -2.647872,5.829678 -8.085272,5.829678 -9.142242,0 -11.583079,-7.148166 -11.583079,-9.992176 0,-5.284848 5.164985,-6.396301 6.766784,-6.744992 z"
               style="stroke-width:0.0108966" />
            <use
               xlink:href="#CMR17-35"
               transform="matrix(0.697382,0,0,0.697382,57.73418,-24.740171)"
               id="use90" />
            <use
               xlink:href="#CMR17-28"
               transform="matrix(0.996264,0,0,0.996264,90.397201,0)"
               id="use91" />
            <use
               xlink:href="#CMMI12-53"
               transform="matrix(0.996264,0,0,0.996264,125.67797,0)"
               id="use92" />
            <use
               xlink:href="#CMR17-29"
               transform="matrix(0.996264,0,0,0.996264,191.47241,0)"
               id="use93" />
          </g>
        </g>
        <g
           id="line2d_26">
          <path
             d="m 286.0059,73.761879 h 14 14"
             style="fill:none;stroke:#ff7f0e;stroke-width:3;stroke-dasharray:11.1, 4.8;stroke-dashoffset:0"
             id="path93" />
        </g>
        <g
           id="text_21">
          <!-- $\phi^s_{10}(S)$ -->
          <g
             transform="matrix(0.14,0,0,-0.14,325.2059,78.661879)"
             id="g100">
            <use
               xlink:href="#CMMI12-1e"
               transform="scale(0.996264)"
               id="use94" />
            <path
               id="use95"
               d="m 73.63231,50.101279 c 1.187729,-0.207035 3.07284,-0.621106 3.48691,-0.697382 0.904418,-0.261518 4.042637,-1.372971 4.042637,-4.718225 0,-2.146629 -1.950491,-7.769271 -10.035763,-7.769271 -1.47104,0 -6.701405,0 -8.096169,3.988153 2.789528,-0.348691 4.184292,1.819731 4.184292,3.367047 0,1.47104 -0.969797,2.233802 -2.364561,2.233802 -1.53642,0 -3.563186,-1.187729 -3.563186,-4.336844 0,-4.129809 4.184292,-6.712302 9.763348,-6.712302 10.602385,0 13.740604,7.791065 13.740604,11.41963 0,1.035177 0,2.985667 -2.233801,5.208572 -1.743455,1.678075 -3.410634,2.026766 -7.180856,2.789528 -1.88511,0.414071 -4.881674,1.046073 -4.881674,4.173395 0,1.394764 1.253109,6.407198 7.878238,6.407198 2.931183,0 5.796987,-1.08966 6.494369,-3.497807 -3.072839,0 -3.214495,-2.647872 -3.214495,-2.713252 0,-1.47104 1.329385,-1.885111 1.950491,-1.885111 0.980693,0 2.931183,0.751865 2.931183,3.650359 0,2.876701 -2.647872,5.829678 -8.085272,5.829678 -9.142242,0 -11.583079,-7.148166 -11.583079,-9.992176 0,-5.284848 5.164985,-6.396301 6.766784,-6.744992 z"
               style="stroke-width:0.0108966" />
            <use
               xlink:href="#CMR17-31"
               transform="matrix(0.697382,0,0,0.697382,57.73418,-24.740171)"
               id="use96" />
            <use
               xlink:href="#CMR17-30"
               transform="matrix(0.697382,0,0,0.697382,89.717362,-24.740171)"
               id="use97" />
            <use
               xlink:href="#CMR17-28"
               transform="matrix(0.996264,0,0,0.996264,122.19868,0)"
               id="use98" />
            <use
               xlink:href="#CMMI12-53"
               transform="matrix(0.996264,0,0,0.996264,157.47944,0)"
               id="use99" />
            <use
               xlink:href="#CMR17-29"
               transform="matrix(0.996264,0,0,0.996264,223.27388,0)"
               id="use100" />
          </g>
        </g>
        <g
           id="line2d_27">
          <path
             d="m 286.0059,94.709575 h 14 14"
             style="fill:none;stroke:#ff7f0e;stroke-width:3;stroke-dasharray:19.2, 4.8, 3, 4.8;stroke-dashoffset:0"
             id="path100" />
        </g>
        <g
           id="text_22">
          <!-- $\phi^s_{14}(S)$ -->
          <g
             transform="matrix(0.14,0,0,-0.14,325.2059,99.609575)"
             id="g107">
            <use
               xlink:href="#CMMI12-1e"
               transform="scale(0.996264)"
               id="use101" />
            <path
               id="use102"
               d="m 73.63231,50.101279 c 1.187729,-0.207035 3.07284,-0.621106 3.48691,-0.697382 0.904418,-0.261518 4.042637,-1.372971 4.042637,-4.718225 0,-2.146629 -1.950491,-7.769271 -10.035763,-7.769271 -1.47104,0 -6.701405,0 -8.096169,3.988153 2.789528,-0.348691 4.184292,1.819731 4.184292,3.367047 0,1.47104 -0.969797,2.233802 -2.364561,2.233802 -1.53642,0 -3.563186,-1.187729 -3.563186,-4.336844 0,-4.129809 4.184292,-6.712302 9.763348,-6.712302 10.602385,0 13.740604,7.791065 13.740604,11.41963 0,1.035177 0,2.985667 -2.233801,5.208572 -1.743455,1.678075 -3.410634,2.026766 -7.180856,2.789528 -1.88511,0.414071 -4.881674,1.046073 -4.881674,4.173395 0,1.394764 1.253109,6.407198 7.878238,6.407198 2.931183,0 5.796987,-1.08966 6.494369,-3.497807 -3.072839,0 -3.214495,-2.647872 -3.214495,-2.713252 0,-1.47104 1.329385,-1.885111 1.950491,-1.885111 0.980693,0 2.931183,0.751865 2.931183,3.650359 0,2.876701 -2.647872,5.829678 -8.085272,5.829678 -9.142242,0 -11.583079,-7.148166 -11.583079,-9.992176 0,-5.284848 5.164985,-6.396301 6.766784,-6.744992 z"
               style="stroke-width:0.0108966" />
            <use
               xlink:href="#CMR17-31"
               transform="matrix(0.697382,0,0,0.697382,57.73418,-24.740171)"
               id="use103" />
            <use
               xlink:href="#CMR17-34"
               transform="matrix(0.697382,0,0,0.697382,89.717362,-24.740171)"
               id="use104" />
            <use
               xlink:href="#CMR17-28"
               transform="matrix(0.996264,0,0,0.996264,122.19868,0)"
               id="use105" />
            <use
               xlink:href="#CMMI12-53"
               transform="matrix(0.996264,0,0,0.996264,157.47944,0)"
               id="use106" />
            <use
               xlink:href="#CMR17-29"
               transform="matrix(0.996264,0,0,0.996264,223.27388,0)"
               id="use107" />
          </g>
        </g>
      </g>
    </g>
  </g>
  <defs
     id="defs107">
    <clipPath
       id="pab43c07959">
      <rect
         x="49.404673"
         y="10.8"
         width="328.33829"
         height="176.901556"
         id="rect107" />
    </clipPath>
  </defs>
</svg>
