<?xml version="1.0" encoding="UTF-8" standalone="no"?>
<svg
   width="388.542964pt"
   height="240.132758pt"
   viewBox="0 0 388.542964 240.132758"
   version="1.1"
   id="svg94"
   sodipodi:docname="Result_int_s_p.svg"
   inkscape:version="1.3 (0e150ed6c4, 2023-07-21)"
   inkscape:export-filename="Result_int_s_p.pdf"
   inkscape:export-xdpi="96"
   inkscape:export-ydpi="96"
   xmlns:inkscape="http://www.inkscape.org/namespaces/inkscape"
   xmlns:sodipodi="http://sodipodi.sourceforge.net/DTD/sodipodi-0.dtd"
   xmlns:xlink="http://www.w3.org/1999/xlink"
   xmlns="http://www.w3.org/2000/svg"
   xmlns:svg="http://www.w3.org/2000/svg"
   xmlns:rdf="http://www.w3.org/1999/02/22-rdf-syntax-ns#"
   xmlns:cc="http://creativecommons.org/ns#"
   xmlns:dc="http://purl.org/dc/elements/1.1/">
  <sodipodi:namedview
     id="namedview94"
     pagecolor="#ffffff"
     bordercolor="#000000"
     borderopacity="0.25"
     inkscape:showpageshadow="2"
     inkscape:pageopacity="0.0"
     inkscape:pagecheckerboard="0"
     inkscape:deskcolor="#d1d1d1"
     inkscape:document-units="pt"
     inkscape:zoom="1.7935049"
     inkscape:cx="238.63887"
     inkscape:cy="149.70686"
     inkscape:window-width="2560"
     inkscape:window-height="1494"
     inkscape:window-x="-11"
     inkscape:window-y="-11"
     inkscape:window-maximized="1"
     inkscape:current-layer="axes_1" />
  <metadata
     id="metadata1">
    <rdf:RDF>
      <cc:Work>
        <dc:type
           rdf:resource="http://purl.org/dc/dcmitype/StillImage" />
        <dc:date>2024-12-10T14:52:36.454704</dc:date>
        <dc:format>image/svg+xml</dc:format>
        <dc:creator>
          <cc:Agent>
            <dc:title>Matplotlib v3.7.5, https://matplotlib.org/</dc:title>
          </cc:Agent>
        </dc:creator>
      </cc:Work>
    </rdf:RDF>
  </metadata>
  <defs
     id="defs1">
    <style
       type="text/css"
       id="style1">*{stroke-linejoin: round; stroke-linecap: butt}</style>
  </defs>
  <g
     id="figure_1">
    <g
       id="patch_1">
      <path
         d="M 0 240.132758  L 388.542964 240.132758  L 388.542964 0  L 0 0  z "
         style="fill: #ffffff"
         id="path1" />
    </g>
    <g
       id="axes_1">
      <g
         id="patch_2">
        <path
           d="M 51.648487 193.536948  L 377.742964 193.536948  L 377.742964 10.8  L 51.648487 10.8  z "
           style="fill: #ffffff"
           id="path2" />
      </g>
      <g
         id="matplotlib.axis_1">
        <g
           id="xtick_1">
          <g
             id="line2d_1">
            <defs
               id="defs2">
              <path
                 id="m3a6648c964"
                 d="M 0 0  L 0 3.5  "
                 style="stroke: #000000; stroke-width: 0.8" />
            </defs>
            <g
               id="g2">
              <use
                 xlink:href="#m3a6648c964"
                 x="66.470963"
                 y="193.536948"
                 style="stroke: #000000; stroke-width: 0.8"
                 id="use2" />
            </g>
          </g>
          <g
             id="text_1">
            <!-- $\mathdefault{0.0}$ -->
            <g
               transform="translate(57.745672 210.222825) scale(0.14 -0.14)"
               id="g5">
              <defs
                 id="defs3">
                <path
                   id="CMR17-30"
                   d="M 2688 2025  C 2688 2416 2682 3080 2413 3591  C 2176 4039 1798 4198 1466 4198  C 1158 4198 768 4058 525 3597  C 269 3118 243 2524 243 2025  C 243 1661 250 1106 448 619  C 723 -39 1216 -128 1466 -128  C 1760 -128 2208 -7 2470 600  C 2662 1042 2688 1559 2688 2025  z M 1466 -26  C 1056 -26 813 325 723 812  C 653 1188 653 1738 653 2096  C 653 2588 653 2997 736 3387  C 858 3929 1216 4096 1466 4096  C 1728 4096 2067 3923 2189 3400  C 2272 3036 2278 2607 2278 2096  C 2278 1680 2278 1169 2202 792  C 2067 95 1690 -26 1466 -26  z "
                   transform="scale(0.015625)" />
                <path
                   id="CMMI12-3a"
                   d="M 1178 307  C 1178 492 1024 619 870 619  C 685 619 557 466 557 313  C 557 128 710 0 864 0  C 1050 0 1178 153 1178 307  z "
                   transform="scale(0.015625)" />
              </defs>
              <use
                 xlink:href="#CMR17-30"
                 transform="scale(0.996264)"
                 id="use3" />
              <use
                 xlink:href="#CMMI12-3a"
                 transform="translate(45.690477 0) scale(0.996264)"
                 id="use4" />
              <use
                 xlink:href="#CMR17-30"
                 transform="translate(72.787654 0) scale(0.996264)"
                 id="use5" />
            </g>
          </g>
        </g>
        <g
           id="xtick_2">
          <g
             id="line2d_2">
            <g
               id="g6">
              <use
                 xlink:href="#m3a6648c964"
                 x="125.760868"
                 y="193.536948"
                 style="stroke: #000000; stroke-width: 0.8"
                 id="use6" />
            </g>
          </g>
          <g
             id="text_2">
            <!-- $\mathdefault{0.2}$ -->
            <g
               transform="translate(117.035577 210.222825) scale(0.14 -0.14)"
               id="g9">
              <defs
                 id="defs6">
                <path
                   id="CMR17-32"
                   d="M 2669 989  L 2554 989  C 2490 536 2438 459 2413 420  C 2381 369 1920 369 1830 369  L 602 369  C 832 619 1280 1072 1824 1597  C 2214 1967 2669 2402 2669 3035  C 2669 3790 2067 4224 1395 4224  C 691 4224 262 3604 262 3030  C 262 2780 448 2748 525 2748  C 589 2748 781 2787 781 3010  C 781 3207 614 3264 525 3264  C 486 3264 448 3258 422 3245  C 544 3790 915 4058 1306 4058  C 1862 4058 2227 3617 2227 3035  C 2227 2479 1901 2000 1536 1584  L 262 146  L 262 0  L 2515 0  L 2669 989  z "
                   transform="scale(0.015625)" />
              </defs>
              <use
                 xlink:href="#CMR17-30"
                 transform="scale(0.996264)"
                 id="use7" />
              <use
                 xlink:href="#CMMI12-3a"
                 transform="translate(45.690477 0) scale(0.996264)"
                 id="use8" />
              <use
                 xlink:href="#CMR17-32"
                 transform="translate(72.787654 0) scale(0.996264)"
                 id="use9" />
            </g>
          </g>
        </g>
        <g
           id="xtick_3">
          <g
             id="line2d_3">
            <g
               id="g10">
              <use
                 xlink:href="#m3a6648c964"
                 x="185.050773"
                 y="193.536948"
                 style="stroke: #000000; stroke-width: 0.8"
                 id="use10" />
            </g>
          </g>
          <g
             id="text_3">
            <!-- $\mathdefault{0.4}$ -->
            <g
               transform="translate(176.325482 210.222825) scale(0.14 -0.14)"
               id="g13">
              <defs
                 id="defs10">
                <path
                   id="CMR17-34"
                   d="M 2150 4122  C 2150 4256 2144 4256 2029 4256  L 128 1254  L 128 1088  L 1779 1088  L 1779 457  C 1779 224 1766 160 1318 160  L 1197 160  L 1197 0  C 1402 0 1747 0 1965 0  C 2182 0 2528 0 2733 0  L 2733 160  L 2611 160  C 2163 160 2150 224 2150 457  L 2150 1088  L 2803 1088  L 2803 1254  L 2150 1254  L 2150 4122  z M 1798 3703  L 1798 1254  L 256 1254  L 1798 3703  z "
                   transform="scale(0.015625)" />
              </defs>
              <use
                 xlink:href="#CMR17-30"
                 transform="scale(0.996264)"
                 id="use11" />
              <use
                 xlink:href="#CMMI12-3a"
                 transform="translate(45.690477 0) scale(0.996264)"
                 id="use12" />
              <use
                 xlink:href="#CMR17-34"
                 transform="translate(72.787654 0) scale(0.996264)"
                 id="use13" />
            </g>
          </g>
        </g>
        <g
           id="xtick_4">
          <g
             id="line2d_4">
            <g
               id="g14">
              <use
                 xlink:href="#m3a6648c964"
                 x="244.340678"
                 y="193.536948"
                 style="stroke: #000000; stroke-width: 0.8"
                 id="use14" />
            </g>
          </g>
          <g
             id="text_4">
            <!-- $\mathdefault{0.6}$ -->
            <g
               transform="translate(235.615387 210.222825) scale(0.14 -0.14)"
               id="g17">
              <defs
                 id="defs14">
                <path
                   id="CMR17-36"
                   d="M 678 2176  C 678 3690 1395 4032 1811 4032  C 1946 4032 2272 4009 2400 3776  C 2298 3776 2106 3776 2106 3553  C 2106 3381 2246 3323 2336 3323  C 2394 3323 2566 3348 2566 3560  C 2566 3954 2246 4179 1805 4179  C 1043 4179 243 3390 243 1984  C 243 253 966 -128 1478 -128  C 2099 -128 2688 427 2688 1283  C 2688 2081 2170 2662 1517 2662  C 1126 2662 838 2407 678 1960  L 678 2176  z M 1478 25  C 691 25 691 1200 691 1436  C 691 1896 909 2560 1504 2560  C 1613 2560 1926 2560 2138 2120  C 2253 1870 2253 1609 2253 1289  C 2253 944 2253 690 2118 434  C 1978 171 1773 25 1478 25  z "
                   transform="scale(0.015625)" />
              </defs>
              <use
                 xlink:href="#CMR17-30"
                 transform="scale(0.996264)"
                 id="use15" />
              <use
                 xlink:href="#CMMI12-3a"
                 transform="translate(45.690477 0) scale(0.996264)"
                 id="use16" />
              <use
                 xlink:href="#CMR17-36"
                 transform="translate(72.787654 0) scale(0.996264)"
                 id="use17" />
            </g>
          </g>
        </g>
        <g
           id="xtick_5">
          <g
             id="line2d_5">
            <g
               id="g18">
              <use
                 xlink:href="#m3a6648c964"
                 x="303.630583"
                 y="193.536948"
                 style="stroke: #000000; stroke-width: 0.8"
                 id="use18" />
            </g>
          </g>
          <g
             id="text_5">
            <!-- $\mathdefault{0.8}$ -->
            <g
               transform="translate(294.905292 210.222825) scale(0.14 -0.14)"
               id="g21">
              <defs
                 id="defs18">
                <path
                   id="CMR17-38"
                   d="M 1741 2264  C 2144 2467 2554 2773 2554 3263  C 2554 3841 1990 4179 1472 4179  C 890 4179 378 3759 378 3180  C 378 3021 416 2747 666 2505  C 730 2442 998 2251 1171 2130  C 883 1983 211 1634 211 934  C 211 279 838 -128 1459 -128  C 2144 -128 2720 362 2720 1010  C 2720 1590 2330 1857 2074 2029  L 1741 2264  z M 902 2822  C 851 2854 595 3051 595 3351  C 595 3739 998 4032 1459 4032  C 1965 4032 2336 3676 2336 3262  C 2336 2669 1670 2331 1638 2331  C 1632 2331 1626 2331 1574 2370  L 902 2822  z M 2080 1519  C 2176 1449 2483 1240 2483 851  C 2483 381 2010 25 1472 25  C 890 25 448 438 448 940  C 448 1443 838 1862 1280 2060  L 2080 1519  z "
                   transform="scale(0.015625)" />
              </defs>
              <use
                 xlink:href="#CMR17-30"
                 transform="scale(0.996264)"
                 id="use19" />
              <use
                 xlink:href="#CMMI12-3a"
                 transform="translate(45.690477 0) scale(0.996264)"
                 id="use20" />
              <use
                 xlink:href="#CMR17-38"
                 transform="translate(72.787654 0) scale(0.996264)"
                 id="use21" />
            </g>
          </g>
        </g>
        <g
           id="xtick_6">
          <g
             id="line2d_6">
            <g
               id="g22">
              <use
                 xlink:href="#m3a6648c964"
                 x="362.920488"
                 y="193.536948"
                 style="stroke: #000000; stroke-width: 0.8"
                 id="use22" />
            </g>
          </g>
          <g
             id="text_6">
            <!-- $\mathdefault{1.0}$ -->
            <g
               transform="translate(354.195197 210.222825) scale(0.14 -0.14)"
               id="g25">
              <defs
                 id="defs22">
                <path
                   id="CMR17-31"
                   d="M 1702 4058  C 1702 4192 1696 4192 1606 4192  C 1357 3916 979 3827 621 3827  C 602 3827 570 3827 563 3808  C 557 3795 557 3782 557 3648  C 755 3648 1088 3686 1344 3839  L 1344 461  C 1344 236 1331 160 781 160  L 589 160  L 589 0  C 896 0 1216 0 1523 0  C 1830 0 2150 0 2458 0  L 2458 160  L 2266 160  C 1715 160 1702 230 1702 458  L 1702 4058  z "
                   transform="scale(0.015625)" />
              </defs>
              <use
                 xlink:href="#CMR17-31"
                 transform="scale(0.996264)"
                 id="use23" />
              <use
                 xlink:href="#CMMI12-3a"
                 transform="translate(45.690477 0) scale(0.996264)"
                 id="use24" />
              <use
                 xlink:href="#CMR17-30"
                 transform="translate(72.787654 0) scale(0.996264)"
                 id="use25" />
            </g>
          </g>
        </g>
        <g
           id="text_7">
          <!-- t -->
          <g
             transform="translate(212.040202 226.620729) scale(0.14 -0.14)"
             id="g26">
            <defs
               id="defs25">
              <path
                 id="CMR17-74"
                 d="M 966 2560  L 1862 2560  L 1862 2725  L 966 2725  L 966 3904  L 851 3904  C 838 3245 614 2668 70 2668  L 70 2560  L 627 2560  L 627 771  C 627 650 627 -64 1370 -64  C 1747 -64 1965 306 1965 777  L 1965 1140  L 1850 1140  L 1850 783  C 1850 344 1677 51 1408 51  C 1222 51 966 178 966 758  L 966 2560  z "
                 transform="scale(0.015625)" />
            </defs>
            <use
               xlink:href="#CMR17-74"
               transform="scale(0.996264)"
               id="use26" />
          </g>
        </g>
      </g>
      <g
         id="matplotlib.axis_2">
        <g
           id="ytick_1">
          <g
             id="line2d_7">
            <defs
               id="defs26">
              <path
                 id="m0f8548cb40"
                 d="M 0 0  L -3.5 0  "
                 style="stroke: #000000; stroke-width: 0.8" />
            </defs>
            <g
               id="g27">
              <use
                 xlink:href="#m0f8548cb40"
                 x="51.648487"
                 y="175.310918"
                 style="stroke: #000000; stroke-width: 0.8"
                 id="use27" />
            </g>
          </g>
          <g
             id="text_8">
            <!-- $\mathdefault{0.1}$ -->
            <g
               transform="translate(27.197905 180.153856) scale(0.14 -0.14)"
               id="g30">
              <use
                 xlink:href="#CMR17-30"
                 transform="scale(0.996264)"
                 id="use28" />
              <use
                 xlink:href="#CMMI12-3a"
                 transform="translate(45.690477 0) scale(0.996264)"
                 id="use29" />
              <use
                 xlink:href="#CMR17-31"
                 transform="translate(72.787654 0) scale(0.996264)"
                 id="use30" />
            </g>
          </g>
        </g>
        <g
           id="ytick_2">
          <g
             id="line2d_8">
            <g
               id="g31">
              <use
                 xlink:href="#m0f8548cb40"
                 x="51.648487"
                 y="147.326984"
                 style="stroke: #000000; stroke-width: 0.8"
                 id="use31" />
            </g>
          </g>
          <g
             id="text_9">
            <!-- $\mathdefault{0.2}$ -->
            <g
               transform="translate(27.197905 152.169922) scale(0.14 -0.14)"
               id="g34">
              <use
                 xlink:href="#CMR17-30"
                 transform="scale(0.996264)"
                 id="use32" />
              <use
                 xlink:href="#CMMI12-3a"
                 transform="translate(45.690477 0) scale(0.996264)"
                 id="use33" />
              <use
                 xlink:href="#CMR17-32"
                 transform="translate(72.787654 0) scale(0.996264)"
                 id="use34" />
            </g>
          </g>
        </g>
        <g
           id="ytick_3">
          <g
             id="line2d_9">
            <g
               id="g35">
              <use
                 xlink:href="#m0f8548cb40"
                 x="51.648487"
                 y="119.34305"
                 style="stroke: #000000; stroke-width: 0.8"
                 id="use35" />
            </g>
          </g>
          <g
             id="text_10">
            <!-- $\mathdefault{0.3}$ -->
            <g
               transform="translate(27.197905 124.185988) scale(0.14 -0.14)"
               id="g38">
              <defs
                 id="defs35">
                <path
                   id="CMR17-33"
                   d="M 1414 2157  C 1984 2157 2234 1662 2234 1090  C 2234 320 1824 25 1453 25  C 1114 25 563 194 390 693  C 422 680 454 680 486 680  C 640 680 755 782 755 948  C 755 1133 614 1216 486 1216  C 378 1216 211 1165 211 926  C 211 335 787 -128 1466 -128  C 2176 -128 2720 430 2720 1085  C 2720 1707 2208 2157 1600 2227  C 2086 2328 2554 2756 2554 3329  C 2554 3820 2048 4179 1472 4179  C 890 4179 378 3829 378 3329  C 378 3110 544 3072 627 3072  C 762 3072 877 3155 877 3321  C 877 3486 762 3569 627 3569  C 602 3569 570 3569 544 3557  C 730 3959 1235 4032 1459 4032  C 1683 4032 2106 3925 2106 3320  C 2106 3143 2080 2828 1862 2550  C 1670 2304 1453 2304 1242 2284  C 1210 2284 1062 2269 1037 2269  C 992 2263 966 2257 966 2208  C 966 2163 973 2157 1101 2157  L 1414 2157  z "
                   transform="scale(0.015625)" />
              </defs>
              <use
                 xlink:href="#CMR17-30"
                 transform="scale(0.996264)"
                 id="use36" />
              <use
                 xlink:href="#CMMI12-3a"
                 transform="translate(45.690477 0) scale(0.996264)"
                 id="use37" />
              <use
                 xlink:href="#CMR17-33"
                 transform="translate(72.787654 0) scale(0.996264)"
                 id="use38" />
            </g>
          </g>
        </g>
        <g
           id="ytick_4">
          <g
             id="line2d_10">
            <g
               id="g39">
              <use
                 xlink:href="#m0f8548cb40"
                 x="51.648487"
                 y="91.359116"
                 style="stroke: #000000; stroke-width: 0.8"
                 id="use39" />
            </g>
          </g>
          <g
             id="text_11">
            <!-- $\mathdefault{0.4}$ -->
            <g
               transform="translate(27.197905 96.202054) scale(0.14 -0.14)"
               id="g42">
              <use
                 xlink:href="#CMR17-30"
                 transform="scale(0.996264)"
                 id="use40" />
              <use
                 xlink:href="#CMMI12-3a"
                 transform="translate(45.690477 0) scale(0.996264)"
                 id="use41" />
              <use
                 xlink:href="#CMR17-34"
                 transform="translate(72.787654 0) scale(0.996264)"
                 id="use42" />
            </g>
          </g>
        </g>
        <g
           id="ytick_5">
          <g
             id="line2d_11">
            <g
               id="g43">
              <use
                 xlink:href="#m0f8548cb40"
                 x="51.648487"
                 y="63.375181"
                 style="stroke: #000000; stroke-width: 0.8"
                 id="use43" />
            </g>
          </g>
          <g
             id="text_12">
            <!-- $\mathdefault{0.5}$ -->
            <g
               transform="translate(27.197905 68.21812) scale(0.14 -0.14)"
               id="g46">
              <defs
                 id="defs43">
                <path
                   id="CMR17-35"
                   d="M 730 3692  C 794 3666 1056 3584 1325 3584  C 1920 3584 2246 3911 2432 4100  C 2432 4157 2432 4192 2394 4192  C 2387 4192 2374 4192 2323 4163  C 2099 4058 1837 3973 1517 3973  C 1325 3973 1037 3999 723 4139  C 653 4171 640 4171 634 4171  C 602 4171 595 4164 595 4037  L 595 2203  C 595 2089 595 2057 659 2057  C 691 2057 704 2070 736 2114  C 941 2401 1222 2522 1542 2522  C 1766 2522 2246 2382 2246 1289  C 2246 1085 2246 715 2054 421  C 1894 159 1645 25 1370 25  C 947 25 518 320 403 814  C 429 807 480 795 506 795  C 589 795 749 840 749 1038  C 749 1210 627 1280 506 1280  C 358 1280 262 1190 262 1011  C 262 454 704 -128 1382 -128  C 2042 -128 2669 440 2669 1264  C 2669 2030 2170 2624 1549 2624  C 1222 2624 947 2503 730 2274  L 730 3692  z "
                   transform="scale(0.015625)" />
              </defs>
              <use
                 xlink:href="#CMR17-30"
                 transform="scale(0.996264)"
                 id="use44" />
              <use
                 xlink:href="#CMMI12-3a"
                 transform="translate(45.690477 0) scale(0.996264)"
                 id="use45" />
              <use
                 xlink:href="#CMR17-35"
                 transform="translate(72.787654 0) scale(0.996264)"
                 id="use46" />
            </g>
          </g>
        </g>
        <g
           id="ytick_6">
          <g
             id="line2d_12">
            <g
               id="g47">
              <use
                 xlink:href="#m0f8548cb40"
                 x="51.648487"
                 y="35.391247"
                 style="stroke: #000000; stroke-width: 0.8"
                 id="use47" />
            </g>
          </g>
          <g
             id="text_13">
            <!-- $\mathdefault{0.6}$ -->
            <g
               transform="translate(27.197905 40.234185) scale(0.14 -0.14)"
               id="g50">
              <use
                 xlink:href="#CMR17-30"
                 transform="scale(0.996264)"
                 id="use48" />
              <use
                 xlink:href="#CMMI12-3a"
                 transform="translate(45.690477 0) scale(0.996264)"
                 id="use49" />
              <use
                 xlink:href="#CMR17-36"
                 transform="translate(72.787654 0) scale(0.996264)"
                 id="use50" />
            </g>
          </g>
        </g>
        <g
           id="text_14">
          <!-- P -->
          <g
             transform="translate(20.485876 106.814435) rotate(-90) scale(0.14 -0.14)"
             id="g51">
            <defs
               id="defs50">
              <path
                 id="CMR17-50"
                 d="M 1267 2042  L 2291 2042  C 3117 2042 3718 2578 3718 3184  C 3718 3791 3130 4352 2291 4352  L 333 4352  L 333 4186  C 774 4186 845 4186 845 3899  L 845 446  C 845 160 774 160 333 160  L 333 0  C 518 0 858 0 1056 0  C 1254 0 1594 0 1779 0  L 1779 160  C 1338 160 1267 160 1267 446  L 1267 2042  z M 1254 2176  L 1254 3938  C 1254 4155 1267 4186 1523 4186  L 2170 4186  C 2995 4186 3232 3714 3232 3184  C 3232 2604 2950 2176 2170 2176  L 1254 2176  z "
                 transform="scale(0.015625)" />
            </defs>
            <use
               xlink:href="#CMR17-50"
               transform="scale(0.996264)"
               id="use51" />
          </g>
        </g>
      </g>
      <g
         id="line2d_13">
        <path
           d="M 66.470963 184.754021  L 68.209693 183.041691  L 69.948424 181.114693  L 71.687154 178.951103  L 73.425884 176.529405  L 75.164486 173.830282  L 76.903217 170.837209  L 79.511183 165.775939  L 82.119278 160.03135  L 84.727374 153.662247  L 88.204706 144.442241  L 94.290134 127.991175  L 96.898101 121.677816  L 98.636831 117.965943  L 100.375432 114.747924  L 102.114548 112.082462  L 103.853276 110.007371  L 105.591879 108.53406  L 106.461245 108.020291  L 107.330611 107.651202  L 108.199977 107.422247  L 109.069338 107.328199  L 109.938576 107.362626  L 110.80807 107.51889  L 112.546674 108.16673  L 114.285401 109.20963  L 116.024133 110.583506  L 117.762736 112.225966  L 120.371342 115.067658  L 123.848673 119.294925  L 133.411561 131.259017  L 136.888896 135.183289  L 140.366227 138.720654  L 142.97432 141.094617  L 145.58229 143.222057  L 148.190383 145.104577  L 150.798476 146.748718  L 153.406446 148.164802  L 156.014415 149.365675  L 158.622508 150.365512  L 161.230478 151.178711  L 164.707941 151.997727  L 168.18514 152.543384  L 171.662983 152.84577  L 175.140446 152.931508  L 178.617777 152.823882  L 182.964479 152.446783  L 187.311171 151.82754  L 191.657996 150.985964  L 196.004697 149.931205  L 200.35139 148.659818  L 204.698347 147.153877  L 209.045048 145.378283  L 212.522503 143.72734  L 215.999843 141.830668  L 219.477165 139.640958  L 222.085399 137.773137  L 224.693864 135.683601  L 227.301709 133.346613  L 229.909803 130.735373  L 232.517896 127.825929  L 235.125865 124.598427  L 237.733835 121.038691  L 240.341928 117.140564  L 242.950021 112.908834  L 246.427237 106.778435  L 249.904683 100.160913  L 254.251517 91.385493  L 265.553012 68.163505  L 269.030211 61.582194  L 272.507551 55.521233  L 275.116156 51.372218  L 277.724126 47.592843  L 280.332219 44.192881  L 282.940188 41.173951  L 285.548282 38.528763  L 288.156251 36.243491  L 290.764344 34.29997  L 293.372437 32.676949  L 295.980407 31.351278  L 298.588376 30.298687  L 301.19647 29.494758  L 303.804421 28.915171  L 306.412532 28.53569  L 309.889978 28.300523  L 313.367318 28.32666  L 316.844658 28.564796  L 321.191474 29.094061  L 326.407536 29.972782  L 333.362711 31.400817  L 343.79496 33.806016  L 362.920488 38.437442  L 362.920488 38.437442  "
           clip-path="url(#pe4e4609211)"
           style="fill: none; stroke: #1f77b4; stroke-width: 3; stroke-linecap: square"
           id="path51" />
      </g>
      <g
         id="line2d_14">
        <path
           d="M 66.470963 179.771558  L 68.842559 176.534513  L 70.917706 173.34883  L 72.992853 169.799574  L 75.067999 165.855814  L 77.439596 160.833628  L 79.811192 155.248568  L 82.479237 148.340189  L 86.333081 137.621439  L 90.186925 127.126115  L 92.558521 121.25355  L 94.633668 116.660263  L 96.412365 113.278257  L 97.894613 110.935756  L 99.37686 109.054709  L 100.562658 107.877771  L 101.748457 106.980593  L 102.934255 106.35306  L 104.120053 105.988091  L 105.305851 105.878923  L 106.491649 106.015138  L 107.677447 106.380724  L 108.863245 106.954907  L 110.345493 107.930228  L 112.12419 109.417009  L 114.199337 111.493418  L 116.570933 114.19334  L 119.831878 118.268297  L 128.428914 129.238043  L 131.393409 132.625236  L 134.061455 135.372537  L 136.7295 137.817509  L 139.101097 139.708903  L 141.769142 141.522572  L 144.437188 143.056452  L 146.512335 144.016179  L 148.883931 144.852058  L 151.255527 145.424915  L 153.627123 145.757125  L 155.99872 145.872128  L 158.370316 145.733669  L 160.741912 145.368884  L 163.113508 144.79526  L 165.485104 143.988107  L 167.856701 142.91005  L 169.931847 141.796041  L 172.303443 140.283736  L 174.67504 138.532632  L 177.046636 136.523972  L 179.418232 134.238662  L 181.789828 131.656128  L 184.161424 128.757775  L 186.533021 125.530799  L 189.201066 121.503438  L 191.869112 117.065372  L 194.833607 111.674827  L 197.798102 105.82428  L 201.059047 98.903654  L 205.209341 89.553559  L 212.324129 72.889363  L 217.660221 60.590318  L 220.921165 53.606551  L 223.885661 47.790764  L 226.553706 43.041646  L 228.925303 39.230096  L 231.296899 35.830201  L 233.372045 33.213235  L 235.447192 30.941674  L 237.522339 29.015583  L 239.597485 27.423903  L 241.672632 26.146737  L 243.747779 25.158496  L 245.822925 24.430843  L 247.898072 23.934772  L 250.269668 23.615071  L 252.641265 23.520814  L 255.30931 23.638306  L 258.273805 23.990699  L 261.8312 24.643843  L 266.277943 25.694633  L 273.392731 27.637304  L 288.511657 31.794892  L 298.590941 34.302338  L 310.152472 36.940387  L 324.974949 40.080478  L 346.022865 44.293193  L 362.624038 47.514431  L 362.624038 47.514431  "
           clip-path="url(#pe4e4609211)"
           style="fill: none; stroke-dasharray: 19.2,4.8,3,4.8; stroke-dashoffset: 0; stroke: #2ca02c; stroke-width: 3"
           id="path52" />
      </g>
      <g
         id="line2d_15">
        <path
           d="M 66.470963 176.973164  L 68.872204 173.369802  L 71.332735 169.267695  L 73.882201 164.573226  L 76.579892 159.128013  L 79.603677 152.501905  L 83.457521 143.476907  L 90.09799 127.873741  L 92.588166 122.639602  L 94.633668 118.834832  L 96.412365 115.976094  L 98.013193 113.806354  L 99.49544 112.159881  L 100.888753 110.937966  L 102.193131 110.078877  L 103.467864 109.498214  L 104.742597 109.161592  L 106.01733 109.053208  L 107.351353 109.163627  L 108.77431 109.507005  L 110.345493 110.120385  L 112.12419 111.060429  L 114.228982 112.433529  L 116.926672 114.475736  L 121.254835 118.073686  L 128.073174 123.708022  L 132.134533 126.762213  L 135.929087 129.339647  L 139.634706 131.589158  L 143.340325 133.581122  L 147.134879 135.36853  L 151.018368 136.95229  L 155.050081 138.354592  L 159.200374 139.561929  L 163.498892 140.580381  L 167.945635 141.40468  L 172.540603 142.028639  L 177.224505 142.440683  L 182.026988 142.639851  L 186.88876 142.619264  L 191.809822 142.376287  L 196.760529 141.909446  L 201.740881 141.216233  L 206.750878 140.293494  L 211.79052 139.13846  L 216.889452 137.741066  L 222.106963 136.078277  L 227.443055 134.142516  L 232.957016 131.904397  L 238.708137 129.327805  L 244.696417 126.399487  L 250.981147 123.07476  L 257.473392 119.385621  L 264.143506 115.337861  L 270.961845 110.937299  L 277.809829 106.251998  L 284.687458 101.276086  L 291.535442 96.046383  L 298.353781 90.55782  L 305.11283 84.829152  L 311.7533 78.910377  L 318.334479 72.747635  L 324.856369 66.335582  L 331.289323 59.699904  L 337.722278 52.740856  L 344.036653 45.580801  L 350.291738 38.151301  L 356.457888 30.484216  L 362.624038 22.460501  L 362.890843 22.105039  L 362.890843 22.105039  "
           clip-path="url(#pe4e4609211)"
           style="fill: none; stroke-dasharray: 3,4.95; stroke-dashoffset: 0; stroke: #d62728; stroke-width: 3"
           id="path53" />
      </g>
      <g
         id="line2d_16">
        <path
           d="M 66.470963 176.973164  L 68.783269 172.87289  L 71.214155 168.103365  L 73.882201 162.361687  L 76.935631 155.240049  L 81.263794 144.514077  L 86.748111 131.022423  L 89.505091 124.843511  L 91.758108 120.32102  L 93.714674 116.869977  L 95.493372 114.166244  L 97.123844 112.076266  L 98.665381 110.454321  L 100.117984 109.244316  L 101.481652 108.387503  L 102.815675 107.805147  L 104.120053 107.472111  L 105.454076 107.362234  L 106.817743 107.477149  L 108.240701 107.824587  L 109.752594 108.426108  L 111.412711 109.332601  L 113.250698 110.595982  L 115.385135 112.345602  L 117.934601 114.7387  L 121.314125 118.239741  L 132.846012 130.432019  L 136.166246 133.487966  L 139.190031 135.974283  L 142.006302 138.007587  L 144.703993 139.683816  L 147.283103 141.028265  L 149.77328 142.080538  L 152.204166 142.87004  L 154.575762 143.409825  L 156.917713 143.715456  L 159.200374 143.791582  L 161.453391 143.647423  L 163.706407 143.279986  L 165.929779 142.692551  L 168.15315 141.87514  L 170.376521 140.820602  L 172.629538 139.502433  L 174.882554 137.925273  L 177.165216 136.055726  L 179.507167 133.846788  L 181.908408 131.271276  L 184.398584 128.266816  L 186.977695 124.801703  L 189.734675 120.715387  L 192.699171 115.914679  L 196.04905 110.053032  L 200.199344 102.314382  L 213.450637 77.251069  L 216.889452 71.431055  L 219.972527 66.639303  L 222.848087 62.569267  L 225.605068 59.041689  L 228.302759 55.944331  L 230.970804 53.215995  L 233.609205 50.829877  L 236.277251 48.712419  L 239.004586 46.83148  L 241.791212 45.178903  L 244.696417 43.716358  L 247.720202 42.444446  L 250.921857 41.340865  L 254.331027 40.40248  L 258.007001 39.621836  L 262.038714 38.994345  L 266.544747 38.522125  L 271.643679 38.216502  L 277.543025 38.091388  L 284.509588 38.170283  L 293.314139 38.504228  L 304.905316 39.182358  L 322.158678 40.439176  L 357.021142 43.257415  L 362.890843 43.739593  L 362.890843 43.739593  "
           clip-path="url(#pe4e4609211)"
           style="fill: none; stroke-dasharray: 11.1,4.8; stroke-dashoffset: 0; stroke: #d62728; stroke-width: 3"
           id="path54" />
      </g>
      <g
         id="line2d_17">
        <path
           d="M 66.470963 176.973164  L 68.812914 172.839222  L 71.273445 168.032097  L 73.941491 162.319504  L 77.054211 155.105923  L 81.738114 143.604894  L 86.481306 132.136387  L 89.178997 126.183018  L 91.402368 121.79394  L 93.32929 118.458696  L 95.078342 115.856609  L 96.67917 113.855075  L 98.191062 112.310141  L 99.61402 111.165845  L 100.977688 110.348805  L 102.311711 109.808182  L 103.616089 109.517846  L 104.920466 109.45177  L 106.284134 109.60775  L 107.707092 109.997172  L 109.248629 110.655712  L 110.938392 111.627189  L 112.835669 112.98255  L 115.05904 114.857285  L 117.786376 117.464142  L 121.729154 121.572784  L 129.881516 130.114337  L 133.527846 133.572244  L 136.759145 136.338643  L 139.782931 138.641867  L 142.688136 140.579663  L 145.504406 142.194086  L 148.261387 143.520324  L 150.959078 144.574416  L 153.627123 145.380547  L 156.265524 145.947203  L 158.87428 146.282286  L 161.483036 146.392739  L 164.062147 146.279388  L 166.611612 145.946919  L 169.161078 145.391155  L 171.710544 144.606612  L 174.26001 143.586542  L 176.809476 142.322987  L 179.358942 140.806929  L 181.908408 139.028624  L 184.457874 136.977906  L 187.036985 134.615957  L 189.645741 131.923095  L 192.313786 128.844668  L 195.041122 125.35316  L 197.857392 121.381309  L 200.821888 116.805685  L 203.964253 111.535634  L 207.403067 105.322312  L 211.405136 97.613894  L 217.215546 85.879799  L 224.35998 71.548221  L 228.184179 64.385798  L 231.385834 58.849038  L 234.261394 54.309734  L 236.92944 50.504305  L 239.449261 47.288137  L 241.880147 44.539169  L 244.251743 42.189112  L 246.564049 40.205142  L 248.876356 38.5119  L 251.188662 37.09329  L 253.530613 35.917669  L 255.902209 34.974481  L 258.36274 34.235686  L 260.912206 33.702368  L 263.609897 33.366889  L 266.485457 33.236437  L 269.598177 33.322754  L 272.977702 33.642772  L 276.712966 34.222309  L 280.952194 35.110054  L 285.843611 36.367988  L 291.713312 38.117625  L 299.035615 40.545042  L 309.114899 44.138805  L 329.421691 51.672203  L 351.596116 59.800716  L 362.890843 63.816377  L 362.890843 63.816377  "
           clip-path="url(#pe4e4609211)"
           style="fill: none; stroke-dasharray: 19.2,4.8,3,4.8; stroke-dashoffset: 0; stroke: #d62728; stroke-width: 3"
           id="path55" />
      </g>
      <g
         id="line2d_18">
        <path
           d="M 66.470963 185.230723  L 69.079058 182.689386  L 70.817789 180.730033  L 72.556519 178.533657  L 74.295121 176.080016  L 76.033851 173.350243  L 77.772453 170.330102  L 80.380549 165.237263  L 82.988644 159.478692  L 85.596738 153.119443  L 89.074071 143.958346  L 95.15937 127.738711  L 97.767465 121.55909  L 99.506069 117.940932  L 101.245183 114.814918  L 102.983912 112.239569  L 104.722514 110.248135  L 106.461245 108.850824  L 107.330611 108.372066  L 108.199977 108.035819  L 109.069338 107.837548  L 109.938576 107.771821  L 110.80807 107.83256  L 112.546674 108.305097  L 114.285401 109.195327  L 116.024133 110.43961  L 117.762736 111.974169  L 120.371342 114.689295  L 123.848673 118.797461  L 134.280927 131.568701  L 137.758262 135.349982  L 141.235588 138.736254  L 143.843558 140.997049  L 146.451651 143.014686  L 149.059753 144.792341  L 151.667714 146.337304  L 154.275816 147.660006  L 156.883776 148.772127  L 159.491878 149.68628  L 162.099839 150.414788  L 165.577303 151.117813  L 169.05451 151.537217  L 172.532353 151.694698  L 176.009808 151.607405  L 179.487148 151.287892  L 182.964479 150.743775  L 186.44181 149.977233  L 189.919273 148.984718  L 193.396728 147.756657  L 196.874059 146.276623  L 200.35139 144.520607  L 203.828986 142.456458  L 206.436946 140.682519  L 209.045048 138.69282  L 211.653009 136.465255  L 214.261235 133.975297  L 216.869195 131.198227  L 219.477165 128.108759  L 222.085399 124.683361  L 224.693864 120.902742  L 227.301709 116.755696  L 229.909803 112.238009  L 232.517896 107.359615  L 235.995236 100.339578  L 239.472558 92.830249  L 245.557867 79.007953  L 251.643424 65.267496  L 255.120887 57.874992  L 258.598209 51.017407  L 261.206302 46.287604  L 263.814272 41.942186  L 266.422241 37.993461  L 269.030211 34.4457  L 271.63818 31.296401  L 274.246274 28.540394  L 276.854879 26.169454  L 279.462849 24.175126  L 282.070818 22.543649  L 284.678911 21.25916  L 287.286881 20.30056  L 289.894974 19.642695  L 292.503067 19.256226  L 295.111037 19.10831  L 297.71913 19.165004  L 301.19647 19.499716  L 304.673915 20.061439  L 309.020626 20.982861  L 315.975287 22.735983  L 352.488362 32.35905  L 362.920488 34.980903  L 362.920488 34.980903  "
           clip-path="url(#pe4e4609211)"
           style="fill: none; stroke: #1f77b4; stroke-width: 2; stroke-linecap: square"
           id="path56" />
      </g>
      <g
         id="line2d_19">
        <path
           d="M 66.470963 185.116592  L 69.079058 182.553677  L 70.817789 180.580606  L 72.556519 178.370955  L 74.295121 175.904307  L 76.033851 173.161616  L 77.772453 170.128348  L 80.380549 165.014709  L 82.988644 159.233125  L 85.596738 152.848089  L 89.074071 143.649571  L 95.15937 127.376802  L 97.767465 121.191869  L 99.506069 117.579324  L 101.245183 114.466762  L 102.983912 111.912654  L 104.722514 109.949568  L 105.591879 109.193134  L 106.461245 108.586117  L 107.330611 108.125807  L 108.199977 107.808867  L 109.069338 107.63041  L 109.938576 107.584992  L 110.80807 107.665913  L 112.546674 108.17864  L 114.285401 109.107325  L 116.024133 110.387102  L 117.762736 111.952978  L 120.371342 114.704882  L 123.848673 118.836675  L 132.542071 129.446281  L 136.01953 133.229434  L 138.627623 135.773876  L 141.235588 138.036051  L 143.843558 140.000322  L 146.451651 141.659242  L 149.059753 143.011129  L 151.667714 144.057949  L 154.275816 144.804121  L 156.883776 145.254198  L 159.491878 145.412584  L 162.099839 145.282016  L 164.707941 144.86343  L 167.315902 144.155384  L 169.923871 143.153766  L 172.532353 141.85158  L 175.140446 140.239885  L 177.74854 138.307076  L 180.356509 136.039776  L 182.964479 133.42362  L 185.572572 130.443895  L 188.180665 127.087684  L 190.788634 123.345029  L 193.396728 119.210484  L 196.004697 114.686376  L 198.612667 109.784238  L 202.090121 102.702044  L 205.567708 95.083655  L 209.914277 85.024113  L 219.477165 62.613085  L 222.955141 55.075567  L 225.56311 49.850877  L 228.171203 45.072403  L 230.779173 40.795054  L 233.387266 37.053809  L 235.125865 34.865913  L 236.864606 32.922925  L 238.603205 31.221126  L 240.341928 29.752926  L 242.080527 28.508402  L 243.819391 27.474193  L 245.557867 26.636804  L 247.29659 25.979556  L 249.904683 25.295237  L 252.512794 24.922078  L 255.120887 24.804336  L 257.728857 24.89052  L 261.206302 25.245398  L 265.553012 25.951601  L 271.63818 27.212104  L 283.809541 30.035331  L 308.151255 35.647191  L 324.668937 39.232031  L 338.578773 42.031572  L 352.488362 44.600517  L 362.920488 46.37222  L 362.920488 46.37222  "
           clip-path="url(#pe4e4609211)"
           style="fill: none; stroke: #1f77b4; stroke-width: 2; stroke-linecap: square"
           id="path57" />
      </g>
      <g
         id="line2d_20">
        <path
           d="M 66.470963 184.734743  L 68.209693 183.002608  L 69.948424 181.055446  L 71.687154 178.871589  L 73.425884 176.430008  L 75.164486 173.711943  L 76.903217 170.70152  L 79.511183 165.618649  L 82.119278 159.860287  L 84.727374 153.487614  L 88.204706 144.281916  L 94.290134 127.908877  L 96.898101 121.645082  L 98.636831 117.969521  L 100.375432 114.78949  L 102.114548 112.163326  L 103.853276 110.128174  L 105.591879 108.695202  L 106.461245 108.201691  L 107.330611 107.852868  L 108.199977 107.644021  L 109.069338 107.569746  L 109.938576 107.62378  L 110.80807 107.799143  L 112.546674 108.482961  L 114.285401 109.557219  L 116.024133 110.95563  L 117.762736 112.612953  L 120.371342 115.451375  L 124.718039 120.675948  L 129.934102 126.961702  L 133.411561 130.793152  L 136.01953 133.366525  L 138.627623 135.634847  L 141.235588 137.56889  L 143.843558 139.149515  L 146.451651 140.364758  L 148.190383 140.968255  L 149.929115 141.40473  L 151.667714 141.673249  L 153.406446 141.773006  L 155.145054 141.703114  L 156.883776 141.462851  L 158.622508 141.051053  L 160.361107 140.466537  L 162.099839 139.707685  L 163.838571 138.772736  L 165.577303 137.659744  L 168.18514 135.651968  L 170.793622 133.23086  L 173.401847 130.390262  L 176.009808 127.125105  L 178.617777 123.432681  L 181.225871 119.3152  L 183.83384 114.781742  L 186.44181 109.848847  L 189.919273 102.698441  L 193.396728 94.984994  L 197.743429 84.769914  L 207.306316 61.945979  L 210.783647 54.311436  L 213.391873 49.072151  L 215.999843 44.355525  L 218.607936 40.233648  L 220.346535 37.841475  L 222.085399 35.742999  L 223.824511 33.939404  L 225.56311 32.42732  L 227.301709 31.19614  L 229.040574 30.231067  L 230.779173 29.513472  L 232.517896 29.02047  L 234.256513 28.728158  L 235.995236 28.610415  L 238.603205 28.705773  L 241.211298 29.053662  L 244.68862 29.783667  L 249.904683 31.17534  L 263.814272 35.015947  L 274.246274 37.580438  L 296.84976 42.826862  L 314.236688 46.675925  L 329.016018 49.714003  L 342.925484 52.346314  L 356.835055 54.750379  L 362.920488 55.728212  L 362.920488 55.728212  "
           clip-path="url(#pe4e4609211)"
           style="fill: none; stroke: #1f77b4; stroke-width: 2; stroke-linecap: square"
           id="path58" />
      </g>
      <g
         id="line2d_21">
        <path
           d="M 66.470963 184.717863  L 69.079058 182.076239  L 70.817789 180.045499  L 72.556519 177.774742  L 74.295121 175.244555  L 76.033851 172.437304  L 78.641818 167.68118  L 81.249913 162.259936  L 83.858009 156.209158  L 87.335342 147.349872  L 95.15937 126.746225  L 97.767465 120.788436  L 99.506069 117.346592  L 101.245183 114.412345  L 102.983912 112.036668  L 104.722514 110.245282  L 105.591879 109.570429  L 106.461245 109.041182  L 107.330611 108.654654  L 108.199977 108.406701  L 109.069338 108.292529  L 109.938576 108.306223  L 110.80807 108.441495  L 112.546674 109.04777  L 114.285401 110.051372  L 116.024133 111.389578  L 117.762736 113.000348  L 120.371342 115.801032  L 123.848673 119.979753  L 132.542071 130.741261  L 136.01953 134.637582  L 138.627623 137.296439  L 141.235588 139.702698  L 143.843558 141.844554  L 146.451651 143.718775  L 149.059753 145.328064  L 151.667714 146.679781  L 154.275816 147.783824  L 156.883776 148.651441  L 159.491878 149.293998  L 162.099839 149.722333  L 164.707941 149.946038  L 167.315902 149.973038  L 169.923871 149.809206  L 172.532353 149.458051  L 175.140446 148.920823  L 177.74854 148.195909  L 180.356509 147.279229  L 182.964479 146.163514  L 185.572572 144.838819  L 188.180665 143.292391  L 190.788634 141.50882  L 193.396728 139.470016  L 196.004697 137.156404  L 198.612667 134.546945  L 201.22076 131.620266  L 203.828986 128.356444  L 206.436946 124.738971  L 209.045048 120.755427  L 211.653009 116.40161  L 214.261235 111.681941  L 217.738566 104.852811  L 221.216029 97.485752  L 225.56311 87.718305  L 235.995236 63.896256  L 239.472558 56.616307  L 242.080527 51.591873  L 244.68862 47.01494  L 247.29659 42.934112  L 249.904683 39.377178  L 251.643424 37.30182  L 253.382146 35.461028  L 255.120887 33.84935  L 256.859486 32.457861  L 258.598209 31.275468  L 260.336808 30.28938  L 262.075673 29.484783  L 264.683642 28.585112  L 267.291488 28.006376  L 269.899581 27.6963  L 272.507551 27.606129  L 275.985509 27.753094  L 279.462849 28.12612  L 283.809541 28.807553  L 289.894974 30.000887  L 299.457729 32.132973  L 341.186743 41.665769  L 355.096455 44.500538  L 362.920488 45.983233  L 362.920488 45.983233  "
           clip-path="url(#pe4e4609211)"
           style="fill: none; stroke: #1f77b4; stroke-width: 2; stroke-linecap: square"
           id="path59" />
      </g>
      <g
         id="patch_3">
        <path
           d="M 51.648487 193.536948  L 51.648487 10.8  "
           style="fill: none; stroke: #000000; stroke-width: 0.8; stroke-linejoin: miter; stroke-linecap: square"
           id="path60" />
      </g>
      <g
         id="patch_4">
        <path
           d="M 377.742964 193.536948  L 377.742964 10.8  "
           style="fill: none; stroke: #000000; stroke-width: 0.8; stroke-linejoin: miter; stroke-linecap: square"
           id="path61" />
      </g>
      <g
         id="patch_5">
        <path
           d="M 51.648487 193.536948  L 377.742964 193.536948  "
           style="fill: none; stroke: #000000; stroke-width: 0.8; stroke-linejoin: miter; stroke-linecap: square"
           id="path62" />
      </g>
      <g
         id="patch_6">
        <path
           d="M 51.648487 10.8  L 377.742964 10.8  "
           style="fill: none; stroke: #000000; stroke-width: 0.8; stroke-linejoin: miter; stroke-linecap: square"
           id="path63" />
      </g>
      <g
         id="legend_1"
         transform="translate(214.37873,63.574383)">
        <g
           id="line2d_22">
          <path
             d="m 64.248487,28.999506 h 14 14"
             style="fill:none;stroke:#1f77b4;stroke-width:3;stroke-linecap:square"
             id="path64" />
        </g>
        <g
           id="text_15">
          <!-- $\hat{P}$ -->
          <g
             transform="matrix(0.14,0,0,-0.14,103.44849,33.899506)"
             id="g65">
            <defs
               id="defs64">
              <path
                 id="CMR17-5e"
                 d="m 1466,4421 -788,-866 77,-77 711,688 710,-688 77,77 z"
                 transform="scale(0.015625)" />
              <path
                 id="CMMI12-50"
                 d="m 1894,2023 h 1076 c 883,0 1766,650 1766,1378 0,497 -422,951 -1229,951 H 1530 c -122,0 -180,0 -180,-121 0,-64 58,-64 154,-64 390,0 390,-51 390,-121 0,-12 0,-51 -25,-147 L 1005,472 C 947,249 934,185 486,185 365,185 301,185 301,70 301,0 358,0 397,0 518,0 646,0 768,0 h 749 c 121,0 256,0 377,0 52,0 122,0 122,121 0,64 -58,64 -154,64 -384,0 -390,45 -390,108 0,32 6,76 13,108 z m 461,1907 c 58,237 83,237 333,237 h 634 c 480,0 876,-154 876,-632 0,-166 -83,-708 -377,-1001 -109,-115 -416,-358 -999,-358 h -902 z"
                 transform="scale(0.015625)" />
            </defs>
            <use
               xlink:href="#CMR17-5e"
               transform="matrix(0.996264,0,0,0.996264,23.496833,25.189733)"
               id="use64" />
            <use
               xlink:href="#CMMI12-50"
               transform="scale(0.996264)"
               id="use65" />
          </g>
        </g>
        <g
           id="line2d_23">
          <path
             d="m 64.248487,52.078021 h 14 14"
             style="fill:none;stroke:#2ca02c;stroke-width:3;stroke-dasharray:19.2, 4.8, 3, 4.8;stroke-dashoffset:0"
             id="path65" />
        </g>
        <g
           id="text_16">
          <!-- $\sum \hat{\phi} \cdot dt$ -->
          <g
             transform="matrix(0.14,0,0,-0.14,103.44849,56.978021)"
             id="g71">
            <defs
               id="defs65">
              <path
                 id="CMEX10-50"
                 d="M 2694,-3418 422,-6227 c -51,-64 -57,-77 -57,-103 0,-70 57,-70 173,-70 h 5305 l 551,1594 h -160 c -160,-480 -589,-871 -1133,-1056 -103,-32 -544,-186 -1485,-186 H 896 l 2221,2746 c 45,57 57,76 57,102 0,26 -6,32 -44,90 L 1050,-256 h 2534 c 730,0 2202,-45 2650,-1242 h 160 L 5843,0 H 538 C 365,0 358,-6 358,-205 Z"
                 transform="scale(0.015625)" />
              <path
                 id="CMMI12-1e"
                 d="m 2752,4390 c 0,58 -45,58 -64,58 -58,0 -64,-13 -90,-122 L 2253,2939 c -19,-83 -26,-90 -32,-96 -7,-13 -51,-19 -64,-19 C 1107,2734 301,1864 301,1057 301,361 832,-64 1498,-64 c -52,-197 -96,-399 -148,-595 -89,-336 -140,-545 -140,-570 0,-12 0,-51 64,-51 19,0 44,0 57,26 13,13 51,165 77,246 l 237,944 c 1094,0 1926,918 1926,1744 0,663 -486,1136 -1197,1136 z M 2336,2701 c 422,0 845,-238 845,-873 C 3181,1097 2675,128 1677,50 Z M 1530,50 c -314,0 -839,170 -839,888 0,823 583,1738 1504,1738 z"
                 transform="scale(0.015625)" />
              <path
                 id="CMSY10-1"
                 d="m 1229,1619 c 0,186 -154,339 -339,339 -186,0 -340,-153 -340,-339 0,-186 154,-339 340,-339 185,0 339,153 339,339 z"
                 transform="scale(0.015625)" />
              <path
                 id="CMMI12-64"
                 d="m 3219,4257 c 7,25 19,63 19,95 0,64 -64,64 -76,64 -7,0 -320,-28 -352,-36 -109,-7 -205,-22 -320,-22 -160,-13 -205,-19 -205,-134 0,-64 51,-64 141,-64 313,0 320,-57 320,-120 0,-38 -13,-88 -20,-107 L 2336,2395 c -70,166 -243,421 -576,421 C 1037,2816 256,1884 256,939 256,307 627,-64 1062,-64 c 352,0 653,275 832,486 64,-377 365,-486 557,-486 192,0 346,115 461,345 102,217 192,607 192,632 0,32 -26,58 -64,58 -58,0 -64,-32 -90,-128 -96,-377 -217,-779 -480,-779 -185,0 -198,165 -198,293 0,25 0,158 45,337 z M 1926,760 C 1894,651 1894,639 1805,517 1664,338 1382,64 1082,64 819,64 672,300 672,677 c 0,351 198,1066 320,1335 218,447 518,677 768,677 422,0 506,-524 506,-575 0,-6 -20,-90 -26,-102 z"
                 transform="scale(0.015625)" />
              <path
                 id="CMMI12-74"
                 d="m 1286,2566 h 589 c 122,0 186,0 186,115 0,71 -39,71 -167,71 h -563 l 237,940 c 26,89 26,102 26,148 0,103 -84,160 -167,160 -51,0 -198,-19 -249,-225 L 928,2752 H 326 c -128,0 -185,0 -185,-122 0,-64 45,-64 166,-64 H 877 L 454,881 C 403,658 384,594 384,511 384,211 595,-64 954,-64 c 646,0 992,932 992,976 0,39 -26,58 -64,58 -13,0 -39,0 -52,-26 -6,-6 -12,-13 -57,-115 C 1638,511 1344,64 973,64 781,64 768,224 768,364 c 0,6 0,128 19,204 z"
                 transform="scale(0.015625)" />
            </defs>
            <use
               xlink:href="#CMEX10-50"
               transform="matrix(0.996264,0,0,0.996264,0,74.720454)"
               id="use66" />
            <use
               xlink:href="#CMR17-5e"
               transform="matrix(0.996264,0,0,0.996264,135.91696,26.296621)"
               id="use67" />
            <use
               xlink:href="#CMMI12-1e"
               transform="matrix(0.996264,0,0,0.996264,121.76596,0)"
               id="use68" />
            <use
               xlink:href="#CMSY10-1"
               transform="matrix(0.996264,0,0,0.996264,201.63934,0)"
               id="use69" />
            <use
               xlink:href="#CMMI12-64"
               transform="matrix(0.996264,0,0,0.996264,251.45264,0)"
               id="use70" />
            <use
               xlink:href="#CMMI12-74"
               transform="matrix(0.996264,0,0,0.996264,302.14173,0)"
               id="use71" />
          </g>
        </g>
        <g
           id="line2d_24">
          <path
             d="m 64.248487,73.0259 h 14 14"
             style="fill:none;stroke:#d62728;stroke-width:3;stroke-dasharray:3, 4.95;stroke-dashoffset:0"
             id="path71" />
        </g>
        <g
           id="text_17">
          <!-- $\sum \phi^s_5 \cdot dt$ -->
          <g
             transform="matrix(0.14,0,0,-0.14,103.44849,77.9259)"
             id="g78">
            <defs
               id="defs71">
              <path
                 id="CMMI12-73"
                 d="m 1459,1280 c 109,-19 282,-57 320,-64 83,-24 371,-126 371,-433 0,-197 -179,-713 -921,-713 -135,0 -615,0 -743,366 256,-32 384,167 384,309 0,135 -89,205 -217,205 -141,0 -327,-109 -327,-398 0,-379 384,-616 896,-616 973,0 1261,715 1261,1048 0,95 0,274 -205,478 -160,154 -313,186 -659,256 -173,38 -448,96 -448,383 0,128 115,588 723,588 269,0 532,-100 596,-321 -282,0 -295,-243 -295,-249 0,-135 122,-173 179,-173 90,0 269,69 269,335 0,264 -243,535 -742,535 -839,0 -1063,-656 -1063,-917 0,-485 474,-587 621,-619 z"
                 transform="scale(0.015625)" />
            </defs>
            <use
               xlink:href="#CMEX10-50"
               transform="matrix(0.996264,0,0,0.996264,0,74.720454)"
               id="use72" />
            <use
               xlink:href="#CMMI12-1e"
               transform="matrix(0.996264,0,0,0.996264,121.76596,0)"
               id="use73" />
            <use
               xlink:href="#CMMI12-73"
               transform="matrix(0.697382,0,0,0.697382,179.50014,36.153639)"
               id="use74" />
            <use
               xlink:href="#CMR17-35"
               transform="matrix(0.697382,0,0,0.697382,179.50014,-24.740171)"
               id="use75" />
            <use
               xlink:href="#CMSY10-1"
               transform="matrix(0.996264,0,0,0.996264,234.30237,0)"
               id="use76" />
            <use
               xlink:href="#CMMI12-64"
               transform="matrix(0.996264,0,0,0.996264,284.11566,0)"
               id="use77" />
            <use
               xlink:href="#CMMI12-74"
               transform="matrix(0.996264,0,0,0.996264,334.80475,0)"
               id="use78" />
          </g>
        </g>
        <g
           id="line2d_25"
           transform="translate(-120.64348,65.052856)">
          <path
             d="m 184.19527,28.999506 h 14 14"
             style="fill:none;stroke:#d62728;stroke-width:3;stroke-dasharray:11.1, 4.8;stroke-dashoffset:0"
             id="path78" />
        </g>
        <g
           id="text_18"
           transform="translate(-120.64348,65.052856)">
          <!-- $\sum \phi^s_{10} \cdot dt$ -->
          <g
             transform="matrix(0.14,0,0,-0.14,223.39527,33.899506)"
             id="g86">
            <use
               xlink:href="#CMEX10-50"
               transform="matrix(0.996264,0,0,0.996264,0,74.720454)"
               id="use79" />
            <use
               xlink:href="#CMMI12-1e"
               transform="matrix(0.996264,0,0,0.996264,121.76596,0)"
               id="use80" />
            <use
               xlink:href="#CMMI12-73"
               transform="matrix(0.697382,0,0,0.697382,179.50014,36.153639)"
               id="use81" />
            <use
               xlink:href="#CMR17-31"
               transform="matrix(0.697382,0,0,0.697382,179.50014,-24.740171)"
               id="use82" />
            <use
               xlink:href="#CMR17-30"
               transform="matrix(0.697382,0,0,0.697382,211.48332,-24.740171)"
               id="use83" />
            <use
               xlink:href="#CMSY10-1"
               transform="matrix(0.996264,0,0,0.996264,266.10384,0)"
               id="use84" />
            <use
               xlink:href="#CMMI12-64"
               transform="matrix(0.996264,0,0,0.996264,315.91713,0)"
               id="use85" />
            <use
               xlink:href="#CMMI12-74"
               transform="matrix(0.996264,0,0,0.996264,366.60623,0)"
               id="use86" />
          </g>
        </g>
        <g
           id="line2d_26"
           transform="translate(-120.64348,65.052856)">
          <path
             d="m 184.19527,49.947385 h 14 14"
             style="fill:none;stroke:#d62728;stroke-width:3;stroke-dasharray:19.2, 4.8, 3, 4.8;stroke-dashoffset:0"
             id="path86" />
        </g>
        <g
           id="text_19"
           transform="translate(-120.64348,65.052856)">
          <!-- $\sum \phi^s_{14} \cdot dt$ -->
          <g
             transform="matrix(0.14,0,0,-0.14,223.39527,54.847385)"
             id="g94">
            <use
               xlink:href="#CMEX10-50"
               transform="matrix(0.996264,0,0,0.996264,0,74.720454)"
               id="use87" />
            <use
               xlink:href="#CMMI12-1e"
               transform="matrix(0.996264,0,0,0.996264,121.76596,0)"
               id="use88" />
            <use
               xlink:href="#CMMI12-73"
               transform="matrix(0.697382,0,0,0.697382,179.50014,36.153639)"
               id="use89" />
            <use
               xlink:href="#CMR17-31"
               transform="matrix(0.697382,0,0,0.697382,179.50014,-24.740171)"
               id="use90" />
            <use
               xlink:href="#CMR17-34"
               transform="matrix(0.697382,0,0,0.697382,211.48332,-24.740171)"
               id="use91" />
            <use
               xlink:href="#CMSY10-1"
               transform="matrix(0.996264,0,0,0.996264,266.10384,0)"
               id="use92" />
            <use
               xlink:href="#CMMI12-64"
               transform="matrix(0.996264,0,0,0.996264,315.91713,0)"
               id="use93" />
            <use
               xlink:href="#CMMI12-74"
               transform="matrix(0.996264,0,0,0.996264,366.60623,0)"
               id="use94" />
          </g>
        </g>
      </g>
    </g>
  </g>
  <defs
     id="defs94">
    <clipPath
       id="pe4e4609211">
      <rect
         x="51.648487"
         y="10.8"
         width="326.094477"
         height="182.736948"
         id="rect94" />
    </clipPath>
  </defs>
</svg>
