<?xml version="1.0" encoding="utf-8" standalone="no"?>
<!DOCTYPE svg PUBLIC "-//W3C//DTD SVG 1.1//EN"
  "http://www.w3.org/Graphics/SVG/1.1/DTD/svg11.dtd">
<svg xmlns:xlink="http://www.w3.org/1999/xlink" width="388.542964pt" height="240.132758pt" viewBox="0 0 388.542964 240.132758" xmlns="http://www.w3.org/2000/svg" version="1.1">
 <metadata>
  <rdf:RDF xmlns:dc="http://purl.org/dc/elements/1.1/" xmlns:cc="http://creativecommons.org/ns#" xmlns:rdf="http://www.w3.org/1999/02/22-rdf-syntax-ns#">
   <cc:Work>
    <dc:type rdf:resource="http://purl.org/dc/dcmitype/StillImage"/>
    <dc:date>2024-12-19T11:28:55.608895</dc:date>
    <dc:format>image/svg+xml</dc:format>
    <dc:creator>
     <cc:Agent>
      <dc:title>Matplotlib v3.7.5, https://matplotlib.org/</dc:title>
     </cc:Agent>
    </dc:creator>
   </cc:Work>
  </rdf:RDF>
 </metadata>
 <defs>
  <style type="text/css">*{stroke-linejoin: round; stroke-linecap: butt}</style>
 </defs>
 <g id="figure_1">
  <g id="patch_1">
   <path d="M 0 240.132758 
L 388.542964 240.132758 
L 388.542964 0 
L 0 0 
z
" style="fill: #ffffff"/>
  </g>
  <g id="axes_1">
   <g id="patch_2">
    <path d="M 48.56787 213.718154 
L 349.688667 213.718154 
L 349.688667 28.815931 
L 48.56787 28.815931 
z
" style="fill: #ffffff"/>
   </g>
   <g id="matplotlib.axis_1">
    <g id="xtick_1">
     <g id="line2d_1">
      <defs>
       <path id="m73fc4999eb" d="M 0 0 
L 0 3.5 
" style="stroke: #000000; stroke-width: 0.8"/>
      </defs>
      <g>
       <use xlink:href="#m73fc4999eb" x="62.255179" y="213.718154" style="stroke: #000000; stroke-width: 0.8"/>
      </g>
     </g>
     <g id="text_1">
      <!-- $\mathdefault{0.0}$ -->
      <g transform="translate(53.529888 230.404031) scale(0.14 -0.14)">
       <defs>
        <path id="CMR17-30" d="M 2688 2025 
C 2688 2416 2682 3080 2413 3591 
C 2176 4039 1798 4198 1466 4198 
C 1158 4198 768 4058 525 3597 
C 269 3118 243 2524 243 2025 
C 243 1661 250 1106 448 619 
C 723 -39 1216 -128 1466 -128 
C 1760 -128 2208 -7 2470 600 
C 2662 1042 2688 1559 2688 2025 
z
M 1466 -26 
C 1056 -26 813 325 723 812 
C 653 1188 653 1738 653 2096 
C 653 2588 653 2997 736 3387 
C 858 3929 1216 4096 1466 4096 
C 1728 4096 2067 3923 2189 3400 
C 2272 3036 2278 2607 2278 2096 
C 2278 1680 2278 1169 2202 792 
C 2067 95 1690 -26 1466 -26 
z
" transform="scale(0.015625)"/>
        <path id="CMMI12-3a" d="M 1178 307 
C 1178 492 1024 619 870 619 
C 685 619 557 466 557 313 
C 557 128 710 0 864 0 
C 1050 0 1178 153 1178 307 
z
" transform="scale(0.015625)"/>
       </defs>
       <use xlink:href="#CMR17-30" transform="scale(0.996264)"/>
       <use xlink:href="#CMMI12-3a" transform="translate(45.690477 0) scale(0.996264)"/>
       <use xlink:href="#CMR17-30" transform="translate(72.787654 0) scale(0.996264)"/>
      </g>
     </g>
    </g>
    <g id="xtick_2">
     <g id="line2d_2">
      <g>
       <use xlink:href="#m73fc4999eb" x="117.004415" y="213.718154" style="stroke: #000000; stroke-width: 0.8"/>
      </g>
     </g>
     <g id="text_2">
      <!-- $\mathdefault{0.2}$ -->
      <g transform="translate(108.279124 230.404031) scale(0.14 -0.14)">
       <defs>
        <path id="CMR17-32" d="M 2669 989 
L 2554 989 
C 2490 536 2438 459 2413 420 
C 2381 369 1920 369 1830 369 
L 602 369 
C 832 619 1280 1072 1824 1597 
C 2214 1967 2669 2402 2669 3035 
C 2669 3790 2067 4224 1395 4224 
C 691 4224 262 3604 262 3030 
C 262 2780 448 2748 525 2748 
C 589 2748 781 2787 781 3010 
C 781 3207 614 3264 525 3264 
C 486 3264 448 3258 422 3245 
C 544 3790 915 4058 1306 4058 
C 1862 4058 2227 3617 2227 3035 
C 2227 2479 1901 2000 1536 1584 
L 262 146 
L 262 0 
L 2515 0 
L 2669 989 
z
" transform="scale(0.015625)"/>
       </defs>
       <use xlink:href="#CMR17-30" transform="scale(0.996264)"/>
       <use xlink:href="#CMMI12-3a" transform="translate(45.690477 0) scale(0.996264)"/>
       <use xlink:href="#CMR17-32" transform="translate(72.787654 0) scale(0.996264)"/>
      </g>
     </g>
    </g>
    <g id="xtick_3">
     <g id="line2d_3">
      <g>
       <use xlink:href="#m73fc4999eb" x="171.753651" y="213.718154" style="stroke: #000000; stroke-width: 0.8"/>
      </g>
     </g>
     <g id="text_3">
      <!-- $\mathdefault{0.4}$ -->
      <g transform="translate(163.02836 230.404031) scale(0.14 -0.14)">
       <defs>
        <path id="CMR17-34" d="M 2150 4122 
C 2150 4256 2144 4256 2029 4256 
L 128 1254 
L 128 1088 
L 1779 1088 
L 1779 457 
C 1779 224 1766 160 1318 160 
L 1197 160 
L 1197 0 
C 1402 0 1747 0 1965 0 
C 2182 0 2528 0 2733 0 
L 2733 160 
L 2611 160 
C 2163 160 2150 224 2150 457 
L 2150 1088 
L 2803 1088 
L 2803 1254 
L 2150 1254 
L 2150 4122 
z
M 1798 3703 
L 1798 1254 
L 256 1254 
L 1798 3703 
z
" transform="scale(0.015625)"/>
       </defs>
       <use xlink:href="#CMR17-30" transform="scale(0.996264)"/>
       <use xlink:href="#CMMI12-3a" transform="translate(45.690477 0) scale(0.996264)"/>
       <use xlink:href="#CMR17-34" transform="translate(72.787654 0) scale(0.996264)"/>
      </g>
     </g>
    </g>
    <g id="xtick_4">
     <g id="line2d_4">
      <g>
       <use xlink:href="#m73fc4999eb" x="226.502887" y="213.718154" style="stroke: #000000; stroke-width: 0.8"/>
      </g>
     </g>
     <g id="text_4">
      <!-- $\mathdefault{0.6}$ -->
      <g transform="translate(217.777596 230.404031) scale(0.14 -0.14)">
       <defs>
        <path id="CMR17-36" d="M 678 2176 
C 678 3690 1395 4032 1811 4032 
C 1946 4032 2272 4009 2400 3776 
C 2298 3776 2106 3776 2106 3553 
C 2106 3381 2246 3323 2336 3323 
C 2394 3323 2566 3348 2566 3560 
C 2566 3954 2246 4179 1805 4179 
C 1043 4179 243 3390 243 1984 
C 243 253 966 -128 1478 -128 
C 2099 -128 2688 427 2688 1283 
C 2688 2081 2170 2662 1517 2662 
C 1126 2662 838 2407 678 1960 
L 678 2176 
z
M 1478 25 
C 691 25 691 1200 691 1436 
C 691 1896 909 2560 1504 2560 
C 1613 2560 1926 2560 2138 2120 
C 2253 1870 2253 1609 2253 1289 
C 2253 944 2253 690 2118 434 
C 1978 171 1773 25 1478 25 
z
" transform="scale(0.015625)"/>
       </defs>
       <use xlink:href="#CMR17-30" transform="scale(0.996264)"/>
       <use xlink:href="#CMMI12-3a" transform="translate(45.690477 0) scale(0.996264)"/>
       <use xlink:href="#CMR17-36" transform="translate(72.787654 0) scale(0.996264)"/>
      </g>
     </g>
    </g>
    <g id="xtick_5">
     <g id="line2d_5">
      <g>
       <use xlink:href="#m73fc4999eb" x="281.252123" y="213.718154" style="stroke: #000000; stroke-width: 0.8"/>
      </g>
     </g>
     <g id="text_5">
      <!-- $\mathdefault{0.8}$ -->
      <g transform="translate(272.526832 230.404031) scale(0.14 -0.14)">
       <defs>
        <path id="CMR17-38" d="M 1741 2264 
C 2144 2467 2554 2773 2554 3263 
C 2554 3841 1990 4179 1472 4179 
C 890 4179 378 3759 378 3180 
C 378 3021 416 2747 666 2505 
C 730 2442 998 2251 1171 2130 
C 883 1983 211 1634 211 934 
C 211 279 838 -128 1459 -128 
C 2144 -128 2720 362 2720 1010 
C 2720 1590 2330 1857 2074 2029 
L 1741 2264 
z
M 902 2822 
C 851 2854 595 3051 595 3351 
C 595 3739 998 4032 1459 4032 
C 1965 4032 2336 3676 2336 3262 
C 2336 2669 1670 2331 1638 2331 
C 1632 2331 1626 2331 1574 2370 
L 902 2822 
z
M 2080 1519 
C 2176 1449 2483 1240 2483 851 
C 2483 381 2010 25 1472 25 
C 890 25 448 438 448 940 
C 448 1443 838 1862 1280 2060 
L 2080 1519 
z
" transform="scale(0.015625)"/>
       </defs>
       <use xlink:href="#CMR17-30" transform="scale(0.996264)"/>
       <use xlink:href="#CMMI12-3a" transform="translate(45.690477 0) scale(0.996264)"/>
       <use xlink:href="#CMR17-38" transform="translate(72.787654 0) scale(0.996264)"/>
      </g>
     </g>
    </g>
    <g id="xtick_6">
     <g id="line2d_6">
      <g>
       <use xlink:href="#m73fc4999eb" x="336.001359" y="213.718154" style="stroke: #000000; stroke-width: 0.8"/>
      </g>
     </g>
     <g id="text_6">
      <!-- $\mathdefault{1.0}$ -->
      <g transform="translate(327.276068 230.404031) scale(0.14 -0.14)">
       <defs>
        <path id="CMR17-31" d="M 1702 4058 
C 1702 4192 1696 4192 1606 4192 
C 1357 3916 979 3827 621 3827 
C 602 3827 570 3827 563 3808 
C 557 3795 557 3782 557 3648 
C 755 3648 1088 3686 1344 3839 
L 1344 461 
C 1344 236 1331 160 781 160 
L 589 160 
L 589 0 
C 896 0 1216 0 1523 0 
C 1830 0 2150 0 2458 0 
L 2458 160 
L 2266 160 
C 1715 160 1702 230 1702 458 
L 1702 4058 
z
" transform="scale(0.015625)"/>
       </defs>
       <use xlink:href="#CMR17-31" transform="scale(0.996264)"/>
       <use xlink:href="#CMMI12-3a" transform="translate(45.690477 0) scale(0.996264)"/>
       <use xlink:href="#CMR17-30" transform="translate(72.787654 0) scale(0.996264)"/>
      </g>
     </g>
    </g>
    <g id="text_7">
     <!-- t -->
     <g transform="translate(196.472746 246.801936) scale(0.14 -0.14)">
      <defs>
       <path id="CMR17-74" d="M 966 2560 
L 1862 2560 
L 1862 2725 
L 966 2725 
L 966 3904 
L 851 3904 
C 838 3245 614 2668 70 2668 
L 70 2560 
L 627 2560 
L 627 771 
C 627 650 627 -64 1370 -64 
C 1747 -64 1965 306 1965 777 
L 1965 1140 
L 1850 1140 
L 1850 783 
C 1850 344 1677 51 1408 51 
C 1222 51 966 178 966 758 
L 966 2560 
z
" transform="scale(0.015625)"/>
      </defs>
      <use xlink:href="#CMR17-74" transform="scale(0.996264)"/>
     </g>
    </g>
   </g>
   <g id="matplotlib.axis_2">
    <g id="ytick_1">
     <g id="line2d_7">
      <defs>
       <path id="m0692cd1827" d="M 0 0 
L -3.5 0 
" style="stroke: #000000; stroke-width: 0.8"/>
      </defs>
      <g>
       <use xlink:href="#m0692cd1827" x="48.56787" y="205.536806" style="stroke: #000000; stroke-width: 0.8"/>
      </g>
     </g>
     <g id="text_8">
      <!-- $\mathdefault{0.0}$ -->
      <g transform="translate(24.117288 210.379744) scale(0.14 -0.14)">
       <use xlink:href="#CMR17-30" transform="scale(0.996264)"/>
       <use xlink:href="#CMMI12-3a" transform="translate(45.690477 0) scale(0.996264)"/>
       <use xlink:href="#CMR17-30" transform="translate(72.787654 0) scale(0.996264)"/>
      </g>
     </g>
    </g>
    <g id="ytick_2">
     <g id="line2d_8">
      <g>
       <use xlink:href="#m0692cd1827" x="48.56787" y="175.028959" style="stroke: #000000; stroke-width: 0.8"/>
      </g>
     </g>
     <g id="text_9">
      <!-- $\mathdefault{0.2}$ -->
      <g transform="translate(24.117288 179.871897) scale(0.14 -0.14)">
       <use xlink:href="#CMR17-30" transform="scale(0.996264)"/>
       <use xlink:href="#CMMI12-3a" transform="translate(45.690477 0) scale(0.996264)"/>
       <use xlink:href="#CMR17-32" transform="translate(72.787654 0) scale(0.996264)"/>
      </g>
     </g>
    </g>
    <g id="ytick_3">
     <g id="line2d_9">
      <g>
       <use xlink:href="#m0692cd1827" x="48.56787" y="144.521112" style="stroke: #000000; stroke-width: 0.8"/>
      </g>
     </g>
     <g id="text_10">
      <!-- $\mathdefault{0.4}$ -->
      <g transform="translate(24.117288 149.36405) scale(0.14 -0.14)">
       <use xlink:href="#CMR17-30" transform="scale(0.996264)"/>
       <use xlink:href="#CMMI12-3a" transform="translate(45.690477 0) scale(0.996264)"/>
       <use xlink:href="#CMR17-34" transform="translate(72.787654 0) scale(0.996264)"/>
      </g>
     </g>
    </g>
    <g id="ytick_4">
     <g id="line2d_10">
      <g>
       <use xlink:href="#m0692cd1827" x="48.56787" y="114.013264" style="stroke: #000000; stroke-width: 0.8"/>
      </g>
     </g>
     <g id="text_11">
      <!-- $\mathdefault{0.6}$ -->
      <g transform="translate(24.117288 118.856203) scale(0.14 -0.14)">
       <use xlink:href="#CMR17-30" transform="scale(0.996264)"/>
       <use xlink:href="#CMMI12-3a" transform="translate(45.690477 0) scale(0.996264)"/>
       <use xlink:href="#CMR17-36" transform="translate(72.787654 0) scale(0.996264)"/>
      </g>
     </g>
    </g>
    <g id="ytick_5">
     <g id="line2d_11">
      <g>
       <use xlink:href="#m0692cd1827" x="48.56787" y="83.505417" style="stroke: #000000; stroke-width: 0.8"/>
      </g>
     </g>
     <g id="text_12">
      <!-- $\mathdefault{0.8}$ -->
      <g transform="translate(24.117288 88.348355) scale(0.14 -0.14)">
       <use xlink:href="#CMR17-30" transform="scale(0.996264)"/>
       <use xlink:href="#CMMI12-3a" transform="translate(45.690477 0) scale(0.996264)"/>
       <use xlink:href="#CMR17-38" transform="translate(72.787654 0) scale(0.996264)"/>
      </g>
     </g>
    </g>
    <g id="ytick_6">
     <g id="line2d_12">
      <g>
       <use xlink:href="#m0692cd1827" x="48.56787" y="52.99757" style="stroke: #000000; stroke-width: 0.8"/>
      </g>
     </g>
     <g id="text_13">
      <!-- $\mathdefault{1.0}$ -->
      <g transform="translate(24.117288 57.840508) scale(0.14 -0.14)">
       <use xlink:href="#CMR17-31" transform="scale(0.996264)"/>
       <use xlink:href="#CMMI12-3a" transform="translate(45.690477 0) scale(0.996264)"/>
       <use xlink:href="#CMR17-30" transform="translate(72.787654 0) scale(0.996264)"/>
      </g>
     </g>
    </g>
   </g>
   <g id="line2d_13">
    <path d="M 62.255179 191.190892 
L 64.171403 190.886085 
L 65.81388 190.421558 
L 67.182611 189.841486 
L 68.551342 189.030958 
L 69.920072 187.917106 
L 71.015057 186.738226 
L 72.110042 185.224557 
L 73.205027 183.284378 
L 74.300011 180.81238 
L 75.394996 177.692032 
L 76.489981 173.814593 
L 77.584965 169.123633 
L 78.953696 162.147553 
L 80.596173 152.48002 
L 83.881128 132.821996 
L 85.523605 124.512075 
L 87.166082 117.476821 
L 89.082305 110.351275 
L 92.367259 99.175758 
L 99.210914 76.642729 
L 101.948375 68.479344 
L 104.138345 62.6075 
L 106.054568 58.043874 
L 107.970791 54.071823 
L 109.613268 51.1337 
L 111.255745 48.587982 
L 112.898223 46.396362 
L 114.5407 44.537602 
L 116.183177 43.002246 
L 117.825654 41.775838 
L 119.468131 40.828411 
L 121.110608 40.116958 
L 123.026831 39.524284 
L 125.216801 39.087084 
L 127.680516 38.831725 
L 130.417978 38.783028 
L 133.429186 38.954613 
L 137.261633 39.410833 
L 143.010302 40.350205 
L 155.602627 42.450959 
L 162.720027 43.376984 
L 169.563682 44.044722 
L 176.954828 44.540184 
L 185.167214 44.86428 
L 195.295822 45.028664 
L 210.351862 45.019117 
L 239.642703 44.981621 
L 255.519982 45.209068 
L 270.849768 45.650851 
L 286.179554 46.315552 
L 301.783086 47.216956 
L 317.386618 48.341569 
L 332.990151 49.690465 
L 335.727612 49.95068 
L 335.727612 49.95068 
" clip-path="url(#p677b0a193a)" style="fill: none; stroke: #b7d4ea; stroke-width: 3; stroke-linecap: square"/>
   </g>
   <g id="line2d_14">
    <path d="M 62.255179 53.496742 
L 66.908864 85.467516 
L 75.942488 145.853441 
L 77.858712 157.051647 
L 79.501189 165.315127 
L 80.86992 171.128759 
L 82.238651 175.972444 
L 83.607381 179.951824 
L 84.976112 183.207457 
L 86.344843 185.877495 
L 87.713574 188.099085 
L 89.356051 190.316175 
L 90.998528 192.151977 
L 92.914752 193.920243 
L 94.830975 195.378292 
L 97.020944 196.755463 
L 99.48466 198.023442 
L 102.222122 199.165678 
L 105.23333 200.172077 
L 108.518284 201.034903 
L 112.35073 201.802721 
L 117.004415 202.488306 
L 122.479339 203.062971 
L 129.049247 203.526411 
L 137.809125 203.906617 
L 152.317672 204.285684 
L 175.586098 204.653288 
L 209.256878 204.950399 
L 262.363636 205.172908 
L 335.727612 205.313508 
L 335.727612 205.313508 
" clip-path="url(#p677b0a193a)" style="fill: none; stroke-dasharray: 11.1,4.8; stroke-dashoffset: 0; stroke: #fdc38d; stroke-width: 3"/>
   </g>
   <g id="line2d_15">
    <path d="M 62.255179 192.521553 
L 64.663536 192.081356 
L 66.269107 191.581059 
L 67.874678 190.852204 
L 69.48013 189.810681 
L 71.085701 188.330183 
L 71.888487 187.36987 
L 72.691154 186.224125 
L 73.493939 184.85694 
L 74.296724 183.227591 
L 75.099511 181.29129 
L 75.902296 179.001767 
L 76.705081 176.315769 
L 77.507867 173.199584 
L 79.113438 165.639681 
L 80.718891 156.550575 
L 84.732699 132.516022 
L 86.33827 124.450167 
L 87.943842 117.549258 
L 90.35208 108.650299 
L 95.16903 92.391582 
L 99.985625 76.568602 
L 102.393861 69.272289 
L 104.802219 62.683282 
L 107.210574 56.936927 
L 108.816028 53.604819 
L 110.422188 50.671352 
L 112.027642 48.127724 
L 113.633214 45.952761 
L 115.238664 44.121132 
L 116.844237 42.603142 
L 118.449809 41.367969 
L 120.055259 40.383955 
L 121.660831 39.620223 
L 123.266285 39.047806 
L 125.674758 38.489027 
L 128.082998 38.219557 
L 130.491235 38.171787 
L 133.702257 38.358665 
L 137.716184 38.857582 
L 143.335569 39.817502 
L 162.602299 43.298665 
L 170.629916 44.450864 
L 178.657656 45.389527 
L 187.488055 46.205284 
L 197.924271 46.937357 
L 210.768834 47.597858 
L 229.232423 48.298982 
L 269.371235 49.777131 
L 287.032147 50.680953 
L 302.284722 51.674805 
L 316.734865 52.837059 
L 330.381974 54.157115 
L 336.001359 54.767964 
L 336.001359 54.767964 
" clip-path="url(#p677b0a193a)" style="fill: none; stroke-dasharray: 3,4.95; stroke-dashoffset: 0; stroke: #b8e3b2; stroke-width: 3"/>
   </g>
   <g id="line2d_16">
    <path d="M 62.255179 192.52857 
L 64.663536 192.087816 
L 66.269107 191.587493 
L 67.874678 190.85896 
L 69.48013 189.818193 
L 71.085701 188.339021 
L 71.888487 187.379664 
L 72.691154 186.235127 
L 73.493939 184.869378 
L 74.296724 183.241768 
L 75.099511 181.307498 
L 75.902296 179.020344 
L 76.705081 176.336974 
L 77.507867 173.223575 
L 79.113438 165.669244 
L 80.718891 156.584634 
L 84.732699 132.552585 
L 86.33827 124.487035 
L 87.943842 117.588035 
L 90.35208 108.695513 
L 95.16903 92.457327 
L 99.985625 76.656622 
L 102.393861 69.370328 
L 104.802219 62.790023 
L 107.210574 57.050641 
L 108.816028 53.722224 
L 110.422188 50.791549 
L 112.027642 48.250103 
L 113.633214 46.076468 
L 115.238664 44.245475 
L 116.844237 42.72763 
L 118.449809 41.49193 
L 120.055259 40.507262 
L 121.660831 39.742366 
L 123.266285 39.168712 
L 125.674758 38.607878 
L 128.082998 38.33639 
L 130.491235 38.286711 
L 133.702257 38.471552 
L 137.716184 38.968978 
L 143.335569 39.928516 
L 162.602299 43.419735 
L 170.629916 44.577571 
L 178.657656 45.521234 
L 187.488055 46.341373 
L 197.924271 47.077011 
L 210.768834 47.739876 
L 229.232423 48.440982 
L 269.371235 49.91242 
L 287.032147 50.813097 
L 302.284722 51.805294 
L 316.734865 52.967457 
L 330.381974 54.289468 
L 336.001359 54.901736 
L 336.001359 54.901736 
" clip-path="url(#p677b0a193a)" style="fill: none; stroke-dasharray: 3,4.95; stroke-dashoffset: 0; stroke: #b8e3b2; stroke-width: 3"/>
   </g>
   <g id="line2d_17">
    <path d="M 62.255179 192.461469 
L 64.663536 192.019756 
L 66.269107 191.515437 
L 67.874678 190.779441 
L 69.48013 189.726591 
L 71.085701 188.228918 
L 71.888487 187.257132 
L 72.691154 186.097596 
L 73.493939 184.713863 
L 74.296724 183.064966 
L 75.099511 181.105841 
L 75.902296 178.790202 
L 76.705081 176.075096 
L 78.310652 169.33255 
L 79.916223 160.883558 
L 83.127247 141.314691 
L 84.732699 132.06457 
L 86.33827 123.987918 
L 87.943842 117.066134 
L 90.35208 108.110904 
L 95.971814 88.968817 
L 99.985625 75.696002 
L 102.393861 68.328907 
L 104.802219 61.682039 
L 107.210574 55.892523 
L 108.816028 52.540022 
L 110.422188 49.593017 
L 112.027642 47.042188 
L 113.633214 44.865734 
L 115.238664 43.037778 
L 116.844237 41.528135 
L 118.449809 40.304582 
L 120.055259 39.334915 
L 121.660831 38.587585 
L 123.266285 38.032588 
L 125.674758 37.500722 
L 128.082998 37.257437 
L 130.491235 37.233288 
L 133.702257 37.446588 
L 137.716184 37.968762 
L 144.138237 39.092357 
L 159.391154 41.858976 
L 167.418894 43.058672 
L 175.446633 44.041267 
L 184.276918 44.897993 
L 194.713004 45.667307 
L 206.755144 46.322153 
L 223.613168 47.00102 
L 270.976799 48.792626 
L 288.637614 49.738326 
L 304.693435 50.825116 
L 319.143334 52.022739 
L 332.790328 53.366307 
L 336.001359 53.714078 
L 336.001359 53.714078 
" clip-path="url(#p677b0a193a)" style="fill: none; stroke-dasharray: 3,4.95; stroke-dashoffset: 0; stroke: #b8e3b2; stroke-width: 3"/>
   </g>
   <g id="line2d_18">
    <path d="M 62.255179 192.482034 
L 64.663536 192.042077 
L 66.269107 191.539934 
L 67.874678 190.807164 
L 69.48013 189.759012 
L 71.085701 188.268092 
L 71.888487 187.300722 
L 72.691154 186.146438 
L 73.493939 184.768952 
L 74.296724 183.127381 
L 75.099511 181.176784 
L 75.902296 178.870914 
L 76.705081 176.166703 
L 78.310652 169.448294 
L 79.916223 161.023308 
L 82.324461 146.408842 
L 84.732699 132.241315 
L 86.33827 124.169659 
L 87.943842 117.255257 
L 90.35208 108.318221 
L 95.971814 89.235351 
L 99.985625 76.002622 
L 102.393861 68.654975 
L 104.802219 62.023254 
L 107.210574 56.244067 
L 108.816028 52.895812 
L 110.422188 49.950789 
L 112.027642 47.400106 
L 113.633214 45.222015 
L 115.238664 43.390895 
L 116.844237 41.876578 
L 118.449809 40.647643 
L 120.055259 39.671721 
L 121.660831 38.917535 
L 123.266285 38.355647 
L 125.674758 37.813143 
L 128.082998 37.559674 
L 130.491235 37.526452 
L 133.702257 37.729405 
L 137.716184 38.242287 
L 143.335569 39.209154 
L 160.996849 42.394643 
L 169.024466 43.561953 
L 177.052083 44.514781 
L 185.882482 45.34414 
L 196.318576 46.089069 
L 209.163384 46.761735 
L 227.626859 47.475734 
L 268.568444 49.00447 
L 286.229373 49.913693 
L 302.284722 50.962588 
L 316.734865 52.124606 
L 330.381974 53.435052 
L 336.001359 54.038628 
L 336.001359 54.038628 
" clip-path="url(#p677b0a193a)" style="fill: none; stroke-dasharray: 3,4.95; stroke-dashoffset: 0; stroke: #b8e3b2; stroke-width: 3"/>
   </g>
   <g id="line2d_19">
    <path d="M 62.255179 192.461469 
L 64.663536 192.019756 
L 66.269107 191.515437 
L 67.874678 190.779441 
L 69.48013 189.726591 
L 71.085701 188.228918 
L 71.888487 187.257132 
L 72.691154 186.097596 
L 73.493939 184.713863 
L 74.296724 183.064966 
L 75.099511 181.105841 
L 75.902296 178.790202 
L 76.705081 176.075096 
L 78.310652 169.33255 
L 79.916223 160.883558 
L 83.127247 141.314691 
L 84.732699 132.06457 
L 86.33827 123.987918 
L 87.943842 117.066134 
L 90.35208 108.110904 
L 95.971814 88.968817 
L 99.985625 75.696002 
L 102.393861 68.328907 
L 104.802219 61.682039 
L 107.210574 55.892523 
L 108.816028 52.540022 
L 110.422188 49.593017 
L 112.027642 47.042188 
L 113.633214 44.865734 
L 115.238664 43.037778 
L 116.844237 41.528135 
L 118.449809 40.304582 
L 120.055259 39.334915 
L 121.660831 38.587585 
L 123.266285 38.032588 
L 125.674758 37.500722 
L 128.082998 37.257437 
L 130.491235 37.233288 
L 133.702257 37.446588 
L 137.716184 37.968762 
L 144.138237 39.092357 
L 159.391154 41.858976 
L 167.418894 43.058672 
L 175.446633 44.041267 
L 184.276918 44.897993 
L 194.713004 45.667307 
L 206.755144 46.322153 
L 223.613168 47.00102 
L 270.976799 48.792626 
L 288.637614 49.738326 
L 304.693435 50.825116 
L 319.143334 52.022739 
L 332.790328 53.366307 
L 336.001359 53.714078 
L 336.001359 53.714078 
" clip-path="url(#p677b0a193a)" style="fill: none; stroke-dasharray: 3,4.95; stroke-dashoffset: 0; stroke: #b8e3b2; stroke-width: 3"/>
   </g>
   <g id="line2d_20">
    <path d="M 62.255179 191.190892 
L 64.718895 190.808336 
L 66.635118 190.293703 
L 68.277595 189.628125 
L 69.646326 188.858449 
L 71.015057 187.825528 
L 72.110042 186.743427 
L 73.205027 185.353296 
L 74.300011 183.559601 
L 75.394996 181.260502 
L 76.489981 178.354227 
L 77.584965 174.739549 
L 78.67995 170.348622 
L 80.048681 163.820685 
L 81.964904 153.327876 
L 84.976112 136.709719 
L 86.618589 128.957313 
L 88.261066 122.321028 
L 89.903544 116.592156 
L 91.819767 110.708674 
L 94.283482 103.941273 
L 97.020944 97.111727 
L 99.758406 90.906805 
L 102.222122 85.897515 
L 104.412091 81.948193 
L 106.328314 78.901412 
L 108.244538 76.234878 
L 110.160761 73.928717 
L 112.076984 71.955988 
L 113.993207 70.297562 
L 115.909431 68.946857 
L 117.825654 67.899153 
L 119.741877 67.136221 
L 121.6581 66.621784 
L 123.84807 66.281105 
L 126.311785 66.147298 
L 128.775501 66.232563 
L 131.512963 66.551548 
L 134.524171 67.128539 
L 138.356617 68.098051 
L 144.652779 69.955802 
L 162.993773 75.467955 
L 171.753651 77.802947 
L 181.334767 80.114873 
L 193.653345 82.842132 
L 219.659232 88.301134 
L 247.855089 94.328934 
L 280.430884 101.547628 
L 326.146496 111.662812 
L 335.727612 113.70885 
L 335.727612 113.70885 
" clip-path="url(#p677b0a193a)" style="fill: none; stroke: #60a7d2; stroke-width: 3; stroke-linecap: square"/>
   </g>
   <g id="line2d_21">
    <path d="M 62.255179 53.496742 
L 64.992641 73.158084 
L 68.277595 95.038795 
L 73.752519 129.638498 
L 77.311219 151.132047 
L 79.227443 161.373952 
L 80.86992 168.851649 
L 82.238651 174.055 
L 83.607381 178.362059 
L 84.976112 181.881411 
L 86.344843 184.757664 
L 87.713574 187.123547 
L 89.082305 189.086641 
L 90.724782 191.029333 
L 92.367259 192.625979 
L 94.283482 194.16039 
L 96.473452 195.594406 
L 98.937167 196.912567 
L 101.674629 198.109435 
L 104.685837 199.179235 
L 107.970791 200.11601 
L 111.803238 200.977339 
L 116.456923 201.783571 
L 121.931846 202.500597 
L 128.501755 203.132877 
L 136.440394 203.666466 
L 146.02151 204.081496 
L 159.161327 204.412847 
L 180.239783 204.698709 
L 215.55304 204.930705 
L 282.8946 205.117391 
L 335.727612 205.190608 
L 335.727612 205.190608 
" clip-path="url(#p677b0a193a)" style="fill: none; stroke-dasharray: 11.1,4.8; stroke-dashoffset: 0; stroke: #fa8331; stroke-width: 3"/>
   </g>
   <g id="line2d_22">
    <path d="M 62.255179 192.628521 
L 64.663536 192.26102 
L 67.071893 191.633917 
L 68.677463 191.002557 
L 70.282916 190.119573 
L 71.888487 188.87339 
L 72.691154 188.064484 
L 73.493939 187.096281 
L 74.296724 185.936319 
L 75.099511 184.547115 
L 75.902296 182.887394 
L 76.705081 180.914304 
L 77.507867 178.587297 
L 78.310652 175.873962 
L 79.916223 169.243698 
L 81.521677 161.19642 
L 86.33827 135.514502 
L 87.943842 128.510684 
L 89.549294 122.48113 
L 91.154864 117.196186 
L 93.563103 110.174408 
L 95.971814 103.820667 
L 98.380052 97.949423 
L 100.788411 92.533645 
L 103.196765 87.600173 
L 105.605001 83.177993 
L 108.01336 79.283323 
L 110.422188 75.918411 
L 112.830428 73.074983 
L 114.436 71.459126 
L 116.04145 70.058487 
L 117.647023 68.863228 
L 119.252477 67.863149 
L 120.858045 67.046565 
L 122.463618 66.401257 
L 124.871972 65.72659 
L 127.280212 65.364254 
L 129.688567 65.270024 
L 132.096807 65.401159 
L 135.307829 65.856934 
L 138.518974 66.555376 
L 142.532779 67.658223 
L 148.954823 69.696105 
L 161.799517 73.828523 
L 169.827134 76.135229 
L 177.854865 78.198815 
L 187.488055 80.427948 
L 200.332512 83.152817 
L 288.637614 101.430868 
L 327.170829 109.330202 
L 336.001359 111.114052 
L 336.001359 111.114052 
" clip-path="url(#p677b0a193a)" style="fill: none; stroke-dasharray: 3,4.95; stroke-dashoffset: 0; stroke: #66bd6f; stroke-width: 3"/>
   </g>
   <g id="line2d_23">
    <path d="M 62.255179 192.109839 
L 64.663536 191.743458 
L 67.071893 191.098103 
L 68.677463 190.437343 
L 70.282916 189.503531 
L 71.888487 188.174486 
L 72.691154 187.307582 
L 73.493939 186.267231 
L 74.296724 185.018345 
L 75.099511 183.520919 
L 75.902296 181.731477 
L 76.705081 179.605913 
L 77.507867 177.104125 
L 79.113438 170.872249 
L 80.718891 163.063613 
L 83.127247 149.552318 
L 85.535485 136.358657 
L 87.141056 128.699299 
L 88.746508 122.049094 
L 90.35208 116.214791 
L 92.760318 108.498416 
L 95.16903 101.577495 
L 97.577266 95.259432 
L 99.985625 89.528306 
L 102.393861 84.421885 
L 104.802219 79.968846 
L 106.407788 77.366602 
L 108.01336 75.053039 
L 109.618814 73.019958 
L 111.224856 71.25521 
L 112.830428 69.746057 
L 114.436 68.476362 
L 116.04145 67.429576 
L 117.647023 66.588062 
L 119.252477 65.93418 
L 120.858045 65.450083 
L 123.266285 65.004782 
L 125.674758 64.847062 
L 128.082998 64.925536 
L 131.294017 65.318512 
L 134.505047 65.955983 
L 138.518974 66.981693 
L 144.941019 68.899642 
L 160.193944 73.565299 
L 168.221676 75.762001 
L 177.052083 77.9321 
L 186.685273 80.053738 
L 197.924271 82.295028 
L 213.177188 85.099624 
L 312.721061 102.76218 
L 330.381974 105.616919 
L 336.001359 106.472899 
L 336.001359 106.472899 
" clip-path="url(#p677b0a193a)" style="fill: none; stroke-dasharray: 3,4.95; stroke-dashoffset: 0; stroke: #66bd6f; stroke-width: 3"/>
   </g>
   <g id="line2d_24">
    <path d="M 62.255179 192.085256 
L 64.663536 191.731371 
L 67.071893 191.102333 
L 68.677463 190.456922 
L 70.282916 189.544854 
L 71.888487 188.247849 
L 72.691154 187.402498 
L 73.493939 186.388475 
L 74.296724 185.171546 
L 75.099511 183.712447 
L 75.902296 181.968115 
L 76.705081 179.894253 
L 77.507867 177.449691 
L 78.310652 174.602521 
L 79.916223 167.665719 
L 81.521677 159.291223 
L 85.535485 136.825516 
L 87.141056 129.071436 
L 88.746508 122.355623 
L 90.35208 116.49358 
L 92.760318 108.784052 
L 95.16903 101.880415 
L 97.577266 95.548332 
L 99.985625 89.751506 
L 102.393861 84.524279 
L 104.802219 79.902037 
L 107.210574 75.902046 
L 108.816028 73.580064 
L 110.422188 71.526534 
L 112.027642 69.734556 
L 113.633214 68.191917 
L 115.238664 66.885708 
L 116.844237 65.801082 
L 118.449809 64.922708 
L 120.055259 64.234176 
L 121.660831 63.71873 
L 124.069186 63.234024 
L 126.477426 63.047155 
L 128.885781 63.106226 
L 131.294017 63.364067 
L 134.505047 63.944704 
L 138.518974 64.933918 
L 144.138237 66.587162 
L 160.996849 71.699383 
L 169.024466 73.826677 
L 177.854865 75.917829 
L 188.290959 78.143672 
L 203.543526 81.135864 
L 266.96288 93.350766 
L 298.270803 99.366082 
L 320.748784 103.455058 
L 336.001359 106.111672 
L 336.001359 106.111672 
" clip-path="url(#p677b0a193a)" style="fill: none; stroke-dasharray: 3,4.95; stroke-dashoffset: 0; stroke: #66bd6f; stroke-width: 3"/>
   </g>
   <g id="line2d_25">
    <path d="M 62.255179 192.04871 
L 64.663536 191.693071 
L 67.071893 191.058374 
L 68.677463 190.405547 
L 70.282916 189.481399 
L 71.888487 188.165186 
L 72.691154 187.306496 
L 73.493939 186.27592 
L 74.296724 185.0387 
L 75.099511 183.555007 
L 75.902296 181.781419 
L 76.705081 179.673633 
L 77.507867 177.190858 
L 78.310652 174.302451 
L 79.916223 167.282591 
L 81.521677 158.843985 
L 85.535485 136.373723 
L 87.141056 128.643901 
L 88.746508 121.93758 
L 90.35208 116.065327 
L 92.760318 108.316102 
L 95.16903 101.370988 
L 97.577266 95.020466 
L 99.985625 89.241415 
L 102.393861 84.071068 
L 104.802219 79.541165 
L 107.210574 75.661888 
L 108.816028 73.4316 
L 110.422188 71.475592 
L 112.027642 69.78398 
L 113.633214 68.342036 
L 115.238664 67.134676 
L 116.844237 66.144934 
L 118.449809 65.355717 
L 120.055259 64.74955 
L 122.463618 64.145092 
L 124.871972 63.855556 
L 127.280212 63.826898 
L 129.688567 64.009894 
L 132.899589 64.508038 
L 136.913402 65.418225 
L 141.729997 66.759811 
L 165.813321 73.821913 
L 174.643843 76.00144 
L 184.276918 78.134252 
L 196.318576 80.554464 
L 213.979979 83.852795 
L 272.582249 94.675941 
L 301.482062 99.961529 
L 320.748784 103.256605 
L 336.001359 105.688246 
L 336.001359 105.688246 
" clip-path="url(#p677b0a193a)" style="fill: none; stroke-dasharray: 3,4.95; stroke-dashoffset: 0; stroke: #66bd6f; stroke-width: 3"/>
   </g>
   <g id="line2d_26">
    <path d="M 62.255179 192.257811 
L 64.663536 191.897966 
L 67.071893 191.268912 
L 68.677463 190.62834 
L 70.282916 189.726885 
L 71.888487 188.448777 
L 72.691154 187.617111 
L 73.493939 186.620374 
L 74.296724 185.424964 
L 75.099511 183.9923 
L 75.902296 182.279904 
L 76.705081 180.243945 
L 77.507867 177.84324 
L 78.310652 175.045528 
L 79.916223 168.218999 
L 81.521677 159.955779 
L 85.535485 137.688446 
L 87.141056 129.991974 
L 88.746508 123.338628 
L 90.35208 117.548403 
L 92.760318 109.958081 
L 95.16903 103.169504 
L 97.577266 96.92935 
L 99.985625 91.188841 
L 102.393861 85.976743 
L 104.802219 81.328061 
L 107.210574 77.264071 
L 109.618814 73.787117 
L 111.224856 71.788285 
L 112.830428 70.037612 
L 114.436 68.524922 
L 116.04145 67.238898 
L 117.647023 66.166518 
L 119.252477 65.293945 
L 120.858045 64.606487 
L 122.463618 64.089013 
L 124.871972 63.597997 
L 127.280212 63.403854 
L 129.688567 63.457479 
L 132.096807 63.713057 
L 135.307829 64.297057 
L 139.321756 65.300819 
L 144.941019 66.989576 
L 161.799517 72.231159 
L 169.827134 74.404549 
L 177.854865 76.349365 
L 188.290959 78.629151 
L 203.543526 81.691988 
L 254.118187 91.701423 
L 303.087985 101.508032 
L 334.395794 107.491999 
L 336.001359 107.79431 
L 336.001359 107.79431 
" clip-path="url(#p677b0a193a)" style="fill: none; stroke-dasharray: 3,4.95; stroke-dashoffset: 0; stroke: #66bd6f; stroke-width: 3"/>
   </g>
   <g id="line2d_27">
    <path d="M 62.255179 192.419554 
L 64.663536 192.0555 
L 67.071893 191.426676 
L 68.677463 190.789893 
L 70.282916 189.896451 
L 71.888487 188.632527 
L 72.691154 187.811053 
L 73.493939 186.82713 
L 74.296724 185.647708 
L 75.099511 184.234644 
L 75.902296 182.546022 
L 76.705081 180.538414 
L 77.507867 178.170904 
L 78.310652 175.411056 
L 79.916223 168.671865 
L 81.521677 160.503106 
L 86.33827 134.491314 
L 87.943842 127.39369 
L 89.549294 121.270687 
L 91.154864 115.890468 
L 93.563103 108.725172 
L 95.971814 102.235423 
L 98.380052 96.245774 
L 100.788411 90.73723 
L 103.196765 85.741513 
L 105.605001 81.289856 
L 108.01336 77.39796 
L 110.422188 74.06557 
L 112.027642 72.14934 
L 113.633214 70.469038 
L 115.238664 69.01602 
L 116.844237 67.779438 
L 118.449809 66.747855 
L 120.055259 65.908431 
L 121.660831 65.24733 
L 124.069186 64.559581 
L 126.477426 64.193562 
L 128.885781 64.101314 
L 131.294017 64.237204 
L 134.505047 64.700244 
L 137.716184 65.403823 
L 141.729997 66.507506 
L 148.152164 68.531896 
L 160.193944 72.360693 
L 168.221676 74.645634 
L 176.249301 76.686153 
L 185.882482 78.88431 
L 198.727053 81.562036 
L 281.412648 98.355501 
L 315.932075 105.317727 
L 336.001359 109.274713 
L 336.001359 109.274713 
" clip-path="url(#p677b0a193a)" style="fill: none; stroke-dasharray: 3,4.95; stroke-dashoffset: 0; stroke: #66bd6f; stroke-width: 3"/>
   </g>
   <g id="line2d_28">
    <path d="M 62.255179 191.190892 
L 65.266387 191.296544 
L 67.730103 191.162734 
L 69.646326 190.860387 
L 71.288803 190.410495 
L 72.93128 189.730941 
L 74.300011 188.948194 
L 75.668742 187.929813 
L 77.037473 186.632843 
L 78.406204 185.013453 
L 79.774935 183.046898 
L 81.417412 180.243274 
L 83.333635 176.475189 
L 88.261066 166.477631 
L 89.903544 163.743184 
L 91.272274 161.846211 
L 92.641005 160.321124 
L 94.009736 159.167489 
L 95.104721 158.500392 
L 96.199706 158.044471 
L 97.568437 157.742993 
L 98.937167 157.702656 
L 100.305898 157.883678 
L 101.948375 158.340604 
L 103.864599 159.131966 
L 106.054568 160.283547 
L 109.065776 162.140452 
L 114.266953 165.668266 
L 121.110608 170.252465 
L 125.490547 172.922888 
L 129.596739 175.161629 
L 133.429186 176.989549 
L 136.987886 178.447145 
L 140.546587 179.669232 
L 144.105287 180.657119 
L 147.663987 181.41583 
L 151.222688 181.952047 
L 154.781388 182.272322 
L 158.340088 182.381808 
L 161.898789 182.283571 
L 165.457489 181.978423 
L 169.016189 181.465241 
L 172.57489 180.741707 
L 176.13359 179.805335 
L 179.966036 178.557252 
L 183.798483 177.061558 
L 187.630929 175.323197 
L 191.737122 173.202355 
L 195.843315 170.831685 
L 200.223254 168.053817 
L 205.150685 164.662659 
L 210.899355 160.420473 
L 218.290502 154.659475 
L 237.452734 139.563727 
L 243.47515 135.180414 
L 248.950074 131.468427 
L 254.151251 128.217684 
L 259.078682 125.403359 
L 264.006113 122.854822 
L 268.659798 120.69276 
L 273.313484 118.76511 
L 277.967169 117.065361 
L 282.8946 115.504302 
L 287.822031 114.176754 
L 293.023208 113.013863 
L 298.224386 112.079446 
L 303.699309 111.323979 
L 309.447979 110.761272 
L 315.470395 110.401072 
L 321.766557 110.248908 
L 328.610212 110.312852 
L 335.727612 110.599033 
L 335.727612 110.599033 
" clip-path="url(#p677b0a193a)" style="fill: none; stroke: #1d6cb1; stroke-width: 3; stroke-linecap: square"/>
   </g>
   <g id="line2d_29">
    <path d="M 62.255179 53.496742 
L 65.81388 73.634462 
L 71.015057 101.599844 
L 78.132458 138.818106 
L 80.596173 150.525976 
L 82.512397 158.650874 
L 84.154874 164.773081 
L 85.797351 170.060727 
L 87.439828 174.53686 
L 89.082305 178.279892 
L 90.724782 181.393148 
L 92.367259 183.982672 
L 94.009736 186.145356 
L 95.652213 187.964866 
L 97.568437 189.745645 
L 99.48466 191.239523 
L 101.674629 192.677198 
L 104.138345 194.031989 
L 106.875807 195.290329 
L 110.160761 196.542705 
L 113.719461 197.66158 
L 117.825654 198.722429 
L 122.753085 199.751611 
L 128.228009 200.66116 
L 134.524171 201.478305 
L 141.915318 202.205013 
L 150.675195 202.834722 
L 161.625042 203.388025 
L 175.586098 203.857445 
L 192.832107 204.204394 
L 217.195517 204.449374 
L 264.27986 204.665669 
L 335.727612 204.822779 
L 335.727612 204.822779 
" clip-path="url(#p677b0a193a)" style="fill: none; stroke-dasharray: 11.1,4.8; stroke-dashoffset: 0; stroke: #d14501; stroke-width: 3"/>
   </g>
   <g id="line2d_30">
    <path d="M 62.255179 190.634512 
L 64.663536 190.730143 
L 67.071893 190.62834 
L 69.48013 190.255144 
L 71.085701 189.799452 
L 72.691154 189.122707 
L 74.296724 188.163141 
L 75.902296 186.84877 
L 77.507867 185.105028 
L 79.113438 182.871171 
L 80.718891 180.125469 
L 82.324461 176.912001 
L 85.535485 169.666064 
L 87.943842 164.375577 
L 89.549294 161.308648 
L 91.154864 158.757065 
L 92.760318 156.764338 
L 94.366244 155.315507 
L 95.971814 154.361933 
L 97.577266 153.838127 
L 99.182838 153.675843 
L 100.788411 153.8109 
L 102.393861 154.186102 
L 103.999551 154.752068 
L 106.407788 155.868303 
L 109.618814 157.685426 
L 114.436 160.741086 
L 121.660831 165.328201 
L 126.477426 168.096388 
L 130.491235 170.139114 
L 134.505047 171.908761 
L 138.518974 173.386819 
L 141.729997 174.351232 
L 144.941019 175.117319 
L 148.152164 175.682033 
L 151.3633 176.042892 
L 154.574323 176.197614 
L 157.785231 176.144034 
L 160.996849 175.879917 
L 164.207871 175.403198 
L 167.418894 174.711703 
L 170.629916 173.803703 
L 173.840938 172.678262 
L 177.052083 171.335346 
L 180.263106 169.776867 
L 183.47425 168.006686 
L 187.488055 165.506832 
L 191.501982 162.7069 
L 195.515794 159.635552 
L 200.332512 155.645071 
L 205.952011 150.672953 
L 217.191009 140.307588 
L 223.613168 134.543348 
L 228.429649 130.472248 
L 233.246358 126.704976 
L 237.260162 123.841682 
L 241.273967 121.256094 
L 245.287902 118.963644 
L 249.301592 116.971222 
L 253.315397 115.278292 
L 257.329691 113.877362 
L 261.343495 112.756822 
L 265.3573 111.900114 
L 269.371235 111.288511 
L 273.385039 110.901144 
L 277.398844 110.716666 
L 282.215553 110.732414 
L 287.032147 110.972435 
L 292.651418 111.489963 
L 299.073708 112.333023 
L 306.299 113.523699 
L 315.129415 115.216139 
L 327.973619 117.927951 
L 336.001359 119.675024 
L 336.001359 119.675024 
" clip-path="url(#p677b0a193a)" style="fill: none; stroke-dasharray: 3,4.95; stroke-dashoffset: 0; stroke: #1e8741; stroke-width: 3"/>
   </g>
   <g id="line2d_31">
    <path d="M 62.255179 190.835306 
L 64.663536 190.930977 
L 67.071893 190.832866 
L 69.48013 190.468804 
L 71.085701 190.023477 
L 72.691154 189.361808 
L 74.296724 188.423357 
L 75.902296 187.137614 
L 77.507867 185.431408 
L 79.113438 183.244741 
L 80.718891 180.555336 
L 82.324461 177.405035 
L 84.732699 172.107272 
L 87.943842 165.08538 
L 89.549294 162.066311 
L 91.154864 159.555306 
L 92.760318 157.597338 
L 94.366244 156.17886 
L 95.971814 155.252549 
L 97.577266 154.753587 
L 99.182838 154.614287 
L 100.788411 154.77073 
L 102.393861 155.165888 
L 103.999551 155.750402 
L 106.407788 156.892268 
L 109.618814 158.740167 
L 114.436 161.837628 
L 121.660831 166.488801 
L 126.477426 169.309142 
L 130.491235 171.40593 
L 134.505047 173.242582 
L 138.518974 174.803466 
L 142.532779 176.079344 
L 145.743801 176.891187 
L 148.954823 177.515426 
L 152.165968 177.950656 
L 155.376991 178.195675 
L 158.588372 178.249138 
L 161.799517 178.109562 
L 165.010653 177.775268 
L 168.221676 177.24444 
L 171.432706 176.515151 
L 174.643843 175.585801 
L 177.854865 174.455434 
L 181.065888 173.12397 
L 184.276918 171.592685 
L 188.290959 169.402745 
L 192.304772 166.917573 
L 196.318576 164.1555 
L 200.332512 161.142254 
L 205.14922 157.242744 
L 210.768834 152.393764 
L 220.402023 143.708582 
L 228.429649 136.563087 
L 234.049148 131.841651 
L 238.865743 128.078348 
L 242.879662 125.184759 
L 246.893352 122.536673 
L 250.907042 120.149365 
L 254.92145 118.031045 
L 258.935255 116.184396 
L 262.949059 114.605408 
L 266.96288 113.285861 
L 270.976799 112.21409 
L 274.990603 111.375594 
L 279.004424 110.753935 
L 283.018343 110.331636 
L 287.834823 110.062457 
L 292.651418 110.02318 
L 298.270803 110.227587 
L 303.890776 110.658632 
L 310.31282 111.37564 
L 317.537656 112.403432 
L 326.368169 113.885308 
L 336.001359 115.677869 
L 336.001359 115.677869 
" clip-path="url(#p677b0a193a)" style="fill: none; stroke-dasharray: 3,4.95; stroke-dashoffset: 0; stroke: #1e8741; stroke-width: 3"/>
   </g>
   <g id="line2d_32">
    <path d="M 62.255179 190.057836 
L 64.663536 190.156338 
L 67.071893 190.0484 
L 69.48013 189.655779 
L 71.085701 189.176623 
L 72.691154 188.464985 
L 74.296724 187.455842 
L 75.902296 186.073536 
L 77.507867 184.240229 
L 79.113438 181.893185 
L 80.718891 179.011636 
L 82.324461 175.644699 
L 85.535485 168.07642 
L 87.943842 162.569806 
L 89.549294 159.382007 
L 91.154864 156.728597 
L 92.760318 154.650665 
L 94.366244 153.130124 
L 95.971814 152.115375 
L 97.577266 151.538598 
L 99.182838 151.329731 
L 100.788411 151.423534 
L 102.393861 151.761708 
L 103.999551 152.294133 
L 106.407788 153.365131 
L 109.618814 155.128106 
L 114.436 158.106229 
L 121.660831 162.557041 
L 125.674758 164.786206 
L 129.688567 166.754307 
L 132.899589 168.11384 
L 136.110612 169.267028 
L 139.321756 170.203711 
L 142.532779 170.915959 
L 145.743801 171.397504 
L 148.954823 171.643144 
L 152.165968 171.648237 
L 155.376991 171.408689 
L 158.588372 170.920687 
L 161.799517 170.181106 
L 165.010653 169.18755 
L 168.221676 167.938855 
L 171.432706 166.435685 
L 174.643843 164.681111 
L 177.854865 162.681515 
L 181.065888 160.44704 
L 185.0797 157.346325 
L 189.09375 153.940749 
L 193.910344 149.525091 
L 200.332512 143.262694 
L 213.177188 130.62408 
L 217.993783 126.252465 
L 222.007588 122.894845 
L 226.021523 119.849282 
L 229.232423 117.662354 
L 232.443682 115.710037 
L 235.654712 113.999623 
L 238.865743 112.532721 
L 242.076871 111.306422 
L 245.287902 110.314489 
L 248.498802 109.547265 
L 251.709832 108.992505 
L 254.92145 108.636379 
L 258.935255 108.447482 
L 262.949059 108.514136 
L 266.96288 108.804782 
L 271.779589 109.405757 
L 276.59607 110.234124 
L 282.215553 111.426064 
L 289.440388 113.21677 
L 299.073708 115.875521 
L 331.184764 124.952466 
L 336.001359 126.201668 
L 336.001359 126.201668 
" clip-path="url(#p677b0a193a)" style="fill: none; stroke-dasharray: 3,4.95; stroke-dashoffset: 0; stroke: #1e8741; stroke-width: 3"/>
   </g>
   <g id="line2d_33">
    <path d="M 62.255179 190.530669 
L 64.663536 190.626495 
L 67.071893 190.523153 
L 69.48013 190.145853 
L 71.085701 189.685405 
L 72.691154 189.001682 
L 74.296724 188.03232 
L 75.902296 186.704559 
L 77.507867 184.943254 
L 79.113438 182.687248 
L 80.718891 179.915011 
L 82.324461 176.671671 
L 85.535485 169.36324 
L 87.943842 164.03108 
L 89.549294 160.94087 
L 91.154864 158.369571 
L 92.760318 156.360188 
L 94.366244 154.897096 
L 95.971814 153.931161 
L 97.577266 153.396408 
L 99.182838 153.224286 
L 100.788411 153.350534 
L 102.393861 153.717621 
L 103.999551 154.276222 
L 106.407788 155.382474 
L 109.618814 157.187764 
L 114.436 160.22709 
L 121.660831 164.787461 
L 126.477426 167.5325 
L 130.491235 169.550611 
L 134.505047 171.289383 
L 137.716184 172.465774 
L 140.927206 173.443828 
L 144.138237 174.21863 
L 147.349373 174.786421 
L 150.560396 175.144073 
L 153.771541 175.288893 
L 156.982449 175.218352 
L 160.193944 174.929873 
L 163.405081 174.421123 
L 166.616112 173.689895 
L 169.827134 172.734485 
L 173.038156 171.554048 
L 176.249301 170.149072 
L 179.460438 168.522012 
L 182.67146 166.677729 
L 186.685273 164.079126 
L 190.699314 161.176527 
L 194.713004 158.002534 
L 199.529721 153.894606 
L 205.14922 148.803574 
L 222.810378 132.549362 
L 227.626859 128.530023 
L 231.640777 125.439036 
L 235.654712 122.619992 
L 239.668517 120.096913 
L 243.682338 117.883836 
L 246.893352 116.340334 
L 250.104382 114.997475 
L 253.315397 113.851331 
L 257.329691 112.685258 
L 261.343495 111.800111 
L 265.3573 111.175897 
L 269.371235 110.79053 
L 273.385039 110.620836 
L 278.201634 110.668797 
L 283.018343 110.953832 
L 288.637614 111.535787 
L 295.059773 112.463049 
L 302.284722 113.755065 
L 311.115594 115.572838 
L 324.762605 118.638449 
L 336.001359 121.209489 
L 336.001359 121.209489 
" clip-path="url(#p677b0a193a)" style="fill: none; stroke-dasharray: 3,4.95; stroke-dashoffset: 0; stroke: #1e8741; stroke-width: 3"/>
   </g>
   <g id="line2d_34">
    <path d="M 62.255179 190.210374 
L 64.663536 190.307709 
L 67.071893 190.200846 
L 69.48013 189.812661 
L 71.085701 189.3391 
L 72.691154 188.635925 
L 74.296724 187.638912 
L 75.902296 186.273336 
L 77.507867 184.46213 
L 79.113438 182.14311 
L 80.718891 179.295219 
L 82.324461 175.966398 
L 85.535485 168.478382 
L 87.943842 163.025708 
L 89.549294 159.868049 
L 91.154864 157.239952 
L 92.760318 155.183036 
L 94.366244 153.679952 
L 95.971814 152.679863 
L 97.577266 152.115652 
L 99.182838 151.917641 
L 100.788411 152.020913 
L 102.393861 152.367547 
L 103.999551 152.907565 
L 106.407788 153.98885 
L 109.618814 155.764304 
L 114.436 158.761093 
L 121.660831 163.246736 
L 125.674758 165.502186 
L 129.688567 167.503466 
L 133.702257 169.212651 
L 136.913402 170.352821 
L 140.124538 171.281148 
L 143.335569 171.990858 
L 146.546591 172.476564 
L 149.757614 172.733785 
L 152.968759 172.75856 
L 156.179659 172.547304 
L 159.391154 172.096587 
L 162.602299 171.403559 
L 165.813321 170.466026 
L 169.024466 169.282623 
L 172.235488 167.853815 
L 175.446633 166.181949 
L 178.657656 164.272569 
L 181.868678 162.134474 
L 185.882482 159.160152 
L 189.896532 155.883537 
L 194.713004 151.619194 
L 200.332512 146.313453 
L 216.388333 130.878058 
L 221.204814 126.661335 
L 225.218732 123.432285 
L 229.232423 120.508519 
L 232.443682 118.409393 
L 235.654712 116.534767 
L 238.865743 114.889389 
L 242.076871 113.47383 
L 245.287902 112.284672 
L 248.498802 111.315378 
L 251.709832 110.556374 
L 254.92145 109.996276 
L 258.935255 109.555967 
L 262.949059 109.378508 
L 266.96288 109.435124 
L 270.976799 109.696848 
L 275.793394 110.242252 
L 281.412648 111.140028 
L 287.834823 112.430963 
L 295.059773 114.120601 
L 305.496226 116.816602 
L 336.001359 124.841725 
L 336.001359 124.841725 
" clip-path="url(#p677b0a193a)" style="fill: none; stroke-dasharray: 3,4.95; stroke-dashoffset: 0; stroke: #1e8741; stroke-width: 3"/>
   </g>
   <g id="line2d_35">
    <path d="M 62.255179 191.190892 
L 66.908864 191.857247 
L 71.015057 192.221906 
L 74.847504 192.339944 
L 78.67995 192.239263 
L 83.059889 191.895195 
L 91.546021 190.936182 
L 98.115929 190.051645 
L 101.674629 189.3529 
L 104.959583 188.488471 
L 108.518284 187.312058 
L 113.993207 185.213765 
L 118.646892 183.521587 
L 121.6581 182.653772 
L 124.395562 182.093295 
L 127.133024 181.773325 
L 129.870486 181.683818 
L 132.881694 181.812505 
L 136.440394 182.196701 
L 141.094079 182.936484 
L 158.613834 185.943981 
L 164.63625 186.642021 
L 170.932413 187.141308 
L 177.502321 187.437293 
L 184.619721 187.535004 
L 192.284615 187.420369 
L 200.770746 187.071728 
L 210.625609 186.437131 
L 223.491679 185.368109 
L 266.743575 181.605854 
L 283.442092 180.467293 
L 299.593117 179.587911 
L 316.017887 178.916049 
L 332.990151 178.446715 
L 335.727612 178.391365 
L 335.727612 178.391365 
" clip-path="url(#p677b0a193a)" style="fill: none; stroke: #08306b; stroke-width: 3; stroke-linecap: square"/>
   </g>
   <g id="line2d_36">
    <path d="M 62.255179 53.496742 
L 67.182611 73.411043 
L 73.205027 96.819427 
L 78.132458 115.16566 
L 81.691158 127.595406 
L 84.702366 137.322473 
L 87.439828 145.406435 
L 89.903544 152.013812 
L 92.367259 157.982059 
L 94.830975 163.335111 
L 97.29469 168.116214 
L 99.758406 172.376533 
L 102.222122 176.165769 
L 104.685837 179.527914 
L 107.149553 182.501273 
L 109.613268 185.119732 
L 112.076984 187.413877 
L 114.5407 189.411988 
L 117.004415 191.141211 
L 119.741877 192.780546 
L 122.479339 194.161068 
L 125.490547 195.429512 
L 128.775501 196.574388 
L 132.607947 197.670703 
L 136.987886 198.691624 
L 142.189064 199.670131 
L 148.21148 200.567963 
L 155.055134 201.356748 
L 162.993773 202.044033 
L 172.848636 202.664546 
L 185.44096 203.222669 
L 201.591985 203.708017 
L 221.849202 204.086672 
L 248.950074 204.352681 
L 297.129401 204.569034 
L 335.727612 204.66773 
L 335.727612 204.66773 
" clip-path="url(#p677b0a193a)" style="fill: none; stroke-dasharray: 11.1,4.8; stroke-dashoffset: 0; stroke: #7f2704; stroke-width: 3"/>
   </g>
   <g id="line2d_37">
    <path d="M 62.255179 190.688629 
L 66.269107 191.272483 
L 70.282916 191.645322 
L 74.296724 191.773845 
L 78.310652 191.647096 
L 83.127247 191.215712 
L 91.154864 190.194347 
L 96.774598 189.333833 
L 100.788411 188.477814 
L 103.999551 187.550474 
L 107.210574 186.380433 
L 111.224856 184.63957 
L 117.647023 181.76258 
L 120.858045 180.608072 
L 123.266285 179.96721 
L 125.674758 179.543794 
L 128.082998 179.336397 
L 130.491235 179.326112 
L 133.702257 179.566276 
L 137.716184 180.157736 
L 143.335569 181.26517 
L 153.771541 183.36031 
L 160.193944 184.398028 
L 166.616112 185.184786 
L 173.038156 185.728127 
L 179.460438 186.050008 
L 186.685273 186.178108 
L 193.910344 186.090661 
L 201.938076 185.778267 
L 210.768834 185.219529 
L 221.204814 184.338657 
L 235.654712 182.873772 
L 274.990603 178.760496 
L 290.243178 177.452011 
L 304.693435 176.436887 
L 319.143334 175.654418 
L 333.593004 175.107352 
L 336.001359 175.038816 
L 336.001359 175.038816 
" clip-path="url(#p677b0a193a)" style="fill: none; stroke-dasharray: 3,4.95; stroke-dashoffset: 0; stroke: #00441b; stroke-width: 3"/>
   </g>
   <g id="line2d_38">
    <path d="M 62.255179 190.981522 
L 66.269107 191.57461 
L 70.282916 191.958936 
L 74.296724 192.100815 
L 78.310652 191.990114 
L 83.127247 191.583641 
L 91.154864 190.615599 
L 96.774598 189.788897 
L 100.788411 188.953955 
L 103.999551 188.046228 
L 107.210574 186.9032 
L 111.224856 185.211858 
L 117.647023 182.446252 
L 120.858045 181.348772 
L 123.266285 180.743967 
L 125.674758 180.347522 
L 128.082998 180.156398 
L 130.491235 180.151395 
L 133.702257 180.383224 
L 137.716184 180.945158 
L 144.138237 182.149824 
L 153.771541 183.961762 
L 160.193944 184.932802 
L 166.616112 185.661889 
L 173.038156 186.15383 
L 179.460438 186.427505 
L 186.685273 186.502468 
L 193.910344 186.362288 
L 201.938076 185.994228 
L 211.571738 185.321046 
L 223.613168 184.243555 
L 266.96288 180.155575 
L 281.412648 179.136168 
L 295.059773 178.395659 
L 308.70724 177.87008 
L 323.157138 177.538011 
L 336.001359 177.424299 
L 336.001359 177.424299 
" clip-path="url(#p677b0a193a)" style="fill: none; stroke-dasharray: 3,4.95; stroke-dashoffset: 0; stroke: #00441b; stroke-width: 3"/>
   </g>
   <g id="line2d_39">
    <path d="M 62.255179 190.665051 
L 66.269107 191.286254 
L 70.282916 191.694042 
L 74.296724 191.851948 
L 78.310652 191.749994 
L 83.127247 191.350274 
L 91.957651 190.297844 
L 96.774598 189.581491 
L 99.985625 188.93258 
L 103.196765 188.072543 
L 106.407788 186.97681 
L 110.422188 185.331348 
L 117.647023 182.273729 
L 120.858045 181.227973 
L 123.266285 180.66587 
L 125.674758 180.311656 
L 128.082998 180.1595 
L 131.294017 180.233405 
L 134.505047 180.55657 
L 138.518974 181.192295 
L 146.546591 182.764549 
L 154.574323 184.239686 
L 160.996849 185.175205 
L 167.418894 185.85877 
L 173.840938 186.297518 
L 180.263106 186.512277 
L 187.488055 186.519188 
L 195.515794 186.285433 
L 205.14922 185.756171 
L 218.796573 184.749784 
L 242.076871 183.024286 
L 255.724224 182.257974 
L 269.371235 181.726133 
L 283.018343 181.414407 
L 298.270803 181.291133 
L 315.129415 181.383763 
L 334.395794 181.721453 
L 336.001359 181.758641 
L 336.001359 181.758641 
" clip-path="url(#p677b0a193a)" style="fill: none; stroke-dasharray: 3,4.95; stroke-dashoffset: 0; stroke: #00441b; stroke-width: 3"/>
   </g>
   <g id="patch_3">
    <path d="M 48.56787 213.718154 
L 48.56787 28.815931 
" style="fill: none; stroke: #000000; stroke-width: 0.8; stroke-linejoin: miter; stroke-linecap: square"/>
   </g>
   <g id="patch_4">
    <path d="M 349.688667 213.718154 
L 349.688667 28.815931 
" style="fill: none; stroke: #000000; stroke-width: 0.8; stroke-linejoin: miter; stroke-linecap: square"/>
   </g>
   <g id="patch_5">
    <path d="M 48.56787 213.718154 
L 349.688667 213.718154 
" style="fill: none; stroke: #000000; stroke-width: 0.8; stroke-linejoin: miter; stroke-linecap: square"/>
   </g>
   <g id="patch_6">
    <path d="M 48.56787 28.815931 
L 349.688667 28.815931 
" style="fill: none; stroke: #000000; stroke-width: 0.8; stroke-linejoin: miter; stroke-linecap: square"/>
   </g>
   <g id="legend_1">
    <g id="line2d_40">
     <path d="M 362.288667 46.976703 
L 376.288667 46.976703 
L 389.542964 46.976703 
" style="fill: none; stroke: #b7d4ea; stroke-width: 3; stroke-linecap: square"/>
    </g>
    <g id="text_14">
     <!-- $P_{int}$ (A = 0.0) -->
     <g transform="translate(401.488667 51.876703) scale(0.14 -0.14)">
      <defs>
       <path id="CMMI12-50" d="M 1894 2023 
L 2970 2023 
C 3853 2023 4736 2673 4736 3401 
C 4736 3898 4314 4352 3507 4352 
L 1530 4352 
C 1408 4352 1350 4352 1350 4231 
C 1350 4167 1408 4167 1504 4167 
C 1894 4167 1894 4116 1894 4046 
C 1894 4034 1894 3995 1869 3899 
L 1005 472 
C 947 249 934 185 486 185 
C 365 185 301 185 301 70 
C 301 0 358 0 397 0 
C 518 0 646 0 768 0 
L 1517 0 
C 1638 0 1773 0 1894 0 
C 1946 0 2016 0 2016 121 
C 2016 185 1958 185 1862 185 
C 1478 185 1472 230 1472 293 
C 1472 325 1478 369 1485 401 
L 1894 2023 
z
M 2355 3930 
C 2413 4167 2438 4167 2688 4167 
L 3322 4167 
C 3802 4167 4198 4013 4198 3535 
C 4198 3369 4115 2827 3821 2534 
C 3712 2419 3405 2176 2822 2176 
L 1920 2176 
L 2355 3930 
z
" transform="scale(0.015625)"/>
       <path id="CMMI12-69" d="M 1811 913 
C 1811 945 1786 971 1747 971 
C 1690 971 1683 952 1651 843 
C 1485 262 1222 64 1011 64 
C 934 64 845 83 845 275 
C 845 447 922 639 992 830 
L 1440 2018 
C 1459 2069 1504 2184 1504 2305 
C 1504 2574 1312 2816 998 2816 
C 410 2816 173 1890 173 1839 
C 173 1814 198 1782 243 1782 
C 301 1782 307 1807 333 1896 
C 486 2428 730 2682 979 2682 
C 1037 2682 1146 2682 1146 2478 
C 1146 2312 1062 2101 1011 1961 
L 563 773 
C 525 671 486 568 486 453 
C 486 166 685 -64 992 -64 
C 1581 -64 1811 869 1811 913 
z
M 1760 4013 
C 1760 4109 1683 4224 1542 4224 
C 1395 4224 1229 4083 1229 3917 
C 1229 3758 1363 3707 1440 3707 
C 1613 3707 1760 3873 1760 4013 
z
" transform="scale(0.015625)"/>
       <path id="CMMI12-6e" d="M 1318 1871 
C 1331 1910 1491 2229 1728 2433 
C 1894 2586 2112 2689 2362 2689 
C 2618 2689 2707 2497 2707 2242 
C 2707 1878 2445 1150 2317 805 
C 2259 651 2227 568 2227 453 
C 2227 166 2426 -64 2733 -64 
C 3328 -64 3552 875 3552 913 
C 3552 945 3526 971 3488 971 
C 3430 971 3424 952 3392 843 
C 3245 319 3002 64 2752 64 
C 2688 64 2586 64 2586 269 
C 2586 429 2656 621 2694 710 
C 2822 1063 3091 1780 3091 2145 
C 3091 2528 2867 2816 2381 2816 
C 1811 2816 1510 2415 1395 2255 
C 1376 2618 1114 2816 832 2816 
C 627 2816 486 2695 378 2478 
C 262 2248 173 1865 173 1839 
C 173 1814 198 1782 243 1782 
C 294 1782 301 1788 339 1935 
C 442 2325 557 2689 813 2689 
C 960 2689 1011 2586 1011 2395 
C 1011 2254 947 2005 902 1807 
L 723 1118 
C 698 996 627 709 595 594 
C 550 428 480 128 480 96 
C 480 6 550 -64 646 -64 
C 723 -64 813 -26 864 70 
C 877 102 934 326 966 453 
L 1107 1028 
L 1318 1871 
z
" transform="scale(0.015625)"/>
       <path id="CMMI12-74" d="M 1286 2566 
L 1875 2566 
C 1997 2566 2061 2566 2061 2681 
C 2061 2752 2022 2752 1894 2752 
L 1331 2752 
L 1568 3692 
C 1594 3781 1594 3794 1594 3840 
C 1594 3943 1510 4000 1427 4000 
C 1376 4000 1229 3981 1178 3775 
L 928 2752 
L 326 2752 
C 198 2752 141 2752 141 2630 
C 141 2566 186 2566 307 2566 
L 877 2566 
L 454 881 
C 403 658 384 594 384 511 
C 384 211 595 -64 954 -64 
C 1600 -64 1946 868 1946 912 
C 1946 951 1920 970 1882 970 
C 1869 970 1843 970 1830 944 
C 1824 938 1818 931 1773 829 
C 1638 511 1344 64 973 64 
C 781 64 768 224 768 364 
C 768 370 768 492 787 568 
L 1286 2566 
z
" transform="scale(0.015625)"/>
       <path id="CMR17-28" d="M 1958 -1561 
C 1958 -1555 1958 -1542 1939 -1523 
C 1645 -1224 858 -407 858 1581 
C 858 3569 1632 4379 1946 4697 
C 1946 4704 1958 4717 1958 4736 
C 1958 4755 1939 4768 1914 4768 
C 1843 4768 1299 4296 986 3594 
C 666 2887 576 2199 576 1588 
C 576 1128 621 351 1005 -471 
C 1312 -1135 1837 -1600 1914 -1600 
C 1946 -1600 1958 -1587 1958 -1561 
z
" transform="scale(0.015625)"/>
       <path id="CMR17-41" d="M 2323 4378 
C 2291 4461 2278 4480 2214 4480 
C 2150 4480 2138 4461 2106 4378 
L 749 566 
C 627 223 371 153 147 153 
L 147 -13 
C 262 0 518 0 640 0 
C 800 0 1056 0 1210 -13 
L 1210 153 
C 909 153 864 361 864 439 
C 864 497 877 530 890 569 
L 1229 1536 
L 2906 1536 
L 3290 442 
C 3322 365 3322 352 3322 327 
C 3322 153 3046 153 2925 153 
L 2925 0 
C 3110 0 3443 0 3642 0 
C 3808 0 4128 0 4282 -13 
L 4282 153 
C 3942 153 3827 153 3744 387 
L 2323 4378 
z
M 2067 3893 
L 2848 1702 
L 1286 1702 
L 2067 3893 
z
" transform="scale(0.015625)"/>
       <path id="CMR17-3d" d="M 4115 2017 
C 4211 2017 4307 2017 4307 2125 
C 4307 2240 4198 2240 4090 2240 
L 512 2240 
C 403 2240 294 2240 294 2125 
C 294 2017 390 2017 486 2017 
L 4115 2017 
z
M 4090 896 
C 4198 896 4307 896 4307 1011 
C 4307 1119 4211 1119 4115 1119 
L 486 1119 
C 390 1119 294 1119 294 1011 
C 294 896 403 896 512 896 
L 4090 896 
z
" transform="scale(0.015625)"/>
       <path id="CMR17-2e" d="M 1062 261 
C 1062 420 934 522 800 522 
C 672 522 538 420 538 261 
C 538 102 666 0 800 0 
C 928 0 1062 102 1062 261 
z
" transform="scale(0.015625)"/>
       <path id="CMR17-29" d="M 1683 1581 
C 1683 2040 1638 2817 1254 3639 
C 947 4303 422 4768 346 4768 
C 326 4768 301 4761 301 4729 
C 301 4717 307 4710 314 4697 
C 621 4378 1402 3568 1402 1584 
C 1402 -407 627 -1217 314 -1537 
C 307 -1549 301 -1556 301 -1568 
C 301 -1600 326 -1600 346 -1600 
C 416 -1600 960 -1128 1274 -426 
C 1594 281 1683 969 1683 1581 
z
" transform="scale(0.015625)"/>
      </defs>
      <use xlink:href="#CMMI12-50" transform="scale(0.996264)"/>
      <use xlink:href="#CMMI12-69" transform="translate(62.877232 -14.943915) scale(0.697382)"/>
      <use xlink:href="#CMMI12-6e" transform="translate(86.17214 -14.943915) scale(0.697382)"/>
      <use xlink:href="#CMMI12-74" transform="translate(126.932983 -14.943915) scale(0.697382)"/>
      <use xlink:href="#CMR17-28" transform="translate(182.165391 0) scale(0.996264)"/>
      <use xlink:href="#CMR17-41" transform="translate(217.446158 0) scale(0.996264)"/>
      <use xlink:href="#CMR17-3d" transform="translate(316.594554 0) scale(0.996264)"/>
      <use xlink:href="#CMR17-30" transform="translate(418.385309 0) scale(0.996264)"/>
      <use xlink:href="#CMR17-2e" transform="translate(464.075786 0) scale(0.996264)"/>
      <use xlink:href="#CMR17-30" transform="translate(488.946845 0) scale(0.996264)"/>
      <use xlink:href="#CMR17-29" transform="translate(534.637322 0) scale(0.996264)"/>
     </g>
    </g>
    <g id="line2d_41">
     <path d="M 362.288667 67.924399 
L 376.288667 67.924399 
L 389.542964 67.924399 
" style="fill: none; stroke-dasharray: 11.1,4.8; stroke-dashoffset: 0; stroke: #fdc38d; stroke-width: 3"/>
    </g>
    <g id="text_15">
     <!-- $S_{int}$ (A = 0.0) -->
     <g transform="translate(401.488667 72.824399) scale(0.14 -0.14)">
      <defs>
       <path id="CMMI12-53" d="M 4064 4423 
C 4064 4480 4019 4480 4006 4480 
C 3981 4480 3974 4474 3898 4378 
C 3859 4333 3597 4001 3590 3995 
C 3379 4410 2957 4480 2688 4480 
C 1875 4480 1139 3743 1139 3025 
C 1139 2549 1427 2269 1741 2161 
C 1811 2135 2189 2033 2381 1989 
C 2707 1900 2790 1875 2925 1735 
C 2950 1703 3078 1557 3078 1258 
C 3078 667 2528 57 1888 57 
C 1363 57 781 280 781 991 
C 781 1112 806 1265 826 1328 
C 826 1348 832 1378 832 1391 
C 832 1417 819 1449 768 1449 
C 710 1449 704 1436 678 1328 
L 352 24 
C 352 18 326 -64 326 -71 
C 326 -128 378 -128 390 -128 
C 416 -128 422 -122 499 -26 
L 794 356 
C 947 126 1280 -128 1875 -128 
C 2701 -128 3456 666 3456 1460 
C 3456 1728 3392 1963 3149 2197 
C 3014 2331 2899 2363 2310 2516 
C 1882 2630 1824 2649 1709 2751 
C 1600 2858 1517 3011 1517 3227 
C 1517 3761 2061 4308 2669 4308 
C 3296 4308 3590 3926 3590 3323 
C 3590 3158 3558 2986 3558 2961 
C 3558 2903 3610 2903 3629 2903 
C 3686 2903 3693 2922 3718 3024 
L 4064 4423 
z
" transform="scale(0.015625)"/>
      </defs>
      <use xlink:href="#CMMI12-53" transform="scale(0.996264)"/>
      <use xlink:href="#CMMI12-69" transform="translate(59.994488 -14.943915) scale(0.697382)"/>
      <use xlink:href="#CMMI12-6e" transform="translate(83.289395 -14.943915) scale(0.697382)"/>
      <use xlink:href="#CMMI12-74" transform="translate(124.050238 -14.943915) scale(0.697382)"/>
      <use xlink:href="#CMR17-28" transform="translate(179.282646 0) scale(0.996264)"/>
      <use xlink:href="#CMR17-41" transform="translate(214.563414 0) scale(0.996264)"/>
      <use xlink:href="#CMR17-3d" transform="translate(313.71181 0) scale(0.996264)"/>
      <use xlink:href="#CMR17-30" transform="translate(415.502565 0) scale(0.996264)"/>
      <use xlink:href="#CMR17-2e" transform="translate(461.193042 0) scale(0.996264)"/>
      <use xlink:href="#CMR17-30" transform="translate(486.0641 0) scale(0.996264)"/>
      <use xlink:href="#CMR17-29" transform="translate(531.754578 0) scale(0.996264)"/>
     </g>
    </g>
    <g id="line2d_42">
     <path d="M 362.288667 91.622858 
L 376.288667 91.622858 
L 389.542964 91.622858 
" style="fill: none; stroke-dasharray: 3,4.95; stroke-dashoffset: 0; stroke: #b8e3b2; stroke-width: 3"/>
    </g>
    <g id="text_16">
     <!-- $\hat{P}$ (A = 0.0) -->
     <g transform="translate(401.488667 96.522858) scale(0.14 -0.14)">
      <defs>
       <path id="CMR17-5e" d="M 1466 4421 
L 678 3555 
L 755 3478 
L 1466 4166 
L 2176 3478 
L 2253 3555 
L 1466 4421 
z
" transform="scale(0.015625)"/>
      </defs>
      <use xlink:href="#CMR17-5e" transform="translate(23.496833 25.189733) scale(0.996264)"/>
      <use xlink:href="#CMMI12-50" transform="scale(0.996264)"/>
      <use xlink:href="#CMR17-28" transform="translate(106.501787 0) scale(0.996264)"/>
      <use xlink:href="#CMR17-41" transform="translate(141.782555 0) scale(0.996264)"/>
      <use xlink:href="#CMR17-3d" transform="translate(240.930951 0) scale(0.996264)"/>
      <use xlink:href="#CMR17-30" transform="translate(342.721706 0) scale(0.996264)"/>
      <use xlink:href="#CMR17-2e" transform="translate(388.412183 0) scale(0.996264)"/>
      <use xlink:href="#CMR17-30" transform="translate(413.283241 0) scale(0.996264)"/>
      <use xlink:href="#CMR17-29" transform="translate(458.973719 0) scale(0.996264)"/>
     </g>
    </g>
    <g id="line2d_43">
     <path d="M 362.288667 112.570554 
L 376.288667 112.570554 
L 389.542964 112.570554 
" style="fill: none; stroke: #60a7d2; stroke-width: 3; stroke-linecap: square"/>
    </g>
    <g id="text_17">
     <!-- $P_{int}$ (A = 0.33) -->
     <g transform="translate(401.488667 117.470554) scale(0.14 -0.14)">
      <defs>
       <path id="CMR17-33" d="M 1414 2157 
C 1984 2157 2234 1662 2234 1090 
C 2234 320 1824 25 1453 25 
C 1114 25 563 194 390 693 
C 422 680 454 680 486 680 
C 640 680 755 782 755 948 
C 755 1133 614 1216 486 1216 
C 378 1216 211 1165 211 926 
C 211 335 787 -128 1466 -128 
C 2176 -128 2720 430 2720 1085 
C 2720 1707 2208 2157 1600 2227 
C 2086 2328 2554 2756 2554 3329 
C 2554 3820 2048 4179 1472 4179 
C 890 4179 378 3829 378 3329 
C 378 3110 544 3072 627 3072 
C 762 3072 877 3155 877 3321 
C 877 3486 762 3569 627 3569 
C 602 3569 570 3569 544 3557 
C 730 3959 1235 4032 1459 4032 
C 1683 4032 2106 3925 2106 3320 
C 2106 3143 2080 2828 1862 2550 
C 1670 2304 1453 2304 1242 2284 
C 1210 2284 1062 2269 1037 2269 
C 992 2263 966 2257 966 2208 
C 966 2163 973 2157 1101 2157 
L 1414 2157 
z
" transform="scale(0.015625)"/>
      </defs>
      <use xlink:href="#CMMI12-50" transform="scale(0.996264)"/>
      <use xlink:href="#CMMI12-69" transform="translate(62.877232 -14.943915) scale(0.697382)"/>
      <use xlink:href="#CMMI12-6e" transform="translate(86.17214 -14.943915) scale(0.697382)"/>
      <use xlink:href="#CMMI12-74" transform="translate(126.932983 -14.943915) scale(0.697382)"/>
      <use xlink:href="#CMR17-28" transform="translate(182.165391 0) scale(0.996264)"/>
      <use xlink:href="#CMR17-41" transform="translate(217.446158 0) scale(0.996264)"/>
      <use xlink:href="#CMR17-3d" transform="translate(316.594554 0) scale(0.996264)"/>
      <use xlink:href="#CMR17-30" transform="translate(418.385309 0) scale(0.996264)"/>
      <use xlink:href="#CMR17-2e" transform="translate(464.075786 0) scale(0.996264)"/>
      <use xlink:href="#CMR17-33" transform="translate(488.946845 0) scale(0.996264)"/>
      <use xlink:href="#CMR17-33" transform="translate(534.637322 0) scale(0.996264)"/>
      <use xlink:href="#CMR17-29" transform="translate(580.327799 0) scale(0.996264)"/>
     </g>
    </g>
    <g id="line2d_44">
     <path d="M 362.288667 133.51825 
L 376.288667 133.51825 
L 389.542964 133.51825 
" style="fill: none; stroke-dasharray: 11.1,4.8; stroke-dashoffset: 0; stroke: #fa8331; stroke-width: 3"/>
    </g>
    <g id="text_18">
     <!-- $S_{int}$ (A = 0.33) -->
     <g transform="translate(401.488667 138.41825) scale(0.14 -0.14)">
      <use xlink:href="#CMMI12-53" transform="scale(0.996264)"/>
      <use xlink:href="#CMMI12-69" transform="translate(59.994488 -14.943915) scale(0.697382)"/>
      <use xlink:href="#CMMI12-6e" transform="translate(83.289395 -14.943915) scale(0.697382)"/>
      <use xlink:href="#CMMI12-74" transform="translate(124.050238 -14.943915) scale(0.697382)"/>
      <use xlink:href="#CMR17-28" transform="translate(179.282646 0) scale(0.996264)"/>
      <use xlink:href="#CMR17-41" transform="translate(214.563414 0) scale(0.996264)"/>
      <use xlink:href="#CMR17-3d" transform="translate(313.71181 0) scale(0.996264)"/>
      <use xlink:href="#CMR17-30" transform="translate(415.502565 0) scale(0.996264)"/>
      <use xlink:href="#CMR17-2e" transform="translate(461.193042 0) scale(0.996264)"/>
      <use xlink:href="#CMR17-33" transform="translate(486.0641 0) scale(0.996264)"/>
      <use xlink:href="#CMR17-33" transform="translate(531.754578 0) scale(0.996264)"/>
      <use xlink:href="#CMR17-29" transform="translate(577.445055 0) scale(0.996264)"/>
     </g>
    </g>
    <g id="line2d_45">
     <path d="M 362.288667 157.216709 
L 376.288667 157.216709 
L 389.542964 157.216709 
" style="fill: none; stroke-dasharray: 3,4.95; stroke-dashoffset: 0; stroke: #66bd6f; stroke-width: 3"/>
    </g>
    <g id="text_19">
     <!-- $\hat{P}$ (A = 0.33) -->
     <g transform="translate(401.488667 162.116709) scale(0.14 -0.14)">
      <use xlink:href="#CMR17-5e" transform="translate(23.496833 25.189733) scale(0.996264)"/>
      <use xlink:href="#CMMI12-50" transform="scale(0.996264)"/>
      <use xlink:href="#CMR17-28" transform="translate(106.501787 0) scale(0.996264)"/>
      <use xlink:href="#CMR17-41" transform="translate(141.782555 0) scale(0.996264)"/>
      <use xlink:href="#CMR17-3d" transform="translate(240.930951 0) scale(0.996264)"/>
      <use xlink:href="#CMR17-30" transform="translate(342.721706 0) scale(0.996264)"/>
      <use xlink:href="#CMR17-2e" transform="translate(388.412183 0) scale(0.996264)"/>
      <use xlink:href="#CMR17-33" transform="translate(413.283241 0) scale(0.996264)"/>
      <use xlink:href="#CMR17-33" transform="translate(458.973719 0) scale(0.996264)"/>
      <use xlink:href="#CMR17-29" transform="translate(504.664196 0) scale(0.996264)"/>
     </g>
    </g>
    <g id="line2d_46">
     <path style="fill: none; stroke: #1d6cb1; stroke-width: 3; stroke-linecap: square"/>
    </g>
    <g id="text_20">
     <!-- $P_{int}$ (A = 0.67) -->
     <g transform="translate(560.518029 51.876703) scale(0.14 -0.14)">
      <defs>
       <path id="CMR17-37" d="M 2886 3941 
L 2886 4081 
L 1382 4081 
C 634 4081 621 4165 595 4288 
L 480 4288 
L 294 3094 
L 410 3094 
C 429 3215 474 3540 550 3661 
C 589 3712 1062 3712 1171 3712 
L 2579 3712 
L 1869 2661 
C 1395 1954 1069 999 1069 165 
C 1069 89 1069 -128 1299 -128 
C 1530 -128 1530 89 1530 171 
L 1530 465 
C 1530 1508 1709 2196 2003 2636 
L 2886 3941 
z
" transform="scale(0.015625)"/>
      </defs>
      <use xlink:href="#CMMI12-50" transform="scale(0.996264)"/>
      <use xlink:href="#CMMI12-69" transform="translate(62.877232 -14.943915) scale(0.697382)"/>
      <use xlink:href="#CMMI12-6e" transform="translate(86.17214 -14.943915) scale(0.697382)"/>
      <use xlink:href="#CMMI12-74" transform="translate(126.932983 -14.943915) scale(0.697382)"/>
      <use xlink:href="#CMR17-28" transform="translate(182.165391 0) scale(0.996264)"/>
      <use xlink:href="#CMR17-41" transform="translate(217.446158 0) scale(0.996264)"/>
      <use xlink:href="#CMR17-3d" transform="translate(316.594554 0) scale(0.996264)"/>
      <use xlink:href="#CMR17-30" transform="translate(418.385309 0) scale(0.996264)"/>
      <use xlink:href="#CMR17-2e" transform="translate(464.075786 0) scale(0.996264)"/>
      <use xlink:href="#CMR17-36" transform="translate(488.946845 0) scale(0.996264)"/>
      <use xlink:href="#CMR17-37" transform="translate(534.637322 0) scale(0.996264)"/>
      <use xlink:href="#CMR17-29" transform="translate(580.327799 0) scale(0.996264)"/>
     </g>
    </g>
    <g id="line2d_47">
     <path style="fill: none; stroke-dasharray: 11.1,4.8; stroke-dashoffset: 0; stroke: #d14501; stroke-width: 3"/>
    </g>
    <g id="text_21">
     <!-- $S_{int}$ (A = 0.67) -->
     <g transform="translate(560.518029 72.824399) scale(0.14 -0.14)">
      <use xlink:href="#CMMI12-53" transform="scale(0.996264)"/>
      <use xlink:href="#CMMI12-69" transform="translate(59.994488 -14.943915) scale(0.697382)"/>
      <use xlink:href="#CMMI12-6e" transform="translate(83.289395 -14.943915) scale(0.697382)"/>
      <use xlink:href="#CMMI12-74" transform="translate(124.050238 -14.943915) scale(0.697382)"/>
      <use xlink:href="#CMR17-28" transform="translate(179.282646 0) scale(0.996264)"/>
      <use xlink:href="#CMR17-41" transform="translate(214.563414 0) scale(0.996264)"/>
      <use xlink:href="#CMR17-3d" transform="translate(313.71181 0) scale(0.996264)"/>
      <use xlink:href="#CMR17-30" transform="translate(415.502565 0) scale(0.996264)"/>
      <use xlink:href="#CMR17-2e" transform="translate(461.193042 0) scale(0.996264)"/>
      <use xlink:href="#CMR17-36" transform="translate(486.0641 0) scale(0.996264)"/>
      <use xlink:href="#CMR17-37" transform="translate(531.754578 0) scale(0.996264)"/>
      <use xlink:href="#CMR17-29" transform="translate(577.445055 0) scale(0.996264)"/>
     </g>
    </g>
    <g id="line2d_48">
     <path style="fill: none; stroke-dasharray: 3,4.95; stroke-dashoffset: 0; stroke: #1e8741; stroke-width: 3"/>
    </g>
    <g id="text_22">
     <!-- $\hat{P}$ (A = 0.67) -->
     <g transform="translate(560.518029 96.522858) scale(0.14 -0.14)">
      <use xlink:href="#CMR17-5e" transform="translate(23.496833 25.189733) scale(0.996264)"/>
      <use xlink:href="#CMMI12-50" transform="scale(0.996264)"/>
      <use xlink:href="#CMR17-28" transform="translate(106.501787 0) scale(0.996264)"/>
      <use xlink:href="#CMR17-41" transform="translate(141.782555 0) scale(0.996264)"/>
      <use xlink:href="#CMR17-3d" transform="translate(240.930951 0) scale(0.996264)"/>
      <use xlink:href="#CMR17-30" transform="translate(342.721706 0) scale(0.996264)"/>
      <use xlink:href="#CMR17-2e" transform="translate(388.412183 0) scale(0.996264)"/>
      <use xlink:href="#CMR17-36" transform="translate(413.283241 0) scale(0.996264)"/>
      <use xlink:href="#CMR17-37" transform="translate(458.973719 0) scale(0.996264)"/>
      <use xlink:href="#CMR17-29" transform="translate(504.664196 0) scale(0.996264)"/>
     </g>
    </g>
    <g id="line2d_49">
     <path style="fill: none; stroke: #08306b; stroke-width: 3; stroke-linecap: square"/>
    </g>
    <g id="text_23">
     <!-- $P_{int}$ (A = 1.0) -->
     <g transform="translate(560.518029 117.470554) scale(0.14 -0.14)">
      <use xlink:href="#CMMI12-50" transform="scale(0.996264)"/>
      <use xlink:href="#CMMI12-69" transform="translate(62.877232 -14.943915) scale(0.697382)"/>
      <use xlink:href="#CMMI12-6e" transform="translate(86.17214 -14.943915) scale(0.697382)"/>
      <use xlink:href="#CMMI12-74" transform="translate(126.932983 -14.943915) scale(0.697382)"/>
      <use xlink:href="#CMR17-28" transform="translate(182.165391 0) scale(0.996264)"/>
      <use xlink:href="#CMR17-41" transform="translate(217.446158 0) scale(0.996264)"/>
      <use xlink:href="#CMR17-3d" transform="translate(316.594554 0) scale(0.996264)"/>
      <use xlink:href="#CMR17-31" transform="translate(418.385309 0) scale(0.996264)"/>
      <use xlink:href="#CMR17-2e" transform="translate(464.075786 0) scale(0.996264)"/>
      <use xlink:href="#CMR17-30" transform="translate(488.946845 0) scale(0.996264)"/>
      <use xlink:href="#CMR17-29" transform="translate(534.637322 0) scale(0.996264)"/>
     </g>
    </g>
    <g id="line2d_50">
     <path style="fill: none; stroke-dasharray: 11.1,4.8; stroke-dashoffset: 0; stroke: #7f2704; stroke-width: 3"/>
    </g>
    <g id="text_24">
     <!-- $S_{int}$ (A = 1.0) -->
     <g transform="translate(560.518029 138.41825) scale(0.14 -0.14)">
      <use xlink:href="#CMMI12-53" transform="scale(0.996264)"/>
      <use xlink:href="#CMMI12-69" transform="translate(59.994488 -14.943915) scale(0.697382)"/>
      <use xlink:href="#CMMI12-6e" transform="translate(83.289395 -14.943915) scale(0.697382)"/>
      <use xlink:href="#CMMI12-74" transform="translate(124.050238 -14.943915) scale(0.697382)"/>
      <use xlink:href="#CMR17-28" transform="translate(179.282646 0) scale(0.996264)"/>
      <use xlink:href="#CMR17-41" transform="translate(214.563414 0) scale(0.996264)"/>
      <use xlink:href="#CMR17-3d" transform="translate(313.71181 0) scale(0.996264)"/>
      <use xlink:href="#CMR17-31" transform="translate(415.502565 0) scale(0.996264)"/>
      <use xlink:href="#CMR17-2e" transform="translate(461.193042 0) scale(0.996264)"/>
      <use xlink:href="#CMR17-30" transform="translate(486.0641 0) scale(0.996264)"/>
      <use xlink:href="#CMR17-29" transform="translate(531.754578 0) scale(0.996264)"/>
     </g>
    </g>
    <g id="line2d_51">
     <path style="fill: none; stroke-dasharray: 3,4.95; stroke-dashoffset: 0; stroke: #00441b; stroke-width: 3"/>
    </g>
    <g id="text_25">
     <!-- $\hat{P}$ (A = 1.0) -->
     <g transform="translate(560.518029 162.116709) scale(0.14 -0.14)">
      <use xlink:href="#CMR17-5e" transform="translate(23.496833 25.189733) scale(0.996264)"/>
      <use xlink:href="#CMMI12-50" transform="scale(0.996264)"/>
      <use xlink:href="#CMR17-28" transform="translate(106.501787 0) scale(0.996264)"/>
      <use xlink:href="#CMR17-41" transform="translate(141.782555 0) scale(0.996264)"/>
      <use xlink:href="#CMR17-3d" transform="translate(240.930951 0) scale(0.996264)"/>
      <use xlink:href="#CMR17-31" transform="translate(342.721706 0) scale(0.996264)"/>
      <use xlink:href="#CMR17-2e" transform="translate(388.412183 0) scale(0.996264)"/>
      <use xlink:href="#CMR17-30" transform="translate(413.283241 0) scale(0.996264)"/>
      <use xlink:href="#CMR17-29" transform="translate(458.973719 0) scale(0.996264)"/>
     </g>
    </g>
   </g>
  </g>
 </g>
 <defs>
  <clipPath id="p677b0a193a">
   <rect x="48.56787" y="28.815931" width="301.120797" height="184.902223"/>
  </clipPath>
 </defs>
</svg>
