<?xml version="1.0" encoding="utf-8" standalone="no"?>
<!DOCTYPE svg PUBLIC "-//W3C//DTD SVG 1.1//EN"
  "http://www.w3.org/Graphics/SVG/1.1/DTD/svg11.dtd">
<svg xmlns:xlink="http://www.w3.org/1999/xlink" width="388.542964pt" height="240.132758pt" viewBox="0 0 388.542964 240.132758" xmlns="http://www.w3.org/2000/svg" version="1.1">
 <metadata>
  <rdf:RDF xmlns:dc="http://purl.org/dc/elements/1.1/" xmlns:cc="http://creativecommons.org/ns#" xmlns:rdf="http://www.w3.org/1999/02/22-rdf-syntax-ns#">
   <cc:Work>
    <dc:type rdf:resource="http://purl.org/dc/dcmitype/StillImage"/>
    <dc:date>2024-12-19T12:29:40.650843</dc:date>
    <dc:format>image/svg+xml</dc:format>
    <dc:creator>
     <cc:Agent>
      <dc:title>Matplotlib v3.7.5, https://matplotlib.org/</dc:title>
     </cc:Agent>
    </dc:creator>
   </cc:Work>
  </rdf:RDF>
 </metadata>
 <defs>
  <style type="text/css">*{stroke-linejoin: round; stroke-linecap: butt}</style>
 </defs>
 <g id="figure_1">
  <g id="patch_1">
   <path d="M 0 240.132758 
L 388.542964 240.132758 
L 388.542964 0 
L 0 0 
z
" style="fill: #ffffff"/>
  </g>
  <g id="axes_1">
   <g id="patch_2">
    <path d="M 48.56787 213.718154 
L 349.688667 213.718154 
L 349.688667 28.815931 
L 48.56787 28.815931 
z
" style="fill: #ffffff"/>
   </g>
   <g id="matplotlib.axis_1">
    <g id="xtick_1">
     <g id="line2d_1">
      <defs>
       <path id="mc146deb7b4" d="M 0 0 
L 0 3.5 
" style="stroke: #000000; stroke-width: 0.8"/>
      </defs>
      <g>
       <use xlink:href="#mc146deb7b4" x="62.255179" y="213.718154" style="stroke: #000000; stroke-width: 0.8"/>
      </g>
     </g>
     <g id="text_1">
      <!-- $\mathdefault{0.0}$ -->
      <g transform="translate(53.529888 230.404031) scale(0.14 -0.14)">
       <defs>
        <path id="CMR17-30" d="M 2688 2025 
C 2688 2416 2682 3080 2413 3591 
C 2176 4039 1798 4198 1466 4198 
C 1158 4198 768 4058 525 3597 
C 269 3118 243 2524 243 2025 
C 243 1661 250 1106 448 619 
C 723 -39 1216 -128 1466 -128 
C 1760 -128 2208 -7 2470 600 
C 2662 1042 2688 1559 2688 2025 
z
M 1466 -26 
C 1056 -26 813 325 723 812 
C 653 1188 653 1738 653 2096 
C 653 2588 653 2997 736 3387 
C 858 3929 1216 4096 1466 4096 
C 1728 4096 2067 3923 2189 3400 
C 2272 3036 2278 2607 2278 2096 
C 2278 1680 2278 1169 2202 792 
C 2067 95 1690 -26 1466 -26 
z
" transform="scale(0.015625)"/>
        <path id="CMMI12-3a" d="M 1178 307 
C 1178 492 1024 619 870 619 
C 685 619 557 466 557 313 
C 557 128 710 0 864 0 
C 1050 0 1178 153 1178 307 
z
" transform="scale(0.015625)"/>
       </defs>
       <use xlink:href="#CMR17-30" transform="scale(0.996264)"/>
       <use xlink:href="#CMMI12-3a" transform="translate(45.690477 0) scale(0.996264)"/>
       <use xlink:href="#CMR17-30" transform="translate(72.787654 0) scale(0.996264)"/>
      </g>
     </g>
    </g>
    <g id="xtick_2">
     <g id="line2d_2">
      <g>
       <use xlink:href="#mc146deb7b4" x="117.004415" y="213.718154" style="stroke: #000000; stroke-width: 0.8"/>
      </g>
     </g>
     <g id="text_2">
      <!-- $\mathdefault{0.2}$ -->
      <g transform="translate(108.279124 230.404031) scale(0.14 -0.14)">
       <defs>
        <path id="CMR17-32" d="M 2669 989 
L 2554 989 
C 2490 536 2438 459 2413 420 
C 2381 369 1920 369 1830 369 
L 602 369 
C 832 619 1280 1072 1824 1597 
C 2214 1967 2669 2402 2669 3035 
C 2669 3790 2067 4224 1395 4224 
C 691 4224 262 3604 262 3030 
C 262 2780 448 2748 525 2748 
C 589 2748 781 2787 781 3010 
C 781 3207 614 3264 525 3264 
C 486 3264 448 3258 422 3245 
C 544 3790 915 4058 1306 4058 
C 1862 4058 2227 3617 2227 3035 
C 2227 2479 1901 2000 1536 1584 
L 262 146 
L 262 0 
L 2515 0 
L 2669 989 
z
" transform="scale(0.015625)"/>
       </defs>
       <use xlink:href="#CMR17-30" transform="scale(0.996264)"/>
       <use xlink:href="#CMMI12-3a" transform="translate(45.690477 0) scale(0.996264)"/>
       <use xlink:href="#CMR17-32" transform="translate(72.787654 0) scale(0.996264)"/>
      </g>
     </g>
    </g>
    <g id="xtick_3">
     <g id="line2d_3">
      <g>
       <use xlink:href="#mc146deb7b4" x="171.753651" y="213.718154" style="stroke: #000000; stroke-width: 0.8"/>
      </g>
     </g>
     <g id="text_3">
      <!-- $\mathdefault{0.4}$ -->
      <g transform="translate(163.02836 230.404031) scale(0.14 -0.14)">
       <defs>
        <path id="CMR17-34" d="M 2150 4122 
C 2150 4256 2144 4256 2029 4256 
L 128 1254 
L 128 1088 
L 1779 1088 
L 1779 457 
C 1779 224 1766 160 1318 160 
L 1197 160 
L 1197 0 
C 1402 0 1747 0 1965 0 
C 2182 0 2528 0 2733 0 
L 2733 160 
L 2611 160 
C 2163 160 2150 224 2150 457 
L 2150 1088 
L 2803 1088 
L 2803 1254 
L 2150 1254 
L 2150 4122 
z
M 1798 3703 
L 1798 1254 
L 256 1254 
L 1798 3703 
z
" transform="scale(0.015625)"/>
       </defs>
       <use xlink:href="#CMR17-30" transform="scale(0.996264)"/>
       <use xlink:href="#CMMI12-3a" transform="translate(45.690477 0) scale(0.996264)"/>
       <use xlink:href="#CMR17-34" transform="translate(72.787654 0) scale(0.996264)"/>
      </g>
     </g>
    </g>
    <g id="xtick_4">
     <g id="line2d_4">
      <g>
       <use xlink:href="#mc146deb7b4" x="226.502887" y="213.718154" style="stroke: #000000; stroke-width: 0.8"/>
      </g>
     </g>
     <g id="text_4">
      <!-- $\mathdefault{0.6}$ -->
      <g transform="translate(217.777596 230.404031) scale(0.14 -0.14)">
       <defs>
        <path id="CMR17-36" d="M 678 2176 
C 678 3690 1395 4032 1811 4032 
C 1946 4032 2272 4009 2400 3776 
C 2298 3776 2106 3776 2106 3553 
C 2106 3381 2246 3323 2336 3323 
C 2394 3323 2566 3348 2566 3560 
C 2566 3954 2246 4179 1805 4179 
C 1043 4179 243 3390 243 1984 
C 243 253 966 -128 1478 -128 
C 2099 -128 2688 427 2688 1283 
C 2688 2081 2170 2662 1517 2662 
C 1126 2662 838 2407 678 1960 
L 678 2176 
z
M 1478 25 
C 691 25 691 1200 691 1436 
C 691 1896 909 2560 1504 2560 
C 1613 2560 1926 2560 2138 2120 
C 2253 1870 2253 1609 2253 1289 
C 2253 944 2253 690 2118 434 
C 1978 171 1773 25 1478 25 
z
" transform="scale(0.015625)"/>
       </defs>
       <use xlink:href="#CMR17-30" transform="scale(0.996264)"/>
       <use xlink:href="#CMMI12-3a" transform="translate(45.690477 0) scale(0.996264)"/>
       <use xlink:href="#CMR17-36" transform="translate(72.787654 0) scale(0.996264)"/>
      </g>
     </g>
    </g>
    <g id="xtick_5">
     <g id="line2d_5">
      <g>
       <use xlink:href="#mc146deb7b4" x="281.252123" y="213.718154" style="stroke: #000000; stroke-width: 0.8"/>
      </g>
     </g>
     <g id="text_5">
      <!-- $\mathdefault{0.8}$ -->
      <g transform="translate(272.526832 230.404031) scale(0.14 -0.14)">
       <defs>
        <path id="CMR17-38" d="M 1741 2264 
C 2144 2467 2554 2773 2554 3263 
C 2554 3841 1990 4179 1472 4179 
C 890 4179 378 3759 378 3180 
C 378 3021 416 2747 666 2505 
C 730 2442 998 2251 1171 2130 
C 883 1983 211 1634 211 934 
C 211 279 838 -128 1459 -128 
C 2144 -128 2720 362 2720 1010 
C 2720 1590 2330 1857 2074 2029 
L 1741 2264 
z
M 902 2822 
C 851 2854 595 3051 595 3351 
C 595 3739 998 4032 1459 4032 
C 1965 4032 2336 3676 2336 3262 
C 2336 2669 1670 2331 1638 2331 
C 1632 2331 1626 2331 1574 2370 
L 902 2822 
z
M 2080 1519 
C 2176 1449 2483 1240 2483 851 
C 2483 381 2010 25 1472 25 
C 890 25 448 438 448 940 
C 448 1443 838 1862 1280 2060 
L 2080 1519 
z
" transform="scale(0.015625)"/>
       </defs>
       <use xlink:href="#CMR17-30" transform="scale(0.996264)"/>
       <use xlink:href="#CMMI12-3a" transform="translate(45.690477 0) scale(0.996264)"/>
       <use xlink:href="#CMR17-38" transform="translate(72.787654 0) scale(0.996264)"/>
      </g>
     </g>
    </g>
    <g id="xtick_6">
     <g id="line2d_6">
      <g>
       <use xlink:href="#mc146deb7b4" x="336.001359" y="213.718154" style="stroke: #000000; stroke-width: 0.8"/>
      </g>
     </g>
     <g id="text_6">
      <!-- $\mathdefault{1.0}$ -->
      <g transform="translate(327.276068 230.404031) scale(0.14 -0.14)">
       <defs>
        <path id="CMR17-31" d="M 1702 4058 
C 1702 4192 1696 4192 1606 4192 
C 1357 3916 979 3827 621 3827 
C 602 3827 570 3827 563 3808 
C 557 3795 557 3782 557 3648 
C 755 3648 1088 3686 1344 3839 
L 1344 461 
C 1344 236 1331 160 781 160 
L 589 160 
L 589 0 
C 896 0 1216 0 1523 0 
C 1830 0 2150 0 2458 0 
L 2458 160 
L 2266 160 
C 1715 160 1702 230 1702 458 
L 1702 4058 
z
" transform="scale(0.015625)"/>
       </defs>
       <use xlink:href="#CMR17-31" transform="scale(0.996264)"/>
       <use xlink:href="#CMMI12-3a" transform="translate(45.690477 0) scale(0.996264)"/>
       <use xlink:href="#CMR17-30" transform="translate(72.787654 0) scale(0.996264)"/>
      </g>
     </g>
    </g>
    <g id="text_7">
     <!-- $t$ -->
     <g transform="translate(196.662426 246.801936) scale(0.14 -0.14)">
      <defs>
       <path id="CMMI12-74" d="M 1286 2566 
L 1875 2566 
C 1997 2566 2061 2566 2061 2681 
C 2061 2752 2022 2752 1894 2752 
L 1331 2752 
L 1568 3692 
C 1594 3781 1594 3794 1594 3840 
C 1594 3943 1510 4000 1427 4000 
C 1376 4000 1229 3981 1178 3775 
L 928 2752 
L 326 2752 
C 198 2752 141 2752 141 2630 
C 141 2566 186 2566 307 2566 
L 877 2566 
L 454 881 
C 403 658 384 594 384 511 
C 384 211 595 -64 954 -64 
C 1600 -64 1946 868 1946 912 
C 1946 951 1920 970 1882 970 
C 1869 970 1843 970 1830 944 
C 1824 938 1818 931 1773 829 
C 1638 511 1344 64 973 64 
C 781 64 768 224 768 364 
C 768 370 768 492 787 568 
L 1286 2566 
z
" transform="scale(0.015625)"/>
      </defs>
      <use xlink:href="#CMMI12-74" transform="scale(0.996264)"/>
     </g>
    </g>
   </g>
   <g id="matplotlib.axis_2">
    <g id="ytick_1">
     <g id="line2d_7">
      <defs>
       <path id="m08b64cda33" d="M 0 0 
L -3.5 0 
" style="stroke: #000000; stroke-width: 0.8"/>
      </defs>
      <g>
       <use xlink:href="#m08b64cda33" x="48.56787" y="187.500118" style="stroke: #000000; stroke-width: 0.8"/>
      </g>
     </g>
     <g id="text_8">
      <!-- $\mathdefault{0.2}$ -->
      <g transform="translate(24.117288 192.343057) scale(0.14 -0.14)">
       <use xlink:href="#CMR17-30" transform="scale(0.996264)"/>
       <use xlink:href="#CMMI12-3a" transform="translate(45.690477 0) scale(0.996264)"/>
       <use xlink:href="#CMR17-32" transform="translate(72.787654 0) scale(0.996264)"/>
      </g>
     </g>
    </g>
    <g id="ytick_2">
     <g id="line2d_8">
      <g>
       <use xlink:href="#m08b64cda33" x="48.56787" y="156.621614" style="stroke: #000000; stroke-width: 0.8"/>
      </g>
     </g>
     <g id="text_9">
      <!-- $\mathdefault{0.4}$ -->
      <g transform="translate(24.117288 161.464552) scale(0.14 -0.14)">
       <use xlink:href="#CMR17-30" transform="scale(0.996264)"/>
       <use xlink:href="#CMMI12-3a" transform="translate(45.690477 0) scale(0.996264)"/>
       <use xlink:href="#CMR17-34" transform="translate(72.787654 0) scale(0.996264)"/>
      </g>
     </g>
    </g>
    <g id="ytick_3">
     <g id="line2d_9">
      <g>
       <use xlink:href="#m08b64cda33" x="48.56787" y="125.743109" style="stroke: #000000; stroke-width: 0.8"/>
      </g>
     </g>
     <g id="text_10">
      <!-- $\mathdefault{0.6}$ -->
      <g transform="translate(24.117288 130.586048) scale(0.14 -0.14)">
       <use xlink:href="#CMR17-30" transform="scale(0.996264)"/>
       <use xlink:href="#CMMI12-3a" transform="translate(45.690477 0) scale(0.996264)"/>
       <use xlink:href="#CMR17-36" transform="translate(72.787654 0) scale(0.996264)"/>
      </g>
     </g>
    </g>
    <g id="ytick_4">
     <g id="line2d_10">
      <g>
       <use xlink:href="#m08b64cda33" x="48.56787" y="94.864605" style="stroke: #000000; stroke-width: 0.8"/>
      </g>
     </g>
     <g id="text_11">
      <!-- $\mathdefault{0.8}$ -->
      <g transform="translate(24.117288 99.707543) scale(0.14 -0.14)">
       <use xlink:href="#CMR17-30" transform="scale(0.996264)"/>
       <use xlink:href="#CMMI12-3a" transform="translate(45.690477 0) scale(0.996264)"/>
       <use xlink:href="#CMR17-38" transform="translate(72.787654 0) scale(0.996264)"/>
      </g>
     </g>
    </g>
    <g id="ytick_5">
     <g id="line2d_11">
      <g>
       <use xlink:href="#m08b64cda33" x="48.56787" y="63.9861" style="stroke: #000000; stroke-width: 0.8"/>
      </g>
     </g>
     <g id="text_12">
      <!-- $\mathdefault{1.0}$ -->
      <g transform="translate(24.117288 68.829039) scale(0.14 -0.14)">
       <use xlink:href="#CMR17-31" transform="scale(0.996264)"/>
       <use xlink:href="#CMMI12-3a" transform="translate(45.690477 0) scale(0.996264)"/>
       <use xlink:href="#CMR17-30" transform="translate(72.787654 0) scale(0.996264)"/>
      </g>
     </g>
    </g>
    <g id="ytick_6">
     <g id="line2d_12">
      <g>
       <use xlink:href="#m08b64cda33" x="48.56787" y="33.107596" style="stroke: #000000; stroke-width: 0.8"/>
      </g>
     </g>
     <g id="text_13">
      <!-- $\mathdefault{1.2}$ -->
      <g transform="translate(24.117288 37.950534) scale(0.14 -0.14)">
       <use xlink:href="#CMR17-31" transform="scale(0.996264)"/>
       <use xlink:href="#CMMI12-3a" transform="translate(45.690477 0) scale(0.996264)"/>
       <use xlink:href="#CMR17-32" transform="translate(72.787654 0) scale(0.996264)"/>
      </g>
     </g>
    </g>
   </g>
   <g id="line2d_13">
    <path d="M 62.255179 203.858412 
L 64.171403 203.549902 
L 65.81388 203.079732 
L 67.182611 202.492611 
L 68.551342 201.672236 
L 69.920072 200.544852 
L 71.015057 199.351648 
L 72.110042 197.819589 
L 73.205027 195.855837 
L 74.300011 193.353806 
L 75.394996 190.195547 
L 76.489981 186.270998 
L 77.584965 181.523045 
L 78.953696 174.462209 
L 80.596173 164.67722 
L 83.881128 144.78036 
L 85.523605 136.369476 
L 87.166082 129.248747 
L 89.082305 122.036629 
L 92.367259 110.725334 
L 99.210914 87.918538 
L 101.948375 79.655971 
L 104.138345 73.712787 
L 106.054568 69.093715 
L 107.970791 65.073405 
L 109.613268 62.099586 
L 111.255745 59.522938 
L 112.898223 57.304691 
L 114.5407 55.423348 
L 116.183177 53.869338 
L 117.825654 52.628029 
L 119.468131 51.669091 
L 121.110608 50.948994 
L 123.026831 50.34912 
L 125.216801 49.906608 
L 127.680516 49.648146 
L 130.417978 49.598857 
L 133.429186 49.772527 
L 137.261633 50.234291 
L 143.010302 51.185076 
L 155.602627 53.311353 
L 162.446281 54.217027 
L 169.289935 54.901547 
L 176.681082 55.411182 
L 184.893468 55.746282 
L 194.74833 55.916308 
L 208.983131 55.917449 
L 240.190196 55.876995 
L 256.067474 56.115045 
L 271.39726 56.570293 
L 286.727046 57.251058 
L 302.056832 58.153291 
L 317.660365 59.295507 
L 332.990151 60.638816 
L 335.727612 60.902192 
L 335.727612 60.902192 
" clip-path="url(#p434d843a60)" style="fill: none; stroke: #b7d4ea; stroke-width: 3; stroke-linecap: square"/>
   </g>
   <g id="line2d_14">
    <path d="M 62.255179 205.20524 
L 64.663536 204.759695 
L 66.269107 204.25332 
L 67.874678 203.51561 
L 69.48013 202.461432 
L 71.085701 200.962947 
L 71.888487 199.990966 
L 72.691154 198.831301 
L 73.493939 197.447506 
L 74.296724 195.798361 
L 75.099511 193.838534 
L 75.902296 191.521194 
L 76.705081 188.802563 
L 77.507867 185.648517 
L 79.113438 177.996765 
L 80.718891 168.79723 
L 84.732699 144.470667 
L 86.33827 136.306816 
L 87.943842 129.322064 
L 90.35208 120.314986 
L 95.16903 103.858733 
L 99.985625 87.84351 
L 102.393861 80.45855 
L 104.802219 73.78949 
L 107.210574 67.973319 
L 108.816028 64.600727 
L 110.422188 61.631619 
L 112.027642 59.057088 
L 113.633214 56.8557 
L 115.238664 55.001817 
L 116.844237 53.465384 
L 118.449809 52.215205 
L 120.055259 51.219235 
L 121.660831 50.446224 
L 123.266285 49.866853 
L 125.674758 49.301285 
L 128.082998 49.028541 
L 130.491235 48.980191 
L 133.702257 49.169339 
L 137.716184 49.674318 
L 143.335569 50.645901 
L 162.602299 54.169358 
L 170.629916 55.335556 
L 178.657656 56.285623 
L 187.488055 57.111291 
L 197.924271 57.852258 
L 210.768834 58.520784 
L 229.232423 59.230427 
L 269.371235 60.726534 
L 287.032147 61.641337 
L 302.284722 62.647264 
L 316.734865 63.823639 
L 330.381974 65.159734 
L 336.001359 65.778004 
L 336.001359 65.778004 
" clip-path="url(#p434d843a60)" style="fill: none; stroke-dasharray: 3,4.95; stroke-dashoffset: 0; stroke: #b8e3b2; stroke-width: 3"/>
   </g>
   <g id="line2d_15">
    <path d="M 62.255179 205.212342 
L 64.663536 204.766233 
L 66.269107 204.259832 
L 67.874678 203.522447 
L 69.48013 202.469036 
L 71.085701 200.971892 
L 71.888487 200.00088 
L 72.691154 198.842436 
L 73.493939 197.460095 
L 74.296724 195.81271 
L 75.099511 193.85494 
L 75.902296 191.539997 
L 76.705081 188.824026 
L 77.507867 185.672801 
L 79.113438 178.026687 
L 80.718891 168.831703 
L 84.732699 144.507675 
L 86.33827 136.344132 
L 87.943842 129.361312 
L 90.35208 120.36075 
L 95.16903 103.925276 
L 99.985625 87.9326 
L 102.393861 80.557781 
L 104.802219 73.897527 
L 107.210574 68.088414 
L 108.816028 64.719559 
L 110.422188 61.753277 
L 112.027642 59.180954 
L 113.633214 56.980909 
L 115.238664 55.127671 
L 116.844237 53.591385 
L 118.449809 52.340672 
L 120.055259 51.34404 
L 121.660831 50.569851 
L 123.266285 49.989228 
L 125.674758 49.42158 
L 128.082998 49.146793 
L 130.491235 49.096511 
L 133.702257 49.283598 
L 137.716184 49.787067 
L 143.335569 50.758263 
L 162.602299 54.291899 
L 170.629916 55.463802 
L 178.657656 56.41893 
L 187.488055 57.249034 
L 197.924271 57.993609 
L 210.768834 58.664527 
L 229.232423 59.374151 
L 269.371235 60.863467 
L 287.032147 61.775087 
L 302.284722 62.779338 
L 316.734865 63.955622 
L 330.381974 65.293694 
L 336.001359 65.913401 
L 336.001359 65.913401 
" clip-path="url(#p434d843a60)" style="fill: none; stroke-dasharray: 3,4.95; stroke-dashoffset: 0; stroke: #b8e3b2; stroke-width: 3"/>
   </g>
   <g id="line2d_16">
    <path d="M 62.255179 205.144427 
L 64.663536 204.697347 
L 66.269107 204.186901 
L 67.874678 203.441962 
L 69.48013 202.37632 
L 71.085701 200.860452 
L 71.888487 199.876859 
L 72.691154 198.703235 
L 73.493939 197.302691 
L 74.296724 195.63376 
L 75.099511 193.650833 
L 75.902296 191.307059 
L 76.705081 188.558966 
L 78.310652 181.734501 
L 79.916223 173.182857 
L 83.127247 153.376237 
L 84.732699 144.013731 
L 86.33827 135.838951 
L 87.943842 128.83307 
L 90.35208 119.769038 
L 95.971814 100.394383 
L 99.985625 86.960308 
L 102.393861 79.503707 
L 104.802219 72.776082 
L 107.210574 66.916226 
L 108.816028 63.522993 
L 110.422188 60.540183 
L 112.027642 57.958363 
L 113.633214 55.755466 
L 115.238664 53.905301 
L 116.844237 52.377316 
L 118.449809 51.138897 
L 120.055259 50.15745 
L 121.660831 49.40104 
L 123.266285 48.8393 
L 125.674758 48.300972 
L 128.082998 48.054731 
L 130.491235 48.030289 
L 133.702257 48.24618 
L 137.716184 48.774699 
L 144.138237 49.911945 
L 159.391154 52.712177 
L 167.418894 53.926449 
L 175.446633 54.920982 
L 184.276918 55.788117 
L 193.910344 56.514655 
L 205.952011 57.191242 
L 222.810378 57.887541 
L 271.779589 59.7687 
L 289.440388 60.736657 
L 304.693435 61.787252 
L 319.143334 62.999426 
L 332.790328 64.359317 
L 336.001359 64.711314 
L 336.001359 64.711314 
" clip-path="url(#p434d843a60)" style="fill: none; stroke-dasharray: 3,4.95; stroke-dashoffset: 0; stroke: #b8e3b2; stroke-width: 3"/>
   </g>
   <g id="line2d_17">
    <path d="M 62.255179 205.165242 
L 64.663536 204.719939 
L 66.269107 204.211695 
L 67.874678 203.470022 
L 69.48013 202.409135 
L 71.085701 200.900102 
L 71.888487 199.920979 
L 72.691154 198.752671 
L 73.493939 197.358449 
L 74.296724 195.696933 
L 75.099511 193.722638 
L 75.902296 191.388752 
L 76.705081 188.651686 
L 78.310652 181.851651 
L 79.916223 173.324305 
L 82.324461 158.53228 
L 84.732699 144.192623 
L 86.33827 136.0229 
L 87.943842 129.024491 
L 90.35208 119.978873 
L 95.971814 100.664155 
L 99.985625 87.270654 
L 102.393861 79.833736 
L 104.802219 73.121443 
L 107.210574 67.272041 
L 108.816028 63.883106 
L 110.422188 60.902302 
L 112.027642 58.320629 
L 113.633214 56.116076 
L 115.238664 54.262708 
L 116.844237 52.729993 
L 118.449809 51.486127 
L 120.055259 50.498347 
L 121.660831 49.734999 
L 123.266285 49.166284 
L 125.674758 48.617189 
L 128.082998 48.360641 
L 130.491235 48.327015 
L 133.702257 48.532433 
L 137.716184 49.051547 
L 143.335569 50.030161 
L 160.996849 53.254352 
L 169.024466 54.435844 
L 177.052083 55.400249 
L 185.882482 56.239684 
L 196.318576 56.993664 
L 209.163384 57.674503 
L 227.626859 58.397176 
L 267.765654 59.907842 
L 285.426583 60.817694 
L 301.482062 61.867461 
L 315.932075 63.031211 
L 329.5792 64.344704 
L 336.001359 65.039806 
L 336.001359 65.039806 
" clip-path="url(#p434d843a60)" style="fill: none; stroke-dasharray: 3,4.95; stroke-dashoffset: 0; stroke: #b8e3b2; stroke-width: 3"/>
   </g>
   <g id="line2d_18">
    <path d="M 62.255179 205.144427 
L 64.663536 204.697347 
L 66.269107 204.186901 
L 67.874678 203.441962 
L 69.48013 202.37632 
L 71.085701 200.860452 
L 71.888487 199.876859 
L 72.691154 198.703235 
L 73.493939 197.302691 
L 74.296724 195.63376 
L 75.099511 193.650833 
L 75.902296 191.307059 
L 76.705081 188.558966 
L 78.310652 181.734501 
L 79.916223 173.182857 
L 83.127247 153.376237 
L 84.732699 144.013731 
L 86.33827 135.838951 
L 87.943842 128.83307 
L 90.35208 119.769038 
L 95.971814 100.394383 
L 99.985625 86.960308 
L 102.393861 79.503707 
L 104.802219 72.776082 
L 107.210574 66.916226 
L 108.816028 63.522993 
L 110.422188 60.540183 
L 112.027642 57.958363 
L 113.633214 55.755466 
L 115.238664 53.905301 
L 116.844237 52.377316 
L 118.449809 51.138897 
L 120.055259 50.15745 
L 121.660831 49.40104 
L 123.266285 48.8393 
L 125.674758 48.300972 
L 128.082998 48.054731 
L 130.491235 48.030289 
L 133.702257 48.24618 
L 137.716184 48.774699 
L 144.138237 49.911945 
L 159.391154 52.712177 
L 167.418894 53.926449 
L 175.446633 54.920982 
L 184.276918 55.788117 
L 193.910344 56.514655 
L 205.952011 57.191242 
L 222.810378 57.887541 
L 271.779589 59.7687 
L 289.440388 60.736657 
L 304.693435 61.787252 
L 319.143334 62.999426 
L 332.790328 64.359317 
L 336.001359 64.711314 
L 336.001359 64.711314 
" clip-path="url(#p434d843a60)" style="fill: none; stroke-dasharray: 3,4.95; stroke-dashoffset: 0; stroke: #b8e3b2; stroke-width: 3"/>
   </g>
   <g id="line2d_19">
    <path d="M 62.255179 203.858412 
L 64.718895 203.471209 
L 66.635118 202.950323 
L 68.277595 202.276658 
L 69.646326 201.497631 
L 71.015057 200.45216 
L 72.110042 199.356912 
L 73.205027 197.949892 
L 74.300011 196.134404 
L 75.394996 193.807372 
L 76.489981 190.865787 
L 77.584965 187.207193 
L 78.67995 182.762918 
L 80.048681 176.155669 
L 81.964904 165.535377 
L 84.976112 148.715317 
L 86.618589 140.868722 
L 88.261066 134.151809 
L 89.903544 128.353334 
L 91.819767 122.39837 
L 94.283482 115.548748 
L 97.020944 108.636226 
L 99.758406 102.355917 
L 102.222122 97.285765 
L 104.412091 93.288461 
L 106.328314 90.204663 
L 108.244538 87.505732 
L 110.160761 85.171552 
L 112.076984 83.174855 
L 113.993207 81.49628 
L 115.909431 80.129164 
L 117.825654 79.068731 
L 119.741877 78.29653 
L 121.6581 77.775843 
L 123.84807 77.431025 
L 126.311785 77.295592 
L 128.775501 77.381893 
L 131.512963 77.704754 
L 134.524171 78.288754 
L 138.356617 79.270046 
L 144.652779 81.150367 
L 162.993773 86.729491 
L 171.479905 89.022527 
L 180.787275 91.30475 
L 192.832107 94.014779 
L 216.100532 98.964184 
L 245.665119 105.336923 
L 276.598438 112.258583 
L 327.241481 123.602749 
L 335.727612 125.434996 
L 335.727612 125.434996 
" clip-path="url(#p434d843a60)" style="fill: none; stroke: #9dcae1; stroke-width: 3; stroke-linecap: square"/>
   </g>
   <g id="line2d_20">
    <path d="M 62.255179 205.313508 
L 64.663536 204.941542 
L 67.071893 204.30682 
L 68.677463 203.667789 
L 70.282916 202.774077 
L 71.888487 201.512753 
L 72.691154 200.69402 
L 73.493939 199.714053 
L 74.296724 198.539998 
L 75.099511 197.133917 
L 75.902296 195.45403 
L 76.705081 193.456968 
L 77.507867 191.101689 
L 78.310652 188.355388 
L 79.916223 181.644569 
L 81.521677 173.49952 
L 86.33827 147.505577 
L 87.943842 140.416667 
L 89.549294 134.313856 
L 91.154864 128.964703 
L 93.563103 121.857612 
L 95.971814 115.426676 
L 98.380052 109.484099 
L 100.788411 104.002522 
L 103.196765 99.009111 
L 105.605001 94.533202 
L 108.01336 90.591214 
L 110.422188 87.18542 
L 112.830428 84.307445 
L 114.436 82.671956 
L 116.04145 81.2543 
L 117.647023 80.04452 
L 119.252477 79.032289 
L 120.858045 78.205784 
L 122.463618 77.552636 
L 124.871972 76.869773 
L 127.280212 76.503034 
L 129.688567 76.40766 
L 132.096807 76.540387 
L 135.307829 77.0017 
L 138.518974 77.708628 
L 142.532779 78.824874 
L 148.954823 80.887516 
L 161.799517 85.07014 
L 169.024466 87.183018 
L 177.052083 89.294452 
L 186.685273 91.569708 
L 199.529721 94.340207 
L 336.001359 122.808673 
L 336.001359 122.808673 
" clip-path="url(#p434d843a60)" style="fill: none; stroke-dasharray: 3,4.95; stroke-dashoffset: 0; stroke: #66bd6f; stroke-width: 3"/>
   </g>
   <g id="line2d_21">
    <path d="M 62.255179 204.788524 
L 64.663536 204.417692 
L 67.071893 203.764496 
L 68.677463 203.095708 
L 70.282916 202.150551 
L 71.888487 200.805359 
L 72.691154 199.927922 
L 73.493939 198.87493 
L 74.296724 197.610871 
L 75.099511 196.095252 
L 75.902296 194.284069 
L 76.705081 192.132681 
L 77.507867 189.600497 
L 79.113438 183.292907 
L 80.718891 175.389399 
L 83.127247 161.713947 
L 85.535485 148.359989 
L 87.141056 140.607573 
L 88.746508 133.876571 
L 90.35208 127.971383 
L 92.760318 120.161258 
L 95.16903 113.156251 
L 97.577266 106.761426 
L 99.985625 100.960669 
L 102.393861 95.792207 
L 104.802219 91.285065 
L 106.407788 88.651205 
L 108.01336 86.309534 
L 109.618814 84.251752 
L 111.224856 82.465562 
L 112.830428 80.938074 
L 114.436 79.652953 
L 116.04145 78.593449 
L 117.647023 77.741711 
L 119.252477 77.079885 
L 120.858045 76.589906 
L 123.266285 76.139195 
L 125.674758 75.979559 
L 128.082998 76.058986 
L 130.491235 76.330708 
L 133.702257 76.921942 
L 137.716184 77.917184 
L 143.335569 79.578403 
L 162.602299 85.494293 
L 170.629916 87.6508 
L 179.460438 89.782249 
L 189.09375 91.875314 
L 201.135285 94.254578 
L 218.796573 97.487816 
L 281.412648 108.785178 
L 308.70724 113.667294 
L 326.368169 116.609558 
L 336.001359 118.111132 
L 336.001359 118.111132 
" clip-path="url(#p434d843a60)" style="fill: none; stroke-dasharray: 3,4.95; stroke-dashoffset: 0; stroke: #66bd6f; stroke-width: 3"/>
   </g>
   <g id="line2d_22">
    <path d="M 62.255179 204.763643 
L 64.663536 204.405458 
L 67.071893 203.768778 
L 68.677463 203.115525 
L 70.282916 202.192376 
L 71.888487 200.879612 
L 72.691154 200.023991 
L 73.493939 198.997648 
L 74.296724 197.765934 
L 75.099511 196.289108 
L 75.902296 194.523583 
L 76.705081 192.424524 
L 77.507867 189.950261 
L 78.310652 187.068499 
L 79.916223 180.047418 
L 81.521677 171.571176 
L 85.535485 148.83252 
L 87.141056 140.984232 
L 88.746508 134.186824 
L 90.35208 128.25356 
L 92.760318 120.450364 
L 95.16903 113.462851 
L 97.577266 107.053836 
L 99.985625 101.186581 
L 102.393861 95.895846 
L 104.802219 91.217445 
L 107.210574 87.168856 
L 108.816028 84.818663 
L 110.422188 82.740184 
L 112.027642 80.926433 
L 113.633214 79.365052 
L 115.238664 78.042973 
L 116.844237 76.945169 
L 118.449809 76.056124 
L 120.055259 75.359227 
L 121.660831 74.837518 
L 124.069186 74.346923 
L 126.477426 74.157784 
L 128.885781 74.217572 
L 131.294017 74.478546 
L 134.505047 75.066237 
L 138.518974 76.06747 
L 144.138237 77.7408 
L 160.996849 82.915133 
L 169.024466 85.068272 
L 177.854865 87.184831 
L 188.290959 89.437716 
L 202.740866 92.310943 
L 271.779589 105.782214 
L 299.876482 111.221064 
L 322.354365 115.343817 
L 336.001359 117.745516 
L 336.001359 117.745516 
" clip-path="url(#p434d843a60)" style="fill: none; stroke-dasharray: 3,4.95; stroke-dashoffset: 0; stroke: #66bd6f; stroke-width: 3"/>
   </g>
   <g id="line2d_23">
    <path d="M 62.255179 204.726652 
L 64.663536 204.366693 
L 67.071893 203.724285 
L 68.677463 203.063526 
L 70.282916 202.128149 
L 71.888487 200.795946 
L 72.691154 199.926822 
L 73.493939 198.883726 
L 74.296724 197.631473 
L 75.099511 196.129755 
L 75.902296 194.334618 
L 76.705081 192.201223 
L 77.507867 189.688284 
L 78.310652 186.764784 
L 79.916223 179.659636 
L 81.521677 171.118504 
L 85.535485 148.375238 
L 87.141056 140.551502 
L 88.746508 133.763702 
L 90.35208 127.820103 
L 92.760318 119.976729 
L 95.16903 112.947234 
L 97.577266 106.519556 
L 99.985625 100.670293 
L 102.393861 95.437128 
L 104.802219 90.852188 
L 107.210574 86.92578 
L 108.816028 84.668395 
L 110.422188 82.688622 
L 112.027642 80.976458 
L 113.633214 79.516995 
L 115.238664 78.294966 
L 116.844237 77.293199 
L 118.449809 76.494393 
L 120.055259 75.880862 
L 121.660831 75.434779 
L 124.069186 75.041676 
L 126.477426 74.930436 
L 128.885781 75.049489 
L 132.096807 75.487142 
L 135.307829 76.158676 
L 140.124538 77.442565 
L 148.152164 79.897905 
L 159.391154 83.294838 
L 167.418894 85.483268 
L 176.249301 87.645224 
L 185.882482 89.768096 
L 197.924271 92.190261 
L 217.191009 95.809554 
L 266.16009 104.955111 
L 299.876482 111.232503 
L 319.143334 114.587306 
L 336.001359 117.316946 
L 336.001359 117.316946 
" clip-path="url(#p434d843a60)" style="fill: none; stroke-dasharray: 3,4.95; stroke-dashoffset: 0; stroke: #66bd6f; stroke-width: 3"/>
   </g>
   <g id="line2d_24">
    <path d="M 62.255179 204.938294 
L 64.663536 204.574077 
L 67.071893 203.93738 
L 68.677463 203.289026 
L 70.282916 202.376618 
L 71.888487 201.082982 
L 72.691154 200.241211 
L 73.493939 199.232364 
L 74.296724 198.022431 
L 75.099511 196.572361 
L 75.902296 194.83916 
L 76.705081 192.778465 
L 77.507867 190.348592 
L 78.310652 187.516889 
L 79.916223 180.607421 
L 81.521677 172.243806 
L 85.535485 149.705935 
L 87.141056 141.915954 
L 88.746508 135.181772 
L 90.35208 129.321199 
L 92.760318 121.638657 
L 95.16903 114.767602 
L 97.577266 108.451633 
L 99.985625 102.641379 
L 102.393861 97.365956 
L 104.802219 92.660795 
L 107.210574 88.547429 
L 109.618814 85.028232 
L 111.224856 83.005115 
L 112.830428 81.233171 
L 114.436 79.702103 
L 116.04145 78.400454 
L 117.647023 77.315046 
L 119.252477 76.431871 
L 120.858045 75.73606 
L 122.463618 75.212299 
L 124.871972 74.715318 
L 127.280212 74.518817 
L 129.688567 74.573093 
L 132.096807 74.831776 
L 135.307829 75.422871 
L 139.321756 76.438828 
L 144.941019 78.148103 
L 161.799517 83.453369 
L 169.827134 85.653165 
L 177.854865 87.62161 
L 187.488055 89.758856 
L 201.938076 92.710433 
L 258.132465 103.983629 
L 301.482062 112.768835 
L 331.987554 118.68327 
L 336.001359 119.448597 
L 336.001359 119.448597 
" clip-path="url(#p434d843a60)" style="fill: none; stroke-dasharray: 3,4.95; stroke-dashoffset: 0; stroke: #66bd6f; stroke-width: 3"/>
   </g>
   <g id="line2d_25">
    <path d="M 62.255179 205.102002 
L 64.663536 204.733525 
L 67.071893 204.097061 
L 68.677463 203.452542 
L 70.282916 202.548244 
L 71.888487 201.268964 
L 72.691154 200.43751 
L 73.493939 199.441633 
L 74.296724 198.247881 
L 75.099511 196.817649 
L 75.902296 195.108511 
L 76.705081 193.076511 
L 77.507867 190.680237 
L 78.310652 187.886858 
L 79.916223 181.065789 
L 81.521677 172.797783 
L 86.33827 146.469959 
L 87.943842 139.286101 
L 89.549294 133.088707 
L 91.154864 127.643121 
L 93.563103 120.390769 
L 95.971814 113.822172 
L 98.380052 107.759751 
L 100.788411 102.184281 
L 103.196765 97.127869 
L 105.605001 92.622126 
L 108.01336 88.682945 
L 110.422188 85.310068 
L 112.027642 83.370556 
L 113.633214 81.66984 
L 115.238664 80.199168 
L 116.844237 78.947562 
L 118.449809 77.903445 
L 120.055259 77.053823 
L 121.660831 76.38469 
L 123.266285 75.882058 
L 125.674758 75.408414 
L 128.082998 75.228008 
L 130.491235 75.293484 
L 132.899589 75.560844 
L 136.110612 76.161713 
L 140.124538 77.190269 
L 145.743801 78.920681 
L 162.602299 84.305678 
L 169.827134 86.328814 
L 177.854865 88.349961 
L 187.488055 90.538401 
L 201.135285 93.388327 
L 262.146285 105.875914 
L 306.299 114.999155 
L 336.001359 120.946987 
L 336.001359 120.946987 
" clip-path="url(#p434d843a60)" style="fill: none; stroke-dasharray: 3,4.95; stroke-dashoffset: 0; stroke: #66bd6f; stroke-width: 3"/>
   </g>
   <g id="line2d_26">
    <path d="M 62.255179 203.858412 
L 65.266387 203.965348 
L 67.730103 203.829912 
L 69.646326 203.523892 
L 71.288803 203.068533 
L 72.93128 202.380724 
L 74.300011 201.588467 
L 75.668742 200.557712 
L 77.037473 199.244985 
L 78.406204 197.60592 
L 79.774935 195.615472 
L 81.417412 192.777786 
L 83.333635 188.96392 
L 88.261066 178.844896 
L 89.903544 176.077227 
L 91.272274 174.157206 
L 92.641005 172.61359 
L 94.009736 171.445939 
L 95.104721 170.770737 
L 96.199706 170.309277 
L 97.568437 170.004135 
L 98.937167 169.963308 
L 100.305898 170.14653 
L 101.948375 170.609007 
L 103.864599 171.409984 
L 106.054568 172.575556 
L 109.065776 174.455022 
L 114.266953 178.025698 
L 121.110608 182.665592 
L 125.490547 185.36846 
L 129.596739 187.634401 
L 133.429186 189.484529 
L 136.987886 190.959834 
L 140.546587 192.196769 
L 144.105287 193.196659 
L 147.663987 193.964588 
L 151.222688 194.50732 
L 154.781388 194.831485 
L 158.340088 194.942302 
L 161.898789 194.842871 
L 165.457489 194.534016 
L 169.016189 194.014599 
L 172.57489 193.282274 
L 176.13359 192.334526 
L 179.69229 191.169854 
L 183.524737 189.673776 
L 187.357183 187.931575 
L 191.18963 185.952598 
L 195.295822 183.585595 
L 199.675761 180.804835 
L 204.603193 177.401758 
L 210.078116 173.343345 
L 216.921771 167.980802 
L 239.095211 150.365994 
L 244.843881 146.201628 
L 250.045058 142.694219 
L 254.97249 139.626898 
L 259.899921 136.822893 
L 264.553606 134.422178 
L 269.207291 132.262008 
L 273.860976 130.338463 
L 278.514661 128.644658 
L 283.442092 127.091541 
L 288.369523 125.77329 
L 293.570701 124.621421 
L 298.771878 123.698998 
L 304.246802 122.956953 
L 309.995472 122.409017 
L 316.017887 122.064807 
L 322.31405 121.929705 
L 329.157704 122.012408 
L 335.727612 122.287397 
L 335.727612 122.287397 
" clip-path="url(#p434d843a60)" style="fill: none; stroke: #7db8da; stroke-width: 3; stroke-linecap: square"/>
   </g>
   <g id="line2d_27">
    <path d="M 62.255179 203.295273 
L 64.663536 203.392065 
L 67.071893 203.289026 
L 69.48013 202.911296 
L 71.085701 202.450067 
L 72.691154 201.7651 
L 74.296724 200.793875 
L 75.902296 199.463536 
L 77.507867 197.698608 
L 79.113438 195.437611 
L 80.718891 192.658549 
L 82.324461 189.406039 
L 85.535485 182.072067 
L 87.943842 176.717303 
L 89.549294 173.613112 
L 91.154864 171.030528 
L 92.760318 169.013591 
L 94.366244 167.547157 
L 95.971814 166.581997 
L 97.577266 166.051827 
L 99.182838 165.887571 
L 100.788411 166.02427 
L 102.393861 166.40403 
L 103.999551 166.976872 
L 106.407788 168.106669 
L 109.618814 169.945869 
L 114.436 173.038654 
L 121.660831 177.681501 
L 126.477426 180.48332 
L 130.491235 182.550865 
L 134.505047 184.342012 
L 137.716184 185.563084 
L 140.927206 186.588786 
L 144.138237 187.414691 
L 147.349373 188.037508 
L 150.560396 188.454529 
L 153.771541 188.663499 
L 156.982449 188.662181 
L 160.193944 188.44837 
L 163.405081 188.01983 
L 166.616112 187.374455 
L 169.827134 186.510362 
L 173.038156 185.426295 
L 176.249301 184.121982 
L 179.460438 182.598826 
L 182.67146 180.860251 
L 186.685273 178.393444 
L 190.699314 175.618067 
L 194.713004 172.561743 
L 199.529721 168.574286 
L 205.14922 163.583069 
L 213.979979 155.356709 
L 222.007588 147.951444 
L 227.626859 143.069419 
L 232.443682 139.20026 
L 236.457503 136.248647 
L 240.471193 133.574075 
L 244.485112 131.193468 
L 248.498802 129.115983 
L 252.512623 127.342272 
L 256.527015 125.865978 
L 260.540705 124.676323 
L 264.55464 123.757231 
L 268.568444 123.090187 
L 272.582249 122.654522 
L 276.59607 122.428435 
L 281.412648 122.402962 
L 286.229373 122.610608 
L 291.848628 123.100338 
L 297.468127 123.807256 
L 304.693435 124.9615 
L 313.523835 126.634636 
L 325.565379 129.178495 
L 336.001359 131.473657 
L 336.001359 131.473657 
" clip-path="url(#p434d843a60)" style="fill: none; stroke-dasharray: 3,4.95; stroke-dashoffset: 0; stroke: #1e8741; stroke-width: 3"/>
   </g>
   <g id="line2d_28">
    <path d="M 62.255179 203.498506 
L 64.663536 203.595339 
L 67.071893 203.496036 
L 69.48013 203.127551 
L 71.085701 202.676814 
L 72.691154 202.007105 
L 74.296724 201.057253 
L 75.902296 199.755889 
L 77.507867 198.028953 
L 79.113438 195.815719 
L 80.718891 193.093639 
L 82.324461 189.905063 
L 84.732699 184.542935 
L 87.943842 177.435729 
L 89.549294 174.37998 
L 91.154864 171.838467 
L 92.760318 169.856711 
L 94.366244 168.421 
L 95.971814 167.483434 
L 97.577266 166.978409 
L 99.182838 166.837418 
L 100.788411 166.995761 
L 102.393861 167.39572 
L 103.999551 167.987336 
L 106.407788 169.143075 
L 109.618814 171.013425 
L 114.436 174.148518 
L 121.660831 178.856201 
L 126.477426 181.710809 
L 130.491235 183.833071 
L 134.505047 185.692038 
L 138.518974 187.271886 
L 142.532779 188.563266 
L 145.743801 189.384972 
L 148.954823 190.016795 
L 152.165968 190.457313 
L 155.376991 190.705309 
L 158.588372 190.759422 
L 161.799517 190.61815 
L 165.010653 190.279794 
L 168.221676 189.742517 
L 171.432706 189.004367 
L 174.643843 188.063726 
L 177.854865 186.919626 
L 181.065888 185.571985 
L 184.276918 184.022095 
L 188.290959 181.805549 
L 192.304772 179.290182 
L 196.318576 176.494551 
L 200.332512 173.444697 
L 205.14922 169.497808 
L 210.768834 164.589916 
L 220.402023 155.799212 
L 228.429649 148.566903 
L 234.049148 143.788103 
L 238.865743 139.979078 
L 242.879662 137.050333 
L 246.893352 134.370074 
L 250.907042 131.953761 
L 254.92145 129.809705 
L 258.935255 127.940619 
L 262.949059 126.342447 
L 266.96288 125.006868 
L 270.976799 123.922076 
L 274.990603 123.073393 
L 279.004424 122.44418 
L 283.018343 122.016751 
L 287.834823 121.744302 
L 292.651418 121.704547 
L 298.270803 121.911438 
L 303.890776 122.347719 
L 310.31282 123.073439 
L 317.537656 124.113718 
L 326.368169 125.613599 
L 336.001359 127.427938 
L 336.001359 127.427938 
" clip-path="url(#p434d843a60)" style="fill: none; stroke-dasharray: 3,4.95; stroke-dashoffset: 0; stroke: #1e8741; stroke-width: 3"/>
   </g>
   <g id="line2d_29">
    <path d="M 62.255179 202.71159 
L 64.663536 202.811289 
L 67.071893 202.70204 
L 69.48013 202.304648 
L 71.085701 201.819671 
L 72.691154 201.099387 
L 74.296724 200.077983 
L 75.902296 198.678882 
L 77.507867 196.823302 
L 79.113438 194.447743 
L 80.718891 191.531184 
L 82.324461 188.12334 
L 85.535485 180.463109 
L 87.943842 174.889592 
L 89.549294 171.663063 
L 91.154864 168.977416 
L 92.760318 166.874237 
L 94.366244 165.335223 
L 95.971814 164.308144 
L 97.577266 163.72436 
L 99.182838 163.512955 
L 100.788411 163.607897 
L 102.393861 163.95018 
L 103.999551 164.489075 
L 106.407788 165.573084 
L 109.618814 167.357479 
L 114.436 170.371785 
L 121.660831 174.876672 
L 125.674758 177.13292 
L 129.688567 179.124933 
L 132.899589 180.500984 
L 136.110612 181.668183 
L 139.321756 182.616246 
L 142.532779 183.337148 
L 145.743801 183.824543 
L 148.954823 184.073167 
L 152.165968 184.078323 
L 155.376991 183.835864 
L 158.588372 183.341933 
L 161.799517 182.593366 
L 165.010653 181.587739 
L 168.221676 180.323873 
L 171.432706 178.80244 
L 174.643843 177.026549 
L 177.854865 175.002659 
L 181.065888 172.741036 
L 185.0797 169.602648 
L 189.09375 166.155695 
L 193.910344 161.68639 
L 200.332512 155.347907 
L 212.374529 143.32316 
L 217.191009 138.844583 
L 221.204814 135.388442 
L 225.218732 132.239315 
L 228.429649 129.967979 
L 231.640777 127.931859 
L 234.851922 126.139007 
L 238.062953 124.592746 
L 241.273967 123.291143 
L 244.485112 122.228621 
L 247.696028 121.396281 
L 250.907042 120.782326 
L 254.118187 120.373017 
L 257.329691 120.153427 
L 261.343495 120.121209 
L 265.3573 120.328523 
L 269.371235 120.743621 
L 274.187829 121.473048 
L 279.807084 122.581307 
L 286.229373 124.101994 
L 294.256982 126.255262 
L 307.10179 129.974255 
L 325.565379 135.286911 
L 336.001359 138.079597 
L 336.001359 138.079597 
" clip-path="url(#p434d843a60)" style="fill: none; stroke-dasharray: 3,4.95; stroke-dashoffset: 0; stroke: #1e8741; stroke-width: 3"/>
   </g>
   <g id="line2d_30">
    <path d="M 62.255179 203.190168 
L 64.663536 203.287159 
L 67.071893 203.182561 
L 69.48013 202.800677 
L 71.085701 202.334634 
L 72.691154 201.642604 
L 74.296724 200.661465 
L 75.902296 199.317572 
L 77.507867 197.534868 
L 79.113438 195.251453 
L 80.718891 192.445534 
L 82.324461 189.162789 
L 85.535485 181.765564 
L 87.943842 176.36862 
L 89.549294 173.240866 
L 91.154864 170.638326 
L 92.760318 168.60453 
L 94.366244 167.123662 
L 95.971814 166.145991 
L 97.577266 165.604741 
L 99.182838 165.430528 
L 100.788411 165.55831 
L 102.393861 165.929857 
L 103.999551 166.495245 
L 106.407788 167.614938 
L 109.618814 169.442161 
L 114.436 172.518413 
L 121.660831 177.13419 
L 125.674758 179.47271 
L 129.688567 181.568526 
L 133.702257 183.386809 
L 136.913402 184.626705 
L 140.124538 185.667396 
L 143.335569 186.503424 
L 146.546591 187.130803 
L 149.757614 187.546218 
L 152.968759 187.746915 
L 156.179659 187.730252 
L 159.391154 187.493644 
L 162.602299 187.034657 
L 165.813321 186.351042 
L 169.024466 185.440828 
L 172.235488 184.303023 
L 175.446633 182.937612 
L 178.657656 181.346661 
L 181.868678 179.534311 
L 185.0797 177.507771 
L 189.09375 174.689534 
L 193.107554 171.582315 
L 197.924271 167.526805 
L 203.543526 162.453056 
L 213.177188 153.350336 
L 220.402023 146.644779 
L 225.218732 142.431377 
L 230.035213 138.527842 
L 234.049148 135.560952 
L 238.062953 132.885147 
L 242.076871 130.518537 
L 245.287902 128.854024 
L 248.498802 127.393677 
L 251.709832 126.134746 
L 254.92145 125.0717 
L 258.935255 124.007604 
L 262.949059 123.219887 
L 266.96288 122.687513 
L 270.976799 122.38764 
L 274.990603 122.296544 
L 279.807084 122.429465 
L 284.623793 122.789339 
L 290.243178 123.446343 
L 296.665337 124.444677 
L 303.890776 125.800161 
L 313.523835 127.853693 
L 330.381974 131.729514 
L 336.001359 133.026765 
L 336.001359 133.026765 
" clip-path="url(#p434d843a60)" style="fill: none; stroke-dasharray: 3,4.95; stroke-dashoffset: 0; stroke: #1e8741; stroke-width: 3"/>
   </g>
   <g id="line2d_31">
    <path d="M 62.255179 202.865981 
L 64.663536 202.964499 
L 67.071893 202.856337 
L 69.48013 202.463436 
L 71.085701 201.984122 
L 72.691154 201.272403 
L 74.296724 200.263278 
L 75.902296 198.88111 
L 77.507867 197.047898 
L 79.113438 194.700704 
L 80.718891 191.818212 
L 82.324461 188.448947 
L 85.535485 180.869955 
L 87.943842 175.351034 
L 89.549294 172.155011 
L 91.154864 169.494983 
L 92.760318 167.413076 
L 94.366244 165.891731 
L 95.971814 164.879491 
L 97.577266 164.308425 
L 99.182838 164.108008 
L 100.788411 164.212535 
L 102.393861 164.56338 
L 103.999551 165.109959 
L 106.407788 166.204381 
L 109.618814 168.001406 
L 114.436 171.034605 
L 121.660831 175.574747 
L 125.674758 177.8576 
L 129.688567 179.883195 
L 132.899589 181.292177 
L 136.110612 182.498456 
L 139.321756 183.492369 
L 142.532779 184.26656 
L 145.743801 184.815315 
L 148.954823 185.133878 
L 152.165968 185.21816 
L 155.376991 185.064356 
L 158.588372 184.669046 
L 161.799517 184.029188 
L 165.010653 183.142248 
L 168.221676 182.006741 
L 171.432706 180.622543 
L 174.643843 178.991501 
L 177.854865 177.118335 
L 181.065888 175.011056 
L 185.0797 172.066326 
L 189.09375 168.807744 
L 193.107554 165.280192 
L 197.924271 160.770607 
L 205.952011 152.887243 
L 213.979979 145.061064 
L 218.796573 140.636515 
L 222.810378 137.202975 
L 226.824182 134.053903 
L 230.838003 131.22703 
L 234.049148 129.215149 
L 237.260162 127.433441 
L 240.471193 125.88464 
L 243.682338 124.567016 
L 246.893352 123.475708 
L 250.104382 122.60239 
L 253.315397 121.936422 
L 256.527015 121.465291 
L 260.540705 121.129528 
L 264.55464 121.048251 
L 268.568444 121.191976 
L 273.385039 121.620988 
L 278.201634 122.284443 
L 283.821019 123.295891 
L 290.243178 124.688332 
L 298.270803 126.667774 
L 311.115594 130.106633 
L 331.987554 135.686364 
L 336.001359 136.703131 
L 336.001359 136.703131 
" clip-path="url(#p434d843a60)" style="fill: none; stroke-dasharray: 3,4.95; stroke-dashoffset: 0; stroke: #1e8741; stroke-width: 3"/>
   </g>
   <g id="line2d_32">
    <path d="M 62.255179 203.858412 
L 66.908864 204.532863 
L 71.015057 204.901953 
L 74.847504 205.021425 
L 78.67995 204.919521 
L 83.059889 204.571272 
L 91.546021 203.600608 
L 98.115929 202.705324 
L 101.674629 201.998089 
L 104.959583 201.123158 
L 108.518284 199.932452 
L 113.993207 197.808665 
L 118.646892 196.095928 
L 121.6581 195.217569 
L 124.395562 194.650283 
L 127.133024 194.326426 
L 129.870486 194.235832 
L 132.881694 194.366082 
L 136.440394 194.754945 
L 141.094079 195.503717 
L 158.613834 198.547754 
L 164.63625 199.254274 
L 170.932413 199.759628 
L 177.502321 200.059209 
L 184.619721 200.158107 
L 192.284615 200.042079 
L 200.770746 199.689202 
L 210.625609 199.046896 
L 223.491679 197.964885 
L 266.743575 194.15692 
L 283.168346 193.021528 
L 299.319371 192.127697 
L 315.744141 191.443955 
L 332.442658 190.971271 
L 335.727612 190.903377 
L 335.727612 190.903377 
" clip-path="url(#p434d843a60)" style="fill: none; stroke: #60a7d2; stroke-width: 3; stroke-linecap: square"/>
   </g>
   <g id="line2d_33">
    <path d="M 62.255179 203.350047 
L 66.269107 203.940995 
L 70.282916 204.318363 
L 74.296724 204.448448 
L 78.310652 204.320159 
L 83.127247 203.883534 
L 91.154864 202.84976 
L 96.774598 201.97879 
L 100.788411 201.112372 
L 103.999551 200.173765 
L 107.210574 198.989509 
L 111.224856 197.227495 
L 117.647023 194.315551 
L 120.858045 193.147016 
L 123.266285 192.498368 
L 125.674758 192.069807 
L 128.082998 191.859891 
L 130.491235 191.84948 
L 133.702257 192.092562 
L 137.716184 192.691209 
L 143.335569 193.812097 
L 153.771541 195.932692 
L 160.193944 196.983018 
L 166.616112 197.779335 
L 173.038156 198.329277 
L 179.460438 198.655069 
L 186.685273 198.784725 
L 193.910344 198.696215 
L 201.938076 198.380026 
L 210.768834 197.8145 
L 221.204814 196.922926 
L 235.654712 195.440243 
L 274.990603 191.276992 
L 290.243178 189.95261 
L 304.693435 188.925152 
L 318.340544 188.1709 
L 331.987554 187.629303 
L 336.001359 187.510096 
L 336.001359 187.510096 
" clip-path="url(#p434d843a60)" style="fill: none; stroke-dasharray: 3,4.95; stroke-dashoffset: 0; stroke: #00441b; stroke-width: 3"/>
   </g>
   <g id="line2d_34">
    <path d="M 62.255179 203.646498 
L 66.269107 204.246792 
L 70.282916 204.635788 
L 74.296724 204.779391 
L 78.310652 204.667344 
L 83.127247 204.255933 
L 91.154864 203.276129 
L 96.774598 202.439384 
L 100.788411 201.594298 
L 103.999551 200.675542 
L 107.210574 199.518627 
L 111.224856 197.806735 
L 117.647023 195.007529 
L 120.858045 193.896715 
L 123.266285 193.284561 
L 125.674758 192.8833 
L 128.082998 192.689854 
L 130.491235 192.68479 
L 133.702257 192.919435 
L 137.716184 193.488197 
L 144.138237 194.7075 
L 153.771541 196.541452 
L 160.193944 197.524289 
L 166.616112 198.262234 
L 173.038156 198.760152 
L 179.460438 199.037152 
L 186.685273 199.113026 
L 193.910344 198.971143 
L 201.938076 198.598611 
L 211.571738 197.91725 
L 223.613168 196.826668 
L 266.96288 192.689021 
L 280.609874 191.708173 
L 294.256982 190.945743 
L 307.90458 190.401143 
L 322.354365 190.052441 
L 336.001359 189.924561 
L 336.001359 189.924561 
" clip-path="url(#p434d843a60)" style="fill: none; stroke-dasharray: 3,4.95; stroke-dashoffset: 0; stroke: #00441b; stroke-width: 3"/>
   </g>
   <g id="line2d_35">
    <path d="M 62.255179 203.326183 
L 66.269107 203.954933 
L 70.282916 204.367675 
L 74.296724 204.5275 
L 78.310652 204.424307 
L 83.127247 204.01973 
L 91.957651 202.954514 
L 96.774598 202.229458 
L 99.985625 201.572663 
L 103.196765 200.702177 
L 106.407788 199.593131 
L 110.422188 197.927677 
L 117.647023 194.832909 
L 120.858045 193.774448 
L 123.266285 193.205516 
L 125.674758 192.846998 
L 128.082998 192.692994 
L 130.491235 192.722343 
L 133.702257 192.993847 
L 137.716184 193.594957 
L 144.138237 194.842204 
L 153.771541 196.687215 
L 160.193944 197.665097 
L 165.813321 198.312388 
L 172.235488 198.816787 
L 178.657656 199.088477 
L 185.882482 199.148114 
L 193.107554 198.987813 
L 201.938076 198.560366 
L 213.177188 197.779167 
L 246.893352 195.292204 
L 259.738045 194.634151 
L 273.385039 194.163933 
L 287.834823 193.899641 
L 303.087985 193.842484 
L 320.748784 194.008889 
L 336.001359 194.311564 
L 336.001359 194.311564 
" clip-path="url(#p434d843a60)" style="fill: none; stroke-dasharray: 3,4.95; stroke-dashoffset: 0; stroke: #00441b; stroke-width: 3"/>
   </g>
   <g id="line2d_36">
    <path d="M 62.255179 203.858412 
L 64.171403 203.545068 
L 65.81388 203.065646 
L 67.456357 202.331997 
L 68.825088 201.472722 
L 70.193819 200.32434 
L 71.288803 199.140937 
L 72.383788 197.658395 
L 73.478773 195.800473 
L 74.573758 193.474561 
L 75.668742 190.571449 
L 76.763727 186.971751 
L 77.858712 182.574409 
L 78.953696 177.330337 
L 80.322427 169.610171 
L 81.964904 158.972836 
L 84.976112 139.229524 
L 86.344843 131.696266 
L 87.713574 125.276916 
L 89.629797 117.526653 
L 92.914752 105.46909 
L 99.210914 83.088158 
L 101.948375 74.17387 
L 104.412091 66.920781 
L 106.60206 61.175911 
L 108.518284 56.731632 
L 110.434507 52.844822 
L 112.35073 49.501458 
L 114.266953 46.662778 
L 116.183177 44.276953 
L 118.0994 42.293793 
L 120.015623 40.674004 
L 121.6581 39.554316 
L 123.300577 38.669863 
L 124.943054 38.009638 
L 126.585532 37.560353 
L 128.501755 37.279326 
L 130.417978 37.22643 
L 132.607947 37.393069 
L 135.345409 37.852017 
L 138.90411 38.708108 
L 144.379033 40.289983 
L 161.898789 45.48874 
L 168.468697 47.143314 
L 174.764859 48.505746 
L 181.334767 49.693165 
L 187.904676 50.655342 
L 195.022076 51.468513 
L 202.686969 52.112045 
L 210.899355 52.577305 
L 220.206725 52.880473 
L 231.430318 53.012124 
L 246.212612 52.942498 
L 300.140609 52.485961 
L 317.386618 52.670122 
L 334.632628 53.078474 
L 335.727612 53.111934 
L 335.727612 53.111934 
" clip-path="url(#p434d843a60)" style="fill: none; stroke: #fcab8f; stroke-width: 3; stroke-linecap: square"/>
   </g>
   <g id="line2d_37">
    <path d="M 62.255179 203.858412 
L 64.718895 203.471862 
L 66.635118 202.957681 
L 68.277595 202.303921 
L 69.920072 201.388318 
L 71.288803 200.362352 
L 72.657534 199.014822 
L 73.752519 197.628351 
L 74.847504 195.884059 
L 75.942488 193.692771 
L 77.037473 190.958261 
L 78.132458 187.575703 
L 79.227443 183.441578 
L 80.322427 178.488004 
L 81.691158 171.164034 
L 83.607381 159.322269 
L 86.344843 142.220755 
L 87.98732 133.412341 
L 89.629797 125.937601 
L 91.272274 119.547975 
L 93.188498 113.034244 
L 95.378467 106.419166 
L 97.568437 100.494939 
L 99.758406 95.20771 
L 101.948375 90.529953 
L 103.864599 86.911894 
L 105.780822 83.713938 
L 107.697045 80.909685 
L 109.613268 78.464393 
L 111.529492 76.337463 
L 113.719461 74.247526 
L 115.909431 72.481169 
L 118.0994 71.014086 
L 120.289369 69.831158 
L 122.479339 68.914597 
L 124.669308 68.237863 
L 127.133024 67.72093 
L 129.870486 67.392456 
L 132.881694 67.267569 
L 136.166648 67.362244 
L 139.725348 67.702056 
L 143.284048 68.263695 
L 147.390241 69.148746 
L 152.043926 70.389015 
L 158.340088 72.32168 
L 169.563682 76.055231 
L 184.345975 80.915464 
L 194.200838 83.915887 
L 203.781954 86.596947 
L 213.910563 89.194623 
L 225.681648 91.975889 
L 241.832673 95.545221 
L 296.308163 107.433725 
L 335.727612 116.340403 
L 335.727612 116.340403 
" clip-path="url(#p434d843a60)" style="fill: none; stroke: #f85d42; stroke-width: 3; stroke-linecap: square"/>
   </g>
   <g id="line2d_38">
    <path d="M 62.255179 203.858412 
L 64.718895 203.9452 
L 66.908864 203.81902 
L 68.825088 203.495827 
L 70.467565 203.013295 
L 72.110042 202.296623 
L 73.752519 201.301491 
L 75.12125 200.222788 
L 76.489981 198.877661 
L 77.858712 197.224736 
L 79.227443 195.232006 
L 80.86992 192.379078 
L 82.512397 189.056842 
L 84.976112 183.478913 
L 87.713574 177.3925 
L 89.356051 174.318797 
L 90.724782 172.253841 
L 91.819767 170.956995 
L 92.914752 169.976482 
L 94.009736 169.29822 
L 95.104721 168.897335 
L 96.199706 168.741748 
L 97.29469 168.796029 
L 98.663421 169.105202 
L 100.305898 169.746962 
L 102.222122 170.753804 
L 104.959583 172.470661 
L 118.373146 181.264452 
L 122.479339 183.515037 
L 126.311785 185.35925 
L 130.144232 186.951489 
L 133.976678 188.29444 
L 137.809125 189.394784 
L 141.641571 190.260975 
L 145.474018 190.901472 
L 149.306464 191.323407 
L 153.138911 191.531704 
L 156.971357 191.5286 
L 160.803804 191.313434 
L 164.63625 190.882752 
L 168.468697 190.230609 
L 172.301143 189.349098 
L 176.13359 188.229104 
L 179.966036 186.861326 
L 183.524737 185.362117 
L 187.083437 183.637403 
L 190.915884 181.525949 
L 194.74833 179.154252 
L 198.854523 176.335946 
L 203.234462 173.038737 
L 207.888147 169.251531 
L 213.636816 164.26821 
L 233.346541 146.883998 
L 238.000226 143.239514 
L 242.106419 140.297108 
L 245.938866 137.811518 
L 249.771312 135.595508 
L 253.330012 133.788061 
L 256.888713 132.224655 
L 260.447413 130.903745 
L 264.006113 129.820039 
L 267.564814 128.965172 
L 271.123514 128.328248 
L 274.955961 127.871527 
L 278.788407 127.635418 
L 282.8946 127.606301 
L 287.274539 127.804938 
L 291.928224 128.244974 
L 296.855655 128.9323 
L 302.330579 129.918819 
L 308.626741 131.284122 
L 316.017887 133.118578 
L 325.87275 135.806797 
L 335.727612 138.616287 
L 335.727612 138.616287 
" clip-path="url(#p434d843a60)" style="fill: none; stroke: #c5171c; stroke-width: 3; stroke-linecap: square"/>
   </g>
   <g id="line2d_39">
    <path d="M 62.255179 203.858412 
L 65.81388 204.350504 
L 69.098834 204.568777 
L 72.383788 204.558741 
L 76.216235 204.307541 
L 81.691158 203.690271 
L 92.093513 202.282906 
L 95.925959 201.514731 
L 99.210914 200.623275 
L 102.495868 199.497498 
L 106.60206 197.832718 
L 113.445715 195.028048 
L 116.183177 194.154562 
L 118.646892 193.586141 
L 121.110608 193.248982 
L 123.574324 193.136187 
L 126.311785 193.237136 
L 129.596739 193.596154 
L 133.976678 194.32568 
L 153.138911 197.819244 
L 159.161327 198.561316 
L 165.457489 199.116291 
L 172.301143 199.490603 
L 179.69229 199.664076 
L 187.630929 199.623219 
L 196.117061 199.358502 
L 205.698177 198.830015 
L 216.648024 197.99301 
L 232.251557 196.547845 
L 254.151251 194.540584 
L 266.743575 193.622599 
L 278.514661 192.990039 
L 290.012 192.596756 
L 301.783086 192.421021 
L 313.827918 192.464482 
L 326.693988 192.734996 
L 335.727612 193.045869 
L 335.727612 193.045869 
" clip-path="url(#p434d843a60)" style="fill: none; stroke: #67000d; stroke-width: 3; stroke-linecap: square"/>
   </g>
   <g id="patch_3">
    <path d="M 48.56787 213.718154 
L 48.56787 28.815931 
" style="fill: none; stroke: #000000; stroke-width: 0.8; stroke-linejoin: miter; stroke-linecap: square"/>
   </g>
   <g id="patch_4">
    <path d="M 349.688667 213.718154 
L 349.688667 28.815931 
" style="fill: none; stroke: #000000; stroke-width: 0.8; stroke-linejoin: miter; stroke-linecap: square"/>
   </g>
   <g id="patch_5">
    <path d="M 48.56787 213.718154 
L 349.688667 213.718154 
" style="fill: none; stroke: #000000; stroke-width: 0.8; stroke-linejoin: miter; stroke-linecap: square"/>
   </g>
   <g id="patch_6">
    <path d="M 48.56787 28.815931 
L 349.688667 28.815931 
" style="fill: none; stroke: #000000; stroke-width: 0.8; stroke-linejoin: miter; stroke-linecap: square"/>
   </g>
  </g>
 </g>
 <defs>
  <clipPath id="p434d843a60">
   <rect x="48.56787" y="28.815931" width="301.120797" height="184.902223"/>
  </clipPath>
 </defs>
</svg>
