<?xml version="1.0" encoding="utf-8" standalone="no"?>
<!DOCTYPE svg PUBLIC "-//W3C//DTD SVG 1.1//EN"
  "http://www.w3.org/Graphics/SVG/1.1/DTD/svg11.dtd">
<svg xmlns:xlink="http://www.w3.org/1999/xlink" width="388.542964pt" height="240.132758pt" viewBox="0 0 388.542964 240.132758" xmlns="http://www.w3.org/2000/svg" version="1.1">
 <metadata>
  <rdf:RDF xmlns:dc="http://purl.org/dc/elements/1.1/" xmlns:cc="http://creativecommons.org/ns#" xmlns:rdf="http://www.w3.org/1999/02/22-rdf-syntax-ns#">
   <cc:Work>
    <dc:type rdf:resource="http://purl.org/dc/dcmitype/StillImage"/>
    <dc:date>2024-12-13T17:55:28.954150</dc:date>
    <dc:format>image/svg+xml</dc:format>
    <dc:creator>
     <cc:Agent>
      <dc:title>Matplotlib v3.7.5, https://matplotlib.org/</dc:title>
     </cc:Agent>
    </dc:creator>
   </cc:Work>
  </rdf:RDF>
 </metadata>
 <defs>
  <style type="text/css">*{stroke-linejoin: round; stroke-linecap: butt}</style>
 </defs>
 <g id="figure_1">
  <g id="patch_1">
   <path d="M 0 240.132758 
L 388.542964 240.132758 
L 388.542964 0 
L 0 0 
z
" style="fill: #ffffff"/>
  </g>
  <g id="axes_1">
   <g id="patch_2">
    <path d="M 48.56787 213.718154 
L 349.688667 213.718154 
L 349.688667 28.815931 
L 48.56787 28.815931 
z
" style="fill: #ffffff"/>
   </g>
   <g id="matplotlib.axis_1">
    <g id="xtick_1">
     <g id="line2d_1">
      <defs>
       <path id="mded5688d25" d="M 0 0 
L 0 3.5 
" style="stroke: #000000; stroke-width: 0.8"/>
      </defs>
      <g>
       <use xlink:href="#mded5688d25" x="62.255179" y="213.718154" style="stroke: #000000; stroke-width: 0.8"/>
      </g>
     </g>
     <g id="text_1">
      <!-- $\mathdefault{0.0}$ -->
      <g transform="translate(53.529888 230.404031) scale(0.14 -0.14)">
       <defs>
        <path id="CMR17-30" d="M 2688 2025 
C 2688 2416 2682 3080 2413 3591 
C 2176 4039 1798 4198 1466 4198 
C 1158 4198 768 4058 525 3597 
C 269 3118 243 2524 243 2025 
C 243 1661 250 1106 448 619 
C 723 -39 1216 -128 1466 -128 
C 1760 -128 2208 -7 2470 600 
C 2662 1042 2688 1559 2688 2025 
z
M 1466 -26 
C 1056 -26 813 325 723 812 
C 653 1188 653 1738 653 2096 
C 653 2588 653 2997 736 3387 
C 858 3929 1216 4096 1466 4096 
C 1728 4096 2067 3923 2189 3400 
C 2272 3036 2278 2607 2278 2096 
C 2278 1680 2278 1169 2202 792 
C 2067 95 1690 -26 1466 -26 
z
" transform="scale(0.015625)"/>
        <path id="CMMI12-3a" d="M 1178 307 
C 1178 492 1024 619 870 619 
C 685 619 557 466 557 313 
C 557 128 710 0 864 0 
C 1050 0 1178 153 1178 307 
z
" transform="scale(0.015625)"/>
       </defs>
       <use xlink:href="#CMR17-30" transform="scale(0.996264)"/>
       <use xlink:href="#CMMI12-3a" transform="translate(45.690477 0) scale(0.996264)"/>
       <use xlink:href="#CMR17-30" transform="translate(72.787654 0) scale(0.996264)"/>
      </g>
     </g>
    </g>
    <g id="xtick_2">
     <g id="line2d_2">
      <g>
       <use xlink:href="#mded5688d25" x="117.059219" y="213.718154" style="stroke: #000000; stroke-width: 0.8"/>
      </g>
     </g>
     <g id="text_2">
      <!-- $\mathdefault{0.2}$ -->
      <g transform="translate(108.333928 230.404031) scale(0.14 -0.14)">
       <defs>
        <path id="CMR17-32" d="M 2669 989 
L 2554 989 
C 2490 536 2438 459 2413 420 
C 2381 369 1920 369 1830 369 
L 602 369 
C 832 619 1280 1072 1824 1597 
C 2214 1967 2669 2402 2669 3035 
C 2669 3790 2067 4224 1395 4224 
C 691 4224 262 3604 262 3030 
C 262 2780 448 2748 525 2748 
C 589 2748 781 2787 781 3010 
C 781 3207 614 3264 525 3264 
C 486 3264 448 3258 422 3245 
C 544 3790 915 4058 1306 4058 
C 1862 4058 2227 3617 2227 3035 
C 2227 2479 1901 2000 1536 1584 
L 262 146 
L 262 0 
L 2515 0 
L 2669 989 
z
" transform="scale(0.015625)"/>
       </defs>
       <use xlink:href="#CMR17-30" transform="scale(0.996264)"/>
       <use xlink:href="#CMMI12-3a" transform="translate(45.690477 0) scale(0.996264)"/>
       <use xlink:href="#CMR17-32" transform="translate(72.787654 0) scale(0.996264)"/>
      </g>
     </g>
    </g>
    <g id="xtick_3">
     <g id="line2d_3">
      <g>
       <use xlink:href="#mded5688d25" x="171.863259" y="213.718154" style="stroke: #000000; stroke-width: 0.8"/>
      </g>
     </g>
     <g id="text_3">
      <!-- $\mathdefault{0.4}$ -->
      <g transform="translate(163.137968 230.404031) scale(0.14 -0.14)">
       <defs>
        <path id="CMR17-34" d="M 2150 4122 
C 2150 4256 2144 4256 2029 4256 
L 128 1254 
L 128 1088 
L 1779 1088 
L 1779 457 
C 1779 224 1766 160 1318 160 
L 1197 160 
L 1197 0 
C 1402 0 1747 0 1965 0 
C 2182 0 2528 0 2733 0 
L 2733 160 
L 2611 160 
C 2163 160 2150 224 2150 457 
L 2150 1088 
L 2803 1088 
L 2803 1254 
L 2150 1254 
L 2150 4122 
z
M 1798 3703 
L 1798 1254 
L 256 1254 
L 1798 3703 
z
" transform="scale(0.015625)"/>
       </defs>
       <use xlink:href="#CMR17-30" transform="scale(0.996264)"/>
       <use xlink:href="#CMMI12-3a" transform="translate(45.690477 0) scale(0.996264)"/>
       <use xlink:href="#CMR17-34" transform="translate(72.787654 0) scale(0.996264)"/>
      </g>
     </g>
    </g>
    <g id="xtick_4">
     <g id="line2d_4">
      <g>
       <use xlink:href="#mded5688d25" x="226.667299" y="213.718154" style="stroke: #000000; stroke-width: 0.8"/>
      </g>
     </g>
     <g id="text_4">
      <!-- $\mathdefault{0.6}$ -->
      <g transform="translate(217.942008 230.404031) scale(0.14 -0.14)">
       <defs>
        <path id="CMR17-36" d="M 678 2176 
C 678 3690 1395 4032 1811 4032 
C 1946 4032 2272 4009 2400 3776 
C 2298 3776 2106 3776 2106 3553 
C 2106 3381 2246 3323 2336 3323 
C 2394 3323 2566 3348 2566 3560 
C 2566 3954 2246 4179 1805 4179 
C 1043 4179 243 3390 243 1984 
C 243 253 966 -128 1478 -128 
C 2099 -128 2688 427 2688 1283 
C 2688 2081 2170 2662 1517 2662 
C 1126 2662 838 2407 678 1960 
L 678 2176 
z
M 1478 25 
C 691 25 691 1200 691 1436 
C 691 1896 909 2560 1504 2560 
C 1613 2560 1926 2560 2138 2120 
C 2253 1870 2253 1609 2253 1289 
C 2253 944 2253 690 2118 434 
C 1978 171 1773 25 1478 25 
z
" transform="scale(0.015625)"/>
       </defs>
       <use xlink:href="#CMR17-30" transform="scale(0.996264)"/>
       <use xlink:href="#CMMI12-3a" transform="translate(45.690477 0) scale(0.996264)"/>
       <use xlink:href="#CMR17-36" transform="translate(72.787654 0) scale(0.996264)"/>
      </g>
     </g>
    </g>
    <g id="xtick_5">
     <g id="line2d_5">
      <g>
       <use xlink:href="#mded5688d25" x="281.471339" y="213.718154" style="stroke: #000000; stroke-width: 0.8"/>
      </g>
     </g>
     <g id="text_5">
      <!-- $\mathdefault{0.8}$ -->
      <g transform="translate(272.746048 230.404031) scale(0.14 -0.14)">
       <defs>
        <path id="CMR17-38" d="M 1741 2264 
C 2144 2467 2554 2773 2554 3263 
C 2554 3841 1990 4179 1472 4179 
C 890 4179 378 3759 378 3180 
C 378 3021 416 2747 666 2505 
C 730 2442 998 2251 1171 2130 
C 883 1983 211 1634 211 934 
C 211 279 838 -128 1459 -128 
C 2144 -128 2720 362 2720 1010 
C 2720 1590 2330 1857 2074 2029 
L 1741 2264 
z
M 902 2822 
C 851 2854 595 3051 595 3351 
C 595 3739 998 4032 1459 4032 
C 1965 4032 2336 3676 2336 3262 
C 2336 2669 1670 2331 1638 2331 
C 1632 2331 1626 2331 1574 2370 
L 902 2822 
z
M 2080 1519 
C 2176 1449 2483 1240 2483 851 
C 2483 381 2010 25 1472 25 
C 890 25 448 438 448 940 
C 448 1443 838 1862 1280 2060 
L 2080 1519 
z
" transform="scale(0.015625)"/>
       </defs>
       <use xlink:href="#CMR17-30" transform="scale(0.996264)"/>
       <use xlink:href="#CMMI12-3a" transform="translate(45.690477 0) scale(0.996264)"/>
       <use xlink:href="#CMR17-38" transform="translate(72.787654 0) scale(0.996264)"/>
      </g>
     </g>
    </g>
    <g id="xtick_6">
     <g id="line2d_6">
      <g>
       <use xlink:href="#mded5688d25" x="336.275379" y="213.718154" style="stroke: #000000; stroke-width: 0.8"/>
      </g>
     </g>
     <g id="text_6">
      <!-- $\mathdefault{1.0}$ -->
      <g transform="translate(327.550088 230.404031) scale(0.14 -0.14)">
       <defs>
        <path id="CMR17-31" d="M 1702 4058 
C 1702 4192 1696 4192 1606 4192 
C 1357 3916 979 3827 621 3827 
C 602 3827 570 3827 563 3808 
C 557 3795 557 3782 557 3648 
C 755 3648 1088 3686 1344 3839 
L 1344 461 
C 1344 236 1331 160 781 160 
L 589 160 
L 589 0 
C 896 0 1216 0 1523 0 
C 1830 0 2150 0 2458 0 
L 2458 160 
L 2266 160 
C 1715 160 1702 230 1702 458 
L 1702 4058 
z
" transform="scale(0.015625)"/>
       </defs>
       <use xlink:href="#CMR17-31" transform="scale(0.996264)"/>
       <use xlink:href="#CMMI12-3a" transform="translate(45.690477 0) scale(0.996264)"/>
       <use xlink:href="#CMR17-30" transform="translate(72.787654 0) scale(0.996264)"/>
      </g>
     </g>
    </g>
    <g id="text_7">
     <!-- t -->
     <g transform="translate(196.472746 246.801936) scale(0.14 -0.14)">
      <defs>
       <path id="CMR17-74" d="M 966 2560 
L 1862 2560 
L 1862 2725 
L 966 2725 
L 966 3904 
L 851 3904 
C 838 3245 614 2668 70 2668 
L 70 2560 
L 627 2560 
L 627 771 
C 627 650 627 -64 1370 -64 
C 1747 -64 1965 306 1965 777 
L 1965 1140 
L 1850 1140 
L 1850 783 
C 1850 344 1677 51 1408 51 
C 1222 51 966 178 966 758 
L 966 2560 
z
" transform="scale(0.015625)"/>
      </defs>
      <use xlink:href="#CMR17-74" transform="scale(0.996264)"/>
     </g>
    </g>
   </g>
   <g id="matplotlib.axis_2">
    <g id="ytick_1">
     <g id="line2d_7">
      <defs>
       <path id="m9ed8875980" d="M 0 0 
L -3.5 0 
" style="stroke: #000000; stroke-width: 0.8"/>
      </defs>
      <g>
       <use xlink:href="#m9ed8875980" x="48.56787" y="205.146678" style="stroke: #000000; stroke-width: 0.8"/>
      </g>
     </g>
     <g id="text_8">
      <!-- $\mathdefault{0.0}$ -->
      <g transform="translate(24.117288 209.989616) scale(0.14 -0.14)">
       <use xlink:href="#CMR17-30" transform="scale(0.996264)"/>
       <use xlink:href="#CMMI12-3a" transform="translate(45.690477 0) scale(0.996264)"/>
       <use xlink:href="#CMR17-30" transform="translate(72.787654 0) scale(0.996264)"/>
      </g>
     </g>
    </g>
    <g id="ytick_2">
     <g id="line2d_8">
      <g>
       <use xlink:href="#m9ed8875980" x="48.56787" y="179.276503" style="stroke: #000000; stroke-width: 0.8"/>
      </g>
     </g>
     <g id="text_9">
      <!-- $\mathdefault{0.2}$ -->
      <g transform="translate(24.117288 184.119441) scale(0.14 -0.14)">
       <use xlink:href="#CMR17-30" transform="scale(0.996264)"/>
       <use xlink:href="#CMMI12-3a" transform="translate(45.690477 0) scale(0.996264)"/>
       <use xlink:href="#CMR17-32" transform="translate(72.787654 0) scale(0.996264)"/>
      </g>
     </g>
    </g>
    <g id="ytick_3">
     <g id="line2d_9">
      <g>
       <use xlink:href="#m9ed8875980" x="48.56787" y="153.406327" style="stroke: #000000; stroke-width: 0.8"/>
      </g>
     </g>
     <g id="text_10">
      <!-- $\mathdefault{0.4}$ -->
      <g transform="translate(24.117288 158.249265) scale(0.14 -0.14)">
       <use xlink:href="#CMR17-30" transform="scale(0.996264)"/>
       <use xlink:href="#CMMI12-3a" transform="translate(45.690477 0) scale(0.996264)"/>
       <use xlink:href="#CMR17-34" transform="translate(72.787654 0) scale(0.996264)"/>
      </g>
     </g>
    </g>
    <g id="ytick_4">
     <g id="line2d_10">
      <g>
       <use xlink:href="#m9ed8875980" x="48.56787" y="127.536152" style="stroke: #000000; stroke-width: 0.8"/>
      </g>
     </g>
     <g id="text_11">
      <!-- $\mathdefault{0.6}$ -->
      <g transform="translate(24.117288 132.37909) scale(0.14 -0.14)">
       <use xlink:href="#CMR17-30" transform="scale(0.996264)"/>
       <use xlink:href="#CMMI12-3a" transform="translate(45.690477 0) scale(0.996264)"/>
       <use xlink:href="#CMR17-36" transform="translate(72.787654 0) scale(0.996264)"/>
      </g>
     </g>
    </g>
    <g id="ytick_5">
     <g id="line2d_11">
      <g>
       <use xlink:href="#m9ed8875980" x="48.56787" y="101.665977" style="stroke: #000000; stroke-width: 0.8"/>
      </g>
     </g>
     <g id="text_12">
      <!-- $\mathdefault{0.8}$ -->
      <g transform="translate(24.117288 106.508915) scale(0.14 -0.14)">
       <use xlink:href="#CMR17-30" transform="scale(0.996264)"/>
       <use xlink:href="#CMMI12-3a" transform="translate(45.690477 0) scale(0.996264)"/>
       <use xlink:href="#CMR17-38" transform="translate(72.787654 0) scale(0.996264)"/>
      </g>
     </g>
    </g>
    <g id="ytick_6">
     <g id="line2d_12">
      <g>
       <use xlink:href="#m9ed8875980" x="48.56787" y="75.795801" style="stroke: #000000; stroke-width: 0.8"/>
      </g>
     </g>
     <g id="text_13">
      <!-- $\mathdefault{1.0}$ -->
      <g transform="translate(24.117288 80.63874) scale(0.14 -0.14)">
       <use xlink:href="#CMR17-31" transform="scale(0.996264)"/>
       <use xlink:href="#CMMI12-3a" transform="translate(45.690477 0) scale(0.996264)"/>
       <use xlink:href="#CMR17-30" transform="translate(72.787654 0) scale(0.996264)"/>
      </g>
     </g>
    </g>
    <g id="ytick_7">
     <g id="line2d_13">
      <g>
       <use xlink:href="#m9ed8875980" x="48.56787" y="49.925626" style="stroke: #000000; stroke-width: 0.8"/>
      </g>
     </g>
     <g id="text_14">
      <!-- $\mathdefault{1.2}$ -->
      <g transform="translate(24.117288 54.768564) scale(0.14 -0.14)">
       <use xlink:href="#CMR17-31" transform="scale(0.996264)"/>
       <use xlink:href="#CMMI12-3a" transform="translate(45.690477 0) scale(0.996264)"/>
       <use xlink:href="#CMR17-32" transform="translate(72.787654 0) scale(0.996264)"/>
      </g>
     </g>
    </g>
   </g>
   <g id="line2d_14">
    <path d="M 62.255179 192.832475 
L 64.173321 190.751768 
L 65.817442 188.652498 
L 67.461563 186.194515 
L 69.105684 183.296108 
L 70.749806 179.859624 
L 72.119907 176.510746 
L 73.764028 171.835682 
L 75.408149 166.405741 
L 77.32629 159.151985 
L 79.518452 149.85765 
L 83.354735 132.314791 
L 86.642977 117.739841 
L 89.109159 107.842965 
L 91.301321 99.944637 
L 93.493482 92.897398 
L 95.685644 86.666547 
L 97.603785 81.842786 
L 99.521927 77.561456 
L 101.440068 73.779381 
L 103.358209 70.456239 
L 105.276351 67.556233 
L 107.194492 65.04755 
L 109.112634 62.900941 
L 111.030775 61.088387 
L 112.948916 59.582163 
L 114.867058 58.354714 
L 116.785199 57.378592 
L 118.70334 56.62686 
L 120.895502 56.009019 
L 123.087664 55.612991 
L 125.553845 55.389512 
L 128.294047 55.364686 
L 131.58229 55.57199 
L 135.418573 56.041863 
L 140.898977 56.954455 
L 157.066168 59.77269 
L 163.642653 60.626054 
L 170.493158 61.281967 
L 178.165724 61.782772 
L 189.400552 62.263069 
L 216.802572 63.387668 
L 293.254207 66.914166 
L 304.489036 67.628289 
L 310.24346 68.237943 
L 316.271904 69.114946 
L 323.94447 70.476115 
L 336.001359 72.837677 
L 336.001359 72.837677 
" clip-path="url(#p657c9994f6)" style="fill: none; stroke: #b7d4ea; stroke-width: 3; stroke-linecap: square"/>
   </g>
   <g id="line2d_15">
    <path d="M 62.255179 75.880649 
L 68.557644 76.337639 
L 73.215987 76.877109 
L 77.05227 77.53 
L 80.614533 78.367582 
L 83.902775 79.369693 
L 87.191018 80.593611 
L 90.75328 82.147258 
L 94.863583 84.189052 
L 99.521927 86.760254 
L 105.002331 90.045517 
L 112.126856 94.59637 
L 123.087664 101.901251 
L 147.475461 118.19084 
L 163.916673 128.855662 
L 183.372108 141.198697 
L 203.649602 153.809085 
L 220.912875 164.294528 
L 235.709966 173.030732 
L 248.314895 180.220548 
L 258.727662 185.912989 
L 267.496309 190.459973 
L 274.894854 194.049788 
L 281.197319 196.863083 
L 286.677723 199.066039 
L 291.336066 200.712037 
L 295.720389 202.031514 
L 299.830692 203.039669 
L 303.940995 203.816314 
L 308.325318 204.404042 
L 313.257682 204.821173 
L 319.286126 205.092436 
L 328.328793 205.250452 
L 336.001359 205.292516 
L 336.001359 205.292516 
" clip-path="url(#p657c9994f6)" style="fill: none; stroke-dasharray: 11.1,4.8; stroke-dashoffset: 0; stroke: #fdc38d; stroke-width: 3"/>
   </g>
   <g id="line2d_16">
    <path d="M 62.255179 192.832475 
L 64.173321 190.596268 
L 66.091462 187.971937 
L 67.735583 185.368581 
L 69.379705 182.394719 
L 71.023826 179.003091 
L 72.667947 175.134617 
L 74.312068 170.699168 
L 75.682169 166.451592 
L 77.05227 161.519591 
L 78.422371 155.671711 
L 79.792472 148.769974 
L 81.436593 139.266859 
L 84.450816 120.141209 
L 87.191018 103.313637 
L 89.109159 92.75175 
L 91.0273 83.342071 
L 92.945442 75.055434 
L 94.863583 67.844198 
L 96.507704 62.473657 
L 98.151826 57.796593 
L 99.795947 53.751664 
L 101.440068 50.276853 
L 103.084189 47.315537 
L 104.72831 44.818573 
L 106.372432 42.743666 
L 108.016553 41.053669 
L 109.660674 39.714811 
L 111.304795 38.695607 
L 112.948916 37.966064 
L 114.593038 37.497302 
L 116.237159 37.261533 
L 117.88128 37.232096 
L 119.799421 37.424628 
L 121.991583 37.897539 
L 124.457765 38.689902 
L 127.197967 39.815734 
L 130.760229 41.540395 
L 136.514653 44.62379 
L 144.461239 48.848622 
L 149.667623 51.361005 
L 154.874007 53.61728 
L 160.354411 55.736211 
L 166.382855 57.820632 
L 173.23336 59.951652 
L 180.905926 62.101747 
L 188.852512 64.09223 
L 197.073117 65.914175 
L 206.115784 67.682228 
L 217.350612 69.637817 
L 243.382531 73.842464 
L 269.41445 77.999086 
L 285.855662 80.484446 
L 292.158127 81.752341 
L 300.378733 83.653575 
L 320.382207 88.602931 
L 336.001359 92.408698 
L 336.001359 92.408698 
" clip-path="url(#p657c9994f6)" style="fill: none; stroke: #9dcae1; stroke-width: 3; stroke-linecap: square"/>
   </g>
   <g id="line2d_17">
    <path d="M 62.255179 75.880649 
L 68.283624 76.3579 
L 72.941967 76.937354 
L 76.77825 77.618247 
L 80.066492 78.417503 
L 82.806694 79.301152 
L 85.546896 80.417917 
L 88.561119 81.910842 
L 91.849361 83.814705 
L 95.411624 86.140007 
L 99.795947 89.284772 
L 105.276351 93.512141 
L 113.222937 99.953603 
L 132.40435 115.588382 
L 142.269078 123.281541 
L 152.407825 130.895504 
L 163.094613 138.641053 
L 174.603461 146.705491 
L 186.38633 154.690921 
L 198.443218 162.590907 
L 210.226087 170.044955 
L 221.186895 176.721628 
L 231.051622 182.480337 
L 239.820269 187.350319 
L 247.492834 191.363951 
L 254.069319 194.565338 
L 259.823743 197.133479 
L 265.030127 199.219798 
L 269.68847 200.851587 
L 274.072793 202.148323 
L 278.183096 203.130248 
L 282.293399 203.880065 
L 286.677723 204.443064 
L 291.610086 204.840552 
L 297.912551 205.106703 
L 307.503258 205.257537 
L 329.150854 205.311615 
L 336.001359 205.313508 
L 336.001359 205.313508 
" clip-path="url(#p657c9994f6)" style="fill: none; stroke-dasharray: 11.1,4.8; stroke-dashoffset: 0; stroke: #fdae6a; stroke-width: 3"/>
   </g>
   <g id="line2d_18">
    <path d="M 62.255179 192.832475 
L 64.173321 190.667713 
L 66.091462 188.131318 
L 67.735583 185.614249 
L 69.379705 182.729504 
L 71.023826 179.411697 
L 72.667947 175.560359 
L 74.038048 171.823316 
L 75.408149 167.44683 
L 76.77825 162.253991 
L 78.148351 156.137486 
L 79.792472 147.659203 
L 81.984634 135.008365 
L 86.642977 107.639608 
L 88.835139 96.211443 
L 90.75328 87.272523 
L 92.671422 79.335715 
L 94.589563 72.382669 
L 96.233684 67.173173 
L 97.877805 62.613469 
L 99.521927 58.657713 
L 101.166048 55.261666 
L 102.810169 52.385205 
L 104.45429 49.991987 
L 105.824391 48.342204 
L 107.194492 46.985167 
L 108.564593 45.901708 
L 109.934694 45.072553 
L 111.304795 44.478273 
L 112.674896 44.099439 
L 114.319017 43.901988 
L 115.963139 43.954076 
L 117.60726 44.223769 
L 119.525401 44.772854 
L 121.717563 45.653927 
L 124.183744 46.894591 
L 127.471987 48.831521 
L 132.40435 52.048714 
L 141.721037 58.154765 
L 146.927421 61.286793 
L 152.133805 64.160293 
L 157.340189 66.782065 
L 162.820593 69.286615 
L 168.300997 71.545434 
L 174.055421 73.669777 
L 180.083865 75.646707 
L 186.38633 77.474812 
L 193.236835 79.231339 
L 201.18342 81.033646 
L 210.774127 82.971032 
L 225.297198 85.646557 
L 252.151178 90.592212 
L 268.86641 93.635191 
L 291.336066 97.556707 
L 299.008632 99.284221 
L 312.161601 102.517388 
L 336.001359 108.38235 
L 336.001359 108.38235 
" clip-path="url(#p657c9994f6)" style="fill: none; stroke: #7db8da; stroke-width: 3; stroke-linecap: square"/>
   </g>
   <g id="line2d_19">
    <path d="M 62.255179 75.880649 
L 68.009604 76.362071 
L 72.667947 76.963421 
L 76.50423 77.675871 
L 79.518452 78.4464 
L 82.258654 79.367048 
L 84.998856 80.524754 
L 87.739058 81.91536 
L 90.75328 83.685563 
L 94.315543 86.05007 
L 98.425846 89.065063 
L 103.358209 92.969625 
L 110.482735 98.924276 
L 129.390128 114.852286 
L 137.884754 121.651874 
L 146.653401 128.384494 
L 155.970088 135.24856 
L 165.834815 142.231062 
L 176.247582 149.323349 
L 187.20839 156.517727 
L 198.443218 163.62991 
L 209.678047 170.484686 
L 220.364834 176.752832 
L 230.229562 182.289156 
L 238.998208 186.966884 
L 246.944794 190.958822 
L 253.795299 194.161813 
L 259.823743 196.750268 
L 265.304147 198.870671 
L 270.236511 200.548452 
L 274.894854 201.897241 
L 279.279177 202.933256 
L 283.6635 203.734105 
L 288.047824 204.312541 
L 292.980187 204.740628 
L 299.008632 205.03623 
L 307.777278 205.22098 
L 324.49251 205.302981 
L 336.001359 205.311868 
L 336.001359 205.311868 
" clip-path="url(#p657c9994f6)" style="fill: none; stroke-dasharray: 11.1,4.8; stroke-dashoffset: 0; stroke: #fd994d; stroke-width: 3"/>
   </g>
   <g id="line2d_20">
    <path d="M 62.255179 192.832475 
L 64.173321 190.909446 
L 66.091462 188.651282 
L 67.735583 186.3825 
L 69.379705 183.725064 
L 71.023826 180.579302 
L 72.393927 177.504544 
L 73.764028 173.957198 
L 75.408149 169.035303 
L 77.05227 163.408427 
L 79.244432 154.99852 
L 86.916997 124.440465 
L 89.109159 117.193509 
L 91.0273 111.579767 
L 92.945442 106.596148 
L 94.863583 102.18907 
L 96.781725 98.307105 
L 98.699866 94.902485 
L 100.618007 91.932973 
L 102.536149 89.363028 
L 104.45429 87.163089 
L 106.372432 85.307321 
L 108.290573 83.771228 
L 110.208714 82.53011 
L 112.126856 81.558483 
L 114.044997 80.830228 
L 115.963139 80.31913 
L 118.1553 79.968059 
L 120.347462 79.830476 
L 122.813643 79.888408 
L 125.553845 80.165225 
L 128.842088 80.720115 
L 132.952391 81.645089 
L 139.254855 83.322473 
L 155.422047 87.713137 
L 163.916673 89.737221 
L 172.95934 91.656496 
L 184.742209 93.913341 
L 200.63538 96.722201 
L 218.446693 99.640149 
L 249.959016 104.75644 
L 267.496309 107.898252 
L 286.677723 111.297484 
L 306.681197 114.721764 
L 315.175823 116.505846 
L 329.698894 119.832435 
L 336.001359 121.291204 
L 336.001359 121.291204 
" clip-path="url(#p657c9994f6)" style="fill: none; stroke: #60a7d2; stroke-width: 3; stroke-linecap: square"/>
   </g>
   <g id="line2d_21">
    <path d="M 62.255179 75.880649 
L 68.009604 76.406372 
L 72.667947 77.049102 
L 76.23021 77.74856 
L 79.518452 78.619156 
L 82.532674 79.642616 
L 85.546896 80.888199 
L 88.835139 82.478368 
L 92.671422 84.588865 
L 97.055745 87.266325 
L 102.262129 90.718207 
L 108.838613 95.35976 
L 119.525401 103.217117 
L 137.062694 116.084091 
L 148.845562 124.438036 
L 160.902451 132.713872 
L 173.50738 141.095627 
L 186.38633 149.395267 
L 199.265279 157.430897 
L 211.596188 164.867316 
L 223.379057 171.71927 
L 234.339865 177.841063 
L 244.204592 183.104538 
L 253.247258 187.678684 
L 261.193844 191.452187 
L 268.318369 194.590176 
L 274.620834 197.125165 
L 280.375258 199.19616 
L 285.581642 200.828789 
L 290.239985 202.064886 
L 294.898329 203.068402 
L 299.556672 203.834923 
L 304.489036 204.407956 
L 309.96944 204.811631 
L 316.819945 205.083343 
L 326.958692 205.243471 
L 336.001359 205.289695 
L 336.001359 205.289695 
" clip-path="url(#p657c9994f6)" style="fill: none; stroke-dasharray: 11.1,4.8; stroke-dashoffset: 0; stroke: #fa8331; stroke-width: 3"/>
   </g>
   <g id="line2d_22">
    <path d="M 62.255179 192.832475 
L 64.173321 191.115534 
L 66.091462 189.108057 
L 68.009604 186.73842 
L 69.653725 184.354216 
L 71.297846 181.585249 
L 72.941967 178.386693 
L 74.586088 174.739824 
L 76.50423 169.948727 
L 78.970412 163.131283 
L 84.176795 148.520512 
L 86.094937 143.956367 
L 87.739058 140.631135 
L 89.383179 137.865428 
L 90.75328 135.963338 
L 92.123381 134.391426 
L 93.493482 133.111989 
L 95.137603 131.910653 
L 96.781725 131.017668 
L 98.425846 130.379333 
L 100.343987 129.892576 
L 102.536149 129.594611 
L 105.276351 129.4854 
L 109.112634 129.588111 
L 116.511179 129.808769 
L 120.347462 129.681316 
L 124.183744 129.320454 
L 128.020027 128.722319 
L 131.85631 127.901745 
L 135.966613 126.801595 
L 140.624956 125.31638 
L 145.83134 123.411168 
L 152.133805 120.85719 
L 168.849037 113.947466 
L 173.781401 112.225433 
L 178.165724 110.918765 
L 182.550047 109.848213 
L 186.93437 109.02033 
L 191.318693 108.426489 
L 195.977037 108.029491 
L 200.9094 107.836612 
L 206.389804 107.847205 
L 212.692269 108.085842 
L 220.090814 108.591952 
L 229.133481 109.44419 
L 239.546248 110.659026 
L 250.507056 112.161757 
L 262.289925 114.005799 
L 276.538975 116.475939 
L 319.286126 124.235018 
L 331.343015 126.89601 
L 336.001359 127.949739 
L 336.001359 127.949739 
" clip-path="url(#p657c9994f6)" style="fill: none; stroke: #4695c8; stroke-width: 3; stroke-linecap: square"/>
   </g>
   <g id="line2d_23">
    <path d="M 62.255179 75.880649 
L 68.009604 76.494157 
L 72.393927 77.16731 
L 76.23021 77.974345 
L 79.792472 78.962124 
L 83.080715 80.101911 
L 86.642977 81.569 
L 91.0273 83.627076 
L 97.329765 86.861893 
L 117.059219 97.403534 
L 136.240633 107.748002 
L 146.927421 113.773006 
L 156.792148 119.592201 
L 166.656875 125.677489 
L 177.617683 132.712407 
L 193.236835 143.035029 
L 217.624632 159.138689 
L 231.051622 167.720967 
L 242.28645 174.64837 
L 252.425198 180.641905 
L 261.193844 185.575195 
L 269.14043 189.79257 
L 275.990935 193.18488 
L 282.019379 195.93661 
L 287.499783 198.203089 
L 292.432147 200.00993 
L 297.09049 201.476713 
L 301.474813 202.616953 
L 305.585116 203.461796 
L 309.96944 204.130281 
L 314.627783 204.611014 
L 320.108187 204.949087 
L 327.506732 205.169096 
L 336.001359 205.264685 
L 336.001359 205.264685 
" clip-path="url(#p657c9994f6)" style="fill: none; stroke-dasharray: 11.1,4.8; stroke-dashoffset: 0; stroke: #f26d17; stroke-width: 3"/>
   </g>
   <g id="line2d_24">
    <path d="M 62.255179 192.832475 
L 64.721361 190.898466 
L 66.913523 188.884204 
L 68.831664 186.835089 
L 70.749806 184.454509 
L 72.667947 181.676806 
L 74.586088 178.450967 
L 76.50423 174.76835 
L 78.696391 170.078759 
L 85.272876 155.547512 
L 86.916997 152.634032 
L 88.287098 150.629713 
L 89.657199 149.042261 
L 90.75328 148.07099 
L 91.849361 147.351258 
L 92.945442 146.8629 
L 94.041523 146.582259 
L 95.411624 146.485997 
L 96.781725 146.629128 
L 98.425846 147.057051 
L 100.343987 147.828513 
L 102.536149 148.964329 
L 105.824391 150.96203 
L 114.319017 156.272776 
L 117.60726 158.018273 
L 120.621482 159.374489 
L 123.635704 160.473333 
L 126.375906 161.238708 
L 129.116108 161.777287 
L 131.85631 162.08765 
L 134.596512 162.169788 
L 137.336714 162.024375 
L 140.076916 161.652433 
L 142.817118 161.055262 
L 145.55732 160.234661 
L 148.297522 159.193279 
L 151.311744 157.797554 
L 154.325966 156.147563 
L 157.340189 154.255091 
L 160.628431 151.933691 
L 164.190694 149.149791 
L 168.300997 145.653855 
L 174.055421 140.433438 
L 182.824067 132.463431 
L 186.93437 129.034902 
L 190.496633 126.343387 
L 193.784875 124.132615 
L 197.073117 122.203904 
L 200.08734 120.685968 
L 203.101562 119.399114 
L 206.389804 118.24124 
L 209.678047 117.315772 
L 213.240309 116.543756 
L 217.076592 115.94209 
L 221.186895 115.518175 
L 225.845238 115.262584 
L 231.051622 115.202138 
L 237.080067 115.3639 
L 243.930572 115.780736 
L 251.603137 116.474351 
L 260.371784 117.493124 
L 270.784551 118.934561 
L 285.581642 121.233387 
L 309.421399 125.160169 
L 318.190046 126.816135 
L 327.780753 128.876294 
L 336.001359 130.724822 
L 336.001359 130.724822 
" clip-path="url(#p657c9994f6)" style="fill: none; stroke: #3181bd; stroke-width: 3; stroke-linecap: square"/>
   </g>
   <g id="line2d_25">
    <path d="M 62.255179 75.880649 
L 68.009604 76.599668 
L 72.667947 77.401375 
L 76.50423 78.273914 
L 80.066492 79.309 
L 83.628755 80.589162 
L 87.465038 82.224203 
L 92.397401 84.589636 
L 106.646452 91.548796 
L 113.222937 94.447129 
L 120.347462 97.342186 
L 129.390128 100.764293 
L 150.763704 108.760976 
L 157.888229 111.717874 
L 164.190694 114.568669 
L 170.219138 117.54525 
L 175.973562 120.637419 
L 181.727986 123.979921 
L 187.756431 127.735681 
L 194.606936 132.275517 
L 202.827542 138.010127 
L 214.33639 146.340411 
L 242.834491 167.060563 
L 253.795299 174.706191 
L 263.111986 180.940856 
L 271.058571 186.003103 
L 278.183096 190.282015 
L 284.211541 193.656423 
L 289.691945 196.473681 
L 294.350288 198.63245 
L 298.734611 200.420336 
L 302.570894 201.755339 
L 306.407177 202.849875 
L 309.96944 203.641291 
L 313.805722 204.262601 
L 317.916025 204.702847 
L 323.122409 205.020222 
L 330.246934 205.210355 
L 336.001359 205.269818 
L 336.001359 205.269818 
" clip-path="url(#p657c9994f6)" style="fill: none; stroke-dasharray: 11.1,4.8; stroke-dashoffset: 0; stroke: #e4580a; stroke-width: 3"/>
   </g>
   <g id="line2d_26">
    <path d="M 62.255179 192.832475 
L 65.269402 190.917459 
L 68.009604 188.931225 
L 70.475785 186.893715 
L 72.667947 184.828029 
L 74.860109 182.460033 
L 77.05227 179.735365 
L 79.244432 176.64188 
L 81.984634 172.366394 
L 86.916997 164.609998 
L 88.835139 162.059212 
L 90.47926 160.266457 
L 91.849361 159.101874 
L 93.219462 158.25612 
L 94.315543 157.807742 
L 95.411624 157.552085 
L 96.781725 157.479747 
L 98.151826 157.646956 
L 99.795947 158.106968 
L 101.714088 158.916848 
L 104.18027 160.2501 
L 107.742533 162.478034 
L 115.689118 167.518625 
L 119.525401 169.656206 
L 123.087664 171.38796 
L 126.375906 172.754916 
L 129.664148 173.895686 
L 132.952391 174.810909 
L 136.240633 175.50259 
L 139.528876 175.972301 
L 142.817118 176.220019 
L 146.10536 176.243436 
L 149.393603 176.037568 
L 152.681845 175.594612 
L 155.696067 174.971385 
L 158.71029 174.130417 
L 161.724512 173.060963 
L 164.738734 171.752169 
L 167.752956 170.194358 
L 170.767178 168.380728 
L 173.781401 166.309444 
L 177.069643 163.762632 
L 180.357885 160.93592 
L 184.194168 157.333687 
L 189.126532 152.360003 
L 199.813319 141.462218 
L 203.649602 137.930337 
L 206.937845 135.190635 
L 209.952067 132.944468 
L 212.966289 130.963614 
L 215.980511 129.246447 
L 218.994733 127.781748 
L 222.008956 126.551778 
L 225.297198 125.452645 
L 228.859461 124.514611 
L 232.421723 123.80405 
L 236.532026 123.223516 
L 240.916349 122.839193 
L 245.848713 122.642158 
L 251.329117 122.655843 
L 257.631582 122.906446 
L 264.756107 123.41695 
L 273.524753 124.276506 
L 286.403702 125.790833 
L 304.489036 128.125973 
L 313.257682 129.480489 
L 320.930248 130.889067 
L 333.535177 133.47824 
L 336.001359 133.992515 
L 336.001359 133.992515 
" clip-path="url(#p657c9994f6)" style="fill: none; stroke: #1d6cb1; stroke-width: 3; stroke-linecap: square"/>
   </g>
   <g id="line2d_27">
    <path d="M 62.255179 75.880649 
L 68.009604 76.720652 
L 72.941967 77.649812 
L 77.32629 78.689995 
L 81.162573 79.815788 
L 84.998856 81.17914 
L 88.835139 82.778045 
L 93.767502 85.090263 
L 106.920472 91.383164 
L 112.948916 93.952446 
L 119.251381 96.386936 
L 126.101886 98.787811 
L 134.322492 101.423845 
L 147.475461 105.368468 
L 160.080391 109.229793 
L 167.478936 111.725415 
L 173.781401 114.086244 
L 179.261805 116.373112 
L 184.468188 118.78835 
L 189.400552 121.320718 
L 194.332916 124.103472 
L 199.265279 127.134755 
L 204.745683 130.773927 
L 210.774127 135.060184 
L 217.898653 140.420131 
L 227.215339 147.737374 
L 262.837965 176.004211 
L 271.332592 182.327164 
L 278.457117 187.370348 
L 284.759581 191.565334 
L 290.239985 194.943223 
L 294.898329 197.555263 
L 299.008632 199.606425 
L 302.570894 201.14736 
L 305.859137 202.341945 
L 309.147379 203.297543 
L 312.435621 204.013025 
L 315.997884 204.544612 
L 320.108187 204.914393 
L 325.314571 205.147203 
L 333.809197 205.275475 
L 336.001359 205.287721 
L 336.001359 205.287721 
" clip-path="url(#p657c9994f6)" style="fill: none; stroke-dasharray: 11.1,4.8; stroke-dashoffset: 0; stroke: #d14501; stroke-width: 3"/>
   </g>
   <g id="line2d_28">
    <path d="M 62.255179 192.832475 
L 67.735583 190.249699 
L 72.667947 187.705332 
L 76.23021 185.633059 
L 78.970412 183.796745 
L 81.710614 181.683184 
L 84.998856 178.821881 
L 90.47926 173.99904 
L 92.671422 172.39368 
L 94.589563 171.273472 
L 96.233684 170.564827 
L 97.877805 170.104125 
L 99.521927 169.88849 
L 101.166048 169.899311 
L 103.084189 170.157628 
L 105.276351 170.706223 
L 108.016553 171.648166 
L 112.400876 173.437995 
L 120.073441 176.577664 
L 124.731785 178.238249 
L 129.390128 179.657146 
L 134.048472 180.830406 
L 138.706815 181.763539 
L 143.365158 182.462229 
L 148.023502 182.928401 
L 152.407825 183.151757 
L 156.792148 183.158513 
L 161.176471 182.936284 
L 165.286774 182.504972 
L 169.397077 181.84037 
L 173.23336 180.992478 
L 177.069643 179.907988 
L 180.631906 178.675634 
L 184.194168 177.2163 
L 187.756431 175.525016 
L 191.592714 173.446914 
L 195.428996 171.117516 
L 199.813319 168.187209 
L 205.293723 164.228458 
L 220.090814 153.356378 
L 224.475137 150.490699 
L 228.58544 148.069394 
L 232.421723 146.068417 
L 236.258006 144.328548 
L 239.820269 142.946912 
L 243.656551 141.703611 
L 247.492834 140.700795 
L 251.329117 139.921168 
L 255.43942 139.311144 
L 259.823743 138.888834 
L 264.482087 138.663257 
L 269.68847 138.637013 
L 275.716915 138.838719 
L 283.11546 139.320705 
L 294.898329 140.343841 
L 309.421399 141.790606 
L 317.916025 142.865102 
L 326.958692 144.244494 
L 336.001359 145.734069 
L 336.001359 145.734069 
" clip-path="url(#p657c9994f6)" style="fill: none; stroke: #0e58a2; stroke-width: 3; stroke-linecap: square"/>
   </g>
   <g id="line2d_29">
    <path d="M 62.255179 75.880649 
L 68.283624 76.99972 
L 74.038048 78.296512 
L 79.244432 79.691497 
L 83.902775 81.163844 
L 88.287098 82.782594 
L 92.945442 84.748421 
L 99.247906 87.682066 
L 109.934694 92.667905 
L 116.511179 95.462062 
L 123.087664 98.015832 
L 130.486209 100.644011 
L 138.980835 103.418608 
L 150.215663 106.838818 
L 172.68532 113.627489 
L 180.631906 116.301765 
L 187.20839 118.746825 
L 192.962815 121.115387 
L 198.443218 123.611595 
L 203.649602 126.229149 
L 208.855986 129.104384 
L 214.06237 132.242904 
L 219.268754 135.63751 
L 225.023178 139.664027 
L 231.325642 144.359815 
L 238.450168 149.951464 
L 247.766854 157.563138 
L 274.894854 179.905912 
L 282.56742 185.838428 
L 288.869884 190.435932 
L 294.076268 193.97501 
L 298.734611 196.875749 
L 302.570894 199.0195 
L 306.133157 200.760744 
L 309.421399 202.113139 
L 312.435621 203.111888 
L 315.449844 203.873306 
L 318.464066 204.414244 
L 322.026328 204.822259 
L 326.410652 205.090748 
L 332.987136 205.248602 
L 336.001359 205.27704 
L 336.001359 205.27704 
" clip-path="url(#p657c9994f6)" style="fill: none; stroke-dasharray: 11.1,4.8; stroke-dashoffset: 0; stroke: #b13a03; stroke-width: 3"/>
   </g>
   <g id="line2d_30">
    <path d="M 62.255179 192.832475 
L 68.009604 191.329207 
L 73.764028 190.063552 
L 80.888553 188.489388 
L 84.176795 187.510315 
L 87.191018 186.384911 
L 91.301321 184.578785 
L 97.055745 182.054097 
L 99.795947 181.089575 
L 102.262129 180.441788 
L 104.72831 180.031846 
L 107.194492 179.859109 
L 109.934694 179.913221 
L 112.948916 180.204731 
L 117.059219 180.850922 
L 124.731785 182.346736 
L 134.596512 184.199178 
L 141.995057 185.352636 
L 148.571542 186.157515 
L 154.874007 186.704282 
L 160.902451 186.997997 
L 166.656875 187.052019 
L 172.137279 186.886896 
L 177.617683 186.503665 
L 183.098087 185.898689 
L 188.578491 185.071267 
L 194.058895 184.024511 
L 199.813319 182.699108 
L 205.841764 181.083698 
L 212.692269 179.014379 
L 222.008956 175.944521 
L 236.806046 171.061033 
L 243.656551 169.049065 
L 249.684996 167.507993 
L 255.1654 166.331163 
L 260.371784 165.430271 
L 265.578167 164.748472 
L 270.784551 164.282539 
L 276.264955 164.009596 
L 282.293399 163.932574 
L 289.417925 164.073161 
L 299.008632 164.502661 
L 311.613561 165.284515 
L 322.026328 166.150905 
L 335.179298 167.493082 
L 336.001359 167.581287 
L 336.001359 167.581287 
" clip-path="url(#p657c9994f6)" style="fill: none; stroke: #084488; stroke-width: 3; stroke-linecap: square"/>
   </g>
   <g id="line2d_31">
    <path d="M 62.255179 75.880649 
L 68.831664 77.624446 
L 76.23021 79.828787 
L 83.354735 82.178376 
L 89.109159 84.30406 
L 94.315543 86.4706 
L 99.795947 89.004178 
L 107.468512 92.830207 
L 119.251381 98.686973 
L 126.923946 102.240502 
L 134.870532 105.675477 
L 143.639179 109.212762 
L 153.777926 113.050302 
L 170.767178 119.189621 
L 183.920148 124.047336 
L 192.688794 127.514106 
L 200.36136 130.78489 
L 207.211865 133.942046 
L 213.78835 137.216037 
L 220.090814 140.596726 
L 226.393279 144.223724 
L 232.969764 148.267569 
L 239.820269 152.742958 
L 247.492834 158.031596 
L 256.535501 164.548195 
L 287.773803 187.326789 
L 294.076268 191.516479 
L 299.556672 194.900536 
L 304.215015 197.52173 
L 308.325318 199.58201 
L 311.887581 201.130475 
L 315.175823 202.330938 
L 318.464066 203.29094 
L 321.752308 204.009308 
L 325.314571 204.542667 
L 329.424874 204.913444 
L 334.631258 205.14679 
L 336.001359 205.181704 
L 336.001359 205.181704 
" clip-path="url(#p657c9994f6)" style="fill: none; stroke-dasharray: 11.1,4.8; stroke-dashoffset: 0; stroke: #963003; stroke-width: 3"/>
   </g>
   <g id="line2d_32">
    <path d="M 62.255179 192.832475 
L 67.187543 192.235806 
L 72.667947 191.805191 
L 79.518452 191.510261 
L 87.739058 191.133355 
L 91.575341 190.717487 
L 94.863583 190.124109 
L 97.877805 189.35547 
L 101.166048 188.291563 
L 106.098411 186.42984 
L 111.304795 184.518944 
L 114.593038 183.560334 
L 117.33324 182.988203 
L 120.073441 182.642371 
L 122.813643 182.510859 
L 126.101886 182.589334 
L 129.938169 182.917422 
L 135.418573 183.640078 
L 154.325966 186.327181 
L 160.902451 186.936754 
L 167.478936 187.31287 
L 174.329441 187.47203 
L 181.453966 187.412315 
L 188.852512 187.129446 
L 196.525077 186.616991 
L 205.019703 185.824433 
L 216.254531 184.530451 
L 238.450168 181.926756 
L 248.588915 180.998012 
L 257.905602 180.36834 
L 266.948268 179.980517 
L 276.264955 179.808804 
L 286.403702 179.854302 
L 297.09049 180.126545 
L 306.955217 180.597361 
L 319.012106 181.418755 
L 336.001359 182.729666 
L 336.001359 182.729666 
" clip-path="url(#p657c9994f6)" style="fill: none; stroke: #08306b; stroke-width: 3; stroke-linecap: square"/>
   </g>
   <g id="line2d_33">
    <path d="M 62.255179 75.880649 
L 70.749806 78.93012 
L 84.176795 84.02271 
L 94.589563 88.16493 
L 100.343987 90.684237 
L 105.276351 93.082367 
L 110.208714 95.736682 
L 115.689118 98.954522 
L 124.183744 104.246683 
L 134.870532 110.839738 
L 142.543098 115.304464 
L 150.215663 119.513506 
L 158.98431 124.058415 
L 170.219138 129.610717 
L 200.36136 144.377155 
L 210.500107 149.664158 
L 220.090814 154.917944 
L 229.955541 160.583535 
L 240.916349 167.142967 
L 258.453642 177.947172 
L 272.154652 186.275706 
L 280.375258 191.018734 
L 286.951743 194.560578 
L 292.432147 197.262347 
L 297.09049 199.319716 
L 301.200793 200.90553 
L 305.037076 202.156037 
L 308.599339 203.098101 
L 312.161601 203.825065 
L 315.997884 204.385474 
L 320.382207 204.795925 
L 325.862611 205.074149 
L 334.083217 205.240912 
L 336.001359 205.2587 
L 336.001359 205.2587 
" clip-path="url(#p657c9994f6)" style="fill: none; stroke-dasharray: 11.1,4.8; stroke-dashoffset: 0; stroke: #7f2704; stroke-width: 3"/>
   </g>
   <g id="patch_3">
    <path d="M 48.56787 213.718154 
L 48.56787 28.815931 
" style="fill: none; stroke: #000000; stroke-width: 0.8; stroke-linejoin: miter; stroke-linecap: square"/>
   </g>
   <g id="patch_4">
    <path d="M 349.688667 213.718154 
L 349.688667 28.815931 
" style="fill: none; stroke: #000000; stroke-width: 0.8; stroke-linejoin: miter; stroke-linecap: square"/>
   </g>
   <g id="patch_5">
    <path d="M 48.56787 213.718154 
L 349.688667 213.718154 
" style="fill: none; stroke: #000000; stroke-width: 0.8; stroke-linejoin: miter; stroke-linecap: square"/>
   </g>
   <g id="patch_6">
    <path d="M 48.56787 28.815931 
L 349.688667 28.815931 
" style="fill: none; stroke: #000000; stroke-width: 0.8; stroke-linejoin: miter; stroke-linecap: square"/>
   </g>
   <g id="legend_1">
    <g id="line2d_34">
     <path d="M 362.288667 46.976703 
L 376.288667 46.976703 
L 389.542964 46.976703 
" style="fill: none; stroke: #b7d4ea; stroke-width: 3; stroke-linecap: square"/>
    </g>
    <g id="text_15">
     <!-- $P_{int}$ (A = 0.0) -->
     <g transform="translate(401.488667 51.876703) scale(0.14 -0.14)">
      <defs>
       <path id="CMMI12-50" d="M 1894 2023 
L 2970 2023 
C 3853 2023 4736 2673 4736 3401 
C 4736 3898 4314 4352 3507 4352 
L 1530 4352 
C 1408 4352 1350 4352 1350 4231 
C 1350 4167 1408 4167 1504 4167 
C 1894 4167 1894 4116 1894 4046 
C 1894 4034 1894 3995 1869 3899 
L 1005 472 
C 947 249 934 185 486 185 
C 365 185 301 185 301 70 
C 301 0 358 0 397 0 
C 518 0 646 0 768 0 
L 1517 0 
C 1638 0 1773 0 1894 0 
C 1946 0 2016 0 2016 121 
C 2016 185 1958 185 1862 185 
C 1478 185 1472 230 1472 293 
C 1472 325 1478 369 1485 401 
L 1894 2023 
z
M 2355 3930 
C 2413 4167 2438 4167 2688 4167 
L 3322 4167 
C 3802 4167 4198 4013 4198 3535 
C 4198 3369 4115 2827 3821 2534 
C 3712 2419 3405 2176 2822 2176 
L 1920 2176 
L 2355 3930 
z
" transform="scale(0.015625)"/>
       <path id="CMMI12-69" d="M 1811 913 
C 1811 945 1786 971 1747 971 
C 1690 971 1683 952 1651 843 
C 1485 262 1222 64 1011 64 
C 934 64 845 83 845 275 
C 845 447 922 639 992 830 
L 1440 2018 
C 1459 2069 1504 2184 1504 2305 
C 1504 2574 1312 2816 998 2816 
C 410 2816 173 1890 173 1839 
C 173 1814 198 1782 243 1782 
C 301 1782 307 1807 333 1896 
C 486 2428 730 2682 979 2682 
C 1037 2682 1146 2682 1146 2478 
C 1146 2312 1062 2101 1011 1961 
L 563 773 
C 525 671 486 568 486 453 
C 486 166 685 -64 992 -64 
C 1581 -64 1811 869 1811 913 
z
M 1760 4013 
C 1760 4109 1683 4224 1542 4224 
C 1395 4224 1229 4083 1229 3917 
C 1229 3758 1363 3707 1440 3707 
C 1613 3707 1760 3873 1760 4013 
z
" transform="scale(0.015625)"/>
       <path id="CMMI12-6e" d="M 1318 1871 
C 1331 1910 1491 2229 1728 2433 
C 1894 2586 2112 2689 2362 2689 
C 2618 2689 2707 2497 2707 2242 
C 2707 1878 2445 1150 2317 805 
C 2259 651 2227 568 2227 453 
C 2227 166 2426 -64 2733 -64 
C 3328 -64 3552 875 3552 913 
C 3552 945 3526 971 3488 971 
C 3430 971 3424 952 3392 843 
C 3245 319 3002 64 2752 64 
C 2688 64 2586 64 2586 269 
C 2586 429 2656 621 2694 710 
C 2822 1063 3091 1780 3091 2145 
C 3091 2528 2867 2816 2381 2816 
C 1811 2816 1510 2415 1395 2255 
C 1376 2618 1114 2816 832 2816 
C 627 2816 486 2695 378 2478 
C 262 2248 173 1865 173 1839 
C 173 1814 198 1782 243 1782 
C 294 1782 301 1788 339 1935 
C 442 2325 557 2689 813 2689 
C 960 2689 1011 2586 1011 2395 
C 1011 2254 947 2005 902 1807 
L 723 1118 
C 698 996 627 709 595 594 
C 550 428 480 128 480 96 
C 480 6 550 -64 646 -64 
C 723 -64 813 -26 864 70 
C 877 102 934 326 966 453 
L 1107 1028 
L 1318 1871 
z
" transform="scale(0.015625)"/>
       <path id="CMMI12-74" d="M 1286 2566 
L 1875 2566 
C 1997 2566 2061 2566 2061 2681 
C 2061 2752 2022 2752 1894 2752 
L 1331 2752 
L 1568 3692 
C 1594 3781 1594 3794 1594 3840 
C 1594 3943 1510 4000 1427 4000 
C 1376 4000 1229 3981 1178 3775 
L 928 2752 
L 326 2752 
C 198 2752 141 2752 141 2630 
C 141 2566 186 2566 307 2566 
L 877 2566 
L 454 881 
C 403 658 384 594 384 511 
C 384 211 595 -64 954 -64 
C 1600 -64 1946 868 1946 912 
C 1946 951 1920 970 1882 970 
C 1869 970 1843 970 1830 944 
C 1824 938 1818 931 1773 829 
C 1638 511 1344 64 973 64 
C 781 64 768 224 768 364 
C 768 370 768 492 787 568 
L 1286 2566 
z
" transform="scale(0.015625)"/>
       <path id="CMR17-28" d="M 1958 -1561 
C 1958 -1555 1958 -1542 1939 -1523 
C 1645 -1224 858 -407 858 1581 
C 858 3569 1632 4379 1946 4697 
C 1946 4704 1958 4717 1958 4736 
C 1958 4755 1939 4768 1914 4768 
C 1843 4768 1299 4296 986 3594 
C 666 2887 576 2199 576 1588 
C 576 1128 621 351 1005 -471 
C 1312 -1135 1837 -1600 1914 -1600 
C 1946 -1600 1958 -1587 1958 -1561 
z
" transform="scale(0.015625)"/>
       <path id="CMR17-41" d="M 2323 4378 
C 2291 4461 2278 4480 2214 4480 
C 2150 4480 2138 4461 2106 4378 
L 749 566 
C 627 223 371 153 147 153 
L 147 -13 
C 262 0 518 0 640 0 
C 800 0 1056 0 1210 -13 
L 1210 153 
C 909 153 864 361 864 439 
C 864 497 877 530 890 569 
L 1229 1536 
L 2906 1536 
L 3290 442 
C 3322 365 3322 352 3322 327 
C 3322 153 3046 153 2925 153 
L 2925 0 
C 3110 0 3443 0 3642 0 
C 3808 0 4128 0 4282 -13 
L 4282 153 
C 3942 153 3827 153 3744 387 
L 2323 4378 
z
M 2067 3893 
L 2848 1702 
L 1286 1702 
L 2067 3893 
z
" transform="scale(0.015625)"/>
       <path id="CMR17-3d" d="M 4115 2017 
C 4211 2017 4307 2017 4307 2125 
C 4307 2240 4198 2240 4090 2240 
L 512 2240 
C 403 2240 294 2240 294 2125 
C 294 2017 390 2017 486 2017 
L 4115 2017 
z
M 4090 896 
C 4198 896 4307 896 4307 1011 
C 4307 1119 4211 1119 4115 1119 
L 486 1119 
C 390 1119 294 1119 294 1011 
C 294 896 403 896 512 896 
L 4090 896 
z
" transform="scale(0.015625)"/>
       <path id="CMR17-2e" d="M 1062 261 
C 1062 420 934 522 800 522 
C 672 522 538 420 538 261 
C 538 102 666 0 800 0 
C 928 0 1062 102 1062 261 
z
" transform="scale(0.015625)"/>
       <path id="CMR17-29" d="M 1683 1581 
C 1683 2040 1638 2817 1254 3639 
C 947 4303 422 4768 346 4768 
C 326 4768 301 4761 301 4729 
C 301 4717 307 4710 314 4697 
C 621 4378 1402 3568 1402 1584 
C 1402 -407 627 -1217 314 -1537 
C 307 -1549 301 -1556 301 -1568 
C 301 -1600 326 -1600 346 -1600 
C 416 -1600 960 -1128 1274 -426 
C 1594 281 1683 969 1683 1581 
z
" transform="scale(0.015625)"/>
      </defs>
      <use xlink:href="#CMMI12-50" transform="scale(0.996264)"/>
      <use xlink:href="#CMMI12-69" transform="translate(62.877232 -14.943915) scale(0.697382)"/>
      <use xlink:href="#CMMI12-6e" transform="translate(86.17214 -14.943915) scale(0.697382)"/>
      <use xlink:href="#CMMI12-74" transform="translate(126.932983 -14.943915) scale(0.697382)"/>
      <use xlink:href="#CMR17-28" transform="translate(182.165391 0) scale(0.996264)"/>
      <use xlink:href="#CMR17-41" transform="translate(217.446158 0) scale(0.996264)"/>
      <use xlink:href="#CMR17-3d" transform="translate(316.594554 0) scale(0.996264)"/>
      <use xlink:href="#CMR17-30" transform="translate(418.385309 0) scale(0.996264)"/>
      <use xlink:href="#CMR17-2e" transform="translate(464.075786 0) scale(0.996264)"/>
      <use xlink:href="#CMR17-30" transform="translate(488.946845 0) scale(0.996264)"/>
      <use xlink:href="#CMR17-29" transform="translate(534.637322 0) scale(0.996264)"/>
     </g>
    </g>
    <g id="line2d_35">
     <path d="M 362.288667 67.924399 
L 376.288667 67.924399 
L 389.542964 67.924399 
" style="fill: none; stroke-dasharray: 11.1,4.8; stroke-dashoffset: 0; stroke: #fdc38d; stroke-width: 3"/>
    </g>
    <g id="text_16">
     <!-- $S_{int}$ (A = 0.0) -->
     <g transform="translate(401.488667 72.824399) scale(0.14 -0.14)">
      <defs>
       <path id="CMMI12-53" d="M 4064 4423 
C 4064 4480 4019 4480 4006 4480 
C 3981 4480 3974 4474 3898 4378 
C 3859 4333 3597 4001 3590 3995 
C 3379 4410 2957 4480 2688 4480 
C 1875 4480 1139 3743 1139 3025 
C 1139 2549 1427 2269 1741 2161 
C 1811 2135 2189 2033 2381 1989 
C 2707 1900 2790 1875 2925 1735 
C 2950 1703 3078 1557 3078 1258 
C 3078 667 2528 57 1888 57 
C 1363 57 781 280 781 991 
C 781 1112 806 1265 826 1328 
C 826 1348 832 1378 832 1391 
C 832 1417 819 1449 768 1449 
C 710 1449 704 1436 678 1328 
L 352 24 
C 352 18 326 -64 326 -71 
C 326 -128 378 -128 390 -128 
C 416 -128 422 -122 499 -26 
L 794 356 
C 947 126 1280 -128 1875 -128 
C 2701 -128 3456 666 3456 1460 
C 3456 1728 3392 1963 3149 2197 
C 3014 2331 2899 2363 2310 2516 
C 1882 2630 1824 2649 1709 2751 
C 1600 2858 1517 3011 1517 3227 
C 1517 3761 2061 4308 2669 4308 
C 3296 4308 3590 3926 3590 3323 
C 3590 3158 3558 2986 3558 2961 
C 3558 2903 3610 2903 3629 2903 
C 3686 2903 3693 2922 3718 3024 
L 4064 4423 
z
" transform="scale(0.015625)"/>
      </defs>
      <use xlink:href="#CMMI12-53" transform="scale(0.996264)"/>
      <use xlink:href="#CMMI12-69" transform="translate(59.994488 -14.943915) scale(0.697382)"/>
      <use xlink:href="#CMMI12-6e" transform="translate(83.289395 -14.943915) scale(0.697382)"/>
      <use xlink:href="#CMMI12-74" transform="translate(124.050238 -14.943915) scale(0.697382)"/>
      <use xlink:href="#CMR17-28" transform="translate(179.282646 0) scale(0.996264)"/>
      <use xlink:href="#CMR17-41" transform="translate(214.563414 0) scale(0.996264)"/>
      <use xlink:href="#CMR17-3d" transform="translate(313.71181 0) scale(0.996264)"/>
      <use xlink:href="#CMR17-30" transform="translate(415.502565 0) scale(0.996264)"/>
      <use xlink:href="#CMR17-2e" transform="translate(461.193042 0) scale(0.996264)"/>
      <use xlink:href="#CMR17-30" transform="translate(486.0641 0) scale(0.996264)"/>
      <use xlink:href="#CMR17-29" transform="translate(531.754578 0) scale(0.996264)"/>
     </g>
    </g>
    <g id="line2d_36">
     <path d="M 362.288667 88.872095 
L 376.288667 88.872095 
L 389.542964 88.872095 
" style="fill: none; stroke: #9dcae1; stroke-width: 3; stroke-linecap: square"/>
    </g>
    <g id="text_17">
     <!-- $P_{int}$ (A = 0.11) -->
     <g transform="translate(401.488667 93.772095) scale(0.14 -0.14)">
      <use xlink:href="#CMMI12-50" transform="scale(0.996264)"/>
      <use xlink:href="#CMMI12-69" transform="translate(62.877232 -14.943915) scale(0.697382)"/>
      <use xlink:href="#CMMI12-6e" transform="translate(86.17214 -14.943915) scale(0.697382)"/>
      <use xlink:href="#CMMI12-74" transform="translate(126.932983 -14.943915) scale(0.697382)"/>
      <use xlink:href="#CMR17-28" transform="translate(182.165391 0) scale(0.996264)"/>
      <use xlink:href="#CMR17-41" transform="translate(217.446158 0) scale(0.996264)"/>
      <use xlink:href="#CMR17-3d" transform="translate(316.594554 0) scale(0.996264)"/>
      <use xlink:href="#CMR17-30" transform="translate(418.385309 0) scale(0.996264)"/>
      <use xlink:href="#CMR17-2e" transform="translate(464.075786 0) scale(0.996264)"/>
      <use xlink:href="#CMR17-31" transform="translate(488.946845 0) scale(0.996264)"/>
      <use xlink:href="#CMR17-31" transform="translate(534.637322 0) scale(0.996264)"/>
      <use xlink:href="#CMR17-29" transform="translate(580.327799 0) scale(0.996264)"/>
     </g>
    </g>
    <g id="line2d_37">
     <path d="M 362.288667 109.819791 
L 376.288667 109.819791 
L 389.542964 109.819791 
" style="fill: none; stroke-dasharray: 11.1,4.8; stroke-dashoffset: 0; stroke: #fdae6a; stroke-width: 3"/>
    </g>
    <g id="text_18">
     <!-- $S_{int}$ (A = 0.11) -->
     <g transform="translate(401.488667 114.719791) scale(0.14 -0.14)">
      <use xlink:href="#CMMI12-53" transform="scale(0.996264)"/>
      <use xlink:href="#CMMI12-69" transform="translate(59.994488 -14.943915) scale(0.697382)"/>
      <use xlink:href="#CMMI12-6e" transform="translate(83.289395 -14.943915) scale(0.697382)"/>
      <use xlink:href="#CMMI12-74" transform="translate(124.050238 -14.943915) scale(0.697382)"/>
      <use xlink:href="#CMR17-28" transform="translate(179.282646 0) scale(0.996264)"/>
      <use xlink:href="#CMR17-41" transform="translate(214.563414 0) scale(0.996264)"/>
      <use xlink:href="#CMR17-3d" transform="translate(313.71181 0) scale(0.996264)"/>
      <use xlink:href="#CMR17-30" transform="translate(415.502565 0) scale(0.996264)"/>
      <use xlink:href="#CMR17-2e" transform="translate(461.193042 0) scale(0.996264)"/>
      <use xlink:href="#CMR17-31" transform="translate(486.0641 0) scale(0.996264)"/>
      <use xlink:href="#CMR17-31" transform="translate(531.754578 0) scale(0.996264)"/>
      <use xlink:href="#CMR17-29" transform="translate(577.445055 0) scale(0.996264)"/>
     </g>
    </g>
    <g id="line2d_38">
     <path d="M 362.288667 130.767488 
L 376.288667 130.767488 
L 389.542964 130.767488 
" style="fill: none; stroke: #7db8da; stroke-width: 3; stroke-linecap: square"/>
    </g>
    <g id="text_19">
     <!-- $P_{int}$ (A = 0.22) -->
     <g transform="translate(401.488667 135.667488) scale(0.14 -0.14)">
      <use xlink:href="#CMMI12-50" transform="scale(0.996264)"/>
      <use xlink:href="#CMMI12-69" transform="translate(62.877232 -14.943915) scale(0.697382)"/>
      <use xlink:href="#CMMI12-6e" transform="translate(86.17214 -14.943915) scale(0.697382)"/>
      <use xlink:href="#CMMI12-74" transform="translate(126.932983 -14.943915) scale(0.697382)"/>
      <use xlink:href="#CMR17-28" transform="translate(182.165391 0) scale(0.996264)"/>
      <use xlink:href="#CMR17-41" transform="translate(217.446158 0) scale(0.996264)"/>
      <use xlink:href="#CMR17-3d" transform="translate(316.594554 0) scale(0.996264)"/>
      <use xlink:href="#CMR17-30" transform="translate(418.385309 0) scale(0.996264)"/>
      <use xlink:href="#CMR17-2e" transform="translate(464.075786 0) scale(0.996264)"/>
      <use xlink:href="#CMR17-32" transform="translate(488.946845 0) scale(0.996264)"/>
      <use xlink:href="#CMR17-32" transform="translate(534.637322 0) scale(0.996264)"/>
      <use xlink:href="#CMR17-29" transform="translate(580.327799 0) scale(0.996264)"/>
     </g>
    </g>
    <g id="line2d_39">
     <path d="M 362.288667 151.715184 
L 376.288667 151.715184 
L 389.542964 151.715184 
" style="fill: none; stroke-dasharray: 11.1,4.8; stroke-dashoffset: 0; stroke: #fd994d; stroke-width: 3"/>
    </g>
    <g id="text_20">
     <!-- $S_{int}$ (A = 0.22) -->
     <g transform="translate(401.488667 156.615184) scale(0.14 -0.14)">
      <use xlink:href="#CMMI12-53" transform="scale(0.996264)"/>
      <use xlink:href="#CMMI12-69" transform="translate(59.994488 -14.943915) scale(0.697382)"/>
      <use xlink:href="#CMMI12-6e" transform="translate(83.289395 -14.943915) scale(0.697382)"/>
      <use xlink:href="#CMMI12-74" transform="translate(124.050238 -14.943915) scale(0.697382)"/>
      <use xlink:href="#CMR17-28" transform="translate(179.282646 0) scale(0.996264)"/>
      <use xlink:href="#CMR17-41" transform="translate(214.563414 0) scale(0.996264)"/>
      <use xlink:href="#CMR17-3d" transform="translate(313.71181 0) scale(0.996264)"/>
      <use xlink:href="#CMR17-30" transform="translate(415.502565 0) scale(0.996264)"/>
      <use xlink:href="#CMR17-2e" transform="translate(461.193042 0) scale(0.996264)"/>
      <use xlink:href="#CMR17-32" transform="translate(486.0641 0) scale(0.996264)"/>
      <use xlink:href="#CMR17-32" transform="translate(531.754578 0) scale(0.996264)"/>
      <use xlink:href="#CMR17-29" transform="translate(577.445055 0) scale(0.996264)"/>
     </g>
    </g>
    <g id="line2d_40">
     <path d="M 362.288667 172.66288 
L 376.288667 172.66288 
L 389.542964 172.66288 
" style="fill: none; stroke: #60a7d2; stroke-width: 3; stroke-linecap: square"/>
    </g>
    <g id="text_21">
     <!-- $P_{int}$ (A = 0.33) -->
     <g transform="translate(401.488667 177.56288) scale(0.14 -0.14)">
      <defs>
       <path id="CMR17-33" d="M 1414 2157 
C 1984 2157 2234 1662 2234 1090 
C 2234 320 1824 25 1453 25 
C 1114 25 563 194 390 693 
C 422 680 454 680 486 680 
C 640 680 755 782 755 948 
C 755 1133 614 1216 486 1216 
C 378 1216 211 1165 211 926 
C 211 335 787 -128 1466 -128 
C 2176 -128 2720 430 2720 1085 
C 2720 1707 2208 2157 1600 2227 
C 2086 2328 2554 2756 2554 3329 
C 2554 3820 2048 4179 1472 4179 
C 890 4179 378 3829 378 3329 
C 378 3110 544 3072 627 3072 
C 762 3072 877 3155 877 3321 
C 877 3486 762 3569 627 3569 
C 602 3569 570 3569 544 3557 
C 730 3959 1235 4032 1459 4032 
C 1683 4032 2106 3925 2106 3320 
C 2106 3143 2080 2828 1862 2550 
C 1670 2304 1453 2304 1242 2284 
C 1210 2284 1062 2269 1037 2269 
C 992 2263 966 2257 966 2208 
C 966 2163 973 2157 1101 2157 
L 1414 2157 
z
" transform="scale(0.015625)"/>
      </defs>
      <use xlink:href="#CMMI12-50" transform="scale(0.996264)"/>
      <use xlink:href="#CMMI12-69" transform="translate(62.877232 -14.943915) scale(0.697382)"/>
      <use xlink:href="#CMMI12-6e" transform="translate(86.17214 -14.943915) scale(0.697382)"/>
      <use xlink:href="#CMMI12-74" transform="translate(126.932983 -14.943915) scale(0.697382)"/>
      <use xlink:href="#CMR17-28" transform="translate(182.165391 0) scale(0.996264)"/>
      <use xlink:href="#CMR17-41" transform="translate(217.446158 0) scale(0.996264)"/>
      <use xlink:href="#CMR17-3d" transform="translate(316.594554 0) scale(0.996264)"/>
      <use xlink:href="#CMR17-30" transform="translate(418.385309 0) scale(0.996264)"/>
      <use xlink:href="#CMR17-2e" transform="translate(464.075786 0) scale(0.996264)"/>
      <use xlink:href="#CMR17-33" transform="translate(488.946845 0) scale(0.996264)"/>
      <use xlink:href="#CMR17-33" transform="translate(534.637322 0) scale(0.996264)"/>
      <use xlink:href="#CMR17-29" transform="translate(580.327799 0) scale(0.996264)"/>
     </g>
    </g>
    <g id="line2d_41">
     <path d="M 362.288667 193.610576 
L 376.288667 193.610576 
L 389.542964 193.610576 
" style="fill: none; stroke-dasharray: 11.1,4.8; stroke-dashoffset: 0; stroke: #fa8331; stroke-width: 3"/>
    </g>
    <g id="text_22">
     <!-- $S_{int}$ (A = 0.33) -->
     <g transform="translate(401.488667 198.510576) scale(0.14 -0.14)">
      <use xlink:href="#CMMI12-53" transform="scale(0.996264)"/>
      <use xlink:href="#CMMI12-69" transform="translate(59.994488 -14.943915) scale(0.697382)"/>
      <use xlink:href="#CMMI12-6e" transform="translate(83.289395 -14.943915) scale(0.697382)"/>
      <use xlink:href="#CMMI12-74" transform="translate(124.050238 -14.943915) scale(0.697382)"/>
      <use xlink:href="#CMR17-28" transform="translate(179.282646 0) scale(0.996264)"/>
      <use xlink:href="#CMR17-41" transform="translate(214.563414 0) scale(0.996264)"/>
      <use xlink:href="#CMR17-3d" transform="translate(313.71181 0) scale(0.996264)"/>
      <use xlink:href="#CMR17-30" transform="translate(415.502565 0) scale(0.996264)"/>
      <use xlink:href="#CMR17-2e" transform="translate(461.193042 0) scale(0.996264)"/>
      <use xlink:href="#CMR17-33" transform="translate(486.0641 0) scale(0.996264)"/>
      <use xlink:href="#CMR17-33" transform="translate(531.754578 0) scale(0.996264)"/>
      <use xlink:href="#CMR17-29" transform="translate(577.445055 0) scale(0.996264)"/>
     </g>
    </g>
    <g id="line2d_42">
     <path d="M 362.288667 214.558272 
L 376.288667 214.558272 
L 389.542964 214.558272 
" style="fill: none; stroke: #4695c8; stroke-width: 3; stroke-linecap: square"/>
    </g>
    <g id="text_23">
     <!-- $P_{int}$ (A = 0.44) -->
     <g transform="translate(401.488667 219.458272) scale(0.14 -0.14)">
      <use xlink:href="#CMMI12-50" transform="scale(0.996264)"/>
      <use xlink:href="#CMMI12-69" transform="translate(62.877232 -14.943915) scale(0.697382)"/>
      <use xlink:href="#CMMI12-6e" transform="translate(86.17214 -14.943915) scale(0.697382)"/>
      <use xlink:href="#CMMI12-74" transform="translate(126.932983 -14.943915) scale(0.697382)"/>
      <use xlink:href="#CMR17-28" transform="translate(182.165391 0) scale(0.996264)"/>
      <use xlink:href="#CMR17-41" transform="translate(217.446158 0) scale(0.996264)"/>
      <use xlink:href="#CMR17-3d" transform="translate(316.594554 0) scale(0.996264)"/>
      <use xlink:href="#CMR17-30" transform="translate(418.385309 0) scale(0.996264)"/>
      <use xlink:href="#CMR17-2e" transform="translate(464.075786 0) scale(0.996264)"/>
      <use xlink:href="#CMR17-34" transform="translate(488.946845 0) scale(0.996264)"/>
      <use xlink:href="#CMR17-34" transform="translate(534.637322 0) scale(0.996264)"/>
      <use xlink:href="#CMR17-29" transform="translate(580.327799 0) scale(0.996264)"/>
     </g>
    </g>
    <g id="line2d_43">
     <path d="M 362.288667 235.505968 
L 376.288667 235.505968 
L 389.542964 235.505968 
" style="fill: none; stroke-dasharray: 11.1,4.8; stroke-dashoffset: 0; stroke: #f26d17; stroke-width: 3"/>
    </g>
    <g id="text_24">
     <!-- $S_{int}$ (A = 0.44) -->
     <g transform="translate(401.488667 240.405968) scale(0.14 -0.14)">
      <use xlink:href="#CMMI12-53" transform="scale(0.996264)"/>
      <use xlink:href="#CMMI12-69" transform="translate(59.994488 -14.943915) scale(0.697382)"/>
      <use xlink:href="#CMMI12-6e" transform="translate(83.289395 -14.943915) scale(0.697382)"/>
      <use xlink:href="#CMMI12-74" transform="translate(124.050238 -14.943915) scale(0.697382)"/>
      <use xlink:href="#CMR17-28" transform="translate(179.282646 0) scale(0.996264)"/>
      <use xlink:href="#CMR17-41" transform="translate(214.563414 0) scale(0.996264)"/>
      <use xlink:href="#CMR17-3d" transform="translate(313.71181 0) scale(0.996264)"/>
      <use xlink:href="#CMR17-30" transform="translate(415.502565 0) scale(0.996264)"/>
      <use xlink:href="#CMR17-2e" transform="translate(461.193042 0) scale(0.996264)"/>
      <use xlink:href="#CMR17-34" transform="translate(486.0641 0) scale(0.996264)"/>
      <use xlink:href="#CMR17-34" transform="translate(531.754578 0) scale(0.996264)"/>
      <use xlink:href="#CMR17-29" transform="translate(577.445055 0) scale(0.996264)"/>
     </g>
    </g>
    <g id="line2d_44">
     <path style="fill: none; stroke: #3181bd; stroke-width: 3; stroke-linecap: square"/>
    </g>
    <g id="text_25">
     <!-- $P_{int}$ (A = 0.56) -->
     <g transform="translate(560.518029 51.876703) scale(0.14 -0.14)">
      <defs>
       <path id="CMR17-35" d="M 730 3692 
C 794 3666 1056 3584 1325 3584 
C 1920 3584 2246 3911 2432 4100 
C 2432 4157 2432 4192 2394 4192 
C 2387 4192 2374 4192 2323 4163 
C 2099 4058 1837 3973 1517 3973 
C 1325 3973 1037 3999 723 4139 
C 653 4171 640 4171 634 4171 
C 602 4171 595 4164 595 4037 
L 595 2203 
C 595 2089 595 2057 659 2057 
C 691 2057 704 2070 736 2114 
C 941 2401 1222 2522 1542 2522 
C 1766 2522 2246 2382 2246 1289 
C 2246 1085 2246 715 2054 421 
C 1894 159 1645 25 1370 25 
C 947 25 518 320 403 814 
C 429 807 480 795 506 795 
C 589 795 749 840 749 1038 
C 749 1210 627 1280 506 1280 
C 358 1280 262 1190 262 1011 
C 262 454 704 -128 1382 -128 
C 2042 -128 2669 440 2669 1264 
C 2669 2030 2170 2624 1549 2624 
C 1222 2624 947 2503 730 2274 
L 730 3692 
z
" transform="scale(0.015625)"/>
      </defs>
      <use xlink:href="#CMMI12-50" transform="scale(0.996264)"/>
      <use xlink:href="#CMMI12-69" transform="translate(62.877232 -14.943915) scale(0.697382)"/>
      <use xlink:href="#CMMI12-6e" transform="translate(86.17214 -14.943915) scale(0.697382)"/>
      <use xlink:href="#CMMI12-74" transform="translate(126.932983 -14.943915) scale(0.697382)"/>
      <use xlink:href="#CMR17-28" transform="translate(182.165391 0) scale(0.996264)"/>
      <use xlink:href="#CMR17-41" transform="translate(217.446158 0) scale(0.996264)"/>
      <use xlink:href="#CMR17-3d" transform="translate(316.594554 0) scale(0.996264)"/>
      <use xlink:href="#CMR17-30" transform="translate(418.385309 0) scale(0.996264)"/>
      <use xlink:href="#CMR17-2e" transform="translate(464.075786 0) scale(0.996264)"/>
      <use xlink:href="#CMR17-35" transform="translate(488.946845 0) scale(0.996264)"/>
      <use xlink:href="#CMR17-36" transform="translate(534.637322 0) scale(0.996264)"/>
      <use xlink:href="#CMR17-29" transform="translate(580.327799 0) scale(0.996264)"/>
     </g>
    </g>
    <g id="line2d_45">
     <path style="fill: none; stroke-dasharray: 11.1,4.8; stroke-dashoffset: 0; stroke: #e4580a; stroke-width: 3"/>
    </g>
    <g id="text_26">
     <!-- $S_{int}$ (A = 0.56) -->
     <g transform="translate(560.518029 72.824399) scale(0.14 -0.14)">
      <use xlink:href="#CMMI12-53" transform="scale(0.996264)"/>
      <use xlink:href="#CMMI12-69" transform="translate(59.994488 -14.943915) scale(0.697382)"/>
      <use xlink:href="#CMMI12-6e" transform="translate(83.289395 -14.943915) scale(0.697382)"/>
      <use xlink:href="#CMMI12-74" transform="translate(124.050238 -14.943915) scale(0.697382)"/>
      <use xlink:href="#CMR17-28" transform="translate(179.282646 0) scale(0.996264)"/>
      <use xlink:href="#CMR17-41" transform="translate(214.563414 0) scale(0.996264)"/>
      <use xlink:href="#CMR17-3d" transform="translate(313.71181 0) scale(0.996264)"/>
      <use xlink:href="#CMR17-30" transform="translate(415.502565 0) scale(0.996264)"/>
      <use xlink:href="#CMR17-2e" transform="translate(461.193042 0) scale(0.996264)"/>
      <use xlink:href="#CMR17-35" transform="translate(486.0641 0) scale(0.996264)"/>
      <use xlink:href="#CMR17-36" transform="translate(531.754578 0) scale(0.996264)"/>
      <use xlink:href="#CMR17-29" transform="translate(577.445055 0) scale(0.996264)"/>
     </g>
    </g>
    <g id="line2d_46">
     <path style="fill: none; stroke: #1d6cb1; stroke-width: 3; stroke-linecap: square"/>
    </g>
    <g id="text_27">
     <!-- $P_{int}$ (A = 0.67) -->
     <g transform="translate(560.518029 93.772095) scale(0.14 -0.14)">
      <defs>
       <path id="CMR17-37" d="M 2886 3941 
L 2886 4081 
L 1382 4081 
C 634 4081 621 4165 595 4288 
L 480 4288 
L 294 3094 
L 410 3094 
C 429 3215 474 3540 550 3661 
C 589 3712 1062 3712 1171 3712 
L 2579 3712 
L 1869 2661 
C 1395 1954 1069 999 1069 165 
C 1069 89 1069 -128 1299 -128 
C 1530 -128 1530 89 1530 171 
L 1530 465 
C 1530 1508 1709 2196 2003 2636 
L 2886 3941 
z
" transform="scale(0.015625)"/>
      </defs>
      <use xlink:href="#CMMI12-50" transform="scale(0.996264)"/>
      <use xlink:href="#CMMI12-69" transform="translate(62.877232 -14.943915) scale(0.697382)"/>
      <use xlink:href="#CMMI12-6e" transform="translate(86.17214 -14.943915) scale(0.697382)"/>
      <use xlink:href="#CMMI12-74" transform="translate(126.932983 -14.943915) scale(0.697382)"/>
      <use xlink:href="#CMR17-28" transform="translate(182.165391 0) scale(0.996264)"/>
      <use xlink:href="#CMR17-41" transform="translate(217.446158 0) scale(0.996264)"/>
      <use xlink:href="#CMR17-3d" transform="translate(316.594554 0) scale(0.996264)"/>
      <use xlink:href="#CMR17-30" transform="translate(418.385309 0) scale(0.996264)"/>
      <use xlink:href="#CMR17-2e" transform="translate(464.075786 0) scale(0.996264)"/>
      <use xlink:href="#CMR17-36" transform="translate(488.946845 0) scale(0.996264)"/>
      <use xlink:href="#CMR17-37" transform="translate(534.637322 0) scale(0.996264)"/>
      <use xlink:href="#CMR17-29" transform="translate(580.327799 0) scale(0.996264)"/>
     </g>
    </g>
    <g id="line2d_47">
     <path style="fill: none; stroke-dasharray: 11.1,4.8; stroke-dashoffset: 0; stroke: #d14501; stroke-width: 3"/>
    </g>
    <g id="text_28">
     <!-- $S_{int}$ (A = 0.67) -->
     <g transform="translate(560.518029 114.719791) scale(0.14 -0.14)">
      <use xlink:href="#CMMI12-53" transform="scale(0.996264)"/>
      <use xlink:href="#CMMI12-69" transform="translate(59.994488 -14.943915) scale(0.697382)"/>
      <use xlink:href="#CMMI12-6e" transform="translate(83.289395 -14.943915) scale(0.697382)"/>
      <use xlink:href="#CMMI12-74" transform="translate(124.050238 -14.943915) scale(0.697382)"/>
      <use xlink:href="#CMR17-28" transform="translate(179.282646 0) scale(0.996264)"/>
      <use xlink:href="#CMR17-41" transform="translate(214.563414 0) scale(0.996264)"/>
      <use xlink:href="#CMR17-3d" transform="translate(313.71181 0) scale(0.996264)"/>
      <use xlink:href="#CMR17-30" transform="translate(415.502565 0) scale(0.996264)"/>
      <use xlink:href="#CMR17-2e" transform="translate(461.193042 0) scale(0.996264)"/>
      <use xlink:href="#CMR17-36" transform="translate(486.0641 0) scale(0.996264)"/>
      <use xlink:href="#CMR17-37" transform="translate(531.754578 0) scale(0.996264)"/>
      <use xlink:href="#CMR17-29" transform="translate(577.445055 0) scale(0.996264)"/>
     </g>
    </g>
    <g id="line2d_48">
     <path style="fill: none; stroke: #0e58a2; stroke-width: 3; stroke-linecap: square"/>
    </g>
    <g id="text_29">
     <!-- $P_{int}$ (A = 0.78) -->
     <g transform="translate(560.518029 135.667488) scale(0.14 -0.14)">
      <use xlink:href="#CMMI12-50" transform="scale(0.996264)"/>
      <use xlink:href="#CMMI12-69" transform="translate(62.877232 -14.943915) scale(0.697382)"/>
      <use xlink:href="#CMMI12-6e" transform="translate(86.17214 -14.943915) scale(0.697382)"/>
      <use xlink:href="#CMMI12-74" transform="translate(126.932983 -14.943915) scale(0.697382)"/>
      <use xlink:href="#CMR17-28" transform="translate(182.165391 0) scale(0.996264)"/>
      <use xlink:href="#CMR17-41" transform="translate(217.446158 0) scale(0.996264)"/>
      <use xlink:href="#CMR17-3d" transform="translate(316.594554 0) scale(0.996264)"/>
      <use xlink:href="#CMR17-30" transform="translate(418.385309 0) scale(0.996264)"/>
      <use xlink:href="#CMR17-2e" transform="translate(464.075786 0) scale(0.996264)"/>
      <use xlink:href="#CMR17-37" transform="translate(488.946845 0) scale(0.996264)"/>
      <use xlink:href="#CMR17-38" transform="translate(534.637322 0) scale(0.996264)"/>
      <use xlink:href="#CMR17-29" transform="translate(580.327799 0) scale(0.996264)"/>
     </g>
    </g>
    <g id="line2d_49">
     <path style="fill: none; stroke-dasharray: 11.1,4.8; stroke-dashoffset: 0; stroke: #b13a03; stroke-width: 3"/>
    </g>
    <g id="text_30">
     <!-- $S_{int}$ (A = 0.78) -->
     <g transform="translate(560.518029 156.615184) scale(0.14 -0.14)">
      <use xlink:href="#CMMI12-53" transform="scale(0.996264)"/>
      <use xlink:href="#CMMI12-69" transform="translate(59.994488 -14.943915) scale(0.697382)"/>
      <use xlink:href="#CMMI12-6e" transform="translate(83.289395 -14.943915) scale(0.697382)"/>
      <use xlink:href="#CMMI12-74" transform="translate(124.050238 -14.943915) scale(0.697382)"/>
      <use xlink:href="#CMR17-28" transform="translate(179.282646 0) scale(0.996264)"/>
      <use xlink:href="#CMR17-41" transform="translate(214.563414 0) scale(0.996264)"/>
      <use xlink:href="#CMR17-3d" transform="translate(313.71181 0) scale(0.996264)"/>
      <use xlink:href="#CMR17-30" transform="translate(415.502565 0) scale(0.996264)"/>
      <use xlink:href="#CMR17-2e" transform="translate(461.193042 0) scale(0.996264)"/>
      <use xlink:href="#CMR17-37" transform="translate(486.0641 0) scale(0.996264)"/>
      <use xlink:href="#CMR17-38" transform="translate(531.754578 0) scale(0.996264)"/>
      <use xlink:href="#CMR17-29" transform="translate(577.445055 0) scale(0.996264)"/>
     </g>
    </g>
    <g id="line2d_50">
     <path style="fill: none; stroke: #084488; stroke-width: 3; stroke-linecap: square"/>
    </g>
    <g id="text_31">
     <!-- $P_{int}$ (A = 0.89) -->
     <g transform="translate(560.518029 177.56288) scale(0.14 -0.14)">
      <defs>
       <path id="CMR17-39" d="M 2253 1864 
C 2253 464 1670 31 1190 31 
C 1043 31 685 31 538 294 
C 704 268 826 357 826 518 
C 826 692 685 749 595 749 
C 538 749 365 723 365 506 
C 365 71 742 -128 1203 -128 
C 1939 -128 2688 674 2688 2073 
C 2688 3817 1971 4179 1485 4179 
C 851 4179 243 3628 243 2778 
C 243 1991 762 1408 1414 1408 
C 1952 1408 2189 1903 2253 2112 
L 2253 1864 
z
M 1427 1510 
C 1254 1510 1011 1542 813 1922 
C 678 2169 678 2461 678 2771 
C 678 3146 678 3405 858 3684 
C 947 3817 1114 4032 1485 4032 
C 2240 4032 2240 2885 2240 2632 
C 2240 2182 2035 1510 1427 1510 
z
" transform="scale(0.015625)"/>
      </defs>
      <use xlink:href="#CMMI12-50" transform="scale(0.996264)"/>
      <use xlink:href="#CMMI12-69" transform="translate(62.877232 -14.943915) scale(0.697382)"/>
      <use xlink:href="#CMMI12-6e" transform="translate(86.17214 -14.943915) scale(0.697382)"/>
      <use xlink:href="#CMMI12-74" transform="translate(126.932983 -14.943915) scale(0.697382)"/>
      <use xlink:href="#CMR17-28" transform="translate(182.165391 0) scale(0.996264)"/>
      <use xlink:href="#CMR17-41" transform="translate(217.446158 0) scale(0.996264)"/>
      <use xlink:href="#CMR17-3d" transform="translate(316.594554 0) scale(0.996264)"/>
      <use xlink:href="#CMR17-30" transform="translate(418.385309 0) scale(0.996264)"/>
      <use xlink:href="#CMR17-2e" transform="translate(464.075786 0) scale(0.996264)"/>
      <use xlink:href="#CMR17-38" transform="translate(488.946845 0) scale(0.996264)"/>
      <use xlink:href="#CMR17-39" transform="translate(534.637322 0) scale(0.996264)"/>
      <use xlink:href="#CMR17-29" transform="translate(580.327799 0) scale(0.996264)"/>
     </g>
    </g>
    <g id="line2d_51">
     <path style="fill: none; stroke-dasharray: 11.1,4.8; stroke-dashoffset: 0; stroke: #963003; stroke-width: 3"/>
    </g>
    <g id="text_32">
     <!-- $S_{int}$ (A = 0.89) -->
     <g transform="translate(560.518029 198.510576) scale(0.14 -0.14)">
      <use xlink:href="#CMMI12-53" transform="scale(0.996264)"/>
      <use xlink:href="#CMMI12-69" transform="translate(59.994488 -14.943915) scale(0.697382)"/>
      <use xlink:href="#CMMI12-6e" transform="translate(83.289395 -14.943915) scale(0.697382)"/>
      <use xlink:href="#CMMI12-74" transform="translate(124.050238 -14.943915) scale(0.697382)"/>
      <use xlink:href="#CMR17-28" transform="translate(179.282646 0) scale(0.996264)"/>
      <use xlink:href="#CMR17-41" transform="translate(214.563414 0) scale(0.996264)"/>
      <use xlink:href="#CMR17-3d" transform="translate(313.71181 0) scale(0.996264)"/>
      <use xlink:href="#CMR17-30" transform="translate(415.502565 0) scale(0.996264)"/>
      <use xlink:href="#CMR17-2e" transform="translate(461.193042 0) scale(0.996264)"/>
      <use xlink:href="#CMR17-38" transform="translate(486.0641 0) scale(0.996264)"/>
      <use xlink:href="#CMR17-39" transform="translate(531.754578 0) scale(0.996264)"/>
      <use xlink:href="#CMR17-29" transform="translate(577.445055 0) scale(0.996264)"/>
     </g>
    </g>
    <g id="line2d_52">
     <path style="fill: none; stroke: #08306b; stroke-width: 3; stroke-linecap: square"/>
    </g>
    <g id="text_33">
     <!-- $P_{int}$ (A = 1.0) -->
     <g transform="translate(560.518029 219.458272) scale(0.14 -0.14)">
      <use xlink:href="#CMMI12-50" transform="scale(0.996264)"/>
      <use xlink:href="#CMMI12-69" transform="translate(62.877232 -14.943915) scale(0.697382)"/>
      <use xlink:href="#CMMI12-6e" transform="translate(86.17214 -14.943915) scale(0.697382)"/>
      <use xlink:href="#CMMI12-74" transform="translate(126.932983 -14.943915) scale(0.697382)"/>
      <use xlink:href="#CMR17-28" transform="translate(182.165391 0) scale(0.996264)"/>
      <use xlink:href="#CMR17-41" transform="translate(217.446158 0) scale(0.996264)"/>
      <use xlink:href="#CMR17-3d" transform="translate(316.594554 0) scale(0.996264)"/>
      <use xlink:href="#CMR17-31" transform="translate(418.385309 0) scale(0.996264)"/>
      <use xlink:href="#CMR17-2e" transform="translate(464.075786 0) scale(0.996264)"/>
      <use xlink:href="#CMR17-30" transform="translate(488.946845 0) scale(0.996264)"/>
      <use xlink:href="#CMR17-29" transform="translate(534.637322 0) scale(0.996264)"/>
     </g>
    </g>
    <g id="line2d_53">
     <path style="fill: none; stroke-dasharray: 11.1,4.8; stroke-dashoffset: 0; stroke: #7f2704; stroke-width: 3"/>
    </g>
    <g id="text_34">
     <!-- $S_{int}$ (A = 1.0) -->
     <g transform="translate(560.518029 240.405968) scale(0.14 -0.14)">
      <use xlink:href="#CMMI12-53" transform="scale(0.996264)"/>
      <use xlink:href="#CMMI12-69" transform="translate(59.994488 -14.943915) scale(0.697382)"/>
      <use xlink:href="#CMMI12-6e" transform="translate(83.289395 -14.943915) scale(0.697382)"/>
      <use xlink:href="#CMMI12-74" transform="translate(124.050238 -14.943915) scale(0.697382)"/>
      <use xlink:href="#CMR17-28" transform="translate(179.282646 0) scale(0.996264)"/>
      <use xlink:href="#CMR17-41" transform="translate(214.563414 0) scale(0.996264)"/>
      <use xlink:href="#CMR17-3d" transform="translate(313.71181 0) scale(0.996264)"/>
      <use xlink:href="#CMR17-31" transform="translate(415.502565 0) scale(0.996264)"/>
      <use xlink:href="#CMR17-2e" transform="translate(461.193042 0) scale(0.996264)"/>
      <use xlink:href="#CMR17-30" transform="translate(486.0641 0) scale(0.996264)"/>
      <use xlink:href="#CMR17-29" transform="translate(531.754578 0) scale(0.996264)"/>
     </g>
    </g>
   </g>
  </g>
 </g>
 <defs>
  <clipPath id="p657c9994f6">
   <rect x="48.56787" y="28.815931" width="301.120797" height="184.902223"/>
  </clipPath>
 </defs>
</svg>
