<?xml version="1.0" encoding="utf-8" standalone="no"?>
<!DOCTYPE svg PUBLIC "-//W3C//DTD SVG 1.1//EN"
  "http://www.w3.org/Graphics/SVG/1.1/DTD/svg11.dtd">
<svg xmlns:xlink="http://www.w3.org/1999/xlink" width="388.542964pt" height="240.132758pt" viewBox="0 0 388.542964 240.132758" xmlns="http://www.w3.org/2000/svg" version="1.1">
 <metadata>
  <rdf:RDF xmlns:dc="http://purl.org/dc/elements/1.1/" xmlns:cc="http://creativecommons.org/ns#" xmlns:rdf="http://www.w3.org/1999/02/22-rdf-syntax-ns#">
   <cc:Work>
    <dc:type rdf:resource="http://purl.org/dc/dcmitype/StillImage"/>
    <dc:date>2024-12-13T17:05:46.689388</dc:date>
    <dc:format>image/svg+xml</dc:format>
    <dc:creator>
     <cc:Agent>
      <dc:title>Matplotlib v3.7.5, https://matplotlib.org/</dc:title>
     </cc:Agent>
    </dc:creator>
   </cc:Work>
  </rdf:RDF>
 </metadata>
 <defs>
  <style type="text/css">*{stroke-linejoin: round; stroke-linecap: butt}</style>
 </defs>
 <g id="figure_1">
  <g id="patch_1">
   <path d="M 0 240.132758 
L 388.542964 240.132758 
L 388.542964 0 
L 0 0 
z
" style="fill: #ffffff"/>
  </g>
  <g id="axes_1">
   <g id="patch_2">
    <path d="M 51.648487 193.536948 
L 377.742964 193.536948 
L 377.742964 10.8 
L 51.648487 10.8 
z
" style="fill: #ffffff"/>
   </g>
   <g id="matplotlib.axis_1">
    <g id="xtick_1">
     <g id="line2d_1">
      <defs>
       <path id="m38baba4457" d="M 0 0 
L 0 3.5 
" style="stroke: #000000; stroke-width: 0.8"/>
      </defs>
      <g>
       <use xlink:href="#m38baba4457" x="66.470963" y="193.536948" style="stroke: #000000; stroke-width: 0.8"/>
      </g>
     </g>
     <g id="text_1">
      <!-- $\mathdefault{0.0}$ -->
      <g transform="translate(57.745672 210.222825) scale(0.14 -0.14)">
       <defs>
        <path id="CMR17-30" d="M 2688 2025 
C 2688 2416 2682 3080 2413 3591 
C 2176 4039 1798 4198 1466 4198 
C 1158 4198 768 4058 525 3597 
C 269 3118 243 2524 243 2025 
C 243 1661 250 1106 448 619 
C 723 -39 1216 -128 1466 -128 
C 1760 -128 2208 -7 2470 600 
C 2662 1042 2688 1559 2688 2025 
z
M 1466 -26 
C 1056 -26 813 325 723 812 
C 653 1188 653 1738 653 2096 
C 653 2588 653 2997 736 3387 
C 858 3929 1216 4096 1466 4096 
C 1728 4096 2067 3923 2189 3400 
C 2272 3036 2278 2607 2278 2096 
C 2278 1680 2278 1169 2202 792 
C 2067 95 1690 -26 1466 -26 
z
" transform="scale(0.015625)"/>
        <path id="CMMI12-3a" d="M 1178 307 
C 1178 492 1024 619 870 619 
C 685 619 557 466 557 313 
C 557 128 710 0 864 0 
C 1050 0 1178 153 1178 307 
z
" transform="scale(0.015625)"/>
       </defs>
       <use xlink:href="#CMR17-30" transform="scale(0.996264)"/>
       <use xlink:href="#CMMI12-3a" transform="translate(45.690477 0) scale(0.996264)"/>
       <use xlink:href="#CMR17-30" transform="translate(72.787654 0) scale(0.996264)"/>
      </g>
     </g>
    </g>
    <g id="xtick_2">
     <g id="line2d_2">
      <g>
       <use xlink:href="#m38baba4457" x="125.760868" y="193.536948" style="stroke: #000000; stroke-width: 0.8"/>
      </g>
     </g>
     <g id="text_2">
      <!-- $\mathdefault{0.2}$ -->
      <g transform="translate(117.035577 210.222825) scale(0.14 -0.14)">
       <defs>
        <path id="CMR17-32" d="M 2669 989 
L 2554 989 
C 2490 536 2438 459 2413 420 
C 2381 369 1920 369 1830 369 
L 602 369 
C 832 619 1280 1072 1824 1597 
C 2214 1967 2669 2402 2669 3035 
C 2669 3790 2067 4224 1395 4224 
C 691 4224 262 3604 262 3030 
C 262 2780 448 2748 525 2748 
C 589 2748 781 2787 781 3010 
C 781 3207 614 3264 525 3264 
C 486 3264 448 3258 422 3245 
C 544 3790 915 4058 1306 4058 
C 1862 4058 2227 3617 2227 3035 
C 2227 2479 1901 2000 1536 1584 
L 262 146 
L 262 0 
L 2515 0 
L 2669 989 
z
" transform="scale(0.015625)"/>
       </defs>
       <use xlink:href="#CMR17-30" transform="scale(0.996264)"/>
       <use xlink:href="#CMMI12-3a" transform="translate(45.690477 0) scale(0.996264)"/>
       <use xlink:href="#CMR17-32" transform="translate(72.787654 0) scale(0.996264)"/>
      </g>
     </g>
    </g>
    <g id="xtick_3">
     <g id="line2d_3">
      <g>
       <use xlink:href="#m38baba4457" x="185.050773" y="193.536948" style="stroke: #000000; stroke-width: 0.8"/>
      </g>
     </g>
     <g id="text_3">
      <!-- $\mathdefault{0.4}$ -->
      <g transform="translate(176.325482 210.222825) scale(0.14 -0.14)">
       <defs>
        <path id="CMR17-34" d="M 2150 4122 
C 2150 4256 2144 4256 2029 4256 
L 128 1254 
L 128 1088 
L 1779 1088 
L 1779 457 
C 1779 224 1766 160 1318 160 
L 1197 160 
L 1197 0 
C 1402 0 1747 0 1965 0 
C 2182 0 2528 0 2733 0 
L 2733 160 
L 2611 160 
C 2163 160 2150 224 2150 457 
L 2150 1088 
L 2803 1088 
L 2803 1254 
L 2150 1254 
L 2150 4122 
z
M 1798 3703 
L 1798 1254 
L 256 1254 
L 1798 3703 
z
" transform="scale(0.015625)"/>
       </defs>
       <use xlink:href="#CMR17-30" transform="scale(0.996264)"/>
       <use xlink:href="#CMMI12-3a" transform="translate(45.690477 0) scale(0.996264)"/>
       <use xlink:href="#CMR17-34" transform="translate(72.787654 0) scale(0.996264)"/>
      </g>
     </g>
    </g>
    <g id="xtick_4">
     <g id="line2d_4">
      <g>
       <use xlink:href="#m38baba4457" x="244.340678" y="193.536948" style="stroke: #000000; stroke-width: 0.8"/>
      </g>
     </g>
     <g id="text_4">
      <!-- $\mathdefault{0.6}$ -->
      <g transform="translate(235.615387 210.222825) scale(0.14 -0.14)">
       <defs>
        <path id="CMR17-36" d="M 678 2176 
C 678 3690 1395 4032 1811 4032 
C 1946 4032 2272 4009 2400 3776 
C 2298 3776 2106 3776 2106 3553 
C 2106 3381 2246 3323 2336 3323 
C 2394 3323 2566 3348 2566 3560 
C 2566 3954 2246 4179 1805 4179 
C 1043 4179 243 3390 243 1984 
C 243 253 966 -128 1478 -128 
C 2099 -128 2688 427 2688 1283 
C 2688 2081 2170 2662 1517 2662 
C 1126 2662 838 2407 678 1960 
L 678 2176 
z
M 1478 25 
C 691 25 691 1200 691 1436 
C 691 1896 909 2560 1504 2560 
C 1613 2560 1926 2560 2138 2120 
C 2253 1870 2253 1609 2253 1289 
C 2253 944 2253 690 2118 434 
C 1978 171 1773 25 1478 25 
z
" transform="scale(0.015625)"/>
       </defs>
       <use xlink:href="#CMR17-30" transform="scale(0.996264)"/>
       <use xlink:href="#CMMI12-3a" transform="translate(45.690477 0) scale(0.996264)"/>
       <use xlink:href="#CMR17-36" transform="translate(72.787654 0) scale(0.996264)"/>
      </g>
     </g>
    </g>
    <g id="xtick_5">
     <g id="line2d_5">
      <g>
       <use xlink:href="#m38baba4457" x="303.630583" y="193.536948" style="stroke: #000000; stroke-width: 0.8"/>
      </g>
     </g>
     <g id="text_5">
      <!-- $\mathdefault{0.8}$ -->
      <g transform="translate(294.905292 210.222825) scale(0.14 -0.14)">
       <defs>
        <path id="CMR17-38" d="M 1741 2264 
C 2144 2467 2554 2773 2554 3263 
C 2554 3841 1990 4179 1472 4179 
C 890 4179 378 3759 378 3180 
C 378 3021 416 2747 666 2505 
C 730 2442 998 2251 1171 2130 
C 883 1983 211 1634 211 934 
C 211 279 838 -128 1459 -128 
C 2144 -128 2720 362 2720 1010 
C 2720 1590 2330 1857 2074 2029 
L 1741 2264 
z
M 902 2822 
C 851 2854 595 3051 595 3351 
C 595 3739 998 4032 1459 4032 
C 1965 4032 2336 3676 2336 3262 
C 2336 2669 1670 2331 1638 2331 
C 1632 2331 1626 2331 1574 2370 
L 902 2822 
z
M 2080 1519 
C 2176 1449 2483 1240 2483 851 
C 2483 381 2010 25 1472 25 
C 890 25 448 438 448 940 
C 448 1443 838 1862 1280 2060 
L 2080 1519 
z
" transform="scale(0.015625)"/>
       </defs>
       <use xlink:href="#CMR17-30" transform="scale(0.996264)"/>
       <use xlink:href="#CMMI12-3a" transform="translate(45.690477 0) scale(0.996264)"/>
       <use xlink:href="#CMR17-38" transform="translate(72.787654 0) scale(0.996264)"/>
      </g>
     </g>
    </g>
    <g id="xtick_6">
     <g id="line2d_6">
      <g>
       <use xlink:href="#m38baba4457" x="362.920488" y="193.536948" style="stroke: #000000; stroke-width: 0.8"/>
      </g>
     </g>
     <g id="text_6">
      <!-- $\mathdefault{1.0}$ -->
      <g transform="translate(354.195197 210.222825) scale(0.14 -0.14)">
       <defs>
        <path id="CMR17-31" d="M 1702 4058 
C 1702 4192 1696 4192 1606 4192 
C 1357 3916 979 3827 621 3827 
C 602 3827 570 3827 563 3808 
C 557 3795 557 3782 557 3648 
C 755 3648 1088 3686 1344 3839 
L 1344 461 
C 1344 236 1331 160 781 160 
L 589 160 
L 589 0 
C 896 0 1216 0 1523 0 
C 1830 0 2150 0 2458 0 
L 2458 160 
L 2266 160 
C 1715 160 1702 230 1702 458 
L 1702 4058 
z
" transform="scale(0.015625)"/>
       </defs>
       <use xlink:href="#CMR17-31" transform="scale(0.996264)"/>
       <use xlink:href="#CMMI12-3a" transform="translate(45.690477 0) scale(0.996264)"/>
       <use xlink:href="#CMR17-30" transform="translate(72.787654 0) scale(0.996264)"/>
      </g>
     </g>
    </g>
    <g id="text_7">
     <!-- t -->
     <g transform="translate(212.040202 226.620729) scale(0.14 -0.14)">
      <defs>
       <path id="CMR17-74" d="M 966 2560 
L 1862 2560 
L 1862 2725 
L 966 2725 
L 966 3904 
L 851 3904 
C 838 3245 614 2668 70 2668 
L 70 2560 
L 627 2560 
L 627 771 
C 627 650 627 -64 1370 -64 
C 1747 -64 1965 306 1965 777 
L 1965 1140 
L 1850 1140 
L 1850 783 
C 1850 344 1677 51 1408 51 
C 1222 51 966 178 966 758 
L 966 2560 
z
" transform="scale(0.015625)"/>
      </defs>
      <use xlink:href="#CMR17-74" transform="scale(0.996264)"/>
     </g>
    </g>
   </g>
   <g id="matplotlib.axis_2">
    <g id="ytick_1">
     <g id="line2d_7">
      <defs>
       <path id="m2987347189" d="M 0 0 
L -3.5 0 
" style="stroke: #000000; stroke-width: 0.8"/>
      </defs>
      <g>
       <use xlink:href="#m2987347189" x="51.648487" y="166.495042" style="stroke: #000000; stroke-width: 0.8"/>
      </g>
     </g>
     <g id="text_8">
      <!-- $\mathdefault{0.2}$ -->
      <g transform="translate(27.197905 171.33798) scale(0.14 -0.14)">
       <use xlink:href="#CMR17-30" transform="scale(0.996264)"/>
       <use xlink:href="#CMMI12-3a" transform="translate(45.690477 0) scale(0.996264)"/>
       <use xlink:href="#CMR17-32" transform="translate(72.787654 0) scale(0.996264)"/>
      </g>
     </g>
    </g>
    <g id="ytick_2">
     <g id="line2d_8">
      <g>
       <use xlink:href="#m2987347189" x="51.648487" y="134.717888" style="stroke: #000000; stroke-width: 0.8"/>
      </g>
     </g>
     <g id="text_9">
      <!-- $\mathdefault{0.4}$ -->
      <g transform="translate(27.197905 139.560826) scale(0.14 -0.14)">
       <use xlink:href="#CMR17-30" transform="scale(0.996264)"/>
       <use xlink:href="#CMMI12-3a" transform="translate(45.690477 0) scale(0.996264)"/>
       <use xlink:href="#CMR17-34" transform="translate(72.787654 0) scale(0.996264)"/>
      </g>
     </g>
    </g>
    <g id="ytick_3">
     <g id="line2d_9">
      <g>
       <use xlink:href="#m2987347189" x="51.648487" y="102.940734" style="stroke: #000000; stroke-width: 0.8"/>
      </g>
     </g>
     <g id="text_10">
      <!-- $\mathdefault{0.6}$ -->
      <g transform="translate(27.197905 107.783672) scale(0.14 -0.14)">
       <use xlink:href="#CMR17-30" transform="scale(0.996264)"/>
       <use xlink:href="#CMMI12-3a" transform="translate(45.690477 0) scale(0.996264)"/>
       <use xlink:href="#CMR17-36" transform="translate(72.787654 0) scale(0.996264)"/>
      </g>
     </g>
    </g>
    <g id="ytick_4">
     <g id="line2d_10">
      <g>
       <use xlink:href="#m2987347189" x="51.648487" y="71.163579" style="stroke: #000000; stroke-width: 0.8"/>
      </g>
     </g>
     <g id="text_11">
      <!-- $\mathdefault{0.8}$ -->
      <g transform="translate(27.197905 76.006518) scale(0.14 -0.14)">
       <use xlink:href="#CMR17-30" transform="scale(0.996264)"/>
       <use xlink:href="#CMMI12-3a" transform="translate(45.690477 0) scale(0.996264)"/>
       <use xlink:href="#CMR17-38" transform="translate(72.787654 0) scale(0.996264)"/>
      </g>
     </g>
    </g>
    <g id="ytick_5">
     <g id="line2d_11">
      <g>
       <use xlink:href="#m2987347189" x="51.648487" y="39.386425" style="stroke: #000000; stroke-width: 0.8"/>
      </g>
     </g>
     <g id="text_12">
      <!-- $\mathdefault{1.0}$ -->
      <g transform="translate(27.197905 44.229363) scale(0.14 -0.14)">
       <use xlink:href="#CMR17-31" transform="scale(0.996264)"/>
       <use xlink:href="#CMMI12-3a" transform="translate(45.690477 0) scale(0.996264)"/>
       <use xlink:href="#CMR17-30" transform="translate(72.787654 0) scale(0.996264)"/>
      </g>
     </g>
    </g>
    <g id="text_13">
     <!-- P -->
     <g transform="translate(20.485876 106.814435) rotate(-90) scale(0.14 -0.14)">
      <defs>
       <path id="CMR17-50" d="M 1267 2042 
L 2291 2042 
C 3117 2042 3718 2578 3718 3184 
C 3718 3791 3130 4352 2291 4352 
L 333 4352 
L 333 4186 
C 774 4186 845 4186 845 3899 
L 845 446 
C 845 160 774 160 333 160 
L 333 0 
C 518 0 858 0 1056 0 
C 1254 0 1594 0 1779 0 
L 1779 160 
C 1338 160 1267 160 1267 446 
L 1267 2042 
z
M 1254 2176 
L 1254 3938 
C 1254 4155 1267 4186 1523 4186 
L 2170 4186 
C 2995 4186 3232 3714 3232 3184 
C 3232 2604 2950 2176 2170 2176 
L 1254 2176 
z
" transform="scale(0.015625)"/>
      </defs>
      <use xlink:href="#CMR17-50" transform="scale(0.996264)"/>
     </g>
    </g>
   </g>
   <g id="line2d_12">
    <path d="M 66.470963 185.096935 
L 69.958651 183.882874 
L 72.574418 182.694562 
L 74.318133 181.663388 
L 76.061978 180.320925 
L 77.805693 178.506753 
L 78.677615 177.35488 
L 79.549537 175.99544 
L 80.42146 174.391199 
L 81.293381 172.503985 
L 82.165303 170.297919 
L 83.037226 167.744008 
L 84.78107 161.543337 
L 86.524785 154.002126 
L 89.140552 141.192463 
L 91.75619 128.453178 
L 93.500033 120.730996 
L 95.243749 113.780403 
L 96.987594 107.543424 
L 98.731437 101.902204 
L 101.347462 94.303571 
L 103.963226 87.493798 
L 106.578864 81.316103 
L 109.19463 75.707858 
L 111.810397 70.660485 
L 114.426035 66.191664 
L 117.041673 62.327267 
L 118.786161 60.097345 
L 120.529875 58.150908 
L 122.273718 56.486725 
L 124.017437 55.100932 
L 125.76128 53.984721 
L 127.505122 53.12526 
L 129.248837 52.505919 
L 130.992684 52.106603 
L 132.736399 51.905036 
L 134.48037 51.877478 
L 137.096008 52.109406 
L 139.711774 52.598549 
L 143.199336 53.525751 
L 148.430736 55.225846 
L 159.765468 59.001372 
L 166.740716 61.059341 
L 175.460066 63.38927 
L 192.026199 67.532293 
L 209.464387 71.702401 
L 221.671167 74.392543 
L 234.749994 77.035902 
L 256.547544 81.154463 
L 280.089295 85.681413 
L 308.862092 91.486858 
L 334.147708 96.505735 
L 351.585755 99.74277 
L 362.920488 101.710761 
L 362.920488 101.710761 
" clip-path="url(#p898e73746a)" style="fill: none; stroke: #1f77b4; stroke-width: 3; stroke-linecap: square"/>
   </g>
   <g id="line2d_13">
    <path d="M 66.470963 183.225713 
L 68.54611 182.134235 
L 70.324807 180.938379 
L 71.807055 179.663557 
L 72.992853 178.380845 
L 74.178651 176.779952 
L 75.364449 174.773535 
L 76.550247 172.28147 
L 77.736045 169.229628 
L 78.921843 165.54142 
L 80.107641 161.178287 
L 81.589889 154.858338 
L 83.665036 144.865312 
L 87.518879 126.00863 
L 89.594026 117.068521 
L 91.669173 109.179272 
L 93.744319 102.16295 
L 96.115916 95.005332 
L 98.487512 88.53667 
L 101.155557 81.873706 
L 103.823603 75.819135 
L 106.491649 70.341231 
L 108.863245 65.985381 
L 111.234841 62.094288 
L 113.309988 59.081454 
L 115.385135 56.464621 
L 117.163832 54.54241 
L 118.942529 52.906448 
L 120.721226 51.543895 
L 122.499923 50.440677 
L 124.27862 49.579076 
L 126.057318 48.939232 
L 128.132464 48.446444 
L 130.207611 48.19494 
L 132.579207 48.155752 
L 135.247253 48.360027 
L 138.508198 48.85739 
L 143.25139 49.837824 
L 156.888068 52.7666 
L 165.485104 54.315766 
L 181.789828 56.958717 
L 201.651946 60.295957 
L 230.40755 65.114272 
L 250.269668 68.193578 
L 274.28208 71.671367 
L 311.931169 77.11031 
L 328.532343 79.760071 
L 345.429966 82.686715 
L 362.624038 85.823601 
L 362.624038 85.823601 
" clip-path="url(#p898e73746a)" style="fill: none; stroke-dasharray: 19.2,4.8,3,4.8; stroke-dashoffset: 0; stroke: #2ca02c; stroke-width: 3"/>
   </g>
   <g id="line2d_14">
    <path d="M 66.470963 183.225713 
L 68.753624 180.891456 
L 71.006641 178.265589 
L 73.200367 175.366122 
L 75.394094 172.093169 
L 77.58782 168.412355 
L 79.781547 164.29221 
L 82.034563 159.576963 
L 84.346869 154.212012 
L 86.777756 148.001341 
L 89.445801 140.552955 
L 92.499231 131.337438 
L 96.44201 118.675995 
L 107.618157 82.380463 
L 111.027327 72.293179 
L 114.021467 64.108532 
L 116.778447 57.204652 
L 119.357558 51.329629 
L 121.818089 46.26215 
L 124.189686 41.872444 
L 126.501992 38.049612 
L 128.784653 34.702324 
L 131.008025 31.830219 
L 133.201751 29.351076 
L 135.395478 27.202258 
L 137.589204 25.361151 
L 139.782931 23.80491 
L 142.006302 22.495448 
L 144.288963 21.40797 
L 146.630915 20.538631 
L 149.061801 19.874856 
L 151.581622 19.417382 
L 154.249667 19.160926 
L 157.095583 19.115563 
L 160.119368 19.292734 
L 163.409958 19.712913 
L 166.996997 20.39972 
L 170.939776 21.383782 
L 175.416163 22.736903 
L 180.515095 24.51778 
L 186.562666 26.877256 
L 193.825679 29.957253 
L 203.430643 34.281576 
L 221.099035 42.531522 
L 242.91772 52.648202 
L 258.42203 59.584319 
L 272.770187 65.760944 
L 286.79225 71.557856 
L 300.962537 77.173544 
L 315.073534 82.52713 
L 329.303112 87.691197 
L 343.799493 92.71838 
L 358.56268 97.605193 
L 362.890843 98.994775 
L 362.890843 98.994775 
" clip-path="url(#p898e73746a)" style="fill: none; stroke-dasharray: 3,4.95; stroke-dashoffset: 0; stroke: #d62728; stroke-width: 3"/>
   </g>
   <g id="line2d_15">
    <path d="M 66.470963 183.225713 
L 68.723979 180.873666 
L 70.917706 178.25904 
L 73.081788 175.331357 
L 75.245869 172.023025 
L 77.409951 168.300207 
L 79.574032 164.131299 
L 81.797404 159.355085 
L 84.080065 153.909236 
L 86.451661 147.658482 
L 88.941837 140.454866 
L 91.669173 131.863008 
L 94.811538 121.196974 
L 99.347215 104.911913 
L 104.831532 85.38503 
L 107.707092 75.969495 
L 110.108333 68.83273 
L 112.272415 63.076418 
L 114.258626 58.40387 
L 116.126258 54.556625 
L 117.934601 51.329581 
L 119.683653 48.656126 
L 121.373415 46.466737 
L 123.063177 44.634854 
L 124.75294 43.128872 
L 126.442702 41.915874 
L 128.191754 40.93436 
L 130.000096 40.176326 
L 131.897373 39.623183 
L 133.942875 39.262762 
L 136.166246 39.101899 
L 138.626777 39.151428 
L 141.443048 39.43873 
L 144.703993 40.003095 
L 148.617126 40.913951 
L 153.597478 42.314083 
L 160.445462 44.487912 
L 172.214509 48.492337 
L 200.584728 58.17233 
L 218.401344 63.986119 
L 235.980801 69.491041 
L 253.975287 74.893382 
L 272.206933 80.136071 
L 290.764673 85.243894 
L 309.678153 90.222446 
L 328.917727 95.061898 
L 349.10594 99.907099 
L 362.890843 103.084177 
L 362.890843 103.084177 
" clip-path="url(#p898e73746a)" style="fill: none; stroke-dasharray: 11.1,4.8; stroke-dashoffset: 0; stroke: #d62728; stroke-width: 3"/>
   </g>
   <g id="line2d_16">
    <path d="M 66.470963 183.225713 
L 67.775341 183.078488 
L 69.109364 182.701101 
L 70.473032 182.07887 
L 71.836699 181.20672 
L 73.200367 180.063246 
L 74.53439 178.652013 
L 75.868413 176.912809 
L 77.202436 174.798866 
L 78.536459 172.256115 
L 79.870482 169.225574 
L 81.234149 165.561743 
L 82.627462 161.170135 
L 84.10971 155.738435 
L 85.710537 149.001285 
L 87.607814 140.001199 
L 91.016984 122.462991 
L 93.44787 110.572547 
L 95.256212 102.811081 
L 96.886684 96.765923 
L 98.487512 91.662485 
L 100.147629 87.097483 
L 101.985616 82.696119 
L 104.120053 78.176641 
L 106.639874 73.372068 
L 109.426499 68.53576 
L 112.0649 64.385388 
L 114.466141 61.007425 
L 116.689513 58.25511 
L 118.764659 56.030094 
L 120.780516 54.189678 
L 122.737083 52.698167 
L 124.69365 51.481722 
L 126.679862 50.507036 
L 128.725363 49.75137 
L 130.8598 49.200859 
L 133.142461 48.845637 
L 135.602992 48.691886 
L 138.330328 48.750564 
L 141.383758 49.044296 
L 144.911507 49.61297 
L 149.121091 50.523978 
L 154.397892 51.903265 
L 161.601616 54.031845 
L 173.904271 57.936642 
L 203.697448 67.43276 
L 222.018029 73.011182 
L 240.457189 78.391428 
L 258.866705 83.53376 
L 278.017344 88.6495 
L 297.523723 93.625912 
L 317.415486 98.468063 
L 337.692633 103.173492 
L 358.414455 107.753012 
L 362.890843 108.712972 
L 362.890843 108.712972 
" clip-path="url(#p898e73746a)" style="fill: none; stroke-dasharray: 19.2,4.8,3,4.8; stroke-dashoffset: 0; stroke: #d62728; stroke-width: 3"/>
   </g>
   <g id="line2d_17">
    <path d="M 66.470963 185.02324 
L 69.958651 183.767071 
L 72.574418 182.523055 
L 74.318133 181.432958 
L 76.061978 180.003544 
L 77.805693 178.062136 
L 78.677615 176.827373 
L 79.549537 175.370372 
L 80.42146 173.653287 
L 81.293381 171.638539 
L 82.165303 169.29252 
L 83.037226 166.590595 
L 84.78107 160.097879 
L 86.524785 152.328183 
L 92.628111 122.9108 
L 94.371956 115.720334 
L 96.115671 109.272583 
L 97.859516 103.459486 
L 100.475154 95.6678 
L 103.091305 88.711597 
L 105.706945 82.409594 
L 108.322711 76.679903 
L 110.938477 71.503591 
L 113.554111 66.893491 
L 116.169878 62.874359 
L 117.913597 60.535878 
L 119.657952 58.475248 
L 121.401799 56.695432 
L 123.145642 55.193372 
L 124.889356 53.962371 
L 126.633203 52.991189 
L 128.376918 52.264739 
L 130.120761 51.764402 
L 131.864603 51.468909 
L 133.60845 51.355028 
L 136.224089 51.472555 
L 138.839855 51.864797 
L 142.327412 52.687077 
L 146.686898 53.989759 
L 160.637259 58.358877 
L 167.612515 60.239542 
L 177.203913 62.562387 
L 198.129531 67.316966 
L 212.952073 70.500048 
L 224.287318 72.708974 
L 236.493841 74.856713 
L 255.675735 77.961068 
L 279.21738 81.832273 
L 298.399275 85.230654 
L 362.920488 96.921975 
L 362.920488 96.921975 
" clip-path="url(#p898e73746a)" style="fill: none; stroke: #1f77b4; stroke-width: 2; stroke-linecap: square"/>
   </g>
   <g id="line2d_18">
    <path d="M 66.470963 185.230723 
L 69.958651 184.013025 
L 72.574418 182.829394 
L 74.318133 181.807535 
L 76.061978 180.481945 
L 77.805693 178.694995 
L 78.677615 177.561534 
L 79.549537 176.224084 
L 80.42146 174.645477 
L 81.293381 172.787318 
L 82.165303 170.613122 
L 83.037226 168.092722 
L 84.78107 161.95685 
L 86.524785 154.462573 
L 89.140552 141.660647 
L 91.75619 128.859356 
L 93.500033 121.077264 
L 95.243749 114.064721 
L 96.987594 107.769073 
L 98.731437 102.073892 
L 101.347462 94.401835 
L 103.963226 87.524396 
L 106.578864 81.281763 
L 109.19463 75.609187 
L 111.810397 70.49698 
L 114.426035 65.961819 
L 117.041673 62.02898 
L 118.786161 59.752048 
L 120.529875 57.757483 
L 122.273718 56.044177 
L 124.017437 54.608238 
L 125.76128 53.441039 
L 127.505122 52.529955 
L 129.248837 51.858442 
L 130.992684 51.406613 
L 132.736399 51.152354 
L 134.48037 51.071988 
L 137.096008 51.224735 
L 139.711774 51.634999 
L 143.199336 52.457725 
L 148.430736 54.003055 
L 159.765468 57.454375 
L 166.740716 59.323061 
L 176.33199 61.632732 
L 197.257607 66.361239 
L 212.080025 69.533582 
L 223.415403 71.731437 
L 235.621926 73.85836 
L 253.931906 76.778659 
L 276.601742 80.44576 
L 294.039807 83.504402 
L 317.581045 87.883947 
L 351.585755 94.194634 
L 362.920488 96.189066 
L 362.920488 96.189066 
" clip-path="url(#p898e73746a)" style="fill: none; stroke: #1f77b4; stroke-width: 2; stroke-linecap: square"/>
   </g>
   <g id="line2d_19">
    <path d="M 66.470963 185.15161 
L 69.958651 183.91783 
L 72.574418 182.709337 
L 74.318133 181.6595 
L 76.061978 180.291309 
L 77.805693 178.440764 
L 78.677615 177.265404 
L 79.549537 175.878318 
L 80.42146 174.241956 
L 81.293381 172.318137 
L 82.165303 170.071422 
L 83.037226 167.473847 
L 84.78107 161.184095 
L 86.524785 153.567816 
L 90.012345 136.356955 
L 92.628111 124.034606 
L 94.371956 116.71952 
L 96.115671 110.153077 
L 97.859516 104.233468 
L 100.475154 96.302502 
L 103.091305 89.221678 
L 105.706945 82.800615 
L 108.322711 76.952118 
L 110.938477 71.654775 
L 113.554111 66.920226 
L 116.169878 62.773083 
L 117.913597 60.347542 
L 119.657952 58.198923 
L 121.401799 56.330702 
L 123.145642 54.74034 
L 124.889356 53.421795 
L 126.633203 52.364414 
L 128.376918 51.553621 
L 130.120761 50.971233 
L 131.864603 50.596341 
L 133.60845 50.406063 
L 136.224089 50.414369 
L 138.839855 50.704019 
L 142.327412 51.399037 
L 146.686898 52.555724 
L 162.381107 56.975517 
L 170.228145 58.841381 
L 184.179028 61.863382 
L 215.567711 68.46709 
L 227.774747 70.751201 
L 241.725241 73.109531 
L 284.44878 80.130114 
L 303.630551 83.626039 
L 362.048573 94.460731 
L 362.920488 94.612171 
L 362.920488 94.612171 
" clip-path="url(#p898e73746a)" style="fill: none; stroke: #1f77b4; stroke-width: 2; stroke-linecap: square"/>
   </g>
   <g id="line2d_20">
    <path d="M 66.470963 185.190616 
L 69.958651 183.967462 
L 72.574418 182.770964 
L 74.318133 181.732979 
L 76.061978 180.381746 
L 77.805693 178.555623 
L 78.677615 177.396071 
L 79.549537 176.027554 
L 80.42146 174.412635 
L 81.293381 172.513038 
L 82.165303 170.292909 
L 83.037226 167.723462 
L 84.78107 161.489295 
L 86.524785 153.916552 
L 89.140552 141.075016 
L 91.75619 128.321252 
L 93.500033 120.590522 
L 95.243749 113.626643 
L 96.987594 107.369369 
L 99.60323 99.049362 
L 102.219383 91.679939 
L 104.835021 85.022922 
L 107.450788 78.958454 
L 110.066426 73.447423 
L 112.682192 68.491865 
L 115.297958 64.114205 
L 117.041673 61.530254 
L 118.786161 59.220402 
L 120.529875 57.190617 
L 122.273718 55.439932 
L 124.017437 53.964701 
L 125.76128 52.756542 
L 127.505122 51.802975 
L 129.248837 51.087595 
L 130.992684 50.590754 
L 132.736399 50.29044 
L 134.48037 50.163215 
L 137.096008 50.24448 
L 139.711774 50.58223 
L 143.199336 51.307582 
L 148.430736 52.707543 
L 160.637259 56.083374 
L 168.484306 57.961369 
L 180.691475 60.599671 
L 216.439626 68.049117 
L 228.646803 70.306181 
L 243.469088 72.804028 
L 279.21738 78.732814 
L 297.52736 82.061039 
L 329.788223 88.213003 
L 355.073326 92.917484 
L 362.920488 94.312729 
L 362.920488 94.312729 
" clip-path="url(#p898e73746a)" style="fill: none; stroke: #1f77b4; stroke-width: 2; stroke-linecap: square"/>
   </g>
   <g id="line2d_21">
    <path d="M 66.470963 185.162679 
L 69.958651 183.940543 
L 72.574418 182.743605 
L 74.318133 181.704358 
L 76.061978 180.350757 
L 77.805693 178.520783 
L 78.677615 177.35867 
L 79.549537 175.987111 
L 80.42146 174.3687 
L 81.293381 172.465204 
L 82.165303 170.24087 
L 83.037226 167.667068 
L 84.78107 161.424755 
L 86.524785 153.846376 
L 89.140552 141.00433 
L 91.75619 128.258364 
L 93.500033 120.535182 
L 95.243749 113.579348 
L 96.987594 107.330152 
L 99.60323 99.022163 
L 102.219383 91.664853 
L 104.835021 85.020403 
L 107.450788 78.969298 
L 110.066426 73.472643 
L 112.682192 68.532729 
L 115.297958 64.172201 
L 117.041673 61.600523 
L 118.786161 59.303789 
L 120.529875 57.287764 
L 122.273718 55.551454 
L 124.017437 54.091291 
L 125.76128 52.898626 
L 127.505122 51.961034 
L 129.248837 51.261878 
L 130.992684 50.781467 
L 132.736399 50.49766 
L 134.48037 50.386924 
L 137.096008 50.492641 
L 139.711774 50.854332 
L 143.199336 51.610244 
L 148.430736 53.052225 
L 159.765468 56.273785 
L 166.740716 58.002357 
L 176.33199 60.128541 
L 207.72054 66.705012 
L 221.671167 69.43313 
L 235.621926 71.927539 
L 287.936351 81.015865 
L 314.093492 86.010763 
L 342.866661 91.448636 
L 362.048573 94.838872 
L 362.920488 94.986931 
L 362.920488 94.986931 
" clip-path="url(#p898e73746a)" style="fill: none; stroke: #1f77b4; stroke-width: 2; stroke-linecap: square"/>
   </g>
   <g id="patch_3">
    <path d="M 51.648487 193.536948 
L 51.648487 10.8 
" style="fill: none; stroke: #000000; stroke-width: 0.8; stroke-linejoin: miter; stroke-linecap: square"/>
   </g>
   <g id="patch_4">
    <path d="M 377.742964 193.536948 
L 377.742964 10.8 
" style="fill: none; stroke: #000000; stroke-width: 0.8; stroke-linejoin: miter; stroke-linecap: square"/>
   </g>
   <g id="patch_5">
    <path d="M 51.648487 193.536948 
L 377.742964 193.536948 
" style="fill: none; stroke: #000000; stroke-width: 0.8; stroke-linejoin: miter; stroke-linecap: square"/>
   </g>
   <g id="patch_6">
    <path d="M 51.648487 10.8 
L 377.742964 10.8 
" style="fill: none; stroke: #000000; stroke-width: 0.8; stroke-linejoin: miter; stroke-linecap: square"/>
   </g>
   <g id="legend_1">
    <g id="line2d_22">
     <path d="M 148.232178 128.52354 
L 162.232178 128.52354 
L 176.232178 128.52354 
" style="fill: none; stroke: #1f77b4; stroke-width: 3; stroke-linecap: square"/>
    </g>
    <g id="text_14">
     <!-- $\hat{P}$ -->
     <g transform="translate(187.432178 133.42354) scale(0.14 -0.14)">
      <defs>
       <path id="CMR17-5e" d="M 1466 4421 
L 678 3555 
L 755 3478 
L 1466 4166 
L 2176 3478 
L 2253 3555 
L 1466 4421 
z
" transform="scale(0.015625)"/>
       <path id="CMMI12-50" d="M 1894 2023 
L 2970 2023 
C 3853 2023 4736 2673 4736 3401 
C 4736 3898 4314 4352 3507 4352 
L 1530 4352 
C 1408 4352 1350 4352 1350 4231 
C 1350 4167 1408 4167 1504 4167 
C 1894 4167 1894 4116 1894 4046 
C 1894 4034 1894 3995 1869 3899 
L 1005 472 
C 947 249 934 185 486 185 
C 365 185 301 185 301 70 
C 301 0 358 0 397 0 
C 518 0 646 0 768 0 
L 1517 0 
C 1638 0 1773 0 1894 0 
C 1946 0 2016 0 2016 121 
C 2016 185 1958 185 1862 185 
C 1478 185 1472 230 1472 293 
C 1472 325 1478 369 1485 401 
L 1894 2023 
z
M 2355 3930 
C 2413 4167 2438 4167 2688 4167 
L 3322 4167 
C 3802 4167 4198 4013 4198 3535 
C 4198 3369 4115 2827 3821 2534 
C 3712 2419 3405 2176 2822 2176 
L 1920 2176 
L 2355 3930 
z
" transform="scale(0.015625)"/>
      </defs>
      <use xlink:href="#CMR17-5e" transform="translate(23.496833 25.189733) scale(0.996264)"/>
      <use xlink:href="#CMMI12-50" transform="scale(0.996264)"/>
     </g>
    </g>
    <g id="line2d_23">
     <path d="M 148.232178 151.602054 
L 162.232178 151.602054 
L 176.232178 151.602054 
" style="fill: none; stroke-dasharray: 19.2,4.8,3,4.8; stroke-dashoffset: 0; stroke: #2ca02c; stroke-width: 3"/>
    </g>
    <g id="text_15">
     <!-- $\sum \hat{\phi} \cdot dt$ -->
     <g transform="translate(187.432178 156.502054) scale(0.14 -0.14)">
      <defs>
       <path id="CMEX10-50" d="M 2694 -3418 
L 422 -6227 
C 371 -6291 365 -6304 365 -6330 
C 365 -6400 422 -6400 538 -6400 
L 5843 -6400 
L 6394 -4806 
L 6234 -4806 
C 6074 -5286 5645 -5677 5101 -5862 
C 4998 -5894 4557 -6048 3616 -6048 
L 896 -6048 
L 3117 -3302 
C 3162 -3245 3174 -3226 3174 -3200 
C 3174 -3174 3168 -3168 3130 -3110 
L 1050 -256 
L 3584 -256 
C 4314 -256 5786 -301 6234 -1498 
L 6394 -1498 
L 5843 0 
L 538 0 
C 365 0 358 -6 358 -205 
L 2694 -3418 
z
" transform="scale(0.015625)"/>
       <path id="CMMI12-1e" d="M 2752 4390 
C 2752 4448 2707 4448 2688 4448 
C 2630 4448 2624 4435 2598 4326 
L 2253 2939 
C 2234 2856 2227 2849 2221 2843 
C 2214 2830 2170 2824 2157 2824 
C 1107 2734 301 1864 301 1057 
C 301 361 832 -64 1498 -64 
C 1446 -261 1402 -463 1350 -659 
C 1261 -995 1210 -1204 1210 -1229 
C 1210 -1241 1210 -1280 1274 -1280 
C 1293 -1280 1318 -1280 1331 -1254 
C 1344 -1241 1382 -1089 1408 -1008 
L 1645 -64 
C 2739 -64 3571 854 3571 1680 
C 3571 2343 3085 2816 2374 2816 
L 2752 4390 
z
M 2336 2701 
C 2758 2701 3181 2463 3181 1828 
C 3181 1097 2675 128 1677 50 
L 2336 2701 
z
M 1530 50 
C 1216 50 691 220 691 938 
C 691 1761 1274 2676 2195 2676 
L 1530 50 
z
" transform="scale(0.015625)"/>
       <path id="CMSY10-1" d="M 1229 1619 
C 1229 1805 1075 1958 890 1958 
C 704 1958 550 1805 550 1619 
C 550 1433 704 1280 890 1280 
C 1075 1280 1229 1433 1229 1619 
z
" transform="scale(0.015625)"/>
       <path id="CMMI12-64" d="M 3219 4257 
C 3226 4282 3238 4320 3238 4352 
C 3238 4416 3174 4416 3162 4416 
C 3155 4416 2842 4388 2810 4380 
C 2701 4373 2605 4358 2490 4358 
C 2330 4345 2285 4339 2285 4224 
C 2285 4160 2336 4160 2426 4160 
C 2739 4160 2746 4103 2746 4040 
C 2746 4002 2733 3952 2726 3933 
L 2336 2395 
C 2266 2561 2093 2816 1760 2816 
C 1037 2816 256 1884 256 939 
C 256 307 627 -64 1062 -64 
C 1414 -64 1715 211 1894 422 
C 1958 45 2259 -64 2451 -64 
C 2643 -64 2797 51 2912 281 
C 3014 498 3104 888 3104 913 
C 3104 945 3078 971 3040 971 
C 2982 971 2976 939 2950 843 
C 2854 466 2733 64 2470 64 
C 2285 64 2272 229 2272 357 
C 2272 382 2272 515 2317 694 
L 3219 4257 
z
M 1926 760 
C 1894 651 1894 639 1805 517 
C 1664 338 1382 64 1082 64 
C 819 64 672 300 672 677 
C 672 1028 870 1743 992 2012 
C 1210 2459 1510 2689 1760 2689 
C 2182 2689 2266 2165 2266 2114 
C 2266 2108 2246 2024 2240 2012 
L 1926 760 
z
" transform="scale(0.015625)"/>
       <path id="CMMI12-74" d="M 1286 2566 
L 1875 2566 
C 1997 2566 2061 2566 2061 2681 
C 2061 2752 2022 2752 1894 2752 
L 1331 2752 
L 1568 3692 
C 1594 3781 1594 3794 1594 3840 
C 1594 3943 1510 4000 1427 4000 
C 1376 4000 1229 3981 1178 3775 
L 928 2752 
L 326 2752 
C 198 2752 141 2752 141 2630 
C 141 2566 186 2566 307 2566 
L 877 2566 
L 454 881 
C 403 658 384 594 384 511 
C 384 211 595 -64 954 -64 
C 1600 -64 1946 868 1946 912 
C 1946 951 1920 970 1882 970 
C 1869 970 1843 970 1830 944 
C 1824 938 1818 931 1773 829 
C 1638 511 1344 64 973 64 
C 781 64 768 224 768 364 
C 768 370 768 492 787 568 
L 1286 2566 
z
" transform="scale(0.015625)"/>
      </defs>
      <use xlink:href="#CMEX10-50" transform="translate(0 74.720454) scale(0.996264)"/>
      <use xlink:href="#CMR17-5e" transform="translate(135.916962 26.296621) scale(0.996264)"/>
      <use xlink:href="#CMMI12-1e" transform="translate(121.765958 0) scale(0.996264)"/>
      <use xlink:href="#CMSY10-1" transform="translate(201.639345 0) scale(0.996264)"/>
      <use xlink:href="#CMMI12-64" transform="translate(251.452637 0) scale(0.996264)"/>
      <use xlink:href="#CMMI12-74" transform="translate(302.141734 0) scale(0.996264)"/>
     </g>
    </g>
    <g id="line2d_24">
     <path d="M 148.232178 172.549933 
L 162.232178 172.549933 
L 176.232178 172.549933 
" style="fill: none; stroke-dasharray: 3,4.95; stroke-dashoffset: 0; stroke: #d62728; stroke-width: 3"/>
    </g>
    <g id="text_16">
     <!-- $\sum \phi^s_2 \cdot dt$ -->
     <g transform="translate(187.432178 177.449933) scale(0.14 -0.14)">
      <defs>
       <path id="CMMI12-73" d="M 1459 1280 
C 1568 1261 1741 1223 1779 1216 
C 1862 1192 2150 1090 2150 783 
C 2150 586 1971 70 1229 70 
C 1094 70 614 70 486 436 
C 742 404 870 603 870 745 
C 870 880 781 950 653 950 
C 512 950 326 841 326 552 
C 326 173 710 -64 1222 -64 
C 2195 -64 2483 651 2483 984 
C 2483 1079 2483 1258 2278 1462 
C 2118 1616 1965 1648 1619 1718 
C 1446 1756 1171 1814 1171 2101 
C 1171 2229 1286 2689 1894 2689 
C 2163 2689 2426 2589 2490 2368 
C 2208 2368 2195 2125 2195 2119 
C 2195 1984 2317 1946 2374 1946 
C 2464 1946 2643 2015 2643 2281 
C 2643 2545 2400 2816 1901 2816 
C 1062 2816 838 2160 838 1899 
C 838 1414 1312 1312 1459 1280 
z
" transform="scale(0.015625)"/>
      </defs>
      <use xlink:href="#CMEX10-50" transform="translate(0 74.720454) scale(0.996264)"/>
      <use xlink:href="#CMMI12-1e" transform="translate(121.765958 0) scale(0.996264)"/>
      <use xlink:href="#CMMI12-73" transform="translate(179.500138 36.153639) scale(0.697382)"/>
      <use xlink:href="#CMR17-32" transform="translate(179.500138 -24.740171) scale(0.697382)"/>
      <use xlink:href="#CMSY10-1" transform="translate(234.302366 0) scale(0.996264)"/>
      <use xlink:href="#CMMI12-64" transform="translate(284.115658 0) scale(0.996264)"/>
      <use xlink:href="#CMMI12-74" transform="translate(334.804754 0) scale(0.996264)"/>
     </g>
    </g>
    <g id="line2d_25">
     <path d="M 268.178958 128.52354 
L 282.178958 128.52354 
L 296.178958 128.52354 
" style="fill: none; stroke-dasharray: 11.1,4.8; stroke-dashoffset: 0; stroke: #d62728; stroke-width: 3"/>
    </g>
    <g id="text_17">
     <!-- $\sum \phi^s_{3} \cdot dt$ -->
     <g transform="translate(307.378958 133.42354) scale(0.14 -0.14)">
      <defs>
       <path id="CMR17-33" d="M 1414 2157 
C 1984 2157 2234 1662 2234 1090 
C 2234 320 1824 25 1453 25 
C 1114 25 563 194 390 693 
C 422 680 454 680 486 680 
C 640 680 755 782 755 948 
C 755 1133 614 1216 486 1216 
C 378 1216 211 1165 211 926 
C 211 335 787 -128 1466 -128 
C 2176 -128 2720 430 2720 1085 
C 2720 1707 2208 2157 1600 2227 
C 2086 2328 2554 2756 2554 3329 
C 2554 3820 2048 4179 1472 4179 
C 890 4179 378 3829 378 3329 
C 378 3110 544 3072 627 3072 
C 762 3072 877 3155 877 3321 
C 877 3486 762 3569 627 3569 
C 602 3569 570 3569 544 3557 
C 730 3959 1235 4032 1459 4032 
C 1683 4032 2106 3925 2106 3320 
C 2106 3143 2080 2828 1862 2550 
C 1670 2304 1453 2304 1242 2284 
C 1210 2284 1062 2269 1037 2269 
C 992 2263 966 2257 966 2208 
C 966 2163 973 2157 1101 2157 
L 1414 2157 
z
" transform="scale(0.015625)"/>
      </defs>
      <use xlink:href="#CMEX10-50" transform="translate(0 74.720454) scale(0.996264)"/>
      <use xlink:href="#CMMI12-1e" transform="translate(121.765958 0) scale(0.996264)"/>
      <use xlink:href="#CMMI12-73" transform="translate(179.500138 36.153639) scale(0.697382)"/>
      <use xlink:href="#CMR17-33" transform="translate(179.500138 -24.740171) scale(0.697382)"/>
      <use xlink:href="#CMSY10-1" transform="translate(234.302366 0) scale(0.996264)"/>
      <use xlink:href="#CMMI12-64" transform="translate(284.115658 0) scale(0.996264)"/>
      <use xlink:href="#CMMI12-74" transform="translate(334.804754 0) scale(0.996264)"/>
     </g>
    </g>
    <g id="line2d_26">
     <path d="M 268.178958 149.471418 
L 282.178958 149.471418 
L 296.178958 149.471418 
" style="fill: none; stroke-dasharray: 19.2,4.8,3,4.8; stroke-dashoffset: 0; stroke: #d62728; stroke-width: 3"/>
    </g>
    <g id="text_18">
     <!-- $\sum \phi^s_{14} \cdot dt$ -->
     <g transform="translate(307.378958 154.371418) scale(0.14 -0.14)">
      <use xlink:href="#CMEX10-50" transform="translate(0 74.720454) scale(0.996264)"/>
      <use xlink:href="#CMMI12-1e" transform="translate(121.765958 0) scale(0.996264)"/>
      <use xlink:href="#CMMI12-73" transform="translate(179.500138 36.153639) scale(0.697382)"/>
      <use xlink:href="#CMR17-31" transform="translate(179.500138 -24.740171) scale(0.697382)"/>
      <use xlink:href="#CMR17-34" transform="translate(211.48332 -24.740171) scale(0.697382)"/>
      <use xlink:href="#CMSY10-1" transform="translate(266.103841 0) scale(0.996264)"/>
      <use xlink:href="#CMMI12-64" transform="translate(315.917133 0) scale(0.996264)"/>
      <use xlink:href="#CMMI12-74" transform="translate(366.606229 0) scale(0.996264)"/>
     </g>
    </g>
   </g>
  </g>
 </g>
 <defs>
  <clipPath id="p898e73746a">
   <rect x="51.648487" y="10.8" width="326.094477" height="182.736948"/>
  </clipPath>
 </defs>
</svg>
