<?xml version="1.0" encoding="utf-8" standalone="no"?>
<!DOCTYPE svg PUBLIC "-//W3C//DTD SVG 1.1//EN"
  "http://www.w3.org/Graphics/SVG/1.1/DTD/svg11.dtd">
<svg xmlns:xlink="http://www.w3.org/1999/xlink" width="388.542964pt" height="240.132758pt" viewBox="0 0 388.542964 240.132758" xmlns="http://www.w3.org/2000/svg" version="1.1">
 <metadata>
  <rdf:RDF xmlns:dc="http://purl.org/dc/elements/1.1/" xmlns:cc="http://creativecommons.org/ns#" xmlns:rdf="http://www.w3.org/1999/02/22-rdf-syntax-ns#">
   <cc:Work>
    <dc:type rdf:resource="http://purl.org/dc/dcmitype/StillImage"/>
    <dc:date>2024-12-13T16:41:13.600329</dc:date>
    <dc:format>image/svg+xml</dc:format>
    <dc:creator>
     <cc:Agent>
      <dc:title>Matplotlib v3.7.5, https://matplotlib.org/</dc:title>
     </cc:Agent>
    </dc:creator>
   </cc:Work>
  </rdf:RDF>
 </metadata>
 <defs>
  <style type="text/css">*{stroke-linejoin: round; stroke-linecap: butt}</style>
 </defs>
 <g id="figure_1">
  <g id="patch_1">
   <path d="M 0 240.132758 
L 388.542964 240.132758 
L 388.542964 0 
L 0 0 
z
" style="fill: #ffffff"/>
  </g>
  <g id="axes_1">
   <g id="patch_2">
    <path d="M 49.404673 187.701556 
L 377.742964 187.701556 
L 377.742964 10.8 
L 49.404673 10.8 
z
" style="fill: #ffffff"/>
   </g>
   <g id="matplotlib.axis_1">
    <g id="xtick_1">
     <g id="line2d_1">
      <defs>
       <path id="m2db1ae6a8b" d="M 0 0 
L 0 3.5 
" style="stroke: #000000; stroke-width: 0.8"/>
      </defs>
      <g>
       <use xlink:href="#m2db1ae6a8b" x="64.217982" y="187.701556" style="stroke: #000000; stroke-width: 0.8"/>
      </g>
     </g>
     <g id="text_1">
      <!-- $\mathdefault{0.0}$ -->
      <g transform="translate(55.492691 204.387432) scale(0.14 -0.14)">
       <defs>
        <path id="CMR17-30" d="M 2688 2025 
C 2688 2416 2682 3080 2413 3591 
C 2176 4039 1798 4198 1466 4198 
C 1158 4198 768 4058 525 3597 
C 269 3118 243 2524 243 2025 
C 243 1661 250 1106 448 619 
C 723 -39 1216 -128 1466 -128 
C 1760 -128 2208 -7 2470 600 
C 2662 1042 2688 1559 2688 2025 
z
M 1466 -26 
C 1056 -26 813 325 723 812 
C 653 1188 653 1738 653 2096 
C 653 2588 653 2997 736 3387 
C 858 3929 1216 4096 1466 4096 
C 1728 4096 2067 3923 2189 3400 
C 2272 3036 2278 2607 2278 2096 
C 2278 1680 2278 1169 2202 792 
C 2067 95 1690 -26 1466 -26 
z
" transform="scale(0.015625)"/>
        <path id="CMMI12-3a" d="M 1178 307 
C 1178 492 1024 619 870 619 
C 685 619 557 466 557 313 
C 557 128 710 0 864 0 
C 1050 0 1178 153 1178 307 
z
" transform="scale(0.015625)"/>
       </defs>
       <use xlink:href="#CMR17-30" transform="scale(0.996264)"/>
       <use xlink:href="#CMMI12-3a" transform="translate(45.690477 0) scale(0.996264)"/>
       <use xlink:href="#CMR17-30" transform="translate(72.787654 0) scale(0.996264)"/>
      </g>
     </g>
    </g>
    <g id="xtick_2">
     <g id="line2d_2">
      <g>
       <use xlink:href="#m2db1ae6a8b" x="123.896979" y="187.701556" style="stroke: #000000; stroke-width: 0.8"/>
      </g>
     </g>
     <g id="text_2">
      <!-- $\mathdefault{0.2}$ -->
      <g transform="translate(115.171688 204.387432) scale(0.14 -0.14)">
       <defs>
        <path id="CMR17-32" d="M 2669 989 
L 2554 989 
C 2490 536 2438 459 2413 420 
C 2381 369 1920 369 1830 369 
L 602 369 
C 832 619 1280 1072 1824 1597 
C 2214 1967 2669 2402 2669 3035 
C 2669 3790 2067 4224 1395 4224 
C 691 4224 262 3604 262 3030 
C 262 2780 448 2748 525 2748 
C 589 2748 781 2787 781 3010 
C 781 3207 614 3264 525 3264 
C 486 3264 448 3258 422 3245 
C 544 3790 915 4058 1306 4058 
C 1862 4058 2227 3617 2227 3035 
C 2227 2479 1901 2000 1536 1584 
L 262 146 
L 262 0 
L 2515 0 
L 2669 989 
z
" transform="scale(0.015625)"/>
       </defs>
       <use xlink:href="#CMR17-30" transform="scale(0.996264)"/>
       <use xlink:href="#CMMI12-3a" transform="translate(45.690477 0) scale(0.996264)"/>
       <use xlink:href="#CMR17-32" transform="translate(72.787654 0) scale(0.996264)"/>
      </g>
     </g>
    </g>
    <g id="xtick_3">
     <g id="line2d_3">
      <g>
       <use xlink:href="#m2db1ae6a8b" x="183.575975" y="187.701556" style="stroke: #000000; stroke-width: 0.8"/>
      </g>
     </g>
     <g id="text_3">
      <!-- $\mathdefault{0.4}$ -->
      <g transform="translate(174.850684 204.387432) scale(0.14 -0.14)">
       <defs>
        <path id="CMR17-34" d="M 2150 4122 
C 2150 4256 2144 4256 2029 4256 
L 128 1254 
L 128 1088 
L 1779 1088 
L 1779 457 
C 1779 224 1766 160 1318 160 
L 1197 160 
L 1197 0 
C 1402 0 1747 0 1965 0 
C 2182 0 2528 0 2733 0 
L 2733 160 
L 2611 160 
C 2163 160 2150 224 2150 457 
L 2150 1088 
L 2803 1088 
L 2803 1254 
L 2150 1254 
L 2150 4122 
z
M 1798 3703 
L 1798 1254 
L 256 1254 
L 1798 3703 
z
" transform="scale(0.015625)"/>
       </defs>
       <use xlink:href="#CMR17-30" transform="scale(0.996264)"/>
       <use xlink:href="#CMMI12-3a" transform="translate(45.690477 0) scale(0.996264)"/>
       <use xlink:href="#CMR17-34" transform="translate(72.787654 0) scale(0.996264)"/>
      </g>
     </g>
    </g>
    <g id="xtick_4">
     <g id="line2d_4">
      <g>
       <use xlink:href="#m2db1ae6a8b" x="243.254972" y="187.701556" style="stroke: #000000; stroke-width: 0.8"/>
      </g>
     </g>
     <g id="text_4">
      <!-- $\mathdefault{0.6}$ -->
      <g transform="translate(234.529681 204.387432) scale(0.14 -0.14)">
       <defs>
        <path id="CMR17-36" d="M 678 2176 
C 678 3690 1395 4032 1811 4032 
C 1946 4032 2272 4009 2400 3776 
C 2298 3776 2106 3776 2106 3553 
C 2106 3381 2246 3323 2336 3323 
C 2394 3323 2566 3348 2566 3560 
C 2566 3954 2246 4179 1805 4179 
C 1043 4179 243 3390 243 1984 
C 243 253 966 -128 1478 -128 
C 2099 -128 2688 427 2688 1283 
C 2688 2081 2170 2662 1517 2662 
C 1126 2662 838 2407 678 1960 
L 678 2176 
z
M 1478 25 
C 691 25 691 1200 691 1436 
C 691 1896 909 2560 1504 2560 
C 1613 2560 1926 2560 2138 2120 
C 2253 1870 2253 1609 2253 1289 
C 2253 944 2253 690 2118 434 
C 1978 171 1773 25 1478 25 
z
" transform="scale(0.015625)"/>
       </defs>
       <use xlink:href="#CMR17-30" transform="scale(0.996264)"/>
       <use xlink:href="#CMMI12-3a" transform="translate(45.690477 0) scale(0.996264)"/>
       <use xlink:href="#CMR17-36" transform="translate(72.787654 0) scale(0.996264)"/>
      </g>
     </g>
    </g>
    <g id="xtick_5">
     <g id="line2d_5">
      <g>
       <use xlink:href="#m2db1ae6a8b" x="302.933968" y="187.701556" style="stroke: #000000; stroke-width: 0.8"/>
      </g>
     </g>
     <g id="text_5">
      <!-- $\mathdefault{0.8}$ -->
      <g transform="translate(294.208677 204.387432) scale(0.14 -0.14)">
       <defs>
        <path id="CMR17-38" d="M 1741 2264 
C 2144 2467 2554 2773 2554 3263 
C 2554 3841 1990 4179 1472 4179 
C 890 4179 378 3759 378 3180 
C 378 3021 416 2747 666 2505 
C 730 2442 998 2251 1171 2130 
C 883 1983 211 1634 211 934 
C 211 279 838 -128 1459 -128 
C 2144 -128 2720 362 2720 1010 
C 2720 1590 2330 1857 2074 2029 
L 1741 2264 
z
M 902 2822 
C 851 2854 595 3051 595 3351 
C 595 3739 998 4032 1459 4032 
C 1965 4032 2336 3676 2336 3262 
C 2336 2669 1670 2331 1638 2331 
C 1632 2331 1626 2331 1574 2370 
L 902 2822 
z
M 2080 1519 
C 2176 1449 2483 1240 2483 851 
C 2483 381 2010 25 1472 25 
C 890 25 448 438 448 940 
C 448 1443 838 1862 1280 2060 
L 2080 1519 
z
" transform="scale(0.015625)"/>
       </defs>
       <use xlink:href="#CMR17-30" transform="scale(0.996264)"/>
       <use xlink:href="#CMMI12-3a" transform="translate(45.690477 0) scale(0.996264)"/>
       <use xlink:href="#CMR17-38" transform="translate(72.787654 0) scale(0.996264)"/>
      </g>
     </g>
    </g>
    <g id="xtick_6">
     <g id="line2d_6">
      <g>
       <use xlink:href="#m2db1ae6a8b" x="362.612964" y="187.701556" style="stroke: #000000; stroke-width: 0.8"/>
      </g>
     </g>
     <g id="text_6">
      <!-- $\mathdefault{1.0}$ -->
      <g transform="translate(353.887673 204.387432) scale(0.14 -0.14)">
       <defs>
        <path id="CMR17-31" d="M 1702 4058 
C 1702 4192 1696 4192 1606 4192 
C 1357 3916 979 3827 621 3827 
C 602 3827 570 3827 563 3808 
C 557 3795 557 3782 557 3648 
C 755 3648 1088 3686 1344 3839 
L 1344 461 
C 1344 236 1331 160 781 160 
L 589 160 
L 589 0 
C 896 0 1216 0 1523 0 
C 1830 0 2150 0 2458 0 
L 2458 160 
L 2266 160 
C 1715 160 1702 230 1702 458 
L 1702 4058 
z
" transform="scale(0.015625)"/>
       </defs>
       <use xlink:href="#CMR17-31" transform="scale(0.996264)"/>
       <use xlink:href="#CMMI12-3a" transform="translate(45.690477 0) scale(0.996264)"/>
       <use xlink:href="#CMR17-30" transform="translate(72.787654 0) scale(0.996264)"/>
      </g>
     </g>
    </g>
    <g id="text_7">
     <!-- $\mathbf{P}$ -->
     <g style="fill: #1f77b4" transform="translate(208.214286 220.785337) scale(0.14 -0.14)">
      <defs>
       <path id="CMBX12-50" d="M 1766 1934 
L 2854 1934 
C 3923 1934 4518 2474 4518 3128 
C 4518 3812 3910 4352 2854 4352 
L 243 4352 
L 243 4078 
L 922 4078 
L 922 267 
L 243 267 
L 243 0 
C 429 0 1114 0 1344 0 
C 1574 0 2259 0 2445 0 
L 2445 267 
L 1766 267 
L 1766 1934 
z
M 2624 4078 
C 3616 4078 3616 3558 3616 3127 
C 3616 2709 3616 2176 2624 2176 
L 1734 2176 
L 1734 4078 
L 2624 4078 
z
" transform="scale(0.015625)"/>
      </defs>
      <use xlink:href="#CMBX12-50" transform="scale(0.996264)"/>
     </g>
    </g>
   </g>
   <g id="matplotlib.axis_2">
    <g id="ytick_1">
     <g id="line2d_7">
      <defs>
       <path id="md08100ff95" d="M 0 0 
L -3.5 0 
" style="stroke: #000000; stroke-width: 0.8"/>
      </defs>
      <g>
       <use xlink:href="#md08100ff95" x="49.404673" y="164.079894" style="stroke: #000000; stroke-width: 0.8"/>
      </g>
     </g>
     <g id="text_8">
      <!-- $\mathdefault{5}$ -->
      <g transform="translate(35.576185 168.922833) scale(0.14 -0.14)">
       <defs>
        <path id="CMR17-35" d="M 730 3692 
C 794 3666 1056 3584 1325 3584 
C 1920 3584 2246 3911 2432 4100 
C 2432 4157 2432 4192 2394 4192 
C 2387 4192 2374 4192 2323 4163 
C 2099 4058 1837 3973 1517 3973 
C 1325 3973 1037 3999 723 4139 
C 653 4171 640 4171 634 4171 
C 602 4171 595 4164 595 4037 
L 595 2203 
C 595 2089 595 2057 659 2057 
C 691 2057 704 2070 736 2114 
C 941 2401 1222 2522 1542 2522 
C 1766 2522 2246 2382 2246 1289 
C 2246 1085 2246 715 2054 421 
C 1894 159 1645 25 1370 25 
C 947 25 518 320 403 814 
C 429 807 480 795 506 795 
C 589 795 749 840 749 1038 
C 749 1210 627 1280 506 1280 
C 358 1280 262 1190 262 1011 
C 262 454 704 -128 1382 -128 
C 2042 -128 2669 440 2669 1264 
C 2669 2030 2170 2624 1549 2624 
C 1222 2624 947 2503 730 2274 
L 730 3692 
z
" transform="scale(0.015625)"/>
       </defs>
       <use xlink:href="#CMR17-35" transform="scale(0.996264)"/>
      </g>
     </g>
    </g>
    <g id="ytick_2">
     <g id="line2d_8">
      <g>
       <use xlink:href="#md08100ff95" x="49.404673" y="139.561668" style="stroke: #000000; stroke-width: 0.8"/>
      </g>
     </g>
     <g id="text_9">
      <!-- $\mathdefault{10}$ -->
      <g transform="translate(28.747696 144.404606) scale(0.14 -0.14)">
       <use xlink:href="#CMR17-31" transform="scale(0.996264)"/>
       <use xlink:href="#CMR17-30" transform="translate(45.690477 0) scale(0.996264)"/>
      </g>
     </g>
    </g>
    <g id="ytick_3">
     <g id="line2d_9">
      <g>
       <use xlink:href="#md08100ff95" x="49.404673" y="115.043442" style="stroke: #000000; stroke-width: 0.8"/>
      </g>
     </g>
     <g id="text_10">
      <!-- $\mathdefault{15}$ -->
      <g transform="translate(28.747696 119.88638) scale(0.14 -0.14)">
       <use xlink:href="#CMR17-31" transform="scale(0.996264)"/>
       <use xlink:href="#CMR17-35" transform="translate(45.690477 0) scale(0.996264)"/>
      </g>
     </g>
    </g>
    <g id="ytick_4">
     <g id="line2d_10">
      <g>
       <use xlink:href="#md08100ff95" x="49.404673" y="90.525216" style="stroke: #000000; stroke-width: 0.8"/>
      </g>
     </g>
     <g id="text_11">
      <!-- $\mathdefault{20}$ -->
      <g transform="translate(28.747696 95.368154) scale(0.14 -0.14)">
       <use xlink:href="#CMR17-32" transform="scale(0.996264)"/>
       <use xlink:href="#CMR17-30" transform="translate(45.690477 0) scale(0.996264)"/>
      </g>
     </g>
    </g>
    <g id="ytick_5">
     <g id="line2d_11">
      <g>
       <use xlink:href="#md08100ff95" x="49.404673" y="66.00699" style="stroke: #000000; stroke-width: 0.8"/>
      </g>
     </g>
     <g id="text_12">
      <!-- $\mathdefault{25}$ -->
      <g transform="translate(28.747696 70.849928) scale(0.14 -0.14)">
       <use xlink:href="#CMR17-32" transform="scale(0.996264)"/>
       <use xlink:href="#CMR17-35" transform="translate(45.690477 0) scale(0.996264)"/>
      </g>
     </g>
    </g>
    <g id="ytick_6">
     <g id="line2d_12">
      <g>
       <use xlink:href="#md08100ff95" x="49.404673" y="41.488763" style="stroke: #000000; stroke-width: 0.8"/>
      </g>
     </g>
     <g id="text_13">
      <!-- $\mathdefault{30}$ -->
      <g transform="translate(28.747696 46.331702) scale(0.14 -0.14)">
       <defs>
        <path id="CMR17-33" d="M 1414 2157 
C 1984 2157 2234 1662 2234 1090 
C 2234 320 1824 25 1453 25 
C 1114 25 563 194 390 693 
C 422 680 454 680 486 680 
C 640 680 755 782 755 948 
C 755 1133 614 1216 486 1216 
C 378 1216 211 1165 211 926 
C 211 335 787 -128 1466 -128 
C 2176 -128 2720 430 2720 1085 
C 2720 1707 2208 2157 1600 2227 
C 2086 2328 2554 2756 2554 3329 
C 2554 3820 2048 4179 1472 4179 
C 890 4179 378 3829 378 3329 
C 378 3110 544 3072 627 3072 
C 762 3072 877 3155 877 3321 
C 877 3486 762 3569 627 3569 
C 602 3569 570 3569 544 3557 
C 730 3959 1235 4032 1459 4032 
C 1683 4032 2106 3925 2106 3320 
C 2106 3143 2080 2828 1862 2550 
C 1670 2304 1453 2304 1242 2284 
C 1210 2284 1062 2269 1037 2269 
C 992 2263 966 2257 966 2208 
C 966 2163 973 2157 1101 2157 
L 1414 2157 
z
" transform="scale(0.015625)"/>
       </defs>
       <use xlink:href="#CMR17-33" transform="scale(0.996264)"/>
       <use xlink:href="#CMR17-30" transform="translate(45.690477 0) scale(0.996264)"/>
      </g>
     </g>
    </g>
    <g id="ytick_7">
     <g id="line2d_13">
      <g>
       <use xlink:href="#md08100ff95" x="49.404673" y="16.970537" style="stroke: #000000; stroke-width: 0.8"/>
      </g>
     </g>
     <g id="text_14">
      <!-- $\mathdefault{35}$ -->
      <g transform="translate(28.747696 21.813475) scale(0.14 -0.14)">
       <use xlink:href="#CMR17-33" transform="scale(0.996264)"/>
       <use xlink:href="#CMR17-35" transform="translate(45.690477 0) scale(0.996264)"/>
      </g>
     </g>
    </g>
    <g id="text_15">
     <!-- $\phi(P, S)$ -->
     <g transform="translate(21.260772 120.859002) rotate(-90) scale(0.14 -0.14)">
      <defs>
       <path id="CMMI12-1e" d="M 2752 4390 
C 2752 4448 2707 4448 2688 4448 
C 2630 4448 2624 4435 2598 4326 
L 2253 2939 
C 2234 2856 2227 2849 2221 2843 
C 2214 2830 2170 2824 2157 2824 
C 1107 2734 301 1864 301 1057 
C 301 361 832 -64 1498 -64 
C 1446 -261 1402 -463 1350 -659 
C 1261 -995 1210 -1204 1210 -1229 
C 1210 -1241 1210 -1280 1274 -1280 
C 1293 -1280 1318 -1280 1331 -1254 
C 1344 -1241 1382 -1089 1408 -1008 
L 1645 -64 
C 2739 -64 3571 854 3571 1680 
C 3571 2343 3085 2816 2374 2816 
L 2752 4390 
z
M 2336 2701 
C 2758 2701 3181 2463 3181 1828 
C 3181 1097 2675 128 1677 50 
L 2336 2701 
z
M 1530 50 
C 1216 50 691 220 691 938 
C 691 1761 1274 2676 2195 2676 
L 1530 50 
z
" transform="scale(0.015625)"/>
       <path id="CMR17-28" d="M 1958 -1561 
C 1958 -1555 1958 -1542 1939 -1523 
C 1645 -1224 858 -407 858 1581 
C 858 3569 1632 4379 1946 4697 
C 1946 4704 1958 4717 1958 4736 
C 1958 4755 1939 4768 1914 4768 
C 1843 4768 1299 4296 986 3594 
C 666 2887 576 2199 576 1588 
C 576 1128 621 351 1005 -471 
C 1312 -1135 1837 -1600 1914 -1600 
C 1946 -1600 1958 -1587 1958 -1561 
z
" transform="scale(0.015625)"/>
       <path id="CMMI12-50" d="M 1894 2023 
L 2970 2023 
C 3853 2023 4736 2673 4736 3401 
C 4736 3898 4314 4352 3507 4352 
L 1530 4352 
C 1408 4352 1350 4352 1350 4231 
C 1350 4167 1408 4167 1504 4167 
C 1894 4167 1894 4116 1894 4046 
C 1894 4034 1894 3995 1869 3899 
L 1005 472 
C 947 249 934 185 486 185 
C 365 185 301 185 301 70 
C 301 0 358 0 397 0 
C 518 0 646 0 768 0 
L 1517 0 
C 1638 0 1773 0 1894 0 
C 1946 0 2016 0 2016 121 
C 2016 185 1958 185 1862 185 
C 1478 185 1472 230 1472 293 
C 1472 325 1478 369 1485 401 
L 1894 2023 
z
M 2355 3930 
C 2413 4167 2438 4167 2688 4167 
L 3322 4167 
C 3802 4167 4198 4013 4198 3535 
C 4198 3369 4115 2827 3821 2534 
C 3712 2419 3405 2176 2822 2176 
L 1920 2176 
L 2355 3930 
z
" transform="scale(0.015625)"/>
       <path id="CMMI12-3b" d="M 1248 -31 
C 1248 343 1126 619 864 619 
C 659 619 557 453 557 313 
C 557 172 653 0 870 0 
C 954 0 1024 26 1082 83 
C 1094 96 1101 96 1107 96 
C 1120 96 1120 5 1120 -27 
C 1120 -240 1082 -659 710 -1080 
C 640 -1157 640 -1170 640 -1183 
C 640 -1216 672 -1248 704 -1248 
C 755 -1248 1248 -771 1248 -31 
z
" transform="scale(0.015625)"/>
       <path id="CMMI12-53" d="M 4064 4423 
C 4064 4480 4019 4480 4006 4480 
C 3981 4480 3974 4474 3898 4378 
C 3859 4333 3597 4001 3590 3995 
C 3379 4410 2957 4480 2688 4480 
C 1875 4480 1139 3743 1139 3025 
C 1139 2549 1427 2269 1741 2161 
C 1811 2135 2189 2033 2381 1989 
C 2707 1900 2790 1875 2925 1735 
C 2950 1703 3078 1557 3078 1258 
C 3078 667 2528 57 1888 57 
C 1363 57 781 280 781 991 
C 781 1112 806 1265 826 1328 
C 826 1348 832 1378 832 1391 
C 832 1417 819 1449 768 1449 
C 710 1449 704 1436 678 1328 
L 352 24 
C 352 18 326 -64 326 -71 
C 326 -128 378 -128 390 -128 
C 416 -128 422 -122 499 -26 
L 794 356 
C 947 126 1280 -128 1875 -128 
C 2701 -128 3456 666 3456 1460 
C 3456 1728 3392 1963 3149 2197 
C 3014 2331 2899 2363 2310 2516 
C 1882 2630 1824 2649 1709 2751 
C 1600 2858 1517 3011 1517 3227 
C 1517 3761 2061 4308 2669 4308 
C 3296 4308 3590 3926 3590 3323 
C 3590 3158 3558 2986 3558 2961 
C 3558 2903 3610 2903 3629 2903 
C 3686 2903 3693 2922 3718 3024 
L 4064 4423 
z
" transform="scale(0.015625)"/>
       <path id="CMR17-29" d="M 1683 1581 
C 1683 2040 1638 2817 1254 3639 
C 947 4303 422 4768 346 4768 
C 326 4768 301 4761 301 4729 
C 301 4717 307 4710 314 4697 
C 621 4378 1402 3568 1402 1584 
C 1402 -407 627 -1217 314 -1537 
C 307 -1549 301 -1556 301 -1568 
C 301 -1600 326 -1600 346 -1600 
C 416 -1600 960 -1128 1274 -426 
C 1594 281 1683 969 1683 1581 
z
" transform="scale(0.015625)"/>
      </defs>
      <use xlink:href="#CMMI12-1e" transform="scale(0.996264)"/>
      <use xlink:href="#CMR17-28" transform="translate(57.73418 0) scale(0.996264)"/>
      <use xlink:href="#CMMI12-50" transform="translate(93.014948 0) scale(0.996264)"/>
      <use xlink:href="#CMMI12-3b" transform="translate(158.601898 0) scale(0.996264)"/>
      <use xlink:href="#CMMI12-53" transform="translate(202.30348 0) scale(0.996264)"/>
      <use xlink:href="#CMR17-29" transform="translate(268.09792 0) scale(0.996264)"/>
     </g>
    </g>
   </g>
   <g id="line2d_14">
    <path d="M 89.100148 141.472179 
L 90.808658 135.887928 
L 92.16516 130.820395 
L 93.795613 123.999057 
L 95.842868 114.413501 
L 98.527374 100.638816 
L 102.173431 81.681767 
L 104.492374 70.718497 
L 107.22869 59.617776 
L 110.453456 49.113671 
L 114.237249 39.561324 
L 118.643183 31.058566 
L 123.717526 24.130659 
L 129.479368 19.840624 
L 135.911154 18.946182 
L 142.953279 21.385584 
L 150.503009 26.54752 
L 158.427217 33.812405 
L 166.570047 42.821617 
L 174.774043 53.069226 
L 198.45259 83.739268 
L 205.750243 92.651256 
L 212.684782 100.643848 
L 219.254278 107.857721 
L 225.472009 113.952868 
L 231.363459 119.141189 
L 236.956377 123.719314 
L 242.28073 127.680312 
L 247.365171 131.042505 
L 252.23485 133.974939 
L 256.913883 136.589882 
L 261.42253 138.897192 
L 265.772367 140.913807 
L 274.048955 144.384504 
L 281.813421 147.455151 
L 289.102794 150.087645 
L 299.170707 153.666113 
L 318.501516 161.000715 
L 322.893292 162.959845 
L 328.500189 165.771471 
L 331.580908 167.507509 
L 334.14513 169.152223 
L 336.210017 170.713972 
L 337.800186 172.169293 
L 338.947383 173.494968 
L 339.689439 174.682198 
L 340.068328 175.725853 
L 340.128284 176.624088 
L 339.914642 177.380491 
L 339.471884 178.003887 
L 338.8425 178.505395 
L 337.633711 179.056831 
L 336.209181 179.406451 
L 334.134156 179.628966 
L 331.475812 179.636826 
L 326.981804 179.343302 
L 320.630325 178.956704 
L 315.699979 178.922723 
L 308.350152 178.8752 
L 300.031643 178.529424 
L 293.838991 178.384258 
L 287.801608 178.493597 
L 272.901046 178.860877 
L 255.39018 178.90864 
L 254.558484 178.911036 
L 254.558484 178.911036 
" clip-path="url(#p3c4662b220)" style="fill: none; stroke: #1f77b4; stroke-width: 2; stroke-linecap: square"/>
   </g>
   <g id="line2d_15">
    <path d="M 362.225982 141.472179 
L 360.033927 137.967386 
L 358.896459 135.887928 
L 357.734926 133.527395 
L 356.549579 130.820395 
L 355.338887 127.681238 
L 354.099488 123.999057 
L 352.826226 119.633417 
L 351.513301 114.413501 
L 350.152711 108.143828 
L 348.736398 100.638816 
L 347.255505 91.789306 
L 342.321051 59.617776 
L 340.471193 49.113671 
L 338.494149 39.561324 
L 336.371796 31.058566 
L 334.084054 24.130659 
L 331.609774 19.840624 
L 328.928523 18.946182 
L 326.021944 21.385584 
L 322.8762 26.54752 
L 319.481936 33.812405 
L 315.83805 42.821617 
L 307.831841 63.619637 
L 303.498099 73.887402 
L 298.971578 83.739268 
L 294.275933 92.651256 
L 289.436348 100.643848 
L 284.478061 107.857721 
L 279.426025 113.952868 
L 274.301672 119.141189 
L 269.126968 123.719314 
L 263.920997 127.680312 
L 258.700958 131.042505 
L 253.482768 133.974939 
L 248.278077 136.589882 
L 243.096935 138.897192 
L 237.954103 140.913807 
L 227.810174 144.384504 
L 217.902599 147.455151 
L 208.275603 150.087645 
L 154.624673 163.922786 
L 130.345769 170.713972 
L 116.223515 174.682198 
L 108.476181 176.624088 
L 101.874315 178.003887 
L 96.265034 178.897587 
L 91.509338 179.406451 
L 87.482956 179.628966 
L 83.310247 179.636826 
L 78.202929 179.380089 
L 70.095946 178.914792 
L 66.039491 178.804634 
L 65.066042 178.482565 
L 64.616028 178.411575 
L 64.464462 178.629587 
L 64.334339 178.911036 
L 64.334339 178.911036 
" clip-path="url(#p3c4662b220)" style="fill: none; stroke: #ff7f0e; stroke-width: 2; stroke-linecap: square"/>
   </g>
   <g id="line2d_16">
    <path d="M 88.710485 142.557833 
L 90.370893 137.32082 
L 91.673264 132.633266 
L 93.220294 126.401206 
L 95.139393 117.729453 
L 97.628915 105.261573 
L 103.113584 77.030698 
L 105.625378 65.826805 
L 108.590076 54.841069 
L 112.079787 44.684689 
L 116.16303 35.536399 
L 120.896461 27.607491 
L 126.314709 21.740285 
L 132.419918 18.982976 
L 139.174061 19.715089 
L 146.494524 23.546342 
L 154.262902 29.786395 
L 162.330188 37.941372 
L 170.537145 47.659482 
L 186.777737 68.647265 
L 194.578574 78.759789 
L 202.063146 88.231673 
L 209.193711 96.639359 
L 215.958352 104.300004 
L 222.363597 110.985538 
L 228.431198 116.588836 
L 234.187121 121.468183 
L 239.661248 125.759443 
L 244.882942 129.417227 
L 249.878757 132.551708 
L 254.674322 135.327774 
L 259.291426 137.795249 
L 263.742998 139.952528 
L 272.207581 143.575562 
L 280.145671 146.738705 
L 287.599278 149.483095 
L 297.902532 153.091554 
L 317.756009 160.510526 
L 322.29233 162.469074 
L 328.111251 165.313873 
L 331.32892 167.07504 
L 334.025681 168.736619 
L 336.217736 170.313928 
L 337.928794 171.789848 
L 339.189927 173.139897 
L 340.038484 174.354214 
L 340.515995 175.427869 
L 340.666925 176.357565 
L 340.536609 177.144798 
L 340.169796 177.796849 
L 339.609563 178.32385 
L 338.895804 178.737784 
L 337.614965 179.175221 
L 336.172596 179.431009 
L 334.135241 179.557854 
L 331.083708 179.464209 
L 319.702248 178.814011 
L 305.662658 178.656942 
L 295.22256 178.329893 
L 289.276258 178.425645 
L 271.841302 178.863753 
L 255.934921 178.904285 
L 255.934921 178.904285 
" clip-path="url(#p3c4662b220)" style="fill: none; stroke: #1f77b4; stroke-width: 2; stroke-linecap: square"/>
   </g>
   <g id="line2d_17">
    <path d="M 362.415329 142.557833 
L 360.19905 139.261892 
L 359.060834 137.32082 
L 357.90631 135.130142 
L 356.735813 132.633266 
L 355.548153 129.755935 
L 354.339649 126.401206 
L 353.105213 122.444286 
L 351.838549 117.729453 
L 350.531547 112.068499 
L 349.176079 105.261573 
L 347.762576 97.13919 
L 344.720825 77.030698 
L 343.069492 65.826805 
L 341.313756 54.841069 
L 339.438571 44.684689 
L 337.42633 35.536399 
L 335.257342 27.607491 
L 332.910676 21.740285 
L 330.36472 18.982976 
L 327.599662 19.715089 
L 324.598659 23.546342 
L 321.349171 29.786395 
L 317.846628 37.941372 
L 305.87566 68.647265 
L 301.44616 78.759789 
L 296.833005 88.231673 
L 292.060987 96.639359 
L 287.156022 104.300004 
L 282.143435 110.985538 
L 277.046472 116.588836 
L 271.887882 121.468183 
L 266.688101 125.759443 
L 261.465624 129.417227 
L 256.237652 132.551708 
L 251.016866 135.327774 
L 245.814131 137.795249 
L 240.645119 139.952528 
L 235.51696 141.849749 
L 225.41529 145.199624 
L 215.561837 148.170311 
L 205.999981 150.708522 
L 152.908004 164.389795 
L 126.443038 171.789848 
L 115.095606 174.908939 
L 107.487179 176.768646 
L 101.009873 178.075253 
L 95.510606 178.90643 
L 90.850603 179.363393 
L 86.906018 179.544955 
L 82.817403 179.519605 
L 77.809116 179.247988 
L 70.294041 178.814011 
L 65.741448 178.684029 
L 64.48018 178.478037 
L 64.329141 178.904285 
L 64.329141 178.904285 
" clip-path="url(#p3c4662b220)" style="fill: none; stroke: #ff7f0e; stroke-width: 2; stroke-linecap: square"/>
   </g>
   <g id="line2d_18">
    <path d="M 88.859062 142.172968 
L 90.539653 136.804242 
L 91.864443 131.970786 
L 93.445768 125.510219 
L 95.417411 116.478757 
L 97.986937 103.481443 
L 101.462348 85.289484 
L 103.66973 74.482802 
L 106.274744 63.274082 
L 109.347908 52.454025 
L 112.960932 42.534387 
L 117.180369 33.634605 
L 122.058736 26.078526 
L 127.624379 20.829027 
L 133.871189 18.84098 
L 140.751833 20.302137 
L 148.174919 24.708728 
L 156.015206 31.383806 
L 164.120313 39.902267 
L 172.331271 49.875592 
L 196.230851 80.873652 
L 203.639682 90.114602 
L 210.691073 98.324856 
L 217.37776 105.805709 
L 223.709496 112.230679 
L 229.709849 117.637275 
L 235.405746 122.38576 
L 240.827156 126.543796 
L 246.003211 130.078252 
L 250.959791 133.127804 
L 255.721884 135.838867 
L 260.310637 138.240474 
L 264.738287 140.335658 
L 273.166036 143.884032 
L 281.079066 147.009581 
L 288.516861 149.71333 
L 298.810351 153.314056 
L 318.691716 160.678973 
L 323.246997 162.630036 
L 329.102147 165.452886 
L 333.777588 168.024438 
L 336.253877 169.615764 
L 338.239689 171.108094 
L 339.762396 172.479113 
L 340.856147 173.718854 
L 341.560213 174.826051 
L 341.917564 175.797743 
L 341.973251 176.632371 
L 341.772094 177.333282 
L 341.357989 177.907704 
L 340.77227 178.365196 
L 339.653654 178.857832 
L 338.343646 179.156434 
L 336.448524 179.325254 
L 334.039002 179.294887 
L 329.169092 178.930647 
L 324.264074 178.646008 
L 319.700576 178.63681 
L 311.65972 178.644898 
L 301.44319 178.332575 
L 294.833391 178.272468 
L 287.808349 178.458816 
L 274.892408 178.828192 
L 261.779987 178.893357 
L 258.896405 178.897172 
L 258.896405 178.897172 
" clip-path="url(#p3c4662b220)" style="fill: none; stroke: #1f77b4; stroke-width: 2; stroke-linecap: square"/>
   </g>
   <g id="line2d_19">
    <path d="M 362.567077 142.172968 
L 360.362607 138.798088 
L 359.226046 136.804242 
L 358.070561 134.548533 
L 356.89681 131.970786 
L 355.703156 128.992261 
L 354.486203 125.510219 
L 353.2409 121.393251 
L 351.961377 116.478757 
L 350.639595 110.573877 
L 349.267266 103.481443 
L 347.835195 95.051927 
L 344.751079 74.482802 
L 343.075646 63.274082 
L 341.293711 52.454025 
L 339.389394 42.534387 
L 337.344853 33.634605 
L 335.140241 26.078526 
L 332.753912 20.829027 
L 330.164595 18.84098 
L 327.352618 20.302137 
L 324.302242 24.708728 
L 321.002242 31.383806 
L 317.449081 39.902267 
L 309.60474 60.460113 
L 305.339278 70.854358 
L 300.870898 80.873652 
L 296.223523 90.114602 
L 291.421893 98.324856 
L 286.492027 105.805709 
L 281.459094 112.230679 
L 276.345484 117.637275 
L 271.173981 122.38576 
L 265.964293 126.543796 
L 260.734827 130.078252 
L 255.501946 133.127804 
L 250.278331 135.838867 
L 245.07437 138.240474 
L 239.905606 140.335658 
L 234.778621 142.186656 
L 224.682518 145.489374 
L 214.837851 148.419329 
L 200.634099 152.12205 
L 178.730905 157.735676 
L 163.009265 161.655308 
L 145.758293 166.338022 
L 110.80134 175.797743 
L 103.828633 177.333282 
L 97.903333 178.365196 
L 92.879537 178.976773 
L 88.626202 179.268706 
L 84.218606 179.329903 
L 79.40596 179.139754 
L 69.243199 178.624216 
L 65.702882 178.588051 
L 64.79454 178.306236 
L 64.507755 178.318849 
L 64.402886 178.639506 
L 64.330903 178.897172 
L 64.330903 178.897172 
" clip-path="url(#p3c4662b220)" style="fill: none; stroke: #ff7f0e; stroke-width: 2; stroke-linecap: square"/>
   </g>
   <g id="line2d_20">
    <path d="M 88.785807 142.398505 
L 90.452179 137.11809 
L 91.764756 132.369788 
L 93.330029 126.028972 
L 95.279414 117.168636 
L 97.817092 104.3998 
L 101.246639 86.42629 
L 103.424332 75.66236 
L 105.994472 64.416014 
L 109.027365 53.4898 
L 112.594897 43.44443 
L 116.764405 34.421002 
L 121.589949 26.691949 
L 127.102199 21.175629 
L 133.298008 18.871302 
L 140.133405 20.04132 
L 147.519978 24.220934 
L 155.334999 30.722346 
L 163.427016 39.095182 
L 171.636988 48.973723 
L 195.589159 80.040088 
L 203.026297 89.36788 
L 210.107835 97.645026 
L 216.824908 105.191267 
L 223.186329 111.711398 
L 229.215068 117.185322 
L 234.937786 121.980299 
L 240.384398 126.192555 
L 245.58418 129.778882 
L 250.563152 132.863929 
L 255.346641 135.602312 
L 259.955883 138.031056 
L 264.403275 140.150114 
L 272.869334 143.721613 
L 280.819768 146.859517 
L 288.294824 149.583831 
L 298.644801 153.187999 
L 318.663526 160.557429 
L 323.259269 162.503495 
L 329.175851 165.32887 
L 333.912973 167.903621 
L 336.430169 169.493511 
L 338.456657 170.983726 
L 340.019578 172.353386 
L 341.153009 173.593044 
L 341.896132 174.702304 
L 342.291989 175.678358 
L 342.385257 176.518997 
L 342.221024 177.226606 
L 341.842952 177.807716 
L 341.292342 178.271344 
L 340.224469 178.77146 
L 338.962839 179.075473 
L 337.127832 179.249725 
L 334.785736 179.22525 
L 330.031149 178.870272 
L 325.20983 178.58904 
L 320.696773 178.580953 
L 312.055684 178.604375 
L 291.822054 178.325636 
L 267.505746 178.884595 
L 259.458772 178.897149 
L 259.458772 178.897149 
" clip-path="url(#p3c4662b220)" style="fill: none; stroke: #1f77b4; stroke-width: 2; stroke-linecap: square"/>
   </g>
   <g id="line2d_21">
    <path d="M 362.818496 142.398505 
L 360.626459 139.078288 
L 359.496229 137.11809 
L 358.346755 134.901495 
L 357.179069 132.369788 
L 355.99132 129.445861 
L 354.780255 126.028972 
L 353.540803 121.990209 
L 352.266829 117.168636 
L 350.950685 111.372073 
L 349.58403 104.3998 
L 348.157686 96.090705 
L 345.086535 75.66236 
L 343.418448 64.416014 
L 341.644642 53.4898 
L 339.749448 43.44443 
L 337.715294 34.421002 
L 335.522261 26.691949 
L 333.149574 21.175629 
L 330.575374 18.871302 
L 327.779672 20.04132 
L 324.746636 24.220934 
L 321.464725 30.722346 
L 317.929669 39.095182 
L 310.119761 59.552867 
L 305.870075 69.982279 
L 301.416155 80.040088 
L 296.781604 89.36788 
L 291.991285 97.645026 
L 287.071202 105.191267 
L 282.046432 111.711398 
L 276.939562 117.185322 
L 271.77352 121.980299 
L 266.568332 126.192555 
L 261.341978 129.778882 
L 256.111267 132.863929 
L 250.888826 135.602312 
L 245.685327 138.031056 
L 240.515994 140.150114 
L 235.387818 142.016638 
L 225.286521 145.331823 
L 215.433282 148.280092 
L 205.871435 150.804825 
L 171.167542 159.586564 
L 159.813935 162.503495 
L 131.499791 170.252356 
L 117.091058 174.164082 
L 109.18829 176.115556 
L 102.457824 177.532484 
L 96.743395 178.462567 
L 91.9021 178.993208 
L 87.805838 179.22644 
L 83.563 179.244616 
L 78.372035 179.005123 
L 69.916263 178.56002 
L 65.336813 178.485931 
L 64.478304 178.358059 
L 64.333844 178.897149 
L 64.333844 178.897149 
" clip-path="url(#p3c4662b220)" style="fill: none; stroke: #ff7f0e; stroke-width: 2; stroke-linecap: square"/>
   </g>
   <g id="line2d_22">
    <path d="M 88.838275 142.239837 
L 90.502979 136.93661 
L 91.815303 132.16588 
L 93.38141 125.793488 
L 95.333165 116.889698 
L 97.875292 104.068565 
L 101.31207 86.058971 
L 103.494572 75.300943 
L 106.070426 64.083282 
L 109.109877 53.202711 
L 112.684733 43.20419 
L 116.862138 34.222598 
L 121.695858 26.543106 
L 127.216099 21.094613 
L 133.419218 18.865597 
L 140.260724 20.102358 
L 147.65177 24.333132 
L 155.469184 30.873358 
L 163.561512 39.277714 
L 171.76974 49.172913 
L 195.707266 80.203802 
L 203.13752 89.516957 
L 210.211766 97.784096 
L 216.921378 105.32203 
L 223.275151 111.828661 
L 229.296296 117.294578 
L 235.011437 122.083444 
L 240.450525 126.284495 
L 245.64273 129.858565 
L 250.614232 132.935147 
L 255.39018 135.667395 
L 259.99181 138.090447 
L 264.431608 140.205124 
L 272.882033 143.774658 
L 280.816282 146.910369 
L 288.27446 149.62721 
L 298.597438 153.228357 
L 318.54317 160.596912 
L 323.115151 162.544412 
L 328.993405 165.368314 
L 333.689442 167.942999 
L 336.177914 169.536039 
L 338.174895 171.031652 
L 339.707509 172.407926 
L 340.810278 173.654019 
L 341.522507 174.768366 
L 341.887292 175.747757 
L 341.949738 176.590219 
L 341.754966 177.298681 
L 341.346731 177.880262 
L 340.76672 178.34442 
L 339.656055 178.846125 
L 338.353802 179.152652 
L 336.468444 179.33045 
L 334.070679 179.308376 
L 329.22622 178.950098 
L 324.360152 178.659704 
L 319.860061 178.640903 
L 311.307367 178.644889 
L 291.804304 178.34123 
L 266.344427 178.891415 
L 258.192588 178.90193 
L 258.192588 178.90193 
" clip-path="url(#p3c4662b220)" style="fill: none; stroke: #1f77b4; stroke-width: 2; stroke-linecap: square"/>
   </g>
   <g id="line2d_23">
    <path d="M 362.663156 142.239837 
L 360.473324 138.905544 
L 358.191717 134.70981 
L 357.021541 132.16588 
L 355.829968 129.227399 
L 354.614296 125.793488 
L 353.369224 121.734471 
L 352.089079 116.889698 
L 350.765518 111.067377 
L 349.391286 104.068565 
L 347.956867 95.736255 
L 344.868162 75.300943 
L 343.190719 64.083282 
L 341.407558 53.202711 
L 339.503027 43.20419 
L 337.459607 34.222598 
L 335.257503 26.543106 
L 332.875798 21.094613 
L 330.292937 18.865597 
L 327.489053 20.102358 
L 324.448334 24.333132 
L 321.159504 30.873358 
L 317.618099 39.277714 
L 309.798657 59.743854 
L 305.545361 70.156047 
L 301.089058 80.203802 
L 296.453066 89.516957 
L 291.66216 97.784096 
L 286.742237 105.32203 
L 281.718374 111.828661 
L 276.613426 117.294578 
L 271.449891 122.083444 
L 266.247779 126.284495 
L 261.025036 129.858565 
L 255.798754 132.935147 
L 250.580884 135.667395 
L 245.382436 138.090447 
L 240.218742 140.205124 
L 235.096381 142.069735 
L 225.00805 145.384681 
L 215.169164 148.327184 
L 205.622693 150.846135 
L 149.297777 165.368314 
L 111.021581 175.747757 
L 104.030207 177.298681 
L 98.090335 178.34442 
L 93.056238 178.967821 
L 88.79661 179.269639 
L 84.385578 179.340516 
L 79.572715 179.157761 
L 69.200026 178.632903 
L 65.728534 178.596314 
L 64.804794 178.315174 
L 64.532468 178.334269 
L 64.421309 178.655967 
L 64.338802 178.90193 
L 64.338802 178.90193 
" clip-path="url(#p3c4662b220)" style="fill: none; stroke: #ff7f0e; stroke-width: 2; stroke-linecap: square"/>
   </g>
   <g id="patch_3">
    <path d="M 49.404673 187.701556 
L 49.404673 10.8 
" style="fill: none; stroke: #000000; stroke-width: 0.8; stroke-linejoin: miter; stroke-linecap: square"/>
   </g>
   <g id="patch_4">
    <path d="M 377.742964 187.701556 
L 377.742964 10.8 
" style="fill: none; stroke: #000000; stroke-width: 0.8; stroke-linejoin: miter; stroke-linecap: square"/>
   </g>
   <g id="patch_5">
    <path d="M 49.404673 187.701556 
L 377.742964 187.701556 
" style="fill: none; stroke: #000000; stroke-width: 0.8; stroke-linejoin: miter; stroke-linecap: square"/>
   </g>
   <g id="patch_6">
    <path d="M 49.404673 10.8 
L 377.742964 10.8 
" style="fill: none; stroke: #000000; stroke-width: 0.8; stroke-linejoin: miter; stroke-linecap: square"/>
   </g>
   <g id="text_16">
    <!-- $\mathbf{s}$ -->
    <g style="fill: #ff7f0e" transform="translate(142.601043 223.081867) scale(0.24 -0.24)">
     <defs>
      <path id="CMBX12-73" d="M 2413 2715 
C 2413 2836 2413 2880 2317 2880 
C 2278 2880 2266 2880 2170 2823 
C 2144 2804 2074 2759 2042 2740 
C 1862 2842 1626 2880 1395 2880 
C 1203 2880 243 2880 243 2056 
C 243 1389 1037 1250 1235 1218 
C 1408 1187 1619 1148 1645 1148 
C 1901 1091 2157 932 2157 666 
C 2157 178 1574 178 1440 178 
C 1114 178 710 279 531 896 
C 493 1023 486 1023 378 1023 
C 243 1023 243 1004 243 858 
L 243 132 
C 243 12 243 -32 339 -32 
C 384 -32 397 -32 525 70 
L 691 191 
C 979 -32 1325 -32 1440 -32 
C 1792 -32 2592 44 2592 888 
C 2592 1192 2426 1402 2298 1516 
C 2035 1731 1818 1770 1472 1833 
C 1062 1903 678 1973 678 2277 
C 678 2689 1248 2689 1382 2689 
C 2093 2689 2131 2245 2144 2087 
C 2150 2005 2202 2005 2278 2005 
C 2413 2005 2413 2024 2413 2170 
L 2413 2715 
z
" transform="scale(0.015625)"/>
     </defs>
     <use xlink:href="#CMBX12-73" transform="scale(0.996264)"/>
    </g>
   </g>
   <g id="legend_1"/>
  </g>
 </g>
 <defs>
  <clipPath id="p3c4662b220">
   <rect x="49.404673" y="10.8" width="328.33829" height="176.901556"/>
  </clipPath>
 </defs>
</svg>
