<?xml version="1.0" encoding="utf-8" standalone="no"?>
<!DOCTYPE svg PUBLIC "-//W3C//DTD SVG 1.1//EN"
  "http://www.w3.org/Graphics/SVG/1.1/DTD/svg11.dtd">
<svg xmlns:xlink="http://www.w3.org/1999/xlink" width="388.542964pt" height="240.132758pt" viewBox="0 0 388.542964 240.132758" xmlns="http://www.w3.org/2000/svg" version="1.1">
 <metadata>
  <rdf:RDF xmlns:dc="http://purl.org/dc/elements/1.1/" xmlns:cc="http://creativecommons.org/ns#" xmlns:rdf="http://www.w3.org/1999/02/22-rdf-syntax-ns#">
   <cc:Work>
    <dc:type rdf:resource="http://purl.org/dc/dcmitype/StillImage"/>
    <dc:date>2024-12-13T17:05:55.129061</dc:date>
    <dc:format>image/svg+xml</dc:format>
    <dc:creator>
     <cc:Agent>
      <dc:title>Matplotlib v3.7.5, https://matplotlib.org/</dc:title>
     </cc:Agent>
    </dc:creator>
   </cc:Work>
  </rdf:RDF>
 </metadata>
 <defs>
  <style type="text/css">*{stroke-linejoin: round; stroke-linecap: butt}</style>
 </defs>
 <g id="figure_1">
  <g id="patch_1">
   <path d="M 0 240.132758 
L 388.542964 240.132758 
L 388.542964 0 
L 0 0 
z
" style="fill: #ffffff"/>
  </g>
  <g id="axes_1">
   <g id="patch_2">
    <path d="M 51.648487 193.536948 
L 377.742964 193.536948 
L 377.742964 10.8 
L 51.648487 10.8 
z
" style="fill: #ffffff"/>
   </g>
   <g id="matplotlib.axis_1">
    <g id="xtick_1">
     <g id="line2d_1">
      <defs>
       <path id="m56d952d886" d="M 0 0 
L 0 3.5 
" style="stroke: #000000; stroke-width: 0.8"/>
      </defs>
      <g>
       <use xlink:href="#m56d952d886" x="66.470963" y="193.536948" style="stroke: #000000; stroke-width: 0.8"/>
      </g>
     </g>
     <g id="text_1">
      <!-- $\mathdefault{0.0}$ -->
      <g transform="translate(57.745672 210.222825) scale(0.14 -0.14)">
       <defs>
        <path id="CMR17-30" d="M 2688 2025 
C 2688 2416 2682 3080 2413 3591 
C 2176 4039 1798 4198 1466 4198 
C 1158 4198 768 4058 525 3597 
C 269 3118 243 2524 243 2025 
C 243 1661 250 1106 448 619 
C 723 -39 1216 -128 1466 -128 
C 1760 -128 2208 -7 2470 600 
C 2662 1042 2688 1559 2688 2025 
z
M 1466 -26 
C 1056 -26 813 325 723 812 
C 653 1188 653 1738 653 2096 
C 653 2588 653 2997 736 3387 
C 858 3929 1216 4096 1466 4096 
C 1728 4096 2067 3923 2189 3400 
C 2272 3036 2278 2607 2278 2096 
C 2278 1680 2278 1169 2202 792 
C 2067 95 1690 -26 1466 -26 
z
" transform="scale(0.015625)"/>
        <path id="CMMI12-3a" d="M 1178 307 
C 1178 492 1024 619 870 619 
C 685 619 557 466 557 313 
C 557 128 710 0 864 0 
C 1050 0 1178 153 1178 307 
z
" transform="scale(0.015625)"/>
       </defs>
       <use xlink:href="#CMR17-30" transform="scale(0.996264)"/>
       <use xlink:href="#CMMI12-3a" transform="translate(45.690477 0) scale(0.996264)"/>
       <use xlink:href="#CMR17-30" transform="translate(72.787654 0) scale(0.996264)"/>
      </g>
     </g>
    </g>
    <g id="xtick_2">
     <g id="line2d_2">
      <g>
       <use xlink:href="#m56d952d886" x="125.760868" y="193.536948" style="stroke: #000000; stroke-width: 0.8"/>
      </g>
     </g>
     <g id="text_2">
      <!-- $\mathdefault{0.2}$ -->
      <g transform="translate(117.035577 210.222825) scale(0.14 -0.14)">
       <defs>
        <path id="CMR17-32" d="M 2669 989 
L 2554 989 
C 2490 536 2438 459 2413 420 
C 2381 369 1920 369 1830 369 
L 602 369 
C 832 619 1280 1072 1824 1597 
C 2214 1967 2669 2402 2669 3035 
C 2669 3790 2067 4224 1395 4224 
C 691 4224 262 3604 262 3030 
C 262 2780 448 2748 525 2748 
C 589 2748 781 2787 781 3010 
C 781 3207 614 3264 525 3264 
C 486 3264 448 3258 422 3245 
C 544 3790 915 4058 1306 4058 
C 1862 4058 2227 3617 2227 3035 
C 2227 2479 1901 2000 1536 1584 
L 262 146 
L 262 0 
L 2515 0 
L 2669 989 
z
" transform="scale(0.015625)"/>
       </defs>
       <use xlink:href="#CMR17-30" transform="scale(0.996264)"/>
       <use xlink:href="#CMMI12-3a" transform="translate(45.690477 0) scale(0.996264)"/>
       <use xlink:href="#CMR17-32" transform="translate(72.787654 0) scale(0.996264)"/>
      </g>
     </g>
    </g>
    <g id="xtick_3">
     <g id="line2d_3">
      <g>
       <use xlink:href="#m56d952d886" x="185.050773" y="193.536948" style="stroke: #000000; stroke-width: 0.8"/>
      </g>
     </g>
     <g id="text_3">
      <!-- $\mathdefault{0.4}$ -->
      <g transform="translate(176.325482 210.222825) scale(0.14 -0.14)">
       <defs>
        <path id="CMR17-34" d="M 2150 4122 
C 2150 4256 2144 4256 2029 4256 
L 128 1254 
L 128 1088 
L 1779 1088 
L 1779 457 
C 1779 224 1766 160 1318 160 
L 1197 160 
L 1197 0 
C 1402 0 1747 0 1965 0 
C 2182 0 2528 0 2733 0 
L 2733 160 
L 2611 160 
C 2163 160 2150 224 2150 457 
L 2150 1088 
L 2803 1088 
L 2803 1254 
L 2150 1254 
L 2150 4122 
z
M 1798 3703 
L 1798 1254 
L 256 1254 
L 1798 3703 
z
" transform="scale(0.015625)"/>
       </defs>
       <use xlink:href="#CMR17-30" transform="scale(0.996264)"/>
       <use xlink:href="#CMMI12-3a" transform="translate(45.690477 0) scale(0.996264)"/>
       <use xlink:href="#CMR17-34" transform="translate(72.787654 0) scale(0.996264)"/>
      </g>
     </g>
    </g>
    <g id="xtick_4">
     <g id="line2d_4">
      <g>
       <use xlink:href="#m56d952d886" x="244.340678" y="193.536948" style="stroke: #000000; stroke-width: 0.8"/>
      </g>
     </g>
     <g id="text_4">
      <!-- $\mathdefault{0.6}$ -->
      <g transform="translate(235.615387 210.222825) scale(0.14 -0.14)">
       <defs>
        <path id="CMR17-36" d="M 678 2176 
C 678 3690 1395 4032 1811 4032 
C 1946 4032 2272 4009 2400 3776 
C 2298 3776 2106 3776 2106 3553 
C 2106 3381 2246 3323 2336 3323 
C 2394 3323 2566 3348 2566 3560 
C 2566 3954 2246 4179 1805 4179 
C 1043 4179 243 3390 243 1984 
C 243 253 966 -128 1478 -128 
C 2099 -128 2688 427 2688 1283 
C 2688 2081 2170 2662 1517 2662 
C 1126 2662 838 2407 678 1960 
L 678 2176 
z
M 1478 25 
C 691 25 691 1200 691 1436 
C 691 1896 909 2560 1504 2560 
C 1613 2560 1926 2560 2138 2120 
C 2253 1870 2253 1609 2253 1289 
C 2253 944 2253 690 2118 434 
C 1978 171 1773 25 1478 25 
z
" transform="scale(0.015625)"/>
       </defs>
       <use xlink:href="#CMR17-30" transform="scale(0.996264)"/>
       <use xlink:href="#CMMI12-3a" transform="translate(45.690477 0) scale(0.996264)"/>
       <use xlink:href="#CMR17-36" transform="translate(72.787654 0) scale(0.996264)"/>
      </g>
     </g>
    </g>
    <g id="xtick_5">
     <g id="line2d_5">
      <g>
       <use xlink:href="#m56d952d886" x="303.630583" y="193.536948" style="stroke: #000000; stroke-width: 0.8"/>
      </g>
     </g>
     <g id="text_5">
      <!-- $\mathdefault{0.8}$ -->
      <g transform="translate(294.905292 210.222825) scale(0.14 -0.14)">
       <defs>
        <path id="CMR17-38" d="M 1741 2264 
C 2144 2467 2554 2773 2554 3263 
C 2554 3841 1990 4179 1472 4179 
C 890 4179 378 3759 378 3180 
C 378 3021 416 2747 666 2505 
C 730 2442 998 2251 1171 2130 
C 883 1983 211 1634 211 934 
C 211 279 838 -128 1459 -128 
C 2144 -128 2720 362 2720 1010 
C 2720 1590 2330 1857 2074 2029 
L 1741 2264 
z
M 902 2822 
C 851 2854 595 3051 595 3351 
C 595 3739 998 4032 1459 4032 
C 1965 4032 2336 3676 2336 3262 
C 2336 2669 1670 2331 1638 2331 
C 1632 2331 1626 2331 1574 2370 
L 902 2822 
z
M 2080 1519 
C 2176 1449 2483 1240 2483 851 
C 2483 381 2010 25 1472 25 
C 890 25 448 438 448 940 
C 448 1443 838 1862 1280 2060 
L 2080 1519 
z
" transform="scale(0.015625)"/>
       </defs>
       <use xlink:href="#CMR17-30" transform="scale(0.996264)"/>
       <use xlink:href="#CMMI12-3a" transform="translate(45.690477 0) scale(0.996264)"/>
       <use xlink:href="#CMR17-38" transform="translate(72.787654 0) scale(0.996264)"/>
      </g>
     </g>
    </g>
    <g id="xtick_6">
     <g id="line2d_6">
      <g>
       <use xlink:href="#m56d952d886" x="362.920488" y="193.536948" style="stroke: #000000; stroke-width: 0.8"/>
      </g>
     </g>
     <g id="text_6">
      <!-- $\mathdefault{1.0}$ -->
      <g transform="translate(354.195197 210.222825) scale(0.14 -0.14)">
       <defs>
        <path id="CMR17-31" d="M 1702 4058 
C 1702 4192 1696 4192 1606 4192 
C 1357 3916 979 3827 621 3827 
C 602 3827 570 3827 563 3808 
C 557 3795 557 3782 557 3648 
C 755 3648 1088 3686 1344 3839 
L 1344 461 
C 1344 236 1331 160 781 160 
L 589 160 
L 589 0 
C 896 0 1216 0 1523 0 
C 1830 0 2150 0 2458 0 
L 2458 160 
L 2266 160 
C 1715 160 1702 230 1702 458 
L 1702 4058 
z
" transform="scale(0.015625)"/>
       </defs>
       <use xlink:href="#CMR17-31" transform="scale(0.996264)"/>
       <use xlink:href="#CMMI12-3a" transform="translate(45.690477 0) scale(0.996264)"/>
       <use xlink:href="#CMR17-30" transform="translate(72.787654 0) scale(0.996264)"/>
      </g>
     </g>
    </g>
    <g id="text_7">
     <!-- t -->
     <g transform="translate(212.040202 226.620729) scale(0.14 -0.14)">
      <defs>
       <path id="CMR17-74" d="M 966 2560 
L 1862 2560 
L 1862 2725 
L 966 2725 
L 966 3904 
L 851 3904 
C 838 3245 614 2668 70 2668 
L 70 2560 
L 627 2560 
L 627 771 
C 627 650 627 -64 1370 -64 
C 1747 -64 1965 306 1965 777 
L 1965 1140 
L 1850 1140 
L 1850 783 
C 1850 344 1677 51 1408 51 
C 1222 51 966 178 966 758 
L 966 2560 
z
" transform="scale(0.015625)"/>
      </defs>
      <use xlink:href="#CMR17-74" transform="scale(0.996264)"/>
     </g>
    </g>
   </g>
   <g id="matplotlib.axis_2">
    <g id="ytick_1">
     <g id="line2d_7">
      <defs>
       <path id="m2ffa0d5cda" d="M 0 0 
L -3.5 0 
" style="stroke: #000000; stroke-width: 0.8"/>
      </defs>
      <g>
       <use xlink:href="#m2ffa0d5cda" x="51.648487" y="185.232264" style="stroke: #000000; stroke-width: 0.8"/>
      </g>
     </g>
     <g id="text_8">
      <!-- $\mathdefault{0.0}$ -->
      <g transform="translate(27.197905 190.075202) scale(0.14 -0.14)">
       <use xlink:href="#CMR17-30" transform="scale(0.996264)"/>
       <use xlink:href="#CMMI12-3a" transform="translate(45.690477 0) scale(0.996264)"/>
       <use xlink:href="#CMR17-30" transform="translate(72.787654 0) scale(0.996264)"/>
      </g>
     </g>
    </g>
    <g id="ytick_2">
     <g id="line2d_8">
      <g>
       <use xlink:href="#m2ffa0d5cda" x="51.648487" y="152.029926" style="stroke: #000000; stroke-width: 0.8"/>
      </g>
     </g>
     <g id="text_9">
      <!-- $\mathdefault{0.2}$ -->
      <g transform="translate(27.197905 156.872864) scale(0.14 -0.14)">
       <use xlink:href="#CMR17-30" transform="scale(0.996264)"/>
       <use xlink:href="#CMMI12-3a" transform="translate(45.690477 0) scale(0.996264)"/>
       <use xlink:href="#CMR17-32" transform="translate(72.787654 0) scale(0.996264)"/>
      </g>
     </g>
    </g>
    <g id="ytick_3">
     <g id="line2d_9">
      <g>
       <use xlink:href="#m2ffa0d5cda" x="51.648487" y="118.827587" style="stroke: #000000; stroke-width: 0.8"/>
      </g>
     </g>
     <g id="text_10">
      <!-- $\mathdefault{0.4}$ -->
      <g transform="translate(27.197905 123.670525) scale(0.14 -0.14)">
       <use xlink:href="#CMR17-30" transform="scale(0.996264)"/>
       <use xlink:href="#CMMI12-3a" transform="translate(45.690477 0) scale(0.996264)"/>
       <use xlink:href="#CMR17-34" transform="translate(72.787654 0) scale(0.996264)"/>
      </g>
     </g>
    </g>
    <g id="ytick_4">
     <g id="line2d_10">
      <g>
       <use xlink:href="#m2ffa0d5cda" x="51.648487" y="85.625249" style="stroke: #000000; stroke-width: 0.8"/>
      </g>
     </g>
     <g id="text_11">
      <!-- $\mathdefault{0.6}$ -->
      <g transform="translate(27.197905 90.468187) scale(0.14 -0.14)">
       <use xlink:href="#CMR17-30" transform="scale(0.996264)"/>
       <use xlink:href="#CMMI12-3a" transform="translate(45.690477 0) scale(0.996264)"/>
       <use xlink:href="#CMR17-36" transform="translate(72.787654 0) scale(0.996264)"/>
      </g>
     </g>
    </g>
    <g id="ytick_5">
     <g id="line2d_11">
      <g>
       <use xlink:href="#m2ffa0d5cda" x="51.648487" y="52.422911" style="stroke: #000000; stroke-width: 0.8"/>
      </g>
     </g>
     <g id="text_12">
      <!-- $\mathdefault{0.8}$ -->
      <g transform="translate(27.197905 57.265849) scale(0.14 -0.14)">
       <use xlink:href="#CMR17-30" transform="scale(0.996264)"/>
       <use xlink:href="#CMMI12-3a" transform="translate(45.690477 0) scale(0.996264)"/>
       <use xlink:href="#CMR17-38" transform="translate(72.787654 0) scale(0.996264)"/>
      </g>
     </g>
    </g>
    <g id="ytick_6">
     <g id="line2d_12">
      <g>
       <use xlink:href="#m2ffa0d5cda" x="51.648487" y="19.220572" style="stroke: #000000; stroke-width: 0.8"/>
      </g>
     </g>
     <g id="text_13">
      <!-- $\mathdefault{1.0}$ -->
      <g transform="translate(27.197905 24.063511) scale(0.14 -0.14)">
       <use xlink:href="#CMR17-31" transform="scale(0.996264)"/>
       <use xlink:href="#CMMI12-3a" transform="translate(45.690477 0) scale(0.996264)"/>
       <use xlink:href="#CMR17-30" transform="translate(72.787654 0) scale(0.996264)"/>
      </g>
     </g>
    </g>
    <g id="text_14">
     <!-- P -->
     <g transform="translate(20.485876 106.814435) rotate(-90) scale(0.14 -0.14)">
      <defs>
       <path id="CMR17-50" d="M 1267 2042 
L 2291 2042 
C 3117 2042 3718 2578 3718 3184 
C 3718 3791 3130 4352 2291 4352 
L 333 4352 
L 333 4186 
C 774 4186 845 4186 845 3899 
L 845 446 
C 845 160 774 160 333 160 
L 333 0 
C 518 0 858 0 1056 0 
C 1254 0 1594 0 1779 0 
L 1779 160 
C 1338 160 1267 160 1267 446 
L 1267 2042 
z
M 1254 2176 
L 1254 3938 
C 1254 4155 1267 4186 1523 4186 
L 2170 4186 
C 2995 4186 3232 3714 3232 3184 
C 3232 2604 2950 2176 2170 2176 
L 1254 2176 
z
" transform="scale(0.015625)"/>
      </defs>
      <use xlink:href="#CMR17-50" transform="scale(0.996264)"/>
     </g>
    </g>
   </g>
   <g id="line2d_13">
    <path d="M 66.470963 19.435869 
L 69.958651 21.934463 
L 73.446339 24.665413 
L 76.061978 26.940783 
L 78.677615 29.54284 
L 80.42146 31.53912 
L 82.165303 33.819815 
L 83.909147 36.46916 
L 85.652992 39.577943 
L 87.396707 43.216468 
L 89.140552 47.406456 
L 90.884266 52.109057 
L 93.500033 59.932295 
L 96.987594 71.231394 
L 104.835021 96.991799 
L 108.322711 107.698692 
L 111.810397 117.662605 
L 114.426035 124.574607 
L 117.041673 130.967885 
L 119.657952 136.827145 
L 122.273718 142.14994 
L 124.889356 146.952447 
L 127.505122 151.261739 
L 130.120761 155.111398 
L 132.736399 158.539195 
L 135.352293 161.583836 
L 137.967931 164.282208 
L 140.583565 166.67012 
L 143.199336 168.780739 
L 145.814974 170.644303 
L 148.430736 172.288824 
L 151.918298 174.183976 
L 155.405859 175.787582 
L 158.893545 177.145795 
L 163.253154 178.5579 
L 167.612515 179.711528 
L 172.844304 180.826069 
L 178.075837 181.709662 
L 184.179028 182.515763 
L 191.154275 183.211377 
L 199.873246 183.831734 
L 210.336178 184.320456 
L 223.415403 184.680878 
L 241.725241 184.931344 
L 271.369688 185.082219 
L 341.994746 185.160228 
L 362.920488 185.167529 
L 362.920488 185.167529 
" clip-path="url(#p83c017ad3a)" style="fill: none; stroke: #1f77b4; stroke-width: 2; stroke-linecap: square"/>
   </g>
   <g id="line2d_14">
    <path d="M 66.470963 19.330526 
L 70.830573 22.490318 
L 74.318133 25.214906 
L 76.9339 27.482568 
L 79.549537 30.09356 
L 81.293381 32.113618 
L 83.037226 34.43984 
L 84.78107 37.161844 
L 86.524785 40.369786 
L 88.26863 44.12627 
L 90.012345 48.437185 
L 91.75619 53.250651 
L 94.371956 61.200952 
L 98.731437 75.493774 
L 104.835021 95.550335 
L 108.322711 106.352018 
L 111.810397 116.428854 
L 114.426035 123.435101 
L 117.041673 129.928205 
L 119.657952 135.889677 
L 122.273718 141.313683 
L 124.889356 146.213337 
L 127.505122 150.613429 
L 130.120761 154.546078 
L 132.736399 158.048501 
L 135.352293 161.159498 
L 137.967931 163.916425 
L 140.583565 166.35584 
L 143.199336 168.51177 
L 145.814974 170.415237 
L 148.430736 172.095036 
L 151.918298 174.031088 
L 155.405859 175.669704 
L 158.893545 177.057919 
L 162.381107 178.235767 
L 166.740716 179.463461 
L 171.100457 180.469337 
L 176.33199 181.443275 
L 182.435313 182.32851 
L 189.41056 183.08872 
L 197.257607 183.706152 
L 206.848616 184.217196 
L 218.183473 184.590922 
L 233.878203 184.8687 
L 258.291374 185.048045 
L 308.862092 185.145434 
L 362.920488 185.170421 
L 362.920488 185.170421 
" clip-path="url(#p83c017ad3a)" style="fill: none; stroke: #1f77b4; stroke-width: 2; stroke-linecap: square"/>
   </g>
   <g id="line2d_15">
    <path d="M 66.470963 19.246102 
L 70.830573 22.400748 
L 74.318133 25.14657 
L 76.9339 27.442167 
L 79.549537 30.090136 
L 81.293381 32.140978 
L 83.037226 34.504989 
L 84.78107 37.273184 
L 86.524785 40.534697 
L 88.26863 44.347445 
L 90.012345 48.711635 
L 91.75619 53.570697 
L 94.371956 61.570365 
L 98.731437 75.900352 
L 104.835021 95.958011 
L 108.322711 106.748395 
L 111.810397 116.807904 
L 114.426035 123.797043 
L 117.041673 130.269852 
L 119.657952 136.208515 
L 122.273718 141.607952 
L 124.889356 146.48229 
L 127.505122 150.857095 
L 130.120761 154.765226 
L 132.736399 158.244367 
L 135.352293 161.333585 
L 137.967931 164.070422 
L 140.583565 166.491459 
L 143.199336 168.63066 
L 145.814974 170.518987 
L 148.430736 172.185092 
L 151.918298 174.104941 
L 155.405859 175.729453 
L 158.893545 177.105433 
L 162.381107 178.272697 
L 166.740716 179.4892 
L 171.100457 180.485912 
L 176.33199 181.451192 
L 182.435313 182.329125 
L 189.41056 183.084042 
L 197.257607 183.698502 
L 206.848616 184.208732 
L 218.183473 184.583464 
L 233.878203 184.86341 
L 258.291374 185.045109 
L 307.99016 185.143398 
L 362.920488 185.169441 
L 362.920488 185.169441 
" clip-path="url(#p83c017ad3a)" style="fill: none; stroke: #1f77b4; stroke-width: 2; stroke-linecap: square"/>
   </g>
   <g id="line2d_16">
    <path d="M 66.470963 19.106225 
L 70.830573 22.243713 
L 74.318133 24.976632 
L 76.9339 27.262749 
L 79.549537 29.899419 
L 81.293381 31.940662 
L 83.037226 34.292453 
L 84.78107 37.044647 
L 86.524785 40.287459 
L 88.26863 44.08007 
L 90.012345 48.425103 
L 91.75619 53.267344 
L 94.371956 61.248142 
L 98.731437 75.562565 
L 104.835021 95.621975 
L 108.322711 106.423535 
L 111.810397 116.501226 
L 114.426035 123.508077 
L 117.041673 130.001231 
L 119.657952 135.961881 
L 122.273718 141.383928 
L 124.889356 146.280576 
L 127.505122 150.676735 
L 130.120761 154.604661 
L 132.736399 158.101747 
L 135.352293 161.206891 
L 137.967931 163.957573 
L 140.583565 166.390449 
L 143.199336 168.539627 
L 145.814974 170.436255 
L 148.430736 172.109189 
L 151.918298 174.03627 
L 155.405859 175.666352 
L 158.893545 177.046734 
L 162.381107 178.217638 
L 166.740716 179.438087 
L 171.100457 180.438443 
L 176.33199 181.407987 
L 182.435313 182.290844 
L 189.41056 183.051203 
L 197.257607 183.671236 
L 206.848616 184.187177 
L 218.183473 184.56707 
L 233.878203 184.851896 
L 258.291374 185.03792 
L 307.118245 185.139143 
L 362.920488 185.167804 
L 362.920488 185.167804 
" clip-path="url(#p83c017ad3a)" style="fill: none; stroke: #1f77b4; stroke-width: 2; stroke-linecap: square"/>
   </g>
   <g id="line2d_17">
    <path d="M 66.470963 19.192648 
L 70.830573 22.331354 
L 74.318133 25.075524 
L 76.9339 27.374474 
L 79.549537 30.026115 
L 81.293381 32.077758 
L 83.037226 34.439751 
L 84.78107 37.201781 
L 86.524785 40.453419 
L 88.26863 44.253412 
L 90.012345 48.603749 
L 91.75619 53.449324 
L 94.371956 61.431161 
L 98.731437 75.738895 
L 104.835021 95.776902 
L 108.322711 106.561922 
L 111.810397 116.620773 
L 114.426035 123.612623 
L 117.041673 130.090543 
L 119.657952 136.036287 
L 122.273718 141.444258 
L 124.889356 146.328041 
L 127.505122 150.712708 
L 130.120761 154.630569 
L 132.736399 158.118939 
L 135.352293 161.216509 
L 137.967931 163.960522 
L 140.583565 166.387421 
L 143.199336 168.531141 
L 145.814974 170.422686 
L 148.430736 172.09086 
L 151.918298 174.012046 
L 155.405859 175.636824 
L 158.893545 177.012586 
L 162.381107 178.179664 
L 166.740716 179.396583 
L 171.100457 180.394834 
L 176.33199 181.363633 
L 182.435313 182.247699 
L 189.41056 183.011386 
L 197.257607 183.6365 
L 206.848616 184.159058 
L 218.183473 184.545872 
L 233.878203 184.837647 
L 257.419459 185.025548 
L 304.502483 185.13238 
L 362.920488 185.165046 
L 362.920488 185.165046 
" clip-path="url(#p83c017ad3a)" style="fill: none; stroke: #1f77b4; stroke-width: 2; stroke-linecap: square"/>
   </g>
   <g id="line2d_18">
    <path d="M 66.470963 19.192648 
L 70.830573 22.331354 
L 74.318133 25.075524 
L 76.9339 27.374474 
L 79.549537 30.026115 
L 81.293381 32.077758 
L 83.037226 34.439751 
L 84.78107 37.201781 
L 86.524785 40.453419 
L 88.26863 44.253412 
L 90.012345 48.603749 
L 91.75619 53.449324 
L 94.371956 61.431161 
L 98.731437 75.738895 
L 104.835021 95.776902 
L 108.322711 106.561922 
L 111.810397 116.620773 
L 114.426035 123.612623 
L 117.041673 130.090543 
L 119.657952 136.036287 
L 122.273718 141.444258 
L 124.889356 146.328041 
L 127.505122 150.712708 
L 130.120761 154.630569 
L 132.736399 158.118939 
L 135.352293 161.216509 
L 137.967931 163.960522 
L 140.583565 166.387421 
L 143.199336 168.531141 
L 145.814974 170.422686 
L 148.430736 172.09086 
L 151.918298 174.012046 
L 155.405859 175.636824 
L 158.893545 177.012586 
L 162.381107 178.179664 
L 166.740716 179.396583 
L 171.100457 180.394834 
L 176.33199 181.363633 
L 182.435313 182.247699 
L 189.41056 183.011386 
L 197.257607 183.6365 
L 206.848616 184.159058 
L 218.183473 184.545872 
L 233.878203 184.837647 
L 257.419459 185.025548 
L 304.502483 185.13238 
L 362.920488 185.165046 
L 362.920488 185.165046 
" clip-path="url(#p83c017ad3a)" style="fill: none; stroke: #1f77b4; stroke-width: 3; stroke-linecap: square"/>
   </g>
   <g id="line2d_19">
    <path d="M 66.470963 19.293895 
L 70.028357 22.231641 
L 72.696403 24.696721 
L 75.067999 27.18911 
L 77.143146 29.72955 
L 78.921843 32.286168 
L 80.70054 35.300226 
L 82.182788 38.227306 
L 83.961485 42.280969 
L 85.740182 46.9157 
L 87.815329 52.958826 
L 90.483375 61.459005 
L 95.226567 77.515475 
L 100.859108 96.404457 
L 104.416502 107.599148 
L 107.677447 117.133976 
L 110.641942 125.11182 
L 113.309988 131.696879 
L 115.978034 137.708944 
L 118.646079 143.153423 
L 121.314125 148.0488 
L 123.685721 151.962285 
L 126.057318 155.48928 
L 128.428914 158.657295 
L 130.80051 161.495141 
L 133.468556 164.329195 
L 136.136601 166.822547 
L 138.804647 169.013596 
L 141.472693 170.937937 
L 144.437188 172.8025 
L 147.401683 174.417052 
L 150.662628 175.945166 
L 154.220022 177.36046 
L 158.073866 178.645263 
L 162.22416 179.789925 
L 166.670902 180.791763 
L 171.710544 181.701628 
L 177.343085 182.495532 
L 183.864975 183.190392 
L 191.572662 183.783679 
L 201.059047 184.278674 
L 212.917028 184.662906 
L 228.925303 184.945032 
L 253.234164 185.128063 
L 299.776739 185.21611 
L 362.624038 185.230723 
L 362.624038 185.230723 
" clip-path="url(#p83c017ad3a)" style="fill: none; stroke-dasharray: 19.2,4.8,3,4.8; stroke-dashoffset: 0; stroke: #2ca02c; stroke-width: 3"/>
   </g>
   <g id="line2d_20">
    <path d="M 66.470963 19.293895 
L 71.895989 23.704374 
L 74.623325 26.226172 
L 76.905986 28.63753 
L 78.951488 31.123627 
L 80.848765 33.78543 
L 82.627462 36.663954 
L 84.376514 39.921302 
L 86.125567 43.656828 
L 87.933909 48.058263 
L 89.860831 53.351017 
L 92.054557 60.053797 
L 94.900473 69.52494 
L 104.594372 102.373484 
L 107.796027 112.127557 
L 110.760522 120.461183 
L 113.576793 127.729659 
L 116.274483 134.092831 
L 118.912884 139.754566 
L 121.491995 144.767217 
L 124.011816 149.188032 
L 126.531637 153.164677 
L 129.051458 156.727754 
L 131.571279 159.91006 
L 134.120745 162.776414 
L 136.7295 165.376937 
L 139.397546 167.72479 
L 142.154527 169.856538 
L 145.030087 171.798978 
L 148.053872 173.571181 
L 151.225882 175.172423 
L 154.605407 176.629497 
L 158.251736 177.957599 
L 162.22416 179.163619 
L 166.552323 180.242477 
L 171.38445 181.213104 
L 176.809476 182.070811 
L 183.005271 182.820029 
L 190.23864 183.464503 
L 198.894966 184.00518 
L 209.626439 184.443794 
L 223.648501 184.782408 
L 243.480974 185.02238 
L 276.001487 185.167428 
L 351.536826 185.226391 
L 362.890843 185.228021 
L 362.890843 185.228021 
" clip-path="url(#p83c017ad3a)" style="fill: none; stroke-dasharray: 3,4.95; stroke-dashoffset: 0; stroke: #d62728; stroke-width: 3"/>
   </g>
   <g id="line2d_21">
    <path d="M 66.470963 19.293895 
L 68.872204 21.323759 
L 71.214155 23.598378 
L 73.496817 26.12727 
L 75.749833 28.955429 
L 78.00285 32.142344 
L 80.285511 35.763988 
L 82.597817 39.85927 
L 84.969413 44.523429 
L 87.429944 49.867131 
L 90.009055 56.012265 
L 92.795681 63.241256 
L 95.938046 72.034389 
L 99.85118 83.688256 
L 111.056972 117.477483 
L 114.258626 126.175179 
L 117.104542 133.278972 
L 119.772588 139.351372 
L 122.322054 144.609663 
L 124.81223 149.24031 
L 127.243116 153.299477 
L 129.674002 156.931029 
L 132.104888 160.167379 
L 134.565419 163.075893 
L 137.055595 165.679632 
L 139.605061 168.02843 
L 142.243462 170.159572 
L 145.000442 172.100173 
L 147.876003 173.852489 
L 150.929433 175.451 
L 154.190377 176.903432 
L 157.688482 178.214665 
L 161.483036 179.39651 
L 165.662974 180.46102 
L 170.287587 181.405678 
L 175.505098 182.240554 
L 181.493379 182.968527 
L 188.519232 183.592023 
L 196.968044 184.111012 
L 207.551292 184.528566 
L 221.543709 184.84536 
L 241.820857 185.063928 
L 276.742611 185.188287 
L 362.890843 185.229772 
L 362.890843 185.229772 
" clip-path="url(#p83c017ad3a)" style="fill: none; stroke-dasharray: 11.1,4.8; stroke-dashoffset: 0; stroke: #d62728; stroke-width: 3"/>
   </g>
   <g id="line2d_22">
    <path d="M 66.470963 19.293895 
L 71.895989 23.704374 
L 74.623325 26.226172 
L 76.905986 28.63753 
L 78.951488 31.123627 
L 80.848765 33.78543 
L 82.627462 36.663954 
L 84.376514 39.921302 
L 86.125567 43.656828 
L 87.933909 48.058263 
L 89.860831 53.351017 
L 92.054557 60.053797 
L 94.900473 69.52494 
L 104.594372 102.373484 
L 107.796027 112.127557 
L 110.760522 120.461183 
L 113.576793 127.729659 
L 116.274483 134.092831 
L 118.912884 139.754566 
L 121.491995 144.767217 
L 124.011816 149.188032 
L 126.531637 153.164677 
L 129.051458 156.727754 
L 131.571279 159.91006 
L 134.120745 162.776414 
L 136.7295 165.376937 
L 139.397546 167.72479 
L 142.154527 169.856538 
L 145.030087 171.798978 
L 148.053872 173.571181 
L 151.225882 175.172423 
L 154.605407 176.629497 
L 158.251736 177.957599 
L 162.22416 179.163619 
L 166.552323 180.242477 
L 171.38445 181.213104 
L 176.809476 182.070811 
L 183.005271 182.820029 
L 190.23864 183.464503 
L 198.894966 184.00518 
L 209.626439 184.443794 
L 223.648501 184.782408 
L 243.480974 185.02238 
L 276.001487 185.167428 
L 351.536826 185.226391 
L 362.890843 185.228021 
L 362.890843 185.228021 
" clip-path="url(#p83c017ad3a)" style="fill: none; stroke-dasharray: 19.2,4.8,3,4.8; stroke-dashoffset: 0; stroke: #d62728; stroke-width: 3"/>
   </g>
   <g id="patch_3">
    <path d="M 51.648487 193.536948 
L 51.648487 10.8 
" style="fill: none; stroke: #000000; stroke-width: 0.8; stroke-linejoin: miter; stroke-linecap: square"/>
   </g>
   <g id="patch_4">
    <path d="M 377.742964 193.536948 
L 377.742964 10.8 
" style="fill: none; stroke: #000000; stroke-width: 0.8; stroke-linejoin: miter; stroke-linecap: square"/>
   </g>
   <g id="patch_5">
    <path d="M 51.648487 193.536948 
L 377.742964 193.536948 
" style="fill: none; stroke: #000000; stroke-width: 0.8; stroke-linejoin: miter; stroke-linecap: square"/>
   </g>
   <g id="patch_6">
    <path d="M 51.648487 10.8 
L 377.742964 10.8 
" style="fill: none; stroke: #000000; stroke-width: 0.8; stroke-linejoin: miter; stroke-linecap: square"/>
   </g>
   <g id="legend_1">
    <g id="line2d_23">
     <path d="M 148.232178 28.999506 
L 162.232178 28.999506 
L 176.232178 28.999506 
" style="fill: none; stroke: #1f77b4; stroke-width: 3; stroke-linecap: square"/>
    </g>
    <g id="text_15">
     <!-- $\hat{P}$ -->
     <g transform="translate(187.432178 33.899506) scale(0.14 -0.14)">
      <defs>
       <path id="CMR17-5e" d="M 1466 4421 
L 678 3555 
L 755 3478 
L 1466 4166 
L 2176 3478 
L 2253 3555 
L 1466 4421 
z
" transform="scale(0.015625)"/>
       <path id="CMMI12-50" d="M 1894 2023 
L 2970 2023 
C 3853 2023 4736 2673 4736 3401 
C 4736 3898 4314 4352 3507 4352 
L 1530 4352 
C 1408 4352 1350 4352 1350 4231 
C 1350 4167 1408 4167 1504 4167 
C 1894 4167 1894 4116 1894 4046 
C 1894 4034 1894 3995 1869 3899 
L 1005 472 
C 947 249 934 185 486 185 
C 365 185 301 185 301 70 
C 301 0 358 0 397 0 
C 518 0 646 0 768 0 
L 1517 0 
C 1638 0 1773 0 1894 0 
C 1946 0 2016 0 2016 121 
C 2016 185 1958 185 1862 185 
C 1478 185 1472 230 1472 293 
C 1472 325 1478 369 1485 401 
L 1894 2023 
z
M 2355 3930 
C 2413 4167 2438 4167 2688 4167 
L 3322 4167 
C 3802 4167 4198 4013 4198 3535 
C 4198 3369 4115 2827 3821 2534 
C 3712 2419 3405 2176 2822 2176 
L 1920 2176 
L 2355 3930 
z
" transform="scale(0.015625)"/>
      </defs>
      <use xlink:href="#CMR17-5e" transform="translate(23.496833 25.189733) scale(0.996264)"/>
      <use xlink:href="#CMMI12-50" transform="scale(0.996264)"/>
     </g>
    </g>
    <g id="line2d_24">
     <path d="M 148.232178 52.078021 
L 162.232178 52.078021 
L 176.232178 52.078021 
" style="fill: none; stroke-dasharray: 19.2,4.8,3,4.8; stroke-dashoffset: 0; stroke: #2ca02c; stroke-width: 3"/>
    </g>
    <g id="text_16">
     <!-- $\sum \hat{\phi} \cdot dt$ -->
     <g transform="translate(187.432178 56.978021) scale(0.14 -0.14)">
      <defs>
       <path id="CMEX10-50" d="M 2694 -3418 
L 422 -6227 
C 371 -6291 365 -6304 365 -6330 
C 365 -6400 422 -6400 538 -6400 
L 5843 -6400 
L 6394 -4806 
L 6234 -4806 
C 6074 -5286 5645 -5677 5101 -5862 
C 4998 -5894 4557 -6048 3616 -6048 
L 896 -6048 
L 3117 -3302 
C 3162 -3245 3174 -3226 3174 -3200 
C 3174 -3174 3168 -3168 3130 -3110 
L 1050 -256 
L 3584 -256 
C 4314 -256 5786 -301 6234 -1498 
L 6394 -1498 
L 5843 0 
L 538 0 
C 365 0 358 -6 358 -205 
L 2694 -3418 
z
" transform="scale(0.015625)"/>
       <path id="CMMI12-1e" d="M 2752 4390 
C 2752 4448 2707 4448 2688 4448 
C 2630 4448 2624 4435 2598 4326 
L 2253 2939 
C 2234 2856 2227 2849 2221 2843 
C 2214 2830 2170 2824 2157 2824 
C 1107 2734 301 1864 301 1057 
C 301 361 832 -64 1498 -64 
C 1446 -261 1402 -463 1350 -659 
C 1261 -995 1210 -1204 1210 -1229 
C 1210 -1241 1210 -1280 1274 -1280 
C 1293 -1280 1318 -1280 1331 -1254 
C 1344 -1241 1382 -1089 1408 -1008 
L 1645 -64 
C 2739 -64 3571 854 3571 1680 
C 3571 2343 3085 2816 2374 2816 
L 2752 4390 
z
M 2336 2701 
C 2758 2701 3181 2463 3181 1828 
C 3181 1097 2675 128 1677 50 
L 2336 2701 
z
M 1530 50 
C 1216 50 691 220 691 938 
C 691 1761 1274 2676 2195 2676 
L 1530 50 
z
" transform="scale(0.015625)"/>
       <path id="CMSY10-1" d="M 1229 1619 
C 1229 1805 1075 1958 890 1958 
C 704 1958 550 1805 550 1619 
C 550 1433 704 1280 890 1280 
C 1075 1280 1229 1433 1229 1619 
z
" transform="scale(0.015625)"/>
       <path id="CMMI12-64" d="M 3219 4257 
C 3226 4282 3238 4320 3238 4352 
C 3238 4416 3174 4416 3162 4416 
C 3155 4416 2842 4388 2810 4380 
C 2701 4373 2605 4358 2490 4358 
C 2330 4345 2285 4339 2285 4224 
C 2285 4160 2336 4160 2426 4160 
C 2739 4160 2746 4103 2746 4040 
C 2746 4002 2733 3952 2726 3933 
L 2336 2395 
C 2266 2561 2093 2816 1760 2816 
C 1037 2816 256 1884 256 939 
C 256 307 627 -64 1062 -64 
C 1414 -64 1715 211 1894 422 
C 1958 45 2259 -64 2451 -64 
C 2643 -64 2797 51 2912 281 
C 3014 498 3104 888 3104 913 
C 3104 945 3078 971 3040 971 
C 2982 971 2976 939 2950 843 
C 2854 466 2733 64 2470 64 
C 2285 64 2272 229 2272 357 
C 2272 382 2272 515 2317 694 
L 3219 4257 
z
M 1926 760 
C 1894 651 1894 639 1805 517 
C 1664 338 1382 64 1082 64 
C 819 64 672 300 672 677 
C 672 1028 870 1743 992 2012 
C 1210 2459 1510 2689 1760 2689 
C 2182 2689 2266 2165 2266 2114 
C 2266 2108 2246 2024 2240 2012 
L 1926 760 
z
" transform="scale(0.015625)"/>
       <path id="CMMI12-74" d="M 1286 2566 
L 1875 2566 
C 1997 2566 2061 2566 2061 2681 
C 2061 2752 2022 2752 1894 2752 
L 1331 2752 
L 1568 3692 
C 1594 3781 1594 3794 1594 3840 
C 1594 3943 1510 4000 1427 4000 
C 1376 4000 1229 3981 1178 3775 
L 928 2752 
L 326 2752 
C 198 2752 141 2752 141 2630 
C 141 2566 186 2566 307 2566 
L 877 2566 
L 454 881 
C 403 658 384 594 384 511 
C 384 211 595 -64 954 -64 
C 1600 -64 1946 868 1946 912 
C 1946 951 1920 970 1882 970 
C 1869 970 1843 970 1830 944 
C 1824 938 1818 931 1773 829 
C 1638 511 1344 64 973 64 
C 781 64 768 224 768 364 
C 768 370 768 492 787 568 
L 1286 2566 
z
" transform="scale(0.015625)"/>
      </defs>
      <use xlink:href="#CMEX10-50" transform="translate(0 74.720454) scale(0.996264)"/>
      <use xlink:href="#CMR17-5e" transform="translate(135.916962 26.296621) scale(0.996264)"/>
      <use xlink:href="#CMMI12-1e" transform="translate(121.765958 0) scale(0.996264)"/>
      <use xlink:href="#CMSY10-1" transform="translate(201.639345 0) scale(0.996264)"/>
      <use xlink:href="#CMMI12-64" transform="translate(251.452637 0) scale(0.996264)"/>
      <use xlink:href="#CMMI12-74" transform="translate(302.141734 0) scale(0.996264)"/>
     </g>
    </g>
    <g id="line2d_25">
     <path d="M 148.232178 73.0259 
L 162.232178 73.0259 
L 176.232178 73.0259 
" style="fill: none; stroke-dasharray: 3,4.95; stroke-dashoffset: 0; stroke: #d62728; stroke-width: 3"/>
    </g>
    <g id="text_17">
     <!-- $\sum \phi^s_2 \cdot dt$ -->
     <g transform="translate(187.432178 77.9259) scale(0.14 -0.14)">
      <defs>
       <path id="CMMI12-73" d="M 1459 1280 
C 1568 1261 1741 1223 1779 1216 
C 1862 1192 2150 1090 2150 783 
C 2150 586 1971 70 1229 70 
C 1094 70 614 70 486 436 
C 742 404 870 603 870 745 
C 870 880 781 950 653 950 
C 512 950 326 841 326 552 
C 326 173 710 -64 1222 -64 
C 2195 -64 2483 651 2483 984 
C 2483 1079 2483 1258 2278 1462 
C 2118 1616 1965 1648 1619 1718 
C 1446 1756 1171 1814 1171 2101 
C 1171 2229 1286 2689 1894 2689 
C 2163 2689 2426 2589 2490 2368 
C 2208 2368 2195 2125 2195 2119 
C 2195 1984 2317 1946 2374 1946 
C 2464 1946 2643 2015 2643 2281 
C 2643 2545 2400 2816 1901 2816 
C 1062 2816 838 2160 838 1899 
C 838 1414 1312 1312 1459 1280 
z
" transform="scale(0.015625)"/>
      </defs>
      <use xlink:href="#CMEX10-50" transform="translate(0 74.720454) scale(0.996264)"/>
      <use xlink:href="#CMMI12-1e" transform="translate(121.765958 0) scale(0.996264)"/>
      <use xlink:href="#CMMI12-73" transform="translate(179.500138 36.153639) scale(0.697382)"/>
      <use xlink:href="#CMR17-32" transform="translate(179.500138 -24.740171) scale(0.697382)"/>
      <use xlink:href="#CMSY10-1" transform="translate(234.302366 0) scale(0.996264)"/>
      <use xlink:href="#CMMI12-64" transform="translate(284.115658 0) scale(0.996264)"/>
      <use xlink:href="#CMMI12-74" transform="translate(334.804754 0) scale(0.996264)"/>
     </g>
    </g>
    <g id="line2d_26">
     <path d="M 268.178958 28.999506 
L 282.178958 28.999506 
L 296.178958 28.999506 
" style="fill: none; stroke-dasharray: 11.1,4.8; stroke-dashoffset: 0; stroke: #d62728; stroke-width: 3"/>
    </g>
    <g id="text_18">
     <!-- $\sum \phi^s_{3} \cdot dt$ -->
     <g transform="translate(307.378958 33.899506) scale(0.14 -0.14)">
      <defs>
       <path id="CMR17-33" d="M 1414 2157 
C 1984 2157 2234 1662 2234 1090 
C 2234 320 1824 25 1453 25 
C 1114 25 563 194 390 693 
C 422 680 454 680 486 680 
C 640 680 755 782 755 948 
C 755 1133 614 1216 486 1216 
C 378 1216 211 1165 211 926 
C 211 335 787 -128 1466 -128 
C 2176 -128 2720 430 2720 1085 
C 2720 1707 2208 2157 1600 2227 
C 2086 2328 2554 2756 2554 3329 
C 2554 3820 2048 4179 1472 4179 
C 890 4179 378 3829 378 3329 
C 378 3110 544 3072 627 3072 
C 762 3072 877 3155 877 3321 
C 877 3486 762 3569 627 3569 
C 602 3569 570 3569 544 3557 
C 730 3959 1235 4032 1459 4032 
C 1683 4032 2106 3925 2106 3320 
C 2106 3143 2080 2828 1862 2550 
C 1670 2304 1453 2304 1242 2284 
C 1210 2284 1062 2269 1037 2269 
C 992 2263 966 2257 966 2208 
C 966 2163 973 2157 1101 2157 
L 1414 2157 
z
" transform="scale(0.015625)"/>
      </defs>
      <use xlink:href="#CMEX10-50" transform="translate(0 74.720454) scale(0.996264)"/>
      <use xlink:href="#CMMI12-1e" transform="translate(121.765958 0) scale(0.996264)"/>
      <use xlink:href="#CMMI12-73" transform="translate(179.500138 36.153639) scale(0.697382)"/>
      <use xlink:href="#CMR17-33" transform="translate(179.500138 -24.740171) scale(0.697382)"/>
      <use xlink:href="#CMSY10-1" transform="translate(234.302366 0) scale(0.996264)"/>
      <use xlink:href="#CMMI12-64" transform="translate(284.115658 0) scale(0.996264)"/>
      <use xlink:href="#CMMI12-74" transform="translate(334.804754 0) scale(0.996264)"/>
     </g>
    </g>
    <g id="line2d_27">
     <path d="M 268.178958 49.947385 
L 282.178958 49.947385 
L 296.178958 49.947385 
" style="fill: none; stroke-dasharray: 19.2,4.8,3,4.8; stroke-dashoffset: 0; stroke: #d62728; stroke-width: 3"/>
    </g>
    <g id="text_19">
     <!-- $\sum \phi^s_{14} \cdot dt$ -->
     <g transform="translate(307.378958 54.847385) scale(0.14 -0.14)">
      <use xlink:href="#CMEX10-50" transform="translate(0 74.720454) scale(0.996264)"/>
      <use xlink:href="#CMMI12-1e" transform="translate(121.765958 0) scale(0.996264)"/>
      <use xlink:href="#CMMI12-73" transform="translate(179.500138 36.153639) scale(0.697382)"/>
      <use xlink:href="#CMR17-31" transform="translate(179.500138 -24.740171) scale(0.697382)"/>
      <use xlink:href="#CMR17-34" transform="translate(211.48332 -24.740171) scale(0.697382)"/>
      <use xlink:href="#CMSY10-1" transform="translate(266.103841 0) scale(0.996264)"/>
      <use xlink:href="#CMMI12-64" transform="translate(315.917133 0) scale(0.996264)"/>
      <use xlink:href="#CMMI12-74" transform="translate(366.606229 0) scale(0.996264)"/>
     </g>
    </g>
   </g>
  </g>
 </g>
 <defs>
  <clipPath id="p83c017ad3a">
   <rect x="51.648487" y="10.8" width="326.094477" height="182.736948"/>
  </clipPath>
 </defs>
</svg>
