<?xml version="1.0" encoding="utf-8" standalone="no"?>
<!DOCTYPE svg PUBLIC "-//W3C//DTD SVG 1.1//EN"
  "http://www.w3.org/Graphics/SVG/1.1/DTD/svg11.dtd">
<svg xmlns:xlink="http://www.w3.org/1999/xlink" width="388.542964pt" height="240.132758pt" viewBox="0 0 388.542964 240.132758" xmlns="http://www.w3.org/2000/svg" version="1.1">
 <metadata>
  <rdf:RDF xmlns:dc="http://purl.org/dc/elements/1.1/" xmlns:cc="http://creativecommons.org/ns#" xmlns:rdf="http://www.w3.org/1999/02/22-rdf-syntax-ns#">
   <cc:Work>
    <dc:type rdf:resource="http://purl.org/dc/dcmitype/StillImage"/>
    <dc:date>2024-12-29T13:18:43.758869</dc:date>
    <dc:format>image/svg+xml</dc:format>
    <dc:creator>
     <cc:Agent>
      <dc:title>Matplotlib v3.7.5, https://matplotlib.org/</dc:title>
     </cc:Agent>
    </dc:creator>
   </cc:Work>
  </rdf:RDF>
 </metadata>
 <defs>
  <style type="text/css">*{stroke-linejoin: round; stroke-linecap: butt}</style>
 </defs>
 <g id="figure_1">
  <g id="patch_1">
   <path d="M 0 240.132758 
L 388.542964 240.132758 
L 388.542964 0 
L 0 0 
z
" style="fill: #ffffff"/>
  </g>
  <g id="axes_1">
   <g id="patch_2">
    <path d="M 49.404673 193.536948 
L 377.742964 193.536948 
L 377.742964 12.194973 
L 49.404673 12.194973 
z
" style="fill: #ffffff"/>
   </g>
   <g id="matplotlib.axis_1">
    <g id="xtick_1">
     <g id="line2d_1">
      <defs>
       <path id="mf386b65ecf" d="M 0 0 
L 0 3.5 
" style="stroke: #000000; stroke-width: 0.8"/>
      </defs>
      <g>
       <use xlink:href="#mf386b65ecf" x="96.799691" y="193.536948" style="stroke: #000000; stroke-width: 0.8"/>
      </g>
     </g>
     <g id="text_1">
      <!-- $\mathdefault{0.2}$ -->
      <g transform="translate(88.0744 210.222825) scale(0.14 -0.14)">
       <defs>
        <path id="CMR17-30" d="M 2688 2025 
C 2688 2416 2682 3080 2413 3591 
C 2176 4039 1798 4198 1466 4198 
C 1158 4198 768 4058 525 3597 
C 269 3118 243 2524 243 2025 
C 243 1661 250 1106 448 619 
C 723 -39 1216 -128 1466 -128 
C 1760 -128 2208 -7 2470 600 
C 2662 1042 2688 1559 2688 2025 
z
M 1466 -26 
C 1056 -26 813 325 723 812 
C 653 1188 653 1738 653 2096 
C 653 2588 653 2997 736 3387 
C 858 3929 1216 4096 1466 4096 
C 1728 4096 2067 3923 2189 3400 
C 2272 3036 2278 2607 2278 2096 
C 2278 1680 2278 1169 2202 792 
C 2067 95 1690 -26 1466 -26 
z
" transform="scale(0.015625)"/>
        <path id="CMMI12-3a" d="M 1178 307 
C 1178 492 1024 619 870 619 
C 685 619 557 466 557 313 
C 557 128 710 0 864 0 
C 1050 0 1178 153 1178 307 
z
" transform="scale(0.015625)"/>
        <path id="CMR17-32" d="M 2669 989 
L 2554 989 
C 2490 536 2438 459 2413 420 
C 2381 369 1920 369 1830 369 
L 602 369 
C 832 619 1280 1072 1824 1597 
C 2214 1967 2669 2402 2669 3035 
C 2669 3790 2067 4224 1395 4224 
C 691 4224 262 3604 262 3030 
C 262 2780 448 2748 525 2748 
C 589 2748 781 2787 781 3010 
C 781 3207 614 3264 525 3264 
C 486 3264 448 3258 422 3245 
C 544 3790 915 4058 1306 4058 
C 1862 4058 2227 3617 2227 3035 
C 2227 2479 1901 2000 1536 1584 
L 262 146 
L 262 0 
L 2515 0 
L 2669 989 
z
" transform="scale(0.015625)"/>
       </defs>
       <use xlink:href="#CMR17-30" transform="scale(0.996264)"/>
       <use xlink:href="#CMMI12-3a" transform="translate(45.690477 0) scale(0.996264)"/>
       <use xlink:href="#CMR17-32" transform="translate(72.787654 0) scale(0.996264)"/>
      </g>
     </g>
    </g>
    <g id="xtick_2">
     <g id="line2d_2">
      <g>
       <use xlink:href="#mf386b65ecf" x="156.196245" y="193.536948" style="stroke: #000000; stroke-width: 0.8"/>
      </g>
     </g>
     <g id="text_2">
      <!-- $\mathdefault{0.4}$ -->
      <g transform="translate(147.470954 210.222825) scale(0.14 -0.14)">
       <defs>
        <path id="CMR17-34" d="M 2150 4122 
C 2150 4256 2144 4256 2029 4256 
L 128 1254 
L 128 1088 
L 1779 1088 
L 1779 457 
C 1779 224 1766 160 1318 160 
L 1197 160 
L 1197 0 
C 1402 0 1747 0 1965 0 
C 2182 0 2528 0 2733 0 
L 2733 160 
L 2611 160 
C 2163 160 2150 224 2150 457 
L 2150 1088 
L 2803 1088 
L 2803 1254 
L 2150 1254 
L 2150 4122 
z
M 1798 3703 
L 1798 1254 
L 256 1254 
L 1798 3703 
z
" transform="scale(0.015625)"/>
       </defs>
       <use xlink:href="#CMR17-30" transform="scale(0.996264)"/>
       <use xlink:href="#CMMI12-3a" transform="translate(45.690477 0) scale(0.996264)"/>
       <use xlink:href="#CMR17-34" transform="translate(72.787654 0) scale(0.996264)"/>
      </g>
     </g>
    </g>
    <g id="xtick_3">
     <g id="line2d_3">
      <g>
       <use xlink:href="#mf386b65ecf" x="215.5928" y="193.536948" style="stroke: #000000; stroke-width: 0.8"/>
      </g>
     </g>
     <g id="text_3">
      <!-- $\mathdefault{0.6}$ -->
      <g transform="translate(206.867509 210.222825) scale(0.14 -0.14)">
       <defs>
        <path id="CMR17-36" d="M 678 2176 
C 678 3690 1395 4032 1811 4032 
C 1946 4032 2272 4009 2400 3776 
C 2298 3776 2106 3776 2106 3553 
C 2106 3381 2246 3323 2336 3323 
C 2394 3323 2566 3348 2566 3560 
C 2566 3954 2246 4179 1805 4179 
C 1043 4179 243 3390 243 1984 
C 243 253 966 -128 1478 -128 
C 2099 -128 2688 427 2688 1283 
C 2688 2081 2170 2662 1517 2662 
C 1126 2662 838 2407 678 1960 
L 678 2176 
z
M 1478 25 
C 691 25 691 1200 691 1436 
C 691 1896 909 2560 1504 2560 
C 1613 2560 1926 2560 2138 2120 
C 2253 1870 2253 1609 2253 1289 
C 2253 944 2253 690 2118 434 
C 1978 171 1773 25 1478 25 
z
" transform="scale(0.015625)"/>
       </defs>
       <use xlink:href="#CMR17-30" transform="scale(0.996264)"/>
       <use xlink:href="#CMMI12-3a" transform="translate(45.690477 0) scale(0.996264)"/>
       <use xlink:href="#CMR17-36" transform="translate(72.787654 0) scale(0.996264)"/>
      </g>
     </g>
    </g>
    <g id="xtick_4">
     <g id="line2d_4">
      <g>
       <use xlink:href="#mf386b65ecf" x="274.989354" y="193.536948" style="stroke: #000000; stroke-width: 0.8"/>
      </g>
     </g>
     <g id="text_4">
      <!-- $\mathdefault{0.8}$ -->
      <g transform="translate(266.264063 210.222825) scale(0.14 -0.14)">
       <defs>
        <path id="CMR17-38" d="M 1741 2264 
C 2144 2467 2554 2773 2554 3263 
C 2554 3841 1990 4179 1472 4179 
C 890 4179 378 3759 378 3180 
C 378 3021 416 2747 666 2505 
C 730 2442 998 2251 1171 2130 
C 883 1983 211 1634 211 934 
C 211 279 838 -128 1459 -128 
C 2144 -128 2720 362 2720 1010 
C 2720 1590 2330 1857 2074 2029 
L 1741 2264 
z
M 902 2822 
C 851 2854 595 3051 595 3351 
C 595 3739 998 4032 1459 4032 
C 1965 4032 2336 3676 2336 3262 
C 2336 2669 1670 2331 1638 2331 
C 1632 2331 1626 2331 1574 2370 
L 902 2822 
z
M 2080 1519 
C 2176 1449 2483 1240 2483 851 
C 2483 381 2010 25 1472 25 
C 890 25 448 438 448 940 
C 448 1443 838 1862 1280 2060 
L 2080 1519 
z
" transform="scale(0.015625)"/>
       </defs>
       <use xlink:href="#CMR17-30" transform="scale(0.996264)"/>
       <use xlink:href="#CMMI12-3a" transform="translate(45.690477 0) scale(0.996264)"/>
       <use xlink:href="#CMR17-38" transform="translate(72.787654 0) scale(0.996264)"/>
      </g>
     </g>
    </g>
    <g id="xtick_5">
     <g id="line2d_5">
      <g>
       <use xlink:href="#mf386b65ecf" x="334.385908" y="193.536948" style="stroke: #000000; stroke-width: 0.8"/>
      </g>
     </g>
     <g id="text_5">
      <!-- $\mathdefault{1.0}$ -->
      <g transform="translate(325.660617 210.222825) scale(0.14 -0.14)">
       <defs>
        <path id="CMR17-31" d="M 1702 4058 
C 1702 4192 1696 4192 1606 4192 
C 1357 3916 979 3827 621 3827 
C 602 3827 570 3827 563 3808 
C 557 3795 557 3782 557 3648 
C 755 3648 1088 3686 1344 3839 
L 1344 461 
C 1344 236 1331 160 781 160 
L 589 160 
L 589 0 
C 896 0 1216 0 1523 0 
C 1830 0 2150 0 2458 0 
L 2458 160 
L 2266 160 
C 1715 160 1702 230 1702 458 
L 1702 4058 
z
" transform="scale(0.015625)"/>
       </defs>
       <use xlink:href="#CMR17-31" transform="scale(0.996264)"/>
       <use xlink:href="#CMMI12-3a" transform="translate(45.690477 0) scale(0.996264)"/>
       <use xlink:href="#CMR17-30" transform="translate(72.787654 0) scale(0.996264)"/>
      </g>
     </g>
    </g>
    <g id="text_6">
     <!-- P -->
     <g transform="translate(208.927858 226.620729) scale(0.14 -0.14)">
      <defs>
       <path id="CMR17-50" d="M 1267 2042 
L 2291 2042 
C 3117 2042 3718 2578 3718 3184 
C 3718 3791 3130 4352 2291 4352 
L 333 4352 
L 333 4186 
C 774 4186 845 4186 845 3899 
L 845 446 
C 845 160 774 160 333 160 
L 333 0 
C 518 0 858 0 1056 0 
C 1254 0 1594 0 1779 0 
L 1779 160 
C 1338 160 1267 160 1267 446 
L 1267 2042 
z
M 1254 2176 
L 1254 3938 
C 1254 4155 1267 4186 1523 4186 
L 2170 4186 
C 2995 4186 3232 3714 3232 3184 
C 3232 2604 2950 2176 2170 2176 
L 1254 2176 
z
" transform="scale(0.015625)"/>
      </defs>
      <use xlink:href="#CMR17-50" transform="scale(0.996264)"/>
     </g>
    </g>
   </g>
   <g id="matplotlib.axis_2">
    <g id="ytick_1">
     <g id="line2d_6">
      <defs>
       <path id="m399c985f2d" d="M 0 0 
L -3.5 0 
" style="stroke: #000000; stroke-width: 0.8"/>
      </defs>
      <g>
       <use xlink:href="#m399c985f2d" x="49.404673" y="177.931321" style="stroke: #000000; stroke-width: 0.8"/>
      </g>
     </g>
     <g id="text_7">
      <!-- $\mathdefault{0}$ -->
      <g transform="translate(35.576185 182.774259) scale(0.14 -0.14)">
       <use xlink:href="#CMR17-30" transform="scale(0.996264)"/>
      </g>
     </g>
    </g>
    <g id="ytick_2">
     <g id="line2d_7">
      <g>
       <use xlink:href="#m399c985f2d" x="49.404673" y="145.460366" style="stroke: #000000; stroke-width: 0.8"/>
      </g>
     </g>
     <g id="text_8">
      <!-- $\mathdefault{10}$ -->
      <g transform="translate(28.747696 150.303304) scale(0.14 -0.14)">
       <use xlink:href="#CMR17-31" transform="scale(0.996264)"/>
       <use xlink:href="#CMR17-30" transform="translate(45.690477 0) scale(0.996264)"/>
      </g>
     </g>
    </g>
    <g id="ytick_3">
     <g id="line2d_8">
      <g>
       <use xlink:href="#m399c985f2d" x="49.404673" y="112.989412" style="stroke: #000000; stroke-width: 0.8"/>
      </g>
     </g>
     <g id="text_9">
      <!-- $\mathdefault{20}$ -->
      <g transform="translate(28.747696 117.83235) scale(0.14 -0.14)">
       <use xlink:href="#CMR17-32" transform="scale(0.996264)"/>
       <use xlink:href="#CMR17-30" transform="translate(45.690477 0) scale(0.996264)"/>
      </g>
     </g>
    </g>
    <g id="ytick_4">
     <g id="line2d_9">
      <g>
       <use xlink:href="#m399c985f2d" x="49.404673" y="80.518457" style="stroke: #000000; stroke-width: 0.8"/>
      </g>
     </g>
     <g id="text_10">
      <!-- $\mathdefault{30}$ -->
      <g transform="translate(28.747696 85.361396) scale(0.14 -0.14)">
       <defs>
        <path id="CMR17-33" d="M 1414 2157 
C 1984 2157 2234 1662 2234 1090 
C 2234 320 1824 25 1453 25 
C 1114 25 563 194 390 693 
C 422 680 454 680 486 680 
C 640 680 755 782 755 948 
C 755 1133 614 1216 486 1216 
C 378 1216 211 1165 211 926 
C 211 335 787 -128 1466 -128 
C 2176 -128 2720 430 2720 1085 
C 2720 1707 2208 2157 1600 2227 
C 2086 2328 2554 2756 2554 3329 
C 2554 3820 2048 4179 1472 4179 
C 890 4179 378 3829 378 3329 
C 378 3110 544 3072 627 3072 
C 762 3072 877 3155 877 3321 
C 877 3486 762 3569 627 3569 
C 602 3569 570 3569 544 3557 
C 730 3959 1235 4032 1459 4032 
C 1683 4032 2106 3925 2106 3320 
C 2106 3143 2080 2828 1862 2550 
C 1670 2304 1453 2304 1242 2284 
C 1210 2284 1062 2269 1037 2269 
C 992 2263 966 2257 966 2208 
C 966 2163 973 2157 1101 2157 
L 1414 2157 
z
" transform="scale(0.015625)"/>
       </defs>
       <use xlink:href="#CMR17-33" transform="scale(0.996264)"/>
       <use xlink:href="#CMR17-30" transform="translate(45.690477 0) scale(0.996264)"/>
      </g>
     </g>
    </g>
    <g id="ytick_5">
     <g id="line2d_10">
      <g>
       <use xlink:href="#m399c985f2d" x="49.404673" y="48.047503" style="stroke: #000000; stroke-width: 0.8"/>
      </g>
     </g>
     <g id="text_11">
      <!-- $\mathdefault{40}$ -->
      <g transform="translate(28.747696 52.890441) scale(0.14 -0.14)">
       <use xlink:href="#CMR17-34" transform="scale(0.996264)"/>
       <use xlink:href="#CMR17-30" transform="translate(45.690477 0) scale(0.996264)"/>
      </g>
     </g>
    </g>
    <g id="ytick_6">
     <g id="line2d_11">
      <g>
       <use xlink:href="#m399c985f2d" x="49.404673" y="15.576548" style="stroke: #000000; stroke-width: 0.8"/>
      </g>
     </g>
     <g id="text_12">
      <!-- $\mathdefault{50}$ -->
      <g transform="translate(28.747696 20.419487) scale(0.14 -0.14)">
       <defs>
        <path id="CMR17-35" d="M 730 3692 
C 794 3666 1056 3584 1325 3584 
C 1920 3584 2246 3911 2432 4100 
C 2432 4157 2432 4192 2394 4192 
C 2387 4192 2374 4192 2323 4163 
C 2099 4058 1837 3973 1517 3973 
C 1325 3973 1037 3999 723 4139 
C 653 4171 640 4171 634 4171 
C 602 4171 595 4164 595 4037 
L 595 2203 
C 595 2089 595 2057 659 2057 
C 691 2057 704 2070 736 2114 
C 941 2401 1222 2522 1542 2522 
C 1766 2522 2246 2382 2246 1289 
C 2246 1085 2246 715 2054 421 
C 1894 159 1645 25 1370 25 
C 947 25 518 320 403 814 
C 429 807 480 795 506 795 
C 589 795 749 840 749 1038 
C 749 1210 627 1280 506 1280 
C 358 1280 262 1190 262 1011 
C 262 454 704 -128 1382 -128 
C 2042 -128 2669 440 2669 1264 
C 2669 2030 2170 2624 1549 2624 
C 1222 2624 947 2503 730 2274 
L 730 3692 
z
" transform="scale(0.015625)"/>
       </defs>
       <use xlink:href="#CMR17-35" transform="scale(0.996264)"/>
       <use xlink:href="#CMR17-30" transform="translate(45.690477 0) scale(0.996264)"/>
      </g>
     </g>
    </g>
    <g id="text_13">
     <!-- $\phi(P, t)$ -->
     <g transform="translate(21.260772 122.33442) rotate(-90) scale(0.14 -0.14)">
      <defs>
       <path id="CMMI12-1e" d="M 2752 4390 
C 2752 4448 2707 4448 2688 4448 
C 2630 4448 2624 4435 2598 4326 
L 2253 2939 
C 2234 2856 2227 2849 2221 2843 
C 2214 2830 2170 2824 2157 2824 
C 1107 2734 301 1864 301 1057 
C 301 361 832 -64 1498 -64 
C 1446 -261 1402 -463 1350 -659 
C 1261 -995 1210 -1204 1210 -1229 
C 1210 -1241 1210 -1280 1274 -1280 
C 1293 -1280 1318 -1280 1331 -1254 
C 1344 -1241 1382 -1089 1408 -1008 
L 1645 -64 
C 2739 -64 3571 854 3571 1680 
C 3571 2343 3085 2816 2374 2816 
L 2752 4390 
z
M 2336 2701 
C 2758 2701 3181 2463 3181 1828 
C 3181 1097 2675 128 1677 50 
L 2336 2701 
z
M 1530 50 
C 1216 50 691 220 691 938 
C 691 1761 1274 2676 2195 2676 
L 1530 50 
z
" transform="scale(0.015625)"/>
       <path id="CMR17-28" d="M 1958 -1561 
C 1958 -1555 1958 -1542 1939 -1523 
C 1645 -1224 858 -407 858 1581 
C 858 3569 1632 4379 1946 4697 
C 1946 4704 1958 4717 1958 4736 
C 1958 4755 1939 4768 1914 4768 
C 1843 4768 1299 4296 986 3594 
C 666 2887 576 2199 576 1588 
C 576 1128 621 351 1005 -471 
C 1312 -1135 1837 -1600 1914 -1600 
C 1946 -1600 1958 -1587 1958 -1561 
z
" transform="scale(0.015625)"/>
       <path id="CMMI12-50" d="M 1894 2023 
L 2970 2023 
C 3853 2023 4736 2673 4736 3401 
C 4736 3898 4314 4352 3507 4352 
L 1530 4352 
C 1408 4352 1350 4352 1350 4231 
C 1350 4167 1408 4167 1504 4167 
C 1894 4167 1894 4116 1894 4046 
C 1894 4034 1894 3995 1869 3899 
L 1005 472 
C 947 249 934 185 486 185 
C 365 185 301 185 301 70 
C 301 0 358 0 397 0 
C 518 0 646 0 768 0 
L 1517 0 
C 1638 0 1773 0 1894 0 
C 1946 0 2016 0 2016 121 
C 2016 185 1958 185 1862 185 
C 1478 185 1472 230 1472 293 
C 1472 325 1478 369 1485 401 
L 1894 2023 
z
M 2355 3930 
C 2413 4167 2438 4167 2688 4167 
L 3322 4167 
C 3802 4167 4198 4013 4198 3535 
C 4198 3369 4115 2827 3821 2534 
C 3712 2419 3405 2176 2822 2176 
L 1920 2176 
L 2355 3930 
z
" transform="scale(0.015625)"/>
       <path id="CMMI12-3b" d="M 1248 -31 
C 1248 343 1126 619 864 619 
C 659 619 557 453 557 313 
C 557 172 653 0 870 0 
C 954 0 1024 26 1082 83 
C 1094 96 1101 96 1107 96 
C 1120 96 1120 5 1120 -27 
C 1120 -240 1082 -659 710 -1080 
C 640 -1157 640 -1170 640 -1183 
C 640 -1216 672 -1248 704 -1248 
C 755 -1248 1248 -771 1248 -31 
z
" transform="scale(0.015625)"/>
       <path id="CMMI12-74" d="M 1286 2566 
L 1875 2566 
C 1997 2566 2061 2566 2061 2681 
C 2061 2752 2022 2752 1894 2752 
L 1331 2752 
L 1568 3692 
C 1594 3781 1594 3794 1594 3840 
C 1594 3943 1510 4000 1427 4000 
C 1376 4000 1229 3981 1178 3775 
L 928 2752 
L 326 2752 
C 198 2752 141 2752 141 2630 
C 141 2566 186 2566 307 2566 
L 877 2566 
L 454 881 
C 403 658 384 594 384 511 
C 384 211 595 -64 954 -64 
C 1600 -64 1946 868 1946 912 
C 1946 951 1920 970 1882 970 
C 1869 970 1843 970 1830 944 
C 1824 938 1818 931 1773 829 
C 1638 511 1344 64 973 64 
C 781 64 768 224 768 364 
C 768 370 768 492 787 568 
L 1286 2566 
z
" transform="scale(0.015625)"/>
       <path id="CMR17-29" d="M 1683 1581 
C 1683 2040 1638 2817 1254 3639 
C 947 4303 422 4768 346 4768 
C 326 4768 301 4761 301 4729 
C 301 4717 307 4710 314 4697 
C 621 4378 1402 3568 1402 1584 
C 1402 -407 627 -1217 314 -1537 
C 307 -1549 301 -1556 301 -1568 
C 301 -1600 326 -1600 346 -1600 
C 416 -1600 960 -1128 1274 -426 
C 1594 281 1683 969 1683 1581 
z
" transform="scale(0.015625)"/>
      </defs>
      <use xlink:href="#CMMI12-1e" transform="scale(0.996264)"/>
      <use xlink:href="#CMR17-28" transform="translate(57.73418 0) scale(0.996264)"/>
      <use xlink:href="#CMMI12-50" transform="translate(93.014948 0) scale(0.996264)"/>
      <use xlink:href="#CMMI12-3b" transform="translate(158.601898 0) scale(0.996264)"/>
      <use xlink:href="#CMMI12-74" transform="translate(202.30348 0) scale(0.996264)"/>
      <use xlink:href="#CMR17-29" transform="translate(237.529811 0) scale(0.996264)"/>
     </g>
    </g>
   </g>
   <g id="line2d_12">
    <path d="M 64.802715 170.664979 
L 65.696462 167.35297 
L 66.66939 163.009575 
L 67.597775 157.900741 
L 68.958564 148.401538 
L 74.929096 104.83787 
L 77.835882 86.192569 
L 81.732356 65.825395 
L 86.892399 46.676334 
L 93.562304 30.925003 
L 101.867939 21.318384 
L 111.710157 21.555329 
L 122.707892 30.430328 
L 134.256412 45.666992 
L 145.698156 63.520443 
L 156.496351 81.796225 
L 166.343813 97.903877 
L 175.160062 111.178441 
L 183.028429 121.345749 
L 190.110289 128.987071 
L 196.589305 134.605854 
L 202.635111 138.517536 
L 208.387779 141.264952 
L 213.954351 143.451977 
L 219.4142 144.909654 
L 224.819706 146.004625 
L 235.586339 147.842611 
L 251.749945 150.16945 
L 262.458853 151.740342 
L 272.979488 153.481561 
L 283.177264 155.385118 
L 297.585159 158.349094 
L 310.61598 161.29863 
L 322.04389 164.134636 
L 334.652954 167.528658 
L 346.375382 170.925834 
L 352.930019 173.040503 
L 357.440127 174.733382 
L 360.848066 176.247671 
L 362.243479 177.087542 
L 362.716641 177.578162 
L 362.815558 177.972668 
L 362.62654 178.27541 
L 362.220325 178.493974 
L 361.211903 178.71475 
L 359.143512 178.859188 
L 355.603874 178.861153 
L 351.957284 178.639515 
L 346.113612 178.229797 
L 339.88178 178.20656 
L 335.375744 178.206529 
L 335.375744 178.206529 
" clip-path="url(#pfa5aef7b0b)" style="fill: none; stroke: #1f77b4; stroke-width: 3; stroke-linecap: square"/>
   </g>
   <g id="line2d_13">
    <path d="M 64.597671 170.669966 
L 65.461186 167.362813 
L 66.404172 163.016371 
L 67.305881 157.88322 
L 68.629428 148.327704 
L 74.443877 104.759896 
L 77.27599 86.071948 
L 81.073659 65.645763 
L 86.105932 46.577785 
L 92.617289 31.089956 
L 100.737394 21.508904 
L 110.378199 21.36974 
L 121.175026 29.9388 
L 132.538441 45.011365 
L 143.819817 63.005455 
L 154.483073 81.492899 
L 164.216237 97.575345 
L 172.932047 110.876664 
L 180.708322 121.13001 
L 187.702435 128.834594 
L 194.096112 134.499577 
L 200.058013 138.498745 
L 205.728227 141.181912 
L 211.214115 143.096058 
L 216.595795 144.845324 
L 221.925927 145.991133 
L 227.238959 146.920137 
L 237.87669 148.49111 
L 259.165816 151.500464 
L 269.621238 153.239197 
L 279.774601 155.149306 
L 294.148261 158.125211 
L 307.171541 161.073323 
L 318.604001 163.901736 
L 328.345023 166.508125 
L 338.746721 169.526634 
L 346.444949 171.982938 
L 351.846118 173.95929 
L 356.034305 175.765855 
L 357.828676 176.752182 
L 358.495069 177.314917 
L 358.714002 177.769012 
L 358.585842 178.126155 
L 358.193293 178.391686 
L 357.374242 178.625304 
L 355.754869 178.803696 
L 352.670373 178.880938 
L 348.607477 178.758746 
L 337.558982 178.208349 
L 328.578312 178.206526 
L 328.578312 178.206526 
" clip-path="url(#pfa5aef7b0b)" style="fill: none; stroke: #1f77b4; stroke-width: 2; stroke-linecap: square"/>
   </g>
   <g id="line2d_14">
    <path d="M 64.793245 170.665205 
L 65.688866 167.353289 
L 66.668797 163.009592 
L 67.606531 157.901267 
L 68.983559 148.407122 
L 75.033354 104.854611 
L 77.977259 86.222613 
L 81.920002 65.875326 
L 87.134591 46.705319 
L 93.86358 30.872619 
L 102.225439 21.263511 
L 112.111717 21.615516 
L 123.133836 30.569257 
L 134.685011 45.835996 
L 146.112593 63.63232 
L 156.888413 81.855321 
L 166.713412 97.960763 
L 175.51227 111.226347 
L 183.370671 121.379069 
L 190.449486 129.011658 
L 196.931051 134.625899 
L 202.983371 138.529037 
L 208.744802 141.27606 
L 214.321056 143.499535 
L 219.790765 144.91895 
L 230.597776 146.974279 
L 241.376534 148.662736 
L 262.860555 151.767747 
L 273.367347 153.508354 
L 283.543279 155.409653 
L 297.905292 158.369473 
L 310.877468 161.315499 
L 322.237032 164.147599 
L 334.745745 167.534367 
L 346.335164 170.924606 
L 352.782388 173.039968 
L 357.187349 174.735912 
L 360.469713 176.25285 
L 361.771166 177.093885 
L 362.177877 177.584878 
L 362.214413 177.97917 
L 361.966945 178.281206 
L 361.315564 178.555177 
L 360.163794 178.746496 
L 357.659414 178.874492 
L 353.774667 178.82802 
L 349.856109 178.545357 
L 345.197981 178.235671 
L 339.765446 178.206642 
L 332.641633 178.206526 
L 332.641633 178.206526 
" clip-path="url(#pfa5aef7b0b)" style="fill: none; stroke: #1f77b4; stroke-width: 2; stroke-linecap: square"/>
   </g>
   <g id="line2d_15">
    <path d="M 64.329141 170.676487 
L 65.199447 167.373761 
L 66.147177 163.022927 
L 67.051587 157.867709 
L 68.377581 148.270893 
L 74.200646 104.720735 
L 77.037741 86.019793 
L 80.842176 65.580944 
L 85.882392 46.548503 
L 92.400392 31.127983 
L 100.52089 21.548418 
L 110.148517 21.339962 
L 120.911565 29.855834 
L 132.217759 44.893419 
L 143.421771 62.894891 
L 153.995741 81.419409 
L 163.637077 97.485325 
L 172.265982 110.786489 
L 179.96452 121.064447 
L 186.891262 128.7926 
L 193.227355 134.481285 
L 199.140081 138.523782 
L 204.767918 141.148168 
L 215.564697 144.822619 
L 220.864666 145.976557 
L 226.149783 146.88495 
L 236.738391 148.418335 
L 252.671824 150.612509 
L 263.202442 152.249986 
L 273.512322 154.087007 
L 288.271204 157.048346 
L 301.829673 160.021057 
L 313.901654 162.906103 
L 324.339215 165.60452 
L 335.686654 168.788172 
L 344.289361 171.406346 
L 350.513864 173.508853 
L 355.59775 175.459379 
L 358.42182 176.743891 
L 359.50696 177.465785 
L 359.819003 177.885857 
L 359.806117 178.211926 
L 359.545019 178.450542 
L 358.917357 178.657781 
L 357.601424 178.815307 
L 354.753456 178.882608 
L 351.334295 178.752735 
L 342.142162 178.210701 
L 331.412614 178.206526 
L 331.412614 178.206526 
" clip-path="url(#pfa5aef7b0b)" style="fill: none; stroke: #1f77b4; stroke-width: 2; stroke-linecap: square"/>
   </g>
   <g id="line2d_16">
    <path d="M 64.793245 170.665205 
L 65.688866 167.353289 
L 66.668797 163.009592 
L 67.606531 157.901267 
L 68.983559 148.407122 
L 75.033354 104.854611 
L 77.977259 86.222613 
L 81.920002 65.875326 
L 87.134591 46.705319 
L 93.86358 30.872619 
L 102.225439 21.263511 
L 112.111717 21.615516 
L 123.133836 30.569257 
L 134.685011 45.835996 
L 146.112593 63.63232 
L 156.888413 81.855321 
L 166.713412 97.960763 
L 175.51227 111.226347 
L 183.370671 121.379069 
L 190.449486 129.011658 
L 196.931051 134.625899 
L 202.983371 138.529037 
L 208.744802 141.27606 
L 214.321056 143.499535 
L 219.790765 144.91895 
L 230.597776 146.974279 
L 241.376534 148.662736 
L 262.860555 151.767747 
L 273.367347 153.508354 
L 283.543279 155.409653 
L 297.905292 158.369473 
L 310.877468 161.315499 
L 322.237032 164.147599 
L 334.745745 167.534367 
L 346.335164 170.924606 
L 352.782388 173.039968 
L 357.187349 174.735912 
L 360.469713 176.25285 
L 361.771166 177.093885 
L 362.177877 177.584878 
L 362.214413 177.97917 
L 361.966945 178.281206 
L 361.315564 178.555177 
L 360.163794 178.746496 
L 357.659414 178.874492 
L 353.774667 178.82802 
L 349.856109 178.545357 
L 345.197981 178.235671 
L 339.765446 178.206642 
L 332.641597 178.206526 
L 332.641597 178.206526 
" clip-path="url(#pfa5aef7b0b)" style="fill: none; stroke: #1f77b4; stroke-width: 2; stroke-linecap: square"/>
   </g>
   <g id="line2d_17">
    <path d="M 64.793245 110.593164 
L 123.133836 124.327553 
L 342.208189 176.387101 
L 362.237708 181.278827 
L 361.679649 181.173879 
L 353.27042 179.271205 
L 336.176243 175.451232 
L 332.641597 174.769744 
L 332.641597 174.769744 
" clip-path="url(#pfa5aef7b0b)" style="fill: none; stroke-dasharray: 3,4.95; stroke-dashoffset: 0; stroke: #d62728; stroke-width: 3"/>
   </g>
   <g id="line2d_18">
    <path d="M 64.793245 115.707249 
L 77.977259 116.292346 
L 87.134591 116.831322 
L 102.225439 117.960734 
L 112.111717 118.864665 
L 123.133836 120.026406 
L 134.685011 121.418651 
L 146.112593 122.972121 
L 156.888413 124.597143 
L 175.51227 127.769769 
L 190.449486 130.643731 
L 202.983371 133.279194 
L 214.321056 135.839596 
L 225.205299 138.456869 
L 235.986199 141.204496 
L 246.768781 144.108044 
L 257.525077 147.160046 
L 273.367347 151.939006 
L 288.465585 156.809575 
L 302.397025 161.578874 
L 314.84959 166.067196 
L 328.867821 171.37774 
L 342.208189 176.692233 
L 355.212705 182.140723 
L 362.237708 185.294131 
L 361.833971 185.162244 
L 356.793135 183.131642 
L 339.765446 176.299252 
L 332.641597 173.972025 
L 332.641597 173.972025 
" clip-path="url(#pfa5aef7b0b)" style="fill: none; stroke-dasharray: 11.1,4.8; stroke-dashoffset: 0; stroke: #d62728; stroke-width: 3"/>
   </g>
   <g id="line2d_19">
    <path d="M 64.793245 167.613349 
L 65.688866 162.262513 
L 67.098135 152.329982 
L 69.948373 131.742498 
L 71.196388 123.475206 
L 72.840289 113.355767 
L 75.033354 101.07498 
L 77.977259 86.478002 
L 81.920002 69.833665 
L 87.134591 52.250045 
L 93.86358 36.065601 
L 102.225439 24.69253 
L 112.111717 21.339268 
L 123.133836 27.087806 
L 134.685011 40.119566 
L 146.112593 56.986578 
L 175.51227 104.619239 
L 183.370671 116.290879 
L 190.449486 125.877245 
L 196.931051 133.703224 
L 202.983371 140.093646 
L 208.744802 145.331919 
L 214.321056 149.650271 
L 219.790765 153.235675 
L 225.205299 156.233591 
L 230.597776 158.758544 
L 235.986199 160.900316 
L 241.376534 162.729252 
L 246.768781 164.301686 
L 252.157169 165.662273 
L 257.525077 166.845333 
L 262.860555 167.88012 
L 273.367347 169.593342 
L 283.543279 170.941809 
L 293.257413 172.020615 
L 306.724382 173.273281 
L 322.237032 174.476988 
L 361.243554 177.337662 
L 362.226592 177.611597 
L 362.15968 177.72214 
L 361.50628 177.876914 
L 359.364923 178.087323 
L 353.774667 178.371102 
L 340.31384 178.789801 
L 332.641597 178.834603 
L 332.641597 178.834603 
" clip-path="url(#pfa5aef7b0b)" style="fill: none; stroke-dasharray: 19.2,4.8,3,4.8; stroke-dashoffset: 0; stroke: #d62728; stroke-width: 3"/>
   </g>
   <g id="line2d_20">
    <path d="M 64.891862 170.662813 
L 65.694141 167.621442 
L 66.782143 162.693466 
L 67.550222 158.349283 
L 68.596508 150.925614 
L 76.333976 92.083999 
L 78.500181 78.725615 
L 79.755783 71.633624 
L 81.142248 64.588101 
L 82.669007 57.862032 
L 84.342822 51.425464 
L 86.171578 45.238289 
L 88.164507 39.567788 
L 90.327526 34.549743 
L 92.664503 29.942615 
L 95.18308 25.941802 
L 97.887634 22.997325 
L 100.773629 21.193019 
L 103.832541 20.43779 
L 107.05456 20.630403 
L 110.428724 21.845215 
L 113.939021 24.187141 
L 117.562857 27.436701 
L 121.278058 31.435681 
L 125.062155 36.061266 
L 128.892098 41.517316 
L 132.735645 47.871736 
L 140.340984 59.978297 
L 154.761545 85.165508 
L 161.356091 95.999926 
L 167.496069 105.59225 
L 173.181666 113.800071 
L 175.863336 117.374162 
L 178.445568 120.618545 
L 180.935034 123.561219 
L 185.66203 128.643514 
L 187.912464 130.820288 
L 190.096145 132.772411 
L 192.219712 134.513676 
L 196.312771 137.440352 
L 200.239082 139.837997 
L 202.149398 140.679313 
L 204.039428 141.201077 
L 205.924378 142.06673 
L 209.645244 143.019477 
L 211.497146 143.796893 
L 213.327274 144.431788 
L 216.948126 145.365326 
L 222.343436 146.389869 
L 229.53432 147.493325 
L 262.03476 152.141587 
L 272.621934 154.02645 
L 284.483267 156.384251 
L 298.655926 159.439406 
L 311.346559 162.416439 
L 322.360058 165.215576 
L 332.545496 168.019544 
L 342.021756 170.853411 
L 348.361886 172.95514 
L 353.114363 174.758814 
L 356.444663 176.238719 
L 357.944586 177.112009 
L 358.497724 177.663896 
L 358.583187 178.013354 
L 358.419165 178.285567 
L 357.953401 178.527868 
L 356.986507 178.728474 
L 355.102637 178.859431 
L 351.800129 178.854477 
L 348.072926 178.626212 
L 342.292909 178.228936 
L 335.002843 178.206557 
L 330.447171 178.206526 
L 330.447171 178.206526 
" clip-path="url(#pfa5aef7b0b)" style="fill: none; stroke-dasharray: 11.1,4.8; stroke-dashoffset: 0; stroke: #ff7f0e; stroke-width: 3"/>
   </g>
   <g id="line2d_21">
    <path d="M 64.891862 110.191072 
L 66.782143 110.859287 
L 70.131391 111.768383 
L 77.363237 113.466626 
L 100.773629 118.671861 
L 238.556588 149.101733 
L 328.729891 169.309658 
L 349.745121 174.220309 
L 356.769061 176.046916 
L 358.52417 176.685933 
L 358.57508 176.795942 
L 358.52856 176.823024 
L 358.065204 176.871456 
L 356.164695 176.782732 
L 346.523969 176.197873 
L 344.403252 176.346244 
L 342.320913 176.725683 
L 338.404833 177.72391 
L 330.447171 179.916032 
L 330.447171 179.916032 
" clip-path="url(#pfa5aef7b0b)" style="fill: none; stroke-dasharray: 19.2,4.8,3,4.8; stroke-dashoffset: 0; stroke: #8c564b; stroke-width: 3"/>
   </g>
   <g id="patch_3">
    <path d="M 49.404673 193.536948 
L 49.404673 12.194973 
" style="fill: none; stroke: #000000; stroke-width: 0.8; stroke-linejoin: miter; stroke-linecap: square"/>
   </g>
   <g id="patch_4">
    <path d="M 377.742964 193.536948 
L 377.742964 12.194973 
" style="fill: none; stroke: #000000; stroke-width: 0.8; stroke-linejoin: miter; stroke-linecap: square"/>
   </g>
   <g id="patch_5">
    <path d="M 49.404673 193.536948 
L 377.742964 193.536948 
" style="fill: none; stroke: #000000; stroke-width: 0.8; stroke-linejoin: miter; stroke-linecap: square"/>
   </g>
   <g id="patch_6">
    <path d="M 49.404673 12.194973 
L 377.742964 12.194973 
" style="fill: none; stroke: #000000; stroke-width: 0.8; stroke-linejoin: miter; stroke-linecap: square"/>
   </g>
   <g id="legend_1">
    <g id="line2d_22">
     <path d="M 210.286127 33.261459 
L 224.286127 33.261459 
L 238.286127 33.261459 
" style="fill: none; stroke: #1f77b4; stroke-width: 3; stroke-linecap: square"/>
    </g>
    <g id="text_14">
     <!-- $\hat{\phi}$ -->
     <g transform="translate(249.486127 38.161459) scale(0.14 -0.14)">
      <defs>
       <path id="CMR17-5e" d="M 1466 4421 
L 678 3555 
L 755 3478 
L 1466 4166 
L 2176 3478 
L 2253 3555 
L 1466 4421 
z
" transform="scale(0.015625)"/>
      </defs>
      <use xlink:href="#CMR17-5e" transform="translate(14.151005 26.296621) scale(0.996264)"/>
      <use xlink:href="#CMMI12-1e" transform="scale(0.996264)"/>
     </g>
    </g>
    <g id="line2d_23">
     <path d="M 210.286127 52.773488 
L 224.286127 52.773488 
L 238.286127 52.773488 
" style="fill: none; stroke-dasharray: 3,4.95; stroke-dashoffset: 0; stroke: #d62728; stroke-width: 3"/>
    </g>
    <g id="text_15">
     <!-- $\phi^s_2$ -->
     <g transform="translate(249.486127 57.673488) scale(0.14 -0.14)">
      <defs>
       <path id="CMMI12-73" d="M 1459 1280 
C 1568 1261 1741 1223 1779 1216 
C 1862 1192 2150 1090 2150 783 
C 2150 586 1971 70 1229 70 
C 1094 70 614 70 486 436 
C 742 404 870 603 870 745 
C 870 880 781 950 653 950 
C 512 950 326 841 326 552 
C 326 173 710 -64 1222 -64 
C 2195 -64 2483 651 2483 984 
C 2483 1079 2483 1258 2278 1462 
C 2118 1616 1965 1648 1619 1718 
C 1446 1756 1171 1814 1171 2101 
C 1171 2229 1286 2689 1894 2689 
C 2163 2689 2426 2589 2490 2368 
C 2208 2368 2195 2125 2195 2119 
C 2195 1984 2317 1946 2374 1946 
C 2464 1946 2643 2015 2643 2281 
C 2643 2545 2400 2816 1901 2816 
C 1062 2816 838 2160 838 1899 
C 838 1414 1312 1312 1459 1280 
z
" transform="scale(0.015625)"/>
      </defs>
      <use xlink:href="#CMMI12-1e" transform="scale(0.996264)"/>
      <use xlink:href="#CMMI12-73" transform="translate(57.73418 36.153639) scale(0.697382)"/>
      <use xlink:href="#CMR17-32" transform="translate(57.73418 -24.740171) scale(0.697382)"/>
     </g>
    </g>
    <g id="line2d_24">
     <path d="M 210.286127 73.035466 
L 224.286127 73.035466 
L 238.286127 73.035466 
" style="fill: none; stroke-dasharray: 11.1,4.8; stroke-dashoffset: 0; stroke: #d62728; stroke-width: 3"/>
    </g>
    <g id="text_16">
     <!-- $\phi^s_{3}$ -->
     <g transform="translate(249.486127 77.935466) scale(0.14 -0.14)">
      <use xlink:href="#CMMI12-1e" transform="scale(0.996264)"/>
      <use xlink:href="#CMMI12-73" transform="translate(57.73418 36.153639) scale(0.697382)"/>
      <use xlink:href="#CMR17-33" transform="translate(57.73418 -24.740171) scale(0.697382)"/>
     </g>
    </g>
    <g id="line2d_25">
     <path d="M 290.586126 33.261459 
L 304.586126 33.261459 
L 318.586126 33.261459 
" style="fill: none; stroke-dasharray: 19.2,4.8,3,4.8; stroke-dashoffset: 0; stroke: #d62728; stroke-width: 3"/>
    </g>
    <g id="text_17">
     <!-- $\phi^s_{6}$ -->
     <g transform="translate(329.786126 38.161459) scale(0.14 -0.14)">
      <use xlink:href="#CMMI12-1e" transform="scale(0.996264)"/>
      <use xlink:href="#CMMI12-73" transform="translate(57.73418 36.153639) scale(0.697382)"/>
      <use xlink:href="#CMR17-36" transform="translate(57.73418 -24.740171) scale(0.697382)"/>
     </g>
    </g>
    <g id="line2d_26">
     <path d="M 290.586126 53.523437 
L 304.586126 53.523437 
L 318.586126 53.523437 
" style="fill: none; stroke-dasharray: 11.1,4.8; stroke-dashoffset: 0; stroke: #ff7f0e; stroke-width: 3"/>
    </g>
    <g id="text_18">
     <!-- $\phi^*$ -->
     <g transform="translate(329.786126 58.423437) scale(0.14 -0.14)">
      <defs>
       <path id="CMSY10-3" d="M 1760 2719 
C 1766 2808 1766 2962 1600 2962 
C 1498 2962 1414 2879 1434 2795 
L 1434 2712 
L 1523 1720 
L 704 2316 
C 646 2348 634 2360 589 2360 
C 499 2360 416 2271 416 2181 
C 416 2079 480 2053 544 2021 
L 1453 1586 
L 570 1158 
C 467 1107 416 1081 416 985 
C 416 889 499 806 589 806 
C 634 806 646 806 806 928 
L 1523 1446 
L 1427 371 
C 1427 236 1542 204 1594 204 
C 1670 204 1766 248 1766 371 
L 1670 1446 
L 2490 851 
C 2547 819 2560 806 2605 806 
C 2694 806 2778 896 2778 985 
C 2778 1081 2720 1113 2643 1152 
C 2259 1343 2246 1343 1741 1580 
L 2624 2008 
C 2726 2060 2778 2085 2778 2181 
C 2778 2277 2694 2360 2605 2360 
C 2560 2360 2547 2360 2387 2239 
L 1670 1720 
L 1760 2719 
z
" transform="scale(0.015625)"/>
      </defs>
      <use xlink:href="#CMMI12-1e" transform="scale(0.996264)"/>
      <use xlink:href="#CMSY10-3" transform="translate(57.73418 36.153639) scale(0.697382)"/>
     </g>
    </g>
    <g id="line2d_27">
     <path d="M 290.586126 73.035466 
L 304.586126 73.035466 
L 318.586126 73.035466 
" style="fill: none; stroke-dasharray: 19.2,4.8,3,4.8; stroke-dashoffset: 0; stroke: #8c564b; stroke-width: 3"/>
    </g>
    <g id="text_19">
     <!-- $\phi^s_{s} \cdot dt$ -->
     <g transform="translate(329.786126 77.935466) scale(0.14 -0.14)">
      <defs>
       <path id="CMSY10-1" d="M 1229 1619 
C 1229 1805 1075 1958 890 1958 
C 704 1958 550 1805 550 1619 
C 550 1433 704 1280 890 1280 
C 1075 1280 1229 1433 1229 1619 
z
" transform="scale(0.015625)"/>
       <path id="CMMI12-64" d="M 3219 4257 
C 3226 4282 3238 4320 3238 4352 
C 3238 4416 3174 4416 3162 4416 
C 3155 4416 2842 4388 2810 4380 
C 2701 4373 2605 4358 2490 4358 
C 2330 4345 2285 4339 2285 4224 
C 2285 4160 2336 4160 2426 4160 
C 2739 4160 2746 4103 2746 4040 
C 2746 4002 2733 3952 2726 3933 
L 2336 2395 
C 2266 2561 2093 2816 1760 2816 
C 1037 2816 256 1884 256 939 
C 256 307 627 -64 1062 -64 
C 1414 -64 1715 211 1894 422 
C 1958 45 2259 -64 2451 -64 
C 2643 -64 2797 51 2912 281 
C 3014 498 3104 888 3104 913 
C 3104 945 3078 971 3040 971 
C 2982 971 2976 939 2950 843 
C 2854 466 2733 64 2470 64 
C 2285 64 2272 229 2272 357 
C 2272 382 2272 515 2317 694 
L 3219 4257 
z
M 1926 760 
C 1894 651 1894 639 1805 517 
C 1664 338 1382 64 1082 64 
C 819 64 672 300 672 677 
C 672 1028 870 1743 992 2012 
C 1210 2459 1510 2689 1760 2689 
C 2182 2689 2266 2165 2266 2114 
C 2266 2108 2246 2024 2240 2012 
L 1926 760 
z
" transform="scale(0.015625)"/>
      </defs>
      <use xlink:href="#CMMI12-1e" transform="scale(0.996264)"/>
      <use xlink:href="#CMMI12-73" transform="translate(57.73418 36.153639) scale(0.697382)"/>
      <use xlink:href="#CMMI12-73" transform="translate(57.73418 -24.62935) scale(0.697382)"/>
      <use xlink:href="#CMSY10-1" transform="translate(112.536408 0) scale(0.996264)"/>
      <use xlink:href="#CMMI12-64" transform="translate(162.3497 0) scale(0.996264)"/>
      <use xlink:href="#CMMI12-74" transform="translate(213.038797 0) scale(0.996264)"/>
     </g>
    </g>
   </g>
  </g>
 </g>
 <defs>
  <clipPath id="pfa5aef7b0b">
   <rect x="49.404673" y="12.194973" width="328.33829" height="181.341975"/>
  </clipPath>
 </defs>
</svg>
