<?xml version="1.0" encoding="utf-8" standalone="no"?>
<!DOCTYPE svg PUBLIC "-//W3C//DTD SVG 1.1//EN"
  "http://www.w3.org/Graphics/SVG/1.1/DTD/svg11.dtd">
<svg xmlns:xlink="http://www.w3.org/1999/xlink" width="388.542964pt" height="240.132758pt" viewBox="0 0 388.542964 240.132758" xmlns="http://www.w3.org/2000/svg" version="1.1">
 <metadata>
  <rdf:RDF xmlns:dc="http://purl.org/dc/elements/1.1/" xmlns:cc="http://creativecommons.org/ns#" xmlns:rdf="http://www.w3.org/1999/02/22-rdf-syntax-ns#">
   <cc:Work>
    <dc:type rdf:resource="http://purl.org/dc/dcmitype/StillImage"/>
    <dc:date>2024-12-29T12:50:47.388264</dc:date>
    <dc:format>image/svg+xml</dc:format>
    <dc:creator>
     <cc:Agent>
      <dc:title>Matplotlib v3.7.5, https://matplotlib.org/</dc:title>
     </cc:Agent>
    </dc:creator>
   </cc:Work>
  </rdf:RDF>
 </metadata>
 <defs>
  <style type="text/css">*{stroke-linejoin: round; stroke-linecap: butt}</style>
 </defs>
 <g id="figure_1">
  <g id="patch_1">
   <path d="M 0 240.132758 
L 388.542964 240.132758 
L 388.542964 0 
L 0 0 
z
" style="fill: #ffffff"/>
  </g>
  <g id="axes_1">
   <g id="patch_2">
    <path d="M 49.404673 193.536948 
L 377.742964 193.536948 
L 377.742964 13.303049 
L 49.404673 13.303049 
z
" style="fill: #ffffff"/>
   </g>
   <g id="matplotlib.axis_1">
    <g id="xtick_1">
     <g id="line2d_1">
      <defs>
       <path id="mbb35fc17fc" d="M 0 0 
L 0 3.5 
" style="stroke: #000000; stroke-width: 0.8"/>
      </defs>
      <g>
       <use xlink:href="#mbb35fc17fc" x="96.862994" y="193.536948" style="stroke: #000000; stroke-width: 0.8"/>
      </g>
     </g>
     <g id="text_1">
      <!-- $\mathdefault{0.2}$ -->
      <g transform="translate(88.137703 210.222825) scale(0.14 -0.14)">
       <defs>
        <path id="CMR17-30" d="M 2688 2025 
C 2688 2416 2682 3080 2413 3591 
C 2176 4039 1798 4198 1466 4198 
C 1158 4198 768 4058 525 3597 
C 269 3118 243 2524 243 2025 
C 243 1661 250 1106 448 619 
C 723 -39 1216 -128 1466 -128 
C 1760 -128 2208 -7 2470 600 
C 2662 1042 2688 1559 2688 2025 
z
M 1466 -26 
C 1056 -26 813 325 723 812 
C 653 1188 653 1738 653 2096 
C 653 2588 653 2997 736 3387 
C 858 3929 1216 4096 1466 4096 
C 1728 4096 2067 3923 2189 3400 
C 2272 3036 2278 2607 2278 2096 
C 2278 1680 2278 1169 2202 792 
C 2067 95 1690 -26 1466 -26 
z
" transform="scale(0.015625)"/>
        <path id="CMMI12-3a" d="M 1178 307 
C 1178 492 1024 619 870 619 
C 685 619 557 466 557 313 
C 557 128 710 0 864 0 
C 1050 0 1178 153 1178 307 
z
" transform="scale(0.015625)"/>
        <path id="CMR17-32" d="M 2669 989 
L 2554 989 
C 2490 536 2438 459 2413 420 
C 2381 369 1920 369 1830 369 
L 602 369 
C 832 619 1280 1072 1824 1597 
C 2214 1967 2669 2402 2669 3035 
C 2669 3790 2067 4224 1395 4224 
C 691 4224 262 3604 262 3030 
C 262 2780 448 2748 525 2748 
C 589 2748 781 2787 781 3010 
C 781 3207 614 3264 525 3264 
C 486 3264 448 3258 422 3245 
C 544 3790 915 4058 1306 4058 
C 1862 4058 2227 3617 2227 3035 
C 2227 2479 1901 2000 1536 1584 
L 262 146 
L 262 0 
L 2515 0 
L 2669 989 
z
" transform="scale(0.015625)"/>
       </defs>
       <use xlink:href="#CMR17-30" transform="scale(0.996264)"/>
       <use xlink:href="#CMMI12-3a" transform="translate(45.690477 0) scale(0.996264)"/>
       <use xlink:href="#CMR17-32" transform="translate(72.787654 0) scale(0.996264)"/>
      </g>
     </g>
    </g>
    <g id="xtick_2">
     <g id="line2d_2">
      <g>
       <use xlink:href="#mbb35fc17fc" x="156.375345" y="193.536948" style="stroke: #000000; stroke-width: 0.8"/>
      </g>
     </g>
     <g id="text_2">
      <!-- $\mathdefault{0.4}$ -->
      <g transform="translate(147.650054 210.222825) scale(0.14 -0.14)">
       <defs>
        <path id="CMR17-34" d="M 2150 4122 
C 2150 4256 2144 4256 2029 4256 
L 128 1254 
L 128 1088 
L 1779 1088 
L 1779 457 
C 1779 224 1766 160 1318 160 
L 1197 160 
L 1197 0 
C 1402 0 1747 0 1965 0 
C 2182 0 2528 0 2733 0 
L 2733 160 
L 2611 160 
C 2163 160 2150 224 2150 457 
L 2150 1088 
L 2803 1088 
L 2803 1254 
L 2150 1254 
L 2150 4122 
z
M 1798 3703 
L 1798 1254 
L 256 1254 
L 1798 3703 
z
" transform="scale(0.015625)"/>
       </defs>
       <use xlink:href="#CMR17-30" transform="scale(0.996264)"/>
       <use xlink:href="#CMMI12-3a" transform="translate(45.690477 0) scale(0.996264)"/>
       <use xlink:href="#CMR17-34" transform="translate(72.787654 0) scale(0.996264)"/>
      </g>
     </g>
    </g>
    <g id="xtick_3">
     <g id="line2d_3">
      <g>
       <use xlink:href="#mbb35fc17fc" x="215.887696" y="193.536948" style="stroke: #000000; stroke-width: 0.8"/>
      </g>
     </g>
     <g id="text_3">
      <!-- $\mathdefault{0.6}$ -->
      <g transform="translate(207.162405 210.222825) scale(0.14 -0.14)">
       <defs>
        <path id="CMR17-36" d="M 678 2176 
C 678 3690 1395 4032 1811 4032 
C 1946 4032 2272 4009 2400 3776 
C 2298 3776 2106 3776 2106 3553 
C 2106 3381 2246 3323 2336 3323 
C 2394 3323 2566 3348 2566 3560 
C 2566 3954 2246 4179 1805 4179 
C 1043 4179 243 3390 243 1984 
C 243 253 966 -128 1478 -128 
C 2099 -128 2688 427 2688 1283 
C 2688 2081 2170 2662 1517 2662 
C 1126 2662 838 2407 678 1960 
L 678 2176 
z
M 1478 25 
C 691 25 691 1200 691 1436 
C 691 1896 909 2560 1504 2560 
C 1613 2560 1926 2560 2138 2120 
C 2253 1870 2253 1609 2253 1289 
C 2253 944 2253 690 2118 434 
C 1978 171 1773 25 1478 25 
z
" transform="scale(0.015625)"/>
       </defs>
       <use xlink:href="#CMR17-30" transform="scale(0.996264)"/>
       <use xlink:href="#CMMI12-3a" transform="translate(45.690477 0) scale(0.996264)"/>
       <use xlink:href="#CMR17-36" transform="translate(72.787654 0) scale(0.996264)"/>
      </g>
     </g>
    </g>
    <g id="xtick_4">
     <g id="line2d_4">
      <g>
       <use xlink:href="#mbb35fc17fc" x="275.400047" y="193.536948" style="stroke: #000000; stroke-width: 0.8"/>
      </g>
     </g>
     <g id="text_4">
      <!-- $\mathdefault{0.8}$ -->
      <g transform="translate(266.674756 210.222825) scale(0.14 -0.14)">
       <defs>
        <path id="CMR17-38" d="M 1741 2264 
C 2144 2467 2554 2773 2554 3263 
C 2554 3841 1990 4179 1472 4179 
C 890 4179 378 3759 378 3180 
C 378 3021 416 2747 666 2505 
C 730 2442 998 2251 1171 2130 
C 883 1983 211 1634 211 934 
C 211 279 838 -128 1459 -128 
C 2144 -128 2720 362 2720 1010 
C 2720 1590 2330 1857 2074 2029 
L 1741 2264 
z
M 902 2822 
C 851 2854 595 3051 595 3351 
C 595 3739 998 4032 1459 4032 
C 1965 4032 2336 3676 2336 3262 
C 2336 2669 1670 2331 1638 2331 
C 1632 2331 1626 2331 1574 2370 
L 902 2822 
z
M 2080 1519 
C 2176 1449 2483 1240 2483 851 
C 2483 381 2010 25 1472 25 
C 890 25 448 438 448 940 
C 448 1443 838 1862 1280 2060 
L 2080 1519 
z
" transform="scale(0.015625)"/>
       </defs>
       <use xlink:href="#CMR17-30" transform="scale(0.996264)"/>
       <use xlink:href="#CMMI12-3a" transform="translate(45.690477 0) scale(0.996264)"/>
       <use xlink:href="#CMR17-38" transform="translate(72.787654 0) scale(0.996264)"/>
      </g>
     </g>
    </g>
    <g id="xtick_5">
     <g id="line2d_5">
      <g>
       <use xlink:href="#mbb35fc17fc" x="334.912398" y="193.536948" style="stroke: #000000; stroke-width: 0.8"/>
      </g>
     </g>
     <g id="text_5">
      <!-- $\mathdefault{1.0}$ -->
      <g transform="translate(326.187107 210.222825) scale(0.14 -0.14)">
       <defs>
        <path id="CMR17-31" d="M 1702 4058 
C 1702 4192 1696 4192 1606 4192 
C 1357 3916 979 3827 621 3827 
C 602 3827 570 3827 563 3808 
C 557 3795 557 3782 557 3648 
C 755 3648 1088 3686 1344 3839 
L 1344 461 
C 1344 236 1331 160 781 160 
L 589 160 
L 589 0 
C 896 0 1216 0 1523 0 
C 1830 0 2150 0 2458 0 
L 2458 160 
L 2266 160 
C 1715 160 1702 230 1702 458 
L 1702 4058 
z
" transform="scale(0.015625)"/>
       </defs>
       <use xlink:href="#CMR17-31" transform="scale(0.996264)"/>
       <use xlink:href="#CMMI12-3a" transform="translate(45.690477 0) scale(0.996264)"/>
       <use xlink:href="#CMR17-30" transform="translate(72.787654 0) scale(0.996264)"/>
      </g>
     </g>
    </g>
    <g id="text_6">
     <!-- P -->
     <g transform="translate(208.927858 226.620729) scale(0.14 -0.14)">
      <defs>
       <path id="CMR17-50" d="M 1267 2042 
L 2291 2042 
C 3117 2042 3718 2578 3718 3184 
C 3718 3791 3130 4352 2291 4352 
L 333 4352 
L 333 4186 
C 774 4186 845 4186 845 3899 
L 845 446 
C 845 160 774 160 333 160 
L 333 0 
C 518 0 858 0 1056 0 
C 1254 0 1594 0 1779 0 
L 1779 160 
C 1338 160 1267 160 1267 446 
L 1267 2042 
z
M 1254 2176 
L 1254 3938 
C 1254 4155 1267 4186 1523 4186 
L 2170 4186 
C 2995 4186 3232 3714 3232 3184 
C 3232 2604 2950 2176 2170 2176 
L 1254 2176 
z
" transform="scale(0.015625)"/>
      </defs>
      <use xlink:href="#CMR17-50" transform="scale(0.996264)"/>
     </g>
    </g>
   </g>
   <g id="matplotlib.axis_2">
    <g id="ytick_1">
     <g id="line2d_6">
      <defs>
       <path id="m484106d800" d="M 0 0 
L -3.5 0 
" style="stroke: #000000; stroke-width: 0.8"/>
      </defs>
      <g>
       <use xlink:href="#m484106d800" x="49.404673" y="184.352776" style="stroke: #000000; stroke-width: 0.8"/>
      </g>
     </g>
     <g id="text_7">
      <!-- $\mathdefault{0}$ -->
      <g transform="translate(35.576185 189.195714) scale(0.14 -0.14)">
       <use xlink:href="#CMR17-30" transform="scale(0.996264)"/>
      </g>
     </g>
    </g>
    <g id="ytick_2">
     <g id="line2d_7">
      <g>
       <use xlink:href="#m484106d800" x="49.404673" y="150.598993" style="stroke: #000000; stroke-width: 0.8"/>
      </g>
     </g>
     <g id="text_8">
      <!-- $\mathdefault{10}$ -->
      <g transform="translate(28.747696 155.441931) scale(0.14 -0.14)">
       <use xlink:href="#CMR17-31" transform="scale(0.996264)"/>
       <use xlink:href="#CMR17-30" transform="translate(45.690477 0) scale(0.996264)"/>
      </g>
     </g>
    </g>
    <g id="ytick_3">
     <g id="line2d_8">
      <g>
       <use xlink:href="#m484106d800" x="49.404673" y="116.84521" style="stroke: #000000; stroke-width: 0.8"/>
      </g>
     </g>
     <g id="text_9">
      <!-- $\mathdefault{20}$ -->
      <g transform="translate(28.747696 121.688148) scale(0.14 -0.14)">
       <use xlink:href="#CMR17-32" transform="scale(0.996264)"/>
       <use xlink:href="#CMR17-30" transform="translate(45.690477 0) scale(0.996264)"/>
      </g>
     </g>
    </g>
    <g id="ytick_4">
     <g id="line2d_9">
      <g>
       <use xlink:href="#m484106d800" x="49.404673" y="83.091427" style="stroke: #000000; stroke-width: 0.8"/>
      </g>
     </g>
     <g id="text_10">
      <!-- $\mathdefault{30}$ -->
      <g transform="translate(28.747696 87.934366) scale(0.14 -0.14)">
       <defs>
        <path id="CMR17-33" d="M 1414 2157 
C 1984 2157 2234 1662 2234 1090 
C 2234 320 1824 25 1453 25 
C 1114 25 563 194 390 693 
C 422 680 454 680 486 680 
C 640 680 755 782 755 948 
C 755 1133 614 1216 486 1216 
C 378 1216 211 1165 211 926 
C 211 335 787 -128 1466 -128 
C 2176 -128 2720 430 2720 1085 
C 2720 1707 2208 2157 1600 2227 
C 2086 2328 2554 2756 2554 3329 
C 2554 3820 2048 4179 1472 4179 
C 890 4179 378 3829 378 3329 
C 378 3110 544 3072 627 3072 
C 762 3072 877 3155 877 3321 
C 877 3486 762 3569 627 3569 
C 602 3569 570 3569 544 3557 
C 730 3959 1235 4032 1459 4032 
C 1683 4032 2106 3925 2106 3320 
C 2106 3143 2080 2828 1862 2550 
C 1670 2304 1453 2304 1242 2284 
C 1210 2284 1062 2269 1037 2269 
C 992 2263 966 2257 966 2208 
C 966 2163 973 2157 1101 2157 
L 1414 2157 
z
" transform="scale(0.015625)"/>
       </defs>
       <use xlink:href="#CMR17-33" transform="scale(0.996264)"/>
       <use xlink:href="#CMR17-30" transform="translate(45.690477 0) scale(0.996264)"/>
      </g>
     </g>
    </g>
    <g id="ytick_5">
     <g id="line2d_10">
      <g>
       <use xlink:href="#m484106d800" x="49.404673" y="49.337645" style="stroke: #000000; stroke-width: 0.8"/>
      </g>
     </g>
     <g id="text_11">
      <!-- $\mathdefault{40}$ -->
      <g transform="translate(28.747696 54.180583) scale(0.14 -0.14)">
       <use xlink:href="#CMR17-34" transform="scale(0.996264)"/>
       <use xlink:href="#CMR17-30" transform="translate(45.690477 0) scale(0.996264)"/>
      </g>
     </g>
    </g>
    <g id="ytick_6">
     <g id="line2d_11">
      <g>
       <use xlink:href="#m484106d800" x="49.404673" y="15.583862" style="stroke: #000000; stroke-width: 0.8"/>
      </g>
     </g>
     <g id="text_12">
      <!-- $\mathdefault{50}$ -->
      <g transform="translate(28.747696 20.4268) scale(0.14 -0.14)">
       <defs>
        <path id="CMR17-35" d="M 730 3692 
C 794 3666 1056 3584 1325 3584 
C 1920 3584 2246 3911 2432 4100 
C 2432 4157 2432 4192 2394 4192 
C 2387 4192 2374 4192 2323 4163 
C 2099 4058 1837 3973 1517 3973 
C 1325 3973 1037 3999 723 4139 
C 653 4171 640 4171 634 4171 
C 602 4171 595 4164 595 4037 
L 595 2203 
C 595 2089 595 2057 659 2057 
C 691 2057 704 2070 736 2114 
C 941 2401 1222 2522 1542 2522 
C 1766 2522 2246 2382 2246 1289 
C 2246 1085 2246 715 2054 421 
C 1894 159 1645 25 1370 25 
C 947 25 518 320 403 814 
C 429 807 480 795 506 795 
C 589 795 749 840 749 1038 
C 749 1210 627 1280 506 1280 
C 358 1280 262 1190 262 1011 
C 262 454 704 -128 1382 -128 
C 2042 -128 2669 440 2669 1264 
C 2669 2030 2170 2624 1549 2624 
C 1222 2624 947 2503 730 2274 
L 730 3692 
z
" transform="scale(0.015625)"/>
       </defs>
       <use xlink:href="#CMR17-35" transform="scale(0.996264)"/>
       <use xlink:href="#CMR17-30" transform="translate(45.690477 0) scale(0.996264)"/>
      </g>
     </g>
    </g>
    <g id="text_13">
     <!-- $\phi(P, S)$ -->
     <g transform="translate(21.260772 125.028223) rotate(-90) scale(0.14 -0.14)">
      <defs>
       <path id="CMMI12-1e" d="M 2752 4390 
C 2752 4448 2707 4448 2688 4448 
C 2630 4448 2624 4435 2598 4326 
L 2253 2939 
C 2234 2856 2227 2849 2221 2843 
C 2214 2830 2170 2824 2157 2824 
C 1107 2734 301 1864 301 1057 
C 301 361 832 -64 1498 -64 
C 1446 -261 1402 -463 1350 -659 
C 1261 -995 1210 -1204 1210 -1229 
C 1210 -1241 1210 -1280 1274 -1280 
C 1293 -1280 1318 -1280 1331 -1254 
C 1344 -1241 1382 -1089 1408 -1008 
L 1645 -64 
C 2739 -64 3571 854 3571 1680 
C 3571 2343 3085 2816 2374 2816 
L 2752 4390 
z
M 2336 2701 
C 2758 2701 3181 2463 3181 1828 
C 3181 1097 2675 128 1677 50 
L 2336 2701 
z
M 1530 50 
C 1216 50 691 220 691 938 
C 691 1761 1274 2676 2195 2676 
L 1530 50 
z
" transform="scale(0.015625)"/>
       <path id="CMR17-28" d="M 1958 -1561 
C 1958 -1555 1958 -1542 1939 -1523 
C 1645 -1224 858 -407 858 1581 
C 858 3569 1632 4379 1946 4697 
C 1946 4704 1958 4717 1958 4736 
C 1958 4755 1939 4768 1914 4768 
C 1843 4768 1299 4296 986 3594 
C 666 2887 576 2199 576 1588 
C 576 1128 621 351 1005 -471 
C 1312 -1135 1837 -1600 1914 -1600 
C 1946 -1600 1958 -1587 1958 -1561 
z
" transform="scale(0.015625)"/>
       <path id="CMMI12-50" d="M 1894 2023 
L 2970 2023 
C 3853 2023 4736 2673 4736 3401 
C 4736 3898 4314 4352 3507 4352 
L 1530 4352 
C 1408 4352 1350 4352 1350 4231 
C 1350 4167 1408 4167 1504 4167 
C 1894 4167 1894 4116 1894 4046 
C 1894 4034 1894 3995 1869 3899 
L 1005 472 
C 947 249 934 185 486 185 
C 365 185 301 185 301 70 
C 301 0 358 0 397 0 
C 518 0 646 0 768 0 
L 1517 0 
C 1638 0 1773 0 1894 0 
C 1946 0 2016 0 2016 121 
C 2016 185 1958 185 1862 185 
C 1478 185 1472 230 1472 293 
C 1472 325 1478 369 1485 401 
L 1894 2023 
z
M 2355 3930 
C 2413 4167 2438 4167 2688 4167 
L 3322 4167 
C 3802 4167 4198 4013 4198 3535 
C 4198 3369 4115 2827 3821 2534 
C 3712 2419 3405 2176 2822 2176 
L 1920 2176 
L 2355 3930 
z
" transform="scale(0.015625)"/>
       <path id="CMMI12-3b" d="M 1248 -31 
C 1248 343 1126 619 864 619 
C 659 619 557 453 557 313 
C 557 172 653 0 870 0 
C 954 0 1024 26 1082 83 
C 1094 96 1101 96 1107 96 
C 1120 96 1120 5 1120 -27 
C 1120 -240 1082 -659 710 -1080 
C 640 -1157 640 -1170 640 -1183 
C 640 -1216 672 -1248 704 -1248 
C 755 -1248 1248 -771 1248 -31 
z
" transform="scale(0.015625)"/>
       <path id="CMMI12-53" d="M 4064 4423 
C 4064 4480 4019 4480 4006 4480 
C 3981 4480 3974 4474 3898 4378 
C 3859 4333 3597 4001 3590 3995 
C 3379 4410 2957 4480 2688 4480 
C 1875 4480 1139 3743 1139 3025 
C 1139 2549 1427 2269 1741 2161 
C 1811 2135 2189 2033 2381 1989 
C 2707 1900 2790 1875 2925 1735 
C 2950 1703 3078 1557 3078 1258 
C 3078 667 2528 57 1888 57 
C 1363 57 781 280 781 991 
C 781 1112 806 1265 826 1328 
C 826 1348 832 1378 832 1391 
C 832 1417 819 1449 768 1449 
C 710 1449 704 1436 678 1328 
L 352 24 
C 352 18 326 -64 326 -71 
C 326 -128 378 -128 390 -128 
C 416 -128 422 -122 499 -26 
L 794 356 
C 947 126 1280 -128 1875 -128 
C 2701 -128 3456 666 3456 1460 
C 3456 1728 3392 1963 3149 2197 
C 3014 2331 2899 2363 2310 2516 
C 1882 2630 1824 2649 1709 2751 
C 1600 2858 1517 3011 1517 3227 
C 1517 3761 2061 4308 2669 4308 
C 3296 4308 3590 3926 3590 3323 
C 3590 3158 3558 2986 3558 2961 
C 3558 2903 3610 2903 3629 2903 
C 3686 2903 3693 2922 3718 3024 
L 4064 4423 
z
" transform="scale(0.015625)"/>
       <path id="CMR17-29" d="M 1683 1581 
C 1683 2040 1638 2817 1254 3639 
C 947 4303 422 4768 346 4768 
C 326 4768 301 4761 301 4729 
C 301 4717 307 4710 314 4697 
C 621 4378 1402 3568 1402 1584 
C 1402 -407 627 -1217 314 -1537 
C 307 -1549 301 -1556 301 -1568 
C 301 -1600 326 -1600 346 -1600 
C 416 -1600 960 -1128 1274 -426 
C 1594 281 1683 969 1683 1581 
z
" transform="scale(0.015625)"/>
      </defs>
      <use xlink:href="#CMMI12-1e" transform="scale(0.996264)"/>
      <use xlink:href="#CMR17-28" transform="translate(57.73418 0) scale(0.996264)"/>
      <use xlink:href="#CMMI12-50" transform="translate(93.014948 0) scale(0.996264)"/>
      <use xlink:href="#CMMI12-3b" transform="translate(158.601898 0) scale(0.996264)"/>
      <use xlink:href="#CMMI12-53" transform="translate(202.30348 0) scale(0.996264)"/>
      <use xlink:href="#CMR17-29" transform="translate(268.09792 0) scale(0.996264)"/>
     </g>
    </g>
   </g>
   <g id="line2d_12">
    <path d="M 64.598195 176.804547 
L 65.463393 173.366738 
L 66.408218 168.848582 
L 67.311684 163.512636 
L 68.637812 153.579611 
L 74.463596 108.290571 
L 77.301231 88.864319 
L 81.106304 67.631159 
L 86.148387 47.809863 
L 92.672438 31.710157 
L 100.808373 21.750587 
L 110.467974 21.605924 
L 121.28585 30.513522 
L 132.671418 46.181558 
L 143.974788 64.886539 
L 154.658833 84.104367 
L 164.410972 100.822181 
L 173.143774 114.648994 
L 180.935209 125.307419 
L 187.942958 133.316387 
L 194.349099 139.205176 
L 200.322623 143.362339 
L 206.003892 146.15151 
L 211.500475 148.141278 
L 216.892646 149.959652 
L 222.23317 151.150728 
L 227.55656 152.116435 
L 238.215029 153.749472 
L 259.54566 156.877717 
L 270.021465 158.685142 
L 280.194623 160.670714 
L 294.596305 163.764187 
L 307.644975 166.82877 
L 319.099722 169.768925 
L 328.859736 172.478285 
L 339.281712 175.616045 
L 346.994949 178.16939 
L 352.406647 180.223822 
L 355.956733 181.785972 
L 358.058527 182.901316 
L 358.901274 183.530773 
L 359.258017 184.038188 
L 359.235421 184.4425 
L 358.922238 184.749297 
L 358.176082 185.024824 
L 356.899866 185.214878 
L 354.170924 185.334783 
L 350.250048 185.270454 
L 345.738242 184.951978 
L 341.068053 184.674156 
L 335.446714 184.638975 
L 329.093479 184.638853 
L 329.093479 184.638853 
" clip-path="url(#p2b2846b46e)" style="fill: none; stroke: #1f77b4; stroke-width: 2; stroke-linecap: square"/>
   </g>
   <g id="line2d_13">
    <path d="M 64.79415 176.799598 
L 65.691517 173.356838 
L 66.673359 168.841535 
L 67.61292 163.531396 
L 68.992633 153.662166 
L 75.054222 108.389028 
L 78.003867 89.020937 
L 81.954296 67.86979 
L 87.179052 47.942435 
L 93.921159 31.484234 
L 102.29932 21.495499 
L 112.204871 21.861411 
L 123.248479 31.168887 
L 134.822173 47.038768 
L 146.272034 65.53817 
L 157.068862 84.481107 
L 166.913016 101.222825 
L 175.729027 115.012492 
L 183.602748 125.566317 
L 190.695364 133.500447 
L 197.189565 139.336489 
L 203.253685 143.393828 
L 209.026348 146.249378 
L 214.613473 148.560695 
L 220.093846 150.036187 
L 225.518935 151.164322 
L 236.320853 153.084424 
L 252.52335 155.519645 
L 263.247602 157.155559 
L 273.774877 158.964932 
L 283.970648 160.941345 
L 298.360661 164.018099 
L 311.358126 167.080514 
L 322.739836 170.024501 
L 335.272936 173.54507 
L 346.88495 177.069247 
L 353.344743 179.26818 
L 357.758291 181.031126 
L 360.55463 182.343032 
L 362.11519 183.28726 
L 362.668733 183.834122 
L 362.818496 184.27671 
L 362.656779 184.62217 
L 362.259349 184.876153 
L 361.467895 185.09754 
L 359.940111 185.26679 
L 356.789902 185.34396 
L 353.107221 185.216242 
L 343.0585 184.640495 
L 333.164722 184.638853 
L 333.164722 184.638853 
" clip-path="url(#p2b2846b46e)" style="fill: none; stroke: #1f77b4; stroke-width: 2; stroke-linecap: square"/>
   </g>
   <g id="line2d_14">
    <path d="M 64.329141 176.811326 
L 65.201144 173.378119 
L 66.150721 168.855396 
L 67.056894 163.496512 
L 68.385474 153.520555 
L 74.219891 108.249863 
L 77.062517 88.810104 
L 80.874369 67.563778 
L 85.924411 47.779424 
L 92.455118 31.749686 
L 100.591448 21.791661 
L 110.237844 21.57497 
L 121.021876 30.427278 
L 132.350112 46.058953 
L 143.575966 64.771608 
L 154.17055 84.027973 
L 163.830683 100.728604 
L 172.476411 114.555257 
L 180.189957 125.239266 
L 187.130203 133.272734 
L 193.478649 139.186161 
L 199.402902 143.388365 
L 205.041711 146.116432 
L 215.859538 149.93605 
L 221.16984 151.135576 
L 226.46526 152.079857 
L 237.074512 153.673822 
L 253.039008 155.954681 
L 263.590156 157.65685 
L 273.920136 159.566446 
L 288.707791 162.644779 
L 302.292692 165.734932 
L 314.388208 168.733958 
L 324.846118 171.53898 
L 336.215679 174.848409 
L 344.835157 177.570019 
L 351.071795 179.755589 
L 356.165593 181.783175 
L 358.995169 183.118434 
L 360.082425 183.868848 
L 360.395076 184.305516 
L 360.382164 184.644467 
L 360.120557 184.89251 
L 359.491672 185.107936 
L 358.173173 185.271686 
L 355.319653 185.341645 
L 351.893826 185.206642 
L 342.754008 184.6435 
L 331.933307 184.638853 
L 331.933307 184.638853 
" clip-path="url(#p2b2846b46e)" style="fill: none; stroke: #1f77b4; stroke-width: 2; stroke-linecap: square"/>
   </g>
   <g id="line2d_15">
    <path d="M 64.79415 176.799598 
L 65.691517 173.356838 
L 66.673359 168.841535 
L 67.61292 163.531396 
L 68.992633 153.662166 
L 75.054222 108.389028 
L 78.003867 89.020937 
L 81.954296 67.86979 
L 87.179052 47.942435 
L 93.921159 31.484234 
L 102.29932 21.495499 
L 112.204871 21.861411 
L 123.248479 31.168887 
L 134.822173 47.038768 
L 146.272034 65.53817 
L 157.068862 84.481107 
L 166.913016 101.222825 
L 175.729027 115.012492 
L 183.602748 125.566317 
L 190.695364 133.500447 
L 197.189565 139.336489 
L 203.253685 143.393828 
L 209.026348 146.249378 
L 214.613473 148.560695 
L 220.093846 150.036187 
L 225.518935 151.164322 
L 236.320853 153.084424 
L 252.52335 155.519645 
L 263.247602 157.155559 
L 273.774877 158.964932 
L 283.970648 160.941345 
L 298.360661 164.018099 
L 311.358126 167.080514 
L 322.739836 170.024501 
L 335.272936 173.54507 
L 346.88495 177.069247 
L 353.344743 179.26818 
L 357.758291 181.031126 
L 360.55463 182.343032 
L 362.11519 183.28726 
L 362.668733 183.834122 
L 362.818496 184.27671 
L 362.656779 184.62217 
L 362.259349 184.876153 
L 361.467895 185.09754 
L 359.940111 185.26679 
L 356.789902 185.34396 
L 353.107221 185.216242 
L 343.0585 184.640495 
L 333.164686 184.638854 
L 333.164686 184.638854 
" clip-path="url(#p2b2846b46e)" style="fill: none; stroke: #1f77b4; stroke-width: 2; stroke-linecap: square"/>
   </g>
   <g id="patch_3">
    <path d="M 49.404673 193.536948 
L 49.404673 13.303049 
" style="fill: none; stroke: #000000; stroke-width: 0.8; stroke-linejoin: miter; stroke-linecap: square"/>
   </g>
   <g id="patch_4">
    <path d="M 377.742964 193.536948 
L 377.742964 13.303049 
" style="fill: none; stroke: #000000; stroke-width: 0.8; stroke-linejoin: miter; stroke-linecap: square"/>
   </g>
   <g id="patch_5">
    <path d="M 49.404673 193.536948 
L 377.742964 193.536948 
" style="fill: none; stroke: #000000; stroke-width: 0.8; stroke-linejoin: miter; stroke-linecap: square"/>
   </g>
   <g id="patch_6">
    <path d="M 49.404673 13.303049 
L 377.742964 13.303049 
" style="fill: none; stroke: #000000; stroke-width: 0.8; stroke-linejoin: miter; stroke-linecap: square"/>
   </g>
   <g id="legend_1"/>
  </g>
 </g>
 <defs>
  <clipPath id="p2b2846b46e">
   <rect x="49.404673" y="13.303049" width="328.33829" height="180.233899"/>
  </clipPath>
 </defs>
</svg>
