<?xml version="1.0" encoding="utf-8" standalone="no"?>
<!DOCTYPE svg PUBLIC "-//W3C//DTD SVG 1.1//EN"
  "http://www.w3.org/Graphics/SVG/1.1/DTD/svg11.dtd">
<svg xmlns:xlink="http://www.w3.org/1999/xlink" width="388.542964pt" height="240.132758pt" viewBox="0 0 388.542964 240.132758" xmlns="http://www.w3.org/2000/svg" version="1.1">
 <metadata>
  <rdf:RDF xmlns:dc="http://purl.org/dc/elements/1.1/" xmlns:cc="http://creativecommons.org/ns#" xmlns:rdf="http://www.w3.org/1999/02/22-rdf-syntax-ns#">
   <cc:Work>
    <dc:type rdf:resource="http://purl.org/dc/dcmitype/StillImage"/>
    <dc:date>2024-12-29T12:59:40.381450</dc:date>
    <dc:format>image/svg+xml</dc:format>
    <dc:creator>
     <cc:Agent>
      <dc:title>Matplotlib v3.7.5, https://matplotlib.org/</dc:title>
     </cc:Agent>
    </dc:creator>
   </cc:Work>
  </rdf:RDF>
 </metadata>
 <defs>
  <style type="text/css">*{stroke-linejoin: round; stroke-linecap: butt}</style>
 </defs>
 <g id="figure_1">
  <g id="patch_1">
   <path d="M 0 240.132758 
L 388.542964 240.132758 
L 388.542964 0 
L 0 0 
z
" style="fill: #ffffff"/>
  </g>
  <g id="axes_1">
   <g id="patch_2">
    <path d="M 51.648487 193.536948 
L 377.742964 193.536948 
L 377.742964 10.8 
L 51.648487 10.8 
z
" style="fill: #ffffff"/>
   </g>
   <g id="matplotlib.axis_1">
    <g id="xtick_1">
     <g id="line2d_1">
      <defs>
       <path id="m801ca5f533" d="M 0 0 
L 0 3.5 
" style="stroke: #000000; stroke-width: 0.8"/>
      </defs>
      <g>
       <use xlink:href="#m801ca5f533" x="66.470963" y="193.536948" style="stroke: #000000; stroke-width: 0.8"/>
      </g>
     </g>
     <g id="text_1">
      <!-- $\mathdefault{0.0}$ -->
      <g transform="translate(57.745672 210.222825) scale(0.14 -0.14)">
       <defs>
        <path id="CMR17-30" d="M 2688 2025 
C 2688 2416 2682 3080 2413 3591 
C 2176 4039 1798 4198 1466 4198 
C 1158 4198 768 4058 525 3597 
C 269 3118 243 2524 243 2025 
C 243 1661 250 1106 448 619 
C 723 -39 1216 -128 1466 -128 
C 1760 -128 2208 -7 2470 600 
C 2662 1042 2688 1559 2688 2025 
z
M 1466 -26 
C 1056 -26 813 325 723 812 
C 653 1188 653 1738 653 2096 
C 653 2588 653 2997 736 3387 
C 858 3929 1216 4096 1466 4096 
C 1728 4096 2067 3923 2189 3400 
C 2272 3036 2278 2607 2278 2096 
C 2278 1680 2278 1169 2202 792 
C 2067 95 1690 -26 1466 -26 
z
" transform="scale(0.015625)"/>
        <path id="CMMI12-3a" d="M 1178 307 
C 1178 492 1024 619 870 619 
C 685 619 557 466 557 313 
C 557 128 710 0 864 0 
C 1050 0 1178 153 1178 307 
z
" transform="scale(0.015625)"/>
       </defs>
       <use xlink:href="#CMR17-30" transform="scale(0.996264)"/>
       <use xlink:href="#CMMI12-3a" transform="translate(45.690477 0) scale(0.996264)"/>
       <use xlink:href="#CMR17-30" transform="translate(72.787654 0) scale(0.996264)"/>
      </g>
     </g>
    </g>
    <g id="xtick_2">
     <g id="line2d_2">
      <g>
       <use xlink:href="#m801ca5f533" x="125.760868" y="193.536948" style="stroke: #000000; stroke-width: 0.8"/>
      </g>
     </g>
     <g id="text_2">
      <!-- $\mathdefault{0.2}$ -->
      <g transform="translate(117.035577 210.222825) scale(0.14 -0.14)">
       <defs>
        <path id="CMR17-32" d="M 2669 989 
L 2554 989 
C 2490 536 2438 459 2413 420 
C 2381 369 1920 369 1830 369 
L 602 369 
C 832 619 1280 1072 1824 1597 
C 2214 1967 2669 2402 2669 3035 
C 2669 3790 2067 4224 1395 4224 
C 691 4224 262 3604 262 3030 
C 262 2780 448 2748 525 2748 
C 589 2748 781 2787 781 3010 
C 781 3207 614 3264 525 3264 
C 486 3264 448 3258 422 3245 
C 544 3790 915 4058 1306 4058 
C 1862 4058 2227 3617 2227 3035 
C 2227 2479 1901 2000 1536 1584 
L 262 146 
L 262 0 
L 2515 0 
L 2669 989 
z
" transform="scale(0.015625)"/>
       </defs>
       <use xlink:href="#CMR17-30" transform="scale(0.996264)"/>
       <use xlink:href="#CMMI12-3a" transform="translate(45.690477 0) scale(0.996264)"/>
       <use xlink:href="#CMR17-32" transform="translate(72.787654 0) scale(0.996264)"/>
      </g>
     </g>
    </g>
    <g id="xtick_3">
     <g id="line2d_3">
      <g>
       <use xlink:href="#m801ca5f533" x="185.050773" y="193.536948" style="stroke: #000000; stroke-width: 0.8"/>
      </g>
     </g>
     <g id="text_3">
      <!-- $\mathdefault{0.4}$ -->
      <g transform="translate(176.325482 210.222825) scale(0.14 -0.14)">
       <defs>
        <path id="CMR17-34" d="M 2150 4122 
C 2150 4256 2144 4256 2029 4256 
L 128 1254 
L 128 1088 
L 1779 1088 
L 1779 457 
C 1779 224 1766 160 1318 160 
L 1197 160 
L 1197 0 
C 1402 0 1747 0 1965 0 
C 2182 0 2528 0 2733 0 
L 2733 160 
L 2611 160 
C 2163 160 2150 224 2150 457 
L 2150 1088 
L 2803 1088 
L 2803 1254 
L 2150 1254 
L 2150 4122 
z
M 1798 3703 
L 1798 1254 
L 256 1254 
L 1798 3703 
z
" transform="scale(0.015625)"/>
       </defs>
       <use xlink:href="#CMR17-30" transform="scale(0.996264)"/>
       <use xlink:href="#CMMI12-3a" transform="translate(45.690477 0) scale(0.996264)"/>
       <use xlink:href="#CMR17-34" transform="translate(72.787654 0) scale(0.996264)"/>
      </g>
     </g>
    </g>
    <g id="xtick_4">
     <g id="line2d_4">
      <g>
       <use xlink:href="#m801ca5f533" x="244.340678" y="193.536948" style="stroke: #000000; stroke-width: 0.8"/>
      </g>
     </g>
     <g id="text_4">
      <!-- $\mathdefault{0.6}$ -->
      <g transform="translate(235.615387 210.222825) scale(0.14 -0.14)">
       <defs>
        <path id="CMR17-36" d="M 678 2176 
C 678 3690 1395 4032 1811 4032 
C 1946 4032 2272 4009 2400 3776 
C 2298 3776 2106 3776 2106 3553 
C 2106 3381 2246 3323 2336 3323 
C 2394 3323 2566 3348 2566 3560 
C 2566 3954 2246 4179 1805 4179 
C 1043 4179 243 3390 243 1984 
C 243 253 966 -128 1478 -128 
C 2099 -128 2688 427 2688 1283 
C 2688 2081 2170 2662 1517 2662 
C 1126 2662 838 2407 678 1960 
L 678 2176 
z
M 1478 25 
C 691 25 691 1200 691 1436 
C 691 1896 909 2560 1504 2560 
C 1613 2560 1926 2560 2138 2120 
C 2253 1870 2253 1609 2253 1289 
C 2253 944 2253 690 2118 434 
C 1978 171 1773 25 1478 25 
z
" transform="scale(0.015625)"/>
       </defs>
       <use xlink:href="#CMR17-30" transform="scale(0.996264)"/>
       <use xlink:href="#CMMI12-3a" transform="translate(45.690477 0) scale(0.996264)"/>
       <use xlink:href="#CMR17-36" transform="translate(72.787654 0) scale(0.996264)"/>
      </g>
     </g>
    </g>
    <g id="xtick_5">
     <g id="line2d_5">
      <g>
       <use xlink:href="#m801ca5f533" x="303.630583" y="193.536948" style="stroke: #000000; stroke-width: 0.8"/>
      </g>
     </g>
     <g id="text_5">
      <!-- $\mathdefault{0.8}$ -->
      <g transform="translate(294.905292 210.222825) scale(0.14 -0.14)">
       <defs>
        <path id="CMR17-38" d="M 1741 2264 
C 2144 2467 2554 2773 2554 3263 
C 2554 3841 1990 4179 1472 4179 
C 890 4179 378 3759 378 3180 
C 378 3021 416 2747 666 2505 
C 730 2442 998 2251 1171 2130 
C 883 1983 211 1634 211 934 
C 211 279 838 -128 1459 -128 
C 2144 -128 2720 362 2720 1010 
C 2720 1590 2330 1857 2074 2029 
L 1741 2264 
z
M 902 2822 
C 851 2854 595 3051 595 3351 
C 595 3739 998 4032 1459 4032 
C 1965 4032 2336 3676 2336 3262 
C 2336 2669 1670 2331 1638 2331 
C 1632 2331 1626 2331 1574 2370 
L 902 2822 
z
M 2080 1519 
C 2176 1449 2483 1240 2483 851 
C 2483 381 2010 25 1472 25 
C 890 25 448 438 448 940 
C 448 1443 838 1862 1280 2060 
L 2080 1519 
z
" transform="scale(0.015625)"/>
       </defs>
       <use xlink:href="#CMR17-30" transform="scale(0.996264)"/>
       <use xlink:href="#CMMI12-3a" transform="translate(45.690477 0) scale(0.996264)"/>
       <use xlink:href="#CMR17-38" transform="translate(72.787654 0) scale(0.996264)"/>
      </g>
     </g>
    </g>
    <g id="xtick_6">
     <g id="line2d_6">
      <g>
       <use xlink:href="#m801ca5f533" x="362.920488" y="193.536948" style="stroke: #000000; stroke-width: 0.8"/>
      </g>
     </g>
     <g id="text_6">
      <!-- $\mathdefault{1.0}$ -->
      <g transform="translate(354.195197 210.222825) scale(0.14 -0.14)">
       <defs>
        <path id="CMR17-31" d="M 1702 4058 
C 1702 4192 1696 4192 1606 4192 
C 1357 3916 979 3827 621 3827 
C 602 3827 570 3827 563 3808 
C 557 3795 557 3782 557 3648 
C 755 3648 1088 3686 1344 3839 
L 1344 461 
C 1344 236 1331 160 781 160 
L 589 160 
L 589 0 
C 896 0 1216 0 1523 0 
C 1830 0 2150 0 2458 0 
L 2458 160 
L 2266 160 
C 1715 160 1702 230 1702 458 
L 1702 4058 
z
" transform="scale(0.015625)"/>
       </defs>
       <use xlink:href="#CMR17-31" transform="scale(0.996264)"/>
       <use xlink:href="#CMMI12-3a" transform="translate(45.690477 0) scale(0.996264)"/>
       <use xlink:href="#CMR17-30" transform="translate(72.787654 0) scale(0.996264)"/>
      </g>
     </g>
    </g>
    <g id="text_7">
     <!-- t -->
     <g transform="translate(212.040202 226.620729) scale(0.14 -0.14)">
      <defs>
       <path id="CMR17-74" d="M 966 2560 
L 1862 2560 
L 1862 2725 
L 966 2725 
L 966 3904 
L 851 3904 
C 838 3245 614 2668 70 2668 
L 70 2560 
L 627 2560 
L 627 771 
C 627 650 627 -64 1370 -64 
C 1747 -64 1965 306 1965 777 
L 1965 1140 
L 1850 1140 
L 1850 783 
C 1850 344 1677 51 1408 51 
C 1222 51 966 178 966 758 
L 966 2560 
z
" transform="scale(0.015625)"/>
      </defs>
      <use xlink:href="#CMR17-74" transform="scale(0.996264)"/>
     </g>
    </g>
   </g>
   <g id="matplotlib.axis_2">
    <g id="ytick_1">
     <g id="line2d_7">
      <defs>
       <path id="me1c09def77" d="M 0 0 
L -3.5 0 
" style="stroke: #000000; stroke-width: 0.8"/>
      </defs>
      <g>
       <use xlink:href="#me1c09def77" x="51.648487" y="167.159212" style="stroke: #000000; stroke-width: 0.8"/>
      </g>
     </g>
     <g id="text_8">
      <!-- $\mathdefault{0.2}$ -->
      <g transform="translate(27.197905 172.00215) scale(0.14 -0.14)">
       <use xlink:href="#CMR17-30" transform="scale(0.996264)"/>
       <use xlink:href="#CMMI12-3a" transform="translate(45.690477 0) scale(0.996264)"/>
       <use xlink:href="#CMR17-32" transform="translate(72.787654 0) scale(0.996264)"/>
      </g>
     </g>
    </g>
    <g id="ytick_2">
     <g id="line2d_8">
      <g>
       <use xlink:href="#me1c09def77" x="51.648487" y="134.10201" style="stroke: #000000; stroke-width: 0.8"/>
      </g>
     </g>
     <g id="text_9">
      <!-- $\mathdefault{0.4}$ -->
      <g transform="translate(27.197905 138.944948) scale(0.14 -0.14)">
       <use xlink:href="#CMR17-30" transform="scale(0.996264)"/>
       <use xlink:href="#CMMI12-3a" transform="translate(45.690477 0) scale(0.996264)"/>
       <use xlink:href="#CMR17-34" transform="translate(72.787654 0) scale(0.996264)"/>
      </g>
     </g>
    </g>
    <g id="ytick_3">
     <g id="line2d_9">
      <g>
       <use xlink:href="#me1c09def77" x="51.648487" y="101.044808" style="stroke: #000000; stroke-width: 0.8"/>
      </g>
     </g>
     <g id="text_10">
      <!-- $\mathdefault{0.6}$ -->
      <g transform="translate(27.197905 105.887747) scale(0.14 -0.14)">
       <use xlink:href="#CMR17-30" transform="scale(0.996264)"/>
       <use xlink:href="#CMMI12-3a" transform="translate(45.690477 0) scale(0.996264)"/>
       <use xlink:href="#CMR17-36" transform="translate(72.787654 0) scale(0.996264)"/>
      </g>
     </g>
    </g>
    <g id="ytick_4">
     <g id="line2d_10">
      <g>
       <use xlink:href="#me1c09def77" x="51.648487" y="67.987607" style="stroke: #000000; stroke-width: 0.8"/>
      </g>
     </g>
     <g id="text_11">
      <!-- $\mathdefault{0.8}$ -->
      <g transform="translate(27.197905 72.830545) scale(0.14 -0.14)">
       <use xlink:href="#CMR17-30" transform="scale(0.996264)"/>
       <use xlink:href="#CMMI12-3a" transform="translate(45.690477 0) scale(0.996264)"/>
       <use xlink:href="#CMR17-38" transform="translate(72.787654 0) scale(0.996264)"/>
      </g>
     </g>
    </g>
    <g id="ytick_5">
     <g id="line2d_11">
      <g>
       <use xlink:href="#me1c09def77" x="51.648487" y="34.930405" style="stroke: #000000; stroke-width: 0.8"/>
      </g>
     </g>
     <g id="text_12">
      <!-- $\mathdefault{1.0}$ -->
      <g transform="translate(27.197905 39.773343) scale(0.14 -0.14)">
       <use xlink:href="#CMR17-31" transform="scale(0.996264)"/>
       <use xlink:href="#CMMI12-3a" transform="translate(45.690477 0) scale(0.996264)"/>
       <use xlink:href="#CMR17-30" transform="translate(72.787654 0) scale(0.996264)"/>
      </g>
     </g>
    </g>
    <g id="text_13">
     <!-- P -->
     <g transform="translate(20.485876 106.814435) rotate(-90) scale(0.14 -0.14)">
      <defs>
       <path id="CMR17-50" d="M 1267 2042 
L 2291 2042 
C 3117 2042 3718 2578 3718 3184 
C 3718 3791 3130 4352 2291 4352 
L 333 4352 
L 333 4186 
C 774 4186 845 4186 845 3899 
L 845 446 
C 845 160 774 160 333 160 
L 333 0 
C 518 0 858 0 1056 0 
C 1254 0 1594 0 1779 0 
L 1779 160 
C 1338 160 1267 160 1267 446 
L 1267 2042 
z
M 1254 2176 
L 1254 3938 
C 1254 4155 1267 4186 1523 4186 
L 2170 4186 
C 2995 4186 3232 3714 3232 3184 
C 3232 2604 2950 2176 2170 2176 
L 1254 2176 
z
" transform="scale(0.015625)"/>
      </defs>
      <use xlink:href="#CMR17-50" transform="scale(0.996264)"/>
     </g>
    </g>
   </g>
   <g id="line2d_12">
    <path d="M 66.470963 184.967155 
L 69.948424 184.46974 
L 72.556519 183.928256 
L 74.295121 183.411562 
L 76.033851 182.654214 
L 76.903217 182.124087 
L 77.772453 181.438632 
L 78.641818 180.535859 
L 79.511183 179.331309 
L 80.380549 177.713536 
L 81.249913 175.544949 
L 82.119278 172.673124 
L 82.988644 168.960982 
L 83.858009 164.338474 
L 85.596738 152.739981 
L 88.204706 133.934986 
L 89.943307 123.547682 
L 91.682039 115.227121 
L 93.420768 108.256421 
L 96.028736 98.918005 
L 104.722514 69.1062 
L 108.199977 58.008092 
L 110.80807 50.482449 
L 113.416035 43.815953 
L 115.154767 39.887946 
L 116.893371 36.380169 
L 118.632738 33.283635 
L 120.371342 30.584455 
L 122.110074 28.257654 
L 123.848673 26.276198 
L 125.587405 24.609665 
L 127.326137 23.227633 
L 129.064736 22.099561 
L 130.803467 21.196189 
L 132.542071 20.49005 
L 134.280927 19.955668 
L 136.888896 19.426251 
L 139.496989 19.162912 
L 142.104959 19.10786 
L 145.58229 19.27672 
L 149.929115 19.75408 
L 156.014415 20.699165 
L 177.74854 24.334543 
L 186.44181 25.46626 
L 195.135327 26.376903 
L 205.567708 27.226622 
L 217.738566 27.974552 
L 234.256513 28.743052 
L 331.624112 32.864559 
L 362.920488 34.379512 
L 362.920488 34.379512 
" clip-path="url(#p32fa4fc9b9)" style="fill: none; stroke: #1f77b4; stroke-width: 3; stroke-linecap: square"/>
   </g>
   <g id="line2d_13">
    <path d="M 66.470963 184.91754 
L 68.635045 182.440925 
L 70.769481 179.656771 
L 72.903918 176.502915 
L 75.067999 172.899245 
L 77.261726 168.804139 
L 79.514742 164.116471 
L 81.856693 158.717721 
L 84.317224 152.476543 
L 86.98527 145.088274 
L 90.009055 136.032181 
L 93.744319 124.096152 
L 105.187271 87.010216 
L 108.211056 78.256702 
L 110.908747 71.108265 
L 113.398923 65.119505 
L 115.770519 59.979105 
L 118.05318 55.547749 
L 120.276552 51.702823 
L 122.470278 48.341226 
L 124.664005 45.379623 
L 126.857731 42.785414 
L 129.081103 40.496089 
L 131.363764 38.464635 
L 133.705715 36.677555 
L 136.136601 35.100822 
L 138.686067 33.710022 
L 141.413403 32.475392 
L 144.377898 31.381388 
L 147.609198 30.429506 
L 151.225882 29.601264 
L 155.316886 28.897489 
L 160.089723 28.307878 
L 165.870489 27.827484 
L 173.222437 27.45475 
L 183.034916 27.193756 
L 198.124197 27.034098 
L 231.741573 26.966455 
L 362.890843 26.965332 
L 362.890843 26.965332 
" clip-path="url(#p32fa4fc9b9)" style="fill: none; stroke-dasharray: 3,4.95; stroke-dashoffset: 0; stroke: #d62728; stroke-width: 3"/>
   </g>
   <g id="line2d_14">
    <path d="M 66.470963 184.91754 
L 68.66469 182.592311 
L 70.799126 179.999465 
L 72.874273 177.125136 
L 74.919775 173.908984 
L 76.965276 170.269404 
L 78.981133 166.225242 
L 81.026635 161.614573 
L 83.101781 156.374443 
L 85.206573 150.446321 
L 87.4003 143.588931 
L 89.712606 135.615144 
L 92.262072 125.99674 
L 95.285857 113.674751 
L 105.039046 73.177245 
L 107.292063 65.204379 
L 109.307919 58.868628 
L 111.175551 53.719341 
L 112.924604 49.527148 
L 114.614366 46.032936 
L 116.274483 43.095411 
L 117.934601 40.603819 
L 119.594718 38.508968 
L 121.28448 36.73244 
L 123.003887 35.241102 
L 124.81223 33.963075 
L 126.739151 32.87244 
L 128.843943 31.939552 
L 131.185894 31.150442 
L 133.824295 30.499217 
L 136.96666 29.9605 
L 140.820504 29.537187 
L 145.860146 29.223033 
L 153.123159 29.015337 
L 165.692619 28.909233 
L 206.069044 28.88616 
L 362.890843 28.88616 
L 362.890843 28.88616 
" clip-path="url(#p32fa4fc9b9)" style="fill: none; stroke-dasharray: 11.1,4.8; stroke-dashoffset: 0; stroke: #d62728; stroke-width: 3"/>
   </g>
   <g id="line2d_15">
    <path d="M 66.470963 184.91754 
L 69.524393 184.305292 
L 71.866344 183.6194 
L 73.733976 182.851048 
L 75.275514 181.984546 
L 76.579892 181.003141 
L 77.736045 179.853443 
L 78.773618 178.499723 
L 79.722257 176.886464 
L 80.611605 174.92499 
L 81.471309 172.474159 
L 82.331013 169.315396 
L 83.190716 165.286241 
L 84.139355 159.704378 
L 85.265863 151.61212 
L 87.252075 135.292148 
L 89.119707 120.747619 
L 90.542664 111.380392 
L 91.876687 104.034613 
L 93.21071 97.913199 
L 94.544733 92.809792 
L 95.908401 88.44667 
L 97.331359 84.632619 
L 98.783961 81.361619 
L 100.295854 78.491195 
L 101.896681 75.92729 
L 103.556799 73.682564 
L 105.305851 71.683946 
L 107.173483 69.883951 
L 109.18934 68.25254 
L 111.353421 66.790127 
L 113.695372 65.477737 
L 116.244838 64.304347 
L 119.061109 63.254547 
L 122.203474 62.324792 
L 125.701578 61.525209 
L 129.644357 60.855532 
L 134.15039 60.321731 
L 139.278966 59.943175 
L 145.237602 59.732987 
L 152.144876 59.717648 
L 160.326883 59.929077 
L 170.139362 60.414762 
L 181.878763 61.22398 
L 196.612304 62.471239 
L 215.347914 64.288771 
L 241.613342 67.080144 
L 283.353435 71.76944 
L 362.890843 80.804598 
L 362.890843 80.804598 
" clip-path="url(#p32fa4fc9b9)" style="fill: none; stroke-dasharray: 19.2,4.8,3,4.8; stroke-dashoffset: 0; stroke: #d62728; stroke-width: 3"/>
   </g>
   <g id="line2d_16">
    <path d="M 66.470963 185.081272 
L 69.948424 184.600682 
L 72.556519 184.075863 
L 74.295121 183.574016 
L 76.033851 182.837395 
L 76.903217 182.321387 
L 77.772453 181.653957 
L 78.641818 180.774713 
L 79.511183 179.601359 
L 80.380549 178.025144 
L 81.249913 175.911548 
L 82.119278 173.110832 
L 82.988644 169.486931 
L 83.858009 164.96768 
L 85.596738 153.593099 
L 88.204706 135.055477 
L 89.943307 124.787686 
L 91.682039 116.567214 
L 93.420768 109.690707 
L 96.028736 100.486591 
L 105.591879 68.123885 
L 108.199977 59.916605 
L 110.80807 52.399307 
L 113.416035 45.73151 
L 115.154767 41.801277 
L 116.893371 38.292465 
L 118.632738 35.197449 
L 120.371342 32.503391 
L 122.110074 30.186166 
L 123.848673 28.218936 
L 125.587405 26.571437 
L 127.326137 25.212911 
L 129.064736 24.112661 
L 130.803467 23.240952 
L 132.542071 22.569886 
L 134.280927 22.073473 
L 136.888896 21.605354 
L 139.496989 21.407195 
L 142.104959 21.419746 
L 145.58229 21.680386 
L 149.929115 22.272046 
L 156.014415 23.37076 
L 175.140446 27.015379 
L 182.964479 28.226029 
L 191.657996 29.328822 
L 200.35139 30.205929 
L 210.783647 31.023038 
L 222.955141 31.74825 
L 240.341928 32.544079 
L 313.367318 35.657479 
L 362.920488 38.162628 
L 362.920488 38.162628 
" clip-path="url(#p32fa4fc9b9)" style="fill: none; stroke: #1f77b4; stroke-width: 2; stroke-linecap: square"/>
   </g>
   <g id="line2d_17">
    <path d="M 66.470963 184.972426 
L 69.948424 184.473967 
L 72.556519 183.928586 
L 74.295121 183.406689 
L 76.033851 182.640303 
L 76.903217 182.103335 
L 77.772453 181.408751 
L 78.641818 180.493837 
L 79.511183 179.273285 
L 80.380549 177.634852 
L 81.249913 175.440515 
L 82.119278 172.538331 
L 82.988644 168.793307 
L 83.858009 164.139507 
L 85.596738 152.502921 
L 88.204706 133.716783 
L 89.943307 123.351661 
L 91.682039 115.038341 
L 93.420768 108.062596 
L 96.028736 98.708427 
L 104.722514 68.890336 
L 108.199977 57.820503 
L 110.80807 50.32545 
L 113.416035 43.695278 
L 115.154767 39.79393 
L 116.893371 36.314191 
L 118.632738 33.246592 
L 120.371342 30.576908 
L 122.110074 28.280037 
L 123.848673 26.328471 
L 125.587405 24.691829 
L 127.326137 23.339234 
L 129.064736 22.240245 
L 130.803467 21.365344 
L 132.542071 20.686968 
L 135.150292 19.98276 
L 137.758262 19.587387 
L 140.366227 19.43565 
L 143.843558 19.519292 
L 147.321021 19.83654 
L 152.537084 20.583701 
L 161.230478 22.138456 
L 173.401847 24.281067 
L 182.095241 25.565409 
L 190.788634 26.609327 
L 200.35139 27.508896 
L 210.783647 28.255565 
L 223.824511 28.953645 
L 243.819391 29.772764 
L 281.201448 31.29883 
L 306.412532 32.583841 
L 341.186743 34.608763 
L 362.920488 35.901183 
L 362.920488 35.901183 
" clip-path="url(#p32fa4fc9b9)" style="fill: none; stroke: #1f77b4; stroke-width: 2; stroke-linecap: square"/>
   </g>
   <g id="line2d_18">
    <path d="M 66.470963 185.230723 
L 69.948424 184.746354 
L 72.556519 184.218894 
L 74.295121 183.715544 
L 76.033851 182.97756 
L 76.903217 182.460812 
L 77.772453 181.792473 
L 78.641818 180.911959 
L 79.511183 179.736729 
L 80.380549 178.157742 
L 81.249913 176.04038 
L 82.119278 173.235243 
L 82.988644 169.607645 
L 83.858009 165.088175 
L 85.596738 153.739728 
L 88.204706 135.326703 
L 89.943307 125.158385 
L 91.682039 117.018673 
L 93.420768 110.201583 
L 96.028736 101.060449 
L 106.461245 66.010169 
L 109.069338 57.996654 
L 111.677436 50.71238 
L 114.285401 44.29151 
L 116.024133 40.521901 
L 117.762736 37.164008 
L 119.501976 34.206474 
L 121.240708 31.633023 
L 122.97944 29.418631 
L 124.718039 27.535713 
L 126.456771 25.954378 
L 128.195374 24.644639 
L 129.934102 23.576899 
L 131.672833 22.723042 
L 133.411561 22.056548 
L 136.01953 21.35565 
L 138.627623 20.949263 
L 141.235588 20.775595 
L 144.712928 20.817781 
L 148.190383 21.084174 
L 153.406446 21.746156 
L 162.099839 23.155498 
L 175.140446 25.247767 
L 183.83384 26.411305 
L 192.527366 27.361552 
L 202.090121 28.192553 
L 214.261235 29.008854 
L 230.779173 29.864701 
L 298.588376 33.146459 
L 362.920488 36.585195 
L 362.920488 36.585195 
" clip-path="url(#p32fa4fc9b9)" style="fill: none; stroke: #1f77b4; stroke-width: 2; stroke-linecap: square"/>
   </g>
   <g id="line2d_19">
    <path d="M 66.470963 184.972426 
L 69.948424 184.473967 
L 72.556519 183.928586 
L 74.295121 183.406689 
L 76.033851 182.640303 
L 76.903217 182.103335 
L 77.772453 181.408751 
L 78.641818 180.493837 
L 79.511183 179.273285 
L 80.380549 177.634852 
L 81.249913 175.440515 
L 82.119278 172.538331 
L 82.988644 168.793307 
L 83.858009 164.139507 
L 85.596738 152.502921 
L 88.204706 133.716783 
L 89.943307 123.351661 
L 91.682039 115.038341 
L 93.420768 108.062596 
L 96.028736 98.708427 
L 104.722514 68.890336 
L 108.199977 57.820503 
L 110.80807 50.32545 
L 113.416035 43.695278 
L 115.154767 39.79393 
L 116.893371 36.314191 
L 118.632738 33.246592 
L 120.371342 30.576908 
L 122.110074 28.280037 
L 123.848673 26.328471 
L 125.587405 24.691829 
L 127.326137 23.339234 
L 129.064736 22.240245 
L 130.803467 21.365344 
L 132.542071 20.686968 
L 135.150292 19.98276 
L 137.758262 19.587387 
L 140.366227 19.43565 
L 143.843558 19.519292 
L 147.321021 19.83654 
L 152.537084 20.583701 
L 161.230478 22.138456 
L 173.401847 24.281067 
L 182.095241 25.565409 
L 190.788634 26.609327 
L 200.35139 27.508896 
L 210.783647 28.255565 
L 223.824511 28.953645 
L 243.819391 29.772764 
L 281.201448 31.29883 
L 306.412532 32.583841 
L 341.186743 34.608763 
L 362.920488 35.901203 
L 362.920488 35.901203 
" clip-path="url(#p32fa4fc9b9)" style="fill: none; stroke: #1f77b4; stroke-width: 2; stroke-linecap: square"/>
   </g>
   <g id="line2d_20">
    <path d="M 66.470963 184.91754 
L 70.324807 184.369068 
L 72.992853 183.788772 
L 75.067999 183.113419 
L 76.550247 182.385532 
L 77.736045 181.545317 
L 78.625394 180.682076 
L 79.514742 179.533281 
L 80.404091 177.976586 
L 81.293439 175.873374 
L 82.182788 173.074297 
L 83.072136 169.460654 
L 83.961485 164.947513 
L 85.147283 157.620303 
L 89.594026 127.813084 
L 91.076274 120.333617 
L 92.558521 114.05312 
L 94.633668 106.425777 
L 99.080411 91.279963 
L 107.084548 64.553174 
L 109.752594 56.502538 
L 112.12419 50.007572 
L 114.199337 44.909544 
L 116.274483 40.393384 
L 118.05318 36.992745 
L 119.831878 34.018423 
L 121.610575 31.450745 
L 123.389272 29.262854 
L 125.167969 27.426082 
L 126.946666 25.91105 
L 128.725363 24.685622 
L 130.50406 23.714096 
L 132.579207 22.85287 
L 134.654354 22.235161 
L 137.02595 21.773781 
L 139.693996 21.510954 
L 142.658491 21.474522 
L 145.919436 21.667381 
L 150.069729 22.142613 
L 156.295169 23.10084 
L 180.60403 27.044895 
L 188.608167 27.993723 
L 197.501653 28.81036 
L 208.766735 29.605874 
L 226.257257 30.591804 
L 265.981493 32.551192 
L 362.624038 37.122513 
L 362.624038 37.122513 
" clip-path="url(#p32fa4fc9b9)" style="fill: none; stroke-dasharray: 19.2,4.8,3,4.8; stroke-dashoffset: 0; stroke: #2ca02c; stroke-width: 3"/>
   </g>
   <g id="patch_3">
    <path d="M 51.648487 193.536948 
L 51.648487 10.8 
" style="fill: none; stroke: #000000; stroke-width: 0.8; stroke-linejoin: miter; stroke-linecap: square"/>
   </g>
   <g id="patch_4">
    <path d="M 377.742964 193.536948 
L 377.742964 10.8 
" style="fill: none; stroke: #000000; stroke-width: 0.8; stroke-linejoin: miter; stroke-linecap: square"/>
   </g>
   <g id="patch_5">
    <path d="M 51.648487 193.536948 
L 377.742964 193.536948 
" style="fill: none; stroke: #000000; stroke-width: 0.8; stroke-linejoin: miter; stroke-linecap: square"/>
   </g>
   <g id="patch_6">
    <path d="M 51.648487 10.8 
L 377.742964 10.8 
" style="fill: none; stroke: #000000; stroke-width: 0.8; stroke-linejoin: miter; stroke-linecap: square"/>
   </g>
   <g id="legend_1">
    <g id="line2d_21">
     <path d="M 153.249405 131.429163 
L 167.249405 131.429163 
L 181.249405 131.429163 
" style="fill: none; stroke: #1f77b4; stroke-width: 3; stroke-linecap: square"/>
    </g>
    <g id="text_14">
     <!-- $\hat{P}$ -->
     <g transform="translate(192.449405 136.329163) scale(0.14 -0.14)">
      <defs>
       <path id="CMR17-5e" d="M 1466 4421 
L 678 3555 
L 755 3478 
L 1466 4166 
L 2176 3478 
L 2253 3555 
L 1466 4421 
z
" transform="scale(0.015625)"/>
       <path id="CMMI12-50" d="M 1894 2023 
L 2970 2023 
C 3853 2023 4736 2673 4736 3401 
C 4736 3898 4314 4352 3507 4352 
L 1530 4352 
C 1408 4352 1350 4352 1350 4231 
C 1350 4167 1408 4167 1504 4167 
C 1894 4167 1894 4116 1894 4046 
C 1894 4034 1894 3995 1869 3899 
L 1005 472 
C 947 249 934 185 486 185 
C 365 185 301 185 301 70 
C 301 0 358 0 397 0 
C 518 0 646 0 768 0 
L 1517 0 
C 1638 0 1773 0 1894 0 
C 1946 0 2016 0 2016 121 
C 2016 185 1958 185 1862 185 
C 1478 185 1472 230 1472 293 
C 1472 325 1478 369 1485 401 
L 1894 2023 
z
M 2355 3930 
C 2413 4167 2438 4167 2688 4167 
L 3322 4167 
C 3802 4167 4198 4013 4198 3535 
C 4198 3369 4115 2827 3821 2534 
C 3712 2419 3405 2176 2822 2176 
L 1920 2176 
L 2355 3930 
z
" transform="scale(0.015625)"/>
      </defs>
      <use xlink:href="#CMR17-5e" transform="translate(23.496833 25.189733) scale(0.996264)"/>
      <use xlink:href="#CMMI12-50" transform="scale(0.996264)"/>
     </g>
    </g>
    <g id="line2d_22">
     <path d="M 153.249405 151.602054 
L 167.249405 151.602054 
L 181.249405 151.602054 
" style="fill: none; stroke-dasharray: 3,4.95; stroke-dashoffset: 0; stroke: #d62728; stroke-width: 3"/>
    </g>
    <g id="text_15">
     <!-- $\sum \phi^s_{2} \cdot dt$ -->
     <g transform="translate(192.449405 156.502054) scale(0.14 -0.14)">
      <defs>
       <path id="CMEX10-50" d="M 2694 -3418 
L 422 -6227 
C 371 -6291 365 -6304 365 -6330 
C 365 -6400 422 -6400 538 -6400 
L 5843 -6400 
L 6394 -4806 
L 6234 -4806 
C 6074 -5286 5645 -5677 5101 -5862 
C 4998 -5894 4557 -6048 3616 -6048 
L 896 -6048 
L 3117 -3302 
C 3162 -3245 3174 -3226 3174 -3200 
C 3174 -3174 3168 -3168 3130 -3110 
L 1050 -256 
L 3584 -256 
C 4314 -256 5786 -301 6234 -1498 
L 6394 -1498 
L 5843 0 
L 538 0 
C 365 0 358 -6 358 -205 
L 2694 -3418 
z
" transform="scale(0.015625)"/>
       <path id="CMMI12-1e" d="M 2752 4390 
C 2752 4448 2707 4448 2688 4448 
C 2630 4448 2624 4435 2598 4326 
L 2253 2939 
C 2234 2856 2227 2849 2221 2843 
C 2214 2830 2170 2824 2157 2824 
C 1107 2734 301 1864 301 1057 
C 301 361 832 -64 1498 -64 
C 1446 -261 1402 -463 1350 -659 
C 1261 -995 1210 -1204 1210 -1229 
C 1210 -1241 1210 -1280 1274 -1280 
C 1293 -1280 1318 -1280 1331 -1254 
C 1344 -1241 1382 -1089 1408 -1008 
L 1645 -64 
C 2739 -64 3571 854 3571 1680 
C 3571 2343 3085 2816 2374 2816 
L 2752 4390 
z
M 2336 2701 
C 2758 2701 3181 2463 3181 1828 
C 3181 1097 2675 128 1677 50 
L 2336 2701 
z
M 1530 50 
C 1216 50 691 220 691 938 
C 691 1761 1274 2676 2195 2676 
L 1530 50 
z
" transform="scale(0.015625)"/>
       <path id="CMMI12-73" d="M 1459 1280 
C 1568 1261 1741 1223 1779 1216 
C 1862 1192 2150 1090 2150 783 
C 2150 586 1971 70 1229 70 
C 1094 70 614 70 486 436 
C 742 404 870 603 870 745 
C 870 880 781 950 653 950 
C 512 950 326 841 326 552 
C 326 173 710 -64 1222 -64 
C 2195 -64 2483 651 2483 984 
C 2483 1079 2483 1258 2278 1462 
C 2118 1616 1965 1648 1619 1718 
C 1446 1756 1171 1814 1171 2101 
C 1171 2229 1286 2689 1894 2689 
C 2163 2689 2426 2589 2490 2368 
C 2208 2368 2195 2125 2195 2119 
C 2195 1984 2317 1946 2374 1946 
C 2464 1946 2643 2015 2643 2281 
C 2643 2545 2400 2816 1901 2816 
C 1062 2816 838 2160 838 1899 
C 838 1414 1312 1312 1459 1280 
z
" transform="scale(0.015625)"/>
       <path id="CMSY10-1" d="M 1229 1619 
C 1229 1805 1075 1958 890 1958 
C 704 1958 550 1805 550 1619 
C 550 1433 704 1280 890 1280 
C 1075 1280 1229 1433 1229 1619 
z
" transform="scale(0.015625)"/>
       <path id="CMMI12-64" d="M 3219 4257 
C 3226 4282 3238 4320 3238 4352 
C 3238 4416 3174 4416 3162 4416 
C 3155 4416 2842 4388 2810 4380 
C 2701 4373 2605 4358 2490 4358 
C 2330 4345 2285 4339 2285 4224 
C 2285 4160 2336 4160 2426 4160 
C 2739 4160 2746 4103 2746 4040 
C 2746 4002 2733 3952 2726 3933 
L 2336 2395 
C 2266 2561 2093 2816 1760 2816 
C 1037 2816 256 1884 256 939 
C 256 307 627 -64 1062 -64 
C 1414 -64 1715 211 1894 422 
C 1958 45 2259 -64 2451 -64 
C 2643 -64 2797 51 2912 281 
C 3014 498 3104 888 3104 913 
C 3104 945 3078 971 3040 971 
C 2982 971 2976 939 2950 843 
C 2854 466 2733 64 2470 64 
C 2285 64 2272 229 2272 357 
C 2272 382 2272 515 2317 694 
L 3219 4257 
z
M 1926 760 
C 1894 651 1894 639 1805 517 
C 1664 338 1382 64 1082 64 
C 819 64 672 300 672 677 
C 672 1028 870 1743 992 2012 
C 1210 2459 1510 2689 1760 2689 
C 2182 2689 2266 2165 2266 2114 
C 2266 2108 2246 2024 2240 2012 
L 1926 760 
z
" transform="scale(0.015625)"/>
       <path id="CMMI12-74" d="M 1286 2566 
L 1875 2566 
C 1997 2566 2061 2566 2061 2681 
C 2061 2752 2022 2752 1894 2752 
L 1331 2752 
L 1568 3692 
C 1594 3781 1594 3794 1594 3840 
C 1594 3943 1510 4000 1427 4000 
C 1376 4000 1229 3981 1178 3775 
L 928 2752 
L 326 2752 
C 198 2752 141 2752 141 2630 
C 141 2566 186 2566 307 2566 
L 877 2566 
L 454 881 
C 403 658 384 594 384 511 
C 384 211 595 -64 954 -64 
C 1600 -64 1946 868 1946 912 
C 1946 951 1920 970 1882 970 
C 1869 970 1843 970 1830 944 
C 1824 938 1818 931 1773 829 
C 1638 511 1344 64 973 64 
C 781 64 768 224 768 364 
C 768 370 768 492 787 568 
L 1286 2566 
z
" transform="scale(0.015625)"/>
      </defs>
      <use xlink:href="#CMEX10-50" transform="translate(0 74.720454) scale(0.996264)"/>
      <use xlink:href="#CMMI12-1e" transform="translate(121.765958 0) scale(0.996264)"/>
      <use xlink:href="#CMMI12-73" transform="translate(179.500138 36.153639) scale(0.697382)"/>
      <use xlink:href="#CMR17-32" transform="translate(179.500138 -24.740171) scale(0.697382)"/>
      <use xlink:href="#CMSY10-1" transform="translate(234.302366 0) scale(0.996264)"/>
      <use xlink:href="#CMMI12-64" transform="translate(284.115658 0) scale(0.996264)"/>
      <use xlink:href="#CMMI12-74" transform="translate(334.804754 0) scale(0.996264)"/>
     </g>
    </g>
    <g id="line2d_23">
     <path d="M 153.249405 172.549933 
L 167.249405 172.549933 
L 181.249405 172.549933 
" style="fill: none; stroke-dasharray: 11.1,4.8; stroke-dashoffset: 0; stroke: #d62728; stroke-width: 3"/>
    </g>
    <g id="text_16">
     <!-- $\sum \phi^s_{3} \cdot dt$ -->
     <g transform="translate(192.449405 177.449933) scale(0.14 -0.14)">
      <defs>
       <path id="CMR17-33" d="M 1414 2157 
C 1984 2157 2234 1662 2234 1090 
C 2234 320 1824 25 1453 25 
C 1114 25 563 194 390 693 
C 422 680 454 680 486 680 
C 640 680 755 782 755 948 
C 755 1133 614 1216 486 1216 
C 378 1216 211 1165 211 926 
C 211 335 787 -128 1466 -128 
C 2176 -128 2720 430 2720 1085 
C 2720 1707 2208 2157 1600 2227 
C 2086 2328 2554 2756 2554 3329 
C 2554 3820 2048 4179 1472 4179 
C 890 4179 378 3829 378 3329 
C 378 3110 544 3072 627 3072 
C 762 3072 877 3155 877 3321 
C 877 3486 762 3569 627 3569 
C 602 3569 570 3569 544 3557 
C 730 3959 1235 4032 1459 4032 
C 1683 4032 2106 3925 2106 3320 
C 2106 3143 2080 2828 1862 2550 
C 1670 2304 1453 2304 1242 2284 
C 1210 2284 1062 2269 1037 2269 
C 992 2263 966 2257 966 2208 
C 966 2163 973 2157 1101 2157 
L 1414 2157 
z
" transform="scale(0.015625)"/>
      </defs>
      <use xlink:href="#CMEX10-50" transform="translate(0 74.720454) scale(0.996264)"/>
      <use xlink:href="#CMMI12-1e" transform="translate(121.765958 0) scale(0.996264)"/>
      <use xlink:href="#CMMI12-73" transform="translate(179.500138 36.153639) scale(0.697382)"/>
      <use xlink:href="#CMR17-33" transform="translate(179.500138 -24.740171) scale(0.697382)"/>
      <use xlink:href="#CMSY10-1" transform="translate(234.302366 0) scale(0.996264)"/>
      <use xlink:href="#CMMI12-64" transform="translate(284.115658 0) scale(0.996264)"/>
      <use xlink:href="#CMMI12-74" transform="translate(334.804754 0) scale(0.996264)"/>
     </g>
    </g>
    <g id="line2d_24">
     <path d="M 273.196184 131.429163 
L 287.196184 131.429163 
L 301.196184 131.429163 
" style="fill: none; stroke-dasharray: 19.2,4.8,3,4.8; stroke-dashoffset: 0; stroke: #d62728; stroke-width: 3"/>
    </g>
    <g id="text_17">
     <!-- $\sum \phi^s_{6} \cdot dt$ -->
     <g transform="translate(312.396184 136.329163) scale(0.14 -0.14)">
      <use xlink:href="#CMEX10-50" transform="translate(0 74.720454) scale(0.996264)"/>
      <use xlink:href="#CMMI12-1e" transform="translate(121.765958 0) scale(0.996264)"/>
      <use xlink:href="#CMMI12-73" transform="translate(179.500138 36.153639) scale(0.697382)"/>
      <use xlink:href="#CMR17-36" transform="translate(179.500138 -24.740171) scale(0.697382)"/>
      <use xlink:href="#CMSY10-1" transform="translate(234.302366 0) scale(0.996264)"/>
      <use xlink:href="#CMMI12-64" transform="translate(284.115658 0) scale(0.996264)"/>
      <use xlink:href="#CMMI12-74" transform="translate(334.804754 0) scale(0.996264)"/>
     </g>
    </g>
    <g id="line2d_25">
     <path d="M 273.196184 155.282664 
L 287.196184 155.282664 
L 301.196184 155.282664 
" style="fill: none; stroke-dasharray: 19.2,4.8,3,4.8; stroke-dashoffset: 0; stroke: #2ca02c; stroke-width: 3"/>
    </g>
    <g id="text_18">
     <!-- $\sum \hat{\phi} \cdot dt$ -->
     <g transform="translate(312.396184 160.182664) scale(0.14 -0.14)">
      <use xlink:href="#CMEX10-50" transform="translate(0 74.720454) scale(0.996264)"/>
      <use xlink:href="#CMR17-5e" transform="translate(135.916962 26.296621) scale(0.996264)"/>
      <use xlink:href="#CMMI12-1e" transform="translate(121.765958 0) scale(0.996264)"/>
      <use xlink:href="#CMSY10-1" transform="translate(201.639345 0) scale(0.996264)"/>
      <use xlink:href="#CMMI12-64" transform="translate(251.452637 0) scale(0.996264)"/>
      <use xlink:href="#CMMI12-74" transform="translate(302.141734 0) scale(0.996264)"/>
     </g>
    </g>
   </g>
  </g>
 </g>
 <defs>
  <clipPath id="p32fa4fc9b9">
   <rect x="51.648487" y="10.8" width="326.094477" height="182.736948"/>
  </clipPath>
 </defs>
</svg>
