<?xml version="1.0" encoding="utf-8" standalone="no"?>
<!DOCTYPE svg PUBLIC "-//W3C//DTD SVG 1.1//EN"
  "http://www.w3.org/Graphics/SVG/1.1/DTD/svg11.dtd">
<svg xmlns:xlink="http://www.w3.org/1999/xlink" width="388.542964pt" height="240.132758pt" viewBox="0 0 388.542964 240.132758" xmlns="http://www.w3.org/2000/svg" version="1.1">
 <metadata>
  <rdf:RDF xmlns:dc="http://purl.org/dc/elements/1.1/" xmlns:cc="http://creativecommons.org/ns#" xmlns:rdf="http://www.w3.org/1999/02/22-rdf-syntax-ns#">
   <cc:Work>
    <dc:type rdf:resource="http://purl.org/dc/dcmitype/StillImage"/>
    <dc:date>2024-12-19T17:03:43.619115</dc:date>
    <dc:format>image/svg+xml</dc:format>
    <dc:creator>
     <cc:Agent>
      <dc:title>Matplotlib v3.7.5, https://matplotlib.org/</dc:title>
     </cc:Agent>
    </dc:creator>
   </cc:Work>
  </rdf:RDF>
 </metadata>
 <defs>
  <style type="text/css">*{stroke-linejoin: round; stroke-linecap: butt}</style>
 </defs>
 <g id="figure_1">
  <g id="patch_1">
   <path d="M 0 240.132758 
L 388.542964 240.132758 
L 388.542964 0 
L 0 0 
z
" style="fill: #ffffff"/>
  </g>
  <g id="axes_1">
   <g id="patch_2">
    <path d="M 48.56787 213.718154 
L 349.688667 213.718154 
L 349.688667 28.815931 
L 48.56787 28.815931 
z
" style="fill: #ffffff"/>
   </g>
   <g id="matplotlib.axis_1">
    <g id="xtick_1">
     <g id="line2d_1">
      <defs>
       <path id="mf6d48a3ada" d="M 0 0 
L 0 3.5 
" style="stroke: #000000; stroke-width: 0.8"/>
      </defs>
      <g>
       <use xlink:href="#mf6d48a3ada" x="62.255179" y="213.718154" style="stroke: #000000; stroke-width: 0.8"/>
      </g>
     </g>
     <g id="text_1">
      <!-- $\mathdefault{0.0}$ -->
      <g transform="translate(56.844835 226.252956) scale(0.08 -0.08)">
       <defs>
        <path id="CMR17-30" d="M 2688 2025 
C 2688 2416 2682 3080 2413 3591 
C 2176 4039 1798 4198 1466 4198 
C 1158 4198 768 4058 525 3597 
C 269 3118 243 2524 243 2025 
C 243 1661 250 1106 448 619 
C 723 -39 1216 -128 1466 -128 
C 1760 -128 2208 -7 2470 600 
C 2662 1042 2688 1559 2688 2025 
z
M 1466 -26 
C 1056 -26 813 325 723 812 
C 653 1188 653 1738 653 2096 
C 653 2588 653 2997 736 3387 
C 858 3929 1216 4096 1466 4096 
C 1728 4096 2067 3923 2189 3400 
C 2272 3036 2278 2607 2278 2096 
C 2278 1680 2278 1169 2202 792 
C 2067 95 1690 -26 1466 -26 
z
" transform="scale(0.015625)"/>
        <path id="CMMI12-3a" d="M 1178 307 
C 1178 492 1024 619 870 619 
C 685 619 557 466 557 313 
C 557 128 710 0 864 0 
C 1050 0 1178 153 1178 307 
z
" transform="scale(0.015625)"/>
       </defs>
       <use xlink:href="#CMR17-30" transform="scale(0.996264)"/>
       <use xlink:href="#CMMI12-3a" transform="translate(45.690477 0) scale(0.996264)"/>
       <use xlink:href="#CMR17-30" transform="translate(72.787654 0) scale(0.996264)"/>
      </g>
     </g>
    </g>
    <g id="xtick_2">
     <g id="line2d_2">
      <g>
       <use xlink:href="#mf6d48a3ada" x="117.059219" y="213.718154" style="stroke: #000000; stroke-width: 0.8"/>
      </g>
     </g>
     <g id="text_2">
      <!-- $\mathdefault{0.2}$ -->
      <g transform="translate(111.648875 226.252956) scale(0.08 -0.08)">
       <defs>
        <path id="CMR17-32" d="M 2669 989 
L 2554 989 
C 2490 536 2438 459 2413 420 
C 2381 369 1920 369 1830 369 
L 602 369 
C 832 619 1280 1072 1824 1597 
C 2214 1967 2669 2402 2669 3035 
C 2669 3790 2067 4224 1395 4224 
C 691 4224 262 3604 262 3030 
C 262 2780 448 2748 525 2748 
C 589 2748 781 2787 781 3010 
C 781 3207 614 3264 525 3264 
C 486 3264 448 3258 422 3245 
C 544 3790 915 4058 1306 4058 
C 1862 4058 2227 3617 2227 3035 
C 2227 2479 1901 2000 1536 1584 
L 262 146 
L 262 0 
L 2515 0 
L 2669 989 
z
" transform="scale(0.015625)"/>
       </defs>
       <use xlink:href="#CMR17-30" transform="scale(0.996264)"/>
       <use xlink:href="#CMMI12-3a" transform="translate(45.690477 0) scale(0.996264)"/>
       <use xlink:href="#CMR17-32" transform="translate(72.787654 0) scale(0.996264)"/>
      </g>
     </g>
    </g>
    <g id="xtick_3">
     <g id="line2d_3">
      <g>
       <use xlink:href="#mf6d48a3ada" x="171.863259" y="213.718154" style="stroke: #000000; stroke-width: 0.8"/>
      </g>
     </g>
     <g id="text_3">
      <!-- $\mathdefault{0.4}$ -->
      <g transform="translate(166.452914 226.252956) scale(0.08 -0.08)">
       <defs>
        <path id="CMR17-34" d="M 2150 4122 
C 2150 4256 2144 4256 2029 4256 
L 128 1254 
L 128 1088 
L 1779 1088 
L 1779 457 
C 1779 224 1766 160 1318 160 
L 1197 160 
L 1197 0 
C 1402 0 1747 0 1965 0 
C 2182 0 2528 0 2733 0 
L 2733 160 
L 2611 160 
C 2163 160 2150 224 2150 457 
L 2150 1088 
L 2803 1088 
L 2803 1254 
L 2150 1254 
L 2150 4122 
z
M 1798 3703 
L 1798 1254 
L 256 1254 
L 1798 3703 
z
" transform="scale(0.015625)"/>
       </defs>
       <use xlink:href="#CMR17-30" transform="scale(0.996264)"/>
       <use xlink:href="#CMMI12-3a" transform="translate(45.690477 0) scale(0.996264)"/>
       <use xlink:href="#CMR17-34" transform="translate(72.787654 0) scale(0.996264)"/>
      </g>
     </g>
    </g>
    <g id="xtick_4">
     <g id="line2d_4">
      <g>
       <use xlink:href="#mf6d48a3ada" x="226.667299" y="213.718154" style="stroke: #000000; stroke-width: 0.8"/>
      </g>
     </g>
     <g id="text_4">
      <!-- $\mathdefault{0.6}$ -->
      <g transform="translate(221.256954 226.252956) scale(0.08 -0.08)">
       <defs>
        <path id="CMR17-36" d="M 678 2176 
C 678 3690 1395 4032 1811 4032 
C 1946 4032 2272 4009 2400 3776 
C 2298 3776 2106 3776 2106 3553 
C 2106 3381 2246 3323 2336 3323 
C 2394 3323 2566 3348 2566 3560 
C 2566 3954 2246 4179 1805 4179 
C 1043 4179 243 3390 243 1984 
C 243 253 966 -128 1478 -128 
C 2099 -128 2688 427 2688 1283 
C 2688 2081 2170 2662 1517 2662 
C 1126 2662 838 2407 678 1960 
L 678 2176 
z
M 1478 25 
C 691 25 691 1200 691 1436 
C 691 1896 909 2560 1504 2560 
C 1613 2560 1926 2560 2138 2120 
C 2253 1870 2253 1609 2253 1289 
C 2253 944 2253 690 2118 434 
C 1978 171 1773 25 1478 25 
z
" transform="scale(0.015625)"/>
       </defs>
       <use xlink:href="#CMR17-30" transform="scale(0.996264)"/>
       <use xlink:href="#CMMI12-3a" transform="translate(45.690477 0) scale(0.996264)"/>
       <use xlink:href="#CMR17-36" transform="translate(72.787654 0) scale(0.996264)"/>
      </g>
     </g>
    </g>
    <g id="xtick_5">
     <g id="line2d_5">
      <g>
       <use xlink:href="#mf6d48a3ada" x="281.471339" y="213.718154" style="stroke: #000000; stroke-width: 0.8"/>
      </g>
     </g>
     <g id="text_5">
      <!-- $\mathdefault{0.8}$ -->
      <g transform="translate(276.060994 226.252956) scale(0.08 -0.08)">
       <defs>
        <path id="CMR17-38" d="M 1741 2264 
C 2144 2467 2554 2773 2554 3263 
C 2554 3841 1990 4179 1472 4179 
C 890 4179 378 3759 378 3180 
C 378 3021 416 2747 666 2505 
C 730 2442 998 2251 1171 2130 
C 883 1983 211 1634 211 934 
C 211 279 838 -128 1459 -128 
C 2144 -128 2720 362 2720 1010 
C 2720 1590 2330 1857 2074 2029 
L 1741 2264 
z
M 902 2822 
C 851 2854 595 3051 595 3351 
C 595 3739 998 4032 1459 4032 
C 1965 4032 2336 3676 2336 3262 
C 2336 2669 1670 2331 1638 2331 
C 1632 2331 1626 2331 1574 2370 
L 902 2822 
z
M 2080 1519 
C 2176 1449 2483 1240 2483 851 
C 2483 381 2010 25 1472 25 
C 890 25 448 438 448 940 
C 448 1443 838 1862 1280 2060 
L 2080 1519 
z
" transform="scale(0.015625)"/>
       </defs>
       <use xlink:href="#CMR17-30" transform="scale(0.996264)"/>
       <use xlink:href="#CMMI12-3a" transform="translate(45.690477 0) scale(0.996264)"/>
       <use xlink:href="#CMR17-38" transform="translate(72.787654 0) scale(0.996264)"/>
      </g>
     </g>
    </g>
    <g id="xtick_6">
     <g id="line2d_6">
      <g>
       <use xlink:href="#mf6d48a3ada" x="336.275379" y="213.718154" style="stroke: #000000; stroke-width: 0.8"/>
      </g>
     </g>
     <g id="text_6">
      <!-- $\mathdefault{1.0}$ -->
      <g transform="translate(330.865034 226.252956) scale(0.08 -0.08)">
       <defs>
        <path id="CMR17-31" d="M 1702 4058 
C 1702 4192 1696 4192 1606 4192 
C 1357 3916 979 3827 621 3827 
C 602 3827 570 3827 563 3808 
C 557 3795 557 3782 557 3648 
C 755 3648 1088 3686 1344 3839 
L 1344 461 
C 1344 236 1331 160 781 160 
L 589 160 
L 589 0 
C 896 0 1216 0 1523 0 
C 1830 0 2150 0 2458 0 
L 2458 160 
L 2266 160 
C 1715 160 1702 230 1702 458 
L 1702 4058 
z
" transform="scale(0.015625)"/>
       </defs>
       <use xlink:href="#CMR17-31" transform="scale(0.996264)"/>
       <use xlink:href="#CMMI12-3a" transform="translate(45.690477 0) scale(0.996264)"/>
       <use xlink:href="#CMR17-30" transform="translate(72.787654 0) scale(0.996264)"/>
      </g>
     </g>
    </g>
   </g>
   <g id="matplotlib.axis_2">
    <g id="ytick_1">
     <g id="line2d_7">
      <defs>
       <path id="m63a10d8ede" d="M 0 0 
L -3.5 0 
" style="stroke: #000000; stroke-width: 0.8"/>
      </defs>
      <g>
       <use xlink:href="#m63a10d8ede" x="48.56787" y="205.612245" style="stroke: #000000; stroke-width: 0.8"/>
      </g>
     </g>
     <g id="text_7">
      <!-- $\mathdefault{0.0}$ -->
      <g transform="translate(30.747181 208.379646) scale(0.08 -0.08)">
       <use xlink:href="#CMR17-30" transform="scale(0.996264)"/>
       <use xlink:href="#CMMI12-3a" transform="translate(45.690477 0) scale(0.996264)"/>
       <use xlink:href="#CMR17-30" transform="translate(72.787654 0) scale(0.996264)"/>
      </g>
     </g>
    </g>
    <g id="ytick_2">
     <g id="line2d_8">
      <g>
       <use xlink:href="#m63a10d8ede" x="48.56787" y="177.775347" style="stroke: #000000; stroke-width: 0.8"/>
      </g>
     </g>
     <g id="text_8">
      <!-- $\mathdefault{0.2}$ -->
      <g transform="translate(30.747181 180.542748) scale(0.08 -0.08)">
       <use xlink:href="#CMR17-30" transform="scale(0.996264)"/>
       <use xlink:href="#CMMI12-3a" transform="translate(45.690477 0) scale(0.996264)"/>
       <use xlink:href="#CMR17-32" transform="translate(72.787654 0) scale(0.996264)"/>
      </g>
     </g>
    </g>
    <g id="ytick_3">
     <g id="line2d_9">
      <g>
       <use xlink:href="#m63a10d8ede" x="48.56787" y="149.938449" style="stroke: #000000; stroke-width: 0.8"/>
      </g>
     </g>
     <g id="text_9">
      <!-- $\mathdefault{0.4}$ -->
      <g transform="translate(30.747181 152.70585) scale(0.08 -0.08)">
       <use xlink:href="#CMR17-30" transform="scale(0.996264)"/>
       <use xlink:href="#CMMI12-3a" transform="translate(45.690477 0) scale(0.996264)"/>
       <use xlink:href="#CMR17-34" transform="translate(72.787654 0) scale(0.996264)"/>
      </g>
     </g>
    </g>
    <g id="ytick_4">
     <g id="line2d_10">
      <g>
       <use xlink:href="#m63a10d8ede" x="48.56787" y="122.101551" style="stroke: #000000; stroke-width: 0.8"/>
      </g>
     </g>
     <g id="text_10">
      <!-- $\mathdefault{0.6}$ -->
      <g transform="translate(30.747181 124.868952) scale(0.08 -0.08)">
       <use xlink:href="#CMR17-30" transform="scale(0.996264)"/>
       <use xlink:href="#CMMI12-3a" transform="translate(45.690477 0) scale(0.996264)"/>
       <use xlink:href="#CMR17-36" transform="translate(72.787654 0) scale(0.996264)"/>
      </g>
     </g>
    </g>
    <g id="ytick_5">
     <g id="line2d_11">
      <g>
       <use xlink:href="#m63a10d8ede" x="48.56787" y="94.264654" style="stroke: #000000; stroke-width: 0.8"/>
      </g>
     </g>
     <g id="text_11">
      <!-- $\mathdefault{0.8}$ -->
      <g transform="translate(30.747181 97.032054) scale(0.08 -0.08)">
       <use xlink:href="#CMR17-30" transform="scale(0.996264)"/>
       <use xlink:href="#CMMI12-3a" transform="translate(45.690477 0) scale(0.996264)"/>
       <use xlink:href="#CMR17-38" transform="translate(72.787654 0) scale(0.996264)"/>
      </g>
     </g>
    </g>
    <g id="ytick_6">
     <g id="line2d_12">
      <g>
       <use xlink:href="#m63a10d8ede" x="48.56787" y="66.427756" style="stroke: #000000; stroke-width: 0.8"/>
      </g>
     </g>
     <g id="text_12">
      <!-- $\mathdefault{1.0}$ -->
      <g transform="translate(30.747181 69.195157) scale(0.08 -0.08)">
       <use xlink:href="#CMR17-31" transform="scale(0.996264)"/>
       <use xlink:href="#CMMI12-3a" transform="translate(45.690477 0) scale(0.996264)"/>
       <use xlink:href="#CMR17-30" transform="translate(72.787654 0) scale(0.996264)"/>
      </g>
     </g>
    </g>
    <g id="ytick_7">
     <g id="line2d_13">
      <g>
       <use xlink:href="#m63a10d8ede" x="48.56787" y="38.590858" style="stroke: #000000; stroke-width: 0.8"/>
      </g>
     </g>
     <g id="text_13">
      <!-- $\mathdefault{1.2}$ -->
      <g transform="translate(30.747181 41.358259) scale(0.08 -0.08)">
       <use xlink:href="#CMR17-31" transform="scale(0.996264)"/>
       <use xlink:href="#CMMI12-3a" transform="translate(45.690477 0) scale(0.996264)"/>
       <use xlink:href="#CMR17-32" transform="translate(72.787654 0) scale(0.996264)"/>
      </g>
     </g>
    </g>
   </g>
   <g id="line2d_14">
    <path d="M 62.255179 192.52231 
L 63.62528 192.550273 
L 64.995381 192.383764 
L 66.365482 192.011727 
L 67.735583 191.409983 
L 69.105684 190.53849 
L 70.201765 189.607285 
L 71.297846 188.42219 
L 72.393927 186.926341 
L 73.490008 185.046184 
L 74.586088 182.689559 
L 75.682169 179.747355 
L 76.77825 176.103603 
L 77.874331 171.660705 
L 79.244432 164.939231 
L 80.888553 155.444374 
L 85.272876 129.102113 
L 86.916997 120.748605 
L 88.561119 113.448444 
L 90.20524 107.078561 
L 91.849361 101.491658 
L 93.767502 95.786486 
L 95.685644 90.794036 
L 97.603785 86.381255 
L 99.795947 81.918325 
L 101.988108 77.964796 
L 104.18027 74.433619 
L 106.646452 70.883278 
L 109.112634 67.709901 
L 111.852836 64.557396 
L 114.593038 61.739745 
L 117.60726 58.970593 
L 120.621482 56.499136 
L 123.909724 54.096005 
L 127.197967 51.958446 
L 130.760229 49.903749 
L 134.596512 47.956054 
L 138.706815 46.135488 
L 142.817118 44.556004 
L 147.201441 43.10433 
L 151.859785 41.79387 
L 156.792148 40.63556 
L 161.998532 39.637845 
L 167.752956 38.771075 
L 173.781401 38.095976 
L 180.083865 37.613146 
L 186.93437 37.314107 
L 194.332916 37.221175 
L 202.279501 37.351837 
L 210.774127 37.719153 
L 219.816794 38.331816 
L 229.681521 39.22223 
L 240.642329 40.440802 
L 252.699218 42.012935 
L 265.852188 43.954309 
L 280.923298 46.410667 
L 298.186571 49.459396 
L 318.464066 53.275128 
L 336.001359 56.718417 
L 336.001359 56.718417 
" clip-path="url(#p09afb571cf)" style="fill: none; stroke: #fcab8f; stroke-width: 3; stroke-linecap: square"/>
   </g>
   <g id="line2d_15">
    <path d="M 62.255179 65.780913 
L 64.447341 80.101514 
L 66.913523 94.693507 
L 70.475785 114.271409 
L 79.518452 162.218482 
L 81.436593 171.005417 
L 82.806694 176.337783 
L 84.176795 180.794568 
L 85.546896 184.427751 
L 86.916997 187.355611 
L 88.287098 189.712214 
L 89.657199 191.619147 
L 91.0273 193.175969 
L 92.671422 194.689986 
L 94.315543 195.910685 
L 96.233684 197.058715 
L 98.425846 198.102494 
L 100.892028 199.029647 
L 103.90625 199.911835 
L 107.468512 200.708797 
L 111.852836 201.445466 
L 117.33324 202.120965 
L 124.183744 202.726006 
L 132.952391 203.267329 
L 144.735259 203.758333 
L 160.902451 204.193193 
L 183.920148 204.571983 
L 218.172673 204.893643 
L 272.154652 205.156453 
L 336.001359 205.313508 
L 336.001359 205.313508 
" clip-path="url(#p09afb571cf)" style="fill: none; stroke-dasharray: 11.1,4.8; stroke-dashoffset: 0; stroke: #c8e99b; stroke-width: 3"/>
   </g>
   <g id="line2d_16">
    <path d="M 62.255179 192.52231 
L 63.899301 192.58779 
L 65.269402 192.437859 
L 66.639503 192.093517 
L 68.009604 191.53484 
L 69.379705 190.728669 
L 70.749806 189.625547 
L 71.845886 188.483051 
L 72.941967 187.059007 
L 74.038048 185.294672 
L 75.134129 183.120061 
L 76.23021 180.457735 
L 77.32629 177.233188 
L 78.422371 173.394837 
L 79.792472 167.741307 
L 81.710614 158.598832 
L 85.546896 139.935313 
L 87.465038 131.966015 
L 89.109159 126.047345 
L 90.75328 120.88383 
L 92.397401 116.363201 
L 94.315543 111.761245 
L 96.233684 107.750557 
L 98.151826 104.221122 
L 100.343987 100.668549 
L 102.536149 97.537225 
L 105.002331 94.427586 
L 107.468512 91.680012 
L 110.208714 88.979484 
L 112.948916 86.589643 
L 115.963139 84.262487 
L 119.251381 82.028098 
L 122.539623 80.062915 
L 126.101886 78.192696 
L 129.938169 76.436093 
L 134.048472 74.807712 
L 138.432795 73.318822 
L 143.091138 71.977833 
L 148.023502 70.790868 
L 153.229886 69.762018 
L 158.98431 68.855651 
L 165.012754 68.13007 
L 171.589239 67.563243 
L 178.713764 67.176308 
L 186.38633 66.985499 
L 194.606936 67.002671 
L 203.649602 67.246069 
L 213.514329 67.737626 
L 224.475137 68.514567 
L 236.532026 69.600469 
L 249.959016 71.04116 
L 265.030127 72.889369 
L 282.293399 75.238526 
L 302.570894 78.231862 
L 327.232712 82.10589 
L 336.001359 83.52599 
L 336.001359 83.52599 
" clip-path="url(#p09afb571cf)" style="fill: none; stroke: #f85d42; stroke-width: 3; stroke-linecap: square"/>
   </g>
   <g id="line2d_17">
    <path d="M 62.255179 65.780913 
L 64.447341 80.070083 
L 66.913523 94.542559 
L 70.201765 112.336356 
L 77.05227 147.706345 
L 80.066492 162.485716 
L 81.984634 170.78644 
L 83.354735 175.88268 
L 84.724836 180.206637 
L 86.094937 183.789641 
L 87.465038 186.720963 
L 88.835139 189.110195 
L 90.20524 191.06259 
L 91.575341 192.668254 
L 93.219462 194.238666 
L 94.863583 195.510126 
L 96.781725 196.709135 
L 98.973886 197.80099 
L 101.440068 198.771342 
L 104.45429 199.694228 
L 108.016553 200.526866 
L 112.126856 201.253246 
L 117.33324 201.936657 
L 123.909724 202.559786 
L 132.40435 203.123987 
L 143.639179 203.629433 
L 158.71029 204.071684 
L 180.083865 204.461332 
L 211.596188 204.795399 
L 260.645804 205.072608 
L 336.001359 205.278874 
L 336.001359 205.278874 
" clip-path="url(#p09afb571cf)" style="fill: none; stroke-dasharray: 11.1,4.8; stroke-dashoffset: 0; stroke: #69bf72; stroke-width: 3"/>
   </g>
   <g id="line2d_18">
    <path d="M 62.255179 192.52231 
L 63.899301 192.801377 
L 65.543422 192.864088 
L 67.187543 192.72317 
L 68.831664 192.379784 
L 70.475785 191.825586 
L 72.119907 191.044365 
L 73.764028 190.014142 
L 75.408149 188.710729 
L 77.05227 187.113944 
L 78.696391 185.217143 
L 80.614533 182.65182 
L 83.080715 178.94485 
L 88.013078 171.426595 
L 90.20524 168.526502 
L 92.397401 166.016895 
L 94.589563 163.88222 
L 96.781725 162.076222 
L 98.973886 160.545983 
L 101.440068 159.093877 
L 104.18027 157.748458 
L 107.194492 156.524784 
L 110.482735 155.42823 
L 114.319017 154.391303 
L 118.70334 153.450437 
L 123.635704 152.62778 
L 129.390128 151.905527 
L 135.966613 151.314646 
L 143.639179 150.860479 
L 152.407825 150.571022 
L 162.820593 150.460676 
L 174.877481 150.562999 
L 189.126532 150.91184 
L 206.389804 151.565987 
L 227.48936 152.59774 
L 254.343339 154.144276 
L 291.884106 156.547453 
L 336.001359 159.521169 
L 336.001359 159.521169 
" clip-path="url(#p09afb571cf)" style="fill: none; stroke: #c5171c; stroke-width: 3; stroke-linecap: square"/>
   </g>
   <g id="line2d_19">
    <path d="M 62.255179 65.780913 
L 64.173321 78.278842 
L 66.365482 90.984068 
L 68.831664 103.869074 
L 71.571866 117.000522 
L 74.860109 131.660894 
L 78.422371 146.496601 
L 81.162573 157.045025 
L 83.354735 164.715477 
L 85.272876 170.706563 
L 87.191018 175.934268 
L 88.835139 179.790507 
L 90.47926 183.095061 
L 92.123381 185.897562 
L 93.767502 188.260242 
L 95.411624 190.247939 
L 97.055745 191.921632 
L 98.973886 193.548859 
L 100.892028 194.893411 
L 103.084189 196.157126 
L 105.550371 197.309163 
L 108.290573 198.335731 
L 111.578815 199.307931 
L 115.415098 200.185375 
L 119.799421 200.951956 
L 125.279825 201.67045 
L 131.85631 202.301938 
L 140.350936 202.883791 
L 151.311744 203.40095 
L 166.108835 203.86322 
L 186.66035 204.267825 
L 216.528552 204.616792 
L 262.289925 204.910534 
L 336.001359 205.146521 
L 336.001359 205.146521 
" clip-path="url(#p09afb571cf)" style="fill: none; stroke-dasharray: 11.1,4.8; stroke-dashoffset: 0; stroke: #1e8041; stroke-width: 3"/>
   </g>
   <g id="line2d_20">
    <path d="M 62.255179 192.52231 
L 64.173321 193.199 
L 66.365482 193.699206 
L 68.557644 193.974473 
L 71.023826 194.073026 
L 74.038048 193.95387 
L 77.32629 193.591682 
L 81.436593 192.898931 
L 88.561119 191.413498 
L 95.411624 190.075922 
L 100.892028 189.24533 
L 106.372432 188.642612 
L 112.674896 188.180439 
L 120.347462 187.855388 
L 129.938169 187.681646 
L 143.091138 187.680848 
L 161.998532 187.919958 
L 192.140754 188.546909 
L 257.083541 190.173674 
L 336.001359 192.13967 
L 336.001359 192.13967 
" clip-path="url(#p09afb571cf)" style="fill: none; stroke: #67000d; stroke-width: 3; stroke-linecap: square"/>
   </g>
   <g id="line2d_21">
    <path d="M 62.255179 65.780913 
L 63.899301 76.484156 
L 65.817442 87.44473 
L 67.735583 97.137339 
L 69.927745 107.015422 
L 72.119907 115.888006 
L 74.586088 124.912201 
L 77.05227 133.103453 
L 79.518452 140.584665 
L 82.258654 148.156917 
L 84.724836 154.355579 
L 87.191018 159.998916 
L 89.657199 165.106538 
L 92.123381 169.697419 
L 94.589563 173.79419 
L 97.055745 177.424946 
L 99.521927 180.623098 
L 101.988108 183.425974 
L 104.45429 185.872922 
L 106.920472 188.003426 
L 109.386654 189.85555 
L 112.126856 191.630113 
L 114.867058 193.148977 
L 117.88128 194.570644 
L 121.169522 195.874232 
L 124.731785 197.048977 
L 128.842088 198.159722 
L 133.500431 199.172032 
L 138.706815 200.06877 
L 144.735259 200.879011 
L 151.859785 201.610789 
L 160.628431 202.280445 
L 171.589239 202.882284 
L 185.564269 203.414233 
L 203.923622 203.87903 
L 229.133481 204.282412 
L 265.578167 204.627658 
L 321.478288 204.916003 
L 336.001359 204.966201 
L 336.001359 204.966201 
" clip-path="url(#p09afb571cf)" style="fill: none; stroke-dasharray: 11.1,4.8; stroke-dashoffset: 0; stroke: #004529; stroke-width: 3"/>
   </g>
   <g id="patch_3">
    <path d="M 48.56787 213.718154 
L 48.56787 28.815931 
" style="fill: none; stroke: #000000; stroke-width: 0.8; stroke-linejoin: miter; stroke-linecap: square"/>
   </g>
   <g id="patch_4">
    <path d="M 349.688667 213.718154 
L 349.688667 28.815931 
" style="fill: none; stroke: #000000; stroke-width: 0.8; stroke-linejoin: miter; stroke-linecap: square"/>
   </g>
   <g id="patch_5">
    <path d="M 48.56787 213.718154 
L 349.688667 213.718154 
" style="fill: none; stroke: #000000; stroke-width: 0.8; stroke-linejoin: miter; stroke-linecap: square"/>
   </g>
   <g id="patch_6">
    <path d="M 48.56787 28.815931 
L 349.688667 28.815931 
" style="fill: none; stroke: #000000; stroke-width: 0.8; stroke-linejoin: miter; stroke-linecap: square"/>
   </g>
   <g id="legend_1">
    <g id="patch_7">
     <path d="M 366.344707 75.814914 
L 424.633708 75.814914 
Q 426.233708 75.814914 426.233708 74.214914 
L 426.233708 30.415931 
Q 426.233708 28.815931 424.633708 28.815931 
L 366.344707 28.815931 
Q 364.744707 28.815931 364.744707 30.415931 
L 364.744707 74.214914 
Q 364.744707 75.814914 366.344707 75.814914 
z
" style="fill: #ffffff; opacity: 0.8; stroke: #cccccc; stroke-linejoin: miter"/>
    </g>
    <g id="line2d_22">
     <path d="M 367.944707 34.815931 
L 375.944707 34.815931 
L 383.944707 34.815931 
" style="fill: none; stroke: #fcab8f; stroke-width: 3; stroke-linecap: square"/>
    </g>
    <g id="text_14">
     <!-- $A = 0.0$ -->
     <g transform="translate(390.344707 37.615931) scale(0.08 -0.08)">
      <defs>
       <path id="CMMI12-41" d="M 1088 691 
C 864 314 646 186 339 186 
C 269 180 218 180 218 58 
C 218 24 250 0 294 0 
C 410 0 698 0 813 0 
C 998 0 1203 0 1382 0 
C 1421 0 1498 0 1498 122 
C 1498 180 1446 186 1408 186 
C 1261 186 1139 236 1139 388 
C 1139 476 1178 546 1261 685 
L 1747 1479 
L 3379 1479 
C 3386 1423 3386 1373 3392 1316 
C 3411 1152 3488 495 3488 376 
C 3488 186 3162 186 3059 186 
C 2989 186 2918 186 2918 70 
C 2918 0 2976 0 3014 0 
C 3123 0 3251 0 3360 0 
L 3725 0 
C 4115 0 4397 0 4403 0 
C 4448 0 4518 0 4518 122 
C 4518 186 4461 186 4365 186 
C 4013 186 4006 244 3987 434 
L 3597 4404 
C 3584 4531 3558 4544 3488 4544 
C 3424 4544 3386 4531 3328 4435 
L 1088 691 
z
M 1856 1664 
L 3142 3819 
L 3360 1664 
L 1856 1664 
z
" transform="scale(0.015625)"/>
       <path id="CMR17-3d" d="M 4115 2017 
C 4211 2017 4307 2017 4307 2125 
C 4307 2240 4198 2240 4090 2240 
L 512 2240 
C 403 2240 294 2240 294 2125 
C 294 2017 390 2017 486 2017 
L 4115 2017 
z
M 4090 896 
C 4198 896 4307 896 4307 1011 
C 4307 1119 4211 1119 4115 1119 
L 486 1119 
C 390 1119 294 1119 294 1011 
C 294 896 403 896 512 896 
L 4090 896 
z
" transform="scale(0.015625)"/>
      </defs>
      <use xlink:href="#CMMI12-41" transform="scale(0.996264)"/>
      <use xlink:href="#CMR17-3d" transform="translate(100.801894 0) scale(0.996264)"/>
      <use xlink:href="#CMR17-30" transform="translate(200.190691 0) scale(0.996264)"/>
      <use xlink:href="#CMMI12-3a" transform="translate(245.881168 0) scale(0.996264)"/>
      <use xlink:href="#CMR17-30" transform="translate(272.978345 0) scale(0.996264)"/>
     </g>
    </g>
    <g id="line2d_23">
     <path d="M 367.944707 45.965677 
L 375.944707 45.965677 
L 383.944707 45.965677 
" style="fill: none; stroke: #f85d42; stroke-width: 3; stroke-linecap: square"/>
    </g>
    <g id="text_15">
     <!-- $A = 0.33$ -->
     <g transform="translate(390.344707 48.765677) scale(0.08 -0.08)">
      <defs>
       <path id="CMR17-33" d="M 1414 2157 
C 1984 2157 2234 1662 2234 1090 
C 2234 320 1824 25 1453 25 
C 1114 25 563 194 390 693 
C 422 680 454 680 486 680 
C 640 680 755 782 755 948 
C 755 1133 614 1216 486 1216 
C 378 1216 211 1165 211 926 
C 211 335 787 -128 1466 -128 
C 2176 -128 2720 430 2720 1085 
C 2720 1707 2208 2157 1600 2227 
C 2086 2328 2554 2756 2554 3329 
C 2554 3820 2048 4179 1472 4179 
C 890 4179 378 3829 378 3329 
C 378 3110 544 3072 627 3072 
C 762 3072 877 3155 877 3321 
C 877 3486 762 3569 627 3569 
C 602 3569 570 3569 544 3557 
C 730 3959 1235 4032 1459 4032 
C 1683 4032 2106 3925 2106 3320 
C 2106 3143 2080 2828 1862 2550 
C 1670 2304 1453 2304 1242 2284 
C 1210 2284 1062 2269 1037 2269 
C 992 2263 966 2257 966 2208 
C 966 2163 973 2157 1101 2157 
L 1414 2157 
z
" transform="scale(0.015625)"/>
      </defs>
      <use xlink:href="#CMMI12-41" transform="scale(0.996264)"/>
      <use xlink:href="#CMR17-3d" transform="translate(100.801894 0) scale(0.996264)"/>
      <use xlink:href="#CMR17-30" transform="translate(200.190691 0) scale(0.996264)"/>
      <use xlink:href="#CMMI12-3a" transform="translate(245.881168 0) scale(0.996264)"/>
      <use xlink:href="#CMR17-33" transform="translate(272.978345 0) scale(0.996264)"/>
      <use xlink:href="#CMR17-33" transform="translate(318.668822 0) scale(0.996264)"/>
     </g>
    </g>
    <g id="line2d_24">
     <path d="M 367.944707 57.115422 
L 375.944707 57.115422 
L 383.944707 57.115422 
" style="fill: none; stroke: #c5171c; stroke-width: 3; stroke-linecap: square"/>
    </g>
    <g id="text_16">
     <!-- $A = 0.67$ -->
     <g transform="translate(390.344707 59.915422) scale(0.08 -0.08)">
      <defs>
       <path id="CMR17-37" d="M 2886 3941 
L 2886 4081 
L 1382 4081 
C 634 4081 621 4165 595 4288 
L 480 4288 
L 294 3094 
L 410 3094 
C 429 3215 474 3540 550 3661 
C 589 3712 1062 3712 1171 3712 
L 2579 3712 
L 1869 2661 
C 1395 1954 1069 999 1069 165 
C 1069 89 1069 -128 1299 -128 
C 1530 -128 1530 89 1530 171 
L 1530 465 
C 1530 1508 1709 2196 2003 2636 
L 2886 3941 
z
" transform="scale(0.015625)"/>
      </defs>
      <use xlink:href="#CMMI12-41" transform="scale(0.996264)"/>
      <use xlink:href="#CMR17-3d" transform="translate(100.801894 0) scale(0.996264)"/>
      <use xlink:href="#CMR17-30" transform="translate(200.190691 0) scale(0.996264)"/>
      <use xlink:href="#CMMI12-3a" transform="translate(245.881168 0) scale(0.996264)"/>
      <use xlink:href="#CMR17-36" transform="translate(272.978345 0) scale(0.996264)"/>
      <use xlink:href="#CMR17-37" transform="translate(318.668822 0) scale(0.996264)"/>
     </g>
    </g>
    <g id="line2d_25">
     <path d="M 367.944707 68.265168 
L 375.944707 68.265168 
L 383.944707 68.265168 
" style="fill: none; stroke: #67000d; stroke-width: 3; stroke-linecap: square"/>
    </g>
    <g id="text_17">
     <!-- $A = 1.0$ -->
     <g transform="translate(390.344707 71.065168) scale(0.08 -0.08)">
      <use xlink:href="#CMMI12-41" transform="scale(0.996264)"/>
      <use xlink:href="#CMR17-3d" transform="translate(100.801894 0) scale(0.996264)"/>
      <use xlink:href="#CMR17-31" transform="translate(200.190691 0) scale(0.996264)"/>
      <use xlink:href="#CMMI12-3a" transform="translate(245.881168 0) scale(0.996264)"/>
      <use xlink:href="#CMR17-30" transform="translate(272.978345 0) scale(0.996264)"/>
     </g>
    </g>
   </g>
  </g>
 </g>
 <defs>
  <clipPath id="p09afb571cf">
   <rect x="48.56787" y="28.815931" width="301.120797" height="184.902223"/>
  </clipPath>
 </defs>
</svg>
