<?xml version="1.0" encoding="utf-8" standalone="no"?>
<!DOCTYPE svg PUBLIC "-//W3C//DTD SVG 1.1//EN"
  "http://www.w3.org/Graphics/SVG/1.1/DTD/svg11.dtd">
<svg xmlns:xlink="http://www.w3.org/1999/xlink" width="388.542964pt" height="240.132758pt" viewBox="0 0 388.542964 240.132758" xmlns="http://www.w3.org/2000/svg" version="1.1">
 <metadata>
  <rdf:RDF xmlns:dc="http://purl.org/dc/elements/1.1/" xmlns:cc="http://creativecommons.org/ns#" xmlns:rdf="http://www.w3.org/1999/02/22-rdf-syntax-ns#">
   <cc:Work>
    <dc:type rdf:resource="http://purl.org/dc/dcmitype/StillImage"/>
    <dc:date>2024-12-19T16:20:54.414489</dc:date>
    <dc:format>image/svg+xml</dc:format>
    <dc:creator>
     <cc:Agent>
      <dc:title>Matplotlib v3.7.5, https://matplotlib.org/</dc:title>
     </cc:Agent>
    </dc:creator>
   </cc:Work>
  </rdf:RDF>
 </metadata>
 <defs>
  <style type="text/css">*{stroke-linejoin: round; stroke-linecap: butt}</style>
 </defs>
 <g id="figure_1">
  <g id="patch_1">
   <path d="M 0 240.132758 
L 388.542964 240.132758 
L 388.542964 0 
L 0 0 
z
" style="fill: #ffffff"/>
  </g>
  <g id="axes_1">
   <g id="patch_2">
    <path d="M 48.56787 213.718154 
L 349.688667 213.718154 
L 349.688667 28.815931 
L 48.56787 28.815931 
z
" style="fill: #ffffff"/>
   </g>
   <g id="matplotlib.axis_1">
    <g id="xtick_1">
     <g id="line2d_1">
      <defs>
       <path id="me58a2d47ee" d="M 0 0 
L 0 3.5 
" style="stroke: #000000; stroke-width: 0.8"/>
      </defs>
      <g>
       <use xlink:href="#me58a2d47ee" x="62.255179" y="213.718154" style="stroke: #000000; stroke-width: 0.8"/>
      </g>
     </g>
     <g id="text_1">
      <!-- $\mathdefault{0.0}$ -->
      <g transform="translate(53.529888 230.404031) scale(0.14 -0.14)">
       <defs>
        <path id="CMR17-30" d="M 2688 2025 
C 2688 2416 2682 3080 2413 3591 
C 2176 4039 1798 4198 1466 4198 
C 1158 4198 768 4058 525 3597 
C 269 3118 243 2524 243 2025 
C 243 1661 250 1106 448 619 
C 723 -39 1216 -128 1466 -128 
C 1760 -128 2208 -7 2470 600 
C 2662 1042 2688 1559 2688 2025 
z
M 1466 -26 
C 1056 -26 813 325 723 812 
C 653 1188 653 1738 653 2096 
C 653 2588 653 2997 736 3387 
C 858 3929 1216 4096 1466 4096 
C 1728 4096 2067 3923 2189 3400 
C 2272 3036 2278 2607 2278 2096 
C 2278 1680 2278 1169 2202 792 
C 2067 95 1690 -26 1466 -26 
z
" transform="scale(0.015625)"/>
        <path id="CMMI12-3a" d="M 1178 307 
C 1178 492 1024 619 870 619 
C 685 619 557 466 557 313 
C 557 128 710 0 864 0 
C 1050 0 1178 153 1178 307 
z
" transform="scale(0.015625)"/>
       </defs>
       <use xlink:href="#CMR17-30" transform="scale(0.996264)"/>
       <use xlink:href="#CMMI12-3a" transform="translate(45.690477 0) scale(0.996264)"/>
       <use xlink:href="#CMR17-30" transform="translate(72.787654 0) scale(0.996264)"/>
      </g>
     </g>
    </g>
    <g id="xtick_2">
     <g id="line2d_2">
      <g>
       <use xlink:href="#me58a2d47ee" x="117.004415" y="213.718154" style="stroke: #000000; stroke-width: 0.8"/>
      </g>
     </g>
     <g id="text_2">
      <!-- $\mathdefault{0.2}$ -->
      <g transform="translate(108.279124 230.404031) scale(0.14 -0.14)">
       <defs>
        <path id="CMR17-32" d="M 2669 989 
L 2554 989 
C 2490 536 2438 459 2413 420 
C 2381 369 1920 369 1830 369 
L 602 369 
C 832 619 1280 1072 1824 1597 
C 2214 1967 2669 2402 2669 3035 
C 2669 3790 2067 4224 1395 4224 
C 691 4224 262 3604 262 3030 
C 262 2780 448 2748 525 2748 
C 589 2748 781 2787 781 3010 
C 781 3207 614 3264 525 3264 
C 486 3264 448 3258 422 3245 
C 544 3790 915 4058 1306 4058 
C 1862 4058 2227 3617 2227 3035 
C 2227 2479 1901 2000 1536 1584 
L 262 146 
L 262 0 
L 2515 0 
L 2669 989 
z
" transform="scale(0.015625)"/>
       </defs>
       <use xlink:href="#CMR17-30" transform="scale(0.996264)"/>
       <use xlink:href="#CMMI12-3a" transform="translate(45.690477 0) scale(0.996264)"/>
       <use xlink:href="#CMR17-32" transform="translate(72.787654 0) scale(0.996264)"/>
      </g>
     </g>
    </g>
    <g id="xtick_3">
     <g id="line2d_3">
      <g>
       <use xlink:href="#me58a2d47ee" x="171.753651" y="213.718154" style="stroke: #000000; stroke-width: 0.8"/>
      </g>
     </g>
     <g id="text_3">
      <!-- $\mathdefault{0.4}$ -->
      <g transform="translate(163.02836 230.404031) scale(0.14 -0.14)">
       <defs>
        <path id="CMR17-34" d="M 2150 4122 
C 2150 4256 2144 4256 2029 4256 
L 128 1254 
L 128 1088 
L 1779 1088 
L 1779 457 
C 1779 224 1766 160 1318 160 
L 1197 160 
L 1197 0 
C 1402 0 1747 0 1965 0 
C 2182 0 2528 0 2733 0 
L 2733 160 
L 2611 160 
C 2163 160 2150 224 2150 457 
L 2150 1088 
L 2803 1088 
L 2803 1254 
L 2150 1254 
L 2150 4122 
z
M 1798 3703 
L 1798 1254 
L 256 1254 
L 1798 3703 
z
" transform="scale(0.015625)"/>
       </defs>
       <use xlink:href="#CMR17-30" transform="scale(0.996264)"/>
       <use xlink:href="#CMMI12-3a" transform="translate(45.690477 0) scale(0.996264)"/>
       <use xlink:href="#CMR17-34" transform="translate(72.787654 0) scale(0.996264)"/>
      </g>
     </g>
    </g>
    <g id="xtick_4">
     <g id="line2d_4">
      <g>
       <use xlink:href="#me58a2d47ee" x="226.502887" y="213.718154" style="stroke: #000000; stroke-width: 0.8"/>
      </g>
     </g>
     <g id="text_4">
      <!-- $\mathdefault{0.6}$ -->
      <g transform="translate(217.777596 230.404031) scale(0.14 -0.14)">
       <defs>
        <path id="CMR17-36" d="M 678 2176 
C 678 3690 1395 4032 1811 4032 
C 1946 4032 2272 4009 2400 3776 
C 2298 3776 2106 3776 2106 3553 
C 2106 3381 2246 3323 2336 3323 
C 2394 3323 2566 3348 2566 3560 
C 2566 3954 2246 4179 1805 4179 
C 1043 4179 243 3390 243 1984 
C 243 253 966 -128 1478 -128 
C 2099 -128 2688 427 2688 1283 
C 2688 2081 2170 2662 1517 2662 
C 1126 2662 838 2407 678 1960 
L 678 2176 
z
M 1478 25 
C 691 25 691 1200 691 1436 
C 691 1896 909 2560 1504 2560 
C 1613 2560 1926 2560 2138 2120 
C 2253 1870 2253 1609 2253 1289 
C 2253 944 2253 690 2118 434 
C 1978 171 1773 25 1478 25 
z
" transform="scale(0.015625)"/>
       </defs>
       <use xlink:href="#CMR17-30" transform="scale(0.996264)"/>
       <use xlink:href="#CMMI12-3a" transform="translate(45.690477 0) scale(0.996264)"/>
       <use xlink:href="#CMR17-36" transform="translate(72.787654 0) scale(0.996264)"/>
      </g>
     </g>
    </g>
    <g id="xtick_5">
     <g id="line2d_5">
      <g>
       <use xlink:href="#me58a2d47ee" x="281.252123" y="213.718154" style="stroke: #000000; stroke-width: 0.8"/>
      </g>
     </g>
     <g id="text_5">
      <!-- $\mathdefault{0.8}$ -->
      <g transform="translate(272.526832 230.404031) scale(0.14 -0.14)">
       <defs>
        <path id="CMR17-38" d="M 1741 2264 
C 2144 2467 2554 2773 2554 3263 
C 2554 3841 1990 4179 1472 4179 
C 890 4179 378 3759 378 3180 
C 378 3021 416 2747 666 2505 
C 730 2442 998 2251 1171 2130 
C 883 1983 211 1634 211 934 
C 211 279 838 -128 1459 -128 
C 2144 -128 2720 362 2720 1010 
C 2720 1590 2330 1857 2074 2029 
L 1741 2264 
z
M 902 2822 
C 851 2854 595 3051 595 3351 
C 595 3739 998 4032 1459 4032 
C 1965 4032 2336 3676 2336 3262 
C 2336 2669 1670 2331 1638 2331 
C 1632 2331 1626 2331 1574 2370 
L 902 2822 
z
M 2080 1519 
C 2176 1449 2483 1240 2483 851 
C 2483 381 2010 25 1472 25 
C 890 25 448 438 448 940 
C 448 1443 838 1862 1280 2060 
L 2080 1519 
z
" transform="scale(0.015625)"/>
       </defs>
       <use xlink:href="#CMR17-30" transform="scale(0.996264)"/>
       <use xlink:href="#CMMI12-3a" transform="translate(45.690477 0) scale(0.996264)"/>
       <use xlink:href="#CMR17-38" transform="translate(72.787654 0) scale(0.996264)"/>
      </g>
     </g>
    </g>
    <g id="xtick_6">
     <g id="line2d_6">
      <g>
       <use xlink:href="#me58a2d47ee" x="336.001359" y="213.718154" style="stroke: #000000; stroke-width: 0.8"/>
      </g>
     </g>
     <g id="text_6">
      <!-- $\mathdefault{1.0}$ -->
      <g transform="translate(327.276068 230.404031) scale(0.14 -0.14)">
       <defs>
        <path id="CMR17-31" d="M 1702 4058 
C 1702 4192 1696 4192 1606 4192 
C 1357 3916 979 3827 621 3827 
C 602 3827 570 3827 563 3808 
C 557 3795 557 3782 557 3648 
C 755 3648 1088 3686 1344 3839 
L 1344 461 
C 1344 236 1331 160 781 160 
L 589 160 
L 589 0 
C 896 0 1216 0 1523 0 
C 1830 0 2150 0 2458 0 
L 2458 160 
L 2266 160 
C 1715 160 1702 230 1702 458 
L 1702 4058 
z
" transform="scale(0.015625)"/>
       </defs>
       <use xlink:href="#CMR17-31" transform="scale(0.996264)"/>
       <use xlink:href="#CMMI12-3a" transform="translate(45.690477 0) scale(0.996264)"/>
       <use xlink:href="#CMR17-30" transform="translate(72.787654 0) scale(0.996264)"/>
      </g>
     </g>
    </g>
    <g id="text_7">
     <!-- t -->
     <g transform="translate(196.472746 246.801936) scale(0.14 -0.14)">
      <defs>
       <path id="CMR17-74" d="M 966 2560 
L 1862 2560 
L 1862 2725 
L 966 2725 
L 966 3904 
L 851 3904 
C 838 3245 614 2668 70 2668 
L 70 2560 
L 627 2560 
L 627 771 
C 627 650 627 -64 1370 -64 
C 1747 -64 1965 306 1965 777 
L 1965 1140 
L 1850 1140 
L 1850 783 
C 1850 344 1677 51 1408 51 
C 1222 51 966 178 966 758 
L 966 2560 
z
" transform="scale(0.015625)"/>
      </defs>
      <use xlink:href="#CMR17-74" transform="scale(0.996264)"/>
     </g>
    </g>
   </g>
   <g id="matplotlib.axis_2">
    <g id="ytick_1">
     <g id="line2d_7">
      <defs>
       <path id="m0f39f5e789" d="M 0 0 
L -3.5 0 
" style="stroke: #000000; stroke-width: 0.8"/>
      </defs>
      <g>
       <use xlink:href="#m0f39f5e789" x="48.56787" y="205.661199" style="stroke: #000000; stroke-width: 0.8"/>
      </g>
     </g>
     <g id="text_8">
      <!-- $\mathdefault{0.0}$ -->
      <g transform="translate(24.117288 210.504137) scale(0.14 -0.14)">
       <use xlink:href="#CMR17-30" transform="scale(0.996264)"/>
       <use xlink:href="#CMMI12-3a" transform="translate(45.690477 0) scale(0.996264)"/>
       <use xlink:href="#CMR17-30" transform="translate(72.787654 0) scale(0.996264)"/>
      </g>
     </g>
    </g>
    <g id="ytick_2">
     <g id="line2d_8">
      <g>
       <use xlink:href="#m0f39f5e789" x="48.56787" y="174.970345" style="stroke: #000000; stroke-width: 0.8"/>
      </g>
     </g>
     <g id="text_9">
      <!-- $\mathdefault{0.2}$ -->
      <g transform="translate(24.117288 179.813283) scale(0.14 -0.14)">
       <use xlink:href="#CMR17-30" transform="scale(0.996264)"/>
       <use xlink:href="#CMMI12-3a" transform="translate(45.690477 0) scale(0.996264)"/>
       <use xlink:href="#CMR17-32" transform="translate(72.787654 0) scale(0.996264)"/>
      </g>
     </g>
    </g>
    <g id="ytick_3">
     <g id="line2d_9">
      <g>
       <use xlink:href="#m0f39f5e789" x="48.56787" y="144.279492" style="stroke: #000000; stroke-width: 0.8"/>
      </g>
     </g>
     <g id="text_10">
      <!-- $\mathdefault{0.4}$ -->
      <g transform="translate(24.117288 149.12243) scale(0.14 -0.14)">
       <use xlink:href="#CMR17-30" transform="scale(0.996264)"/>
       <use xlink:href="#CMMI12-3a" transform="translate(45.690477 0) scale(0.996264)"/>
       <use xlink:href="#CMR17-34" transform="translate(72.787654 0) scale(0.996264)"/>
      </g>
     </g>
    </g>
    <g id="ytick_4">
     <g id="line2d_10">
      <g>
       <use xlink:href="#m0f39f5e789" x="48.56787" y="113.588638" style="stroke: #000000; stroke-width: 0.8"/>
      </g>
     </g>
     <g id="text_11">
      <!-- $\mathdefault{0.6}$ -->
      <g transform="translate(24.117288 118.431576) scale(0.14 -0.14)">
       <use xlink:href="#CMR17-30" transform="scale(0.996264)"/>
       <use xlink:href="#CMMI12-3a" transform="translate(45.690477 0) scale(0.996264)"/>
       <use xlink:href="#CMR17-36" transform="translate(72.787654 0) scale(0.996264)"/>
      </g>
     </g>
    </g>
    <g id="ytick_5">
     <g id="line2d_11">
      <g>
       <use xlink:href="#m0f39f5e789" x="48.56787" y="82.897785" style="stroke: #000000; stroke-width: 0.8"/>
      </g>
     </g>
     <g id="text_12">
      <!-- $\mathdefault{0.8}$ -->
      <g transform="translate(24.117288 87.740723) scale(0.14 -0.14)">
       <use xlink:href="#CMR17-30" transform="scale(0.996264)"/>
       <use xlink:href="#CMMI12-3a" transform="translate(45.690477 0) scale(0.996264)"/>
       <use xlink:href="#CMR17-38" transform="translate(72.787654 0) scale(0.996264)"/>
      </g>
     </g>
    </g>
    <g id="ytick_6">
     <g id="line2d_12">
      <g>
       <use xlink:href="#m0f39f5e789" x="48.56787" y="52.206931" style="stroke: #000000; stroke-width: 0.8"/>
      </g>
     </g>
     <g id="text_13">
      <!-- $\mathdefault{1.0}$ -->
      <g transform="translate(24.117288 57.049869) scale(0.14 -0.14)">
       <use xlink:href="#CMR17-31" transform="scale(0.996264)"/>
       <use xlink:href="#CMMI12-3a" transform="translate(45.690477 0) scale(0.996264)"/>
       <use xlink:href="#CMR17-30" transform="translate(72.787654 0) scale(0.996264)"/>
      </g>
     </g>
    </g>
   </g>
   <g id="line2d_13">
    <path d="M 62.255179 191.052353 
L 64.171403 190.740188 
L 65.81388 190.230688 
L 67.182611 189.580322 
L 68.551342 188.652116 
L 69.646326 187.644861 
L 70.741311 186.335846 
L 71.836296 184.651891 
L 72.93128 182.503643 
L 74.026265 179.779428 
L 75.12125 176.348941 
L 76.216235 172.086108 
L 77.311219 166.899645 
L 78.67995 159.076835 
L 80.322427 148.094811 
L 82.786143 131.402715 
L 84.154874 123.787518 
L 85.249858 118.937815 
L 86.618589 114.098328 
L 88.808559 107.488437 
L 91.272274 99.912282 
L 94.009736 90.658699 
L 98.937167 73.874117 
L 101.400883 66.339954 
L 103.317106 61.103057 
L 105.23333 56.507172 
L 107.149553 52.541568 
L 109.065776 49.13805 
L 110.708253 46.634666 
L 112.35073 44.504919 
L 113.993207 42.736207 
L 115.635684 41.297156 
L 117.278161 40.143296 
L 119.194385 39.098171 
L 121.110608 38.323473 
L 123.026831 37.778592 
L 125.216801 37.397729 
L 127.40677 37.234444 
L 130.144232 37.271414 
L 133.429186 37.567398 
L 137.535379 38.175573 
L 144.105287 39.408551 
L 156.150119 41.68735 
L 162.993773 42.736244 
L 169.837428 43.555431 
L 176.954828 44.182246 
L 185.167214 44.674003 
L 195.295822 45.042501 
L 210.899355 45.356357 
L 238.273973 45.914006 
L 255.246236 46.500247 
L 272.492245 47.321702 
L 290.559493 48.406835 
L 309.995472 49.798745 
L 330.800181 51.514736 
L 335.727612 51.952638 
L 335.727612 51.952638 
" clip-path="url(#p755e351352)" style="fill: none; stroke: #b7d4ea; stroke-width: 3; stroke-linecap: square"/>
   </g>
   <g id="line2d_14">
    <path d="M 62.255179 51.493772 
L 64.445149 67.615296 
L 67.182611 86.017992 
L 70.741311 108.252204 
L 78.953696 157.859668 
L 80.596173 166.439956 
L 81.964904 172.576579 
L 83.333635 177.684232 
L 84.702366 181.818862 
L 86.071097 185.125646 
L 87.439828 187.772148 
L 88.808559 189.908432 
L 90.17729 191.653065 
L 91.819767 193.353634 
L 93.462244 194.729423 
L 95.378467 196.027858 
L 97.568437 197.21196 
L 100.032152 198.265805 
L 102.769614 199.188341 
L 106.054568 200.051273 
L 109.887015 200.824271 
L 114.5407 201.534151 
L 120.289369 202.183272 
L 127.680516 202.783905 
L 137.261633 203.325865 
L 150.127703 203.813607 
L 167.647458 204.240228 
L 192.832107 204.614588 
L 230.60908 204.935111 
L 290.559493 205.200211 
L 335.727612 205.313508 
L 335.727612 205.313508 
" clip-path="url(#p755e351352)" style="fill: none; stroke-dasharray: 11.1,4.8; stroke-dashoffset: 0; stroke: #fdc38d; stroke-width: 3"/>
   </g>
   <g id="line2d_15">
    <path d="M 62.255179 192.992909 
L 64.663536 192.61191 
L 66.269107 192.156969 
L 67.874678 191.471405 
L 69.48013 190.467865 
L 71.085701 189.022976 
L 71.888487 188.083384 
L 72.691154 186.963996 
L 73.493939 185.63235 
L 74.296724 184.051321 
L 75.099511 182.178368 
L 75.902296 179.966249 
L 76.705081 177.36469 
L 77.507867 174.324033 
L 78.310652 170.801623 
L 79.916223 162.239057 
L 81.521677 151.915743 
L 83.929913 135.596924 
L 85.535485 126.400972 
L 87.141056 119.409687 
L 88.746508 114.081517 
L 93.563103 99.74458 
L 96.774598 88.920783 
L 100.788411 75.46394 
L 103.196765 68.170863 
L 105.605001 61.727742 
L 107.210574 57.942299 
L 108.816028 54.567702 
L 110.422188 51.592079 
L 112.027642 49.000247 
L 113.633214 46.768041 
L 115.238664 44.870271 
L 116.844237 43.27946 
L 118.449809 41.967565 
L 120.055259 40.907 
L 121.660831 40.069849 
L 123.266285 39.430247 
L 124.871972 38.962966 
L 127.280212 38.534759 
L 129.688567 38.371547 
L 132.096807 38.412085 
L 135.307829 38.695739 
L 139.321756 39.288438 
L 145.743801 40.49361 
L 158.588372 42.92834 
L 166.616112 44.19432 
L 174.643843 45.224006 
L 182.67146 46.038656 
L 192.304772 46.781432 
L 203.543526 47.4064 
L 218.796573 48.002794 
L 265.3573 49.665369 
L 283.018343 50.604943 
L 299.876482 51.726662 
L 316.734865 53.066235 
L 334.395794 54.68808 
L 336.001359 54.845941 
L 336.001359 54.845941 
" clip-path="url(#p755e351352)" style="fill: none; stroke-dasharray: 3,4.95; stroke-dashoffset: 0; stroke: #b8e3b2; stroke-width: 3"/>
   </g>
   <g id="line2d_16">
    <path d="M 62.255179 193.000234 
L 64.663536 192.621278 
L 66.269107 192.168381 
L 67.874678 191.485681 
L 69.48013 190.486138 
L 71.085701 189.046878 
L 71.888487 188.110917 
L 72.691154 186.995832 
L 73.493939 185.669275 
L 74.296724 184.094244 
L 75.099511 182.228347 
L 75.902296 180.024413 
L 76.705081 177.432219 
L 77.507867 174.402026 
L 78.310652 170.890928 
L 79.916223 162.350929 
L 81.521677 152.042908 
L 83.929913 135.71416 
L 85.535485 126.492548 
L 87.141056 119.476128 
L 88.746508 114.133469 
L 93.563103 99.798133 
L 96.774598 88.977702 
L 100.788411 75.519451 
L 103.196765 68.224398 
L 105.605001 61.779447 
L 107.210574 57.992898 
L 108.816028 54.617295 
L 110.422188 51.640684 
L 112.027642 49.048121 
L 113.633214 46.815238 
L 115.238664 44.916699 
L 116.844237 43.325119 
L 118.449809 42.012529 
L 120.055259 40.951068 
L 121.660831 40.113222 
L 123.266285 39.472687 
L 124.871972 39.004436 
L 127.280212 38.574748 
L 129.688567 38.409908 
L 132.096807 38.448745 
L 135.307829 38.730039 
L 139.321756 39.319829 
L 145.743801 40.520849 
L 158.588372 42.949542 
L 166.616112 44.213857 
L 174.643843 45.243031 
L 183.47425 46.1295 
L 193.107554 46.855794 
L 204.346316 47.469493 
L 219.599364 48.061643 
L 263.75185 49.640691 
L 281.412648 50.564168 
L 298.270803 51.668673 
L 315.129415 52.99105 
L 332.790328 54.595837 
L 336.001359 54.91015 
L 336.001359 54.91015 
" clip-path="url(#p755e351352)" style="fill: none; stroke-dasharray: 3,4.95; stroke-dashoffset: 0; stroke: #b8e3b2; stroke-width: 3"/>
   </g>
   <g id="line2d_17">
    <path d="M 62.255179 192.924413 
L 64.663536 192.524383 
L 66.269107 192.050431 
L 67.874678 191.33835 
L 69.48013 190.297691 
L 71.085701 188.800641 
L 71.888487 187.827467 
L 72.691154 186.668289 
L 73.493939 185.289543 
L 74.296724 183.652953 
L 75.099511 181.714912 
L 75.902296 179.427333 
L 76.705081 176.739722 
L 77.507867 173.603291 
L 79.113438 165.844029 
L 80.718891 156.147348 
L 84.732699 129.796108 
L 86.33827 121.956582 
L 87.943842 116.093263 
L 90.35208 109.009085 
L 92.760318 101.832224 
L 95.16903 93.920893 
L 100.788411 74.967738 
L 103.196765 67.690713 
L 105.605001 61.263809 
L 107.210574 57.488189 
L 108.816028 54.122391 
L 110.422188 51.154818 
L 112.027642 48.570321 
L 113.633214 46.344993 
L 115.238664 44.4539 
L 116.844237 42.869802 
L 118.449809 41.564914 
L 120.055259 40.511666 
L 121.660831 39.682363 
L 123.266285 39.051029 
L 124.871972 38.59262 
L 127.280212 38.178719 
L 129.688567 38.030526 
L 132.096807 38.086832 
L 135.307829 38.392091 
L 139.321756 39.011443 
L 146.546591 40.418865 
L 157.785231 42.603289 
L 165.813321 43.910684 
L 173.840938 44.967938 
L 181.868678 45.795978 
L 190.699314 46.485174 
L 201.135285 47.070976 
L 214.782769 47.595021 
L 270.976799 49.473748 
L 287.834823 50.397151 
L 304.693435 51.550682 
L 321.551574 52.926758 
L 336.001359 54.270447 
L 336.001359 54.270447 
" clip-path="url(#p755e351352)" style="fill: none; stroke-dasharray: 3,4.95; stroke-dashoffset: 0; stroke: #b8e3b2; stroke-width: 3"/>
   </g>
   <g id="line2d_18">
    <path d="M 62.255179 192.947783 
L 64.663536 192.554214 
L 66.269107 192.086708 
L 67.874678 191.383627 
L 69.48013 190.355567 
L 71.085701 188.876205 
L 71.888487 187.914421 
L 72.691154 186.768745 
L 73.493939 185.405956 
L 74.296724 183.788181 
L 75.099511 181.872183 
L 75.902296 179.610122 
L 76.705081 176.951532 
L 77.507867 173.847327 
L 79.113438 166.157281 
L 80.718891 156.518919 
L 84.732699 130.104869 
L 86.33827 122.181908 
L 87.943842 116.259237 
L 90.35208 109.150217 
L 92.760318 101.985128 
L 95.16903 94.085861 
L 100.788411 75.132522 
L 103.196765 67.850376 
L 105.605001 61.418102 
L 107.210574 57.639327 
L 108.816028 54.270703 
L 110.422188 51.300413 
L 112.027642 48.71341 
L 113.633214 46.485814 
L 115.238664 44.592434 
L 116.844237 43.005995 
L 118.449809 41.698728 
L 120.055259 40.642938 
L 121.660831 39.811037 
L 123.266285 39.176886 
L 124.871972 38.715294 
L 127.280212 38.296545 
L 129.688567 38.143267 
L 132.096807 38.194268 
L 135.307829 38.492118 
L 139.321756 39.102341 
L 146.546591 40.495165 
L 157.785231 42.6634 
L 165.813321 43.96507 
L 173.840938 45.020952 
L 181.868678 45.851389 
L 190.699314 46.546858 
L 201.135285 47.143271 
L 214.782769 47.684365 
L 271.779589 49.668845 
L 288.637614 50.616358 
L 305.496226 51.790853 
L 323.157138 53.256264 
L 336.001359 54.46204 
L 336.001359 54.46204 
" clip-path="url(#p755e351352)" style="fill: none; stroke-dasharray: 3,4.95; stroke-dashoffset: 0; stroke: #b8e3b2; stroke-width: 3"/>
   </g>
   <g id="line2d_19">
    <path d="M 62.255179 192.924413 
L 64.663536 192.524383 
L 66.269107 192.050431 
L 67.874678 191.33835 
L 69.48013 190.297691 
L 71.085701 188.800641 
L 71.888487 187.827467 
L 72.691154 186.668289 
L 73.493939 185.289543 
L 74.296724 183.652953 
L 75.099511 181.714912 
L 75.902296 179.427333 
L 76.705081 176.739722 
L 77.507867 173.603291 
L 79.113438 165.844029 
L 80.718891 156.147348 
L 84.732699 129.796108 
L 86.33827 121.956582 
L 87.943842 116.093263 
L 90.35208 109.009085 
L 92.760318 101.832224 
L 95.16903 93.920893 
L 100.788411 74.967738 
L 103.196765 67.690713 
L 105.605001 61.263809 
L 107.210574 57.488189 
L 108.816028 54.122391 
L 110.422188 51.154818 
L 112.027642 48.570321 
L 113.633214 46.344993 
L 115.238664 44.4539 
L 116.844237 42.869802 
L 118.449809 41.564914 
L 120.055259 40.511666 
L 121.660831 39.682363 
L 123.266285 39.051029 
L 124.871972 38.59262 
L 127.280212 38.178719 
L 129.688567 38.030526 
L 132.096807 38.086832 
L 135.307829 38.392091 
L 139.321756 39.011443 
L 146.546591 40.418865 
L 157.785231 42.603289 
L 165.813321 43.910684 
L 173.840938 44.967938 
L 181.868678 45.795978 
L 190.699314 46.485174 
L 201.135285 47.070976 
L 214.782769 47.595021 
L 270.976799 49.473748 
L 287.834823 50.397151 
L 304.693435 51.550682 
L 321.551574 52.926758 
L 336.001359 54.270447 
L 336.001359 54.270447 
" clip-path="url(#p755e351352)" style="fill: none; stroke-dasharray: 3,4.95; stroke-dashoffset: 0; stroke: #b8e3b2; stroke-width: 3"/>
   </g>
   <g id="line2d_20">
    <path d="M 62.255179 191.052353 
L 64.171403 191.172404 
L 65.81388 191.042605 
L 67.182611 190.712402 
L 68.551342 190.121072 
L 69.646326 189.4158 
L 70.741311 188.463069 
L 71.836296 187.221278 
L 72.93128 185.644938 
L 74.026265 183.683765 
L 75.12125 181.282004 
L 76.216235 178.379156 
L 77.311219 174.913547 
L 78.67995 169.708466 
L 80.048681 163.488133 
L 81.691158 154.820914 
L 86.344843 129.271899 
L 87.713574 123.283587 
L 89.082305 118.204661 
L 90.724782 112.978859 
L 92.914752 106.837392 
L 97.020944 96.094808 
L 100.032152 88.700295 
L 102.495868 83.220959 
L 104.412091 79.43708 
L 106.328314 76.115223 
L 108.244538 73.252816 
L 110.160761 70.8263 
L 111.803238 69.07364 
L 113.445715 67.607607 
L 115.088192 66.412249 
L 116.730669 65.467205 
L 118.373146 64.747588 
L 120.289369 64.157176 
L 122.205593 63.796745 
L 124.395562 63.622036 
L 126.859278 63.676925 
L 129.596739 63.988687 
L 132.607947 64.561098 
L 136.71414 65.594105 
L 143.284048 67.524638 
L 157.51885 71.74095 
L 165.457489 73.843119 
L 173.122382 75.645353 
L 181.334767 77.344286 
L 191.18963 79.142258 
L 205.424431 81.485541 
L 242.927658 87.581101 
L 262.363636 91.013165 
L 281.525869 94.623836 
L 300.961848 98.513632 
L 321.766557 102.908549 
L 335.727612 105.966939 
L 335.727612 105.966939 
" clip-path="url(#p755e351352)" style="fill: none; stroke: #60a7d2; stroke-width: 3; stroke-linecap: square"/>
   </g>
   <g id="line2d_21">
    <path d="M 62.255179 51.493772 
L 64.171403 65.517145 
L 66.361372 79.934399 
L 69.098834 96.354529 
L 74.573758 127.301611 
L 79.774935 156.055843 
L 81.691158 165.433062 
L 83.333635 172.360307 
L 84.702366 177.219161 
L 86.071097 181.257908 
L 87.439828 184.562937 
L 88.808559 187.251963 
L 90.17729 189.444194 
L 91.546021 191.243561 
L 93.188498 193.001049 
L 94.830975 194.42314 
L 96.747198 195.764261 
L 98.937167 196.985928 
L 101.400883 198.071889 
L 104.138345 199.021309 
L 107.423299 199.908113 
L 111.255745 200.701268 
L 115.909431 201.428411 
L 121.6581 202.092124 
L 129.049247 202.705078 
L 138.356617 203.243926 
L 150.948941 203.735475 
L 168.194951 204.168967 
L 192.832107 204.54742 
L 229.514095 204.869799 
L 287.548285 205.136253 
L 335.727612 205.25936 
L 335.727612 205.25936 
" clip-path="url(#p755e351352)" style="fill: none; stroke-dasharray: 11.1,4.8; stroke-dashoffset: 0; stroke: #fa8331; stroke-width: 3"/>
   </g>
   <g id="line2d_22">
    <path d="M 62.255179 192.273338 
L 63.86075 192.363587 
L 65.466321 192.282273 
L 67.071893 191.97896 
L 68.677463 191.385859 
L 70.282916 190.414809 
L 71.888487 188.955995 
L 73.493939 186.879952 
L 75.099511 184.037946 
L 76.705081 180.260523 
L 78.310652 175.358267 
L 79.916223 169.158592 
L 81.521677 161.619202 
L 83.929913 148.466538 
L 86.33827 135.270391 
L 87.943842 127.684376 
L 89.549294 121.377402 
L 91.154864 116.128989 
L 93.563103 109.388778 
L 98.380052 97.001198 
L 101.591193 89.191019 
L 103.999551 83.870971 
L 106.407788 79.185384 
L 108.01336 76.45232 
L 109.618814 74.039524 
L 111.224856 71.940995 
L 112.830428 70.145977 
L 114.436 68.636671 
L 116.04145 67.392863 
L 117.647023 66.392437 
L 119.252477 65.612727 
L 120.858045 65.030894 
L 122.463618 64.62485 
L 124.871972 64.299314 
L 127.280212 64.255913 
L 129.688567 64.436403 
L 132.899589 64.93898 
L 136.913402 65.85481 
L 142.532779 67.432185 
L 165.813321 74.303018 
L 175.446633 76.807711 
L 185.882482 79.292491 
L 197.924271 81.922135 
L 213.177188 85.003025 
L 269.371235 96.122888 
L 305.496226 103.697497 
L 336.001359 110.187622 
L 336.001359 110.187622 
" clip-path="url(#p755e351352)" style="fill: none; stroke-dasharray: 3,4.95; stroke-dashoffset: 0; stroke: #66bd6f; stroke-width: 3"/>
   </g>
   <g id="line2d_23">
    <path d="M 62.255179 191.696682 
L 63.86075 191.780172 
L 65.466321 191.66849 
L 67.071893 191.302983 
L 68.677463 190.605801 
L 70.282916 189.476876 
L 71.085701 188.712739 
L 71.888487 187.792528 
L 72.691154 186.697429 
L 73.493939 185.406708 
L 74.296724 183.898534 
L 75.099511 182.149185 
L 76.705081 177.823767 
L 78.310652 172.220238 
L 79.916223 165.185291 
L 81.521677 156.782532 
L 86.33827 129.430382 
L 87.943842 122.087424 
L 89.549294 116.0128 
L 91.154864 110.868659 
L 93.563103 104.091129 
L 96.774598 95.759457 
L 99.985625 88.011695 
L 102.393861 82.764938 
L 104.802219 78.139198 
L 106.407788 75.432759 
L 108.01336 73.034762 
L 109.618814 70.9412 
L 111.224856 69.140657 
L 112.830428 67.619516 
L 114.436 66.35907 
L 116.04145 65.339729 
L 117.647023 64.540637 
L 119.252477 63.940859 
L 120.858045 63.519567 
L 123.266285 63.178875 
L 125.674758 63.131514 
L 128.082998 63.320071 
L 131.294017 63.851954 
L 134.505047 64.613426 
L 139.321756 66.018159 
L 148.954823 69.167411 
L 158.588372 72.22646 
L 166.616112 74.546885 
L 174.643843 76.645039 
L 183.47425 78.721479 
L 193.107554 80.756109 
L 205.14922 83.048519 
L 221.204814 85.852835 
L 258.132465 92.007555 
L 284.623793 96.25073 
L 307.90458 99.747095 
L 336.001359 103.743019 
L 336.001359 103.743019 
" clip-path="url(#p755e351352)" style="fill: none; stroke-dasharray: 3,4.95; stroke-dashoffset: 0; stroke: #66bd6f; stroke-width: 3"/>
   </g>
   <g id="line2d_24">
    <path d="M 62.255179 192.006474 
L 63.86075 192.094933 
L 65.466321 192.001603 
L 67.071893 191.67246 
L 68.677463 191.035319 
L 70.282916 189.996885 
L 71.888487 188.441402 
L 72.691154 187.42805 
L 73.493939 186.232524 
L 74.296724 184.834658 
L 75.902296 181.343053 
L 77.507867 176.760823 
L 79.113438 170.89356 
L 80.718891 163.635068 
L 82.324461 155.133142 
L 86.33827 132.65711 
L 87.943842 125.156378 
L 89.549294 118.93218 
L 91.154864 113.704796 
L 93.563103 106.895574 
L 97.577266 96.456135 
L 100.788411 88.63905 
L 103.196765 83.32952 
L 105.605001 78.651425 
L 107.210574 75.918973 
L 108.816028 73.502628 
L 110.422188 71.396617 
L 112.027642 69.591209 
L 113.633214 68.069171 
L 115.238664 66.811342 
L 116.844237 65.7965 
L 118.449809 65.002897 
L 120.055259 64.408469 
L 121.660831 63.991705 
L 124.069186 63.654534 
L 126.477426 63.605582 
L 128.885781 63.786785 
L 132.096807 64.299698 
L 136.110612 65.241403 
L 140.927206 66.625154 
L 166.616112 74.385923 
L 175.446633 76.668765 
L 185.0797 78.923499 
L 195.515794 81.137806 
L 208.360708 83.625769 
L 229.232423 87.394263 
L 271.779589 95.078201 
L 322.354365 104.211462 
L 336.001359 106.654735 
L 336.001359 106.654735 
" clip-path="url(#p755e351352)" style="fill: none; stroke-dasharray: 3,4.95; stroke-dashoffset: 0; stroke: #66bd6f; stroke-width: 3"/>
   </g>
   <g id="line2d_25">
    <path d="M 62.255179 191.830151 
L 63.86075 191.916253 
L 65.466321 191.813139 
L 67.071893 191.464207 
L 68.677463 190.79413 
L 70.282916 189.70588 
L 71.085701 188.968259 
L 71.888487 188.079338 
L 72.691154 187.020906 
L 73.493939 185.772896 
L 74.296724 184.314217 
L 75.902296 180.671819 
L 77.507867 175.892933 
L 79.113438 169.781458 
L 80.718891 162.250321 
L 82.324461 153.497485 
L 86.33827 130.840049 
L 87.943842 123.41967 
L 89.549294 117.272111 
L 91.154864 112.083234 
L 93.563103 105.276692 
L 97.577266 94.874608 
L 100.788411 87.194136 
L 103.196765 82.029863 
L 105.605001 77.509812 
L 107.210574 74.881622 
L 108.816028 72.565094 
L 110.422188 70.55246 
L 112.027642 68.833131 
L 113.633214 67.389333 
L 115.238664 66.202216 
L 116.844237 65.250824 
L 118.449809 64.514057 
L 120.055259 63.970274 
L 121.660831 63.598722 
L 124.069186 63.320629 
L 126.477426 63.321937 
L 128.885781 63.546339 
L 132.096807 64.108306 
L 136.110612 65.101003 
L 141.729997 66.788768 
L 161.799517 73.086705 
L 169.827134 75.30125 
L 178.657656 77.50297 
L 188.290959 79.661556 
L 198.727053 81.771371 
L 212.374529 84.286409 
L 236.457503 88.445664 
L 295.059773 98.351911 
L 325.565379 103.206627 
L 336.001359 104.841369 
L 336.001359 104.841369 
" clip-path="url(#p755e351352)" style="fill: none; stroke-dasharray: 3,4.95; stroke-dashoffset: 0; stroke: #66bd6f; stroke-width: 3"/>
   </g>
   <g id="line2d_26">
    <path d="M 62.255179 192.131278 
L 63.86075 192.220795 
L 65.466321 192.133458 
L 67.071893 191.816962 
L 68.677463 191.201248 
L 70.282916 190.195464 
L 71.888487 188.686744 
L 72.691154 187.703091 
L 73.493939 186.542117 
L 75.099511 183.608329 
L 76.705081 179.710129 
L 78.310652 174.652857 
L 79.916223 168.266043 
L 81.521677 160.527374 
L 83.929913 147.145606 
L 86.33827 133.90164 
L 87.943842 126.356447 
L 89.549294 120.089452 
L 91.154864 114.847498 
L 93.563103 108.0603 
L 97.577266 97.63727 
L 100.788411 89.745723 
L 103.196765 84.340812 
L 105.605001 79.55251 
L 107.210574 76.745148 
L 108.816028 74.256014 
L 110.422188 72.081148 
L 112.027642 70.211805 
L 113.633214 68.63111 
L 115.238664 67.320267 
L 116.844237 66.257717 
L 118.449809 65.421353 
L 120.055259 64.788912 
L 121.660831 64.338077 
L 124.069186 63.956811 
L 126.477426 63.870613 
L 128.885781 64.019858 
L 132.096807 64.497127 
L 135.307829 65.200454 
L 140.124538 66.512806 
L 148.954823 69.227522 
L 160.193944 72.619946 
L 169.024466 75.056816 
L 178.657656 77.477744 
L 189.09375 79.858994 
L 201.135285 82.361034 
L 216.388333 85.286871 
L 274.990603 96.321131 
L 336.001359 108.192194 
L 336.001359 108.192194 
" clip-path="url(#p755e351352)" style="fill: none; stroke-dasharray: 3,4.95; stroke-dashoffset: 0; stroke: #66bd6f; stroke-width: 3"/>
   </g>
   <g id="line2d_27">
    <path d="M 62.255179 192.201822 
L 63.86075 192.291756 
L 65.466321 192.207513 
L 67.071893 191.897712 
L 68.677463 191.293449 
L 70.282916 190.305231 
L 71.888487 188.821724 
L 72.691154 187.854072 
L 73.493939 186.711733 
L 75.099511 183.824303 
L 76.705081 179.987156 
L 78.310652 175.008241 
L 79.916223 168.715838 
L 81.521677 161.077344 
L 83.929913 147.809625 
L 86.33827 134.587881 
L 87.943842 127.02123 
L 89.549294 120.733427 
L 91.154864 115.487045 
L 93.563103 108.720473 
L 98.380052 96.29564 
L 101.591193 88.522531 
L 103.999551 83.254948 
L 106.407788 78.63122 
L 108.01336 75.940687 
L 109.618814 73.569298 
L 111.224856 71.51019 
L 112.830428 69.751796 
L 114.436 68.276003 
L 116.04145 67.062681 
L 117.647023 66.089621 
L 119.252477 65.334387 
L 120.858045 64.774452 
L 122.463618 64.387807 
L 124.871972 64.087561 
L 127.280212 64.065472 
L 129.688567 64.26399 
L 132.899589 64.786626 
L 136.913402 65.722879 
L 142.532779 67.322791 
L 165.010653 74.019465 
L 174.643843 76.540951 
L 185.0797 79.026837 
L 196.318576 81.470943 
L 209.966044 84.206852 
L 238.865743 89.689554 
L 264.55464 94.68659 
L 303.890776 102.611148 
L 336.001359 109.151634 
L 336.001359 109.151634 
" clip-path="url(#p755e351352)" style="fill: none; stroke-dasharray: 3,4.95; stroke-dashoffset: 0; stroke: #66bd6f; stroke-width: 3"/>
   </g>
   <g id="line2d_28">
    <path d="M 62.255179 191.052353 
L 64.171403 191.402648 
L 65.81388 191.491468 
L 67.456357 191.354731 
L 69.098834 190.963 
L 70.467565 190.422784 
L 71.836296 189.675146 
L 73.205027 188.710717 
L 74.847504 187.257813 
L 76.489981 185.476789 
L 78.132458 183.370113 
L 80.048681 180.521292 
L 82.238651 176.809266 
L 84.976112 171.648121 
L 89.629797 162.71649 
L 91.546021 159.57895 
L 93.188498 157.349081 
L 94.557229 155.864883 
L 95.925959 154.73334 
L 97.020944 154.075911 
L 98.115929 153.626489 
L 99.48466 153.334008 
L 100.853391 153.309445 
L 102.222122 153.518006 
L 103.864599 154.028065 
L 105.507076 154.769442 
L 107.697045 156.032146 
L 110.434507 157.911313 
L 114.5407 161.048116 
L 121.931846 166.713677 
L 125.764293 169.363155 
L 129.322993 171.559125 
L 132.607947 173.339924 
L 135.892902 174.880818 
L 139.177856 176.187218 
L 142.46281 177.269326 
L 146.02151 178.202707 
L 149.580211 178.902886 
L 153.138911 179.383955 
L 156.971357 179.670158 
L 160.803804 179.726017 
L 164.63625 179.557623 
L 168.468697 179.166824 
L 172.301143 178.551462 
L 176.13359 177.705899 
L 179.966036 176.621688 
L 183.524737 175.392293 
L 187.083437 173.939707 
L 190.642137 172.256232 
L 194.200838 170.336551 
L 198.033284 168.003682 
L 201.865731 165.401476 
L 205.971923 162.332864 
L 210.351862 158.777769 
L 215.55304 154.259035 
L 223.217933 147.263446 
L 233.346541 138.054479 
L 238.821465 133.378309 
L 243.47515 129.678725 
L 247.855089 126.472801 
L 251.961282 123.73369 
L 256.067474 121.264258 
L 260.173667 119.068163 
L 264.006113 117.262663 
L 268.112306 115.582536 
L 272.218499 114.154086 
L 276.324691 112.962843 
L 280.70463 111.935087 
L 285.084569 111.137102 
L 289.738254 110.516287 
L 294.665685 110.085071 
L 299.866863 109.849071 
L 305.615533 109.809813 
L 312.185441 109.997117 
L 319.576588 110.436538 
L 328.610212 111.206616 
L 335.727612 111.931977 
L 335.727612 111.931977 
" clip-path="url(#p755e351352)" style="fill: none; stroke: #1d6cb1; stroke-width: 3; stroke-linecap: square"/>
   </g>
   <g id="line2d_29">
    <path d="M 62.255179 51.493772 
L 64.171403 65.430169 
L 66.361372 79.537736 
L 68.825088 93.758977 
L 71.56255 108.229536 
L 75.12125 125.786021 
L 78.67995 142.237444 
L 81.417412 153.882053 
L 83.607381 162.277987 
L 85.523605 168.79059 
L 87.166082 173.689757 
L 88.808559 177.944964 
L 90.451036 181.579696 
L 92.093513 184.645904 
L 93.73599 187.212579 
L 95.378467 189.354125 
L 97.020944 191.141877 
L 98.937167 192.864582 
L 100.853391 194.275868 
L 103.04336 195.592304 
L 105.507076 196.784519 
L 108.244538 197.841452 
L 111.255745 198.7649 
L 114.814446 199.623145 
L 119.194385 200.435917 
L 124.395562 201.163806 
L 130.96547 201.842606 
L 139.177856 202.453788 
L 149.853957 203.012606 
L 164.088758 203.522402 
L 183.798483 203.99028 
L 211.446847 204.409366 
L 251.413789 204.778008 
L 309.447979 205.075562 
L 335.727612 205.159825 
L 335.727612 205.159825 
" clip-path="url(#p755e351352)" style="fill: none; stroke-dasharray: 11.1,4.8; stroke-dashoffset: 0; stroke: #d14501; stroke-width: 3"/>
   </g>
   <g id="line2d_30">
    <path d="M 62.255179 190.649886 
L 63.86075 190.947263 
L 65.466321 191.046613 
L 67.071893 190.923629 
L 68.677463 190.549874 
L 70.282916 189.895625 
L 71.888487 188.934239 
L 73.493939 187.647543 
L 75.099511 186.028582 
L 76.705081 184.082211 
L 78.310652 181.821792 
L 79.916223 179.267018 
L 82.324461 174.949134 
L 85.535485 168.586155 
L 88.746508 162.277116 
L 90.35208 159.466392 
L 91.957651 157.039391 
L 93.563103 155.070296 
L 95.16903 153.590684 
L 96.774598 152.59544 
L 98.380052 152.049411 
L 99.985625 151.900084 
L 101.591193 152.087383 
L 103.196765 152.550576 
L 104.802219 153.233144 
L 107.210574 154.560849 
L 110.422188 156.691281 
L 117.647023 161.962199 
L 122.463618 165.296706 
L 126.477426 167.777084 
L 129.688567 169.520351 
L 132.899589 171.031365 
L 136.110612 172.303365 
L 139.321756 173.335875 
L 142.532779 174.132286 
L 145.743801 174.698339 
L 148.954823 175.04044 
L 152.165968 175.164739 
L 155.376991 175.076212 
L 158.588372 174.778159 
L 161.799517 174.272332 
L 165.010653 173.55842 
L 168.221676 172.634926 
L 171.432706 171.499032 
L 174.643843 170.147633 
L 177.854865 168.578213 
L 181.065888 166.789562 
L 184.276918 164.783025 
L 188.290959 161.976106 
L 192.304772 158.856905 
L 196.318576 155.458719 
L 201.135285 151.080925 
L 207.557934 144.917433 
L 217.993783 134.867858 
L 222.810378 130.535824 
L 226.824182 127.191631 
L 230.838003 124.141281 
L 234.851922 121.418351 
L 238.062953 119.48907 
L 241.273967 117.785372 
L 244.485112 116.305784 
L 247.696028 115.0451 
L 250.907042 113.994167 
L 254.118187 113.141815 
L 258.132465 112.334802 
L 262.146285 111.788476 
L 266.16009 111.472462 
L 270.174009 111.356318 
L 274.990603 111.439534 
L 280.609874 111.783921 
L 287.032147 112.421182 
L 295.059773 113.459658 
L 307.90458 115.386963 
L 327.973619 118.385507 
L 336.001359 119.459756 
L 336.001359 119.459756 
" clip-path="url(#p755e351352)" style="fill: none; stroke-dasharray: 3,4.95; stroke-dashoffset: 0; stroke: #1e8741; stroke-width: 3"/>
   </g>
   <g id="line2d_31">
    <path d="M 62.255179 190.752036 
L 63.86075 191.048592 
L 65.466321 191.151062 
L 67.071893 191.035639 
L 68.677463 190.6744 
L 70.282916 190.038001 
L 71.888487 189.099956 
L 73.493939 187.841878 
L 75.099511 186.256309 
L 76.705081 184.347337 
L 78.310652 182.127416 
L 79.916223 179.615027 
L 82.324461 175.359882 
L 85.535485 169.061684 
L 88.746508 162.767807 
L 90.35208 159.941306 
L 91.957651 157.4851 
L 93.563103 155.477616 
L 95.16903 153.955629 
L 96.774598 152.918932 
L 98.380052 152.336367 
L 99.985625 152.158132 
L 101.591193 152.32546 
L 103.196765 152.778051 
L 104.802219 153.4589 
L 107.210574 154.798875 
L 110.422188 156.967536 
L 116.04145 161.173306 
L 121.660831 165.271983 
L 125.674758 167.908304 
L 128.885781 169.783384 
L 132.096807 171.429241 
L 135.307829 172.837351 
L 138.518974 174.006569 
L 141.729997 174.940422 
L 144.941019 175.645329 
L 148.152164 176.128968 
L 151.3633 176.398904 
L 154.574323 176.461716 
L 157.785231 176.322572 
L 160.996849 175.984557 
L 164.207871 175.449159 
L 167.418894 174.715733 
L 170.629916 173.782329 
L 173.840938 172.646009 
L 177.052083 171.303421 
L 180.263106 169.752006 
L 183.47425 167.9906 
L 186.685273 166.020613 
L 190.699314 163.272772 
L 194.713004 160.227059 
L 198.727053 156.915757 
L 203.543526 152.658332 
L 210.768834 145.913048 
L 220.402023 136.912395 
L 225.218732 132.692027 
L 229.232423 129.42214 
L 233.246358 126.425092 
L 237.260162 123.732593 
L 240.471193 121.810566 
L 243.682338 120.098864 
L 246.893352 118.59694 
L 250.104382 117.300009 
L 253.315397 116.200543 
L 257.329691 115.088135 
L 261.343495 114.244801 
L 265.3573 113.644337 
L 269.371235 113.259129 
L 274.187829 113.042098 
L 279.004424 113.049416 
L 284.623793 113.284382 
L 291.045968 113.777932 
L 299.073708 114.62144 
L 311.918385 116.230489 
L 334.395794 119.060525 
L 336.001359 119.245707 
L 336.001359 119.245707 
" clip-path="url(#p755e351352)" style="fill: none; stroke-dasharray: 3,4.95; stroke-dashoffset: 0; stroke: #1e8741; stroke-width: 3"/>
   </g>
   <g id="line2d_32">
    <path d="M 62.255179 190.470563 
L 63.86075 190.768034 
L 65.466321 190.860485 
L 67.071893 190.722635 
L 68.677463 190.325135 
L 70.282916 189.637569 
L 71.888487 188.633065 
L 73.493939 187.293863 
L 75.099511 185.614061 
L 76.705081 183.599978 
L 78.310652 181.266793 
L 80.718891 177.219685 
L 83.127247 172.630755 
L 88.746508 161.415238 
L 90.35208 158.639129 
L 91.957651 156.26923 
L 93.563103 154.371318 
L 95.16903 152.967441 
L 96.774598 152.04358 
L 98.380052 151.557924 
L 99.985625 151.453758 
L 101.591193 151.669 
L 103.196765 152.142963 
L 104.802219 152.820153 
L 107.210574 154.11365 
L 110.422188 156.160651 
L 123.266285 164.763144 
L 127.280212 166.99949 
L 130.491235 168.541092 
L 133.702257 169.847289 
L 136.913402 170.911878 
L 140.124538 171.733626 
L 143.335569 172.314576 
L 146.546591 172.65828 
L 149.757614 172.768679 
L 152.968759 172.649103 
L 156.179659 172.301586 
L 159.391154 171.726702 
L 162.602299 170.923666 
L 165.813321 169.890305 
L 169.024466 168.623448 
L 172.235488 167.120156 
L 175.446633 165.378115 
L 178.657656 163.397079 
L 181.868678 161.179695 
L 185.0797 158.733207 
L 189.09375 155.37233 
L 193.107554 151.71225 
L 197.924271 147.003166 
L 205.14922 139.559381 
L 213.177188 131.312864 
L 217.993783 126.665574 
L 222.007588 123.086011 
L 226.021523 119.836805 
L 229.232423 117.504261 
L 232.443682 115.423294 
L 235.654712 113.600836 
L 238.865743 112.036907 
L 242.076871 110.726302 
L 245.287902 109.659444 
L 248.498802 108.823199 
L 251.709832 108.201981 
L 254.92145 107.7781 
L 258.935255 107.498133 
L 262.949059 107.461409 
L 266.96288 107.631636 
L 271.779589 108.061032 
L 277.398844 108.803753 
L 283.821019 109.878861 
L 293.454208 111.751835 
L 319.94601 117.053947 
L 331.184764 119.004246 
L 336.001359 119.762151 
L 336.001359 119.762151 
" clip-path="url(#p755e351352)" style="fill: none; stroke-dasharray: 3,4.95; stroke-dashoffset: 0; stroke: #1e8741; stroke-width: 3"/>
   </g>
   <g id="line2d_33">
    <path d="M 62.255179 190.609579 
L 63.86075 190.907126 
L 65.466321 191.005082 
L 67.071893 190.878929 
L 68.677463 190.500022 
L 70.282916 189.838505 
L 71.888487 188.867662 
L 73.493939 187.569393 
L 75.099511 185.936991 
L 76.705081 183.97561 
L 78.310652 181.698995 
L 79.916223 179.127363 
L 82.324461 174.784703 
L 85.535485 168.396759 
L 88.746508 162.083098 
L 90.35208 159.279413 
L 91.957651 156.864627 
L 93.563103 154.911136 
L 95.16903 153.448473 
L 96.774598 152.469468 
L 98.380052 151.937475 
L 99.985625 151.798969 
L 101.591193 151.99337 
L 103.196765 152.459933 
L 104.802219 153.142273 
L 107.210574 154.463726 
L 110.422188 156.577269 
L 124.069186 166.092711 
L 127.280212 167.969167 
L 130.491235 169.624181 
L 133.702257 171.044465 
L 136.913402 172.224839 
L 140.124538 173.165542 
L 143.335569 173.870255 
L 146.546591 174.344531 
L 149.757614 174.594276 
L 152.968759 174.624841 
L 156.179659 174.440302 
L 159.391154 174.043029 
L 162.602299 173.433789 
L 165.813321 172.611673 
L 169.024466 171.574386 
L 172.235488 170.319074 
L 175.446633 168.842655 
L 178.657656 167.14326 
L 181.868678 165.220927 
L 185.0797 163.078599 
L 189.09375 160.102881 
L 193.107554 156.821337 
L 197.924271 152.537075 
L 203.543526 147.187538 
L 219.599364 131.629546 
L 224.415828 127.426177 
L 228.429649 124.234759 
L 232.443682 121.369901 
L 235.654712 119.330706 
L 238.865743 117.522856 
L 242.076871 115.946908 
L 245.287902 114.599122 
L 248.498802 113.471476 
L 251.709832 112.553003 
L 254.92145 111.830496 
L 258.935255 111.180567 
L 262.949059 110.783047 
L 266.96288 110.606271 
L 271.779589 110.641696 
L 276.59607 110.898971 
L 282.215553 111.417317 
L 289.440388 112.330046 
L 299.073708 113.799893 
L 330.381974 118.761999 
L 336.001359 119.536797 
L 336.001359 119.536797 
" clip-path="url(#p755e351352)" style="fill: none; stroke-dasharray: 3,4.95; stroke-dashoffset: 0; stroke: #1e8741; stroke-width: 3"/>
   </g>
   <g id="line2d_34">
    <path d="M 62.255179 190.509991 
L 63.86075 190.807587 
L 65.466321 190.901708 
L 67.071893 190.767299 
L 68.677463 190.375202 
L 70.282916 189.695156 
L 71.888487 188.700356 
L 73.493939 187.372919 
L 75.099511 185.706709 
L 76.705081 183.707693 
L 78.310652 181.390647 
L 79.916223 178.777092 
L 82.324461 174.373432 
L 86.33827 166.292751 
L 88.746508 161.604224 
L 90.35208 158.819756 
L 91.957651 156.436714 
L 93.563103 154.522781 
L 95.16903 153.102211 
L 96.774598 152.162916 
L 98.380052 151.664509 
L 99.985625 151.551105 
L 101.591193 151.761051 
L 103.196765 152.233573 
L 104.802219 152.912931 
L 107.210574 154.215419 
L 110.422188 156.282607 
L 123.266285 165.005973 
L 127.280212 167.283505 
L 130.491235 168.858202 
L 133.702257 170.19769 
L 136.913402 171.296163 
L 140.124538 172.152807 
L 143.335569 172.770154 
L 146.546591 173.152385 
L 149.757614 173.303994 
L 152.968759 173.228832 
L 156.179659 172.929652 
L 159.391154 172.407498 
L 162.602299 171.662013 
L 165.813321 170.691368 
L 169.024466 169.492726 
L 172.235488 168.063041 
L 175.446633 166.399739 
L 178.657656 164.502073 
L 181.868678 162.371884 
L 185.0797 160.015009 
L 189.09375 156.767216 
L 193.107554 153.217792 
L 197.924271 148.632063 
L 204.346316 142.160922 
L 214.782769 131.606871 
L 219.599364 127.076942 
L 223.613168 123.598659 
L 227.626859 120.448858 
L 230.838003 118.191042 
L 234.049148 116.179003 
L 237.260162 114.41769 
L 240.471193 112.90618 
L 243.682338 111.638436 
L 246.893352 110.604762 
L 250.104382 109.792023 
L 253.315397 109.1849 
L 256.527015 108.766435 
L 260.540705 108.481802 
L 264.55464 108.42909 
L 269.371235 108.623867 
L 274.187829 109.046997 
L 279.807084 109.761584 
L 287.032147 110.923008 
L 297.468127 112.860347 
L 320.748784 117.244095 
L 331.987554 119.099901 
L 336.001359 119.705223 
L 336.001359 119.705223 
" clip-path="url(#p755e351352)" style="fill: none; stroke-dasharray: 3,4.95; stroke-dashoffset: 0; stroke: #1e8741; stroke-width: 3"/>
   </g>
   <g id="line2d_35">
    <path d="M 62.255179 191.052353 
L 64.445149 191.625598 
L 66.908864 192.026884 
L 69.646326 192.217212 
L 72.93128 192.196214 
L 77.584965 191.917132 
L 85.249858 191.204672 
L 93.188498 190.263778 
L 97.842183 189.507735 
L 101.674629 188.65549 
L 105.507076 187.561104 
L 109.887015 186.069772 
L 124.121816 181.005027 
L 127.133024 180.291895 
L 129.870486 179.87943 
L 132.334201 179.726595 
L 134.797917 179.783421 
L 137.535379 180.070283 
L 140.820333 180.662058 
L 145.200272 181.714508 
L 157.245104 184.750132 
L 161.898789 185.639075 
L 166.552474 186.299646 
L 171.206159 186.732834 
L 176.13359 186.962069 
L 181.334767 186.979586 
L 187.083437 186.776682 
L 193.927092 186.301507 
L 202.413223 185.474368 
L 216.100532 183.878501 
L 236.084003 181.582296 
L 249.22382 180.310525 
L 262.911129 179.214647 
L 278.788407 178.17532 
L 300.414355 177.000601 
L 335.727612 175.259505 
L 335.727612 175.259505 
" clip-path="url(#p755e351352)" style="fill: none; stroke: #08306b; stroke-width: 3; stroke-linecap: square"/>
   </g>
   <g id="line2d_36">
    <path d="M 62.255179 51.493772 
L 64.171403 65.374569 
L 66.087626 77.596402 
L 68.003849 88.492673 
L 70.193819 99.63758 
L 72.383788 109.636512 
L 74.573758 118.669083 
L 76.763727 126.859717 
L 79.227443 135.180094 
L 81.691158 142.649935 
L 84.154874 149.352195 
L 86.618589 155.359068 
L 89.082305 160.735489 
L 91.546021 165.541269 
L 94.009736 169.832567 
L 96.473452 173.662612 
L 98.937167 177.081362 
L 101.400883 180.134152 
L 103.864599 182.860142 
L 106.60206 185.54502 
L 109.339522 187.902892 
L 112.076984 189.964908 
L 114.814446 191.759655 
L 117.825654 193.457979 
L 120.836862 194.901749 
L 124.121816 196.226503 
L 127.680516 197.41337 
L 131.512963 198.455013 
L 135.892902 199.40747 
L 140.820333 200.247432 
L 146.569003 201.001419 
L 153.686403 201.701501 
L 162.446281 202.331289 
L 173.669874 202.908101 
L 188.725914 203.445499 
L 208.709385 203.923757 
L 235.810257 204.338241 
L 274.408468 204.690331 
L 332.990151 204.982869 
L 335.727612 204.99262 
L 335.727612 204.99262 
" clip-path="url(#p755e351352)" style="fill: none; stroke-dasharray: 11.1,4.8; stroke-dashoffset: 0; stroke: #7f2704; stroke-width: 3"/>
   </g>
   <g id="line2d_37">
    <path d="M 62.255179 191.049849 
L 64.663536 191.644363 
L 67.071893 192.001512 
L 69.48013 192.161907 
L 72.691154 192.144265 
L 77.507867 191.826121 
L 88.746508 190.736327 
L 94.366244 190.001511 
L 98.380052 189.276955 
L 102.393861 188.323855 
L 106.407788 187.114929 
L 110.422188 185.664317 
L 116.844237 183.043168 
L 121.660831 181.156577 
L 124.871972 180.115892 
L 128.082998 179.347284 
L 130.491235 178.981997 
L 132.899589 178.807587 
L 135.307829 178.819869 
L 138.518974 179.099663 
L 141.729997 179.62765 
L 145.743801 180.530377 
L 162.602299 184.657454 
L 167.418894 185.441342 
L 172.235488 185.972495 
L 177.052083 186.260615 
L 181.868678 186.328702 
L 187.488055 186.169108 
L 193.910344 185.731984 
L 201.135285 185.000552 
L 210.768834 183.780802 
L 245.287902 179.19053 
L 256.527015 178.011848 
L 267.765654 177.046958 
L 280.609874 176.176903 
L 297.468127 175.287722 
L 331.184764 173.559657 
L 336.001359 173.257152 
L 336.001359 173.257152 
" clip-path="url(#p755e351352)" style="fill: none; stroke-dasharray: 3,4.95; stroke-dashoffset: 0; stroke: #00441b; stroke-width: 3"/>
   </g>
   <g id="line2d_38">
    <path d="M 62.255179 190.713654 
L 64.663536 191.315753 
L 67.071893 191.673413 
L 69.48013 191.828483 
L 72.691154 191.798723 
L 77.507867 191.464001 
L 88.746508 190.360358 
L 94.366244 189.603218 
L 98.380052 188.852745 
L 102.393861 187.87306 
L 106.407788 186.650448 
L 111.224856 184.913782 
L 120.055259 181.598069 
L 123.266285 180.635526 
L 126.477426 179.936601 
L 128.885781 179.616781 
L 131.294017 179.481455 
L 133.702257 179.52612 
L 136.913402 179.838803 
L 140.124538 180.388598 
L 144.138237 181.305152 
L 160.193944 185.2658 
L 165.010653 186.093024 
L 169.827134 186.678728 
L 174.643843 187.031399 
L 179.460438 187.173152 
L 185.0797 187.109913 
L 191.501982 186.794892 
L 198.727053 186.212984 
L 208.360708 185.205707 
L 244.485112 181.2107 
L 256.527015 180.20013 
L 269.371235 179.34888 
L 284.623793 178.570384 
L 324.762605 176.639695 
L 336.001359 175.894806 
L 336.001359 175.894806 
" clip-path="url(#p755e351352)" style="fill: none; stroke-dasharray: 3,4.95; stroke-dashoffset: 0; stroke: #00441b; stroke-width: 3"/>
   </g>
   <g id="line2d_39">
    <path d="M 62.255179 190.116617 
L 64.663536 190.750088 
L 67.071893 191.123675 
L 69.48013 191.281527 
L 72.691154 191.242284 
L 77.507867 190.885801 
L 87.943842 189.82041 
L 92.760318 189.162816 
L 96.774598 188.421795 
L 100.788411 187.453767 
L 104.802219 186.246925 
L 109.618814 184.540714 
L 118.449809 181.335494 
L 121.660831 180.432853 
L 124.871972 179.801261 
L 127.280212 179.534444 
L 129.688567 179.452152 
L 132.096807 179.547981 
L 135.307829 179.923185 
L 138.518974 180.526627 
L 143.335569 181.708 
L 156.179659 185.05207 
L 160.996849 186.02135 
L 165.813321 186.759918 
L 170.629916 187.269797 
L 175.446633 187.569863 
L 181.065888 187.690979 
L 187.488055 187.585388 
L 194.713004 187.236859 
L 204.346316 186.534887 
L 247.696028 183.078355 
L 262.146285 182.319591 
L 280.609874 181.602105 
L 307.10179 180.572536 
L 321.551574 179.776734 
L 335.198568 178.799938 
L 336.001359 178.735457 
L 336.001359 178.735457 
" clip-path="url(#p755e351352)" style="fill: none; stroke-dasharray: 3,4.95; stroke-dashoffset: 0; stroke: #00441b; stroke-width: 3"/>
   </g>
   <g id="patch_3">
    <path d="M 48.56787 213.718154 
L 48.56787 28.815931 
" style="fill: none; stroke: #000000; stroke-width: 0.8; stroke-linejoin: miter; stroke-linecap: square"/>
   </g>
   <g id="patch_4">
    <path d="M 349.688667 213.718154 
L 349.688667 28.815931 
" style="fill: none; stroke: #000000; stroke-width: 0.8; stroke-linejoin: miter; stroke-linecap: square"/>
   </g>
   <g id="patch_5">
    <path d="M 48.56787 213.718154 
L 349.688667 213.718154 
" style="fill: none; stroke: #000000; stroke-width: 0.8; stroke-linejoin: miter; stroke-linecap: square"/>
   </g>
   <g id="patch_6">
    <path d="M 48.56787 28.815931 
L 349.688667 28.815931 
" style="fill: none; stroke: #000000; stroke-width: 0.8; stroke-linejoin: miter; stroke-linecap: square"/>
   </g>
   <g id="legend_1">
    <g id="line2d_40">
     <path d="M 362.288667 46.976703 
L 376.288667 46.976703 
L 389.542964 46.976703 
" style="fill: none; stroke: #b7d4ea; stroke-width: 3; stroke-linecap: square"/>
    </g>
    <g id="text_14">
     <!-- $P_{int}$ (A = 0.0) -->
     <g transform="translate(401.488667 51.876703) scale(0.14 -0.14)">
      <defs>
       <path id="CMMI12-50" d="M 1894 2023 
L 2970 2023 
C 3853 2023 4736 2673 4736 3401 
C 4736 3898 4314 4352 3507 4352 
L 1530 4352 
C 1408 4352 1350 4352 1350 4231 
C 1350 4167 1408 4167 1504 4167 
C 1894 4167 1894 4116 1894 4046 
C 1894 4034 1894 3995 1869 3899 
L 1005 472 
C 947 249 934 185 486 185 
C 365 185 301 185 301 70 
C 301 0 358 0 397 0 
C 518 0 646 0 768 0 
L 1517 0 
C 1638 0 1773 0 1894 0 
C 1946 0 2016 0 2016 121 
C 2016 185 1958 185 1862 185 
C 1478 185 1472 230 1472 293 
C 1472 325 1478 369 1485 401 
L 1894 2023 
z
M 2355 3930 
C 2413 4167 2438 4167 2688 4167 
L 3322 4167 
C 3802 4167 4198 4013 4198 3535 
C 4198 3369 4115 2827 3821 2534 
C 3712 2419 3405 2176 2822 2176 
L 1920 2176 
L 2355 3930 
z
" transform="scale(0.015625)"/>
       <path id="CMMI12-69" d="M 1811 913 
C 1811 945 1786 971 1747 971 
C 1690 971 1683 952 1651 843 
C 1485 262 1222 64 1011 64 
C 934 64 845 83 845 275 
C 845 447 922 639 992 830 
L 1440 2018 
C 1459 2069 1504 2184 1504 2305 
C 1504 2574 1312 2816 998 2816 
C 410 2816 173 1890 173 1839 
C 173 1814 198 1782 243 1782 
C 301 1782 307 1807 333 1896 
C 486 2428 730 2682 979 2682 
C 1037 2682 1146 2682 1146 2478 
C 1146 2312 1062 2101 1011 1961 
L 563 773 
C 525 671 486 568 486 453 
C 486 166 685 -64 992 -64 
C 1581 -64 1811 869 1811 913 
z
M 1760 4013 
C 1760 4109 1683 4224 1542 4224 
C 1395 4224 1229 4083 1229 3917 
C 1229 3758 1363 3707 1440 3707 
C 1613 3707 1760 3873 1760 4013 
z
" transform="scale(0.015625)"/>
       <path id="CMMI12-6e" d="M 1318 1871 
C 1331 1910 1491 2229 1728 2433 
C 1894 2586 2112 2689 2362 2689 
C 2618 2689 2707 2497 2707 2242 
C 2707 1878 2445 1150 2317 805 
C 2259 651 2227 568 2227 453 
C 2227 166 2426 -64 2733 -64 
C 3328 -64 3552 875 3552 913 
C 3552 945 3526 971 3488 971 
C 3430 971 3424 952 3392 843 
C 3245 319 3002 64 2752 64 
C 2688 64 2586 64 2586 269 
C 2586 429 2656 621 2694 710 
C 2822 1063 3091 1780 3091 2145 
C 3091 2528 2867 2816 2381 2816 
C 1811 2816 1510 2415 1395 2255 
C 1376 2618 1114 2816 832 2816 
C 627 2816 486 2695 378 2478 
C 262 2248 173 1865 173 1839 
C 173 1814 198 1782 243 1782 
C 294 1782 301 1788 339 1935 
C 442 2325 557 2689 813 2689 
C 960 2689 1011 2586 1011 2395 
C 1011 2254 947 2005 902 1807 
L 723 1118 
C 698 996 627 709 595 594 
C 550 428 480 128 480 96 
C 480 6 550 -64 646 -64 
C 723 -64 813 -26 864 70 
C 877 102 934 326 966 453 
L 1107 1028 
L 1318 1871 
z
" transform="scale(0.015625)"/>
       <path id="CMMI12-74" d="M 1286 2566 
L 1875 2566 
C 1997 2566 2061 2566 2061 2681 
C 2061 2752 2022 2752 1894 2752 
L 1331 2752 
L 1568 3692 
C 1594 3781 1594 3794 1594 3840 
C 1594 3943 1510 4000 1427 4000 
C 1376 4000 1229 3981 1178 3775 
L 928 2752 
L 326 2752 
C 198 2752 141 2752 141 2630 
C 141 2566 186 2566 307 2566 
L 877 2566 
L 454 881 
C 403 658 384 594 384 511 
C 384 211 595 -64 954 -64 
C 1600 -64 1946 868 1946 912 
C 1946 951 1920 970 1882 970 
C 1869 970 1843 970 1830 944 
C 1824 938 1818 931 1773 829 
C 1638 511 1344 64 973 64 
C 781 64 768 224 768 364 
C 768 370 768 492 787 568 
L 1286 2566 
z
" transform="scale(0.015625)"/>
       <path id="CMR17-28" d="M 1958 -1561 
C 1958 -1555 1958 -1542 1939 -1523 
C 1645 -1224 858 -407 858 1581 
C 858 3569 1632 4379 1946 4697 
C 1946 4704 1958 4717 1958 4736 
C 1958 4755 1939 4768 1914 4768 
C 1843 4768 1299 4296 986 3594 
C 666 2887 576 2199 576 1588 
C 576 1128 621 351 1005 -471 
C 1312 -1135 1837 -1600 1914 -1600 
C 1946 -1600 1958 -1587 1958 -1561 
z
" transform="scale(0.015625)"/>
       <path id="CMR17-41" d="M 2323 4378 
C 2291 4461 2278 4480 2214 4480 
C 2150 4480 2138 4461 2106 4378 
L 749 566 
C 627 223 371 153 147 153 
L 147 -13 
C 262 0 518 0 640 0 
C 800 0 1056 0 1210 -13 
L 1210 153 
C 909 153 864 361 864 439 
C 864 497 877 530 890 569 
L 1229 1536 
L 2906 1536 
L 3290 442 
C 3322 365 3322 352 3322 327 
C 3322 153 3046 153 2925 153 
L 2925 0 
C 3110 0 3443 0 3642 0 
C 3808 0 4128 0 4282 -13 
L 4282 153 
C 3942 153 3827 153 3744 387 
L 2323 4378 
z
M 2067 3893 
L 2848 1702 
L 1286 1702 
L 2067 3893 
z
" transform="scale(0.015625)"/>
       <path id="CMR17-3d" d="M 4115 2017 
C 4211 2017 4307 2017 4307 2125 
C 4307 2240 4198 2240 4090 2240 
L 512 2240 
C 403 2240 294 2240 294 2125 
C 294 2017 390 2017 486 2017 
L 4115 2017 
z
M 4090 896 
C 4198 896 4307 896 4307 1011 
C 4307 1119 4211 1119 4115 1119 
L 486 1119 
C 390 1119 294 1119 294 1011 
C 294 896 403 896 512 896 
L 4090 896 
z
" transform="scale(0.015625)"/>
       <path id="CMR17-2e" d="M 1062 261 
C 1062 420 934 522 800 522 
C 672 522 538 420 538 261 
C 538 102 666 0 800 0 
C 928 0 1062 102 1062 261 
z
" transform="scale(0.015625)"/>
       <path id="CMR17-29" d="M 1683 1581 
C 1683 2040 1638 2817 1254 3639 
C 947 4303 422 4768 346 4768 
C 326 4768 301 4761 301 4729 
C 301 4717 307 4710 314 4697 
C 621 4378 1402 3568 1402 1584 
C 1402 -407 627 -1217 314 -1537 
C 307 -1549 301 -1556 301 -1568 
C 301 -1600 326 -1600 346 -1600 
C 416 -1600 960 -1128 1274 -426 
C 1594 281 1683 969 1683 1581 
z
" transform="scale(0.015625)"/>
      </defs>
      <use xlink:href="#CMMI12-50" transform="scale(0.996264)"/>
      <use xlink:href="#CMMI12-69" transform="translate(62.877232 -14.943915) scale(0.697382)"/>
      <use xlink:href="#CMMI12-6e" transform="translate(86.17214 -14.943915) scale(0.697382)"/>
      <use xlink:href="#CMMI12-74" transform="translate(126.932983 -14.943915) scale(0.697382)"/>
      <use xlink:href="#CMR17-28" transform="translate(182.165391 0) scale(0.996264)"/>
      <use xlink:href="#CMR17-41" transform="translate(217.446158 0) scale(0.996264)"/>
      <use xlink:href="#CMR17-3d" transform="translate(316.594554 0) scale(0.996264)"/>
      <use xlink:href="#CMR17-30" transform="translate(418.385309 0) scale(0.996264)"/>
      <use xlink:href="#CMR17-2e" transform="translate(464.075786 0) scale(0.996264)"/>
      <use xlink:href="#CMR17-30" transform="translate(488.946845 0) scale(0.996264)"/>
      <use xlink:href="#CMR17-29" transform="translate(534.637322 0) scale(0.996264)"/>
     </g>
    </g>
    <g id="line2d_41">
     <path d="M 362.288667 67.924399 
L 376.288667 67.924399 
L 389.542964 67.924399 
" style="fill: none; stroke-dasharray: 11.1,4.8; stroke-dashoffset: 0; stroke: #fdc38d; stroke-width: 3"/>
    </g>
    <g id="text_15">
     <!-- $S_{int}$ (A = 0.0) -->
     <g transform="translate(401.488667 72.824399) scale(0.14 -0.14)">
      <defs>
       <path id="CMMI12-53" d="M 4064 4423 
C 4064 4480 4019 4480 4006 4480 
C 3981 4480 3974 4474 3898 4378 
C 3859 4333 3597 4001 3590 3995 
C 3379 4410 2957 4480 2688 4480 
C 1875 4480 1139 3743 1139 3025 
C 1139 2549 1427 2269 1741 2161 
C 1811 2135 2189 2033 2381 1989 
C 2707 1900 2790 1875 2925 1735 
C 2950 1703 3078 1557 3078 1258 
C 3078 667 2528 57 1888 57 
C 1363 57 781 280 781 991 
C 781 1112 806 1265 826 1328 
C 826 1348 832 1378 832 1391 
C 832 1417 819 1449 768 1449 
C 710 1449 704 1436 678 1328 
L 352 24 
C 352 18 326 -64 326 -71 
C 326 -128 378 -128 390 -128 
C 416 -128 422 -122 499 -26 
L 794 356 
C 947 126 1280 -128 1875 -128 
C 2701 -128 3456 666 3456 1460 
C 3456 1728 3392 1963 3149 2197 
C 3014 2331 2899 2363 2310 2516 
C 1882 2630 1824 2649 1709 2751 
C 1600 2858 1517 3011 1517 3227 
C 1517 3761 2061 4308 2669 4308 
C 3296 4308 3590 3926 3590 3323 
C 3590 3158 3558 2986 3558 2961 
C 3558 2903 3610 2903 3629 2903 
C 3686 2903 3693 2922 3718 3024 
L 4064 4423 
z
" transform="scale(0.015625)"/>
      </defs>
      <use xlink:href="#CMMI12-53" transform="scale(0.996264)"/>
      <use xlink:href="#CMMI12-69" transform="translate(59.994488 -14.943915) scale(0.697382)"/>
      <use xlink:href="#CMMI12-6e" transform="translate(83.289395 -14.943915) scale(0.697382)"/>
      <use xlink:href="#CMMI12-74" transform="translate(124.050238 -14.943915) scale(0.697382)"/>
      <use xlink:href="#CMR17-28" transform="translate(179.282646 0) scale(0.996264)"/>
      <use xlink:href="#CMR17-41" transform="translate(214.563414 0) scale(0.996264)"/>
      <use xlink:href="#CMR17-3d" transform="translate(313.71181 0) scale(0.996264)"/>
      <use xlink:href="#CMR17-30" transform="translate(415.502565 0) scale(0.996264)"/>
      <use xlink:href="#CMR17-2e" transform="translate(461.193042 0) scale(0.996264)"/>
      <use xlink:href="#CMR17-30" transform="translate(486.0641 0) scale(0.996264)"/>
      <use xlink:href="#CMR17-29" transform="translate(531.754578 0) scale(0.996264)"/>
     </g>
    </g>
    <g id="line2d_42">
     <path d="M 362.288667 91.622858 
L 376.288667 91.622858 
L 389.542964 91.622858 
" style="fill: none; stroke-dasharray: 3,4.95; stroke-dashoffset: 0; stroke: #b8e3b2; stroke-width: 3"/>
    </g>
    <g id="text_16">
     <!-- $\hat{P}$ (A = 0.0) -->
     <g transform="translate(401.488667 96.522858) scale(0.14 -0.14)">
      <defs>
       <path id="CMR17-5e" d="M 1466 4421 
L 678 3555 
L 755 3478 
L 1466 4166 
L 2176 3478 
L 2253 3555 
L 1466 4421 
z
" transform="scale(0.015625)"/>
      </defs>
      <use xlink:href="#CMR17-5e" transform="translate(23.496833 25.189733) scale(0.996264)"/>
      <use xlink:href="#CMMI12-50" transform="scale(0.996264)"/>
      <use xlink:href="#CMR17-28" transform="translate(106.501787 0) scale(0.996264)"/>
      <use xlink:href="#CMR17-41" transform="translate(141.782555 0) scale(0.996264)"/>
      <use xlink:href="#CMR17-3d" transform="translate(240.930951 0) scale(0.996264)"/>
      <use xlink:href="#CMR17-30" transform="translate(342.721706 0) scale(0.996264)"/>
      <use xlink:href="#CMR17-2e" transform="translate(388.412183 0) scale(0.996264)"/>
      <use xlink:href="#CMR17-30" transform="translate(413.283241 0) scale(0.996264)"/>
      <use xlink:href="#CMR17-29" transform="translate(458.973719 0) scale(0.996264)"/>
     </g>
    </g>
    <g id="line2d_43">
     <path d="M 362.288667 112.570554 
L 376.288667 112.570554 
L 389.542964 112.570554 
" style="fill: none; stroke: #60a7d2; stroke-width: 3; stroke-linecap: square"/>
    </g>
    <g id="text_17">
     <!-- $P_{int}$ (A = 0.33) -->
     <g transform="translate(401.488667 117.470554) scale(0.14 -0.14)">
      <defs>
       <path id="CMR17-33" d="M 1414 2157 
C 1984 2157 2234 1662 2234 1090 
C 2234 320 1824 25 1453 25 
C 1114 25 563 194 390 693 
C 422 680 454 680 486 680 
C 640 680 755 782 755 948 
C 755 1133 614 1216 486 1216 
C 378 1216 211 1165 211 926 
C 211 335 787 -128 1466 -128 
C 2176 -128 2720 430 2720 1085 
C 2720 1707 2208 2157 1600 2227 
C 2086 2328 2554 2756 2554 3329 
C 2554 3820 2048 4179 1472 4179 
C 890 4179 378 3829 378 3329 
C 378 3110 544 3072 627 3072 
C 762 3072 877 3155 877 3321 
C 877 3486 762 3569 627 3569 
C 602 3569 570 3569 544 3557 
C 730 3959 1235 4032 1459 4032 
C 1683 4032 2106 3925 2106 3320 
C 2106 3143 2080 2828 1862 2550 
C 1670 2304 1453 2304 1242 2284 
C 1210 2284 1062 2269 1037 2269 
C 992 2263 966 2257 966 2208 
C 966 2163 973 2157 1101 2157 
L 1414 2157 
z
" transform="scale(0.015625)"/>
      </defs>
      <use xlink:href="#CMMI12-50" transform="scale(0.996264)"/>
      <use xlink:href="#CMMI12-69" transform="translate(62.877232 -14.943915) scale(0.697382)"/>
      <use xlink:href="#CMMI12-6e" transform="translate(86.17214 -14.943915) scale(0.697382)"/>
      <use xlink:href="#CMMI12-74" transform="translate(126.932983 -14.943915) scale(0.697382)"/>
      <use xlink:href="#CMR17-28" transform="translate(182.165391 0) scale(0.996264)"/>
      <use xlink:href="#CMR17-41" transform="translate(217.446158 0) scale(0.996264)"/>
      <use xlink:href="#CMR17-3d" transform="translate(316.594554 0) scale(0.996264)"/>
      <use xlink:href="#CMR17-30" transform="translate(418.385309 0) scale(0.996264)"/>
      <use xlink:href="#CMR17-2e" transform="translate(464.075786 0) scale(0.996264)"/>
      <use xlink:href="#CMR17-33" transform="translate(488.946845 0) scale(0.996264)"/>
      <use xlink:href="#CMR17-33" transform="translate(534.637322 0) scale(0.996264)"/>
      <use xlink:href="#CMR17-29" transform="translate(580.327799 0) scale(0.996264)"/>
     </g>
    </g>
    <g id="line2d_44">
     <path d="M 362.288667 133.51825 
L 376.288667 133.51825 
L 389.542964 133.51825 
" style="fill: none; stroke-dasharray: 11.1,4.8; stroke-dashoffset: 0; stroke: #fa8331; stroke-width: 3"/>
    </g>
    <g id="text_18">
     <!-- $S_{int}$ (A = 0.33) -->
     <g transform="translate(401.488667 138.41825) scale(0.14 -0.14)">
      <use xlink:href="#CMMI12-53" transform="scale(0.996264)"/>
      <use xlink:href="#CMMI12-69" transform="translate(59.994488 -14.943915) scale(0.697382)"/>
      <use xlink:href="#CMMI12-6e" transform="translate(83.289395 -14.943915) scale(0.697382)"/>
      <use xlink:href="#CMMI12-74" transform="translate(124.050238 -14.943915) scale(0.697382)"/>
      <use xlink:href="#CMR17-28" transform="translate(179.282646 0) scale(0.996264)"/>
      <use xlink:href="#CMR17-41" transform="translate(214.563414 0) scale(0.996264)"/>
      <use xlink:href="#CMR17-3d" transform="translate(313.71181 0) scale(0.996264)"/>
      <use xlink:href="#CMR17-30" transform="translate(415.502565 0) scale(0.996264)"/>
      <use xlink:href="#CMR17-2e" transform="translate(461.193042 0) scale(0.996264)"/>
      <use xlink:href="#CMR17-33" transform="translate(486.0641 0) scale(0.996264)"/>
      <use xlink:href="#CMR17-33" transform="translate(531.754578 0) scale(0.996264)"/>
      <use xlink:href="#CMR17-29" transform="translate(577.445055 0) scale(0.996264)"/>
     </g>
    </g>
    <g id="line2d_45">
     <path d="M 362.288667 157.216709 
L 376.288667 157.216709 
L 389.542964 157.216709 
" style="fill: none; stroke-dasharray: 3,4.95; stroke-dashoffset: 0; stroke: #66bd6f; stroke-width: 3"/>
    </g>
    <g id="text_19">
     <!-- $\hat{P}$ (A = 0.33) -->
     <g transform="translate(401.488667 162.116709) scale(0.14 -0.14)">
      <use xlink:href="#CMR17-5e" transform="translate(23.496833 25.189733) scale(0.996264)"/>
      <use xlink:href="#CMMI12-50" transform="scale(0.996264)"/>
      <use xlink:href="#CMR17-28" transform="translate(106.501787 0) scale(0.996264)"/>
      <use xlink:href="#CMR17-41" transform="translate(141.782555 0) scale(0.996264)"/>
      <use xlink:href="#CMR17-3d" transform="translate(240.930951 0) scale(0.996264)"/>
      <use xlink:href="#CMR17-30" transform="translate(342.721706 0) scale(0.996264)"/>
      <use xlink:href="#CMR17-2e" transform="translate(388.412183 0) scale(0.996264)"/>
      <use xlink:href="#CMR17-33" transform="translate(413.283241 0) scale(0.996264)"/>
      <use xlink:href="#CMR17-33" transform="translate(458.973719 0) scale(0.996264)"/>
      <use xlink:href="#CMR17-29" transform="translate(504.664196 0) scale(0.996264)"/>
     </g>
    </g>
    <g id="line2d_46">
     <path style="fill: none; stroke: #1d6cb1; stroke-width: 3; stroke-linecap: square"/>
    </g>
    <g id="text_20">
     <!-- $P_{int}$ (A = 0.67) -->
     <g transform="translate(560.518029 51.876703) scale(0.14 -0.14)">
      <defs>
       <path id="CMR17-37" d="M 2886 3941 
L 2886 4081 
L 1382 4081 
C 634 4081 621 4165 595 4288 
L 480 4288 
L 294 3094 
L 410 3094 
C 429 3215 474 3540 550 3661 
C 589 3712 1062 3712 1171 3712 
L 2579 3712 
L 1869 2661 
C 1395 1954 1069 999 1069 165 
C 1069 89 1069 -128 1299 -128 
C 1530 -128 1530 89 1530 171 
L 1530 465 
C 1530 1508 1709 2196 2003 2636 
L 2886 3941 
z
" transform="scale(0.015625)"/>
      </defs>
      <use xlink:href="#CMMI12-50" transform="scale(0.996264)"/>
      <use xlink:href="#CMMI12-69" transform="translate(62.877232 -14.943915) scale(0.697382)"/>
      <use xlink:href="#CMMI12-6e" transform="translate(86.17214 -14.943915) scale(0.697382)"/>
      <use xlink:href="#CMMI12-74" transform="translate(126.932983 -14.943915) scale(0.697382)"/>
      <use xlink:href="#CMR17-28" transform="translate(182.165391 0) scale(0.996264)"/>
      <use xlink:href="#CMR17-41" transform="translate(217.446158 0) scale(0.996264)"/>
      <use xlink:href="#CMR17-3d" transform="translate(316.594554 0) scale(0.996264)"/>
      <use xlink:href="#CMR17-30" transform="translate(418.385309 0) scale(0.996264)"/>
      <use xlink:href="#CMR17-2e" transform="translate(464.075786 0) scale(0.996264)"/>
      <use xlink:href="#CMR17-36" transform="translate(488.946845 0) scale(0.996264)"/>
      <use xlink:href="#CMR17-37" transform="translate(534.637322 0) scale(0.996264)"/>
      <use xlink:href="#CMR17-29" transform="translate(580.327799 0) scale(0.996264)"/>
     </g>
    </g>
    <g id="line2d_47">
     <path style="fill: none; stroke-dasharray: 11.1,4.8; stroke-dashoffset: 0; stroke: #d14501; stroke-width: 3"/>
    </g>
    <g id="text_21">
     <!-- $S_{int}$ (A = 0.67) -->
     <g transform="translate(560.518029 72.824399) scale(0.14 -0.14)">
      <use xlink:href="#CMMI12-53" transform="scale(0.996264)"/>
      <use xlink:href="#CMMI12-69" transform="translate(59.994488 -14.943915) scale(0.697382)"/>
      <use xlink:href="#CMMI12-6e" transform="translate(83.289395 -14.943915) scale(0.697382)"/>
      <use xlink:href="#CMMI12-74" transform="translate(124.050238 -14.943915) scale(0.697382)"/>
      <use xlink:href="#CMR17-28" transform="translate(179.282646 0) scale(0.996264)"/>
      <use xlink:href="#CMR17-41" transform="translate(214.563414 0) scale(0.996264)"/>
      <use xlink:href="#CMR17-3d" transform="translate(313.71181 0) scale(0.996264)"/>
      <use xlink:href="#CMR17-30" transform="translate(415.502565 0) scale(0.996264)"/>
      <use xlink:href="#CMR17-2e" transform="translate(461.193042 0) scale(0.996264)"/>
      <use xlink:href="#CMR17-36" transform="translate(486.0641 0) scale(0.996264)"/>
      <use xlink:href="#CMR17-37" transform="translate(531.754578 0) scale(0.996264)"/>
      <use xlink:href="#CMR17-29" transform="translate(577.445055 0) scale(0.996264)"/>
     </g>
    </g>
    <g id="line2d_48">
     <path style="fill: none; stroke-dasharray: 3,4.95; stroke-dashoffset: 0; stroke: #1e8741; stroke-width: 3"/>
    </g>
    <g id="text_22">
     <!-- $\hat{P}$ (A = 0.67) -->
     <g transform="translate(560.518029 96.522858) scale(0.14 -0.14)">
      <use xlink:href="#CMR17-5e" transform="translate(23.496833 25.189733) scale(0.996264)"/>
      <use xlink:href="#CMMI12-50" transform="scale(0.996264)"/>
      <use xlink:href="#CMR17-28" transform="translate(106.501787 0) scale(0.996264)"/>
      <use xlink:href="#CMR17-41" transform="translate(141.782555 0) scale(0.996264)"/>
      <use xlink:href="#CMR17-3d" transform="translate(240.930951 0) scale(0.996264)"/>
      <use xlink:href="#CMR17-30" transform="translate(342.721706 0) scale(0.996264)"/>
      <use xlink:href="#CMR17-2e" transform="translate(388.412183 0) scale(0.996264)"/>
      <use xlink:href="#CMR17-36" transform="translate(413.283241 0) scale(0.996264)"/>
      <use xlink:href="#CMR17-37" transform="translate(458.973719 0) scale(0.996264)"/>
      <use xlink:href="#CMR17-29" transform="translate(504.664196 0) scale(0.996264)"/>
     </g>
    </g>
    <g id="line2d_49">
     <path style="fill: none; stroke: #08306b; stroke-width: 3; stroke-linecap: square"/>
    </g>
    <g id="text_23">
     <!-- $P_{int}$ (A = 1.0) -->
     <g transform="translate(560.518029 117.470554) scale(0.14 -0.14)">
      <use xlink:href="#CMMI12-50" transform="scale(0.996264)"/>
      <use xlink:href="#CMMI12-69" transform="translate(62.877232 -14.943915) scale(0.697382)"/>
      <use xlink:href="#CMMI12-6e" transform="translate(86.17214 -14.943915) scale(0.697382)"/>
      <use xlink:href="#CMMI12-74" transform="translate(126.932983 -14.943915) scale(0.697382)"/>
      <use xlink:href="#CMR17-28" transform="translate(182.165391 0) scale(0.996264)"/>
      <use xlink:href="#CMR17-41" transform="translate(217.446158 0) scale(0.996264)"/>
      <use xlink:href="#CMR17-3d" transform="translate(316.594554 0) scale(0.996264)"/>
      <use xlink:href="#CMR17-31" transform="translate(418.385309 0) scale(0.996264)"/>
      <use xlink:href="#CMR17-2e" transform="translate(464.075786 0) scale(0.996264)"/>
      <use xlink:href="#CMR17-30" transform="translate(488.946845 0) scale(0.996264)"/>
      <use xlink:href="#CMR17-29" transform="translate(534.637322 0) scale(0.996264)"/>
     </g>
    </g>
    <g id="line2d_50">
     <path style="fill: none; stroke-dasharray: 11.1,4.8; stroke-dashoffset: 0; stroke: #7f2704; stroke-width: 3"/>
    </g>
    <g id="text_24">
     <!-- $S_{int}$ (A = 1.0) -->
     <g transform="translate(560.518029 138.41825) scale(0.14 -0.14)">
      <use xlink:href="#CMMI12-53" transform="scale(0.996264)"/>
      <use xlink:href="#CMMI12-69" transform="translate(59.994488 -14.943915) scale(0.697382)"/>
      <use xlink:href="#CMMI12-6e" transform="translate(83.289395 -14.943915) scale(0.697382)"/>
      <use xlink:href="#CMMI12-74" transform="translate(124.050238 -14.943915) scale(0.697382)"/>
      <use xlink:href="#CMR17-28" transform="translate(179.282646 0) scale(0.996264)"/>
      <use xlink:href="#CMR17-41" transform="translate(214.563414 0) scale(0.996264)"/>
      <use xlink:href="#CMR17-3d" transform="translate(313.71181 0) scale(0.996264)"/>
      <use xlink:href="#CMR17-31" transform="translate(415.502565 0) scale(0.996264)"/>
      <use xlink:href="#CMR17-2e" transform="translate(461.193042 0) scale(0.996264)"/>
      <use xlink:href="#CMR17-30" transform="translate(486.0641 0) scale(0.996264)"/>
      <use xlink:href="#CMR17-29" transform="translate(531.754578 0) scale(0.996264)"/>
     </g>
    </g>
    <g id="line2d_51">
     <path style="fill: none; stroke-dasharray: 3,4.95; stroke-dashoffset: 0; stroke: #00441b; stroke-width: 3"/>
    </g>
    <g id="text_25">
     <!-- $\hat{P}$ (A = 1.0) -->
     <g transform="translate(560.518029 162.116709) scale(0.14 -0.14)">
      <use xlink:href="#CMR17-5e" transform="translate(23.496833 25.189733) scale(0.996264)"/>
      <use xlink:href="#CMMI12-50" transform="scale(0.996264)"/>
      <use xlink:href="#CMR17-28" transform="translate(106.501787 0) scale(0.996264)"/>
      <use xlink:href="#CMR17-41" transform="translate(141.782555 0) scale(0.996264)"/>
      <use xlink:href="#CMR17-3d" transform="translate(240.930951 0) scale(0.996264)"/>
      <use xlink:href="#CMR17-31" transform="translate(342.721706 0) scale(0.996264)"/>
      <use xlink:href="#CMR17-2e" transform="translate(388.412183 0) scale(0.996264)"/>
      <use xlink:href="#CMR17-30" transform="translate(413.283241 0) scale(0.996264)"/>
      <use xlink:href="#CMR17-29" transform="translate(458.973719 0) scale(0.996264)"/>
     </g>
    </g>
   </g>
  </g>
 </g>
 <defs>
  <clipPath id="p755e351352">
   <rect x="48.56787" y="28.815931" width="301.120797" height="184.902223"/>
  </clipPath>
 </defs>
</svg>
