<?xml version="1.0" encoding="utf-8" standalone="no"?>
<!DOCTYPE svg PUBLIC "-//W3C//DTD SVG 1.1//EN"
  "http://www.w3.org/Graphics/SVG/1.1/DTD/svg11.dtd">
<svg xmlns:xlink="http://www.w3.org/1999/xlink" width="388.542964pt" height="240.132758pt" viewBox="0 0 388.542964 240.132758" xmlns="http://www.w3.org/2000/svg" version="1.1">
 <metadata>
  <rdf:RDF xmlns:dc="http://purl.org/dc/elements/1.1/" xmlns:cc="http://creativecommons.org/ns#" xmlns:rdf="http://www.w3.org/1999/02/22-rdf-syntax-ns#">
   <cc:Work>
    <dc:type rdf:resource="http://purl.org/dc/dcmitype/StillImage"/>
    <dc:date>2024-12-19T16:21:07.439739</dc:date>
    <dc:format>image/svg+xml</dc:format>
    <dc:creator>
     <cc:Agent>
      <dc:title>Matplotlib v3.7.5, https://matplotlib.org/</dc:title>
     </cc:Agent>
    </dc:creator>
   </cc:Work>
  </rdf:RDF>
 </metadata>
 <defs>
  <style type="text/css">*{stroke-linejoin: round; stroke-linecap: butt}</style>
 </defs>
 <g id="figure_1">
  <g id="patch_1">
   <path d="M 0 240.132758 
L 388.542964 240.132758 
L 388.542964 0 
L 0 0 
z
" style="fill: #ffffff"/>
  </g>
  <g id="axes_1">
   <g id="patch_2">
    <path d="M 48.56787 213.718154 
L 349.688667 213.718154 
L 349.688667 28.815931 
L 48.56787 28.815931 
z
" style="fill: #ffffff"/>
   </g>
   <g id="matplotlib.axis_1">
    <g id="xtick_1">
     <g id="line2d_1">
      <defs>
       <path id="m580fa6691e" d="M 0 0 
L 0 3.5 
" style="stroke: #000000; stroke-width: 0.8"/>
      </defs>
      <g>
       <use xlink:href="#m580fa6691e" x="62.255179" y="213.718154" style="stroke: #000000; stroke-width: 0.8"/>
      </g>
     </g>
     <g id="text_1">
      <!-- $\mathdefault{0.0}$ -->
      <g transform="translate(53.529888 230.404031) scale(0.14 -0.14)">
       <defs>
        <path id="CMR17-30" d="M 2688 2025 
C 2688 2416 2682 3080 2413 3591 
C 2176 4039 1798 4198 1466 4198 
C 1158 4198 768 4058 525 3597 
C 269 3118 243 2524 243 2025 
C 243 1661 250 1106 448 619 
C 723 -39 1216 -128 1466 -128 
C 1760 -128 2208 -7 2470 600 
C 2662 1042 2688 1559 2688 2025 
z
M 1466 -26 
C 1056 -26 813 325 723 812 
C 653 1188 653 1738 653 2096 
C 653 2588 653 2997 736 3387 
C 858 3929 1216 4096 1466 4096 
C 1728 4096 2067 3923 2189 3400 
C 2272 3036 2278 2607 2278 2096 
C 2278 1680 2278 1169 2202 792 
C 2067 95 1690 -26 1466 -26 
z
" transform="scale(0.015625)"/>
        <path id="CMMI12-3a" d="M 1178 307 
C 1178 492 1024 619 870 619 
C 685 619 557 466 557 313 
C 557 128 710 0 864 0 
C 1050 0 1178 153 1178 307 
z
" transform="scale(0.015625)"/>
       </defs>
       <use xlink:href="#CMR17-30" transform="scale(0.996264)"/>
       <use xlink:href="#CMMI12-3a" transform="translate(45.690477 0) scale(0.996264)"/>
       <use xlink:href="#CMR17-30" transform="translate(72.787654 0) scale(0.996264)"/>
      </g>
     </g>
    </g>
    <g id="xtick_2">
     <g id="line2d_2">
      <g>
       <use xlink:href="#m580fa6691e" x="117.059219" y="213.718154" style="stroke: #000000; stroke-width: 0.8"/>
      </g>
     </g>
     <g id="text_2">
      <!-- $\mathdefault{0.2}$ -->
      <g transform="translate(108.333928 230.404031) scale(0.14 -0.14)">
       <defs>
        <path id="CMR17-32" d="M 2669 989 
L 2554 989 
C 2490 536 2438 459 2413 420 
C 2381 369 1920 369 1830 369 
L 602 369 
C 832 619 1280 1072 1824 1597 
C 2214 1967 2669 2402 2669 3035 
C 2669 3790 2067 4224 1395 4224 
C 691 4224 262 3604 262 3030 
C 262 2780 448 2748 525 2748 
C 589 2748 781 2787 781 3010 
C 781 3207 614 3264 525 3264 
C 486 3264 448 3258 422 3245 
C 544 3790 915 4058 1306 4058 
C 1862 4058 2227 3617 2227 3035 
C 2227 2479 1901 2000 1536 1584 
L 262 146 
L 262 0 
L 2515 0 
L 2669 989 
z
" transform="scale(0.015625)"/>
       </defs>
       <use xlink:href="#CMR17-30" transform="scale(0.996264)"/>
       <use xlink:href="#CMMI12-3a" transform="translate(45.690477 0) scale(0.996264)"/>
       <use xlink:href="#CMR17-32" transform="translate(72.787654 0) scale(0.996264)"/>
      </g>
     </g>
    </g>
    <g id="xtick_3">
     <g id="line2d_3">
      <g>
       <use xlink:href="#m580fa6691e" x="171.863259" y="213.718154" style="stroke: #000000; stroke-width: 0.8"/>
      </g>
     </g>
     <g id="text_3">
      <!-- $\mathdefault{0.4}$ -->
      <g transform="translate(163.137968 230.404031) scale(0.14 -0.14)">
       <defs>
        <path id="CMR17-34" d="M 2150 4122 
C 2150 4256 2144 4256 2029 4256 
L 128 1254 
L 128 1088 
L 1779 1088 
L 1779 457 
C 1779 224 1766 160 1318 160 
L 1197 160 
L 1197 0 
C 1402 0 1747 0 1965 0 
C 2182 0 2528 0 2733 0 
L 2733 160 
L 2611 160 
C 2163 160 2150 224 2150 457 
L 2150 1088 
L 2803 1088 
L 2803 1254 
L 2150 1254 
L 2150 4122 
z
M 1798 3703 
L 1798 1254 
L 256 1254 
L 1798 3703 
z
" transform="scale(0.015625)"/>
       </defs>
       <use xlink:href="#CMR17-30" transform="scale(0.996264)"/>
       <use xlink:href="#CMMI12-3a" transform="translate(45.690477 0) scale(0.996264)"/>
       <use xlink:href="#CMR17-34" transform="translate(72.787654 0) scale(0.996264)"/>
      </g>
     </g>
    </g>
    <g id="xtick_4">
     <g id="line2d_4">
      <g>
       <use xlink:href="#m580fa6691e" x="226.667299" y="213.718154" style="stroke: #000000; stroke-width: 0.8"/>
      </g>
     </g>
     <g id="text_4">
      <!-- $\mathdefault{0.6}$ -->
      <g transform="translate(217.942008 230.404031) scale(0.14 -0.14)">
       <defs>
        <path id="CMR17-36" d="M 678 2176 
C 678 3690 1395 4032 1811 4032 
C 1946 4032 2272 4009 2400 3776 
C 2298 3776 2106 3776 2106 3553 
C 2106 3381 2246 3323 2336 3323 
C 2394 3323 2566 3348 2566 3560 
C 2566 3954 2246 4179 1805 4179 
C 1043 4179 243 3390 243 1984 
C 243 253 966 -128 1478 -128 
C 2099 -128 2688 427 2688 1283 
C 2688 2081 2170 2662 1517 2662 
C 1126 2662 838 2407 678 1960 
L 678 2176 
z
M 1478 25 
C 691 25 691 1200 691 1436 
C 691 1896 909 2560 1504 2560 
C 1613 2560 1926 2560 2138 2120 
C 2253 1870 2253 1609 2253 1289 
C 2253 944 2253 690 2118 434 
C 1978 171 1773 25 1478 25 
z
" transform="scale(0.015625)"/>
       </defs>
       <use xlink:href="#CMR17-30" transform="scale(0.996264)"/>
       <use xlink:href="#CMMI12-3a" transform="translate(45.690477 0) scale(0.996264)"/>
       <use xlink:href="#CMR17-36" transform="translate(72.787654 0) scale(0.996264)"/>
      </g>
     </g>
    </g>
    <g id="xtick_5">
     <g id="line2d_5">
      <g>
       <use xlink:href="#m580fa6691e" x="281.471339" y="213.718154" style="stroke: #000000; stroke-width: 0.8"/>
      </g>
     </g>
     <g id="text_5">
      <!-- $\mathdefault{0.8}$ -->
      <g transform="translate(272.746048 230.404031) scale(0.14 -0.14)">
       <defs>
        <path id="CMR17-38" d="M 1741 2264 
C 2144 2467 2554 2773 2554 3263 
C 2554 3841 1990 4179 1472 4179 
C 890 4179 378 3759 378 3180 
C 378 3021 416 2747 666 2505 
C 730 2442 998 2251 1171 2130 
C 883 1983 211 1634 211 934 
C 211 279 838 -128 1459 -128 
C 2144 -128 2720 362 2720 1010 
C 2720 1590 2330 1857 2074 2029 
L 1741 2264 
z
M 902 2822 
C 851 2854 595 3051 595 3351 
C 595 3739 998 4032 1459 4032 
C 1965 4032 2336 3676 2336 3262 
C 2336 2669 1670 2331 1638 2331 
C 1632 2331 1626 2331 1574 2370 
L 902 2822 
z
M 2080 1519 
C 2176 1449 2483 1240 2483 851 
C 2483 381 2010 25 1472 25 
C 890 25 448 438 448 940 
C 448 1443 838 1862 1280 2060 
L 2080 1519 
z
" transform="scale(0.015625)"/>
       </defs>
       <use xlink:href="#CMR17-30" transform="scale(0.996264)"/>
       <use xlink:href="#CMMI12-3a" transform="translate(45.690477 0) scale(0.996264)"/>
       <use xlink:href="#CMR17-38" transform="translate(72.787654 0) scale(0.996264)"/>
      </g>
     </g>
    </g>
    <g id="xtick_6">
     <g id="line2d_6">
      <g>
       <use xlink:href="#m580fa6691e" x="336.275379" y="213.718154" style="stroke: #000000; stroke-width: 0.8"/>
      </g>
     </g>
     <g id="text_6">
      <!-- $\mathdefault{1.0}$ -->
      <g transform="translate(327.550088 230.404031) scale(0.14 -0.14)">
       <defs>
        <path id="CMR17-31" d="M 1702 4058 
C 1702 4192 1696 4192 1606 4192 
C 1357 3916 979 3827 621 3827 
C 602 3827 570 3827 563 3808 
C 557 3795 557 3782 557 3648 
C 755 3648 1088 3686 1344 3839 
L 1344 461 
C 1344 236 1331 160 781 160 
L 589 160 
L 589 0 
C 896 0 1216 0 1523 0 
C 1830 0 2150 0 2458 0 
L 2458 160 
L 2266 160 
C 1715 160 1702 230 1702 458 
L 1702 4058 
z
" transform="scale(0.015625)"/>
       </defs>
       <use xlink:href="#CMR17-31" transform="scale(0.996264)"/>
       <use xlink:href="#CMMI12-3a" transform="translate(45.690477 0) scale(0.996264)"/>
       <use xlink:href="#CMR17-30" transform="translate(72.787654 0) scale(0.996264)"/>
      </g>
     </g>
    </g>
    <g id="text_7">
     <!-- t -->
     <g transform="translate(196.472746 246.801936) scale(0.14 -0.14)">
      <defs>
       <path id="CMR17-74" d="M 966 2560 
L 1862 2560 
L 1862 2725 
L 966 2725 
L 966 3904 
L 851 3904 
C 838 3245 614 2668 70 2668 
L 70 2560 
L 627 2560 
L 627 771 
C 627 650 627 -64 1370 -64 
C 1747 -64 1965 306 1965 777 
L 1965 1140 
L 1850 1140 
L 1850 783 
C 1850 344 1677 51 1408 51 
C 1222 51 966 178 966 758 
L 966 2560 
z
" transform="scale(0.015625)"/>
      </defs>
      <use xlink:href="#CMR17-74" transform="scale(0.996264)"/>
     </g>
    </g>
   </g>
   <g id="matplotlib.axis_2">
    <g id="ytick_1">
     <g id="line2d_7">
      <defs>
       <path id="m8d8843f21c" d="M 0 0 
L -3.5 0 
" style="stroke: #000000; stroke-width: 0.8"/>
      </defs>
      <g>
       <use xlink:href="#m8d8843f21c" x="48.56787" y="205.468119" style="stroke: #000000; stroke-width: 0.8"/>
      </g>
     </g>
     <g id="text_8">
      <!-- $\mathdefault{0.0}$ -->
      <g transform="translate(24.117288 210.311057) scale(0.14 -0.14)">
       <use xlink:href="#CMR17-30" transform="scale(0.996264)"/>
       <use xlink:href="#CMMI12-3a" transform="translate(45.690477 0) scale(0.996264)"/>
       <use xlink:href="#CMR17-30" transform="translate(72.787654 0) scale(0.996264)"/>
      </g>
     </g>
    </g>
    <g id="ytick_2">
     <g id="line2d_8">
      <g>
       <use xlink:href="#m8d8843f21c" x="48.56787" y="173.768523" style="stroke: #000000; stroke-width: 0.8"/>
      </g>
     </g>
     <g id="text_9">
      <!-- $\mathdefault{0.2}$ -->
      <g transform="translate(24.117288 178.611462) scale(0.14 -0.14)">
       <use xlink:href="#CMR17-30" transform="scale(0.996264)"/>
       <use xlink:href="#CMMI12-3a" transform="translate(45.690477 0) scale(0.996264)"/>
       <use xlink:href="#CMR17-32" transform="translate(72.787654 0) scale(0.996264)"/>
      </g>
     </g>
    </g>
    <g id="ytick_3">
     <g id="line2d_9">
      <g>
       <use xlink:href="#m8d8843f21c" x="48.56787" y="142.068928" style="stroke: #000000; stroke-width: 0.8"/>
      </g>
     </g>
     <g id="text_10">
      <!-- $\mathdefault{0.4}$ -->
      <g transform="translate(24.117288 146.911866) scale(0.14 -0.14)">
       <use xlink:href="#CMR17-30" transform="scale(0.996264)"/>
       <use xlink:href="#CMMI12-3a" transform="translate(45.690477 0) scale(0.996264)"/>
       <use xlink:href="#CMR17-34" transform="translate(72.787654 0) scale(0.996264)"/>
      </g>
     </g>
    </g>
    <g id="ytick_4">
     <g id="line2d_10">
      <g>
       <use xlink:href="#m8d8843f21c" x="48.56787" y="110.369333" style="stroke: #000000; stroke-width: 0.8"/>
      </g>
     </g>
     <g id="text_11">
      <!-- $\mathdefault{0.6}$ -->
      <g transform="translate(24.117288 115.212271) scale(0.14 -0.14)">
       <use xlink:href="#CMR17-30" transform="scale(0.996264)"/>
       <use xlink:href="#CMMI12-3a" transform="translate(45.690477 0) scale(0.996264)"/>
       <use xlink:href="#CMR17-36" transform="translate(72.787654 0) scale(0.996264)"/>
      </g>
     </g>
    </g>
    <g id="ytick_5">
     <g id="line2d_11">
      <g>
       <use xlink:href="#m8d8843f21c" x="48.56787" y="78.669737" style="stroke: #000000; stroke-width: 0.8"/>
      </g>
     </g>
     <g id="text_12">
      <!-- $\mathdefault{0.8}$ -->
      <g transform="translate(24.117288 83.512675) scale(0.14 -0.14)">
       <use xlink:href="#CMR17-30" transform="scale(0.996264)"/>
       <use xlink:href="#CMMI12-3a" transform="translate(45.690477 0) scale(0.996264)"/>
       <use xlink:href="#CMR17-38" transform="translate(72.787654 0) scale(0.996264)"/>
      </g>
     </g>
    </g>
    <g id="ytick_6">
     <g id="line2d_12">
      <g>
       <use xlink:href="#m8d8843f21c" x="48.56787" y="46.970142" style="stroke: #000000; stroke-width: 0.8"/>
      </g>
     </g>
     <g id="text_13">
      <!-- $\mathdefault{1.0}$ -->
      <g transform="translate(24.117288 51.81308) scale(0.14 -0.14)">
       <use xlink:href="#CMR17-31" transform="scale(0.996264)"/>
       <use xlink:href="#CMMI12-3a" transform="translate(45.690477 0) scale(0.996264)"/>
       <use xlink:href="#CMR17-30" transform="translate(72.787654 0) scale(0.996264)"/>
      </g>
     </g>
    </g>
   </g>
   <g id="line2d_13">
    <path d="M 62.255179 190.379112 
L 63.899301 190.12009 
L 65.543422 189.636928 
L 66.913523 189.012752 
L 68.283624 188.117974 
L 69.379705 187.14434 
L 70.475785 185.875663 
L 71.571866 184.239427 
L 72.667947 182.148043 
L 73.764028 179.491986 
L 74.860109 176.139859 
L 75.956189 171.957279 
L 77.05227 166.839016 
L 78.148351 160.734126 
L 79.518452 151.812256 
L 83.354735 125.52288 
L 84.450816 119.721732 
L 85.546896 115.053145 
L 86.916997 110.316764 
L 92.945442 90.985173 
L 99.247906 69.130334 
L 101.440068 62.478134 
L 103.358209 57.33659 
L 105.002331 53.494776 
L 106.646452 50.152663 
L 108.290573 47.269685 
L 109.934694 44.827778 
L 111.578815 42.817278 
L 113.222937 41.207491 
L 114.867058 39.944928 
L 116.511179 38.972771 
L 118.1553 38.246035 
L 120.073441 37.666543 
L 121.991583 37.338762 
L 124.183744 37.220577 
L 126.649926 37.334964 
L 129.664148 37.706032 
L 134.322492 38.532002 
L 147.749482 41.040332 
L 153.503906 41.83626 
L 159.53235 42.445814 
L 166.382855 42.907461 
L 175.425522 43.271746 
L 208.307946 44.389219 
L 220.912875 45.149966 
L 234.887905 46.220581 
L 251.329117 47.710407 
L 271.606612 49.781964 
L 296.26843 52.533758 
L 324.49251 55.909239 
L 336.001359 57.342892 
L 336.001359 57.342892 
" clip-path="url(#pb5a2943ed5)" style="fill: none; stroke: #b7d4ea; stroke-width: 3; stroke-linecap: square"/>
   </g>
   <g id="line2d_14">
    <path d="M 62.255179 46.233542 
L 64.447341 62.892909 
L 67.187543 81.910211 
L 70.749806 104.890054 
L 78.970412 156.203912 
L 80.614533 165.090586 
L 81.984634 171.449058 
L 83.354735 176.743367 
L 84.724836 181.030669 
L 86.094937 184.460625 
L 87.465038 187.206515 
L 88.835139 189.423809 
L 90.20524 191.235445 
L 91.849361 193.002546 
L 93.493482 194.433552 
L 95.411624 195.785785 
L 97.603785 197.020889 
L 100.069967 198.122105 
L 102.810169 199.087876 
L 106.098411 199.992627 
L 109.934694 200.803709 
L 114.593038 201.548028 
L 120.347462 202.226588 
L 127.471987 202.831232 
L 136.788674 203.382046 
L 149.119583 203.869876 
L 165.834815 204.294007 
L 189.674572 204.661082 
L 225.023178 204.965411 
L 280.649278 205.200836 
L 336.001359 205.313508 
L 336.001359 205.313508 
" clip-path="url(#pb5a2943ed5)" style="fill: none; stroke-dasharray: 11.1,4.8; stroke-dashoffset: 0; stroke: #fdc38d; stroke-width: 3"/>
   </g>
   <g id="line2d_15">
    <path d="M 62.255179 190.379112 
L 64.173321 190.200353 
L 65.817442 189.809609 
L 67.187543 189.260058 
L 68.557644 188.437311 
L 69.653725 187.520332 
L 70.749806 186.307421 
L 71.845886 184.725156 
L 72.941967 182.687209 
L 74.038048 180.092281 
L 75.134129 176.825245 
L 76.23021 172.766561 
L 77.32629 167.810107 
L 78.422371 161.889129 
L 79.792472 153.185126 
L 82.258654 135.488904 
L 83.902775 124.355922 
L 85.272876 116.692634 
L 86.368957 111.665676 
L 87.739058 106.405069 
L 89.93122 99.039954 
L 98.973886 69.90014 
L 101.166048 63.877209 
L 103.084189 59.242698 
L 104.72831 55.79984 
L 106.372432 52.867878 
L 108.016553 50.418867 
L 109.660674 48.399591 
L 111.304795 46.767593 
L 112.674896 45.686435 
L 114.044997 44.847088 
L 115.415098 44.233019 
L 117.059219 43.759883 
L 118.70334 43.529239 
L 120.621482 43.50632 
L 122.813643 43.733904 
L 125.279825 44.236571 
L 128.294047 45.104902 
L 132.40435 46.552461 
L 145.2833 51.246074 
L 150.489684 52.827774 
L 155.696067 54.166568 
L 161.176471 55.332401 
L 167.204916 56.374694 
L 174.329441 57.36514 
L 183.372108 58.383587 
L 197.895178 59.764884 
L 235.709966 63.070436 
L 260.097763 65.008287 
L 280.923298 66.439266 
L 300.926773 67.589285 
L 320.930248 68.515103 
L 336.001359 69.067548 
L 336.001359 69.067548 
" clip-path="url(#pb5a2943ed5)" style="fill: none; stroke: #9dcae1; stroke-width: 3; stroke-linecap: square"/>
   </g>
   <g id="line2d_16">
    <path d="M 62.255179 46.233542 
L 64.447341 62.823015 
L 66.913523 79.768329 
L 70.201765 100.619081 
L 79.518452 157.440723 
L 81.162573 166.077949 
L 82.532674 172.246277 
L 83.902775 177.385154 
L 85.272876 181.552911 
L 86.642977 184.893665 
L 88.013078 187.572496 
L 89.383179 189.737401 
L 90.75328 191.506614 
L 92.397401 193.232059 
L 94.041523 194.628853 
L 95.959664 195.948405 
L 98.151826 197.153667 
L 100.618007 198.22863 
L 103.358209 199.171891 
L 106.646452 200.056206 
L 110.482735 200.849571 
L 115.141078 201.578209 
L 120.895502 202.242987 
L 128.020027 202.83567 
L 137.336714 203.375934 
L 149.667623 203.85467 
L 166.656875 204.276662 
L 191.044673 204.64217 
L 227.48936 204.946253 
L 285.307622 205.184364 
L 336.001359 205.29054 
L 336.001359 205.29054 
" clip-path="url(#pb5a2943ed5)" style="fill: none; stroke-dasharray: 11.1,4.8; stroke-dashoffset: 0; stroke: #fdae6a; stroke-width: 3"/>
   </g>
   <g id="line2d_17">
    <path d="M 62.255179 190.379112 
L 64.173321 190.356134 
L 65.817442 190.100275 
L 67.187543 189.659564 
L 68.283624 189.113001 
L 69.379705 188.3492 
L 70.475785 187.317965 
L 71.571866 185.961236 
L 72.667947 184.21332 
L 73.764028 182.000196 
L 74.860109 179.238765 
L 75.956189 175.838013 
L 77.05227 171.704004 
L 78.148351 166.751181 
L 79.518452 159.337313 
L 81.162573 148.843847 
L 84.998856 123.420884 
L 86.368957 116.24596 
L 87.739058 110.301413 
L 89.383179 104.355345 
L 91.575341 97.39389 
L 95.137603 86.875917 
L 98.151826 78.635432 
L 100.343987 73.233014 
L 102.262129 69.034964 
L 104.18027 65.373393 
L 105.824391 62.672567 
L 107.468512 60.383147 
L 109.112634 58.503954 
L 110.756755 57.013817 
L 112.400876 55.874426 
L 114.044997 55.044601 
L 115.689118 54.490721 
L 117.33324 54.186671 
L 118.977361 54.107967 
L 120.895502 54.26412 
L 122.813643 54.640572 
L 125.279825 55.370606 
L 128.294047 56.523667 
L 132.13033 58.244213 
L 140.076916 62.130693 
L 145.83134 64.808913 
L 150.489684 66.73161 
L 154.874007 68.303693 
L 159.25833 69.649213 
L 163.916673 70.855008 
L 169.123057 71.972188 
L 175.151502 73.025298 
L 182.002007 73.990293 
L 190.496633 74.950952 
L 200.9094 75.893274 
L 212.966289 76.758431 
L 225.571218 77.443865 
L 237.902127 77.89564 
L 249.684996 78.108637 
L 260.919824 78.094797 
L 271.880632 77.860307 
L 282.293399 77.419595 
L 292.432147 76.770977 
L 302.296874 75.916278 
L 311.613561 74.890972 
L 320.656227 73.677732 
L 329.424874 72.2803 
L 336.001359 71.079408 
L 336.001359 71.079408 
" clip-path="url(#pb5a2943ed5)" style="fill: none; stroke: #7db8da; stroke-width: 3; stroke-linecap: square"/>
   </g>
   <g id="line2d_18">
    <path d="M 62.255179 46.233542 
L 64.447341 62.746318 
L 66.913523 79.441122 
L 69.927745 98.173983 
L 79.518452 155.352309 
L 81.436593 165.362675 
L 82.806694 171.507799 
L 84.176795 176.690067 
L 85.546896 180.938543 
L 86.916997 184.369532 
L 88.287098 187.132474 
L 89.657199 189.368713 
L 91.0273 191.195637 
L 92.671422 192.974883 
L 94.315543 194.412303 
L 96.233684 195.767094 
L 98.425846 197.001476 
L 100.892028 198.099756 
L 103.63223 199.061293 
L 106.920472 199.960872 
L 110.756755 200.7665 
L 115.415098 201.505144 
L 121.169522 202.178104 
L 128.294047 202.777261 
L 137.610734 203.322523 
L 149.941643 203.804638 
L 166.930896 204.228855 
L 191.318693 204.596823 
L 227.76338 204.905555 
L 285.855662 205.154105 
L 336.001359 205.268642 
L 336.001359 205.268642 
" clip-path="url(#pb5a2943ed5)" style="fill: none; stroke-dasharray: 11.1,4.8; stroke-dashoffset: 0; stroke: #fd994d; stroke-width: 3"/>
   </g>
   <g id="line2d_19">
    <path d="M 62.255179 190.379112 
L 64.173321 190.503054 
L 65.817442 190.368777 
L 67.187543 190.027343 
L 68.283624 189.562957 
L 69.379705 188.891394 
L 70.475785 187.974145 
L 71.571866 186.769096 
L 72.667947 185.230293 
L 73.764028 183.307072 
L 74.860109 180.943208 
L 75.956189 178.077218 
L 77.05227 174.645182 
L 78.148351 170.587846 
L 79.518452 164.578189 
L 80.888553 157.553457 
L 83.080715 144.885161 
L 85.546896 130.88452 
L 86.916997 124.189783 
L 88.287098 118.53434 
L 89.657199 113.72907 
L 91.301321 108.719703 
L 94.041523 101.197518 
L 98.425846 89.769902 
L 101.166048 83.200686 
L 103.358209 78.516445 
L 105.276351 74.925851 
L 107.194492 71.826399 
L 108.838613 69.547013 
L 110.482735 67.598647 
L 112.126856 65.966707 
L 113.770977 64.636048 
L 115.415098 63.586396 
L 117.059219 62.791535 
L 118.70334 62.222341 
L 120.621482 61.806125 
L 122.539623 61.619278 
L 124.731785 61.641809 
L 127.197967 61.910006 
L 130.212189 62.494354 
L 134.048472 63.491678 
L 140.898977 65.556367 
L 150.489684 68.405921 
L 156.792148 70.034678 
L 162.820593 71.357997 
L 169.397077 72.564878 
L 177.343663 73.782766 
L 188.578491 75.256759 
L 208.307946 77.589465 
L 229.133481 79.850174 
L 246.396753 81.504042 
L 262.563945 82.829495 
L 278.457117 83.908689 
L 294.350288 84.765013 
L 310.24346 85.401396 
L 326.410652 85.825585 
L 336.001359 85.970817 
L 336.001359 85.970817 
" clip-path="url(#pb5a2943ed5)" style="fill: none; stroke: #60a7d2; stroke-width: 3; stroke-linecap: square"/>
   </g>
   <g id="line2d_20">
    <path d="M 62.255179 46.233542 
L 64.173321 60.724657 
L 66.365482 75.622901 
L 69.105684 92.591801 
L 74.586088 124.582344 
L 79.792472 154.328307 
L 81.710614 164.036232 
L 83.354735 171.210831 
L 84.724836 176.24507 
L 86.094937 180.43113 
L 87.465038 183.857923 
L 88.835139 186.646968 
L 90.20524 188.921572 
L 91.575341 190.789316 
L 93.219462 192.614556 
L 94.863583 194.092502 
L 96.781725 195.487524 
L 98.699866 196.616137 
L 100.892028 197.662924 
L 103.63223 198.703417 
L 106.646452 199.600344 
L 110.208714 200.425023 
L 114.593038 201.198708 
L 119.799421 201.885248 
L 126.375906 202.518566 
L 134.870532 203.095736 
L 145.83134 203.603062 
L 160.628431 204.051663 
L 181.453966 204.444335 
L 211.870208 204.777885 
L 258.727662 205.049701 
L 336.001359 205.256459 
L 336.001359 205.256459 
" clip-path="url(#pb5a2943ed5)" style="fill: none; stroke-dasharray: 11.1,4.8; stroke-dashoffset: 0; stroke: #fa8331; stroke-width: 3"/>
   </g>
   <g id="line2d_21">
    <path d="M 62.255179 190.379112 
L 64.173321 190.616425 
L 65.817442 190.575926 
L 67.187543 190.320125 
L 68.557644 189.814388 
L 69.653725 189.196484 
L 70.749806 188.359891 
L 71.845886 187.276445 
L 72.941967 185.916198 
L 74.038048 184.246732 
L 75.134129 182.232919 
L 76.50423 179.175167 
L 77.874331 175.453358 
L 79.244432 171.021209 
L 80.888553 164.779736 
L 82.806694 156.48654 
L 86.094937 142.128303 
L 87.739058 136.117422 
L 89.109159 131.944559 
L 90.47926 128.557996 
L 91.849361 125.814355 
L 93.767502 122.589208 
L 98.425846 115.018993 
L 101.988108 108.645826 
L 111.030775 92.199896 
L 113.496957 88.335446 
L 115.689118 85.28443 
L 117.88128 82.600363 
L 120.073441 80.268251 
L 122.265603 78.26565 
L 124.457765 76.56601 
L 126.649926 75.13864 
L 129.116108 73.816049 
L 131.58229 72.745859 
L 134.322492 71.79664 
L 137.336714 70.980316 
L 140.898977 70.244075 
L 145.2833 69.578944 
L 150.215663 69.063655 
L 155.148027 68.763555 
L 160.080391 68.687297 
L 164.738734 68.839766 
L 169.123057 69.195916 
L 173.50738 69.764072 
L 178.165724 70.598384 
L 182.824067 71.66077 
L 187.756431 73.016465 
L 192.962815 74.678674 
L 198.717239 76.754435 
L 205.019703 79.264598 
L 212.418249 82.453421 
L 222.008956 86.846943 
L 240.916349 95.828836 
L 255.71344 102.725568 
L 267.222289 107.842832 
L 277.635056 112.230695 
L 287.499783 116.14838 
L 297.09049 119.715875 
L 306.133157 122.847882 
L 315.175823 125.743057 
L 323.94447 128.314612 
L 332.439096 130.577551 
L 336.001359 131.458773 
L 336.001359 131.458773 
" clip-path="url(#pb5a2943ed5)" style="fill: none; stroke: #4695c8; stroke-width: 3; stroke-linecap: square"/>
   </g>
   <g id="line2d_22">
    <path d="M 62.255179 46.233542 
L 64.173321 60.681025 
L 66.365482 75.433453 
L 68.831664 90.508938 
L 72.667947 112.387097 
L 79.244432 148.597152 
L 81.436593 159.58225 
L 83.080715 166.901794 
L 84.724836 173.209835 
L 86.094937 177.641274 
L 87.465038 181.356452 
L 88.835139 184.436775 
L 90.20524 186.980842 
L 91.575341 189.08504 
L 92.945442 190.834687 
L 94.589563 192.565123 
L 96.233684 193.982359 
L 98.151826 195.334274 
L 100.343987 196.579977 
L 102.810169 197.699579 
L 105.550371 198.688538 
L 108.838613 199.621335 
L 112.674896 200.463193 
L 117.33324 201.240827 
L 122.813643 201.925286 
L 129.664148 202.552821 
L 138.432795 203.123864 
L 149.941643 203.637334 
L 165.286774 204.087229 
L 186.66035 204.476616 
L 217.350612 204.796184 
L 264.482087 205.044259 
L 336.001359 205.211475 
L 336.001359 205.211475 
" clip-path="url(#pb5a2943ed5)" style="fill: none; stroke-dasharray: 11.1,4.8; stroke-dashoffset: 0; stroke: #f26d17; stroke-width: 3"/>
   </g>
   <g id="line2d_23">
    <path d="M 62.255179 190.379112 
L 64.173321 190.690172 
L 65.817442 190.71959 
L 67.187543 190.540827 
L 68.557644 190.144489 
L 69.927745 189.498674 
L 71.297846 188.571728 
L 72.667947 187.332259 
L 74.038048 185.748378 
L 75.408149 183.787635 
L 76.77825 181.419195 
L 78.148351 178.619408 
L 79.792472 174.68196 
L 81.436593 170.15468 
L 83.628755 163.408142 
L 87.191018 152.248736 
L 88.835139 147.927245 
L 90.20524 144.982302 
L 91.301321 143.076199 
L 92.397401 141.567559 
L 93.493482 140.442853 
L 94.589563 139.671545 
L 95.685644 139.206123 
L 96.781725 138.9893 
L 98.151826 138.978011 
L 99.795947 139.205074 
L 106.372432 140.371277 
L 108.838613 140.478082 
L 111.852836 140.37131 
L 115.415098 139.9983 
L 118.977361 139.401662 
L 122.265603 138.641175 
L 125.279825 137.736297 
L 128.294047 136.59804 
L 131.034249 135.33379 
L 133.774451 133.831673 
L 136.514653 132.081553 
L 139.528876 129.87123 
L 142.543098 127.38016 
L 146.10536 124.12438 
L 150.489684 119.777565 
L 163.916673 106.185497 
L 167.478936 103.014341 
L 170.767178 100.390915 
L 173.781401 98.278008 
L 176.521603 96.616535 
L 179.261805 95.209542 
L 182.002007 94.05805 
L 184.742209 93.15791 
L 187.482411 92.500752 
L 190.222613 92.074985 
L 192.962815 91.866494 
L 195.977037 91.869215 
L 198.991259 92.093227 
L 202.279501 92.562792 
L 205.841764 93.302688 
L 209.678047 94.326823 
L 214.06237 95.730698 
L 219.268754 97.640982 
L 226.119259 100.413305 
L 252.151178 111.204302 
L 259.823743 114.014877 
L 267.222289 116.492674 
L 274.894854 118.824284 
L 282.84144 121.000063 
L 291.062046 123.018782 
L 299.830692 124.940931 
L 309.147379 126.753696 
L 319.012106 128.44839 
L 329.698894 130.058129 
L 336.001359 130.910122 
L 336.001359 130.910122 
" clip-path="url(#pb5a2943ed5)" style="fill: none; stroke: #3181bd; stroke-width: 3; stroke-linecap: square"/>
   </g>
   <g id="line2d_24">
    <path d="M 62.255179 46.233542 
L 64.173321 60.652974 
L 66.365482 75.306169 
L 68.831664 90.182135 
L 72.119907 108.502054 
L 77.05227 134.58163 
L 80.340513 150.944765 
L 82.532674 160.810805 
L 84.450816 168.394004 
L 86.094937 173.973155 
L 87.465038 177.950558 
L 88.835139 181.345171 
L 90.20524 184.213075 
L 91.575341 186.624361 
L 92.945442 188.650664 
L 94.589563 190.665996 
L 96.233684 192.317799 
L 97.877805 193.683748 
L 99.795947 194.996316 
L 101.988108 196.213274 
L 104.45429 197.313356 
L 107.194492 198.290803 
L 110.482735 199.218607 
L 114.319017 200.061754 
L 118.977361 200.846531 
L 124.731785 201.57343 
L 131.85631 202.233586 
L 140.898977 202.835107 
L 152.681845 203.384731 
L 168.575017 203.888628 
L 189.674572 204.32177 
L 218.172673 204.670924 
L 260.097763 204.943234 
L 331.343015 205.156975 
L 336.001359 205.16595 
L 336.001359 205.16595 
" clip-path="url(#pb5a2943ed5)" style="fill: none; stroke-dasharray: 11.1,4.8; stroke-dashoffset: 0; stroke: #e4580a; stroke-width: 3"/>
   </g>
   <g id="line2d_25">
    <path d="M 62.255179 190.379112 
L 64.173321 190.74087 
L 65.817442 190.832436 
L 67.461563 190.690866 
L 68.831664 190.372753 
L 70.201765 189.855627 
L 71.571866 189.126362 
L 72.941967 188.174743 
L 74.586088 186.728829 
L 76.23021 184.944404 
L 77.874331 182.822349 
L 79.792472 179.938242 
L 81.984634 176.161207 
L 84.450816 171.428261 
L 90.20524 160.156098 
L 91.849361 157.501941 
L 93.219462 155.64373 
L 94.589563 154.145137 
L 95.959664 153.015836 
L 97.055745 152.370828 
L 98.151826 151.941985 
L 99.247906 151.713065 
L 100.618007 151.680468 
L 101.988108 151.895434 
L 103.358209 152.321905 
L 105.002331 153.064683 
L 106.920472 154.181202 
L 109.386654 155.896014 
L 112.948916 158.682371 
L 121.443542 165.424858 
L 125.279825 168.124385 
L 128.568068 170.177072 
L 131.85631 171.970604 
L 135.144552 173.502874 
L 138.432795 174.780516 
L 141.721037 175.814792 
L 145.00928 176.618658 
L 148.297522 177.204754 
L 151.859785 177.606813 
L 155.422047 177.777501 
L 158.98431 177.724445 
L 162.546572 177.45157 
L 166.108835 176.959247 
L 169.671098 176.244643 
L 173.23336 175.302267 
L 176.795623 174.124725 
L 180.357885 172.703782 
L 183.920148 171.031776 
L 187.482411 169.103301 
L 191.044673 166.917249 
L 194.606936 164.478955 
L 198.443218 161.587049 
L 202.827542 157.98288 
L 207.759905 153.627832 
L 215.158451 146.761213 
L 224.475137 138.167269 
L 229.681521 133.669535 
L 234.065844 130.158222 
L 238.176147 127.140928 
L 242.01243 124.587577 
L 245.848713 122.299244 
L 249.684996 120.278598 
L 253.521279 118.521416 
L 257.357561 117.018015 
L 261.193844 115.754638 
L 265.030127 114.71468 
L 269.14043 113.827473 
L 273.524753 113.114028 
L 278.183096 112.587979 
L 283.11546 112.255295 
L 288.595864 112.112387 
L 294.624308 112.178395 
L 301.748834 112.488793 
L 310.24346 113.095191 
L 320.930248 114.091447 
L 336.001359 115.721772 
L 336.001359 115.721772 
" clip-path="url(#pb5a2943ed5)" style="fill: none; stroke: #1d6cb1; stroke-width: 3; stroke-linecap: square"/>
   </g>
   <g id="line2d_26">
    <path d="M 62.255179 46.233542 
L 64.173321 60.634734 
L 66.365482 75.212763 
L 68.831664 89.908658 
L 71.571866 104.863336 
L 75.134129 123.009956 
L 78.696391 140.018214 
L 81.436593 152.059688 
L 83.628755 160.743405 
L 85.546896 167.480335 
L 87.191018 172.548941 
L 88.835139 176.951775 
L 90.47926 180.712887 
L 92.123381 183.885807 
L 93.767502 186.541744 
L 95.411624 188.757566 
L 97.055745 190.607028 
L 98.699866 192.155797 
L 100.618007 193.656351 
L 102.810169 195.053338 
L 105.002331 196.188708 
L 107.468512 197.228082 
L 110.482735 198.242606 
L 113.770977 199.114709 
L 117.88128 199.961005 
L 122.813643 200.730364 
L 128.842088 201.429343 
L 136.240633 202.055441 
L 145.83134 202.634773 
L 158.71029 203.173988 
L 176.247582 203.669037 
L 200.9094 204.127994 
L 236.806046 204.559039 
L 284.211541 204.897499 
L 336.001359 205.096801 
L 336.001359 205.096801 
" clip-path="url(#pb5a2943ed5)" style="fill: none; stroke-dasharray: 11.1,4.8; stroke-dashoffset: 0; stroke: #d14501; stroke-width: 3"/>
   </g>
   <g id="line2d_27">
    <path d="M 62.255179 190.379112 
L 64.173321 190.78838 
L 66.091462 190.954978 
L 67.735583 190.887415 
L 69.379705 190.615159 
L 71.023826 190.135887 
L 72.941967 189.32335 
L 74.860109 188.258191 
L 77.05227 186.769226 
L 79.518452 184.808128 
L 82.532674 182.09558 
L 85.820917 178.830478 
L 90.20524 174.124333 
L 94.589563 169.490408 
L 97.055745 167.177659 
L 98.973886 165.636126 
L 100.618007 164.549791 
L 102.262129 163.712314 
L 103.90625 163.135486 
L 105.550371 162.814942 
L 107.194492 162.736227 
L 108.838613 162.880453 
L 110.482735 163.227402 
L 112.400876 163.860583 
L 114.593038 164.84281 
L 117.059219 166.21101 
L 120.073441 168.145413 
L 126.101886 172.354941 
L 131.30827 175.85769 
L 135.418573 178.34495 
L 139.254855 180.396652 
L 143.091138 182.182258 
L 146.927421 183.7139 
L 150.763704 185.012285 
L 154.874007 186.171827 
L 159.25833 187.177086 
L 163.916673 188.019273 
L 169.123057 188.726336 
L 174.603461 189.245393 
L 180.631906 189.592425 
L 187.20839 189.745701 
L 194.332916 189.686085 
L 202.005481 189.393659 
L 209.952067 188.865757 
L 218.172673 188.091562 
L 226.119259 187.123265 
L 234.065844 185.929442 
L 241.73841 184.546561 
L 248.862935 183.041069 
L 255.71344 181.372865 
L 262.289925 179.548951 
L 268.59239 177.579329 
L 274.894854 175.377256 
L 280.923298 173.041949 
L 286.951743 170.476579 
L 293.254207 167.550828 
L 299.830692 164.24969 
L 307.229238 160.283348 
L 318.190046 154.119606 
L 330.794975 147.09136 
L 336.001359 144.345885 
L 336.001359 144.345885 
" clip-path="url(#pb5a2943ed5)" style="fill: none; stroke: #0e58a2; stroke-width: 3; stroke-linecap: square"/>
   </g>
   <g id="line2d_28">
    <path d="M 62.255179 46.233542 
L 64.173321 60.618485 
L 66.091462 73.402699 
L 68.283624 86.537822 
L 70.749806 99.946331 
L 73.490008 113.630329 
L 76.50423 127.541025 
L 79.244432 139.20902 
L 81.710614 148.834149 
L 83.902775 156.60547 
L 86.094937 163.575145 
L 88.013078 168.99098 
L 89.93122 173.769427 
L 91.849361 177.929871 
L 93.767502 181.509163 
L 95.685644 184.558548 
L 97.603785 187.138263 
L 99.521927 189.311372 
L 101.440068 191.138889 
L 103.358209 192.676781 
L 105.550371 194.142706 
L 108.016553 195.493438 
L 110.482735 196.595904 
L 113.496957 197.684749 
L 116.785199 198.628107 
L 120.621482 199.492835 
L 125.279825 200.300073 
L 130.760229 201.015671 
L 137.610734 201.675753 
L 146.379381 202.281649 
L 157.614209 202.824365 
L 172.95934 203.328402 
L 194.332916 203.790453 
L 224.749158 204.208366 
L 269.41445 204.581535 
L 336.001359 204.915874 
L 336.001359 204.915874 
" clip-path="url(#pb5a2943ed5)" style="fill: none; stroke-dasharray: 11.1,4.8; stroke-dashoffset: 0; stroke: #b13a03; stroke-width: 3"/>
   </g>
   <g id="line2d_29">
    <path d="M 62.255179 190.379112 
L 64.447341 190.893211 
L 66.365482 191.123994 
L 68.283624 191.150717 
L 70.475785 190.948771 
L 72.941967 190.47315 
L 75.956189 189.635136 
L 80.066492 188.229192 
L 85.820917 186.010421 
L 90.47926 184.009791 
L 94.315543 182.124975 
L 98.699866 179.691379 
L 107.194492 174.88935 
L 109.934694 173.637884 
L 112.126856 172.855471 
L 114.319017 172.305551 
L 116.511179 172.005807 
L 118.70334 171.959183 
L 120.895502 172.156986 
L 123.087664 172.581327 
L 125.553845 173.297572 
L 128.294047 174.336388 
L 131.85631 175.954951 
L 146.653401 183.010562 
L 150.763704 184.560479 
L 154.874007 185.868766 
L 158.98431 186.948208 
L 163.368633 187.871466 
L 168.026976 188.626021 
L 173.23336 189.233503 
L 178.713764 189.648 
L 185.016229 189.892074 
L 192.140754 189.93115 
L 200.36136 189.742236 
L 210.500107 189.275018 
L 225.297198 188.348061 
L 299.556672 183.22404 
L 317.642005 181.712639 
L 333.261157 180.187868 
L 336.001359 179.895659 
L 336.001359 179.895659 
" clip-path="url(#pb5a2943ed5)" style="fill: none; stroke: #084488; stroke-width: 3; stroke-linecap: square"/>
   </g>
   <g id="line2d_30">
    <path d="M 62.255179 46.233542 
L 64.173321 60.599788 
L 66.091462 73.312743 
L 68.283624 86.277327 
L 70.475785 97.954032 
L 72.941967 109.888061 
L 75.408149 120.770494 
L 77.874331 130.718665 
L 80.340513 139.783631 
L 82.806694 147.989204 
L 84.998856 154.577996 
L 87.191018 160.523654 
L 89.383179 165.853631 
L 91.575341 170.602543 
L 93.767502 174.809864 
L 95.959664 178.516914 
L 98.151826 181.764807 
L 100.343987 184.594124 
L 102.536149 187.045412 
L 104.72831 189.159214 
L 106.920472 190.975371 
L 109.386654 192.710181 
L 111.852836 194.166957 
L 114.593038 195.514503 
L 117.60726 196.729045 
L 120.895502 197.801228 
L 124.457765 198.733073 
L 128.568068 199.584817 
L 133.500431 200.37641 
L 139.528876 201.105521 
L 146.927421 201.762601 
L 156.244108 202.356162 
L 168.575017 202.905103 
L 185.290249 203.410664 
L 208.307946 203.870048 
L 240.368309 204.274502 
L 286.403702 204.617735 
L 336.001359 204.837538 
L 336.001359 204.837538 
" clip-path="url(#pb5a2943ed5)" style="fill: none; stroke-dasharray: 11.1,4.8; stroke-dashoffset: 0; stroke: #963003; stroke-width: 3"/>
   </g>
   <g id="line2d_31">
    <path d="M 62.255179 190.379112 
L 64.447341 190.971157 
L 66.639503 191.351617 
L 69.105684 191.561249 
L 72.119907 191.584753 
L 76.23021 191.375397 
L 82.806694 190.793051 
L 91.301321 189.824178 
L 96.507704 189.037395 
L 100.343987 188.240687 
L 103.90625 187.27762 
L 108.016553 185.920524 
L 113.496957 183.850275 
L 121.169522 180.95297 
L 124.731785 179.864884 
L 127.471987 179.247596 
L 129.938169 178.900203 
L 132.40435 178.771707 
L 134.870532 178.861836 
L 137.610734 179.191704 
L 140.898977 179.836203 
L 145.2833 180.949177 
L 155.696067 183.679585 
L 160.354411 184.631994 
L 164.738734 185.307456 
L 169.123057 185.765546 
L 173.781401 186.028458 
L 178.713764 186.083384 
L 184.194168 185.918002 
L 190.496633 185.497765 
L 198.169198 184.755786 
L 209.952067 183.362688 
L 231.051622 180.859813 
L 243.382531 179.646538 
L 256.261481 178.610859 
L 271.332592 177.633126 
L 292.706167 176.490946 
L 336.001359 174.289865 
L 336.001359 174.289865 
" clip-path="url(#pb5a2943ed5)" style="fill: none; stroke: #08306b; stroke-width: 3; stroke-linecap: square"/>
   </g>
   <g id="line2d_32">
    <path d="M 62.255179 46.233542 
L 64.173321 60.577247 
L 66.091462 73.206484 
L 68.009604 84.465911 
L 70.201765 95.982281 
L 72.393927 106.314542 
L 74.586088 115.648296 
L 76.77825 124.112089 
L 79.244432 132.709985 
L 81.710614 140.428992 
L 84.176795 147.35482 
L 86.642977 153.562068 
L 89.109159 159.117835 
L 91.575341 164.083944 
L 94.041523 168.518456 
L 96.507704 172.47642 
L 98.973886 176.009507 
L 101.440068 179.164589 
L 103.90625 181.982114 
L 106.646452 184.757333 
L 109.386654 187.194672 
L 112.126856 189.326254 
L 114.867058 191.181578 
L 117.88128 192.937216 
L 120.895502 194.429656 
L 124.183744 195.798943 
L 127.746007 197.025462 
L 131.58229 198.101486 
L 135.966613 199.084708 
L 140.898977 199.950909 
L 146.653401 200.727432 
L 153.503906 201.423526 
L 162.272552 202.077186 
L 173.50738 202.674854 
L 188.304471 203.223214 
L 208.033925 203.716755 
L 234.613885 204.145252 
L 271.880632 204.50839 
L 327.780753 204.81201 
L 336.001359 204.843377 
L 336.001359 204.843377 
" clip-path="url(#pb5a2943ed5)" style="fill: none; stroke-dasharray: 11.1,4.8; stroke-dashoffset: 0; stroke: #7f2704; stroke-width: 3"/>
   </g>
   <g id="patch_3">
    <path d="M 48.56787 213.718154 
L 48.56787 28.815931 
" style="fill: none; stroke: #000000; stroke-width: 0.8; stroke-linejoin: miter; stroke-linecap: square"/>
   </g>
   <g id="patch_4">
    <path d="M 349.688667 213.718154 
L 349.688667 28.815931 
" style="fill: none; stroke: #000000; stroke-width: 0.8; stroke-linejoin: miter; stroke-linecap: square"/>
   </g>
   <g id="patch_5">
    <path d="M 48.56787 213.718154 
L 349.688667 213.718154 
" style="fill: none; stroke: #000000; stroke-width: 0.8; stroke-linejoin: miter; stroke-linecap: square"/>
   </g>
   <g id="patch_6">
    <path d="M 48.56787 28.815931 
L 349.688667 28.815931 
" style="fill: none; stroke: #000000; stroke-width: 0.8; stroke-linejoin: miter; stroke-linecap: square"/>
   </g>
   <g id="legend_1">
    <g id="line2d_33">
     <path d="M 362.288667 46.976703 
L 376.288667 46.976703 
L 389.542964 46.976703 
" style="fill: none; stroke: #b7d4ea; stroke-width: 3; stroke-linecap: square"/>
    </g>
    <g id="text_14">
     <!-- $P_{int}$ (A = 0.0) -->
     <g transform="translate(401.488667 51.876703) scale(0.14 -0.14)">
      <defs>
       <path id="CMMI12-50" d="M 1894 2023 
L 2970 2023 
C 3853 2023 4736 2673 4736 3401 
C 4736 3898 4314 4352 3507 4352 
L 1530 4352 
C 1408 4352 1350 4352 1350 4231 
C 1350 4167 1408 4167 1504 4167 
C 1894 4167 1894 4116 1894 4046 
C 1894 4034 1894 3995 1869 3899 
L 1005 472 
C 947 249 934 185 486 185 
C 365 185 301 185 301 70 
C 301 0 358 0 397 0 
C 518 0 646 0 768 0 
L 1517 0 
C 1638 0 1773 0 1894 0 
C 1946 0 2016 0 2016 121 
C 2016 185 1958 185 1862 185 
C 1478 185 1472 230 1472 293 
C 1472 325 1478 369 1485 401 
L 1894 2023 
z
M 2355 3930 
C 2413 4167 2438 4167 2688 4167 
L 3322 4167 
C 3802 4167 4198 4013 4198 3535 
C 4198 3369 4115 2827 3821 2534 
C 3712 2419 3405 2176 2822 2176 
L 1920 2176 
L 2355 3930 
z
" transform="scale(0.015625)"/>
       <path id="CMMI12-69" d="M 1811 913 
C 1811 945 1786 971 1747 971 
C 1690 971 1683 952 1651 843 
C 1485 262 1222 64 1011 64 
C 934 64 845 83 845 275 
C 845 447 922 639 992 830 
L 1440 2018 
C 1459 2069 1504 2184 1504 2305 
C 1504 2574 1312 2816 998 2816 
C 410 2816 173 1890 173 1839 
C 173 1814 198 1782 243 1782 
C 301 1782 307 1807 333 1896 
C 486 2428 730 2682 979 2682 
C 1037 2682 1146 2682 1146 2478 
C 1146 2312 1062 2101 1011 1961 
L 563 773 
C 525 671 486 568 486 453 
C 486 166 685 -64 992 -64 
C 1581 -64 1811 869 1811 913 
z
M 1760 4013 
C 1760 4109 1683 4224 1542 4224 
C 1395 4224 1229 4083 1229 3917 
C 1229 3758 1363 3707 1440 3707 
C 1613 3707 1760 3873 1760 4013 
z
" transform="scale(0.015625)"/>
       <path id="CMMI12-6e" d="M 1318 1871 
C 1331 1910 1491 2229 1728 2433 
C 1894 2586 2112 2689 2362 2689 
C 2618 2689 2707 2497 2707 2242 
C 2707 1878 2445 1150 2317 805 
C 2259 651 2227 568 2227 453 
C 2227 166 2426 -64 2733 -64 
C 3328 -64 3552 875 3552 913 
C 3552 945 3526 971 3488 971 
C 3430 971 3424 952 3392 843 
C 3245 319 3002 64 2752 64 
C 2688 64 2586 64 2586 269 
C 2586 429 2656 621 2694 710 
C 2822 1063 3091 1780 3091 2145 
C 3091 2528 2867 2816 2381 2816 
C 1811 2816 1510 2415 1395 2255 
C 1376 2618 1114 2816 832 2816 
C 627 2816 486 2695 378 2478 
C 262 2248 173 1865 173 1839 
C 173 1814 198 1782 243 1782 
C 294 1782 301 1788 339 1935 
C 442 2325 557 2689 813 2689 
C 960 2689 1011 2586 1011 2395 
C 1011 2254 947 2005 902 1807 
L 723 1118 
C 698 996 627 709 595 594 
C 550 428 480 128 480 96 
C 480 6 550 -64 646 -64 
C 723 -64 813 -26 864 70 
C 877 102 934 326 966 453 
L 1107 1028 
L 1318 1871 
z
" transform="scale(0.015625)"/>
       <path id="CMMI12-74" d="M 1286 2566 
L 1875 2566 
C 1997 2566 2061 2566 2061 2681 
C 2061 2752 2022 2752 1894 2752 
L 1331 2752 
L 1568 3692 
C 1594 3781 1594 3794 1594 3840 
C 1594 3943 1510 4000 1427 4000 
C 1376 4000 1229 3981 1178 3775 
L 928 2752 
L 326 2752 
C 198 2752 141 2752 141 2630 
C 141 2566 186 2566 307 2566 
L 877 2566 
L 454 881 
C 403 658 384 594 384 511 
C 384 211 595 -64 954 -64 
C 1600 -64 1946 868 1946 912 
C 1946 951 1920 970 1882 970 
C 1869 970 1843 970 1830 944 
C 1824 938 1818 931 1773 829 
C 1638 511 1344 64 973 64 
C 781 64 768 224 768 364 
C 768 370 768 492 787 568 
L 1286 2566 
z
" transform="scale(0.015625)"/>
       <path id="CMR17-28" d="M 1958 -1561 
C 1958 -1555 1958 -1542 1939 -1523 
C 1645 -1224 858 -407 858 1581 
C 858 3569 1632 4379 1946 4697 
C 1946 4704 1958 4717 1958 4736 
C 1958 4755 1939 4768 1914 4768 
C 1843 4768 1299 4296 986 3594 
C 666 2887 576 2199 576 1588 
C 576 1128 621 351 1005 -471 
C 1312 -1135 1837 -1600 1914 -1600 
C 1946 -1600 1958 -1587 1958 -1561 
z
" transform="scale(0.015625)"/>
       <path id="CMR17-41" d="M 2323 4378 
C 2291 4461 2278 4480 2214 4480 
C 2150 4480 2138 4461 2106 4378 
L 749 566 
C 627 223 371 153 147 153 
L 147 -13 
C 262 0 518 0 640 0 
C 800 0 1056 0 1210 -13 
L 1210 153 
C 909 153 864 361 864 439 
C 864 497 877 530 890 569 
L 1229 1536 
L 2906 1536 
L 3290 442 
C 3322 365 3322 352 3322 327 
C 3322 153 3046 153 2925 153 
L 2925 0 
C 3110 0 3443 0 3642 0 
C 3808 0 4128 0 4282 -13 
L 4282 153 
C 3942 153 3827 153 3744 387 
L 2323 4378 
z
M 2067 3893 
L 2848 1702 
L 1286 1702 
L 2067 3893 
z
" transform="scale(0.015625)"/>
       <path id="CMR17-3d" d="M 4115 2017 
C 4211 2017 4307 2017 4307 2125 
C 4307 2240 4198 2240 4090 2240 
L 512 2240 
C 403 2240 294 2240 294 2125 
C 294 2017 390 2017 486 2017 
L 4115 2017 
z
M 4090 896 
C 4198 896 4307 896 4307 1011 
C 4307 1119 4211 1119 4115 1119 
L 486 1119 
C 390 1119 294 1119 294 1011 
C 294 896 403 896 512 896 
L 4090 896 
z
" transform="scale(0.015625)"/>
       <path id="CMR17-2e" d="M 1062 261 
C 1062 420 934 522 800 522 
C 672 522 538 420 538 261 
C 538 102 666 0 800 0 
C 928 0 1062 102 1062 261 
z
" transform="scale(0.015625)"/>
       <path id="CMR17-29" d="M 1683 1581 
C 1683 2040 1638 2817 1254 3639 
C 947 4303 422 4768 346 4768 
C 326 4768 301 4761 301 4729 
C 301 4717 307 4710 314 4697 
C 621 4378 1402 3568 1402 1584 
C 1402 -407 627 -1217 314 -1537 
C 307 -1549 301 -1556 301 -1568 
C 301 -1600 326 -1600 346 -1600 
C 416 -1600 960 -1128 1274 -426 
C 1594 281 1683 969 1683 1581 
z
" transform="scale(0.015625)"/>
      </defs>
      <use xlink:href="#CMMI12-50" transform="scale(0.996264)"/>
      <use xlink:href="#CMMI12-69" transform="translate(62.877232 -14.943915) scale(0.697382)"/>
      <use xlink:href="#CMMI12-6e" transform="translate(86.17214 -14.943915) scale(0.697382)"/>
      <use xlink:href="#CMMI12-74" transform="translate(126.932983 -14.943915) scale(0.697382)"/>
      <use xlink:href="#CMR17-28" transform="translate(182.165391 0) scale(0.996264)"/>
      <use xlink:href="#CMR17-41" transform="translate(217.446158 0) scale(0.996264)"/>
      <use xlink:href="#CMR17-3d" transform="translate(316.594554 0) scale(0.996264)"/>
      <use xlink:href="#CMR17-30" transform="translate(418.385309 0) scale(0.996264)"/>
      <use xlink:href="#CMR17-2e" transform="translate(464.075786 0) scale(0.996264)"/>
      <use xlink:href="#CMR17-30" transform="translate(488.946845 0) scale(0.996264)"/>
      <use xlink:href="#CMR17-29" transform="translate(534.637322 0) scale(0.996264)"/>
     </g>
    </g>
    <g id="line2d_34">
     <path d="M 362.288667 67.924399 
L 376.288667 67.924399 
L 389.542964 67.924399 
" style="fill: none; stroke-dasharray: 11.1,4.8; stroke-dashoffset: 0; stroke: #fdc38d; stroke-width: 3"/>
    </g>
    <g id="text_15">
     <!-- $S_{int}$ (A = 0.0) -->
     <g transform="translate(401.488667 72.824399) scale(0.14 -0.14)">
      <defs>
       <path id="CMMI12-53" d="M 4064 4423 
C 4064 4480 4019 4480 4006 4480 
C 3981 4480 3974 4474 3898 4378 
C 3859 4333 3597 4001 3590 3995 
C 3379 4410 2957 4480 2688 4480 
C 1875 4480 1139 3743 1139 3025 
C 1139 2549 1427 2269 1741 2161 
C 1811 2135 2189 2033 2381 1989 
C 2707 1900 2790 1875 2925 1735 
C 2950 1703 3078 1557 3078 1258 
C 3078 667 2528 57 1888 57 
C 1363 57 781 280 781 991 
C 781 1112 806 1265 826 1328 
C 826 1348 832 1378 832 1391 
C 832 1417 819 1449 768 1449 
C 710 1449 704 1436 678 1328 
L 352 24 
C 352 18 326 -64 326 -71 
C 326 -128 378 -128 390 -128 
C 416 -128 422 -122 499 -26 
L 794 356 
C 947 126 1280 -128 1875 -128 
C 2701 -128 3456 666 3456 1460 
C 3456 1728 3392 1963 3149 2197 
C 3014 2331 2899 2363 2310 2516 
C 1882 2630 1824 2649 1709 2751 
C 1600 2858 1517 3011 1517 3227 
C 1517 3761 2061 4308 2669 4308 
C 3296 4308 3590 3926 3590 3323 
C 3590 3158 3558 2986 3558 2961 
C 3558 2903 3610 2903 3629 2903 
C 3686 2903 3693 2922 3718 3024 
L 4064 4423 
z
" transform="scale(0.015625)"/>
      </defs>
      <use xlink:href="#CMMI12-53" transform="scale(0.996264)"/>
      <use xlink:href="#CMMI12-69" transform="translate(59.994488 -14.943915) scale(0.697382)"/>
      <use xlink:href="#CMMI12-6e" transform="translate(83.289395 -14.943915) scale(0.697382)"/>
      <use xlink:href="#CMMI12-74" transform="translate(124.050238 -14.943915) scale(0.697382)"/>
      <use xlink:href="#CMR17-28" transform="translate(179.282646 0) scale(0.996264)"/>
      <use xlink:href="#CMR17-41" transform="translate(214.563414 0) scale(0.996264)"/>
      <use xlink:href="#CMR17-3d" transform="translate(313.71181 0) scale(0.996264)"/>
      <use xlink:href="#CMR17-30" transform="translate(415.502565 0) scale(0.996264)"/>
      <use xlink:href="#CMR17-2e" transform="translate(461.193042 0) scale(0.996264)"/>
      <use xlink:href="#CMR17-30" transform="translate(486.0641 0) scale(0.996264)"/>
      <use xlink:href="#CMR17-29" transform="translate(531.754578 0) scale(0.996264)"/>
     </g>
    </g>
    <g id="line2d_35">
     <path d="M 362.288667 88.872095 
L 376.288667 88.872095 
L 389.542964 88.872095 
" style="fill: none; stroke: #9dcae1; stroke-width: 3; stroke-linecap: square"/>
    </g>
    <g id="text_16">
     <!-- $P_{int}$ (A = 0.11) -->
     <g transform="translate(401.488667 93.772095) scale(0.14 -0.14)">
      <use xlink:href="#CMMI12-50" transform="scale(0.996264)"/>
      <use xlink:href="#CMMI12-69" transform="translate(62.877232 -14.943915) scale(0.697382)"/>
      <use xlink:href="#CMMI12-6e" transform="translate(86.17214 -14.943915) scale(0.697382)"/>
      <use xlink:href="#CMMI12-74" transform="translate(126.932983 -14.943915) scale(0.697382)"/>
      <use xlink:href="#CMR17-28" transform="translate(182.165391 0) scale(0.996264)"/>
      <use xlink:href="#CMR17-41" transform="translate(217.446158 0) scale(0.996264)"/>
      <use xlink:href="#CMR17-3d" transform="translate(316.594554 0) scale(0.996264)"/>
      <use xlink:href="#CMR17-30" transform="translate(418.385309 0) scale(0.996264)"/>
      <use xlink:href="#CMR17-2e" transform="translate(464.075786 0) scale(0.996264)"/>
      <use xlink:href="#CMR17-31" transform="translate(488.946845 0) scale(0.996264)"/>
      <use xlink:href="#CMR17-31" transform="translate(534.637322 0) scale(0.996264)"/>
      <use xlink:href="#CMR17-29" transform="translate(580.327799 0) scale(0.996264)"/>
     </g>
    </g>
    <g id="line2d_36">
     <path d="M 362.288667 109.819791 
L 376.288667 109.819791 
L 389.542964 109.819791 
" style="fill: none; stroke-dasharray: 11.1,4.8; stroke-dashoffset: 0; stroke: #fdae6a; stroke-width: 3"/>
    </g>
    <g id="text_17">
     <!-- $S_{int}$ (A = 0.11) -->
     <g transform="translate(401.488667 114.719791) scale(0.14 -0.14)">
      <use xlink:href="#CMMI12-53" transform="scale(0.996264)"/>
      <use xlink:href="#CMMI12-69" transform="translate(59.994488 -14.943915) scale(0.697382)"/>
      <use xlink:href="#CMMI12-6e" transform="translate(83.289395 -14.943915) scale(0.697382)"/>
      <use xlink:href="#CMMI12-74" transform="translate(124.050238 -14.943915) scale(0.697382)"/>
      <use xlink:href="#CMR17-28" transform="translate(179.282646 0) scale(0.996264)"/>
      <use xlink:href="#CMR17-41" transform="translate(214.563414 0) scale(0.996264)"/>
      <use xlink:href="#CMR17-3d" transform="translate(313.71181 0) scale(0.996264)"/>
      <use xlink:href="#CMR17-30" transform="translate(415.502565 0) scale(0.996264)"/>
      <use xlink:href="#CMR17-2e" transform="translate(461.193042 0) scale(0.996264)"/>
      <use xlink:href="#CMR17-31" transform="translate(486.0641 0) scale(0.996264)"/>
      <use xlink:href="#CMR17-31" transform="translate(531.754578 0) scale(0.996264)"/>
      <use xlink:href="#CMR17-29" transform="translate(577.445055 0) scale(0.996264)"/>
     </g>
    </g>
    <g id="line2d_37">
     <path d="M 362.288667 130.767488 
L 376.288667 130.767488 
L 389.542964 130.767488 
" style="fill: none; stroke: #7db8da; stroke-width: 3; stroke-linecap: square"/>
    </g>
    <g id="text_18">
     <!-- $P_{int}$ (A = 0.22) -->
     <g transform="translate(401.488667 135.667488) scale(0.14 -0.14)">
      <use xlink:href="#CMMI12-50" transform="scale(0.996264)"/>
      <use xlink:href="#CMMI12-69" transform="translate(62.877232 -14.943915) scale(0.697382)"/>
      <use xlink:href="#CMMI12-6e" transform="translate(86.17214 -14.943915) scale(0.697382)"/>
      <use xlink:href="#CMMI12-74" transform="translate(126.932983 -14.943915) scale(0.697382)"/>
      <use xlink:href="#CMR17-28" transform="translate(182.165391 0) scale(0.996264)"/>
      <use xlink:href="#CMR17-41" transform="translate(217.446158 0) scale(0.996264)"/>
      <use xlink:href="#CMR17-3d" transform="translate(316.594554 0) scale(0.996264)"/>
      <use xlink:href="#CMR17-30" transform="translate(418.385309 0) scale(0.996264)"/>
      <use xlink:href="#CMR17-2e" transform="translate(464.075786 0) scale(0.996264)"/>
      <use xlink:href="#CMR17-32" transform="translate(488.946845 0) scale(0.996264)"/>
      <use xlink:href="#CMR17-32" transform="translate(534.637322 0) scale(0.996264)"/>
      <use xlink:href="#CMR17-29" transform="translate(580.327799 0) scale(0.996264)"/>
     </g>
    </g>
    <g id="line2d_38">
     <path d="M 362.288667 151.715184 
L 376.288667 151.715184 
L 389.542964 151.715184 
" style="fill: none; stroke-dasharray: 11.1,4.8; stroke-dashoffset: 0; stroke: #fd994d; stroke-width: 3"/>
    </g>
    <g id="text_19">
     <!-- $S_{int}$ (A = 0.22) -->
     <g transform="translate(401.488667 156.615184) scale(0.14 -0.14)">
      <use xlink:href="#CMMI12-53" transform="scale(0.996264)"/>
      <use xlink:href="#CMMI12-69" transform="translate(59.994488 -14.943915) scale(0.697382)"/>
      <use xlink:href="#CMMI12-6e" transform="translate(83.289395 -14.943915) scale(0.697382)"/>
      <use xlink:href="#CMMI12-74" transform="translate(124.050238 -14.943915) scale(0.697382)"/>
      <use xlink:href="#CMR17-28" transform="translate(179.282646 0) scale(0.996264)"/>
      <use xlink:href="#CMR17-41" transform="translate(214.563414 0) scale(0.996264)"/>
      <use xlink:href="#CMR17-3d" transform="translate(313.71181 0) scale(0.996264)"/>
      <use xlink:href="#CMR17-30" transform="translate(415.502565 0) scale(0.996264)"/>
      <use xlink:href="#CMR17-2e" transform="translate(461.193042 0) scale(0.996264)"/>
      <use xlink:href="#CMR17-32" transform="translate(486.0641 0) scale(0.996264)"/>
      <use xlink:href="#CMR17-32" transform="translate(531.754578 0) scale(0.996264)"/>
      <use xlink:href="#CMR17-29" transform="translate(577.445055 0) scale(0.996264)"/>
     </g>
    </g>
    <g id="line2d_39">
     <path d="M 362.288667 172.66288 
L 376.288667 172.66288 
L 389.542964 172.66288 
" style="fill: none; stroke: #60a7d2; stroke-width: 3; stroke-linecap: square"/>
    </g>
    <g id="text_20">
     <!-- $P_{int}$ (A = 0.33) -->
     <g transform="translate(401.488667 177.56288) scale(0.14 -0.14)">
      <defs>
       <path id="CMR17-33" d="M 1414 2157 
C 1984 2157 2234 1662 2234 1090 
C 2234 320 1824 25 1453 25 
C 1114 25 563 194 390 693 
C 422 680 454 680 486 680 
C 640 680 755 782 755 948 
C 755 1133 614 1216 486 1216 
C 378 1216 211 1165 211 926 
C 211 335 787 -128 1466 -128 
C 2176 -128 2720 430 2720 1085 
C 2720 1707 2208 2157 1600 2227 
C 2086 2328 2554 2756 2554 3329 
C 2554 3820 2048 4179 1472 4179 
C 890 4179 378 3829 378 3329 
C 378 3110 544 3072 627 3072 
C 762 3072 877 3155 877 3321 
C 877 3486 762 3569 627 3569 
C 602 3569 570 3569 544 3557 
C 730 3959 1235 4032 1459 4032 
C 1683 4032 2106 3925 2106 3320 
C 2106 3143 2080 2828 1862 2550 
C 1670 2304 1453 2304 1242 2284 
C 1210 2284 1062 2269 1037 2269 
C 992 2263 966 2257 966 2208 
C 966 2163 973 2157 1101 2157 
L 1414 2157 
z
" transform="scale(0.015625)"/>
      </defs>
      <use xlink:href="#CMMI12-50" transform="scale(0.996264)"/>
      <use xlink:href="#CMMI12-69" transform="translate(62.877232 -14.943915) scale(0.697382)"/>
      <use xlink:href="#CMMI12-6e" transform="translate(86.17214 -14.943915) scale(0.697382)"/>
      <use xlink:href="#CMMI12-74" transform="translate(126.932983 -14.943915) scale(0.697382)"/>
      <use xlink:href="#CMR17-28" transform="translate(182.165391 0) scale(0.996264)"/>
      <use xlink:href="#CMR17-41" transform="translate(217.446158 0) scale(0.996264)"/>
      <use xlink:href="#CMR17-3d" transform="translate(316.594554 0) scale(0.996264)"/>
      <use xlink:href="#CMR17-30" transform="translate(418.385309 0) scale(0.996264)"/>
      <use xlink:href="#CMR17-2e" transform="translate(464.075786 0) scale(0.996264)"/>
      <use xlink:href="#CMR17-33" transform="translate(488.946845 0) scale(0.996264)"/>
      <use xlink:href="#CMR17-33" transform="translate(534.637322 0) scale(0.996264)"/>
      <use xlink:href="#CMR17-29" transform="translate(580.327799 0) scale(0.996264)"/>
     </g>
    </g>
    <g id="line2d_40">
     <path d="M 362.288667 193.610576 
L 376.288667 193.610576 
L 389.542964 193.610576 
" style="fill: none; stroke-dasharray: 11.1,4.8; stroke-dashoffset: 0; stroke: #fa8331; stroke-width: 3"/>
    </g>
    <g id="text_21">
     <!-- $S_{int}$ (A = 0.33) -->
     <g transform="translate(401.488667 198.510576) scale(0.14 -0.14)">
      <use xlink:href="#CMMI12-53" transform="scale(0.996264)"/>
      <use xlink:href="#CMMI12-69" transform="translate(59.994488 -14.943915) scale(0.697382)"/>
      <use xlink:href="#CMMI12-6e" transform="translate(83.289395 -14.943915) scale(0.697382)"/>
      <use xlink:href="#CMMI12-74" transform="translate(124.050238 -14.943915) scale(0.697382)"/>
      <use xlink:href="#CMR17-28" transform="translate(179.282646 0) scale(0.996264)"/>
      <use xlink:href="#CMR17-41" transform="translate(214.563414 0) scale(0.996264)"/>
      <use xlink:href="#CMR17-3d" transform="translate(313.71181 0) scale(0.996264)"/>
      <use xlink:href="#CMR17-30" transform="translate(415.502565 0) scale(0.996264)"/>
      <use xlink:href="#CMR17-2e" transform="translate(461.193042 0) scale(0.996264)"/>
      <use xlink:href="#CMR17-33" transform="translate(486.0641 0) scale(0.996264)"/>
      <use xlink:href="#CMR17-33" transform="translate(531.754578 0) scale(0.996264)"/>
      <use xlink:href="#CMR17-29" transform="translate(577.445055 0) scale(0.996264)"/>
     </g>
    </g>
    <g id="line2d_41">
     <path d="M 362.288667 214.558272 
L 376.288667 214.558272 
L 389.542964 214.558272 
" style="fill: none; stroke: #4695c8; stroke-width: 3; stroke-linecap: square"/>
    </g>
    <g id="text_22">
     <!-- $P_{int}$ (A = 0.44) -->
     <g transform="translate(401.488667 219.458272) scale(0.14 -0.14)">
      <use xlink:href="#CMMI12-50" transform="scale(0.996264)"/>
      <use xlink:href="#CMMI12-69" transform="translate(62.877232 -14.943915) scale(0.697382)"/>
      <use xlink:href="#CMMI12-6e" transform="translate(86.17214 -14.943915) scale(0.697382)"/>
      <use xlink:href="#CMMI12-74" transform="translate(126.932983 -14.943915) scale(0.697382)"/>
      <use xlink:href="#CMR17-28" transform="translate(182.165391 0) scale(0.996264)"/>
      <use xlink:href="#CMR17-41" transform="translate(217.446158 0) scale(0.996264)"/>
      <use xlink:href="#CMR17-3d" transform="translate(316.594554 0) scale(0.996264)"/>
      <use xlink:href="#CMR17-30" transform="translate(418.385309 0) scale(0.996264)"/>
      <use xlink:href="#CMR17-2e" transform="translate(464.075786 0) scale(0.996264)"/>
      <use xlink:href="#CMR17-34" transform="translate(488.946845 0) scale(0.996264)"/>
      <use xlink:href="#CMR17-34" transform="translate(534.637322 0) scale(0.996264)"/>
      <use xlink:href="#CMR17-29" transform="translate(580.327799 0) scale(0.996264)"/>
     </g>
    </g>
    <g id="line2d_42">
     <path d="M 362.288667 235.505968 
L 376.288667 235.505968 
L 389.542964 235.505968 
" style="fill: none; stroke-dasharray: 11.1,4.8; stroke-dashoffset: 0; stroke: #f26d17; stroke-width: 3"/>
    </g>
    <g id="text_23">
     <!-- $S_{int}$ (A = 0.44) -->
     <g transform="translate(401.488667 240.405968) scale(0.14 -0.14)">
      <use xlink:href="#CMMI12-53" transform="scale(0.996264)"/>
      <use xlink:href="#CMMI12-69" transform="translate(59.994488 -14.943915) scale(0.697382)"/>
      <use xlink:href="#CMMI12-6e" transform="translate(83.289395 -14.943915) scale(0.697382)"/>
      <use xlink:href="#CMMI12-74" transform="translate(124.050238 -14.943915) scale(0.697382)"/>
      <use xlink:href="#CMR17-28" transform="translate(179.282646 0) scale(0.996264)"/>
      <use xlink:href="#CMR17-41" transform="translate(214.563414 0) scale(0.996264)"/>
      <use xlink:href="#CMR17-3d" transform="translate(313.71181 0) scale(0.996264)"/>
      <use xlink:href="#CMR17-30" transform="translate(415.502565 0) scale(0.996264)"/>
      <use xlink:href="#CMR17-2e" transform="translate(461.193042 0) scale(0.996264)"/>
      <use xlink:href="#CMR17-34" transform="translate(486.0641 0) scale(0.996264)"/>
      <use xlink:href="#CMR17-34" transform="translate(531.754578 0) scale(0.996264)"/>
      <use xlink:href="#CMR17-29" transform="translate(577.445055 0) scale(0.996264)"/>
     </g>
    </g>
    <g id="line2d_43">
     <path style="fill: none; stroke: #3181bd; stroke-width: 3; stroke-linecap: square"/>
    </g>
    <g id="text_24">
     <!-- $P_{int}$ (A = 0.56) -->
     <g transform="translate(560.518029 51.876703) scale(0.14 -0.14)">
      <defs>
       <path id="CMR17-35" d="M 730 3692 
C 794 3666 1056 3584 1325 3584 
C 1920 3584 2246 3911 2432 4100 
C 2432 4157 2432 4192 2394 4192 
C 2387 4192 2374 4192 2323 4163 
C 2099 4058 1837 3973 1517 3973 
C 1325 3973 1037 3999 723 4139 
C 653 4171 640 4171 634 4171 
C 602 4171 595 4164 595 4037 
L 595 2203 
C 595 2089 595 2057 659 2057 
C 691 2057 704 2070 736 2114 
C 941 2401 1222 2522 1542 2522 
C 1766 2522 2246 2382 2246 1289 
C 2246 1085 2246 715 2054 421 
C 1894 159 1645 25 1370 25 
C 947 25 518 320 403 814 
C 429 807 480 795 506 795 
C 589 795 749 840 749 1038 
C 749 1210 627 1280 506 1280 
C 358 1280 262 1190 262 1011 
C 262 454 704 -128 1382 -128 
C 2042 -128 2669 440 2669 1264 
C 2669 2030 2170 2624 1549 2624 
C 1222 2624 947 2503 730 2274 
L 730 3692 
z
" transform="scale(0.015625)"/>
      </defs>
      <use xlink:href="#CMMI12-50" transform="scale(0.996264)"/>
      <use xlink:href="#CMMI12-69" transform="translate(62.877232 -14.943915) scale(0.697382)"/>
      <use xlink:href="#CMMI12-6e" transform="translate(86.17214 -14.943915) scale(0.697382)"/>
      <use xlink:href="#CMMI12-74" transform="translate(126.932983 -14.943915) scale(0.697382)"/>
      <use xlink:href="#CMR17-28" transform="translate(182.165391 0) scale(0.996264)"/>
      <use xlink:href="#CMR17-41" transform="translate(217.446158 0) scale(0.996264)"/>
      <use xlink:href="#CMR17-3d" transform="translate(316.594554 0) scale(0.996264)"/>
      <use xlink:href="#CMR17-30" transform="translate(418.385309 0) scale(0.996264)"/>
      <use xlink:href="#CMR17-2e" transform="translate(464.075786 0) scale(0.996264)"/>
      <use xlink:href="#CMR17-35" transform="translate(488.946845 0) scale(0.996264)"/>
      <use xlink:href="#CMR17-36" transform="translate(534.637322 0) scale(0.996264)"/>
      <use xlink:href="#CMR17-29" transform="translate(580.327799 0) scale(0.996264)"/>
     </g>
    </g>
    <g id="line2d_44">
     <path style="fill: none; stroke-dasharray: 11.1,4.8; stroke-dashoffset: 0; stroke: #e4580a; stroke-width: 3"/>
    </g>
    <g id="text_25">
     <!-- $S_{int}$ (A = 0.56) -->
     <g transform="translate(560.518029 72.824399) scale(0.14 -0.14)">
      <use xlink:href="#CMMI12-53" transform="scale(0.996264)"/>
      <use xlink:href="#CMMI12-69" transform="translate(59.994488 -14.943915) scale(0.697382)"/>
      <use xlink:href="#CMMI12-6e" transform="translate(83.289395 -14.943915) scale(0.697382)"/>
      <use xlink:href="#CMMI12-74" transform="translate(124.050238 -14.943915) scale(0.697382)"/>
      <use xlink:href="#CMR17-28" transform="translate(179.282646 0) scale(0.996264)"/>
      <use xlink:href="#CMR17-41" transform="translate(214.563414 0) scale(0.996264)"/>
      <use xlink:href="#CMR17-3d" transform="translate(313.71181 0) scale(0.996264)"/>
      <use xlink:href="#CMR17-30" transform="translate(415.502565 0) scale(0.996264)"/>
      <use xlink:href="#CMR17-2e" transform="translate(461.193042 0) scale(0.996264)"/>
      <use xlink:href="#CMR17-35" transform="translate(486.0641 0) scale(0.996264)"/>
      <use xlink:href="#CMR17-36" transform="translate(531.754578 0) scale(0.996264)"/>
      <use xlink:href="#CMR17-29" transform="translate(577.445055 0) scale(0.996264)"/>
     </g>
    </g>
    <g id="line2d_45">
     <path style="fill: none; stroke: #1d6cb1; stroke-width: 3; stroke-linecap: square"/>
    </g>
    <g id="text_26">
     <!-- $P_{int}$ (A = 0.67) -->
     <g transform="translate(560.518029 93.772095) scale(0.14 -0.14)">
      <defs>
       <path id="CMR17-37" d="M 2886 3941 
L 2886 4081 
L 1382 4081 
C 634 4081 621 4165 595 4288 
L 480 4288 
L 294 3094 
L 410 3094 
C 429 3215 474 3540 550 3661 
C 589 3712 1062 3712 1171 3712 
L 2579 3712 
L 1869 2661 
C 1395 1954 1069 999 1069 165 
C 1069 89 1069 -128 1299 -128 
C 1530 -128 1530 89 1530 171 
L 1530 465 
C 1530 1508 1709 2196 2003 2636 
L 2886 3941 
z
" transform="scale(0.015625)"/>
      </defs>
      <use xlink:href="#CMMI12-50" transform="scale(0.996264)"/>
      <use xlink:href="#CMMI12-69" transform="translate(62.877232 -14.943915) scale(0.697382)"/>
      <use xlink:href="#CMMI12-6e" transform="translate(86.17214 -14.943915) scale(0.697382)"/>
      <use xlink:href="#CMMI12-74" transform="translate(126.932983 -14.943915) scale(0.697382)"/>
      <use xlink:href="#CMR17-28" transform="translate(182.165391 0) scale(0.996264)"/>
      <use xlink:href="#CMR17-41" transform="translate(217.446158 0) scale(0.996264)"/>
      <use xlink:href="#CMR17-3d" transform="translate(316.594554 0) scale(0.996264)"/>
      <use xlink:href="#CMR17-30" transform="translate(418.385309 0) scale(0.996264)"/>
      <use xlink:href="#CMR17-2e" transform="translate(464.075786 0) scale(0.996264)"/>
      <use xlink:href="#CMR17-36" transform="translate(488.946845 0) scale(0.996264)"/>
      <use xlink:href="#CMR17-37" transform="translate(534.637322 0) scale(0.996264)"/>
      <use xlink:href="#CMR17-29" transform="translate(580.327799 0) scale(0.996264)"/>
     </g>
    </g>
    <g id="line2d_46">
     <path style="fill: none; stroke-dasharray: 11.1,4.8; stroke-dashoffset: 0; stroke: #d14501; stroke-width: 3"/>
    </g>
    <g id="text_27">
     <!-- $S_{int}$ (A = 0.67) -->
     <g transform="translate(560.518029 114.719791) scale(0.14 -0.14)">
      <use xlink:href="#CMMI12-53" transform="scale(0.996264)"/>
      <use xlink:href="#CMMI12-69" transform="translate(59.994488 -14.943915) scale(0.697382)"/>
      <use xlink:href="#CMMI12-6e" transform="translate(83.289395 -14.943915) scale(0.697382)"/>
      <use xlink:href="#CMMI12-74" transform="translate(124.050238 -14.943915) scale(0.697382)"/>
      <use xlink:href="#CMR17-28" transform="translate(179.282646 0) scale(0.996264)"/>
      <use xlink:href="#CMR17-41" transform="translate(214.563414 0) scale(0.996264)"/>
      <use xlink:href="#CMR17-3d" transform="translate(313.71181 0) scale(0.996264)"/>
      <use xlink:href="#CMR17-30" transform="translate(415.502565 0) scale(0.996264)"/>
      <use xlink:href="#CMR17-2e" transform="translate(461.193042 0) scale(0.996264)"/>
      <use xlink:href="#CMR17-36" transform="translate(486.0641 0) scale(0.996264)"/>
      <use xlink:href="#CMR17-37" transform="translate(531.754578 0) scale(0.996264)"/>
      <use xlink:href="#CMR17-29" transform="translate(577.445055 0) scale(0.996264)"/>
     </g>
    </g>
    <g id="line2d_47">
     <path style="fill: none; stroke: #0e58a2; stroke-width: 3; stroke-linecap: square"/>
    </g>
    <g id="text_28">
     <!-- $P_{int}$ (A = 0.78) -->
     <g transform="translate(560.518029 135.667488) scale(0.14 -0.14)">
      <use xlink:href="#CMMI12-50" transform="scale(0.996264)"/>
      <use xlink:href="#CMMI12-69" transform="translate(62.877232 -14.943915) scale(0.697382)"/>
      <use xlink:href="#CMMI12-6e" transform="translate(86.17214 -14.943915) scale(0.697382)"/>
      <use xlink:href="#CMMI12-74" transform="translate(126.932983 -14.943915) scale(0.697382)"/>
      <use xlink:href="#CMR17-28" transform="translate(182.165391 0) scale(0.996264)"/>
      <use xlink:href="#CMR17-41" transform="translate(217.446158 0) scale(0.996264)"/>
      <use xlink:href="#CMR17-3d" transform="translate(316.594554 0) scale(0.996264)"/>
      <use xlink:href="#CMR17-30" transform="translate(418.385309 0) scale(0.996264)"/>
      <use xlink:href="#CMR17-2e" transform="translate(464.075786 0) scale(0.996264)"/>
      <use xlink:href="#CMR17-37" transform="translate(488.946845 0) scale(0.996264)"/>
      <use xlink:href="#CMR17-38" transform="translate(534.637322 0) scale(0.996264)"/>
      <use xlink:href="#CMR17-29" transform="translate(580.327799 0) scale(0.996264)"/>
     </g>
    </g>
    <g id="line2d_48">
     <path style="fill: none; stroke-dasharray: 11.1,4.8; stroke-dashoffset: 0; stroke: #b13a03; stroke-width: 3"/>
    </g>
    <g id="text_29">
     <!-- $S_{int}$ (A = 0.78) -->
     <g transform="translate(560.518029 156.615184) scale(0.14 -0.14)">
      <use xlink:href="#CMMI12-53" transform="scale(0.996264)"/>
      <use xlink:href="#CMMI12-69" transform="translate(59.994488 -14.943915) scale(0.697382)"/>
      <use xlink:href="#CMMI12-6e" transform="translate(83.289395 -14.943915) scale(0.697382)"/>
      <use xlink:href="#CMMI12-74" transform="translate(124.050238 -14.943915) scale(0.697382)"/>
      <use xlink:href="#CMR17-28" transform="translate(179.282646 0) scale(0.996264)"/>
      <use xlink:href="#CMR17-41" transform="translate(214.563414 0) scale(0.996264)"/>
      <use xlink:href="#CMR17-3d" transform="translate(313.71181 0) scale(0.996264)"/>
      <use xlink:href="#CMR17-30" transform="translate(415.502565 0) scale(0.996264)"/>
      <use xlink:href="#CMR17-2e" transform="translate(461.193042 0) scale(0.996264)"/>
      <use xlink:href="#CMR17-37" transform="translate(486.0641 0) scale(0.996264)"/>
      <use xlink:href="#CMR17-38" transform="translate(531.754578 0) scale(0.996264)"/>
      <use xlink:href="#CMR17-29" transform="translate(577.445055 0) scale(0.996264)"/>
     </g>
    </g>
    <g id="line2d_49">
     <path style="fill: none; stroke: #084488; stroke-width: 3; stroke-linecap: square"/>
    </g>
    <g id="text_30">
     <!-- $P_{int}$ (A = 0.89) -->
     <g transform="translate(560.518029 177.56288) scale(0.14 -0.14)">
      <defs>
       <path id="CMR17-39" d="M 2253 1864 
C 2253 464 1670 31 1190 31 
C 1043 31 685 31 538 294 
C 704 268 826 357 826 518 
C 826 692 685 749 595 749 
C 538 749 365 723 365 506 
C 365 71 742 -128 1203 -128 
C 1939 -128 2688 674 2688 2073 
C 2688 3817 1971 4179 1485 4179 
C 851 4179 243 3628 243 2778 
C 243 1991 762 1408 1414 1408 
C 1952 1408 2189 1903 2253 2112 
L 2253 1864 
z
M 1427 1510 
C 1254 1510 1011 1542 813 1922 
C 678 2169 678 2461 678 2771 
C 678 3146 678 3405 858 3684 
C 947 3817 1114 4032 1485 4032 
C 2240 4032 2240 2885 2240 2632 
C 2240 2182 2035 1510 1427 1510 
z
" transform="scale(0.015625)"/>
      </defs>
      <use xlink:href="#CMMI12-50" transform="scale(0.996264)"/>
      <use xlink:href="#CMMI12-69" transform="translate(62.877232 -14.943915) scale(0.697382)"/>
      <use xlink:href="#CMMI12-6e" transform="translate(86.17214 -14.943915) scale(0.697382)"/>
      <use xlink:href="#CMMI12-74" transform="translate(126.932983 -14.943915) scale(0.697382)"/>
      <use xlink:href="#CMR17-28" transform="translate(182.165391 0) scale(0.996264)"/>
      <use xlink:href="#CMR17-41" transform="translate(217.446158 0) scale(0.996264)"/>
      <use xlink:href="#CMR17-3d" transform="translate(316.594554 0) scale(0.996264)"/>
      <use xlink:href="#CMR17-30" transform="translate(418.385309 0) scale(0.996264)"/>
      <use xlink:href="#CMR17-2e" transform="translate(464.075786 0) scale(0.996264)"/>
      <use xlink:href="#CMR17-38" transform="translate(488.946845 0) scale(0.996264)"/>
      <use xlink:href="#CMR17-39" transform="translate(534.637322 0) scale(0.996264)"/>
      <use xlink:href="#CMR17-29" transform="translate(580.327799 0) scale(0.996264)"/>
     </g>
    </g>
    <g id="line2d_50">
     <path style="fill: none; stroke-dasharray: 11.1,4.8; stroke-dashoffset: 0; stroke: #963003; stroke-width: 3"/>
    </g>
    <g id="text_31">
     <!-- $S_{int}$ (A = 0.89) -->
     <g transform="translate(560.518029 198.510576) scale(0.14 -0.14)">
      <use xlink:href="#CMMI12-53" transform="scale(0.996264)"/>
      <use xlink:href="#CMMI12-69" transform="translate(59.994488 -14.943915) scale(0.697382)"/>
      <use xlink:href="#CMMI12-6e" transform="translate(83.289395 -14.943915) scale(0.697382)"/>
      <use xlink:href="#CMMI12-74" transform="translate(124.050238 -14.943915) scale(0.697382)"/>
      <use xlink:href="#CMR17-28" transform="translate(179.282646 0) scale(0.996264)"/>
      <use xlink:href="#CMR17-41" transform="translate(214.563414 0) scale(0.996264)"/>
      <use xlink:href="#CMR17-3d" transform="translate(313.71181 0) scale(0.996264)"/>
      <use xlink:href="#CMR17-30" transform="translate(415.502565 0) scale(0.996264)"/>
      <use xlink:href="#CMR17-2e" transform="translate(461.193042 0) scale(0.996264)"/>
      <use xlink:href="#CMR17-38" transform="translate(486.0641 0) scale(0.996264)"/>
      <use xlink:href="#CMR17-39" transform="translate(531.754578 0) scale(0.996264)"/>
      <use xlink:href="#CMR17-29" transform="translate(577.445055 0) scale(0.996264)"/>
     </g>
    </g>
    <g id="line2d_51">
     <path style="fill: none; stroke: #08306b; stroke-width: 3; stroke-linecap: square"/>
    </g>
    <g id="text_32">
     <!-- $P_{int}$ (A = 1.0) -->
     <g transform="translate(560.518029 219.458272) scale(0.14 -0.14)">
      <use xlink:href="#CMMI12-50" transform="scale(0.996264)"/>
      <use xlink:href="#CMMI12-69" transform="translate(62.877232 -14.943915) scale(0.697382)"/>
      <use xlink:href="#CMMI12-6e" transform="translate(86.17214 -14.943915) scale(0.697382)"/>
      <use xlink:href="#CMMI12-74" transform="translate(126.932983 -14.943915) scale(0.697382)"/>
      <use xlink:href="#CMR17-28" transform="translate(182.165391 0) scale(0.996264)"/>
      <use xlink:href="#CMR17-41" transform="translate(217.446158 0) scale(0.996264)"/>
      <use xlink:href="#CMR17-3d" transform="translate(316.594554 0) scale(0.996264)"/>
      <use xlink:href="#CMR17-31" transform="translate(418.385309 0) scale(0.996264)"/>
      <use xlink:href="#CMR17-2e" transform="translate(464.075786 0) scale(0.996264)"/>
      <use xlink:href="#CMR17-30" transform="translate(488.946845 0) scale(0.996264)"/>
      <use xlink:href="#CMR17-29" transform="translate(534.637322 0) scale(0.996264)"/>
     </g>
    </g>
    <g id="line2d_52">
     <path style="fill: none; stroke-dasharray: 11.1,4.8; stroke-dashoffset: 0; stroke: #7f2704; stroke-width: 3"/>
    </g>
    <g id="text_33">
     <!-- $S_{int}$ (A = 1.0) -->
     <g transform="translate(560.518029 240.405968) scale(0.14 -0.14)">
      <use xlink:href="#CMMI12-53" transform="scale(0.996264)"/>
      <use xlink:href="#CMMI12-69" transform="translate(59.994488 -14.943915) scale(0.697382)"/>
      <use xlink:href="#CMMI12-6e" transform="translate(83.289395 -14.943915) scale(0.697382)"/>
      <use xlink:href="#CMMI12-74" transform="translate(124.050238 -14.943915) scale(0.697382)"/>
      <use xlink:href="#CMR17-28" transform="translate(179.282646 0) scale(0.996264)"/>
      <use xlink:href="#CMR17-41" transform="translate(214.563414 0) scale(0.996264)"/>
      <use xlink:href="#CMR17-3d" transform="translate(313.71181 0) scale(0.996264)"/>
      <use xlink:href="#CMR17-31" transform="translate(415.502565 0) scale(0.996264)"/>
      <use xlink:href="#CMR17-2e" transform="translate(461.193042 0) scale(0.996264)"/>
      <use xlink:href="#CMR17-30" transform="translate(486.0641 0) scale(0.996264)"/>
      <use xlink:href="#CMR17-29" transform="translate(531.754578 0) scale(0.996264)"/>
     </g>
    </g>
   </g>
  </g>
 </g>
 <defs>
  <clipPath id="pb5a2943ed5">
   <rect x="48.56787" y="28.815931" width="301.120797" height="184.902223"/>
  </clipPath>
 </defs>
</svg>
