<?xml version="1.0" encoding="utf-8" standalone="no"?>
<!DOCTYPE svg PUBLIC "-//W3C//DTD SVG 1.1//EN"
  "http://www.w3.org/Graphics/SVG/1.1/DTD/svg11.dtd">
<svg xmlns:xlink="http://www.w3.org/1999/xlink" width="388.542964pt" height="240.132758pt" viewBox="0 0 388.542964 240.132758" xmlns="http://www.w3.org/2000/svg" version="1.1">
 <metadata>
  <rdf:RDF xmlns:dc="http://purl.org/dc/elements/1.1/" xmlns:cc="http://creativecommons.org/ns#" xmlns:rdf="http://www.w3.org/1999/02/22-rdf-syntax-ns#">
   <cc:Work>
    <dc:type rdf:resource="http://purl.org/dc/dcmitype/StillImage"/>
    <dc:date>2024-12-04T16:48:03.839084</dc:date>
    <dc:format>image/svg+xml</dc:format>
    <dc:creator>
     <cc:Agent>
      <dc:title>Matplotlib v3.7.5, https://matplotlib.org/</dc:title>
     </cc:Agent>
    </dc:creator>
   </cc:Work>
  </rdf:RDF>
 </metadata>
 <defs>
  <style type="text/css">*{stroke-linejoin: round; stroke-linecap: butt}</style>
 </defs>
 <g id="figure_1">
  <g id="patch_1">
   <path d="M 0 240.132758 
L 388.542964 240.132758 
L 388.542964 0 
L 0 0 
z
" style="fill: #ffffff"/>
  </g>
  <g id="axes_1">
   <g id="patch_2">
    <path d="M 52.872109 193.536948 
L 374.359051 193.536948 
L 374.359051 13.545893 
L 52.872109 13.545893 
z
" style="fill: #ffffff"/>
   </g>
   <g id="matplotlib.axis_1">
    <g id="xtick_1">
     <g id="line2d_1">
      <defs>
       <path id="m00a7563922" d="M 0 0 
L 0 3.5 
" style="stroke: #000000; stroke-width: 0.8"/>
      </defs>
      <g>
       <use xlink:href="#m00a7563922" x="67.485152" y="193.536948" style="stroke: #000000; stroke-width: 0.8"/>
      </g>
     </g>
     <g id="text_1">
      <!-- $\mathdefault{0}$ -->
      <g transform="translate(64.070907 210.222825) scale(0.14 -0.14)">
       <defs>
        <path id="CMR17-30" d="M 2688 2025 
C 2688 2416 2682 3080 2413 3591 
C 2176 4039 1798 4198 1466 4198 
C 1158 4198 768 4058 525 3597 
C 269 3118 243 2524 243 2025 
C 243 1661 250 1106 448 619 
C 723 -39 1216 -128 1466 -128 
C 1760 -128 2208 -7 2470 600 
C 2662 1042 2688 1559 2688 2025 
z
M 1466 -26 
C 1056 -26 813 325 723 812 
C 653 1188 653 1738 653 2096 
C 653 2588 653 2997 736 3387 
C 858 3929 1216 4096 1466 4096 
C 1728 4096 2067 3923 2189 3400 
C 2272 3036 2278 2607 2278 2096 
C 2278 1680 2278 1169 2202 792 
C 2067 95 1690 -26 1466 -26 
z
" transform="scale(0.015625)"/>
       </defs>
       <use xlink:href="#CMR17-30" transform="scale(0.996264)"/>
      </g>
     </g>
    </g>
    <g id="xtick_2">
     <g id="line2d_2">
      <g>
       <use xlink:href="#m00a7563922" x="116.195294" y="193.536948" style="stroke: #000000; stroke-width: 0.8"/>
      </g>
     </g>
     <g id="text_2">
      <!-- $\mathdefault{10000}$ -->
      <g transform="translate(99.124073 210.222825) scale(0.14 -0.14)">
       <defs>
        <path id="CMR17-31" d="M 1702 4058 
C 1702 4192 1696 4192 1606 4192 
C 1357 3916 979 3827 621 3827 
C 602 3827 570 3827 563 3808 
C 557 3795 557 3782 557 3648 
C 755 3648 1088 3686 1344 3839 
L 1344 461 
C 1344 236 1331 160 781 160 
L 589 160 
L 589 0 
C 896 0 1216 0 1523 0 
C 1830 0 2150 0 2458 0 
L 2458 160 
L 2266 160 
C 1715 160 1702 230 1702 458 
L 1702 4058 
z
" transform="scale(0.015625)"/>
       </defs>
       <use xlink:href="#CMR17-31" transform="scale(0.996264)"/>
       <use xlink:href="#CMR17-30" transform="translate(45.690477 0) scale(0.996264)"/>
       <use xlink:href="#CMR17-30" transform="translate(91.380954 0) scale(0.996264)"/>
       <use xlink:href="#CMR17-30" transform="translate(137.071431 0) scale(0.996264)"/>
       <use xlink:href="#CMR17-30" transform="translate(182.761908 0) scale(0.996264)"/>
      </g>
     </g>
    </g>
    <g id="xtick_3">
     <g id="line2d_3">
      <g>
       <use xlink:href="#m00a7563922" x="164.905437" y="193.536948" style="stroke: #000000; stroke-width: 0.8"/>
      </g>
     </g>
     <g id="text_3">
      <!-- $\mathdefault{20000}$ -->
      <g transform="translate(147.834216 210.222825) scale(0.14 -0.14)">
       <defs>
        <path id="CMR17-32" d="M 2669 989 
L 2554 989 
C 2490 536 2438 459 2413 420 
C 2381 369 1920 369 1830 369 
L 602 369 
C 832 619 1280 1072 1824 1597 
C 2214 1967 2669 2402 2669 3035 
C 2669 3790 2067 4224 1395 4224 
C 691 4224 262 3604 262 3030 
C 262 2780 448 2748 525 2748 
C 589 2748 781 2787 781 3010 
C 781 3207 614 3264 525 3264 
C 486 3264 448 3258 422 3245 
C 544 3790 915 4058 1306 4058 
C 1862 4058 2227 3617 2227 3035 
C 2227 2479 1901 2000 1536 1584 
L 262 146 
L 262 0 
L 2515 0 
L 2669 989 
z
" transform="scale(0.015625)"/>
       </defs>
       <use xlink:href="#CMR17-32" transform="scale(0.996264)"/>
       <use xlink:href="#CMR17-30" transform="translate(45.690477 0) scale(0.996264)"/>
       <use xlink:href="#CMR17-30" transform="translate(91.380954 0) scale(0.996264)"/>
       <use xlink:href="#CMR17-30" transform="translate(137.071431 0) scale(0.996264)"/>
       <use xlink:href="#CMR17-30" transform="translate(182.761908 0) scale(0.996264)"/>
      </g>
     </g>
    </g>
    <g id="xtick_4">
     <g id="line2d_4">
      <g>
       <use xlink:href="#m00a7563922" x="213.61558" y="193.536948" style="stroke: #000000; stroke-width: 0.8"/>
      </g>
     </g>
     <g id="text_4">
      <!-- $\mathdefault{30000}$ -->
      <g transform="translate(196.544358 210.222825) scale(0.14 -0.14)">
       <defs>
        <path id="CMR17-33" d="M 1414 2157 
C 1984 2157 2234 1662 2234 1090 
C 2234 320 1824 25 1453 25 
C 1114 25 563 194 390 693 
C 422 680 454 680 486 680 
C 640 680 755 782 755 948 
C 755 1133 614 1216 486 1216 
C 378 1216 211 1165 211 926 
C 211 335 787 -128 1466 -128 
C 2176 -128 2720 430 2720 1085 
C 2720 1707 2208 2157 1600 2227 
C 2086 2328 2554 2756 2554 3329 
C 2554 3820 2048 4179 1472 4179 
C 890 4179 378 3829 378 3329 
C 378 3110 544 3072 627 3072 
C 762 3072 877 3155 877 3321 
C 877 3486 762 3569 627 3569 
C 602 3569 570 3569 544 3557 
C 730 3959 1235 4032 1459 4032 
C 1683 4032 2106 3925 2106 3320 
C 2106 3143 2080 2828 1862 2550 
C 1670 2304 1453 2304 1242 2284 
C 1210 2284 1062 2269 1037 2269 
C 992 2263 966 2257 966 2208 
C 966 2163 973 2157 1101 2157 
L 1414 2157 
z
" transform="scale(0.015625)"/>
       </defs>
       <use xlink:href="#CMR17-33" transform="scale(0.996264)"/>
       <use xlink:href="#CMR17-30" transform="translate(45.690477 0) scale(0.996264)"/>
       <use xlink:href="#CMR17-30" transform="translate(91.380954 0) scale(0.996264)"/>
       <use xlink:href="#CMR17-30" transform="translate(137.071431 0) scale(0.996264)"/>
       <use xlink:href="#CMR17-30" transform="translate(182.761908 0) scale(0.996264)"/>
      </g>
     </g>
    </g>
    <g id="xtick_5">
     <g id="line2d_5">
      <g>
       <use xlink:href="#m00a7563922" x="262.325723" y="193.536948" style="stroke: #000000; stroke-width: 0.8"/>
      </g>
     </g>
     <g id="text_5">
      <!-- $\mathdefault{40000}$ -->
      <g transform="translate(245.254501 210.222825) scale(0.14 -0.14)">
       <defs>
        <path id="CMR17-34" d="M 2150 4122 
C 2150 4256 2144 4256 2029 4256 
L 128 1254 
L 128 1088 
L 1779 1088 
L 1779 457 
C 1779 224 1766 160 1318 160 
L 1197 160 
L 1197 0 
C 1402 0 1747 0 1965 0 
C 2182 0 2528 0 2733 0 
L 2733 160 
L 2611 160 
C 2163 160 2150 224 2150 457 
L 2150 1088 
L 2803 1088 
L 2803 1254 
L 2150 1254 
L 2150 4122 
z
M 1798 3703 
L 1798 1254 
L 256 1254 
L 1798 3703 
z
" transform="scale(0.015625)"/>
       </defs>
       <use xlink:href="#CMR17-34" transform="scale(0.996264)"/>
       <use xlink:href="#CMR17-30" transform="translate(45.690477 0) scale(0.996264)"/>
       <use xlink:href="#CMR17-30" transform="translate(91.380954 0) scale(0.996264)"/>
       <use xlink:href="#CMR17-30" transform="translate(137.071431 0) scale(0.996264)"/>
       <use xlink:href="#CMR17-30" transform="translate(182.761908 0) scale(0.996264)"/>
      </g>
     </g>
    </g>
    <g id="xtick_6">
     <g id="line2d_6">
      <g>
       <use xlink:href="#m00a7563922" x="311.035866" y="193.536948" style="stroke: #000000; stroke-width: 0.8"/>
      </g>
     </g>
     <g id="text_6">
      <!-- $\mathdefault{50000}$ -->
      <g transform="translate(293.964644 210.222825) scale(0.14 -0.14)">
       <defs>
        <path id="CMR17-35" d="M 730 3692 
C 794 3666 1056 3584 1325 3584 
C 1920 3584 2246 3911 2432 4100 
C 2432 4157 2432 4192 2394 4192 
C 2387 4192 2374 4192 2323 4163 
C 2099 4058 1837 3973 1517 3973 
C 1325 3973 1037 3999 723 4139 
C 653 4171 640 4171 634 4171 
C 602 4171 595 4164 595 4037 
L 595 2203 
C 595 2089 595 2057 659 2057 
C 691 2057 704 2070 736 2114 
C 941 2401 1222 2522 1542 2522 
C 1766 2522 2246 2382 2246 1289 
C 2246 1085 2246 715 2054 421 
C 1894 159 1645 25 1370 25 
C 947 25 518 320 403 814 
C 429 807 480 795 506 795 
C 589 795 749 840 749 1038 
C 749 1210 627 1280 506 1280 
C 358 1280 262 1190 262 1011 
C 262 454 704 -128 1382 -128 
C 2042 -128 2669 440 2669 1264 
C 2669 2030 2170 2624 1549 2624 
C 1222 2624 947 2503 730 2274 
L 730 3692 
z
" transform="scale(0.015625)"/>
       </defs>
       <use xlink:href="#CMR17-35" transform="scale(0.996264)"/>
       <use xlink:href="#CMR17-30" transform="translate(45.690477 0) scale(0.996264)"/>
       <use xlink:href="#CMR17-30" transform="translate(91.380954 0) scale(0.996264)"/>
       <use xlink:href="#CMR17-30" transform="translate(137.071431 0) scale(0.996264)"/>
       <use xlink:href="#CMR17-30" transform="translate(182.761908 0) scale(0.996264)"/>
      </g>
     </g>
    </g>
    <g id="xtick_7">
     <g id="line2d_7">
      <g>
       <use xlink:href="#m00a7563922" x="359.746008" y="193.536948" style="stroke: #000000; stroke-width: 0.8"/>
      </g>
     </g>
     <g id="text_7">
      <!-- $\mathdefault{60000}$ -->
      <g transform="translate(342.674787 210.222825) scale(0.14 -0.14)">
       <defs>
        <path id="CMR17-36" d="M 678 2176 
C 678 3690 1395 4032 1811 4032 
C 1946 4032 2272 4009 2400 3776 
C 2298 3776 2106 3776 2106 3553 
C 2106 3381 2246 3323 2336 3323 
C 2394 3323 2566 3348 2566 3560 
C 2566 3954 2246 4179 1805 4179 
C 1043 4179 243 3390 243 1984 
C 243 253 966 -128 1478 -128 
C 2099 -128 2688 427 2688 1283 
C 2688 2081 2170 2662 1517 2662 
C 1126 2662 838 2407 678 1960 
L 678 2176 
z
M 1478 25 
C 691 25 691 1200 691 1436 
C 691 1896 909 2560 1504 2560 
C 1613 2560 1926 2560 2138 2120 
C 2253 1870 2253 1609 2253 1289 
C 2253 944 2253 690 2118 434 
C 1978 171 1773 25 1478 25 
z
" transform="scale(0.015625)"/>
       </defs>
       <use xlink:href="#CMR17-36" transform="scale(0.996264)"/>
       <use xlink:href="#CMR17-30" transform="translate(45.690477 0) scale(0.996264)"/>
       <use xlink:href="#CMR17-30" transform="translate(91.380954 0) scale(0.996264)"/>
       <use xlink:href="#CMR17-30" transform="translate(137.071431 0) scale(0.996264)"/>
       <use xlink:href="#CMR17-30" transform="translate(182.761908 0) scale(0.996264)"/>
      </g>
     </g>
    </g>
    <g id="text_8">
     <!-- Iteration -->
     <g transform="translate(187.631804 226.620729) scale(0.14 -0.14)">
      <defs>
       <path id="CMR17-49" d="M 1261 3905 
C 1261 4192 1338 4192 1798 4192 
L 1798 4352 
C 1594 4352 1267 4352 1050 4352 
C 832 4352 506 4352 301 4352 
L 301 4192 
C 762 4192 838 4192 838 3905 
L 838 447 
C 838 160 762 160 301 160 
L 301 0 
C 506 0 832 0 1050 0 
C 1267 0 1594 0 1798 0 
L 1798 160 
C 1338 160 1261 160 1261 447 
L 1261 3905 
z
" transform="scale(0.015625)"/>
       <path id="CMR17-74" d="M 966 2560 
L 1862 2560 
L 1862 2725 
L 966 2725 
L 966 3904 
L 851 3904 
C 838 3245 614 2668 70 2668 
L 70 2560 
L 627 2560 
L 627 771 
C 627 650 627 -64 1370 -64 
C 1747 -64 1965 306 1965 777 
L 1965 1140 
L 1850 1140 
L 1850 783 
C 1850 344 1677 51 1408 51 
C 1222 51 966 178 966 758 
L 966 2560 
z
" transform="scale(0.015625)"/>
       <path id="CMR17-65" d="M 2438 1472 
C 2464 1498 2464 1511 2464 1576 
C 2464 2238 2118 2816 1389 2816 
C 710 2816 173 2169 173 1383 
C 173 551 781 -64 1459 -64 
C 2176 -64 2458 607 2458 740 
C 2458 784 2419 784 2406 784 
C 2362 784 2355 771 2330 696 
C 2189 265 1837 51 1504 51 
C 1229 51 954 203 781 480 
C 582 803 582 1176 582 1472 
L 2438 1472 
z
M 589 1568 
C 634 2505 1126 2714 1382 2714 
C 1818 2714 2112 2297 2118 1568 
L 589 1568 
z
" transform="scale(0.015625)"/>
       <path id="CMR17-72" d="M 960 1497 
C 960 2112 1222 2688 1702 2688 
C 1747 2688 1792 2682 1837 2662 
C 1837 2662 1696 2617 1696 2452 
C 1696 2298 1818 2234 1914 2234 
C 1990 2234 2131 2279 2131 2458 
C 2131 2663 1926 2790 1709 2790 
C 1222 2790 1011 2317 947 2093 
L 941 2093 
L 941 2790 
L 198 2720 
L 198 2554 
C 576 2554 634 2515 634 2208 
L 634 428 
C 634 184 608 153 198 153 
L 198 -13 
C 352 0 646 0 813 0 
C 998 0 1325 0 1498 -13 
L 1498 153 
C 1037 153 960 153 960 440 
L 960 1497 
z
" transform="scale(0.015625)"/>
       <path id="CMR17-61" d="M 2304 1653 
C 2304 2072 2304 2294 2035 2543 
C 1798 2752 1523 2816 1306 2816 
C 800 2816 435 2407 435 1971 
C 435 1728 627 1728 666 1728 
C 749 1728 896 1778 896 1954 
C 896 2112 774 2181 666 2181 
C 640 2181 608 2174 589 2168 
C 723 2592 1069 2714 1293 2714 
C 1613 2714 1965 2429 1965 1885 
L 1965 1600 
C 1587 1600 1133 1549 774 1357 
C 371 1133 256 813 256 570 
C 256 77 832 -64 1171 -64 
C 1523 -64 1850 139 1990 511 
C 2003 233 2182 -18 2464 -18 
C 2598 -18 2938 70 2938 567 
L 2938 920 
L 2822 920 
L 2822 562 
C 2822 178 2650 128 2566 128 
C 2304 128 2304 458 2304 738 
L 2304 1653 
z
M 1965 870 
C 1965 317 1568 38 1216 38 
C 896 38 646 275 646 570 
C 646 761 730 1100 1101 1305 
C 1408 1478 1760 1504 1965 1504 
L 1965 870 
z
" transform="scale(0.015625)"/>
       <path id="CMR17-69" d="M 992 3909 
C 992 4049 877 4170 730 4170 
C 589 4170 467 4056 467 3909 
C 467 3769 582 3648 730 3648 
C 870 3648 992 3763 992 3909 
z
M 243 2706 
L 243 2541 
C 602 2541 653 2502 653 2197 
L 653 427 
C 653 184 627 153 218 153 
L 218 -13 
C 371 0 646 0 806 0 
C 960 0 1222 0 1370 -13 
L 1370 153 
C 992 153 979 191 979 420 
L 979 2776 
L 243 2706 
z
" transform="scale(0.015625)"/>
       <path id="CMR17-6f" d="M 2758 1356 
C 2758 2176 2163 2816 1466 2816 
C 768 2816 173 2176 173 1356 
C 173 551 768 -64 1466 -64 
C 2163 -64 2758 551 2758 1356 
z
M 1466 51 
C 1165 51 909 230 762 480 
C 602 767 582 1126 582 1408 
C 582 1677 595 2010 762 2298 
C 890 2509 1139 2714 1466 2714 
C 1754 2714 1997 2554 2150 2330 
C 2349 2029 2349 1607 2349 1408 
C 2349 1158 2336 775 2163 467 
C 1984 173 1709 51 1466 51 
z
" transform="scale(0.015625)"/>
       <path id="CMR17-6e" d="M 2656 1933 
C 2656 2259 2592 2790 1837 2790 
C 1331 2790 1069 2400 973 2144 
L 966 2144 
L 966 2790 
L 211 2720 
L 211 2554 
C 589 2554 646 2515 646 2208 
L 646 428 
C 646 184 621 153 211 153 
L 211 -13 
C 365 0 646 0 813 0 
C 979 0 1267 0 1421 -13 
L 1421 153 
C 1011 153 986 178 986 428 
L 986 1658 
C 986 2247 1344 2688 1792 2688 
C 2266 2688 2317 2266 2317 1958 
L 2317 428 
C 2317 184 2291 153 1882 153 
L 1882 -13 
C 2035 0 2317 0 2483 0 
C 2650 0 2938 0 3091 -13 
L 3091 153 
C 2682 153 2656 178 2656 428 
L 2656 1933 
z
" transform="scale(0.015625)"/>
      </defs>
      <use xlink:href="#CMR17-49" transform="scale(0.996264)"/>
      <use xlink:href="#CMR17-74" transform="translate(32.638409 0) scale(0.996264)"/>
      <use xlink:href="#CMR17-65" transform="translate(67.919177 0) scale(0.996264)"/>
      <use xlink:href="#CMR17-72" transform="translate(108.404837 0) scale(0.996264)"/>
      <use xlink:href="#CMR17-61" transform="translate(143.685605 0) scale(0.996264)"/>
      <use xlink:href="#CMR17-74" transform="translate(189.376082 0) scale(0.996264)"/>
      <use xlink:href="#CMR17-69" transform="translate(224.65685 0) scale(0.996264)"/>
      <use xlink:href="#CMR17-6f" transform="translate(249.527909 0) scale(0.996264)"/>
      <use xlink:href="#CMR17-6e" transform="translate(295.218386 0) scale(0.996264)"/>
     </g>
    </g>
   </g>
   <g id="matplotlib.axis_2">
    <g id="ytick_1">
     <g id="line2d_8">
      <defs>
       <path id="m894bfa4dbb" d="M 0 0 
L -3.5 0 
" style="stroke: #000000; stroke-width: 0.8"/>
      </defs>
      <g>
       <use xlink:href="#m894bfa4dbb" x="52.872109" y="165.767982" style="stroke: #000000; stroke-width: 0.8"/>
      </g>
     </g>
     <g id="text_9">
      <!-- $\mathdefault{10^{3}}$ -->
      <g transform="translate(27.197905 170.61092) scale(0.14 -0.14)">
       <use xlink:href="#CMR17-31" transform="scale(0.996264)"/>
       <use xlink:href="#CMR17-30" transform="translate(45.690477 0) scale(0.996264)"/>
       <use xlink:href="#CMR17-33" transform="translate(91.380954 36.153639) scale(0.697382)"/>
      </g>
     </g>
    </g>
    <g id="ytick_2">
     <g id="line2d_9">
      <g>
       <use xlink:href="#m894bfa4dbb" x="52.872109" y="115.707734" style="stroke: #000000; stroke-width: 0.8"/>
      </g>
     </g>
     <g id="text_10">
      <!-- $\mathdefault{10^{4}}$ -->
      <g transform="translate(27.197905 120.550673) scale(0.14 -0.14)">
       <use xlink:href="#CMR17-31" transform="scale(0.996264)"/>
       <use xlink:href="#CMR17-30" transform="translate(45.690477 0) scale(0.996264)"/>
       <use xlink:href="#CMR17-34" transform="translate(91.380954 36.153639) scale(0.697382)"/>
      </g>
     </g>
    </g>
    <g id="ytick_3">
     <g id="line2d_10">
      <g>
       <use xlink:href="#m894bfa4dbb" x="52.872109" y="65.647487" style="stroke: #000000; stroke-width: 0.8"/>
      </g>
     </g>
     <g id="text_11">
      <!-- $\mathdefault{10^{5}}$ -->
      <g transform="translate(27.197905 70.490425) scale(0.14 -0.14)">
       <use xlink:href="#CMR17-31" transform="scale(0.996264)"/>
       <use xlink:href="#CMR17-30" transform="translate(45.690477 0) scale(0.996264)"/>
       <use xlink:href="#CMR17-35" transform="translate(91.380954 36.153639) scale(0.697382)"/>
      </g>
     </g>
    </g>
    <g id="ytick_4">
     <g id="line2d_11">
      <g>
       <use xlink:href="#m894bfa4dbb" x="52.872109" y="15.587239" style="stroke: #000000; stroke-width: 0.8"/>
      </g>
     </g>
     <g id="text_12">
      <!-- $\mathdefault{10^{6}}$ -->
      <g transform="translate(27.197905 20.430177) scale(0.14 -0.14)">
       <use xlink:href="#CMR17-31" transform="scale(0.996264)"/>
       <use xlink:href="#CMR17-30" transform="translate(45.690477 0) scale(0.996264)"/>
       <use xlink:href="#CMR17-36" transform="translate(91.380954 36.153639) scale(0.697382)"/>
      </g>
     </g>
    </g>
    <g id="ytick_5">
     <g id="line2d_12">
      <defs>
       <path id="medb341c728" d="M 0 0 
L -2 0 
" style="stroke: #000000; stroke-width: 0.6"/>
      </defs>
      <g>
       <use xlink:href="#medb341c728" x="52.872109" y="191.943422" style="stroke: #000000; stroke-width: 0.6"/>
      </g>
     </g>
    </g>
    <g id="ytick_6">
     <g id="line2d_13">
      <g>
       <use xlink:href="#medb341c728" x="52.872109" y="185.688958" style="stroke: #000000; stroke-width: 0.6"/>
      </g>
     </g>
    </g>
    <g id="ytick_7">
     <g id="line2d_14">
      <g>
       <use xlink:href="#medb341c728" x="52.872109" y="180.837618" style="stroke: #000000; stroke-width: 0.6"/>
      </g>
     </g>
    </g>
    <g id="ytick_8">
     <g id="line2d_15">
      <g>
       <use xlink:href="#medb341c728" x="52.872109" y="176.873786" style="stroke: #000000; stroke-width: 0.6"/>
      </g>
     </g>
    </g>
    <g id="ytick_9">
     <g id="line2d_16">
      <g>
       <use xlink:href="#medb341c728" x="52.872109" y="173.522413" style="stroke: #000000; stroke-width: 0.6"/>
      </g>
     </g>
    </g>
    <g id="ytick_10">
     <g id="line2d_17">
      <g>
       <use xlink:href="#medb341c728" x="52.872109" y="170.619321" style="stroke: #000000; stroke-width: 0.6"/>
      </g>
     </g>
    </g>
    <g id="ytick_11">
     <g id="line2d_18">
      <g>
       <use xlink:href="#medb341c728" x="52.872109" y="168.058613" style="stroke: #000000; stroke-width: 0.6"/>
      </g>
     </g>
    </g>
    <g id="ytick_12">
     <g id="line2d_19">
      <g>
       <use xlink:href="#medb341c728" x="52.872109" y="150.698346" style="stroke: #000000; stroke-width: 0.6"/>
      </g>
     </g>
    </g>
    <g id="ytick_13">
     <g id="line2d_20">
      <g>
       <use xlink:href="#medb341c728" x="52.872109" y="141.883174" style="stroke: #000000; stroke-width: 0.6"/>
      </g>
     </g>
    </g>
    <g id="ytick_14">
     <g id="line2d_21">
      <g>
       <use xlink:href="#medb341c728" x="52.872109" y="135.62871" style="stroke: #000000; stroke-width: 0.6"/>
      </g>
     </g>
    </g>
    <g id="ytick_15">
     <g id="line2d_22">
      <g>
       <use xlink:href="#medb341c728" x="52.872109" y="130.777371" style="stroke: #000000; stroke-width: 0.6"/>
      </g>
     </g>
    </g>
    <g id="ytick_16">
     <g id="line2d_23">
      <g>
       <use xlink:href="#medb341c728" x="52.872109" y="126.813538" style="stroke: #000000; stroke-width: 0.6"/>
      </g>
     </g>
    </g>
    <g id="ytick_17">
     <g id="line2d_24">
      <g>
       <use xlink:href="#medb341c728" x="52.872109" y="123.462165" style="stroke: #000000; stroke-width: 0.6"/>
      </g>
     </g>
    </g>
    <g id="ytick_18">
     <g id="line2d_25">
      <g>
       <use xlink:href="#medb341c728" x="52.872109" y="120.559074" style="stroke: #000000; stroke-width: 0.6"/>
      </g>
     </g>
    </g>
    <g id="ytick_19">
     <g id="line2d_26">
      <g>
       <use xlink:href="#medb341c728" x="52.872109" y="117.998366" style="stroke: #000000; stroke-width: 0.6"/>
      </g>
     </g>
    </g>
    <g id="ytick_20">
     <g id="line2d_27">
      <g>
       <use xlink:href="#medb341c728" x="52.872109" y="100.638098" style="stroke: #000000; stroke-width: 0.6"/>
      </g>
     </g>
    </g>
    <g id="ytick_21">
     <g id="line2d_28">
      <g>
       <use xlink:href="#medb341c728" x="52.872109" y="91.822926" style="stroke: #000000; stroke-width: 0.6"/>
      </g>
     </g>
    </g>
    <g id="ytick_22">
     <g id="line2d_29">
      <g>
       <use xlink:href="#medb341c728" x="52.872109" y="85.568462" style="stroke: #000000; stroke-width: 0.6"/>
      </g>
     </g>
    </g>
    <g id="ytick_23">
     <g id="line2d_30">
      <g>
       <use xlink:href="#medb341c728" x="52.872109" y="80.717123" style="stroke: #000000; stroke-width: 0.6"/>
      </g>
     </g>
    </g>
    <g id="ytick_24">
     <g id="line2d_31">
      <g>
       <use xlink:href="#medb341c728" x="52.872109" y="76.75329" style="stroke: #000000; stroke-width: 0.6"/>
      </g>
     </g>
    </g>
    <g id="ytick_25">
     <g id="line2d_32">
      <g>
       <use xlink:href="#medb341c728" x="52.872109" y="73.401917" style="stroke: #000000; stroke-width: 0.6"/>
      </g>
     </g>
    </g>
    <g id="ytick_26">
     <g id="line2d_33">
      <g>
       <use xlink:href="#medb341c728" x="52.872109" y="70.498826" style="stroke: #000000; stroke-width: 0.6"/>
      </g>
     </g>
    </g>
    <g id="ytick_27">
     <g id="line2d_34">
      <g>
       <use xlink:href="#medb341c728" x="52.872109" y="67.938118" style="stroke: #000000; stroke-width: 0.6"/>
      </g>
     </g>
    </g>
    <g id="ytick_28">
     <g id="line2d_35">
      <g>
       <use xlink:href="#medb341c728" x="52.872109" y="50.57785" style="stroke: #000000; stroke-width: 0.6"/>
      </g>
     </g>
    </g>
    <g id="ytick_29">
     <g id="line2d_36">
      <g>
       <use xlink:href="#medb341c728" x="52.872109" y="41.762678" style="stroke: #000000; stroke-width: 0.6"/>
      </g>
     </g>
    </g>
    <g id="ytick_30">
     <g id="line2d_37">
      <g>
       <use xlink:href="#medb341c728" x="52.872109" y="35.508214" style="stroke: #000000; stroke-width: 0.6"/>
      </g>
     </g>
    </g>
    <g id="ytick_31">
     <g id="line2d_38">
      <g>
       <use xlink:href="#medb341c728" x="52.872109" y="30.656875" style="stroke: #000000; stroke-width: 0.6"/>
      </g>
     </g>
    </g>
    <g id="ytick_32">
     <g id="line2d_39">
      <g>
       <use xlink:href="#medb341c728" x="52.872109" y="26.693042" style="stroke: #000000; stroke-width: 0.6"/>
      </g>
     </g>
    </g>
    <g id="ytick_33">
     <g id="line2d_40">
      <g>
       <use xlink:href="#medb341c728" x="52.872109" y="23.341669" style="stroke: #000000; stroke-width: 0.6"/>
      </g>
     </g>
    </g>
    <g id="ytick_34">
     <g id="line2d_41">
      <g>
       <use xlink:href="#medb341c728" x="52.872109" y="20.438578" style="stroke: #000000; stroke-width: 0.6"/>
      </g>
     </g>
    </g>
    <g id="ytick_35">
     <g id="line2d_42">
      <g>
       <use xlink:href="#medb341c728" x="52.872109" y="17.87787" style="stroke: #000000; stroke-width: 0.6"/>
      </g>
     </g>
    </g>
    <g id="text_13">
     <!-- $\mathcal{L}$ -->
     <g transform="translate(20.485876 108.351455) rotate(-90) scale(0.14 -0.14)">
      <defs>
       <path id="CMSY10-4c" d="M 1152 610 
C 1498 1151 1606 1562 1690 1903 
C 1914 2790 2157 3562 2554 4005 
C 2630 4090 2682 4147 2886 4147 
C 3328 4147 3341 3704 3341 3613 
C 3341 3498 3309 3407 3309 3375 
C 3309 3330 3347 3330 3354 3330 
C 3456 3330 3629 3401 3789 3517 
C 3904 3607 3962 3671 3962 3934 
C 3962 4281 3782 4544 3424 4544 
C 3219 4544 2656 4493 2029 3856 
C 1517 3329 1216 2172 1094 1690 
C 979 1248 928 1048 736 662 
C 691 586 525 303 435 219 
C 262 59 198 -57 198 -89 
C 198 -102 211 -128 256 -128 
C 282 -128 416 -102 582 5 
C 691 68 704 80 851 231 
C 1171 231 1395 173 1798 58 
C 2125 -32 2451 -128 2778 -128 
C 3296 -128 3821 264 4026 546 
C 4154 719 4192 880 4192 899 
C 4192 944 4154 944 4147 944 
C 4045 944 3891 874 3782 796 
C 3610 687 3597 649 3558 539 
C 3526 436 3488 385 3462 346 
C 3411 269 3405 269 3309 269 
C 3002 269 2682 366 2259 481 
C 2080 532 1728 636 1408 636 
C 1325 636 1235 629 1152 610 
z
" transform="scale(0.015625)"/>
      </defs>
      <use xlink:href="#CMSY10-4c" transform="scale(0.996264)"/>
     </g>
    </g>
   </g>
   <g id="line2d_43">
    <path d="M 67.485152 21.727305 
L 67.801768 29.598737 
L 68.064802 43.634433 
L 68.624969 76.045671 
L 68.805196 76.436605 
L 69.969369 77.351632 
L 70.514922 78.1522 
L 70.98254 79.250145 
L 71.41606 80.874013 
L 71.84958 83.437439 
L 72.346424 87.871175 
L 73.403434 97.735293 
L 73.773631 99.071375 
L 74.134086 99.618167 
L 74.621188 99.931725 
L 75.88278 100.386086 
L 78.405966 101.073246 
L 81.377284 101.656927 
L 88.713032 103.012486 
L 91.138797 103.741436 
L 93.1213 104.564649 
L 94.738476 105.472425 
L 95.892907 106.361778 
L 96.662527 107.234294 
L 97.281146 108.280961 
L 97.87541 109.748585 
L 98.503771 111.936917 
L 99.224681 115.317191 
L 100.130689 120.721102 
L 103.462463 141.745536 
L 104.188244 144.3706 
L 104.884799 146.106205 
L 105.615451 147.358244 
L 105.810292 147.633735 
L 106.877044 148.874376 
L 108.499092 150.396952 
L 114.383277 155.730383 
L 116.536265 158.082313 
L 118.572349 160.690466 
L 121.826187 165.365995 
L 124.778022 169.462007 
L 127.116108 172.335667 
L 127.262239 172.509239 
L 128.017246 173.364539 
L 130.365075 175.861281 
L 130.374817 175.848627 
L 130.384559 175.83526 
L 130.43814 175.950224 
L 130.62811 176.157586 
L 132.883389 178.663062 
L 134.354436 180.200534 
L 135.065604 180.662998 
L 135.080217 180.633574 
L 135.089959 180.621323 
L 135.148411 180.727817 
L 135.158153 180.724223 
L 135.401704 180.855032 
L 136.619457 181.318575 
L 140.277589 182.028627 
L 140.287331 182.018515 
L 140.311686 182.076816 
L 140.375009 182.07962 
L 140.589334 182.116519 
L 143.736009 182.41089 
L 143.745751 182.403392 
L 143.765235 182.466133 
L 143.828558 182.466618 
L 144.008786 182.489131 
L 145.236282 182.524221 
L 145.246024 182.514869 
L 145.265508 182.587619 
L 145.32396 182.582451 
L 145.484703 182.603646 
L 156.951071 182.991535 
L 156.965684 182.947189 
L 156.985168 183.05064 
L 157.048491 183.050545 
L 157.18488 183.055014 
L 158.159082 183.018999 
L 158.168824 183.003258 
L 158.19318 183.068932 
L 158.256503 183.072695 
L 158.441601 183.080457 
L 167.379912 183.226589 
L 169.484191 183.188832 
L 169.498804 183.116266 
L 169.518288 183.255434 
L 169.586482 183.239844 
L 169.713128 183.260782 
L 170.419425 183.271521 
L 171.286466 183.284824 
L 171.705373 183.293218 
L 174.968953 183.347824 
L 175.490151 183.334918 
L 175.514506 183.268392 
L 175.597314 183.358575 
L 176.761486 183.357198 
L 176.888132 183.383137 
L 177.233974 183.371252 
L 177.258329 183.302389 
L 177.341137 183.392988 
L 177.574945 183.357441 
L 177.589558 183.326609 
L 177.613913 183.399723 
L 177.677237 183.397926 
L 177.896432 183.405474 
L 180.697265 183.377296 
L 180.702137 183.368579 
L 180.721621 183.464077 
L 180.775202 183.452775 
L 180.906719 183.470956 
L 183.415291 183.530377 
L 208.924793 184.014853 
L 208.939406 183.957693 
L 208.95889 184.081069 
L 209.027085 184.069212 
L 213.303835 184.116676 
L 213.318448 184.096511 
L 213.342803 184.154986 
L 213.410997 184.150316 
L 213.620451 184.143157 
L 213.649677 184.091275 
L 213.742226 184.158247 
L 214.268296 184.165373 
L 214.463136 184.173188 
L 214.935625 184.182636 
L 216.377445 184.135021 
L 216.387187 184.117932 
L 216.406671 184.189659 
L 216.469994 184.20259 
L 216.92787 184.176813 
L 216.942483 184.151067 
L 216.966838 184.213913 
L 217.030161 184.209679 
L 217.220131 184.218084 
L 218.535304 184.158474 
L 218.545046 184.117668 
L 218.564531 184.233109 
L 218.632725 184.230918 
L 218.764242 184.24095 
L 222.924088 184.250651 
L 222.938701 184.233642 
L 222.958185 184.296203 
L 223.021509 184.291133 
L 223.187123 184.293226 
L 223.391706 184.304517 
L 224.911462 184.306836 
L 225.077077 184.326246 
L 227.678198 184.359033 
L 231.789334 184.348649 
L 231.799076 184.324663 
L 231.823431 184.400575 
L 231.886755 184.406854 
L 232.427437 184.409955 
L 233.367543 184.41823 
L 233.54777 184.423916 
L 235.437724 184.422262 
L 235.559499 184.438641 
L 235.890728 184.446829 
L 236.884415 184.456615 
L 249.286018 184.555231 
L 249.612376 184.558864 
L 254.697714 184.59416 
L 256.461022 184.567506 
L 256.480506 184.520185 
L 256.504861 184.597602 
L 256.563313 184.596367 
L 256.704572 184.607959 
L 257.907713 184.565581 
L 257.927197 184.497348 
L 257.946681 184.613664 
L 258.010004 184.608048 
L 258.146393 184.617898 
L 259.680762 184.628004 
L 268.516782 184.682378 
L 268.774946 184.682656 
L 269.184111 184.668816 
L 269.339983 184.689548 
L 272.78379 184.713148 
L 273.748251 184.68319 
L 273.767735 184.640034 
L 273.79209 184.716071 
L 273.850543 184.713349 
L 274.011286 184.720988 
L 279.710373 184.757042 
L 280.036731 184.740547 
L 280.148764 184.755079 
L 280.153635 184.758423 
L 280.353347 184.735347 
L 280.553058 184.763836 
L 282.632981 184.738314 
L 282.652465 184.721085 
L 282.671949 184.775448 
L 282.740144 184.772932 
L 282.934984 184.776161 
L 283.363633 184.782913 
L 289.004268 184.820297 
L 294.430578 184.757717 
L 294.435449 184.746296 
L 294.454933 184.853688 
L 294.513385 184.846227 
L 294.644903 184.858775 
L 295.039455 184.784638 
L 295.054068 184.718778 
L 295.073552 184.861138 
L 295.136875 184.861833 
L 295.278134 184.862841 
L 295.999045 184.81841 
L 296.013658 184.79132 
L 296.07211 184.868064 
L 296.096465 184.862125 
L 296.276692 184.869917 
L 310.003211 184.893197 
L 310.017824 184.848139 
L 310.066534 184.967481 
L 310.100631 184.960025 
L 310.232148 184.968659 
L 312.394879 184.964977 
L 312.536138 184.983523 
L 313.003755 184.957887 
L 313.115789 184.980571 
L 313.325242 184.990962 
L 323.422855 185.064539 
L 323.914827 185.066602 
L 324.197346 185.072811 
L 330.393276 185.12017 
L 332.692395 185.093459 
L 332.731363 185.135083 
L 332.794686 185.130857 
L 333.086947 185.13661 
L 333.500983 185.131531 
L 333.62763 185.145004 
L 335.337356 185.158547 
L 336.296946 185.143411 
L 336.321301 185.089997 
L 336.408979 185.159381 
L 336.569722 185.16911 
L 336.910693 185.063161 
L 336.920436 185.040475 
L 336.93992 185.171674 
L 336.998372 185.163784 
L 337.139631 185.172741 
L 341.786579 185.209368 
L 342.580554 185.178628 
L 342.687716 185.210674 
L 342.970235 185.219736 
L 354.08589 185.307631 
L 354.577862 185.313667 
L 358.825387 185.346481 
L 359.190713 185.335697 
L 359.32223 185.351205 
L 359.619362 185.345402 
L 359.746008 185.351708 
L 359.746008 185.351708 
" clip-path="url(#p09556cfda9)" style="fill: none; stroke: #0000ff; stroke-width: 2; stroke-linecap: square"/>
   </g>
   <g id="LineCollection_1">
    <path d="M 164.905437 185.355537 
L 164.905437 21.727305 
" clip-path="url(#p09556cfda9)" style="fill: none; stroke-dasharray: 1.5,2.475; stroke-dashoffset: 0; stroke: #000000; stroke-width: 1.5"/>
   </g>
   <g id="patch_3">
    <path d="M 52.872109 193.536948 
L 52.872109 13.545893 
" style="fill: none; stroke: #000000; stroke-width: 0.8; stroke-linejoin: miter; stroke-linecap: square"/>
   </g>
   <g id="patch_4">
    <path d="M 374.359051 193.536948 
L 374.359051 13.545893 
" style="fill: none; stroke: #000000; stroke-width: 0.8; stroke-linejoin: miter; stroke-linecap: square"/>
   </g>
   <g id="patch_5">
    <path d="M 52.872109 193.536948 
L 374.359051 193.536948 
" style="fill: none; stroke: #000000; stroke-width: 0.8; stroke-linejoin: miter; stroke-linecap: square"/>
   </g>
   <g id="patch_6">
    <path d="M 52.872109 13.545893 
L 374.359051 13.545893 
" style="fill: none; stroke: #000000; stroke-width: 0.8; stroke-linejoin: miter; stroke-linecap: square"/>
   </g>
  </g>
 </g>
 <defs>
  <clipPath id="p09556cfda9">
   <rect x="52.872109" y="13.545893" width="321.486943" height="179.991055"/>
  </clipPath>
 </defs>
</svg>
