<?xml version="1.0" encoding="utf-8" standalone="no"?>
<!DOCTYPE svg PUBLIC "-//W3C//DTD SVG 1.1//EN"
  "http://www.w3.org/Graphics/SVG/1.1/DTD/svg11.dtd">
<svg xmlns:xlink="http://www.w3.org/1999/xlink" width="388.542964pt" height="240.132758pt" viewBox="0 0 388.542964 240.132758" xmlns="http://www.w3.org/2000/svg" version="1.1">
 <metadata>
  <rdf:RDF xmlns:dc="http://purl.org/dc/elements/1.1/" xmlns:cc="http://creativecommons.org/ns#" xmlns:rdf="http://www.w3.org/1999/02/22-rdf-syntax-ns#">
   <cc:Work>
    <dc:type rdf:resource="http://purl.org/dc/dcmitype/StillImage"/>
    <dc:date>2024-12-04T12:05:56.777985</dc:date>
    <dc:format>image/svg+xml</dc:format>
    <dc:creator>
     <cc:Agent>
      <dc:title>Matplotlib v3.7.5, https://matplotlib.org/</dc:title>
     </cc:Agent>
    </dc:creator>
   </cc:Work>
  </rdf:RDF>
 </metadata>
 <defs>
  <style type="text/css">*{stroke-linejoin: round; stroke-linecap: butt}</style>
 </defs>
 <g id="figure_1">
  <g id="patch_1">
   <path d="M 0 240.132758 
L 388.542964 240.132758 
L 388.542964 0 
L 0 0 
z
" style="fill: #ffffff"/>
  </g>
  <g id="axes_1">
   <g id="patch_2">
    <path d="M 51.648487 193.536948 
L 377.742964 193.536948 
L 377.742964 10.8 
L 51.648487 10.8 
z
" style="fill: #ffffff"/>
   </g>
   <g id="matplotlib.axis_1">
    <g id="xtick_1">
     <g id="line2d_1">
      <defs>
       <path id="md0f289dd4c" d="M 0 0 
L 0 3.5 
" style="stroke: #000000; stroke-width: 0.8"/>
      </defs>
      <g>
       <use xlink:href="#md0f289dd4c" x="66.470963" y="193.536948" style="stroke: #000000; stroke-width: 0.8"/>
      </g>
     </g>
     <g id="text_1">
      <!-- $\mathdefault{0.0}$ -->
      <g transform="translate(57.745672 210.222825) scale(0.14 -0.14)">
       <defs>
        <path id="CMR17-30" d="M 2688 2025 
C 2688 2416 2682 3080 2413 3591 
C 2176 4039 1798 4198 1466 4198 
C 1158 4198 768 4058 525 3597 
C 269 3118 243 2524 243 2025 
C 243 1661 250 1106 448 619 
C 723 -39 1216 -128 1466 -128 
C 1760 -128 2208 -7 2470 600 
C 2662 1042 2688 1559 2688 2025 
z
M 1466 -26 
C 1056 -26 813 325 723 812 
C 653 1188 653 1738 653 2096 
C 653 2588 653 2997 736 3387 
C 858 3929 1216 4096 1466 4096 
C 1728 4096 2067 3923 2189 3400 
C 2272 3036 2278 2607 2278 2096 
C 2278 1680 2278 1169 2202 792 
C 2067 95 1690 -26 1466 -26 
z
" transform="scale(0.015625)"/>
        <path id="CMMI12-3a" d="M 1178 307 
C 1178 492 1024 619 870 619 
C 685 619 557 466 557 313 
C 557 128 710 0 864 0 
C 1050 0 1178 153 1178 307 
z
" transform="scale(0.015625)"/>
       </defs>
       <use xlink:href="#CMR17-30" transform="scale(0.996264)"/>
       <use xlink:href="#CMMI12-3a" transform="translate(45.690477 0) scale(0.996264)"/>
       <use xlink:href="#CMR17-30" transform="translate(72.787654 0) scale(0.996264)"/>
      </g>
     </g>
    </g>
    <g id="xtick_2">
     <g id="line2d_2">
      <g>
       <use xlink:href="#md0f289dd4c" x="125.760868" y="193.536948" style="stroke: #000000; stroke-width: 0.8"/>
      </g>
     </g>
     <g id="text_2">
      <!-- $\mathdefault{0.2}$ -->
      <g transform="translate(117.035577 210.222825) scale(0.14 -0.14)">
       <defs>
        <path id="CMR17-32" d="M 2669 989 
L 2554 989 
C 2490 536 2438 459 2413 420 
C 2381 369 1920 369 1830 369 
L 602 369 
C 832 619 1280 1072 1824 1597 
C 2214 1967 2669 2402 2669 3035 
C 2669 3790 2067 4224 1395 4224 
C 691 4224 262 3604 262 3030 
C 262 2780 448 2748 525 2748 
C 589 2748 781 2787 781 3010 
C 781 3207 614 3264 525 3264 
C 486 3264 448 3258 422 3245 
C 544 3790 915 4058 1306 4058 
C 1862 4058 2227 3617 2227 3035 
C 2227 2479 1901 2000 1536 1584 
L 262 146 
L 262 0 
L 2515 0 
L 2669 989 
z
" transform="scale(0.015625)"/>
       </defs>
       <use xlink:href="#CMR17-30" transform="scale(0.996264)"/>
       <use xlink:href="#CMMI12-3a" transform="translate(45.690477 0) scale(0.996264)"/>
       <use xlink:href="#CMR17-32" transform="translate(72.787654 0) scale(0.996264)"/>
      </g>
     </g>
    </g>
    <g id="xtick_3">
     <g id="line2d_3">
      <g>
       <use xlink:href="#md0f289dd4c" x="185.050773" y="193.536948" style="stroke: #000000; stroke-width: 0.8"/>
      </g>
     </g>
     <g id="text_3">
      <!-- $\mathdefault{0.4}$ -->
      <g transform="translate(176.325482 210.222825) scale(0.14 -0.14)">
       <defs>
        <path id="CMR17-34" d="M 2150 4122 
C 2150 4256 2144 4256 2029 4256 
L 128 1254 
L 128 1088 
L 1779 1088 
L 1779 457 
C 1779 224 1766 160 1318 160 
L 1197 160 
L 1197 0 
C 1402 0 1747 0 1965 0 
C 2182 0 2528 0 2733 0 
L 2733 160 
L 2611 160 
C 2163 160 2150 224 2150 457 
L 2150 1088 
L 2803 1088 
L 2803 1254 
L 2150 1254 
L 2150 4122 
z
M 1798 3703 
L 1798 1254 
L 256 1254 
L 1798 3703 
z
" transform="scale(0.015625)"/>
       </defs>
       <use xlink:href="#CMR17-30" transform="scale(0.996264)"/>
       <use xlink:href="#CMMI12-3a" transform="translate(45.690477 0) scale(0.996264)"/>
       <use xlink:href="#CMR17-34" transform="translate(72.787654 0) scale(0.996264)"/>
      </g>
     </g>
    </g>
    <g id="xtick_4">
     <g id="line2d_4">
      <g>
       <use xlink:href="#md0f289dd4c" x="244.340678" y="193.536948" style="stroke: #000000; stroke-width: 0.8"/>
      </g>
     </g>
     <g id="text_4">
      <!-- $\mathdefault{0.6}$ -->
      <g transform="translate(235.615387 210.222825) scale(0.14 -0.14)">
       <defs>
        <path id="CMR17-36" d="M 678 2176 
C 678 3690 1395 4032 1811 4032 
C 1946 4032 2272 4009 2400 3776 
C 2298 3776 2106 3776 2106 3553 
C 2106 3381 2246 3323 2336 3323 
C 2394 3323 2566 3348 2566 3560 
C 2566 3954 2246 4179 1805 4179 
C 1043 4179 243 3390 243 1984 
C 243 253 966 -128 1478 -128 
C 2099 -128 2688 427 2688 1283 
C 2688 2081 2170 2662 1517 2662 
C 1126 2662 838 2407 678 1960 
L 678 2176 
z
M 1478 25 
C 691 25 691 1200 691 1436 
C 691 1896 909 2560 1504 2560 
C 1613 2560 1926 2560 2138 2120 
C 2253 1870 2253 1609 2253 1289 
C 2253 944 2253 690 2118 434 
C 1978 171 1773 25 1478 25 
z
" transform="scale(0.015625)"/>
       </defs>
       <use xlink:href="#CMR17-30" transform="scale(0.996264)"/>
       <use xlink:href="#CMMI12-3a" transform="translate(45.690477 0) scale(0.996264)"/>
       <use xlink:href="#CMR17-36" transform="translate(72.787654 0) scale(0.996264)"/>
      </g>
     </g>
    </g>
    <g id="xtick_5">
     <g id="line2d_5">
      <g>
       <use xlink:href="#md0f289dd4c" x="303.630583" y="193.536948" style="stroke: #000000; stroke-width: 0.8"/>
      </g>
     </g>
     <g id="text_5">
      <!-- $\mathdefault{0.8}$ -->
      <g transform="translate(294.905292 210.222825) scale(0.14 -0.14)">
       <defs>
        <path id="CMR17-38" d="M 1741 2264 
C 2144 2467 2554 2773 2554 3263 
C 2554 3841 1990 4179 1472 4179 
C 890 4179 378 3759 378 3180 
C 378 3021 416 2747 666 2505 
C 730 2442 998 2251 1171 2130 
C 883 1983 211 1634 211 934 
C 211 279 838 -128 1459 -128 
C 2144 -128 2720 362 2720 1010 
C 2720 1590 2330 1857 2074 2029 
L 1741 2264 
z
M 902 2822 
C 851 2854 595 3051 595 3351 
C 595 3739 998 4032 1459 4032 
C 1965 4032 2336 3676 2336 3262 
C 2336 2669 1670 2331 1638 2331 
C 1632 2331 1626 2331 1574 2370 
L 902 2822 
z
M 2080 1519 
C 2176 1449 2483 1240 2483 851 
C 2483 381 2010 25 1472 25 
C 890 25 448 438 448 940 
C 448 1443 838 1862 1280 2060 
L 2080 1519 
z
" transform="scale(0.015625)"/>
       </defs>
       <use xlink:href="#CMR17-30" transform="scale(0.996264)"/>
       <use xlink:href="#CMMI12-3a" transform="translate(45.690477 0) scale(0.996264)"/>
       <use xlink:href="#CMR17-38" transform="translate(72.787654 0) scale(0.996264)"/>
      </g>
     </g>
    </g>
    <g id="xtick_6">
     <g id="line2d_6">
      <g>
       <use xlink:href="#md0f289dd4c" x="362.920488" y="193.536948" style="stroke: #000000; stroke-width: 0.8"/>
      </g>
     </g>
     <g id="text_6">
      <!-- $\mathdefault{1.0}$ -->
      <g transform="translate(354.195197 210.222825) scale(0.14 -0.14)">
       <defs>
        <path id="CMR17-31" d="M 1702 4058 
C 1702 4192 1696 4192 1606 4192 
C 1357 3916 979 3827 621 3827 
C 602 3827 570 3827 563 3808 
C 557 3795 557 3782 557 3648 
C 755 3648 1088 3686 1344 3839 
L 1344 461 
C 1344 236 1331 160 781 160 
L 589 160 
L 589 0 
C 896 0 1216 0 1523 0 
C 1830 0 2150 0 2458 0 
L 2458 160 
L 2266 160 
C 1715 160 1702 230 1702 458 
L 1702 4058 
z
" transform="scale(0.015625)"/>
       </defs>
       <use xlink:href="#CMR17-31" transform="scale(0.996264)"/>
       <use xlink:href="#CMMI12-3a" transform="translate(45.690477 0) scale(0.996264)"/>
       <use xlink:href="#CMR17-30" transform="translate(72.787654 0) scale(0.996264)"/>
      </g>
     </g>
    </g>
    <g id="text_7">
     <!-- t -->
     <g transform="translate(212.040202 226.620729) scale(0.14 -0.14)">
      <defs>
       <path id="CMR17-74" d="M 966 2560 
L 1862 2560 
L 1862 2725 
L 966 2725 
L 966 3904 
L 851 3904 
C 838 3245 614 2668 70 2668 
L 70 2560 
L 627 2560 
L 627 771 
C 627 650 627 -64 1370 -64 
C 1747 -64 1965 306 1965 777 
L 1965 1140 
L 1850 1140 
L 1850 783 
C 1850 344 1677 51 1408 51 
C 1222 51 966 178 966 758 
L 966 2560 
z
" transform="scale(0.015625)"/>
      </defs>
      <use xlink:href="#CMR17-74" transform="scale(0.996264)"/>
     </g>
    </g>
   </g>
   <g id="matplotlib.axis_2">
    <g id="ytick_1">
     <g id="line2d_7">
      <defs>
       <path id="mee50688928" d="M 0 0 
L -3.5 0 
" style="stroke: #000000; stroke-width: 0.8"/>
      </defs>
      <g>
       <use xlink:href="#mee50688928" x="51.648487" y="166.27737" style="stroke: #000000; stroke-width: 0.8"/>
      </g>
     </g>
     <g id="text_8">
      <!-- $\mathdefault{0.2}$ -->
      <g transform="translate(27.197905 171.120308) scale(0.14 -0.14)">
       <use xlink:href="#CMR17-30" transform="scale(0.996264)"/>
       <use xlink:href="#CMMI12-3a" transform="translate(45.690477 0) scale(0.996264)"/>
       <use xlink:href="#CMR17-32" transform="translate(72.787654 0) scale(0.996264)"/>
      </g>
     </g>
    </g>
    <g id="ytick_2">
     <g id="line2d_8">
      <g>
       <use xlink:href="#mee50688928" x="51.648487" y="133.44159" style="stroke: #000000; stroke-width: 0.8"/>
      </g>
     </g>
     <g id="text_9">
      <!-- $\mathdefault{0.4}$ -->
      <g transform="translate(27.197905 138.284528) scale(0.14 -0.14)">
       <use xlink:href="#CMR17-30" transform="scale(0.996264)"/>
       <use xlink:href="#CMMI12-3a" transform="translate(45.690477 0) scale(0.996264)"/>
       <use xlink:href="#CMR17-34" transform="translate(72.787654 0) scale(0.996264)"/>
      </g>
     </g>
    </g>
    <g id="ytick_3">
     <g id="line2d_9">
      <g>
       <use xlink:href="#mee50688928" x="51.648487" y="100.60581" style="stroke: #000000; stroke-width: 0.8"/>
      </g>
     </g>
     <g id="text_10">
      <!-- $\mathdefault{0.6}$ -->
      <g transform="translate(27.197905 105.448748) scale(0.14 -0.14)">
       <use xlink:href="#CMR17-30" transform="scale(0.996264)"/>
       <use xlink:href="#CMMI12-3a" transform="translate(45.690477 0) scale(0.996264)"/>
       <use xlink:href="#CMR17-36" transform="translate(72.787654 0) scale(0.996264)"/>
      </g>
     </g>
    </g>
    <g id="ytick_4">
     <g id="line2d_10">
      <g>
       <use xlink:href="#mee50688928" x="51.648487" y="67.770029" style="stroke: #000000; stroke-width: 0.8"/>
      </g>
     </g>
     <g id="text_11">
      <!-- $\mathdefault{0.8}$ -->
      <g transform="translate(27.197905 72.612967) scale(0.14 -0.14)">
       <use xlink:href="#CMR17-30" transform="scale(0.996264)"/>
       <use xlink:href="#CMMI12-3a" transform="translate(45.690477 0) scale(0.996264)"/>
       <use xlink:href="#CMR17-38" transform="translate(72.787654 0) scale(0.996264)"/>
      </g>
     </g>
    </g>
    <g id="ytick_5">
     <g id="line2d_11">
      <g>
       <use xlink:href="#mee50688928" x="51.648487" y="34.934249" style="stroke: #000000; stroke-width: 0.8"/>
      </g>
     </g>
     <g id="text_12">
      <!-- $\mathdefault{1.0}$ -->
      <g transform="translate(27.197905 39.777187) scale(0.14 -0.14)">
       <use xlink:href="#CMR17-31" transform="scale(0.996264)"/>
       <use xlink:href="#CMMI12-3a" transform="translate(45.690477 0) scale(0.996264)"/>
       <use xlink:href="#CMR17-30" transform="translate(72.787654 0) scale(0.996264)"/>
      </g>
     </g>
    </g>
    <g id="text_13">
     <!-- P -->
     <g transform="translate(20.485876 106.814435) rotate(-90) scale(0.14 -0.14)">
      <defs>
       <path id="CMR17-50" d="M 1267 2042 
L 2291 2042 
C 3117 2042 3718 2578 3718 3184 
C 3718 3791 3130 4352 2291 4352 
L 333 4352 
L 333 4186 
C 774 4186 845 4186 845 3899 
L 845 446 
C 845 160 774 160 333 160 
L 333 0 
C 518 0 858 0 1056 0 
C 1254 0 1594 0 1779 0 
L 1779 160 
C 1338 160 1267 160 1267 446 
L 1267 2042 
z
M 1254 2176 
L 1254 3938 
C 1254 4155 1267 4186 1523 4186 
L 2170 4186 
C 2995 4186 3232 3714 3232 3184 
C 3232 2604 2950 2176 2170 2176 
L 1254 2176 
z
" transform="scale(0.015625)"/>
      </defs>
      <use xlink:href="#CMR17-50" transform="scale(0.996264)"/>
     </g>
    </g>
   </g>
   <g id="line2d_12">
    <path d="M 66.470963 183.486817 
L 67.663933 184.393123 
L 68.856903 185.020465 
L 69.453345 185.187378 
L 70.049786 185.230723 
L 70.646139 185.129598 
L 71.24258 184.861736 
L 71.839109 184.403696 
L 72.43555 183.731896 
L 73.032079 182.822676 
L 73.628608 181.652763 
L 74.225137 180.201097 
L 75.417932 176.380899 
L 76.610814 171.259509 
L 77.803784 164.825973 
L 78.996754 157.188337 
L 80.786165 144.018084 
L 84.961517 111.798891 
L 86.751016 99.946701 
L 88.54034 89.814918 
L 90.329927 81.091197 
L 92.715691 70.782202 
L 96.295041 56.413323 
L 99.277335 45.215511 
L 101.066834 39.189488 
L 102.856245 33.925233 
L 104.645657 29.53813 
L 105.838627 27.116197 
L 107.031597 25.084033 
L 108.224391 23.417742 
L 109.417274 22.085069 
L 110.610244 21.050199 
L 111.803302 20.276159 
L 112.99636 19.726822 
L 114.189242 19.368563 
L 115.978478 19.123291 
L 117.767801 19.151886 
L 119.557036 19.384103 
L 121.943153 19.918096 
L 124.925446 20.819194 
L 129.697239 22.536294 
L 143.416352 27.636764 
L 149.381115 29.568955 
L 155.346053 31.278108 
L 162.504138 33.083945 
L 172.644604 35.369258 
L 191.731335 39.633901 
L 203.064508 42.434732 
L 216.783181 46.076233 
L 240.046671 52.276424 
L 250.783139 54.87506 
L 259.730107 56.822938 
L 268.677339 58.541153 
L 277.028306 59.924682 
L 285.378746 61.094274 
L 294.325714 62.11839 
L 303.272771 62.922638 
L 312.816532 63.564863 
L 323.553264 64.062667 
L 336.07923 64.409242 
L 352.184108 64.610175 
L 362.920488 64.664036 
L 362.920488 64.664036 
" clip-path="url(#pa23bbd8f86)" style="fill: none; stroke: #1f77b4; stroke-width: 3; stroke-linecap: square"/>
   </g>
   <g id="line2d_13">
    <path d="M 66.470963 183.931293 
L 67.745696 183.467377 
L 68.753624 182.869729 
L 69.583683 182.124516 
L 70.324807 181.159321 
L 71.006641 179.905518 
L 71.688475 178.175587 
L 72.429599 175.654908 
L 73.348592 171.668816 
L 74.564035 165.328881 
L 75.749833 157.958912 
L 77.350661 146.348583 
L 83.81326 98.221724 
L 85.414088 89.338788 
L 86.955625 82.009293 
L 88.022844 78.189201 
L 89.742251 72.040307 
L 90.33515 69.084146 
L 91.016984 65.397767 
L 91.343078 64.894052 
L 91.817397 64.592991 
L 92.588166 64.404682 
L 94.129704 64.300551 
L 99.347215 64.273288 
L 362.890843 64.273288 
L 362.890843 64.273288 
" clip-path="url(#pa23bbd8f86)" style="fill: none; stroke-dasharray: 19.2,4.8,3,4.8; stroke-dashoffset: 0; stroke: #2ca02c; stroke-width: 3"/>
   </g>
   <g id="line2d_14">
    <path d="M 66.470963 183.931293 
L 69.583683 173.400048 
L 72.696403 163.647805 
L 75.809123 154.616942 
L 78.951488 146.1775 
L 82.093853 138.368046 
L 85.265863 131.076014 
L 88.437873 124.333254 
L 91.639528 118.042396 
L 94.870828 112.17795 
L 98.131772 106.715472 
L 101.422362 101.631552 
L 104.772242 96.86331 
L 108.151766 92.436307 
L 111.590581 88.295227 
L 115.088685 84.428418 
L 118.646079 80.824033 
L 122.292409 77.443834 
L 126.027673 74.28271 
L 129.881516 71.312834 
L 133.85394 68.533425 
L 137.944943 65.94218 
L 142.184172 63.519368 
L 146.60127 61.250655 
L 151.225882 59.126114 
L 156.087654 57.139326 
L 161.186586 55.296595 
L 166.611612 53.574717 
L 172.362733 51.984425 
L 178.528883 50.512441 
L 185.169353 49.158819 
L 192.373076 47.920817 
L 200.228989 46.799488 
L 208.91496 45.78832 
L 218.608859 44.888468 
L 229.577492 44.098988 
L 242.206241 43.419044 
L 257.088007 42.847615 
L 275.171428 42.384147 
L 298.205556 42.026947 
L 329.807076 41.774329 
L 362.890843 41.655031 
L 362.890843 41.655031 
" clip-path="url(#pa23bbd8f86)" style="fill: none; stroke-dasharray: 3,4.95; stroke-dashoffset: 0; stroke: #d62728; stroke-width: 3"/>
   </g>
   <g id="line2d_15">
    <path d="M 66.470963 183.931293 
L 68.220015 181.141924 
L 69.820843 178.171811 
L 71.332735 174.893192 
L 72.726048 171.338049 
L 74.030426 167.391871 
L 75.245869 162.986977 
L 76.372377 158.044803 
L 77.409951 152.48991 
L 78.417879 145.869831 
L 79.514742 137.068955 
L 82.508882 111.840881 
L 83.605746 105.176497 
L 84.732254 99.670603 
L 85.947697 94.831181 
L 87.252075 90.549557 
L 88.645388 86.73218 
L 90.127635 83.304814 
L 91.728463 80.155671 
L 93.44787 77.26225 
L 95.285857 74.603835 
L 97.242424 72.161728 
L 99.347215 69.889349 
L 101.600232 67.783468 
L 104.031118 65.81671 
L 106.639874 63.991874 
L 109.485789 62.275458 
L 112.568864 60.678932 
L 115.918744 59.196463 
L 119.594718 57.815247 
L 123.656076 56.531 
L 128.132464 55.352054 
L 133.142461 54.267186 
L 138.745357 53.285538 
L 145.119022 52.399927 
L 152.41168 51.616622 
L 160.890137 50.935158 
L 170.969421 50.354979 
L 183.272076 49.877928 
L 198.924611 49.504198 
L 220.150397 49.233916 
L 252.581975 49.064829 
L 317.80087 48.990559 
L 362.890843 48.983501 
L 362.890843 48.983501 
" clip-path="url(#pa23bbd8f86)" style="fill: none; stroke-dasharray: 11.1,4.8; stroke-dashoffset: 0; stroke: #d62728; stroke-width: 3"/>
   </g>
   <g id="line2d_16">
    <path d="M 66.470963 183.931293 
L 67.538181 183.205905 
L 68.48682 182.289397 
L 69.376168 181.114921 
L 70.235872 179.601773 
L 71.095576 177.620458 
L 71.955279 175.068855 
L 72.874273 171.60189 
L 73.852556 166.977936 
L 74.919775 160.809069 
L 76.224152 151.86288 
L 78.358589 135.359356 
L 80.70054 117.830688 
L 82.271723 107.745573 
L 83.69468 100.012628 
L 85.058348 93.781792 
L 86.422016 88.562413 
L 87.785684 84.197006 
L 89.178997 80.466109 
L 90.601954 77.278048 
L 92.084202 74.499753 
L 93.596095 72.127232 
L 95.196922 70.024579 
L 96.886684 68.172615 
L 98.665381 66.550074 
L 100.592303 65.09438 
L 102.66745 63.805761 
L 104.950111 62.651601 
L 107.499577 61.616742 
L 110.345493 60.705103 
L 113.606438 59.898882 
L 117.400991 59.196802 
L 121.877379 58.601307 
L 127.33205 58.107754 
L 134.239324 57.71633 
L 143.518195 57.427285 
L 157.332742 57.239847 
L 183.153496 57.149116 
L 290.794318 57.132904 
L 362.890843 57.132898 
L 362.890843 57.132898 
" clip-path="url(#pa23bbd8f86)" style="fill: none; stroke-dasharray: 19.2,4.8,3,4.8; stroke-dashoffset: 0; stroke: #d62728; stroke-width: 3"/>
   </g>
   <g id="patch_3">
    <path d="M 51.648487 193.536948 
L 51.648487 10.8 
" style="fill: none; stroke: #000000; stroke-width: 0.8; stroke-linejoin: miter; stroke-linecap: square"/>
   </g>
   <g id="patch_4">
    <path d="M 377.742964 193.536948 
L 377.742964 10.8 
" style="fill: none; stroke: #000000; stroke-width: 0.8; stroke-linejoin: miter; stroke-linecap: square"/>
   </g>
   <g id="patch_5">
    <path d="M 51.648487 193.536948 
L 377.742964 193.536948 
" style="fill: none; stroke: #000000; stroke-width: 0.8; stroke-linejoin: miter; stroke-linecap: square"/>
   </g>
   <g id="patch_6">
    <path d="M 51.648487 10.8 
L 377.742964 10.8 
" style="fill: none; stroke: #000000; stroke-width: 0.8; stroke-linejoin: miter; stroke-linecap: square"/>
   </g>
   <g id="legend_1">
    <g id="line2d_17">
     <path d="M 273.196184 92.957438 
L 287.196184 92.957438 
L 301.196184 92.957438 
" style="fill: none; stroke: #1f77b4; stroke-width: 3; stroke-linecap: square"/>
    </g>
    <g id="text_14">
     <!-- $\hat{P}$ -->
     <g transform="translate(312.396184 97.857438) scale(0.14 -0.14)">
      <defs>
       <path id="CMR17-5e" d="M 1466 4421 
L 678 3555 
L 755 3478 
L 1466 4166 
L 2176 3478 
L 2253 3555 
L 1466 4421 
z
" transform="scale(0.015625)"/>
       <path id="CMMI12-50" d="M 1894 2023 
L 2970 2023 
C 3853 2023 4736 2673 4736 3401 
C 4736 3898 4314 4352 3507 4352 
L 1530 4352 
C 1408 4352 1350 4352 1350 4231 
C 1350 4167 1408 4167 1504 4167 
C 1894 4167 1894 4116 1894 4046 
C 1894 4034 1894 3995 1869 3899 
L 1005 472 
C 947 249 934 185 486 185 
C 365 185 301 185 301 70 
C 301 0 358 0 397 0 
C 518 0 646 0 768 0 
L 1517 0 
C 1638 0 1773 0 1894 0 
C 1946 0 2016 0 2016 121 
C 2016 185 1958 185 1862 185 
C 1478 185 1472 230 1472 293 
C 1472 325 1478 369 1485 401 
L 1894 2023 
z
M 2355 3930 
C 2413 4167 2438 4167 2688 4167 
L 3322 4167 
C 3802 4167 4198 4013 4198 3535 
C 4198 3369 4115 2827 3821 2534 
C 3712 2419 3405 2176 2822 2176 
L 1920 2176 
L 2355 3930 
z
" transform="scale(0.015625)"/>
      </defs>
      <use xlink:href="#CMR17-5e" transform="translate(23.496833 25.189733) scale(0.996264)"/>
      <use xlink:href="#CMMI12-50" transform="scale(0.996264)"/>
     </g>
    </g>
    <g id="line2d_18">
     <path d="M 273.196184 116.035953 
L 287.196184 116.035953 
L 301.196184 116.035953 
" style="fill: none; stroke-dasharray: 19.2,4.8,3,4.8; stroke-dashoffset: 0; stroke: #2ca02c; stroke-width: 3"/>
    </g>
    <g id="text_15">
     <!-- $\sum \hat{\phi} \cdot dt$ -->
     <g transform="translate(312.396184 120.935953) scale(0.14 -0.14)">
      <defs>
       <path id="CMEX10-50" d="M 2694 -3418 
L 422 -6227 
C 371 -6291 365 -6304 365 -6330 
C 365 -6400 422 -6400 538 -6400 
L 5843 -6400 
L 6394 -4806 
L 6234 -4806 
C 6074 -5286 5645 -5677 5101 -5862 
C 4998 -5894 4557 -6048 3616 -6048 
L 896 -6048 
L 3117 -3302 
C 3162 -3245 3174 -3226 3174 -3200 
C 3174 -3174 3168 -3168 3130 -3110 
L 1050 -256 
L 3584 -256 
C 4314 -256 5786 -301 6234 -1498 
L 6394 -1498 
L 5843 0 
L 538 0 
C 365 0 358 -6 358 -205 
L 2694 -3418 
z
" transform="scale(0.015625)"/>
       <path id="CMMI12-1e" d="M 2752 4390 
C 2752 4448 2707 4448 2688 4448 
C 2630 4448 2624 4435 2598 4326 
L 2253 2939 
C 2234 2856 2227 2849 2221 2843 
C 2214 2830 2170 2824 2157 2824 
C 1107 2734 301 1864 301 1057 
C 301 361 832 -64 1498 -64 
C 1446 -261 1402 -463 1350 -659 
C 1261 -995 1210 -1204 1210 -1229 
C 1210 -1241 1210 -1280 1274 -1280 
C 1293 -1280 1318 -1280 1331 -1254 
C 1344 -1241 1382 -1089 1408 -1008 
L 1645 -64 
C 2739 -64 3571 854 3571 1680 
C 3571 2343 3085 2816 2374 2816 
L 2752 4390 
z
M 2336 2701 
C 2758 2701 3181 2463 3181 1828 
C 3181 1097 2675 128 1677 50 
L 2336 2701 
z
M 1530 50 
C 1216 50 691 220 691 938 
C 691 1761 1274 2676 2195 2676 
L 1530 50 
z
" transform="scale(0.015625)"/>
       <path id="CMSY10-1" d="M 1229 1619 
C 1229 1805 1075 1958 890 1958 
C 704 1958 550 1805 550 1619 
C 550 1433 704 1280 890 1280 
C 1075 1280 1229 1433 1229 1619 
z
" transform="scale(0.015625)"/>
       <path id="CMMI12-64" d="M 3219 4257 
C 3226 4282 3238 4320 3238 4352 
C 3238 4416 3174 4416 3162 4416 
C 3155 4416 2842 4388 2810 4380 
C 2701 4373 2605 4358 2490 4358 
C 2330 4345 2285 4339 2285 4224 
C 2285 4160 2336 4160 2426 4160 
C 2739 4160 2746 4103 2746 4040 
C 2746 4002 2733 3952 2726 3933 
L 2336 2395 
C 2266 2561 2093 2816 1760 2816 
C 1037 2816 256 1884 256 939 
C 256 307 627 -64 1062 -64 
C 1414 -64 1715 211 1894 422 
C 1958 45 2259 -64 2451 -64 
C 2643 -64 2797 51 2912 281 
C 3014 498 3104 888 3104 913 
C 3104 945 3078 971 3040 971 
C 2982 971 2976 939 2950 843 
C 2854 466 2733 64 2470 64 
C 2285 64 2272 229 2272 357 
C 2272 382 2272 515 2317 694 
L 3219 4257 
z
M 1926 760 
C 1894 651 1894 639 1805 517 
C 1664 338 1382 64 1082 64 
C 819 64 672 300 672 677 
C 672 1028 870 1743 992 2012 
C 1210 2459 1510 2689 1760 2689 
C 2182 2689 2266 2165 2266 2114 
C 2266 2108 2246 2024 2240 2012 
L 1926 760 
z
" transform="scale(0.015625)"/>
       <path id="CMMI12-74" d="M 1286 2566 
L 1875 2566 
C 1997 2566 2061 2566 2061 2681 
C 2061 2752 2022 2752 1894 2752 
L 1331 2752 
L 1568 3692 
C 1594 3781 1594 3794 1594 3840 
C 1594 3943 1510 4000 1427 4000 
C 1376 4000 1229 3981 1178 3775 
L 928 2752 
L 326 2752 
C 198 2752 141 2752 141 2630 
C 141 2566 186 2566 307 2566 
L 877 2566 
L 454 881 
C 403 658 384 594 384 511 
C 384 211 595 -64 954 -64 
C 1600 -64 1946 868 1946 912 
C 1946 951 1920 970 1882 970 
C 1869 970 1843 970 1830 944 
C 1824 938 1818 931 1773 829 
C 1638 511 1344 64 973 64 
C 781 64 768 224 768 364 
C 768 370 768 492 787 568 
L 1286 2566 
z
" transform="scale(0.015625)"/>
      </defs>
      <use xlink:href="#CMEX10-50" transform="translate(0 74.720454) scale(0.996264)"/>
      <use xlink:href="#CMR17-5e" transform="translate(135.916962 26.296621) scale(0.996264)"/>
      <use xlink:href="#CMMI12-1e" transform="translate(121.765958 0) scale(0.996264)"/>
      <use xlink:href="#CMSY10-1" transform="translate(201.639345 0) scale(0.996264)"/>
      <use xlink:href="#CMMI12-64" transform="translate(251.452637 0) scale(0.996264)"/>
      <use xlink:href="#CMMI12-74" transform="translate(302.141734 0) scale(0.996264)"/>
     </g>
    </g>
    <g id="line2d_19">
     <path d="M 273.196184 136.983831 
L 287.196184 136.983831 
L 301.196184 136.983831 
" style="fill: none; stroke-dasharray: 3,4.95; stroke-dashoffset: 0; stroke: #d62728; stroke-width: 3"/>
    </g>
    <g id="text_16">
     <!-- $\sum \phi^s_1 \cdot dt$ -->
     <g transform="translate(312.396184 141.883831) scale(0.14 -0.14)">
      <defs>
       <path id="CMMI12-73" d="M 1459 1280 
C 1568 1261 1741 1223 1779 1216 
C 1862 1192 2150 1090 2150 783 
C 2150 586 1971 70 1229 70 
C 1094 70 614 70 486 436 
C 742 404 870 603 870 745 
C 870 880 781 950 653 950 
C 512 950 326 841 326 552 
C 326 173 710 -64 1222 -64 
C 2195 -64 2483 651 2483 984 
C 2483 1079 2483 1258 2278 1462 
C 2118 1616 1965 1648 1619 1718 
C 1446 1756 1171 1814 1171 2101 
C 1171 2229 1286 2689 1894 2689 
C 2163 2689 2426 2589 2490 2368 
C 2208 2368 2195 2125 2195 2119 
C 2195 1984 2317 1946 2374 1946 
C 2464 1946 2643 2015 2643 2281 
C 2643 2545 2400 2816 1901 2816 
C 1062 2816 838 2160 838 1899 
C 838 1414 1312 1312 1459 1280 
z
" transform="scale(0.015625)"/>
      </defs>
      <use xlink:href="#CMEX10-50" transform="translate(0 74.720454) scale(0.996264)"/>
      <use xlink:href="#CMMI12-1e" transform="translate(121.765958 0) scale(0.996264)"/>
      <use xlink:href="#CMMI12-73" transform="translate(179.500138 36.153639) scale(0.697382)"/>
      <use xlink:href="#CMR17-31" transform="translate(179.500138 -24.740171) scale(0.697382)"/>
      <use xlink:href="#CMSY10-1" transform="translate(234.302366 0) scale(0.996264)"/>
      <use xlink:href="#CMMI12-64" transform="translate(284.115658 0) scale(0.996264)"/>
      <use xlink:href="#CMMI12-74" transform="translate(334.804754 0) scale(0.996264)"/>
     </g>
    </g>
    <g id="line2d_20">
     <path d="M 273.196184 157.93171 
L 287.196184 157.93171 
L 301.196184 157.93171 
" style="fill: none; stroke-dasharray: 11.1,4.8; stroke-dashoffset: 0; stroke: #d62728; stroke-width: 3"/>
    </g>
    <g id="text_17">
     <!-- $\sum \phi^s_5 \cdot dt$ -->
     <g transform="translate(312.396184 162.83171) scale(0.14 -0.14)">
      <defs>
       <path id="CMR17-35" d="M 730 3692 
C 794 3666 1056 3584 1325 3584 
C 1920 3584 2246 3911 2432 4100 
C 2432 4157 2432 4192 2394 4192 
C 2387 4192 2374 4192 2323 4163 
C 2099 4058 1837 3973 1517 3973 
C 1325 3973 1037 3999 723 4139 
C 653 4171 640 4171 634 4171 
C 602 4171 595 4164 595 4037 
L 595 2203 
C 595 2089 595 2057 659 2057 
C 691 2057 704 2070 736 2114 
C 941 2401 1222 2522 1542 2522 
C 1766 2522 2246 2382 2246 1289 
C 2246 1085 2246 715 2054 421 
C 1894 159 1645 25 1370 25 
C 947 25 518 320 403 814 
C 429 807 480 795 506 795 
C 589 795 749 840 749 1038 
C 749 1210 627 1280 506 1280 
C 358 1280 262 1190 262 1011 
C 262 454 704 -128 1382 -128 
C 2042 -128 2669 440 2669 1264 
C 2669 2030 2170 2624 1549 2624 
C 1222 2624 947 2503 730 2274 
L 730 3692 
z
" transform="scale(0.015625)"/>
      </defs>
      <use xlink:href="#CMEX10-50" transform="translate(0 74.720454) scale(0.996264)"/>
      <use xlink:href="#CMMI12-1e" transform="translate(121.765958 0) scale(0.996264)"/>
      <use xlink:href="#CMMI12-73" transform="translate(179.500138 36.153639) scale(0.697382)"/>
      <use xlink:href="#CMR17-35" transform="translate(179.500138 -24.740171) scale(0.697382)"/>
      <use xlink:href="#CMSY10-1" transform="translate(234.302366 0) scale(0.996264)"/>
      <use xlink:href="#CMMI12-64" transform="translate(284.115658 0) scale(0.996264)"/>
      <use xlink:href="#CMMI12-74" transform="translate(334.804754 0) scale(0.996264)"/>
     </g>
    </g>
    <g id="line2d_21">
     <path d="M 273.196184 178.879589 
L 287.196184 178.879589 
L 301.196184 178.879589 
" style="fill: none; stroke-dasharray: 19.2,4.8,3,4.8; stroke-dashoffset: 0; stroke: #d62728; stroke-width: 3"/>
    </g>
    <g id="text_18">
     <!-- $\sum \phi^s_6 \cdot dt$ -->
     <g transform="translate(312.396184 183.779589) scale(0.14 -0.14)">
      <use xlink:href="#CMEX10-50" transform="translate(0 74.720454) scale(0.996264)"/>
      <use xlink:href="#CMMI12-1e" transform="translate(121.765958 0) scale(0.996264)"/>
      <use xlink:href="#CMMI12-73" transform="translate(179.500138 36.153639) scale(0.697382)"/>
      <use xlink:href="#CMR17-36" transform="translate(179.500138 -24.740171) scale(0.697382)"/>
      <use xlink:href="#CMSY10-1" transform="translate(234.302366 0) scale(0.996264)"/>
      <use xlink:href="#CMMI12-64" transform="translate(284.115658 0) scale(0.996264)"/>
      <use xlink:href="#CMMI12-74" transform="translate(334.804754 0) scale(0.996264)"/>
     </g>
    </g>
   </g>
  </g>
 </g>
 <defs>
  <clipPath id="pa23bbd8f86">
   <rect x="51.648487" y="10.8" width="326.094477" height="182.736948"/>
  </clipPath>
 </defs>
</svg>
