<svg width="2337" height="810" xmlns="http://www.w3.org/2000/svg" xmlns:xlink="http://www.w3.org/1999/xlink" xml:space="preserve" overflow="hidden"><g transform="translate(-138 -1156)"><path d="M946.506 1370.06 1488.72 1371.04 1488.71 1377.92 946.494 1376.94ZM1484.15 1360.72 1511.63 1374.52 1484.11 1388.22Z"/><rect x="379.5" y="1159.5" width="567" height="427" stroke="#042433" stroke-width="6.875" stroke-miterlimit="8" fill="#156082"/><path d="M587.81 1345.05 600.738 1345.05 611.437 1376.62C612.977 1381.16 614.166 1384.99 615.004 1388.13L615.449 1388.13C615.665 1386.48 616.159 1383.74 616.929 1379.9 617.699 1376.06 618.408 1372.71 619.056 1369.85L621.893 1357.08C622.488 1354.41 622.785 1352.23 622.785 1350.56 622.785 1349.29 622.467 1348.4 621.832 1347.9 621.197 1347.4 620.191 1347.11 618.813 1347.03L619.259 1345.05 633.443 1345.05 632.998 1347.03C631.971 1347.25 631.235 1347.49 630.789 1347.76 630.343 1348.03 629.945 1348.44 629.593 1348.98 629.242 1349.52 628.877 1350.36 628.499 1351.51 628.121 1352.66 627.648 1354.53 627.081 1357.12L617.557 1400.37 612.045 1400.37 600.211 1365.59C598.779 1361.43 597.523 1357.29 596.442 1353.15L595.915 1353.15C595.753 1354.53 595.307 1357.16 594.578 1361.03 593.848 1364.91 593.078 1368.7 592.268 1372.4L588.701 1388.57C588.134 1391.14 587.85 1393.25 587.85 1394.9 587.85 1396.11 588.154 1396.97 588.762 1397.47 589.37 1397.97 590.39 1398.27 591.822 1398.38L591.376 1400.37 577.192 1400.37 577.637 1398.38C578.664 1398.22 579.434 1397.96 579.947 1397.59 580.461 1397.23 580.893 1396.72 581.244 1396.07 581.596 1395.42 581.92 1394.63 582.217 1393.7 582.514 1392.77 582.96 1390.96 583.554 1388.29L590.444 1357.08C590.714 1355.92 590.93 1354.81 591.092 1353.76 591.255 1352.71 591.336 1351.64 591.336 1350.56 591.336 1349.29 591.018 1348.4 590.383 1347.9 589.748 1347.4 588.742 1347.11 587.364 1347.03Z" fill="#FFFFFF" fill-rule="evenodd"/><text fill="#000000" fill-opacity="0" font-family="Arial,Arial_MSFontService,sans-serif" font-size="55.3198" x="577.192" y="1393.45">๐</text><path d="M649.983 1345.05 662.911 1345.05 673.61 1376.62C675.15 1381.16 676.339 1384.99 677.176 1388.13L677.622 1388.13C677.838 1386.48 678.331 1383.74 679.102 1379.9 679.872 1376.06 680.581 1372.71 681.229 1369.85L684.066 1357.08C684.661 1354.41 684.958 1352.23 684.958 1350.56 684.958 1349.29 684.64 1348.4 684.005 1347.9 683.37 1347.4 682.364 1347.11 680.986 1347.03L681.432 1345.05 695.616 1345.05 695.171 1347.03C694.144 1347.25 693.408 1347.49 692.962 1347.76 692.516 1348.03 692.118 1348.44 691.766 1348.98 691.415 1349.52 691.05 1350.36 690.672 1351.51 690.294 1352.66 689.821 1354.53 689.254 1357.12L679.73 1400.37 674.218 1400.37 662.384 1365.59C660.952 1361.43 659.696 1357.29 658.615 1353.15L658.088 1353.15C657.926 1354.53 657.48 1357.16 656.751 1361.03 656.021 1364.91 655.251 1368.7 654.441 1372.4L650.874 1388.57C650.307 1391.14 650.023 1393.25 650.023 1394.9 650.023 1396.11 650.327 1396.97 650.935 1397.47 651.543 1397.97 652.563 1398.27 653.995 1398.38L653.549 1400.37 639.364 1400.37 639.81 1398.38C640.837 1398.22 641.607 1397.96 642.12 1397.59 642.634 1397.23 643.066 1396.72 643.417 1396.07 643.768 1395.42 644.093 1394.63 644.39 1393.7 644.687 1392.77 645.133 1390.96 645.727 1388.29L652.617 1357.08C652.887 1355.92 653.103 1354.81 653.265 1353.76 653.427 1352.71 653.508 1351.64 653.508 1350.56 653.508 1349.29 653.191 1348.4 652.556 1347.9 651.921 1347.4 650.915 1347.11 649.537 1347.03Z" fill="#FFFFFF" fill-rule="evenodd"/><text fill="#000000" fill-opacity="0" font-family="Arial,Arial_MSFontService,sans-serif" font-size="55.3198" x="639.364" y="1393.45">๐</text><path d="M701.43 1386.8C702.86 1386.8 704.002 1387.28 704.856 1388.24 705.709 1389.21 706.136 1390.49 706.136 1392.1 706.136 1392.98 706.057 1393.95 705.898 1395.02 705.739 1396.09 705.471 1397.29 705.094 1398.62 704.339 1401.34 703.744 1403.73 703.307 1405.77 702.87 1407.82 702.652 1409.32 702.652 1410.27 702.652 1411.46 702.885 1412.35 703.352 1412.94 703.818 1413.52 704.568 1413.81 705.6 1413.81 706.534 1413.81 707.531 1413.47 708.594 1412.77 709.656 1412.08 710.674 1411.18 711.647 1410.08 712.62 1408.97 713.488 1407.74 714.253 1406.38 715.017 1405.02 715.578 1403.68 715.936 1402.35L719.212 1387.43 725.08 1387.43 720.493 1406.88C720.255 1407.89 720.086 1408.79 719.987 1409.59 719.887 1410.38 719.838 1411.05 719.838 1411.61 719.838 1412.37 719.977 1412.91 720.255 1413.25 720.533 1413.59 720.979 1413.76 721.595 1413.76 721.972 1413.76 722.34 1413.69 722.697 1413.55 723.054 1413.41 723.437 1413.19 723.844 1412.89 724.251 1412.59 724.693 1412.21 725.169 1411.74 725.646 1411.28 726.182 1410.72 726.778 1410.06L728.833 1412.03C727.84 1413.04 726.926 1413.91 726.092 1414.63 725.258 1415.36 724.464 1415.95 723.71 1416.42 722.955 1416.89 722.206 1417.23 721.461 1417.43 720.716 1417.64 719.947 1417.75 719.153 1417.75 717.723 1417.75 716.606 1417.28 715.802 1416.36 714.997 1415.44 714.595 1414.17 714.595 1412.56 714.595 1412.15 714.625 1411.72 714.685 1411.3 714.744 1410.87 714.854 1410.46 715.012 1410.06L714.655 1409.94C712.689 1412.54 710.778 1414.49 708.921 1415.8 707.065 1417.1 705.134 1417.75 703.128 1417.75 701.023 1417.75 699.44 1417.19 698.377 1416.08 697.315 1414.97 696.784 1413.37 696.784 1411.28 696.784 1410.75 696.878 1410 697.067 1409.05 697.255 1408.1 697.489 1407.03 697.767 1405.86 698.045 1404.69 698.343 1403.46 698.66 1402.18 698.978 1400.9 699.276 1399.67 699.554 1398.49 699.832 1397.31 700.065 1396.24 700.254 1395.27 700.443 1394.31 700.537 1393.56 700.537 1393.02 700.537 1391.58 699.941 1390.85 698.75 1390.85 698.372 1390.85 698.005 1390.93 697.648 1391.07 697.29 1391.22 696.908 1391.45 696.501 1391.74 696.094 1392.04 695.652 1392.42 695.175 1392.88 694.699 1393.33 694.163 1393.87 693.567 1394.48L691.542 1392.55C692.614 1391.48 693.572 1390.57 694.416 1389.84 695.26 1389.1 696.059 1388.51 696.814 1388.07 697.568 1387.62 698.313 1387.3 699.048 1387.1 699.782 1386.9 700.577 1386.8 701.43 1386.8Z" fill="#FFFFFF" fill-rule="evenodd"/><text fill="#000000" fill-opacity="0" font-family="Arial,Arial_MSFontService,sans-serif" font-size="30.9468" x="691.542" y="1413.88">๐ข</text><rect x="141.5" y="1311.5" width="167" height="124" stroke="#024059" stroke-width="6.875" stroke-miterlimit="8" fill="#0F9ED5"/><text fill="#FFFFFF" font-family="Aptos,Aptos_MSFontService,sans-serif" font-weight="400" font-size="83" transform="matrix(1 0 0 1 211.117 1399)">t</text><rect x="1282.5" y="1314.5" width="166" height="121" stroke="#024059" stroke-width="6.875" stroke-miterlimit="8" fill="#0F9ED5"/><path d="M1359.95 1351.77C1358.27 1351.77 1356.51 1351.81 1354.68 1351.89L1349.17 1376.45 1353.38 1376.45C1356.65 1376.45 1359.29 1376.11 1361.3 1375.44 1363.32 1374.76 1364.96 1373.71 1366.25 1372.3 1367.53 1370.88 1368.52 1369.19 1369.23 1367.25 1369.93 1365.3 1370.28 1363.17 1370.28 1360.85 1370.28 1357.71 1369.48 1355.42 1367.89 1353.96 1366.29 1352.5 1363.65 1351.77 1359.95 1351.77ZM1342.96 1348.2 1360.84 1348.2C1364.05 1348.2 1366.69 1348.45 1368.76 1348.95 1370.83 1349.45 1372.53 1350.22 1373.87 1351.26 1375.2 1352.3 1376.2 1353.62 1376.87 1355.21 1377.53 1356.81 1377.86 1358.66 1377.86 1360.77 1377.86 1364.82 1376.9 1368.33 1374.98 1371.3 1373.06 1374.27 1370.46 1376.46 1367.18 1377.87 1363.9 1379.27 1359.96 1379.98 1355.37 1379.98 1352.61 1379.98 1350.31 1379.92 1348.48 1379.81L1345.88 1391.73C1345.64 1392.84 1345.47 1393.69 1345.38 1394.28 1345.28 1394.88 1345.2 1395.52 1345.13 1396.21 1345.07 1396.9 1345.03 1397.51 1345.03 1398.05 1345.03 1398.89 1345.17 1399.54 1345.44 1400.02 1345.71 1400.49 1346.11 1400.83 1346.65 1401.05 1347.19 1401.27 1348.12 1401.43 1349.45 1401.54L1349 1403.52 1332.35 1403.52 1332.79 1401.54C1333.82 1401.37 1334.59 1401.11 1335.1 1400.75 1335.62 1400.38 1336.05 1399.87 1336.4 1399.23 1336.75 1398.58 1337.07 1397.79 1337.37 1396.85 1337.67 1395.92 1338.11 1394.12 1338.71 1391.44L1345.6 1360.24C1346.19 1357.54 1346.49 1355.4 1346.49 1353.83 1346.49 1352.51 1346.18 1351.59 1345.56 1351.08 1344.94 1350.57 1343.92 1350.27 1342.52 1350.19Z" fill="#FFFFFF" fill-rule="evenodd"/><text fill="#000000" fill-opacity="0" font-family="Arial,Arial_MSFontService,sans-serif" font-size="55.3198" x="1332.35" y="1396.61">๐</text><path d="M1359.11 1331.94 1364.54 1331.94 1378.72 1342.2 1377.14 1344.51 1362.27 1337.17 1361.82 1337.17 1346.63 1344.51 1345.05 1342.2Z" fill="#FFFFFF" fill-rule="evenodd"/><text fill="#000000" fill-opacity="0" font-family="Arial,Arial_MSFontService,sans-serif" font-size="12.5635" x="1345.05" y="1342.93">เท</text><rect x="314" y="1663" width="2097" height="303" fill="#E97132" fill-opacity="0.501961"/><path d="M690.773 1762.29C692.586 1762.29 694.169 1762.8 695.523 1763.82 696.878 1764.84 698.076 1766.35 699.117 1768.35L694.305 1770.45C693.305 1768.41 692.44 1766.99 691.711 1766.21 690.982 1765.43 690.076 1765.04 688.992 1765.04 688.409 1765.04 687.867 1765.15 687.367 1765.35 686.867 1765.56 686.409 1765.97 685.992 1766.59 685.576 1767.2 685.221 1768.02 684.93 1769.04 684.638 1770.06 684.242 1771.76 683.742 1774.14L681.555 1784.48C681.221 1786.04 680.846 1787.42 680.43 1788.6 680.013 1789.79 679.529 1790.92 678.977 1791.98 678.425 1793.04 677.841 1793.98 677.227 1794.81 676.612 1795.63 675.909 1796.46 675.117 1797.29L675.117 1797.6C676.43 1797.6 677.727 1797.75 679.008 1798.04 680.289 1798.33 681.555 1798.71 682.805 1799.17 684.076 1799.65 685.289 1800.03 686.445 1800.31 687.602 1800.59 688.742 1800.73 689.867 1800.73 691.096 1800.73 692.138 1800.56 692.992 1800.23 693.846 1799.9 694.685 1799.32 695.508 1798.51 696.331 1797.7 697.43 1796.24 698.805 1794.14L701.18 1795.7C698.659 1799.59 696.497 1802.28 694.695 1803.74 692.893 1805.21 691.076 1805.95 689.242 1805.95 687.68 1805.95 686.206 1805.78 684.82 1805.45 683.435 1805.11 682.076 1804.67 680.742 1804.1 679.242 1803.5 677.945 1803.05 676.852 1802.74 675.758 1802.44 674.638 1802.29 673.492 1802.29 672.242 1802.29 671.05 1802.53 669.914 1802.99 668.779 1803.46 667.159 1804.45 665.055 1805.95L663.398 1803.89C666.003 1801.53 668.201 1799.93 669.992 1799.07 672.305 1796.86 673.982 1793.36 675.023 1788.57L678.023 1774.76C678.565 1772.26 679.221 1770.25 679.992 1768.73 680.763 1767.21 681.68 1766.03 682.742 1765.18 683.805 1764.34 684.982 1763.65 686.273 1763.1 687.565 1762.56 689.065 1762.29 690.773 1762.29Z" fill-rule="evenodd"/><text fill="#000000" fill-opacity="0" font-family="Arial,Arial_MSFontService,sans-serif" font-size="43.6562" x="663.398" y="1800.49">โ</text><path d="M725.736 1791.57 764.236 1791.57 764.236 1795.73 725.736 1795.73ZM725.736 1778.6 764.236 1778.6 764.236 1782.76 725.736 1782.76Z" fill-rule="evenodd"/><text fill="#000000" fill-opacity="0" font-family="Arial,Arial_MSFontService,sans-serif" font-size="17.125" x="725.736" y="1793.59">=</text><path d="M827.205 1713.73 828.923 1713.73C828.798 1715.73 828.736 1718.5 828.736 1722.04L828.736 1748.73C828.736 1749.94 828.804 1750.85 828.939 1751.47 829.075 1752.08 829.314 1752.58 829.658 1752.97 830.002 1753.35 830.496 1753.65 831.142 1753.87 831.788 1754.09 832.601 1754.26 833.58 1754.37 834.559 1754.49 835.851 1754.56 837.455 1754.61L837.455 1756.89 814.361 1756.89 814.361 1754.61C816.673 1754.5 818.325 1754.36 819.314 1754.18 820.304 1754.01 821.059 1753.74 821.58 1753.39 822.101 1753.03 822.481 1752.53 822.72 1751.89 822.96 1751.24 823.08 1750.19 823.08 1748.73L823.08 1723.39C823.08 1722.55 822.934 1721.94 822.642 1721.56 822.351 1721.17 821.923 1720.98 821.361 1720.98 820.694 1720.98 819.746 1721.32 818.517 1722.01 817.288 1722.7 815.767 1723.65 813.955 1724.86L812.58 1722.45Z" fill-rule="evenodd"/><text fill="#000000" fill-opacity="0" font-family="Arial,Arial_MSFontService,sans-serif" font-size="43.1562" x="812.58" y="1751.49">1</text><path d="M796.94 1805.71 806.909 1805.71 815.159 1830.06C816.346 1833.56 817.263 1836.52 817.909 1838.93L818.253 1838.93C818.419 1837.66 818.8 1835.55 819.393 1832.59 819.987 1829.63 820.534 1827.05 821.034 1824.84L823.221 1815C823.68 1812.93 823.909 1811.26 823.909 1809.96 823.909 1808.99 823.664 1808.3 823.175 1807.92 822.685 1807.53 821.909 1807.31 820.846 1807.25L821.19 1805.71 832.128 1805.71 831.784 1807.25C830.992 1807.41 830.425 1807.6 830.081 1807.81 829.737 1808.02 829.43 1808.33 829.159 1808.75 828.888 1809.16 828.607 1809.81 828.315 1810.7 828.023 1811.58 827.659 1813.03 827.221 1815.03L819.878 1848.37 815.628 1848.37 806.503 1821.56C805.398 1818.35 804.43 1815.15 803.596 1811.96L803.19 1811.96C803.065 1813.03 802.721 1815.05 802.159 1818.04 801.596 1821.03 801.003 1823.95 800.378 1826.81L797.628 1839.28C797.19 1841.26 796.971 1842.88 796.971 1844.15 796.971 1845.09 797.206 1845.75 797.675 1846.14 798.143 1846.52 798.93 1846.76 800.034 1846.84L799.69 1848.37 788.753 1848.37 789.096 1846.84C789.888 1846.71 790.482 1846.51 790.878 1846.23 791.273 1845.95 791.607 1845.56 791.878 1845.06 792.148 1844.56 792.398 1843.95 792.628 1843.23 792.857 1842.51 793.201 1841.12 793.659 1839.06L798.971 1815C799.18 1814.1 799.346 1813.25 799.471 1812.43 799.596 1811.62 799.659 1810.8 799.659 1809.96 799.659 1808.99 799.414 1808.3 798.925 1807.92 798.435 1807.53 797.659 1807.31 796.596 1807.25Z" fill-rule="evenodd"/><text fill="#000000" fill-opacity="0" font-family="Arial,Arial_MSFontService,sans-serif" font-size="42.6562" x="788.753" y="1843.04">๐</text><path d="M837.165 1838.02C838.266 1838.02 839.146 1838.4 839.804 1839.14 840.462 1839.88 840.791 1840.87 840.791 1842.11 840.791 1842.78 840.729 1843.53 840.607 1844.36 840.485 1845.18 840.278 1846.11 839.987 1847.14 839.406 1849.23 838.947 1851.07 838.61 1852.64 838.274 1854.22 838.106 1855.37 838.106 1856.11 838.106 1857.03 838.285 1857.71 838.645 1858.16 839.004 1858.61 839.582 1858.84 840.378 1858.84 841.097 1858.84 841.865 1858.57 842.684 1858.04 843.503 1857.5 844.287 1856.81 845.036 1855.96 845.786 1855.11 846.455 1854.16 847.044 1853.11 847.633 1852.07 848.066 1851.03 848.341 1850L850.865 1838.51 855.386 1838.51 851.852 1853.49C851.669 1854.27 851.539 1854.97 851.462 1855.58 851.386 1856.19 851.347 1856.71 851.347 1857.14 851.347 1857.72 851.454 1858.14 851.669 1858.4 851.883 1858.66 852.227 1858.79 852.701 1858.79 852.992 1858.79 853.275 1858.74 853.55 1858.63 853.826 1858.53 854.12 1858.36 854.434 1858.13 854.748 1857.9 855.088 1857.6 855.455 1857.24 855.822 1856.89 856.235 1856.45 856.694 1855.95L858.278 1857.46C857.513 1858.24 856.809 1858.91 856.167 1859.47 855.524 1860.03 854.912 1860.49 854.331 1860.85 853.749 1861.21 853.172 1861.47 852.598 1861.63 852.024 1861.79 851.431 1861.87 850.819 1861.87 849.718 1861.87 848.857 1861.51 848.238 1860.8 847.618 1860.09 847.308 1859.12 847.308 1857.88 847.308 1857.55 847.331 1857.23 847.377 1856.9 847.423 1856.57 847.507 1856.25 847.63 1855.95L847.354 1855.86C845.839 1857.86 844.367 1859.36 842.936 1860.37 841.506 1861.37 840.018 1861.87 838.473 1861.87 836.851 1861.87 835.631 1861.44 834.812 1860.58 833.994 1859.73 833.585 1858.5 833.585 1856.89 833.585 1856.48 833.657 1855.9 833.803 1855.17 833.948 1854.43 834.128 1853.61 834.342 1852.71 834.556 1851.81 834.786 1850.86 835.03 1849.88 835.275 1848.89 835.505 1847.94 835.719 1847.03 835.933 1846.12 836.113 1845.3 836.258 1844.55 836.404 1843.81 836.476 1843.23 836.476 1842.82 836.476 1841.7 836.017 1841.15 835.099 1841.15 834.809 1841.15 834.526 1841.2 834.25 1841.32 833.975 1841.43 833.68 1841.6 833.367 1841.83 833.053 1842.06 832.713 1842.35 832.345 1842.71 831.978 1843.06 831.565 1843.47 831.106 1843.95L829.546 1842.45C830.372 1841.63 831.11 1840.93 831.76 1840.37 832.41 1839.8 833.026 1839.34 833.608 1839 834.189 1838.66 834.763 1838.41 835.329 1838.25 835.895 1838.1 836.507 1838.02 837.165 1838.02Z" fill-rule="evenodd"/><text fill="#000000" fill-opacity="0" font-family="Arial,Arial_MSFontService,sans-serif" font-size="23.8442" x="829.546" y="1858.89">๐ข</text><path d="M786.93 1785.45 861.93 1785.45 861.93 1789.45 786.93 1789.45Z" fill-rule="evenodd"/><path d="M875.317 1726.07 950.786 1726.07 950.786 1744.57 946.661 1744.57C946.182 1740.14 945.213 1736.62 943.755 1734.04 942.296 1731.46 940.088 1730.17 937.13 1730.17L887.817 1730.17 925.099 1780.79 925.099 1784.57 884.849 1839.2 939.067 1839.2C941.463 1839.2 943.296 1838.35 944.567 1836.67 945.838 1834.98 946.932 1831.21 947.849 1825.35L952.474 1825.35 950.88 1848.26 874.036 1848.26 874.036 1845.17 917.817 1785.82 875.317 1729.04Z" fill-rule="evenodd"/><text fill="#000000" fill-opacity="0" font-family="Arial,Arial_MSFontService,sans-serif" font-size="122.188" x="874.036" y="1832.99">เท</text><path d="M1204.91 1748.51C1211.41 1750.22 1216.42 1754.65 1219.94 1761.79 1223.47 1768.94 1225.23 1777.4 1225.23 1787.17 1225.23 1796.94 1223.47 1805.4 1219.94 1812.54 1216.42 1819.69 1211.41 1824.11 1204.91 1825.82L1204.13 1823.26C1209.17 1821.36 1212.99 1817.23 1215.58 1810.87 1218.18 1804.5 1219.48 1796.61 1219.48 1787.2 1219.48 1777.76 1218.18 1769.85 1215.58 1763.48 1212.99 1757.1 1209.17 1752.97 1204.13 1751.07ZM1015.39 1748.51 1016.18 1751.07C1011.13 1752.97 1007.32 1757.1 1004.72 1763.48 1002.13 1769.85 1000.83 1777.76 1000.83 1787.2 1000.83 1796.61 1002.13 1804.5 1004.72 1810.87 1007.32 1817.23 1011.13 1821.36 1016.18 1823.26L1015.39 1825.82C1008.89 1824.11 1003.88 1819.69 1000.36 1812.54 996.842 1805.4 995.082 1796.94 995.082 1787.17 995.082 1777.4 996.842 1768.94 1000.36 1761.79 1003.88 1754.65 1008.89 1750.22 1015.39 1748.51Z" fill-rule="evenodd"/><path d="M1041.35 1765.54C1040.06 1765.54 1038.7 1765.57 1037.29 1765.64L1033.04 1784.57 1036.29 1784.57C1038.81 1784.57 1040.84 1784.31 1042.4 1783.79 1043.95 1783.27 1045.22 1782.46 1046.21 1781.37 1047.2 1780.28 1047.96 1778.98 1048.5 1777.48 1049.05 1775.98 1049.32 1774.33 1049.32 1772.54 1049.32 1770.12 1048.7 1768.35 1047.47 1767.23 1046.24 1766.1 1044.2 1765.54 1041.35 1765.54ZM1028.25 1762.79 1042.04 1762.79C1044.52 1762.79 1046.55 1762.98 1048.15 1763.37 1049.74 1763.75 1051.05 1764.35 1052.08 1765.15 1053.11 1765.95 1053.89 1766.97 1054.4 1768.2 1054.91 1769.43 1055.16 1770.85 1055.16 1772.48 1055.16 1775.6 1054.42 1778.31 1052.94 1780.6 1051.46 1782.9 1049.46 1784.58 1046.93 1785.67 1044.4 1786.75 1041.36 1787.29 1037.82 1787.29 1035.69 1787.29 1033.92 1787.25 1032.5 1787.17L1030.5 1796.35C1030.32 1797.21 1030.19 1797.86 1030.11 1798.32 1030.04 1798.78 1029.98 1799.28 1029.93 1799.81 1029.87 1800.34 1029.85 1800.81 1029.85 1801.23 1029.85 1801.87 1029.95 1802.38 1030.16 1802.74 1030.37 1803.11 1030.68 1803.37 1031.1 1803.54 1031.52 1803.71 1032.23 1803.83 1033.25 1803.92L1032.91 1805.45 1020.07 1805.45 1020.41 1803.92C1021.2 1803.79 1021.8 1803.59 1022.19 1803.31 1022.59 1803.03 1022.92 1802.64 1023.19 1802.14 1023.46 1801.64 1023.71 1801.03 1023.94 1800.31 1024.17 1799.59 1024.52 1798.2 1024.97 1796.14L1030.29 1772.07C1030.74 1769.99 1030.97 1768.34 1030.97 1767.14 1030.97 1766.11 1030.73 1765.41 1030.25 1765.01 1029.78 1764.61 1028.99 1764.39 1027.91 1764.32Z" fill-rule="evenodd"/><text fill="#000000" fill-opacity="0" font-family="Arial,Arial_MSFontService,sans-serif" font-size="42.6562" x="1020.07" y="1800.12">๐</text><path d="M1069.22 1759.86 1072.25 1759.86 1071.58 1767.04 1077.48 1762.89 1078.97 1765.46 1072.43 1768.51 1078.97 1771.58 1077.48 1774.13 1071.58 1769.98 1072.25 1777.16 1069.22 1777.16 1069.91 1769.98 1063.99 1774.13 1062.47 1771.58 1069.04 1768.51 1062.47 1765.46 1063.99 1762.89 1069.91 1767.04Z" fill-rule="evenodd"/><text fill="#000000" fill-opacity="0" font-family="Arial,Arial_MSFontService,sans-serif" font-size="17.3037" x="1062.47" y="1775">โ</text><path d="M1103.29 1785.07 1141.79 1785.07 1141.79 1789.23 1103.29 1789.23Z" fill-rule="evenodd"/><text fill="#000000" fill-opacity="0" font-family="Arial,Arial_MSFontService,sans-serif" font-size="4.15625" x="1103.29" y="1788.71">โ</text><path d="M1184.07 1765.54C1182.78 1765.54 1181.43 1765.57 1180.01 1765.64L1175.76 1784.57 1179.01 1784.57C1181.53 1784.57 1183.57 1784.31 1185.12 1783.79 1186.67 1783.27 1187.94 1782.46 1188.93 1781.37 1189.92 1780.28 1190.69 1778.98 1191.23 1777.48 1191.77 1775.98 1192.04 1774.33 1192.04 1772.54 1192.04 1770.12 1191.43 1768.35 1190.2 1767.23 1188.97 1766.1 1186.93 1765.54 1184.07 1765.54ZM1170.98 1762.79 1184.76 1762.79C1187.24 1762.79 1189.28 1762.98 1190.87 1763.37 1192.46 1763.75 1193.78 1764.35 1194.81 1765.15 1195.84 1765.95 1196.61 1766.97 1197.12 1768.2 1197.63 1769.43 1197.89 1770.85 1197.89 1772.48 1197.89 1775.6 1197.15 1778.31 1195.67 1780.6 1194.19 1782.9 1192.18 1784.58 1189.65 1785.67 1187.12 1786.75 1184.08 1787.29 1180.54 1787.29 1178.42 1787.29 1176.65 1787.25 1175.23 1787.17L1173.23 1796.35C1173.04 1797.21 1172.91 1797.86 1172.84 1798.32 1172.77 1798.78 1172.7 1799.28 1172.65 1799.81 1172.6 1800.34 1172.57 1800.81 1172.57 1801.23 1172.57 1801.87 1172.68 1802.38 1172.89 1802.74 1173.09 1803.11 1173.41 1803.37 1173.82 1803.54 1174.24 1803.71 1174.96 1803.83 1175.98 1803.92L1175.64 1805.45 1162.79 1805.45 1163.14 1803.92C1163.93 1803.79 1164.52 1803.59 1164.92 1803.31 1165.31 1803.03 1165.65 1802.64 1165.92 1802.14 1166.19 1801.64 1166.44 1801.03 1166.67 1800.31 1166.9 1799.59 1167.24 1798.2 1167.7 1796.14L1173.01 1772.07C1173.47 1769.99 1173.7 1768.34 1173.7 1767.14 1173.7 1766.11 1173.46 1765.41 1172.98 1765.01 1172.5 1764.61 1171.72 1764.39 1170.64 1764.32Z" fill="#215F9A" fill-rule="evenodd"/><text fill="#000000" fill-opacity="0" font-family="Arial,Arial_MSFontService,sans-serif" font-size="42.6562" x="1162.79" y="1800.12">๐</text><path d="M1183.52 1750.13 1187.71 1750.13 1198.64 1758.04 1197.43 1759.82 1185.96 1754.16 1185.61 1754.16 1173.89 1759.82 1172.68 1758.04Z" fill="#215F9A" fill-rule="evenodd"/><text fill="#000000" fill-opacity="0" font-family="Arial,Arial_MSFontService,sans-serif" font-size="9.6875" x="1172.68" y="1758.61">เท</text><path d="M1244.63 1733.06C1246.22 1733.06 1247.58 1733.24 1248.7 1733.6 1249.83 1733.96 1250.74 1734.44 1251.45 1735.05 1252.15 1735.67 1252.66 1736.4 1252.97 1737.26 1253.29 1738.11 1253.44 1739.04 1253.44 1740.03 1253.44 1740.63 1253.4 1741.19 1253.32 1741.7 1253.23 1742.21 1253.09 1742.72 1252.88 1743.21 1252.67 1743.71 1252.4 1744.21 1252.07 1744.72 1251.73 1745.22 1251.31 1745.76 1250.8 1746.32 1250.42 1746.81 1249.92 1747.38 1249.31 1748.02 1248.7 1748.66 1248.03 1749.35 1247.3 1750.09 1246.58 1750.82 1245.82 1751.59 1245.02 1752.38 1244.22 1753.18 1243.45 1753.96 1242.7 1754.74 1241.95 1755.52 1241.26 1756.28 1240.64 1757.02 1240.01 1757.75 1239.5 1758.42 1239.1 1759.04L1247.59 1759.04C1248.31 1759.04 1248.88 1759.01 1249.31 1758.96 1249.74 1758.9 1250.1 1758.78 1250.38 1758.6 1250.66 1758.42 1250.9 1758.14 1251.1 1757.76 1251.3 1757.39 1251.53 1756.87 1251.79 1756.21L1253.92 1756.21C1253.85 1757.3 1253.78 1758.39 1253.71 1759.49 1253.64 1760.6 1253.57 1761.69 1253.49 1762.78L1234.05 1762.78 1234.05 1761.58C1234.42 1760.76 1234.85 1759.94 1235.34 1759.14 1235.83 1758.34 1236.38 1757.52 1236.99 1756.7 1237.6 1755.87 1238.3 1755.02 1239.08 1754.14 1239.86 1753.26 1240.72 1752.34 1241.67 1751.39 1243.11 1749.96 1244.28 1748.73 1245.18 1747.71 1246.08 1746.69 1246.8 1745.79 1247.32 1744.99 1247.84 1744.2 1248.19 1743.46 1248.38 1742.79 1248.57 1742.11 1248.67 1741.4 1248.67 1740.63 1248.67 1739.85 1248.56 1739.13 1248.34 1738.47 1248.11 1737.82 1247.8 1737.26 1247.38 1736.8 1246.97 1736.34 1246.45 1735.98 1245.81 1735.72 1245.18 1735.46 1244.45 1735.33 1243.62 1735.33 1242.2 1735.33 1241 1735.72 1240.04 1736.49 1239.08 1737.26 1238.33 1738.38 1237.79 1739.85L1234.79 1739.85 1234.79 1735.38C1236.74 1734.56 1238.55 1733.98 1240.19 1733.61 1241.83 1733.24 1243.31 1733.06 1244.63 1733.06Z" fill-rule="evenodd"/><text fill="#000000" fill-opacity="0" font-family="Arial,Arial_MSFontService,sans-serif" font-size="29.7192" x="1234.05" y="1759.06">2</text><path d="M966.758 1834.98C967.86 1834.98 968.74 1835.35 969.398 1836.09 970.055 1836.83 970.384 1837.82 970.384 1839.06 970.384 1839.74 970.323 1840.48 970.201 1841.31 970.078 1842.14 969.872 1843.06 969.581 1844.09 969 1846.18 968.541 1848.02 968.204 1849.6 967.868 1851.17 967.699 1852.33 967.699 1853.06 967.699 1853.98 967.879 1854.66 968.239 1855.11 968.598 1855.57 969.176 1855.79 969.971 1855.79 970.69 1855.79 971.459 1855.52 972.278 1854.99 973.096 1854.45 973.88 1853.76 974.63 1852.91 975.38 1852.06 976.049 1851.11 976.638 1850.07 977.227 1849.02 977.659 1847.98 977.935 1846.96L980.459 1835.46 984.98 1835.46 981.446 1850.44C981.262 1851.22 981.132 1851.92 981.056 1852.53 980.979 1853.15 980.941 1853.67 980.941 1854.09 980.941 1854.68 981.048 1855.1 981.262 1855.36 981.477 1855.62 981.821 1855.75 982.295 1855.75 982.586 1855.75 982.869 1855.69 983.144 1855.59 983.42 1855.48 983.714 1855.31 984.028 1855.08 984.341 1854.85 984.682 1854.56 985.049 1854.2 985.416 1853.84 985.829 1853.41 986.288 1852.9L987.872 1854.41C987.107 1855.2 986.403 1855.86 985.76 1856.42 985.118 1856.98 984.506 1857.44 983.924 1857.8 983.343 1858.16 982.766 1858.42 982.192 1858.58 981.618 1858.74 981.025 1858.82 980.413 1858.82 979.312 1858.82 978.451 1858.47 977.831 1857.75 977.212 1857.04 976.902 1856.07 976.902 1854.83 976.902 1854.51 976.925 1854.18 976.971 1853.85 977.017 1853.52 977.101 1853.21 977.223 1852.9L976.948 1852.81C975.433 1854.81 973.961 1856.32 972.53 1857.32 971.1 1858.32 969.612 1858.82 968.067 1858.82 966.445 1858.82 965.225 1858.39 964.406 1857.54 963.588 1856.68 963.178 1855.45 963.178 1853.84 963.178 1853.43 963.251 1852.85 963.396 1852.12 963.542 1851.39 963.721 1850.57 963.936 1849.66 964.15 1848.76 964.379 1847.82 964.624 1846.83 964.869 1845.84 965.098 1844.89 965.313 1843.98 965.527 1843.07 965.707 1842.25 965.852 1841.51 965.997 1840.76 966.07 1840.19 966.07 1839.77 966.07 1838.66 965.611 1838.1 964.693 1838.1 964.402 1838.1 964.119 1838.16 963.844 1838.27 963.568 1838.38 963.274 1838.56 962.96 1838.79 962.647 1839.02 962.306 1839.31 961.939 1839.66 961.572 1840.01 961.159 1840.42 960.7 1840.9L959.139 1839.41C959.965 1838.58 960.704 1837.88 961.354 1837.32 962.004 1836.75 962.62 1836.3 963.201 1835.95 963.783 1835.61 964.356 1835.36 964.922 1835.21 965.489 1835.05 966.101 1834.98 966.758 1834.98Z" fill-rule="evenodd"/><text fill="#000000" fill-opacity="0" font-family="Arial,Arial_MSFontService,sans-serif" font-size="23.8442" x="959.139" y="1855.84">๐ข</text><path d="M1296.46 1767.07 1300.89 1767.07 1300.89 1785.07 1317.93 1785.07 1317.93 1789.23 1300.89 1789.23 1300.89 1807.23 1296.46 1807.23 1296.46 1789.23 1279.43 1789.23 1279.43 1785.07 1296.46 1785.07Z" fill-rule="evenodd"/><text fill="#000000" fill-opacity="0" font-family="Arial,Arial_MSFontService,sans-serif" font-size="40.1562" x="1279.43" y="1802.21">+</text><path d="M1374.45 1713.73 1376.17 1713.73C1376.05 1715.73 1375.99 1718.5 1375.99 1722.04L1375.99 1748.73C1375.99 1749.94 1376.05 1750.85 1376.19 1751.47 1376.32 1752.08 1376.56 1752.58 1376.91 1752.97 1377.25 1753.35 1377.75 1753.65 1378.39 1753.87 1379.04 1754.09 1379.85 1754.26 1380.83 1754.37 1381.81 1754.49 1383.1 1754.56 1384.7 1754.61L1384.7 1756.89 1361.61 1756.89 1361.61 1754.61C1363.92 1754.5 1365.57 1754.36 1366.56 1754.18 1367.55 1754.01 1368.31 1753.74 1368.83 1753.39 1369.35 1753.03 1369.73 1752.53 1369.97 1751.89 1370.21 1751.24 1370.33 1750.19 1370.33 1748.73L1370.33 1723.39C1370.33 1722.55 1370.18 1721.94 1369.89 1721.56 1369.6 1721.17 1369.17 1720.98 1368.61 1720.98 1367.94 1720.98 1367 1721.32 1365.77 1722.01 1364.54 1722.7 1363.02 1723.65 1361.2 1724.86L1359.83 1722.45Z" fill-rule="evenodd"/><text fill="#000000" fill-opacity="0" font-family="Arial,Arial_MSFontService,sans-serif" font-size="43.1562" x="1359.83" y="1751.49">1</text><path d="M1347.05 1805.71 1357.02 1805.71 1365.27 1830.06C1366.46 1833.56 1367.38 1836.52 1368.02 1838.93L1368.37 1838.93C1368.53 1837.66 1368.91 1835.55 1369.51 1832.59 1370.1 1829.63 1370.65 1827.05 1371.15 1824.84L1373.34 1815C1373.79 1812.93 1374.02 1811.26 1374.02 1809.96 1374.02 1808.99 1373.78 1808.3 1373.29 1807.92 1372.8 1807.53 1372.02 1807.31 1370.96 1807.25L1371.3 1805.71 1382.24 1805.71 1381.9 1807.25C1381.11 1807.41 1380.54 1807.6 1380.2 1807.81 1379.85 1808.02 1379.54 1808.33 1379.27 1808.75 1379 1809.16 1378.72 1809.81 1378.43 1810.7 1378.14 1811.58 1377.77 1813.03 1377.34 1815.03L1369.99 1848.37 1365.74 1848.37 1356.62 1821.56C1355.51 1818.35 1354.54 1815.15 1353.71 1811.96L1353.3 1811.96C1353.18 1813.03 1352.84 1815.05 1352.27 1818.04 1351.71 1821.03 1351.12 1823.95 1350.49 1826.81L1347.74 1839.28C1347.3 1841.26 1347.09 1842.88 1347.09 1844.15 1347.09 1845.09 1347.32 1845.75 1347.79 1846.14 1348.26 1846.52 1349.04 1846.76 1350.15 1846.84L1349.8 1848.37 1338.87 1848.37 1339.21 1846.84C1340 1846.71 1340.6 1846.51 1340.99 1846.23 1341.39 1845.95 1341.72 1845.56 1341.99 1845.06 1342.26 1844.56 1342.51 1843.95 1342.74 1843.23 1342.97 1842.51 1343.32 1841.12 1343.77 1839.06L1349.09 1815C1349.29 1814.1 1349.46 1813.25 1349.59 1812.43 1349.71 1811.62 1349.77 1810.8 1349.77 1809.96 1349.77 1808.99 1349.53 1808.3 1349.04 1807.92 1348.55 1807.53 1347.77 1807.31 1346.71 1807.25Z" fill-rule="evenodd"/><text fill="#000000" fill-opacity="0" font-family="Arial,Arial_MSFontService,sans-serif" font-size="42.6562" x="1338.87" y="1843.04">๐</text><path d="M1398.05 1829.37C1398.89 1829.37 1399.63 1829.42 1400.27 1829.5 1400.92 1829.58 1401.54 1829.69 1402.13 1829.81L1401.19 1834.08 1398.92 1834.08C1398.81 1833.21 1398.55 1832.57 1398.14 1832.16 1397.73 1831.76 1397.18 1831.55 1396.49 1831.55 1395.69 1831.55 1395.02 1831.73 1394.48 1832.07 1393.94 1832.41 1393.46 1832.93 1393.06 1833.63 1392.65 1834.33 1392.3 1835.14 1392.01 1836.07 1391.72 1837.01 1391.52 1837.82 1391.42 1838.51L1397.77 1838.51 1397.27 1841.05 1390.89 1841.05 1386.73 1860.72C1386.01 1864.07 1384.85 1866.55 1383.23 1868.17 1381.62 1869.78 1379.47 1870.59 1376.77 1870.59 1376.07 1870.59 1375.56 1870.54 1375.24 1870.45 1375.33 1870.07 1375.41 1869.68 1375.49 1869.27 1375.57 1868.86 1375.66 1868.47 1375.76 1868.09 1375.86 1868.12 1375.99 1868.13 1376.15 1868.13 1376.32 1868.13 1376.56 1868.13 1376.87 1868.13 1377.46 1868.13 1378.01 1868.04 1378.51 1867.85 1379 1867.66 1379.46 1867.31 1379.87 1866.81 1380.29 1866.32 1380.66 1865.64 1381.01 1864.77 1381.35 1863.91 1381.68 1862.79 1381.98 1861.43L1386.57 1841.05 1382.63 1841.05 1383.04 1839.29C1383.88 1839.24 1384.55 1839.19 1385.05 1839.13 1385.54 1839.07 1385.97 1838.93 1386.31 1838.72 1386.65 1838.52 1386.91 1838.17 1387.08 1837.68 1387.97 1834.88 1389.3 1832.8 1391.08 1831.43 1392.87 1830.06 1395.19 1829.37 1398.05 1829.37Z" fill-rule="evenodd"/><text fill="#000000" fill-opacity="0" font-family="Arial,Arial_MSFontService,sans-serif" font-size="41.2168" x="1375.24" y="1865.44">๐</text><path d="M1336.93 1785.45 1406.93 1785.45 1406.93 1789.45 1336.93 1789.45Z" fill-rule="evenodd"/><path d="M1419.73 1726.07 1495.19 1726.07 1495.19 1744.57 1491.07 1744.57C1490.59 1740.14 1489.62 1736.62 1488.16 1734.04 1486.7 1731.46 1484.5 1730.17 1481.54 1730.17L1432.23 1730.17 1469.51 1780.79 1469.51 1784.57 1429.26 1839.2 1483.48 1839.2C1485.87 1839.2 1487.7 1838.35 1488.98 1836.67 1490.25 1834.98 1491.34 1831.21 1492.26 1825.35L1496.88 1825.35 1495.29 1848.26 1418.44 1848.26 1418.44 1845.17 1462.23 1785.82 1419.73 1729.04Z" fill-rule="evenodd"/><text fill="#000000" fill-opacity="0" font-family="Arial,Arial_MSFontService,sans-serif" font-size="122.188" x="1418.44" y="1832.99">เท</text><path d="M1984.57 1705.59C1993.13 1712.92 1999.93 1723.86 2004.96 1738.4 2009.99 1752.94 2012.51 1769.17 2012.51 1787.09 2012.51 1804.73 2009.99 1820.94 2004.96 1835.7 1999.93 1850.46 1993.13 1861.48 1984.57 1868.77L1983.1 1866.46C1990.5 1858.94 1996.19 1848.06 2000.19 1833.81 2004.19 1819.56 2006.19 1803.99 2006.19 1787.12 2006.19 1769.85 2004.18 1754.21 2000.16 1740.21 1996.14 1726.21 1990.45 1715.45 1983.1 1707.93ZM1575.92 1705.59 1577.39 1707.93C1570.02 1715.45 1564.32 1726.21 1560.31 1740.21 1556.3 1754.21 1554.3 1769.85 1554.3 1787.12 1554.3 1803.99 1556.3 1819.56 1560.3 1833.81 1564.3 1848.06 1569.99 1858.94 1577.39 1866.46L1575.92 1868.77C1567.36 1861.48 1560.56 1850.46 1555.53 1835.7 1550.5 1820.94 1547.98 1804.73 1547.98 1787.09 1547.98 1769.17 1550.5 1752.94 1555.53 1738.4 1560.56 1723.86 1567.36 1712.92 1575.92 1705.59Z" fill-rule="evenodd"/><path d="M1599.51 1728.95C1597.38 1728.95 1595.48 1729.81 1593.79 1731.53 1592.1 1733.25 1590.77 1735.56 1589.8 1738.48 1588.83 1741.4 1588.35 1744.3 1588.35 1747.2 1588.35 1749.37 1588.65 1750.99 1589.24 1752.06 1589.83 1753.13 1590.83 1753.67 1592.23 1753.67 1592.87 1753.67 1593.53 1753.53 1594.19 1753.25 1594.86 1752.97 1595.55 1752.51 1596.27 1751.89 1596.99 1751.26 1597.7 1750.5 1598.4 1749.61 1599.1 1748.71 1599.74 1747.81 1600.32 1746.9 1600.9 1746 1601.44 1744.92 1601.94 1743.68 1602.44 1742.44 1602.87 1740.95 1603.23 1739.2L1603.51 1737.86C1603.82 1736.36 1603.98 1734.94 1603.98 1733.61 1603.98 1731.98 1603.63 1730.8 1602.94 1730.06 1602.26 1729.32 1601.11 1728.95 1599.51 1728.95ZM1612.6 1712.2 1614.44 1712.2 1606.66 1746.79C1606.2 1748.84 1605.98 1750.38 1605.98 1751.42 1605.98 1752.25 1606.11 1752.86 1606.38 1753.23 1606.65 1753.61 1607.08 1753.79 1607.66 1753.79 1608.29 1753.79 1608.95 1753.54 1609.66 1753.03 1610.37 1752.52 1611.37 1751.54 1612.66 1750.11L1614.44 1751.86C1612.53 1753.88 1610.91 1755.3 1609.6 1756.14 1608.29 1756.97 1606.87 1757.39 1605.35 1757.39 1604.06 1757.39 1603.03 1756.96 1602.26 1756.11 1601.49 1755.25 1601.1 1754.12 1601.1 1752.7 1601.1 1751.55 1601.34 1750.34 1601.82 1749.04L1601.41 1748.92C1599.41 1751.84 1597.52 1753.97 1595.73 1755.32 1593.93 1756.68 1592.04 1757.36 1590.04 1757.36 1587.75 1757.36 1585.97 1756.49 1584.71 1754.76 1583.45 1753.03 1582.82 1750.61 1582.82 1747.48 1582.82 1743.9 1583.52 1740.45 1584.93 1737.15 1586.33 1733.85 1588.27 1731.25 1590.73 1729.34 1593.18 1727.43 1595.92 1726.48 1598.94 1726.48 1600.22 1726.48 1601.39 1726.61 1602.46 1726.87 1603.53 1727.13 1604.63 1727.59 1605.76 1728.23L1607.38 1721.01C1607.55 1720.32 1607.69 1719.56 1607.82 1718.73 1607.94 1717.9 1608.01 1717.17 1608.01 1716.54 1608.01 1715.92 1607.89 1715.44 1607.66 1715.12 1607.43 1714.8 1607.11 1714.56 1606.68 1714.42 1606.25 1714.27 1605.49 1714.17 1604.38 1714.11L1604.76 1712.48Z" fill-rule="evenodd"/><text fill="#000000" fill-opacity="0" font-family="Arial,Arial_MSFontService,sans-serif" font-size="45.1875" x="1582.82" y="1751.74">๐</text><path d="M1641.88 1716.98C1640.59 1716.98 1639.23 1717.01 1637.82 1717.07L1633.57 1736.01 1636.82 1736.01C1639.34 1736.01 1641.37 1735.75 1642.93 1735.23 1644.48 1734.71 1645.75 1733.9 1646.74 1732.81 1647.73 1731.72 1648.49 1730.42 1649.04 1728.92 1649.58 1727.42 1649.85 1725.77 1649.85 1723.98 1649.85 1721.56 1649.23 1719.79 1648 1718.67 1646.78 1717.54 1644.73 1716.98 1641.88 1716.98ZM1628.79 1714.23 1642.57 1714.23C1645.05 1714.23 1647.08 1714.42 1648.68 1714.81 1650.27 1715.19 1651.58 1715.79 1652.61 1716.59 1653.65 1717.39 1654.42 1718.41 1654.93 1719.64 1655.44 1720.87 1655.69 1722.29 1655.69 1723.92 1655.69 1727.04 1654.95 1729.75 1653.47 1732.04 1651.99 1734.34 1649.99 1736.02 1647.46 1737.11 1644.93 1738.19 1641.89 1738.73 1638.35 1738.73 1636.22 1738.73 1634.45 1738.69 1633.04 1738.61L1631.04 1747.79C1630.85 1748.65 1630.72 1749.3 1630.65 1749.76 1630.57 1750.22 1630.51 1750.72 1630.46 1751.25 1630.41 1751.78 1630.38 1752.25 1630.38 1752.67 1630.38 1753.31 1630.48 1753.82 1630.69 1754.18 1630.9 1754.55 1631.21 1754.81 1631.63 1754.98 1632.05 1755.15 1632.77 1755.27 1633.79 1755.36L1633.44 1756.89 1620.6 1756.89 1620.94 1755.36C1621.73 1755.23 1622.33 1755.03 1622.72 1754.75 1623.12 1754.47 1623.45 1754.07 1623.72 1753.57 1623.99 1753.07 1624.24 1752.47 1624.47 1751.75 1624.7 1751.03 1625.05 1749.64 1625.5 1747.57L1630.82 1723.51C1631.28 1721.43 1631.5 1719.78 1631.5 1718.57 1631.5 1717.55 1631.27 1716.85 1630.79 1716.45 1630.31 1716.05 1629.53 1715.82 1628.44 1715.76Z" fill="#215F9A" fill-rule="evenodd"/><text fill="#000000" fill-opacity="0" font-family="Arial,Arial_MSFontService,sans-serif" font-size="42.6562" x="1620.6" y="1751.56">๐</text><path d="M1641.33 1701.57 1645.51 1701.57 1656.45 1709.48 1655.23 1711.26 1643.76 1705.6 1643.42 1705.6 1631.7 1711.26 1630.48 1709.48Z" fill="#215F9A" fill-rule="evenodd"/><text fill="#000000" fill-opacity="0" font-family="Arial,Arial_MSFontService,sans-serif" font-size="9.6875" x="1630.48" y="1710.05">เท</text><path d="M1607.69 1820.43C1605.56 1820.43 1603.66 1821.29 1601.97 1823.01 1600.28 1824.73 1598.95 1827.05 1597.98 1829.96 1597.02 1832.88 1596.53 1835.79 1596.53 1838.68 1596.53 1840.85 1596.83 1842.47 1597.42 1843.54 1598.02 1844.62 1599.01 1845.15 1600.41 1845.15 1601.05 1845.15 1601.71 1845.01 1602.38 1844.73 1603.04 1844.45 1603.73 1844 1604.45 1843.37 1605.17 1842.75 1605.88 1841.99 1606.58 1841.09 1607.28 1840.19 1607.92 1839.29 1608.5 1838.39 1609.08 1837.48 1609.63 1836.41 1610.13 1835.17 1610.63 1833.93 1611.05 1832.43 1611.41 1830.68L1611.69 1829.34C1612 1827.84 1612.16 1826.42 1612.16 1825.09 1612.16 1823.46 1611.81 1822.28 1611.13 1821.54 1610.44 1820.8 1609.29 1820.43 1607.69 1820.43ZM1636.94 1810.78 1641.25 1810.78 1639.53 1818.5 1649.03 1818.5 1648.34 1821.65 1638.84 1821.65 1636.06 1833.78C1635.52 1836.13 1635.18 1837.82 1635.03 1838.85 1634.89 1839.89 1634.81 1840.71 1634.81 1841.34 1634.81 1843.92 1635.89 1845.21 1638.03 1845.21 1638.95 1845.21 1639.92 1844.87 1640.95 1844.17 1641.98 1843.47 1643.21 1842.28 1644.63 1840.59L1646.44 1842.46C1644.63 1844.65 1642.88 1846.27 1641.2 1847.31 1639.53 1848.35 1637.77 1848.87 1635.94 1848.87 1631.58 1848.87 1629.41 1846.67 1629.41 1842.28 1629.41 1840.88 1629.58 1839.41 1629.94 1837.87L1633.63 1821.65 1628.38 1821.65 1628.84 1819.5C1630.07 1819.47 1631.01 1819.38 1631.64 1819.21 1632.28 1819.05 1632.81 1818.82 1633.23 1818.53 1633.66 1818.24 1634.05 1817.82 1634.41 1817.28 1634.76 1816.74 1635.1 1816.04 1635.44 1815.2 1635.77 1814.35 1636.27 1812.88 1636.94 1810.78ZM1620.78 1803.68 1622.63 1803.68 1614.84 1838.28C1614.39 1840.32 1614.16 1841.86 1614.16 1842.9 1614.16 1843.74 1614.29 1844.34 1614.56 1844.71 1614.83 1845.09 1615.26 1845.28 1615.84 1845.28 1616.47 1845.28 1617.14 1845.02 1617.84 1844.51 1618.55 1844 1619.55 1843.03 1620.84 1841.59L1622.63 1843.34C1620.71 1845.36 1619.09 1846.79 1617.78 1847.62 1616.47 1848.45 1615.05 1848.87 1613.53 1848.87 1612.24 1848.87 1611.21 1848.44 1610.44 1847.59 1609.67 1846.74 1609.28 1845.6 1609.28 1844.18 1609.28 1843.04 1609.52 1841.82 1610 1840.53L1609.59 1840.4C1607.59 1843.32 1605.7 1845.45 1603.91 1846.81 1602.12 1848.16 1600.22 1848.84 1598.22 1848.84 1595.93 1848.84 1594.15 1847.97 1592.89 1846.25 1591.63 1844.52 1591 1842.09 1591 1838.96 1591 1835.38 1591.7 1831.94 1593.11 1828.64 1594.52 1825.33 1596.45 1822.73 1598.91 1820.82 1601.37 1818.92 1604.1 1817.96 1607.13 1817.96 1608.4 1817.96 1609.57 1818.09 1610.64 1818.35 1611.71 1818.62 1612.81 1819.07 1613.94 1819.71L1615.56 1812.5C1615.73 1811.81 1615.88 1811.05 1616 1810.21 1616.13 1809.38 1616.19 1808.65 1616.19 1808.03 1616.19 1807.4 1616.07 1806.93 1615.84 1806.6 1615.62 1806.28 1615.29 1806.05 1614.86 1805.9 1614.43 1805.76 1613.67 1805.65 1612.56 1805.59L1612.94 1803.96Z" fill-rule="evenodd"/><text fill="#000000" fill-opacity="0" font-family="Arial,Arial_MSFontService,sans-serif" font-size="45.1875" x="1591" y="1843.22">๐๐ก</text><path d="M1579.93 1785.45 1659.93 1785.45 1659.93 1789.45 1579.93 1789.45Z" fill-rule="evenodd"/><path d="M1678.82 1785.07 1717.32 1785.07 1717.32 1789.23 1678.82 1789.23Z" fill-rule="evenodd"/><text fill="#000000" fill-opacity="0" font-family="Arial,Arial_MSFontService,sans-serif" font-size="4.15625" x="1678.82" y="1788.71">โ</text><path d="M1767.7 1777.54C1766.01 1777.54 1764.57 1778.49 1763.37 1780.39 1762.17 1782.28 1761.11 1785.27 1760.2 1789.35L1757.01 1803.51C1759.97 1803.41 1762.52 1802.43 1764.67 1800.59 1766.81 1798.74 1768.47 1796.25 1769.63 1793.1 1770.8 1789.96 1771.38 1786.71 1771.38 1783.35 1771.38 1781.54 1771.07 1780.12 1770.43 1779.09 1769.8 1778.06 1768.88 1777.54 1767.7 1777.54ZM1753.26 1774.98 1754.88 1777.14C1751.82 1779.32 1749.38 1781.92 1747.57 1784.92 1745.76 1787.92 1744.85 1790.87 1744.85 1793.79 1744.85 1796.5 1745.46 1798.64 1746.67 1800.2 1747.87 1801.76 1749.7 1802.79 1752.13 1803.29L1755.32 1788.95C1756.38 1784.2 1758.07 1780.69 1760.37 1778.43 1762.67 1776.17 1765.27 1775.04 1768.17 1775.04 1771.02 1775.04 1773.17 1775.84 1774.6 1777.43 1776.04 1779.03 1776.76 1781.42 1776.76 1784.6 1776.76 1788.58 1775.93 1792.2 1774.27 1795.45 1772.62 1798.7 1770.26 1801.24 1767.2 1803.07 1764.13 1804.91 1760.57 1805.85 1756.51 1805.92L1753.57 1818.95 1748.67 1818.95 1751.6 1805.85C1747.73 1805.42 1744.74 1804.13 1742.65 1801.99 1740.56 1799.86 1739.51 1797.05 1739.51 1793.57 1739.51 1786.66 1744.09 1780.46 1753.26 1774.98Z" fill="#275317" fill-rule="evenodd"/><text fill="#000000" fill-opacity="0" font-family="Arial,Arial_MSFontService,sans-serif" font-size="43.9688" x="1739.51" y="1813.45">๐</text><path d="M1760.99 1760.39 1765.18 1760.39 1775.8 1770.23 1774.11 1772.01 1763.08 1764.42 1762.74 1764.42 1751.52 1772.01 1749.83 1770.23Z" fill="#275317" fill-rule="evenodd"/><text fill="#000000" fill-opacity="0" font-family="Arial,Arial_MSFontService,sans-serif" font-size="11.625" x="1749.83" y="1770.56">เท</text><path d="M1913.93 1748.51C1920.43 1750.22 1925.44 1754.65 1928.96 1761.79 1932.48 1768.94 1934.24 1777.4 1934.24 1787.17 1934.24 1796.94 1932.48 1805.4 1928.96 1812.54 1925.44 1819.69 1920.43 1824.11 1913.93 1825.82L1913.15 1823.26C1918.19 1821.36 1922.01 1817.23 1924.6 1810.87 1927.2 1804.5 1928.49 1796.61 1928.49 1787.2 1928.49 1777.76 1927.2 1769.85 1924.6 1763.48 1922.01 1757.1 1918.19 1752.97 1913.15 1751.07ZM1816.49 1748.51 1817.27 1751.07C1812.23 1752.97 1808.41 1757.1 1805.82 1763.48 1803.23 1769.85 1801.93 1777.76 1801.93 1787.2 1801.93 1796.61 1803.23 1804.5 1805.82 1810.87 1808.41 1817.23 1812.23 1821.36 1817.27 1823.26L1816.49 1825.82C1809.99 1824.11 1804.98 1819.69 1801.46 1812.54 1797.94 1805.4 1796.18 1796.94 1796.18 1787.17 1796.18 1777.4 1797.94 1768.94 1801.46 1761.79 1804.98 1754.65 1809.99 1750.22 1816.49 1748.51Z" fill="#275317" fill-rule="evenodd"/><path d="M1842.45 1765.54C1841.15 1765.54 1839.8 1765.57 1838.38 1765.64L1834.13 1784.57 1837.38 1784.57C1839.9 1784.57 1841.94 1784.31 1843.49 1783.79 1845.05 1783.27 1846.32 1782.46 1847.31 1781.37 1848.3 1780.28 1849.06 1778.98 1849.6 1777.48 1850.14 1775.98 1850.42 1774.33 1850.42 1772.54 1850.42 1770.12 1849.8 1768.35 1848.57 1767.23 1847.34 1766.1 1845.3 1765.54 1842.45 1765.54ZM1829.35 1762.79 1843.13 1762.79C1845.61 1762.79 1847.65 1762.98 1849.24 1763.37 1850.84 1763.75 1852.15 1764.35 1853.18 1765.15 1854.21 1765.95 1854.98 1766.97 1855.49 1768.2 1856 1769.43 1856.26 1770.85 1856.26 1772.48 1856.26 1775.6 1855.52 1778.31 1854.04 1780.6 1852.56 1782.9 1850.56 1784.58 1848.02 1785.67 1845.49 1786.75 1842.46 1787.29 1838.92 1787.29 1836.79 1787.29 1835.02 1787.25 1833.6 1787.17L1831.6 1796.35C1831.42 1797.21 1831.28 1797.86 1831.21 1798.32 1831.14 1798.78 1831.08 1799.28 1831.02 1799.81 1830.97 1800.34 1830.95 1800.81 1830.95 1801.23 1830.95 1801.87 1831.05 1802.38 1831.26 1802.74 1831.47 1803.11 1831.78 1803.37 1832.2 1803.54 1832.61 1803.71 1833.33 1803.83 1834.35 1803.92L1834.01 1805.45 1821.17 1805.45 1821.51 1803.92C1822.3 1803.79 1822.89 1803.59 1823.29 1803.31 1823.69 1803.03 1824.02 1802.64 1824.29 1802.14 1824.56 1801.64 1824.81 1801.03 1825.04 1800.31 1825.27 1799.59 1825.61 1798.2 1826.07 1796.14L1831.38 1772.07C1831.84 1769.99 1832.07 1768.34 1832.07 1767.14 1832.07 1766.11 1831.83 1765.41 1831.35 1765.01 1830.87 1764.61 1830.09 1764.39 1829.01 1764.32Z" fill="#275317" fill-rule="evenodd"/><text fill="#000000" fill-opacity="0" font-family="Arial,Arial_MSFontService,sans-serif" font-size="42.6562" x="1821.17" y="1800.12">๐</text><path d="M1841.89 1750.13 1846.08 1750.13 1857.02 1758.04 1855.8 1759.82 1844.33 1754.16 1843.99 1754.16 1832.27 1759.82 1831.05 1758.04Z" fill="#275317" fill-rule="evenodd"/><text fill="#000000" fill-opacity="0" font-family="Arial,Arial_MSFontService,sans-serif" font-size="9.6875" x="1831.05" y="1758.61">เท</text><path d="M1864.66 1798.2 1870.13 1798.2C1870.42 1799.66 1870.57 1801.09 1870.57 1802.51 1870.57 1803.97 1870.32 1805.3 1869.82 1806.51 1869.32 1807.72 1868.52 1808.92 1867.43 1810.12 1866.33 1811.32 1864.83 1812.64 1862.91 1814.07L1861.22 1812.17C1862.29 1811.17 1863.06 1810.27 1863.54 1809.46 1864.02 1808.66 1864.36 1807.75 1864.57 1806.73 1864.78 1805.71 1864.88 1804.43 1864.88 1802.89 1864.88 1801.3 1864.81 1799.74 1864.66 1798.2Z" fill="#275317" fill-rule="evenodd"/><text fill="#000000" fill-opacity="0" font-family="Arial,Arial_MSFontService,sans-serif" font-size="15.875" x="1861.22" y="1812.09">,</text><path d="M1896.57 1767.85 1900.88 1767.85 1899.17 1775.57 1908.67 1775.57 1907.98 1778.73 1898.48 1778.73 1895.7 1790.85C1895.15 1793.21 1894.81 1794.9 1894.67 1795.93 1894.52 1796.96 1894.45 1797.79 1894.45 1798.42 1894.45 1801 1895.52 1802.29 1897.67 1802.29 1898.58 1802.29 1899.56 1801.94 1900.59 1801.24 1901.62 1800.55 1902.84 1799.35 1904.26 1797.67L1906.07 1799.54C1904.26 1801.73 1902.51 1803.34 1900.84 1804.39 1899.16 1805.43 1897.4 1805.95 1895.57 1805.95 1891.22 1805.95 1889.04 1803.75 1889.04 1799.35 1889.04 1797.96 1889.22 1796.49 1889.57 1794.95L1893.26 1778.73 1888.01 1778.73 1888.48 1776.57C1889.71 1776.55 1890.64 1776.46 1891.27 1776.29 1891.91 1776.12 1892.44 1775.9 1892.87 1775.6 1893.3 1775.31 1893.69 1774.9 1894.04 1774.35 1894.39 1773.81 1894.74 1773.12 1895.07 1772.28 1895.4 1771.43 1895.9 1769.96 1896.57 1767.85Z" fill-rule="evenodd"/><text fill="#000000" fill-opacity="0" font-family="Arial,Arial_MSFontService,sans-serif" font-size="38.0938" x="1888.01" y="1801.19">๐ก</text><path d="M1963.01 1765.54C1961.72 1765.54 1960.37 1765.57 1958.95 1765.64L1954.7 1784.57 1957.95 1784.57C1960.47 1784.57 1962.51 1784.31 1964.06 1783.79 1965.61 1783.27 1966.88 1782.46 1967.87 1781.37 1968.86 1780.28 1969.63 1778.98 1970.17 1777.48 1970.71 1775.98 1970.98 1774.33 1970.98 1772.54 1970.98 1770.12 1970.37 1768.35 1969.14 1767.23 1967.91 1766.1 1965.87 1765.54 1963.01 1765.54ZM1949.92 1762.79 1963.7 1762.79C1966.18 1762.79 1968.21 1762.98 1969.81 1763.37 1971.4 1763.75 1972.71 1764.35 1973.75 1765.15 1974.78 1765.95 1975.55 1766.97 1976.06 1768.2 1976.57 1769.43 1976.82 1770.85 1976.82 1772.48 1976.82 1775.6 1976.08 1778.31 1974.6 1780.6 1973.13 1782.9 1971.12 1784.58 1968.59 1785.67 1966.06 1786.75 1963.02 1787.29 1959.48 1787.29 1957.35 1787.29 1955.58 1787.25 1954.17 1787.17L1952.17 1796.35C1951.98 1797.21 1951.85 1797.86 1951.78 1798.32 1951.7 1798.78 1951.64 1799.28 1951.59 1799.81 1951.54 1800.34 1951.51 1800.81 1951.51 1801.23 1951.51 1801.87 1951.62 1802.38 1951.82 1802.74 1952.03 1803.11 1952.34 1803.37 1952.76 1803.54 1953.18 1803.71 1953.9 1803.83 1954.92 1803.92L1954.57 1805.45 1941.73 1805.45 1942.07 1803.92C1942.87 1803.79 1943.46 1803.59 1943.85 1803.31 1944.25 1803.03 1944.58 1802.64 1944.85 1802.14 1945.13 1801.64 1945.38 1801.03 1945.6 1800.31 1945.83 1799.59 1946.18 1798.2 1946.64 1796.14L1951.95 1772.07C1952.41 1769.99 1952.64 1768.34 1952.64 1767.14 1952.64 1766.11 1952.4 1765.41 1951.92 1765.01 1951.44 1764.61 1950.66 1764.39 1949.57 1764.32Z" fill="#215F9A" fill-rule="evenodd"/><text fill="#000000" fill-opacity="0" font-family="Arial,Arial_MSFontService,sans-serif" font-size="42.6562" x="1941.73" y="1800.12">๐</text><path d="M1962.46 1750.13 1966.64 1750.13 1977.58 1758.04 1976.36 1759.82 1964.89 1754.16 1964.55 1754.16 1952.83 1759.82 1951.61 1758.04Z" fill="#215F9A" fill-rule="evenodd"/><text fill="#000000" fill-opacity="0" font-family="Arial,Arial_MSFontService,sans-serif" font-size="9.6875" x="1951.61" y="1758.61">เท</text><path d="M2031.54 1686.15C2033.13 1686.15 2034.49 1686.33 2035.62 1686.69 2036.74 1687.05 2037.66 1687.53 2038.36 1688.14 2039.06 1688.76 2039.57 1689.49 2039.88 1690.35 2040.2 1691.2 2040.36 1692.13 2040.36 1693.12 2040.36 1693.72 2040.31 1694.27 2040.23 1694.79 2040.15 1695.3 2040 1695.8 2039.79 1696.3 2039.59 1696.8 2039.31 1697.3 2038.98 1697.81 2038.64 1698.31 2038.22 1698.85 2037.72 1699.41 2037.33 1699.9 2036.84 1700.47 2036.22 1701.11 2035.61 1701.75 2034.94 1702.44 2034.22 1703.18 2033.49 1703.91 2032.73 1704.67 2031.93 1705.47 2031.14 1706.27 2030.36 1707.05 2029.62 1707.83 2028.87 1708.61 2028.18 1709.37 2027.55 1710.11 2026.92 1710.84 2026.41 1711.51 2026.01 1712.13L2034.5 1712.13C2035.22 1712.13 2035.8 1712.1 2036.22 1712.05 2036.65 1711.99 2037.01 1711.87 2037.29 1711.69 2037.57 1711.51 2037.82 1711.23 2038.01 1710.85 2038.21 1710.48 2038.44 1709.96 2038.7 1709.3L2040.84 1709.3C2040.76 1710.39 2040.69 1711.48 2040.62 1712.58 2040.55 1713.69 2040.48 1714.78 2040.4 1715.87L2020.96 1715.87 2020.96 1714.67C2021.33 1713.85 2021.76 1713.03 2022.25 1712.23 2022.74 1711.43 2023.29 1710.61 2023.9 1709.78 2024.51 1708.96 2025.21 1708.11 2025.99 1707.23 2026.77 1706.35 2027.63 1705.43 2028.58 1704.48 2030.02 1703.05 2031.19 1701.82 2032.09 1700.8 2033 1699.78 2033.71 1698.88 2034.23 1698.08 2034.75 1697.29 2035.1 1696.55 2035.3 1695.88 2035.49 1695.2 2035.58 1694.49 2035.58 1693.72 2035.58 1692.94 2035.47 1692.22 2035.25 1691.56 2035.03 1690.91 2034.71 1690.35 2034.3 1689.89 2033.88 1689.43 2033.36 1689.07 2032.72 1688.81 2032.09 1688.55 2031.36 1688.42 2030.53 1688.42 2029.11 1688.42 2027.92 1688.81 2026.95 1689.58 2025.99 1690.35 2025.24 1691.47 2024.7 1692.94L2021.7 1692.94 2021.7 1688.46C2023.66 1687.65 2025.46 1687.07 2027.1 1686.7 2028.75 1686.33 2030.23 1686.15 2031.54 1686.15Z" fill-rule="evenodd"/><text fill="#000000" fill-opacity="0" font-family="Arial,Arial_MSFontService,sans-serif" font-size="29.7192" x="2020.96" y="1712.15">2</text><path d="M1525.81 1826.33C1526.65 1826.33 1527.39 1826.37 1528.03 1826.45 1528.68 1826.54 1529.3 1826.64 1529.89 1826.76L1528.95 1831.03 1526.68 1831.03C1526.57 1830.16 1526.31 1829.52 1525.9 1829.11 1525.49 1828.71 1524.94 1828.51 1524.25 1828.51 1523.45 1828.51 1522.78 1828.68 1522.24 1829.02 1521.7 1829.37 1521.22 1829.89 1520.82 1830.58 1520.41 1831.28 1520.06 1832.09 1519.77 1833.03 1519.48 1833.96 1519.28 1834.77 1519.18 1835.46L1525.53 1835.46 1525.03 1838.01 1518.65 1838.01 1514.49 1857.67C1513.78 1861.02 1512.61 1863.51 1510.99 1865.12 1509.38 1866.73 1507.23 1867.54 1504.53 1867.54 1503.83 1867.54 1503.32 1867.5 1503 1867.4 1503.09 1867.02 1503.17 1866.63 1503.25 1866.22 1503.33 1865.82 1503.42 1865.42 1503.52 1865.04 1503.62 1865.07 1503.75 1865.09 1503.91 1865.09 1504.08 1865.09 1504.32 1865.09 1504.63 1865.09 1505.22 1865.09 1505.77 1864.99 1506.27 1864.8 1506.76 1864.61 1507.22 1864.26 1507.63 1863.77 1508.05 1863.27 1508.42 1862.59 1508.77 1861.72 1509.11 1860.86 1509.44 1859.75 1509.74 1858.39L1514.33 1838.01 1510.39 1838.01 1510.8 1836.24C1511.64 1836.19 1512.31 1836.14 1512.81 1836.08 1513.3 1836.02 1513.73 1835.88 1514.07 1835.68 1514.41 1835.47 1514.67 1835.12 1514.84 1834.63 1515.73 1831.83 1517.06 1829.75 1518.84 1828.38 1520.63 1827.01 1522.95 1826.33 1525.81 1826.33Z" fill-rule="evenodd"/><text fill="#000000" fill-opacity="0" font-family="Arial,Arial_MSFontService,sans-serif" font-size="41.2168" x="1503" y="1862.39">๐</text><path d="M1210.2 1888.3C1212.02 1888.3 1213.6 1888.81 1214.95 1889.83 1216.31 1890.85 1217.5 1892.36 1218.55 1894.36L1213.73 1896.45C1212.73 1894.41 1211.87 1893 1211.14 1892.22 1210.41 1891.44 1209.5 1891.05 1208.42 1891.05 1207.84 1891.05 1207.3 1891.15 1206.8 1891.36 1206.3 1891.57 1205.84 1891.98 1205.42 1892.59 1205 1893.21 1204.65 1894.03 1204.36 1895.05 1204.07 1896.07 1203.67 1897.77 1203.17 1900.14L1200.98 1910.49C1200.65 1912.05 1200.28 1913.42 1199.86 1914.61 1199.44 1915.8 1198.96 1916.92 1198.41 1917.99 1197.85 1919.05 1197.27 1919.99 1196.66 1920.81 1196.04 1921.64 1195.34 1922.46 1194.55 1923.3L1194.55 1923.61C1195.86 1923.61 1197.16 1923.76 1198.44 1924.05 1199.72 1924.34 1200.98 1924.71 1202.23 1925.17 1203.5 1925.65 1204.72 1926.03 1205.87 1926.31 1207.03 1926.59 1208.17 1926.74 1209.3 1926.74 1210.53 1926.74 1211.57 1926.57 1212.42 1926.24 1213.28 1925.9 1214.11 1925.33 1214.94 1924.52 1215.76 1923.7 1216.86 1922.25 1218.23 1920.14L1220.61 1921.7C1218.09 1925.6 1215.93 1928.28 1214.12 1929.75 1212.32 1931.22 1210.5 1931.95 1208.67 1931.95 1207.11 1931.95 1205.63 1931.79 1204.25 1931.45 1202.86 1931.12 1201.5 1930.67 1200.17 1930.11 1198.67 1929.51 1197.37 1929.05 1196.28 1928.75 1195.19 1928.45 1194.07 1928.3 1192.92 1928.3 1191.67 1928.3 1190.48 1928.53 1189.34 1929 1188.21 1929.47 1186.59 1930.45 1184.48 1931.95L1182.83 1929.89C1185.43 1927.54 1187.63 1925.93 1189.42 1925.08 1191.73 1922.87 1193.41 1919.37 1194.45 1914.58L1197.45 1900.77C1197.99 1898.27 1198.65 1896.26 1199.42 1894.74 1200.19 1893.21 1201.11 1892.03 1202.17 1891.19 1203.23 1890.34 1204.41 1889.65 1205.7 1889.11 1206.99 1888.57 1208.49 1888.3 1210.2 1888.3Z" fill-rule="evenodd"/><text fill="#000000" fill-opacity="0" font-family="Arial,Arial_MSFontService,sans-serif" font-size="43.6562" x="1182.83" y="1926.5">โ</text><path d="M1245.17 1917.58 1283.67 1917.58 1283.67 1921.74 1245.17 1921.74ZM1245.17 1904.61 1283.67 1904.61 1283.67 1908.77 1245.17 1908.77Z" fill-rule="evenodd"/><text fill="#000000" fill-opacity="0" font-family="Arial,Arial_MSFontService,sans-serif" font-size="17.125" x="1245.17" y="1919.59">=</text><path d="M1333.84 1888.3C1335.65 1888.3 1337.23 1888.81 1338.59 1889.83 1339.94 1890.85 1341.14 1892.36 1342.18 1894.36L1337.37 1896.45C1336.37 1894.41 1335.5 1893 1334.78 1892.22 1334.05 1891.44 1333.14 1891.05 1332.06 1891.05 1331.47 1891.05 1330.93 1891.15 1330.43 1891.36 1329.93 1891.57 1329.47 1891.98 1329.06 1892.59 1328.64 1893.21 1328.29 1894.03 1327.99 1895.05 1327.7 1896.07 1327.31 1897.77 1326.81 1900.14L1324.62 1910.49C1324.29 1912.05 1323.91 1913.42 1323.49 1914.61 1323.08 1915.8 1322.59 1916.92 1322.04 1917.99 1321.49 1919.05 1320.91 1919.99 1320.29 1920.81 1319.68 1921.64 1318.97 1922.46 1318.18 1923.3L1318.18 1923.61C1319.49 1923.61 1320.79 1923.76 1322.07 1924.05 1323.35 1924.34 1324.62 1924.71 1325.87 1925.17 1327.14 1925.65 1328.35 1926.03 1329.51 1926.31 1330.67 1926.59 1331.81 1926.74 1332.93 1926.74 1334.16 1926.74 1335.2 1926.57 1336.06 1926.24 1336.91 1925.9 1337.75 1925.33 1338.57 1924.52 1339.4 1923.7 1340.49 1922.25 1341.87 1920.14L1344.24 1921.7C1341.72 1925.6 1339.56 1928.28 1337.76 1929.75 1335.96 1931.22 1334.14 1931.95 1332.31 1931.95 1330.74 1931.95 1329.27 1931.79 1327.88 1931.45 1326.5 1931.12 1325.14 1930.67 1323.81 1930.11 1322.31 1929.51 1321.01 1929.05 1319.92 1928.75 1318.82 1928.45 1317.7 1928.3 1316.56 1928.3 1315.31 1928.3 1314.11 1928.53 1312.98 1929 1311.84 1929.47 1310.22 1930.45 1308.12 1931.95L1306.46 1929.89C1309.07 1927.54 1311.27 1925.93 1313.06 1925.08 1315.37 1922.87 1317.05 1919.37 1318.09 1914.58L1321.09 1900.77C1321.63 1898.27 1322.29 1896.26 1323.06 1894.74 1323.83 1893.21 1324.74 1892.03 1325.81 1891.19 1326.87 1890.34 1328.05 1889.65 1329.34 1889.11 1330.63 1888.57 1332.13 1888.3 1333.84 1888.3Z" fill-rule="evenodd"/><text fill="#000000" fill-opacity="0" font-family="Arial,Arial_MSFontService,sans-serif" font-size="43.6562" x="1306.46" y="1926.5">โ</text><path d="M1354.26 1921.11C1355.36 1921.11 1356.24 1921.48 1356.9 1922.22 1357.55 1922.96 1357.88 1923.95 1357.88 1925.19 1357.88 1925.87 1357.82 1926.62 1357.7 1927.44 1357.58 1928.27 1357.37 1929.19 1357.08 1930.22 1356.5 1932.32 1356.04 1934.15 1355.7 1935.73 1355.37 1937.3 1355.2 1938.46 1355.2 1939.19 1355.2 1940.11 1355.38 1940.79 1355.74 1941.25 1356.1 1941.7 1356.67 1941.92 1357.47 1941.92 1358.19 1941.92 1358.96 1941.66 1359.78 1941.12 1360.59 1940.58 1361.38 1939.89 1362.13 1939.04 1362.88 1938.19 1363.55 1937.25 1364.14 1936.2 1364.72 1935.15 1365.16 1934.11 1365.43 1933.09L1367.96 1921.59 1372.48 1921.59 1368.94 1936.58C1368.76 1937.36 1368.63 1938.05 1368.55 1938.66 1368.48 1939.28 1368.44 1939.8 1368.44 1940.22 1368.44 1940.81 1368.55 1941.23 1368.76 1941.49 1368.97 1941.75 1369.32 1941.88 1369.79 1941.88 1370.08 1941.88 1370.37 1941.82 1370.64 1941.72 1370.92 1941.61 1371.21 1941.44 1371.53 1941.21 1371.84 1940.98 1372.18 1940.69 1372.55 1940.33 1372.91 1939.97 1373.33 1939.54 1373.79 1939.03L1375.37 1940.55C1374.6 1941.33 1373.9 1942 1373.26 1942.55 1372.62 1943.11 1372 1943.57 1371.42 1943.93 1370.84 1944.29 1370.26 1944.55 1369.69 1944.71 1369.12 1944.87 1368.52 1944.95 1367.91 1944.95 1366.81 1944.95 1365.95 1944.6 1365.33 1943.89 1364.71 1943.17 1364.4 1942.2 1364.4 1940.96 1364.4 1940.64 1364.42 1940.31 1364.47 1939.98 1364.51 1939.65 1364.6 1939.34 1364.72 1939.03L1364.45 1938.94C1362.93 1940.94 1361.46 1942.45 1360.03 1943.45 1358.6 1944.45 1357.11 1944.95 1355.56 1944.95 1353.94 1944.95 1352.72 1944.52 1351.9 1943.67 1351.09 1942.81 1350.68 1941.58 1350.68 1939.97 1350.68 1939.56 1350.75 1938.99 1350.89 1938.25 1351.04 1937.52 1351.22 1936.7 1351.43 1935.8 1351.65 1934.89 1351.88 1933.95 1352.12 1932.96 1352.37 1931.97 1352.6 1931.03 1352.81 1930.12 1353.02 1929.21 1353.2 1928.38 1353.35 1927.64 1353.5 1926.9 1353.57 1926.32 1353.57 1925.9 1353.57 1924.79 1353.11 1924.23 1352.19 1924.23 1351.9 1924.23 1351.62 1924.29 1351.34 1924.4 1351.07 1924.52 1350.77 1924.69 1350.46 1924.92 1350.14 1925.15 1349.8 1925.44 1349.44 1925.79 1349.07 1926.14 1348.66 1926.55 1348.2 1927.03L1346.64 1925.54C1347.46 1924.71 1348.2 1924.02 1348.85 1923.45 1349.5 1922.88 1350.12 1922.43 1350.7 1922.08 1351.28 1921.74 1351.85 1921.49 1352.42 1921.34 1352.99 1921.18 1353.6 1921.11 1354.26 1921.11Z" fill-rule="evenodd"/><text fill="#000000" fill-opacity="0" font-family="Arial,Arial_MSFontService,sans-serif" font-size="23.8442" x="1346.64" y="1941.97">๐ข</text><path d="M1415.55 1893.08 1419.99 1893.08 1419.99 1911.08 1437.02 1911.08 1437.02 1915.24 1419.99 1915.24 1419.99 1933.24 1415.55 1933.24 1415.55 1915.24 1398.52 1915.24 1398.52 1911.08 1415.55 1911.08Z" fill-rule="evenodd"/><text fill="#000000" fill-opacity="0" font-family="Arial,Arial_MSFontService,sans-serif" font-size="40.1562" x="1398.52" y="1928.22">+</text><path d="M1483.62 1888.3C1485.43 1888.3 1487.02 1888.81 1488.37 1889.83 1489.73 1890.85 1490.92 1892.36 1491.97 1894.36L1487.15 1896.45C1486.15 1894.41 1485.29 1893 1484.56 1892.22 1483.83 1891.44 1482.92 1891.05 1481.84 1891.05 1481.26 1891.05 1480.72 1891.15 1480.22 1891.36 1479.72 1891.57 1479.26 1891.98 1478.84 1892.59 1478.42 1893.21 1478.07 1894.03 1477.78 1895.05 1477.49 1896.07 1477.09 1897.77 1476.59 1900.14L1474.4 1910.49C1474.07 1912.05 1473.69 1913.42 1473.28 1914.61 1472.86 1915.8 1472.38 1916.92 1471.82 1917.99 1471.27 1919.05 1470.69 1919.99 1470.07 1920.81 1469.46 1921.64 1468.76 1922.46 1467.97 1923.3L1467.97 1923.61C1469.28 1923.61 1470.57 1923.76 1471.86 1924.05 1473.14 1924.34 1474.4 1924.71 1475.65 1925.17 1476.92 1925.65 1478.14 1926.03 1479.29 1926.31 1480.45 1926.59 1481.59 1926.74 1482.72 1926.74 1483.94 1926.74 1484.99 1926.57 1485.84 1926.24 1486.69 1925.9 1487.53 1925.33 1488.36 1924.52 1489.18 1923.7 1490.28 1922.25 1491.65 1920.14L1494.03 1921.7C1491.51 1925.6 1489.35 1928.28 1487.54 1929.75 1485.74 1931.22 1483.92 1931.95 1482.09 1931.95 1480.53 1931.95 1479.05 1931.79 1477.67 1931.45 1476.28 1931.12 1474.92 1930.67 1473.59 1930.11 1472.09 1929.51 1470.79 1929.05 1469.7 1928.75 1468.61 1928.45 1467.49 1928.3 1466.34 1928.3 1465.09 1928.3 1463.9 1928.53 1462.76 1929 1461.63 1929.47 1460.01 1930.45 1457.9 1931.95L1456.25 1929.89C1458.85 1927.54 1461.05 1925.93 1462.84 1925.08 1465.15 1922.87 1466.83 1919.37 1467.87 1914.58L1470.87 1900.77C1471.41 1898.27 1472.07 1896.26 1472.84 1894.74 1473.61 1893.21 1474.53 1892.03 1475.59 1891.19 1476.65 1890.34 1477.83 1889.65 1479.12 1889.11 1480.41 1888.57 1481.91 1888.3 1483.62 1888.3Z" fill-rule="evenodd"/><text fill="#000000" fill-opacity="0" font-family="Arial,Arial_MSFontService,sans-serif" font-size="43.6562" x="1456.25" y="1926.5">โ</text><path d="M1514.69 1924.18C1513.75 1924.18 1512.89 1924.46 1512.11 1925.02 1511.32 1925.58 1510.47 1926.38 1509.57 1927.42 1509.16 1927.91 1508.77 1928.39 1508.42 1928.86 1508.07 1929.34 1507.75 1929.86 1507.47 1930.41 1507.19 1930.97 1506.94 1931.59 1506.71 1932.27 1506.49 1932.95 1506.3 1933.74 1506.13 1934.63 1505.91 1935.68 1505.75 1936.57 1505.62 1937.29 1505.5 1938.01 1505.44 1938.69 1505.44 1939.33 1505.44 1940.57 1505.73 1941.44 1506.3 1941.96 1506.87 1942.47 1507.8 1942.73 1509.07 1942.73 1509.95 1942.73 1510.78 1942.53 1511.56 1942.14 1512.33 1941.75 1513.03 1941.22 1513.66 1940.55 1514.28 1939.87 1514.84 1939.09 1515.33 1938.19 1515.82 1937.3 1516.23 1936.34 1516.56 1935.33 1516.89 1934.31 1517.14 1933.26 1517.32 1932.19 1517.49 1931.12 1517.58 1930.08 1517.58 1929.07 1517.58 1927.43 1517.35 1926.21 1516.9 1925.4 1516.45 1924.59 1515.71 1924.18 1514.69 1924.18ZM1504.04 1921.11C1505.16 1921.11 1506.02 1921.48 1506.64 1922.22 1507.26 1922.96 1507.57 1923.94 1507.57 1925.15 1507.57 1925.5 1507.55 1925.84 1507.49 1926.16 1507.44 1926.48 1507.34 1926.8 1507.21 1927.12L1507.53 1927.28C1509.03 1925.19 1510.5 1923.63 1511.95 1922.62 1513.39 1921.61 1514.91 1921.11 1516.5 1921.11 1518.32 1921.11 1519.72 1921.77 1520.69 1923.08 1521.66 1924.4 1522.15 1926.32 1522.15 1928.84 1522.15 1931.05 1521.81 1933.12 1521.13 1935.07 1520.44 1937.02 1519.52 1938.73 1518.36 1940.2 1517.2 1941.67 1515.85 1942.83 1514.31 1943.68 1512.77 1944.53 1511.15 1944.95 1509.43 1944.95 1508.24 1944.95 1507.2 1944.83 1506.32 1944.6 1505.44 1944.36 1504.71 1944.07 1504.13 1943.74 1503.99 1944.33 1503.84 1944.95 1503.68 1945.59 1503.52 1946.24 1503.37 1946.86 1503.22 1947.45 1503.08 1948.05 1502.96 1948.6 1502.87 1949.11 1502.78 1949.61 1502.73 1950.02 1502.73 1950.32 1502.73 1950.6 1502.77 1950.83 1502.86 1951.01 1502.94 1951.19 1503.09 1951.35 1503.32 1951.47 1503.54 1951.59 1503.83 1951.69 1504.2 1951.76 1504.57 1951.83 1505.03 1951.88 1505.58 1951.93L1505.51 1953.44 1497.43 1953.44 1503.03 1929.53C1503.21 1928.69 1503.34 1927.99 1503.42 1927.42 1503.5 1926.85 1503.53 1926.35 1503.53 1925.9 1503.53 1924.79 1503.08 1924.23 1502.18 1924.23 1501.91 1924.23 1501.63 1924.29 1501.35 1924.4 1501.08 1924.52 1500.78 1924.69 1500.47 1924.92 1500.16 1925.15 1499.81 1925.44 1499.44 1925.79 1499.06 1926.14 1498.65 1926.55 1498.19 1927.03L1496.6 1925.54C1497.37 1924.77 1498.07 1924.11 1498.7 1923.55 1499.34 1922.99 1499.95 1922.53 1500.54 1922.18 1501.13 1921.82 1501.7 1921.55 1502.26 1921.37 1502.82 1921.2 1503.41 1921.11 1504.04 1921.11Z" fill-rule="evenodd"/><text fill="#000000" fill-opacity="0" font-family="Arial,Arial_MSFontService,sans-serif" font-size="32.3354" x="1496.6" y="1949.4">๐</text><path d="M0 3.4375-82.4991 3.4375-79.0616 0-79.0616 189.92-82.4991 186.482 352.08 186.482 352.08 205.47 345.205 205.47 345.205 189.92 348.643 193.357-85.9366 193.357-85.9366-3.4375 0-3.4375ZM362.393 200.887 348.643 228.387 334.893 200.887Z" transform="matrix(1 -1.22465e-16 -1.22465e-16 -1 314.5 1814.89)"/><rect x="1512.5" y="1160.5" width="567" height="427" stroke="#052909" stroke-width="6.875" stroke-miterlimit="8" fill="#196B24"/><path d="M1717.17 1342.66 1730.1 1342.66 1740.8 1374.23C1742.34 1378.77 1743.53 1382.61 1744.37 1385.74L1744.81 1385.74C1745.03 1384.1 1745.52 1381.35 1746.29 1377.52 1747.06 1373.68 1747.77 1370.33 1748.42 1367.47L1751.26 1354.7C1751.85 1352.03 1752.15 1349.85 1752.15 1348.18 1752.15 1346.91 1751.83 1346.02 1751.2 1345.52 1750.56 1345.02 1749.55 1344.73 1748.18 1344.65L1748.62 1342.66 1762.81 1342.66 1762.36 1344.65C1761.33 1344.87 1760.6 1345.11 1760.15 1345.38 1759.71 1345.65 1759.31 1346.05 1758.96 1346.6 1758.61 1347.14 1758.24 1347.98 1757.86 1349.13 1757.48 1350.28 1757.01 1352.15 1756.44 1354.74L1746.92 1397.98 1741.41 1397.98 1729.57 1363.21C1728.14 1359.05 1726.89 1354.9 1725.81 1350.77L1725.28 1350.77C1725.12 1352.15 1724.67 1354.77 1723.94 1358.65 1723.21 1362.53 1722.44 1366.32 1721.63 1370.02L1718.06 1386.19C1717.5 1388.76 1717.21 1390.86 1717.21 1392.51 1717.21 1393.73 1717.52 1394.59 1718.13 1395.09 1718.73 1395.59 1719.75 1395.89 1721.19 1396L1720.74 1397.98 1706.56 1397.98 1707 1396C1708.03 1395.84 1708.8 1395.57 1709.31 1395.21 1709.82 1394.84 1710.26 1394.34 1710.61 1393.69 1710.96 1393.04 1711.28 1392.25 1711.58 1391.32 1711.88 1390.38 1712.32 1388.58 1712.92 1385.91L1719.81 1354.7C1720.08 1353.54 1720.29 1352.43 1720.46 1351.38 1720.62 1350.32 1720.7 1349.26 1720.7 1348.18 1720.7 1346.91 1720.38 1346.02 1719.75 1345.52 1719.11 1345.02 1718.11 1344.73 1716.73 1344.65Z" fill="#FFFFFF" fill-rule="evenodd"/><text fill="#000000" fill-opacity="0" font-family="Arial,Arial_MSFontService,sans-serif" font-size="55.3198" x="1706.56" y="1391.07">๐</text><path d="M1779.35 1342.66 1792.27 1342.66 1802.97 1374.23C1804.51 1378.77 1805.7 1382.61 1806.54 1385.74L1806.99 1385.74C1807.2 1384.1 1807.7 1381.35 1808.47 1377.52 1809.24 1373.68 1809.94 1370.33 1810.59 1367.47L1813.43 1354.7C1814.02 1352.03 1814.32 1349.85 1814.32 1348.18 1814.32 1346.91 1814 1346.02 1813.37 1345.52 1812.73 1345.02 1811.73 1344.73 1810.35 1344.65L1810.8 1342.66 1824.98 1342.66 1824.53 1344.65C1823.51 1344.87 1822.77 1345.11 1822.33 1345.38 1821.88 1345.65 1821.48 1346.05 1821.13 1346.6 1820.78 1347.14 1820.41 1347.98 1820.04 1349.13 1819.66 1350.28 1819.18 1352.15 1818.62 1354.74L1809.09 1397.98 1803.58 1397.98 1791.75 1363.21C1790.32 1359.05 1789.06 1354.9 1787.98 1350.77L1787.45 1350.77C1787.29 1352.15 1786.84 1354.77 1786.11 1358.65 1785.38 1362.53 1784.61 1366.32 1783.8 1370.02L1780.24 1386.19C1779.67 1388.76 1779.39 1390.86 1779.39 1392.51 1779.39 1393.73 1779.69 1394.59 1780.3 1395.09 1780.91 1395.59 1781.93 1395.89 1783.36 1396L1782.91 1397.98 1768.73 1397.98 1769.17 1396C1770.2 1395.84 1770.97 1395.57 1771.48 1395.21 1772 1394.84 1772.43 1394.34 1772.78 1393.69 1773.13 1393.04 1773.46 1392.25 1773.75 1391.32 1774.05 1390.38 1774.5 1388.58 1775.09 1385.91L1781.98 1354.7C1782.25 1353.54 1782.47 1352.43 1782.63 1351.38 1782.79 1350.32 1782.87 1349.26 1782.87 1348.18 1782.87 1346.91 1782.55 1346.02 1781.92 1345.52 1781.28 1345.02 1780.28 1344.73 1778.9 1344.65Z" fill="#FFFFFF" fill-rule="evenodd"/><text fill="#000000" fill-opacity="0" font-family="Arial,Arial_MSFontService,sans-serif" font-size="55.3198" x="1768.73" y="1391.07">๐</text><path d="M1852.51 1387.54C1851.28 1387.54 1850.24 1387.91 1849.41 1388.63 1848.58 1389.36 1847.89 1390.26 1847.34 1391.36 1846.79 1392.45 1846.35 1393.64 1846 1394.92 1845.65 1396.2 1845.36 1397.4 1845.12 1398.54L1841.96 1412.36C1844.39 1412.24 1846.5 1411.65 1848.31 1410.58 1850.11 1409.52 1851.62 1408.15 1852.82 1406.47 1854.02 1404.79 1854.92 1402.89 1855.52 1400.77 1856.11 1398.64 1856.41 1396.46 1856.41 1394.22 1856.41 1393.56 1856.37 1392.85 1856.3 1392.07 1856.24 1391.3 1856.07 1390.58 1855.81 1389.91 1855.56 1389.25 1855.17 1388.69 1854.65 1388.23 1854.14 1387.77 1853.42 1387.54 1852.51 1387.54ZM1837.5 1384.42 1839.4 1386.89C1836.11 1389.39 1833.58 1392.04 1831.84 1394.83 1830.09 1397.62 1829.22 1400.4 1829.22 1403.18 1829.22 1405.76 1829.82 1407.79 1831.03 1409.26 1832.24 1410.73 1834.11 1411.68 1836.63 1412.12L1839.64 1398.65C1840.18 1396.19 1840.9 1394.06 1841.81 1392.27 1842.73 1390.47 1843.78 1388.99 1844.96 1387.83 1846.14 1386.67 1847.42 1385.81 1848.81 1385.25 1850.2 1384.69 1851.64 1384.42 1853.13 1384.42 1856.13 1384.42 1858.39 1385.31 1859.91 1387.1 1861.43 1388.88 1862.19 1391.4 1862.19 1394.63 1862.19 1397.53 1861.71 1400.24 1860.74 1402.75 1859.78 1405.26 1858.39 1407.45 1856.59 1409.3 1854.78 1411.16 1852.6 1412.62 1850.04 1413.68 1847.47 1414.74 1844.6 1415.28 1841.43 1415.3L1838.66 1427.58 1833.09 1427.58 1835.95 1415.13C1833.94 1414.87 1832.15 1414.41 1830.59 1413.74 1829.02 1413.08 1827.7 1412.23 1826.62 1411.19 1825.55 1410.16 1824.73 1408.95 1824.17 1407.56 1823.6 1406.17 1823.32 1404.61 1823.32 1402.88 1823.32 1399.57 1824.51 1396.38 1826.91 1393.31 1829.3 1390.24 1832.83 1387.28 1837.5 1384.42Z" fill="#FFFFFF" fill-rule="evenodd"/><text fill="#000000" fill-opacity="0" font-family="Arial,Arial_MSFontService,sans-serif" font-size="43.1587" x="1823.32" y="1422.18">๐</text><path d="M0-3.4375 117.541-3.4375 117.541 148.488 114.103 145.051 379.661 145.051 376.223 148.488 376.223 111.736 383.098 111.736 383.098 151.926 110.666 151.926 110.666 0 114.103 3.4375 0 3.4375ZM365.911 116.319 379.661 88.8189 393.411 116.319Z" transform="matrix(1.83697e-16 1 1 -1.83697e-16 2322.5 1435.5)"/><path d="M0 3.4375-82.4928 3.4375-79.0553 0-79.0553 189.408-82.4928 185.97 1484.72 185.97 1484.72 204.45 1477.85 204.45 1477.85 189.408 1481.28 192.845-85.9303 192.845-85.9303-3.4375 0-3.4375ZM1495.03 199.867 1481.28 227.367 1467.53 199.867Z" transform="matrix(1 -1.22465e-16 -1.22465e-16 -1 314.5 1814.87)"/><path d="M0.00921314-3.43749 81.3129-3.21958 81.2945 3.6554-0.00921314 3.43749ZM76.7573-13.5443 104.22 0.279331 76.6836 13.9556Z" transform="matrix(1 0 0 -1 2079.5 1374.78)"/><rect x="2183.5" y="1312.5" width="278" height="123" stroke="#1C440D" stroke-width="6.875" stroke-miterlimit="8" fill="#8ED973"/><path d="M2260.74 1361.71C2262.2 1361.71 2263.51 1361.88 2264.65 1362.22 2265.8 1362.56 2266.81 1363.08 2267.69 1363.78 2268.57 1364.48 2269.29 1365.36 2269.86 1366.4 2270.43 1367.44 2270.85 1368.69 2271.14 1370.14 2271.42 1371.6 2271.56 1373.45 2271.56 1375.7L2271.56 1390.98C2271.56 1392.84 2271.62 1394.19 2271.73 1395.03 2271.83 1395.87 2272.02 1396.51 2272.29 1396.97 2272.56 1397.43 2272.95 1397.82 2273.47 1398.13 2273.98 1398.44 2274.87 1398.77 2276.14 1399.12L2276.14 1401.11 2260.18 1401.11 2260.18 1399.12C2261.23 1398.8 2261.99 1398.51 2262.44 1398.27 2262.9 1398.03 2263.29 1397.69 2263.6 1397.26 2263.91 1396.83 2264.15 1396.16 2264.33 1395.25 2264.5 1394.35 2264.59 1392.98 2264.59 1391.14L2264.59 1380.52C2264.59 1378.63 2264.54 1376.91 2264.43 1375.37 2264.32 1373.83 2264.14 1372.57 2263.88 1371.58 2263.63 1370.6 2263.32 1369.83 2262.95 1369.27 2262.59 1368.72 2262.15 1368.25 2261.65 1367.85 2261.15 1367.46 2260.58 1367.15 2259.93 1366.92 2259.28 1366.69 2258.43 1366.58 2257.38 1366.58 2256.32 1366.58 2255.33 1366.79 2254.38 1367.21 2253.43 1367.63 2252.39 1368.35 2251.26 1369.37 2250.12 1370.4 2249.3 1371.41 2248.79 1372.41 2248.27 1373.41 2248.02 1374.56 2248.02 1375.86L2248.02 1390.98C2248.02 1393.3 2248.12 1394.91 2248.34 1395.82 2248.56 1396.72 2248.97 1397.41 2249.58 1397.89 2250.19 1398.36 2251.18 1398.77 2252.56 1399.12L2252.56 1401.11 2236.67 1401.11 2236.67 1399.12C2237.72 1398.8 2238.47 1398.51 2238.92 1398.27 2239.36 1398.03 2239.74 1397.69 2240.05 1397.26 2240.36 1396.83 2240.61 1396.16 2240.78 1395.27 2240.96 1394.38 2241.05 1392.99 2241.05 1391.1L2241.05 1373.43C2241.05 1371.7 2241.02 1370.31 2240.97 1369.25 2240.91 1368.2 2240.72 1367.35 2240.4 1366.72 2240.07 1366.09 2239.58 1365.61 2238.92 1365.3 2238.26 1364.99 2237.32 1364.73 2236.1 1364.51L2236.1 1362.36 2245.59 1362 2248.06 1362 2247.61 1368.6 2248.18 1368.77C2250.18 1366.74 2251.79 1365.29 2253.02 1364.43 2254.25 1363.57 2255.49 1362.9 2256.75 1362.42 2258.01 1361.95 2259.34 1361.71 2260.74 1361.71ZM2223.06 1343.11 2225.49 1343.11 2225.49 1390.98C2225.49 1393.3 2225.6 1394.91 2225.81 1395.82 2226.03 1396.72 2226.44 1397.41 2227.05 1397.89 2227.66 1398.36 2228.65 1398.77 2230.03 1399.12L2230.03 1401.11 2213.94 1401.11 2213.94 1399.12C2215.29 1398.77 2216.23 1398.41 2216.76 1398.03 2217.28 1397.65 2217.66 1397.2 2217.89 1396.67 2218.12 1396.14 2218.28 1395.43 2218.38 1394.52 2218.47 1393.62 2218.52 1392.43 2218.52 1390.98L2218.52 1357.05C2218.52 1354.46 2218.5 1352.65 2218.46 1351.62 2218.42 1350.6 2218.31 1349.73 2218.13 1349.01 2217.96 1348.29 2217.72 1347.73 2217.4 1347.33 2217.09 1346.92 2216.68 1346.6 2216.15 1346.36 2215.62 1346.11 2214.67 1345.87 2213.29 1345.63L2213.29 1343.52Z" fill="#FFFFFF" fill-rule="evenodd"/><text fill="#000000" fill-opacity="0" font-family="Arial,Arial_MSFontService,sans-serif" font-size="57.9946" x="2213.29" y="1393.86">ln</text><path d="M2310.73 1342.55 2311.82 1345.67C2305.5 1347.75 2300.82 1351.81 2297.78 1357.84 2294.74 1363.88 2293.22 1371.47 2293.22 1380.6 2293.22 1390.06 2294.74 1397.85 2297.78 1403.98 2300.82 1410.12 2305.46 1414.22 2311.7 1416.31L2310.73 1419.43C2302.81 1417.35 2296.75 1412.87 2292.53 1405.99 2288.32 1399.11 2286.21 1390.79 2286.21 1381.01 2286.21 1371.25 2288.32 1362.92 2292.55 1356.02 2296.78 1349.12 2302.84 1344.63 2310.73 1342.55Z" fill="#FFFFFF" fill-rule="evenodd"/><text fill="#000000" fill-opacity="0" font-family="Arial,Arial_MSFontService,sans-serif" font-size="76.8804" x="2286.21" y="1409.82">(</text><path d="M2353.7 1364.92C2351.51 1364.92 2349.64 1366.15 2348.08 1368.6 2346.53 1371.06 2345.16 1374.94 2343.97 1380.24L2339.84 1398.59C2343.67 1398.46 2346.98 1397.2 2349.76 1394.81 2352.55 1392.41 2354.7 1389.18 2356.21 1385.1 2357.72 1381.02 2358.48 1376.8 2358.48 1372.45 2358.48 1370.1 2358.07 1368.26 2357.24 1366.92 2356.42 1365.59 2355.24 1364.92 2353.7 1364.92ZM2334.97 1361.59 2337.08 1364.39C2333.11 1367.23 2329.95 1370.59 2327.6 1374.48 2325.25 1378.37 2324.07 1382.21 2324.07 1385.99 2324.07 1389.5 2324.85 1392.27 2326.42 1394.3 2327.99 1396.33 2330.35 1397.66 2333.51 1398.31L2337.65 1379.71C2339.02 1373.55 2341.21 1369 2344.19 1366.07 2347.18 1363.14 2350.55 1361.67 2354.3 1361.67 2358.01 1361.67 2360.79 1362.71 2362.65 1364.77 2364.52 1366.84 2365.45 1369.94 2365.45 1374.08 2365.45 1379.24 2364.37 1383.92 2362.23 1388.14 2360.08 1392.35 2357.02 1395.65 2353.05 1398.03 2349.08 1400.41 2344.46 1401.63 2339.19 1401.72L2335.38 1418.62 2329.01 1418.62 2332.82 1401.63C2327.8 1401.07 2323.93 1399.4 2321.21 1396.63 2318.5 1393.86 2317.14 1390.22 2317.14 1385.71 2317.14 1376.74 2323.08 1368.7 2334.97 1361.59Z" fill="#FFFFFF" fill-rule="evenodd"/><text fill="#000000" fill-opacity="0" font-family="Arial,Arial_MSFontService,sans-serif" font-size="57.022" x="2317.14" y="1411.49">๐</text><path d="M2344.88 1342.67 2350.31 1342.67 2364.09 1355.43 2361.9 1357.74 2347.59 1347.9 2347.15 1347.9 2332.6 1357.74 2330.41 1355.43Z" fill="#FFFFFF" fill-rule="evenodd"/><text fill="#000000" fill-opacity="0" font-family="Arial,Arial_MSFontService,sans-serif" font-size="15.0762" x="2330.41" y="1355.86">เท</text><path d="M2385.43 1342.55C2393.32 1344.63 2399.38 1349.12 2403.61 1356.02 2407.84 1362.92 2409.95 1371.25 2409.95 1381.01 2409.95 1390.79 2407.84 1399.11 2403.63 1405.99 2399.41 1412.87 2393.35 1417.35 2385.43 1419.43L2384.46 1416.31C2390.7 1414.22 2395.34 1410.12 2398.38 1403.98 2401.42 1397.85 2402.94 1390.06 2402.94 1380.6 2402.94 1371.47 2401.43 1363.88 2398.4 1357.84 2395.37 1351.81 2390.69 1347.75 2384.34 1345.67Z" fill="#FFFFFF" fill-rule="evenodd"/><text fill="#000000" fill-opacity="0" font-family="Arial,Arial_MSFontService,sans-serif" font-size="76.8804" x="2384.34" y="1409.82">)</text><rect x="1004.5" y="1311.5" width="236" height="121" stroke="#024059" stroke-width="6.875" stroke-miterlimit="8" fill="#0F9ED5"/><path d="M1068.44 1362.55C1069.9 1362.55 1071.21 1362.72 1072.35 1363.06 1073.5 1363.4 1074.52 1363.92 1075.39 1364.62 1076.27 1365.32 1077 1366.19 1077.56 1367.23 1078.13 1368.27 1078.56 1369.52 1078.84 1370.98 1079.12 1372.44 1079.26 1374.29 1079.26 1376.53L1079.26 1391.81C1079.26 1393.68 1079.32 1395.03 1079.43 1395.86 1079.53 1396.7 1079.72 1397.35 1079.99 1397.81 1080.26 1398.27 1080.66 1398.65 1081.17 1398.97 1081.68 1399.28 1082.57 1399.61 1083.84 1399.96L1083.84 1401.94 1067.88 1401.94 1067.88 1399.96C1068.93 1399.63 1069.69 1399.35 1070.15 1399.11 1070.61 1398.86 1070.99 1398.53 1071.3 1398.09 1071.61 1397.66 1071.85 1396.99 1072.03 1396.09 1072.21 1395.18 1072.29 1393.81 1072.29 1391.97L1072.29 1381.36C1072.29 1379.46 1072.24 1377.75 1072.13 1376.21 1072.02 1374.67 1071.84 1373.41 1071.58 1372.42 1071.33 1371.43 1071.02 1370.66 1070.65 1370.11 1070.29 1369.56 1069.86 1369.08 1069.36 1368.69 1068.86 1368.3 1068.28 1367.99 1067.63 1367.76 1066.98 1367.53 1066.13 1367.41 1065.08 1367.41 1064.03 1367.41 1063.03 1367.62 1062.08 1368.04 1061.14 1368.46 1060.1 1369.18 1058.96 1370.21 1057.83 1371.24 1057 1372.25 1056.49 1373.25 1055.97 1374.25 1055.72 1375.4 1055.72 1376.7L1055.72 1391.81C1055.72 1394.14 1055.83 1395.75 1056.04 1396.66 1056.26 1397.56 1056.67 1398.25 1057.28 1398.72 1057.89 1399.19 1058.88 1399.61 1060.26 1399.96L1060.26 1401.94 1044.37 1401.94 1044.37 1399.96C1045.42 1399.63 1046.17 1399.35 1046.62 1399.11 1047.07 1398.86 1047.44 1398.53 1047.75 1398.09 1048.07 1397.66 1048.31 1397 1048.48 1396.11 1048.66 1395.22 1048.75 1393.83 1048.75 1391.93L1048.75 1374.26C1048.75 1372.53 1048.72 1371.14 1048.67 1370.09 1048.61 1369.04 1048.42 1368.19 1048.1 1367.56 1047.77 1366.92 1047.28 1366.45 1046.62 1366.14 1045.96 1365.83 1045.02 1365.56 1043.8 1365.35L1043.8 1363.2 1053.29 1362.84 1055.76 1362.84 1055.31 1369.44 1055.88 1369.6C1057.88 1367.58 1059.49 1366.13 1060.72 1365.27 1061.95 1364.4 1063.2 1363.73 1064.45 1363.26 1065.71 1362.79 1067.04 1362.55 1068.44 1362.55ZM1030.76 1343.95 1033.19 1343.95 1033.19 1391.81C1033.19 1394.14 1033.3 1395.75 1033.52 1396.66 1033.73 1397.56 1034.14 1398.25 1034.75 1398.72 1035.36 1399.19 1036.35 1399.61 1037.73 1399.96L1037.73 1401.94 1021.64 1401.94 1021.64 1399.96C1022.99 1399.61 1023.93 1399.24 1024.46 1398.86 1024.98 1398.49 1025.36 1398.03 1025.59 1397.51 1025.82 1396.98 1025.98 1396.26 1026.08 1395.36 1026.17 1394.45 1026.22 1393.27 1026.22 1391.81L1026.22 1357.89C1026.22 1355.3 1026.2 1353.49 1026.16 1352.46 1026.12 1351.43 1026.01 1350.56 1025.84 1349.85 1025.66 1349.13 1025.42 1348.57 1025.11 1348.16 1024.8 1347.76 1024.38 1347.43 1023.85 1347.19 1023.32 1346.95 1022.37 1346.71 1020.99 1346.46L1020.99 1344.35Z" fill="#FFFFFF" fill-rule="evenodd"/><text fill="#000000" fill-opacity="0" font-family="Arial,Arial_MSFontService,sans-serif" font-size="57.9946" x="1020.99" y="1394.69">ln</text><path d="M1118.43 1343.38 1119.52 1346.5C1113.2 1348.58 1108.52 1352.64 1105.48 1358.68 1102.44 1364.72 1100.92 1372.31 1100.92 1381.44 1100.92 1390.89 1102.44 1398.69 1105.48 1404.82 1108.52 1410.95 1113.16 1415.06 1119.4 1417.14L1118.43 1420.26C1110.51 1418.18 1104.45 1413.7 1100.23 1406.83 1096.02 1399.95 1093.91 1391.62 1093.91 1381.84 1093.91 1372.09 1096.03 1363.76 1100.25 1356.86 1104.48 1349.95 1110.54 1345.46 1118.43 1343.38Z" fill="#FFFFFF" fill-rule="evenodd"/><text fill="#000000" fill-opacity="0" font-family="Arial,Arial_MSFontService,sans-serif" font-size="76.8804" x="1093.91" y="1410.65">(</text><path d="M1150.9 1350.19C1149.23 1350.19 1147.47 1350.23 1145.63 1350.31L1140.12 1374.87 1144.34 1374.87C1147.6 1374.87 1150.25 1374.53 1152.26 1373.86 1154.27 1373.18 1155.92 1372.14 1157.2 1370.72 1158.49 1369.3 1159.48 1367.62 1160.18 1365.67 1160.88 1363.73 1161.24 1361.59 1161.24 1359.27 1161.24 1356.13 1160.44 1353.84 1158.84 1352.38 1157.25 1350.92 1154.6 1350.19 1150.9 1350.19ZM1133.92 1346.62 1151.79 1346.62C1155.01 1346.62 1157.65 1346.87 1159.72 1347.37 1161.78 1347.87 1163.48 1348.64 1164.82 1349.68 1166.16 1350.72 1167.16 1352.04 1167.82 1353.64 1168.48 1355.23 1168.81 1357.08 1168.81 1359.19 1168.81 1363.24 1167.85 1366.75 1165.94 1369.72 1164.02 1372.7 1161.42 1374.89 1158.13 1376.29 1154.85 1377.7 1150.91 1378.4 1146.32 1378.4 1143.57 1378.4 1141.27 1378.34 1139.43 1378.24L1136.84 1390.15C1136.59 1391.26 1136.43 1392.11 1136.33 1392.7 1136.24 1393.3 1136.16 1393.94 1136.09 1394.63 1136.02 1395.32 1135.99 1395.93 1135.99 1396.47 1135.99 1397.31 1136.12 1397.97 1136.39 1398.44 1136.66 1398.91 1137.07 1399.26 1137.61 1399.47 1138.15 1399.69 1139.08 1399.85 1140.4 1399.96L1139.96 1401.94 1123.3 1401.94 1123.75 1399.96C1124.77 1399.8 1125.54 1399.53 1126.06 1399.17 1126.57 1398.8 1127 1398.3 1127.35 1397.65 1127.71 1397 1128.03 1396.21 1128.33 1395.28 1128.62 1394.35 1129.07 1392.54 1129.66 1389.87L1136.55 1358.66C1137.15 1355.96 1137.45 1353.82 1137.45 1352.26 1137.45 1350.93 1137.14 1350.02 1136.51 1349.5 1135.89 1348.99 1134.88 1348.69 1133.47 1348.61Z" fill="#FFFFFF" fill-rule="evenodd"/><text fill="#000000" fill-opacity="0" font-family="Arial,Arial_MSFontService,sans-serif" font-size="55.3198" x="1123.3" y="1395.03">๐</text><path d="M1176.63 1343.38C1184.52 1345.46 1190.58 1349.95 1194.81 1356.86 1199.04 1363.76 1201.15 1372.09 1201.15 1381.84 1201.15 1391.62 1199.04 1399.95 1194.83 1406.83 1190.61 1413.7 1184.55 1418.18 1176.63 1420.26L1175.66 1417.14C1181.9 1415.06 1186.54 1410.95 1189.58 1404.82 1192.62 1398.69 1194.14 1390.89 1194.14 1381.44 1194.14 1372.31 1192.63 1364.72 1189.6 1358.68 1186.57 1352.64 1181.89 1348.58 1175.54 1346.5Z" fill="#FFFFFF" fill-rule="evenodd"/><text fill="#000000" fill-opacity="0" font-family="Arial,Arial_MSFontService,sans-serif" font-size="76.8804" x="1175.54" y="1410.65">)</text><path d="M1110.87 1327.13 1116.3 1327.13 1188.69 1337.14 1188.12 1339.7 1114.4 1332.36 1113.22 1332.36 1039.71 1339.7 1039.02 1337.14Z" fill="#FFFFFF" fill-rule="evenodd"/><text fill="#000000" fill-opacity="0" font-family="Arial,Arial_MSFontService,sans-serif" font-size="12.5635" x="1039.02" y="1338.13">เทฃ</text><path d="M308.5 1370.06 356.823 1370.06 356.823 1376.94 308.5 1376.94ZM352.24 1359.75 379.74 1373.5 352.24 1387.25Z"/></g></svg>