<?xml version="1.0" encoding="utf-8" standalone="no"?>
<!DOCTYPE svg PUBLIC "-//W3C//DTD SVG 1.1//EN"
  "http://www.w3.org/Graphics/SVG/1.1/DTD/svg11.dtd">
<svg xmlns:xlink="http://www.w3.org/1999/xlink" width="388.542964pt" height="240.132758pt" viewBox="0 0 388.542964 240.132758" xmlns="http://www.w3.org/2000/svg" version="1.1">
 <metadata>
  <rdf:RDF xmlns:dc="http://purl.org/dc/elements/1.1/" xmlns:cc="http://creativecommons.org/ns#" xmlns:rdf="http://www.w3.org/1999/02/22-rdf-syntax-ns#">
   <cc:Work>
    <dc:type rdf:resource="http://purl.org/dc/dcmitype/StillImage"/>
    <dc:date>2024-12-27T19:12:00.552497</dc:date>
    <dc:format>image/svg+xml</dc:format>
    <dc:creator>
     <cc:Agent>
      <dc:title>Matplotlib v3.7.5, https://matplotlib.org/</dc:title>
     </cc:Agent>
    </dc:creator>
   </cc:Work>
  </rdf:RDF>
 </metadata>
 <defs>
  <style type="text/css">*{stroke-linejoin: round; stroke-linecap: butt}</style>
 </defs>
 <g id="figure_1">
  <g id="patch_1">
   <path d="M 0 240.132758 
L 388.542964 240.132758 
L 388.542964 0 
L 0 0 
z
" style="fill: #ffffff"/>
  </g>
  <g id="axes_1">
   <g id="patch_2">
    <path d="M 48.56787 213.718154 
L 349.688667 213.718154 
L 349.688667 28.815931 
L 48.56787 28.815931 
z
" style="fill: #ffffff"/>
   </g>
   <g id="matplotlib.axis_1">
    <g id="xtick_1">
     <g id="line2d_1">
      <defs>
       <path id="mfc24b70de2" d="M 0 0 
L 0 3.5 
" style="stroke: #000000; stroke-width: 0.8"/>
      </defs>
      <g>
       <use xlink:href="#mfc24b70de2" x="62.255179" y="213.718154" style="stroke: #000000; stroke-width: 0.8"/>
      </g>
     </g>
     <g id="text_1">
      <!-- $\mathdefault{0.0}$ -->
      <g transform="translate(53.529888 230.404031) scale(0.14 -0.14)">
       <defs>
        <path id="CMR17-30" d="M 2688 2025 
C 2688 2416 2682 3080 2413 3591 
C 2176 4039 1798 4198 1466 4198 
C 1158 4198 768 4058 525 3597 
C 269 3118 243 2524 243 2025 
C 243 1661 250 1106 448 619 
C 723 -39 1216 -128 1466 -128 
C 1760 -128 2208 -7 2470 600 
C 2662 1042 2688 1559 2688 2025 
z
M 1466 -26 
C 1056 -26 813 325 723 812 
C 653 1188 653 1738 653 2096 
C 653 2588 653 2997 736 3387 
C 858 3929 1216 4096 1466 4096 
C 1728 4096 2067 3923 2189 3400 
C 2272 3036 2278 2607 2278 2096 
C 2278 1680 2278 1169 2202 792 
C 2067 95 1690 -26 1466 -26 
z
" transform="scale(0.015625)"/>
        <path id="CMMI12-3a" d="M 1178 307 
C 1178 492 1024 619 870 619 
C 685 619 557 466 557 313 
C 557 128 710 0 864 0 
C 1050 0 1178 153 1178 307 
z
" transform="scale(0.015625)"/>
       </defs>
       <use xlink:href="#CMR17-30" transform="scale(0.996264)"/>
       <use xlink:href="#CMMI12-3a" transform="translate(45.690477 0) scale(0.996264)"/>
       <use xlink:href="#CMR17-30" transform="translate(72.787654 0) scale(0.996264)"/>
      </g>
     </g>
    </g>
    <g id="xtick_2">
     <g id="line2d_2">
      <g>
       <use xlink:href="#mfc24b70de2" x="117.004415" y="213.718154" style="stroke: #000000; stroke-width: 0.8"/>
      </g>
     </g>
     <g id="text_2">
      <!-- $\mathdefault{0.2}$ -->
      <g transform="translate(108.279124 230.404031) scale(0.14 -0.14)">
       <defs>
        <path id="CMR17-32" d="M 2669 989 
L 2554 989 
C 2490 536 2438 459 2413 420 
C 2381 369 1920 369 1830 369 
L 602 369 
C 832 619 1280 1072 1824 1597 
C 2214 1967 2669 2402 2669 3035 
C 2669 3790 2067 4224 1395 4224 
C 691 4224 262 3604 262 3030 
C 262 2780 448 2748 525 2748 
C 589 2748 781 2787 781 3010 
C 781 3207 614 3264 525 3264 
C 486 3264 448 3258 422 3245 
C 544 3790 915 4058 1306 4058 
C 1862 4058 2227 3617 2227 3035 
C 2227 2479 1901 2000 1536 1584 
L 262 146 
L 262 0 
L 2515 0 
L 2669 989 
z
" transform="scale(0.015625)"/>
       </defs>
       <use xlink:href="#CMR17-30" transform="scale(0.996264)"/>
       <use xlink:href="#CMMI12-3a" transform="translate(45.690477 0) scale(0.996264)"/>
       <use xlink:href="#CMR17-32" transform="translate(72.787654 0) scale(0.996264)"/>
      </g>
     </g>
    </g>
    <g id="xtick_3">
     <g id="line2d_3">
      <g>
       <use xlink:href="#mfc24b70de2" x="171.753651" y="213.718154" style="stroke: #000000; stroke-width: 0.8"/>
      </g>
     </g>
     <g id="text_3">
      <!-- $\mathdefault{0.4}$ -->
      <g transform="translate(163.02836 230.404031) scale(0.14 -0.14)">
       <defs>
        <path id="CMR17-34" d="M 2150 4122 
C 2150 4256 2144 4256 2029 4256 
L 128 1254 
L 128 1088 
L 1779 1088 
L 1779 457 
C 1779 224 1766 160 1318 160 
L 1197 160 
L 1197 0 
C 1402 0 1747 0 1965 0 
C 2182 0 2528 0 2733 0 
L 2733 160 
L 2611 160 
C 2163 160 2150 224 2150 457 
L 2150 1088 
L 2803 1088 
L 2803 1254 
L 2150 1254 
L 2150 4122 
z
M 1798 3703 
L 1798 1254 
L 256 1254 
L 1798 3703 
z
" transform="scale(0.015625)"/>
       </defs>
       <use xlink:href="#CMR17-30" transform="scale(0.996264)"/>
       <use xlink:href="#CMMI12-3a" transform="translate(45.690477 0) scale(0.996264)"/>
       <use xlink:href="#CMR17-34" transform="translate(72.787654 0) scale(0.996264)"/>
      </g>
     </g>
    </g>
    <g id="xtick_4">
     <g id="line2d_4">
      <g>
       <use xlink:href="#mfc24b70de2" x="226.502887" y="213.718154" style="stroke: #000000; stroke-width: 0.8"/>
      </g>
     </g>
     <g id="text_4">
      <!-- $\mathdefault{0.6}$ -->
      <g transform="translate(217.777596 230.404031) scale(0.14 -0.14)">
       <defs>
        <path id="CMR17-36" d="M 678 2176 
C 678 3690 1395 4032 1811 4032 
C 1946 4032 2272 4009 2400 3776 
C 2298 3776 2106 3776 2106 3553 
C 2106 3381 2246 3323 2336 3323 
C 2394 3323 2566 3348 2566 3560 
C 2566 3954 2246 4179 1805 4179 
C 1043 4179 243 3390 243 1984 
C 243 253 966 -128 1478 -128 
C 2099 -128 2688 427 2688 1283 
C 2688 2081 2170 2662 1517 2662 
C 1126 2662 838 2407 678 1960 
L 678 2176 
z
M 1478 25 
C 691 25 691 1200 691 1436 
C 691 1896 909 2560 1504 2560 
C 1613 2560 1926 2560 2138 2120 
C 2253 1870 2253 1609 2253 1289 
C 2253 944 2253 690 2118 434 
C 1978 171 1773 25 1478 25 
z
" transform="scale(0.015625)"/>
       </defs>
       <use xlink:href="#CMR17-30" transform="scale(0.996264)"/>
       <use xlink:href="#CMMI12-3a" transform="translate(45.690477 0) scale(0.996264)"/>
       <use xlink:href="#CMR17-36" transform="translate(72.787654 0) scale(0.996264)"/>
      </g>
     </g>
    </g>
    <g id="xtick_5">
     <g id="line2d_5">
      <g>
       <use xlink:href="#mfc24b70de2" x="281.252123" y="213.718154" style="stroke: #000000; stroke-width: 0.8"/>
      </g>
     </g>
     <g id="text_5">
      <!-- $\mathdefault{0.8}$ -->
      <g transform="translate(272.526832 230.404031) scale(0.14 -0.14)">
       <defs>
        <path id="CMR17-38" d="M 1741 2264 
C 2144 2467 2554 2773 2554 3263 
C 2554 3841 1990 4179 1472 4179 
C 890 4179 378 3759 378 3180 
C 378 3021 416 2747 666 2505 
C 730 2442 998 2251 1171 2130 
C 883 1983 211 1634 211 934 
C 211 279 838 -128 1459 -128 
C 2144 -128 2720 362 2720 1010 
C 2720 1590 2330 1857 2074 2029 
L 1741 2264 
z
M 902 2822 
C 851 2854 595 3051 595 3351 
C 595 3739 998 4032 1459 4032 
C 1965 4032 2336 3676 2336 3262 
C 2336 2669 1670 2331 1638 2331 
C 1632 2331 1626 2331 1574 2370 
L 902 2822 
z
M 2080 1519 
C 2176 1449 2483 1240 2483 851 
C 2483 381 2010 25 1472 25 
C 890 25 448 438 448 940 
C 448 1443 838 1862 1280 2060 
L 2080 1519 
z
" transform="scale(0.015625)"/>
       </defs>
       <use xlink:href="#CMR17-30" transform="scale(0.996264)"/>
       <use xlink:href="#CMMI12-3a" transform="translate(45.690477 0) scale(0.996264)"/>
       <use xlink:href="#CMR17-38" transform="translate(72.787654 0) scale(0.996264)"/>
      </g>
     </g>
    </g>
    <g id="xtick_6">
     <g id="line2d_6">
      <g>
       <use xlink:href="#mfc24b70de2" x="336.001359" y="213.718154" style="stroke: #000000; stroke-width: 0.8"/>
      </g>
     </g>
     <g id="text_6">
      <!-- $\mathdefault{1.0}$ -->
      <g transform="translate(327.276068 230.404031) scale(0.14 -0.14)">
       <defs>
        <path id="CMR17-31" d="M 1702 4058 
C 1702 4192 1696 4192 1606 4192 
C 1357 3916 979 3827 621 3827 
C 602 3827 570 3827 563 3808 
C 557 3795 557 3782 557 3648 
C 755 3648 1088 3686 1344 3839 
L 1344 461 
C 1344 236 1331 160 781 160 
L 589 160 
L 589 0 
C 896 0 1216 0 1523 0 
C 1830 0 2150 0 2458 0 
L 2458 160 
L 2266 160 
C 1715 160 1702 230 1702 458 
L 1702 4058 
z
" transform="scale(0.015625)"/>
       </defs>
       <use xlink:href="#CMR17-31" transform="scale(0.996264)"/>
       <use xlink:href="#CMMI12-3a" transform="translate(45.690477 0) scale(0.996264)"/>
       <use xlink:href="#CMR17-30" transform="translate(72.787654 0) scale(0.996264)"/>
      </g>
     </g>
    </g>
    <g id="text_7">
     <!-- t -->
     <g transform="translate(196.472746 246.801936) scale(0.14 -0.14)">
      <defs>
       <path id="CMR17-74" d="M 966 2560 
L 1862 2560 
L 1862 2725 
L 966 2725 
L 966 3904 
L 851 3904 
C 838 3245 614 2668 70 2668 
L 70 2560 
L 627 2560 
L 627 771 
C 627 650 627 -64 1370 -64 
C 1747 -64 1965 306 1965 777 
L 1965 1140 
L 1850 1140 
L 1850 783 
C 1850 344 1677 51 1408 51 
C 1222 51 966 178 966 758 
L 966 2560 
z
" transform="scale(0.015625)"/>
      </defs>
      <use xlink:href="#CMR17-74" transform="scale(0.996264)"/>
     </g>
    </g>
   </g>
   <g id="matplotlib.axis_2">
    <g id="ytick_1">
     <g id="line2d_7">
      <defs>
       <path id="m51cdbbed2c" d="M 0 0 
L -3.5 0 
" style="stroke: #000000; stroke-width: 0.8"/>
      </defs>
      <g>
       <use xlink:href="#m51cdbbed2c" x="48.56787" y="187.076723" style="stroke: #000000; stroke-width: 0.8"/>
      </g>
     </g>
     <g id="text_8">
      <!-- $\mathdefault{0.2}$ -->
      <g transform="translate(24.117288 191.919662) scale(0.14 -0.14)">
       <use xlink:href="#CMR17-30" transform="scale(0.996264)"/>
       <use xlink:href="#CMMI12-3a" transform="translate(45.690477 0) scale(0.996264)"/>
       <use xlink:href="#CMR17-32" transform="translate(72.787654 0) scale(0.996264)"/>
      </g>
     </g>
    </g>
    <g id="ytick_2">
     <g id="line2d_8">
      <g>
       <use xlink:href="#m51cdbbed2c" x="48.56787" y="158.413945" style="stroke: #000000; stroke-width: 0.8"/>
      </g>
     </g>
     <g id="text_9">
      <!-- $\mathdefault{0.4}$ -->
      <g transform="translate(24.117288 163.256883) scale(0.14 -0.14)">
       <use xlink:href="#CMR17-30" transform="scale(0.996264)"/>
       <use xlink:href="#CMMI12-3a" transform="translate(45.690477 0) scale(0.996264)"/>
       <use xlink:href="#CMR17-34" transform="translate(72.787654 0) scale(0.996264)"/>
      </g>
     </g>
    </g>
    <g id="ytick_3">
     <g id="line2d_9">
      <g>
       <use xlink:href="#m51cdbbed2c" x="48.56787" y="129.751166" style="stroke: #000000; stroke-width: 0.8"/>
      </g>
     </g>
     <g id="text_10">
      <!-- $\mathdefault{0.6}$ -->
      <g transform="translate(24.117288 134.594104) scale(0.14 -0.14)">
       <use xlink:href="#CMR17-30" transform="scale(0.996264)"/>
       <use xlink:href="#CMMI12-3a" transform="translate(45.690477 0) scale(0.996264)"/>
       <use xlink:href="#CMR17-36" transform="translate(72.787654 0) scale(0.996264)"/>
      </g>
     </g>
    </g>
    <g id="ytick_4">
     <g id="line2d_10">
      <g>
       <use xlink:href="#m51cdbbed2c" x="48.56787" y="101.088387" style="stroke: #000000; stroke-width: 0.8"/>
      </g>
     </g>
     <g id="text_11">
      <!-- $\mathdefault{0.8}$ -->
      <g transform="translate(24.117288 105.931326) scale(0.14 -0.14)">
       <use xlink:href="#CMR17-30" transform="scale(0.996264)"/>
       <use xlink:href="#CMMI12-3a" transform="translate(45.690477 0) scale(0.996264)"/>
       <use xlink:href="#CMR17-38" transform="translate(72.787654 0) scale(0.996264)"/>
      </g>
     </g>
    </g>
    <g id="ytick_5">
     <g id="line2d_11">
      <g>
       <use xlink:href="#m51cdbbed2c" x="48.56787" y="72.425609" style="stroke: #000000; stroke-width: 0.8"/>
      </g>
     </g>
     <g id="text_12">
      <!-- $\mathdefault{1.0}$ -->
      <g transform="translate(24.117288 77.268547) scale(0.14 -0.14)">
       <use xlink:href="#CMR17-31" transform="scale(0.996264)"/>
       <use xlink:href="#CMMI12-3a" transform="translate(45.690477 0) scale(0.996264)"/>
       <use xlink:href="#CMR17-30" transform="translate(72.787654 0) scale(0.996264)"/>
      </g>
     </g>
    </g>
    <g id="ytick_6">
     <g id="line2d_12">
      <g>
       <use xlink:href="#m51cdbbed2c" x="48.56787" y="43.76283" style="stroke: #000000; stroke-width: 0.8"/>
      </g>
     </g>
     <g id="text_13">
      <!-- $\mathdefault{1.2}$ -->
      <g transform="translate(24.117288 48.605768) scale(0.14 -0.14)">
       <use xlink:href="#CMR17-31" transform="scale(0.996264)"/>
       <use xlink:href="#CMMI12-3a" transform="translate(45.690477 0) scale(0.996264)"/>
       <use xlink:href="#CMR17-32" transform="translate(72.787654 0) scale(0.996264)"/>
      </g>
     </g>
    </g>
   </g>
   <g id="line2d_13">
    <path d="M 62.255179 200.828069 
L 63.610223 199.695884 
L 64.937892 198.291318 
L 66.238186 196.583361 
L 67.524793 194.51441 
L 68.8114 192.008974 
L 70.111695 188.97419 
L 71.453051 185.263951 
L 72.890218 180.612385 
L 74.505321 174.596892 
L 76.517355 166.181836 
L 80.445613 148.523957 
L 84.07275 132.732348 
L 86.933397 121.252935 
L 89.4108 112.197958 
L 91.587083 105.059785 
L 93.571742 99.293389 
L 95.460591 94.475549 
L 97.322065 90.32693 
L 99.224601 86.625951 
L 101.209261 83.248458 
L 103.330794 80.074738 
L 105.630262 77.034255 
L 108.121352 74.109903 
L 110.749315 71.366922 
L 113.41834 68.898014 
L 116.059991 66.75285 
L 118.619518 64.956502 
L 121.096921 63.485596 
L 123.519574 62.303077 
L 125.928541 61.37328 
L 128.378569 60.666257 
L 130.938096 60.161411 
L 133.689245 59.849269 
L 136.755202 59.730757 
L 140.313902 59.822786 
L 144.680154 60.167858 
L 150.456198 60.860975 
L 159.613008 62.211586 
L 179.74704 65.215335 
L 189.437654 66.406356 
L 198.279656 67.270026 
L 207.066908 67.901769 
L 216.429028 68.345824 
L 227.803181 68.648494 
L 275.257081 69.64472 
L 287.87678 70.279717 
L 299.935299 71.108708 
L 311.596887 72.130635 
L 323.17635 73.368149 
L 334.67369 74.822504 
L 335.987671 75.003258 
L 335.987671 75.003258 
" clip-path="url(#p19833db1b4)" style="fill: none; stroke: #fdc38d; stroke-width: 3; stroke-linecap: square"/>
   </g>
   <g id="line2d_14">
    <path d="M 62.255179 200.828069 
L 63.596536 200.25928 
L 64.89683 199.466077 
L 66.183437 198.416167 
L 67.44267 197.096766 
L 68.701902 195.446214 
L 69.961134 193.417699 
L 71.234054 190.934677 
L 72.548036 187.87087 
L 73.944141 184.027998 
L 75.463433 179.166789 
L 77.229095 172.732419 
L 79.597 163.181109 
L 86.960772 132.931514 
L 89.520299 123.609435 
L 91.737643 116.34125 
L 93.722303 110.571469 
L 95.556402 105.90217 
L 97.29469 102.06704 
L 98.991917 98.850187 
L 100.675456 96.129254 
L 102.372682 93.804032 
L 104.11097 91.795632 
L 105.931382 90.031537 
L 107.861293 88.47241 
L 109.928077 87.088716 
L 112.20017 85.837785 
L 114.718635 84.709052 
L 117.524533 83.698056 
L 120.672614 82.803643 
L 124.121816 82.056764 
L 127.76264 81.495807 
L 131.417152 81.156402 
L 134.948477 81.050096 
L 138.315555 81.169005 
L 141.573135 81.505006 
L 144.80334 82.061728 
L 148.115669 82.860639 
L 151.646994 83.945748 
L 155.643688 85.414638 
L 160.653244 87.507124 
L 170.768165 92.044638 
L 178.775241 95.501188 
L 184.920842 97.914925 
L 190.341017 99.809564 
L 195.254761 101.295267 
L 199.771573 102.432143 
L 204.0557 103.283451 
L 208.312453 103.902367 
L 212.911389 104.341239 
L 219.371799 104.707519 
L 227.652621 105.219228 
L 233.291792 105.807425 
L 239.629016 106.702541 
L 248.238334 108.161602 
L 263.184875 110.953289 
L 301.837835 118.223185 
L 322.628858 121.862545 
L 335.987671 124.08137 
L 335.987671 124.08137 
" clip-path="url(#p19833db1b4)" style="fill: none; stroke: #fa8331; stroke-width: 3; stroke-linecap: square"/>
   </g>
   <g id="line2d_15">
    <path d="M 62.255179 200.828069 
L 64.321963 199.962558 
L 66.16975 198.950346 
L 67.853289 197.776799 
L 69.413642 196.418512 
L 70.878184 194.848076 
L 72.27429 193.023318 
L 73.629333 190.882472 
L 74.970689 188.339558 
L 76.325733 185.282804 
L 77.749213 181.506 
L 79.378003 176.52064 
L 84.031688 161.80459 
L 85.112985 159.378532 
L 86.05741 157.776147 
L 86.933397 156.710346 
L 87.768323 156.034513 
L 88.589562 155.647846 
L 89.451862 155.487248 
L 90.396287 155.54104 
L 91.504959 155.836847 
L 92.860002 156.441721 
L 94.611978 157.482906 
L 97.048319 159.210295 
L 100.880765 162.23154 
L 113.911083 172.67684 
L 118.085713 175.649933 
L 121.794973 178.023726 
L 125.244175 179.970266 
L 128.529129 181.571325 
L 131.718272 182.87996 
L 134.852666 183.926449 
L 137.959685 184.729521 
L 141.053017 185.300325 
L 144.173724 185.649909 
L 147.321805 185.77888 
L 150.524635 185.687612 
L 153.809589 185.370592 
L 157.190354 184.819629 
L 160.694305 184.021766 
L 164.348817 182.959747 
L 168.181263 181.612318 
L 172.21902 179.953996 
L 176.462085 177.967695 
L 180.896773 175.64323 
L 185.495709 172.979587 
L 190.258893 169.961933 
L 195.227386 166.5483 
L 200.565436 162.605737 
L 206.820537 157.696701 
L 223.532741 144.417578 
L 227.981116 141.278092 
L 231.991498 138.715317 
L 235.79657 136.544709 
L 239.50583 134.682202 
L 243.201404 133.073766 
L 246.938039 131.689844 
L 250.743111 130.517884 
L 254.657681 129.545327 
L 258.722812 128.765743 
L 262.965878 128.179605 
L 267.441628 127.787326 
L 272.204812 127.595139 
L 277.323865 127.613524 
L 282.908287 127.859431 
L 289.094951 128.359234 
L 296.075478 129.151432 
L 304.20574 130.303942 
L 314.183788 131.951729 
L 327.85741 134.452287 
L 335.987671 136.004355 
L 335.987671 136.004355 
" clip-path="url(#p19833db1b4)" style="fill: none; stroke: #d14501; stroke-width: 3; stroke-linecap: square"/>
   </g>
   <g id="line2d_16">
    <path d="M 62.255179 200.828069 
L 65.896004 200.832134 
L 68.8114 200.620693 
L 71.247741 200.226611 
L 73.3419 199.667154 
L 75.203374 198.941844 
L 76.9006 198.041819 
L 78.488328 196.948046 
L 80.048681 195.598735 
L 81.663784 193.897513 
L 83.538945 191.579061 
L 87.768323 186.22135 
L 89.123367 184.948821 
L 90.355225 184.088637 
L 91.587083 183.497149 
L 92.901064 183.115505 
L 94.392981 182.919082 
L 96.22708 182.911797 
L 98.690796 183.139514 
L 102.468493 183.73491 
L 109.449021 185.093041 
L 121.808661 187.737174 
L 139.355791 191.739262 
L 153.029412 194.774463 
L 160.735367 196.258422 
L 167.058904 197.25423 
L 172.739137 197.926224 
L 178.104562 198.33811 
L 183.374176 198.519511 
L 188.766976 198.48096 
L 194.584082 198.21268 
L 201.427737 197.665057 
L 211.392098 196.619257 
L 236.918929 193.879174 
L 250.729424 192.655684 
L 263.691305 191.729299 
L 276.420503 191.042454 
L 289.327635 190.569786 
L 302.754885 190.302589 
L 317.044436 190.243438 
L 332.579531 190.404967 
L 335.987671 190.467831 
L 335.987671 190.467831 
" clip-path="url(#p19833db1b4)" style="fill: none; stroke: #7f2704; stroke-width: 3; stroke-linecap: square"/>
   </g>
   <g id="line2d_17">
    <path d="M 62.255179 202.261208 
L 63.897657 201.320923 
L 65.266387 200.289917 
L 66.635118 198.968395 
L 68.003849 197.305026 
L 69.37258 195.273962 
L 70.741311 192.853658 
L 72.110042 189.975104 
L 73.478773 186.522244 
L 74.847504 182.476643 
L 76.489981 176.901335 
L 78.406204 169.471724 
L 80.596173 159.965933 
L 83.059889 148.141083 
L 93.73599 95.193064 
L 95.925959 85.881796 
L 98.115929 77.571201 
L 100.032152 71.14131 
L 101.948375 65.474415 
L 103.864599 60.540507 
L 105.507076 56.867953 
L 107.149553 53.677195 
L 108.79203 50.928648 
L 110.434507 48.57615 
L 112.076984 46.571148 
L 113.993207 44.60884 
L 115.909431 42.989176 
L 117.825654 41.655947 
L 120.015623 40.424559 
L 122.205593 39.453331 
L 124.669308 38.619222 
L 127.133024 38.013735 
L 129.870486 37.564297 
L 132.881694 37.295236 
L 136.166648 37.222542 
L 139.999094 37.372081 
L 144.379033 37.785591 
L 149.306464 38.486118 
L 155.055134 39.534721 
L 161.898789 41.01291 
L 170.38492 43.083464 
L 180.513529 45.793042 
L 205.698177 52.678 
L 211.446847 53.901751 
L 217.195517 54.898828 
L 223.217933 55.71218 
L 229.787841 56.366596 
L 237.178988 56.87096 
L 245.938866 57.23911 
L 258.53119 57.52066 
L 282.073361 58.016739 
L 293.023208 58.498278 
L 302.604325 59.13742 
L 311.911695 59.981438 
L 321.219065 61.053857 
L 330.800181 62.386112 
L 335.727612 63.152533 
L 335.727612 63.152533 
" clip-path="url(#p19833db1b4)" style="fill: none; stroke: #b7d4ea; stroke-width: 3; stroke-linecap: square"/>
   </g>
   <g id="line2d_18">
    <path d="M 62.255179 205.024274 
L 63.86075 204.354828 
L 65.466321 203.449098 
L 67.071893 202.255074 
L 68.677463 200.709671 
L 70.282916 198.739621 
L 71.888487 196.263572 
L 73.493939 193.199298 
L 75.099511 189.471408 
L 76.705081 185.025106 
L 78.310652 179.838638 
L 79.916223 173.934681 
L 82.324461 163.906498 
L 85.535485 149.073769 
L 90.35208 126.501634 
L 92.760318 116.17389 
L 95.16903 106.893997 
L 97.577266 98.773294 
L 99.182838 94.000867 
L 100.788411 89.71742 
L 102.393861 85.89191 
L 103.999551 82.48723 
L 105.605001 79.466666 
L 107.210574 76.79206 
L 108.816028 74.428219 
L 110.422188 72.341366 
L 112.027642 70.503449 
L 114.436 68.153702 
L 116.844237 66.225152 
L 119.252477 64.653478 
L 121.660831 63.38599 
L 124.069186 62.379124 
L 126.477426 61.596934 
L 128.885781 61.00872 
L 132.096807 60.482164 
L 135.307829 60.202886 
L 138.518974 60.126963 
L 142.532779 60.26128 
L 147.349373 60.676942 
L 152.968759 61.400037 
L 161.799517 62.800339 
L 177.052083 65.236054 
L 185.882482 66.398234 
L 193.910344 67.239672 
L 202.740866 67.934629 
L 212.374529 68.456249 
L 223.613168 68.833488 
L 241.273967 69.164378 
L 264.55464 69.63512 
L 278.201634 70.139552 
L 290.243178 70.796172 
L 302.284722 71.677417 
L 314.326625 72.792956 
L 326.368169 74.140382 
L 336.001359 75.377912 
L 336.001359 75.377912 
" clip-path="url(#p19833db1b4)" style="fill: none; stroke-dasharray: 3,4.95; stroke-dashoffset: 0; stroke: #b8e3b2; stroke-width: 3"/>
   </g>
   <g id="line2d_19">
    <path d="M 62.255179 205.026261 
L 63.86075 204.357173 
L 65.466321 203.451855 
L 67.071893 202.258344 
L 68.677463 200.713559 
L 70.282916 198.744196 
L 71.888487 196.268971 
L 73.493939 193.205611 
L 75.099511 189.478697 
L 76.705081 185.033418 
L 78.310652 179.847941 
L 79.916223 173.944935 
L 82.324461 163.918076 
L 85.535485 149.086595 
L 90.35208 126.515584 
L 92.760318 116.18825 
L 95.16903 106.908656 
L 97.577266 98.788312 
L 99.182838 94.016115 
L 100.788411 89.732907 
L 102.393861 85.907593 
L 103.999551 82.503161 
L 105.605001 79.482811 
L 107.210574 76.808308 
L 108.816028 74.444671 
L 110.422188 72.357904 
L 112.027642 70.520072 
L 114.436 68.170445 
L 116.844237 66.241878 
L 119.252477 64.670289 
L 121.660831 63.402733 
L 124.069186 62.395833 
L 126.477426 61.61354 
L 128.885781 61.025173 
L 132.096807 60.498342 
L 135.307829 60.218945 
L 138.518974 60.1428 
L 142.532779 60.276998 
L 147.349373 60.692318 
L 152.968759 61.415276 
L 161.799517 62.815253 
L 177.052083 65.251003 
L 185.882482 66.413319 
L 193.910344 67.255065 
L 202.740866 67.950279 
L 212.374529 68.472325 
L 223.613168 68.849992 
L 241.273967 69.181718 
L 264.55464 69.653332 
L 278.201634 70.158328 
L 290.243178 70.815272 
L 302.284722 71.696859 
L 314.326625 72.812672 
L 326.368169 74.160353 
L 336.001359 75.397995 
L 336.001359 75.397995 
" clip-path="url(#p19833db1b4)" style="fill: none; stroke-dasharray: 3,4.95; stroke-dashoffset: 0; stroke: #b8e3b2; stroke-width: 3"/>
   </g>
   <g id="line2d_20">
    <path d="M 62.255179 205.006376 
L 63.86075 204.333745 
L 65.466321 203.42418 
L 67.071893 202.225564 
L 68.677463 200.674725 
L 70.282916 198.698266 
L 71.888487 196.214918 
L 73.493939 193.142476 
L 75.099511 189.405759 
L 76.705081 184.950271 
L 78.310652 179.75463 
L 79.916223 173.841964 
L 82.324461 163.802347 
L 85.535485 148.958245 
L 90.35208 126.376073 
L 92.760318 116.044955 
L 95.16903 106.76191 
L 97.577266 98.638097 
L 99.182838 93.863578 
L 100.788411 89.578063 
L 102.393861 85.750546 
L 103.999551 82.344063 
L 105.605001 79.321782 
L 107.210574 76.645579 
L 108.816028 74.280422 
L 110.422188 72.192493 
L 112.027642 70.353653 
L 114.436 68.00295 
L 116.844237 66.073939 
L 119.252477 64.502367 
L 121.660831 63.235135 
L 124.069186 62.228953 
L 126.477426 61.447685 
L 128.885781 60.860531 
L 132.096807 60.335563 
L 135.307829 60.058045 
L 138.518974 59.983916 
L 142.532779 60.120317 
L 147.349373 60.538132 
L 152.968759 61.263397 
L 161.799517 62.665629 
L 177.052083 65.101276 
L 185.882482 66.262055 
L 193.910344 67.101426 
L 202.740866 67.793649 
L 212.374529 68.311818 
L 223.613168 68.684735 
L 241.273967 69.008756 
L 264.55464 69.470785 
L 278.201634 69.970742 
L 290.243178 70.623842 
L 302.284722 71.502149 
L 314.326625 72.615262 
L 326.368169 73.960868 
L 336.001359 75.197407 
L 336.001359 75.197407 
" clip-path="url(#p19833db1b4)" style="fill: none; stroke-dasharray: 3,4.95; stroke-dashoffset: 0; stroke: #b8e3b2; stroke-width: 3"/>
   </g>
   <g id="line2d_21">
    <path d="M 62.255179 205.012347 
L 63.86075 204.340779 
L 65.466321 203.432492 
L 67.071893 202.235407 
L 68.677463 200.686394 
L 70.282916 198.712057 
L 71.888487 196.23114 
L 73.493939 193.161444 
L 75.099511 189.427645 
L 76.705081 184.97522 
L 78.310652 179.782648 
L 79.916223 173.872878 
L 82.324461 163.83705 
L 85.535485 148.996748 
L 90.35208 126.417913 
L 92.760318 116.087913 
L 95.16903 106.805936 
L 97.577266 98.683174 
L 99.182838 93.909312 
L 100.788411 89.624549 
L 102.393861 85.797707 
L 103.999551 82.39178 
L 105.605001 79.370071 
L 107.210574 76.694432 
L 108.816028 74.329685 
L 110.422188 72.24214 
L 112.027642 70.403591 
L 114.436 68.053246 
L 116.844237 66.124389 
L 119.252477 64.552731 
L 121.660831 63.285415 
L 124.069186 62.279044 
L 126.477426 61.497418 
L 128.885781 60.909939 
L 132.096807 60.384458 
L 135.307829 60.106291 
L 138.518974 60.031581 
L 142.532779 60.167282 
L 147.349373 60.584413 
L 152.968759 61.308944 
L 161.799517 62.710475 
L 177.052083 65.146242 
L 185.882482 66.307448 
L 193.910344 67.147519 
L 202.740866 67.840648 
L 212.374529 68.359927 
L 223.613168 68.734365 
L 241.273967 69.060624 
L 264.55464 69.525592 
L 278.201634 70.027001 
L 290.243178 70.681297 
L 302.284722 71.560628 
L 314.326625 72.674545 
L 326.368169 74.02074 
L 336.001359 75.257613 
L 336.001359 75.257613 
" clip-path="url(#p19833db1b4)" style="fill: none; stroke-dasharray: 3,4.95; stroke-dashoffset: 0; stroke: #b8e3b2; stroke-width: 3"/>
   </g>
   <g id="line2d_22">
    <path d="M 62.255179 205.006376 
L 63.86075 204.333745 
L 65.466321 203.42418 
L 67.071893 202.225564 
L 68.677463 200.674725 
L 70.282916 198.698266 
L 71.888487 196.214918 
L 73.493939 193.142476 
L 75.099511 189.405759 
L 76.705081 184.950271 
L 78.310652 179.75463 
L 79.916223 173.841964 
L 82.324461 163.802347 
L 85.535485 148.958245 
L 90.35208 126.376073 
L 92.760318 116.044955 
L 95.16903 106.76191 
L 97.577266 98.638097 
L 99.182838 93.863578 
L 100.788411 89.578063 
L 102.393861 85.750546 
L 103.999551 82.344063 
L 105.605001 79.321782 
L 107.210574 76.645579 
L 108.816028 74.280422 
L 110.422188 72.192493 
L 112.027642 70.353653 
L 114.436 68.00295 
L 116.844237 66.073939 
L 119.252477 64.502367 
L 121.660831 63.235135 
L 124.069186 62.228953 
L 126.477426 61.447685 
L 128.885781 60.860531 
L 132.096807 60.335563 
L 135.307829 60.058045 
L 138.518974 59.983916 
L 142.532779 60.120317 
L 147.349373 60.538132 
L 152.968759 61.263397 
L 161.799517 62.665629 
L 177.052083 65.101276 
L 185.882482 66.262055 
L 193.910344 67.101426 
L 202.740866 67.793649 
L 212.374529 68.311818 
L 223.613168 68.684735 
L 241.273967 69.008756 
L 264.55464 69.470785 
L 278.201634 69.970742 
L 290.243178 70.623842 
L 302.284722 71.502149 
L 314.326625 72.615262 
L 326.368169 73.960868 
L 336.001359 75.197407 
L 336.001359 75.197407 
" clip-path="url(#p19833db1b4)" style="fill: none; stroke-dasharray: 3,4.95; stroke-dashoffset: 0; stroke: #b8e3b2; stroke-width: 3"/>
   </g>
   <g id="line2d_23">
    <path d="M 62.255179 202.261208 
L 64.171403 201.641957 
L 65.540134 200.990342 
L 66.908864 200.075545 
L 68.277595 198.846739 
L 69.646326 197.255648 
L 70.741311 195.65679 
L 71.836296 193.701913 
L 72.93128 191.350691 
L 74.300011 187.828184 
L 75.668742 183.640177 
L 77.037473 178.778302 
L 78.67995 172.10352 
L 80.596173 163.28977 
L 83.059889 150.747578 
L 87.713574 126.755346 
L 89.903544 116.650142 
L 91.819767 108.748964 
L 93.73599 101.779482 
L 95.378467 96.545436 
L 97.020944 91.980293 
L 98.663421 88.060828 
L 100.305898 84.74989 
L 101.948375 81.995825 
L 103.590852 79.73683 
L 105.23333 77.907318 
L 106.875807 76.443736 
L 108.518284 75.28839 
L 110.160761 74.391419 
L 112.076984 73.616337 
L 113.993207 73.083561 
L 116.183177 72.719502 
L 118.373146 72.573277 
L 120.836862 72.627349 
L 123.574324 72.916724 
L 126.585532 73.468728 
L 129.870486 74.299488 
L 133.702932 75.501193 
L 138.630363 77.290317 
L 156.697611 84.075562 
L 162.720027 85.979143 
L 169.289935 87.814659 
L 176.954828 89.709826 
L 186.535945 91.837049 
L 200.770746 94.748154 
L 230.335333 100.514488 
L 278.240915 109.652957 
L 311.637949 115.800418 
L 335.727612 120.070514 
L 335.727612 120.070514 
" clip-path="url(#p19833db1b4)" style="fill: none; stroke: #60a7d2; stroke-width: 3; stroke-linecap: square"/>
   </g>
   <g id="line2d_24">
    <path d="M 62.255179 205.313508 
L 63.86075 205.01126 
L 65.466321 204.528386 
L 67.071893 203.807237 
L 68.677463 202.774366 
L 70.282916 201.338679 
L 71.888487 199.392073 
L 73.493939 196.817146 
L 75.099511 193.501661 
L 76.705081 189.365327 
L 78.310652 184.389332 
L 79.916223 178.640585 
L 82.324461 168.931085 
L 88.746508 142.089137 
L 91.154864 133.258981 
L 93.563103 125.375485 
L 95.971814 118.375183 
L 98.380052 112.171643 
L 100.788411 106.693837 
L 103.196765 101.900678 
L 105.605001 97.768282 
L 107.210574 95.370041 
L 108.816028 93.248635 
L 110.422188 91.393207 
L 112.027642 89.792924 
L 113.633214 88.432318 
L 115.238664 87.295099 
L 116.844237 86.36337 
L 118.449809 85.618919 
L 120.858045 84.813196 
L 123.266285 84.327009 
L 125.674758 84.104443 
L 128.082998 84.095781 
L 131.294017 84.343718 
L 134.505047 84.812324 
L 138.518974 85.611206 
L 144.138237 86.969462 
L 154.574323 89.778599 
L 168.221676 93.395928 
L 178.657656 95.919687 
L 189.09375 98.208537 
L 200.332512 100.448611 
L 214.782769 103.086246 
L 238.062953 107.065311 
L 276.59607 113.677448 
L 311.918385 120.012811 
L 336.001359 124.36176 
L 336.001359 124.36176 
" clip-path="url(#p19833db1b4)" style="fill: none; stroke-dasharray: 3,4.95; stroke-dashoffset: 0; stroke: #66bd6f; stroke-width: 3"/>
   </g>
   <g id="line2d_25">
    <path d="M 62.255179 205.181385 
L 63.86075 204.854747 
L 65.466321 204.339912 
L 67.071893 203.576633 
L 68.677463 202.487984 
L 70.282916 200.978539 
L 71.888487 198.935048 
L 73.493939 196.234636 
L 75.099511 192.760278 
L 76.705081 188.428853 
L 78.310652 183.222035 
L 79.916223 177.211142 
L 82.324461 167.067888 
L 87.943842 142.358753 
L 90.35208 132.86095 
L 92.760318 124.390248 
L 95.16903 116.927677 
L 97.577266 110.394683 
L 99.985625 104.70861 
L 102.393861 99.809571 
L 103.999551 96.957801 
L 105.605001 94.424252 
L 107.210574 92.195846 
L 108.816028 90.259199 
L 110.422188 88.597695 
L 112.027642 87.19536 
L 113.633214 86.032121 
L 115.238664 85.088288 
L 116.844237 84.34306 
L 118.449809 83.77609 
L 120.858045 83.216424 
L 123.266285 82.950088 
L 125.674758 82.920583 
L 128.885781 83.166145 
L 132.096807 83.651417 
L 136.110612 84.485091 
L 141.729997 85.899931 
L 153.771541 89.249881 
L 165.813321 92.495565 
L 175.446633 94.868821 
L 185.882482 97.200902 
L 197.121481 99.472642 
L 210.768834 101.988116 
L 230.838003 105.43144 
L 274.990603 112.966056 
L 307.90458 118.870834 
L 336.001359 123.96841 
L 336.001359 123.96841 
" clip-path="url(#p19833db1b4)" style="fill: none; stroke-dasharray: 3,4.95; stroke-dashoffset: 0; stroke: #66bd6f; stroke-width: 3"/>
   </g>
   <g id="line2d_26">
    <path d="M 62.255179 205.254828 
L 63.86075 204.941765 
L 65.466321 204.44472 
L 67.071893 203.704892 
L 68.677463 202.647286 
L 70.282916 201.1789 
L 71.888487 199.189351 
L 73.493939 196.558788 
L 75.099511 193.172862 
L 76.705081 188.950007 
L 78.310652 183.871578 
L 79.916223 178.006385 
L 82.324461 168.103878 
L 88.746508 140.749237 
L 91.154864 131.76744 
L 93.563103 123.770608 
L 95.971814 116.701207 
L 98.380052 110.474808 
L 100.788411 105.018614 
L 103.196765 100.286387 
L 104.802219 97.517962 
L 106.407788 95.048351 
L 108.01336 92.868073 
L 109.618814 90.965901 
L 111.224856 89.327376 
L 112.830428 87.937761 
L 114.436 86.779271 
L 116.04145 85.833251 
L 117.647023 85.080233 
L 119.252477 84.501065 
L 121.660831 83.916823 
L 124.069186 83.621093 
L 126.477426 83.559811 
L 129.688567 83.762244 
L 132.899589 84.206232 
L 136.913402 84.993794 
L 142.532779 86.356485 
L 152.968759 89.196646 
L 166.616112 92.858189 
L 177.052083 95.410659 
L 187.488055 97.721949 
L 198.727053 99.978911 
L 212.374529 102.485757 
L 233.246358 106.065475 
L 274.990603 113.202111 
L 308.70724 119.244699 
L 336.001359 124.184929 
L 336.001359 124.184929 
" clip-path="url(#p19833db1b4)" style="fill: none; stroke-dasharray: 3,4.95; stroke-dashoffset: 0; stroke: #66bd6f; stroke-width: 3"/>
   </g>
   <g id="line2d_27">
    <path d="M 62.255179 205.213648 
L 63.86075 204.892979 
L 65.466321 204.385968 
L 67.071893 203.632998 
L 68.677463 202.557995 
L 70.282916 201.066603 
L 71.888487 199.046836 
L 73.493939 196.377134 
L 75.099511 192.941673 
L 76.705081 188.657973 
L 78.310652 183.507581 
L 79.916223 177.560671 
L 82.324461 167.523032 
L 88.746508 139.813698 
L 91.154864 130.729481 
L 93.563103 122.658083 
L 95.971814 115.545468 
L 98.380052 109.308374 
L 100.788411 103.872143 
L 103.196765 99.186411 
L 104.802219 96.460868 
L 106.407788 94.041537 
L 108.01336 91.916919 
L 109.618814 90.073953 
L 111.224856 88.496564 
L 112.830428 87.168546 
L 114.436 86.070723 
L 116.04145 85.183584 
L 117.647023 84.486885 
L 119.252477 83.960832 
L 121.660831 83.44989 
L 124.069186 83.219149 
L 126.477426 83.214502 
L 129.688567 83.480292 
L 132.899589 83.975046 
L 136.913402 84.811026 
L 142.532779 86.219502 
L 155.376991 89.767827 
L 167.418894 92.974628 
L 177.052083 95.316379 
L 187.488055 97.619136 
L 198.727053 99.867094 
L 212.374529 102.365142 
L 234.049148 106.071232 
L 274.187829 112.92795 
L 307.10179 118.82468 
L 336.001359 124.062869 
L 336.001359 124.062869 
" clip-path="url(#p19833db1b4)" style="fill: none; stroke-dasharray: 3,4.95; stroke-dashoffset: 0; stroke: #66bd6f; stroke-width: 3"/>
   </g>
   <g id="line2d_28">
    <path d="M 62.255179 205.282846 
L 63.86075 204.97495 
L 65.466321 204.484676 
L 67.071893 203.753771 
L 68.677463 202.707978 
L 70.282916 201.255218 
L 71.888487 199.286194 
L 73.493939 196.682205 
L 75.099511 193.329951 
L 76.705081 189.14842 
L 78.310652 184.118912 
L 79.916223 178.309307 
L 82.324461 168.498877 
L 88.746508 141.388004 
L 91.154864 132.477799 
L 93.563103 124.533987 
L 95.971814 117.496432 
L 98.380052 111.279857 
L 100.788411 105.81231 
L 103.196765 101.05016 
L 105.605001 96.965463 
L 107.210574 94.606021 
L 108.816028 92.5273 
L 110.422188 90.717111 
L 112.027642 89.163272 
L 113.633214 87.849366 
L 115.238664 86.758078 
L 116.844237 85.870939 
L 118.449809 85.169063 
L 120.858045 84.422579 
L 123.266285 83.989611 
L 125.674758 83.814026 
L 128.082998 83.846153 
L 131.294017 84.139449 
L 135.307829 84.79571 
L 140.124538 85.854803 
L 147.349373 87.725129 
L 170.629916 93.930907 
L 181.065888 96.393991 
L 191.501982 98.625754 
L 203.543526 100.966702 
L 218.796573 103.693023 
L 252.512623 109.408745 
L 283.018343 114.712452 
L 324.762605 122.2436 
L 336.001359 124.268924 
L 336.001359 124.268924 
" clip-path="url(#p19833db1b4)" style="fill: none; stroke-dasharray: 3,4.95; stroke-dashoffset: 0; stroke: #66bd6f; stroke-width: 3"/>
   </g>
   <g id="line2d_29">
    <path d="M 62.255179 205.29824 
L 63.86075 204.993176 
L 65.466321 204.506612 
L 67.071893 203.780619 
L 68.677463 202.741308 
L 70.282916 201.297119 
L 71.888487 199.339359 
L 73.493939 196.74997 
L 75.099511 193.416169 
L 76.705081 189.257341 
L 78.310652 184.254698 
L 79.916223 178.47564 
L 82.324461 168.71584 
L 88.746508 141.739693 
L 91.154864 132.869423 
L 93.563103 124.955629 
L 95.971814 117.936499 
L 98.380052 111.726143 
L 100.788411 106.253129 
L 103.196765 101.475175 
L 105.605001 97.36639 
L 107.210574 94.98742 
L 108.816028 92.887258 
L 110.422188 91.054313 
L 112.027642 89.477274 
L 113.633214 88.139954 
L 115.238664 87.025661 
L 116.844237 86.116287 
L 118.449809 85.39315 
L 120.858045 84.617093 
L 123.266285 84.15755 
L 125.674758 83.958534 
L 128.082998 83.970365 
L 131.294017 84.241049 
L 134.505047 84.727859 
L 138.518974 85.544098 
L 144.138237 86.918722 
L 155.376991 89.961521 
L 168.221676 93.362015 
L 178.657656 95.88346 
L 189.09375 98.169064 
L 200.332512 100.405764 
L 214.782769 103.039991 
L 238.062953 107.015783 
L 275.793394 113.485591 
L 310.31282 119.673149 
L 336.001359 124.315427 
L 336.001359 124.315427 
" clip-path="url(#p19833db1b4)" style="fill: none; stroke-dasharray: 3,4.95; stroke-dashoffset: 0; stroke: #66bd6f; stroke-width: 3"/>
   </g>
   <g id="line2d_30">
    <path d="M 62.255179 202.261208 
L 65.81388 201.750785 
L 68.277595 201.164737 
L 70.467565 200.398018 
L 72.383788 199.490233 
L 74.026265 198.490498 
L 75.668742 197.249196 
L 77.311219 195.731517 
L 78.953696 193.885927 
L 80.596173 191.669087 
L 82.238651 189.079918 
L 84.154874 185.61728 
L 86.344843 181.170036 
L 90.451036 172.696262 
L 92.093513 169.778883 
L 93.462244 167.747802 
L 94.557229 166.447316 
L 95.652213 165.461938 
L 96.747198 164.792543 
L 97.842183 164.420877 
L 98.937167 164.317107 
L 100.032152 164.446726 
L 101.400883 164.883641 
L 102.769614 165.564973 
L 104.412091 166.620209 
L 106.875807 168.501025 
L 114.814446 174.810821 
L 117.825654 176.830294 
L 120.836862 178.576199 
L 123.84807 180.069695 
L 127.133024 181.445436 
L 130.417978 182.588328 
L 133.976678 183.591239 
L 137.535379 184.36945 
L 141.367825 184.970834 
L 145.200272 185.333635 
L 148.758972 185.455525 
L 152.317672 185.362875 
L 155.876373 185.04457 
L 159.435073 184.489211 
L 162.720027 183.759406 
L 166.278727 182.732872 
L 169.837428 181.46923 
L 173.669874 179.862633 
L 177.776067 177.887832 
L 182.156006 175.523115 
L 186.535945 172.90865 
L 190.915884 170.047073 
L 195.569569 166.740453 
L 200.770746 162.757144 
L 208.161893 156.768427 
L 217.195517 149.493425 
L 222.396694 145.60413 
L 226.776633 142.593655 
L 230.882826 140.022221 
L 234.989018 137.706164 
L 239.095211 135.648406 
L 243.201404 133.846306 
L 247.307597 132.294023 
L 251.413789 130.984038 
L 255.519982 129.907638 
L 259.626175 129.054976 
L 264.006113 128.379657 
L 268.386052 127.931312 
L 273.039737 127.684854 
L 277.967169 127.657954 
L 283.168346 127.860259 
L 288.917016 128.318879 
L 295.213178 129.051097 
L 302.604325 130.141036 
L 312.185441 131.793434 
L 331.62142 135.44078 
L 335.727612 136.205663 
L 335.727612 136.205663 
" clip-path="url(#p19833db1b4)" style="fill: none; stroke: #1d6cb1; stroke-width: 3; stroke-linecap: square"/>
   </g>
   <g id="line2d_31">
    <path d="M 62.255179 202.24132 
L 65.466321 201.811985 
L 67.874678 201.262852 
L 70.282916 200.445003 
L 71.888487 199.707252 
L 73.493939 198.778571 
L 75.099511 197.622143 
L 76.705081 196.1984 
L 78.310652 194.467655 
L 79.916223 192.395702 
L 81.521677 189.96206 
L 83.127247 187.170262 
L 85.535485 182.411652 
L 91.154864 170.814049 
L 92.760318 168.158578 
L 94.366244 166.083509 
L 95.16903 165.289932 
L 95.971814 164.664129 
L 96.774598 164.204564 
L 97.577266 163.906049 
L 98.380052 163.759986 
L 99.182838 163.755523 
L 99.985625 163.879649 
L 101.591193 164.456921 
L 103.196765 165.375508 
L 105.605001 167.156752 
L 115.238664 174.896781 
L 118.449809 177.005938 
L 121.660831 178.823755 
L 124.871972 180.378136 
L 128.082998 181.696945 
L 131.294017 182.801316 
L 134.505047 183.704717 
L 137.716184 184.414757 
L 140.927206 184.93533 
L 144.138237 185.268482 
L 147.349373 185.415499 
L 150.560396 185.377512 
L 153.771541 185.155522 
L 156.982449 184.750435 
L 160.193944 184.162744 
L 164.207871 183.172023 
L 168.221676 181.897161 
L 172.235488 180.339291 
L 176.249301 178.50192 
L 180.263106 176.392614 
L 184.276918 174.024895 
L 188.290959 171.419309 
L 193.107554 168.020127 
L 198.727053 163.761447 
L 207.557934 156.727706 
L 216.388333 149.755276 
L 222.007588 145.586025 
L 226.824182 142.278141 
L 231.640777 139.270228 
L 235.654712 137.019126 
L 239.668517 135.014526 
L 243.682338 133.262637 
L 247.696028 131.763947 
L 251.709832 130.513714 
L 255.724224 129.502995 
L 259.738045 128.719969 
L 263.75185 128.149727 
L 267.765654 127.775691 
L 272.582249 127.560924 
L 277.398844 127.571764 
L 283.018343 127.827756 
L 288.637614 128.300035 
L 295.862432 129.153766 
L 303.890776 130.334064 
L 315.129415 132.224754 
L 336.001359 135.929025 
L 336.001359 135.929025 
" clip-path="url(#p19833db1b4)" style="fill: none; stroke-dasharray: 3,4.95; stroke-dashoffset: 0; stroke: #1e8741; stroke-width: 3"/>
   </g>
   <g id="line2d_32">
    <path d="M 62.255179 202.241178 
L 65.466321 201.812978 
L 67.874678 201.265133 
L 70.282916 200.449127 
L 71.888487 199.712995 
L 73.493939 198.786361 
L 75.099511 197.632524 
L 76.705081 196.211939 
L 78.310652 194.485071 
L 79.916223 192.417698 
L 81.521677 189.989322 
L 83.127247 187.203327 
L 85.535485 182.453564 
L 91.154864 170.868937 
L 92.760318 168.213098 
L 94.366244 166.135706 
L 95.16903 165.340451 
L 95.971814 164.712533 
L 96.774598 164.250521 
L 97.577266 163.949349 
L 98.380052 163.80057 
L 99.182838 163.79325 
L 99.985625 163.914531 
L 101.591193 164.486221 
L 103.196765 165.399721 
L 105.605001 167.174477 
L 115.238664 174.901919 
L 118.449809 177.01003 
L 121.660831 178.827599 
L 124.871972 180.382335 
L 128.082998 181.701919 
L 131.294017 182.807441 
L 134.505047 183.712354 
L 137.716184 184.424263 
L 140.927206 184.947063 
L 144.138237 185.282869 
L 147.349373 185.433019 
L 150.560396 185.398737 
L 153.771541 185.181082 
L 156.982449 184.781074 
L 160.193944 184.199302 
L 164.207871 183.217307 
L 168.221676 181.952764 
L 172.235488 180.406898 
L 176.249301 178.58325 
L 180.263106 176.489269 
L 184.276918 174.138198 
L 188.290959 171.550321 
L 193.107554 168.172925 
L 198.727053 163.939423 
L 207.557934 156.940803 
L 216.388333 149.993552 
L 222.007588 145.833808 
L 226.824182 142.529836 
L 231.640777 139.522094 
L 235.654712 137.268549 
L 239.668517 135.259395 
L 243.682338 133.501109 
L 247.696028 131.994636 
L 251.709832 130.735435 
L 255.724224 129.714893 
L 259.738045 128.921427 
L 263.75185 128.340389 
L 267.765654 127.955461 
L 272.582249 127.727744 
L 277.398844 127.726052 
L 283.018343 127.968129 
L 288.637614 128.427425 
L 295.059773 129.161505 
L 303.087985 130.306942 
L 314.326625 132.166351 
L 336.001359 135.987992 
L 336.001359 135.987992 
" clip-path="url(#p19833db1b4)" style="fill: none; stroke-dasharray: 3,4.95; stroke-dashoffset: 0; stroke: #1e8741; stroke-width: 3"/>
   </g>
   <g id="line2d_33">
    <path d="M 62.255179 202.241543 
L 65.466321 201.810146 
L 67.874678 201.258699 
L 70.282916 200.437548 
L 71.888487 199.696835 
L 73.493939 198.76444 
L 75.099511 197.603365 
L 76.705081 196.173869 
L 78.310652 194.436154 
L 79.916223 192.355895 
L 81.521677 189.912829 
L 83.127247 187.110606 
L 85.535485 182.335872 
L 90.35208 172.221001 
L 91.957651 169.321672 
L 93.563103 166.945632 
L 95.16903 165.199027 
L 95.971814 164.577041 
L 96.774598 164.121807 
L 97.577266 163.827978 
L 98.380052 163.68693 
L 99.182838 163.687502 
L 99.985625 163.816779 
L 101.591193 164.404032 
L 103.196765 165.331845 
L 105.605001 167.124817 
L 115.238664 174.887411 
L 118.449809 176.998468 
L 121.660831 178.816695 
L 124.871972 180.370463 
L 128.082998 181.687837 
L 131.294017 182.7901 
L 134.505047 183.690783 
L 137.716184 184.397449 
L 140.927206 184.913958 
L 144.138237 185.242257 
L 147.349373 185.383555 
L 150.560396 185.338824 
L 153.771541 185.10892 
L 156.982449 184.694558 
L 160.193944 184.096068 
L 163.405081 183.313761 
L 167.418894 182.077465 
L 171.432706 180.554748 
L 175.446633 178.7484 
L 179.460438 176.66531 
L 183.47425 174.318011 
L 187.488055 171.726337 
L 192.304772 168.333603 
L 197.924271 164.067872 
L 205.952011 157.642308 
L 216.388333 149.324144 
L 222.007588 145.138432 
L 226.824182 141.824107 
L 230.838003 139.29477 
L 234.851922 136.999786 
L 238.865743 134.953116 
L 242.879662 133.161651 
L 246.893352 131.626529 
L 250.907042 130.343366 
L 254.92145 129.30339 
L 258.935255 128.494822 
L 262.949059 127.902739 
L 266.96288 127.510533 
L 271.779589 127.278613 
L 276.59607 127.276896 
L 282.215553 127.523432 
L 287.834823 127.991202 
L 294.256982 128.738642 
L 302.284722 129.904529 
L 313.523835 131.796655 
L 336.001359 135.824529 
L 336.001359 135.824529 
" clip-path="url(#p19833db1b4)" style="fill: none; stroke-dasharray: 3,4.95; stroke-dashoffset: 0; stroke: #1e8741; stroke-width: 3"/>
   </g>
   <g id="line2d_34">
    <path d="M 62.255179 202.241378 
L 65.466321 201.811581 
L 67.874678 201.261937 
L 70.282916 200.443362 
L 71.888487 199.70495 
L 73.493939 198.775445 
L 75.099511 197.617983 
L 76.705081 196.192963 
L 78.310652 194.460676 
L 79.916223 192.386878 
L 81.521677 189.95115 
L 83.127247 187.157045 
L 85.535485 182.394858 
L 91.154864 170.792053 
L 92.760318 168.136744 
L 94.366244 166.062572 
L 95.16903 165.26976 
L 95.971814 164.644781 
L 96.774598 164.186177 
L 97.577266 163.888708 
L 98.380052 163.743786 
L 99.182838 163.740378 
L 99.985625 163.865683 
L 101.591193 164.445146 
L 103.196765 165.365787 
L 105.605001 167.149641 
L 115.238664 174.894697 
L 118.449809 177.004285 
L 121.660831 178.822188 
L 124.871972 180.376458 
L 128.082998 181.69494 
L 131.294017 182.798849 
L 134.505047 183.701631 
L 137.716184 184.410956 
L 140.927206 184.930615 
L 144.138237 185.26269 
L 147.349373 185.408458 
L 150.560396 185.368984 
L 153.771541 185.145246 
L 156.982449 184.738102 
L 160.193944 184.148022 
L 163.405081 183.375442 
L 167.418894 182.153343 
L 171.432706 180.647195 
L 175.446633 178.859842 
L 179.460438 176.798034 
L 183.47425 174.473969 
L 187.488055 171.907016 
L 192.304772 168.544992 
L 197.924271 164.314809 
L 205.952011 157.935117 
L 216.388333 149.659711 
L 222.007588 145.486752 
L 226.824182 142.177352 
L 230.838003 139.648125 
L 234.851922 137.349947 
L 238.865743 135.297032 
L 242.879662 133.496761 
L 246.893352 131.950781 
L 250.907042 130.655019 
L 254.92145 129.601145 
L 258.935255 128.777902 
L 262.949059 128.170664 
L 266.96288 127.763126 
L 271.779589 127.512874 
L 276.59607 127.493406 
L 282.215553 127.720278 
L 287.834823 128.16969 
L 294.256982 128.898081 
L 302.284722 130.043074 
L 312.721061 131.771515 
L 336.001359 135.905594 
L 336.001359 135.905594 
" clip-path="url(#p19833db1b4)" style="fill: none; stroke-dasharray: 3,4.95; stroke-dashoffset: 0; stroke: #1e8741; stroke-width: 3"/>
   </g>
   <g id="line2d_35">
    <path d="M 62.255179 202.241495 
L 65.466321 201.810564 
L 67.874678 201.259624 
L 70.282916 200.439211 
L 71.888487 199.699161 
L 73.493939 198.767585 
L 75.099511 197.607549 
L 76.705081 196.179325 
L 78.310652 194.443175 
L 79.916223 192.364781 
L 81.521677 189.923774 
L 83.127247 187.123893 
L 85.535485 182.352728 
L 91.154864 170.737046 
L 92.760318 168.082062 
L 94.366244 166.010217 
L 95.16903 165.219233 
L 95.971814 164.596419 
L 96.774598 164.140203 
L 97.577266 163.84534 
L 98.380052 163.703147 
L 99.182838 163.702626 
L 99.985625 163.83075 
L 101.591193 164.415778 
L 103.196765 165.341506 
L 105.605001 167.131907 
L 115.238664 174.889503 
L 118.449809 177.000129 
L 121.660831 178.818271 
L 124.871972 180.372174 
L 128.082998 181.689866 
L 131.294017 182.792622 
L 134.505047 183.693894 
L 137.716184 184.401318 
L 140.927206 184.918726 
L 144.138237 185.248111 
L 147.349373 185.390705 
L 150.560396 185.347486 
L 153.771541 185.119324 
L 156.982449 184.707049 
L 160.193944 184.110996 
L 163.405081 183.331475 
L 167.418894 182.099256 
L 171.432706 180.58128 
L 175.446633 178.780382 
L 179.460438 176.703421 
L 183.47425 174.362763 
L 187.488055 171.778162 
L 192.304772 168.39421 
L 197.924271 164.138665 
L 205.952011 157.726175 
L 216.388333 149.42018 
L 222.007588 145.238094 
L 226.824182 141.925076 
L 230.838003 139.395747 
L 234.851922 137.099858 
L 238.865743 135.051334 
L 242.879662 133.257341 
L 246.893352 131.719092 
L 250.907042 130.432273 
L 254.92145 129.388308 
L 258.935255 128.575555 
L 262.949059 127.979114 
L 266.96288 127.58251 
L 271.779589 127.345319 
L 276.59607 127.338554 
L 282.215553 127.579469 
L 287.834823 128.041976 
L 294.256982 128.784001 
L 302.284722 129.943891 
L 313.523835 131.829217 
L 336.001359 135.847575 
L 336.001359 135.847575 
" clip-path="url(#p19833db1b4)" style="fill: none; stroke-dasharray: 3,4.95; stroke-dashoffset: 0; stroke: #1e8741; stroke-width: 3"/>
   </g>
   <g id="line2d_36">
    <path d="M 62.255179 202.261208 
L 74.300011 203.23446 
L 80.048681 203.386051 
L 89.082305 203.441762 
L 93.462244 203.195113 
L 96.747198 202.815271 
L 99.48466 202.291611 
L 102.222122 201.533249 
L 105.23333 200.462339 
L 109.065776 198.842124 
L 118.920639 194.582097 
L 121.6581 193.70634 
L 124.121816 193.145389 
L 126.859278 192.749984 
L 129.596739 192.564914 
L 132.334201 192.589415 
L 135.071663 192.82366 
L 138.356617 193.335275 
L 143.284048 194.363342 
L 154.233896 196.688894 
L 160.530058 197.768753 
L 166.552474 198.573398 
L 172.301143 199.122638 
L 178.049813 199.454286 
L 183.798483 199.570244 
L 189.820899 199.472388 
L 196.390807 199.140936 
L 204.0557 198.525018 
L 214.731801 197.419465 
L 245.391373 194.121836 
L 258.804936 192.973042 
L 271.944753 192.07231 
L 284.810823 191.410789 
L 297.403147 190.986523 
L 309.447979 190.803752 
L 321.219065 190.848093 
L 333.263897 191.120706 
L 335.727612 191.203223 
L 335.727612 191.203223 
" clip-path="url(#p19833db1b4)" style="fill: none; stroke: #08306b; stroke-width: 3; stroke-linecap: square"/>
   </g>
   <g id="line2d_37">
    <path d="M 62.255179 201.289098 
L 71.085701 202.097039 
L 78.310652 202.557275 
L 84.732699 202.749285 
L 89.549294 202.667862 
L 93.563103 202.351788 
L 96.774598 201.862023 
L 99.985625 201.102703 
L 102.393861 200.333284 
L 105.605001 199.038759 
L 108.816028 197.484909 
L 117.647023 192.962503 
L 120.055259 191.996887 
L 122.463618 191.250946 
L 124.871972 190.745403 
L 127.280212 190.478657 
L 129.688567 190.43157 
L 132.096807 190.573959 
L 135.307829 190.997371 
L 139.321756 191.785464 
L 145.743801 193.327301 
L 154.574323 195.418619 
L 160.193944 196.518834 
L 165.813321 197.370988 
L 171.432706 197.96292 
L 177.052083 198.305961 
L 182.67146 198.424684 
L 189.09375 198.325041 
L 196.318576 197.970463 
L 204.346316 197.352905 
L 215.585543 196.245017 
L 247.696028 192.935253 
L 259.738045 191.985744 
L 271.779589 191.264244 
L 283.821019 190.762564 
L 297.468127 190.427743 
L 312.721061 190.292802 
L 330.381974 190.372343 
L 336.001359 190.437716 
L 336.001359 190.437716 
" clip-path="url(#p19833db1b4)" style="fill: none; stroke-dasharray: 3,4.95; stroke-dashoffset: 0; stroke: #00441b; stroke-width: 3"/>
   </g>
   <g id="line2d_38">
    <path d="M 62.255179 201.285262 
L 71.085701 202.089191 
L 78.310652 202.542337 
L 84.732699 202.724187 
L 89.549294 202.63282 
L 93.563103 202.307254 
L 96.774598 201.809329 
L 99.985625 201.041604 
L 102.393861 200.265912 
L 105.605001 198.963529 
L 108.816028 197.403306 
L 117.647023 192.879238 
L 120.055259 191.917829 
L 122.463618 191.177464 
L 124.871972 190.678285 
L 127.280212 190.418103 
L 129.688567 190.377297 
L 132.096807 190.525367 
L 135.307829 190.955135 
L 139.321756 191.749102 
L 145.743801 193.29631 
L 154.574323 195.38968 
L 160.193944 196.489336 
L 165.813321 197.340083 
L 171.432706 197.930061 
L 177.052083 198.270846 
L 182.67146 198.38713 
L 189.09375 198.28468 
L 196.318576 197.927041 
L 204.346316 197.306422 
L 215.585543 196.195017 
L 247.696028 192.880442 
L 259.738045 191.93036 
L 271.779589 191.208521 
L 283.821019 190.706506 
L 297.468127 190.37114 
L 312.721061 190.235241 
L 330.381974 190.313022 
L 336.001359 190.377671 
L 336.001359 190.377671 
" clip-path="url(#p19833db1b4)" style="fill: none; stroke-dasharray: 3,4.95; stroke-dashoffset: 0; stroke: #00441b; stroke-width: 3"/>
   </g>
   <g id="line2d_39">
    <path d="M 62.255179 201.280385 
L 71.085701 202.078984 
L 78.310652 202.522793 
L 84.732699 202.691196 
L 89.549294 202.586565 
L 93.563103 202.248325 
L 96.774598 201.739532 
L 99.985625 200.960587 
L 102.393861 200.176501 
L 105.605001 198.863689 
L 108.816028 197.295046 
L 117.647023 192.769178 
L 120.055259 191.813427 
L 122.463618 191.080502 
L 124.871972 190.589812 
L 127.280212 190.338332 
L 129.688567 190.30585 
L 132.096807 190.461425 
L 135.307829 190.899557 
L 139.321756 191.701221 
L 146.546591 193.455961 
L 154.574323 195.351456 
L 160.193944 196.450341 
L 165.813321 197.299215 
L 171.432706 197.886608 
L 177.052083 198.224382 
L 182.67146 198.33746 
L 189.09375 198.231289 
L 196.318576 197.869616 
L 205.14922 197.172682 
L 217.191009 195.956663 
L 245.287902 193.024083 
L 257.329691 192.028858 
L 269.371235 191.260648 
L 281.412648 190.715698 
L 294.256982 190.35446 
L 308.70724 190.173167 
L 325.565379 190.192289 
L 336.001359 190.296608 
L 336.001359 190.296608 
" clip-path="url(#p19833db1b4)" style="fill: none; stroke-dasharray: 3,4.95; stroke-dashoffset: 0; stroke: #00441b; stroke-width: 3"/>
   </g>
   <g id="patch_3">
    <path d="M 48.56787 213.718154 
L 48.56787 28.815931 
" style="fill: none; stroke: #000000; stroke-width: 0.8; stroke-linejoin: miter; stroke-linecap: square"/>
   </g>
   <g id="patch_4">
    <path d="M 349.688667 213.718154 
L 349.688667 28.815931 
" style="fill: none; stroke: #000000; stroke-width: 0.8; stroke-linejoin: miter; stroke-linecap: square"/>
   </g>
   <g id="patch_5">
    <path d="M 48.56787 213.718154 
L 349.688667 213.718154 
" style="fill: none; stroke: #000000; stroke-width: 0.8; stroke-linejoin: miter; stroke-linecap: square"/>
   </g>
   <g id="patch_6">
    <path d="M 48.56787 28.815931 
L 349.688667 28.815931 
" style="fill: none; stroke: #000000; stroke-width: 0.8; stroke-linejoin: miter; stroke-linecap: square"/>
   </g>
   <g id="legend_1">
    <g id="line2d_40">
     <path d="M 362.288667 46.976703 
L 376.288667 46.976703 
L 389.542964 46.976703 
" style="fill: none; stroke: #fdc38d; stroke-width: 3; stroke-linecap: square"/>
    </g>
    <g id="text_14">
     <!-- $A = 0.0$ -->
     <g transform="translate(401.488667 51.876703) scale(0.14 -0.14)">
      <defs>
       <path id="CMMI12-41" d="M 1088 691 
C 864 314 646 186 339 186 
C 269 180 218 180 218 58 
C 218 24 250 0 294 0 
C 410 0 698 0 813 0 
C 998 0 1203 0 1382 0 
C 1421 0 1498 0 1498 122 
C 1498 180 1446 186 1408 186 
C 1261 186 1139 236 1139 388 
C 1139 476 1178 546 1261 685 
L 1747 1479 
L 3379 1479 
C 3386 1423 3386 1373 3392 1316 
C 3411 1152 3488 495 3488 376 
C 3488 186 3162 186 3059 186 
C 2989 186 2918 186 2918 70 
C 2918 0 2976 0 3014 0 
C 3123 0 3251 0 3360 0 
L 3725 0 
C 4115 0 4397 0 4403 0 
C 4448 0 4518 0 4518 122 
C 4518 186 4461 186 4365 186 
C 4013 186 4006 244 3987 434 
L 3597 4404 
C 3584 4531 3558 4544 3488 4544 
C 3424 4544 3386 4531 3328 4435 
L 1088 691 
z
M 1856 1664 
L 3142 3819 
L 3360 1664 
L 1856 1664 
z
" transform="scale(0.015625)"/>
       <path id="CMR17-3d" d="M 4115 2017 
C 4211 2017 4307 2017 4307 2125 
C 4307 2240 4198 2240 4090 2240 
L 512 2240 
C 403 2240 294 2240 294 2125 
C 294 2017 390 2017 486 2017 
L 4115 2017 
z
M 4090 896 
C 4198 896 4307 896 4307 1011 
C 4307 1119 4211 1119 4115 1119 
L 486 1119 
C 390 1119 294 1119 294 1011 
C 294 896 403 896 512 896 
L 4090 896 
z
" transform="scale(0.015625)"/>
      </defs>
      <use xlink:href="#CMMI12-41" transform="scale(0.996264)"/>
      <use xlink:href="#CMR17-3d" transform="translate(100.801894 0) scale(0.996264)"/>
      <use xlink:href="#CMR17-30" transform="translate(200.190691 0) scale(0.996264)"/>
      <use xlink:href="#CMMI12-3a" transform="translate(245.881168 0) scale(0.996264)"/>
      <use xlink:href="#CMR17-30" transform="translate(272.978345 0) scale(0.996264)"/>
     </g>
    </g>
    <g id="line2d_41">
     <path d="M 362.288667 66.488731 
L 376.288667 66.488731 
L 389.542964 66.488731 
" style="fill: none; stroke: #fa8331; stroke-width: 3; stroke-linecap: square"/>
    </g>
    <g id="text_15">
     <!-- $A = 0.33$ -->
     <g transform="translate(401.488667 71.388731) scale(0.14 -0.14)">
      <defs>
       <path id="CMR17-33" d="M 1414 2157 
C 1984 2157 2234 1662 2234 1090 
C 2234 320 1824 25 1453 25 
C 1114 25 563 194 390 693 
C 422 680 454 680 486 680 
C 640 680 755 782 755 948 
C 755 1133 614 1216 486 1216 
C 378 1216 211 1165 211 926 
C 211 335 787 -128 1466 -128 
C 2176 -128 2720 430 2720 1085 
C 2720 1707 2208 2157 1600 2227 
C 2086 2328 2554 2756 2554 3329 
C 2554 3820 2048 4179 1472 4179 
C 890 4179 378 3829 378 3329 
C 378 3110 544 3072 627 3072 
C 762 3072 877 3155 877 3321 
C 877 3486 762 3569 627 3569 
C 602 3569 570 3569 544 3557 
C 730 3959 1235 4032 1459 4032 
C 1683 4032 2106 3925 2106 3320 
C 2106 3143 2080 2828 1862 2550 
C 1670 2304 1453 2304 1242 2284 
C 1210 2284 1062 2269 1037 2269 
C 992 2263 966 2257 966 2208 
C 966 2163 973 2157 1101 2157 
L 1414 2157 
z
" transform="scale(0.015625)"/>
      </defs>
      <use xlink:href="#CMMI12-41" transform="scale(0.996264)"/>
      <use xlink:href="#CMR17-3d" transform="translate(100.801894 0) scale(0.996264)"/>
      <use xlink:href="#CMR17-30" transform="translate(200.190691 0) scale(0.996264)"/>
      <use xlink:href="#CMMI12-3a" transform="translate(245.881168 0) scale(0.996264)"/>
      <use xlink:href="#CMR17-33" transform="translate(272.978345 0) scale(0.996264)"/>
      <use xlink:href="#CMR17-33" transform="translate(318.668822 0) scale(0.996264)"/>
     </g>
    </g>
    <g id="line2d_42">
     <path d="M 362.288667 86.00076 
L 376.288667 86.00076 
L 389.542964 86.00076 
" style="fill: none; stroke: #d14501; stroke-width: 3; stroke-linecap: square"/>
    </g>
    <g id="text_16">
     <!-- $A = 0.67$ -->
     <g transform="translate(401.488667 90.90076) scale(0.14 -0.14)">
      <defs>
       <path id="CMR17-37" d="M 2886 3941 
L 2886 4081 
L 1382 4081 
C 634 4081 621 4165 595 4288 
L 480 4288 
L 294 3094 
L 410 3094 
C 429 3215 474 3540 550 3661 
C 589 3712 1062 3712 1171 3712 
L 2579 3712 
L 1869 2661 
C 1395 1954 1069 999 1069 165 
C 1069 89 1069 -128 1299 -128 
C 1530 -128 1530 89 1530 171 
L 1530 465 
C 1530 1508 1709 2196 2003 2636 
L 2886 3941 
z
" transform="scale(0.015625)"/>
      </defs>
      <use xlink:href="#CMMI12-41" transform="scale(0.996264)"/>
      <use xlink:href="#CMR17-3d" transform="translate(100.801894 0) scale(0.996264)"/>
      <use xlink:href="#CMR17-30" transform="translate(200.190691 0) scale(0.996264)"/>
      <use xlink:href="#CMMI12-3a" transform="translate(245.881168 0) scale(0.996264)"/>
      <use xlink:href="#CMR17-36" transform="translate(272.978345 0) scale(0.996264)"/>
      <use xlink:href="#CMR17-37" transform="translate(318.668822 0) scale(0.996264)"/>
     </g>
    </g>
    <g id="line2d_43">
     <path d="M 362.288667 105.512788 
L 376.288667 105.512788 
L 389.542964 105.512788 
" style="fill: none; stroke: #7f2704; stroke-width: 3; stroke-linecap: square"/>
    </g>
    <g id="text_17">
     <!-- $A = 1.0$ -->
     <g transform="translate(401.488667 110.412788) scale(0.14 -0.14)">
      <use xlink:href="#CMMI12-41" transform="scale(0.996264)"/>
      <use xlink:href="#CMR17-3d" transform="translate(100.801894 0) scale(0.996264)"/>
      <use xlink:href="#CMR17-31" transform="translate(200.190691 0) scale(0.996264)"/>
      <use xlink:href="#CMMI12-3a" transform="translate(245.881168 0) scale(0.996264)"/>
      <use xlink:href="#CMR17-30" transform="translate(272.978345 0) scale(0.996264)"/>
     </g>
    </g>
    <g id="line2d_44">
     <path d="M 362.288667 125.685589 
L 376.288667 125.685589 
L 389.542964 125.685589 
" style="fill: none; stroke: #b7d4ea; stroke-width: 3; stroke-linecap: square"/>
    </g>
    <g id="text_18">
     <!-- $P_{int}$ (A = 0.0) -->
     <g transform="translate(401.488667 130.585589) scale(0.14 -0.14)">
      <defs>
       <path id="CMMI12-50" d="M 1894 2023 
L 2970 2023 
C 3853 2023 4736 2673 4736 3401 
C 4736 3898 4314 4352 3507 4352 
L 1530 4352 
C 1408 4352 1350 4352 1350 4231 
C 1350 4167 1408 4167 1504 4167 
C 1894 4167 1894 4116 1894 4046 
C 1894 4034 1894 3995 1869 3899 
L 1005 472 
C 947 249 934 185 486 185 
C 365 185 301 185 301 70 
C 301 0 358 0 397 0 
C 518 0 646 0 768 0 
L 1517 0 
C 1638 0 1773 0 1894 0 
C 1946 0 2016 0 2016 121 
C 2016 185 1958 185 1862 185 
C 1478 185 1472 230 1472 293 
C 1472 325 1478 369 1485 401 
L 1894 2023 
z
M 2355 3930 
C 2413 4167 2438 4167 2688 4167 
L 3322 4167 
C 3802 4167 4198 4013 4198 3535 
C 4198 3369 4115 2827 3821 2534 
C 3712 2419 3405 2176 2822 2176 
L 1920 2176 
L 2355 3930 
z
" transform="scale(0.015625)"/>
       <path id="CMMI12-69" d="M 1811 913 
C 1811 945 1786 971 1747 971 
C 1690 971 1683 952 1651 843 
C 1485 262 1222 64 1011 64 
C 934 64 845 83 845 275 
C 845 447 922 639 992 830 
L 1440 2018 
C 1459 2069 1504 2184 1504 2305 
C 1504 2574 1312 2816 998 2816 
C 410 2816 173 1890 173 1839 
C 173 1814 198 1782 243 1782 
C 301 1782 307 1807 333 1896 
C 486 2428 730 2682 979 2682 
C 1037 2682 1146 2682 1146 2478 
C 1146 2312 1062 2101 1011 1961 
L 563 773 
C 525 671 486 568 486 453 
C 486 166 685 -64 992 -64 
C 1581 -64 1811 869 1811 913 
z
M 1760 4013 
C 1760 4109 1683 4224 1542 4224 
C 1395 4224 1229 4083 1229 3917 
C 1229 3758 1363 3707 1440 3707 
C 1613 3707 1760 3873 1760 4013 
z
" transform="scale(0.015625)"/>
       <path id="CMMI12-6e" d="M 1318 1871 
C 1331 1910 1491 2229 1728 2433 
C 1894 2586 2112 2689 2362 2689 
C 2618 2689 2707 2497 2707 2242 
C 2707 1878 2445 1150 2317 805 
C 2259 651 2227 568 2227 453 
C 2227 166 2426 -64 2733 -64 
C 3328 -64 3552 875 3552 913 
C 3552 945 3526 971 3488 971 
C 3430 971 3424 952 3392 843 
C 3245 319 3002 64 2752 64 
C 2688 64 2586 64 2586 269 
C 2586 429 2656 621 2694 710 
C 2822 1063 3091 1780 3091 2145 
C 3091 2528 2867 2816 2381 2816 
C 1811 2816 1510 2415 1395 2255 
C 1376 2618 1114 2816 832 2816 
C 627 2816 486 2695 378 2478 
C 262 2248 173 1865 173 1839 
C 173 1814 198 1782 243 1782 
C 294 1782 301 1788 339 1935 
C 442 2325 557 2689 813 2689 
C 960 2689 1011 2586 1011 2395 
C 1011 2254 947 2005 902 1807 
L 723 1118 
C 698 996 627 709 595 594 
C 550 428 480 128 480 96 
C 480 6 550 -64 646 -64 
C 723 -64 813 -26 864 70 
C 877 102 934 326 966 453 
L 1107 1028 
L 1318 1871 
z
" transform="scale(0.015625)"/>
       <path id="CMMI12-74" d="M 1286 2566 
L 1875 2566 
C 1997 2566 2061 2566 2061 2681 
C 2061 2752 2022 2752 1894 2752 
L 1331 2752 
L 1568 3692 
C 1594 3781 1594 3794 1594 3840 
C 1594 3943 1510 4000 1427 4000 
C 1376 4000 1229 3981 1178 3775 
L 928 2752 
L 326 2752 
C 198 2752 141 2752 141 2630 
C 141 2566 186 2566 307 2566 
L 877 2566 
L 454 881 
C 403 658 384 594 384 511 
C 384 211 595 -64 954 -64 
C 1600 -64 1946 868 1946 912 
C 1946 951 1920 970 1882 970 
C 1869 970 1843 970 1830 944 
C 1824 938 1818 931 1773 829 
C 1638 511 1344 64 973 64 
C 781 64 768 224 768 364 
C 768 370 768 492 787 568 
L 1286 2566 
z
" transform="scale(0.015625)"/>
       <path id="CMR17-28" d="M 1958 -1561 
C 1958 -1555 1958 -1542 1939 -1523 
C 1645 -1224 858 -407 858 1581 
C 858 3569 1632 4379 1946 4697 
C 1946 4704 1958 4717 1958 4736 
C 1958 4755 1939 4768 1914 4768 
C 1843 4768 1299 4296 986 3594 
C 666 2887 576 2199 576 1588 
C 576 1128 621 351 1005 -471 
C 1312 -1135 1837 -1600 1914 -1600 
C 1946 -1600 1958 -1587 1958 -1561 
z
" transform="scale(0.015625)"/>
       <path id="CMR17-41" d="M 2323 4378 
C 2291 4461 2278 4480 2214 4480 
C 2150 4480 2138 4461 2106 4378 
L 749 566 
C 627 223 371 153 147 153 
L 147 -13 
C 262 0 518 0 640 0 
C 800 0 1056 0 1210 -13 
L 1210 153 
C 909 153 864 361 864 439 
C 864 497 877 530 890 569 
L 1229 1536 
L 2906 1536 
L 3290 442 
C 3322 365 3322 352 3322 327 
C 3322 153 3046 153 2925 153 
L 2925 0 
C 3110 0 3443 0 3642 0 
C 3808 0 4128 0 4282 -13 
L 4282 153 
C 3942 153 3827 153 3744 387 
L 2323 4378 
z
M 2067 3893 
L 2848 1702 
L 1286 1702 
L 2067 3893 
z
" transform="scale(0.015625)"/>
       <path id="CMR17-2e" d="M 1062 261 
C 1062 420 934 522 800 522 
C 672 522 538 420 538 261 
C 538 102 666 0 800 0 
C 928 0 1062 102 1062 261 
z
" transform="scale(0.015625)"/>
       <path id="CMR17-29" d="M 1683 1581 
C 1683 2040 1638 2817 1254 3639 
C 947 4303 422 4768 346 4768 
C 326 4768 301 4761 301 4729 
C 301 4717 307 4710 314 4697 
C 621 4378 1402 3568 1402 1584 
C 1402 -407 627 -1217 314 -1537 
C 307 -1549 301 -1556 301 -1568 
C 301 -1600 326 -1600 346 -1600 
C 416 -1600 960 -1128 1274 -426 
C 1594 281 1683 969 1683 1581 
z
" transform="scale(0.015625)"/>
      </defs>
      <use xlink:href="#CMMI12-50" transform="scale(0.996264)"/>
      <use xlink:href="#CMMI12-69" transform="translate(62.877232 -14.943915) scale(0.697382)"/>
      <use xlink:href="#CMMI12-6e" transform="translate(86.17214 -14.943915) scale(0.697382)"/>
      <use xlink:href="#CMMI12-74" transform="translate(126.932983 -14.943915) scale(0.697382)"/>
      <use xlink:href="#CMR17-28" transform="translate(182.165391 0) scale(0.996264)"/>
      <use xlink:href="#CMR17-41" transform="translate(217.446158 0) scale(0.996264)"/>
      <use xlink:href="#CMR17-3d" transform="translate(316.594554 0) scale(0.996264)"/>
      <use xlink:href="#CMR17-30" transform="translate(418.385309 0) scale(0.996264)"/>
      <use xlink:href="#CMR17-2e" transform="translate(464.075786 0) scale(0.996264)"/>
      <use xlink:href="#CMR17-30" transform="translate(488.946845 0) scale(0.996264)"/>
      <use xlink:href="#CMR17-29" transform="translate(534.637322 0) scale(0.996264)"/>
     </g>
    </g>
    <g id="line2d_45">
     <path d="M 362.288667 149.384047 
L 376.288667 149.384047 
L 389.542964 149.384047 
" style="fill: none; stroke-dasharray: 3,4.95; stroke-dashoffset: 0; stroke: #b8e3b2; stroke-width: 3"/>
    </g>
    <g id="text_19">
     <!-- $\hat{P}$ (A = 0.0) -->
     <g transform="translate(401.488667 154.284047) scale(0.14 -0.14)">
      <defs>
       <path id="CMR17-5e" d="M 1466 4421 
L 678 3555 
L 755 3478 
L 1466 4166 
L 2176 3478 
L 2253 3555 
L 1466 4421 
z
" transform="scale(0.015625)"/>
      </defs>
      <use xlink:href="#CMR17-5e" transform="translate(23.496833 25.189733) scale(0.996264)"/>
      <use xlink:href="#CMMI12-50" transform="scale(0.996264)"/>
      <use xlink:href="#CMR17-28" transform="translate(106.501787 0) scale(0.996264)"/>
      <use xlink:href="#CMR17-41" transform="translate(141.782555 0) scale(0.996264)"/>
      <use xlink:href="#CMR17-3d" transform="translate(240.930951 0) scale(0.996264)"/>
      <use xlink:href="#CMR17-30" transform="translate(342.721706 0) scale(0.996264)"/>
      <use xlink:href="#CMR17-2e" transform="translate(388.412183 0) scale(0.996264)"/>
      <use xlink:href="#CMR17-30" transform="translate(413.283241 0) scale(0.996264)"/>
      <use xlink:href="#CMR17-29" transform="translate(458.973719 0) scale(0.996264)"/>
     </g>
    </g>
    <g id="line2d_46">
     <path style="fill: none; stroke: #60a7d2; stroke-width: 3; stroke-linecap: square"/>
    </g>
    <g id="text_20">
     <!-- $P_{int}$ (A = 0.33) -->
     <g transform="translate(553.68954 51.876703) scale(0.14 -0.14)">
      <use xlink:href="#CMMI12-50" transform="scale(0.996264)"/>
      <use xlink:href="#CMMI12-69" transform="translate(62.877232 -14.943915) scale(0.697382)"/>
      <use xlink:href="#CMMI12-6e" transform="translate(86.17214 -14.943915) scale(0.697382)"/>
      <use xlink:href="#CMMI12-74" transform="translate(126.932983 -14.943915) scale(0.697382)"/>
      <use xlink:href="#CMR17-28" transform="translate(182.165391 0) scale(0.996264)"/>
      <use xlink:href="#CMR17-41" transform="translate(217.446158 0) scale(0.996264)"/>
      <use xlink:href="#CMR17-3d" transform="translate(316.594554 0) scale(0.996264)"/>
      <use xlink:href="#CMR17-30" transform="translate(418.385309 0) scale(0.996264)"/>
      <use xlink:href="#CMR17-2e" transform="translate(464.075786 0) scale(0.996264)"/>
      <use xlink:href="#CMR17-33" transform="translate(488.946845 0) scale(0.996264)"/>
      <use xlink:href="#CMR17-33" transform="translate(534.637322 0) scale(0.996264)"/>
      <use xlink:href="#CMR17-29" transform="translate(580.327799 0) scale(0.996264)"/>
     </g>
    </g>
    <g id="line2d_47">
     <path style="fill: none; stroke-dasharray: 3,4.95; stroke-dashoffset: 0; stroke: #66bd6f; stroke-width: 3"/>
    </g>
    <g id="text_21">
     <!-- $\hat{P}$ (A = 0.33) -->
     <g transform="translate(553.68954 75.575162) scale(0.14 -0.14)">
      <use xlink:href="#CMR17-5e" transform="translate(23.496833 25.189733) scale(0.996264)"/>
      <use xlink:href="#CMMI12-50" transform="scale(0.996264)"/>
      <use xlink:href="#CMR17-28" transform="translate(106.501787 0) scale(0.996264)"/>
      <use xlink:href="#CMR17-41" transform="translate(141.782555 0) scale(0.996264)"/>
      <use xlink:href="#CMR17-3d" transform="translate(240.930951 0) scale(0.996264)"/>
      <use xlink:href="#CMR17-30" transform="translate(342.721706 0) scale(0.996264)"/>
      <use xlink:href="#CMR17-2e" transform="translate(388.412183 0) scale(0.996264)"/>
      <use xlink:href="#CMR17-33" transform="translate(413.283241 0) scale(0.996264)"/>
      <use xlink:href="#CMR17-33" transform="translate(458.973719 0) scale(0.996264)"/>
      <use xlink:href="#CMR17-29" transform="translate(504.664196 0) scale(0.996264)"/>
     </g>
    </g>
    <g id="line2d_48">
     <path style="fill: none; stroke: #1d6cb1; stroke-width: 3; stroke-linecap: square"/>
    </g>
    <g id="text_22">
     <!-- $P_{int}$ (A = 0.67) -->
     <g transform="translate(553.68954 96.522858) scale(0.14 -0.14)">
      <use xlink:href="#CMMI12-50" transform="scale(0.996264)"/>
      <use xlink:href="#CMMI12-69" transform="translate(62.877232 -14.943915) scale(0.697382)"/>
      <use xlink:href="#CMMI12-6e" transform="translate(86.17214 -14.943915) scale(0.697382)"/>
      <use xlink:href="#CMMI12-74" transform="translate(126.932983 -14.943915) scale(0.697382)"/>
      <use xlink:href="#CMR17-28" transform="translate(182.165391 0) scale(0.996264)"/>
      <use xlink:href="#CMR17-41" transform="translate(217.446158 0) scale(0.996264)"/>
      <use xlink:href="#CMR17-3d" transform="translate(316.594554 0) scale(0.996264)"/>
      <use xlink:href="#CMR17-30" transform="translate(418.385309 0) scale(0.996264)"/>
      <use xlink:href="#CMR17-2e" transform="translate(464.075786 0) scale(0.996264)"/>
      <use xlink:href="#CMR17-36" transform="translate(488.946845 0) scale(0.996264)"/>
      <use xlink:href="#CMR17-37" transform="translate(534.637322 0) scale(0.996264)"/>
      <use xlink:href="#CMR17-29" transform="translate(580.327799 0) scale(0.996264)"/>
     </g>
    </g>
    <g id="line2d_49">
     <path style="fill: none; stroke-dasharray: 3,4.95; stroke-dashoffset: 0; stroke: #1e8741; stroke-width: 3"/>
    </g>
    <g id="text_23">
     <!-- $\hat{P}$ (A = 0.67) -->
     <g transform="translate(553.68954 120.221316) scale(0.14 -0.14)">
      <use xlink:href="#CMR17-5e" transform="translate(23.496833 25.189733) scale(0.996264)"/>
      <use xlink:href="#CMMI12-50" transform="scale(0.996264)"/>
      <use xlink:href="#CMR17-28" transform="translate(106.501787 0) scale(0.996264)"/>
      <use xlink:href="#CMR17-41" transform="translate(141.782555 0) scale(0.996264)"/>
      <use xlink:href="#CMR17-3d" transform="translate(240.930951 0) scale(0.996264)"/>
      <use xlink:href="#CMR17-30" transform="translate(342.721706 0) scale(0.996264)"/>
      <use xlink:href="#CMR17-2e" transform="translate(388.412183 0) scale(0.996264)"/>
      <use xlink:href="#CMR17-36" transform="translate(413.283241 0) scale(0.996264)"/>
      <use xlink:href="#CMR17-37" transform="translate(458.973719 0) scale(0.996264)"/>
      <use xlink:href="#CMR17-29" transform="translate(504.664196 0) scale(0.996264)"/>
     </g>
    </g>
    <g id="line2d_50">
     <path style="fill: none; stroke: #08306b; stroke-width: 3; stroke-linecap: square"/>
    </g>
    <g id="text_24">
     <!-- $P_{int}$ (A = 1.0) -->
     <g transform="translate(553.68954 141.169013) scale(0.14 -0.14)">
      <use xlink:href="#CMMI12-50" transform="scale(0.996264)"/>
      <use xlink:href="#CMMI12-69" transform="translate(62.877232 -14.943915) scale(0.697382)"/>
      <use xlink:href="#CMMI12-6e" transform="translate(86.17214 -14.943915) scale(0.697382)"/>
      <use xlink:href="#CMMI12-74" transform="translate(126.932983 -14.943915) scale(0.697382)"/>
      <use xlink:href="#CMR17-28" transform="translate(182.165391 0) scale(0.996264)"/>
      <use xlink:href="#CMR17-41" transform="translate(217.446158 0) scale(0.996264)"/>
      <use xlink:href="#CMR17-3d" transform="translate(316.594554 0) scale(0.996264)"/>
      <use xlink:href="#CMR17-31" transform="translate(418.385309 0) scale(0.996264)"/>
      <use xlink:href="#CMR17-2e" transform="translate(464.075786 0) scale(0.996264)"/>
      <use xlink:href="#CMR17-30" transform="translate(488.946845 0) scale(0.996264)"/>
      <use xlink:href="#CMR17-29" transform="translate(534.637322 0) scale(0.996264)"/>
     </g>
    </g>
    <g id="line2d_51">
     <path style="fill: none; stroke-dasharray: 3,4.95; stroke-dashoffset: 0; stroke: #00441b; stroke-width: 3"/>
    </g>
    <g id="text_25">
     <!-- $\hat{P}$ (A = 1.0) -->
     <g transform="translate(553.68954 164.867471) scale(0.14 -0.14)">
      <use xlink:href="#CMR17-5e" transform="translate(23.496833 25.189733) scale(0.996264)"/>
      <use xlink:href="#CMMI12-50" transform="scale(0.996264)"/>
      <use xlink:href="#CMR17-28" transform="translate(106.501787 0) scale(0.996264)"/>
      <use xlink:href="#CMR17-41" transform="translate(141.782555 0) scale(0.996264)"/>
      <use xlink:href="#CMR17-3d" transform="translate(240.930951 0) scale(0.996264)"/>
      <use xlink:href="#CMR17-31" transform="translate(342.721706 0) scale(0.996264)"/>
      <use xlink:href="#CMR17-2e" transform="translate(388.412183 0) scale(0.996264)"/>
      <use xlink:href="#CMR17-30" transform="translate(413.283241 0) scale(0.996264)"/>
      <use xlink:href="#CMR17-29" transform="translate(458.973719 0) scale(0.996264)"/>
     </g>
    </g>
   </g>
  </g>
 </g>
 <defs>
  <clipPath id="p19833db1b4">
   <rect x="48.56787" y="28.815931" width="301.120797" height="184.902223"/>
  </clipPath>
 </defs>
</svg>
